<svg xmlns="http://www.w3.org/2000/svg" viewBox="0 0 669.6 443" enable-background="new 0 0 669.6 443"><style type="text/css">.st0{fill:#DBDBDB;} .st1{fill:#FFFFFF;}</style><path class="st0" d="M0 0h669.6v443h-669.6z"/><path class="st1" d="M396.3 171h-123c-1.2 0-2.2 1-2.2 2.2v96.6c0 1.2 1 2.2 2.2 2.2h123c1.2 0 2.2-1 2.2-2.2v-96.6c0-1.2-1-2.2-2.2-2.2zm-2.2 96.6h-118.6v-92.2h118.6v92.2zm-87.8-48c6.7 0 12.2-5.5 12.2-12.2s-5.5-12.2-12.2-12.2-12.2 5.5-12.2 12.2 5.4 12.2 12.2 12.2zm0-20.1c4.3 0 7.8 3.5 7.8 7.8s-3.5 7.8-7.8 7.8-7.8-3.5-7.8-7.8c-.1-4.2 3.4-7.8 7.8-7.8zm-19.8 59.3c.5 0 1-.2 1.4-.5l35.8-31.5 22.6 22.6c.9.9 2.2.9 3.1 0s.9-2.2 0-3.1l-10.6-10.6 20.2-22.1 24.7 22.7c.9.8 2.3.8 3.1-.1s.8-2.3-.1-3.1l-26.4-24.2c-.4-.4-1-.6-1.6-.6s-1.1.3-1.5.7l-21.5 23.6-10.4-10.4c-.8-.8-2.1-.9-3-.1l-37.3 32.9c-.9.8-1 2.2-.2 3.1.5.5 1.1.7 1.7.7z"/></svg>