<svg xmlns="http://www.w3.org/2000/svg" viewBox="0 0 107.6 15.88"><defs><style>.cls-1{fill:none;stroke:#221815;stroke-linecap:round;stroke-linejoin:round;stroke-width:0.3px;}</style></defs><g id="Layer_2" data-name="Layer 2"><g id="Layer_1-2" data-name="Layer 1"><path class="cls-1" d="M79.23,10.67a1.06,1.06,0,0,0,1.06,1.07"/><line class="cls-1" x1="80.29" y1="11.74" x2="85.08" y2="11.74"/><path class="cls-1" d="M77.63,10.67a2.67,2.67,0,0,0,2.66,2.67"/><line class="cls-1" x1="80.29" y1="13.34" x2="85.08" y2="13.34"/><line class="cls-1" x1="104.26" y1="9.2" x2="104.26" y2="15.73"/><line class="cls-1" x1="104.26" y1="9.2" x2="96.27" y2="9.2"/><line class="cls-1" x1="96.27" y1="9.2" x2="93.07" y2="10.14"/><line class="cls-1" x1="107.45" y1="14.93" x2="104.25" y2="14.93"/><line class="cls-1" x1="107.45" y1="10.14" x2="107.45" y2="14.93"/><line class="cls-1" x1="104.26" y1="10.14" x2="107.45" y2="10.14"/><line class="cls-1" x1="93.2" y1="14.96" x2="85.08" y2="14.4"/><line class="cls-1" x1="93.07" y1="10.14" x2="85.08" y2="10.67"/><line class="cls-1" x1="104.26" y1="15.73" x2="96.27" y2="15.73"/><line class="cls-1" x1="85.08" y1="14.4" x2="85.08" y2="10.67"/><line class="cls-1" x1="96.27" y1="15.73" x2="93.2" y2="14.96"/><path class="cls-1" d="M80.29,4.28a1.06,1.06,0,0,0-1.06,1.07"/><line class="cls-1" x1="80.29" y1="4.28" x2="85.08" y2="4.28"/><path class="cls-1" d="M80.29,2.69a2.66,2.66,0,0,0-2.66,2.66"/><line class="cls-1" x1="80.29" y1="2.69" x2="85.08" y2="2.69"/><line class="cls-1" x1="104.26" y1="0.15" x2="104.26" y2="6.68"/><line class="cls-1" x1="104.26" y1="0.15" x2="96.27" y2="0.15"/><line class="cls-1" x1="96.27" y1="0.15" x2="93.07" y2="1.09"/><line class="cls-1" x1="107.45" y1="5.88" x2="104.25" y2="5.88"/><line class="cls-1" x1="107.45" y1="1.09" x2="107.45" y2="5.88"/><line class="cls-1" x1="104.26" y1="1.09" x2="107.45" y2="1.09"/><line class="cls-1" x1="93.2" y1="5.91" x2="85.08" y2="5.35"/><line class="cls-1" x1="93.07" y1="1.09" x2="85.08" y2="1.62"/><line class="cls-1" x1="104.26" y1="6.68" x2="96.27" y2="6.68"/><line class="cls-1" x1="85.08" y1="5.35" x2="85.08" y2="1.62"/><line class="cls-1" x1="96.27" y1="6.68" x2="93.2" y2="5.91"/><path class="cls-1" d="M77.63,10.67a1.07,1.07,0,0,0-1.07-1.06"/><line class="cls-1" x1="77.63" y1="10.41" x2="77.63" y2="10.67"/><line class="cls-1" x1="79.23" y1="10.41" x2="79.23" y2="10.67"/><path class="cls-1" d="M76.56,6.41a1.06,1.06,0,0,0,1.07-1.06"/><line class="cls-1" x1="77.63" y1="5.61" x2="77.63" y2="5.35"/><line class="cls-1" x1="79.23" y1="5.61" x2="79.23" y2="5.35"/><path class="cls-1" d="M79.23,10.67A2.66,2.66,0,0,0,76.56,8"/><path class="cls-1" d="M76.56,8a2.67,2.67,0,0,0,2.67-2.66"/><line class="cls-1" x1="55.8" y1="12.14" x2="49.94" y2="10.67"/><line class="cls-1" x1="64.32" y1="12.14" x2="55.8" y2="12.14"/><line class="cls-1" x1="64.32" y1="3.88" x2="64.32" y2="12.14"/><line class="cls-1" x1="55.8" y1="3.88" x2="64.32" y2="3.88"/><line class="cls-1" x1="55.8" y1="3.88" x2="49.94" y2="5.35"/><line class="cls-1" x1="43.02" y1="10.67" x2="49.94" y2="10.67"/><line class="cls-1" x1="43.02" y1="5.35" x2="43.02" y2="10.67"/><line class="cls-1" x1="43.02" y1="5.35" x2="49.94" y2="5.35"/><line class="cls-1" x1="0.15" y1="5.61" x2="3.88" y2="5.61"/><line class="cls-1" x1="3.88" y1="5.61" x2="3.88" y2="10.41"/><line class="cls-1" x1="0.15" y1="5.61" x2="0.15" y2="10.41"/><line class="cls-1" x1="0.15" y1="10.41" x2="3.88" y2="10.41"/><line class="cls-1" x1="0.15" y1="7.48" x2="3.88" y2="7.48"/><line class="cls-1" x1="0.15" y1="8.54" x2="3.88" y2="8.54"/><line class="cls-1" x1="3.88" y1="4.02" x2="7.61" y2="4.02"/><line class="cls-1" x1="7.61" y1="4.02" x2="7.61" y2="12"/><line class="cls-1" x1="7.61" y1="12" x2="3.88" y2="12"/><line class="cls-1" x1="3.88" y1="12" x2="3.88" y2="4.02"/><line class="cls-1" x1="7.87" y1="4.28" x2="7.61" y2="4.02"/><line class="cls-1" x1="7.87" y1="4.28" x2="7.87" y2="11.74"/><line class="cls-1" x1="7.87" y1="11.74" x2="7.61" y2="12"/><line class="cls-1" x1="17.19" y1="4.02" x2="7.87" y2="4.02"/><line class="cls-1" x1="17.19" y1="4.02" x2="17.19" y2="12"/><line class="cls-1" x1="17.19" y1="12" x2="7.87" y2="12"/><line class="cls-1" x1="17.19" y1="4.02" x2="18.79" y2="5.35"/><line class="cls-1" x1="17.19" y1="12" x2="18.79" y2="10.67"/><line class="cls-1" x1="18.79" y1="5.35" x2="18.79" y2="10.67"/><line class="cls-1" x1="24.65" y1="6.01" x2="24.65" y2="10.01"/><line class="cls-1" x1="8.4" y1="8.01" x2="8.94" y2="7.48"/><line class="cls-1" x1="8.4" y1="8.01" x2="8.94" y2="8.54"/><line class="cls-1" x1="8.94" y1="8.54" x2="8.94" y2="8.28"/><line class="cls-1" x1="8.94" y1="7.74" x2="8.94" y2="7.48"/><line class="cls-1" x1="8.94" y1="7.74" x2="9.74" y2="7.74"/><line class="cls-1" x1="9.73" y1="7.74" x2="9.73" y2="8.28"/><line class="cls-1" x1="9.73" y1="8.28" x2="8.94" y2="8.28"/><line class="cls-1" x1="21.18" y1="5.61" x2="21.18" y2="10.41"/><line class="cls-1" x1="21.98" y1="5.71" x2="21.98" y2="10.31"/><line class="cls-1" x1="19.59" y1="7.35" x2="19.59" y2="5.44"/><path class="cls-1" d="M19.59,7.35a.39.39,0,0,0,.4.39"/><line class="cls-1" x1="20.38" y1="5.53" x2="20.38" y2="7.34"/><path class="cls-1" d="M20,7.74a.38.38,0,0,0,.39-.39"/><line class="cls-1" x1="20.38" y1="8.68" x2="20.38" y2="10.49"/><path class="cls-1" d="M20.38,8.68a.39.39,0,0,0-.39-.4"/><line class="cls-1" x1="19.59" y1="8.68" x2="19.59" y2="10.58"/><path class="cls-1" d="M20,8.28a.39.39,0,0,0-.4.4"/><line class="cls-1" x1="22.78" y1="5.8" x2="22.78" y2="7.35"/><path class="cls-1" d="M22.78,7.35a.39.39,0,0,0,.4.39"/><line class="cls-1" x1="23.58" y1="7.35" x2="23.58" y2="5.89"/><path class="cls-1" d="M23.18,7.74a.39.39,0,0,0,.4-.39"/><line class="cls-1" x1="22.78" y1="8.68" x2="22.78" y2="10.22"/><path class="cls-1" d="M23.18,8.28a.4.4,0,0,0-.4.4"/><line class="cls-1" x1="23.58" y1="8.68" x2="23.58" y2="10.13"/><path class="cls-1" d="M23.58,8.68a.4.4,0,0,0-.4-.4"/><line class="cls-1" x1="23.58" y1="6.68" x2="22.78" y2="6.68"/><line class="cls-1" x1="21.98" y1="6.68" x2="21.18" y2="6.68"/><line class="cls-1" x1="20.38" y1="6.68" x2="19.59" y2="6.68"/><line class="cls-1" x1="19.59" y1="9.34" x2="20.38" y2="9.34"/><line class="cls-1" x1="23.58" y1="5.89" x2="24.65" y2="6.01"/><line class="cls-1" x1="23.58" y1="10.13" x2="24.65" y2="10.01"/><line class="cls-1" x1="21.18" y1="9.34" x2="21.98" y2="9.34"/><line class="cls-1" x1="22.78" y1="9.34" x2="23.58" y2="9.34"/><line class="cls-1" x1="18.79" y1="5.35" x2="19.59" y2="5.44"/><line class="cls-1" x1="20.39" y1="5.53" x2="22.78" y2="5.8"/><line class="cls-1" x1="18.79" y1="10.67" x2="19.59" y2="10.58"/><line class="cls-1" x1="20.38" y1="10.49" x2="22.78" y2="10.22"/><line class="cls-1" x1="20.38" y1="5.61" x2="19.59" y2="5.61"/><line class="cls-1" x1="20.38" y1="10.41" x2="19.59" y2="10.41"/><line class="cls-1" x1="7.87" y1="4.02" x2="7.87" y2="12"/><line class="cls-1" x1="33.17" y1="6.15" x2="32.97" y2="7.12"/><path class="cls-1" d="M33,7.12a1.1,1.1,0,0,0,.09.69"/><line class="cls-1" x1="33.89" y1="8.9" x2="33.7" y2="9.87"/><path class="cls-1" d="M33.89,8.9a1,1,0,0,0-.09-.68"/><line class="cls-1" x1="33.59" y1="7.81" x2="33.8" y2="8.22"/><line class="cls-1" x1="33.7" y1="6.15" x2="33.5" y2="7.12"/><path class="cls-1" d="M33.5,7.12a1.11,1.11,0,0,0,.1.69"/><line class="cls-1" x1="33.36" y1="8.9" x2="33.16" y2="9.87"/><line class="cls-1" x1="33.06" y1="7.81" x2="33.27" y2="8.22"/><path class="cls-1" d="M33.36,8.9a1.06,1.06,0,0,0-.09-.68"/><line class="cls-1" x1="43.02" y1="6.68" x2="33.59" y2="6.68"/><line class="cls-1" x1="33.8" y1="9.34" x2="43.02" y2="9.34"/><line class="cls-1" x1="70.19" y1="6.15" x2="70" y2="7.12"/><path class="cls-1" d="M70,7.12a1.1,1.1,0,0,0,.09.69"/><line class="cls-1" x1="70.92" y1="8.9" x2="70.73" y2="9.87"/><path class="cls-1" d="M70.92,8.9a1,1,0,0,0-.09-.68"/><line class="cls-1" x1="70.62" y1="7.81" x2="70.83" y2="8.22"/><line class="cls-1" x1="70.73" y1="6.15" x2="70.53" y2="7.12"/><path class="cls-1" d="M70.53,7.12a1.18,1.18,0,0,0,.09.69"/><line class="cls-1" x1="70.39" y1="8.9" x2="70.19" y2="9.87"/><line class="cls-1" x1="70.09" y1="7.81" x2="70.3" y2="8.22"/><path class="cls-1" d="M70.39,8.9a1.14,1.14,0,0,0-.09-.68"/><line class="cls-1" x1="76.56" y1="6.41" x2="70.67" y2="6.41"/><line class="cls-1" x1="70.14" y1="6.41" x2="64.32" y2="6.41"/><line class="cls-1" x1="76.56" y1="8.01" x2="70.73" y2="8.01"/><line class="cls-1" x1="70.19" y1="8.01" x2="64.32" y2="8.01"/><line class="cls-1" x1="76.56" y1="8.01" x2="70.73" y2="8.01"/><line class="cls-1" x1="70.19" y1="8.01" x2="64.32" y2="8.01"/><line class="cls-1" x1="76.56" y1="9.61" x2="70.78" y2="9.61"/><line class="cls-1" x1="70.25" y1="9.61" x2="64.32" y2="9.61"/><line class="cls-1" x1="28.45" y1="1.35" x2="31.38" y2="1.35"/><line class="cls-1" x1="31.38" y1="1.35" x2="31.38" y2="9.61"/><line class="cls-1" x1="31.38" y1="9.61" x2="28.45" y2="9.61"/><line class="cls-1" x1="28.45" y1="9.61" x2="28.45" y2="1.36"/><line class="cls-1" x1="33.06" y1="6.68" x2="31.38" y2="6.68"/><line class="cls-1" x1="28.45" y1="6.68" x2="24.65" y2="6.68"/><line class="cls-1" x1="24.65" y1="9.34" x2="28.45" y2="9.34"/><line class="cls-1" x1="31.38" y1="9.34" x2="33.27" y2="9.34"/></g></g></svg>