<svg xmlns="http://www.w3.org/2000/svg" viewBox="0 0 33.1 34.9"><defs><style>.cls-1{fill:none;stroke:#221815;stroke-linecap:round;stroke-linejoin:round;stroke-width:0.3px;}</style></defs><g id="Layer_2" data-name="Layer 2"><g id="Layer_1-2" data-name="Layer 1"><polyline class="cls-1" points="8.38 0.15 8.33 0.15 8.23 0.15 8.05 0.15 7.8 0.15 7.5 0.15 7.15 0.15 6.77 0.15 6.36 0.15 5.93 0.15 5.52 0.15 5.11 0.15 4.73 0.15 4.38 0.15 4.08 0.15 3.82 0.15 3.65 0.15 3.54 0.15 3.5 0.15"/><polyline class="cls-1" points="11.73 2.04 11.69 2.04 11.56 2.04 11.34 2.04 11.06 2.04 10.7 2.04 10.27 2.04 9.77 2.04 9.21 2.04 8.63 2.04 7.99 2.04 7.33 2.04 6.64 2.04 5.93 2.04 5.24 2.04 4.55 2.04 3.89 2.04 3.24 2.04 2.64 2.04 2.1 2.04 1.61 2.04 1.18 2.04 0.82 2.04 0.54 2.04 0.32 2.04 0.19 2.04 0.15 2.04"/><polyline class="cls-1" points="11.73 2.94 11.69 2.94 11.56 2.94 11.34 2.94 11.06 2.94 10.7 2.94 10.27 2.94 9.77 2.94 9.21 2.94 8.63 2.94 7.99 2.94 7.33 2.94 6.64 2.94 5.93 2.94 5.24 2.94 4.55 2.94 3.89 2.94 3.24 2.94 2.64 2.94 2.1 2.94 1.61 2.94 1.18 2.94 0.82 2.94 0.54 2.94 0.32 2.94 0.19 2.94 0.15 2.94"/><polyline class="cls-1" points="8.48 12.61 8.44 12.61 8.31 12.61 8.14 12.61 7.88 12.61 7.56 12.61 7.2 12.61 6.81 12.61 6.38 12.61 5.93 12.61 5.5 12.61 5.07 12.61 4.66 12.61 4.3 12.61 4 12.61 3.74 12.61 3.54 12.61 3.44 12.61 3.39 12.61"/><polyline class="cls-1" points="7.97 13.1 7.95 13.1 7.82 13.1 7.63 13.1 7.39 13.1 7.07 13.1 6.72 13.1 6.34 13.1 5.93 13.1 5.54 13.1 5.16 13.1 4.81 13.1 4.49 13.1 4.23 13.1 4.06 13.1 3.93 13.1 3.89 13.1"/><path class="cls-1" d="M3.51.15A1.88,1.88,0,0,0,1.63,2"/><path class="cls-1" d="M10.27,2A1.88,1.88,0,0,0,8.39.15"/><line class="cls-1" x1="0.15" y1="2.94" x2="0.15" y2="2.04"/><line class="cls-1" x1="11.73" y1="2.94" x2="11.73" y2="2.04"/><path class="cls-1" d="M3.42,3.15a.21.21,0,0,0-.21-.21"/><path class="cls-1" d="M8.69,2.94a.21.21,0,0,0-.21.21"/><line class="cls-1" x1="3.39" y1="12.61" x2="3.39" y2="3.16"/><line class="cls-1" x1="8.48" y1="12.61" x2="8.48" y2="3.16"/><line class="cls-1" x1="3.89" y1="13.1" x2="3.39" y2="12.61"/><line class="cls-1" x1="7.97" y1="13.1" x2="8.48" y2="12.61"/><polyline class="cls-1" points="29.6 0.15 29.56 0.15 29.45 0.15 29.28 0.15 29.02 0.15 28.72 0.15 28.38 0.15 27.99 0.15 27.58 0.15 27.15 0.15 26.74 0.15 26.34 0.15 25.95 0.15 25.61 0.15 25.3 0.15 25.05 0.15 24.87 0.15 24.77 0.15 24.73 0.15"/><polyline class="cls-1" points="32.95 2.04 32.91 2.04 32.78 2.04 32.56 2.04 32.28 2.04 31.92 2.04 31.49 2.04 31 2.04 30.44 2.04 29.86 2.04 29.21 2.04 28.55 2.04 27.86 2.04 27.15 2.04 26.46 2.04 25.78 2.04 25.11 2.04 24.47 2.04 23.86 2.04 23.33 2.04 22.83 2.04 22.41 2.04 22.04 2.04 21.76 2.04 21.55 2.04 21.42 2.04 21.37 2.04"/><polyline class="cls-1" points="32.95 2.94 32.91 2.94 32.78 2.94 32.56 2.94 32.28 2.94 31.92 2.94 31.49 2.94 31 2.94 30.44 2.94 29.86 2.94 29.21 2.94 28.55 2.94 27.86 2.94 27.15 2.94 26.46 2.94 25.78 2.94 25.11 2.94 24.47 2.94 23.86 2.94 23.33 2.94 22.83 2.94 22.41 2.94 22.04 2.94 21.76 2.94 21.55 2.94 21.42 2.94 21.37 2.94"/><polyline class="cls-1" points="29.71 12.61 29.66 12.61 29.54 12.61 29.36 12.61 29.11 12.61 28.78 12.61 28.42 12.61 28.03 12.61 27.6 12.61 27.15 12.61 26.72 12.61 26.29 12.61 25.88 12.61 25.52 12.61 25.22 12.61 24.96 12.61 24.77 12.61 24.66 12.61 24.62 12.61"/><polyline class="cls-1" points="29.19 13.1 29.17 13.1 29.04 13.1 28.85 13.1 28.61 13.1 28.29 13.1 27.95 13.1 27.56 13.1 27.15 13.1 26.77 13.1 26.38 13.1 26.03 13.1 25.71 13.1 25.45 13.1 25.28 13.1 25.15 13.1 25.11 13.1"/><path class="cls-1" d="M24.73.15A1.88,1.88,0,0,0,22.86,2"/><path class="cls-1" d="M31.49,2A1.88,1.88,0,0,0,29.61.15"/><line class="cls-1" x1="21.37" y1="2.94" x2="21.37" y2="2.04"/><line class="cls-1" x1="32.95" y1="2.94" x2="32.95" y2="2.04"/><path class="cls-1" d="M24.64,3.15a.21.21,0,0,0-.21-.21"/><path class="cls-1" d="M29.91,2.94a.2.2,0,0,0-.2.21"/><line class="cls-1" x1="24.62" y1="12.61" x2="24.62" y2="3.16"/><line class="cls-1" x1="29.71" y1="12.61" x2="29.71" y2="3.16"/><line class="cls-1" x1="25.11" y1="13.1" x2="24.62" y2="12.61"/><line class="cls-1" x1="29.19" y1="13.1" x2="29.71" y2="12.61"/><polyline class="cls-1" points="8.38 21.8 8.33 21.8 8.23 21.8 8.05 21.8 7.8 21.8 7.5 21.8 7.15 21.8 6.77 21.8 6.36 21.8 5.93 21.8 5.52 21.8 5.11 21.8 4.73 21.8 4.38 21.8 4.08 21.8 3.82 21.8 3.65 21.8 3.54 21.8 3.5 21.8"/><polyline class="cls-1" points="11.73 23.69 11.69 23.69 11.56 23.69 11.34 23.69 11.06 23.69 10.7 23.69 10.27 23.69 9.77 23.69 9.21 23.69 8.63 23.69 7.99 23.69 7.33 23.69 6.64 23.69 5.93 23.69 5.24 23.69 4.55 23.69 3.89 23.69 3.24 23.69 2.64 23.69 2.1 23.69 1.61 23.69 1.18 23.69 0.82 23.69 0.54 23.69 0.32 23.69 0.19 23.69 0.15 23.69"/><polyline class="cls-1" points="11.73 24.59 11.69 24.59 11.56 24.59 11.34 24.59 11.06 24.59 10.7 24.59 10.27 24.59 9.77 24.59 9.21 24.59 8.63 24.59 7.99 24.59 7.33 24.59 6.64 24.59 5.93 24.59 5.24 24.59 4.55 24.59 3.89 24.59 3.24 24.59 2.64 24.59 2.1 24.59 1.61 24.59 1.18 24.59 0.82 24.59 0.54 24.59 0.32 24.59 0.19 24.59 0.15 24.59"/><polyline class="cls-1" points="8.48 34.26 8.44 34.26 8.31 34.26 8.14 34.26 7.88 34.26 7.56 34.26 7.2 34.26 6.81 34.26 6.38 34.26 5.93 34.26 5.5 34.26 5.07 34.26 4.66 34.26 4.3 34.26 4 34.26 3.74 34.26 3.54 34.26 3.44 34.26 3.39 34.26"/><polyline class="cls-1" points="7.97 34.75 7.95 34.75 7.82 34.75 7.63 34.75 7.39 34.75 7.07 34.75 6.72 34.75 6.34 34.75 5.93 34.75 5.54 34.75 5.16 34.75 4.81 34.75 4.49 34.75 4.23 34.75 4.06 34.75 3.93 34.75 3.89 34.75"/><path class="cls-1" d="M3.51,21.8a1.88,1.88,0,0,0-1.88,1.88"/><path class="cls-1" d="M10.27,23.68A1.88,1.88,0,0,0,8.39,21.8"/><line class="cls-1" x1="0.15" y1="24.59" x2="0.15" y2="23.69"/><line class="cls-1" x1="11.73" y1="24.59" x2="11.73" y2="23.69"/><path class="cls-1" d="M3.42,24.79a.21.21,0,0,0-.21-.2"/><path class="cls-1" d="M8.69,24.59a.21.21,0,0,0-.21.2"/><line class="cls-1" x1="3.39" y1="34.25" x2="3.39" y2="24.8"/><line class="cls-1" x1="8.48" y1="34.25" x2="8.48" y2="24.8"/><line class="cls-1" x1="3.89" y1="34.75" x2="3.39" y2="34.25"/><line class="cls-1" x1="7.97" y1="34.75" x2="8.48" y2="34.25"/><polyline class="cls-1" points="29.6 21.8 29.56 21.8 29.45 21.8 29.28 21.8 29.02 21.8 28.72 21.8 28.38 21.8 27.99 21.8 27.58 21.8 27.15 21.8 26.74 21.8 26.34 21.8 25.95 21.8 25.61 21.8 25.3 21.8 25.05 21.8 24.87 21.8 24.77 21.8 24.73 21.8"/><polyline class="cls-1" points="32.95 23.69 32.91 23.69 32.78 23.69 32.56 23.69 32.28 23.69 31.92 23.69 31.49 23.69 31 23.69 30.44 23.69 29.86 23.69 29.21 23.69 28.55 23.69 27.86 23.69 27.15 23.69 26.46 23.69 25.78 23.69 25.11 23.69 24.47 23.69 23.86 23.69 23.33 23.69 22.83 23.69 22.41 23.69 22.04 23.69 21.76 23.69 21.55 23.69 21.42 23.69 21.37 23.69"/><polyline class="cls-1" points="32.95 24.59 32.91 24.59 32.78 24.59 32.56 24.59 32.28 24.59 31.92 24.59 31.49 24.59 31 24.59 30.44 24.59 29.86 24.59 29.21 24.59 28.55 24.59 27.86 24.59 27.15 24.59 26.46 24.59 25.78 24.59 25.11 24.59 24.47 24.59 23.86 24.59 23.33 24.59 22.83 24.59 22.41 24.59 22.04 24.59 21.76 24.59 21.55 24.59 21.42 24.59 21.37 24.59"/><polyline class="cls-1" points="29.71 34.26 29.66 34.26 29.54 34.26 29.36 34.26 29.11 34.26 28.78 34.26 28.42 34.26 28.03 34.26 27.6 34.26 27.15 34.26 26.72 34.26 26.29 34.26 25.88 34.26 25.52 34.26 25.22 34.26 24.96 34.26 24.77 34.26 24.66 34.26 24.62 34.26"/><polyline class="cls-1" points="29.19 34.75 29.17 34.75 29.04 34.75 28.85 34.75 28.61 34.75 28.29 34.75 27.95 34.75 27.56 34.75 27.15 34.75 26.77 34.75 26.38 34.75 26.03 34.75 25.71 34.75 25.45 34.75 25.28 34.75 25.15 34.75 25.11 34.75"/><path class="cls-1" d="M24.73,21.8a1.88,1.88,0,0,0-1.87,1.88"/><path class="cls-1" d="M31.49,23.68a1.88,1.88,0,0,0-1.88-1.88"/><line class="cls-1" x1="21.37" y1="24.59" x2="21.37" y2="23.69"/><line class="cls-1" x1="32.95" y1="24.59" x2="32.95" y2="23.69"/><path class="cls-1" d="M24.64,24.79a.2.2,0,0,0-.21-.2"/><path class="cls-1" d="M29.91,24.59a.2.2,0,0,0-.2.2"/><line class="cls-1" x1="24.62" y1="34.25" x2="24.62" y2="24.8"/><line class="cls-1" x1="29.71" y1="34.25" x2="29.71" y2="24.8"/><line class="cls-1" x1="25.11" y1="34.75" x2="24.62" y2="34.25"/><line class="cls-1" x1="29.19" y1="34.75" x2="29.71" y2="34.25"/></g></g></svg>