<svg xmlns="http://www.w3.org/2000/svg" viewBox="0 0 96.36 49.09"><defs><style>.cls-1{fill:none;stroke:#221815;stroke-linecap:round;stroke-linejoin:round;stroke-width:0.3px;}</style></defs><g id="Layer_2" data-name="Layer 2"><g id="Layer_1-2" data-name="Layer 1"><line class="cls-1" x1="5.34" y1="46.45" x2="6.21" y2="46.45"/><line class="cls-1" x1="91.01" y1="46.45" x2="90.15" y2="46.45"/><line class="cls-1" x1="90.15" y1="33.36" x2="91.01" y2="33.36"/><line class="cls-1" x1="5.34" y1="33.36" x2="6.21" y2="33.36"/><line class="cls-1" x1="6.21" y1="46.45" x2="6.21" y2="4.48"/><path class="cls-1" d="M9.67,1A3.46,3.46,0,0,0,6.21,4.48"/><line class="cls-1" x1="86.69" y1="1.02" x2="9.67" y2="1.02"/><line class="cls-1" x1="90.15" y1="46.45" x2="90.15" y2="4.48"/><path class="cls-1" d="M90.15,4.48A3.46,3.46,0,0,0,86.69,1"/><line class="cls-1" x1="5.34" y1="46.45" x2="5.34" y2="4.48"/><path class="cls-1" d="M9.67.15A4.33,4.33,0,0,0,5.34,4.48"/><line class="cls-1" x1="9.67" y1="0.15" x2="86.69" y2="0.15"/><line class="cls-1" x1="91.01" y1="4.48" x2="91.01" y2="46.45"/><path class="cls-1" d="M91,4.48A4.32,4.32,0,0,0,86.69.15"/><line class="cls-1" x1="91.01" y1="42.63" x2="87.76" y2="42.63"/><line class="cls-1" x1="91.01" y1="44.42" x2="87.76" y2="44.42"/><line class="cls-1" x1="91.01" y1="42.44" x2="87.94" y2="42.44"/><line class="cls-1" x1="91.01" y1="44.61" x2="87.94" y2="44.61"/><line class="cls-1" x1="87.94" y1="42.44" x2="87.55" y2="42.83"/><line class="cls-1" x1="87.94" y1="44.61" x2="87.55" y2="44.22"/><line class="cls-1" x1="87.94" y1="44.61" x2="87.94" y2="42.45"/><line class="cls-1" x1="87.55" y1="44.22" x2="87.55" y2="42.83"/><line class="cls-1" x1="90.58" y1="42.63" x2="90.91" y2="42.45"/><line class="cls-1" x1="90.58" y1="44.42" x2="90.91" y2="44.61"/><line class="cls-1" x1="90.58" y1="44.61" x2="90.58" y2="42.45"/><line class="cls-1" x1="91.01" y1="45.26" x2="91.01" y2="41.8"/><line class="cls-1" x1="92.75" y1="46.34" x2="92.75" y2="40.71"/><line class="cls-1" x1="92.75" y1="40.71" x2="91.01" y2="40.71"/><line class="cls-1" x1="91.01" y1="40.71" x2="91.01" y2="46.34"/><line class="cls-1" x1="91.01" y1="46.34" x2="92.74" y2="46.34"/><line class="cls-1" x1="95.34" y1="48.94" x2="95.34" y2="38.12"/><line class="cls-1" x1="95.34" y1="38.12" x2="92.75" y2="38.12"/><line class="cls-1" x1="92.75" y1="38.12" x2="92.75" y2="48.93"/><line class="cls-1" x1="92.75" y1="48.94" x2="95.34" y2="48.94"/><path class="cls-1" d="M95.34,47.42a.87.87,0,0,0,.87-.86"/><line class="cls-1" x1="96.21" y1="46.56" x2="96.21" y2="40.5"/><path class="cls-1" d="M96.21,40.5a.87.87,0,0,0-.87-.87"/><line class="cls-1" x1="89.72" y1="45.69" x2="90.15" y2="45.69"/><line class="cls-1" x1="90.15" y1="45.69" x2="90.15" y2="41.36"/><line class="cls-1" x1="90.15" y1="41.36" x2="89.72" y2="41.36"/><line class="cls-1" x1="89.72" y1="41.36" x2="89.72" y2="45.69"/><line class="cls-1" x1="91.01" y1="31.38" x2="87.76" y2="31.38"/><line class="cls-1" x1="91.01" y1="33.17" x2="87.76" y2="33.17"/><line class="cls-1" x1="91.01" y1="31.19" x2="87.94" y2="31.19"/><line class="cls-1" x1="91.01" y1="33.36" x2="87.94" y2="33.36"/><line class="cls-1" x1="87.94" y1="31.19" x2="87.55" y2="31.58"/><line class="cls-1" x1="87.94" y1="33.36" x2="87.55" y2="32.97"/><line class="cls-1" x1="87.94" y1="33.36" x2="87.94" y2="31.2"/><line class="cls-1" x1="87.55" y1="32.97" x2="87.55" y2="31.58"/><line class="cls-1" x1="90.58" y1="31.38" x2="90.91" y2="31.2"/><line class="cls-1" x1="90.58" y1="33.17" x2="90.91" y2="33.36"/><line class="cls-1" x1="90.58" y1="33.36" x2="90.58" y2="31.2"/><line class="cls-1" x1="91.01" y1="34.01" x2="91.01" y2="30.55"/><line class="cls-1" x1="92.75" y1="35.09" x2="92.75" y2="29.46"/><line class="cls-1" x1="92.75" y1="29.46" x2="91.01" y2="29.46"/><line class="cls-1" x1="91.01" y1="29.46" x2="91.01" y2="35.09"/><line class="cls-1" x1="91.01" y1="35.09" x2="92.74" y2="35.09"/><line class="cls-1" x1="95.34" y1="37.69" x2="95.34" y2="26.87"/><line class="cls-1" x1="95.34" y1="26.87" x2="92.75" y2="26.87"/><line class="cls-1" x1="92.75" y1="26.87" x2="92.75" y2="37.68"/><line class="cls-1" x1="92.75" y1="37.69" x2="95.34" y2="37.69"/><path class="cls-1" d="M95.34,36.17a.87.87,0,0,0,.87-.86"/><line class="cls-1" x1="96.21" y1="35.31" x2="96.21" y2="29.25"/><path class="cls-1" d="M96.21,29.25a.87.87,0,0,0-.87-.87"/><line class="cls-1" x1="89.72" y1="34.44" x2="90.15" y2="34.44"/><line class="cls-1" x1="90.15" y1="34.44" x2="90.15" y2="30.11"/><line class="cls-1" x1="90.15" y1="30.11" x2="89.72" y2="30.11"/><line class="cls-1" x1="89.72" y1="30.11" x2="89.72" y2="34.44"/><line class="cls-1" x1="5.34" y1="44.42" x2="8.6" y2="44.42"/><line class="cls-1" x1="5.34" y1="42.63" x2="8.6" y2="42.63"/><line class="cls-1" x1="5.34" y1="44.61" x2="8.41" y2="44.61"/><line class="cls-1" x1="5.34" y1="42.44" x2="8.41" y2="42.44"/><line class="cls-1" x1="8.41" y1="44.61" x2="8.8" y2="44.22"/><line class="cls-1" x1="8.41" y1="42.44" x2="8.8" y2="42.83"/><line class="cls-1" x1="8.41" y1="42.44" x2="8.41" y2="44.61"/><line class="cls-1" x1="8.8" y1="42.83" x2="8.8" y2="44.22"/><line class="cls-1" x1="5.78" y1="44.42" x2="5.45" y2="44.61"/><line class="cls-1" x1="5.78" y1="42.63" x2="5.45" y2="42.45"/><line class="cls-1" x1="5.78" y1="42.44" x2="5.78" y2="44.61"/><line class="cls-1" x1="5.34" y1="41.8" x2="5.34" y2="45.26"/><line class="cls-1" x1="3.61" y1="40.71" x2="3.61" y2="46.34"/><line class="cls-1" x1="3.61" y1="46.34" x2="5.34" y2="46.34"/><line class="cls-1" x1="5.34" y1="46.34" x2="5.34" y2="40.71"/><line class="cls-1" x1="5.34" y1="40.71" x2="3.61" y2="40.71"/><line class="cls-1" x1="1.02" y1="38.12" x2="1.02" y2="48.93"/><line class="cls-1" x1="1.02" y1="48.94" x2="3.61" y2="48.94"/><line class="cls-1" x1="3.61" y1="48.94" x2="3.61" y2="38.12"/><line class="cls-1" x1="3.61" y1="38.12" x2="1.02" y2="38.12"/><path class="cls-1" d="M1,39.63a.87.87,0,0,0-.87.87"/><line class="cls-1" x1="0.15" y1="40.5" x2="0.15" y2="46.56"/><path class="cls-1" d="M.15,46.56a.87.87,0,0,0,.87.86"/><line class="cls-1" x1="6.64" y1="41.36" x2="6.21" y2="41.36"/><line class="cls-1" x1="6.21" y1="41.36" x2="6.21" y2="45.69"/><line class="cls-1" x1="6.21" y1="45.69" x2="6.64" y2="45.69"/><line class="cls-1" x1="6.64" y1="45.69" x2="6.64" y2="41.36"/><line class="cls-1" x1="5.34" y1="33.17" x2="8.6" y2="33.17"/><line class="cls-1" x1="5.34" y1="31.38" x2="8.6" y2="31.38"/><line class="cls-1" x1="5.34" y1="33.36" x2="8.41" y2="33.36"/><line class="cls-1" x1="5.34" y1="31.19" x2="8.41" y2="31.19"/><line class="cls-1" x1="8.41" y1="33.36" x2="8.8" y2="32.97"/><line class="cls-1" x1="8.41" y1="31.19" x2="8.8" y2="31.58"/><line class="cls-1" x1="8.41" y1="31.19" x2="8.41" y2="33.36"/><line class="cls-1" x1="8.8" y1="31.58" x2="8.8" y2="32.97"/><line class="cls-1" x1="5.78" y1="33.17" x2="5.45" y2="33.36"/><line class="cls-1" x1="5.78" y1="31.38" x2="5.45" y2="31.2"/><line class="cls-1" x1="5.78" y1="31.19" x2="5.78" y2="33.36"/><line class="cls-1" x1="5.34" y1="30.55" x2="5.34" y2="34.01"/><line class="cls-1" x1="3.61" y1="29.46" x2="3.61" y2="35.09"/><line class="cls-1" x1="3.61" y1="35.09" x2="5.34" y2="35.09"/><line class="cls-1" x1="5.34" y1="35.09" x2="5.34" y2="29.46"/><line class="cls-1" x1="5.34" y1="29.46" x2="3.61" y2="29.46"/><line class="cls-1" x1="1.02" y1="26.87" x2="1.02" y2="37.68"/><line class="cls-1" x1="1.02" y1="37.69" x2="3.61" y2="37.69"/><line class="cls-1" x1="3.61" y1="37.69" x2="3.61" y2="26.87"/><line class="cls-1" x1="3.61" y1="26.87" x2="1.02" y2="26.87"/><path class="cls-1" d="M1,28.38a.87.87,0,0,0-.87.87"/><line class="cls-1" x1="0.15" y1="29.25" x2="0.15" y2="35.31"/><path class="cls-1" d="M.15,35.31a.87.87,0,0,0,.87.86"/><line class="cls-1" x1="6.64" y1="30.11" x2="6.21" y2="30.11"/><line class="cls-1" x1="6.21" y1="30.11" x2="6.21" y2="34.44"/><line class="cls-1" x1="6.21" y1="34.44" x2="6.64" y2="34.44"/><line class="cls-1" x1="6.64" y1="34.44" x2="6.64" y2="30.11"/></g></g></svg>