<svg xmlns="http://www.w3.org/2000/svg" viewBox="0 0 90.48 60.67"><defs><style>.cls-1{fill:none;stroke:#787878;stroke-linecap:round;stroke-linejoin:round;stroke-width:0.3px;}</style></defs><g id="Layer_2" data-name="Layer 2"><g id="Layer_1-2" data-name="Layer 1"><line class="cls-1" x1="10.03" y1="6.55" x2="80.46" y2="6.55"/><line class="cls-1" x1="80.46" y1="6.55" x2="80.46" y2="45.65"/><line class="cls-1" x1="80.46" y1="45.65" x2="10.03" y2="45.65"/><line class="cls-1" x1="10.03" y1="45.65" x2="10.03" y2="6.55"/><path class="cls-1" d="M80.23,51.6a.23.23,0,1,1,.23.23A.23.23,0,0,1,80.23,51.6Z"/><path class="cls-1" d="M80.23,52.51a.22.22,0,0,1,.23-.22.22.22,0,0,1,.22.22.23.23,0,1,1-.45,0Z"/><path class="cls-1" d="M80.23,53.43a.23.23,0,1,1,.45,0,.23.23,0,1,1-.45,0Z"/><path class="cls-1" d="M80.23,54.34a.23.23,0,1,1,.45,0,.23.23,0,1,1-.45,0Z"/><path class="cls-1" d="M80.23,55.26a.23.23,0,1,1,.45,0,.23.23,0,1,1-.45,0Z"/><path class="cls-1" d="M80.23,56.17a.23.23,0,1,1,.45,0,.23.23,0,1,1-.45,0Z"/><path class="cls-1" d="M79.31,51.6a.23.23,0,1,1,.23.23A.23.23,0,0,1,79.31,51.6Z"/><path class="cls-1" d="M79.31,52.51a.23.23,0,1,1,.23.23A.22.22,0,0,1,79.31,52.51Z"/><path class="cls-1" d="M79.31,53.43a.23.23,0,1,1,.46,0,.23.23,0,1,1-.46,0Z"/><path class="cls-1" d="M79.31,54.34a.23.23,0,1,1,.46,0,.23.23,0,1,1-.46,0Z"/><path class="cls-1" d="M79.31,55.26a.23.23,0,1,1,.46,0,.23.23,0,1,1-.46,0Z"/><path class="cls-1" d="M79.31,56.17a.23.23,0,1,1,.46,0,.23.23,0,1,1-.46,0Z"/><path class="cls-1" d="M78.4,51.6a.23.23,0,0,1,.23-.23.23.23,0,0,1,0,.46A.23.23,0,0,1,78.4,51.6Z"/><path class="cls-1" d="M78.4,52.51a.22.22,0,0,1,.23-.22.23.23,0,1,1,0,.45A.23.23,0,0,1,78.4,52.51Z"/><path class="cls-1" d="M78.4,53.43a.23.23,0,0,1,.23-.23.23.23,0,0,1,.23.23.24.24,0,0,1-.23.23A.23.23,0,0,1,78.4,53.43Z"/><path class="cls-1" d="M78.4,54.34a.23.23,0,0,1,.23-.23.24.24,0,0,1,.23.23.23.23,0,0,1-.23.23A.23.23,0,0,1,78.4,54.34Z"/><path class="cls-1" d="M78.4,55.26a.23.23,0,0,1,.23-.23.23.23,0,0,1,.23.23.24.24,0,0,1-.23.23A.23.23,0,0,1,78.4,55.26Z"/><path class="cls-1" d="M78.4,56.17a.23.23,0,0,1,.23-.23.24.24,0,0,1,.23.23.23.23,0,0,1-.23.23A.23.23,0,0,1,78.4,56.17Z"/><path class="cls-1" d="M77.48,51.6a.23.23,0,0,1,.23-.23.23.23,0,0,1,0,.46A.23.23,0,0,1,77.48,51.6Z"/><path class="cls-1" d="M77.48,52.51a.23.23,0,0,1,.23-.22.23.23,0,1,1,0,.45A.23.23,0,0,1,77.48,52.51Z"/><path class="cls-1" d="M77.48,53.43a.23.23,0,0,1,.23-.23.23.23,0,0,1,.23.23.23.23,0,0,1-.23.23A.24.24,0,0,1,77.48,53.43Z"/><path class="cls-1" d="M77.48,54.34a.24.24,0,0,1,.23-.23.23.23,0,0,1,.23.23.23.23,0,0,1-.23.23A.23.23,0,0,1,77.48,54.34Z"/><path class="cls-1" d="M77.48,55.26a.23.23,0,0,1,.23-.23.23.23,0,0,1,.23.23.23.23,0,0,1-.23.23A.24.24,0,0,1,77.48,55.26Z"/><path class="cls-1" d="M77.48,56.17a.24.24,0,0,1,.23-.23.23.23,0,0,1,.23.23.23.23,0,0,1-.23.23A.23.23,0,0,1,77.48,56.17Z"/><path class="cls-1" d="M76.57,51.6a.23.23,0,0,1,.23-.23.23.23,0,0,1,0,.46A.23.23,0,0,1,76.57,51.6Z"/><path class="cls-1" d="M76.57,52.51a.22.22,0,0,1,.23-.22.23.23,0,1,1,0,.45A.23.23,0,0,1,76.57,52.51Z"/><path class="cls-1" d="M76.57,53.43a.23.23,0,0,1,.23-.23.23.23,0,0,1,.23.23.24.24,0,0,1-.23.23A.23.23,0,0,1,76.57,53.43Z"/><path class="cls-1" d="M76.57,54.34a.23.23,0,0,1,.23-.23.24.24,0,0,1,.23.23.23.23,0,0,1-.23.23A.23.23,0,0,1,76.57,54.34Z"/><path class="cls-1" d="M76.57,55.26A.23.23,0,0,1,76.8,55a.23.23,0,0,1,.23.23.24.24,0,0,1-.23.23A.23.23,0,0,1,76.57,55.26Z"/><path class="cls-1" d="M76.57,56.17a.23.23,0,0,1,.23-.23.24.24,0,0,1,.23.23.23.23,0,0,1-.23.23A.23.23,0,0,1,76.57,56.17Z"/><path class="cls-1" d="M75.65,51.6a.23.23,0,0,1,.23-.23.23.23,0,0,1,0,.46A.23.23,0,0,1,75.65,51.6Z"/><path class="cls-1" d="M75.65,52.51a.23.23,0,0,1,.23-.22.23.23,0,1,1,0,.45A.23.23,0,0,1,75.65,52.51Z"/><path class="cls-1" d="M75.65,53.43a.23.23,0,0,1,.23-.23.23.23,0,0,1,.23.23.23.23,0,0,1-.23.23A.24.24,0,0,1,75.65,53.43Z"/><path class="cls-1" d="M75.65,54.34a.24.24,0,0,1,.23-.23.23.23,0,0,1,.23.23.23.23,0,0,1-.23.23A.23.23,0,0,1,75.65,54.34Z"/><path class="cls-1" d="M75.65,55.26a.23.23,0,0,1,.23-.23.23.23,0,0,1,.23.23.23.23,0,0,1-.23.23A.24.24,0,0,1,75.65,55.26Z"/><path class="cls-1" d="M75.65,56.17a.24.24,0,0,1,.23-.23.23.23,0,0,1,.23.23.23.23,0,0,1-.23.23A.23.23,0,0,1,75.65,56.17Z"/><path class="cls-1" d="M81.14,51.6a.23.23,0,1,1,.23.23A.23.23,0,0,1,81.14,51.6Z"/><path class="cls-1" d="M81.14,52.51a.23.23,0,1,1,.23.23A.22.22,0,0,1,81.14,52.51Z"/><path class="cls-1" d="M81.14,53.43a.23.23,0,1,1,.46,0,.23.23,0,1,1-.46,0Z"/><path class="cls-1" d="M81.14,54.34a.23.23,0,1,1,.46,0,.23.23,0,1,1-.46,0Z"/><path class="cls-1" d="M81.14,55.26a.23.23,0,1,1,.46,0,.23.23,0,1,1-.46,0Z"/><path class="cls-1" d="M81.14,56.17a.23.23,0,1,1,.46,0,.23.23,0,1,1-.46,0Z"/><path class="cls-1" d="M82.06,51.6a.23.23,0,1,1,.23.23A.23.23,0,0,1,82.06,51.6Z"/><path class="cls-1" d="M82.06,52.51a.22.22,0,0,1,.23-.22.22.22,0,0,1,.22.22.23.23,0,1,1-.45,0Z"/><path class="cls-1" d="M82.06,53.43a.23.23,0,1,1,.45,0,.23.23,0,1,1-.45,0Z"/><path class="cls-1" d="M82.06,54.34a.23.23,0,1,1,.45,0,.23.23,0,1,1-.45,0Z"/><path class="cls-1" d="M82.06,55.26a.23.23,0,1,1,.45,0,.23.23,0,1,1-.45,0Z"/><path class="cls-1" d="M82.06,56.17a.23.23,0,1,1,.45,0,.23.23,0,1,1-.45,0Z"/><path class="cls-1" d="M83,51.6a.23.23,0,1,1,.23.23A.23.23,0,0,1,83,51.6Z"/><path class="cls-1" d="M83,52.51a.23.23,0,1,1,.23.23A.22.22,0,0,1,83,52.51Z"/><path class="cls-1" d="M83,53.43a.23.23,0,0,1,.46,0,.23.23,0,1,1-.46,0Z"/><path class="cls-1" d="M83,54.34a.23.23,0,1,1,.46,0,.23.23,0,1,1-.46,0Z"/><path class="cls-1" d="M83,55.26a.23.23,0,0,1,.46,0,.23.23,0,1,1-.46,0Z"/><path class="cls-1" d="M83,56.17a.23.23,0,0,1,.46,0,.23.23,0,1,1-.46,0Z"/><path class="cls-1" d="M8.2,53a.46.46,0,1,1,.46.46A.46.46,0,0,1,8.2,53Z"/><path class="cls-1" d="M11.4,53a.92.92,0,1,1,.91.92A.91.91,0,0,1,11.4,53Z"/><line class="cls-1" x1="19.52" y1="51.37" x2="19.52" y2="52.97"/><line class="cls-1" x1="19.52" y1="52.97" x2="19.75" y2="52.97"/><line class="cls-1" x1="19.75" y1="52.97" x2="19.75" y2="51.37"/><line class="cls-1" x1="19.75" y1="51.37" x2="19.52" y2="51.37"/><line class="cls-1" x1="19.4" y1="51.62" x2="19.4" y2="51.85"/><line class="cls-1" x1="19.86" y1="51.62" x2="19.86" y2="51.85"/><path class="cls-1" d="M19.4,51.85a1.14,1.14,0,1,0,.46,2.24,1.14,1.14,0,0,0,0-2.24"/><path class="cls-1" d="M19.4,51.62a1.37,1.37,0,1,0,.46,0"/><line class="cls-1" x1="29.24" y1="52.86" x2="29.24" y2="53.09"/><line class="cls-1" x1="29.24" y1="53.09" x2="29.81" y2="53.09"/><line class="cls-1" x1="29.81" y1="53.09" x2="29.81" y2="53.66"/><line class="cls-1" x1="29.81" y1="53.66" x2="30.04" y2="53.66"/><line class="cls-1" x1="30.04" y1="53.66" x2="30.04" y2="53.09"/><line class="cls-1" x1="30.04" y1="53.09" x2="30.61" y2="53.09"/><line class="cls-1" x1="30.61" y1="53.09" x2="30.61" y2="52.86"/><line class="cls-1" x1="30.61" y1="52.86" x2="30.04" y2="52.86"/><line class="cls-1" x1="30.04" y1="52.86" x2="30.04" y2="52.29"/><line class="cls-1" x1="30.04" y1="52.28" x2="29.81" y2="52.28"/><line class="cls-1" x1="29.81" y1="52.28" x2="29.81" y2="52.86"/><line class="cls-1" x1="29.81" y1="52.86" x2="29.24" y2="52.86"/><line class="cls-1" x1="39.53" y1="52.86" x2="39.53" y2="53.09"/><line class="cls-1" x1="40.9" y1="53.09" x2="40.9" y2="52.86"/><line class="cls-1" x1="40.9" y1="52.86" x2="39.53" y2="52.86"/><line class="cls-1" x1="39.53" y1="53.09" x2="40.9" y2="53.09"/><line class="cls-1" x1="49.82" y1="52.06" x2="51.19" y2="52.06"/><line class="cls-1" x1="50.5" y1="53.89" x2="49.82" y2="52.06"/><line class="cls-1" x1="50.5" y1="53.89" x2="51.19" y2="52.06"/><line class="cls-1" x1="50.15" y1="52.28" x2="50.86" y2="52.28"/><line class="cls-1" x1="50.86" y1="52.28" x2="50.5" y2="53.23"/><line class="cls-1" x1="50.5" y1="53.24" x2="50.15" y2="52.29"/><line class="cls-1" x1="59.88" y1="54.34" x2="59.88" y2="52.06"/><line class="cls-1" x1="61.71" y1="52.06" x2="61.71" y2="54.34"/><line class="cls-1" x1="59.88" y1="54.34" x2="60.11" y2="54.34"/><line class="cls-1" x1="60.11" y1="54.34" x2="60.11" y2="52.94"/><line class="cls-1" x1="60.11" y1="52.94" x2="60.67" y2="54.34"/><line class="cls-1" x1="60.67" y1="54.34" x2="60.91" y2="54.34"/><line class="cls-1" x1="61.48" y1="52.94" x2="60.91" y2="54.34"/><line class="cls-1" x1="61.48" y1="52.94" x2="61.48" y2="54.34"/><line class="cls-1" x1="61.48" y1="54.34" x2="61.71" y2="54.34"/><line class="cls-1" x1="60.79" y1="54.03" x2="61.58" y2="52.06"/><line class="cls-1" x1="60.79" y1="54.03" x2="60" y2="52.06"/><line class="cls-1" x1="59.88" y1="52.06" x2="60" y2="52.06"/><line class="cls-1" x1="61.71" y1="52.06" x2="61.58" y2="52.06"/><line class="cls-1" x1="70.68" y1="53.89" x2="70.43" y2="53.89"/><line class="cls-1" x1="71.77" y1="52.74" x2="71.54" y2="52.74"/><path class="cls-1" d="M70.43,53.89a.69.69,0,0,0,.88.41A.68.68,0,0,0,71,53"/><path class="cls-1" d="M71.54,52.74a.46.46,0,0,0-.82-.28"/><path class="cls-1" d="M70.72,52.46a.33.33,0,0,0,0,.45A.4.4,0,0,0,71,53"/><path class="cls-1" d="M70.68,53.89a.47.47,0,0,0,.63.16.46.46,0,0,0,.17-.62A.46.46,0,0,0,71,53.2"/><path class="cls-1" d="M70.55,52.31a.55.55,0,0,0,.08.78.52.52,0,0,0,.4.11"/><path class="cls-1" d="M71.77,52.74a.68.68,0,0,0-.69-.68.66.66,0,0,0-.48.2"/><line class="cls-1" x1="70.6" y1="52.26" x2="70.54" y2="52.31"/><line class="cls-1" x1="10.03" y1="6.55" x2="7.06" y2="5.07"/><line class="cls-1" x1="7.06" y1="5.07" x2="7.06" y2="47.14"/><line class="cls-1" x1="7.06" y1="47.14" x2="10.03" y2="45.65"/><line class="cls-1" x1="7.06" y1="47.14" x2="83.43" y2="47.14"/><line class="cls-1" x1="83.43" y1="47.14" x2="80.46" y2="45.65"/><line class="cls-1" x1="83.43" y1="47.14" x2="83.43" y2="5.07"/><line class="cls-1" x1="83.43" y1="5.07" x2="80.46" y2="6.55"/><line class="cls-1" x1="83.43" y1="5.07" x2="7.06" y2="5.07"/><line class="cls-1" x1="88.98" y1="21.64" x2="90.33" y2="21.64"/><line class="cls-1" x1="90.33" y1="21.64" x2="90.33" y2="39.02"/><line class="cls-1" x1="90.33" y1="39.02" x2="88.98" y2="39.02"/><line class="cls-1" x1="0.15" y1="21.64" x2="1.5" y2="21.64"/><line class="cls-1" x1="0.15" y1="21.64" x2="0.15" y2="39.02"/><line class="cls-1" x1="1.5" y1="39.02" x2="0.15" y2="39.02"/><line class="cls-1" x1="89.12" y1="27.13" x2="90.33" y2="27.13"/><line class="cls-1" x1="89.12" y1="33.53" x2="90.33" y2="33.53"/><line class="cls-1" x1="0.15" y1="27.13" x2="1.36" y2="27.13"/><line class="cls-1" x1="0.15" y1="33.53" x2="1.36" y2="33.53"/><line class="cls-1" x1="7.3" y1="60.52" x2="83.18" y2="60.52"/><line class="cls-1" x1="83.18" y1="0.15" x2="7.3" y2="0.15"/><path class="cls-1" d="M7.3.15A4.59,4.59,0,0,0,2.93,3.37"/><path class="cls-1" d="M87.54,3.35A4.56,4.56,0,0,0,83.18.15"/><path class="cls-1" d="M87.74,55.62a228.82,228.82,0,0,0-.19-52.25"/><path class="cls-1" d="M83.18,60.52a4.57,4.57,0,0,0,4.57-4.58c0-.11,0-.21,0-.32"/><path class="cls-1" d="M2.74,55.62A4.58,4.58,0,0,0,7,60.51H7.3"/><path class="cls-1" d="M2.93,3.37a228.82,228.82,0,0,0-.19,52.25"/></g></g></svg>