<svg xmlns="http://www.w3.org/2000/svg" viewBox="0 0 99.62 65.82"><defs><style>.cls-1,.cls-2{fill:none;stroke:#221815;stroke-linecap:round;stroke-linejoin:round;stroke-width:0.3px;}.cls-2{stroke-dasharray:1.09 0.36;}</style></defs><g id="Layer_2" data-name="Layer 2"><g id="Layer_1-2" data-name="Layer 1"><path class="cls-1" d="M5.31,21.18A.73.73,0,0,0,6,20.45"/><line class="cls-1" x1="5.31" y1="21.18" x2="1.16" y2="21.18"/><path class="cls-1" d="M6,14.14a.72.72,0,0,0-.72-.72"/><line class="cls-1" x1="1.16" y1="13.42" x2="5.31" y2="13.42"/><line class="cls-1" x1="14.52" y1="20.45" x2="6.03" y2="20.45"/><line class="cls-1" x1="14.52" y1="14.14" x2="14.52" y2="20.45"/><line class="cls-1" x1="6.03" y1="14.14" x2="14.52" y2="14.14"/><line class="cls-1" x1="1.16" y1="13.42" x2="1.16" y2="21.18"/><line class="cls-1" x1="20.04" y1="15.31" x2="20.04" y2="19.28"/><line class="cls-1" x1="20.04" y1="15.31" x2="15.71" y2="15.13"/><line class="cls-1" x1="20.04" y1="19.28" x2="15.71" y2="19.46"/><line class="cls-1" x1="15.71" y1="15.13" x2="15.71" y2="19.46"/><line class="cls-2" x1="0.15" y1="17.3" x2="22.67" y2="17.3"/><line class="cls-1" x1="15.71" y1="15.13" x2="14.52" y2="14.14"/><line class="cls-1" x1="15.71" y1="19.46" x2="14.52" y2="20.45"/><line class="cls-1" x1="6.03" y1="14.14" x2="6.03" y2="20.45"/><line class="cls-1" x1="6.58" y1="17.3" x2="7.66" y2="16.21"/><line class="cls-1" x1="7.66" y1="16.21" x2="7.66" y2="16.75"/><line class="cls-1" x1="7.66" y1="16.75" x2="8.74" y2="16.75"/><line class="cls-1" x1="8.74" y1="16.75" x2="8.74" y2="17.84"/><line class="cls-1" x1="8.74" y1="17.84" x2="7.66" y2="17.84"/><line class="cls-1" x1="7.66" y1="17.84" x2="7.66" y2="18.38"/><line class="cls-1" x1="7.66" y1="18.38" x2="6.58" y2="17.3"/><line class="cls-1" x1="30.94" y1="15.85" x2="30.5" y2="16.89"/><path class="cls-1" d="M30.5,16.89a.37.37,0,0,0,.07.4"/><line class="cls-1" x1="30.46" y1="17.89" x2="30.04" y2="18.74"/><path class="cls-1" d="M30.46,17.89a.36.36,0,0,0-.06-.42"/><line class="cls-1" x1="30.58" y1="15.85" x2="30.23" y2="16.67"/><line class="cls-1" x1="30.38" y1="17.46" x2="30.4" y2="17.47"/><path class="cls-1" d="M30.23,16.67a.74.74,0,0,0,.15.79"/><line class="cls-1" x1="30.71" y1="18.12" x2="30.4" y2="18.74"/><line class="cls-1" x1="30.57" y1="17.29" x2="30.57" y2="17.29"/><path class="cls-1" d="M30.71,18.12a.72.72,0,0,0-.14-.83"/><line class="cls-1" x1="45.02" y1="15.22" x2="45.02" y2="19.37"/><line class="cls-1" x1="45.02" y1="15.22" x2="52.24" y2="14.23"/><line class="cls-1" x1="52.24" y1="14.23" x2="52.24" y2="20.36"/><line class="cls-1" x1="52.24" y1="20.36" x2="45.02" y2="19.37"/><line class="cls-1" x1="60.36" y1="21.09" x2="60.36" y2="13.51"/><line class="cls-1" x1="52.78" y1="21.09" x2="60.36" y2="21.09"/><path class="cls-1" d="M52.24,20.54a.55.55,0,0,0,.54.55"/><line class="cls-1" x1="52.24" y1="14.05" x2="52.24" y2="20.54"/><line class="cls-1" x1="60.36" y1="13.51" x2="52.78" y2="13.51"/><path class="cls-1" d="M52.78,13.51a.54.54,0,0,0-.54.54"/><line class="cls-1" x1="30.43" y1="16.21" x2="20.04" y2="16.21"/><line class="cls-1" x1="30.79" y1="16.21" x2="45.02" y2="16.21"/><line class="cls-1" x1="30.22" y1="18.38" x2="20.04" y2="18.38"/><line class="cls-1" x1="30.58" y1="18.38" x2="45.02" y2="18.38"/><line class="cls-1" x1="97.13" y1="1.96" x2="97.13" y2="7.37"/><line class="cls-1" x1="97.13" y1="7.37" x2="97.67" y2="7.37"/><line class="cls-1" x1="97.67" y1="7.37" x2="97.67" y2="1.96"/><line class="cls-1" x1="97.67" y1="1.96" x2="97.13" y2="1.96"/><line class="cls-1" x1="97.67" y1="2.5" x2="99.47" y2="2.5"/><line class="cls-1" x1="99.47" y1="2.5" x2="99.47" y2="6.83"/><line class="cls-1" x1="99.47" y1="6.83" x2="97.67" y2="6.83"/><line class="cls-1" x1="90.81" y1="1.96" x2="97.13" y2="1.96"/><line class="cls-1" x1="90.81" y1="1.96" x2="90.81" y2="7.37"/><line class="cls-1" x1="90.81" y1="7.37" x2="97.13" y2="7.37"/><line class="cls-1" x1="90.81" y1="1.96" x2="89.73" y2="2.86"/><line class="cls-1" x1="90.81" y1="7.37" x2="89.73" y2="6.47"/><line class="cls-1" x1="89.73" y1="2.86" x2="89.73" y2="6.47"/><line class="cls-1" x1="85.76" y1="3.31" x2="85.76" y2="6.02"/><line class="cls-1" x1="96.76" y1="4.66" x2="96.4" y2="4.3"/><line class="cls-1" x1="96.76" y1="4.66" x2="96.4" y2="5.02"/><line class="cls-1" x1="96.4" y1="5.02" x2="96.4" y2="4.84"/><line class="cls-1" x1="96.4" y1="4.48" x2="96.4" y2="4.3"/><line class="cls-1" x1="96.4" y1="4.48" x2="95.86" y2="4.48"/><line class="cls-1" x1="95.86" y1="4.48" x2="95.86" y2="4.84"/><line class="cls-1" x1="95.86" y1="4.84" x2="96.4" y2="4.84"/><line class="cls-1" x1="88.1" y1="3.04" x2="88.1" y2="6.29"/><line class="cls-1" x1="87.56" y1="3.1" x2="87.56" y2="6.22"/><line class="cls-1" x1="89.18" y1="4.21" x2="89.18" y2="2.92"/><path class="cls-1" d="M88.91,4.48a.27.27,0,0,0,.27-.27"/><line class="cls-1" x1="88.64" y1="2.98" x2="88.64" y2="4.21"/><path class="cls-1" d="M88.64,4.21a.27.27,0,0,0,.27.27"/><line class="cls-1" x1="88.64" y1="5.11" x2="88.64" y2="6.34"/><path class="cls-1" d="M88.91,4.84a.27.27,0,0,0-.27.27"/><line class="cls-1" x1="89.18" y1="5.11" x2="89.18" y2="6.41"/><path class="cls-1" d="M89.18,5.11a.28.28,0,0,0-.27-.27"/><line class="cls-1" x1="87.02" y1="3.17" x2="87.02" y2="4.21"/><path class="cls-1" d="M86.75,4.48A.27.27,0,0,0,87,4.21"/><line class="cls-1" x1="86.48" y1="4.21" x2="86.48" y2="3.23"/><path class="cls-1" d="M86.48,4.21a.27.27,0,0,0,.27.27"/><line class="cls-1" x1="87.02" y1="5.11" x2="87.02" y2="6.16"/><path class="cls-1" d="M87,5.11a.28.28,0,0,0-.27-.27"/><line class="cls-1" x1="86.48" y1="5.11" x2="86.48" y2="6.1"/><path class="cls-1" d="M86.75,4.84a.27.27,0,0,0-.27.27"/><line class="cls-1" x1="86.48" y1="3.76" x2="87.02" y2="3.76"/><line class="cls-1" x1="87.56" y1="3.76" x2="88.1" y2="3.76"/><line class="cls-1" x1="88.64" y1="3.76" x2="89.19" y2="3.76"/><line class="cls-1" x1="89.18" y1="5.57" x2="88.64" y2="5.57"/><line class="cls-1" x1="86.48" y1="3.23" x2="85.76" y2="3.31"/><line class="cls-1" x1="86.48" y1="6.1" x2="85.76" y2="6.02"/><line class="cls-1" x1="88.1" y1="5.57" x2="87.56" y2="5.57"/><line class="cls-1" x1="87.02" y1="5.57" x2="86.48" y2="5.57"/><line class="cls-1" x1="89.73" y1="2.86" x2="89.18" y2="2.92"/><line class="cls-1" x1="88.64" y1="2.98" x2="87.02" y2="3.17"/><line class="cls-1" x1="89.73" y1="6.47" x2="89.18" y2="6.41"/><line class="cls-1" x1="88.64" y1="6.34" x2="87.02" y2="6.16"/><line class="cls-1" x1="88.64" y1="3.04" x2="89.19" y2="3.04"/><line class="cls-1" x1="88.64" y1="6.29" x2="89.19" y2="6.29"/><line class="cls-1" x1="97.13" y1="14.59" x2="97.13" y2="20"/><line class="cls-1" x1="97.13" y1="20" x2="97.67" y2="20"/><line class="cls-1" x1="97.67" y1="20" x2="97.67" y2="14.59"/><line class="cls-1" x1="97.67" y1="14.59" x2="97.13" y2="14.59"/><line class="cls-1" x1="97.67" y1="15.13" x2="99.47" y2="15.13"/><line class="cls-1" x1="99.47" y1="15.13" x2="99.47" y2="19.46"/><line class="cls-1" x1="99.47" y1="19.46" x2="97.67" y2="19.46"/><line class="cls-1" x1="90.81" y1="14.59" x2="97.13" y2="14.59"/><line class="cls-1" x1="90.81" y1="14.59" x2="90.81" y2="20"/><line class="cls-1" x1="90.81" y1="20" x2="97.13" y2="20"/><line class="cls-1" x1="90.81" y1="14.59" x2="89.73" y2="15.49"/><line class="cls-1" x1="90.81" y1="20" x2="89.73" y2="19.1"/><line class="cls-1" x1="89.73" y1="15.49" x2="89.73" y2="19.1"/><line class="cls-1" x1="85.76" y1="15.94" x2="85.76" y2="18.65"/><line class="cls-1" x1="96.76" y1="17.3" x2="96.4" y2="16.94"/><line class="cls-1" x1="96.76" y1="17.3" x2="96.4" y2="17.66"/><line class="cls-1" x1="96.4" y1="17.66" x2="96.4" y2="17.48"/><line class="cls-1" x1="96.4" y1="17.12" x2="96.4" y2="16.94"/><line class="cls-1" x1="96.4" y1="17.12" x2="95.86" y2="17.12"/><line class="cls-1" x1="95.86" y1="17.12" x2="95.86" y2="17.48"/><line class="cls-1" x1="95.86" y1="17.48" x2="96.4" y2="17.48"/><line class="cls-1" x1="88.1" y1="15.67" x2="88.1" y2="18.92"/><line class="cls-1" x1="87.56" y1="15.74" x2="87.56" y2="18.86"/><line class="cls-1" x1="89.18" y1="16.85" x2="89.18" y2="15.55"/><path class="cls-1" d="M88.91,17.12a.27.27,0,0,0,.27-.27"/><line class="cls-1" x1="88.64" y1="15.61" x2="88.64" y2="16.85"/><path class="cls-1" d="M88.64,16.85a.28.28,0,0,0,.27.27"/><line class="cls-1" x1="88.64" y1="17.75" x2="88.64" y2="18.98"/><path class="cls-1" d="M88.91,17.48a.27.27,0,0,0-.27.27"/><line class="cls-1" x1="89.18" y1="17.75" x2="89.18" y2="19.04"/><path class="cls-1" d="M89.18,17.75a.27.27,0,0,0-.27-.27"/><line class="cls-1" x1="87.02" y1="15.8" x2="87.02" y2="16.85"/><path class="cls-1" d="M86.75,17.12a.27.27,0,0,0,.27-.27"/><line class="cls-1" x1="86.48" y1="16.85" x2="86.48" y2="15.86"/><path class="cls-1" d="M86.48,16.85a.28.28,0,0,0,.27.27"/><line class="cls-1" x1="87.02" y1="17.75" x2="87.02" y2="18.79"/><path class="cls-1" d="M87,17.75a.27.27,0,0,0-.27-.27"/><line class="cls-1" x1="86.48" y1="17.75" x2="86.48" y2="18.73"/><path class="cls-1" d="M86.75,17.48a.27.27,0,0,0-.27.27"/><line class="cls-1" x1="86.48" y1="16.39" x2="87.02" y2="16.39"/><line class="cls-1" x1="87.56" y1="16.39" x2="88.1" y2="16.39"/><line class="cls-1" x1="88.64" y1="16.39" x2="89.19" y2="16.39"/><line class="cls-1" x1="89.18" y1="18.2" x2="88.64" y2="18.2"/><line class="cls-1" x1="86.48" y1="15.86" x2="85.76" y2="15.94"/><line class="cls-1" x1="86.48" y1="18.73" x2="85.76" y2="18.65"/><line class="cls-1" x1="88.1" y1="18.2" x2="87.56" y2="18.2"/><line class="cls-1" x1="87.02" y1="18.2" x2="86.48" y2="18.2"/><line class="cls-1" x1="89.73" y1="15.49" x2="89.18" y2="15.55"/><line class="cls-1" x1="88.64" y1="15.62" x2="87.02" y2="15.8"/><line class="cls-1" x1="89.73" y1="19.1" x2="89.18" y2="19.04"/><line class="cls-1" x1="88.64" y1="18.98" x2="87.02" y2="18.79"/><line class="cls-1" x1="88.64" y1="15.67" x2="89.19" y2="15.67"/><line class="cls-1" x1="88.64" y1="18.92" x2="89.19" y2="18.92"/><line class="cls-1" x1="97.13" y1="27.22" x2="97.13" y2="32.64"/><line class="cls-1" x1="97.13" y1="32.64" x2="97.67" y2="32.64"/><line class="cls-1" x1="97.67" y1="32.64" x2="97.67" y2="27.22"/><line class="cls-1" x1="97.67" y1="27.22" x2="97.13" y2="27.22"/><line class="cls-1" x1="97.67" y1="27.76" x2="99.47" y2="27.76"/><line class="cls-1" x1="99.47" y1="27.76" x2="99.47" y2="32.1"/><line class="cls-1" x1="99.47" y1="32.1" x2="97.67" y2="32.1"/><line class="cls-1" x1="90.81" y1="27.22" x2="97.13" y2="27.22"/><line class="cls-1" x1="90.81" y1="27.22" x2="90.81" y2="32.64"/><line class="cls-1" x1="90.81" y1="32.64" x2="97.13" y2="32.64"/><line class="cls-1" x1="90.81" y1="27.22" x2="89.73" y2="28.12"/><line class="cls-1" x1="90.81" y1="32.64" x2="89.73" y2="31.74"/><line class="cls-1" x1="89.73" y1="28.12" x2="89.73" y2="31.73"/><line class="cls-1" x1="85.76" y1="28.58" x2="85.76" y2="31.28"/><line class="cls-1" x1="96.76" y1="29.93" x2="96.4" y2="29.57"/><line class="cls-1" x1="96.76" y1="29.93" x2="96.4" y2="30.29"/><line class="cls-1" x1="96.4" y1="30.29" x2="96.4" y2="30.11"/><line class="cls-1" x1="96.4" y1="29.75" x2="96.4" y2="29.57"/><line class="cls-1" x1="96.4" y1="29.75" x2="95.86" y2="29.75"/><line class="cls-1" x1="95.86" y1="29.75" x2="95.86" y2="30.11"/><line class="cls-1" x1="95.86" y1="30.11" x2="96.4" y2="30.11"/><line class="cls-1" x1="88.1" y1="28.31" x2="88.1" y2="31.55"/><line class="cls-1" x1="87.56" y1="28.37" x2="87.56" y2="31.49"/><line class="cls-1" x1="89.18" y1="29.48" x2="89.18" y2="28.19"/><path class="cls-1" d="M88.91,29.75a.27.27,0,0,0,.27-.27"/><line class="cls-1" x1="88.64" y1="28.25" x2="88.64" y2="29.48"/><path class="cls-1" d="M88.64,29.48a.27.27,0,0,0,.27.27"/><line class="cls-1" x1="88.64" y1="30.38" x2="88.64" y2="31.61"/><path class="cls-1" d="M88.91,30.11a.27.27,0,0,0-.27.27"/><line class="cls-1" x1="89.18" y1="30.38" x2="89.18" y2="31.67"/><path class="cls-1" d="M89.18,30.38a.27.27,0,0,0-.27-.27"/><line class="cls-1" x1="87.02" y1="28.43" x2="87.02" y2="29.48"/><path class="cls-1" d="M86.75,29.75a.27.27,0,0,0,.27-.27"/><line class="cls-1" x1="86.48" y1="29.48" x2="86.48" y2="28.49"/><path class="cls-1" d="M86.48,29.48a.27.27,0,0,0,.27.27"/><line class="cls-1" x1="87.02" y1="30.38" x2="87.02" y2="31.43"/><path class="cls-1" d="M87,30.38a.27.27,0,0,0-.27-.27"/><line class="cls-1" x1="86.48" y1="30.38" x2="86.48" y2="31.37"/><path class="cls-1" d="M86.75,30.11a.27.27,0,0,0-.27.27"/><line class="cls-1" x1="86.48" y1="29.03" x2="87.02" y2="29.03"/><line class="cls-1" x1="87.56" y1="29.03" x2="88.1" y2="29.03"/><line class="cls-1" x1="88.64" y1="29.03" x2="89.19" y2="29.03"/><line class="cls-1" x1="89.18" y1="30.83" x2="88.64" y2="30.83"/><line class="cls-1" x1="86.48" y1="28.49" x2="85.76" y2="28.58"/><line class="cls-1" x1="86.48" y1="31.37" x2="85.76" y2="31.28"/><line class="cls-1" x1="88.1" y1="30.83" x2="87.56" y2="30.83"/><line class="cls-1" x1="87.02" y1="30.83" x2="86.48" y2="30.83"/><line class="cls-1" x1="89.73" y1="28.12" x2="89.18" y2="28.19"/><line class="cls-1" x1="88.64" y1="28.25" x2="87.02" y2="28.43"/><line class="cls-1" x1="89.73" y1="31.74" x2="89.18" y2="31.67"/><line class="cls-1" x1="88.64" y1="31.61" x2="87.02" y2="31.43"/><line class="cls-1" x1="88.64" y1="28.31" x2="89.19" y2="28.31"/><line class="cls-1" x1="88.64" y1="31.55" x2="89.19" y2="31.55"/><line class="cls-1" x1="60.36" y1="14.59" x2="71.19" y2="14.59"/><path class="cls-1" d="M71.19,14.59A1.8,1.8,0,0,0,73,12.78"/><line class="cls-1" x1="76.6" y1="5.57" x2="78.41" y2="5.57"/><path class="cls-1" d="M76.6,5.57a1.8,1.8,0,0,0-1.8,1.8"/><path class="cls-1" d="M73,21.81A1.8,1.8,0,0,0,71.19,20"/><path class="cls-1" d="M74.8,27.22A1.81,1.81,0,0,0,76.6,29"/><line class="cls-1" x1="74.8" y1="12.78" x2="74.8" y2="7.37"/><path class="cls-1" d="M71.19,16.39a3.61,3.61,0,0,0,3.61-3.61"/><line class="cls-1" x1="74.8" y1="27.22" x2="74.8" y2="21.81"/><path class="cls-1" d="M74.8,21.81a3.61,3.61,0,0,0-3.61-3.61"/><line class="cls-1" x1="76.6" y1="3.76" x2="78.41" y2="3.76"/><line class="cls-1" x1="72.99" y1="12.78" x2="72.99" y2="7.37"/><path class="cls-1" d="M76.6,3.76A3.61,3.61,0,0,0,73,7.37"/><line class="cls-1" x1="72.99" y1="21.81" x2="72.99" y2="27.22"/><path class="cls-1" d="M73,27.22a3.61,3.61,0,0,0,3.61,3.61"/><line class="cls-1" x1="60.36" y1="19.1" x2="60.72" y2="19.1"/><path class="cls-1" d="M61.44,19.82a.72.72,0,0,0-.72-.72"/><line class="cls-1" x1="60.36" y1="18.38" x2="60.72" y2="18.38"/><path class="cls-1" d="M62.16,19.82a1.44,1.44,0,0,0-1.44-1.44"/><line class="cls-1" x1="60.36" y1="17.66" x2="60.72" y2="17.66"/><line class="cls-1" x1="60.36" y1="18.38" x2="60.72" y2="18.38"/><line class="cls-1" x1="60.36" y1="16.94" x2="62.89" y2="16.94"/><line class="cls-1" x1="60.47" y1="18.38" x2="62.16" y2="18.38"/><path class="cls-1" d="M62.89,19.1a.73.73,0,0,0-.73-.72"/><line class="cls-1" x1="60.36" y1="17.66" x2="62.16" y2="17.66"/><path class="cls-1" d="M63.61,19.1a1.44,1.44,0,0,0-1.45-1.44"/><line class="cls-1" x1="60.36" y1="16.94" x2="65.77" y2="16.94"/><path class="cls-1" d="M67.22,18.38a1.44,1.44,0,0,0-1.45-1.44"/><line class="cls-1" x1="60.36" y1="16.21" x2="67.22" y2="16.21"/><path class="cls-1" d="M68.66,17.66a1.44,1.44,0,0,0-1.44-1.45"/><line class="cls-1" x1="60.36" y1="15.49" x2="68.66" y2="15.49"/><path class="cls-1" d="M70.11,16.94a1.45,1.45,0,0,0-1.45-1.45"/><line class="cls-1" x1="60.36" y1="17.66" x2="65.77" y2="17.66"/><path class="cls-1" d="M66.5,18.38a.73.73,0,0,0-.73-.72"/><line class="cls-1" x1="60.36" y1="16.94" x2="67.22" y2="16.94"/><path class="cls-1" d="M67.94,17.66a.72.72,0,0,0-.72-.72"/><line class="cls-1" x1="60.36" y1="16.21" x2="68.66" y2="16.21"/><path class="cls-1" d="M69.38,16.94a.73.73,0,0,0-.72-.73"/><line class="cls-1" x1="60.36" y1="20" x2="61.44" y2="20"/><line class="cls-1" x1="62.16" y1="20" x2="62.89" y2="20"/><line class="cls-1" x1="66.47" y1="18.2" x2="63.29" y2="18.2"/><line class="cls-1" x1="67.94" y1="18.2" x2="67.21" y2="18.2"/><line class="cls-1" x1="71.19" y1="18.2" x2="70.11" y2="18.2"/><line class="cls-1" x1="69.38" y1="18.2" x2="68.66" y2="18.2"/><line class="cls-1" x1="63.29" y1="18.2" x2="66.47" y2="18.2"/><line class="cls-1" x1="67.21" y1="18.2" x2="67.94" y2="18.2"/><line class="cls-1" x1="68.66" y1="18.2" x2="69.38" y2="18.2"/><line class="cls-1" x1="70.11" y1="18.2" x2="78.41" y2="18.2"/><line class="cls-1" x1="67.92" y1="16.39" x2="69.14" y2="16.39"/><line class="cls-1" x1="70" y1="16.39" x2="71.19" y2="16.39"/><line class="cls-1" x1="63.61" y1="20" x2="66.5" y2="20"/><line class="cls-1" x1="67.22" y1="20" x2="67.94" y2="20"/><line class="cls-1" x1="68.66" y1="20" x2="69.38" y2="20"/><line class="cls-1" x1="70.11" y1="20" x2="71.19" y2="20"/><line class="cls-1" x1="82.02" y1="0.15" x2="84" y2="0.15"/><line class="cls-1" x1="84" y1="0.15" x2="84" y2="5.75"/><line class="cls-1" x1="84" y1="5.75" x2="82.02" y2="5.75"/><line class="cls-1" x1="82.02" y1="5.75" x2="82.02" y2="0.15"/><line class="cls-1" x1="78.41" y1="3.76" x2="82.02" y2="3.76"/><line class="cls-1" x1="84" y1="3.76" x2="85.76" y2="3.76"/><line class="cls-1" x1="85.76" y1="5.57" x2="84" y2="5.57"/><line class="cls-1" x1="82.02" y1="5.57" x2="78.35" y2="5.57"/><line class="cls-1" x1="82.02" y1="12.78" x2="84" y2="12.78"/><line class="cls-1" x1="84" y1="12.78" x2="84" y2="18.38"/><line class="cls-1" x1="84" y1="18.38" x2="82.02" y2="18.38"/><line class="cls-1" x1="82.02" y1="18.38" x2="82.02" y2="12.78"/><line class="cls-1" x1="82.02" y1="25.42" x2="84" y2="25.42"/><line class="cls-1" x1="84" y1="25.42" x2="84" y2="31.01"/><line class="cls-1" x1="84" y1="31.01" x2="82.02" y2="31.01"/><line class="cls-1" x1="82.02" y1="31.01" x2="82.02" y2="25.42"/><line class="cls-1" x1="84" y1="16.39" x2="85.76" y2="16.39"/><line class="cls-1" x1="85.76" y1="18.2" x2="84" y2="18.2"/><line class="cls-1" x1="82.02" y1="18.2" x2="78.35" y2="18.2"/><line class="cls-1" x1="76.6" y1="29.03" x2="82.02" y2="29.03"/><line class="cls-1" x1="84" y1="29.03" x2="85.76" y2="29.03"/><line class="cls-1" x1="85.76" y1="30.83" x2="84" y2="30.83"/><line class="cls-1" x1="82.02" y1="30.83" x2="76.6" y2="30.83"/><line class="cls-1" x1="71.49" y1="16.39" x2="82.02" y2="16.39"/><line class="cls-1" x1="94.15" y1="35.67" x2="93.6" y2="35.67"/><line class="cls-1" x1="94.15" y1="36.89" x2="93.6" y2="36.89"/><line class="cls-1" x1="92.27" y1="36.21" x2="91.08" y2="36.21"/><line class="cls-1" x1="91.08" y1="36.21" x2="91.08" y2="37"/><line class="cls-1" x1="90.46" y1="36.21" x2="90.46" y2="37"/><line class="cls-1" x1="90.46" y1="36.21" x2="89.6" y2="36.21"/><line class="cls-1" x1="93.6" y1="37" x2="89.6" y2="37"/><line class="cls-1" x1="89.6" y1="37" x2="89.6" y2="36.21"/><line class="cls-1" x1="91.08" y1="36.39" x2="90.46" y2="36.39"/><line class="cls-1" x1="92.77" y1="35.56" x2="92.77" y2="36.21"/><path class="cls-1" d="M92.59,36.39a.18.18,0,0,0,.18-.18"/><line class="cls-1" x1="92.59" y1="36.39" x2="92.45" y2="36.39"/><path class="cls-1" d="M92.27,36.21a.18.18,0,0,0,.18.18"/><path class="cls-1" d="M95.91,35.79a.07.07,0,0,0-.06-.07"/><path class="cls-1" d="M94.93,35.56h0"/><line class="cls-1" x1="95.85" y1="35.72" x2="94.93" y2="35.56"/><path class="cls-1" d="M94.93,35.56h0"/><line class="cls-1" x1="94.22" y1="35.56" x2="94.92" y2="35.56"/><path class="cls-1" d="M94.22,35.56a.07.07,0,0,0-.07.07"/><line class="cls-1" x1="93.6" y1="37" x2="93.6" y2="35.63"/><line class="cls-1" x1="92.77" y1="35.56" x2="93.53" y2="35.56"/><path class="cls-1" d="M93.6,35.63a.07.07,0,0,0-.07-.07"/><line class="cls-1" x1="95.85" y1="36.84" x2="94.93" y2="37"/><line class="cls-1" x1="95.91" y1="35.79" x2="95.91" y2="36.77"/><path class="cls-1" d="M95.85,36.84a.07.07,0,0,0,.06-.07"/><line class="cls-1" x1="94.93" y1="37" x2="94.22" y2="37"/><line class="cls-1" x1="94.15" y1="35.63" x2="94.15" y2="36.93"/><path class="cls-1" d="M94.15,36.93a.07.07,0,0,0,.07.07"/><line class="cls-1" x1="87.25" y1="35.89" x2="87.25" y2="37.33"/><line class="cls-1" x1="87.25" y1="35.89" x2="89.01" y2="35.89"/><path class="cls-1" d="M89,35.89a.57.57,0,0,0,.39-.16"/><line class="cls-1" x1="89.4" y1="35.73" x2="89.44" y2="35.68"/><path class="cls-1" d="M89.82,35.53a.54.54,0,0,0-.38.15"/><line class="cls-1" x1="89.82" y1="35.53" x2="90.22" y2="35.53"/><path class="cls-1" d="M90.22,35.53a.58.58,0,0,0,.19,0"/><line class="cls-1" x1="90.41" y1="35.49" x2="91.67" y2="35.02"/><path class="cls-1" d="M91.86,35a.65.65,0,0,0-.19,0"/><line class="cls-1" x1="96.28" y1="34.98" x2="91.86" y2="34.98"/><path class="cls-1" d="M96.82,35.53a.55.55,0,0,0-.55-.55"/><line class="cls-1" x1="96.82" y1="35.53" x2="96.82" y2="37.69"/><path class="cls-1" d="M96.28,38.23a.54.54,0,0,0,.54-.54"/><line class="cls-1" x1="96.28" y1="38.23" x2="91.86" y2="38.23"/><path class="cls-1" d="M91.67,38.2a.63.63,0,0,0,.19,0"/><line class="cls-1" x1="90.41" y1="37.73" x2="91.67" y2="38.2"/><path class="cls-1" d="M90.41,37.73a.41.41,0,0,0-.19,0"/><line class="cls-1" x1="89.82" y1="37.69" x2="90.22" y2="37.69"/><path class="cls-1" d="M89.44,37.53a.55.55,0,0,0,.38.16"/><line class="cls-1" x1="89.4" y1="37.49" x2="89.44" y2="37.53"/><line class="cls-1" x1="87.25" y1="37.33" x2="89.01" y2="37.33"/><path class="cls-1" d="M89.4,37.49a.57.57,0,0,0-.39-.16"/><line class="cls-1" x1="94.15" y1="39.64" x2="93.6" y2="39.64"/><line class="cls-1" x1="94.15" y1="40.86" x2="93.6" y2="40.86"/><line class="cls-1" x1="92.27" y1="40.18" x2="91.08" y2="40.18"/><line class="cls-1" x1="91.08" y1="40.18" x2="91.08" y2="40.97"/><line class="cls-1" x1="90.46" y1="40.18" x2="90.46" y2="40.97"/><line class="cls-1" x1="90.46" y1="40.18" x2="89.6" y2="40.18"/><line class="cls-1" x1="93.6" y1="40.97" x2="89.6" y2="40.97"/><line class="cls-1" x1="89.6" y1="40.97" x2="89.6" y2="40.18"/><line class="cls-1" x1="91.08" y1="40.36" x2="90.46" y2="40.36"/><line class="cls-1" x1="92.77" y1="39.53" x2="92.77" y2="40.18"/><path class="cls-1" d="M92.59,40.36a.18.18,0,0,0,.18-.18"/><line class="cls-1" x1="92.59" y1="40.36" x2="92.45" y2="40.36"/><path class="cls-1" d="M92.27,40.18a.18.18,0,0,0,.18.18"/><path class="cls-1" d="M95.91,39.76a.07.07,0,0,0-.06-.07"/><path class="cls-1" d="M94.93,39.53h0"/><line class="cls-1" x1="95.85" y1="39.69" x2="94.93" y2="39.53"/><path class="cls-1" d="M94.93,39.53h0"/><line class="cls-1" x1="94.22" y1="39.53" x2="94.92" y2="39.53"/><path class="cls-1" d="M94.22,39.53a.07.07,0,0,0-.07.07"/><line class="cls-1" x1="93.6" y1="40.97" x2="93.6" y2="39.6"/><line class="cls-1" x1="92.77" y1="39.53" x2="93.53" y2="39.53"/><path class="cls-1" d="M93.6,39.6a.07.07,0,0,0-.07-.07"/><line class="cls-1" x1="95.85" y1="40.81" x2="94.93" y2="40.97"/><line class="cls-1" x1="95.91" y1="39.76" x2="95.91" y2="40.74"/><path class="cls-1" d="M95.85,40.81a.07.07,0,0,0,.06-.07"/><line class="cls-1" x1="94.93" y1="40.97" x2="94.22" y2="40.97"/><line class="cls-1" x1="94.15" y1="39.6" x2="94.15" y2="40.9"/><path class="cls-1" d="M94.15,40.9a.07.07,0,0,0,.07.07"/><line class="cls-1" x1="87.25" y1="39.86" x2="87.25" y2="41.3"/><line class="cls-1" x1="87.25" y1="39.86" x2="89.01" y2="39.86"/><path class="cls-1" d="M89,39.86a.57.57,0,0,0,.39-.16"/><line class="cls-1" x1="89.4" y1="39.7" x2="89.44" y2="39.65"/><path class="cls-1" d="M89.82,39.49a.55.55,0,0,0-.38.16"/><line class="cls-1" x1="89.82" y1="39.49" x2="90.22" y2="39.49"/><path class="cls-1" d="M90.22,39.49a.58.58,0,0,0,.19,0"/><line class="cls-1" x1="90.41" y1="39.46" x2="91.67" y2="38.99"/><path class="cls-1" d="M91.86,39a.65.65,0,0,0-.19,0"/><line class="cls-1" x1="96.28" y1="38.95" x2="91.86" y2="38.95"/><path class="cls-1" d="M96.82,39.49a.55.55,0,0,0-.55-.54"/><line class="cls-1" x1="96.82" y1="39.49" x2="96.82" y2="41.66"/><path class="cls-1" d="M96.28,42.2a.54.54,0,0,0,.54-.54"/><line class="cls-1" x1="96.28" y1="42.2" x2="91.86" y2="42.2"/><path class="cls-1" d="M91.67,42.17a.63.63,0,0,0,.19,0"/><line class="cls-1" x1="90.41" y1="41.7" x2="91.67" y2="42.17"/><path class="cls-1" d="M90.41,41.7a.41.41,0,0,0-.19,0"/><line class="cls-1" x1="89.82" y1="41.66" x2="90.22" y2="41.66"/><path class="cls-1" d="M89.44,41.5a.55.55,0,0,0,.38.16"/><line class="cls-1" x1="89.4" y1="41.46" x2="89.44" y2="41.5"/><line class="cls-1" x1="87.25" y1="41.3" x2="89.01" y2="41.3"/><path class="cls-1" d="M89.4,41.46A.57.57,0,0,0,89,41.3"/><line class="cls-1" x1="94.15" y1="43.61" x2="93.6" y2="43.61"/><line class="cls-1" x1="94.15" y1="44.83" x2="93.6" y2="44.83"/><line class="cls-1" x1="92.27" y1="44.15" x2="91.08" y2="44.15"/><line class="cls-1" x1="91.08" y1="44.15" x2="91.08" y2="44.94"/><line class="cls-1" x1="90.46" y1="44.15" x2="90.46" y2="44.94"/><line class="cls-1" x1="90.46" y1="44.15" x2="89.6" y2="44.15"/><line class="cls-1" x1="93.6" y1="44.94" x2="89.6" y2="44.94"/><line class="cls-1" x1="89.6" y1="44.94" x2="89.6" y2="44.15"/><line class="cls-1" x1="91.08" y1="44.33" x2="90.46" y2="44.33"/><line class="cls-1" x1="92.77" y1="43.5" x2="92.77" y2="44.15"/><path class="cls-1" d="M92.59,44.33a.18.18,0,0,0,.18-.18"/><line class="cls-1" x1="92.59" y1="44.33" x2="92.45" y2="44.33"/><path class="cls-1" d="M92.27,44.15a.18.18,0,0,0,.18.18"/><path class="cls-1" d="M95.91,43.73a.07.07,0,0,0-.06-.07"/><path class="cls-1" d="M94.93,43.5h0"/><line class="cls-1" x1="95.85" y1="43.66" x2="94.93" y2="43.5"/><path class="cls-1" d="M94.93,43.5h0"/><line class="cls-1" x1="94.22" y1="43.5" x2="94.92" y2="43.5"/><path class="cls-1" d="M94.22,43.5a.07.07,0,0,0-.07.07"/><line class="cls-1" x1="93.6" y1="44.94" x2="93.6" y2="43.57"/><line class="cls-1" x1="92.77" y1="43.5" x2="93.53" y2="43.5"/><path class="cls-1" d="M93.6,43.57a.07.07,0,0,0-.07-.07"/><line class="cls-1" x1="95.85" y1="44.78" x2="94.93" y2="44.94"/><line class="cls-1" x1="95.91" y1="43.73" x2="95.91" y2="44.71"/><path class="cls-1" d="M95.85,44.78a.07.07,0,0,0,.06-.07"/><line class="cls-1" x1="94.93" y1="44.94" x2="94.22" y2="44.94"/><line class="cls-1" x1="94.15" y1="43.57" x2="94.15" y2="44.87"/><path class="cls-1" d="M94.15,44.87a.07.07,0,0,0,.07.07"/><line class="cls-1" x1="87.25" y1="43.83" x2="87.25" y2="45.27"/><line class="cls-1" x1="87.25" y1="43.83" x2="89.01" y2="43.83"/><path class="cls-1" d="M89,43.83a.57.57,0,0,0,.39-.16"/><line class="cls-1" x1="89.4" y1="43.67" x2="89.44" y2="43.62"/><path class="cls-1" d="M89.82,43.47a.54.54,0,0,0-.38.15"/><line class="cls-1" x1="89.82" y1="43.47" x2="90.22" y2="43.47"/><path class="cls-1" d="M90.22,43.47a.58.58,0,0,0,.19,0"/><line class="cls-1" x1="90.41" y1="43.43" x2="91.67" y2="42.96"/><path class="cls-1" d="M91.86,42.92a.65.65,0,0,0-.19,0"/><line class="cls-1" x1="96.28" y1="42.92" x2="91.86" y2="42.92"/><path class="cls-1" d="M96.82,43.47a.55.55,0,0,0-.55-.55"/><line class="cls-1" x1="96.82" y1="43.47" x2="96.82" y2="45.63"/><path class="cls-1" d="M96.28,46.17a.54.54,0,0,0,.54-.54"/><line class="cls-1" x1="96.28" y1="46.17" x2="91.86" y2="46.17"/><path class="cls-1" d="M91.67,46.14a.63.63,0,0,0,.19,0"/><line class="cls-1" x1="90.41" y1="45.67" x2="91.67" y2="46.14"/><path class="cls-1" d="M90.41,45.67a.41.41,0,0,0-.19,0"/><line class="cls-1" x1="89.82" y1="45.63" x2="90.22" y2="45.63"/><path class="cls-1" d="M89.44,45.47a.51.51,0,0,0,.38.16"/><line class="cls-1" x1="89.4" y1="45.43" x2="89.44" y2="45.47"/><line class="cls-1" x1="87.25" y1="45.27" x2="89.01" y2="45.27"/><path class="cls-1" d="M89.4,45.43a.57.57,0,0,0-.39-.16"/><line class="cls-1" x1="89.6" y1="36.25" x2="84.05" y2="36.25"/><line class="cls-1" x1="89.6" y1="36.97" x2="84.05" y2="36.97"/><line class="cls-1" x1="84.05" y1="41.12" x2="82.07" y2="41.12"/><line class="cls-1" x1="82.07" y1="41.12" x2="82.07" y2="37.69"/><line class="cls-1" x1="84.05" y1="37.69" x2="84.05" y2="41.12"/><line class="cls-1" x1="82.07" y1="37.69" x2="84.05" y2="37.69"/><line class="cls-1" x1="84.05" y1="37.15" x2="82.07" y2="37.15"/><line class="cls-1" x1="82.07" y1="37.15" x2="82.07" y2="33.72"/><line class="cls-1" x1="84.05" y1="33.72" x2="84.05" y2="37.15"/><line class="cls-1" x1="82.07" y1="33.72" x2="84.05" y2="33.72"/><line class="cls-1" x1="84.05" y1="45.09" x2="82.07" y2="45.09"/><line class="cls-1" x1="82.07" y1="45.09" x2="82.07" y2="41.66"/><line class="cls-1" x1="84.05" y1="41.66" x2="84.05" y2="45.09"/><line class="cls-1" x1="82.07" y1="41.66" x2="84.05" y2="41.66"/><line class="cls-1" x1="89.6" y1="40.22" x2="84.05" y2="40.22"/><line class="cls-1" x1="89.6" y1="40.94" x2="84.05" y2="40.94"/><line class="cls-1" x1="89.6" y1="44.19" x2="84.05" y2="44.19"/><line class="cls-1" x1="89.6" y1="44.91" x2="84.05" y2="44.91"/><line class="cls-1" x1="94.15" y1="54.08" x2="93.6" y2="54.08"/><line class="cls-1" x1="94.15" y1="55.3" x2="93.6" y2="55.3"/><line class="cls-1" x1="92.27" y1="54.62" x2="91.08" y2="54.62"/><line class="cls-1" x1="91.08" y1="54.62" x2="91.08" y2="55.41"/><line class="cls-1" x1="90.46" y1="54.62" x2="90.46" y2="55.41"/><line class="cls-1" x1="90.46" y1="54.62" x2="89.6" y2="54.62"/><line class="cls-1" x1="93.6" y1="55.41" x2="89.6" y2="55.41"/><line class="cls-1" x1="89.6" y1="55.41" x2="89.6" y2="54.62"/><line class="cls-1" x1="91.08" y1="54.8" x2="90.46" y2="54.8"/><line class="cls-1" x1="92.77" y1="53.97" x2="92.77" y2="54.62"/><path class="cls-1" d="M92.59,54.8a.18.18,0,0,0,.18-.18"/><line class="cls-1" x1="92.59" y1="54.8" x2="92.45" y2="54.8"/><path class="cls-1" d="M92.27,54.62a.18.18,0,0,0,.18.18"/><path class="cls-1" d="M95.91,54.2a.07.07,0,0,0-.06-.07"/><path class="cls-1" d="M94.93,54h0"/><line class="cls-1" x1="95.85" y1="54.13" x2="94.93" y2="53.97"/><path class="cls-1" d="M94.93,54h0"/><line class="cls-1" x1="94.22" y1="53.97" x2="94.92" y2="53.97"/><path class="cls-1" d="M94.22,54a.07.07,0,0,0-.07.07"/><line class="cls-1" x1="93.6" y1="55.41" x2="93.6" y2="54.04"/><line class="cls-1" x1="92.77" y1="53.97" x2="93.53" y2="53.97"/><path class="cls-1" d="M93.6,54a.07.07,0,0,0-.07-.07"/><line class="cls-1" x1="95.85" y1="55.25" x2="94.93" y2="55.41"/><line class="cls-1" x1="95.91" y1="54.2" x2="95.91" y2="55.18"/><path class="cls-1" d="M95.85,55.25a.07.07,0,0,0,.06-.07"/><line class="cls-1" x1="94.93" y1="55.41" x2="94.22" y2="55.41"/><line class="cls-1" x1="94.15" y1="54.04" x2="94.15" y2="55.34"/><path class="cls-1" d="M94.15,55.34a.07.07,0,0,0,.07.07"/><line class="cls-1" x1="87.25" y1="54.29" x2="87.25" y2="55.74"/><line class="cls-1" x1="87.25" y1="54.29" x2="89.01" y2="54.29"/><path class="cls-1" d="M89,54.29a.56.56,0,0,0,.39-.15"/><line class="cls-1" x1="89.4" y1="54.14" x2="89.44" y2="54.09"/><path class="cls-1" d="M89.82,53.93a.55.55,0,0,0-.38.16"/><line class="cls-1" x1="89.82" y1="53.93" x2="90.22" y2="53.93"/><path class="cls-1" d="M90.22,53.93a.58.58,0,0,0,.19,0"/><line class="cls-1" x1="90.41" y1="53.9" x2="91.67" y2="53.43"/><path class="cls-1" d="M91.86,53.39a.43.43,0,0,0-.19,0"/><line class="cls-1" x1="96.28" y1="53.39" x2="91.86" y2="53.39"/><path class="cls-1" d="M96.82,53.93a.55.55,0,0,0-.55-.54"/><line class="cls-1" x1="96.82" y1="53.93" x2="96.82" y2="56.1"/><path class="cls-1" d="M96.28,56.64a.54.54,0,0,0,.54-.54"/><line class="cls-1" x1="96.28" y1="56.64" x2="91.86" y2="56.64"/><path class="cls-1" d="M91.67,56.61a.63.63,0,0,0,.19,0"/><line class="cls-1" x1="90.41" y1="56.13" x2="91.67" y2="56.61"/><path class="cls-1" d="M90.41,56.13a.58.58,0,0,0-.19,0"/><line class="cls-1" x1="89.82" y1="56.1" x2="90.22" y2="56.1"/><path class="cls-1" d="M89.44,55.94a.55.55,0,0,0,.38.16"/><line class="cls-1" x1="89.4" y1="55.9" x2="89.44" y2="55.94"/><line class="cls-1" x1="87.25" y1="55.74" x2="89.01" y2="55.74"/><path class="cls-1" d="M89.4,55.9a.57.57,0,0,0-.39-.16"/><line class="cls-1" x1="70.83" y1="53.57" x2="70.83" y2="56.46"/><line class="cls-1" x1="70.83" y1="53.57" x2="82.02" y2="53.57"/><line class="cls-1" x1="82.02" y1="53.57" x2="82.02" y2="56.46"/><line class="cls-1" x1="70.83" y1="56.46" x2="82.02" y2="56.46"/><line class="cls-1" x1="72.81" y1="50.5" x2="72.81" y2="53.57"/><line class="cls-1" x1="72.81" y1="50.5" x2="80.03" y2="50.5"/><line class="cls-1" x1="80.03" y1="50.5" x2="80.03" y2="53.57"/><line class="cls-1" x1="69.9" y1="55.56" x2="67.91" y2="55.56"/><line class="cls-1" x1="67.91" y1="55.56" x2="67.91" y2="52.13"/><line class="cls-1" x1="69.9" y1="52.13" x2="69.9" y2="55.56"/><line class="cls-1" x1="67.91" y1="52.13" x2="69.9" y2="52.13"/><line class="cls-1" x1="70.83" y1="54.66" x2="69.9" y2="54.66"/><line class="cls-1" x1="70.83" y1="55.38" x2="69.9" y2="55.38"/><path class="cls-1" d="M97.17,50.17A.18.18,0,0,0,97,50"/><line class="cls-1" x1="97.17" y1="50.17" x2="97.17" y2="51.73"/><path class="cls-1" d="M97,51.91a.18.18,0,0,0,.18-.18"/><line class="cls-1" x1="96.99" y1="51.91" x2="88.37" y2="51.91"/><line class="cls-1" x1="96.99" y1="49.99" x2="88.37" y2="49.99"/><path class="cls-1" d="M88.37,50a.18.18,0,0,0-.18.18"/><line class="cls-1" x1="88.19" y1="50.17" x2="88.19" y2="51.73"/><path class="cls-1" d="M88.19,51.73a.18.18,0,0,0,.18.18"/><line class="cls-1" x1="89.6" y1="51.62" x2="95.91" y2="51.62"/><line class="cls-1" x1="95.91" y1="51.62" x2="95.91" y2="50.22"/><line class="cls-1" x1="92.27" y1="50.83" x2="91.08" y2="50.83"/><line class="cls-1" x1="91.08" y1="50.83" x2="91.08" y2="51.62"/><line class="cls-1" x1="90.46" y1="50.83" x2="90.46" y2="51.62"/><line class="cls-1" x1="90.46" y1="50.83" x2="89.6" y2="50.83"/><line class="cls-1" x1="91.08" y1="51.01" x2="90.46" y2="51.01"/><line class="cls-1" x1="95.91" y1="50.22" x2="93.6" y2="50.22"/><line class="cls-1" x1="89.6" y1="50.83" x2="89.6" y2="51.62"/><line class="cls-1" x1="93.6" y1="50.22" x2="93.3" y2="50.78"/><path class="cls-1" d="M92.67,51.16a.72.72,0,0,0,.63-.38"/><line class="cls-1" x1="92.27" y1="50.83" x2="92.29" y2="50.91"/><line class="cls-1" x1="92.64" y1="51.16" x2="92.67" y2="51.16"/><path class="cls-1" d="M92.29,50.91a.37.37,0,0,0,.35.25"/><path class="cls-1" d="M87.25,44.91a3,3,0,0,0,0,6"/><line class="cls-1" x1="89.6" y1="50.87" x2="87.07" y2="50.87"/><line class="cls-1" x1="89.6" y1="51.59" x2="87.17" y2="51.59"/><path class="cls-1" d="M85.06,44.91a3.7,3.7,0,0,0,2.19,6.68"/><line class="cls-1" x1="83.23" y1="65.66" x2="83.23" y2="62.24"/><line class="cls-1" x1="85.21" y1="62.24" x2="85.21" y2="65.67"/><line class="cls-1" x1="83.23" y1="62.24" x2="85.21" y2="62.24"/><path class="cls-1" d="M97.17,60.64a.18.18,0,0,0-.18-.18"/><line class="cls-1" x1="97.17" y1="60.64" x2="97.17" y2="62.19"/><path class="cls-1" d="M97,62.37a.18.18,0,0,0,.18-.18"/><line class="cls-1" x1="96.99" y1="62.37" x2="88.37" y2="62.37"/><line class="cls-1" x1="96.99" y1="60.46" x2="88.37" y2="60.46"/><path class="cls-1" d="M88.37,60.46a.18.18,0,0,0-.18.18"/><line class="cls-1" x1="88.19" y1="60.64" x2="88.19" y2="62.19"/><path class="cls-1" d="M88.19,62.19a.18.18,0,0,0,.18.18"/><line class="cls-1" x1="89.6" y1="62.09" x2="95.91" y2="62.09"/><line class="cls-1" x1="95.91" y1="62.09" x2="95.91" y2="60.69"/><line class="cls-1" x1="92.27" y1="61.3" x2="91.08" y2="61.3"/><line class="cls-1" x1="91.08" y1="61.3" x2="91.08" y2="62.09"/><line class="cls-1" x1="90.46" y1="61.3" x2="90.46" y2="62.09"/><line class="cls-1" x1="90.46" y1="61.3" x2="89.6" y2="61.3"/><line class="cls-1" x1="91.08" y1="61.48" x2="90.46" y2="61.48"/><line class="cls-1" x1="95.91" y1="60.69" x2="93.6" y2="60.69"/><line class="cls-1" x1="89.6" y1="61.3" x2="89.6" y2="62.09"/><line class="cls-1" x1="93.6" y1="60.69" x2="93.3" y2="61.24"/><path class="cls-1" d="M92.67,61.62a.7.7,0,0,0,.63-.38"/><line class="cls-1" x1="92.27" y1="61.3" x2="92.29" y2="61.38"/><line class="cls-1" x1="92.64" y1="61.62" x2="92.67" y2="61.62"/><path class="cls-1" d="M92.29,61.38a.37.37,0,0,0,.35.24"/><path class="cls-1" d="M87.25,55.38a3,3,0,1,0,0,5.95"/><line class="cls-1" x1="89.6" y1="61.33" x2="87.07" y2="61.33"/><line class="cls-1" x1="89.6" y1="62.06" x2="87.17" y2="62.06"/><path class="cls-1" d="M97.17,64.07a.18.18,0,0,0-.18-.18"/><line class="cls-1" x1="97.17" y1="64.07" x2="97.17" y2="65.62"/><line class="cls-1" x1="96.99" y1="63.89" x2="88.37" y2="63.89"/><path class="cls-1" d="M88.37,63.89a.18.18,0,0,0-.18.18"/><line class="cls-1" x1="88.19" y1="64.07" x2="88.19" y2="65.62"/><line class="cls-1" x1="89.6" y1="65.52" x2="95.91" y2="65.52"/><line class="cls-1" x1="95.91" y1="65.52" x2="95.91" y2="64.11"/><line class="cls-1" x1="92.27" y1="64.73" x2="91.08" y2="64.73"/><line class="cls-1" x1="91.08" y1="64.73" x2="91.08" y2="65.52"/><line class="cls-1" x1="90.46" y1="64.73" x2="90.46" y2="65.52"/><line class="cls-1" x1="90.46" y1="64.73" x2="89.6" y2="64.73"/><line class="cls-1" x1="91.08" y1="64.91" x2="90.46" y2="64.91"/><line class="cls-1" x1="95.91" y1="64.11" x2="93.6" y2="64.11"/><line class="cls-1" x1="89.6" y1="64.73" x2="89.6" y2="65.52"/><line class="cls-1" x1="93.6" y1="64.11" x2="93.3" y2="64.67"/><path class="cls-1" d="M92.67,65.05a.7.7,0,0,0,.63-.38"/><line class="cls-1" x1="92.27" y1="64.73" x2="92.29" y2="64.81"/><line class="cls-1" x1="92.64" y1="65.05" x2="92.67" y2="65.05"/><path class="cls-1" d="M92.29,64.81a.37.37,0,0,0,.35.24"/><line class="cls-1" x1="89.6" y1="64.76" x2="85.21" y2="64.76"/><line class="cls-1" x1="89.6" y1="65.48" x2="85.21" y2="65.48"/><path class="cls-1" d="M85.06,55.38a3.7,3.7,0,0,0,2.19,6.68"/><line class="cls-1" x1="84.47" y1="55.56" x2="82.49" y2="55.56"/><line class="cls-1" x1="82.49" y1="55.56" x2="82.49" y2="52.13"/><line class="cls-1" x1="84.47" y1="52.13" x2="84.47" y2="55.56"/><line class="cls-1" x1="82.49" y1="52.13" x2="84.47" y2="52.13"/><line class="cls-1" x1="89.6" y1="54.66" x2="84.47" y2="54.66"/><line class="cls-1" x1="89.6" y1="55.38" x2="84.47" y2="55.38"/><line class="cls-1" x1="82.49" y1="55.38" x2="82.02" y2="55.38"/><line class="cls-1" x1="82.49" y1="54.66" x2="82.02" y2="54.66"/><line class="cls-1" x1="82.07" y1="36.25" x2="71.91" y2="36.25"/><line class="cls-1" x1="70.11" y1="16.94" x2="70.11" y2="34.44"/><path class="cls-1" d="M70.11,34.44a1.8,1.8,0,0,0,1.8,1.81"/><line class="cls-1" x1="82.07" y1="40.22" x2="70.47" y2="40.22"/><line class="cls-1" x1="68.66" y1="17.66" x2="68.66" y2="38.41"/><path class="cls-1" d="M68.66,38.41a1.81,1.81,0,0,0,1.81,1.81"/><line class="cls-1" x1="82.07" y1="44.19" x2="69.02" y2="44.19"/><line class="cls-1" x1="67.22" y1="18.38" x2="67.22" y2="42.38"/><path class="cls-1" d="M67.22,42.38A1.81,1.81,0,0,0,69,44.19"/><line class="cls-1" x1="67.91" y1="54.66" x2="65.41" y2="54.66"/><line class="cls-1" x1="63.61" y1="19.1" x2="63.61" y2="52.85"/><path class="cls-1" d="M63.61,52.85a1.81,1.81,0,0,0,1.8,1.81"/><line class="cls-1" x1="83.23" y1="64.76" x2="63.97" y2="64.76"/><line class="cls-1" x1="62.16" y1="19.82" x2="62.16" y2="62.96"/><path class="cls-1" d="M62.16,63A1.81,1.81,0,0,0,64,64.76"/><line class="cls-1" x1="83.23" y1="65.48" x2="63.97" y2="65.48"/><line class="cls-1" x1="61.44" y1="62.96" x2="61.44" y2="19.82"/><path class="cls-1" d="M61.44,63A2.52,2.52,0,0,0,64,65.48"/><line class="cls-1" x1="67.91" y1="55.38" x2="65.41" y2="55.38"/><line class="cls-1" x1="62.89" y1="19.1" x2="62.89" y2="52.85"/><path class="cls-1" d="M62.89,52.85a2.52,2.52,0,0,0,2.52,2.53"/><line class="cls-1" x1="82.07" y1="44.91" x2="69.02" y2="44.91"/><line class="cls-1" x1="66.5" y1="18.38" x2="66.5" y2="42.38"/><path class="cls-1" d="M66.5,42.38A2.52,2.52,0,0,0,69,44.91"/><line class="cls-1" x1="82.07" y1="40.94" x2="70.47" y2="40.94"/><line class="cls-1" x1="67.94" y1="17.66" x2="67.94" y2="38.41"/><path class="cls-1" d="M67.94,38.41a2.53,2.53,0,0,0,2.53,2.53"/><line class="cls-1" x1="82.07" y1="36.97" x2="71.91" y2="36.97"/><line class="cls-1" x1="69.38" y1="16.94" x2="69.38" y2="34.44"/><path class="cls-1" d="M69.38,34.44A2.53,2.53,0,0,0,71.91,37"/></g></g></svg>