<?xml version="1.0" encoding="utf-8"?>
<!-- Generator: Adobe Illustrator 26.0.1, SVG Export Plug-In . SVG Version: 6.00 Build 0)  -->
<svg version="1.1" id="Layer_1" xmlns="http://www.w3.org/2000/svg" xmlns:xlink="http://www.w3.org/1999/xlink" x="0px" y="0px"
	 viewBox="0 0 38.2 44.5" style="enable-background:new 0 0 38.2 44.5;" xml:space="preserve">
<style type="text/css">
	.st0{fill:#58595B;}
</style>
<g id="Layer_2_00000107584325428087744300000005582094411164181896_">
	<g id="文字">
		<path class="st0" d="M8,6.4L5.5,7.4l0.8,2.2l0.6-0.2l10.7,28.1l1,0.7l0.3-1.2L8.2,8.8l0.6-0.2L8,6.4z M8.1,8.2L6.6,8.7L6.2,7.6
			L7.7,7L8.1,8.2z"/>
		<path class="st0" d="M14.9,6.4l-2.4,0.9l0.8,2.2l0.6-0.2l10.7,28.1l1,0.7l0.3-1.2L15.1,8.8l0.6-0.2L14.9,6.4z M15,8.2l-1.5,0.6
			L13,7.6L14.5,7L15,8.2z"/>
		<path class="st0" d="M21.8,6.4l-2.5,0.9l0.8,2.2l0.6-0.2l10.7,28.1l1,0.7l0.3-1.2L22,8.8l0.6-0.2L21.8,6.4z M21.9,8.2l-1.5,0.6
			l-0.4-1.1L21.4,7L21.9,8.2z"/>
	</g>
</g>
</svg>
