<svg xmlns="http://www.w3.org/2000/svg" viewBox="0 0 35.06 22.49"><defs><style>.cls-1{fill:#fff;stroke:#58595b;stroke-linecap:round;stroke-linejoin:round;stroke-width:0.4px;}</style></defs><g id="Layer_2" data-name="Layer 2"><g id="イラスト"><ellipse class="cls-1" cx="17.49" cy="15.64" rx="14.99" ry="6.65"/><path class="cls-1" d="M17.72,19.91c6.57,0,12.33-2,15.55-5.11a5,5,0,0,0,1.26-5.44C32.45,4,26.94.2,17.46.2,8.26.2,2.81,3.78.59,8.9A4.87,4.87,0,0,0,1.38,14C4.39,17.5,10.58,19.91,17.72,19.91Z"/><path class="cls-1" d="M7.52,5.24v1h0c0,2.5,4.57,4.52,10.2,4.52s10.2-2,10.2-4.52v-1"/><path class="cls-1" d="M17.72.72c-5.63,0-10.2,2-10.2,4.52s4.57,4.53,10.2,4.53,10.2-2,10.2-4.53S23.35.72,17.72.72Zm0,8.33c-5.26,0-9.53-1.8-9.53-4s4.27-4,9.53-4,9.53,1.8,9.53,4S23,9.05,17.72,9.05Z"/></g></g></svg>