<svg xmlns="http://www.w3.org/2000/svg" viewBox="0 0 44.38 29.42"><defs><style>.cls-1{fill:#fff;stroke:#58595b;stroke-linecap:round;stroke-linejoin:round;stroke-width:0.41px;}</style></defs><g id="Layer_2" data-name="Layer 2"><g id="イラスト"><polygon class="cls-1" points="19.91 24.26 22.84 22.32 21.5 21.43 19.99 22.41 16.84 19.9 16.65 17.54 20.8 14.93 27.43 20.86 26.09 25.7 23.03 26.59 21.24 25.83 19.91 24.26"/><path class="cls-1" d="M24.71,8.52s.64,1.55,1.84,1l-9.41,6.88-2.26,2-.67.23-3-2,4.66-4.82Z"/><path class="cls-1" d="M.36,8.31A3.45,3.45,0,0,0,2,12.25l12.94-9s-1-.3-1-1.85Z"/><path class="cls-1" d="M1.94,11.31v.94L20,22.41v-1.5a2.3,2.3,0,0,1-2.23-2.27l-2.7-1.8s-.08,1.89-1.2,1.24A12.36,12.36,0,0,1,12,16.75L7.82,12.17Z"/><polygon class="cls-1" points="14.94 3.21 24.71 8.52 11.98 16.75 1.94 11.31 14.94 3.21"/><path class="cls-1" d="M27.45,29.1c-.94.39-1.88-.3-2.61-.77L19.91,25.2v-.94s1.28.81,1.67,1.07a1,1,0,0,0,1.42-1c0-.86.08-1.2-3.13-3.39V19.8l3,.26L28,23.74l.94,2.4L28.7,27.3Z"/><path class="cls-1" d="M34,27.52c-.56.64-1.76.08-2.14-.22l-.77-.6L34,24.82Z"/><polygon class="cls-1" points="30.33 10.19 27.55 8.62 15.06 16.84 17.76 18.64 30.33 10.19"/><path class="cls-1" d="M.36,8.31,13.48.2a1.19,1.19,0,0,1,1,1.29l-13,8.15A1.13,1.13,0,0,0,.36,8.31Z"/><path class="cls-1" d="M43.15,15.68v2.23a2.35,2.35,0,0,1-.82,1.29c-.64.47-14.88,9.9-14.88,9.9a3.78,3.78,0,0,0,0-3.73,5.74,5.74,0,0,0-2.78-2.78L19.82,19.8l12.09-8.1Z"/><polygon class="cls-1" points="39.72 18.64 39.72 23.61 33.97 27.52 33.97 22.37 39.72 18.64"/><path class="cls-1" d="M19.74,16.33v1l8.83,4.8a2.13,2.13,0,0,1,.94,1.16l2,.73.42-4-8.06-3.34Z"/><path class="cls-1" d="M35,10.07l1.93-1.33s2.53.94,3.13,2a6.24,6.24,0,0,1,1.2,2.91Z"/><path class="cls-1" d="M32.69,8.26,43.1,13.62a2.27,2.27,0,0,1,1.08,2L31.49,24a2.86,2.86,0,0,0-1.25-1.67c-1-.64-10.5-6-10.5-6Z"/><polygon class="cls-1" points="29.26 9.68 25.91 11.99 33.46 16.2 36.59 13.75 29.26 9.68"/><polygon class="cls-1" points="25.91 11.99 25.91 14.65 33.5 19.11 33.46 16.2 25.91 11.99"/><polygon class="cls-1" points="36.59 13.75 36.59 16.97 34.02 15.73 36.59 13.75"/><ellipse class="cls-1" cx="25.22" cy="25.91" rx="1.1" ry="1.47" transform="matrix(0.79, -0.61, 0.61, 0.79, -10.56, 20.71)"/></g></g></svg>