<svg xmlns="http://www.w3.org/2000/svg" viewBox="0 0 112.1 21.02"><defs><style>.cls-1{fill:none;stroke:#58595b;stroke-linecap:round;stroke-linejoin:round;stroke-width:0.4px;}</style></defs><g id="Layer_2" data-name="Layer 2"><g id="イラスト"><g id="ARC"><path class="cls-1" d="M66.16,6.78a1.25,1.25,0,0,0-1.25-1.25h0"/></g><g id="ARC-2" data-name="ARC"><path class="cls-1" d="M65.53,6.78a.63.63,0,0,0-.62-.63h0"/></g><g id="ARC-3" data-name="ARC"><path class="cls-1" d="M66.79,6.78A1.88,1.88,0,0,0,64.91,4.9h0"/></g><g id="ARC-4" data-name="ARC"><path class="cls-1" d="M67.41,6.78a2.51,2.51,0,0,0-2.5-2.51h0"/></g><g id="LINE"><line class="cls-1" x1="67.41" y1="11.79" x2="67.41" y2="6.78"/></g><g id="ARC-5" data-name="ARC"><path class="cls-1" d="M67.41,11.79a.63.63,0,0,0,.63.63h0"/></g><g id="ARC-6" data-name="ARC"><path class="cls-1" d="M66.79,11.79A1.26,1.26,0,0,0,68,13.05h0"/></g><g id="LINE-2" data-name="LINE"><line class="cls-1" x1="66.79" y1="15.55" x2="66.79" y2="6.78"/></g><g id="ARC-7" data-name="ARC"><path class="cls-1" d="M66.79,15.55a1.88,1.88,0,0,0,1.88,1.88h0"/></g><g id="ARC-8" data-name="ARC"><path class="cls-1" d="M66.16,16.18a3.13,3.13,0,0,0,3.13,3.13h0"/></g><g id="LINE-3" data-name="LINE"><line class="cls-1" x1="65.53" y1="16.18" x2="65.53" y2="6.78"/></g><g id="ARC-9" data-name="ARC"><path class="cls-1" d="M65.53,16.18a3.77,3.77,0,0,0,3.76,3.76h0"/></g><g id="ARC-10" data-name="ARC"><path class="cls-1" d="M41.1,5.53a1.25,1.25,0,0,0-1.26,1.25h0"/></g><g id="ARC-11" data-name="ARC"><path class="cls-1" d="M41.1,6.15a.63.63,0,0,0-.63.63h0"/></g><g id="ARC-12" data-name="ARC"><path class="cls-1" d="M41.1,4.9a1.88,1.88,0,0,0-1.88,1.88h0"/></g><g id="ARC-13" data-name="ARC"><path class="cls-1" d="M41.1,4.27a2.51,2.51,0,0,0-2.51,2.51h0"/></g><g id="LINE-4" data-name="LINE"><line class="cls-1" x1="38.59" y1="11.79" x2="38.59" y2="6.78"/></g><g id="ARC-14" data-name="ARC"><path class="cls-1" d="M38,12.42a.63.63,0,0,0,.63-.63h0"/></g><g id="ARC-15" data-name="ARC"><path class="cls-1" d="M38,13.05a1.26,1.26,0,0,0,1.26-1.26h0"/></g><g id="LINE-5" data-name="LINE"><line class="cls-1" x1="39.22" y1="15.55" x2="39.22" y2="6.78"/></g><g id="ARC-16" data-name="ARC"><path class="cls-1" d="M37.34,17.43a1.88,1.88,0,0,0,1.88-1.88h0"/></g><g id="ARC-17" data-name="ARC"><path class="cls-1" d="M36.71,19.31a3.13,3.13,0,0,0,3.13-3.13h0"/></g><g id="LINE-6" data-name="LINE"><line class="cls-1" x1="40.47" y1="16.18" x2="40.47" y2="6.78"/></g><g id="ARC-18" data-name="ARC"><path class="cls-1" d="M36.71,19.94a3.76,3.76,0,0,0,3.76-3.76h0"/></g><g id="ARC-19" data-name="ARC"><path class="cls-1" d="M66.16,15.55a2.51,2.51,0,0,0,2.51,2.51h0"/></g><g id="LINE-7" data-name="LINE"><line class="cls-1" x1="66.16" y1="16.18" x2="66.16" y2="6.78"/></g><g id="LINE-8" data-name="LINE"><line class="cls-1" x1="39.84" y1="16.18" x2="39.84" y2="6.78"/></g><g id="LINE-9" data-name="LINE"><line class="cls-1" x1="4.75" y1="7.88" x2="4.75" y2="0.2"/></g><g id="LINE-10" data-name="LINE"><line class="cls-1" x1="4.75" y1="7.88" x2="14.15" y2="7.88"/></g><g id="LINE-11" data-name="LINE"><line class="cls-1" x1="14.15" y1="7.88" x2="17.91" y2="6.78"/></g><g id="LINE-12" data-name="LINE"><line class="cls-1" x1="0.99" y1="1.14" x2="4.75" y2="1.14"/></g><g id="LINE-13" data-name="LINE"><line class="cls-1" x1="0.99" y1="6.78" x2="0.99" y2="1.14"/></g><g id="LINE-14" data-name="LINE"><line class="cls-1" x1="4.75" y1="6.78" x2="0.99" y2="6.78"/></g><g id="LINE-15" data-name="LINE"><line class="cls-1" x1="17.76" y1="1.1" x2="27.31" y2="1.77"/></g><g id="LINE-16" data-name="LINE"><line class="cls-1" x1="17.91" y1="6.78" x2="27.31" y2="6.15"/></g><g id="LINE-17" data-name="LINE"><line class="cls-1" x1="14.15" y1="0.2" x2="17.91" y2="1.14"/></g><g id="LINE-18" data-name="LINE"><line class="cls-1" x1="4.75" y1="0.2" x2="14.15" y2="0.2"/></g><g id="LINE-19" data-name="LINE"><line class="cls-1" x1="27.31" y1="1.77" x2="27.31" y2="6.15"/></g><g id="LINE-20" data-name="LINE"><line class="cls-1" x1="53" y1="2.39" x2="52.5" y2="3.91"/></g><g id="ARC-20" data-name="ARC"><path class="cls-1" d="M52.5,3.91a.63.63,0,0,0,.15.64"/></g><g id="LINE-21" data-name="LINE"><line class="cls-1" x1="53" y1="6.78" x2="53.51" y2="5.27"/></g><g id="ARC-21" data-name="ARC"><path class="cls-1" d="M53.51,5.27a.61.61,0,0,0-.16-.64"/></g><g id="LINE-22" data-name="LINE"><line class="cls-1" x1="53.06" y1="4.09" x2="53.63" y2="2.39"/></g><g id="LINE-23" data-name="LINE"><line class="cls-1" x1="53.35" y1="4.63" x2="53.14" y2="4.41"/></g><g id="ARC-22" data-name="ARC"><path class="cls-1" d="M53.06,4.09a.32.32,0,0,0,.08.32"/></g><g id="LINE-24" data-name="LINE"><line class="cls-1" x1="52.94" y1="5.08" x2="52.37" y2="6.78"/></g><g id="LINE-25" data-name="LINE"><line class="cls-1" x1="52.65" y1="4.55" x2="52.86" y2="4.76"/></g><g id="ARC-23" data-name="ARC"><path class="cls-1" d="M52.94,5.08a.3.3,0,0,0-.08-.32"/></g><g id="LINE-26" data-name="LINE"><line class="cls-1" x1="28.26" y1="3.02" x2="27.31" y2="3.02"/></g><g id="LINE-27" data-name="LINE"><line class="cls-1" x1="28.26" y1="4.9" x2="27.31" y2="4.9"/></g><g id="LINE-28" data-name="LINE"><line class="cls-1" x1="106.26" y1="4.9" x2="110.96" y2="4.9"/></g><g id="LINE-29" data-name="LINE"><line class="cls-1" x1="106.26" y1="3.02" x2="110.96" y2="3.02"/></g><g id="LINE-30" data-name="LINE"><line class="cls-1" x1="102.5" y1="7.88" x2="102.5" y2="0.2"/></g><g id="LINE-31" data-name="LINE"><line class="cls-1" x1="102.5" y1="7.88" x2="93.1" y2="7.88"/></g><g id="LINE-32" data-name="LINE"><line class="cls-1" x1="93.1" y1="7.88" x2="89.34" y2="6.78"/></g><g id="LINE-33" data-name="LINE"><line class="cls-1" x1="106.26" y1="1.14" x2="102.5" y2="1.14"/></g><g id="LINE-34" data-name="LINE"><line class="cls-1" x1="106.26" y1="6.78" x2="106.26" y2="1.14"/></g><g id="LINE-35" data-name="LINE"><line class="cls-1" x1="102.5" y1="6.78" x2="106.26" y2="6.78"/></g><g id="LINE-36" data-name="LINE"><line class="cls-1" x1="89.49" y1="1.1" x2="79.95" y2="1.77"/></g><g id="LINE-37" data-name="LINE"><line class="cls-1" x1="89.34" y1="6.78" x2="79.95" y2="6.15"/></g><g id="LINE-38" data-name="LINE"><line class="cls-1" x1="93.1" y1="0.2" x2="89.34" y2="1.14"/></g><g id="LINE-39" data-name="LINE"><line class="cls-1" x1="102.5" y1="0.2" x2="93.1" y2="0.2"/></g><g id="LINE-40" data-name="LINE"><line class="cls-1" x1="79.95" y1="1.77" x2="79.95" y2="6.15"/></g><g id="LINE-41" data-name="LINE"><line class="cls-1" x1="79.32" y1="3.02" x2="79.95" y2="3.02"/></g><g id="LINE-42" data-name="LINE"><line class="cls-1" x1="79.32" y1="4.9" x2="79.95" y2="4.9"/></g><g id="ARC-24" data-name="ARC"><path class="cls-1" d="M111,4.9A.94.94,0,0,0,111.9,4h0"/></g><g id="ARC-25" data-name="ARC"><path class="cls-1" d="M111.9,4A.94.94,0,0,0,111,3h0"/></g><g id="LINE-43" data-name="LINE"><line class="cls-1" x1="41.72" y1="3.02" x2="33.27" y2="3.02"/></g><g id="LINE-44" data-name="LINE"><line class="cls-1" x1="41.72" y1="4.9" x2="41.1" y2="4.9"/></g><g id="LINE-45" data-name="LINE"><line class="cls-1" x1="41.72" y1="5.53" x2="41.1" y2="5.53"/></g><g id="LINE-46" data-name="LINE"><line class="cls-1" x1="41.72" y1="6.15" x2="41.1" y2="6.15"/></g><g id="LINE-47" data-name="LINE"><line class="cls-1" x1="47.99" y1="3.02" x2="52.79" y2="3.02"/></g><g id="LINE-48" data-name="LINE"><line class="cls-1" x1="47.99" y1="6.15" x2="52.58" y2="6.15"/></g><g id="LINE-49" data-name="LINE"><line class="cls-1" x1="53.42" y1="3.02" x2="58.01" y2="3.02"/></g><g id="LINE-50" data-name="LINE"><line class="cls-1" x1="53.21" y1="6.15" x2="58.01" y2="6.15"/></g><g id="LINE-51" data-name="LINE"><line class="cls-1" x1="64.28" y1="4.27" x2="64.91" y2="4.27"/></g><g id="LINE-52" data-name="LINE"><line class="cls-1" x1="64.28" y1="4.9" x2="64.91" y2="4.9"/></g><g id="LINE-53" data-name="LINE"><line class="cls-1" x1="64.28" y1="5.53" x2="64.91" y2="5.53"/></g><g id="LINE-54" data-name="LINE"><line class="cls-1" x1="64.28" y1="6.15" x2="64.91" y2="6.15"/></g><g id="LINE-55" data-name="LINE"><line class="cls-1" x1="64.28" y1="4.27" x2="64.91" y2="4.27"/></g><g id="LINE-56" data-name="LINE"><line class="cls-1" x1="66.56" y1="4.9" x2="74.31" y2="4.9"/></g><g id="LINE-57" data-name="LINE"><line class="cls-1" x1="64.28" y1="3.02" x2="74.31" y2="3.02"/></g><g id="LINE-58" data-name="LINE"><line class="cls-1" x1="41.1" y1="4.27" x2="41.72" y2="4.27"/></g><g id="LINE-59" data-name="LINE"><line class="cls-1" x1="39.44" y1="4.9" x2="33.27" y2="4.9"/></g><g id="LINE-60" data-name="LINE"><line class="cls-1" x1="35.46" y1="19.31" x2="36.71" y2="19.31"/></g><g id="LINE-61" data-name="LINE"><line class="cls-1" x1="35.46" y1="17.43" x2="37.34" y2="17.43"/></g><g id="LINE-62" data-name="LINE"><line class="cls-1" x1="35.46" y1="19.94" x2="36.71" y2="19.94"/></g><g id="LINE-63" data-name="LINE"><line class="cls-1" x1="83.71" y1="19.94" x2="69.29" y2="19.94"/></g><g id="LINE-64" data-name="LINE"><line class="cls-1" x1="83.71" y1="19.31" x2="69.29" y2="19.31"/></g><g id="LINE-65" data-name="LINE"><line class="cls-1" x1="83.71" y1="18.06" x2="68.67" y2="18.06"/></g><g id="LINE-66" data-name="LINE"><line class="cls-1" x1="83.71" y1="17.43" x2="68.67" y2="17.43"/></g><g id="LINE-67" data-name="LINE"><line class="cls-1" x1="39.84" y1="15.55" x2="39.84" y2="16.3"/></g><g id="ARC-26" data-name="ARC"><path class="cls-1" d="M37.33,18.06a2.51,2.51,0,0,0,2.51-2.51h0"/></g><g id="LINE-68" data-name="LINE"><line class="cls-1" x1="23.16" y1="12.42" x2="26.37" y2="12.42"/></g><g id="LINE-69" data-name="LINE"><line class="cls-1" x1="23.16" y1="13.05" x2="26.68" y2="13.05"/></g><g id="LINE-70" data-name="LINE"><line class="cls-1" x1="23.16" y1="12.42" x2="37.96" y2="12.42"/></g><g id="LINE-71" data-name="LINE"><line class="cls-1" x1="37.96" y1="13.05" x2="23.16" y2="13.05"/></g><g id="LINE-72" data-name="LINE"><line class="cls-1" x1="11.02" y1="17.43" x2="35.46" y2="17.43"/></g><g id="LINE-73" data-name="LINE"><line class="cls-1" x1="11.02" y1="18.06" x2="37.34" y2="18.06"/></g><g id="LINE-74" data-name="LINE"><line class="cls-1" x1="11.02" y1="19.31" x2="35.46" y2="19.31"/></g><g id="LINE-75" data-name="LINE"><line class="cls-1" x1="11.02" y1="19.94" x2="35.46" y2="19.94"/></g><g id="ARC-27" data-name="ARC"><path class="cls-1" d="M15.48,13.91a.31.31,0,0,0,.31-.31h0"/></g><g id="LINE-76" data-name="LINE"><line class="cls-1" x1="15.79" y1="10.9" x2="15.79" y2="13.6"/></g><g id="ARC-28" data-name="ARC"><path class="cls-1" d="M15.79,10.9a.31.31,0,0,0-.31-.31h0"/></g><g id="LINE-77" data-name="LINE"><line class="cls-1" x1="0.51" y1="10.59" x2="15.48" y2="10.59"/></g><g id="LINE-78" data-name="LINE"><line class="cls-1" x1="0.51" y1="13.91" x2="15.48" y2="13.91"/></g><g id="ARC-29" data-name="ARC"><path class="cls-1" d="M.2,13.6a.31.31,0,0,0,.31.31h0"/></g><g id="LINE-79" data-name="LINE"><line class="cls-1" x1="0.2" y1="10.9" x2="0.2" y2="13.6"/></g><g id="ARC-30" data-name="ARC"><path class="cls-1" d="M.51,10.59a.31.31,0,0,0-.31.31h0"/></g><g id="LINE-80" data-name="LINE"><line class="cls-1" x1="13.35" y1="12.42" x2="16.9" y2="12.42"/></g><g id="LINE-81" data-name="LINE"><line class="cls-1" x1="13.35" y1="13.05" x2="16.9" y2="13.05"/></g><g id="LINE-82" data-name="LINE"><line class="cls-1" x1="78.56" y1="12.42" x2="78.25" y2="12.42"/></g><g id="LINE-83" data-name="LINE"><line class="cls-1" x1="71.99" y1="12.42" x2="68.04" y2="12.42"/></g><g id="LINE-84" data-name="LINE"><line class="cls-1" x1="68.04" y1="13.05" x2="71.99" y2="13.05"/></g><g id="LINE-85" data-name="LINE"><line class="cls-1" x1="78.25" y1="13.05" x2="78.56" y2="13.05"/></g><g id="INSERT"><g id="LINE-86" data-name="LINE"><line class="cls-1" x1="28.26" y1="2.83" x2="28.26" y2="5.09"/></g><g id="LINE-87" data-name="LINE"><line class="cls-1" x1="28.26" y1="5.09" x2="33.27" y2="5.09"/></g><g id="LINE-88" data-name="LINE"><line class="cls-1" x1="33.27" y1="5.09" x2="33.27" y2="2.83"/></g><g id="LINE-89" data-name="LINE"><line class="cls-1" x1="33.27" y1="2.83" x2="28.26" y2="2.83"/></g></g><g id="INSERT-2" data-name="INSERT"><g id="LINE-90" data-name="LINE"><line class="cls-1" x1="74.31" y1="2.83" x2="74.31" y2="5.09"/></g><g id="LINE-91" data-name="LINE"><line class="cls-1" x1="74.31" y1="5.09" x2="79.32" y2="5.09"/></g><g id="LINE-92" data-name="LINE"><line class="cls-1" x1="79.32" y1="5.09" x2="79.32" y2="2.83"/></g><g id="LINE-93" data-name="LINE"><line class="cls-1" x1="79.32" y1="2.83" x2="74.31" y2="2.83"/></g></g><g id="INSERT-3" data-name="INSERT"><g id="ARC-31" data-name="ARC"><path class="cls-1" d="M42,2.71a.31.31,0,0,0-.32.31h0"/></g><g id="LINE-94" data-name="LINE"><line class="cls-1" x1="41.72" y1="3.02" x2="41.72" y2="6.15"/></g><g id="ARC-32" data-name="ARC"><path class="cls-1" d="M41.72,6.15a.32.32,0,0,0,.32.32h0"/></g><g id="LINE-95" data-name="LINE"><line class="cls-1" x1="42.04" y1="6.47" x2="47.68" y2="6.47"/></g><g id="ARC-33" data-name="ARC"><path class="cls-1" d="M47.68,6.47A.31.31,0,0,0,48,6.15h0"/></g><g id="LINE-96" data-name="LINE"><line class="cls-1" x1="47.99" y1="6.15" x2="47.99" y2="3.02"/></g><g id="LINE-97" data-name="LINE"><line class="cls-1" x1="47.68" y1="2.71" x2="42.04" y2="2.71"/></g><g id="ARC-34" data-name="ARC"><path class="cls-1" d="M48,3a.31.31,0,0,0-.31-.31h0"/></g></g><g id="INSERT-4" data-name="INSERT"><g id="ARC-35" data-name="ARC"><path class="cls-1" d="M58.33,2.71A.31.31,0,0,0,58,3h0"/></g><g id="LINE-98" data-name="LINE"><line class="cls-1" x1="63.97" y1="2.71" x2="58.33" y2="2.71"/></g><g id="ARC-36" data-name="ARC"><path class="cls-1" d="M64.28,3A.31.31,0,0,0,64,2.71h0"/></g><g id="LINE-99" data-name="LINE"><line class="cls-1" x1="58.01" y1="3.02" x2="58.01" y2="6.15"/></g><g id="ARC-37" data-name="ARC"><path class="cls-1" d="M58,6.15a.32.32,0,0,0,.32.32h0"/></g><g id="LINE-100" data-name="LINE"><line class="cls-1" x1="58.33" y1="6.47" x2="63.97" y2="6.47"/></g><g id="LINE-101" data-name="LINE"><line class="cls-1" x1="64.28" y1="6.15" x2="64.28" y2="3.02"/></g><g id="ARC-38" data-name="ARC"><path class="cls-1" d="M64,6.47a.31.31,0,0,0,.31-.32h0"/></g></g><g id="INSERT-5" data-name="INSERT"><g id="LINE-102" data-name="LINE"><line class="cls-1" x1="71.99" y1="12.11" x2="71.99" y2="13.36"/></g><g id="LINE-103" data-name="LINE"><line class="cls-1" x1="71.99" y1="13.36" x2="78.25" y2="13.36"/></g><g id="LINE-104" data-name="LINE"><line class="cls-1" x1="78.25" y1="13.36" x2="78.25" y2="12.11"/></g><g id="LINE-105" data-name="LINE"><line class="cls-1" x1="78.25" y1="12.11" x2="71.99" y2="12.11"/></g></g><g id="INSERT-6" data-name="INSERT"><g id="LINE-106" data-name="LINE"><line class="cls-1" x1="16.9" y1="12.11" x2="16.9" y2="13.36"/></g><g id="LINE-107" data-name="LINE"><line class="cls-1" x1="16.9" y1="13.36" x2="23.16" y2="13.36"/></g><g id="LINE-108" data-name="LINE"><line class="cls-1" x1="23.16" y1="13.36" x2="23.16" y2="12.11"/></g><g id="LINE-109" data-name="LINE"><line class="cls-1" x1="23.16" y1="12.11" x2="16.9" y2="12.11"/></g></g><g id="INSERT-7" data-name="INSERT"><g id="LINE-110" data-name="LINE"><line class="cls-1" x1="13.35" y1="13.43" x2="2.38" y2="13.43"/></g><g id="LINE-111" data-name="LINE"><line class="cls-1" x1="2.38" y1="13.43" x2="2.38" y2="10.98"/></g><g id="LINE-112" data-name="LINE"><line class="cls-1" x1="8.71" y1="12.05" x2="10.78" y2="12.05"/></g><g id="LINE-113" data-name="LINE"><line class="cls-1" x1="10.78" y1="12.05" x2="10.78" y2="13.43"/></g><g id="LINE-114" data-name="LINE"><line class="cls-1" x1="11.84" y1="12.05" x2="11.84" y2="13.43"/></g><g id="LINE-115" data-name="LINE"><line class="cls-1" x1="11.84" y1="12.05" x2="13.35" y2="12.05"/></g><g id="LINE-116" data-name="LINE"><line class="cls-1" x1="10.78" y1="12.36" x2="11.84" y2="12.36"/></g><g id="LINE-117" data-name="LINE"><line class="cls-1" x1="2.38" y1="10.98" x2="6.39" y2="10.98"/></g><g id="LINE-118" data-name="LINE"><line class="cls-1" x1="13.35" y1="12.05" x2="13.35" y2="13.43"/></g><g id="LINE-119" data-name="LINE"><line class="cls-1" x1="6.39" y1="10.98" x2="6.91" y2="11.95"/></g><g id="ARC-39" data-name="ARC"><path class="cls-1" d="M6.91,12A1.26,1.26,0,0,0,8,12.61"/></g><g id="LINE-120" data-name="LINE"><line class="cls-1" x1="8.71" y1="12.05" x2="8.66" y2="12.18"/></g><g id="LINE-121" data-name="LINE"><line class="cls-1" x1="8.07" y1="12.61" x2="8.02" y2="12.61"/></g><g id="ARC-40" data-name="ARC"><path class="cls-1" d="M8.07,12.61a.61.61,0,0,0,.59-.43"/></g></g><g id="INSERT-8" data-name="INSERT"><g id="LINE-122" data-name="LINE"><line class="cls-1" x1="86.46" y1="11.11" x2="85.52" y2="11.11"/></g><g id="LINE-123" data-name="LINE"><line class="cls-1" x1="86.46" y1="13.24" x2="85.52" y2="13.24"/></g><g id="LINE-124" data-name="LINE"><line class="cls-1" x1="83.2" y1="12.05" x2="81.13" y2="12.05"/></g><g id="LINE-125" data-name="LINE"><line class="cls-1" x1="81.13" y1="12.05" x2="81.13" y2="13.43"/></g><g id="LINE-126" data-name="LINE"><line class="cls-1" x1="80.06" y1="12.05" x2="80.06" y2="13.43"/></g><g id="LINE-127" data-name="LINE"><line class="cls-1" x1="80.06" y1="12.05" x2="78.56" y2="12.05"/></g><g id="LINE-128" data-name="LINE"><line class="cls-1" x1="85.52" y1="13.43" x2="78.56" y2="13.43"/></g><g id="LINE-129" data-name="LINE"><line class="cls-1" x1="78.56" y1="13.43" x2="78.56" y2="12.05"/></g><g id="LINE-130" data-name="LINE"><line class="cls-1" x1="81.13" y1="12.36" x2="80.06" y2="12.36"/></g><g id="LINE-131" data-name="LINE"><line class="cls-1" x1="84.08" y1="10.92" x2="84.08" y2="12.05"/></g><g id="ARC-41" data-name="ARC"><path class="cls-1" d="M83.76,12.36a.32.32,0,0,0,.32-.31h0"/></g><g id="LINE-132" data-name="LINE"><line class="cls-1" x1="83.76" y1="12.36" x2="83.51" y2="12.36"/></g><g id="ARC-42" data-name="ARC"><path class="cls-1" d="M83.2,12.05a.31.31,0,0,0,.31.31h0"/></g><g id="ARC-43" data-name="ARC"><path class="cls-1" d="M89.53,11.33a.14.14,0,0,0-.11-.13"/></g><g id="ARC-44" data-name="ARC"><path class="cls-1" d="M87.82,10.92h0"/></g><g id="LINE-133" data-name="LINE"><line class="cls-1" x1="89.42" y1="11.2" x2="87.82" y2="10.92"/></g><g id="ARC-45" data-name="ARC"><path class="cls-1" d="M87.82,10.92h0"/></g><g id="LINE-134" data-name="LINE"><line class="cls-1" x1="86.58" y1="10.92" x2="87.8" y2="10.92"/></g><g id="ARC-46" data-name="ARC"><path class="cls-1" d="M86.58,10.92a.12.12,0,0,0-.12.12h0"/></g><g id="LINE-135" data-name="LINE"><line class="cls-1" x1="85.52" y1="13.43" x2="85.52" y2="11.04"/></g><g id="LINE-136" data-name="LINE"><line class="cls-1" x1="84.08" y1="10.92" x2="85.39" y2="10.92"/></g><g id="ARC-47" data-name="ARC"><path class="cls-1" d="M85.52,11a.12.12,0,0,0-.13-.12h0"/></g><g id="LINE-137" data-name="LINE"><line class="cls-1" x1="89.42" y1="13.14" x2="87.81" y2="13.43"/></g><g id="LINE-138" data-name="LINE"><line class="cls-1" x1="89.53" y1="11.33" x2="89.53" y2="13.02"/></g><g id="ARC-48" data-name="ARC"><path class="cls-1" d="M89.42,13.14a.13.13,0,0,0,.11-.12"/></g><g id="LINE-139" data-name="LINE"><line class="cls-1" x1="87.81" y1="13.43" x2="86.58" y2="13.43"/></g><g id="LINE-140" data-name="LINE"><line class="cls-1" x1="86.46" y1="11.04" x2="86.46" y2="13.3"/></g><g id="ARC-49" data-name="ARC"><path class="cls-1" d="M86.46,13.3a.12.12,0,0,0,.12.13h0"/></g></g><g id="INSERT-9" data-name="INSERT"><g id="ARC-50" data-name="ARC"><path class="cls-1" d="M78.25,10.67a.12.12,0,0,0-.13.12h0"/></g><g id="LINE-141" data-name="LINE"><line class="cls-1" x1="78.12" y1="13.55" x2="78.12" y2="10.79"/></g><g id="ARC-51" data-name="ARC"><path class="cls-1" d="M78.12,13.55a.13.13,0,0,0,.13.13h0"/></g><g id="ARC-52" data-name="ARC"><path class="cls-1" d="M94.41,10.13a.31.31,0,0,0-.31-.31h0"/></g><g id="ARC-53" data-name="ARC"><path class="cls-1" d="M88,9.82l-.1,0"/></g><g id="LINE-142" data-name="LINE"><line class="cls-1" x1="88.01" y1="9.82" x2="94.1" y2="9.82"/></g><g id="ARC-54" data-name="ARC"><path class="cls-1" d="M88,9.82l-.1,0"/></g><g id="LINE-143" data-name="LINE"><line class="cls-1" x1="78.25" y1="10.67" x2="85.52" y2="10.67"/></g><g id="LINE-144" data-name="LINE"><line class="cls-1" x1="85.63" y1="10.65" x2="87.91" y2="9.84"/></g><g id="ARC-55" data-name="ARC"><path class="cls-1" d="M85.52,10.67l.11,0"/></g><g id="LINE-145" data-name="LINE"><line class="cls-1" x1="85.52" y1="13.68" x2="78.25" y2="13.68"/></g><g id="ARC-56" data-name="ARC"><path class="cls-1" d="M85.63,13.69a.21.21,0,0,0-.11,0"/></g><g id="LINE-146" data-name="LINE"><line class="cls-1" x1="85.63" y1="13.69" x2="87.91" y2="14.5"/></g><g id="ARC-57" data-name="ARC"><path class="cls-1" d="M87.91,14.5l.1,0"/></g><g id="LINE-147" data-name="LINE"><line class="cls-1" x1="94.41" y1="10.13" x2="94.41" y2="14.21"/></g><g id="LINE-148" data-name="LINE"><line class="cls-1" x1="88.01" y1="14.52" x2="94.1" y2="14.52"/></g><g id="ARC-58" data-name="ARC"><path class="cls-1" d="M94.1,14.52a.31.31,0,0,0,.31-.31h0"/></g></g><g id="LINE-149" data-name="LINE"><line class="cls-1" x1="0.29" y1="16.57" x2="0.29" y2="20.82"/></g><g id="LINE-150" data-name="LINE"><line class="cls-1" x1="0.29" y1="16.57" x2="10.96" y2="16.57"/></g><g id="LINE-151" data-name="LINE"><line class="cls-1" x1="10.96" y1="16.57" x2="10.96" y2="20.82"/></g><g id="LINE-152" data-name="LINE"><line class="cls-1" x1="10.96" y1="20.82" x2="0.29" y2="20.82"/></g><g id="LINE-153" data-name="LINE"><line class="cls-1" x1="5.69" y1="16.57" x2="5.69" y2="20.82"/></g><g id="LINE-154" data-name="LINE"><line class="cls-1" x1="92.38" y1="17.01" x2="92.38" y2="18.55"/></g><g id="LINE-155" data-name="LINE"><line class="cls-1" x1="92.38" y1="18.83" x2="92.38" y2="20.37"/></g><g id="LINE-156" data-name="LINE"><line class="cls-1" x1="83.77" y1="16.62" x2="88.47" y2="16.62"/></g><g id="LINE-157" data-name="LINE"><line class="cls-1" x1="88.47" y1="16.62" x2="88.47" y2="20.77"/></g><g id="LINE-158" data-name="LINE"><line class="cls-1" x1="88.47" y1="20.77" x2="83.77" y2="20.77"/></g><g id="LINE-159" data-name="LINE"><line class="cls-1" x1="83.77" y1="20.77" x2="83.77" y2="16.62"/></g><g id="LINE-160" data-name="LINE"><line class="cls-1" x1="88.47" y1="17.01" x2="92.38" y2="17.01"/></g><g id="LINE-161" data-name="LINE"><line class="cls-1" x1="92.38" y1="18.55" x2="88.47" y2="18.55"/></g><g id="LINE-162" data-name="LINE"><line class="cls-1" x1="88.47" y1="18.83" x2="92.38" y2="18.83"/></g><g id="LINE-163" data-name="LINE"><line class="cls-1" x1="92.38" y1="20.37" x2="88.47" y2="20.37"/></g><g id="LINE-164" data-name="LINE"><line class="cls-1" x1="84.25" y1="16.62" x2="84.25" y2="20.77"/></g><g id="LINE-165" data-name="LINE"><line class="cls-1" x1="88.47" y1="17.44" x2="92.38" y2="17.44"/></g></g></g></svg>