<svg xmlns="http://www.w3.org/2000/svg" viewBox="0 0 25.14 12.77"><defs><style>.cls-1{fill:#fff;stroke:#58595b;stroke-linecap:round;stroke-linejoin:round;stroke-width:0.4px;}</style></defs><g id="Layer_2" data-name="Layer 2"><g id="イラスト"><ellipse class="cls-1" cx="10.5" cy="12.03" rx="0.82" ry="0.31" transform="translate(-5.05 8.4) rotate(-35.72)"/><ellipse class="cls-1" cx="10.11" cy="11.49" rx="1.28" ry="0.49" transform="translate(-4.8 8.06) rotate(-35.72)"/><ellipse class="cls-1" cx="9.69" cy="10.9" rx="1.8" ry="0.68" transform="translate(-4.54 7.71) rotate(-35.72)"/><ellipse class="cls-1" cx="9.19" cy="10.21" rx="2.14" ry="0.82" transform="translate(-4.23 7.28) rotate(-35.72)"/><ellipse class="cls-1" cx="8.68" cy="9.5" rx="2.53" ry="0.96" transform="translate(-3.91 6.85) rotate(-35.72)"/><ellipse class="cls-1" cx="8.2" cy="8.83" rx="2.53" ry="0.96" transform="matrix(0.81, -0.58, 0.58, 0.81, -3.61, 6.45)"/><ellipse class="cls-1" cx="7.72" cy="8.16" rx="2.53" ry="0.96" transform="translate(-3.31 6.04) rotate(-35.72)"/><ellipse class="cls-1" cx="7.24" cy="7.49" rx="2.53" ry="0.96" transform="translate(-3.01 5.63) rotate(-35.72)"/><ellipse class="cls-1" cx="6.75" cy="6.82" rx="2.53" ry="0.96" transform="translate(-2.71 5.23) rotate(-35.72)"/><ellipse class="cls-1" cx="6.27" cy="6.15" rx="2.53" ry="0.96" transform="translate(-2.41 4.82) rotate(-35.72)"/><ellipse class="cls-1" cx="5.79" cy="5.48" rx="2.53" ry="0.96" transform="translate(-2.11 4.41) rotate(-35.72)"/><ellipse class="cls-1" cx="4.36" cy="3.73" rx="4.74" ry="2.69" transform="translate(-1.36 3.25) rotate(-35.72)"/><path class="cls-1" d="M5.89,2.18a8.66,8.66,0,0,0-.5.92,4.52,4.52,0,0,0-1.65-.4,5.87,5.87,0,0,0-.93,2.17c-.26-.08-.82-.25-1.07-.34a5.66,5.66,0,0,1,.93-1.88,1.9,1.9,0,0,0-.91.13,2.56,2.56,0,0,1,1-.88l.69-.15A8.3,8.3,0,0,1,4.8.65,8.06,8.06,0,0,1,6.11.26,8.1,8.1,0,0,0,4.2,1.85,5.38,5.38,0,0,1,5.89,2.18Z"/><ellipse class="cls-1" cx="24.25" cy="12.03" rx="0.82" ry="0.31" transform="translate(-2.46 16.42) rotate(-35.72)"/><ellipse class="cls-1" cx="23.85" cy="11.49" rx="1.28" ry="0.49" transform="translate(-2.22 16.09) rotate(-35.72)"/><ellipse class="cls-1" cx="23.43" cy="10.9" rx="1.8" ry="0.68" transform="translate(-1.96 15.73) rotate(-35.72)"/><ellipse class="cls-1" cx="22.93" cy="10.21" rx="2.14" ry="0.82" transform="translate(-1.64 15.31) rotate(-35.72)"/><ellipse class="cls-1" cx="22.42" cy="9.5" rx="2.53" ry="0.96" transform="translate(-1.33 14.88) rotate(-35.72)"/><ellipse class="cls-1" cx="21.94" cy="8.83" rx="2.53" ry="0.96" transform="matrix(0.81, -0.58, 0.58, 0.81, -1.03, 14.47)"/><ellipse class="cls-1" cx="21.46" cy="8.16" rx="2.53" ry="0.96" transform="translate(-0.73 14.06) rotate(-35.72)"/><ellipse class="cls-1" cx="20.98" cy="7.49" rx="2.53" ry="0.96" transform="translate(-0.43 13.66) rotate(-35.72)"/><ellipse class="cls-1" cx="20.5" cy="6.82" rx="2.53" ry="0.96" transform="translate(-0.13 13.25) rotate(-35.72)"/><ellipse class="cls-1" cx="20.02" cy="6.15" rx="2.53" ry="0.96" transform="translate(0.17 12.84) rotate(-35.72)"/><ellipse class="cls-1" cx="19.53" cy="5.48" rx="2.53" ry="0.96" transform="translate(0.47 12.43) rotate(-35.72)"/><ellipse class="cls-1" cx="18.1" cy="3.73" rx="4.74" ry="2.69" transform="translate(1.23 11.27) rotate(-35.72)"/><path class="cls-1" d="M19.64,2.18a8.12,8.12,0,0,0-.51.92,4.47,4.47,0,0,0-1.65-.4,5.87,5.87,0,0,0-.93,2.17l-1.06-.34a5.73,5.73,0,0,1,.92-1.88,1.9,1.9,0,0,0-.91.13,2.72,2.72,0,0,1,.95-.88l.69-.15a8.85,8.85,0,0,1,1.4-1.1A8.06,8.06,0,0,1,19.85.26a8.31,8.31,0,0,0-1.91,1.59A5.44,5.44,0,0,1,19.64,2.18Z"/></g></g></svg>