<svg xmlns="http://www.w3.org/2000/svg" viewBox="0 0 129.35 55.83"><defs><style>.cls-1{fill:none;stroke:#58595b;stroke-linecap:round;stroke-linejoin:round;stroke-width:0.4px;}.cls-2{fill:#58595b;}.cls-3{fill:#fff;}</style></defs><g id="Layer_2" data-name="Layer 2"><g id="イラスト"><g id="LINE"><line class="cls-1" x1="88.74" y1="44.04" x2="91.87" y2="44.04"/></g><g id="ARC"><path class="cls-1" d="M101.27,31.5a.63.63,0,0,0-.62.63h0"/></g><g id="ARC-2" data-name="ARC"><path class="cls-1" d="M101.27,30.88A1.25,1.25,0,0,0,100,32.13h0"/></g><g id="ARC-3" data-name="ARC"><path class="cls-1" d="M101.27,30.25a1.88,1.88,0,0,0-1.88,1.88h0"/></g><g id="LINE-2" data-name="LINE"><line class="cls-1" x1="100.65" y1="42.16" x2="100.65" y2="32.13"/></g><g id="ARC-4" data-name="ARC"><path class="cls-1" d="M98.77,44a1.89,1.89,0,0,0,1.88-1.88h0"/></g><g id="LINE-3" data-name="LINE"><line class="cls-1" x1="98.77" y1="43.41" x2="88.74" y2="43.41"/></g><g id="ARC-5" data-name="ARC"><path class="cls-1" d="M98.77,43.41A1.25,1.25,0,0,0,100,42.16h0"/></g><g id="LINE-4" data-name="LINE"><line class="cls-1" x1="100.02" y1="42.16" x2="100.02" y2="32.13"/></g><g id="LINE-5" data-name="LINE"><line class="cls-1" x1="101.27" y1="32.13" x2="101.27" y2="27.12"/></g><g id="LINE-6" data-name="LINE"><line class="cls-1" x1="100.65" y1="12.44" x2="100.65" y2="27.12"/></g><g id="ARC-6" data-name="ARC"><path class="cls-1" d="M100.65,27.12a.62.62,0,0,0,.62.62h0"/></g><g id="LINE-7" data-name="LINE"><line class="cls-1" x1="100.02" y1="27.12" x2="100.02" y2="12.44"/></g><g id="ARC-7" data-name="ARC"><path class="cls-1" d="M100,27.12a1.25,1.25,0,0,0,1.25,1.25h0"/></g><g id="ARC-8" data-name="ARC"><path class="cls-1" d="M99.39,27.12A1.88,1.88,0,0,0,101.27,29h0"/></g><g id="LINE-8" data-name="LINE"><line class="cls-1" x1="99.39" y1="27.12" x2="99.39" y2="13.07"/></g><g id="ARC-9" data-name="ARC"><path class="cls-1" d="M98.77,17.54a.63.63,0,0,0-.63-.63h0"/></g><g id="ARC-10" data-name="ARC"><path class="cls-1" d="M99.39,17.54a1.25,1.25,0,0,0-1.25-1.25h0"/></g><g id="ARC-11" data-name="ARC"><path class="cls-1" d="M98.77,27.12a2.5,2.5,0,0,0,2.5,2.5h0"/></g><g id="LINE-9" data-name="LINE"><line class="cls-1" x1="98.77" y1="27.12" x2="98.77" y2="17.54"/></g><g id="LINE-10" data-name="LINE"><line class="cls-1" x1="95.63" y1="28.68" x2="95.63" y2="21.61"/></g><g id="LINE-11" data-name="LINE"><line class="cls-1" x1="96.26" y1="28.68" x2="96.26" y2="21.61"/></g><g id="LINE-12" data-name="LINE"><line class="cls-1" x1="98.14" y1="16.91" x2="91.87" y2="16.91"/></g><g id="LINE-13" data-name="LINE"><line class="cls-1" x1="98.14" y1="16.29" x2="91.87" y2="16.29"/></g><g id="LINE-14" data-name="LINE"><line class="cls-1" x1="101.27" y1="29.62" x2="97.2" y2="29.62"/></g><g id="ARC-12" data-name="ARC"><path class="cls-1" d="M96.26,28.68a.94.94,0,0,0,.94.94h0"/></g><g id="ARC-13" data-name="ARC"><path class="cls-1" d="M95.63,21.61a.94.94,0,0,0-.94-.94h0"/></g><g id="LINE-15" data-name="LINE"><line class="cls-1" x1="101.27" y1="30.25" x2="97.2" y2="30.25"/></g><g id="ARC-14" data-name="ARC"><path class="cls-1" d="M95.63,28.68a1.57,1.57,0,0,0,1.57,1.57h0"/></g><g id="ARC-15" data-name="ARC"><path class="cls-1" d="M96.26,21.61a1.56,1.56,0,0,0-1.57-1.56h0"/></g><g id="LINE-16" data-name="LINE"><line class="cls-1" x1="105.66" y1="32.76" x2="105.14" y2="30.7"/></g><g id="ARC-16" data-name="ARC"><path class="cls-1" d="M105.24,29.84a1.27,1.27,0,0,0-.1.86"/></g><g id="LINE-17" data-name="LINE"><line class="cls-1" x1="106.8" y1="28.55" x2="106.28" y2="26.49"/></g><g id="ARC-17" data-name="ARC"><path class="cls-1" d="M106.7,29.41a1.22,1.22,0,0,0,.1-.86"/></g><g id="LINE-18" data-name="LINE"><line class="cls-1" x1="106.91" y1="32.76" x2="106.34" y2="30.47"/></g><g id="LINE-19" data-name="LINE"><line class="cls-1" x1="106.39" y1="30.04" x2="106.7" y2="29.41"/></g><g id="ARC-18" data-name="ARC"><path class="cls-1" d="M106.39,30a.59.59,0,0,0,0,.43"/></g><g id="LINE-20" data-name="LINE"><line class="cls-1" x1="105.6" y1="28.77" x2="105.03" y2="26.49"/></g><g id="LINE-21" data-name="LINE"><line class="cls-1" x1="105.24" y1="29.84" x2="105.55" y2="29.2"/></g><g id="ARC-19" data-name="ARC"><path class="cls-1" d="M105.55,29.2a.59.59,0,0,0,0-.43"/></g><g id="LINE-22" data-name="LINE"><line class="cls-1" x1="101.27" y1="32.13" x2="105.5" y2="32.13"/></g><g id="LINE-23" data-name="LINE"><line class="cls-1" x1="101.27" y1="27.12" x2="105.19" y2="27.12"/></g><g id="LINE-24" data-name="LINE"><line class="cls-1" x1="106.75" y1="32.13" x2="113.18" y2="32.13"/></g><g id="LINE-25" data-name="LINE"><line class="cls-1" x1="106.44" y1="27.12" x2="113.18" y2="27.12"/></g><g id="LINE-26" data-name="LINE"><line class="cls-1" x1="113.18" y1="32.13" x2="113.18" y2="27.12"/></g><g id="LINE-27" data-name="LINE"><line class="cls-1" x1="113.18" y1="29" x2="118.82" y2="28.37"/></g><g id="LINE-28" data-name="LINE"><line class="cls-1" x1="113.18" y1="29.94" x2="118.82" y2="29.94"/></g><g id="LINE-29" data-name="LINE"><line class="cls-1" x1="113.18" y1="29.31" x2="118.82" y2="29.31"/></g><g id="LINE-30" data-name="LINE"><line class="cls-1" x1="113.18" y1="30.25" x2="118.82" y2="30.88"/></g><g id="LINE-31" data-name="LINE"><line class="cls-1" x1="113.18" y1="30.88" x2="118.82" y2="31.51"/></g><g id="LINE-32" data-name="LINE"><line class="cls-1" x1="113.18" y1="28.37" x2="118.82" y2="27.74"/></g><g id="ARC-20" data-name="ARC"><path class="cls-1" d="M99.39,13.07a1.88,1.88,0,0,0-1.88-1.88h0"/></g><g id="ARC-21" data-name="ARC"><path class="cls-1" d="M100,13.07a2.51,2.51,0,0,0-2.51-2.51h0"/></g><g id="ARC-22" data-name="ARC"><path class="cls-1" d="M100,12.44a3.13,3.13,0,0,0-3.13-3.13h0"/></g><g id="ARC-23" data-name="ARC"><path class="cls-1" d="M100.65,12.44a3.76,3.76,0,0,0-3.76-3.75h0"/></g><g id="LINE-33" data-name="LINE"><line class="cls-1" x1="16.05" y1="11.19" x2="24.55" y2="11.19"/></g><g id="LINE-34" data-name="LINE"><line class="cls-1" x1="16.05" y1="10.56" x2="24.2" y2="10.56"/></g><g id="LINE-35" data-name="LINE"><line class="cls-1" x1="16.05" y1="9.31" x2="24.2" y2="9.31"/></g><g id="LINE-36" data-name="LINE"><line class="cls-1" x1="16.05" y1="8.69" x2="24.2" y2="8.69"/></g><g id="LINE-37" data-name="LINE"><line class="cls-1" x1="62.05" y1="44.04" x2="88.74" y2="44.04"/></g><g id="LINE-38" data-name="LINE"><line class="cls-1" x1="91.84" y1="44.04" x2="98.77" y2="44.04"/></g><g id="ARC-24" data-name="ARC"><path class="cls-1" d="M80.85,43.41A3.13,3.13,0,0,0,84,40.28h0"/></g><g id="ARC-25" data-name="ARC"><path class="cls-1" d="M80.85,44a3.76,3.76,0,0,0,3.76-3.76h0"/></g><g id="LINE-39" data-name="LINE"><line class="cls-1" x1="62.05" y1="43.41" x2="80.93" y2="43.41"/></g><g id="LINE-40" data-name="LINE"><line class="cls-1" x1="82.93" y1="43.41" x2="88.74" y2="43.41"/></g><g id="LINE-41" data-name="LINE"><line class="cls-1" x1="94.69" y1="20.05" x2="84.61" y2="20.05"/></g><g id="LINE-42" data-name="LINE"><line class="cls-1" x1="94.69" y1="20.67" x2="84.61" y2="20.67"/></g><g id="LINE-43" data-name="LINE"><line class="cls-1" x1="23.24" y1="16.91" x2="83.99" y2="16.91"/></g><g id="LINE-44" data-name="LINE"><line class="cls-1" x1="84.61" y1="16.91" x2="91.87" y2="16.91"/></g><g id="LINE-45" data-name="LINE"><line class="cls-1" x1="23.24" y1="16.29" x2="83.99" y2="16.29"/></g><g id="LINE-46" data-name="LINE"><line class="cls-1" x1="84.61" y1="16.29" x2="91.87" y2="16.29"/></g><g id="LINE-47" data-name="LINE"><line class="cls-1" x1="24.2" y1="11.19" x2="83.99" y2="11.19"/></g><g id="LINE-48" data-name="LINE"><line class="cls-1" x1="84.61" y1="11.19" x2="97.51" y2="11.19"/></g><g id="LINE-49" data-name="LINE"><line class="cls-1" x1="24.2" y1="10.56" x2="83.99" y2="10.56"/></g><g id="LINE-50" data-name="LINE"><line class="cls-1" x1="84.61" y1="10.56" x2="97.51" y2="10.56"/></g><g id="LINE-51" data-name="LINE"><line class="cls-1" x1="28.59" y1="43.41" x2="25.89" y2="43.41"/></g><g id="LINE-52" data-name="LINE"><line class="cls-1" x1="28.59" y1="44.04" x2="25.89" y2="44.04"/></g><g id="LINE-53" data-name="LINE"><line class="cls-1" x1="16.05" y1="16.29" x2="16.05" y2="16.91"/></g><g id="LINE-54" data-name="LINE"><line class="cls-1" x1="16.05" y1="16.91" x2="16.98" y2="16.91"/></g><g id="LINE-55" data-name="LINE"><line class="cls-1" x1="16.05" y1="16.29" x2="16.98" y2="16.29"/></g><g id="LINE-56" data-name="LINE"><line class="cls-1" x1="34.48" y1="2.66" x2="35.48" y2="2.66"/></g><g id="LINE-57" data-name="LINE"><line class="cls-1" x1="34.48" y1="2.03" x2="35.16" y2="2.03"/></g><g id="LINE-58" data-name="LINE"><line class="cls-1" x1="35.48" y1="2.66" x2="77.72" y2="2.66"/></g><g id="ARC-26" data-name="ARC"><path class="cls-1" d="M84,8.92a6.27,6.27,0,0,0-6.27-6.26h0"/></g><g id="LINE-59" data-name="LINE"><line class="cls-1" x1="77.72" y1="2.03" x2="35.16" y2="2.03"/></g><g id="ARC-27" data-name="ARC"><path class="cls-1" d="M84.61,8.92A6.89,6.89,0,0,0,77.72,2h0"/></g><g id="LINE-60" data-name="LINE"><line class="cls-1" x1="25.39" y1="2.03" x2="22.95" y2="2.03"/></g><g id="LINE-61" data-name="LINE"><line class="cls-1" x1="25.39" y1="2.66" x2="22.95" y2="2.66"/></g><g id="LINE-62" data-name="LINE"><line class="cls-1" x1="25.39" y1="2.03" x2="28.22" y2="2.03"/></g><g id="LINE-63" data-name="LINE"><line class="cls-1" x1="25.39" y1="2.66" x2="28.22" y2="2.66"/></g><g id="LINE-64" data-name="LINE"><line class="cls-1" x1="83.99" y1="10.45" x2="83.99" y2="40.28"/></g><g id="LINE-65" data-name="LINE"><line class="cls-1" x1="84.61" y1="40.28" x2="84.61" y2="10.45"/></g><g id="LINE-66" data-name="LINE"><line class="cls-1" x1="84.39" y1="8.69" x2="96.89" y2="8.69"/></g><g id="LINE-67" data-name="LINE"><line class="cls-1" x1="84.52" y1="9.31" x2="96.89" y2="9.31"/></g><g id="LINE-68" data-name="LINE"><line class="cls-1" x1="24.2" y1="9.31" x2="83.88" y2="9.31"/></g><g id="LINE-69" data-name="LINE"><line class="cls-1" x1="24.2" y1="8.69" x2="83.73" y2="8.69"/></g><g id="ARC-28" data-name="ARC"><path class="cls-1" d="M22.44,3.53a.31.31,0,0,0,.31-.32h0"/></g><g id="LINE-70" data-name="LINE"><line class="cls-1" x1="22.75" y1="0.51" x2="22.75" y2="3.21"/></g><g id="ARC-29" data-name="ARC"><path class="cls-1" d="M22.75.51A.31.31,0,0,0,22.44.2h0"/></g><g id="LINE-71" data-name="LINE"><line class="cls-1" x1="23.25" y1="2.66" x2="20.31" y2="2.66"/></g><g id="LINE-72" data-name="LINE"><line class="cls-1" x1="20.31" y1="2.03" x2="23.25" y2="2.03"/></g><g id="LINE-73" data-name="LINE"><line class="cls-1" x1="7.47" y1="0.2" x2="22.44" y2="0.2"/></g><g id="LINE-74" data-name="LINE"><line class="cls-1" x1="7.47" y1="3.53" x2="22.44" y2="3.53"/></g><g id="ARC-30" data-name="ARC"><path class="cls-1" d="M7.16,3.21a.31.31,0,0,0,.31.32h0"/></g><g id="LINE-75" data-name="LINE"><line class="cls-1" x1="7.16" y1="0.51" x2="7.16" y2="3.21"/></g><g id="ARC-31" data-name="ARC"><path class="cls-1" d="M7.47.2a.31.31,0,0,0-.31.31h0"/></g><g id="LINE-76" data-name="LINE"><line class="cls-1" x1="19.63" y1="43.41" x2="18.38" y2="43.41"/></g><g id="LINE-77" data-name="LINE"><line class="cls-1" x1="19.63" y1="44.04" x2="18.38" y2="44.04"/></g><g id="LINE-78" data-name="LINE"><line class="cls-1" x1="16.58" y1="36.52" x2="16.05" y2="36.52"/></g><g id="LINE-79" data-name="LINE"><line class="cls-1" x1="16.58" y1="35.89" x2="16.05" y2="35.89"/></g><g id="LINE-80" data-name="LINE"><line class="cls-1" x1="98.14" y1="35.89" x2="88.74" y2="35.89"/></g><g id="ARC-32" data-name="ARC"><path class="cls-1" d="M98.14,35.89a1.25,1.25,0,0,0,1.25-1.25h0"/></g><g id="LINE-81" data-name="LINE"><line class="cls-1" x1="88.74" y1="36.52" x2="98.14" y2="36.52"/></g><g id="ARC-33" data-name="ARC"><path class="cls-1" d="M98.14,36.52A1.88,1.88,0,0,0,100,34.64h0"/></g><g id="LINE-82" data-name="LINE"><line class="cls-1" x1="42.16" y1="36.52" x2="22.85" y2="36.52"/></g><g id="LINE-83" data-name="LINE"><line class="cls-1" x1="41.95" y1="35.89" x2="22.85" y2="35.89"/></g><g id="LINE-84" data-name="LINE"><line class="cls-1" x1="88.74" y1="36.52" x2="84.61" y2="36.52"/></g><g id="LINE-85" data-name="LINE"><line class="cls-1" x1="83.99" y1="36.52" x2="42.79" y2="36.52"/></g><g id="LINE-86" data-name="LINE"><line class="cls-1" x1="88.74" y1="35.89" x2="84.61" y2="35.89"/></g><g id="LINE-87" data-name="LINE"><line class="cls-1" x1="83.99" y1="35.89" x2="42.58" y2="35.89"/></g><g id="LINE-88" data-name="LINE"><line class="cls-1" x1="99.39" y1="34.64" x2="99.39" y2="32.13"/></g><g id="INSERT"><g id="LINE-89" data-name="LINE"><line class="cls-1" x1="38.05" y1="47.17" x2="52.58" y2="47.17"/></g><g id="LINE-90" data-name="LINE"><line class="cls-1" x1="52.58" y1="47.17" x2="52.58" y2="40.28"/></g><g id="LINE-91" data-name="LINE"><line class="cls-1" x1="52.58" y1="40.28" x2="38.05" y2="40.28"/></g><g id="LINE-92" data-name="LINE"><line class="cls-1" x1="38.05" y1="40.28" x2="38.05" y2="47.17"/></g><g id="LINE-93" data-name="LINE"><line class="cls-1" x1="26.68" y1="43.72" x2="64.39" y2="43.72"/></g><g id="LINE-94" data-name="LINE"><line class="cls-1" x1="39.98" y1="55.34" x2="39.27" y2="47.17"/></g><g id="ARC-34" data-name="ARC"><path class="cls-1" d="M40,55.34a.33.33,0,0,0,.32.29"/></g><g id="LINE-95" data-name="LINE"><line class="cls-1" x1="50.65" y1="55.34" x2="51.36" y2="47.17"/></g><g id="LINE-96" data-name="LINE"><line class="cls-1" x1="40.3" y1="55.63" x2="50.34" y2="55.63"/></g><g id="ARC-35" data-name="ARC"><path class="cls-1" d="M50.34,55.63a.32.32,0,0,0,.31-.29"/></g><g id="LINE-97" data-name="LINE"><line class="cls-1" x1="52.58" y1="46.17" x2="61.76" y2="45.31"/></g><g id="ARC-36" data-name="ARC"><path class="cls-1" d="M61.76,45.31a.32.32,0,0,0,.29-.31"/></g><g id="LINE-98" data-name="LINE"><line class="cls-1" x1="61.76" y1="42.13" x2="52.58" y2="41.28"/></g><g id="LINE-99" data-name="LINE"><line class="cls-1" x1="62.05" y1="45" x2="62.05" y2="42.44"/></g><g id="ARC-37" data-name="ARC"><path class="cls-1" d="M62.05,42.44a.32.32,0,0,0-.29-.31"/></g><g id="LINE-100" data-name="LINE"><line class="cls-1" x1="38.05" y1="46.17" x2="28.87" y2="45.31"/></g><g id="ARC-38" data-name="ARC"><path class="cls-1" d="M28.59,45a.3.3,0,0,0,.28.31"/></g><g id="LINE-101" data-name="LINE"><line class="cls-1" x1="28.87" y1="42.13" x2="38.05" y2="41.28"/></g><g id="LINE-102" data-name="LINE"><line class="cls-1" x1="28.59" y1="45" x2="28.59" y2="42.44"/></g><g id="ARC-39" data-name="ARC"><path class="cls-1" d="M28.87,42.13a.3.3,0,0,0-.28.31"/></g></g><g id="INSERT-2" data-name="INSERT"><g id="LINE-103" data-name="LINE"><line class="cls-1" x1="41.89" y1="53.28" x2="48.74" y2="53.28"/></g><g id="LINE-104" data-name="LINE"><line class="cls-1" x1="48.74" y1="53.28" x2="48.74" y2="47.79"/></g><g id="LINE-105" data-name="LINE"><line class="cls-1" x1="48.74" y1="47.79" x2="41.89" y2="47.79"/></g><g id="LINE-106" data-name="LINE"><line class="cls-1" x1="41.89" y1="47.79" x2="41.89" y2="53.28"/></g></g><g id="INSERT-3" data-name="INSERT"><g id="LINE-107" data-name="LINE"><line class="cls-1" x1="19.63" y1="43.1" x2="19.63" y2="44.35"/></g><g id="LINE-108" data-name="LINE"><line class="cls-1" x1="25.89" y1="44.35" x2="25.89" y2="43.1"/></g><g id="LINE-109" data-name="LINE"><line class="cls-1" x1="25.89" y1="43.1" x2="19.63" y2="43.1"/></g><g id="LINE-110" data-name="LINE"><line class="cls-1" x1="19.63" y1="44.35" x2="19.81" y2="44.35"/></g><g id="LINE-111" data-name="LINE"><line class="cls-1" x1="19.81" y1="44.35" x2="25.89" y2="44.35"/></g></g><g id="INSERT-4" data-name="INSERT"><g id="LINE-112" data-name="LINE"><line class="cls-1" x1="16.98" y1="15.97" x2="16.98" y2="17.23"/></g><g id="LINE-113" data-name="LINE"><line class="cls-1" x1="16.98" y1="17.23" x2="23.24" y2="17.23"/></g><g id="LINE-114" data-name="LINE"><line class="cls-1" x1="23.24" y1="17.23" x2="23.24" y2="15.97"/></g><g id="LINE-115" data-name="LINE"><line class="cls-1" x1="23.24" y1="15.97" x2="16.98" y2="15.97"/></g></g><g id="INSERT-5" data-name="INSERT"><g id="LINE-116" data-name="LINE"><line class="cls-1" x1="6.65" y1="16.07" x2="6.65" y2="17.08"/></g><g id="LINE-117" data-name="LINE"><line class="cls-1" x1="6.65" y1="17.08" x2="16.05" y2="17.08"/></g><g id="LINE-118" data-name="LINE"><line class="cls-1" x1="16.05" y1="17.08" x2="16.05" y2="16.07"/></g><g id="LINE-119" data-name="LINE"><line class="cls-1" x1="16.05" y1="16.07" x2="6.65" y2="16.07"/></g></g><g id="INSERT-6" data-name="INSERT"><g id="LINE-120" data-name="LINE"><line class="cls-1" x1="28.22" y1="1.72" x2="28.22" y2="2.97"/></g><g id="LINE-121" data-name="LINE"><line class="cls-1" x1="28.22" y1="2.97" x2="34.48" y2="2.97"/></g><g id="LINE-122" data-name="LINE"><line class="cls-1" x1="34.48" y1="2.97" x2="34.48" y2="1.72"/></g><g id="LINE-123" data-name="LINE"><line class="cls-1" x1="34.48" y1="1.72" x2="28.22" y2="1.72"/></g></g><g id="INSERT-7" data-name="INSERT"><g id="LINE-124" data-name="LINE"><line class="cls-1" x1="20.31" y1="3.04" x2="9.34" y2="3.04"/></g><g id="LINE-125" data-name="LINE"><line class="cls-1" x1="9.34" y1="3.04" x2="9.34" y2="0.59"/></g><g id="LINE-126" data-name="LINE"><line class="cls-1" x1="15.67" y1="1.66" x2="17.74" y2="1.66"/></g><g id="LINE-127" data-name="LINE"><line class="cls-1" x1="17.74" y1="1.66" x2="17.74" y2="3.04"/></g><g id="LINE-128" data-name="LINE"><line class="cls-1" x1="18.8" y1="1.66" x2="18.8" y2="3.04"/></g><g id="LINE-129" data-name="LINE"><line class="cls-1" x1="18.8" y1="1.66" x2="20.31" y2="1.66"/></g><g id="LINE-130" data-name="LINE"><line class="cls-1" x1="17.74" y1="1.97" x2="18.8" y2="1.97"/></g><g id="LINE-131" data-name="LINE"><line class="cls-1" x1="9.34" y1="0.59" x2="13.35" y2="0.59"/></g><g id="LINE-132" data-name="LINE"><line class="cls-1" x1="20.31" y1="1.66" x2="20.31" y2="3.04"/></g><g id="LINE-133" data-name="LINE"><line class="cls-1" x1="13.35" y1="0.59" x2="13.87" y2="1.56"/></g><g id="ARC-40" data-name="ARC"><path class="cls-1" d="M13.87,1.56A1.26,1.26,0,0,0,15,2.22"/></g><g id="LINE-134" data-name="LINE"><line class="cls-1" x1="15.67" y1="1.66" x2="15.63" y2="1.8"/></g><g id="LINE-135" data-name="LINE"><line class="cls-1" x1="15.03" y1="2.22" x2="14.98" y2="2.22"/></g><g id="ARC-41" data-name="ARC"><path class="cls-1" d="M15,2.22a.64.64,0,0,0,.6-.42"/></g></g><g id="INSERT-8" data-name="INSERT"><g id="LINE-136" data-name="LINE"><line class="cls-1" x1="10.49" y1="42.1" x2="11.43" y2="42.1"/></g><g id="LINE-137" data-name="LINE"><line class="cls-1" x1="10.49" y1="44.23" x2="11.43" y2="44.23"/></g><g id="LINE-138" data-name="LINE"><line class="cls-1" x1="13.75" y1="43.04" x2="15.81" y2="43.04"/></g><g id="LINE-139" data-name="LINE"><line class="cls-1" x1="15.81" y1="43.04" x2="15.81" y2="44.41"/></g><g id="LINE-140" data-name="LINE"><line class="cls-1" x1="16.88" y1="43.04" x2="16.88" y2="44.41"/></g><g id="LINE-141" data-name="LINE"><line class="cls-1" x1="16.88" y1="43.04" x2="18.38" y2="43.04"/></g><g id="LINE-142" data-name="LINE"><line class="cls-1" x1="11.43" y1="44.41" x2="18.38" y2="44.41"/></g><g id="LINE-143" data-name="LINE"><line class="cls-1" x1="18.38" y1="44.41" x2="18.38" y2="43.04"/></g><g id="LINE-144" data-name="LINE"><line class="cls-1" x1="15.81" y1="43.35" x2="16.88" y2="43.35"/></g><g id="LINE-145" data-name="LINE"><line class="cls-1" x1="12.87" y1="41.91" x2="12.87" y2="43.04"/></g><g id="ARC-42" data-name="ARC"><path class="cls-1" d="M12.87,43a.31.31,0,0,0,.31.31h0"/></g><g id="LINE-146" data-name="LINE"><line class="cls-1" x1="13.18" y1="43.35" x2="13.43" y2="43.35"/></g><g id="ARC-43" data-name="ARC"><path class="cls-1" d="M13.43,43.35a.31.31,0,0,0,.32-.31h0"/></g><g id="ARC-44" data-name="ARC"><path class="cls-1" d="M7.52,42.19a.13.13,0,0,0-.1.13"/></g><g id="ARC-45" data-name="ARC"><path class="cls-1" d="M9.14,41.91h0"/></g><g id="LINE-147" data-name="LINE"><line class="cls-1" x1="7.52" y1="42.19" x2="9.12" y2="41.91"/></g><g id="ARC-46" data-name="ARC"><path class="cls-1" d="M9.14,41.91h0"/></g><g id="LINE-148" data-name="LINE"><line class="cls-1" x1="10.36" y1="41.91" x2="9.14" y2="41.91"/></g><g id="ARC-47" data-name="ARC"><path class="cls-1" d="M10.49,42a.12.12,0,0,0-.13-.12h0"/></g><g id="LINE-149" data-name="LINE"><line class="cls-1" x1="11.43" y1="44.41" x2="11.43" y2="42.03"/></g><g id="LINE-150" data-name="LINE"><line class="cls-1" x1="12.87" y1="41.91" x2="11.55" y2="41.91"/></g><g id="ARC-48" data-name="ARC"><path class="cls-1" d="M11.55,41.91a.12.12,0,0,0-.12.12h0"/></g><g id="LINE-151" data-name="LINE"><line class="cls-1" x1="7.52" y1="44.13" x2="9.13" y2="44.41"/></g><g id="LINE-152" data-name="LINE"><line class="cls-1" x1="7.42" y1="42.32" x2="7.42" y2="44.01"/></g><g id="ARC-49" data-name="ARC"><path class="cls-1" d="M7.42,44a.12.12,0,0,0,.1.12"/></g><g id="LINE-153" data-name="LINE"><line class="cls-1" x1="9.13" y1="44.41" x2="10.36" y2="44.41"/></g><g id="LINE-154" data-name="LINE"><line class="cls-1" x1="10.49" y1="42.03" x2="10.49" y2="44.29"/></g><g id="ARC-50" data-name="ARC"><path class="cls-1" d="M10.36,44.41a.12.12,0,0,0,.13-.12h0"/></g></g><g id="INSERT-9" data-name="INSERT"><g id="ARC-51" data-name="ARC"><path class="cls-1" d="M18.82,41.78a.12.12,0,0,0-.12-.12h0"/></g><g id="LINE-155" data-name="LINE"><line class="cls-1" x1="18.82" y1="44.54" x2="18.82" y2="41.78"/></g><g id="ARC-52" data-name="ARC"><path class="cls-1" d="M18.7,44.67a.12.12,0,0,0,.12-.13h0"/></g><g id="ARC-53" data-name="ARC"><path class="cls-1" d="M2.84,40.81a.31.31,0,0,0-.31.31h0"/></g><g id="ARC-54" data-name="ARC"><path class="cls-1" d="M9,40.83l-.11,0"/></g><g id="LINE-156" data-name="LINE"><line class="cls-1" x1="8.93" y1="40.81" x2="2.84" y2="40.81"/></g><g id="ARC-55" data-name="ARC"><path class="cls-1" d="M9,40.83l-.11,0"/></g><g id="LINE-157" data-name="LINE"><line class="cls-1" x1="18.7" y1="41.66" x2="11.42" y2="41.66"/></g><g id="LINE-158" data-name="LINE"><line class="cls-1" x1="11.31" y1="41.64" x2="9.04" y2="40.83"/></g><g id="ARC-56" data-name="ARC"><path class="cls-1" d="M11.31,41.64l.11,0"/></g><g id="LINE-159" data-name="LINE"><line class="cls-1" x1="11.42" y1="44.67" x2="18.7" y2="44.67"/></g><g id="ARC-57" data-name="ARC"><path class="cls-1" d="M11.42,44.67a.21.21,0,0,0-.11,0"/></g><g id="LINE-160" data-name="LINE"><line class="cls-1" x1="11.31" y1="44.68" x2="9.04" y2="45.49"/></g><g id="ARC-58" data-name="ARC"><path class="cls-1" d="M8.93,45.51l.11,0"/></g><g id="LINE-161" data-name="LINE"><line class="cls-1" x1="2.53" y1="41.12" x2="2.53" y2="45.2"/></g><g id="LINE-162" data-name="LINE"><line class="cls-1" x1="8.93" y1="45.51" x2="2.84" y2="45.51"/></g><g id="ARC-59" data-name="ARC"><path class="cls-1" d="M2.53,45.2a.31.31,0,0,0,.31.31h0"/></g></g><g id="INSERT-10" data-name="INSERT"><g id="LINE-163" data-name="LINE"><line class="cls-1" x1="10.73" y1="37.14" x2="7.1" y2="39.2"/></g><g id="LINE-164" data-name="LINE"><line class="cls-1" x1="10.73" y1="35.26" x2="7.1" y2="33.21"/></g><g id="LINE-165" data-name="LINE"><line class="cls-1" x1="10.73" y1="35.26" x2="13.86" y2="35.26"/></g><g id="LINE-166" data-name="LINE"><line class="cls-1" x1="10.73" y1="37.14" x2="13.86" y2="37.14"/></g><g id="LINE-167" data-name="LINE"><line class="cls-1" x1="13.86" y1="35.26" x2="13.86" y2="37.14"/></g><g id="LINE-168" data-name="LINE"><line class="cls-1" x1="10.73" y1="35.26" x2="10.73" y2="37.14"/></g><g id="LINE-169" data-name="LINE"><line class="cls-1" x1="4.36" y1="34.64" x2="2.33" y2="34.64"/></g><g id="ARC-60" data-name="ARC"><path class="cls-1" d="M4.36,37.77a1.88,1.88,0,1,0,0-3.13"/></g><g id="ARC-61" data-name="ARC"><path class="cls-1" d="M7.1,33.21A3.45,3.45,0,0,0,2.4,34.5l-.07.14"/></g><g id="ARC-62" data-name="ARC"><path class="cls-1" d="M2.33,37.77A3.45,3.45,0,0,0,7,39.27l.13-.07"/></g><g id="LINE-170" data-name="LINE"><line class="cls-1" x1="16.05" y1="34.95" x2="14.17" y2="34.95"/></g><g id="LINE-171" data-name="LINE"><line class="cls-1" x1="16.05" y1="34.95" x2="16.05" y2="37.46"/></g><g id="LINE-172" data-name="LINE"><line class="cls-1" x1="16.05" y1="37.46" x2="14.17" y2="37.46"/></g><g id="LINE-173" data-name="LINE"><line class="cls-1" x1="14.17" y1="34.95" x2="14.17" y2="37.46"/></g><g id="LINE-174" data-name="LINE"><line class="cls-1" x1="16.05" y1="36.2" x2="14.17" y2="36.2"/></g><g id="LINE-175" data-name="LINE"><line class="cls-1" x1="13.86" y1="35.26" x2="13.86" y2="37.14"/></g><g id="LINE-176" data-name="LINE"><line class="cls-1" x1="13.86" y1="35.26" x2="14.17" y2="34.95"/></g><g id="LINE-177" data-name="LINE"><line class="cls-1" x1="13.86" y1="37.14" x2="14.17" y2="37.46"/></g><g id="LINE-178" data-name="LINE"><line class="cls-1" x1="13.86" y1="36.2" x2="10.73" y2="36.2"/></g><g id="LINE-179" data-name="LINE"><line class="cls-1" x1="4.36" y1="37.77" x2="2.33" y2="37.77"/></g></g><g id="INSERT-11" data-name="INSERT"><g id="LINE-180" data-name="LINE"><line class="cls-1" x1="16.58" y1="35.58" x2="16.58" y2="36.83"/></g><g id="LINE-181" data-name="LINE"><line class="cls-1" x1="16.58" y1="36.83" x2="22.85" y2="36.83"/></g><g id="LINE-182" data-name="LINE"><line class="cls-1" x1="22.85" y1="36.83" x2="22.85" y2="35.58"/></g><g id="LINE-183" data-name="LINE"><line class="cls-1" x1="22.85" y1="35.58" x2="16.58" y2="35.58"/></g></g><g id="LINE-184" data-name="LINE"><line class="cls-1" x1="5.26" y1="7.79" x2="5.26" y2="12.04"/></g><g id="LINE-185" data-name="LINE"><line class="cls-1" x1="5.26" y1="7.79" x2="15.93" y2="7.79"/></g><g id="LINE-186" data-name="LINE"><line class="cls-1" x1="15.93" y1="7.79" x2="15.93" y2="12.04"/></g><g id="LINE-187" data-name="LINE"><line class="cls-1" x1="15.93" y1="12.04" x2="5.26" y2="12.04"/></g><g id="LINE-188" data-name="LINE"><line class="cls-1" x1="10.66" y1="7.79" x2="10.66" y2="12.04"/></g><g id="LINE-189" data-name="LINE"><line class="cls-1" x1="118.84" y1="33.24" x2="124.47" y2="33.24"/></g><g id="LINE-190" data-name="LINE"><line class="cls-1" x1="124.47" y1="32.77" x2="129.15" y2="32.77"/></g><g id="LINE-191" data-name="LINE"><line class="cls-1" x1="129.15" y1="32.77" x2="129.15" y2="30.92"/></g><g id="LINE-192" data-name="LINE"><line class="cls-1" x1="129.15" y1="30.92" x2="124.47" y2="30.92"/></g><g id="LINE-193" data-name="LINE"><line class="cls-1" x1="124.47" y1="30.59" x2="129.15" y2="30.59"/></g><g id="LINE-194" data-name="LINE"><line class="cls-1" x1="129.15" y1="30.59" x2="129.15" y2="28.74"/></g><g id="LINE-195" data-name="LINE"><line class="cls-1" x1="129.15" y1="28.74" x2="124.47" y2="28.74"/></g><g id="LINE-196" data-name="LINE"><line class="cls-1" x1="124.47" y1="26.09" x2="118.84" y2="26.09"/></g><g id="LINE-197" data-name="LINE"><line class="cls-1" x1="124.47" y1="28.41" x2="129.15" y2="28.41"/></g><g id="LINE-198" data-name="LINE"><line class="cls-1" x1="129.15" y1="28.41" x2="129.15" y2="26.56"/></g><g id="LINE-199" data-name="LINE"><line class="cls-1" x1="129.15" y1="26.56" x2="124.47" y2="26.56"/></g><g id="LINE-200" data-name="LINE"><line class="cls-1" x1="118.84" y1="26.09" x2="118.84" y2="33.24"/></g><g id="LINE-201" data-name="LINE"><line class="cls-1" x1="119.42" y1="33.24" x2="119.42" y2="26.09"/></g><g id="LINE-202" data-name="LINE"><line class="cls-1" x1="124.47" y1="33.24" x2="124.47" y2="26.09"/></g><g id="LINE-203" data-name="LINE"><line class="cls-1" x1="124.47" y1="29.2" x2="129.15" y2="29.2"/></g><g id="LINE-204" data-name="LINE"><line class="cls-1" x1="124.47" y1="27.89" x2="129.15" y2="27.89"/></g><path class="cls-2" d="M22,20.25a3.76,3.76,0,1,1,0,7.51v-.32a3.44,3.44,0,1,0,0-6.87v-.32m0-.36a.36.36,0,0,0-.36.36v.32a.36.36,0,0,0,.36.36,3.08,3.08,0,1,1,0,6.15.36.36,0,0,0-.36.36v.32a.36.36,0,0,0,.36.36,4.12,4.12,0,1,0,0-8.23Z"/><rect class="cls-3" x="21.13" y="19.72" width="0.85" height="8.74"/><g id="LINE-205" data-name="LINE"><line class="cls-1" x1="16.05" y1="20.09" x2="21.97" y2="20.09"/></g><g id="LINE-206" data-name="LINE"><line class="cls-1" x1="22.02" y1="20.72" x2="16.05" y2="20.72"/></g><g id="LINE-207" data-name="LINE"><line class="cls-1" x1="21.02" y1="20.09" x2="30.78" y2="20.09"/></g><g id="LINE-208" data-name="LINE"><line class="cls-1" x1="30.78" y1="20.72" x2="24.22" y2="20.72"/></g><g id="LINE-209" data-name="LINE"><line class="cls-1" x1="83.99" y1="20.72" x2="37.05" y2="20.72"/></g><g id="LINE-210" data-name="LINE"><line class="cls-1" x1="83.99" y1="20.09" x2="37.05" y2="20.09"/></g><g id="INSERT-12" data-name="INSERT"><g id="LINE-211" data-name="LINE"><line class="cls-1" x1="8.16" y1="18.78" x2="9.1" y2="18.78"/></g><g id="LINE-212" data-name="LINE"><line class="cls-1" x1="8.16" y1="20.91" x2="9.1" y2="20.91"/></g><g id="LINE-213" data-name="LINE"><line class="cls-1" x1="11.42" y1="19.72" x2="13.48" y2="19.72"/></g><g id="LINE-214" data-name="LINE"><line class="cls-1" x1="13.48" y1="19.72" x2="13.48" y2="21.1"/></g><g id="LINE-215" data-name="LINE"><line class="cls-1" x1="14.55" y1="19.72" x2="14.55" y2="21.1"/></g><g id="LINE-216" data-name="LINE"><line class="cls-1" x1="14.55" y1="19.72" x2="16.05" y2="19.72"/></g><g id="LINE-217" data-name="LINE"><line class="cls-1" x1="9.1" y1="21.1" x2="16.05" y2="21.1"/></g><g id="LINE-218" data-name="LINE"><line class="cls-1" x1="16.05" y1="21.1" x2="16.05" y2="19.72"/></g><g id="LINE-219" data-name="LINE"><line class="cls-1" x1="13.48" y1="20.03" x2="14.55" y2="20.03"/></g><g id="LINE-220" data-name="LINE"><line class="cls-1" x1="10.54" y1="18.59" x2="10.54" y2="19.72"/></g><g id="ARC-63" data-name="ARC"><path class="cls-1" d="M10.54,19.72a.31.31,0,0,0,.31.31h0"/></g><g id="LINE-221" data-name="LINE"><line class="cls-1" x1="10.85" y1="20.03" x2="11.1" y2="20.03"/></g><g id="ARC-64" data-name="ARC"><path class="cls-1" d="M11.1,20a.31.31,0,0,0,.32-.31h0"/></g><g id="ARC-65" data-name="ARC"><path class="cls-1" d="M5.19,18.88a.12.12,0,0,0-.1.12"/></g><g id="ARC-66" data-name="ARC"><path class="cls-1" d="M6.81,18.59h0"/></g><g id="LINE-222" data-name="LINE"><line class="cls-1" x1="5.19" y1="18.88" x2="6.79" y2="18.6"/></g><g id="ARC-67" data-name="ARC"><path class="cls-1" d="M6.81,18.59h0"/></g><g id="LINE-223" data-name="LINE"><line class="cls-1" x1="8.03" y1="18.59" x2="6.81" y2="18.59"/></g><g id="ARC-68" data-name="ARC"><path class="cls-1" d="M8.16,18.72A.13.13,0,0,0,8,18.59H8"/></g><g id="LINE-224" data-name="LINE"><line class="cls-1" x1="9.1" y1="21.1" x2="9.1" y2="18.72"/></g><g id="LINE-225" data-name="LINE"><line class="cls-1" x1="10.54" y1="18.59" x2="9.22" y2="18.59"/></g><g id="ARC-69" data-name="ARC"><path class="cls-1" d="M9.22,18.59a.12.12,0,0,0-.12.13h0"/></g><g id="LINE-226" data-name="LINE"><line class="cls-1" x1="5.19" y1="20.82" x2="6.8" y2="21.1"/></g><g id="LINE-227" data-name="LINE"><line class="cls-1" x1="5.09" y1="19" x2="5.09" y2="20.69"/></g><g id="ARC-70" data-name="ARC"><path class="cls-1" d="M5.09,20.69a.13.13,0,0,0,.1.13"/></g><g id="LINE-228" data-name="LINE"><line class="cls-1" x1="6.8" y1="21.1" x2="8.03" y2="21.1"/></g><g id="LINE-229" data-name="LINE"><line class="cls-1" x1="8.16" y1="18.72" x2="8.16" y2="20.97"/></g><g id="ARC-71" data-name="ARC"><path class="cls-1" d="M8,21.1A.13.13,0,0,0,8.16,21h0"/></g></g><g id="INSERT-13" data-name="INSERT"><g id="ARC-72" data-name="ARC"><path class="cls-1" d="M16.49,18.47a.12.12,0,0,0-.12-.13h0"/></g><g id="LINE-230" data-name="LINE"><line class="cls-1" x1="16.49" y1="21.23" x2="16.49" y2="18.47"/></g><g id="ARC-73" data-name="ARC"><path class="cls-1" d="M16.37,21.35a.12.12,0,0,0,.12-.12h0"/></g><g id="ARC-74" data-name="ARC"><path class="cls-1" d="M.51,17.5a.31.31,0,0,0-.31.31h0"/></g><g id="ARC-75" data-name="ARC"><path class="cls-1" d="M6.7,17.52s-.07,0-.1,0"/></g><g id="LINE-231" data-name="LINE"><line class="cls-1" x1="6.6" y1="17.5" x2="0.51" y2="17.5"/></g><g id="ARC-76" data-name="ARC"><path class="cls-1" d="M6.7,17.52s-.07,0-.1,0"/></g><g id="LINE-232" data-name="LINE"><line class="cls-1" x1="16.37" y1="18.34" x2="9.09" y2="18.34"/></g><g id="LINE-233" data-name="LINE"><line class="cls-1" x1="8.98" y1="18.33" x2="6.7" y2="17.52"/></g><g id="ARC-77" data-name="ARC"><path class="cls-1" d="M9,18.33h.11"/></g><g id="LINE-234" data-name="LINE"><line class="cls-1" x1="9.09" y1="21.35" x2="16.37" y2="21.35"/></g><g id="ARC-78" data-name="ARC"><path class="cls-1" d="M9.09,21.35l-.11,0"/></g><g id="LINE-235" data-name="LINE"><line class="cls-1" x1="8.98" y1="21.37" x2="6.7" y2="22.18"/></g><g id="ARC-79" data-name="ARC"><path class="cls-1" d="M6.6,22.2l.1,0"/></g><g id="LINE-236" data-name="LINE"><line class="cls-1" x1="0.2" y1="17.81" x2="0.2" y2="21.88"/></g><g id="LINE-237" data-name="LINE"><line class="cls-1" x1="6.6" y1="22.2" x2="0.51" y2="22.2"/></g><g id="ARC-80" data-name="ARC"><path class="cls-1" d="M.2,21.88a.31.31,0,0,0,.31.32h0"/></g></g><g id="INSERT-14" data-name="INSERT"><g id="LINE-238" data-name="LINE"><line class="cls-1" x1="30.78" y1="19.78" x2="30.78" y2="21.03"/></g><g id="LINE-239" data-name="LINE"><line class="cls-1" x1="30.78" y1="21.03" x2="37.05" y2="21.03"/></g><g id="LINE-240" data-name="LINE"><line class="cls-1" x1="37.05" y1="21.03" x2="37.05" y2="19.78"/></g><g id="LINE-241" data-name="LINE"><line class="cls-1" x1="37.05" y1="19.78" x2="30.78" y2="19.78"/></g></g><g id="LINE-242" data-name="LINE"><line class="cls-1" x1="22.05" y1="27.28" x2="18.12" y2="27.28"/></g><g id="LINE-243" data-name="LINE"><line class="cls-1" x1="22.05" y1="27.91" x2="18.12" y2="27.91"/></g><g id="ARC-81" data-name="ARC"><path class="cls-1" d="M17.61,28.78a.31.31,0,0,0,.31-.32h0"/></g><g id="LINE-244" data-name="LINE"><line class="cls-1" x1="17.92" y1="25.76" x2="17.92" y2="28.46"/></g><g id="ARC-82" data-name="ARC"><path class="cls-1" d="M17.92,25.76a.31.31,0,0,0-.31-.31h0"/></g><g id="LINE-245" data-name="LINE"><line class="cls-1" x1="18.42" y1="27.91" x2="15.48" y2="27.91"/></g><g id="LINE-246" data-name="LINE"><line class="cls-1" x1="15.48" y1="27.28" x2="18.42" y2="27.28"/></g><g id="LINE-247" data-name="LINE"><line class="cls-1" x1="2.64" y1="25.45" x2="17.61" y2="25.45"/></g><g id="LINE-248" data-name="LINE"><line class="cls-1" x1="2.64" y1="28.78" x2="17.61" y2="28.78"/></g><g id="ARC-83" data-name="ARC"><path class="cls-1" d="M2.33,28.46a.31.31,0,0,0,.31.32h0"/></g><g id="LINE-249" data-name="LINE"><line class="cls-1" x1="2.33" y1="25.76" x2="2.33" y2="28.46"/></g><g id="ARC-84" data-name="ARC"><path class="cls-1" d="M2.64,25.45a.31.31,0,0,0-.31.31h0"/></g><g id="INSERT-15" data-name="INSERT"><g id="LINE-250" data-name="LINE"><line class="cls-1" x1="15.48" y1="28.29" x2="4.51" y2="28.29"/></g><g id="LINE-251" data-name="LINE"><line class="cls-1" x1="4.51" y1="28.29" x2="4.51" y2="25.85"/></g><g id="LINE-252" data-name="LINE"><line class="cls-1" x1="10.84" y1="26.91" x2="12.91" y2="26.91"/></g><g id="LINE-253" data-name="LINE"><line class="cls-1" x1="12.91" y1="26.91" x2="12.91" y2="28.29"/></g><g id="LINE-254" data-name="LINE"><line class="cls-1" x1="13.97" y1="26.91" x2="13.97" y2="28.29"/></g><g id="LINE-255" data-name="LINE"><line class="cls-1" x1="13.97" y1="26.91" x2="15.48" y2="26.91"/></g><g id="LINE-256" data-name="LINE"><line class="cls-1" x1="12.91" y1="27.22" x2="13.97" y2="27.22"/></g><g id="LINE-257" data-name="LINE"><line class="cls-1" x1="4.51" y1="25.85" x2="8.52" y2="25.85"/></g><g id="LINE-258" data-name="LINE"><line class="cls-1" x1="15.48" y1="26.91" x2="15.48" y2="28.29"/></g><g id="LINE-259" data-name="LINE"><line class="cls-1" x1="8.52" y1="25.85" x2="9.05" y2="26.82"/></g><g id="ARC-85" data-name="ARC"><path class="cls-1" d="M9.05,26.82a1.22,1.22,0,0,0,1.1.65"/></g><g id="LINE-260" data-name="LINE"><line class="cls-1" x1="10.84" y1="26.91" x2="10.8" y2="27.05"/></g><g id="LINE-261" data-name="LINE"><line class="cls-1" x1="10.2" y1="27.47" x2="10.15" y2="27.47"/></g><g id="ARC-86" data-name="ARC"><path class="cls-1" d="M10.2,27.47a.64.64,0,0,0,.6-.42"/></g></g></g></g></svg>