<svg xmlns="http://www.w3.org/2000/svg" viewBox="0 0 37.18 20.4"><defs><style>.cls-1{fill:none;stroke:#58595b;stroke-linecap:round;stroke-linejoin:round;stroke-width:0.4px;}</style></defs><g id="Layer_2" data-name="Layer 2"><g id="イラスト"><g id="ARC"><path class="cls-1" d="M21.7,18.12a2.08,2.08,0,0,0,2.07,2.08h0"/></g><g id="LINE"><line class="cls-1" x1="21.7" y1="18.12" x2="21.7" y2="16.43"/></g><g id="ARC-2" data-name="ARC"><path class="cls-1" d="M23.8,20.2c2.85,0,8.47-.21,11.31-.36"/></g><g id="ARC-3" data-name="ARC"><path class="cls-1" d="M13.38,20.2a2.08,2.08,0,0,0,2.1-2.05v0"/></g><g id="LINE-2" data-name="LINE"><line class="cls-1" x1="15.48" y1="18.12" x2="15.48" y2="16.43"/></g><g id="ARC-4" data-name="ARC"><path class="cls-1" d="M2.07,19.84c2.84.15,8.46.33,11.31.36"/></g><g id="ARC-5" data-name="ARC"><path class="cls-1" d="M1.6,16a1.11,1.11,0,1,0,2.21,0h0"/></g><g id="LINE-3" data-name="LINE"><line class="cls-1" x1="1.6" y1="13.95" x2="1.6" y2="16.02"/></g><g id="ARC-6" data-name="ARC"><path class="cls-1" d="M3.81,14A1.11,1.11,0,1,0,1.6,14h0"/></g><g id="LINE-4" data-name="LINE"><line class="cls-1" x1="3.81" y1="16.02" x2="3.81" y2="13.95"/></g><g id="ARC-7" data-name="ARC"><path class="cls-1" d="M33.37,16a1.11,1.11,0,1,0,2.21,0h0"/></g><g id="LINE-5" data-name="LINE"><line class="cls-1" x1="33.37" y1="13.95" x2="33.37" y2="16.02"/></g><g id="ARC-8" data-name="ARC"><path class="cls-1" d="M35.58,14a1.11,1.11,0,1,0-2.21,0h0"/></g><g id="LINE-6" data-name="LINE"><line class="cls-1" x1="35.58" y1="16.02" x2="35.58" y2="13.95"/></g><g id="ARC-9" data-name="ARC"><path class="cls-1" d="M34.59,10.31A68.18,68.18,0,0,0,23.5,8.6"/></g><g id="ARC-10" data-name="ARC"><path class="cls-1" d="M22.22,7.22A1.38,1.38,0,0,0,23.5,8.6"/></g><g id="LINE-7" data-name="LINE"><line class="cls-1" x1="22.22" y1="7.22" x2="22.22" y2="0.2"/></g><g id="LINE-8" data-name="LINE"><line class="cls-1" x1="22.22" y1="0.2" x2="14.96" y2="0.2"/></g><g id="LINE-9" data-name="LINE"><line class="cls-1" x1="14.96" y1="0.2" x2="14.96" y2="7.22"/></g><g id="ARC-11" data-name="ARC"><path class="cls-1" d="M13.68,8.6A1.38,1.38,0,0,0,15,7.22"/></g><g id="ARC-12" data-name="ARC"><path class="cls-1" d="M13.68,8.6A68.18,68.18,0,0,0,2.59,10.31"/></g><g id="ARC-13" data-name="ARC"><path class="cls-1" d="M2.59,10.31A3.1,3.1,0,0,0,.21,13.46"/></g><g id="ARC-14" data-name="ARC"><path class="cls-1" d="M.21,13.46c0,1.19.15,3.56.22,4.75"/></g><g id="ARC-15" data-name="ARC"><path class="cls-1" d="M.43,18.21a1.72,1.72,0,0,0,1.64,1.63"/></g><g id="ARC-16" data-name="ARC"><path class="cls-1" d="M21.7,16.43a3.11,3.11,0,0,0-6.22,0h0"/></g><g id="ARC-17" data-name="ARC"><path class="cls-1" d="M35.11,19.84a1.72,1.72,0,0,0,1.64-1.63"/></g><g id="ARC-18" data-name="ARC"><path class="cls-1" d="M36.75,18.21c.07-1.19.18-3.56.22-4.75"/></g><g id="ARC-19" data-name="ARC"><path class="cls-1" d="M37,13.46a3.1,3.1,0,0,0-2.38-3.15"/></g></g></g></svg>