<svg xmlns="http://www.w3.org/2000/svg" viewBox="0 0 61.69 38.61"><defs><style>.cls-1{fill:none;stroke:#58595b;stroke-linecap:round;stroke-linejoin:round;stroke-width:0.4px;}</style></defs><g id="Layer_2" data-name="Layer 2"><g id="イラスト"><g id="LINE"><line class="cls-1" x1="34.62" y1="22.29" x2="34.62" y2="16.32"/></g><g id="LINE-2" data-name="LINE"><line class="cls-1" x1="34.55" y1="16.16" x2="34.55" y2="16.16"/></g><g id="LINE-3" data-name="LINE"><line class="cls-1" x1="34.55" y1="22.46" x2="34.55" y2="22.45"/></g><g id="LINE-4" data-name="LINE"><line class="cls-1" x1="34.55" y1="31.53" x2="34.55" y2="22.46"/></g><g id="LINE-5" data-name="LINE"><line class="cls-1" x1="34.55" y1="16.16" x2="34.55" y2="7.09"/></g><g id="LINE-6" data-name="LINE"><line class="cls-1" x1="61.48" y1="31.53" x2="61.48" y2="7.09"/></g><g id="ARC"><path class="cls-1" d="M34.55,36.53a1.88,1.88,0,0,0,1.88,1.88h0"/></g><g id="ARC-2" data-name="ARC"><path class="cls-1" d="M59.61,38.41a1.88,1.88,0,0,0,1.88-1.88h0"/></g><g id="LINE-7" data-name="LINE"><line class="cls-1" x1="59.61" y1="38.41" x2="36.43" y2="38.41"/></g><g id="LINE-8" data-name="LINE"><line class="cls-1" x1="40.18" y1="33.72" x2="55.85" y2="33.72"/></g><g id="ARC-3" data-name="ARC"><path class="cls-1" d="M55.85,36.54a1.41,1.41,0,0,0,0-2.82h0"/></g><g id="LINE-9" data-name="LINE"><line class="cls-1" x1="55.85" y1="36.54" x2="40.18" y2="36.54"/></g><g id="ARC-4" data-name="ARC"><path class="cls-1" d="M40.18,33.72a1.41,1.41,0,0,0,0,2.82h0"/></g><g id="ARC-5" data-name="ARC"><path class="cls-1" d="M55.85,4.9a1.41,1.41,0,0,0,0-2.82h0"/></g><g id="LINE-10" data-name="LINE"><line class="cls-1" x1="40.18" y1="4.9" x2="55.85" y2="4.9"/></g><g id="ARC-6" data-name="ARC"><path class="cls-1" d="M40.18,2.08a1.41,1.41,0,1,0,0,2.82h0"/></g><g id="LINE-11" data-name="LINE"><line class="cls-1" x1="55.85" y1="2.08" x2="40.18" y2="2.08"/></g><g id="LINE-12" data-name="LINE"><line class="cls-1" x1="34.55" y1="16.16" x2="34.55" y2="16.16"/></g><g id="LINE-13" data-name="LINE"><line class="cls-1" x1="34.55" y1="22.46" x2="34.55" y2="22.46"/></g><g id="LINE-14" data-name="LINE"><line class="cls-1" x1="34.55" y1="36.53" x2="34.55" y2="31.53"/></g><g id="LINE-15" data-name="LINE"><line class="cls-1" x1="61.49" y1="31.53" x2="61.49" y2="36.53"/></g><g id="LINE-16" data-name="LINE"><line class="cls-1" x1="61.48" y1="31.53" x2="61.49" y2="31.53"/></g><g id="LINE-17" data-name="LINE"><line class="cls-1" x1="61.48" y1="7.09" x2="61.49" y2="7.09"/></g><g id="LINE-18" data-name="LINE"><line class="cls-1" x1="61.49" y1="7.09" x2="61.49" y2="2.08"/></g><g id="ARC-7" data-name="ARC"><path class="cls-1" d="M61.49,2.08A1.88,1.88,0,0,0,59.61.2h0"/></g><g id="LINE-19" data-name="LINE"><line class="cls-1" x1="59.61" y1="0.2" x2="36.43" y2="0.2"/></g><g id="ARC-8" data-name="ARC"><path class="cls-1" d="M36.43.2a1.88,1.88,0,0,0-1.88,1.88h0"/></g><g id="LINE-20" data-name="LINE"><line class="cls-1" x1="34.55" y1="2.08" x2="34.55" y2="7.09"/></g><g id="LINE-21" data-name="LINE"><line class="cls-1" x1="59.61" y1="5.21" x2="36.42" y2="5.21"/></g><g id="LINE-22" data-name="LINE"><line class="cls-1" x1="34.63" y1="20.76" x2="34.68" y2="20.71"/></g><g id="ELLIPSE"><path class="cls-1" d="M34.63,20.76a1.26,1.26,0,0,0,0,.16"/></g><g id="LINE-23" data-name="LINE"><line class="cls-1" x1="34.62" y1="22.2" x2="34.62" y2="20.92"/></g><g id="ELLIPSE-2" data-name="ELLIPSE"><path class="cls-1" d="M34.62,22.35V22.2"/></g><g id="LINE-24" data-name="LINE"><line class="cls-1" x1="34.55" y1="22.42" x2="34.62" y2="22.35"/></g><g id="LINE-25" data-name="LINE"><line class="cls-1" x1="34.55" y1="22.42" x2="34.55" y2="31.53"/></g><g id="LINE-26" data-name="LINE"><line class="cls-1" x1="34.55" y1="7.09" x2="34.55" y2="16.19"/></g><g id="LINE-27" data-name="LINE"><line class="cls-1" x1="34.62" y1="16.26" x2="34.55" y2="16.19"/></g><g id="ELLIPSE-3" data-name="ELLIPSE"><path class="cls-1" d="M34.62,16.42v-.16"/></g><g id="LINE-28" data-name="LINE"><line class="cls-1" x1="34.62" y1="17.7" x2="34.62" y2="16.42"/></g><g id="ELLIPSE-4" data-name="ELLIPSE"><path class="cls-1" d="M34.62,17.7a1.19,1.19,0,0,0,0,.15"/></g><g id="LINE-29" data-name="LINE"><line class="cls-1" x1="34.68" y1="17.91" x2="34.63" y2="17.85"/></g><g id="ELLIPSE-5" data-name="ELLIPSE"><path class="cls-1" d="M34.69,18.06a.42.42,0,0,0,0-.15"/></g><g id="LINE-30" data-name="LINE"><line class="cls-1" x1="34.69" y1="20.55" x2="34.69" y2="18.06"/></g><g id="ELLIPSE-6" data-name="ELLIPSE"><path class="cls-1" d="M34.68,20.71a.54.54,0,0,0,0-.16"/></g><g id="LINE-31" data-name="LINE"><line class="cls-1" x1="61.48" y1="31.53" x2="61.48" y2="7.09"/></g><g id="LINE-32" data-name="LINE"><line class="cls-1" x1="36.42" y1="33.4" x2="59.61" y2="33.4"/></g><g id="LINE-33" data-name="LINE"><line class="cls-1" x1="59.61" y1="5.42" x2="59.61" y2="5.21"/></g><g id="LINE-34" data-name="LINE"><line class="cls-1" x1="61.28" y1="7.09" x2="61.48" y2="7.09"/></g><g id="ARC-9" data-name="ARC"><path class="cls-1" d="M61.48,7.09a1.88,1.88,0,0,0-1.87-1.88h0"/></g><g id="LINE-35" data-name="LINE"><line class="cls-1" x1="61.28" y1="31.53" x2="61.48" y2="31.53"/></g><g id="LINE-36" data-name="LINE"><line class="cls-1" x1="59.61" y1="33.2" x2="59.61" y2="33.4"/></g><g id="ARC-10" data-name="ARC"><path class="cls-1" d="M59.61,33.4a1.87,1.87,0,0,0,1.87-1.87h0"/></g><g id="LINE-37" data-name="LINE"><line class="cls-1" x1="36.42" y1="33.2" x2="36.42" y2="33.4"/></g><g id="LINE-38" data-name="LINE"><line class="cls-1" x1="34.75" y1="31.53" x2="34.55" y2="31.53"/></g><g id="ARC-11" data-name="ARC"><path class="cls-1" d="M34.55,31.53a1.87,1.87,0,0,0,1.87,1.87h0"/></g><g id="LINE-39" data-name="LINE"><line class="cls-1" x1="34.75" y1="7.09" x2="34.55" y2="7.09"/></g><g id="LINE-40" data-name="LINE"><line class="cls-1" x1="36.42" y1="5.42" x2="36.42" y2="5.21"/></g><g id="ARC-12" data-name="ARC"><path class="cls-1" d="M36.42,5.21a1.88,1.88,0,0,0-1.87,1.88h0"/></g><g id="CIRCLE"><path class="cls-1" d="M55.15,15.39a.94.94,0,1,0-.94.94.94.94,0,0,0,.94-.94Z"/></g><g id="CIRCLE-2" data-name="CIRCLE"><path class="cls-1" d="M50.91,14.42a.94.94,0,1,0-.94.94.94.94,0,0,0,.94-.94Z"/></g><g id="CIRCLE-3" data-name="CIRCLE"><path class="cls-1" d="M47.51,17.13a.94.94,0,1,0-.94.94.94.94,0,0,0,.94-.94Z"/></g><g id="CIRCLE-4" data-name="CIRCLE"><path class="cls-1" d="M47.51,21.48a.94.94,0,1,0-.94.94.94.94,0,0,0,.94-.94Z"/></g><g id="CIRCLE-5" data-name="CIRCLE"><path class="cls-1" d="M50.91,24.19a.94.94,0,1,0-.94.94.95.95,0,0,0,.94-.94Z"/></g><g id="CIRCLE-6" data-name="CIRCLE"><path class="cls-1" d="M55.15,23.23a.94.94,0,1,0-.94.94.94.94,0,0,0,.94-.94Z"/></g><g id="CIRCLE-7" data-name="CIRCLE"><path class="cls-1" d="M52.18,19.31a1.1,1.1,0,1,0-1.09,1.09,1.09,1.09,0,0,0,1.09-1.09Z"/></g><g id="CIRCLE-8" data-name="CIRCLE"><path class="cls-1" d="M57,19.31a.94.94,0,1,0-.94.94.94.94,0,0,0,.94-.94Z"/></g><g id="CIRCLE-9" data-name="CIRCLE"><path class="cls-1" d="M58.92,19.31a7.84,7.84,0,1,0-7.83,7.83,7.84,7.84,0,0,0,7.83-7.83Z"/></g><g id="SPLINE"><path class="cls-1" d="M59.61,5.42h.21l.1,0h0l.1,0h0l.1,0h0l.1,0h0l.09,0h0l.09,0h0l.08,0h0l.09,0h0l.07.06h0l.08.06h0l.07.07h0l.12.13h0l.1.15h0a.51.51,0,0,1,.09.16h0a.89.89,0,0,1,.08.17h0a1.21,1.21,0,0,1,0,.18h0a1.62,1.62,0,0,1,0,.19h0a1.34,1.34,0,0,0,0,.2"/></g><g id="SPLINE-2" data-name="SPLINE"><path class="cls-1" d="M34.75,7.09a.41.41,0,0,1,0-.11h0a.34.34,0,0,1,0-.1h0s0-.07,0-.11h0l0-.1h0a.29.29,0,0,1,0-.09h0a.69.69,0,0,0,0-.1h0a.36.36,0,0,1,0-.09h0l0-.09h0a.41.41,0,0,0,0-.09h0l.06-.08h0l.06-.08h0L35.18,6h0l.06-.07h0l.14-.12h0l.14-.11h0l.16-.09h0l.18-.07h0L36,5.46h0l.19,0h.19"/></g><g id="SPLINE-3" data-name="SPLINE"><path class="cls-1" d="M61.28,31.53a.34.34,0,0,1,0,.1h0a.41.41,0,0,1,0,.11h0s0,.07,0,.1h0l0,.1h0a.36.36,0,0,1,0,.1h0l0,.09h0a.3.3,0,0,1,0,.1h0l0,.09h0l0,.08h0l-.06.08h0a.22.22,0,0,1,0,.08h0l-.07.08h0l-.06.07h0l-.14.12h0l-.14.1h0l-.16.09h0l-.17.08h0l-.19,0h0a.58.58,0,0,1-.19,0h0l-.19,0"/></g><g id="SPLINE-4" data-name="SPLINE"><path class="cls-1" d="M36.42,33.2h-.31l-.1,0h0a.38.38,0,0,1-.1,0h0l-.1,0h0l-.09,0h0l-.09,0h0l-.08,0h0l-.09-.06h0l-.07-.06h0l-.08-.06h0l-.07-.06h0l-.12-.14h0l-.1-.14h0a.89.89,0,0,1-.09-.16h0l-.08-.18h0a1.21,1.21,0,0,1-.05-.18h0a.58.58,0,0,1,0-.19h0c0-.06,0-.13,0-.19"/></g><g id="SPLINE-5" data-name="SPLINE"><path class="cls-1" d="M59.61,5.42h0v0h0v0h0v0h0v0h0v0h0v.06h0v0h0v.06h0v.07h0v.08h0V6h0l0,.27h0l0,.33h0s0,.09,0,.13h0a.88.88,0,0,1,0,.16h0a1.23,1.23,0,0,1,0,.19h0a1.79,1.79,0,0,1,0,.23"/></g><g id="LINE-41" data-name="LINE"><line class="cls-1" x1="36.42" y1="5.42" x2="59.61" y2="5.42"/></g><g id="SPLINE-6" data-name="SPLINE"><path class="cls-1" d="M36.42,5.42v0h0v.11h0l.05.41h0c0,.17,0,.38.06.6h0c0,.11,0,.23,0,.35h0c0,.12,0,.24,0,.36"/></g><g id="CIRCLE-10" data-name="CIRCLE"><path class="cls-1" d="M59.37,19.31a8.28,8.28,0,1,0-8.28,8.28,8.28,8.28,0,0,0,8.28-8.28Z"/></g><g id="LINE-42" data-name="LINE"><line class="cls-1" x1="59.4" y1="7.3" x2="36.63" y2="7.3"/></g><g id="SPLINE-7" data-name="SPLINE"><path class="cls-1" d="M61.28,7.09H60.7l-.26,0h0l-.34,0H60l-.16,0h0l-.2,0h0l-.22,0"/></g><g id="LINE-43" data-name="LINE"><line class="cls-1" x1="59.4" y1="31.32" x2="59.4" y2="7.3"/></g><g id="SPLINE-8" data-name="SPLINE"><path class="cls-1" d="M61.28,31.53h-.16l-.42-.05h0l-.6-.06h0l-.34,0h0l-.36,0"/></g><g id="LINE-44" data-name="LINE"><line class="cls-1" x1="61.28" y1="7.09" x2="61.28" y2="31.53"/></g><g id="SPLINE-9" data-name="SPLINE"><path class="cls-1" d="M34.75,7.09h.58l.26,0h0l.34,0h.13l.16,0h0l.19,0h0l.22,0"/></g><g id="LINE-45" data-name="LINE"><line class="cls-1" x1="34.75" y1="31.53" x2="34.75" y2="7.09"/></g><g id="SPLINE-10" data-name="SPLINE"><path class="cls-1" d="M34.75,31.53h.17l.41-.05h0l.6-.06h0l.34,0h0l.36,0"/></g><g id="LINE-46" data-name="LINE"><line class="cls-1" x1="36.63" y1="7.3" x2="36.63" y2="31.32"/></g><g id="SPLINE-11" data-name="SPLINE"><path class="cls-1" d="M59.61,33.2h0v0h0v0h0v0h0v0h0v0h0V33h0v-.06h0v-.06h0v-.07h0V32.7h0a.25.25,0,0,0,0-.08h0l0-.26h0l0-.34h0s0-.08,0-.13h0a1,1,0,0,0,0-.16h0a1.37,1.37,0,0,0,0-.19h0a1.64,1.64,0,0,0,0-.22"/></g><g id="LINE-47" data-name="LINE"><line class="cls-1" x1="36.63" y1="31.32" x2="59.4" y2="31.32"/></g><g id="SPLINE-12" data-name="SPLINE"><path class="cls-1" d="M36.42,33.2v-.05h0V33h0l.05-.41h0c0-.17,0-.38.06-.6h0c0-.11,0-.23,0-.34h0c0-.12,0-.24,0-.36"/></g><g id="LINE-48" data-name="LINE"><line class="cls-1" x1="59.61" y1="33.2" x2="36.42" y2="33.2"/></g><g id="LINE-49" data-name="LINE"><line class="cls-1" x1="18.97" y1="17.44" x2="18.97" y2="21.2"/></g><g id="LINE-50" data-name="LINE"><line class="cls-1" x1="12.71" y1="19.01" x2="18.97" y2="19.01"/></g><g id="LINE-51" data-name="LINE"><line class="cls-1" x1="12.71" y1="19.64" x2="18.97" y2="19.64"/></g><g id="LINE-52" data-name="LINE"><line class="cls-1" x1="18.97" y1="19.01" x2="12.71" y2="17.44"/></g><g id="LINE-53" data-name="LINE"><line class="cls-1" x1="12.71" y1="21.2" x2="18.97" y2="19.64"/></g><g id="LINE-54" data-name="LINE"><line class="cls-1" x1="12.71" y1="16.8" x2="18.97" y2="18.37"/></g><g id="LINE-55" data-name="LINE"><line class="cls-1" x1="12.71" y1="21.85" x2="18.97" y2="20.28"/></g><g id="LINE-56" data-name="LINE"><line class="cls-1" x1="26.03" y1="18.21" x2="26.49" y2="16.82"/></g><g id="ARC-13" data-name="ARC"><path class="cls-1" d="M26,18.21a1.21,1.21,0,0,0,.07.95"/></g><g id="LINE-57" data-name="LINE"><line class="cls-1" x1="26.95" y1="20.44" x2="26.49" y2="21.83"/></g><g id="ARC-14" data-name="ARC"><path class="cls-1" d="M27,20.44a1.25,1.25,0,0,0-.06-1"/></g><g id="LINE-58" data-name="LINE"><line class="cls-1" x1="27.12" y1="16.82" x2="26.57" y2="18.45"/></g><g id="LINE-59" data-name="LINE"><line class="cls-1" x1="26.61" y1="18.93" x2="26.89" y2="19.49"/></g><g id="ARC-15" data-name="ARC"><path class="cls-1" d="M26.57,18.45a.62.62,0,0,0,0,.48"/></g><g id="LINE-60" data-name="LINE"><line class="cls-1" x1="26.41" y1="20.2" x2="25.86" y2="21.83"/></g><g id="LINE-61" data-name="LINE"><line class="cls-1" x1="26.1" y1="19.16" x2="26.37" y2="19.72"/></g><g id="ARC-16" data-name="ARC"><path class="cls-1" d="M26.41,20.2a.62.62,0,0,0,0-.48"/></g><g id="LINE-62" data-name="LINE"><line class="cls-1" x1="18.97" y1="17.44" x2="26.28" y2="17.44"/></g><g id="LINE-63" data-name="LINE"><line class="cls-1" x1="26.91" y1="17.44" x2="34.62" y2="17.44"/></g><g id="LINE-64" data-name="LINE"><line class="cls-1" x1="18.97" y1="21.2" x2="26.07" y2="21.2"/></g><g id="LINE-65" data-name="LINE"><line class="cls-1" x1="26.7" y1="21.2" x2="34.62" y2="21.2"/></g><g id="LINE-66" data-name="LINE"><line class="cls-1" x1="0.2" y1="15.77" x2="12.7" y2="15.77"/></g><g id="LINE-67" data-name="LINE"><line class="cls-1" x1="12.7" y1="22.92" x2="0.2" y2="22.92"/></g><g id="LINE-68" data-name="LINE"><line class="cls-1" x1="0.2" y1="15.77" x2="0.2" y2="22.92"/></g><g id="LINE-69" data-name="LINE"><line class="cls-1" x1="6.52" y1="15.77" x2="6.52" y2="22.92"/></g><g id="LINE-70" data-name="LINE"><line class="cls-1" x1="12.7" y1="15.77" x2="12.7" y2="22.92"/></g></g></g></svg>