<svg xmlns="http://www.w3.org/2000/svg" viewBox="0 0 67.78 36.03"><defs><style>.cls-1{fill:none;stroke:#58595b;stroke-linecap:round;stroke-linejoin:round;stroke-width:0.4px;}.cls-2{fill:#231f20;}</style></defs><g id="Layer_2" data-name="Layer 2"><g id="文字"><rect class="cls-1" x="0.2" y="0.2" width="67.38" height="35.63"/><path class="cls-2" d="M14.75,18a2.3,2.3,0,0,0-.25-.6,1.89,1.89,0,0,0-.36-.47,1.73,1.73,0,0,0-.49-.32,1.81,1.81,0,0,0-.63-.11,1.46,1.46,0,0,0-.75.18,1.41,1.41,0,0,0-.51.46,2.14,2.14,0,0,0-.29.69,3.62,3.62,0,0,0-.09.82,2.76,2.76,0,0,0,.12.82,2,2,0,0,0,.34.69,1.64,1.64,0,0,0,.57.47,1.67,1.67,0,0,0,.79.18,1.93,1.93,0,0,0,1.15-.34,3.18,3.18,0,0,0,.86-.92l.18.14a5,5,0,0,1-.49.65,2.65,2.65,0,0,1-.53.48,2.59,2.59,0,0,1-.63.29,2.54,2.54,0,0,1-.76.1,2.31,2.31,0,0,1-.91-.18,2.48,2.48,0,0,1-.76-.51,2.41,2.41,0,0,1-.52-.79,2.7,2.7,0,0,1-.19-1,2.75,2.75,0,0,1,.19-1,2.48,2.48,0,0,1,.52-.78,2.31,2.31,0,0,1,.76-.51,2.15,2.15,0,0,1,.91-.19,2.67,2.67,0,0,1,.5,0l.44.06.41.08.39,0c0,.1,0,.22,0,.35s0,.27,0,.42,0,.28,0,.41,0,.26,0,.36Z"/><path class="cls-2" d="M17.93,16.45a4.62,4.62,0,0,0-.54.12.71.71,0,0,0-.29.16A.44.44,0,0,0,17,17a3.53,3.53,0,0,0,0,.36V20.8l.38.06a2.22,2.22,0,0,0,.37,0,2.73,2.73,0,0,0,.74-.09,1.64,1.64,0,0,0,.57-.26,2.07,2.07,0,0,0,.46-.43,5.54,5.54,0,0,0,.43-.62H20l-.56,1.62-.52,0H16l-.36,0V21A1.52,1.52,0,0,0,16,21a.64.64,0,0,0,.22-.13.42.42,0,0,0,.11-.18,1.81,1.81,0,0,0,0-.25V17.53c0-.2,0-.36,0-.5a.75.75,0,0,0-.09-.32.46.46,0,0,0-.21-.18,2.28,2.28,0,0,0-.41-.08v-.08l.56,0h1.17l.61,0Z"/><path class="cls-2" d="M21.65,20.8l.16,0,.2,0,.22,0h.22a3.61,3.61,0,0,0,.77-.07,2.48,2.48,0,0,0,.63-.23,2.29,2.29,0,0,0,.53-.41,5.31,5.31,0,0,0,.52-.59l.08.07-.66,1.45-.25,0H20.69l-.42,0V21a1.29,1.29,0,0,0,.41-.08.46.46,0,0,0,.21-.18.71.71,0,0,0,.09-.32c0-.13,0-.3,0-.5V17.53c0-.2,0-.36,0-.5a.75.75,0,0,0-.09-.32.44.44,0,0,0-.22-.18,2.47,2.47,0,0,0-.41-.08v-.08h3l1,0a.81.81,0,0,0,0,.16.76.76,0,0,0,0,.15V17c0,.1,0,.21,0,.32s0,.22,0,.35l-.1,0a1.72,1.72,0,0,0-.24-.56,1.48,1.48,0,0,0-.36-.35,1.42,1.42,0,0,0-.45-.16,3,3,0,0,0-.52,0c-.34,0-.67,0-1,0v1.8h.55a1.4,1.4,0,0,0,.79-.19,1,1,0,0,0,.36-.73h.08V18c0,.17,0,.34,0,.51s0,.35,0,.52v.52h-.08a2.56,2.56,0,0,0-.16-.49.8.8,0,0,0-.23-.3.91.91,0,0,0-.35-.13,2.47,2.47,0,0,0-.5,0h-.46Z"/><path class="cls-2" d="M26.49,19,26,20.3a.69.69,0,0,0,0,.1.29.29,0,0,0,0,.09.38.38,0,0,0,.08.23.65.65,0,0,0,.18.15,1.07,1.07,0,0,0,.22.1l.2.05v.09l-.43,0h-.86l-.44,0V21a1,1,0,0,0,.37-.16,1,1,0,0,0,.25-.24,2,2,0,0,0,.18-.32c.05-.12.1-.24.14-.36l1.25-3.06,0-.09a.31.31,0,0,0,0-.08.3.3,0,0,0,0-.11l-.06-.13a1.79,1.79,0,0,0,.32-.09l.31-.13,1.49,4.12a1,1,0,0,0,.29.44A.9.9,0,0,0,30,21v.09l-.57,0H28.05l-.23,0V21a1.28,1.28,0,0,0,.51-.16.35.35,0,0,0,.2-.32.52.52,0,0,0,0-.11.49.49,0,0,1,0-.11L28,19ZM27.27,17l-.7,1.83h1.35Z"/><path class="cls-2" d="M30.11,16.37l.48,0h.84l.31,0c.06.08.16.22.3.39l.5.6c.18.23.38.47.59.72l.61.75.55.67.39.52h0c0-.15,0-.29,0-.43V18.33q0-.46,0-.81a2.18,2.18,0,0,0-.13-.57.81.81,0,0,0-.27-.35,1,1,0,0,0-.47-.15v-.08l.51,0h1l.47,0v.08a.92.92,0,0,0-.62.27,1,1,0,0,0-.17.63v3.81h-.27c-.26-.41-.54-.81-.83-1.2s-.59-.76-.88-1.11-.57-.67-.85-1l-.73-.81c0,.13,0,.25,0,.37v1.63c0,.43,0,.76,0,1a1.5,1.5,0,0,0,.13.57.53.53,0,0,0,.28.27,2.64,2.64,0,0,0,.53.1v.09l-.71,0H30.52l-.41,0V21l.43-.07a.82.82,0,0,0,.3-.11.46.46,0,0,0,.18-.21,1.31,1.31,0,0,0,.07-.4l.08-3.3a2.29,2.29,0,0,0-.5-.3,5.22,5.22,0,0,0-.56-.18Z"/><path class="cls-2" d="M37.52,20.8l.16,0,.2,0,.22,0h.22a3.67,3.67,0,0,0,.77-.07,2.48,2.48,0,0,0,.63-.23,2.52,2.52,0,0,0,.53-.41,4.43,4.43,0,0,0,.51-.59l.08.07-.65,1.45-.25,0H36.56l-.42,0V21a1.22,1.22,0,0,0,.4-.08.44.44,0,0,0,.22-.18.71.71,0,0,0,.09-.32c0-.13,0-.3,0-.5V17.53c0-.2,0-.36,0-.5a.75.75,0,0,0-.09-.32.44.44,0,0,0-.22-.18,2.47,2.47,0,0,0-.41-.08v-.08h3l1,0a.81.81,0,0,0,0,.16.76.76,0,0,0,0,.15V17c0,.1,0,.21,0,.32s0,.22,0,.35l-.1,0a1.53,1.53,0,0,0-.25-.56,1.2,1.2,0,0,0-.36-.35A1.27,1.27,0,0,0,39,16.6a2.78,2.78,0,0,0-.51,0c-.34,0-.68,0-1,0v1.8h.55a1.4,1.4,0,0,0,.79-.19,1,1,0,0,0,.36-.73h.08V18c0,.17,0,.34,0,.51s0,.35,0,.52v.52h-.08a2.56,2.56,0,0,0-.16-.49.73.73,0,0,0-.24-.3.85.85,0,0,0-.35-.13,2.31,2.31,0,0,0-.49,0h-.46Z"/><path class="cls-2" d="M46.11,21.08h-1.3q-.45-.49-.84-1A9,9,0,0,1,43.28,19H43.1l-.23,0-.23-.05-.18,0v1.12c0,.2,0,.37,0,.5a.86.86,0,0,0,.1.32.44.44,0,0,0,.22.18,1.42,1.42,0,0,0,.42.08v.09l-.55,0H41.59l-.52,0V21a1.29,1.29,0,0,0,.41-.08.49.49,0,0,0,.22-.18.71.71,0,0,0,.09-.32c0-.13,0-.3,0-.5V17.53c0-.2,0-.36,0-.5a.75.75,0,0,0-.09-.32.49.49,0,0,0-.22-.18,2.28,2.28,0,0,0-.41-.08v-.08l.46,0h.72l.32,0,.34,0h.31a2.7,2.7,0,0,1,.63.07,2,2,0,0,1,.59.26,1.36,1.36,0,0,1,.42.44,1.14,1.14,0,0,1,.17.63,1.06,1.06,0,0,1-.09.45,1,1,0,0,1-.24.33,1.26,1.26,0,0,1-.36.24,2.16,2.16,0,0,1-.43.14l.24.39c.09.14.19.29.3.44l.36.44a3.85,3.85,0,0,0,.41.4,3,3,0,0,0,.43.29,1.12,1.12,0,0,0,.46.14Zm-3.65-2.51a1.89,1.89,0,0,0,.67.12,1.29,1.29,0,0,0,.87-.26,1.05,1.05,0,0,0,.31-.84,1,1,0,0,0-.09-.43,1.31,1.31,0,0,0-.25-.33,1.23,1.23,0,0,0-.37-.21,1.2,1.2,0,0,0-.42-.08l-.36,0a1.91,1.91,0,0,0-.33.06l0,.7v1.25Z"/><path class="cls-2" d="M52,16.28v.66H49.74l-.16,1.43h0A1.52,1.52,0,0,1,50.67,18a1.53,1.53,0,0,1,1.63,1.57,1.69,1.69,0,0,1-1.84,1.67,2.5,2.5,0,0,1-1.77-.65l.45-.51a2,2,0,0,0,1.3.51,1,1,0,0,0,1-1,.91.91,0,0,0-1-1,1.24,1.24,0,0,0-1,.49L48.82,19l.25-2.67Z"/><path class="cls-2" d="M57.09,18.71c0,1.56-.71,2.53-1.88,2.53s-1.89-1-1.89-2.53.72-2.53,1.89-2.53S57.09,17.14,57.09,18.71Zm-3,0c0,1.16.42,1.87,1.08,1.87s1.07-.71,1.07-1.87-.41-1.89-1.07-1.89S54.13,17.55,54.13,18.71Z"/></g></g></svg>