<?xml version="1.0" encoding="utf-8"?>
<!-- Generator: Adobe Illustrator 26.0.1, SVG Export Plug-In . SVG Version: 6.00 Build 0)  -->
<svg version="1.1" id="Layer_1" xmlns="http://www.w3.org/2000/svg" xmlns:xlink="http://www.w3.org/1999/xlink" x="0px" y="0px"
	 viewBox="0 0 673.5 1040.3" style="enable-background:new 0 0 673.5 1040.3;" xml:space="preserve">
<style type="text/css">
	.st0{fill:#342C26;}
	.st1{fill:none;stroke:#231F20;stroke-width:0.5;stroke-linecap:round;stroke-linejoin:round;}
	.st2{fill:none;stroke:#231F20;stroke-width:0.25;stroke-linecap:round;stroke-linejoin:round;}
	.st3{clip-path:url(#SVGID_00000067954249008677489060000015135208098097638556_);}
	.st4{fill:#B7E8D0;stroke:#E3EFCD;stroke-miterlimit:10;}
	.st5{clip-path:url(#SVGID_00000098196753883689007410000015283816140913414295_);}
	.st6{fill:#FFEDB0;}
	.st7{clip-path:url(#SVGID_00000062905204866397104220000018360345487433936812_);}
	.st8{fill:#FFC3C2;}
	.st9{clip-path:url(#SVGID_00000008107320537664663540000001023994239527845529_);}
	.st10{fill:none;stroke:#231F20;stroke-width:0.75;stroke-linecap:round;stroke-linejoin:round;}
	.st11{fill:none;stroke:#231F20;stroke-width:0.5;stroke-miterlimit:10;}
	.st12{fill:#231F20;}
</style>
<g>
	<g id="Layer_2_00000034050913854373013330000013335086362418698647_">
		<g id="Layer_1-2">
			<path class="st0" d="M453,203c0.1-2.1,0.1-3.1,0.1-4.7h2.7c0,1.9,0,3.3-0.1,4.7h8.6c0,6.8-0.4,12.4-1,14.1s-1.5,2.2-3.7,2.2
				c-1.1,0-2.2-0.1-3.2-0.2l-0.4-2.6c1.1,0.2,2.2,0.3,3.3,0.4c1.1,0,1.4-0.2,1.5-1.2c0.5-3.4,0.7-6.7,0.7-10.1h-6
				c-0.2,2.7-0.9,5.3-2.1,7.7c-1.5,2.6-3.6,4.7-6.3,6.1l-1.8-2.1c2.3-1.2,4.3-3.1,5.7-5.3c1-2,1.6-4.2,1.7-6.5h-7V203H453z"/>
			<path class="st0" d="M473.3,202.4c2,1.2,3.8,2.5,6.6,4.5l0.5,0.3c1.8-2.7,3.3-5.6,4.4-8.6l2.6,1.2c-1.3,3.2-2.9,6.2-4.8,9.1
				c2.3,1.7,4.4,3.5,6.4,5.6l-1.9,2.1c-1.8-1.9-3.7-3.6-5.7-5.2l-0.4-0.4c-2.9,3.5-6.4,6.5-10.4,8.8l-1.7-2.3
				c3.8-2.1,7.1-4.8,9.9-8.2c-2.1-1.6-4.6-3.3-7-4.8L473.3,202.4z"/>
			<path class="st0" d="M513.3,205.2c-0.9,9.4-4.6,13.1-14.2,14.5l-1.2-2.4c2.8-0.1,5.6-0.9,8-2.4c2.4-1.7,3.9-4.4,4.1-7.3h-16.2
				v-2.4L513.3,205.2z M510.9,199.4v2.4h-15.5v-2.4H510.9z"/>
			<path class="st0" d="M537.4,200.1l1.2,1.2c-0.4,4.1-1.6,8-3.5,11.6c1.1,1.8,2.6,3.4,4.3,4.7l-1.5,2.7c-1.6-1.5-3-3.2-4.2-5.1
				l-0.4,0.5c-1.3,1.9-2.9,3.5-4.7,4.7l-1.6-2.3c2.2-1.3,4-3.2,5.3-5.4v-0.1v-0.1c-1.5-3.2-2.4-6.6-2.8-10.1h-1.5V201h-1.1v19.6
				h-2.4v-4.8c-3,0.8-4.9,1.2-7.5,1.7L516,215c1.2-0.1,1.5-0.2,2.2-0.3V201h-1.7v-2.3h11.8v1.4H537.4z M520.6,201v2.8h3.7V201H520.6
				z M520.6,205.8v2.8h3.7v-2.8H520.6z M520.6,210.6v3.7l0.9-0.1c0.8-0.1,0.9-0.1,1.2-0.2l1.7-0.3v-3.1L520.6,210.6z M531.5,202.4
				c0.2,2.7,0.9,5.3,2,7.8c1.1-2.5,1.9-5.1,2.3-7.8H531.5z"/>
			<path class="st0" d="M546,220.6h-2.5v-12c-0.7,1-1.4,1.9-2.2,2.8l-1.3-2.5c2.5-2.7,4.4-6.2,6.2-11.2l2.4,0.7
				c-0.7,2.1-1.5,4.1-2.5,6.1V220.6z M562.9,203.3v2.4h-3.5v12.3c0,1.9-0.6,2.4-2.9,2.4c-1.3,0-2.5-0.1-3.8-0.2l-0.5-2.6
				c1.3,0.2,2.6,0.3,3.9,0.3c0.6,0,0.7-0.1,0.7-0.7v-11.6h-9.6v-2.4h9.6v-5.1h2.6v5.1H562.9z M551.9,214.6c-0.8-2.3-1.9-4.4-3.3-6.4
				l2.2-1.3c1.4,2,2.5,4.1,3.4,6.4L551.9,214.6z"/>
			<path class="st0" d="M569.5,220.6H567v-12.1c-0.6,1-1.3,2-2,2.9l-1.2-2.6c2-2.6,3.7-6.3,5.1-11.3l2.5,0.7
				c-0.5,1.8-1.2,3.6-1.9,5.4L569.5,220.6z M579.5,216.3c0.7-2.5,1.6-7.1,2.3-11l2.6,0.6c-0.6,3.9-1.5,7.7-2.7,11.4h5.3v2.4h-16.5
				v-2.4h8.8L579.5,216.3z M586.4,202.3v2.4h-15.5v-2.4h6.3v-4.5h2.5v4.5H586.4z M574.3,216c-0.4-3.3-0.9-6.5-1.7-9.7l2.5-0.7
				c0.8,3.2,1.4,6.4,1.8,9.7L574.3,216z"/>
			<path class="st0" d="M601.4,203.3c-0.1,0.4-0.1,0.8-0.2,1.2h9.8v1.8h-10.2v0.1v0.2c0,0.1-0.1,0.2-0.1,0.3c0,0.2-0.1,0.4-0.2,0.6
				h7.3v9.3h-13.4v-9.3h3.4c0.1-0.4,0.2-0.9,0.3-1.1h-9.9v-1.8h10.3c0-0.2,0-0.3,0.1-0.4s0.1-0.4,0.1-0.7h-8.5v-5h19.1v5
				L601.4,203.3z M610.9,217.7v1.9h-18.6v0.9h-2.6v-12.5h2.6v9.6H610.9z M592.5,201.7h3.3v-1.8h-3.3L592.5,201.7z M596.8,210h8.2v-1
				h-8.3L596.8,210z M596.8,212.4h8.2v-1h-8.3L596.8,212.4z M596.8,215h8.2v-1.1h-8.3L596.8,215z M598,201.7h3.3v-1.8H598V201.7z
				 M606.8,199.9h-3.4v1.8h3.3L606.8,199.9z"/>
			<line class="st1" x1="409.5" y1="268.2" x2="446.8" y2="222.9"/>
			<rect x="120.3" y="16" class="st1" width="288.5" height="775"/>
			<line class="st2" x1="232.7" y1="791.1" x2="232.7" y2="16"/>
			<line class="st2" x1="328.7" y1="791.3" x2="328.7" y2="16.3"/>
			<g>
				<defs>
					<rect id="SVGID_1_" x="120.3" y="16" width="112.7" height="774.8"/>
				</defs>
				<clipPath id="SVGID_00000157300055368228186830000001021473918518299062_">
					<use xlink:href="#SVGID_1_"  style="overflow:visible;"/>
				</clipPath>
				<g style="clip-path:url(#SVGID_00000157300055368228186830000001021473918518299062_);">
					<line class="st2" x1="-111" y1="77" x2="270.2" y2="-178.4"/>
					<line class="st2" x1="-111" y1="96.4" x2="270.2" y2="-159.1"/>
					<line class="st2" x1="-111" y1="115.7" x2="270.2" y2="-139.7"/>
					<line class="st2" x1="-111" y1="135.1" x2="270.2" y2="-120.3"/>
					<line class="st2" x1="-111" y1="154.5" x2="270.2" y2="-101"/>
					<line class="st2" x1="-111" y1="173.8" x2="270.2" y2="-81.6"/>
					<line class="st2" x1="-111" y1="193.2" x2="270.2" y2="-62.3"/>
					<line class="st2" x1="-111" y1="212.6" x2="270.2" y2="-42.9"/>
					<line class="st2" x1="-111" y1="231.9" x2="270.2" y2="-23.5"/>
					<line class="st2" x1="-111" y1="251.3" x2="270.2" y2="-4.2"/>
					<line class="st2" x1="-111" y1="270.6" x2="270.2" y2="15.2"/>
					<line class="st2" x1="-111" y1="290" x2="270.2" y2="34.6"/>
					<line class="st2" x1="-111" y1="309.4" x2="270.2" y2="53.9"/>
					<line class="st2" x1="-111" y1="328.7" x2="270.2" y2="73.3"/>
					<line class="st2" x1="-111" y1="348.1" x2="270.2" y2="92.6"/>
					<line class="st2" x1="-111" y1="367.5" x2="270.2" y2="112"/>
					<line class="st2" x1="-111" y1="386.8" x2="270.2" y2="131.4"/>
					<line class="st2" x1="-111" y1="406.2" x2="270.2" y2="150.7"/>
					<line class="st2" x1="-111" y1="425.5" x2="270.2" y2="170.1"/>
					<line class="st2" x1="-111" y1="444.9" x2="270.2" y2="189.5"/>
					<line class="st2" x1="-111" y1="464.3" x2="270.2" y2="208.8"/>
					<line class="st2" x1="-111" y1="483.6" x2="270.2" y2="228.2"/>
					<line class="st2" x1="-111" y1="503" x2="270.2" y2="247.5"/>
					<line class="st2" x1="-111" y1="522.3" x2="270.2" y2="266.9"/>
					<line class="st2" x1="-111" y1="541.7" x2="270.2" y2="286.3"/>
					<line class="st2" x1="-111" y1="561.1" x2="270.2" y2="305.6"/>
					<line class="st2" x1="-111" y1="580.4" x2="270.2" y2="325"/>
					<line class="st2" x1="-111" y1="599.8" x2="270.2" y2="344.4"/>
					<line class="st2" x1="-111" y1="619.2" x2="270.2" y2="363.7"/>
					<line class="st2" x1="-111" y1="638.5" x2="270.2" y2="383.1"/>
					<line class="st2" x1="-111" y1="657.9" x2="270.2" y2="402.4"/>
					<line class="st2" x1="-111" y1="677.2" x2="270.2" y2="421.8"/>
					<line class="st2" x1="-111" y1="696.6" x2="270.2" y2="441.2"/>
					<line class="st2" x1="-111" y1="716" x2="270.2" y2="460.5"/>
					<line class="st2" x1="-111" y1="735.3" x2="270.2" y2="479.9"/>
					<line class="st2" x1="-111" y1="754.7" x2="270.2" y2="499.2"/>
					<line class="st2" x1="-111" y1="774.1" x2="270.2" y2="518.6"/>
					<line class="st2" x1="-111" y1="793.4" x2="270.2" y2="538"/>
					<line class="st2" x1="-111" y1="812.8" x2="270.2" y2="557.3"/>
					<line class="st2" x1="-111" y1="832.1" x2="270.2" y2="576.7"/>
					<line class="st2" x1="-111" y1="851.5" x2="270.2" y2="596.1"/>
					<line class="st2" x1="-111" y1="870.9" x2="270.2" y2="615.4"/>
					<line class="st2" x1="-111" y1="890.2" x2="270.2" y2="634.8"/>
					<line class="st2" x1="-111" y1="909.6" x2="270.2" y2="654.1"/>
					<line class="st2" x1="-111" y1="929" x2="270.2" y2="673.5"/>
					<line class="st2" x1="-111" y1="948.3" x2="270.2" y2="692.9"/>
					<line class="st2" x1="-111" y1="967.7" x2="270.2" y2="712.2"/>
					<line class="st2" x1="-111" y1="987" x2="270.2" y2="731.6"/>
					<line class="st2" x1="-111" y1="1006.4" x2="270.2" y2="751"/>
					<line class="st2" x1="-111" y1="1025.8" x2="270.2" y2="770.3"/>
					<line class="st2" x1="-111" y1="1045.1" x2="270.2" y2="789.7"/>
					<line class="st2" x1="-111" y1="1064.5" x2="270.2" y2="809"/>
					<rect x="89.5" y="-5.3" class="st4" width="194.1" height="831.3"/>
				</g>
			</g>
			<g>
				<defs>
					<rect id="SVGID_00000165933579012931984640000014344558571813036175_" x="232.5" y="16" width="96.5" height="774.8"/>
				</defs>
				<clipPath id="SVGID_00000098215349484833209360000000179468616802933124_">
					<use xlink:href="#SVGID_00000165933579012931984640000014344558571813036175_"  style="overflow:visible;"/>
				</clipPath>
				<g style="clip-path:url(#SVGID_00000098215349484833209360000000179468616802933124_);">
					<line class="st2" x1="438.5" y1="87.4" x2="57.2" y2="-168.1"/>
					<line class="st2" x1="438.5" y1="98.9" x2="57.2" y2="-156.6"/>
					<line class="st2" x1="438.5" y1="110.4" x2="57.2" y2="-145.1"/>
					<line class="st2" x1="438.5" y1="121.8" x2="57.2" y2="-133.6"/>
					<line class="st2" x1="438.5" y1="133.3" x2="57.2" y2="-122.1"/>
					<line class="st2" x1="438.5" y1="144.8" x2="57.2" y2="-110.6"/>
					<line class="st2" x1="438.5" y1="156.3" x2="57.2" y2="-99.2"/>
					<line class="st2" x1="438.5" y1="167.8" x2="57.2" y2="-87.7"/>
					<line class="st2" x1="438.5" y1="179.2" x2="57.2" y2="-76.2"/>
					<line class="st2" x1="438.5" y1="190.7" x2="57.2" y2="-64.7"/>
					<line class="st2" x1="438.5" y1="202.2" x2="57.2" y2="-53.2"/>
					<line class="st2" x1="438.5" y1="213.7" x2="57.2" y2="-41.8"/>
					<line class="st2" x1="438.5" y1="225.2" x2="57.2" y2="-30.3"/>
					<line class="st2" x1="438.5" y1="236.7" x2="57.2" y2="-18.8"/>
					<line class="st2" x1="438.5" y1="248.1" x2="57.2" y2="-7.3"/>
					<line class="st2" x1="438.5" y1="259.6" x2="57.2" y2="4.2"/>
					<line class="st2" x1="438.5" y1="271.1" x2="57.2" y2="15.7"/>
					<line class="st2" x1="438.5" y1="282.6" x2="57.2" y2="27.1"/>
					<line class="st2" x1="438.5" y1="294.1" x2="57.2" y2="38.6"/>
					<line class="st2" x1="438.5" y1="305.6" x2="57.2" y2="50.1"/>
					<line class="st2" x1="438.5" y1="317" x2="57.2" y2="61.6"/>
					<line class="st2" x1="438.5" y1="328.5" x2="57.2" y2="73.1"/>
					<line class="st2" x1="438.5" y1="340" x2="57.2" y2="84.6"/>
					<line class="st2" x1="438.5" y1="351.5" x2="57.2" y2="96"/>
					<line class="st2" x1="438.5" y1="363" x2="57.2" y2="107.5"/>
					<line class="st2" x1="438.5" y1="374.4" x2="57.2" y2="119"/>
					<line class="st2" x1="438.5" y1="385.9" x2="57.2" y2="130.5"/>
					<line class="st2" x1="438.5" y1="397.4" x2="57.2" y2="142"/>
					<line class="st2" x1="438.5" y1="408.9" x2="57.2" y2="153.4"/>
					<line class="st2" x1="438.5" y1="420.4" x2="57.2" y2="164.9"/>
					<line class="st2" x1="438.5" y1="431.9" x2="57.2" y2="176.4"/>
					<line class="st2" x1="438.5" y1="443.3" x2="57.2" y2="187.9"/>
					<line class="st2" x1="438.5" y1="454.8" x2="57.2" y2="199.4"/>
					<line class="st2" x1="438.5" y1="466.3" x2="57.2" y2="210.9"/>
					<line class="st2" x1="438.5" y1="477.8" x2="57.2" y2="222.3"/>
					<line class="st2" x1="438.5" y1="489.3" x2="57.2" y2="233.8"/>
					<line class="st2" x1="438.5" y1="500.7" x2="57.2" y2="245.3"/>
					<line class="st2" x1="438.5" y1="512.2" x2="57.2" y2="256.8"/>
					<line class="st2" x1="438.5" y1="523.7" x2="57.2" y2="268.3"/>
					<line class="st2" x1="438.5" y1="535.2" x2="57.2" y2="279.7"/>
					<line class="st2" x1="438.5" y1="546.7" x2="57.2" y2="291.2"/>
					<line class="st2" x1="438.5" y1="558.2" x2="57.2" y2="302.7"/>
					<line class="st2" x1="438.5" y1="569.6" x2="57.2" y2="314.2"/>
					<line class="st2" x1="438.5" y1="581.1" x2="57.2" y2="325.7"/>
					<line class="st2" x1="438.5" y1="592.6" x2="57.2" y2="337.2"/>
					<line class="st2" x1="438.5" y1="604.1" x2="57.2" y2="348.6"/>
					<line class="st2" x1="438.5" y1="615.6" x2="57.2" y2="360.1"/>
					<line class="st2" x1="438.5" y1="627.1" x2="57.2" y2="371.6"/>
					<line class="st2" x1="438.5" y1="638.5" x2="57.2" y2="383.1"/>
					<line class="st2" x1="438.5" y1="650" x2="57.2" y2="394.6"/>
					<line class="st2" x1="438.5" y1="661.5" x2="57.2" y2="406.1"/>
					<line class="st2" x1="438.5" y1="673" x2="57.2" y2="417.5"/>
					<line class="st2" x1="438.5" y1="684.5" x2="57.2" y2="429"/>
					<line class="st2" x1="438.5" y1="695.9" x2="57.2" y2="440.5"/>
					<line class="st2" x1="438.5" y1="707.4" x2="57.2" y2="452"/>
					<line class="st2" x1="438.5" y1="718.9" x2="57.2" y2="463.5"/>
					<line class="st2" x1="438.5" y1="730.4" x2="57.2" y2="474.9"/>
					<line class="st2" x1="438.5" y1="741.9" x2="57.2" y2="486.4"/>
					<line class="st2" x1="438.5" y1="753.4" x2="57.2" y2="497.9"/>
					<line class="st2" x1="438.5" y1="764.8" x2="57.2" y2="509.4"/>
					<line class="st2" x1="438.5" y1="776.3" x2="57.2" y2="520.9"/>
					<line class="st2" x1="438.5" y1="787.8" x2="57.2" y2="532.4"/>
					<line class="st2" x1="438.5" y1="799.3" x2="57.2" y2="543.8"/>
					<line class="st2" x1="438.5" y1="810.8" x2="57.2" y2="555.3"/>
					<line class="st2" x1="438.5" y1="822.2" x2="57.2" y2="566.8"/>
					<line class="st2" x1="438.5" y1="833.7" x2="57.2" y2="578.3"/>
					<line class="st2" x1="438.5" y1="845.2" x2="57.2" y2="589.8"/>
					<line class="st2" x1="438.5" y1="856.7" x2="57.2" y2="601.3"/>
					<line class="st2" x1="438.5" y1="868.2" x2="57.2" y2="612.7"/>
					<line class="st2" x1="438.5" y1="879.7" x2="57.2" y2="624.2"/>
					<line class="st2" x1="438.5" y1="891.1" x2="57.2" y2="635.7"/>
					<line class="st2" x1="438.5" y1="902.6" x2="57.2" y2="647.2"/>
					<line class="st2" x1="438.5" y1="914.1" x2="57.2" y2="658.7"/>
					<line class="st2" x1="438.5" y1="925.6" x2="57.2" y2="670.1"/>
					<line class="st2" x1="438.5" y1="937.1" x2="57.2" y2="681.6"/>
					<line class="st2" x1="438.5" y1="948.6" x2="57.2" y2="693.1"/>
					<line class="st2" x1="438.5" y1="960" x2="57.2" y2="704.6"/>
					<line class="st2" x1="438.5" y1="971.5" x2="57.2" y2="716.1"/>
					<line class="st2" x1="438.5" y1="983" x2="57.2" y2="727.6"/>
					<line class="st2" x1="438.5" y1="994.5" x2="57.2" y2="739"/>
					<line class="st2" x1="438.5" y1="1006" x2="57.2" y2="750.5"/>
					<line class="st2" x1="438.5" y1="1017.4" x2="57.2" y2="762"/>
					<line class="st2" x1="438.5" y1="1028.9" x2="57.2" y2="773.5"/>
					<line class="st2" x1="438.5" y1="1040.4" x2="57.2" y2="785"/>
					<line class="st2" x1="438.5" y1="1051.9" x2="57.2" y2="796.4"/>
					<line class="st2" x1="438.5" y1="1063.4" x2="57.2" y2="807.9"/>
					<line class="st2" x1="438.5" y1="1074.9" x2="57.2" y2="819.4"/>
					<rect x="184.5" y="-8" class="st6" width="194.1" height="831.3"/>
				</g>
			</g>
			<g>
				<defs>
					<rect id="SVGID_00000039097267070980805760000017512514634751705240_" x="328.7" y="16" width="80.1" height="774.8"/>
				</defs>
				<clipPath id="SVGID_00000086673446839200067900000001702330046564870575_">
					<use xlink:href="#SVGID_00000039097267070980805760000017512514634751705240_"  style="overflow:visible;"/>
				</clipPath>
				<g style="clip-path:url(#SVGID_00000086673446839200067900000001702330046564870575_);">
					<line class="st2" x1="194" y1="89.7" x2="575.2" y2="-165.7"/>
					<line class="st2" x1="194" y1="97.9" x2="575.2" y2="-157.6"/>
					<line class="st2" x1="194" y1="106.1" x2="575.2" y2="-149.4"/>
					<line class="st2" x1="194" y1="114.2" x2="575.2" y2="-141.2"/>
					<line class="st2" x1="194" y1="122.4" x2="575.2" y2="-133.1"/>
					<line class="st2" x1="194" y1="130.5" x2="575.2" y2="-124.9"/>
					<line class="st2" x1="194" y1="138.7" x2="575.2" y2="-116.8"/>
					<line class="st2" x1="194" y1="146.9" x2="575.2" y2="-108.6"/>
					<line class="st2" x1="194" y1="155" x2="575.2" y2="-100.4"/>
					<line class="st2" x1="194" y1="163.2" x2="575.2" y2="-92.3"/>
					<line class="st2" x1="194" y1="171.3" x2="575.2" y2="-84.1"/>
					<line class="st2" x1="194" y1="179.5" x2="575.2" y2="-75.9"/>
					<line class="st2" x1="194" y1="187.7" x2="575.2" y2="-67.8"/>
					<line class="st2" x1="194" y1="195.8" x2="575.2" y2="-59.6"/>
					<line class="st2" x1="194" y1="204" x2="575.2" y2="-51.5"/>
					<line class="st2" x1="194" y1="212.1" x2="575.2" y2="-43.3"/>
					<line class="st2" x1="194" y1="220.3" x2="575.2" y2="-35.1"/>
					<line class="st2" x1="194" y1="228.5" x2="575.2" y2="-27"/>
					<line class="st2" x1="194" y1="236.6" x2="575.2" y2="-18.8"/>
					<line class="st2" x1="194" y1="244.8" x2="575.2" y2="-10.7"/>
					<line class="st2" x1="194" y1="252.9" x2="575.2" y2="-2.5"/>
					<line class="st2" x1="194" y1="261.1" x2="575.2" y2="5.7"/>
					<line class="st2" x1="194" y1="269.3" x2="575.2" y2="13.8"/>
					<line class="st2" x1="194" y1="277.4" x2="575.2" y2="22"/>
					<line class="st2" x1="194" y1="285.6" x2="575.2" y2="30.1"/>
					<line class="st2" x1="194" y1="293.8" x2="575.2" y2="38.3"/>
					<line class="st2" x1="194" y1="301.9" x2="575.2" y2="46.5"/>
					<line class="st2" x1="194" y1="310.1" x2="575.2" y2="54.6"/>
					<line class="st2" x1="194" y1="318.2" x2="575.2" y2="62.8"/>
					<line class="st2" x1="194" y1="326.4" x2="575.2" y2="71"/>
					<line class="st2" x1="194" y1="334.6" x2="575.2" y2="79.1"/>
					<line class="st2" x1="194" y1="342.7" x2="575.2" y2="87.3"/>
					<line class="st2" x1="194" y1="350.9" x2="575.2" y2="95.4"/>
					<line class="st2" x1="194" y1="359" x2="575.2" y2="103.6"/>
					<line class="st2" x1="194" y1="367.2" x2="575.2" y2="111.8"/>
					<line class="st2" x1="194" y1="375.4" x2="575.2" y2="119.9"/>
					<line class="st2" x1="194" y1="383.5" x2="575.2" y2="128.1"/>
					<line class="st2" x1="194" y1="391.7" x2="575.2" y2="136.2"/>
					<line class="st2" x1="194" y1="399.8" x2="575.2" y2="144.4"/>
					<line class="st2" x1="194" y1="408" x2="575.2" y2="152.6"/>
					<line class="st2" x1="194" y1="416.2" x2="575.2" y2="160.7"/>
					<line class="st2" x1="194" y1="424.3" x2="575.2" y2="168.9"/>
					<line class="st2" x1="194" y1="432.5" x2="575.2" y2="177"/>
					<line class="st2" x1="194" y1="440.6" x2="575.2" y2="185.2"/>
					<line class="st2" x1="194" y1="448.8" x2="575.2" y2="193.4"/>
					<line class="st2" x1="194" y1="457" x2="575.2" y2="201.5"/>
					<line class="st2" x1="194" y1="465.1" x2="575.2" y2="209.7"/>
					<line class="st2" x1="194" y1="473.3" x2="575.2" y2="217.8"/>
					<line class="st2" x1="194" y1="481.5" x2="575.2" y2="226"/>
					<line class="st2" x1="194" y1="489.6" x2="575.2" y2="234.2"/>
					<line class="st2" x1="194" y1="497.8" x2="575.2" y2="242.3"/>
					<line class="st2" x1="194" y1="505.9" x2="575.2" y2="250.5"/>
					<line class="st2" x1="194" y1="514.1" x2="575.2" y2="258.7"/>
					<line class="st2" x1="194" y1="522.3" x2="575.2" y2="266.8"/>
					<line class="st2" x1="194" y1="530.4" x2="575.2" y2="275"/>
					<line class="st2" x1="194" y1="538.6" x2="575.2" y2="283.1"/>
					<line class="st2" x1="194" y1="546.7" x2="575.2" y2="291.3"/>
					<line class="st2" x1="194" y1="554.9" x2="575.2" y2="299.5"/>
					<line class="st2" x1="194" y1="563.1" x2="575.2" y2="307.6"/>
					<line class="st2" x1="194" y1="571.2" x2="575.2" y2="315.8"/>
					<line class="st2" x1="194" y1="579.4" x2="575.2" y2="323.9"/>
					<line class="st2" x1="194" y1="587.5" x2="575.2" y2="332.1"/>
					<line class="st2" x1="194" y1="595.7" x2="575.2" y2="340.3"/>
					<line class="st2" x1="194" y1="603.9" x2="575.2" y2="348.4"/>
					<line class="st2" x1="194" y1="612" x2="575.2" y2="356.6"/>
					<line class="st2" x1="194" y1="620.2" x2="575.2" y2="364.7"/>
					<line class="st2" x1="194" y1="628.3" x2="575.2" y2="372.9"/>
					<line class="st2" x1="194" y1="636.5" x2="575.2" y2="381.1"/>
					<line class="st2" x1="194" y1="644.7" x2="575.2" y2="389.2"/>
					<line class="st2" x1="194" y1="652.8" x2="575.2" y2="397.4"/>
					<line class="st2" x1="194" y1="661" x2="575.2" y2="405.5"/>
					<line class="st2" x1="194" y1="669.2" x2="575.2" y2="413.7"/>
					<line class="st2" x1="194" y1="677.3" x2="575.2" y2="421.9"/>
					<line class="st2" x1="194" y1="685.5" x2="575.2" y2="430"/>
					<line class="st2" x1="194" y1="693.6" x2="575.2" y2="438.2"/>
					<line class="st2" x1="194" y1="701.8" x2="575.2" y2="446.4"/>
					<line class="st2" x1="194" y1="710" x2="575.2" y2="454.5"/>
					<line class="st2" x1="194" y1="718.1" x2="575.2" y2="462.7"/>
					<line class="st2" x1="194" y1="726.3" x2="575.2" y2="470.8"/>
					<line class="st2" x1="194" y1="734.4" x2="575.2" y2="479"/>
					<line class="st2" x1="194" y1="742.6" x2="575.2" y2="487.2"/>
					<line class="st2" x1="194" y1="750.8" x2="575.2" y2="495.3"/>
					<line class="st2" x1="194" y1="758.9" x2="575.2" y2="503.5"/>
					<line class="st2" x1="194" y1="767.1" x2="575.2" y2="511.6"/>
					<line class="st2" x1="194" y1="775.2" x2="575.2" y2="519.8"/>
					<line class="st2" x1="194" y1="783.4" x2="575.2" y2="528"/>
					<line class="st2" x1="194" y1="791.6" x2="575.2" y2="536.1"/>
					<line class="st2" x1="194" y1="799.7" x2="575.2" y2="544.3"/>
					<line class="st2" x1="194" y1="807.9" x2="575.2" y2="552.4"/>
					<line class="st2" x1="194" y1="816" x2="575.2" y2="560.6"/>
					<line class="st2" x1="194" y1="824.2" x2="575.2" y2="568.8"/>
					<line class="st2" x1="194" y1="832.4" x2="575.2" y2="576.9"/>
					<line class="st2" x1="194" y1="840.5" x2="575.2" y2="585.1"/>
					<line class="st2" x1="194" y1="848.7" x2="575.2" y2="593.2"/>
					<line class="st2" x1="194" y1="856.9" x2="575.2" y2="601.4"/>
					<line class="st2" x1="194" y1="865" x2="575.2" y2="609.6"/>
					<line class="st2" x1="194" y1="873.2" x2="575.2" y2="617.7"/>
					<line class="st2" x1="194" y1="881.3" x2="575.2" y2="625.9"/>
					<line class="st2" x1="194" y1="889.5" x2="575.2" y2="634.1"/>
					<line class="st2" x1="194" y1="897.7" x2="575.2" y2="642.2"/>
					<line class="st2" x1="194" y1="905.8" x2="575.2" y2="650.4"/>
					<line class="st2" x1="194" y1="914" x2="575.2" y2="658.5"/>
					<line class="st2" x1="194" y1="922.1" x2="575.2" y2="666.7"/>
					<line class="st2" x1="194" y1="930.3" x2="575.2" y2="674.9"/>
					<line class="st2" x1="194" y1="938.5" x2="575.2" y2="683"/>
					<line class="st2" x1="194" y1="946.6" x2="575.2" y2="691.2"/>
					<line class="st2" x1="194" y1="954.8" x2="575.2" y2="699.3"/>
					<line class="st2" x1="194" y1="962.9" x2="575.2" y2="707.5"/>
					<line class="st2" x1="194" y1="971.1" x2="575.2" y2="715.7"/>
					<line class="st2" x1="194" y1="979.3" x2="575.2" y2="723.8"/>
					<line class="st2" x1="194" y1="987.4" x2="575.2" y2="732"/>
					<line class="st2" x1="194" y1="995.6" x2="575.2" y2="740.1"/>
					<line class="st2" x1="194" y1="1003.8" x2="575.2" y2="748.3"/>
					<line class="st2" x1="194" y1="1011.9" x2="575.2" y2="756.5"/>
					<line class="st2" x1="194" y1="1020.1" x2="575.2" y2="764.6"/>
					<line class="st2" x1="194" y1="1028.2" x2="575.2" y2="772.8"/>
					<line class="st2" x1="194" y1="1036.4" x2="575.2" y2="780.9"/>
					<line class="st2" x1="194" y1="1044.6" x2="575.2" y2="789.1"/>
					<line class="st2" x1="194" y1="1052.7" x2="575.2" y2="797.3"/>
					<line class="st2" x1="194" y1="1060.9" x2="575.2" y2="805.4"/>
					<line class="st2" x1="194" y1="1069" x2="575.2" y2="813.6"/>
					<line class="st2" x1="194" y1="1077.2" x2="575.2" y2="821.8"/>
					<rect x="272.9" y="-8" class="st8" width="194.1" height="831.3"/>
				</g>
			</g>
			<line class="st1" x1="231.2" y1="796.8" x2="231.2" y2="934.5"/>
			<line class="st1" x1="119.5" y1="796.8" x2="119.5" y2="1007.2"/>
			<line class="st1" x1="152.2" y1="790.9" x2="33.5" y2="790.9"/>
			<line class="st1" x1="658.8" y1="271.7" x2="33.5" y2="271.7"/>
			<line class="st1" x1="658.8" y1="281.5" x2="559.5" y2="281.5"/>
			<line class="st1" x1="152.2" y1="16.5" x2="33.5" y2="16.5"/>
			<line class="st1" x1="418.8" y1="287.5" x2="418.8" y2="5"/>
			<line class="st1" x1="329.2" y1="796.8" x2="329.2" y2="934.5"/>
			<line class="st1" x1="408.5" y1="796.8" x2="408.5" y2="1007.2"/>
			<g>
				<defs>
					<polygon id="SVGID_00000183940917195922656340000002795889179021546404_" points="402.6,469.7 402.6,215.7 290.3,215.7 
						290.3,289.7 144,289.7 144,790.4 361.4,790.4 361.4,469.7 					"/>
				</defs>
				<clipPath id="SVGID_00000052094526900201803120000010712584666381802643_">
					<use xlink:href="#SVGID_00000183940917195922656340000002795889179021546404_"  style="overflow:visible;"/>
				</clipPath>
				<g style="clip-path:url(#SVGID_00000052094526900201803120000010712584666381802643_);">
					<line class="st10" x1="102.3" y1="-0.5" x2="483.6" y2="-255.9"/>
					<line class="st10" x1="102.3" y1="7.7" x2="483.6" y2="-247.8"/>
					<line class="st10" x1="102.3" y1="15.8" x2="483.6" y2="-239.6"/>
					<line class="st10" x1="102.3" y1="24" x2="483.6" y2="-231.4"/>
					<line class="st10" x1="102.3" y1="32.2" x2="483.6" y2="-223.3"/>
					<line class="st10" x1="102.3" y1="40.3" x2="483.6" y2="-215.1"/>
					<line class="st10" x1="102.3" y1="48.5" x2="483.6" y2="-207"/>
					<line class="st10" x1="102.3" y1="56.6" x2="483.6" y2="-198.8"/>
					<line class="st10" x1="102.3" y1="64.8" x2="483.6" y2="-190.6"/>
					<line class="st10" x1="102.3" y1="73" x2="483.6" y2="-182.5"/>
					<line class="st10" x1="102.3" y1="81.1" x2="483.6" y2="-174.3"/>
					<line class="st10" x1="102.3" y1="89.3" x2="483.6" y2="-166.2"/>
					<line class="st10" x1="102.3" y1="97.4" x2="483.6" y2="-158"/>
					<line class="st10" x1="102.3" y1="105.6" x2="483.6" y2="-149.8"/>
					<line class="st10" x1="102.3" y1="113.8" x2="483.6" y2="-141.7"/>
					<line class="st10" x1="102.3" y1="121.9" x2="483.6" y2="-133.5"/>
					<line class="st10" x1="102.3" y1="130.1" x2="483.6" y2="-125.4"/>
					<line class="st10" x1="102.3" y1="138.3" x2="483.6" y2="-117.2"/>
					<line class="st10" x1="102.3" y1="146.4" x2="483.6" y2="-109"/>
					<line class="st10" x1="102.3" y1="154.6" x2="483.6" y2="-100.9"/>
					<line class="st10" x1="102.3" y1="162.7" x2="483.6" y2="-92.7"/>
					<line class="st10" x1="102.3" y1="170.9" x2="483.6" y2="-84.6"/>
					<line class="st10" x1="102.3" y1="179.1" x2="483.6" y2="-76.4"/>
					<line class="st10" x1="102.3" y1="187.2" x2="483.6" y2="-68.2"/>
					<line class="st10" x1="102.3" y1="195.4" x2="483.6" y2="-60.1"/>
					<line class="st10" x1="102.3" y1="203.5" x2="483.6" y2="-51.9"/>
					<line class="st10" x1="102.3" y1="211.7" x2="483.6" y2="-43.7"/>
					<line class="st10" x1="102.3" y1="219.9" x2="483.6" y2="-35.6"/>
					<line class="st10" x1="102.3" y1="228" x2="483.6" y2="-27.4"/>
					<line class="st10" x1="102.3" y1="236.2" x2="483.6" y2="-19.3"/>
					<line class="st10" x1="102.3" y1="244.3" x2="483.6" y2="-11.1"/>
					<line class="st10" x1="102.3" y1="252.5" x2="483.6" y2="-2.9"/>
					<line class="st10" x1="102.3" y1="260.7" x2="483.6" y2="5.2"/>
					<line class="st10" x1="102.3" y1="268.8" x2="483.6" y2="13.4"/>
					<line class="st10" x1="102.3" y1="277" x2="483.6" y2="21.5"/>
					<line class="st10" x1="102.3" y1="285.1" x2="483.6" y2="29.7"/>
					<line class="st10" x1="102.3" y1="293.3" x2="483.6" y2="37.9"/>
					<line class="st10" x1="102.3" y1="301.5" x2="483.6" y2="46"/>
					<line class="st10" x1="102.3" y1="309.6" x2="483.6" y2="54.2"/>
					<line class="st10" x1="102.3" y1="317.8" x2="483.6" y2="62.3"/>
					<line class="st10" x1="102.3" y1="326" x2="483.6" y2="70.5"/>
					<line class="st10" x1="102.3" y1="334.1" x2="483.6" y2="78.7"/>
					<line class="st10" x1="102.3" y1="342.3" x2="483.6" y2="86.8"/>
					<line class="st10" x1="102.3" y1="350.4" x2="483.6" y2="95"/>
					<line class="st10" x1="102.3" y1="358.6" x2="483.6" y2="103.1"/>
					<line class="st10" x1="102.3" y1="366.8" x2="483.6" y2="111.3"/>
					<line class="st10" x1="102.3" y1="374.9" x2="483.6" y2="119.5"/>
					<line class="st10" x1="102.3" y1="383.1" x2="483.6" y2="127.6"/>
					<line class="st10" x1="102.3" y1="391.2" x2="483.6" y2="135.8"/>
					<line class="st10" x1="102.3" y1="399.4" x2="483.6" y2="144"/>
					<line class="st10" x1="102.3" y1="407.6" x2="483.6" y2="152.1"/>
					<line class="st10" x1="102.3" y1="415.7" x2="483.6" y2="160.3"/>
					<line class="st10" x1="102.3" y1="423.9" x2="483.6" y2="168.4"/>
					<line class="st10" x1="102.3" y1="432" x2="483.6" y2="176.6"/>
					<line class="st10" x1="102.3" y1="440.2" x2="483.6" y2="184.8"/>
					<line class="st10" x1="102.3" y1="448.4" x2="483.6" y2="192.9"/>
					<line class="st10" x1="102.3" y1="456.5" x2="483.6" y2="201.1"/>
					<line class="st10" x1="102.3" y1="464.7" x2="483.6" y2="209.2"/>
					<line class="st10" x1="102.3" y1="472.8" x2="483.6" y2="217.4"/>
					<line class="st10" x1="102.3" y1="481" x2="483.6" y2="225.6"/>
					<line class="st10" x1="102.3" y1="489.2" x2="483.6" y2="233.7"/>
					<line class="st10" x1="102.3" y1="497.3" x2="483.6" y2="241.9"/>
					<line class="st10" x1="102.3" y1="505.5" x2="483.6" y2="250"/>
					<line class="st10" x1="102.3" y1="513.7" x2="483.6" y2="258.2"/>
					<line class="st10" x1="102.3" y1="521.8" x2="483.6" y2="266.4"/>
					<line class="st10" x1="102.3" y1="530" x2="483.6" y2="274.5"/>
					<line class="st10" x1="102.3" y1="538.1" x2="483.6" y2="282.7"/>
					<line class="st10" x1="102.3" y1="546.3" x2="483.6" y2="290.8"/>
					<line class="st10" x1="102.3" y1="554.5" x2="483.6" y2="299"/>
					<line class="st10" x1="102.3" y1="562.6" x2="483.6" y2="307.2"/>
					<line class="st10" x1="102.3" y1="570.8" x2="483.6" y2="315.3"/>
					<line class="st10" x1="102.3" y1="578.9" x2="483.6" y2="323.5"/>
					<line class="st10" x1="102.3" y1="587.1" x2="483.6" y2="331.7"/>
					<line class="st10" x1="102.3" y1="595.3" x2="483.6" y2="339.8"/>
					<line class="st10" x1="102.3" y1="603.4" x2="483.6" y2="348"/>
					<line class="st10" x1="102.3" y1="611.6" x2="483.6" y2="356.1"/>
					<line class="st10" x1="102.3" y1="619.7" x2="483.6" y2="364.3"/>
					<line class="st10" x1="102.3" y1="627.9" x2="483.6" y2="372.5"/>
					<line class="st10" x1="102.3" y1="636.1" x2="483.6" y2="380.6"/>
					<line class="st10" x1="102.3" y1="644.2" x2="483.6" y2="388.8"/>
					<line class="st10" x1="102.3" y1="652.4" x2="483.6" y2="396.9"/>
					<line class="st10" x1="102.3" y1="660.5" x2="483.6" y2="405.1"/>
					<line class="st10" x1="102.3" y1="668.7" x2="483.6" y2="413.3"/>
					<line class="st10" x1="102.3" y1="676.9" x2="483.6" y2="421.4"/>
					<line class="st10" x1="102.3" y1="685" x2="483.6" y2="429.6"/>
					<line class="st10" x1="102.3" y1="693.2" x2="483.6" y2="437.7"/>
					<line class="st10" x1="102.3" y1="701.4" x2="483.6" y2="445.9"/>
					<line class="st10" x1="102.3" y1="709.5" x2="483.6" y2="454.1"/>
					<line class="st10" x1="102.3" y1="717.7" x2="483.6" y2="462.2"/>
					<line class="st10" x1="102.3" y1="725.8" x2="483.6" y2="470.4"/>
					<line class="st10" x1="102.3" y1="734" x2="483.6" y2="478.6"/>
					<line class="st10" x1="102.3" y1="742.2" x2="483.6" y2="486.7"/>
					<line class="st10" x1="102.3" y1="750.3" x2="483.6" y2="494.9"/>
					<line class="st10" x1="102.3" y1="758.5" x2="483.6" y2="503"/>
					<line class="st10" x1="102.3" y1="766.6" x2="483.6" y2="511.2"/>
					<line class="st10" x1="102.3" y1="774.8" x2="483.6" y2="519.4"/>
					<line class="st10" x1="102.3" y1="783" x2="483.6" y2="527.5"/>
					<line class="st10" x1="102.3" y1="791.1" x2="483.6" y2="535.7"/>
					<line class="st10" x1="102.3" y1="799.3" x2="483.6" y2="543.8"/>
					<line class="st10" x1="102.3" y1="807.4" x2="483.6" y2="552"/>
					<line class="st10" x1="102.3" y1="815.6" x2="483.6" y2="560.2"/>
					<line class="st10" x1="102.3" y1="823.8" x2="483.6" y2="568.3"/>
					<line class="st10" x1="102.3" y1="831.9" x2="483.6" y2="576.5"/>
					<line class="st10" x1="102.3" y1="840.1" x2="483.6" y2="584.6"/>
					<line class="st10" x1="102.3" y1="848.2" x2="483.6" y2="592.8"/>
					<line class="st10" x1="102.3" y1="856.4" x2="483.6" y2="601"/>
					<line class="st10" x1="102.3" y1="864.6" x2="483.6" y2="609.1"/>
					<line class="st10" x1="102.3" y1="872.7" x2="483.6" y2="617.3"/>
					<line class="st10" x1="102.3" y1="880.9" x2="483.6" y2="625.4"/>
					<line class="st10" x1="102.3" y1="889.1" x2="483.6" y2="633.6"/>
					<line class="st10" x1="102.3" y1="897.2" x2="483.6" y2="641.8"/>
					<line class="st10" x1="102.3" y1="905.4" x2="483.6" y2="649.9"/>
					<line class="st10" x1="102.3" y1="913.5" x2="483.6" y2="658.1"/>
					<line class="st10" x1="102.3" y1="921.7" x2="483.6" y2="666.3"/>
					<line class="st10" x1="102.3" y1="929.9" x2="483.6" y2="674.4"/>
					<line class="st10" x1="102.3" y1="938" x2="483.6" y2="682.6"/>
					<line class="st10" x1="102.3" y1="946.2" x2="483.6" y2="690.7"/>
					<line class="st10" x1="102.3" y1="954.3" x2="483.6" y2="698.9"/>
					<line class="st10" x1="102.3" y1="962.5" x2="483.6" y2="707.1"/>
					<line class="st10" x1="102.3" y1="970.7" x2="483.6" y2="715.2"/>
					<line class="st10" x1="102.3" y1="978.8" x2="483.6" y2="723.4"/>
					<line class="st10" x1="102.3" y1="987" x2="483.6" y2="731.5"/>
				</g>
			</g>
			<polygon class="st10" points="402.6,469.7 402.6,215.7 290.3,215.7 290.3,289.7 144,289.7 144,790.4 361.4,790.4 361.4,469.7 			
				"/>
			<line class="st11" x1="44.9" y1="163.2" x2="44.9" y2="266.9"/>
			<polygon class="st12" points="43.3,263.9 43.8,263.8 44.9,266.9 46,263.8 46.5,263.9 44.9,268.3 			"/>
			<line class="st11" x1="44.9" y1="20" x2="44.9" y2="129.9"/>
			<polygon class="st12" points="43.3,23 43.8,23.2 44.9,20.1 46,23.2 46.5,23 44.9,18.6 			"/>
			<line class="st11" x1="44.9" y1="553.1" x2="44.9" y2="787.1"/>
			<polygon class="st12" points="43.3,784.2 43.8,784 44.9,787.1 46,784 46.5,784.2 44.9,788.6 			"/>
			<line class="st11" x1="44.9" y1="276.1" x2="44.9" y2="489.8"/>
			<polygon class="st12" points="43.3,279.1 43.8,279.3 44.9,276.2 46,279.3 46.5,279.1 44.9,274.7 			"/>
			<line class="st11" x1="123.2" y1="995.5" x2="407" y2="995.5"/>
			<polygon class="st12" points="126.1,997.1 126.3,996.6 123.2,995.5 126.3,994.4 126.1,993.9 121.7,995.5 			"/>
			<polygon class="st12" points="404.1,997.1 403.9,996.6 407,995.5 403.9,994.4 404.1,993.9 408.5,995.5 			"/>
			<path class="st12" d="M19.8,136.8v13h3.7v1.9h-3.7v4.7h-2.1v-4.7H7.8v-1.8l9.4-13L19.8,136.8z M17.7,142.9c0-1.1,0-3,0.1-4.1
				h-0.1c-0.5,1.1-1.1,2.1-1.8,3.1l-5.7,8h7.4V142.9z"/>
			<path class="st12" d="M41.5,146.7c0,6.2-2.8,10.1-7.2,10.1s-7.2-3.9-7.2-10.1s2.8-10.1,7.2-10.1S41.5,140.5,41.5,146.7z
				 M29.5,146.7c0,5,1.9,8.2,4.9,8.2c3,0,4.8-3.1,4.8-8.2s-1.8-8.2-4.9-8.2S29.4,141.6,29.5,146.7L29.5,146.7z"/>
			<path class="st12" d="M59.7,146.7c0,6.2-2.8,10.1-7.2,10.1s-7.2-3.9-7.2-10.1s2.8-10.1,7.2-10.1S59.7,140.5,59.7,146.7z
				 M47.7,146.7c0,5,1.8,8.2,4.9,8.2s4.8-3.1,4.8-8.2s-1.8-8.2-4.9-8.2S47.6,141.6,47.7,146.7L47.7,146.7z"/>
			<path class="st12" d="M77.9,146.7c0,6.2-2.8,10.1-7.2,10.1c-4.4,0-7.2-3.9-7.2-10.1s2.8-10.1,7.2-10.1S77.9,140.5,77.9,146.7z
				 M65.9,146.7c0,5,1.8,8.2,4.9,8.2c3,0,4.8-3.1,4.8-8.2s-1.8-8.2-4.9-8.2C67.7,138.5,65.9,141.6,65.9,146.7L65.9,146.7z"/>
			<path class="st12" d="M242,1024.3h-1.9v-5h-7.9v-1.3l7.7-11.7h2.1v11.4h2.4v1.5H242L242,1024.3z M234.3,1017.8h5.8v-6.3
				c0-1,0.1-1.9,0.1-2.9h-0.1c-0.6,1.1-1,1.9-1.4,2.7L234.3,1017.8z"/>
			<path class="st12" d="M256.1,1006.4v1.7h-6.4l-0.8,5.1c0.5-0.1,0.9-0.1,1.4-0.1c3.2,0,6,1.9,6,5.5c0.1,3.3-2.6,6-5.9,6.1
				c-0.1,0-0.2,0-0.3,0c-1.4,0-2.9-0.3-4.1-1l0.6-1.6c1.1,0.7,2.3,1,3.6,1c2.3,0.1,4.1-1.7,4.2-4c0-0.1,0-0.2,0-0.3
				c0-2.5-1.6-4.2-4.9-4.2c-0.8,0-1.5,0-2.3,0.2l1.1-8.4L256.1,1006.4z"/>
			<path class="st12" d="M259.2,1015.4c0-6.3,2.4-9.3,5.8-9.3s5.5,3.2,5.5,9.1c0,6.2-2.2,9.5-5.8,9.5
				C261.5,1024.6,259.2,1021.4,259.2,1015.4z M268.5,1015.3c0-4.5-1.1-7.6-3.6-7.6c-2.1,0-3.6,2.8-3.6,7.6c0,4.7,1.3,7.7,3.6,7.7
				C267.5,1023,268.5,1019.5,268.5,1015.3L268.5,1015.3z"/>
			<path class="st12" d="M272.4,1015.4c0-6.3,2.5-9.3,5.8-9.3s5.5,3.2,5.5,9.1c0,6.2-2.2,9.5-5.8,9.5
				C274.7,1024.6,272.4,1021.4,272.4,1015.4z M281.7,1015.3c0-4.5-1.1-7.6-3.6-7.6c-2.1,0-3.6,2.8-3.6,7.6c0,4.7,1.3,7.7,3.6,7.7
				C280.7,1023,281.7,1019.5,281.7,1015.3L281.7,1015.3z"/>
			<path class="st12" d="M467.4,984.9l7.3,7.3l7.3-7.3l0.6,0.6l-7.3,7.3l7.3,7.3l-0.6,0.6l-7.3-7.3l-7.3,7.3l-0.6-0.6l7.3-7.3
				l-7.3-7.3L467.4,984.9z M468.4,994.5c-0.9,0-1.6-0.7-1.6-1.7c0-0.9,0.7-1.6,1.6-1.6c0.9,0,1.6,0.7,1.6,1.6
				C470,993.8,469.3,994.5,468.4,994.5L468.4,994.5z M473,986.6c0-0.9,0.7-1.6,1.7-1.6s1.6,0.7,1.6,1.7c0,0.9-0.7,1.6-1.6,1.6
				C473.7,988.2,473,987.5,473,986.6L473,986.6z M476.3,999.1c0,0.9-0.7,1.6-1.7,1.6s-1.6-0.7-1.6-1.7c0-0.9,0.7-1.6,1.6-1.6
				C475.5,997.5,476.3,998.2,476.3,999.1L476.3,999.1z M480.9,991.2c0.9,0,1.6,0.7,1.6,1.7c0,0.9-0.7,1.6-1.6,1.6
				c-0.9,0-1.6-0.7-1.6-1.6C479.3,991.9,480,991.2,480.9,991.2L480.9,991.2z"/>
			<path class="st12" d="M506.6,997.6v1.4h-9.3v4.1h-1.5V999h-9.1v-1.4h9.1v-2.1h-7v-8.9h2.1c-0.6-1.1-1.3-2.2-2.1-3.2l1.2-0.6
				c0.9,0.9,1.6,2,2.3,3.1c-0.5,0.3-0.8,0.5-1.1,0.6h5c-0.4-1.2-1-2.4-1.7-3.5l1.3-0.5c0.8,1.1,1.4,2.2,1.8,3.5l-1.3,0.5h4.1
				c0.9-1.2,1.8-2.6,2.5-3.9l1.8,0.7c-0.1,0.1-0.3,0.2-0.5,0.2c-0.6,1-1.3,2-2.1,3h2.5v8.9h-7.3v2.1L506.6,997.6z M490.3,987.9v2.5
				h5.5v-2.5L490.3,987.9z M490.3,994.2h5.5v-2.6h-5.5V994.2z M503.1,990.4v-2.5h-5.8v2.5H503.1z M503.1,994.2v-2.6h-5.8v2.6H503.1z
				"/>
			<path class="st12" d="M511.4,990.4c-0.8,1.3-1.7,2.5-2.7,3.7c-0.2-0.5-0.5-0.9-0.8-1.4c2.5-2.9,4.3-6.3,5.5-9.9l1.8,0.6
				c-0.1,0.2-0.3,0.2-0.5,0.2c-0.6,1.6-1.2,3.1-2,4.6l0.6,0.2c0,0.1-0.1,0.2-0.4,0.3v14.6h-1.4L511.4,990.4z M514.2,1000.6h14.8v1.4
				h-14.8V1000.6z M514.7,987.1h5.9v-4.4l1.9,0.1c0,0.2-0.1,0.3-0.4,0.3v4h6.2v1.4h-13.6V987.1z M517.8,990c0.9,3,1.5,6,1.9,9.1
				l-1.5,0.3c-0.3-3.1-0.9-6.1-1.7-9.1L517.8,990z M527,990.4c0,0.2-0.2,0.3-0.5,0.3c-0.6,3-1.5,6-2.5,8.9c0,0-1.3-0.4-1.3-0.4
				c1-3,1.8-6.1,2.3-9.2L527,990.4z"/>
			<path class="st12" d="M536.6,987.5c0,0.8-0.7,1.5-1.5,1.5c-0.8,0-1.5-0.7-1.5-1.5s0.7-1.5,1.5-1.5c0,0,0,0,0,0
				C535.9,986,536.6,986.7,536.6,987.5C536.6,987.5,536.6,987.5,536.6,987.5z M536.6,998.2c0,0.8-0.6,1.5-1.5,1.5
				c-0.8,0-1.5-0.6-1.5-1.5c0-0.8,0.6-1.5,1.5-1.5c0,0,0,0,0,0C535.9,996.7,536.6,997.4,536.6,998.2L536.6,998.2z"/>
			<path class="st12" d="M558.8,1001.2H557v-6.9c0-2.3-0.8-3.8-2.6-3.8c-1.7,0.1-2.9,1.6-2.8,3.2v7.5h-1.8v-7.4
				c0-1.9-0.8-3.4-2.5-3.4c-1.7,0.2-3,1.7-2.9,3.4v7.3h-1.8v-8.9c0-1.2,0-2.1-0.1-3.1h1.6l0.1,1.9h0.1c0.7-1.4,2.1-2.2,3.7-2.2
				c1.5,0,2.8,1,3.3,2.4l0,0c0.7-1.5,2.2-2.4,3.8-2.4c1.5,0,3.8,1,3.8,5.1L558.8,1001.2z"/>
			<path class="st12" d="M578.6,1001.2h-1.8v-6.9c0-2.3-0.8-3.8-2.6-3.8c-1.7,0.1-2.9,1.6-2.8,3.2v7.5h-1.8v-7.4
				c0-1.9-0.8-3.4-2.5-3.4c-1.8,0.1-3.1,1.6-3,3.4v7.3h-1.8v-8.9c0-1.2,0-2.1-0.1-3.1h1.7l0.1,1.9h0.1c0.7-1.4,2.1-2.2,3.7-2.2
				c1.5,0,2.8,1,3.3,2.4l0,0c0.7-1.5,2.2-2.4,3.8-2.4c1.5,0,3.8,1,3.8,5.1L578.6,1001.2z"/>
			<line class="st11" x1="331.9" y1="922.1" x2="407" y2="922.1"/>
			<polygon class="st12" points="334.8,923.7 335,923.3 331.9,922.1 335,921 334.8,920.5 330.5,922.1 			"/>
			<polygon class="st12" points="404.1,923.7 403.9,923.3 407,922.1 403.9,921 404.1,920.5 408.5,922.1 			"/>
			<line class="st11" x1="420.2" y1="162.6" x2="469.8" y2="162.6"/>
			<polygon class="st12" points="423.2,164.2 423.4,163.8 420.3,162.6 423.4,161.5 423.2,161 418.8,162.6 			"/>
			<line class="st11" x1="389.7" y1="162.6" x2="408" y2="162.6"/>
			<polygon class="st12" points="405.1,164.2 404.9,163.8 408,162.6 404.9,161.5 405.1,161 409.4,162.6 			"/>
			<line class="st11" x1="400.4" y1="162.6" x2="429.1" y2="162.6"/>
			<line class="st11" x1="650" y1="283.4" x2="650" y2="289.5"/>
			<polygon class="st12" points="648.4,286.3 648.9,286.5 650,283.4 651.1,286.5 651.6,286.3 650,282 			"/>
			<line class="st11" x1="650" y1="252.8" x2="650" y2="271.2"/>
			<polygon class="st12" points="648.4,268.2 648.9,268 650,271.1 651.1,268 651.6,268.2 650,272.6 			"/>
			<line class="st11" x1="650" y1="263.5" x2="650" y2="302"/>
			<line class="st11" x1="233.8" y1="922.1" x2="326.2" y2="922.1"/>
			<polygon class="st12" points="236.8,923.7 236.9,923.3 233.9,922.1 236.9,921 236.8,920.5 232.4,922.1 			"/>
			<polygon class="st12" points="323.3,923.7 323.1,923.3 326.2,922.1 323.1,921 323.3,920.5 327.6,922.1 			"/>
			<line class="st11" x1="122.8" y1="922.1" x2="227.6" y2="922.1"/>
			<polygon class="st12" points="125.8,923.7 125.9,923.3 122.8,922.1 125.9,921 125.8,920.5 121.4,922.1 			"/>
			<polygon class="st12" points="224.7,923.7 224.5,923.3 227.6,922.1 224.5,921 224.7,920.5 229,922.1 			"/>
			<path class="st12" d="M342.3,945.4v-16.1l0,0l-3,1.7l-0.5-1.5l3.7-2.1h1.7v18L342.3,945.4z"/>
			<path class="st12" d="M361.1,945.4h-10.6v-1.2l1.8-1.8c4.3-4.3,6.4-6.9,6.4-9.9c0-1.9-0.8-3.7-3.4-3.7c-1.3,0.1-2.6,0.6-3.6,1.5
				l-0.7-1.4c1.3-1.1,2.9-1.8,4.7-1.8c2.6-0.2,4.9,1.9,5.1,4.5c0,0.2,0,0.4,0,0.6c0,3.4-2.4,6.3-6.1,10l-1.4,1.5l0,0h8V945.4z"/>
			<path class="st12" d="M373.6,927.4v1.7h-6.5l-0.8,5.1c0.5-0.1,0.9-0.1,1.4-0.1c3.2,0,6,1.9,6,5.5c0.1,3.3-2.6,6-5.9,6.1
				c-0.1,0-0.2,0-0.3,0c-1.4,0-2.9-0.3-4.1-1l0.6-1.6c1.1,0.7,2.3,1,3.5,1c2.3,0.1,4.1-1.7,4.2-4c0-0.1,0-0.2,0-0.3
				c0-2.5-1.6-4.2-5-4.2c-0.8,0-1.5,0-2.3,0.2l1.1-8.4L373.6,927.4z"/>
			<path class="st12" d="M376.7,936.4c0-6.3,2.4-9.3,5.8-9.3s5.5,3.2,5.5,9.1c0,6.2-2.2,9.5-5.8,9.5
				C378.9,945.6,376.7,942.4,376.7,936.4z M385.9,936.3c0-4.5-1.1-7.6-3.6-7.6c-2.1,0-3.6,2.9-3.6,7.6s1.3,7.7,3.6,7.7
				C384.9,944,385.9,940.6,385.9,936.3L385.9,936.3z"/>
			<path class="st12" d="M257.7,945.4v-16.1l0,0l-3,1.7l-0.5-1.5l3.7-2.1h1.7v18L257.7,945.4z"/>
			<path class="st12" d="M275.9,927.4v1.7h-6.5l-0.8,5.1c0.5-0.1,0.9-0.1,1.4-0.1c3.2,0,6,1.9,6,5.5c0.1,3.3-2.6,6-5.9,6.1
				c-0.1,0-0.2,0-0.3,0c-1.4,0-2.9-0.3-4.1-1l0.6-1.6c1.1,0.7,2.3,1,3.5,1c2.3,0.1,4.1-1.7,4.2-4c0-0.1,0-0.2,0-0.3
				c0-2.5-1.6-4.2-4.9-4.2c-0.8,0-1.5,0-2.3,0.2l1.1-8.4L275.9,927.4z"/>
			<path class="st12" d="M278.9,936.4c0-6.3,2.5-9.3,5.8-9.3s5.5,3.2,5.5,9.1c0,6.2-2.2,9.5-5.8,9.5
				C281.2,945.6,278.9,942.4,278.9,936.4z M288.2,936.3c0-4.5-1.1-7.6-3.6-7.6c-2.1,0-3.6,2.9-3.6,7.6s1.3,7.7,3.6,7.7
				C287.2,944,288.2,940.6,288.2,936.3L288.2,936.3z"/>
			<path class="st12" d="M292.1,936.4c0-6.3,2.5-9.3,5.8-9.3s5.5,3.2,5.5,9.1c0,6.2-2.2,9.5-5.8,9.5
				C294.4,945.6,292.1,942.4,292.1,936.4z M301.4,936.3c0-4.5-1.1-7.6-3.6-7.6c-2.1,0-3.6,2.9-3.6,7.6s1.3,7.7,3.6,7.7
				C300.4,944,301.4,940.6,301.4,936.3L301.4,936.3z"/>
			<path class="st12" d="M143.7,945.4v-16.1l0,0l-3,1.7l-0.5-1.5l3.7-2.1h1.7v18L143.7,945.4z"/>
			<path class="st12" d="M161.8,927.4v1.7h-6.4l-0.8,5.1c0.5-0.1,0.9-0.1,1.4-0.1c3.2,0,6.1,1.9,6.1,5.5c0.1,3.3-2.6,6-5.9,6.1
				c-0.1,0-0.2,0-0.3,0c-1.4,0-2.9-0.3-4.1-1l0.6-1.6c1.1,0.7,2.3,1,3.6,1c2.3,0.1,4.1-1.7,4.2-4c0-0.1,0-0.2,0-0.3
				c0-2.5-1.6-4.2-4.9-4.2c-0.8,0-1.5,0-2.3,0.2l1.1-8.4L161.8,927.4z"/>
			<path class="st12" d="M164.9,936.4c0-6.3,2.4-9.3,5.8-9.3s5.5,3.2,5.5,9.1c0,6.2-2.2,9.5-5.8,9.5
				C167.1,945.6,164.9,942.4,164.9,936.4z M174.1,936.3c0-4.5-1.1-7.6-3.6-7.6c-2.1,0-3.6,2.9-3.6,7.6s1.3,7.7,3.6,7.7
				C173.1,944,174.1,940.6,174.1,936.3L174.1,936.3z"/>
			<path class="st12" d="M178.1,936.4c0-6.3,2.4-9.3,5.8-9.3s5.5,3.2,5.5,9.1c0,6.2-2.2,9.5-5.8,9.5
				C180.4,945.6,178.1,942.4,178.1,936.4z M187.4,936.3c0-4.5-1.1-7.6-3.6-7.6c-2.1,0-3.6,2.9-3.6,7.6s1.3,7.7,3.6,7.7
				C186.4,944,187.4,940.6,187.4,936.3L187.4,936.3z"/>
			<path class="st12" d="M205.1,935.7c0.1,2.8-1.3,3.9-3,3.9c-1.4-0.1-2.7-0.5-3.9-1.2c-1-0.6-2.2-1-3.4-1.2c-1,0-1.6,0.8-1.6,2.3
				h-1.4c-0.1-2.5,1.3-3.9,3.1-3.9c1.3,0.1,2.6,0.5,3.8,1.2c1.1,0.6,2.3,1,3.5,1.2c1,0,1.5-0.9,1.5-2.3H205.1z"/>
			<path class="st12" d="M25.1,496.6v1.6c-3.1,5.6-5.2,11.6-6.5,17.8h-2.3c1.4-6.1,3.4-12,6.2-17.5h-9.4v4.5h-2.1v-6.4L25.1,496.6z"
				/>
			<path class="st12" d="M43.4,496.6v1.6c-3.1,5.6-5.2,11.6-6.5,17.8h-2.3c1.3-6.1,3.4-12,6.2-17.5h-9.3v4.5h-2.1v-6.4H43.4z"/>
			<path class="st12" d="M51.6,506.2c-2.6-1-4-2.7-4-4.8c0-3,2.8-5.1,6.5-5.1s6.5,2.1,6.5,5c0,1.3-0.6,2.6-1.7,3.4
				c-0.8,0.6-1.7,1.1-2.6,1.3v0.1c3.1,1,4.9,2.8,4.9,5.2c0,3.1-2.9,5.2-7.1,5.2s-7.1-2-7.1-5.2c0-2.3,1.6-4.1,4.5-5L51.6,506.2z
				 M50.5,508.7c-0.7,0.6-1.1,1.5-1.1,2.4c0,2.2,1.8,3.5,4.7,3.5c2.8,0,4.7-1.5,4.7-3.6c0-0.9-0.5-1.8-1.2-2.4
				c-0.7-0.6-1.6-1.1-2.4-1.4c-0.3-0.1-1.1-0.3-1.2-0.3C52.7,507.2,51.5,507.8,50.5,508.7z M58.4,501.4c0-2-1.8-3.5-4.2-3.5
				s-4.2,1.5-4.2,3.5c-0.1,0.9,0.3,1.7,1,2.3c0.5,0.4,1,0.7,1.6,1c0.5,0.2,1.1,0.4,1.7,0.5C56.8,504.6,58.4,503.2,58.4,501.4z"/>
			<path class="st12" d="M79.6,506.3c0,6.2-2.8,10.1-7.2,10.1s-7.2-3.9-7.2-10.1c0-6.2,2.8-10.1,7.2-10.1S79.6,500.1,79.6,506.3z
				 M67.6,506.3c0,5,1.8,8.2,4.9,8.2c3,0,4.8-3.1,4.8-8.2s-1.8-8.2-4.9-8.2S67.6,501.3,67.6,506.3z"/>
			<path class="st12" d="M15,534.6c0.6-0.6,0.9-0.9,1.9-2.1c-1-1.4-2.2-2.8-3.4-4l1.1-1.3l0.7,0.7l0.1,0.1c1.1-1.4,2-2.8,2.8-4.3
				l1.6,0.9c-1,1.6-2.2,3.1-3.4,4.6c0.5,0.5,1,1.3,1.6,2c1.6-2,2.5-3.2,3.4-4.6l1.4,1.1c-1.8,2.4-3.7,4.7-5.8,6.8h0.2
				c0.8,0,3-0.2,4.4-0.4c-0.2-0.7-0.5-1.4-0.8-2l1.4-0.6c0.8,1.5,1.4,3.1,1.9,4.7l-1.5,0.8c-0.2-0.6-0.3-1-0.5-1.7
				c-1.4,0.2-1.4,0.2-2.6,0.4v10.7h-1.7v-10.4h-0.4c-1.4,0.1-2.3,0.2-3.7,0.3l-0.4-1.7H14h0.3L15,534.6z M13.6,543.8
				c0.7-2,1.1-4,1.2-6.1l1.6,0.2c-0.1,2.3-0.5,4.6-1.2,6.7L13.6,543.8z M22,543.4c-0.3-1.8-0.7-3.7-1.3-5.5l1.5-0.5
				c0.7,1.7,1.2,3.4,1.5,5.2L22,543.4z M35.3,527.7c0,8-0.3,14.3-0.8,16.3c-0.4,1.7-1.2,2.2-3,2.2c-0.8,0-2.2-0.1-3.3-0.2l-0.4-1.9
				c1.2,0.2,2.4,0.3,3.6,0.3c1,0,1.2-0.2,1.4-1.2c0.5-4.2,0.8-8.5,0.8-12.7v-1.2h-7c-0.5,1.5-1.3,2.9-2.2,4.2l-1.3-1.2
				c1.7-2.6,2.7-5.5,3.1-8.6L28,524c-0.2,1.2-0.5,2.4-0.8,3.6L35.3,527.7z M29.3,539.5c-1-2.1-2.1-4.2-3.5-6.1l1.4-1
				c1.4,1.9,2.7,3.9,3.7,6L29.3,539.5z"/>
			<path class="st12" d="M43.1,535c-1-0.4-1.9-0.9-2.7-1.7c-0.8-0.8-1.3-1.9-1.2-3.1c0-3,2.7-5.2,6.5-5.2s6.5,2.1,6.5,4.9
				c0,1.3-0.6,2.6-1.7,3.4c-0.8,0.6-1.7,1.1-2.7,1.3v0.1c3.2,0.9,4.9,2.8,4.9,5.2c0,3.1-2.9,5.3-7.1,5.3s-7.1-2-7.1-5.2
				C38.6,537.8,40.3,535.9,43.1,535L43.1,535z M41,540c0,2.1,1.9,3.5,4.8,3.5s4.7-1.5,4.7-3.6c0-1.1-0.6-2.1-1.5-2.6
				c-0.7-0.5-1.4-0.9-2.2-1.2c-0.3-0.1-1.1-0.3-1.1-0.3C42.6,536.5,41,538,41,540L41,540z M50,530.2c0-2-1.8-3.5-4.2-3.5
				s-4.2,1.4-4.2,3.5c0,0.9,0.4,1.8,1.1,2.4c0.6,0.5,1.2,0.8,1.9,1.1c0.4,0.2,0.8,0.3,1.2,0.4C48.4,533.4,50,532,50,530.2L50,530.2z
				"/>
			<path class="st12" d="M58.9,533.2c0.7-1.6,2.2-2.7,3.9-2.8c1.9-0.1,3.6,1.2,4,3c0.7-1.7,2.3-2.9,4.2-3c1.4,0,2.8,0.6,3.6,1.8
				c0.7,1.1,1,2.4,0.8,3.7v9h-2V536c0-2.3-1-3.7-2.7-3.7c-1.5,0-3,1.4-3.5,3.4v9.2h-2v-9.1c0-2.1-1-3.5-2.7-3.5s-2.9,1.4-3.5,3.6v9
				h-2.1v-14.2h2L58.9,533.2z"/>
			<circle class="st12" cx="407" cy="270.8" r="6.6"/>
			<path class="st12" d="M474.9,151.5c-1.5,0.6-3.1,1.1-4.6,1.4l-0.5-1.8c2-0.4,4-1.1,5.8-2.1h1.6v19.8h-2.2V151.5z"/>
			<path class="st12" d="M499.4,149.3v1.9h-9.1l-0.7,6.8h0.1c1.2-1.1,2.8-1.7,4.5-1.6c3.8,0,6.4,2.5,6.4,6.1c0,3.8-2.9,6.5-7,6.5
				c-2.4,0.1-4.8-0.7-6.6-2.3l1.3-1.5c1.5,1.2,3.4,1.9,5.3,1.9c2.5,0.1,4.6-1.9,4.6-4.4c0-0.1,0-0.2,0-0.2c0.1-2.3-1.6-4.2-3.9-4.3
				c-0.2,0-0.4,0-0.6,0c-1.7,0-3.3,0.7-4.4,2.1l-2-0.3l1.1-10.6L499.4,149.3z"/>
			<path class="st12" d="M519.1,159.1c0,6.2-2.8,10.1-7.2,10.1s-7.2-3.9-7.2-10.1s2.8-10.1,7.2-10.1
				C516.4,149,519.1,152.8,519.1,159.1z M507.1,159.1c0,5,1.8,8.2,4.9,8.2c3,0,4.8-3.1,4.8-8.2s-1.9-8.2-4.9-8.2
				C508.9,150.9,507.1,154,507.1,159.1z"/>
			<path class="st12" d="M531.9,150.3v5.6h7.1v1.6h-7.1v5.8h-1.6v-5.8h-7.1v-1.6h7.1v-5.6H531.9z M539,165.2v1.6h-15.8v-1.6H539z"/>
			<path class="st12" d="M556.1,149.3v1.9H547l-0.8,6.8h0.1c1.2-1.1,2.8-1.7,4.5-1.6c3.8,0,6.4,2.5,6.4,6.1c0,3.8-2.9,6.5-7,6.5
				c-2.4,0.1-4.8-0.7-6.7-2.3l1.3-1.5c1.5,1.2,3.4,1.9,5.3,1.9c2.5,0.1,4.6-1.9,4.6-4.3c0-0.1,0-0.2,0-0.2c0.1-2.3-1.6-4.2-3.9-4.3
				c-0.2,0-0.4,0-0.6,0c-1.7,0-3.3,0.7-4.4,2.1l-2-0.3l1.1-10.6L556.1,149.3z"/>
			<path class="st12" d="M575.8,159.1c0,6.2-2.8,10.1-7.2,10.1s-7.2-3.9-7.2-10.1s2.8-10.1,7.2-10.1S575.8,152.8,575.8,159.1z
				 M563.8,159.1c0,5,1.8,8.2,4.9,8.2s4.8-3.1,4.8-8.2s-1.8-8.2-4.9-8.2S563.7,154,563.8,159.1L563.8,159.1z"/>
			<path class="st12" d="M649.3,311.5c-0.4,2.3-2.3,4-4.7,3.9c-2.9,0-5.3-2.1-5.3-6.1c0-1.5,0.4-3,1.2-4.2l1.5,0.6
				c-0.7,1.1-1.1,2.4-1.1,3.7c-0.2,2,1.3,3.8,3.3,4c0.2,0,0.3,0,0.5,0c2.6,0,3.8-2.2,3.8-4.6v-1.2h1.5v1.2c0,1.7,1.1,4,3.3,4
				c1.5,0.1,2.8-1.1,2.9-2.6c0-0.2,0-0.3,0-0.5c0-1.2-0.5-2.3-1.2-3.3l1.5-0.6c0.9,1.3,1.3,2.7,1.3,4.3c0,3.3-2.1,4.8-4.2,4.8
				C651.6,314.7,649.9,313.4,649.3,311.5L649.3,311.5z"/>
			<path class="st12" d="M648.5,318.1c6.3,0,9.3,2.5,9.3,5.8s-3.2,5.5-9.1,5.5c-6.2,0-9.5-2.2-9.5-5.8
				C639.3,320.4,642.5,318.1,648.5,318.1z M648.6,327.4c4.5,0,7.6-1.1,7.6-3.6c0-2.1-2.8-3.6-7.6-3.6s-7.7,1.3-7.7,3.6
				C640.9,326.4,644.4,327.4,648.6,327.4L648.6,327.4z"/>
			<path class="st12" d="M648.5,331.3c6.3,0,9.3,2.5,9.3,5.8s-3.2,5.5-9.1,5.5c-6.2,0-9.5-2.2-9.5-5.8
				C639.3,333.6,642.5,331.3,648.5,331.3z M648.6,340.6c4.5,0,7.6-1.1,7.6-3.6c0-2.1-2.8-3.6-7.6-3.6s-7.7,1.3-7.7,3.6
				C640.9,339.6,644.4,340.6,648.6,340.6L648.6,340.6z"/>
			<path class="st12" d="M641.6,346.8v17.6H640v-17.6L641.6,346.8z M652.1,364.4h-1.5v-8H644v-1.5h6.7v-8h1.5v8h6.7v1.5h-6.7
				L652.1,364.4z"/>
			<path class="st12" d="M639.6,373.8h16.1v0l-1.7-3l1.5-0.5l2.1,3.7v1.7h-18L639.6,373.8z"/>
			<path class="st12" d="M648.5,381.8c6.3,0,9.3,2.5,9.3,5.8s-3.2,5.5-9.1,5.5c-6.2,0-9.5-2.2-9.5-5.8
				C639.3,384.1,642.5,381.8,648.5,381.8z M648.6,391.1c4.5,0,7.6-1.1,7.6-3.6c0-2.1-2.8-3.6-7.6-3.6s-7.7,1.3-7.7,3.6
				C640.9,390.1,644.4,391.1,648.6,391.1z"/>
			<path class="st12" d="M648.5,395c6.3,0,9.3,2.5,9.3,5.8s-3.2,5.5-9.1,5.5c-6.2,0-9.5-2.2-9.5-5.8
				C639.3,397.3,642.5,395,648.5,395z M648.6,404.3c4.5,0,7.6-1.1,7.6-3.6c0-2.1-2.8-3.6-7.6-3.6s-7.7,1.3-7.7,3.6
				C640.9,403.3,644.4,404.3,648.6,404.3z"/>
			<path class="st12" d="M171.4,71.4c-0.5,1.4-1.2,2.6-2.1,3.8c1.4,0.6,3.2,1.6,4.6,2.4l-1.5,1.9c-2.1-1.3-2.9-1.8-4.8-2.7
				c-2,1.4-4.4,2.3-6.8,2.7l-1.2-2c2.1-0.2,4.1-0.8,5.9-1.8c-1.3-0.6-2.6-1.2-4-1.6c0.6-0.9,1.1-1.8,1.5-2.7h-3.5v-2h4.3
				c0.3-0.6,0.5-1.1,0.8-2h-4.6l0.2,1.4c-0.6,0.3-1.6,0.7-2.2,1v7.6c0,1.4-0.6,1.9-2.1,1.9c-0.8,0-1.5-0.1-2.3-0.2l-0.4-2.3l0.7,0.1
				c0.4,0.1,0.9,0.1,1.3,0.1c0.4,0,0.6-0.1,0.6-0.6v-5.7c-0.8,0.3-1.4,0.5-2.5,0.9l-0.7-2.2c1.1-0.3,2.3-0.6,3.2-0.9v-4.2h-2.9v-2.2
				h2.9v-4h2.3v4h2v2.2h-2v3.3c0.6-0.2,1-0.4,1.4-0.5h0.1c0.1-0.1,0.2-0.1,0.3-0.2v-1.5h3.3c-0.3-1-0.6-1.9-1-2.9h-1.6v-2h5v-2.5
				h2.4v2.6h5.4v2h-2c-0.3,1-0.6,1.9-1,2.9h3.6v2h-6.8c-0.4,1-0.5,1.4-0.8,2h7.8v2L171.4,71.4z M164.5,62.6c0.4,0.9,0.7,1.9,1,2.9
				h2.5c0.3-0.7,0.6-1.6,1-2.9H164.5z M165.5,71.4c-0.4,0.8-0.6,1.2-0.9,1.8c0.9,0.3,1.2,0.5,2.7,1.1c0.7-0.8,1.3-1.8,1.7-2.8H165.5
				z"/>
			<path class="st12" d="M181,74.4c1.4,1.6,3.3,2.3,6.7,2.3h9.3c-0.3,0.7-0.6,1.4-0.7,2.1h-8.7c-4-0.1-5.9-0.8-7.6-2.8l-0.1,0.2
				c-1,1.2-2.1,2.2-3.3,3.2l-1.3-2.2c1.2-0.7,2.3-1.5,3.4-2.4v-5.4h-3.2v-2.2h5.5V74.4z M179.7,64.2c-1.1-1.5-2.3-2.9-3.6-4.2
				l1.8-1.4c1.4,1.2,2.7,2.5,3.8,4L179.7,64.2z M184.5,59.8c3-0.2,6.1-0.7,9-1.5l1.7,1.9c-3,0.8-6,1.3-9.1,1.5v2.8h10.1v2.1h-3.6
				v8.9h-2.4v-8.9h-4c-0.1,4.4-0.6,7-1.9,9l-2-1.5c1.1-1.8,1.5-4,1.5-8.8v-5.5L184.5,59.8z"/>
			<path class="st12" d="M258.6,69.1c-1.1-1.3-2.3-2.6-3.6-3.6l1.7-1.7c1.4,1,2.7,2.2,3.8,3.5L258.6,69.1z M255.2,77.5
				c1.8-2.3,3.3-4.8,4.4-7.4l1.9,1.5c-1.1,2.8-2.5,5.4-4.2,7.8L255.2,77.5z M259.3,63.5c-1-1.3-2.2-2.5-3.6-3.5l1.6-1.7
				c1.4,0.9,2.7,2.1,3.7,3.4L259.3,63.5z M269.2,62.2c-1.4-1.1-2.9-2-4.5-2.8l1.7-1.5c1.7,0.8,3.4,1.8,4.9,2.9l-1.6,1.4h6.2v2.1h-6
				V69h5.4V71h-5.4v5.4h6.6v2.1h-15.8v-2.1h6.7V71h-5.2V69h5.2v-4.6h-5.8v-2.1L269.2,62.2z"/>
			<path class="st12" d="M297.1,59.8v1.8H294c-0.3,0.7-0.6,1.3-0.9,1.9h5.7v1.8h-21.4v-1.8h5.6c-0.3-0.7-0.6-1.3-1-1.9h-2.9v-1.8
				h7.7v-1.7h2.4v1.7L297.1,59.8z M277.5,77.8c1-1.2,1.8-2.7,2.3-4.2l2.2,0.8c-0.5,1.8-1.3,3.4-2.4,4.8L277.5,77.8z M288.6,73
				c0.9,0.7,1.7,1.5,2.5,2.4l-1.9,1.4c-0.7-1-1.5-2-2.4-2.8l1.6-1h-8.1v-6.7H296v6.7L288.6,73z M282.6,68.9h11v-0.9h-11V68.9z
				 M282.6,71.4h11v-1.1h-11V71.4z M285.9,73.8v2.4c0,0.4,0.1,0.6,0.2,0.7c0.8,0.2,1.7,0.3,2.5,0.2c2.1,0,2.9-0.1,3-0.4
				c0.2-0.6,0.3-1.2,0.2-1.9l2.3,0.6c0,0.8-0.1,1.5-0.2,2.3c-0.2,0.8-0.7,1.1-1.7,1.3c-1.3,0.1-2.6,0.2-4,0.2
				c-1.3,0.1-2.6,0-3.9-0.3c-0.6-0.3-1-0.9-0.9-1.6v-3.5L285.9,73.8z M284.7,61.6c0.3,0.6,0.6,1.3,0.9,1.9h5.1
				c0.3-0.6,0.6-1.3,0.8-1.9H284.7z M297.1,78.6c-0.9-1.6-1.9-3-3.1-4.4l2-1.1c1.2,1.2,2.3,2.6,3.2,4.1L297.1,78.6z"/>
			<path class="st12" d="M367.7,63v2h-16.5v3.4c0,5.8-0.6,8.3-2.5,10.8l-1.9-1.8c1.6-1.9,2-3.9,2-9v-3.6l-0.2,0.1
				c-0.2,0.2-0.5,0.4-0.7,0.5l-1.6-1.7c2.6-1.3,4.9-3.2,6.5-5.6l1.5,1h7.1l1.3,1c-0.9,1.1-1.8,2.1-2.9,3L367.7,63z M357,63
				c0.7-0.6,1.4-1.3,2-2.1h-5.6c-0.7,0.7-1.4,1.4-2.2,2.1H357z M355.8,75.5c0,0.6,0.1,0.8,0.4,0.9c1.2,0.3,2.5,0.4,3.7,0.3
				c1.5,0,3-0.1,4.5-0.2c0.5-0.1,0.7-0.3,0.8-1c0.1-0.8,0.2-1.5,0.2-2.3l2.5,0.6c-0.2,5-0.5,5.2-8.2,5.2c-5.5,0-6.3-0.3-6.3-2.3
				v-9.4h11v5.1c0,1.5-0.7,2-2.4,2c-0.8,0-1.6,0-2.4-0.1l-0.5-2c0.8,0.1,1.6,0.2,2.4,0.2c0.5,0,0.5-0.1,0.5-0.6v-2.6h-6.2V75.5z"/>
			<path class="st12" d="M383.8,66.9h4.9v5.9h-4.2c1.3,2.1,3,3.4,5.9,4.4l-1.4,2.2c-2.7-1.1-4.9-3.2-6.2-5.8c-1.2,2.8-3.5,5-6.3,6
				l-1.5-1.9c2.7-0.6,4.9-2.4,6.1-4.9h-4.4v-5.9h4.8v-1.8h-2.3v-1c-0.9,0.8-1.9,1.5-3,2.1l-1.4-1.8c-0.3,0.9-0.4,1.1-0.6,1.6
				c1.1,1.6,1.7,3.5,1.7,5.4c0,2.4-0.6,3.2-2.5,3.2c-0.4,0-0.9,0-1.3-0.1l-0.4-2.2c0.4,0.1,0.9,0.2,1.4,0.2c0.5,0,0.6-0.2,0.6-1
				c0.1-1.9-0.5-3.7-1.6-5.2c0.6-1.5,1-3.1,1.4-4.6l0.1-0.7h-2v18.4h-2.2V58.9h5.6l1.1,1c-0.4,1.5-0.8,3-1.3,4.5
				c2.7-1.3,4.9-3.5,6.3-6.2h2.6c1.7,2.6,4.2,4.6,7,5.8l-1.3,2.1c-1.1-0.6-2.2-1.2-3.1-2v1h-2.4V66.9z M378.8,68.6V71h2.7v-2.4
				H378.8z M385.2,63.2c-1-0.9-1.9-1.9-2.7-3c-0.6,1.1-1.4,2.1-2.3,3H385.2z M383.7,71h2.8v-2.4h-2.8V71z"/>
			
				<image style="overflow:visible;opacity:0.3;enable-background:new    ;" width="271" height="712" xlink:href="A6DF1B9A7305DFAF.png"  transform="matrix(1 0 0 1 382.3837 257.3099)">
			</image>
			
				<image style="overflow:visible;" width="2341" height="4161" xlink:href="A6DF1B9A7305DFAD.png"  transform="matrix(0.24 0 0 0.24 230.8337 -7.4701)">
			</image>
		</g>
	</g>
</g>
</svg>
