<?xml version="1.0" encoding="utf-8"?>
<!-- Generator: Adobe Illustrator 26.0.1, SVG Export Plug-In . SVG Version: 6.00 Build 0)  -->
<svg version="1.1" id="Layer_1" xmlns="http://www.w3.org/2000/svg" xmlns:xlink="http://www.w3.org/1999/xlink" x="0px" y="0px"
	 viewBox="0 0 43 43.7" style="enable-background:new 0 0 43 43.7;" xml:space="preserve">
<style type="text/css">
	.st0{clip-path:url(#SVGID_00000141425033609536178990000004135225124831057029_);}
	.st1{fill:none;stroke:#231F20;stroke-width:0.75;stroke-linecap:round;stroke-linejoin:round;}
</style>
<g id="Layer_2_00000025417780523891062170000006625974191773786262_">
	<g id="Layer_1-2">
		<g>
			<defs>
				<rect id="SVGID_1_" x="1.1" y="1.4" width="40.8" height="40.8"/>
			</defs>
			<clipPath id="SVGID_00000170237861797804469230000003991618750337939130_">
				<use xlink:href="#SVGID_1_"  style="overflow:visible;"/>
			</clipPath>
			<g style="clip-path:url(#SVGID_00000170237861797804469230000003991618750337939130_);">
				<line class="st1" x1="-103.5" y1="75.2" x2="300.1" y2="-195.2"/>
				<line class="st1" x1="-103.5" y1="83.9" x2="300.1" y2="-186.5"/>
				<line class="st1" x1="-103.5" y1="92.5" x2="300.1" y2="-177.9"/>
				<line class="st1" x1="-103.5" y1="101.1" x2="300.1" y2="-169.3"/>
				<line class="st1" x1="-103.5" y1="109.8" x2="300.1" y2="-160.6"/>
				<line class="st1" x1="-103.5" y1="118.4" x2="300.1" y2="-152"/>
				<line class="st1" x1="-103.5" y1="127.1" x2="300.1" y2="-143.4"/>
				<line class="st1" x1="-103.5" y1="135.7" x2="300.1" y2="-134.7"/>
				<line class="st1" x1="-103.5" y1="144.3" x2="300.1" y2="-126.1"/>
				<line class="st1" x1="-103.5" y1="153" x2="300.1" y2="-117.4"/>
				<line class="st1" x1="-103.5" y1="161.6" x2="300.1" y2="-108.8"/>
				<line class="st1" x1="-103.5" y1="170.3" x2="300.1" y2="-100.2"/>
				<line class="st1" x1="-103.5" y1="178.9" x2="300.1" y2="-91.5"/>
				<line class="st1" x1="-103.5" y1="187.5" x2="300.1" y2="-82.9"/>
				<line class="st1" x1="-103.5" y1="196.2" x2="300.1" y2="-74.2"/>
				<line class="st1" x1="-103.5" y1="204.8" x2="300.1" y2="-65.6"/>
				<line class="st1" x1="-103.5" y1="213.4" x2="300.1" y2="-57"/>
				<line class="st1" x1="-103.5" y1="222.1" x2="300.1" y2="-48.3"/>
				<line class="st1" x1="-103.5" y1="230.7" x2="300.1" y2="-39.7"/>
				<line class="st1" x1="-103.5" y1="239.4" x2="300.1" y2="-31.1"/>
				<line class="st1" x1="-103.5" y1="248" x2="300.1" y2="-22.4"/>
				<line class="st1" x1="-103.5" y1="256.6" x2="300.1" y2="-13.8"/>
				<line class="st1" x1="-103.5" y1="265.3" x2="300.1" y2="-5.1"/>
				<line class="st1" x1="-103.5" y1="273.9" x2="300.1" y2="3.5"/>
				<line class="st1" x1="-103.5" y1="282.6" x2="300.1" y2="12.1"/>
				<line class="st1" x1="-103.5" y1="291.2" x2="300.1" y2="20.8"/>
				<line class="st1" x1="-103.5" y1="299.8" x2="300.1" y2="29.4"/>
				<line class="st1" x1="-103.5" y1="308.5" x2="300.1" y2="38.1"/>
				<line class="st1" x1="-103.5" y1="317.1" x2="300.1" y2="46.7"/>
				<line class="st1" x1="-103.5" y1="325.8" x2="300.1" y2="55.3"/>
				<line class="st1" x1="-103.5" y1="334.4" x2="300.1" y2="64"/>
				<line class="st1" x1="-103.5" y1="343" x2="300.1" y2="72.6"/>
				<line class="st1" x1="-103.5" y1="351.7" x2="300.1" y2="81.3"/>
				<line class="st1" x1="-103.5" y1="360.3" x2="300.1" y2="89.9"/>
				<line class="st1" x1="-103.5" y1="368.9" x2="300.1" y2="98.5"/>
				<line class="st1" x1="-103.5" y1="377.6" x2="300.1" y2="107.2"/>
				<line class="st1" x1="-103.5" y1="386.2" x2="300.1" y2="115.8"/>
				<line class="st1" x1="-103.5" y1="394.9" x2="300.1" y2="124.5"/>
				<line class="st1" x1="-103.5" y1="403.5" x2="300.1" y2="133.1"/>
				<line class="st1" x1="-103.5" y1="412.2" x2="300.1" y2="141.7"/>
				<line class="st1" x1="-103.5" y1="420.8" x2="300.1" y2="150.4"/>
				<line class="st1" x1="-103.5" y1="429.4" x2="300.1" y2="159"/>
				<line class="st1" x1="-103.5" y1="438.1" x2="300.1" y2="167.6"/>
				<line class="st1" x1="-103.5" y1="446.7" x2="300.1" y2="176.3"/>
				<line class="st1" x1="-103.5" y1="455.3" x2="300.1" y2="184.9"/>
				<line class="st1" x1="-103.5" y1="464" x2="300.1" y2="193.6"/>
				<line class="st1" x1="-103.5" y1="472.6" x2="300.1" y2="202.2"/>
				<line class="st1" x1="-103.5" y1="481.3" x2="300.1" y2="210.8"/>
				<line class="st1" x1="-103.5" y1="489.9" x2="300.1" y2="219.5"/>
				<line class="st1" x1="-103.5" y1="498.5" x2="300.1" y2="228.1"/>
				<line class="st1" x1="-103.5" y1="507.2" x2="300.1" y2="236.8"/>
				<line class="st1" x1="-103.5" y1="515.8" x2="300.1" y2="245.4"/>
				<line class="st1" x1="-103.5" y1="524.5" x2="300.1" y2="254"/>
				<line class="st1" x1="-103.5" y1="533.1" x2="300.1" y2="262.7"/>
				<line class="st1" x1="-103.5" y1="541.7" x2="300.1" y2="271.3"/>
				<line class="st1" x1="-103.5" y1="550.4" x2="300.1" y2="280"/>
				<line class="st1" x1="-103.5" y1="559" x2="300.1" y2="288.6"/>
				<line class="st1" x1="-103.5" y1="567.6" x2="300.1" y2="297.2"/>
				<line class="st1" x1="-103.5" y1="576.3" x2="300.1" y2="305.9"/>
				<line class="st1" x1="-103.5" y1="584.9" x2="300.1" y2="314.5"/>
				<line class="st1" x1="-103.5" y1="593.6" x2="300.1" y2="323.2"/>
				<line class="st1" x1="-103.5" y1="602.2" x2="300.1" y2="331.8"/>
				<line class="st1" x1="-103.5" y1="610.8" x2="300.1" y2="340.4"/>
				<line class="st1" x1="-103.5" y1="619.5" x2="300.1" y2="349.1"/>
				<line class="st1" x1="-103.5" y1="628.1" x2="300.1" y2="357.7"/>
				<line class="st1" x1="-103.5" y1="636.8" x2="300.1" y2="366.3"/>
				<line class="st1" x1="-103.5" y1="645.4" x2="300.1" y2="375"/>
				<line class="st1" x1="-103.5" y1="654" x2="300.1" y2="383.6"/>
				<line class="st1" x1="-103.5" y1="662.7" x2="300.1" y2="392.3"/>
				<line class="st1" x1="-103.5" y1="671.3" x2="300.1" y2="400.9"/>
				<line class="st1" x1="-103.5" y1="680" x2="300.1" y2="409.5"/>
				<line class="st1" x1="-103.5" y1="688.6" x2="300.1" y2="418.2"/>
				<line class="st1" x1="-103.5" y1="697.2" x2="300.1" y2="426.8"/>
				<line class="st1" x1="-103.5" y1="705.9" x2="300.1" y2="435.5"/>
				<line class="st1" x1="-103.5" y1="714.5" x2="300.1" y2="444.1"/>
				<line class="st1" x1="-103.5" y1="723.2" x2="300.1" y2="452.7"/>
				<line class="st1" x1="-103.5" y1="731.8" x2="300.1" y2="461.4"/>
				<line class="st1" x1="-103.5" y1="740.4" x2="300.1" y2="470"/>
				<line class="st1" x1="-103.5" y1="749.1" x2="300.1" y2="478.7"/>
				<line class="st1" x1="-103.5" y1="757.7" x2="300.1" y2="487.3"/>
				<line class="st1" x1="-103.5" y1="766.3" x2="300.1" y2="495.9"/>
				<line class="st1" x1="-103.5" y1="775" x2="300.1" y2="504.6"/>
				<line class="st1" x1="-103.5" y1="783.6" x2="300.1" y2="513.2"/>
				<line class="st1" x1="-103.5" y1="792.3" x2="300.1" y2="521.9"/>
				<line class="st1" x1="-103.5" y1="800.9" x2="300.1" y2="530.5"/>
				<line class="st1" x1="-103.5" y1="809.5" x2="300.1" y2="539.1"/>
				<line class="st1" x1="-103.5" y1="818.2" x2="300.1" y2="547.8"/>
				<line class="st1" x1="-103.5" y1="826.8" x2="300.1" y2="556.4"/>
				<line class="st1" x1="-103.5" y1="835.5" x2="300.1" y2="565"/>
				<line class="st1" x1="-103.5" y1="844.1" x2="300.1" y2="573.7"/>
				<line class="st1" x1="-103.5" y1="852.7" x2="300.1" y2="582.3"/>
				<line class="st1" x1="-103.5" y1="861.4" x2="300.1" y2="591"/>
				<line class="st1" x1="-103.5" y1="870" x2="300.1" y2="599.6"/>
				<line class="st1" x1="-103.5" y1="878.7" x2="300.1" y2="608.2"/>
				<line class="st1" x1="-103.5" y1="887.3" x2="300.1" y2="616.9"/>
				<line class="st1" x1="-103.5" y1="895.9" x2="300.1" y2="625.5"/>
				<line class="st1" x1="-103.5" y1="904.6" x2="300.1" y2="634.2"/>
				<line class="st1" x1="-103.5" y1="913.2" x2="300.1" y2="642.8"/>
				<line class="st1" x1="-103.5" y1="921.9" x2="300.1" y2="651.4"/>
				<line class="st1" x1="-103.5" y1="930.5" x2="300.1" y2="660.1"/>
				<line class="st1" x1="-103.5" y1="939.1" x2="300.1" y2="668.7"/>
				<line class="st1" x1="-103.5" y1="947.8" x2="300.1" y2="677.4"/>
				<line class="st1" x1="-103.5" y1="956.4" x2="300.1" y2="686"/>
				<line class="st1" x1="-103.5" y1="965" x2="300.1" y2="694.6"/>
				<line class="st1" x1="-103.5" y1="973.7" x2="300.1" y2="703.3"/>
				<line class="st1" x1="-103.5" y1="982.3" x2="300.1" y2="711.9"/>
				<line class="st1" x1="-103.5" y1="991" x2="300.1" y2="720.6"/>
				<line class="st1" x1="-103.5" y1="999.6" x2="300.1" y2="729.2"/>
				<line class="st1" x1="-103.5" y1="1008.2" x2="300.1" y2="737.8"/>
				<line class="st1" x1="-103.5" y1="1016.9" x2="300.1" y2="746.5"/>
				<line class="st1" x1="-103.5" y1="1025.5" x2="300.1" y2="755.1"/>
				<line class="st1" x1="-103.5" y1="1034.2" x2="300.1" y2="763.7"/>
				<line class="st1" x1="-103.5" y1="1042.8" x2="300.1" y2="772.4"/>
				<line class="st1" x1="-103.5" y1="1051.4" x2="300.1" y2="781"/>
				<line class="st1" x1="-103.5" y1="1060.1" x2="300.1" y2="789.7"/>
				<line class="st1" x1="-103.5" y1="1068.7" x2="300.1" y2="798.3"/>
				<line class="st1" x1="-103.5" y1="1077.4" x2="300.1" y2="806.9"/>
				<line class="st1" x1="-103.5" y1="1086" x2="300.1" y2="815.6"/>
				<line class="st1" x1="-103.5" y1="1094.6" x2="300.1" y2="824.2"/>
				<line class="st1" x1="-103.5" y1="1103.3" x2="300.1" y2="832.9"/>
				<line class="st1" x1="-103.5" y1="1111.9" x2="300.1" y2="841.5"/>
				<line class="st1" x1="-103.5" y1="1120.6" x2="300.1" y2="850.1"/>
			</g>
		</g>
		<rect x="1.1" y="1.4" class="st1" width="40.8" height="40.8"/>
	</g>
</g>
</svg>
