<?xml version="1.0" encoding="utf-8"?>
<!-- Generator: Adobe Illustrator 26.0.1, SVG Export Plug-In . SVG Version: 6.00 Build 0)  -->
<svg version="1.1" id="Layer_1" xmlns="http://www.w3.org/2000/svg" xmlns:xlink="http://www.w3.org/1999/xlink" x="0px" y="0px"
	 viewBox="0 0 261.1 577.3" style="enable-background:new 0 0 261.1 577.3;" xml:space="preserve">
<style type="text/css">
	.st0{clip-path:url(#SVGID_00000057125776035413270010000012514067634643557048_);}
	.st1{fill:none;stroke:#231F20;stroke-width:0.75;stroke-linecap:round;stroke-linejoin:round;}
</style>
<g id="Layer_2_00000178911315783525824580000002976261976569856447_">
	<g id="Layer_1-2">
		<g>
			<defs>
				<polygon id="SVGID_1_" points="259.9,255.2 259.9,1.3 147.6,1.3 147.6,75.3 1.3,75.3 1.3,576 218.7,576 218.7,255.2 				"/>
			</defs>
			<clipPath id="SVGID_00000181801854624629710550000016213494007907627699_">
				<use xlink:href="#SVGID_1_"  style="overflow:visible;"/>
			</clipPath>
			<g style="clip-path:url(#SVGID_00000181801854624629710550000016213494007907627699_);">
				<line class="st1" x1="-40.4" y1="-214.9" x2="340.8" y2="-470.3"/>
				<line class="st1" x1="-40.4" y1="-206.7" x2="340.8" y2="-462.2"/>
				<line class="st1" x1="-40.4" y1="-198.6" x2="340.8" y2="-454"/>
				<line class="st1" x1="-40.4" y1="-190.4" x2="340.8" y2="-445.9"/>
				<line class="st1" x1="-40.4" y1="-182.3" x2="340.8" y2="-437.7"/>
				<line class="st1" x1="-40.4" y1="-174.1" x2="340.8" y2="-429.5"/>
				<line class="st1" x1="-40.4" y1="-165.9" x2="340.8" y2="-421.4"/>
				<line class="st1" x1="-40.4" y1="-157.8" x2="340.8" y2="-413.2"/>
				<line class="st1" x1="-40.4" y1="-149.6" x2="340.8" y2="-405.1"/>
				<line class="st1" x1="-40.4" y1="-141.4" x2="340.8" y2="-396.9"/>
				<line class="st1" x1="-40.4" y1="-133.3" x2="340.8" y2="-388.7"/>
				<line class="st1" x1="-40.4" y1="-125.1" x2="340.8" y2="-380.6"/>
				<line class="st1" x1="-40.4" y1="-117" x2="340.8" y2="-372.4"/>
				<line class="st1" x1="-40.4" y1="-108.8" x2="340.8" y2="-364.2"/>
				<line class="st1" x1="-40.4" y1="-100.6" x2="340.8" y2="-356.1"/>
				<line class="st1" x1="-40.4" y1="-92.5" x2="340.8" y2="-347.9"/>
				<line class="st1" x1="-40.4" y1="-84.3" x2="340.8" y2="-339.8"/>
				<line class="st1" x1="-40.4" y1="-76.2" x2="340.8" y2="-331.6"/>
				<line class="st1" x1="-40.4" y1="-68" x2="340.8" y2="-323.4"/>
				<line class="st1" x1="-40.4" y1="-59.8" x2="340.8" y2="-315.3"/>
				<line class="st1" x1="-40.4" y1="-51.7" x2="340.8" y2="-307.1"/>
				<line class="st1" x1="-40.4" y1="-43.5" x2="340.8" y2="-299"/>
				<line class="st1" x1="-40.4" y1="-35.4" x2="340.8" y2="-290.8"/>
				<line class="st1" x1="-40.4" y1="-27.2" x2="340.8" y2="-282.6"/>
				<line class="st1" x1="-40.4" y1="-19" x2="340.8" y2="-274.5"/>
				<line class="st1" x1="-40.4" y1="-10.9" x2="340.8" y2="-266.3"/>
				<line class="st1" x1="-40.4" y1="-2.7" x2="340.8" y2="-258.2"/>
				<line class="st1" x1="-40.4" y1="5.4" x2="340.8" y2="-250"/>
				<line class="st1" x1="-40.4" y1="13.6" x2="340.8" y2="-241.8"/>
				<line class="st1" x1="-40.4" y1="21.8" x2="340.8" y2="-233.7"/>
				<line class="st1" x1="-40.4" y1="29.9" x2="340.8" y2="-225.5"/>
				<line class="st1" x1="-40.4" y1="38.1" x2="340.8" y2="-217.4"/>
				<line class="st1" x1="-40.4" y1="46.3" x2="340.8" y2="-209.2"/>
				<line class="st1" x1="-40.4" y1="54.4" x2="340.8" y2="-201"/>
				<line class="st1" x1="-40.4" y1="62.6" x2="340.8" y2="-192.9"/>
				<line class="st1" x1="-40.4" y1="70.7" x2="340.8" y2="-184.7"/>
				<line class="st1" x1="-40.4" y1="78.9" x2="340.8" y2="-176.5"/>
				<line class="st1" x1="-40.4" y1="87.1" x2="340.8" y2="-168.4"/>
				<line class="st1" x1="-40.4" y1="95.2" x2="340.8" y2="-160.2"/>
				<line class="st1" x1="-40.4" y1="103.4" x2="340.8" y2="-152.1"/>
				<line class="st1" x1="-40.4" y1="111.5" x2="340.8" y2="-143.9"/>
				<line class="st1" x1="-40.4" y1="119.7" x2="340.8" y2="-135.7"/>
				<line class="st1" x1="-40.4" y1="127.9" x2="340.8" y2="-127.6"/>
				<line class="st1" x1="-40.4" y1="136" x2="340.8" y2="-119.4"/>
				<line class="st1" x1="-40.4" y1="144.2" x2="340.8" y2="-111.3"/>
				<line class="st1" x1="-40.4" y1="152.3" x2="340.8" y2="-103.1"/>
				<line class="st1" x1="-40.4" y1="160.5" x2="340.8" y2="-94.9"/>
				<line class="st1" x1="-40.4" y1="168.7" x2="340.8" y2="-86.8"/>
				<line class="st1" x1="-40.4" y1="176.8" x2="340.8" y2="-78.6"/>
				<line class="st1" x1="-40.4" y1="185" x2="340.8" y2="-70.5"/>
				<line class="st1" x1="-40.4" y1="193.2" x2="340.8" y2="-62.3"/>
				<line class="st1" x1="-40.4" y1="201.3" x2="340.8" y2="-54.1"/>
				<line class="st1" x1="-40.4" y1="209.5" x2="340.8" y2="-46"/>
				<line class="st1" x1="-40.4" y1="217.6" x2="340.8" y2="-37.8"/>
				<line class="st1" x1="-40.4" y1="225.8" x2="340.8" y2="-29.7"/>
				<line class="st1" x1="-40.4" y1="234" x2="340.8" y2="-21.5"/>
				<line class="st1" x1="-40.4" y1="242.1" x2="340.8" y2="-13.3"/>
				<line class="st1" x1="-40.4" y1="250.3" x2="340.8" y2="-5.2"/>
				<line class="st1" x1="-40.4" y1="258.4" x2="340.8" y2="3"/>
				<line class="st1" x1="-40.4" y1="266.6" x2="340.8" y2="11.2"/>
				<line class="st1" x1="-40.4" y1="274.8" x2="340.8" y2="19.3"/>
				<line class="st1" x1="-40.4" y1="282.9" x2="340.8" y2="27.5"/>
				<line class="st1" x1="-40.4" y1="291.1" x2="340.8" y2="35.6"/>
				<line class="st1" x1="-40.4" y1="299.2" x2="340.8" y2="43.8"/>
				<line class="st1" x1="-40.4" y1="307.4" x2="340.8" y2="52"/>
				<line class="st1" x1="-40.4" y1="315.6" x2="340.8" y2="60.1"/>
				<line class="st1" x1="-40.4" y1="323.7" x2="340.8" y2="68.3"/>
				<line class="st1" x1="-40.4" y1="331.9" x2="340.8" y2="76.4"/>
				<line class="st1" x1="-40.4" y1="340" x2="340.8" y2="84.6"/>
				<line class="st1" x1="-40.4" y1="348.2" x2="340.8" y2="92.8"/>
				<line class="st1" x1="-40.4" y1="356.4" x2="340.8" y2="100.9"/>
				<line class="st1" x1="-40.4" y1="364.5" x2="340.8" y2="109.1"/>
				<line class="st1" x1="-40.4" y1="372.7" x2="340.8" y2="117.2"/>
				<line class="st1" x1="-40.4" y1="380.9" x2="340.8" y2="125.4"/>
				<line class="st1" x1="-40.4" y1="389" x2="340.8" y2="133.6"/>
				<line class="st1" x1="-40.4" y1="397.2" x2="340.8" y2="141.7"/>
				<line class="st1" x1="-40.4" y1="405.3" x2="340.8" y2="149.9"/>
				<line class="st1" x1="-40.4" y1="413.5" x2="340.8" y2="158"/>
				<line class="st1" x1="-40.4" y1="421.7" x2="340.8" y2="166.2"/>
				<line class="st1" x1="-40.4" y1="429.8" x2="340.8" y2="174.4"/>
				<line class="st1" x1="-40.4" y1="438" x2="340.8" y2="182.5"/>
				<line class="st1" x1="-40.4" y1="446.1" x2="340.8" y2="190.7"/>
				<line class="st1" x1="-40.4" y1="454.3" x2="340.8" y2="198.9"/>
				<line class="st1" x1="-40.4" y1="462.5" x2="340.8" y2="207"/>
				<line class="st1" x1="-40.4" y1="470.6" x2="340.8" y2="215.2"/>
				<line class="st1" x1="-40.4" y1="478.8" x2="340.8" y2="223.3"/>
				<line class="st1" x1="-40.4" y1="486.9" x2="340.8" y2="231.5"/>
				<line class="st1" x1="-40.4" y1="495.1" x2="340.8" y2="239.7"/>
				<line class="st1" x1="-40.4" y1="503.3" x2="340.8" y2="247.8"/>
				<line class="st1" x1="-40.4" y1="511.4" x2="340.8" y2="256"/>
				<line class="st1" x1="-40.4" y1="519.6" x2="340.8" y2="264.1"/>
				<line class="st1" x1="-40.4" y1="527.7" x2="340.8" y2="272.3"/>
				<line class="st1" x1="-40.4" y1="535.9" x2="340.8" y2="280.5"/>
				<line class="st1" x1="-40.4" y1="544.1" x2="340.8" y2="288.6"/>
				<line class="st1" x1="-40.4" y1="552.2" x2="340.8" y2="296.8"/>
				<line class="st1" x1="-40.4" y1="560.4" x2="340.8" y2="304.9"/>
				<line class="st1" x1="-40.4" y1="568.6" x2="340.8" y2="313.1"/>
				<line class="st1" x1="-40.4" y1="576.7" x2="340.8" y2="321.3"/>
				<line class="st1" x1="-40.4" y1="584.9" x2="340.8" y2="329.4"/>
				<line class="st1" x1="-40.4" y1="593" x2="340.8" y2="337.6"/>
				<line class="st1" x1="-40.4" y1="601.2" x2="340.8" y2="345.7"/>
				<line class="st1" x1="-40.4" y1="609.4" x2="340.8" y2="353.9"/>
				<line class="st1" x1="-40.4" y1="617.5" x2="340.8" y2="362.1"/>
				<line class="st1" x1="-40.4" y1="625.7" x2="340.8" y2="370.2"/>
				<line class="st1" x1="-40.4" y1="633.8" x2="340.8" y2="378.4"/>
				<line class="st1" x1="-40.4" y1="642" x2="340.8" y2="386.6"/>
				<line class="st1" x1="-40.4" y1="650.2" x2="340.8" y2="394.7"/>
				<line class="st1" x1="-40.4" y1="658.3" x2="340.8" y2="402.9"/>
				<line class="st1" x1="-40.4" y1="666.5" x2="340.8" y2="411"/>
				<line class="st1" x1="-40.4" y1="674.6" x2="340.8" y2="419.2"/>
				<line class="st1" x1="-40.4" y1="682.8" x2="340.8" y2="427.4"/>
				<line class="st1" x1="-40.4" y1="691" x2="340.8" y2="435.5"/>
				<line class="st1" x1="-40.4" y1="699.1" x2="340.8" y2="443.7"/>
				<line class="st1" x1="-40.4" y1="707.3" x2="340.8" y2="451.8"/>
				<line class="st1" x1="-40.4" y1="715.4" x2="340.8" y2="460"/>
				<line class="st1" x1="-40.4" y1="723.6" x2="340.8" y2="468.2"/>
				<line class="st1" x1="-40.4" y1="731.8" x2="340.8" y2="476.3"/>
				<line class="st1" x1="-40.4" y1="739.9" x2="340.8" y2="484.5"/>
				<line class="st1" x1="-40.4" y1="748.1" x2="340.8" y2="492.6"/>
				<line class="st1" x1="-40.4" y1="756.3" x2="340.8" y2="500.8"/>
				<line class="st1" x1="-40.4" y1="764.4" x2="340.8" y2="509"/>
				<line class="st1" x1="-40.4" y1="772.6" x2="340.8" y2="517.1"/>
			</g>
			<use xlink:href="#SVGID_1_"  style="overflow:visible;fill:none;stroke:#000000;stroke-miterlimit:10;"/>
		</g>
	</g>
</g>
</svg>
