<?xml version="1.0" encoding="utf-8"?>
<!-- Generator: Adobe Illustrator 26.0.1, SVG Export Plug-In . SVG Version: 6.00 Build 0)  -->
<svg version="1.1" id="Layer_1" xmlns="http://www.w3.org/2000/svg" xmlns:xlink="http://www.w3.org/1999/xlink" x="0px" y="0px"
	 viewBox="0 0 296.1 777.9" style="enable-background:new 0 0 296.1 777.9;" xml:space="preserve">
<style type="text/css">
	.st0{clip-path:url(#SVGID_00000170994226506373319890000013397380336074095022_);}
	.st1{fill:none;stroke:#231F20;stroke-width:0.25;stroke-linecap:round;stroke-linejoin:round;}
	.st2{fill:#B7E8D0;stroke:#E3EFCD;stroke-miterlimit:10;}
	.st3{clip-path:url(#SVGID_00000098938404289474618090000018122587664204686477_);}
	.st4{fill:#FFEDB0;}
	.st5{clip-path:url(#SVGID_00000068652181951847293680000006403343416483015349_);}
	.st6{fill:#FFC3C2;}
</style>
<g id="Layer_2_00000034053680420938335240000008060143296811593091_">
	<g id="Layer_1-2">
		<g>
			<defs>
				<rect id="SVGID_1_" x="3.8" y="1.5" width="112.7" height="774.8"/>
			</defs>
			<clipPath id="SVGID_00000046304753817148760450000016206264650268943503_">
				<use xlink:href="#SVGID_1_"  style="overflow:visible;"/>
			</clipPath>
			<g style="clip-path:url(#SVGID_00000046304753817148760450000016206264650268943503_);">
				<line class="st1" x1="-227.5" y1="62.5" x2="153.8" y2="-192.9"/>
				<line class="st1" x1="-227.5" y1="81.9" x2="153.8" y2="-173.6"/>
				<line class="st1" x1="-227.5" y1="101.2" x2="153.8" y2="-154.2"/>
				<line class="st1" x1="-227.5" y1="120.6" x2="153.8" y2="-134.8"/>
				<line class="st1" x1="-227.5" y1="140" x2="153.8" y2="-115.5"/>
				<line class="st1" x1="-227.5" y1="159.3" x2="153.8" y2="-96.1"/>
				<line class="st1" x1="-227.5" y1="178.7" x2="153.8" y2="-76.7"/>
				<line class="st1" x1="-227.5" y1="198.1" x2="153.8" y2="-57.4"/>
				<line class="st1" x1="-227.5" y1="217.4" x2="153.8" y2="-38"/>
				<line class="st1" x1="-227.5" y1="236.8" x2="153.8" y2="-18.7"/>
				<line class="st1" x1="-227.5" y1="256.1" x2="153.8" y2="0.7"/>
				<line class="st1" x1="-227.5" y1="275.5" x2="153.8" y2="20.1"/>
				<line class="st1" x1="-227.5" y1="294.9" x2="153.8" y2="39.4"/>
				<line class="st1" x1="-227.5" y1="314.2" x2="153.8" y2="58.8"/>
				<line class="st1" x1="-227.5" y1="333.6" x2="153.8" y2="78.1"/>
				<line class="st1" x1="-227.5" y1="353" x2="153.8" y2="97.5"/>
				<line class="st1" x1="-227.5" y1="372.3" x2="153.8" y2="116.9"/>
				<line class="st1" x1="-227.5" y1="391.7" x2="153.8" y2="136.2"/>
				<line class="st1" x1="-227.5" y1="411" x2="153.8" y2="155.6"/>
				<line class="st1" x1="-227.5" y1="430.4" x2="153.8" y2="175"/>
				<line class="st1" x1="-227.5" y1="449.8" x2="153.8" y2="194.3"/>
				<line class="st1" x1="-227.5" y1="469.1" x2="153.8" y2="213.7"/>
				<line class="st1" x1="-227.5" y1="488.5" x2="153.8" y2="233"/>
				<line class="st1" x1="-227.5" y1="507.9" x2="153.8" y2="252.4"/>
				<line class="st1" x1="-227.5" y1="527.2" x2="153.8" y2="271.8"/>
				<line class="st1" x1="-227.5" y1="546.6" x2="153.8" y2="291.1"/>
				<line class="st1" x1="-227.5" y1="565.9" x2="153.8" y2="310.5"/>
				<line class="st1" x1="-227.5" y1="585.3" x2="153.8" y2="329.9"/>
				<line class="st1" x1="-227.5" y1="604.7" x2="153.8" y2="349.2"/>
				<line class="st1" x1="-227.5" y1="624" x2="153.8" y2="368.6"/>
				<line class="st1" x1="-227.5" y1="643.4" x2="153.8" y2="387.9"/>
				<line class="st1" x1="-227.5" y1="662.8" x2="153.8" y2="407.3"/>
				<line class="st1" x1="-227.5" y1="682.1" x2="153.8" y2="426.7"/>
				<line class="st1" x1="-227.5" y1="701.5" x2="153.8" y2="446"/>
				<line class="st1" x1="-227.5" y1="720.8" x2="153.8" y2="465.4"/>
				<line class="st1" x1="-227.5" y1="740.2" x2="153.8" y2="484.8"/>
				<line class="st1" x1="-227.5" y1="759.6" x2="153.8" y2="504.1"/>
				<line class="st1" x1="-227.5" y1="778.9" x2="153.8" y2="523.5"/>
				<line class="st1" x1="-227.5" y1="798.3" x2="153.8" y2="542.8"/>
				<line class="st1" x1="-227.5" y1="817.6" x2="153.8" y2="562.2"/>
				<line class="st1" x1="-227.5" y1="837" x2="153.8" y2="581.6"/>
				<line class="st1" x1="-227.5" y1="856.4" x2="153.8" y2="600.9"/>
				<line class="st1" x1="-227.5" y1="875.7" x2="153.8" y2="620.3"/>
				<line class="st1" x1="-227.5" y1="895.1" x2="153.8" y2="639.7"/>
				<line class="st1" x1="-227.5" y1="914.5" x2="153.8" y2="659"/>
				<line class="st1" x1="-227.5" y1="933.8" x2="153.8" y2="678.4"/>
				<line class="st1" x1="-227.5" y1="953.2" x2="153.8" y2="697.7"/>
				<line class="st1" x1="-227.5" y1="972.5" x2="153.8" y2="717.1"/>
				<line class="st1" x1="-227.5" y1="991.9" x2="153.8" y2="736.5"/>
				<line class="st1" x1="-227.5" y1="1011.3" x2="153.8" y2="755.8"/>
				<line class="st1" x1="-227.5" y1="1030.6" x2="153.8" y2="775.2"/>
				<line class="st1" x1="-227.5" y1="1050" x2="153.8" y2="794.5"/>
				<rect x="-27" y="-19.8" class="st2" width="194.1" height="831.3"/>
			</g>
		</g>
		<g>
			<defs>
				<rect id="SVGID_00000013888725221023243400000009035357637893882294_" x="116.1" y="1.5" width="96.5" height="774.8"/>
			</defs>
			<clipPath id="SVGID_00000137130607175163842710000013657723482246428841_">
				<use xlink:href="#SVGID_00000013888725221023243400000009035357637893882294_"  style="overflow:visible;"/>
			</clipPath>
			<g style="clip-path:url(#SVGID_00000137130607175163842710000013657723482246428841_);">
				<line class="st1" x1="322.1" y1="72.9" x2="-59.2" y2="-182.6"/>
				<line class="st1" x1="322.1" y1="84.4" x2="-59.2" y2="-171.1"/>
				<line class="st1" x1="322.1" y1="95.9" x2="-59.2" y2="-159.6"/>
				<line class="st1" x1="322.1" y1="107.3" x2="-59.2" y2="-148.1"/>
				<line class="st1" x1="322.1" y1="118.8" x2="-59.2" y2="-136.6"/>
				<line class="st1" x1="322.1" y1="130.3" x2="-59.2" y2="-125.1"/>
				<line class="st1" x1="322.1" y1="141.8" x2="-59.2" y2="-113.7"/>
				<line class="st1" x1="322.1" y1="153.3" x2="-59.2" y2="-102.2"/>
				<line class="st1" x1="322.1" y1="164.8" x2="-59.2" y2="-90.7"/>
				<line class="st1" x1="322.1" y1="176.2" x2="-59.2" y2="-79.2"/>
				<line class="st1" x1="322.1" y1="187.7" x2="-59.2" y2="-67.7"/>
				<line class="st1" x1="322.1" y1="199.2" x2="-59.2" y2="-56.2"/>
				<line class="st1" x1="322.1" y1="210.7" x2="-59.2" y2="-44.8"/>
				<line class="st1" x1="322.1" y1="222.2" x2="-59.2" y2="-33.3"/>
				<line class="st1" x1="322.1" y1="233.6" x2="-59.2" y2="-21.8"/>
				<line class="st1" x1="322.1" y1="245.1" x2="-59.2" y2="-10.3"/>
				<line class="st1" x1="322.1" y1="256.6" x2="-59.2" y2="1.2"/>
				<line class="st1" x1="322.1" y1="268.1" x2="-59.2" y2="12.6"/>
				<line class="st1" x1="322.1" y1="279.6" x2="-59.2" y2="24.1"/>
				<line class="st1" x1="322.1" y1="291.1" x2="-59.2" y2="35.6"/>
				<line class="st1" x1="322.1" y1="302.5" x2="-59.2" y2="47.1"/>
				<line class="st1" x1="322.1" y1="314" x2="-59.2" y2="58.6"/>
				<line class="st1" x1="322.1" y1="325.5" x2="-59.2" y2="70.1"/>
				<line class="st1" x1="322.1" y1="337" x2="-59.2" y2="81.5"/>
				<line class="st1" x1="322.1" y1="348.5" x2="-59.2" y2="93"/>
				<line class="st1" x1="322.1" y1="359.9" x2="-59.2" y2="104.5"/>
				<line class="st1" x1="322.1" y1="371.4" x2="-59.2" y2="116"/>
				<line class="st1" x1="322.1" y1="382.9" x2="-59.2" y2="127.5"/>
				<line class="st1" x1="322.1" y1="394.4" x2="-59.2" y2="138.9"/>
				<line class="st1" x1="322.1" y1="405.9" x2="-59.2" y2="150.4"/>
				<line class="st1" x1="322.1" y1="417.4" x2="-59.2" y2="161.9"/>
				<line class="st1" x1="322.1" y1="428.8" x2="-59.2" y2="173.4"/>
				<line class="st1" x1="322.1" y1="440.3" x2="-59.2" y2="184.9"/>
				<line class="st1" x1="322.1" y1="451.8" x2="-59.2" y2="196.4"/>
				<line class="st1" x1="322.1" y1="463.3" x2="-59.2" y2="207.8"/>
				<line class="st1" x1="322.1" y1="474.8" x2="-59.2" y2="219.3"/>
				<line class="st1" x1="322.1" y1="486.3" x2="-59.2" y2="230.8"/>
				<line class="st1" x1="322.1" y1="497.7" x2="-59.2" y2="242.3"/>
				<line class="st1" x1="322.1" y1="509.2" x2="-59.2" y2="253.8"/>
				<line class="st1" x1="322.1" y1="520.7" x2="-59.2" y2="265.3"/>
				<line class="st1" x1="322.1" y1="532.2" x2="-59.2" y2="276.7"/>
				<line class="st1" x1="322.1" y1="543.7" x2="-59.2" y2="288.2"/>
				<line class="st1" x1="322.1" y1="555.1" x2="-59.2" y2="299.7"/>
				<line class="st1" x1="322.1" y1="566.6" x2="-59.2" y2="311.2"/>
				<line class="st1" x1="322.1" y1="578.1" x2="-59.2" y2="322.7"/>
				<line class="st1" x1="322.1" y1="589.6" x2="-59.2" y2="334.1"/>
				<line class="st1" x1="322.1" y1="601.1" x2="-59.2" y2="345.6"/>
				<line class="st1" x1="322.1" y1="612.6" x2="-59.2" y2="357.1"/>
				<line class="st1" x1="322.1" y1="624" x2="-59.2" y2="368.6"/>
				<line class="st1" x1="322.1" y1="635.5" x2="-59.2" y2="380.1"/>
				<line class="st1" x1="322.1" y1="647" x2="-59.2" y2="391.6"/>
				<line class="st1" x1="322.1" y1="658.5" x2="-59.2" y2="403"/>
				<line class="st1" x1="322.1" y1="670" x2="-59.2" y2="414.5"/>
				<line class="st1" x1="322.1" y1="681.4" x2="-59.2" y2="426"/>
				<line class="st1" x1="322.1" y1="692.9" x2="-59.2" y2="437.5"/>
				<line class="st1" x1="322.1" y1="704.4" x2="-59.2" y2="449"/>
				<line class="st1" x1="322.1" y1="715.9" x2="-59.2" y2="460.5"/>
				<line class="st1" x1="322.1" y1="727.4" x2="-59.2" y2="471.9"/>
				<line class="st1" x1="322.1" y1="738.9" x2="-59.2" y2="483.4"/>
				<line class="st1" x1="322.1" y1="750.3" x2="-59.2" y2="494.9"/>
				<line class="st1" x1="322.1" y1="761.8" x2="-59.2" y2="506.4"/>
				<line class="st1" x1="322.1" y1="773.3" x2="-59.2" y2="517.9"/>
				<line class="st1" x1="322.1" y1="784.8" x2="-59.2" y2="529.3"/>
				<line class="st1" x1="322.1" y1="796.3" x2="-59.2" y2="540.8"/>
				<line class="st1" x1="322.1" y1="807.8" x2="-59.2" y2="552.3"/>
				<line class="st1" x1="322.1" y1="819.2" x2="-59.2" y2="563.8"/>
				<line class="st1" x1="322.1" y1="830.7" x2="-59.2" y2="575.3"/>
				<line class="st1" x1="322.1" y1="842.2" x2="-59.2" y2="586.8"/>
				<line class="st1" x1="322.1" y1="853.7" x2="-59.2" y2="598.2"/>
				<line class="st1" x1="322.1" y1="865.2" x2="-59.2" y2="609.7"/>
				<line class="st1" x1="322.1" y1="876.6" x2="-59.2" y2="621.2"/>
				<line class="st1" x1="322.1" y1="888.1" x2="-59.2" y2="632.7"/>
				<line class="st1" x1="322.1" y1="899.6" x2="-59.2" y2="644.2"/>
				<line class="st1" x1="322.1" y1="911.1" x2="-59.2" y2="655.6"/>
				<line class="st1" x1="322.1" y1="922.6" x2="-59.2" y2="667.1"/>
				<line class="st1" x1="322.1" y1="934.1" x2="-59.2" y2="678.6"/>
				<line class="st1" x1="322.1" y1="945.5" x2="-59.2" y2="690.1"/>
				<line class="st1" x1="322.1" y1="957" x2="-59.2" y2="701.6"/>
				<line class="st1" x1="322.1" y1="968.5" x2="-59.2" y2="713.1"/>
				<line class="st1" x1="322.1" y1="980" x2="-59.2" y2="724.5"/>
				<line class="st1" x1="322.1" y1="991.5" x2="-59.2" y2="736"/>
				<line class="st1" x1="322.1" y1="1003" x2="-59.2" y2="747.5"/>
				<line class="st1" x1="322.1" y1="1014.4" x2="-59.2" y2="759"/>
				<line class="st1" x1="322.1" y1="1025.9" x2="-59.2" y2="770.5"/>
				<line class="st1" x1="322.1" y1="1037.4" x2="-59.2" y2="782"/>
				<line class="st1" x1="322.1" y1="1048.9" x2="-59.2" y2="793.4"/>
				<line class="st1" x1="322.1" y1="1060.4" x2="-59.2" y2="804.9"/>
				<rect x="68.1" y="-22.5" class="st4" width="194.1" height="831.3"/>
			</g>
		</g>
		<g>
			<defs>
				<rect id="SVGID_00000114073954222177562720000011645646541818835859_" x="212.2" y="1.5" width="80.1" height="774.8"/>
			</defs>
			<clipPath id="SVGID_00000046314037174455660010000012379728784275278222_">
				<use xlink:href="#SVGID_00000114073954222177562720000011645646541818835859_"  style="overflow:visible;"/>
			</clipPath>
			<g style="clip-path:url(#SVGID_00000046314037174455660010000012379728784275278222_);">
				<line class="st1" x1="77.5" y1="75.2" x2="458.8" y2="-180.2"/>
				<line class="st1" x1="77.5" y1="83.4" x2="458.8" y2="-172.1"/>
				<line class="st1" x1="77.5" y1="91.6" x2="458.8" y2="-163.9"/>
				<line class="st1" x1="77.5" y1="99.7" x2="458.8" y2="-155.7"/>
				<line class="st1" x1="77.5" y1="107.9" x2="458.8" y2="-147.6"/>
				<line class="st1" x1="77.5" y1="116" x2="458.8" y2="-139.4"/>
				<line class="st1" x1="77.5" y1="124.2" x2="458.8" y2="-131.2"/>
				<line class="st1" x1="77.5" y1="132.4" x2="458.8" y2="-123.1"/>
				<line class="st1" x1="77.5" y1="140.5" x2="458.8" y2="-114.9"/>
				<line class="st1" x1="77.5" y1="148.7" x2="458.8" y2="-106.8"/>
				<line class="st1" x1="77.5" y1="156.8" x2="458.8" y2="-98.6"/>
				<line class="st1" x1="77.5" y1="165" x2="458.8" y2="-90.4"/>
				<line class="st1" x1="77.5" y1="173.2" x2="458.8" y2="-82.3"/>
				<line class="st1" x1="77.5" y1="181.3" x2="458.8" y2="-74.1"/>
				<line class="st1" x1="77.5" y1="189.5" x2="458.8" y2="-66"/>
				<line class="st1" x1="77.5" y1="197.6" x2="458.8" y2="-57.8"/>
				<line class="st1" x1="77.5" y1="205.8" x2="458.8" y2="-49.6"/>
				<line class="st1" x1="77.5" y1="214" x2="458.8" y2="-41.5"/>
				<line class="st1" x1="77.5" y1="222.1" x2="458.8" y2="-33.3"/>
				<line class="st1" x1="77.5" y1="230.3" x2="458.8" y2="-25.2"/>
				<line class="st1" x1="77.5" y1="238.5" x2="458.8" y2="-17"/>
				<line class="st1" x1="77.5" y1="246.6" x2="458.8" y2="-8.8"/>
				<line class="st1" x1="77.5" y1="254.8" x2="458.8" y2="-0.7"/>
				<line class="st1" x1="77.5" y1="262.9" x2="458.8" y2="7.5"/>
				<line class="st1" x1="77.5" y1="271.1" x2="458.8" y2="15.7"/>
				<line class="st1" x1="77.5" y1="279.3" x2="458.8" y2="23.8"/>
				<line class="st1" x1="77.5" y1="287.4" x2="458.8" y2="32"/>
				<line class="st1" x1="77.5" y1="295.6" x2="458.8" y2="40.1"/>
				<line class="st1" x1="77.5" y1="303.7" x2="458.8" y2="48.3"/>
				<line class="st1" x1="77.5" y1="311.9" x2="458.8" y2="56.5"/>
				<line class="st1" x1="77.5" y1="320.1" x2="458.8" y2="64.6"/>
				<line class="st1" x1="77.5" y1="328.2" x2="458.8" y2="72.8"/>
				<line class="st1" x1="77.5" y1="336.4" x2="458.8" y2="80.9"/>
				<line class="st1" x1="77.5" y1="344.5" x2="458.8" y2="89.1"/>
				<line class="st1" x1="77.5" y1="352.7" x2="458.8" y2="97.3"/>
				<line class="st1" x1="77.5" y1="360.9" x2="458.8" y2="105.4"/>
				<line class="st1" x1="77.5" y1="369" x2="458.8" y2="113.6"/>
				<line class="st1" x1="77.5" y1="377.2" x2="458.8" y2="121.7"/>
				<line class="st1" x1="77.5" y1="385.3" x2="458.8" y2="129.9"/>
				<line class="st1" x1="77.5" y1="393.5" x2="458.8" y2="138.1"/>
				<line class="st1" x1="77.5" y1="401.7" x2="458.8" y2="146.2"/>
				<line class="st1" x1="77.5" y1="409.8" x2="458.8" y2="154.4"/>
				<line class="st1" x1="77.5" y1="418" x2="458.8" y2="162.5"/>
				<line class="st1" x1="77.5" y1="426.2" x2="458.8" y2="170.7"/>
				<line class="st1" x1="77.5" y1="434.3" x2="458.8" y2="178.9"/>
				<line class="st1" x1="77.5" y1="442.5" x2="458.8" y2="187"/>
				<line class="st1" x1="77.5" y1="450.6" x2="458.8" y2="195.2"/>
				<line class="st1" x1="77.5" y1="458.8" x2="458.8" y2="203.4"/>
				<line class="st1" x1="77.5" y1="467" x2="458.8" y2="211.5"/>
				<line class="st1" x1="77.5" y1="475.1" x2="458.8" y2="219.7"/>
				<line class="st1" x1="77.5" y1="483.3" x2="458.8" y2="227.8"/>
				<line class="st1" x1="77.5" y1="491.4" x2="458.8" y2="236"/>
				<line class="st1" x1="77.5" y1="499.6" x2="458.8" y2="244.2"/>
				<line class="st1" x1="77.5" y1="507.8" x2="458.8" y2="252.3"/>
				<line class="st1" x1="77.5" y1="515.9" x2="458.8" y2="260.5"/>
				<line class="st1" x1="77.5" y1="524.1" x2="458.8" y2="268.6"/>
				<line class="st1" x1="77.5" y1="532.2" x2="458.8" y2="276.8"/>
				<line class="st1" x1="77.5" y1="540.4" x2="458.8" y2="285"/>
				<line class="st1" x1="77.5" y1="548.6" x2="458.8" y2="293.1"/>
				<line class="st1" x1="77.5" y1="556.7" x2="458.8" y2="301.3"/>
				<line class="st1" x1="77.5" y1="564.9" x2="458.8" y2="309.4"/>
				<line class="st1" x1="77.5" y1="573" x2="458.8" y2="317.6"/>
				<line class="st1" x1="77.5" y1="581.2" x2="458.8" y2="325.8"/>
				<line class="st1" x1="77.5" y1="589.4" x2="458.8" y2="333.9"/>
				<line class="st1" x1="77.5" y1="597.5" x2="458.8" y2="342.1"/>
				<line class="st1" x1="77.5" y1="605.7" x2="458.8" y2="350.2"/>
				<line class="st1" x1="77.5" y1="613.9" x2="458.8" y2="358.4"/>
				<line class="st1" x1="77.5" y1="622" x2="458.8" y2="366.6"/>
				<line class="st1" x1="77.5" y1="630.2" x2="458.8" y2="374.7"/>
				<line class="st1" x1="77.5" y1="638.3" x2="458.8" y2="382.9"/>
				<line class="st1" x1="77.5" y1="646.5" x2="458.8" y2="391.1"/>
				<line class="st1" x1="77.5" y1="654.7" x2="458.8" y2="399.2"/>
				<line class="st1" x1="77.5" y1="662.8" x2="458.8" y2="407.4"/>
				<line class="st1" x1="77.5" y1="671" x2="458.8" y2="415.5"/>
				<line class="st1" x1="77.5" y1="679.1" x2="458.8" y2="423.7"/>
				<line class="st1" x1="77.5" y1="687.3" x2="458.8" y2="431.9"/>
				<line class="st1" x1="77.5" y1="695.5" x2="458.8" y2="440"/>
				<line class="st1" x1="77.5" y1="703.6" x2="458.8" y2="448.2"/>
				<line class="st1" x1="77.5" y1="711.8" x2="458.8" y2="456.3"/>
				<line class="st1" x1="77.5" y1="719.9" x2="458.8" y2="464.5"/>
				<line class="st1" x1="77.5" y1="728.1" x2="458.8" y2="472.7"/>
				<line class="st1" x1="77.5" y1="736.3" x2="458.8" y2="480.8"/>
				<line class="st1" x1="77.5" y1="744.4" x2="458.8" y2="489"/>
				<line class="st1" x1="77.5" y1="752.6" x2="458.8" y2="497.1"/>
				<line class="st1" x1="77.5" y1="760.7" x2="458.8" y2="505.3"/>
				<line class="st1" x1="77.5" y1="768.9" x2="458.8" y2="513.5"/>
				<line class="st1" x1="77.5" y1="777.1" x2="458.8" y2="521.6"/>
				<line class="st1" x1="77.5" y1="785.2" x2="458.8" y2="529.8"/>
				<line class="st1" x1="77.5" y1="793.4" x2="458.8" y2="537.9"/>
				<line class="st1" x1="77.5" y1="801.6" x2="458.8" y2="546.1"/>
				<line class="st1" x1="77.5" y1="809.7" x2="458.8" y2="554.3"/>
				<line class="st1" x1="77.5" y1="817.9" x2="458.8" y2="562.4"/>
				<line class="st1" x1="77.5" y1="826" x2="458.8" y2="570.6"/>
				<line class="st1" x1="77.5" y1="834.2" x2="458.8" y2="578.8"/>
				<line class="st1" x1="77.5" y1="842.4" x2="458.8" y2="586.9"/>
				<line class="st1" x1="77.5" y1="850.5" x2="458.8" y2="595.1"/>
				<line class="st1" x1="77.5" y1="858.7" x2="458.8" y2="603.2"/>
				<line class="st1" x1="77.5" y1="866.8" x2="458.8" y2="611.4"/>
				<line class="st1" x1="77.5" y1="875" x2="458.8" y2="619.6"/>
				<line class="st1" x1="77.5" y1="883.2" x2="458.8" y2="627.7"/>
				<line class="st1" x1="77.5" y1="891.3" x2="458.8" y2="635.9"/>
				<line class="st1" x1="77.5" y1="899.5" x2="458.8" y2="644"/>
				<line class="st1" x1="77.5" y1="907.6" x2="458.8" y2="652.2"/>
				<line class="st1" x1="77.5" y1="915.8" x2="458.8" y2="660.4"/>
				<line class="st1" x1="77.5" y1="924" x2="458.8" y2="668.5"/>
				<line class="st1" x1="77.5" y1="932.1" x2="458.8" y2="676.7"/>
				<line class="st1" x1="77.5" y1="940.3" x2="458.8" y2="684.8"/>
				<line class="st1" x1="77.5" y1="948.4" x2="458.8" y2="693"/>
				<line class="st1" x1="77.5" y1="956.6" x2="458.8" y2="701.2"/>
				<line class="st1" x1="77.5" y1="964.8" x2="458.8" y2="709.3"/>
				<line class="st1" x1="77.5" y1="972.9" x2="458.8" y2="717.5"/>
				<line class="st1" x1="77.5" y1="981.1" x2="458.8" y2="725.6"/>
				<line class="st1" x1="77.5" y1="989.3" x2="458.8" y2="733.8"/>
				<line class="st1" x1="77.5" y1="997.4" x2="458.8" y2="742"/>
				<line class="st1" x1="77.5" y1="1005.6" x2="458.8" y2="750.1"/>
				<line class="st1" x1="77.5" y1="1013.7" x2="458.8" y2="758.3"/>
				<line class="st1" x1="77.5" y1="1021.9" x2="458.8" y2="766.5"/>
				<line class="st1" x1="77.5" y1="1030.1" x2="458.8" y2="774.6"/>
				<line class="st1" x1="77.5" y1="1038.2" x2="458.8" y2="782.8"/>
				<line class="st1" x1="77.5" y1="1046.4" x2="458.8" y2="790.9"/>
				<line class="st1" x1="77.5" y1="1054.5" x2="458.8" y2="799.1"/>
				<line class="st1" x1="77.5" y1="1062.7" x2="458.8" y2="807.3"/>
				<rect x="156.4" y="-22.5" class="st6" width="194.1" height="831.3"/>
			</g>
		</g>
	</g>
</g>
</svg>
