<svg xmlns="http://www.w3.org/2000/svg" viewBox="0 0 40.87 40.03"><defs><style>.cls-1,.cls-3{fill:#fff;}.cls-2{fill:#0a0a0a;}.cls-3{stroke:#0a0a0a;stroke-miterlimit:10;stroke-width:0.5px;}</style></defs><g id="Layer_2" data-name="Layer 2"><g id="Layer_1-2" data-name="Layer 1"><g id="_64" data-name="64"><path class="cls-1" d="M17.79,39.78A18.49,18.49,0,0,1,6.73,35.86,15.17,15.17,0,0,1,.36,25.45c-.51-4.09.8-7.85,2.23-9.6.1-.12.36-.38.36-.38a4.52,4.52,0,0,1,3-.92,12.55,12.55,0,0,1,3.77.7A26.66,26.66,0,0,1,16,18.36l4.12-1.65a3.32,3.32,0,0,1-.06-.44A4,4,0,0,1,23.66,12H24a4,4,0,0,1,.3,7.89l-.31,0a3.55,3.55,0,0,1-.46,0l-.91,3.89c5.59,5.72,6.38,10.38,4.68,12.46a3.27,3.27,0,0,1-.66.62h0A13.8,13.8,0,0,1,17.79,39.78ZM2.7,22.46a12.2,12.2,0,0,0,0,2.7,12.85,12.85,0,0,0,5.41,8.78,16.11,16.11,0,0,0,9.61,3.42,13.76,13.76,0,0,0,2.5-.23,28.77,28.77,0,0,1-9.8-5.59A28.41,28.41,0,0,1,2.7,22.46ZM6.05,17a2.17,2.17,0,0,0-1.73.57C3,19.2,6.05,24.84,12,29.67c4.77,3.89,9.31,5.63,11.7,5.63A2.7,2.7,0,0,0,25.07,35a1,1,0,0,0,.33-.27.4.4,0,0,0,.07-.12l0-.09h0c.59-1.21-.46-4.24-3.62-7.87L21,30.38a1.18,1.18,0,0,1-1.16.93,1.14,1.14,0,0,1-.28,0,1.2,1.2,0,0,1-.89-1.44l1.23-5.26c-.7-.68-1.44-1.33-2.21-2s-1.37-1.08-2.06-1.56l-4.91,2a1.13,1.13,0,0,1-.45.09,1.19,1.19,0,0,1-1.11-.75,1.21,1.21,0,0,1,.67-1.56l3.32-1.33A22.46,22.46,0,0,0,9,17.53,9.77,9.77,0,0,0,6.05,17Zm12.24,3q.48.36,1,.75c.46.37.89.75,1.31,1.12l.72-3.07Z"/><path class="cls-2" d="M24,12.27a3.68,3.68,0,0,1,2.41.89,3.7,3.7,0,0,1-2.13,6.5l-.29,0a3.68,3.68,0,0,1-.66-.06l-1,4.25c5.25,5.33,6.5,10.09,4.76,12.22a2.6,2.6,0,0,1-.62.57h0a13.52,13.52,0,0,1-8.65,2.86A18.15,18.15,0,0,1,6.88,35.66,14.91,14.91,0,0,1,.61,25.42,13.33,13.33,0,0,1,2.78,16l.34-.36a4.24,4.24,0,0,1,2.79-.85,12.58,12.58,0,0,1,3.7.68,26.62,26.62,0,0,1,6.32,3.16l4.44-1.78a4.09,4.09,0,0,1-.1-.61,3.7,3.7,0,0,1,3.4-4H24m-.27,23.28a3,3,0,0,0,1.51-.32,1.27,1.27,0,0,0,.39-.33.76.76,0,0,0,.12-.19h0c.82-1.47-.65-4.91-3.94-8.58l-1,4.2a.94.94,0,0,1-.92.74.83.83,0,0,1-.22,0A.94.94,0,0,1,19,29.89l1.26-5.4c-.71-.69-1.49-1.38-2.32-2.06s-1.45-1.14-2.19-1.65l-5,2a.94.94,0,0,1-1.23-.52A1,1,0,0,1,10,21l3.78-1.52A23.71,23.71,0,0,0,9,17.29a9.87,9.87,0,0,0-3-.55,2.43,2.43,0,0,0-1.93.66c-1.43,1.76,1.56,7.47,7.71,12.47,4.6,3.75,9.22,5.68,11.86,5.68m-3-13.21.83-3.56.09-.38-.34.14-3.5,1.4c.43.32.87.66,1.3,1s1.11.94,1.62,1.39M17.77,37.61a13.51,13.51,0,0,0,3.56-.47c-2.91-.64-6.61-2.46-10.7-5.8-4.35-3.54-7-7-8.06-9.8a12.24,12.24,0,0,0-.07,3.65,13.11,13.11,0,0,0,5.51,9,16.23,16.23,0,0,0,9.76,3.47M24,11.77h-.32a4.21,4.21,0,0,0-2.87,1.46,4.14,4.14,0,0,0-1,3l0,.26L16,18.08A26.73,26.73,0,0,0,9.76,15a12.8,12.8,0,0,0-3.85-.71,4.71,4.71,0,0,0-3.1,1l0,0h0s-.27.28-.37.4C.93,17.49-.4,21.31.11,25.48A15.39,15.39,0,0,0,6.58,36.06a18.78,18.78,0,0,0,11.21,4,14,14,0,0,0,8.94-3h0a3.31,3.31,0,0,0,.72-.67c1.76-2.15,1-6.9-4.6-12.69l.82-3.54H24l.32,0A4.2,4.2,0,0,0,24,11.77Zm-.27,23.28c-2.35,0-6.82-1.72-11.55-5.57C5.92,24.42,3.43,19.05,4.51,17.72a2,2,0,0,1,1.54-.48,9.59,9.59,0,0,1,2.82.52,22.71,22.71,0,0,1,3.74,1.67L9.78,20.57a1.45,1.45,0,0,0,.53,2.79,1.5,1.5,0,0,0,.55-.11l4.78-1.91c.65.46,1.3,1,1.93,1.48S19,24,19.66,24.66l-1.2,5.12a1.47,1.47,0,0,0,.19,1.1,1.38,1.38,0,0,0,.9.64,1.41,1.41,0,0,0,.33,0,1.44,1.44,0,0,0,1.41-1.12l.76-3.25c2.74,3.28,3.74,6,3.29,7.15h0l-.08.18h0l0,.06a.8.8,0,0,1-.24.2,2.64,2.64,0,0,1-1.27.26Zm-4.9-15,2.13-.86-.51,2.19-1-.84c-.2-.16-.4-.33-.62-.49Zm-1,17a15.93,15.93,0,0,1-9.46-3.37A12.67,12.67,0,0,1,3,25.13a12.68,12.68,0,0,1-.09-1.74,30.22,30.22,0,0,0,7.41,8.34A30.83,30.83,0,0,0,19.18,37c-.47,0-.94.07-1.41.07Z"/><path class="cls-3" d="M24,12.27a3.68,3.68,0,0,1,2.41.89,3.7,3.7,0,0,1-2.13,6.5l-.29,0a3.68,3.68,0,0,1-.66-.06l-1,4.25c5.25,5.33,6.5,10.09,4.76,12.22a2.6,2.6,0,0,1-.62.57h0a13.52,13.52,0,0,1-8.65,2.86A18.15,18.15,0,0,1,6.88,35.66,14.91,14.91,0,0,1,.61,25.42,13.33,13.33,0,0,1,2.78,16l.34-.36a4.24,4.24,0,0,1,2.79-.85,12.58,12.58,0,0,1,3.7.68,26.62,26.62,0,0,1,6.32,3.16l4.44-1.78a4.09,4.09,0,0,1-.1-.61,3.7,3.7,0,0,1,3.4-4H24m-.27,23.28a3,3,0,0,0,1.51-.32,1.27,1.27,0,0,0,.39-.33.76.76,0,0,0,.12-.19h0c.82-1.47-.65-4.91-3.94-8.58l-1,4.2a.94.94,0,0,1-.92.74.83.83,0,0,1-.22,0A.94.94,0,0,1,19,29.89l1.26-5.4c-.71-.69-1.49-1.38-2.32-2.06s-1.45-1.14-2.19-1.65l-5,2a.94.94,0,0,1-1.23-.52A1,1,0,0,1,10,21l3.78-1.52A23.71,23.71,0,0,0,9,17.29a9.87,9.87,0,0,0-3-.55,2.43,2.43,0,0,0-1.93.66c-1.43,1.76,1.56,7.47,7.71,12.47,4.6,3.75,9.22,5.68,11.86,5.68m-3-13.21.83-3.56.09-.38-.34.14-3.5,1.4c.43.32.87.66,1.3,1s1.11.94,1.62,1.39M17.77,37.61a13.51,13.51,0,0,0,3.56-.47c-2.91-.64-6.61-2.46-10.7-5.8-4.35-3.54-7-7-8.06-9.8a12.24,12.24,0,0,0-.07,3.65,13.11,13.11,0,0,0,5.51,9,16.23,16.23,0,0,0,9.76,3.47M24,12.12h-.3a3.87,3.87,0,0,0-3.54,4.13c0,.18,0,.35.07.51L16,18.47a26.89,26.89,0,0,0-6.3-3.13,12.33,12.33,0,0,0-3.74-.69A4.44,4.44,0,0,0,3,15.53s-.27.27-.36.38C1.25,17.65,0,21.37.46,25.44A15,15,0,0,0,6.79,35.78a18.45,18.45,0,0,0,11,3.9,13.73,13.73,0,0,0,8.73-2.88h0a3.76,3.76,0,0,0,.65-.6c2.31-2.84-.82-8.39-4.72-12.37l.94-4a4.9,4.9,0,0,0,.54,0l.3,0a3.85,3.85,0,0,0,2.22-6.76A3.9,3.9,0,0,0,24,12.12ZM23.69,35.4c-2.41,0-7-1.74-11.77-5.65a29.11,29.11,0,0,1-6.66-7.41c-1.3-2.21-1.68-4-1-4.84a2.25,2.25,0,0,1,1.81-.61A10,10,0,0,1,9,17.43a22.61,22.61,0,0,1,4.44,2.06l-3.51,1.4a1.1,1.1,0,0,0-.61,1.43,1.08,1.08,0,0,0,1,.69,1.2,1.2,0,0,0,.42-.08l4.95-2c.71.49,1.42,1,2.11,1.6s1.54,1.3,2.26,2l-1.24,5.32a1.12,1.12,0,0,0,.13.84,1.07,1.07,0,0,0,.69.48.9.9,0,0,0,.25,0A1.1,1.1,0,0,0,21,30.36l.91-3.92c3,3.39,4.51,6.71,3.75,8.16h0l0,.06a.5.5,0,0,1-.1.14,1,1,0,0,1-.34.29,2.82,2.82,0,0,1-1.44.31ZM18.09,20l3.25-1.3.08,0,0,.09-.78,3.32c-.4-.36-.9-.79-1.43-1.22-.34-.28-.7-.56-1.1-.86Zm-.32,17.48A16.24,16.24,0,0,1,8.1,34a13,13,0,0,1-5.45-8.85,12.21,12.21,0,0,1,0-3.08c1.33,3,4.11,6.29,7.89,9.37,4.41,3.59,7.88,5.08,10.16,5.68a13.4,13.4,0,0,1-2.92.32Z"/></g><path class="cls-1" d="M33.48,15.2A1.25,1.25,0,0,1,32.24,14a5.33,5.33,0,0,0-5.33-5.33,1.24,1.24,0,1,1,0-2.47,7.81,7.81,0,0,1,7.8,7.8A1.24,1.24,0,0,1,33.48,15.2Z"/><path class="cls-2" d="M26.91,6.41A7.56,7.56,0,0,1,34.46,14a1,1,0,1,1-2,0,5.58,5.58,0,0,0-5.58-5.58,1,1,0,1,1,0-2m0-.5a1.49,1.49,0,1,0,0,3A5.09,5.09,0,0,1,32,14a1.49,1.49,0,1,0,3,0,8.06,8.06,0,0,0-8-8Z"/><path class="cls-3" d="M26.91,6.41A7.56,7.56,0,0,1,34.46,14a1,1,0,1,1-2,0,5.58,5.58,0,0,0-5.58-5.58,1,1,0,1,1,0-2m0-.15a1.14,1.14,0,1,0,0,2.27A5.44,5.44,0,0,1,32.34,14a1.14,1.14,0,1,0,2.27,0,7.71,7.71,0,0,0-7.7-7.7Z"/><path class="cls-1" d="M39.39,15.2A1.25,1.25,0,0,1,38.15,14,11.25,11.25,0,0,0,26.91,2.72a1.24,1.24,0,1,1,0-2.47A13.73,13.73,0,0,1,40.62,14,1.24,1.24,0,0,1,39.39,15.2Z"/><path class="cls-2" d="M26.91.5A13.48,13.48,0,0,1,40.37,14a1,1,0,1,1-2,0A11.5,11.5,0,0,0,26.91,2.47a1,1,0,1,1,0-2m0-.5a1.49,1.49,0,0,0-1.49,1.49A1.49,1.49,0,0,0,26.91,3a11,11,0,0,1,11,11,1.49,1.49,0,1,0,3,0,14,14,0,0,0-14-14Z"/><path class="cls-3" d="M26.91.5A13.48,13.48,0,0,1,40.37,14a1,1,0,1,1-2,0A11.5,11.5,0,0,0,26.91,2.47a1,1,0,1,1,0-2m0-.15a1.14,1.14,0,1,0,0,2.27A11.36,11.36,0,0,1,38.25,14a1.14,1.14,0,1,0,2.27,0A13.62,13.62,0,0,0,26.91.35Z"/></g></g></svg>