<svg xmlns="http://www.w3.org/2000/svg" viewBox="0 0 103.58 18.18"><defs><style>.cls-1{fill:#231f20;}</style></defs><g id="Layer_2" data-name="Layer 2"><g id="Layer_1-2" data-name="Layer 1"><path class="cls-1" d="M5.31.24V1.33h-4V3.68H4.83v1H1.26V8.2H0v-8Z"/><path class="cls-1" d="M12.71,4.21c0,2.56-1.18,4.15-3.09,4.15S6.52,6.78,6.51,4.22,7.69.07,9.61.07,12.7,1.64,12.71,4.21Zm-4.86,0c0,1.9.68,3.07,1.76,3.07s1.76-1.17,1.76-3.07S10.7,1.12,9.61,1.12,7.85,2.31,7.85,4.21Z"/><path class="cls-1" d="M20.4,4.2c0,2.56-1.17,4.15-3.08,4.15s-3.1-1.58-3.11-4.14S15.39.06,17.3.06,20.4,1.64,20.4,4.2Zm-4.85,0c0,1.89.68,3.06,1.76,3.06S19.07,6.1,19.07,4.2s-.67-3.09-1.76-3.09S15.55,2.3,15.55,4.21Z"/><path class="cls-1" d="M28.1,4.19c0,2.57-1.17,4.15-3.09,4.15s-3.09-1.58-3.1-4.14S23.09.05,25,.05,28.1,1.63,28.1,4.19Zm-4.85,0c0,1.89.68,3.06,1.76,3.06s1.76-1.17,1.76-3.07S26.1,1.1,25,1.1,23.25,2.29,23.25,4.2Z"/><path class="cls-1" d="M35.8,4.18c0,2.57-1.17,4.15-3.09,4.15s-3.09-1.58-3.1-4.14S30.79,0,32.7,0,35.8,1.62,35.8,4.18ZM31,4.19c0,1.89.68,3.06,1.76,3.06s1.76-1.17,1.76-3.07-.68-3.09-1.76-3.09S31,2.28,31,4.19Z"/><path class="cls-1" d="M43.5,4.17c0,2.57-1.17,4.15-3.09,4.15s-3.09-1.58-3.1-4.14S38.49,0,40.4,0,43.5,1.61,43.5,4.17Zm-4.85,0c0,1.89.68,3.06,1.76,3.06s1.76-1.17,1.76-3.07-.68-3.09-1.77-3.09S38.65,2.27,38.65,4.18Z"/><path class="cls-1" d="M50.55.18V1.26H46.86L46.6,3.61h0A2.45,2.45,0,0,1,48.38,3a2.51,2.51,0,0,1,2.68,2.57,2.77,2.77,0,0,1-3,2.73,4.16,4.16,0,0,1-2.91-1.05l.75-.85A3.26,3.26,0,0,0,48,7.24a1.65,1.65,0,0,0,1.7-1.67A1.49,1.49,0,0,0,48.08,4a2,2,0,0,0-1.62.81l-1.11-.23L45.76.19Z"/><path class="cls-1" d="M54.14.18V3.43h3.92V.17h1.26v8H58.06V4.54H54.15v3.6H52.89v-8Z"/><path class="cls-1" d="M67.19,4.14c0,2.57-1.17,4.15-3.09,4.15S61,6.72,61,4.15,62.17,0,64.09,0,67.19,1.58,67.19,4.14Zm-4.86,0c0,1.9.69,3.06,1.77,3.06S65.86,6,65.85,4.14s-.67-3.09-1.76-3.09S62.33,2.24,62.33,4.15Z"/><path class="cls-1" d="M71.33,1.37a15,15,0,0,1-1.9.54l-.26-1A9.72,9.72,0,0,0,71.66,0h1V8.12H71.34Z"/><path class="cls-1" d="M79.64,3.93v1H76.36v-1Z"/><path class="cls-1" d="M81.89.15,84,3.2,86,.14H87.6L84.76,4l3,4.06H86.16L84,4.91l-2.19,3.2H80.15l3-4.06L80.31.15Z"/><path class="cls-1" d="M89.79.14l2.06,3.05L93.92.13H95.5L92.65,4l3,4.06H94.05L91.86,4.9,89.67,8.1H88.05l3-4.06L88.21.14Z"/><path class="cls-1" d="M97.68.13l2.07,3.05L101.81.12h1.58L100.55,4l3,4.06H102l-2.2-3.19-2.19,3.2H95.94L99,4,96.1.13Z"/><path class="cls-1" d="M5.32,10.06v1.09H1.27V13.5H4.84v1H1.27V18H0v-8Z"/><path class="cls-1" d="M12.72,14c0,2.56-1.18,4.15-3.09,4.15S6.53,16.6,6.53,14,7.7,9.89,9.62,9.89,12.71,11.46,12.72,14ZM7.86,14c0,1.89.68,3.06,1.77,3.06s1.75-1.17,1.75-3.07-.67-3.09-1.76-3.09S7.86,12.13,7.86,14Z"/><path class="cls-1" d="M20.42,14c0,2.56-1.18,4.15-3.09,4.15s-3.1-1.58-3.1-4.14,1.17-4.15,3.09-4.15S20.41,11.46,20.42,14Zm-4.86,0c0,1.89.68,3.06,1.77,3.06s1.75-1.17,1.75-3.07-.67-3.09-1.76-3.09S15.56,12.12,15.56,14Z"/><path class="cls-1" d="M28.12,14c0,2.57-1.18,4.15-3.09,4.15s-3.1-1.58-3.1-4.14S23.1,9.87,25,9.87,28.11,11.45,28.12,14Zm-4.86,0c0,1.89.68,3.06,1.76,3.06s1.76-1.17,1.76-3.07-.67-3.09-1.76-3.09S23.26,12.11,23.26,14Z"/><path class="cls-1" d="M35.82,14c0,2.57-1.18,4.15-3.09,4.15s-3.1-1.58-3.11-4.14,1.18-4.15,3.09-4.15S35.81,11.44,35.82,14ZM31,14c0,1.89.68,3.06,1.76,3.06S34.48,15.9,34.48,14s-.67-3.09-1.76-3.09S31,12.1,31,14Z"/><path class="cls-1" d="M43.51,14c0,2.57-1.17,4.15-3.09,4.15s-3.09-1.58-3.1-4.14,1.18-4.15,3.09-4.15S43.51,11.43,43.51,14Zm-4.85,0c0,1.89.68,3.06,1.76,3.06s1.76-1.17,1.76-3.07-.67-3.09-1.76-3.09S38.66,12.09,38.66,14Z"/><path class="cls-1" d="M50.56,10v1.08H46.87l-.26,2.34h0a2.47,2.47,0,0,1,1.74-.6,2.51,2.51,0,0,1,2.68,2.57,2.77,2.77,0,0,1-3,2.73,4.18,4.18,0,0,1-2.91-1.05l.75-.85a3.28,3.28,0,0,0,2.13.83,1.64,1.64,0,0,0,1.7-1.67,1.49,1.49,0,0,0-1.63-1.59,2,2,0,0,0-1.62.81l-1.11-.23L45.78,10Z"/><path class="cls-1" d="M54.15,10v3.25h3.91V10h1.26v8H58.07V14.36H54.16V18H52.9V10Z"/><path class="cls-1" d="M67.2,14c0,2.57-1.17,4.15-3.09,4.15S61,16.54,61,14s1.17-4.15,3.09-4.15S67.2,11.4,67.2,14Zm-4.85,0c0,1.9.68,3.06,1.76,3.06s1.76-1.17,1.76-3.07-.68-3.09-1.77-3.09S62.34,12.06,62.35,14Z"/><path class="cls-1" d="M68.84,16.9a5.31,5.31,0,0,1,2.45-2.84l.25-.16c1.33-.86,1.65-1.21,1.65-1.86s-.62-1.17-1.49-1.17a2.45,2.45,0,0,0-2,1l-.82-.71a3.45,3.45,0,0,1,2.9-1.36c1.59,0,2.79.95,2.79,2.22A1.91,1.91,0,0,1,74,13.5a5.93,5.93,0,0,1-1.41,1l-.18.11-.31.19c-1.18.73-1.82,1.38-1.93,2h4.49v1.14H68.84Z"/><path class="cls-1" d="M79.65,13.75v1H76.37v-1Z"/><path class="cls-1" d="M81.9,10,84,13,86,10h1.58l-2.84,3.9,3,4.06H86.17L84,14.73l-2.18,3.2H80.17l3-4.06L80.32,10Z"/><path class="cls-1" d="M89.8,10l2.07,3L93.93,10h1.58l-2.85,3.9,3,4.06H94.06l-2.19-3.19-2.19,3.2H88.06l3-4.06L88.22,10Z"/><path class="cls-1" d="M97.7,10,99.76,13l2.06-3.06h1.58l-2.84,3.9,3,4.06H102l-2.2-3.19-2.18,3.2H96l3-4.06L96.11,10Z"/></g></g></svg>