<svg xmlns="http://www.w3.org/2000/svg" viewBox="0 0 40.37 40.37"><defs><style>.cls-1{fill:#ff3f59;}</style></defs><g id="Layer_2" data-name="Layer 2"><g id="Layer_1-2" data-name="Layer 1"><path class="cls-1" d="M20.19,40.25A20,20,0,0,1,5.87,6.15l.22-.23A20.05,20.05,0,0,1,34.5,34.22l-.2.21A19.94,19.94,0,0,1,20.19,40.25ZM6.82,8.4A17.82,17.82,0,0,0,32,33.55ZM33.55,32A17.82,17.82,0,0,0,8.4,6.82Z"/><path class="cls-1" d="M20.19.25A19.92,19.92,0,0,1,34.41,34.13l0,.06a1.21,1.21,0,0,0-.16.16A19.93,19.93,0,0,1,6,6.24a.1.1,0,0,0,0,0L6.19,6a.1.1,0,0,0,0,0,19.86,19.86,0,0,1,14-5.71M33.56,32.16A17.95,17.95,0,0,0,8.22,6.81L33.56,32.16m-13.37,6a17.88,17.88,0,0,0,12-4.58L6.81,8.22A17.95,17.95,0,0,0,20.19,38.14M20.19,0A20.06,20.06,0,0,0,6.06,5.78l0,0,0,0L5.84,6l0,0,0,0A20.18,20.18,0,0,0,34.38,34.53a1.21,1.21,0,0,1,.16-.16l0,0,0,0A20.17,20.17,0,0,0,20.19,0ZM8.58,6.83a17.7,17.7,0,0,1,25,25l-25-25ZM20.19,37.89A17.69,17.69,0,0,1,6.83,8.58l25,25a17.7,17.7,0,0,1-11.61,4.34Z"/></g></g></svg>