<svg xmlns="http://www.w3.org/2000/svg" viewBox="0 0 40.87 31.01"><defs><style>.cls-1,.cls-3{fill:#fff;}.cls-2{fill:#0a0a0a;}.cls-3{stroke:#0a0a0a;stroke-miterlimit:10;stroke-width:0.5px;}</style></defs><g id="Layer_2" data-name="Layer 2"><g id="Layer_1-2" data-name="Layer 1"><path class="cls-1" d="M31.51,21.18a1.22,1.22,0,0,1-.87-.35,1.25,1.25,0,0,1,0-1.77,5.43,5.43,0,0,0-.14-7.66,1.2,1.2,0,0,1-.38-.87,1.24,1.24,0,0,1,.35-.9,1.27,1.27,0,0,1,.9-.38,1.3,1.3,0,0,1,.87.35,7.94,7.94,0,0,1,.2,11.2A1.23,1.23,0,0,1,31.51,21.18Z"/><path class="cls-2" d="M31.34,9.5a1,1,0,0,1,.69.28,7.68,7.68,0,0,1,.2,10.85,1,1,0,0,1-1.42,0,1,1,0,0,1,0-1.41,5.68,5.68,0,0,0-.15-8,1,1,0,0,1,0-1.41,1,1,0,0,1,.72-.31m0-.5h0a1.51,1.51,0,0,0-1.08.46,1.48,1.48,0,0,0-.42,1.07,1.5,1.5,0,0,0,.46,1.05,5.18,5.18,0,0,1,.13,7.31,1.5,1.5,0,0,0,0,2.12,1.54,1.54,0,0,0,1.05.42A1.51,1.51,0,0,0,32.59,21a8.2,8.2,0,0,0-.21-11.56,1.49,1.49,0,0,0-1-.42Z"/><path class="cls-3" d="M31.51,21.08a1.12,1.12,0,0,1-.8-.32,1.15,1.15,0,0,1,0-1.63,5.52,5.52,0,0,0-.14-7.8,1.15,1.15,0,0,1,.78-2,1.1,1.1,0,0,1,.82.33,7.82,7.82,0,0,1,.19,11.05A1.1,1.1,0,0,1,31.51,21.08Z"/><path class="cls-1" d="M35.83,25.35a1.25,1.25,0,0,1-1.25-1.23,1.2,1.2,0,0,1,.35-.89,11.44,11.44,0,0,0-.29-16.15,1.2,1.2,0,0,1-.38-.87,1.26,1.26,0,0,1,1.25-1.28,1.3,1.3,0,0,1,.87.35A13.94,13.94,0,0,1,36.72,25,1.19,1.19,0,0,1,35.83,25.35Z"/><path class="cls-2" d="M35.51,5.18a1,1,0,0,1,.69.28,13.69,13.69,0,0,1,.34,19.34,1,1,0,0,1-.72.3,1,1,0,0,1-.69-.28,1,1,0,0,1,0-1.41,11.7,11.7,0,0,0-.3-16.51,1,1,0,0,1,0-1.41,1,1,0,0,1,.72-.31m0-.5h0a1.5,1.5,0,0,0-1,2.58,11.2,11.2,0,0,1,.28,15.8,1.49,1.49,0,0,0,1.07,2.54,1.45,1.45,0,0,0,1.08-.46,14.19,14.19,0,0,0-.35-20,1.49,1.49,0,0,0-1-.42Z"/><path class="cls-3" d="M35.82,25.25a1.11,1.11,0,0,1-.79-.32h0a1.15,1.15,0,0,1,0-1.63A11.54,11.54,0,0,0,34.71,7a1.15,1.15,0,1,1,1.6-1.65,13.83,13.83,0,0,1,.34,19.54A1.14,1.14,0,0,1,35.82,25.25Z"/><path class="cls-1" d="M19.51,30.76a1.27,1.27,0,0,1-.78-.27L9.06,22.76H1.5A1.25,1.25,0,0,1,.25,21.51V9.5A1.25,1.25,0,0,1,1.5,8.25H9.06L18.73.52a1.27,1.27,0,0,1,.78-.27,1.29,1.29,0,0,1,.54.12,1.26,1.26,0,0,1,.71,1.13v28a1.24,1.24,0,0,1-1.25,1.25Zm-10-10.5a1.32,1.32,0,0,1,.79.27l8,6.38V4.1l-8,6.38a1.26,1.26,0,0,1-.79.27H2.75v9.51Z"/><path class="cls-2" d="M19.51.5a1,1,0,0,1,.43.1,1,1,0,0,1,.57.9v28a1,1,0,0,1-.57.9.94.94,0,0,1-.43.1,1,1,0,0,1-.63-.22L9.15,22.51H1.5a1,1,0,0,1-1-1V9.5a1,1,0,0,1,1-1H9.15L18.88.72A1,1,0,0,1,19.51.5m-17,20h7a1,1,0,0,1,.63.22l8.38,6.7V3.58l-8.38,6.7a1,1,0,0,1-.63.22h-7v10M19.51,0h0a1.51,1.51,0,0,0-.94.33L9,8H1.5A1.5,1.5,0,0,0,0,9.5v12A1.5,1.5,0,0,0,1.5,23H9l9.59,7.67a1.51,1.51,0,0,0,.94.33,1.47,1.47,0,0,0,.65-.15A1.5,1.5,0,0,0,21,29.51V1.5A1.52,1.52,0,0,0,20.16.15,1.47,1.47,0,0,0,19.51,0ZM3,11H9.5a1.51,1.51,0,0,0,.94-.32L18,4.62V26.39l-7.57-6.05A1.46,1.46,0,0,0,9.5,20H3V11Z"/></g></g></svg>