<?xml version="1.0" encoding="utf-8"?>
<!-- Generator: Adobe Illustrator 26.0.1, SVG Export Plug-In . SVG Version: 6.00 Build 0)  -->
<svg version="1.1" id="Layer_1" xmlns="http://www.w3.org/2000/svg" xmlns:xlink="http://www.w3.org/1999/xlink" x="0px" y="0px"
	 viewBox="0 0 523.9 356" style="enable-background:new 0 0 523.9 356;" xml:space="preserve">
<style type="text/css">
	.st0{clip-path:url(#SVGID_00000012431190107241766430000004828669964704814480_);}
	.st1{fill:#E3FFFF;}
	.st2{fill:#6B6B6B;}
	.st3{fill:none;stroke:#343536;stroke-width:0.5;stroke-miterlimit:10;}
	.st4{fill:#013C6D;}
	.st5{fill:none;stroke:#221F20;stroke-width:0.5;stroke-miterlimit:10;}
	.st6{clip-path:url(#SVGID_00000027597302264346580780000016530197344682483338_);}
	.st7{fill:none;stroke:#FCFCFC;stroke-width:0.5;stroke-miterlimit:10;}
	.st8{fill:#E9EBED;}
	.st9{clip-path:url(#SVGID_00000049199144161934694000000015812580715298684844_);}
	.st10{clip-path:url(#SVGID_00000094595889833201677770000015471259898062705031_);}
	.st11{fill:none;stroke:#45C7A3;stroke-width:5;stroke-miterlimit:10;stroke-dasharray:6,3;}
	.st12{fill:#FF3F59;}
	.st13{fill:#FF3F59;stroke:#FF3F59;stroke-width:0.25;stroke-miterlimit:10;}
	.st14{fill:#FFFFFF;stroke:#0A0A0A;stroke-width:0.5;stroke-miterlimit:10;}
	.st15{fill:none;stroke:#45C7A3;stroke-miterlimit:10;stroke-dasharray:7,3;}
	.st16{fill:none;stroke:#45C7A3;stroke-miterlimit:10;}
	.st17{fill:#45C7A3;}
	.st18{fill:none;stroke:#342C26;stroke-width:2;stroke-miterlimit:10;}
	.st19{fill:#FCFCFC;}
	.st20{fill:#231F20;}
	.st21{fill-rule:evenodd;clip-rule:evenodd;fill:#484949;}
	.st22{fill-rule:evenodd;clip-rule:evenodd;fill:#EDA070;}
	.st23{fill:#333333;}
	.st24{fill-rule:evenodd;clip-rule:evenodd;fill:#573A3A;}
	.st25{fill-rule:evenodd;clip-rule:evenodd;fill:#4C4C4C;}
	.st26{fill-rule:evenodd;clip-rule:evenodd;fill:#333333;}
	.st27{fill-rule:evenodd;clip-rule:evenodd;fill:#191919;}
	.st28{fill-rule:evenodd;clip-rule:evenodd;fill:#FF6600;}
	.st29{fill-rule:evenodd;clip-rule:evenodd;fill:#2E2111;}
	.st30{fill-rule:evenodd;clip-rule:evenodd;fill:#A84C3D;}
	.st31{fill:#999999;}
	.st32{fill-rule:evenodd;clip-rule:evenodd;fill:#0084D6;}
	.st33{fill-rule:evenodd;clip-rule:evenodd;fill:#00CCFF;}
	.st34{fill-rule:evenodd;clip-rule:evenodd;fill:url(#SVGID_00000132071149867086085210000018370684464485604488_);}
	.st35{fill:#B2B2B2;}
	.st36{fill:#666666;}
	.st37{fill-rule:evenodd;clip-rule:evenodd;fill:#7FE5FF;}
	.st38{fill-rule:evenodd;clip-rule:evenodd;fill:#9B9B9A;}
	.st39{fill-rule:evenodd;clip-rule:evenodd;fill:#0090DC;}
	.st40{fill-rule:evenodd;clip-rule:evenodd;fill:#666666;}
	.st41{fill-rule:evenodd;clip-rule:evenodd;fill:url(#SVGID_00000096044090141782860760000015067274463541658513_);}
	.st42{fill-rule:evenodd;clip-rule:evenodd;fill:url(#SVGID_00000056412895856634647460000015029047244651399585_);}
	.st43{fill-rule:evenodd;clip-rule:evenodd;fill:url(#SVGID_00000079470300708381604150000006922558067237741987_);}
	.st44{fill-rule:evenodd;clip-rule:evenodd;fill:url(#SVGID_00000075129933041722940900000005647443413296334780_);}
	.st45{fill-rule:evenodd;clip-rule:evenodd;fill:url(#SVGID_00000000197914442547438150000011428976277543579801_);}
	.st46{fill-rule:evenodd;clip-rule:evenodd;fill:url(#SVGID_00000132058391068020293830000000167640000989317301_);}
	.st47{fill-rule:evenodd;clip-rule:evenodd;fill:#706F6F;}
	.st48{fill-rule:evenodd;clip-rule:evenodd;fill:#C8C8C8;}
	.st49{fill-rule:evenodd;clip-rule:evenodd;fill:#C6C6C6;}
	.st50{fill-rule:evenodd;clip-rule:evenodd;fill:#DADADA;}
	.st51{fill-rule:evenodd;clip-rule:evenodd;fill:#FCC39A;}
	.st52{fill:#191919;}
	.st53{fill-rule:evenodd;clip-rule:evenodd;fill:#694C4C;}
	.st54{fill-rule:evenodd;clip-rule:evenodd;fill:#0741B5;}
	.st55{fill-rule:evenodd;clip-rule:evenodd;fill:#185ADE;}
	.st56{fill-rule:evenodd;clip-rule:evenodd;fill:#428AFF;}
	.st57{fill-rule:evenodd;clip-rule:evenodd;fill:#FF0000;}
	.st58{fill-rule:evenodd;clip-rule:evenodd;fill:#221F1F;}
	.st59{fill-rule:evenodd;clip-rule:evenodd;fill:#4F2B0C;}
	.st60{fill:#C6C6C6;}
	.st61{fill-rule:evenodd;clip-rule:evenodd;fill:#E5E5E5;}
</style>
<g id="Layer_2_00000047025136403933788690000010973541135577366918_">
	<g id="Layer_1-2">
		<g>
			<defs>
				<rect id="SVGID_1_" x="3.9" y="4.4" width="138.4" height="347.9"/>
			</defs>
			<clipPath id="SVGID_00000030458678553278894110000003080342545140877197_">
				<use xlink:href="#SVGID_1_"  style="overflow:visible;"/>
			</clipPath>
			<g style="clip-path:url(#SVGID_00000030458678553278894110000003080342545140877197_);">
				<rect x="-160.8" y="-54.9" class="st1" width="377.2" height="348.1"/>
				<path class="st2" d="M142.3,2.5v349.8H3.9v-288c10.7-27.8,30.6-50,54-61.5"/>
				<path class="st3" d="M142.3,2.8v349.5H3.9v-289c11.4-27.1,30.6-48.7,54-60.2C57.9,3.1,142.1,2.6,142.3,2.8z"/>
				<path class="st4" d="M83.1-20.4v313.5c0,0-1.5,21.2,20.1,36.4s47.8,17.1,47.8,17.1V-18.8C151-18.8,81.5-20.4,83.1-20.4z"/>
				<path class="st5" d="M83.1-20.4v313.5c0,0-0.8,22.4,20.8,37.6s47.2,16,47.2,16V-18.8C151.1-18.8,81.5-20.4,83.1-20.4z"/>
				<g>
					<defs>
						<path id="SVGID_00000096764150886468116270000002483949334353489025_" d="M83.1-20.4v313.5c0,0-1.5,21.2,20.1,36.4
							s47.8,17.1,47.8,17.1V-18.8C151-18.8,81.5-20.4,83.1-20.4z"/>
					</defs>
					<clipPath id="SVGID_00000076594621888168669460000012541662419907294613_">
						<use xlink:href="#SVGID_00000096764150886468116270000002483949334353489025_"  style="overflow:visible;"/>
					</clipPath>
					<g style="clip-path:url(#SVGID_00000076594621888168669460000012541662419907294613_);">
						<path class="st7" d="M171.1,315.7c0,0-54.1,2.4-62.9-70.9S91.5,50.6,91.5,50.6l-4-61.3"/>
						<path class="st7" d="M107.7,233.4c0,0,8.2-13.1,17.2-48.4s16.4-83.8,7.4-133c-4.4-24.1-7.7-32.1-18.6-32.1
							c-8.2,0-22.5,28.7-22.5,28.7"/>
					</g>
				</g>
				<path class="st8" d="M38.1,157.3c-10.8,95-11.6,199-11.6,199L10.5,354c0,0,4.3-106.1,19.2-200.7C42.7,71.6,63.7-1.4,63.7-1.4
					l2.8-1.5C66.5-2.9,47.7,73.4,38.1,157.3z"/>
				<path class="st3" d="M96.7,247c0,0-4.7,15.5-7.8,9.3c-3.1-6.2-3.9-14.7-1.5-20.2s7.8,1.6,7.8,1.6L96.7,247z"/>
			</g>
		</g>
		<g>
			<defs>
				<rect id="SVGID_00000088096448726104603490000000393404351566640542_" x="142.3" y="4.3" width="377.2" height="348.1"/>
			</defs>
			<clipPath id="SVGID_00000102523881694062481830000008407640346793288329_">
				<use xlink:href="#SVGID_00000088096448726104603490000000393404351566640542_"  style="overflow:visible;"/>
			</clipPath>
			<g style="clip-path:url(#SVGID_00000102523881694062481830000008407640346793288329_);">
				<rect x="142.3" y="4.3" class="st1" width="377.2" height="348.1"/>
				<path class="st2" d="M290.8-56.8c0,0-92.9,50.2-118.9,208.1s-18.6,287.9-18.6,287.9L588,418.7L576.9-60.6L290.8-56.8z"/>
				<g>
					<defs>
						<path id="SVGID_00000155866605642767318300000016820659530527571329_" d="M290.8-56.8c0,0-92.9,50.2-118.9,208.1
							s-18.6,287.9-18.6,287.9L588,418.7L576.9-60.6L290.8-56.8z"/>
					</defs>
					<clipPath id="SVGID_00000166667423706028066430000009361597490711399338_">
						<use xlink:href="#SVGID_00000155866605642767318300000016820659530527571329_"  style="overflow:visible;"/>
					</clipPath>
					<g style="clip-path:url(#SVGID_00000166667423706028066430000009361597490711399338_);">
						<path class="st8" d="M330.3,217.8c103.3-13.2,215.8-11.9,215.8-11.9l-2.9-15.9c0,0-114.8,0.3-217.6,17.6
							c-88.7,15-168.4,44.5-168.4,44.5l-1.6,2.9C155.6,255.1,239.1,229.5,330.3,217.8z"/>
						<path class="st8" d="M316.8,95.7c101.8-49.1,213.7-75,213.7-75L524,0.9c0,0-116.4,34.5-214.6,84.3
							c-80.2,40.7-157,129.2-157,129.2l-1.1,3.1C151.3,217.4,233.9,135.6,316.8,95.7z"/>
					</g>
				</g>
				<path class="st5" d="M290.8-56.8c0,0-92.9,50.2-118.9,208.1s-18.6,287.9-18.6,287.9L588,418.7L576.9-60.6L290.8-56.8z"/>
				<path class="st4" d="M366.9,381.8l-4.8-65.6c0,0-0.8-27.2-40-29.6s-186.3-0.6-186.3-0.6l1.6,88.5
					C137.4,374.6,370.1,381.8,366.9,381.8z"/>
				<path class="st5" d="M366.9,381.8l-4.8-65.6c0,0-0.8-27.2-40-29.6s-186.3-0.1-186.3-0.1l1.6,88
					C137.4,374.6,370.1,381.8,366.9,381.8z"/>
			</g>
		</g>
		<line class="st11" x1="175.6" y1="264.6" x2="175.3" y2="212.4"/>
		<line class="st11" x1="185.1" y1="264.6" x2="184.7" y2="212.4"/>
		<line class="st11" x1="199.5" y1="264.6" x2="199.1" y2="212.4"/>
		<path class="st12" d="M185.1,61.8c-13.2,0-23.9-10.7-23.8-23.9c0-6.2,2.5-12.2,6.8-16.7c0.1-0.1,0.2-0.2,0.3-0.3
			c9.8-8.8,24.9-8,33.7,1.8c8.1,9.1,8.1,22.8,0,31.8l-0.2,0.2C197.4,59.3,191.4,61.8,185.1,61.8z M169.2,23.9
			c-7.7,8.8-6.8,22.3,2,30c8,7,20,7,28,0L169.2,23.9z M201,52c7.7-8.8,6.8-22.3-2-30c-8-7-20-7-28,0L201,52z"/>
		<path class="st12" d="M185.1,14.2c13.1,0,23.8,10.6,23.8,23.7c0,6.2-2.4,12.2-6.8,16.7l-0.1,0.1l-0.2,0.2
			c-9.2,9.3-24.3,9.4-33.6,0.1c-9.3-9.2-9.4-24.3-0.1-33.6v-0.1l0.2-0.2l0.1,0C172.9,16.6,178.9,14.2,185.1,14.2 M201,52.2
			c7.9-8.8,7.2-22.3-1.6-30.2c-8.1-7.3-20.5-7.3-28.6,0L201,52.2 M185.1,59.4c5.3,0,10.3-1.9,14.3-5.5l-30.2-30.2
			c-7.9,8.8-7.1,22.3,1.7,30.2C174.8,57.4,179.8,59.4,185.1,59.4 M185.1,14c-6.3,0-12.3,2.5-16.8,6.9l0,0l0,0
			c-0.1,0.1-0.1,0.1-0.2,0.2l0,0l0,0c-9.2,9.6-8.9,24.8,0.7,33.9c9.3,8.9,24,8.9,33.3-0.1c0.1-0.1,0.1-0.1,0.2-0.2l0,0l0,0
			c9.3-9.5,9.1-24.7-0.4-33.9C197.4,16.4,191.4,14,185.1,14z M171.2,22c8.8-7.7,22.1-6.8,29.8,2c7,8,7,19.8,0,27.8L171.2,22z
			 M185.1,59.1c-11.7,0-21.1-9.5-21.1-21.2c0-5.1,1.8-10,5.2-13.8L199,53.9C195.2,57.3,190.2,59.1,185.1,59.1z"/>
		<path class="st13" d="M185.1,14.2c13.1,0,23.8,10.6,23.8,23.7c0,6.2-2.4,12.2-6.8,16.7l-0.1,0.1l-0.2,0.2
			c-9.2,9.3-24.3,9.4-33.6,0.1c-9.3-9.2-9.4-24.3-0.1-33.6v-0.1l0.2-0.2l0.1,0C172.9,16.6,178.9,14.2,185.1,14.2 M201,52.2
			c7.9-8.8,7.2-22.3-1.6-30.2c-8.1-7.3-20.5-7.3-28.6,0L201,52.2 M185.1,59.4c5.3,0,10.3-1.9,14.3-5.5l-30.2-30.2
			c-7.9,8.8-7.1,22.3,1.7,30.2C174.8,57.4,179.8,59.4,185.1,59.4 M185.1,14c-6.3,0-12.3,2.5-16.8,6.9l0,0l0,0
			c-0.1,0.1-0.1,0.1-0.2,0.2l0,0l0,0c-9.2,9.6-8.9,24.8,0.7,33.9c9.3,8.9,24,8.9,33.3-0.1c0.1-0.1,0.1-0.1,0.2-0.2l0,0l0,0
			c9.3-9.5,9.1-24.7-0.4-33.9C197.4,16.4,191.4,14,185.1,14z M171.2,22c8.8-7.7,22.1-6.8,29.8,2c7,8,7,19.8,0,27.8L171.2,22z
			 M185.1,59.1c-11.7,0-21.1-9.5-21.1-21.2c0-5.1,1.8-10,5.2-13.8L199,53.9C195.2,57.3,190.2,59.1,185.1,59.1z"/>
		<path class="st14" d="M424.9,44.1c-0.5-0.5-0.5-1.2,0-1.7c2.6-2.7,2.5-7-0.2-9.5c-0.5-0.5-0.5-1.2,0-1.7s1.2-0.5,1.7,0
			c3.6,3.5,3.7,9.3,0.2,12.9C426.1,44.5,425.4,44.6,424.9,44.1C424.9,44.1,424.9,44.1,424.9,44.1z"/>
		<path class="st14" d="M425.7,44.6c-0.3,0-0.7-0.1-0.9-0.4c-0.5-0.5-0.5-1.3,0-1.9c2.5-2.6,2.5-6.8-0.2-9.4
			c-0.2-0.2-0.4-0.6-0.4-0.9c0-0.7,0.6-1.3,1.3-1.3c0,0,0,0,0,0l0,0c0.3,0,0.7,0.1,0.9,0.4c3.7,3.6,3.8,9.4,0.2,13.1
			C426.4,44.4,426.1,44.5,425.7,44.6L425.7,44.6z M425.5,30.9L425.5,30.9c-0.3,0-0.6,0.1-0.8,0.3c-0.2,0.2-0.3,0.5-0.3,0.8
			c0,0.3,0.1,0.6,0.3,0.8c2.7,2.6,2.8,7,0.2,9.7c-0.4,0.4-0.4,1.1,0,1.5c0.2,0.2,0.5,0.3,0.7,0.3l0,0c0.3,0,0.6-0.1,0.8-0.3
			c3.5-3.6,3.4-9.3-0.2-12.7c0,0,0,0,0,0C426,31,425.8,30.9,425.5,30.9L425.5,30.9z"/>
		<path class="st14" d="M430,49.1c-0.5-0.5-0.5-1.2,0-1.7c0,0,0,0,0,0c5.3-5.5,5.2-14.3-0.4-19.7c-0.5-0.5-0.5-1.2,0-1.7
			c0.5-0.5,1.2-0.5,1.7,0c6.4,6.2,6.6,16.5,0.4,23C431.3,49.5,430.5,49.5,430,49.1C430,49.1,430,49.1,430,49.1z"/>
		<path class="st14" d="M430.8,49.5c-0.3,0-0.7-0.1-0.9-0.4c-0.5-0.5-0.5-1.3,0-1.9c0,0,0,0,0,0c5.3-5.5,5.1-14.2-0.4-19.5
			c-0.2-0.2-0.4-0.6-0.4-0.9c0-0.3,0.1-0.7,0.4-0.9c0.2-0.3,0.6-0.4,0.9-0.4l0,0c0.3,0,0.7,0.1,0.9,0.4c6.5,6.3,6.7,16.7,0.4,23.2
			C431.5,49.4,431.2,49.5,430.8,49.5z M430.5,25.8L430.5,25.8c-0.3,0-0.6,0.1-0.8,0.3c-0.2,0.2-0.3,0.5-0.3,0.8
			c0,0.3,0.1,0.6,0.3,0.8c5.6,5.4,5.7,14.3,0.4,19.8c-0.2,0.2-0.3,0.5-0.3,0.8c0,0.3,0.1,0.5,0.3,0.7c0.4,0.4,1.1,0.4,1.5,0
			c6.2-6.4,6-16.7-0.4-22.9C431,25.9,430.8,25.8,430.5,25.8z"/>
		<path class="st14" d="M411.4,55.8c-0.3,0-0.5-0.1-0.7-0.3l-11.5-9.3H390c-0.7,0-1.2-0.5-1.2-1.2l0,0V30.8c0-0.7,0.5-1.2,1.2-1.2
			c0,0,0,0,0,0h9.1l11.6-9.3c0.5-0.4,1.3-0.3,1.7,0.2c0.2,0.2,0.3,0.5,0.3,0.7v33.4c0,0.5-0.3,0.9-0.7,1.1
			C411.8,55.8,411.6,55.8,411.4,55.8z M391.1,43.9h8.3c0.3,0,0.5,0.1,0.8,0.3l10,8V23.8l-10,8c-0.2,0.2-0.5,0.3-0.8,0.3h-8.3V43.9z"
			/>
		<path class="st14" d="M411.4,56c-0.3,0-0.6-0.1-0.8-0.3L399,46.4h-9.1c-0.7,0-1.3-0.6-1.3-1.3V30.8c0-0.7,0.6-1.3,1.3-1.3h9.1
			l11.6-9.2c0.6-0.5,1.4-0.4,1.9,0.2c0.2,0.2,0.3,0.5,0.3,0.8v33.4c0,0.5-0.3,1-0.8,1.2C411.8,55.9,411.6,56,411.4,56z M389.9,29.7
			c-0.6,0-1.1,0.5-1.1,1.1v14.3c0,0.6,0.5,1.1,1.1,1.1c0,0,0,0,0,0h9.2l11.6,9.3c0.3,0.3,0.8,0.3,1.1,0.1c0.4-0.2,0.6-0.6,0.6-1
			V21.3c0-0.4-0.2-0.8-0.6-1c-0.4-0.2-0.8-0.1-1.1,0.1l-11.6,9.3H389.9z M410.3,52.4l-10.2-8.1c-0.2-0.2-0.4-0.2-0.7-0.2H391V31.9
			h8.5c0.2,0,0.5-0.1,0.6-0.2l10.2-8.1L410.3,52.4z M391.3,43.8h8.2c0.3,0,0.6,0.1,0.8,0.3l9.8,7.8V24l-9.8,7.8
			c-0.2,0.2-0.5,0.3-0.8,0.3h-8.2L391.3,43.8z"/>
		<g id="_64">
			<path class="st14" d="M485.1,42.6l1.2-5.1c0.3,0,0.5,0.1,0.8,0.1h0.3c2.4-0.2,4.3-2.3,4.1-4.7c-0.2-2.4-2.3-4.3-4.7-4.1
				c-2.4,0.2-4.3,2.3-4.1,4.7c0,0.3,0.1,0.5,0.1,0.8l-5.3,2.1c-2.3-1.6-4.9-2.8-7.5-3.8c-3.4-1.1-6.1-1.1-7.7,0.2
				c0,0-0.3,0.3-0.4,0.4c-1.7,2.1-3.2,6.4-2.6,11.2c0.7,5,3.4,9.4,7.5,12.2c3.7,2.9,8.3,4.5,13,4.6c3.7,0.1,7.4-1.1,10.3-3.5l0,0
				c0.3-0.2,0.5-0.4,0.7-0.7C492.9,54.6,491.4,48.9,485.1,42.6z M483.9,36.2l0.4-0.2l-0.1,0.4l-1,4.2c-0.6-0.5-1.2-1.1-1.9-1.7
				c-0.5-0.4-1-0.8-1.5-1.2L483.9,36.2z M468.1,54.8c-3.6-2.5-6-6.4-6.6-10.7c-0.2-1.4-0.2-2.9,0.1-4.3c1.3,3.3,4.4,7.5,9.6,11.7
				c4.9,4,9.3,6.2,12.8,6.9C479.9,59.5,474.1,59.2,468.1,54.8z M489.2,55.5L489.2,55.5c0,0.1-0.1,0.1-0.1,0.2
				c-0.1,0.2-0.3,0.3-0.5,0.4c-2.3,1.4-9.1-0.9-15.9-6.4c-7.3-6-10.9-12.8-9.2-14.9c0.6-0.6,1.5-0.9,2.3-0.8c1.2,0,2.4,0.3,3.5,0.7
				c2,0.7,3.9,1.6,5.6,2.7l-4.5,1.8c-0.6,0.2-0.9,0.8-0.7,1.4s0.8,0.9,1.4,0.7c0.1,0,0.1,0,0.2-0.1l6-2.4c0.9,0.6,1.8,1.3,2.6,2
				s1.9,1.6,2.8,2.5l-1.6,6.5c-0.1,0.6,0.2,1.2,0.8,1.3c0,0,0,0,0,0c0.1,0,0.2,0,0.2,0c0.5,0,1-0.4,1.1-0.9l1.2-5
				C488.4,49.6,490.2,53.7,489.2,55.5L489.2,55.5z"/>
			<path class="st14" d="M487.1,28.7c2.4,0,4.4,1.9,4.4,4.4c0,2.3-1.8,4.3-4.1,4.4h-0.3c-0.3,0-0.5,0-0.8-0.1l-1.2,5.1
				c6.3,6.3,7.8,12,5.7,14.6c-0.2,0.3-0.5,0.5-0.7,0.7l0,0c-2.9,2.3-6.6,3.5-10.3,3.4c-4.7-0.1-9.3-1.7-13-4.6
				c-4.1-2.8-6.8-7.3-7.5-12.2c-0.6-4.8,0.9-9.2,2.6-11.2c0.1-0.1,0.4-0.4,0.4-0.4c1-0.7,2.1-1.1,3.3-1c1.5,0,3,0.3,4.4,0.8
				c2.7,0.9,5.2,2.2,7.5,3.8l5.3-2.1c-0.6-2.4,0.8-4.7,3.2-5.3c0.2-0.1,0.5-0.1,0.7-0.1L487.1,28.7 M486.8,56.5
				c0.6,0,1.2-0.1,1.8-0.4c0.2-0.1,0.4-0.3,0.5-0.4c0.1-0.1,0.1-0.1,0.1-0.2l0,0c1-1.8-0.8-5.8-4.7-10.2l-1.2,5
				c-0.1,0.5-0.6,0.9-1.1,0.9c-0.1,0-0.2,0-0.2,0c-0.6-0.1-1-0.7-0.9-1.3c0,0,0,0,0,0l1.5-6.4c-0.9-0.8-1.8-1.6-2.8-2.5
				c-0.9-0.7-1.7-1.3-2.6-2l-6,2.4c-0.1,0.1-0.3,0.1-0.4,0.1c-0.6,0-1.1-0.5-1.1-1.1c0-0.5,0.3-0.9,0.7-1l4.5-1.8
				c-1.8-1.1-3.7-2-5.6-2.7c-1.1-0.4-2.3-0.6-3.5-0.7c-0.8-0.1-1.7,0.2-2.3,0.8c-1.7,2.1,1.9,8.9,9.2,14.9
				C478.2,54.1,483.7,56.4,486.8,56.5 M483.3,40.7l1-4.2l0.1-0.4l-0.4,0.2l-4.2,1.7c0.5,0.4,1,0.8,1.5,1.2
				C482,39.6,482.7,40.2,483.3,40.7 M479.8,58.9c1.4,0,2.9-0.2,4.2-0.6c-3.5-0.8-7.9-2.9-12.8-6.9c-5.2-4.2-8.3-8.3-9.6-11.7
				c-0.2,1.4-0.3,2.9-0.1,4.3c0.6,4.3,3,8.2,6.5,10.7C471.4,57.4,475.5,58.9,479.8,58.9 M487.1,28.6h-0.4c-1.2,0.1-2.3,0.7-3.1,1.6
				c-0.8,0.9-1.2,2.1-1.1,3.3c0,0.2,0,0.4,0.1,0.6l-5.1,2c-2.3-1.6-4.8-2.8-7.5-3.7c-1.4-0.5-2.9-0.8-4.5-0.8
				c-1.2-0.1-2.4,0.3-3.4,1c0,0-0.3,0.3-0.4,0.5c-1.7,2.1-3.2,6.5-2.6,11.3c0.7,5,3.4,9.4,7.5,12.3c3.7,2.9,8.3,4.5,13.1,4.6
				c3.7,0.1,7.4-1.1,10.4-3.3l0,0c0.3-0.2,0.5-0.4,0.8-0.7c2.8-3.4-1-10-5.6-14.7l1.2-4.9c0.2,0,0.4,0.1,0.7,0h0.4
				c2.5-0.2,4.4-2.3,4.3-4.8C491.6,30.4,489.5,28.6,487.1,28.6L487.1,28.6z M486.8,56.3c-2.9,0-8.3-2.1-14-6.7
				c-7.2-5.9-10.8-12.6-9.2-14.6c0.6-0.6,1.4-0.8,2.2-0.7c1.2,0,2.4,0.3,3.5,0.6c1.9,0.6,3.7,1.5,5.3,2.5l-4.2,1.7
				c-0.7,0.3-1,1-0.7,1.7c0.3,0.7,1,1,1.7,0.7l5.9-2.4c0.9,0.6,1.7,1.2,2.5,1.9s1.8,1.6,2.7,2.4l-1.5,6.3c-0.1,0.3,0,0.7,0.2,1
				c0.2,0.3,0.5,0.5,0.8,0.6c0.1,0,0.2,0,0.3,0c0.6,0,1.1-0.4,1.2-1l1.1-4.7c3.6,4.1,5.4,8.1,4.5,9.8l0,0v0c0,0.1-0.1,0.1-0.1,0.2
				c-0.1,0.1-0.3,0.3-0.4,0.4c-0.5,0.3-1.1,0.4-1.7,0.4L486.8,56.3z M480.1,37.9l3.9-1.6h0.1v0.2l-0.9,4c-0.5-0.4-1.1-1-1.8-1.5
				C481.1,38.7,480.6,38.3,480.1,37.9L480.1,37.9z M479.8,58.8c-4.2-0.1-8.3-1.5-11.6-4.1c-3.5-2.5-5.9-6.3-6.5-10.6
				c-0.2-1.3-0.2-2.5,0-3.8c1.6,3.6,4.9,7.5,9.4,11.2c5.3,4.3,9.5,6.1,12.2,6.8C482.2,58.6,481,58.7,479.8,58.8L479.8,58.8z"/>
		</g>
		<path class="st14" d="M498.5,31.9c-0.6,0-1.2-0.5-1.2-1.2c0-3.7-3-6.6-6.6-6.6c-0.6-0.1-1.1-0.6-1.1-1.3c0.1-0.6,0.5-1,1.1-1.1
			c5,0,9,4,9,9C499.6,31.4,499.1,31.9,498.5,31.9L498.5,31.9z"/>
		<path class="st14" d="M490.6,21.8c5,0,9,4,9,9c-0.1,0.6-0.6,1.1-1.3,1.1c-0.6-0.1-1-0.5-1.1-1.1c0-3.7-3-6.6-6.6-6.6
			c-0.6-0.1-1.1-0.6-1.1-1.3C489.6,22.3,490.1,21.8,490.6,21.8 M490.6,21.6c-0.7,0.1-1.3,0.7-1.2,1.4c0.1,0.6,0.6,1.2,1.2,1.2
			c3.6,0,6.5,2.9,6.5,6.5c0.1,0.7,0.7,1.3,1.4,1.2c0.6-0.1,1.2-0.6,1.2-1.2C499.8,25.7,495.7,21.6,490.6,21.6L490.6,21.6z"/>
		<path class="st14" d="M505.5,31.9c-0.6,0-1.2-0.5-1.2-1.2c0,0,0,0,0,0c0-7.6-6.1-13.7-13.7-13.7c-0.6,0-1.2-0.5-1.2-1.2
			c0-0.6,0.5-1.2,1.2-1.2c8.8,0,16,7.2,16,16C506.7,31.4,506.1,31.9,505.5,31.9C505.5,31.9,505.5,31.9,505.5,31.9z"/>
		<path class="st14" d="M490.6,14.7c8.8,0,16,7.2,16,16c0,0.6-0.5,1.2-1.2,1.2c-0.6,0-1.2-0.5-1.2-1.2c0-7.6-6.1-13.7-13.7-13.7
			c-0.6,0-1.2-0.5-1.2-1.2C489.4,15.2,489.9,14.7,490.6,14.7 M490.6,14.5c-0.7,0-1.3,0.6-1.3,1.3c0,0.7,0.6,1.3,1.3,1.3
			c7.5,0,13.5,6.1,13.5,13.5c0,0.7,0.6,1.3,1.3,1.3s1.3-0.6,1.3-1.3C506.8,21.8,499.5,14.5,490.6,14.5z"/>
		<line class="st15" x1="371.9" y1="268.7" x2="371.9" y2="293.6"/>
		<line class="st16" x1="384.3" y1="281.2" x2="359.4" y2="281.2"/>
		<line class="st16" x1="419.5" y1="281.2" x2="394.6" y2="281.2"/>
		<line class="st16" x1="349" y1="281.2" x2="142.7" y2="281.2"/>
		<circle class="st17" cx="371.9" cy="281.2" r="6.5"/>
		<line class="st18" x1="142.3" y1="351.5" x2="142.3" y2="3.6"/>
		<polygon class="st18" points="520,352 4.1,352 4.1,3.6 142.3,3.6 520,3.6 		"/>
		<path class="st19" d="M44.3,24.6l0.2,1.5c-3.3,3.2-7.7,5.1-12.3,5.1L32,28.8c3.7,0.2,7.3-1.1,10-3.5l-4.1-3.1l1.2-1.6L44.3,24.6z
			 M48.1,26.1c-0.6,1.2-0.9,2.5-1.2,3.8c2.2-0.1,4.3-0.4,6.4-0.9l0.5,2.3c-2.4,0.4-4.8,0.6-7.2,0.5V32c-0.2,2.8,0.3,5.7,1.4,8.3
			l-2.3,0.7c-1.3-3.5-1.6-7.3-0.7-10.9l-5.2,6.8c-0.8,1-1.5,1.1-2.9,0c-0.7-0.6-1.4-1.2-2.1-1.8l1-2c0.6,0.6,1.3,1.3,2,1.8
			c0.3,0.3,0.5,0.2,0.8-0.1l9.9-12.9l1.7,1.3L48.1,26.1z"/>
		<path class="st19" d="M31.6,47.3l6.8,5.2l-1.2,1.6l-6.7-5.2l-4,5.2l-1.8-1.3l4-5.2L22,42.5l1.2-1.6l6.7,5.1l4.7-6.1l-5.9-4.5
			l1.2-1.5l13.8,10.5l-1.2,1.5l-6-4.6L31.6,47.3z M26.8,42.7c0.6-1.8,1.1-3.6,1.4-5.4l2.2,0.6c-0.3,1.9-0.7,3.7-1.3,5.5L26.8,42.7z
			 M34.1,47.5c1.8-0.8,3.4-1.8,5-3l1.3,1.9c-1.6,1.1-3.4,2.1-5.2,3L34.1,47.5z"/>
		<path class="st19" d="M7,61.7c1.4-1.1,2.7-2.3,3.8-3.6l1.3,1.2c-1.2,1.5-2.6,2.9-4.1,4.1L7,61.7z M11.8,55.5
			c0.3,0.2,0.4,0.3,0.5,0.4s0.3,0.2,0.6,0.4c0.6-0.1,1-0.2,1.9-0.4c0.1-1.4,0.1-2.8-0.1-4.2l1.8-0.4l0.1,0.8
			c1.2-0.4,2.3-0.9,3.4-1.5l0.8,1.8c-1.3,0.6-2.7,1.1-4.1,1.4c0,0.7,0,1,0,1.8c1.6-0.5,2.5-0.8,2.9-0.9l1.4-0.5l0.6,1.8
			c-2.2,0.7-4.4,1.3-6.7,1.7c0.6,0.4,1.8,1.2,2.3,1.5c0.2-0.5,0.3-0.9,0.5-1.4l1.5,0.3c-0.3,1.3-0.7,2.5-1.2,3.7L16,61.4
			c0.3-0.6,0.4-0.8,0.5-1c-0.3-0.2-0.5-0.2-1.1-0.6l-0.3-0.1l-5.5,7.1l-1.5-1.2l5.3-6.9c-0.9-0.5-1.7-1-2.4-1.5L11.8,55.5z
			 M19.7,63.9l0.2,1.3c-2,1.8-4.6,2.8-7.3,2.8l-0.3-1.9c1.9,0.2,3.9-0.3,5.5-1.4L16,63.2l1.1-1.4L19.7,63.9z M12.6,64.7
			c0.7-1.1,1.3-2.3,1.8-3.5l1.5,0.5c-0.4,1.2-0.9,2.3-1.6,3.5L12.6,64.7z M18.2,71c-0.8,1-1.4,1-2.4,0.2c-0.5-0.4-0.9-0.8-1.4-1.2
			l0.8-1.7c0.4,0.4,0.8,0.8,1.2,1.1c0.3,0.2,0.4,0.2,0.7-0.1l4.4-5.8l-3.1-2.4l4.8-6.2l2.7,2.1c0.5-0.3,1-0.7,1.4-1.1l1.5,1.5
			c-0.4,0.3-0.8,0.5-1.3,0.7l3.4,2.6l-4.8,6.2L23,64.6l-0.1,0.2c-0.4,0.9-0.6,1.8-0.7,2.7c1.2-0.1,2.3-0.3,3.4-0.5l0.3,2
			c-1.3,0.2-2.6,0.2-3.9,0.1c0,1.5,0.2,2.9,0.7,4.3l-2,0.7c-0.6-2.1-0.6-4.3,0-6.4L18.2,71z M20.9,61l4.7,3.6l0.9-1.2l-4.7-3.6
			L20.9,61z M22.8,58.6l4.7,3.6l0.9-1.2l-4.7-3.6L22.8,58.6z"/>
		<path class="st19" d="M196.6,109.1l0.8,1.3c-1.7,4.3-5,7.8-9.2,9.7l-1.1-2.1c3.4-1.3,6.2-3.9,7.7-7.3l-5-1.2l0.4-1.9L196.6,109.1z
			 M200.7,108.9c0,1.3,0.1,2.6,0.4,3.9c1.9-1,3.8-2.1,5.5-3.4l1.4,1.9c-2,1.3-4.1,2.5-6.3,3.4v0.1v0.1c1,2.7,2.6,5.1,4.7,7l-1.8,1.6
			c-2.6-2.6-4.4-6-5.1-9.7l-2,8.3c-0.3,1.3-1,1.6-2.6,1.2c-0.9-0.2-1.8-0.5-2.6-0.8l0.1-2.3c0.8,0.3,1.7,0.6,2.5,0.8
			c0.4,0.1,0.6,0,0.6-0.4l3.8-15.8l2.1,0.5L200.7,108.9z"/>
		<path class="st19" d="M194.3,135l8.3,2l-0.5,2l-8.3-2l-1.5,6.4l-2.2-0.5l1.5-6.4l-8.2-1.9l0.5-1.9l8.1,1.9l1.8-7.5l-7.3-1.7
			l0.4-1.9l16.9,4l-0.4,1.9l-7.4-1.8L194.3,135z M188.1,132.8c-0.1-1.9-0.5-3.7-0.9-5.5l2.3-0.3c0.5,1.8,0.8,3.7,1,5.6L188.1,132.8z
			 M196.7,134.1c1.3-1.5,2.4-3.1,3.3-4.8l2,1.2c-1,1.7-2.2,3.3-3.5,4.8L196.7,134.1z"/>
		<path class="st19" d="M177.8,158.2c0.8-1.6,1.5-3.2,2-4.9l1.6,0.6c-0.5,1.9-1.2,3.7-2.1,5.4L177.8,158.2z M179.6,150.5
			c0.4,0.1,0.4,0.1,0.6,0.1s0.4,0.1,0.8,0.1c0.5-0.4,0.9-0.6,1.5-1.2c-0.5-1.3-1.1-2.6-1.8-3.8l1.5-1.1l0.4,0.7
			c0.9-0.8,1.7-1.8,2.5-2.8l1.5,1.3c-1,1.1-2.1,2.1-3.2,3c0.3,0.6,0.4,1,0.7,1.6c1.2-1.1,2-1.8,2.2-2l1.1-1l1.2,1.4
			c-1.7,1.6-3.5,3-5.4,4.3c0.7,0.1,2.1,0.4,2.7,0.4c0-0.4-0.1-1-0.2-1.4l1.5-0.3c0.3,1.3,0.4,2.7,0.4,4l-1.7,0.4c0-0.6,0-0.8,0-1.1
			c-0.3,0-0.6,0-1.2-0.1h-0.4l-2.1,8.7l-1.9-0.4l2-8.5c-1-0.1-2-0.3-2.8-0.4L179.6,150.5z M184,158.7c0.2-1.3,0.2-2.6,0.2-3.9
			l1.6-0.1c0.1,1.3,0.1,2.5,0,3.8L184,158.7z M190.3,155l0.7,1.1c-1.1,2.5-3.1,4.5-5.6,5.5l-1-1.6c1.8-0.6,3.4-1.9,4.4-3.5l-2.2-0.5
			l0.4-1.7L190.3,155z M191.7,162.1c-0.3,1.2-0.8,1.5-2.1,1.2c-0.6-0.1-1.2-0.3-1.8-0.6l0.1-1.9c0.5,0.2,1,0.4,1.5,0.5
			c0.4,0.1,0.5,0,0.6-0.4l1.7-7.1l-3.8-0.9l1.8-7.6l3.4,0.8c0.3-0.5,0.6-1,0.8-1.5l2,0.8c-0.3,0.4-0.5,0.7-0.9,1.2l4.2,1l-1.8,7.6
			l-3.9-0.9l-0.1,0.2c0,0.9,0.2,1.8,0.4,2.7c1-0.5,2-1.2,2.9-1.9l1.1,1.6c-1.1,0.7-2.3,1.3-3.5,1.7c0.6,1.3,1.4,2.6,2.4,3.6
			l-1.6,1.5c-1.4-1.7-2.3-3.7-2.6-5.8L191.7,162.1z M190.1,151.9l5.7,1.4l0.4-1.5l-5.7-1.4L190.1,151.9z M190.8,148.9l5.7,1.4
			l0.4-1.4l-5.7-1.4L190.8,148.9z"/>
		<path class="st19" d="M206.6,323.6c0.3-0.9,0.6-1.8,0.8-2.7l2.5,0.4c-0.3,0.8-0.6,1.6-0.9,2.3h7.2V340H214v-1.4h-10.4v1.4h-2.2
			v-16.4H206.6z M203.6,328H214v-2.5h-10.4V328z M203.6,332.3H214v-2.5h-10.4L203.6,332.3z M203.6,336.8H214V334h-10.4L203.6,336.8z
			"/>
		<path class="st19" d="M227.8,324.5h-7.9v-1.8h7.9v-1.8h2.2v1.8h8v1.8h-8v1.4h6.7v7.8h-6.7v1.5h8.5v1.9h-8.5v3h-2.2v-3h-8.4v-1.9
			h8.4v-1.5h-6.5v-7.8h6.6L227.8,324.5z M223.3,327.5v1.4h4.5v-1.5L223.3,327.5z M223.3,330.5v1.5h4.5v-1.5L223.3,330.5z M230,328.9
			h4.6v-1.4H230V328.9z M230,332h4.6v-1.5H230V332z"/>
		<path class="st19" d="M247.9,323.8h-8.4v-1.9h19.1v1.9H250v2.4h7.4v11.4c0,1.6-0.6,2.1-2.5,2.1c-0.7,0-1.8,0-3-0.1l-0.5-2.1
			c1.1,0.1,2.2,0.2,3.3,0.2c0.4,0,0.5-0.1,0.5-0.5v-9.1H250v6.1h1.8v-4.5h1.9v6.3h-7.5v1.3h-1.9v-7.7h1.9v4.6h1.7v-6.1h-5.1V340
			h-2.1v-13.8h7.3L247.9,323.8z"/>
		<path class="st20" d="M233.1,30.3v1.1H229v2.4h3.6v1H229v3.5h-1.3v-8L233.1,30.3z"/>
		<path class="st20" d="M240.5,34.2c0,2.6-1.2,4.2-3.1,4.2s-3.1-1.6-3.1-4.1s1.2-4.1,3.1-4.1S240.4,31.6,240.5,34.2z M235.6,34.2
			c0,1.9,0.7,3.1,1.8,3.1s1.8-1.2,1.8-3s-0.7-3.1-1.8-3.1S235.6,32.3,235.6,34.2L235.6,34.2z"/>
		<path class="st20" d="M248.1,34.2c0,2.6-1.2,4.2-3.1,4.2s-3.1-1.6-3.1-4.2c0-2.6,1.2-4.1,3.1-4.1S248.1,31.6,248.1,34.2z
			 M243.3,34.2c0,1.9,0.7,3.1,1.8,3.1s1.8-1.2,1.8-3.1c0-1.9-0.7-3.1-1.8-3.1S243.3,32.3,243.3,34.2L243.3,34.2z"/>
		<path class="st20" d="M255.8,34.2c0,2.6-1.2,4.1-3.1,4.2s-3.1-1.6-3.1-4.2c0-2.6,1.2-4.1,3.1-4.1S255.8,31.6,255.8,34.2z
			 M251,34.2c0,1.9,0.7,3.1,1.8,3.1s1.8-1.2,1.8-3.1s-0.7-3.1-1.8-3.1S251,32.3,251,34.2L251,34.2z"/>
		<path class="st20" d="M263.5,34.2c0,2.6-1.2,4.1-3.1,4.2s-3.1-1.6-3.1-4.2c0-2.6,1.2-4.1,3.1-4.1S263.5,31.6,263.5,34.2z
			 M258.7,34.2c0,1.9,0.7,3.1,1.8,3.1s1.8-1.2,1.8-3.1s-0.7-3.1-1.8-3.1S258.7,32.3,258.7,34.2L258.7,34.2z"/>
		<path class="st20" d="M271.2,34.2c0,2.6-1.2,4.2-3.1,4.2s-3.1-1.6-3.1-4.2c0-2.6,1.2-4.1,3.1-4.1S271.2,31.6,271.2,34.2z
			 M266.4,34.2c0,1.9,0.7,3.1,1.8,3.1s1.8-1.2,1.8-3.1s-0.7-3.1-1.8-3.1S266.4,32.3,266.4,34.2z"/>
		<path class="st20" d="M278.3,30.2v1.1h-3.7l-0.3,2.3l0,0c0.5-0.4,1.1-0.6,1.7-0.6c1.4-0.1,2.6,0.9,2.7,2.3c0,0.1,0,0.2,0,0.3
			c0,1.5-1.3,2.8-2.8,2.7c-0.1,0-0.1,0-0.2,0c-1.1,0-2.1-0.3-2.9-1.1l0.8-0.8c0.6,0.5,1.3,0.8,2.1,0.8c0.9,0,1.7-0.7,1.7-1.6
			c0,0,0-0.1,0-0.1c0.1-0.8-0.6-1.5-1.4-1.6c-0.1,0-0.2,0-0.3,0c-0.6,0-1.2,0.3-1.6,0.8l-1.1-0.2l0.4-4.4L278.3,30.2z"/>
		<path class="st20" d="M281.9,30.2v3.3h3.9v-3.3h1.3v8h-1.3v-3.6h-3.9v3.6h-1.3v-8L281.9,30.2z"/>
		<path class="st20" d="M294.9,34.2c0,2.6-1.2,4.2-3.1,4.2s-3.1-1.6-3.1-4.1s1.2-4.1,3.1-4.1S294.9,31.6,294.9,34.2z M290.1,34.2
			c0,1.9,0.7,3.1,1.8,3.1s1.8-1.2,1.8-3.1s-0.7-3.1-1.8-3.1S290.1,32.3,290.1,34.2L290.1,34.2z"/>
		<path class="st20" d="M299.1,31.4c-0.6,0.2-1.3,0.4-1.9,0.5l-0.3-1c0.9-0.2,1.7-0.5,2.5-0.9h1v8.1h-1.3V31.4z"/>
		<path class="st20" d="M307.4,34v1h-3.3v-1L307.4,34z"/>
		<path class="st20" d="M309.6,30.2l2.1,3l2.1-3h1.6l-2.8,3.9l3,4h-1.6l-2.2-3.2l-2.2,3.2h-1.6l3-4.1l-2.9-3.9H309.6z"/>
		<path class="st20" d="M317.5,30.2l2.1,3.1l2.1-3.1h1.6l-2.9,3.9l3,4h-1.6l-2.2-3.2l-2.2,3.2h-1.6l3-4.1l-2.9-3.9L317.5,30.2z"/>
		<path class="st20" d="M325.4,30.2l2.1,3.1l2.1-3.1h1.6l-2.8,3.9l3,4h-1.6l-2.2-3.2l-2.2,3.2h-1.6l3-4.1l-2.9-3.9L325.4,30.2z"/>
		<path class="st20" d="M233.1,40.1v1.1h-4v2.4h3.6v1H229V48h-1.3v-8L233.1,40.1z"/>
		<path class="st20" d="M240.5,44.1c0,2.6-1.2,4.2-3.1,4.2s-3.1-1.6-3.1-4.1s1.2-4.2,3.1-4.2S240.5,41.5,240.5,44.1z M235.6,44.1
			c0,1.9,0.7,3.1,1.8,3.1s1.7-1.2,1.7-3s-0.7-3.1-1.8-3.1S235.6,42.2,235.6,44.1L235.6,44.1z"/>
		<path class="st20" d="M248.2,44.1c0,2.6-1.2,4.1-3.1,4.2s-3.1-1.6-3.1-4.2s1.1-4.1,3.1-4.1S248.1,41.5,248.2,44.1z M243.3,44.1
			c0,1.9,0.7,3.1,1.8,3.1s1.8-1.2,1.8-3.1s-0.7-3.1-1.8-3.1S243.3,42.2,243.3,44.1z"/>
		<path class="st20" d="M255.9,44.1c0,2.6-1.2,4.1-3.1,4.2s-3.1-1.6-3.1-4.2s1.2-4.1,3.1-4.2S255.9,41.5,255.9,44.1z M251,44.1
			c0,1.9,0.7,3.1,1.8,3.1s1.8-1.2,1.8-3.1s-0.7-3.1-1.8-3.1S251,42.2,251,44.1z"/>
		<path class="st20" d="M263.6,44c0,2.6-1.2,4.1-3.1,4.2s-3.1-1.6-3.1-4.2s1.2-4.1,3.1-4.2S263.6,41.5,263.6,44z M258.7,44
			c0,1.9,0.7,3.1,1.8,3.1s1.8-1.2,1.8-3.1s-0.7-3.1-1.8-3.1S258.7,42.1,258.7,44L258.7,44z"/>
		<path class="st20" d="M271.3,44c0,2.6-1.2,4.2-3.1,4.2s-3.1-1.5-3.1-4.2s1.2-4.1,3.1-4.2S271.3,41.5,271.3,44z M266.4,44
			c0,1.9,0.7,3.1,1.8,3.1s1.8-1.2,1.8-3.1s-0.7-3.1-1.8-3.1S266.4,42.1,266.4,44z"/>
		<path class="st20" d="M278.3,40v1.1h-3.7l-0.3,2.3l0,0c1.2-0.9,2.9-0.8,3.8,0.4c0.4,0.5,0.6,1,0.6,1.6c0,1.5-1.3,2.8-2.8,2.7
			c-0.1,0-0.1,0-0.2,0c-1.1,0-2.1-0.3-2.9-1.1l0.8-0.8c0.6,0.5,1.3,0.8,2.1,0.8c0.9,0,1.7-0.7,1.7-1.6c0,0,0-0.1,0-0.1
			c0.1-0.8-0.6-1.5-1.4-1.6c-0.1,0-0.2,0-0.3,0c-0.6,0-1.2,0.3-1.6,0.8l-1.1-0.3l0.4-4.4L278.3,40z"/>
		<path class="st20" d="M281.9,40v3.3h3.9V40h1.3v8h-1.3v-3.6h-3.9V48h-1.3v-8L281.9,40z"/>
		<path class="st20" d="M294.9,44c0,2.6-1.2,4.2-3.1,4.2s-3.1-1.6-3.1-4.1s1.2-4.2,3.1-4.2S294.9,41.4,294.9,44z M290.1,44
			c0,1.9,0.7,3.1,1.8,3.1s1.8-1.2,1.8-3.1s-0.7-3.1-1.8-3.1S290.1,42.1,290.1,44L290.1,44z"/>
		<path class="st20" d="M296.6,46.9c0.4-1.2,1.3-2.2,2.5-2.8l0.2-0.2c1.3-0.8,1.6-1.2,1.6-1.8s-0.6-1.2-1.5-1.2c-0.8,0-1.5,0.4-2,1
			l-0.8-0.7c0.7-0.9,1.8-1.4,2.9-1.4c1.6,0,2.8,1,2.8,2.2c0,0.5-0.2,1.1-0.5,1.5c-0.4,0.4-0.9,0.7-1.4,1l-0.2,0.1l-0.3,0.2
			c-1.2,0.7-1.8,1.4-1.9,2h4.5V48h-5.8L296.6,46.9z"/>
		<path class="st20" d="M307.4,43.8v1h-3.3v-1H307.4z"/>
		<path class="st20" d="M309.6,40l2.1,3l2.1-3h1.6l-2.8,3.9l3,4h-1.6l-2.2-3.2l-2.2,3.2h-1.6l3-4.1l-2.8-3.9H309.6z"/>
		<path class="st20" d="M317.5,40l2.1,3.1l2.1-3.1h1.6l-2.9,3.9l3,4h-1.6l-2.2-3.2l-2.2,3.2h-1.6l3-4.1l-2.9-3.9L317.5,40z"/>
		<path class="st20" d="M325.4,40l2.1,3.1l2.1-3.1h1.6l-2.8,3.9l3,4h-1.6l-2.2-3.2l-2.2,3.2h-1.6l3-4.1l-2.9-3.9L325.4,40z"/>
		<path class="st19" d="M112.3,82.6c0.3-0.9,0.6-1.8,0.8-2.7l2.5,0.4c-0.3,0.8-0.6,1.6-0.9,2.3h7.2V99h-2.2v-1.4h-10.4V99h-2.1V82.6
			H112.3z M109.3,87h10.4v-2.5h-10.4L109.3,87z M109.3,91.3h10.4v-2.5h-10.4V91.3z M109.3,95.8h10.4V93h-10.4L109.3,95.8z"/>
		<path class="st19" d="M113.3,103.6h-7.9v-1.8h7.9V100h2.2v1.8h8v1.8h-8v1.3h6.7v7.8h-6.7v1.4h8.5v1.9h-8.5v3h-2.2v-3h-8.4v-1.9
			h8.4v-1.4h-6.6V105h6.6L113.3,103.6z M108.9,106.6v1.4h4.5v-1.4L108.9,106.6z M108.9,109.6v1.5h4.5v-1.5H108.9z M115.5,108h4.6
			v-1.4h-4.6L115.5,108z M115.5,111.2h4.6v-1.5h-4.6L115.5,111.2z"/>
		<path class="st19" d="M113.4,123.1h-8.4v-1.9H124v1.9h-8.6v2.4h7.4V137c0,1.6-0.6,2.1-2.5,2.1c-0.7,0-1.8-0.1-3-0.1l-0.5-2.1
			c1.1,0.1,2.2,0.2,3.3,0.2c0.4,0,0.5-0.1,0.5-0.6v-9.1h-5.2v6.1h1.8v-4.6h1.9v6.3h-7.5v1.3h-1.9v-7.7h1.9v4.6h1.7v-6.1h-5.1v11.9
			h-2.1v-13.8h7.3V123.1z"/>
		<path class="st12" d="M337.5,266.9h-3.8l0.2-25.7h3.8L337.5,266.9z M330.5,266.9h-3.8l0.2-25.7h3.8L330.5,266.9z M323.5,266.8
			h-3.8l0.2-25.7h3.8L323.5,266.8z M316.5,266.8h-3.8l0.2-25.8h3.8L316.5,266.8z M309.5,266.8h-3.8l0.2-25.7h3.8L309.5,266.8z
			 M302.5,266.8h-3.8l0.2-25.8h3.8L302.5,266.8z M295.5,266.8h-3.8l0.2-25.7h3.8L295.5,266.8z"/>
		<path class="st21" d="M356.2,136.7c28.6-9.8,55.6-7.7,60.2,4.6s-14.8,30.1-43.5,39.9s-55.6,7.7-60.2-4.6S327.6,146.5,356.2,136.7z
			"/>
		<path class="st22" d="M362.1,114.3c0.5-0.5,1.2-0.9,1.9-1c1.5,0,3,0.2,4.4,0.6c0.6,0.1-1.1,3-1.7,3.2c-1.3,0.2-2.7,0.1-4-0.2
			c-0.7-0.3-0.7-0.5-0.7-0.7C361.9,116,361.4,114.9,362.1,114.3z"/>
		<path class="st22" d="M367.3,116.6l2,0.8c0.5,0.2,0.1,0.7-0.4,0.5l-2-0.6C366.3,117.2,366.8,116.4,367.3,116.6z"/>
		<path class="st22" d="M367,116.1L367,116.1c0.1-0.2,0.4-0.3,0.7-0.2l2.4,0.8c0.6,0.2,0.2,0.8-0.4,0.7l-2.5-0.7
			C367,116.6,366.9,116.4,367,116.1C367,116.1,367,116.1,367,116.1z"/>
		<path class="st22" d="M367.4,115.3L367.4,115.3c0.2-0.2,0.5-0.3,0.8-0.2l2.6,1c0.6,0.3,0.3,0.9-0.4,0.7l-2.6-0.9
			C367.5,115.7,367.3,115.5,367.4,115.3C367.4,115.3,367.4,115.3,367.4,115.3z"/>
		<path class="st22" d="M368.6,114l2.4,0.9c0.6,0.2,0.2,0.9-0.4,0.7l-2.4-0.8C367.5,114.6,368,113.8,368.6,114z"/>
		<path class="st23" d="M346.7,147.8c-1.2,0.4-2.5,0.1-3.5-0.7c-1.7-1-3.6-2.1-8.5,0.8c-0.1,0.1-0.3,0.1-0.4,0.1
			c-0.1,0-0.2-0.1-0.3-0.2l-0.3-0.8c-0.1-0.2,0-0.4,0.2-0.5c0,0,0,0,0,0c0.2-0.1,0.5,0,0.6,0.2l0.2,0.4c5.1-2.9,7.4-1.5,9.1-0.6
			s2.5,1.4,5.2-1.1c0.2-0.2,0.5-0.2,0.7-0.1c0.2,0.1,0.2,0.3,0.1,0.5c0,0,0,0.1-0.1,0.1C348.8,146.7,347.8,147.3,346.7,147.8z"/>
		<path class="st22" d="M349.8,129c7-0.6,9.4-3.5,20.3-2.8c2.8-3.8,3.3-5.4-3-6.3c-6.9-0.9-16.4-1.8-21.5-0.1c0,0-7.3,1.8-1.1,7.9
			C345.4,127.6,349.4,129.1,349.8,129z"/>
		<path class="st24" d="M351.1,129.4c3.5-1.5,6.2-1.1,9.1-1.4c2.6-2,3.9-5.3,3.4-8.5c-6.9-1-13-2-18-0.3c0,0-6.8,2.8-0.5,8.8
			C346.1,127.9,350.7,129.6,351.1,129.4z"/>
		<polygon class="st25" points="355.8,144.4 359.6,144.8 364.4,140.1 360.6,139.7 		"/>
		<polygon class="st26" points="359.9,145.7 356.1,145.3 355.8,144.4 359.6,144.8 		"/>
		<polygon class="st27" points="359.9,145.7 364.7,141 364.3,140.1 359.6,144.8 		"/>
		<path class="st28" d="M360.8,144.6l3-3c0.3-0.3,0-0.9-0.3-0.6l-3,3C360.2,144.4,360.5,144.9,360.8,144.6z"/>
		<path class="st29" d="M356.5,142.3c-0.8,0-0.3,1.3,0,1.7s1.5,0.7,2.7,0.7c1.3,0.1,2.5,0.3,3.7,0.7c1.5,0.3,4.1-0.7,5.2-1.4
			c0.6-0.5,1-1,0.7-1.4c-0.1-0.1-0.1-0.2-0.5-0.3s-2.7-0.6-3.7-0.7C358.9,141.1,356.6,142.3,356.5,142.3z"/>
		<path class="st30" d="M358.2,139.6c0,0.5-3,1.5-1.8,3.7c0.5,0.8,2.7,0.6,3.7,0.7c0.8,0.1,1.7,0.3,2.4,0.8c0.7,0.3,1.6,0.3,2.3,0.1
			c2.2-0.5,4.5-1.6,3.7-2.9c-0.3-0.5-3.4-0.6-4.5-0.7C360.2,140.9,361.5,136.1,358.2,139.6z"/>
		<path class="st31" d="M358.2,145.1c-0.3-0.7-1.4-0.3-1.1,0.4l1.9,4.9c0.3,0.7,1.4,0.3,1.1-0.4L358.2,145.1z"/>
		<path class="st22" d="M364.2,126.3c5.3-3.8,6.7-4,6.5-1c-3,3.4-7.8,12.9-8.6,15.6c-2.6,2.1-4.7,0.5-4.5-0.5
			C360.7,135.1,358.5,132.5,364.2,126.3z"/>
		<path class="st32" d="M354.2,147.9l-20.4-1.6l0.1,0.8l18.6,2.8C354.2,150.2,355.8,148.4,354.2,147.9z"/>
		<path class="st32" d="M332.8,146.3l1.4,0.4l12.7-10.4c0.5-1-1.7-1.8-2.1-1L332.8,146.3z"/>
		<path class="st25" d="M345.7,138.3c-5.8-5-13.2-7.8-19.3-7.7c-2.6,0-5.1,0.7-7.2,2c-1.1,0.7-2.1,1.6-2.9,2.6
			c-3.2,4.7-0.4,11.9,6.6,18c4.2,3.7,9.3,6.2,14.8,7.2c4.5,0.9,8.8,0.4,11.8-1.6C355.8,154.8,354.1,145.5,345.7,138.3z M344.1,157.2
			c-2.2,1.2-4.7,1.7-7.1,1.4c-4.8-0.5-9.2-2.5-12.8-5.7c-6.3-5.4-7.5-12.4-2.8-15.5c2.1-1.2,4.6-1.7,7.1-1.4
			c4.8,0.5,9.2,2.5,12.8,5.7C347.6,147.2,348.8,154.1,344.1,157.2z"/>
		<path class="st27" d="M344.1,139.9c-4.8-4.2-10.7-6.8-17-7.6c-3.3-0.4-6.6,0.2-9.5,1.9c-6.3,4.1-4.6,13.4,3.7,20.6
			c4.8,4.2,10.8,6.9,17.1,7.6c3.3,0.4,6.6-0.2,9.5-1.9C354.2,156.4,352.5,147.1,344.1,139.9z M344.1,157.2c-2.2,1.2-4.7,1.7-7.1,1.4
			c-4.8-0.5-9.2-2.5-12.8-5.7c-6.3-5.4-7.5-12.4-2.8-15.5c2.1-1.2,4.6-1.7,7.1-1.4c4.8,0.5,9.2,2.5,12.8,5.7
			C347.6,147.2,348.8,154.1,344.1,157.2L344.1,157.2z"/>
		<path class="st33" d="M347.9,142.4l-2-5.3l0.4,0.4c1.6,1.4,3.1,3,4.4,4.8l-1.7,1.6l0,0C348.7,143.3,348.3,142.9,347.9,142.4
			L347.9,142.4z M345.9,137.1l2,5.3c-1-1.2-2.1-2.3-3.2-3.3c-8.7-7.6-21.1-10.2-27.7-5.9c-0.2,0.1-0.4,0.3-0.6,0.4
			c0.6-0.8,1.4-1.5,2.3-2.1C325,127.3,337.2,129.8,345.9,137.1L345.9,137.1z"/>
		<path class="st32" d="M316.3,133.6c0.2-0.2,0.4-0.3,0.6-0.4c6.6-4.3,19-1.6,27.7,5.9c1.6,1.4,3.1,3,4.4,4.7h-0.6l0,0
			c-1.2-1.6-2.6-3.1-4.1-4.4c-8.5-7.4-20.5-9.9-26.9-5.8c-0.3,0.2-0.6,0.4-0.9,0.7L316.3,133.6z"/>
		
			<linearGradient id="SVGID_00000041264919304376293460000007339241205718367662_" gradientUnits="userSpaceOnUse" x1="226.7327" y1="349.1762" x2="213.8427" y2="326.8562" gradientTransform="matrix(1.05 -0.36 -0.32 -0.85 209.799 513.1827)">
			<stop  offset="3.000000e-02" style="stop-color:#706F6F"/>
			<stop  offset="0.89" style="stop-color:#FFFFFF"/>
		</linearGradient>
		<path style="fill-rule:evenodd;clip-rule:evenodd;fill:url(#SVGID_00000041264919304376293460000007339241205718367662_);" d="
			M342.3,141.1c-4-3.5-9-5.7-14.3-6.3c-2.7-0.4-5.5,0.2-7.9,1.6c-5.3,3.4-3.9,11.2,3.1,17.3c4,3.5,9,5.7,14.3,6.4
			c2.7,0.4,5.5-0.2,7.9-1.6C350.7,154.9,349.3,147.2,342.3,141.1z M344.1,157.2c-2.2,1.2-4.7,1.7-7.1,1.4c-4.8-0.5-9.2-2.5-12.8-5.7
			c-6.3-5.4-7.5-12.4-2.8-15.5c2.1-1.2,4.6-1.7,7.1-1.4c4.8,0.5,9.2,2.5,12.8,5.7C347.6,147.2,348.8,154.1,344.1,157.2z"/>
		<path class="st35" d="M336.4,158.6l-2.7-8.9l3.7,9h0.2l-3.7-8.9l4.7,8.9h0.2l-4.6-8.8l5.5,8.7h0.2l-5.5-8.6l6.3,8.5h0.2l-6.3-8.4
			l7.1,8.2l0.2-0.1l-7.1-8.1l7.8,7.9l0.2-0.1l-7.8-7.9l8.5,7.5l0.2-0.1l-8.5-7.5l9,7.1l0.2-0.1l-9.1-7.1l9.6,6.6l0.1-0.1l-9.7-6.6
			l10.1,6.1c0-0.1,0.1-0.1,0.1-0.2l-10.2-6.1l10.6,5.4c0-0.1,0-0.1,0.1-0.2l-10.7-5.5l10.9,4.8c0-0.1,0-0.1,0-0.2l-11.1-4.9l11.2,4
			c0-0.1,0-0.1,0-0.2l-11.3-4.1l11.4,3.3c0-0.1,0-0.1,0-0.2l-11.5-3.2l11.4,2.2v-0.2l-11.6-2.3l11.3,1.3l-0.1-0.2l-11.5-1.3l11,0.2
			l-0.1-0.2l-11.2-0.2l10.6-0.9l-0.1-0.2l-10.8,0.9l10-2l-0.1-0.2l-10.1,2l9.3-3.2l-0.1-0.1l-9.3,3.2l8.3-4.3l-0.1-0.1L334,147
			l7.3-5.3l-0.1-0.1l-7.3,5.3l6.1-6.3l-0.2-0.1l-6.1,6.2l4.8-7.1l-0.2-0.1l-4.8,7.1l3.5-7.9l-0.2-0.1l-3.5,7.8l2.1-8.4l-0.2-0.1
			l-2.1,8.4l0.8-8.9l-0.2-0.1l-0.8,8.8l-0.5-9.2l-0.2-0.1l0.5,9.1l-1.7-9.5h-0.2l1.7,9.3l-2.9-9.5h-0.2l2.8,9.4l-3.9-9.6h-0.2
			l3.9,9.4l-5-9.5h-0.2l4.9,9.4l-5.9-9.3h-0.2l5.9,9.2l-6.8-9.1h-0.2l6.8,9l-7.6-8.8l-0.2,0.1l7.6,8.8l-8.4-8.5l-0.2,0.1l8.4,8.4
			l-9.1-8l-0.2,0.1l9.1,8.1l-9.7-7.6l-0.2,0.1l9.8,7.6l-10.3-7.1l-0.1,0.2l10.4,7.1l-10.8-6.5l-0.1,0.2l10.9,6.5l-11.2-5.8
			c0,0.1,0,0.1-0.1,0.2l11.4,5.9l-11.6-5.1c0,0.1,0,0.1,0,0.2l11.7,5.1l-11.8-4.2c0,0.1,0,0.1,0,0.2l12,4.3l-11.9-3.3
			c0,0.1,0,0.1,0,0.2l12.1,3.4l-11.9-2.4v0.2l12,2.4l-11.7-1.3l0,0l0.1,0.2l11.9,1.3l-11.3-0.2v0.1v0.1l11.5,0.2l-10.8,0.9v0.1v0.1
			l11-0.9l-10.1,2.1v0.1l0.1,0.1l10.3-2.1l-9.3,3.2l0.1,0.1l9.4-3.2l-8.3,4.2l0.1,0.1l8.4-4.3l-7.2,5.3l0.1,0.1l7.2-5.3l-6,6.2
			l0.2,0.1l6-6.1l-4.7,7l0.2,0.1l4.7-6.9l-3.4,7.6l0.2,0.1l3.4-7.5l-2.1,8.1l0.2,0.1l2-8l-0.8,8.5l0.2,0.1l0.8-8.4l0.4,8.8l0.2,0.1
			l-0.4-8.7l1.6,9h0.2l-1.6-8.8l2.7,9L336.4,158.6z"/>
		<polygon class="st36" points="358.9,155.6 332.9,149.4 333.1,148.9 359.1,155.1 		"/>
		<path class="st27" d="M330.6,146.6l4.2,2.8l0.4-0.4c1.5-1.5-2.7-4.3-4.1-2.8L330.6,146.6z"/>
		<path class="st25" d="M332,146.2c1.2,0.1,2.3,0.9,2.9,2c0.4,1-0.3,1.7-1.6,1.6c-1.2-0.1-2.3-0.9-2.9-2
			C330.1,146.7,330.8,146,332,146.2z"/>
		<path class="st33" d="M354.1,147.9c-0.5,0.9-1.2,1.6-2.1,2c-0.5,0.3-1.1,0.5-1.8,0.4l-18.1-2.5c-0.7-0.1-0.7,0.7,0.1,0.8l17.8,3.4
			c0.9,0.1,1.9-0.1,2.7-0.6c0.9-0.4,1.6-1.1,2.1-1.9C355.3,148.8,354.9,147.8,354.1,147.9z"/>
		<path class="st36" d="M354.9,148.8c-0.1,0-0.1,0-0.2,0l-21.7-2.3c-0.1,0-0.3-0.1-0.3-0.3c0,0,0,0,0,0c0.1-0.2,0.2-0.3,0.4-0.2
			l21.7,2.3c0.1,0,0.3,0.1,0.3,0.3c0,0,0,0,0,0C355.1,148.6,355.1,148.7,354.9,148.8z"/>
		<path class="st37" d="M331.8,147.9l2.3-1.2l10.5-7.1l2.9-3.2c0.5-1-1.7-1.8-2.1-1.1l-2.2,2.7L331.8,147.9z"/>
		<path class="st33" d="M347.4,135.6c-0.6-0.4-1.4-0.4-1.7,0l-2.3,2.7l-11.6,9.6c-0.3,0.2,0.2,0.7,0.7,0.3l12.1-8.5l2.9-3.2
			C347.6,136.2,347.6,135.9,347.4,135.6z"/>
		<path class="st27" d="M331.6,148l1.1,0.7l0.1-0.1c0.4-0.4-0.7-1.1-1.1-0.7L331.6,148z"/>
		<path class="st38" d="M332,147.9c0.3,0,0.6,0.2,0.8,0.5c0.1,0.2-0.1,0.4-0.4,0.4c-0.3,0-0.6-0.2-0.8-0.5
			C331.5,148,331.7,147.8,332,147.9z"/>
		<path class="st39" d="M345.7,131.8c-0.9-1.1-3.4,0.4-2.5,1.6l14.6,17.7c1,1.2,3.3-0.6,2.8-1.1L345.7,131.8z"/>
		<path class="st33" d="M344.5,131.4c-0.6,0.1-1.2,0.5-1.5,1.1c-0.2,0.4,0.2,1.1,1.1,0.8l14.3,17.4c0.3,0.4,0.8,0.5,1.2,0.4
			c0.7-0.4,1.2-1,0.9-1.3l-14.9-18.1C345.4,131.4,345,131.3,344.5,131.4z"/>
		<polygon class="st33" points="356.6,148.4 367.7,146.6 368,147.4 356.9,149.2 		"/>
		<path class="st33" d="M353.6,149.5c-0.6-0.1-1.2,0.2-1.3,0.8c-0.1,0.6,0.2,1.2,0.8,1.3c0.1,0,0.2,0,0.3,0l9.2,1.6
			c1.9,0.3,4-1.4,4.5-2.6l7.7-17.9c0.5-1-2.3-1.6-2.7-0.9l-7.4,16.8c-0.4,1.4-1.8,2.2-3.2,2L353.6,149.5z"/>
		<path class="st32" d="M352.3,150.6c0,0.5,0.3,0.9,0.8,1l9.6,1.6c1.9,0.3,4-1.4,4.5-2.6l7.7-17.9c0,0,0-0.1,0-0.1
			c-0.7-0.4-2.1-0.6-2.4-0.1l-7.4,16.8c-0.8,1.8-2.1,2.8-3.3,2.6S353.6,150.8,352.3,150.6z"/>
		<path class="st40" d="M353.8,149.3l8.2,5.5l0.8-0.8c3-2.9-5.2-8.5-8.1-5.5L353.8,149.3z"/>
		
			<linearGradient id="SVGID_00000152251728166239656080000016437282499220699312_" gradientUnits="userSpaceOnUse" x1="236.8694" y1="318.7875" x2="243.0094" y2="329.4075" gradientTransform="matrix(1.05 -0.36 -0.32 -0.85 209.799 513.1827)">
			<stop  offset="0" style="stop-color:#706F6F"/>
			<stop  offset="0.88" style="stop-color:#FFFFFF"/>
			<stop  offset="1" style="stop-color:#FFFFFF"/>
		</linearGradient>
		<path style="fill-rule:evenodd;clip-rule:evenodd;fill:url(#SVGID_00000152251728166239656080000016437282499220699312_);" d="
			M356.5,148.6c2.4,0.2,5,2,5.7,3.9s-0.6,3.3-3.1,3s-5-2-5.7-3.9S354.1,148.4,356.5,148.6z"/>
		
			<linearGradient id="SVGID_00000172398608497859135660000012394351388500038333_" gradientUnits="userSpaceOnUse" x1="242.4579" y1="328.4733" x2="237.4079" y2="319.7233" gradientTransform="matrix(1.05 -0.36 -0.32 -0.85 209.799 513.1827)">
			<stop  offset="0" style="stop-color:#706F6F"/>
			<stop  offset="0.88" style="stop-color:#FFFFFF"/>
			<stop  offset="1" style="stop-color:#FFFFFF"/>
		</linearGradient>
		<path style="fill-rule:evenodd;clip-rule:evenodd;fill:url(#SVGID_00000172398608497859135660000012394351388500038333_);" d="
			M356.7,149.2c2,0.2,3.8,1.4,4.7,3.2c0.6,1.6-0.5,2.7-2.5,2.5c-2-0.2-3.8-1.4-4.7-3.2C353.6,150.2,354.7,149,356.7,149.2z"/>
		<path class="st36" d="M358.6,152.9c-0.3-0.7-1.4-0.3-1.1,0.4l1.9,4.9c0.3,0.7,1.4,0.3,1.1-0.4L358.6,152.9z"/>
		<path class="st40" d="M356.3,151.4l2.7,1.8l0.3-0.3c1-1-1.8-2.8-2.7-1.9L356.3,151.4z"/>
		
			<linearGradient id="SVGID_00000085235374275427718680000004273678562169409932_" gradientUnits="userSpaceOnUse" x1="238.6943" y1="322.1942" x2="240.7443" y2="325.7441" gradientTransform="matrix(1.05 -0.36 -0.32 -0.85 209.799 513.1827)">
			<stop  offset="0" style="stop-color:#706F6F"/>
			<stop  offset="0.88" style="stop-color:#FFFFFF"/>
			<stop  offset="1" style="stop-color:#FFFFFF"/>
		</linearGradient>
		<path style="fill-rule:evenodd;clip-rule:evenodd;fill:url(#SVGID_00000085235374275427718680000004273678562169409932_);" d="
			M357.2,151.1c0.8,0.1,1.6,0.6,1.9,1.3c0.2,0.6-0.2,1.1-1,1c-0.8-0.1-1.6-0.5-2-1.3C355.9,151.5,356.4,151,357.2,151.1z"/>
		<polygon class="st25" points="353,161.8 356.8,162.3 361.6,157.6 357.8,157.2 		"/>
		<polygon class="st26" points="357.2,163.2 353.4,162.8 353,161.8 356.8,162.3 		"/>
		<polygon class="st27" points="357.2,163.2 362,158.5 361.6,157.6 356.8,162.3 		"/>
		<path class="st28" d="M358,162.2l3-3c0.3-0.3,0-0.9-0.3-0.6l-3,3C357.4,161.9,357.7,162.5,358,162.2z"/>
		<path class="st33" d="M395.4,152.2c-6.2-4.8-10.6-11.3-15.8-18.8l-3.3,1c5.6,6.6,9.9,13.2,18.1,18.3
			C395.5,153.5,396.3,152.9,395.4,152.2z"/>
		<path class="st26" d="M383.9,137.6l-0.6-0.4c-9.2,1.7-11.2,10.2-8.2,16.2l1.7-1.7C377.3,151.7,375.4,141,383.9,137.6z"/>
		<path class="st32" d="M379.2,138.7c-7,3.6-6.1,10.2-4.3,14.9h0.6l0,0c-1.9-4.8-2.6-11.6,4.3-14.5L379.2,138.7z"/>
		<path class="st40" d="M392.9,152.2l0.5-0.5c0.9-0.4,1.9-0.1,2.6,0.6c0.8,0.7,1,1.5,0.5,1.9l0,0l-0.3,0.3c0.4-0.4,0-1.1-0.7-1.7
			C394.1,151.6,392.9,152.5,392.9,152.2z"/>
		
			<linearGradient id="SVGID_00000047780627554679061940000012906993803446820535_" gradientUnits="userSpaceOnUse" x1="269.2406" y1="307.5177" x2="271.7906" y2="311.9377" gradientTransform="matrix(1.05 -0.36 -0.32 -0.85 209.799 513.1827)">
			<stop  offset="0" style="stop-color:#706F6F"/>
			<stop  offset="0.88" style="stop-color:#FFFFFF"/>
			<stop  offset="1" style="stop-color:#FFFFFF"/>
		</linearGradient>
		<path style="fill-rule:evenodd;clip-rule:evenodd;fill:url(#SVGID_00000047780627554679061940000012906993803446820535_);" d="
			M396,154.6c-0.9,0.4-1.9,0.1-2.6-0.6c-0.8-0.7-1-1.6-0.4-2c0.9-0.4,1.9-0.1,2.6,0.6C396.5,153.4,396.6,154.3,396,154.6z"/>
		<path class="st25" d="M406.8,144.7c-5.8-5-13.2-7.8-19.3-7.7c-2.6,0-5.1,0.7-7.2,2c-1.3,0.7-2.4,1.7-3.2,2.9
			c-3.1,4.5,0.2,11.9,6.9,17.7c4.3,3.8,9.4,6.5,15,7.8c4.3,0.9,8.2,0.6,11.1-1.3c0.8-0.7,1.6-1.5,2.3-2.3c2-2.3,2.5-5.6,1.5-9
			l-0.8-2.1C411.6,149.7,409.5,146.9,406.8,144.7z M405.2,163.6c-2.1,1.3-4.7,1.8-7.1,1.4c-4.8-0.5-9.2-2.5-12.8-5.7
			c-6.3-5.4-7.5-12.4-2.8-15.5c2.1-1.2,4.6-1.7,7.1-1.4c4.8,0.5,9.2,2.5,12.8,5.7C408.7,153.6,409.9,160.6,405.2,163.6z"/>
		<path class="st27" d="M405.2,146.3c-4.8-4.2-10.8-6.9-17.1-7.6c-3.3-0.4-6.6,0.2-9.5,1.9c-6.3,4.1-4.6,13.4,3.7,20.6
			c4.8,4.2,10.8,6.8,17.1,7.6c3.3,0.4,6.6-0.2,9.5-1.9C415.3,162.8,413.6,153.6,405.2,146.3z M405.2,163.7c-2.1,1.3-4.7,1.8-7.1,1.4
			c-4.8-0.5-9.2-2.5-12.8-5.7c-6.3-5.4-7.5-12.4-2.8-15.5c2.1-1.2,4.6-1.7,7.1-1.4c4.8,0.5,9.2,2.5,12.8,5.7
			C408.7,153.6,409.9,160.6,405.2,163.7L405.2,163.7z"/>
		
			<linearGradient id="SVGID_00000095297465954390743080000016626147478670392477_" gradientUnits="userSpaceOnUse" x1="276.2498" y1="320.703" x2="263.3597" y2="298.383" gradientTransform="matrix(1.05 -0.36 -0.32 -0.85 209.799 513.1827)">
			<stop  offset="3.000000e-02" style="stop-color:#706F6F"/>
			<stop  offset="0.89" style="stop-color:#FFFFFF"/>
		</linearGradient>
		<path style="fill-rule:evenodd;clip-rule:evenodd;fill:url(#SVGID_00000095297465954390743080000016626147478670392477_);" d="
			M403.4,147.5c-4-3.5-9-5.7-14.3-6.3c-2.7-0.4-5.5,0.2-7.9,1.6c-5.3,3.4-3.9,11.2,3.1,17.3c4,3.5,9,5.7,14.3,6.3
			c2.7,0.4,5.5-0.2,7.9-1.6C411.8,161.4,410.4,153.6,403.4,147.5z M405.2,163.6c-2.1,1.3-4.7,1.8-7.1,1.4c-4.8-0.5-9.2-2.5-12.8-5.7
			c-6.3-5.4-7.5-12.4-2.8-15.5c2.1-1.2,4.6-1.7,7.1-1.4c4.8,0.5,9.2,2.5,12.8,5.7C408.7,153.6,409.9,160.6,405.2,163.6z"/>
		<path class="st35" d="M397.5,165l-2.7-8.9l3.7,9h0.2l-3.7-8.9l4.7,8.9h0.2l-4.6-8.8l5.5,8.7h0.2l-5.5-8.6l6.3,8.5h0.2l-6.3-8.4
			l7.1,8.1l0.2-0.1l-7.1-8.2l7.8,7.9l0.2-0.1l-7.8-7.9l8.5,7.5l0.2-0.1l-8.5-7.5l9,7.1l0.2-0.1l-9.1-7.1l9.6,6.6
			c0.1,0,0.1-0.1,0.1-0.2l-9.7-6.6l10.1,6.1c0-0.1,0.1-0.1,0.1-0.2l-10.2-6.1l10.6,5.4c0-0.1,0-0.1,0.1-0.2l-10.7-5.5l10.9,4.8
			c0-0.1,0-0.1,0-0.2l-11.1-4.8l11.2,4c0-0.1,0-0.1,0-0.2l-11.3-4.1l11.4,3.2c0-0.1,0-0.1,0-0.2l-11.5-3.2l11.4,2.2v-0.2l-11.6-2.3
			l11.3,1.2l-0.1-0.2l-11.5-1.2l11,0.2l-0.1-0.2l-11.2-0.2l10.6-0.9l-0.1-0.2l-10.8,0.9l10-2l-0.1-0.2l-10.1,2.1l9.3-3.2l-0.1-0.1
			l-9.3,3.2l8.3-4.3l-0.1-0.1l-8.4,4.2l7.3-5.3l-0.1-0.1l-7.3,5.3l6.1-6.3l-0.2-0.1l-6.1,6.3l4.8-7.1l-0.2-0.1l-4.8,7.1l3.5-7.9
			l-0.2-0.1l-3.5,7.8l2.1-8.4l-0.2-0.1l-2.1,8.4l0.8-8.9l-0.2-0.1l-0.8,8.8l-0.5-9.2l-0.2-0.1l0.5,9.1l-1.7-9.4H392l1.7,9.3
			l-2.9-9.6h-0.2l2.8,9.4l-3.9-9.6h-0.2l3.9,9.4l-5-9.5h-0.2l4.9,9.4l-5.9-9.3h-0.2l5.9,9.2l-6.8-9.1l-0.2,0.1l6.8,9l-7.6-8.8
			l-0.2,0.1l7.6,8.8l-8.4-8.5l-0.2,0.1l8.4,8.4l-9.1-8.1l-0.2,0.1l9.1,8.1l-9.7-7.6l-0.2,0.1l9.8,7.6l-10.3-7l-0.1,0.2l10.4,7.1
			l-10.8-6.5l-0.1,0.2l10.9,6.5l-11.2-5.8c0,0.1,0,0.1-0.1,0.2l11.4,5.9l-11.6-5c0,0.1,0,0.1,0,0.2l11.7,5.1l-11.8-4.2
			c0,0.1,0,0.1,0,0.2l12,4.3l-11.9-3.3c0,0.1,0,0.1,0,0.2l12.1,3.4l-11.9-2.3v0.2l12,2.4l-11.7-1.3l0,0l0.1,0.2l11.8,1.3l-11.3-0.2
			v0.1v0.1l11.5,0.2l-10.8,0.9v0.1v0.1l11-0.9l-10.1,2v0.1l0.1,0.1l10.3-2.1l-9.3,3.2l0.1,0.1l9.4-3.2l-8.3,4.3l0.1,0.1l8.4-4.3
			l-7.2,5.3l0.1,0.1l7.2-5.3l-6,6.2l0.2,0.1l6-6.1l-4.7,7l0.2,0.1l4.7-6.9l-3.4,7.6l0.2,0.1l3.4-7.6l-2.1,8.1l0.2,0.1l2-8.1
			l-0.8,8.5l0.2,0.1l0.8-8.4l0.4,8.8l0.2,0.1l-0.4-8.7l1.6,8.9h0.2l-1.6-8.8l2.7,9L397.5,165z"/>
		<path class="st40" d="M392.3,152.8l0.5-0.5c0.9-0.3,1.9-0.1,2.6,0.6c0.8,0.7,1,1.5,0.5,1.9l0,0l-0.3,0.3c0.4-0.5,0-1.1-0.7-1.8
			C393.6,152.2,392.4,153.1,392.3,152.8z"/>
		
			<linearGradient id="SVGID_00000049214982254216044080000009920772368828446626_" gradientUnits="userSpaceOnUse" x1="268.636" y1="307.1147" x2="271.186" y2="311.5346" gradientTransform="matrix(1.05 -0.36 -0.32 -0.85 209.799 513.1827)">
			<stop  offset="0" style="stop-color:#706F6F"/>
			<stop  offset="0.88" style="stop-color:#FFFFFF"/>
			<stop  offset="1" style="stop-color:#FFFFFF"/>
		</linearGradient>
		<path style="fill-rule:evenodd;clip-rule:evenodd;fill:url(#SVGID_00000049214982254216044080000009920772368828446626_);" d="
			M395.5,155.2c-0.9,0.3-1.9,0.1-2.6-0.6c-0.8-0.7-1-1.6-0.4-2c0.9-0.4,1.9-0.1,2.6,0.6C396,153.9,396.1,154.8,395.5,155.2z"/>
		<path class="st33" d="M396.1,139.6c-6.5-2.5-13.1-2.7-17.3,0c-0.3,0.2-0.6,0.4-0.9,0.7l-0.2-0.6c0.6-0.8,1.4-1.5,2.3-2.1
			c4.4-2.9,11.3-2.6,18,0l-1.7,1.6L396.1,139.6L396.1,139.6z"/>
		<path class="st32" d="M377.7,139.6c0.2-0.1,0.4-0.3,0.6-0.4c4.4-2.9,11.2-2.6,17.9,0l-0.1,0.4l0,0c-6.5-2.5-13.1-2.7-17.3,0
			c-0.3,0.2-0.6,0.4-0.9,0.7L377.7,139.6z"/>
		<path class="st33" d="M394.4,153.7c-6.7-4.9-12.5-10.9-17.3-17.7c-1.2,0.4-2,0.8-3.2,1.2c5.5,6.7,12.1,12.5,19.5,17.1
			C394.4,155,395.2,154.4,394.4,153.7z"/>
		<path class="st47" d="M379.2,132.5l0.7,0.9c0.6,0.8-1.5,2.6-2.4,2.8c0.2,0.6-2.1,3-3,2.4l-0.9-1L379.2,132.5z"/>
		<path class="st48" d="M378.4,132.5c-1.4,0.5-2.6,1.4-3.6,2.4c-0.8,0.7-1.5,1.8-1.4,2.4c0.2,1.1,3-1.2,3.2-2.2
			C378,134.7,380.6,131.8,378.4,132.5z"/>
		<path class="st33" d="M372.3,128.2c-0.5-0.6-3.1,0.8-2.5,1.6l4.8,5.8c0.7,0.8,3-0.9,2.5-1.6L372.3,128.2z"/>
		<path class="st49" d="M368.3,123.8l-2,1.2l3.7,4.5c0.5,0.6,2.4-0.7,2-1.2L368.3,123.8z"/>
		<path class="st50" d="M338.6,124.1l-1.5,1l6.4,7.7c0.4,0.5,1.9-0.6,1.5-1L338.6,124.1z"/>
		<path class="st27" d="M348.1,128.1c-1.3,1.4-2.7,1.6-8,1c-1.5,0.2-3,0.6-4.4,1.2c-2,0.8-3-0.3-3.9-1.4c-0.2-0.2-0.3-0.6-0.3-0.9
			h0.4c1-2.1,2.7-3.7,4.9-4.6c4.2-1.5,3.6,2.3,6.4,2.7c1.7,0.3,3.3,0.4,4.3,0.7l0.6-0.2c0.2,0.3,0.3,0.6,0.3,0.9
			C348.4,127.7,348.3,127.9,348.1,128.1z"/>
		<path class="st25" d="M347.8,127.4c-1.3,1.4-2.7,1.6-8,1c-1.5,0-3,0.1-4.5,0.4c-2.5,0.6-4.4,0-3.7-1.4c1-2.1,2.7-3.8,4.9-4.7
			c4.2-1.5,3.6,2.3,6.4,2.7C346.2,125.9,349.1,126,347.8,127.4z"/>
		<path class="st51" d="M355.3,139.6c0.5-1.1-0.5-3.7-2.1-6.2c-0.6-0.9,0.6-0.2,0.3-1c-1.7-3.7-7.2-8.4-10.2-11.3
			c-6.8,4.4-9.4,1.2-11.1,0.2c0.4,4.1,0.3,5.7,3,8.3c1.5,1.5,12.7,7.7,14,11.2c0.3,0.7,3.3-1,4.3-1.6
			C354.1,139.1,355,140.3,355.3,139.6z"/>
		<path class="st29" d="M354.9,158.9c-0.8-0.1-0.5,1.3-0.2,1.7c0.3,0.6,1.4,0.8,2.6,1c1.2,0.2,2.4,0.6,3.5,1.1
			c1.4,0.4,4.1-0.2,5.4-0.9c0.7-0.4,1.1-0.9,0.9-1.3c-0.1-0.1-0.1-0.2-0.4-0.3s-2.6-0.9-3.5-1.1C355.1,157.4,355.7,159,354.9,158.9z
			"/>
		<path class="st30" d="M354.7,157.3c0,0.4-0.6,0.7-0.1,2.6c0.3,0.9,2.6,0.9,3.5,1.1c0.8,0.1,1.6,0.5,2.2,1c0.7,0.3,1.5,0.4,2.3,0.3
			c2.2-0.3,4.6-1.1,4-2.6c-0.2-0.6-3.2-0.9-4.3-1.1c-2.4-0.8-3.5-2-3.7-2.5c-0.3-0.4-0.3-0.2-0.3-0.2
			C357,155.9,355.7,156.4,354.7,157.3z"/>
		<path class="st51" d="M349.4,140.5c1.2-5.6,3.7-3,5.9-0.8c0.2,4,2,13.4,3.5,16.7c0.4,2-3.5,2.3-4,1.5
			C353.1,152.7,348.1,148.9,349.4,140.5z"/>
		<path class="st52" d="M324.6,168.4c-0.2,0.2-0.5,0.2-0.7,0c-0.2-0.1-0.2-0.3-0.1-0.5c0,0,0,0,0.1-0.1c4.3-3.6,4.6-6.3,4.8-9.2
			c0.1-3.4,1.4-6.7,3.6-9.2l-0.2-0.7c0,0,0-0.1,0-0.1l0.2,0.1l0.9,0.2l0.1,0.4l0,0c0,0.1,0,0.2-0.1,0.3c-2.2,2.5-3.4,5.7-3.5,9
			C329.4,161.7,329.2,164.6,324.6,168.4z"/>
		<path class="st53" d="M354.3,133.9c-0.8-1.8-4.4-7.4-6.3-9.3c0.8-1.6-0.4-2.3-2.4-4.2c-6.8,4.4-11.5,2.9-13.1,1.9
			c0.4,4.1,0.3,5.7,3,8.3c1.5,1.5,5.3,3.4,9.6,8.4C347.7,140.9,354.7,137.1,354.3,133.9z"/>
		<path class="st22" d="M340,101.5c2.2,4.4,5.6,6.8,8.7,9.4c1.5,0.4,2.7-1.8,2.5-3.6c-1.7-2.6-2.8-4.9-4.9-8.5
			c-0.7-4.7-3.4-5.3-5.3-4.3S337.3,97.2,340,101.5z"/>
		<path class="st54" d="M346.7,98.7c-0.9,4.2-5.8,4.1-7.3,5.1c-2.4-2.9-3.5-7.4-0.1-10C343.7,91.5,345.4,94.7,346.7,98.7z"/>
		<path class="st22" d="M348.7,111.5c3.3,3,11.3,3.9,13.3,4.8c0.5,0.3,2.7-1.7,1.3-2.3c-2.9-1.3-9.7-5.6-12.1-6.6
			C347.7,107.4,347.8,110.4,348.7,111.5z"/>
		<path class="st55" d="M333.9,95.6c-3.1,2.1-5.5,5.1-7.1,8.5c-2.5,6.4,3.9,14.5,5,21c3.4,4,12.8-0.7,16-6.5
			c-1.6-3.1-1.9-9-1.5-12.1c0.2-1.7,0.5-9.2-2-11.8c-1.3-1.3-3.7-1.2-4.6-1C336.3,94.4,335.8,94.3,333.9,95.6z"/>
		<path class="st51" d="M327.4,109.7c1,4.2,5.7,11.5,5.7,11.5c1,0.8,4-1.1,4.4-2.4c-0.6-4.3-2.2-8-2.8-11.6c0.1-4.4-2.9-4.4-5.2-3.6
			C326.1,104.8,326.3,105.5,327.4,109.7z"/>
		<path class="st56" d="M327.4,111.3c0.5,1.9,7.3,0.5,7.8-2.2c-0.3-3.7-1-6.6-5.4-6C324.9,103.6,326.3,108,327.4,111.3z"/>
		<path class="st57" d="M331.1,98.3c0.9,1.2,4.7,2.4,10.2,2.2c0.7-1.4,1.3-5.2-2.5-5.9S330.8,97.8,331.1,98.3z"/>
		<path class="st51" d="M331.9,98.1c0.8,1.1,4.1,2.2,9,2c0.6-1.3,1.1-4.6-2.2-5.3S331.5,97.4,331.9,98.1z"/>
		<path class="st58" d="M329.6,92.6l0.1,0.1L329.6,92.6z"/>
		<path class="st22" d="M332.2,93.4c0.4,1.3,0.9,3,0.4,4.3c0.3,1,1,1.5,2.6,1.9c3.8,1,6.4-1,4.7-3.4c-0.3-0.5-1.1-0.8-1.5-1.3
			s-1.9,0-2.1-0.7L332.2,93.4z"/>
		<path class="st51" d="M340.3,84.9c0.4,1.1,1,2.1,1.6,3.1c0.5,0.6,0,1.1,0.2,1.7c0.1,0.2,0.5,0.5,0.7,0.8c0.5,0.9,0.6,5-0.4,5.8
			c-1.8,1.3-4.3,0.6-6.5,0.7s-2-2.2-3.1-3.4C327.7,88,336.8,81.2,340.3,84.9z"/>
		<path class="st59" d="M328.1,87.3c-0.7-2.7,4.6-5,8.8-5c5.6,0.1,11.4,4.3,0.6,8.2c0.4-1.8-1-3-3.1-3.1
			C332.7,87.4,329.9,87.4,328.1,87.3z"/>
		<path class="st59" d="M334.8,90.6c-0.5,0.4,0.6,2.1-1.1,3.2c0-0.6-0.2-1.3-0.7-1.7c-0.2-0.2-0.4,1.9-0.6,2
			c0.4,0.7,0.6,1.6,0.4,2.5c-2.1,1.4-1.6-0.5-2.4-1.2s-0.8-1.5-1.3-2c-1.7-1.5-2.1-4-1-6c3.8-1,5.7-1.1,7.7,0.1
			C336.4,88.2,335.4,90.1,334.8,90.6z"/>
		<path class="st51" d="M331.4,93.8c0.6,0.8,1.4,1.3,1.9,1s0.2-1.1,0.1-1.9c-0.1-0.8-0.9-1.4-1.7-1.2c-0.2,0-0.3,0.1-0.4,0.2
			C330.7,92.1,330.8,93,331.4,93.8z"/>
		<path class="st59" d="M334,88.3c1.4,0.4,1.8,1.1,1.2,3.1c2-1.2,2.4-2.7,1.8-4C335.5,86.3,334.6,86.9,334,88.3z"/>
		<path class="st22" d="M346.3,129c0.5-0.3,1.1-0.4,1.7-0.3c0.7,0,1.5,0.2,1.8,0.2c0.7,0.1,0.6,0.2,1.4,0.3
			c-0.1,0.4-0.4,0.8-1.6,0.5c-0.4,0.1-0.9,0.1-1.3-0.1C346.6,130.8,345.6,129.5,346.3,129z"/>
		<path class="st36" d="M324.3,168.3c-0.1,0.1-0.2,0.1-0.3,0.1h-0.1c-0.2-0.1-0.2-0.3-0.1-0.5c0,0,0,0,0.1-0.1
			c4.3-3.6,4.6-6.3,4.8-9.2c0.1-3.4,1.4-6.7,3.6-9.2l-0.2-0.7c0,0,0,0,0-0.1l0,0h0.2l0.6,0.1l0.1,0.4l0,0c0,0.1,0,0.2-0.1,0.3
			c-2.2,2.5-3.4,5.7-3.5,9C329.2,161.6,328.9,164.5,324.3,168.3z"/>
		<path class="st27" d="M321.4,166.2l5.6,4.1l1.2-1.1c2.1-2-3.7-6-5.8-3.9L321.4,166.2z"/>
		<path class="st25" d="M323.3,165.6c1.7,0.2,3.3,1.2,4.1,2.8c0.5,1.4-0.5,2.3-2.2,2.2c-1.7-0.2-3.3-1.2-4.1-2.8
			C320.6,166.5,321.6,165.5,323.3,165.6z"/>
		<path class="st33" d="M323.6,166.4c1.2,0.1,2.3,0.9,2.8,2c0.4,1-0.3,1.6-1.5,1.5c-1.2-0.1-2.3-0.9-2.8-2
			C321.7,167,322.4,166.3,323.6,166.4z"/>
		<path class="st32" d="M326.4,169.3c-0.4,0.2-0.8,0.3-1.3,0.3c-1.2-0.1-2.3-0.9-2.8-2c-0.1-0.3-0.1-0.6,0-0.9
			c0.4-0.2,0.8-0.3,1.3-0.3c1.2,0.1,2.3,0.9,2.8,2C326.6,168.7,326.6,169,326.4,169.3z"/>
		<path class="st23" d="M365.7,117.8c-0.6,0.7-1.6,0.8-2.4,0.3c-0.6-0.4-0.8-1.2-0.4-1.7c0.1-0.1,0.1-0.2,0.2-0.3l4-4.2
			c0.6-0.7,1.6-0.8,2.4-0.3c0.6,0.4,0.7,1.2,0.4,1.8c-0.1,0.1-0.1,0.2-0.2,0.2L365.7,117.8z"/>
		<path class="st48" d="M370.6,113.2l-3.2-1.8l-0.6,0.7c-1,1.1,2.2,3,3.2,1.9L370.6,113.2z"/>
		<path class="st47" d="M369.6,113.5c-0.9-0.1-1.7-0.5-2.2-1.3c-0.3-0.7,0.1-1.2,1-1.2c0.9,0,1.7,0.5,2.2,1.3
			C371,113,370.6,113.5,369.6,113.5z"/>
		<path class="st60" d="M367.5,125.3c-0.4,0.2-0.9,0.1-1.3-0.1c-0.4-0.3-0.5-1-0.2-1.4c0,0,0.1-0.1,0.1-0.1l4-4
			c1.9-1.9,2.4-7.4,1.8-8.4c-0.4-0.2-0.5-0.1-1.4,0.9l-0.2,0.3c-0.5,0.5-1.2,0.6-1.8,0.3c-0.5-0.3-0.6-0.9-0.3-1.4
			c0,0,0.1-0.1,0.1-0.1l0.2-0.3c0.9-1,2.4-2.7,4.9-1.7c0.7,0.4,1.2,1.2,1.3,2c0.4,2.4-0.4,7.4-2.6,9.6l-4,4
			C367.9,125.1,367.7,125.2,367.5,125.3z"/>
		<path class="st61" d="M367,122.9l-1.6,1.6c-1.1,1,0.8,2.4,1.8,1.5l1.9-1.9C369.7,123.4,368,122,367,122.9z"/>
		<path class="st23" d="M347.9,135.3c-0.6,0.7-1.6,0.8-2.4,0.3c-0.6-0.4-0.8-1.2-0.4-1.7c0.1-0.1,0.1-0.2,0.2-0.3l4-4.2
			c0.6-0.6,1.6-0.8,2.4-0.3c0.6,0.4,0.8,1.1,0.4,1.7c-0.1,0.1-0.1,0.2-0.2,0.3L347.9,135.3z"/>
		<path class="st48" d="M352.8,130.6l-3.2-1.8l-0.6,0.7c-1,1.1,2.2,3,3.1,1.9L352.8,130.6z"/>
		<path class="st47" d="M351.8,131c-0.9-0.1-1.7-0.5-2.2-1.3c-0.3-0.7,0.1-1.2,1.1-1.2c0.9,0,1.8,0.5,2.2,1.3
			C353.2,130.5,352.7,131,351.8,131z"/>
		<path class="st60" d="M362.9,129.6c-1.9,0.6-3.5-0.2-4.8-0.9c-0.9-0.6-1.9-0.9-2.9-1c-0.6,0.2-1.2,0.7-2.3,1.9l-0.4,0.4
			c-0.5,0.5-1.2,0.6-1.8,0.2c-0.4-0.3-0.5-1-0.2-1.4c0,0,0.1-0.1,0.1-0.1l0.4-0.4c1.4-1.4,2.3-2.4,3.9-2.7h0.2
			c1.6-0.1,3.2,0.4,4.6,1.3c1.5,0.8,2,1,2.6,0.7l2.5-2.5c0.5-0.5,1.2-0.6,1.8-0.2c0.4,0.3,0.5,1,0.2,1.4c0,0-0.1,0.1-0.1,0.1
			l-2.7,2.6c-0.1,0.1-0.1,0.1-0.2,0.2C363.6,129.4,363.2,129.5,362.9,129.6z"/>
		<path class="st47" d="M346.5,136.6c0.8-1.1,1.8-2.1,2.9-3c0.9-0.8,1.9-2.1,1.6-2.8l-0.4-0.2c0.2,1.3-2.3,3.4-3.7,4.6
			c-0.1,0.1-0.1,0.1-0.2,0.2l0,0l-0.9,1l0.4,0.2l0,0C346.2,136.8,346.3,136.7,346.5,136.6z"/>
		<path class="st50" d="M346.1,136.4c0.8-1.1,1.8-2.1,2.9-3c0.9-0.8,1.9-2.1,1.6-2.8l-0.7,0.8c0.2,1.3-1.6,2.4-3,3.6
			C346.5,135.3,345.1,137,346.1,136.4z"/>
		<path class="st51" d="M332.9,120.9c2,3.8,10.2,8.1,11.6,9.8c0.4,0.5,3.2-1.1,2.1-2c-3.5-3.2-6.1-7.3-9.4-10
			C335.4,119.4,333.1,118.6,332.9,120.9z"/>
		<path class="st51" d="M343.7,129.9c-0.4-0.3,0.8-1.8,1.8-1.6c1.5,0.6,1.6,0.2,2.4,0.4c1.1,0.5,2.1,1.2,3,2.1
			c0.4,0.3-2.4,2.2-3,2.2c-1.1-0.3-2.1-0.9-3-1.7C344.3,130.5,344.4,130.4,343.7,129.9z"/>
		<path class="st22" d="M348.6,132.6l1.1,1.4c0.3,0.4-0.3,0.6-0.6,0.3l-1.2-1.3C347.6,132.8,348.4,132.3,348.6,132.6z"/>
		<path class="st22" d="M348.7,132.1L348.7,132.1c0.2-0.1,0.5-0.1,0.7,0.1l1.4,1.6c0.4,0.4-0.2,0.8-0.6,0.4l-1.6-1.5
			C348.5,132.5,348.5,132.3,348.7,132.1C348.7,132.1,348.7,132.1,348.7,132.1z"/>
		<path class="st22" d="M349.4,131.6L349.4,131.6c0.2-0.1,0.5-0.1,0.7,0.1l1.5,1.8c0.4,0.5-0.3,0.9-0.7,0.4l-1.6-1.7
			C349.2,132,349.2,131.8,349.4,131.6C349.4,131.6,349.4,131.6,349.4,131.6z"/>
		<path class="st22" d="M351,130.9l1.3,1.7c0.3,0.4-0.3,0.8-0.7,0.4l-1.4-1.6C349.8,131,350.6,130.5,351,130.9z"/>
		<path class="st51" d="M363,113.6c0.5-0.4,1.2-0.6,1.8-0.5c0.8,0,1.6,0.1,1.9,0.1c0.8,0,0.7,0.2,1.5,0.2c-0.1,0.4-0.3,0.9-1.7,0.7
			c-0.5,0.2-1,0.2-1.4,0C363.5,115.6,362.3,114.3,363,113.6z"/>
	</g>
</g>
</svg>
