<svg xmlns="http://www.w3.org/2000/svg" viewBox="0 0 192.29 85.39"><defs><style>.cls-1{fill:none;stroke:#697ab9;stroke-miterlimit:10;stroke-width:3px;}</style></defs><g id="Layer_2" data-name="Layer 2"><g id="Layer_2-2" data-name="Layer 2"><circle class="cls-1" cx="39.03" cy="66.54" r="8.67"/><circle class="cls-1" cx="39.03" cy="66.54" r="17.34"/><circle class="cls-1" cx="160.44" cy="66.54" r="8.67"/><circle class="cls-1" cx="160.44" cy="66.54" r="17.34"/><line class="cls-1" x1="56.37" y1="70.88" x2="143.1" y2="70.88"/><path class="cls-1" d="M177.79,70.88h0a13,13,0,0,0,13-13V53.06a19.82,19.82,0,0,0-5.79-14h0a30.63,30.63,0,0,0-17.31-8.65L154.3,28.5a30.69,30.69,0,0,1-12.64-4.83l-25.55-17a30.58,30.58,0,0,0-17-5.14H62.77A30.62,30.62,0,0,0,43.65,8.2l-7.48,6A30.45,30.45,0,0,1,23.05,20.3l-2.7.54A14.54,14.54,0,0,0,8.67,35.09V53.94a11.46,11.46,0,0,0,7.85,10.88l5.16,1.72"/><path class="cls-1" d="M60.71,36.19h71.17a2.29,2.29,0,0,0,1.37-4.13l-21-15.77a30.63,30.63,0,0,0-18.36-6.12H67.1A30.62,30.62,0,0,0,48,16.88l-11.1,8.88a5.85,5.85,0,0,0-2.2,4.57h0a5.86,5.86,0,0,0,5.86,5.86H52"/><line class="cls-1" x1="78.05" y1="5.84" x2="78.05" y2="40.53"/><line class="cls-1" x1="82.39" y1="44.86" x2="95.4" y2="44.86"/><line class="cls-1" y1="83.89" x2="39.03" y2="83.89"/><line class="cls-1" x1="121.41" y1="83.89" x2="160.44" y2="83.89"/></g></g></svg>