<svg xmlns="http://www.w3.org/2000/svg" viewBox="0 0 41.29 35.36"><defs><style>.cls-1{fill:#fcf383;stroke:#020000;stroke-miterlimit:10;stroke-width:2px;}</style></defs><g id="Layer_2" data-name="Layer 2"><g id="Layer_2-2" data-name="Layer 2"><path class="cls-1" d="M16.45,3.17,1.67,27.49a4.52,4.52,0,0,0,3.86,6.87H35.76a4.52,4.52,0,0,0,3.82-6.94L24.13,3.1A4.52,4.52,0,0,0,16.45,3.17Z"/><path d="M19,27.79A1.66,1.66,0,0,1,20.68,26a1.62,1.62,0,0,1,1.67,1.75,1.65,1.65,0,0,1-1.67,1.76A1.66,1.66,0,0,1,19,27.79Zm.71-4-.4-13.59H22l-.4,13.59Z"/></g></g></svg>