<svg xmlns="http://www.w3.org/2000/svg" viewBox="0 0 167.78 102.74"><defs><style>.cls-1{fill:none;stroke:#697ab9;stroke-miterlimit:10;stroke-width:3px;}</style></defs><g id="Layer_2" data-name="Layer 2"><g id="Layer_2-2" data-name="Layer 2"><path class="cls-1" d="M57.87,83.89a17.34,17.34,0,1,0-34.68,0"/><path class="cls-1" d="M14.52,83.89H9.15A7.66,7.66,0,0,1,1.5,76.24V9.15A7.66,7.66,0,0,1,9.15,1.5H93.59a7.66,7.66,0,0,1,7.65,7.65V83.89H70.89"/><path class="cls-1" d="M148.94,53.53h-47.7v-39H124.9A15.3,15.3,0,0,1,139.42,25Z"/><path class="cls-1" d="M148.94,83.89a17.34,17.34,0,1,0-34.68,0"/><path class="cls-1" d="M105.58,83.89h-4.34V53.53H151a15.3,15.3,0,0,1,15.3,15.29V83.89h-8.67"/><line class="cls-1" x1="114.25" y1="14.51" x2="114.25" y2="44.86"/><polyline class="cls-1" points="135.93 44.86 127.26 44.86 127.26 31.85"/><path class="cls-1" d="M131.59,66.54a17.35,17.35,0,1,0,17.35,17.35A17.34,17.34,0,0,0,131.59,66.54Zm0,26a8.67,8.67,0,1,1,8.67-8.67A8.68,8.68,0,0,1,131.59,92.56Z"/><circle class="cls-1" cx="131.59" cy="83.89" r="8.67"/><path class="cls-1" d="M40.54,66.54A17.35,17.35,0,1,0,57.87,83.89,17.35,17.35,0,0,0,40.54,66.54Zm0,26a8.67,8.67,0,1,1,8.67-8.67A8.67,8.67,0,0,1,40.54,92.56Z"/><circle class="cls-1" cx="40.54" cy="83.89" r="8.67"/><line class="cls-1" x1="5.84" y1="101.23" x2="40.53" y2="101.23"/><line class="cls-1" x1="96.9" y1="101.23" x2="131.59" y2="101.23"/></g></g></svg>