<svg xmlns="http://www.w3.org/2000/svg" viewBox="0 0 196.63 97.57"><defs><style>.cls-1{fill:none;stroke:#697ab9;stroke-miterlimit:10;stroke-width:3px;}</style></defs><g id="Layer_2" data-name="Layer 2"><g id="Layer_2-2" data-name="Layer 2"><path class="cls-1" d="M47.69,70.41A8.66,8.66,0,1,1,46.08,65"/><path class="cls-1" d="M55.82,74.39A17.34,17.34,0,1,1,50.5,57"/><path class="cls-1" d="M64.68,74.39a26,26,0,1,1-8.31-23.73"/><path class="cls-1" d="M163.87,44.56a26.61,26.61,0,0,1,5.24-.53A26,26,0,1,1,149.48,53"/><path class="cls-1" d="M165.46,52.28A18.14,18.14,0,1,1,151,70.05a18,18,0,0,1,4.46-11.9"/><path class="cls-1" d="M168.44,61.38c.56-.11.07,0,.67,0a8.66,8.66,0,1,1-7.43,4.21"/><path class="cls-1" d="M151.77,9.34a26,26,0,0,1,26,26,26.94,26.94,0,0,1-.36,4.34"/><path class="cls-1" d="M164.65,19.29A26,26,0,0,1,172.29,31"/><path class="cls-1" d="M141.64,83A30.36,30.36,0,0,1,169.11,39.7a30.56,30.56,0,0,1,7.71,1"/><line class="cls-1" x1="169.11" y1="96.07" x2="130.09" y2="96.07"/><line class="cls-1" x1="39.03" y1="96.07" y2="96.07"/><path class="cls-1" d="M39,68.75l30.41-16,17.34,13L39.79,71.36A1.4,1.4,0,0,1,39,68.75Z"/><path class="cls-1" d="M152.57,50,163,67.63c1.59,2.88,4.31,3.38,6.11,2.42,1.5-.8,2.65-2.42,1-5.67-3.61-7-7.18-11.18-10.69-18.19"/><line class="cls-1" x1="141.64" y1="82.97" x2="104.07" y2="83.06"/><polygon class="cls-1" points="99.73 83.06 73.72 70.05 69.38 78.72 78.05 83.06 99.73 83.06"/><polyline class="cls-1" points="134.23 82.67 121.42 57.04 147.43 31.02 130.09 31.02 112.74 48.37"/><line class="cls-1" x1="112.74" y1="57.04" x2="121.41" y2="48.37"/><polyline class="cls-1" points="82.39 57.04 99.73 39.7 65.04 39.7 26.02 13.68 60.71 13.68 91.06 22.35 104.07 39.7"/><line class="cls-1" x1="78.05" y1="52.71" x2="91.06" y2="39.7"/><line class="cls-1" x1="65.04" y1="48.37" x2="73.72" y2="39.7"/><polyline class="cls-1" points="39.03 22.35 26.02 22.35 17.34 31.02"/><path class="cls-1" d="M156.1.67,147.43,18h-13c-1.23-1.29-8.88-8.95-20.78-8.6-14.21.41-21.91,11.89-22.58,12.93"/><polyline class="cls-1" points="130.09 5.01 147.43 5.01 147.43 18.02"/><circle class="cls-1" cx="101.14" cy="54.37" r="8.2"/><circle class="cls-1" cx="101.14" cy="54.37" r="4.02"/></g></g></svg>