<svg xmlns="http://www.w3.org/2000/svg" viewBox="0 0 198.13 115.74"><defs><style>.cls-1{fill:none;stroke:#697ab9;stroke-miterlimit:10;stroke-width:3px;}</style></defs><g id="Layer_2" data-name="Layer 2"><g id="Layer_2-2" data-name="Layer 2"><circle class="cls-1" cx="36.19" cy="79.55" r="8.67"/><circle class="cls-1" cx="101.23" cy="79.55" r="13.01"/><circle class="cls-1" cx="36.19" cy="79.55" r="34.69"/><circle class="cls-1" cx="161.94" cy="79.55" r="8.67"/><circle class="cls-1" cx="161.94" cy="79.55" r="34.69"/><line class="cls-1" x1="36.19" y1="114.24" x2="1.5" y2="114.24"/><line class="cls-1" x1="161.94" y1="114.24" x2="127.25" y2="114.24"/><line class="cls-1" x1="101.23" y1="92.56" x2="36.19" y2="88.22"/><line class="cls-1" x1="101.23" y1="66.54" x2="36.19" y2="70.88"/><line class="cls-1" x1="75.22" y1="31.85" x2="36.19" y2="70.88"/><line class="cls-1" x1="143.75" y1="32.78" x2="101.23" y2="79.55"/><line class="cls-1" x1="66.54" y1="14.51" x2="92.56" y2="66.54"/><path class="cls-1" d="M55.53,1.5h22a2,2,0,0,1,2,2v6a5,5,0,0,1-5,5h-16a5,5,0,0,1-5-5v-6A2,2,0,0,1,55.53,1.5Z"/><path class="cls-1" d="M131.59,1.5h22.95a3.06,3.06,0,0,1,3.06,3.06v2.3A7.65,7.65,0,0,1,150,14.51"/><line class="cls-1" x1="161.94" y1="79.55" x2="131.59" y2="1.5"/></g></g></svg>