<svg xmlns="http://www.w3.org/2000/svg" viewBox="0 0 161.94 120.08"><defs><style>.cls-1{fill:none;stroke:#697ab9;stroke-miterlimit:10;stroke-width:3px;}</style></defs><g id="Layer_2" data-name="Layer 2"><g id="Layer_2-2" data-name="Layer 2"><path class="cls-1" d="M21.34,1.5h35a0,0,0,0,1,0,0v52a0,0,0,0,1,0,0h-52a0,0,0,0,1,0,0v-35a17,17,0,0,1,17-17Z"/><path class="cls-1" d="M35.52,53.53H78.05a0,0,0,0,1,0,0v47.7a0,0,0,0,1,0,0H4.34a0,0,0,0,1,0,0V84.72A31.18,31.18,0,0,1,35.52,53.53Z"/><path class="cls-1" d="M13,101.23a26,26,0,0,1,52,0"/><path class="cls-1" d="M56.37,101.23a17.35,17.35,0,1,1-34.69,0"/><path class="cls-1" d="M153.78,92.56a17.35,17.35,0,1,1-30,0"/><path class="cls-1" d="M130.09,66.9a26.91,26.91,0,0,1,4.33-.36,26,26,0,0,1,26,26H113.63"/><line class="cls-1" x1="137.41" y1="118.58" x2="82.39" y2="118.58"/><line class="cls-1" x1="39.03" y1="118.58" y2="118.58"/><path class="cls-1" d="M56.37,40.53H78.14a4.25,4.25,0,0,1,4.25,4.25v4.5a4.25,4.25,0,0,1-4.25,4.25H56.37a0,0,0,0,1,0,0v-13a0,0,0,0,1,0,0Z"/><rect class="cls-1" x="99.73" y="10.17" width="30.35" height="17.34" rx="5"/><path class="cls-1" d="M134.34,10.17h8.76a0,0,0,0,1,0,0v13a0,0,0,0,1,0,0h-8.76a4.25,4.25,0,0,1-4.25-4.25v-4.5a4.25,4.25,0,0,1,4.25-4.25Z"/><path class="cls-1" d="M91,14.51h8.76a0,0,0,0,1,0,0v13a0,0,0,0,1,0,0H91a4.25,4.25,0,0,1-4.25-4.25v-4.5A4.25,4.25,0,0,1,91,14.51Z"/><line class="cls-1" x1="108.41" y1="36.19" x2="108.41" y2="27.52"/><path class="cls-1" d="M78.05,83.89H90.56c9.86,0,17.85-6.85,17.85-15.3V57.87"/><path class="cls-1" d="M78.05,101.23H95.49a23.28,23.28,0,0,0,19.76-11l14.84-23.74-8.68-39"/><line class="cls-1" x1="43.36" y1="27.52" x2="4.34" y2="27.51"/><line class="cls-1" x1="8.67" y1="53.53" x2="20.55" y2="65.41"/></g></g></svg>