<svg xmlns="http://www.w3.org/2000/svg" viewBox="0 0 159.1 154.77"><defs><style>.cls-1{fill:none;stroke:#4dbdef;stroke-miterlimit:10;stroke-width:3px;}</style></defs><g id="Layer_2" data-name="Layer 2"><g id="Layer_2-2" data-name="Layer 2"><path class="cls-1" d="M29.69,1.5H44.86a0,0,0,0,1,0,0V16.68A15.18,15.18,0,0,1,29.69,31.85h0A15.18,15.18,0,0,1,14.51,16.68v0A15.18,15.18,0,0,1,29.69,1.5Z"/><path class="cls-1" d="M14.51,88.22H1.5V44.86a13,13,0,0,1,13-13h0"/><polyline class="cls-1" points="44.86 79.55 53.53 153.27 40.53 153.27 31.85 88.23 27.52 88.23 27.52 153.26 14.51 153.26 14.51 49.2"/><polyline class="cls-1" points="66.54 44.86 44.86 44.86 44.86 79.55"/><polyline class="cls-1" points="62.21 31.85 79.55 18.84 88.22 27.52 66.54 44.86"/><line class="cls-1" x1="14.51" y1="31.85" x2="62.21" y2="31.85"/><rect class="cls-1" x="66.54" y="62.21" width="26.02" height="26.02" rx="13.01"/><polyline class="cls-1" points="79.55 122.92 79.55 153.26 66.55 153.26 66.54 96.9 46.9 96.9 45.88 88.23 79.55 88.23"/><polyline class="cls-1" points="92.57 101.23 92.57 122.91 92.57 153.26 79.55 153.26"/><line class="cls-1" x1="79.55" y1="88.23" x2="92.57" y2="88.23"/><path class="cls-1" d="M92.56,88.22c4.34,0,8.67,5.83,8.67,13v21.68H92.56V101.23"/><path class="cls-1" d="M129.42,18.84h0A15.18,15.18,0,0,1,144.6,34V49.2a0,0,0,0,1,0,0H129.42A15.18,15.18,0,0,1,114.24,34v0a15.18,15.18,0,0,1,15.18-15.18Z"/><polyline class="cls-1" points="144.6 66.54 144.6 88.22 114.24 88.22 114.24 66.54"/><line class="cls-1" x1="114.24" y1="49.2" x2="144.6" y2="49.2"/><path class="cls-1" d="M144.6,49.2a13,13,0,0,1,13,13V96.9h-12l-1-8.68V66.54"/><line class="cls-1" x1="144.6" y1="49.2" x2="144.6" y2="49.2"/><path class="cls-1" d="M92.57,88.23v-13h8.66v-13a13,13,0,0,1,13-13"/><path class="cls-1" d="M114.24,66.54v8.67a13,13,0,0,1-13,13H92.57"/><polygon class="cls-1" points="144.6 88.22 114.24 88.22 109.91 127.25 148.93 127.25 144.6 88.22"/><rect class="cls-1" x="114.24" y="127.25" width="13.01" height="26.02"/><rect class="cls-1" x="131.59" y="127.25" width="13.01" height="26.02"/></g></g></svg>