<svg xmlns="http://www.w3.org/2000/svg" viewBox="0 0 120 120"><defs><style>.cls-1{fill:#0a0a0a;}</style></defs><g id="Layer_2" data-name="Layer 2"><g id="Layer_1-2" data-name="Layer 1"><path class="cls-1" d="M91.54,24.77C89.92,10.86,76.41,0,60,0h0C43.59,0,30.08,10.86,28.46,24.77,12.47,26.18,0,37.93,0,52.22H0C0,67.46,14.19,79.81,31.7,79.81H88.3c17.51,0,31.7-12.35,31.7-27.59h0C120,37.93,107.53,26.18,91.54,24.77Z"/><path class="cls-1" d="M37.29,91.25,34.34,82l-7.7,7h0a5.27,5.27,0,0,0-1.95,4c0,3.1,2.89,5.61,6.45,5.61S37.6,96.06,37.6,93A4.93,4.93,0,0,0,37.29,91.25Z"/><path class="cls-1" d="M67.82,91.25,64.88,82l-7.71,7h0a5.26,5.26,0,0,0-1.94,4c0,3.1,2.88,5.61,6.44,5.61s6.45-2.51,6.45-5.61A4.93,4.93,0,0,0,67.82,91.25Z"/><path class="cls-1" d="M96.71,91.25,93.77,82l-7.71,7h0a5.26,5.26,0,0,0-1.94,4c0,3.1,2.88,5.61,6.44,5.61S97,96.06,97,93A4.93,4.93,0,0,0,96.71,91.25Z"/><path class="cls-1" d="M29.41,112.68l-2.94-9.26-7.71,7h0a5.26,5.26,0,0,0-1.94,4c0,3.1,2.88,5.61,6.44,5.61s6.45-2.51,6.45-5.61A4.93,4.93,0,0,0,29.41,112.68Z"/><path class="cls-1" d="M59.94,112.68,57,103.42l-7.71,7h0a5.26,5.26,0,0,0-1.94,4c0,3.1,2.88,5.61,6.44,5.61s6.45-2.51,6.45-5.61A4.93,4.93,0,0,0,59.94,112.68Z"/><path class="cls-1" d="M88.83,112.68l-2.94-9.26-7.7,7h0a5.26,5.26,0,0,0-1.94,4c0,3.1,2.88,5.61,6.44,5.61s6.45-2.51,6.45-5.61A4.93,4.93,0,0,0,88.83,112.68Z"/></g></g></svg>