<svg xmlns="http://www.w3.org/2000/svg" viewBox="0 0 120 120"><g id="Layer_2" data-name="Layer 2"><g id="Layer_1-2" data-name="Layer 1"><path d="M84.38,4.4a60.78,60.78,0,0,1,5,24.21C89.38,61.94,62.75,89,29.89,89A58.61,58.61,0,0,1,6,83.88,59.48,59.48,0,0,0,60.5,120C93.36,120,120,93,120,59.66A60.37,60.37,0,0,0,84.38,4.4Z"/><path d="M36.94,48.3h9.79L39,54.48,42.48,65l-9-6.59-9,6.59,3.51-10.56L20.29,48.3h9.79L33.51,39Z"/><path d="M13.72,19h8.06l-6.37,5.08,2.87,8.71-7.39-5.43L3.5,32.76l2.89-8.71L0,19H8.07l2.82-7.68Z"/><path d="M47.46,7.68h8.07l-6.37,5.08L52,21.47,44.64,16l-7.39,5.43,2.89-8.71L33.75,7.68h8.07L44.64,0Z"/></g></g></svg>