<svg xmlns="http://www.w3.org/2000/svg" viewBox="0 0 120 120"><defs><style>.cls-1{fill:#fff;}</style></defs><g id="Layer_2" data-name="Layer 2"><g id="Layer_1-2" data-name="Layer 1"><rect width="120" height="120"/><path class="cls-1" d="M61,23.67c7,0,12.77,1,17.35,2.89A21.93,21.93,0,0,1,92,47.18c0,9.86-3.77,17.1-11.14,21.35-4.59,2.71-11.24,4-20.41,4H50.12V96.93H33.67V23.67ZM50.12,59.39h9c5.94,0,9.35-.72,11.6-2.53s3.59-5.06,3.59-9.13c0-4.25-1.88-7.42-5.3-9a21.51,21.51,0,0,0-8.81-1.53H50.12Z"/></g></g></svg>