<svg xmlns="http://www.w3.org/2000/svg" viewBox="0 0 120 120"><defs><style>.cls-1{fill:#fff;}</style></defs><g id="Layer_2" data-name="Layer 2"><g id="Layer_1-2" data-name="Layer 1"><path d="M54.78,0H65.22A54.78,54.78,0,0,1,120,54.78V120a0,0,0,0,1,0,0H0a0,0,0,0,1,0,0V54.78A54.78,54.78,0,0,1,54.78,0Z"/><path class="cls-1" d="M54.83,109.88H65l1,10.12H106L89.52,75.86V59.56c0-13.76-11.81-25-26.81-26.09L63,38.93h-5.9l.21-5.39c-14.6,1.41-26,12.52-26,26v16.3L14,120H54Zm1.93-61.16H63.1l1.38,20.53h-9Zm-.83,31.36h8l1.73,20.53H54.38Z"/></g></g></svg>