<svg xmlns="http://www.w3.org/2000/svg" viewBox="0 0 25.88 16.64"><defs><style>.cls-1{fill:#fff;stroke:#58595b;stroke-linecap:round;stroke-linejoin:round;stroke-width:0.4px;}</style></defs><g id="Layer_2" data-name="Layer 2"><g id="イラスト"><ellipse class="cls-1" cx="12.91" cy="11.55" rx="11.02" ry="4.89"/><path class="cls-1" d="M13.08,14.69c4.83,0,9.07-1.5,11.44-3.75a3.7,3.7,0,0,0,.92-4C23.91,3,19.86.2,12.89.2,6.13.2,2.12,2.83.49,6.6a3.57,3.57,0,0,0,.58,3.74C3.28,12.92,7.83,14.69,13.08,14.69Z"/><path class="cls-1" d="M5.58,3.91v.71h0C5.58,6.46,8.94,8,13.08,8s7.5-1.49,7.5-3.33V3.91"/><path class="cls-1" d="M13.08.58c-4.14,0-7.5,1.49-7.5,3.33s3.36,3.32,7.5,3.32,7.5-1.48,7.5-3.32S17.22.58,13.08.58Zm0,6.13c-3.87,0-7-1.33-7-3s3.13-3,7-3,7,1.32,7,3S17,6.71,13.08,6.71Z"/></g></g></svg>