<?xml version="1.0" encoding="utf-8"?>
<!-- Generator: Adobe Illustrator 26.0.1, SVG Export Plug-In . SVG Version: 6.00 Build 0)  -->
<svg version="1.1" id="Layer_1" xmlns="http://www.w3.org/2000/svg" xmlns:xlink="http://www.w3.org/1999/xlink" x="0px" y="0px"
	 viewBox="0 0 26.8 29.2" style="enable-background:new 0 0 26.8 29.2;" xml:space="preserve">
<style type="text/css">
	.st0{fill:#58595B;}
</style>
<g id="Layer_2_00000051343721394036543530000005582104002225592992_">
	<g id="イラスト">
		<path class="st0" d="M5.5,4L3.7,4.7l0.6,1.6l0.4-0.2l7.1,18.6l0.7,0.5l0.2-0.9l-7-18.6l0.4-0.2L5.5,4z M5.6,5.3L4.5,5.7L4.1,4.9
			l1.1-0.4L5.6,5.3z"/>
		<path class="st0" d="M10.7,4L8.8,4.7l0.6,1.6l0.4-0.2l7.1,18.6l0.7,0.5l0.2-0.9l-7-18.6l0.4-0.2L10.7,4z M10.8,5.3L9.6,5.7
			L9.3,4.9l1.1-0.4L10.8,5.3z"/>
		<path class="st0" d="M15.9,4L14,4.7l0.6,1.6l0.4-0.2l7.1,18.6l0.8,0.5l0.2-0.9L16.1,5.8l0.4-0.2L15.9,4z M15.9,5.3l-1.1,0.4
			l-0.3-0.9l1.1-0.4L15.9,5.3z"/>
	</g>
</g>
</svg>
