<svg xmlns="http://www.w3.org/2000/svg" viewBox="0 0 106.03 6.99"><defs><style>.cls-1{fill:none;stroke:#58595b;stroke-linecap:round;stroke-linejoin:round;stroke-width:0.4px;}</style></defs><g id="Layer_2" data-name="Layer 2"><g id="イラスト"><line class="cls-1" x1="20.6" y1="4.77" x2="21.93" y2="4.77"/><line class="cls-1" x1="20.6" y1="2.22" x2="21.93" y2="2.22"/><line class="cls-1" x1="0.2" y1="6.63" x2="0.2" y2="0.36"/><line class="cls-1" x1="0.52" y1="0.36" x2="0.41" y2="0.2"/><line class="cls-1" x1="0.41" y1="0.2" x2="0.25" y2="0.25"/><line class="cls-1" x1="0.25" y1="0.25" x2="0.2" y2="0.36"/><line class="cls-1" x1="0.2" y1="6.63" x2="0.25" y2="6.74"/><line class="cls-1" x1="0.25" y1="6.74" x2="0.41" y2="6.79"/><line class="cls-1" x1="0.41" y1="6.79" x2="0.52" y2="6.63"/><line class="cls-1" x1="0.52" y1="6.63" x2="0.52" y2="0.36"/><line class="cls-1" x1="16.57" y1="6.15" x2="15.24" y2="6.63"/><line class="cls-1" x1="20.6" y1="6.15" x2="16.57" y2="6.15"/><line class="cls-1" x1="20.6" y1="0.84" x2="16.57" y2="0.84"/><line class="cls-1" x1="16.57" y1="0.84" x2="15.24" y2="0.36"/><line class="cls-1" x1="19.38" y1="6.15" x2="19.38" y2="4.13"/><line class="cls-1" x1="19.38" y1="4.13" x2="18.43" y2="4.13"/><line class="cls-1" x1="18.43" y1="4.13" x2="18.43" y2="6.15"/><line class="cls-1" x1="17.47" y1="6.15" x2="17.47" y2="4.13"/><line class="cls-1" x1="17.47" y1="4.13" x2="16.57" y2="4.13"/><line class="cls-1" x1="16.57" y1="4.13" x2="16.57" y2="6.15"/><line class="cls-1" x1="17.47" y1="2.86" x2="17.47" y2="0.84"/><line class="cls-1" x1="17.47" y1="2.86" x2="16.57" y2="2.86"/><line class="cls-1" x1="16.57" y1="2.86" x2="16.57" y2="0.84"/><line class="cls-1" x1="19.38" y1="2.86" x2="18.43" y2="2.86"/><line class="cls-1" x1="18.43" y1="2.86" x2="18.43" y2="0.84"/><line class="cls-1" x1="19.38" y1="2.86" x2="19.38" y2="0.84"/><line class="cls-1" x1="15.24" y1="6.63" x2="15.24" y2="0.36"/><line class="cls-1" x1="20.6" y1="6.15" x2="20.6" y2="0.84"/><line class="cls-1" x1="2.48" y1="3.49" x2="3.65" y2="4.77"/><line class="cls-1" x1="3.65" y1="4.77" x2="3.65" y2="2.22"/><line class="cls-1" x1="3.65" y1="2.22" x2="2.48" y2="3.49"/><line class="cls-1" x1="6.2" y1="4.13" x2="3.65" y2="4.13"/><line class="cls-1" x1="6.2" y1="2.86" x2="3.65" y2="2.86"/><line class="cls-1" x1="6.2" y1="4.13" x2="6.2" y2="2.86"/><line class="cls-1" x1="15.24" y1="0.36" x2="0.52" y2="0.36"/><line class="cls-1" x1="15.24" y1="6.63" x2="0.52" y2="6.63"/><line class="cls-1" x1="102.06" y1="6.63" x2="102.06" y2="0.36"/><line class="cls-1" x1="102.06" y1="0.36" x2="101.95" y2="0.2"/><line class="cls-1" x1="101.95" y1="0.2" x2="101.79" y2="0.25"/><line class="cls-1" x1="101.79" y1="0.25" x2="101.74" y2="0.36"/><line class="cls-1" x1="101.74" y1="6.63" x2="101.79" y2="6.74"/><line class="cls-1" x1="101.79" y1="6.74" x2="101.95" y2="6.79"/><line class="cls-1" x1="101.95" y1="6.79" x2="102.06" y2="6.63"/><line class="cls-1" x1="101.74" y1="6.63" x2="101.74" y2="0.36"/><line class="cls-1" x1="85.75" y1="6.15" x2="87.07" y2="6.63"/><line class="cls-1" x1="81.71" y1="6.15" x2="85.75" y2="6.15"/><line class="cls-1" x1="81.71" y1="0.84" x2="85.75" y2="0.84"/><line class="cls-1" x1="85.75" y1="0.84" x2="87.07" y2="0.36"/><line class="cls-1" x1="82.93" y1="6.15" x2="82.93" y2="4.13"/><line class="cls-1" x1="82.93" y1="4.13" x2="83.89" y2="4.13"/><line class="cls-1" x1="83.89" y1="4.13" x2="83.89" y2="6.15"/><line class="cls-1" x1="84.84" y1="6.15" x2="84.84" y2="4.13"/><line class="cls-1" x1="84.84" y1="4.13" x2="85.75" y2="4.13"/><line class="cls-1" x1="85.75" y1="4.13" x2="85.75" y2="6.15"/><line class="cls-1" x1="84.84" y1="2.86" x2="84.84" y2="0.84"/><line class="cls-1" x1="84.84" y1="2.86" x2="85.75" y2="2.86"/><line class="cls-1" x1="85.75" y1="2.86" x2="85.75" y2="0.84"/><line class="cls-1" x1="82.93" y1="2.86" x2="83.89" y2="2.86"/><line class="cls-1" x1="83.89" y1="2.86" x2="83.89" y2="0.84"/><line class="cls-1" x1="82.93" y1="2.86" x2="82.93" y2="0.84"/><line class="cls-1" x1="87.07" y1="6.63" x2="87.07" y2="0.36"/><line class="cls-1" x1="81.71" y1="6.15" x2="81.71" y2="0.84"/><line class="cls-1" x1="99.83" y1="3.49" x2="98.6" y2="4.77"/><line class="cls-1" x1="98.6" y1="4.77" x2="98.6" y2="2.22"/><line class="cls-1" x1="98.6" y1="2.22" x2="99.83" y2="3.49"/><line class="cls-1" x1="96.11" y1="4.13" x2="98.6" y2="4.13"/><line class="cls-1" x1="96.11" y1="2.86" x2="98.6" y2="2.86"/><line class="cls-1" x1="96.11" y1="4.13" x2="96.11" y2="2.86"/><line class="cls-1" x1="87.07" y1="0.36" x2="101.74" y2="0.36"/><line class="cls-1" x1="87.07" y1="6.63" x2="101.74" y2="6.63"/><line class="cls-1" x1="105.83" y1="6.15" x2="104.61" y2="6.15"/><line class="cls-1" x1="104.61" y1="6.15" x2="104.61" y2="0.84"/><line class="cls-1" x1="104.61" y1="0.84" x2="105.83" y2="0.84"/><line class="cls-1" x1="105.83" y1="0.84" x2="105.83" y2="6.15"/><line class="cls-1" x1="104.61" y1="1" x2="102.06" y2="1"/><line class="cls-1" x1="102.06" y1="1" x2="102.06" y2="5.99"/><line class="cls-1" x1="102.06" y1="5.99" x2="104.61" y2="5.99"/><line class="cls-1" x1="104.61" y1="5.99" x2="104.61" y2="1"/><line class="cls-1" x1="81.71" y1="4.77" x2="80.65" y2="4.77"/><line class="cls-1" x1="81.71" y1="2.22" x2="80.65" y2="2.22"/><line class="cls-1" x1="75.6" y1="4.77" x2="51.33" y2="4.77"/><line class="cls-1" x1="75.6" y1="2.22" x2="51.33" y2="2.22"/><line class="cls-1" x1="80.65" y1="1.63" x2="75.6" y2="1.63"/><line class="cls-1" x1="75.6" y1="1.63" x2="75.6" y2="5.35"/><line class="cls-1" x1="75.6" y1="5.35" x2="80.65" y2="5.35"/><line class="cls-1" x1="80.65" y1="5.35" x2="80.65" y2="1.63"/><line class="cls-1" x1="26.93" y1="4.77" x2="50.69" y2="4.77"/><line class="cls-1" x1="26.93" y1="2.22" x2="50.69" y2="2.22"/><line class="cls-1" x1="50.96" y1="3.97" x2="50.96" y2="3.92"/><line class="cls-1" x1="50.96" y1="3.92" x2="50.9" y2="3.71"/><line class="cls-1" x1="50.9" y1="3.71" x2="50.9" y2="3.65"/><line class="cls-1" x1="50.69" y1="3.44" x2="50.9" y2="3.65"/><line class="cls-1" x1="50.96" y1="3.97" x2="50.37" y2="5.67"/><line class="cls-1" x1="51.06" y1="3.02" x2="51.06" y2="3.12"/><line class="cls-1" x1="51.06" y1="3.12" x2="51.12" y2="3.28"/><line class="cls-1" x1="51.12" y1="3.28" x2="51.17" y2="3.33"/><line class="cls-1" x1="51.38" y1="3.55" x2="51.17" y2="3.33"/><line class="cls-1" x1="51.06" y1="3.02" x2="51.65" y2="1.32"/><line class="cls-1" x1="51.54" y1="4.19" x2="51.54" y2="4.19"/><line class="cls-1" x1="51.54" y1="4.19" x2="51.54" y2="3.97"/><line class="cls-1" x1="51.54" y1="3.97" x2="51.54" y2="3.81"/><line class="cls-1" x1="51.54" y1="3.81" x2="51.43" y2="3.6"/><line class="cls-1" x1="51.43" y1="3.6" x2="51.38" y2="3.55"/><line class="cls-1" x1="51.01" y1="5.67" x2="51.54" y2="4.19"/><line class="cls-1" x1="50.53" y1="2.8" x2="50.53" y2="2.8"/><line class="cls-1" x1="50.53" y1="2.8" x2="50.48" y2="3.02"/><line class="cls-1" x1="50.48" y1="3.02" x2="50.53" y2="3.23"/><line class="cls-1" x1="50.53" y1="3.23" x2="50.58" y2="3.39"/><line class="cls-1" x1="50.58" y1="3.39" x2="50.69" y2="3.44"/><line class="cls-1" x1="51.01" y1="1.32" x2="50.53" y2="2.8"/><line class="cls-1" x1="26.93" y1="1.63" x2="21.93" y2="1.63"/><line class="cls-1" x1="21.93" y1="1.63" x2="21.93" y2="5.35"/><line class="cls-1" x1="21.93" y1="5.35" x2="26.93" y2="5.35"/><line class="cls-1" x1="26.93" y1="5.35" x2="26.93" y2="1.63"/></g></g></svg>