<?xml version="1.0" encoding="utf-8"?>
<!-- Generator: Adobe Illustrator 26.0.1, SVG Export Plug-In . SVG Version: 6.00 Build 0)  -->
<svg version="1.1" id="Layer_1" xmlns="http://www.w3.org/2000/svg" xmlns:xlink="http://www.w3.org/1999/xlink" x="0px" y="0px"
	 viewBox="0 0 9.3 20.3" style="enable-background:new 0 0 9.3 20.3;" xml:space="preserve">
<style type="text/css">
	.st0{fill:#FFFFFF;stroke:#58595B;stroke-width:0.15;stroke-linecap:round;stroke-linejoin:round;stroke-miterlimit:10;}
</style>
<g id="Layer_2_00000077320282171197951710000000886567431917597578_">
	<g id="イラスト">
		<ellipse transform="matrix(0.8119 -0.5838 0.5838 0.8119 -8.6319 7.6586)" class="st0" cx="7.6" cy="17.2" rx="0.5" ry="0.2"/>
		<ellipse transform="matrix(0.8131 -0.5822 0.5822 0.8131 -8.4759 7.3878)" class="st0" cx="7.3" cy="16.9" rx="0.8" ry="0.3"/>
		<ellipse transform="matrix(0.8119 -0.5838 0.5838 0.8119 -8.3263 7.2443)" class="st0" cx="7.1" cy="16.5" rx="1.1" ry="0.4"/>
		<ellipse transform="matrix(0.8119 -0.5838 0.5838 0.8119 -8.1378 6.9885)" class="st0" cx="6.8" cy="16.1" rx="1.3" ry="0.5"/>
		<ellipse transform="matrix(0.8131 -0.5822 0.5822 0.8131 -7.937 6.6622)" class="st0" cx="6.4" cy="15.7" rx="1.5" ry="0.6"/>
		<ellipse transform="matrix(0.8119 -0.5838 0.5838 0.8119 -7.7645 6.4848)" class="st0" cx="6.2" cy="15.3" rx="1.5" ry="0.6"/>
		<ellipse transform="matrix(0.8119 -0.5838 0.5838 0.8119 -7.5813 6.2346)" class="st0" cx="5.9" cy="14.9" rx="1.5" ry="0.6"/>
		<ellipse transform="matrix(0.8131 -0.5822 0.5822 0.8131 -7.3905 5.9295)" class="st0" cx="5.5" cy="14.5" rx="1.5" ry="0.6"/>
		<ellipse transform="matrix(0.8119 -0.5838 0.5838 0.8119 -7.2189 5.7458)" class="st0" cx="5.3" cy="14.1" rx="1.5" ry="0.6"/>
		<ellipse transform="matrix(0.8119 -0.5838 0.5838 0.8119 -7.0357 5.4956)" class="st0" cx="5" cy="13.7" rx="1.5" ry="0.6"/>
		<ellipse transform="matrix(0.8119 -0.5838 0.5838 0.8119 -6.8538 5.2534)" class="st0" cx="4.7" cy="13.3" rx="1.5" ry="0.6"/>
		<ellipse transform="matrix(0.8119 -0.5838 0.5838 0.8119 -6.3958 4.5478)" class="st0" cx="3.9" cy="12.2" rx="2.9" ry="1.6"/>
		<path class="st0" d="M4.8,11.3c-0.1,0.2-0.2,0.4-0.3,0.6c-0.3-0.1-0.7-0.2-1-0.2C3.2,12,3,12.4,2.9,12.9c-0.2,0-0.5-0.1-0.6-0.2
			c0.1-0.4,0.3-0.8,0.6-1.2c-0.2,0-0.4,0-0.6,0.1c0.1-0.2,0.3-0.4,0.6-0.5L3.3,11c0.3-0.2,0.5-0.5,0.9-0.7c0.3-0.1,0.5-0.2,0.8-0.2
			c-0.4,0.3-0.8,0.6-1.1,1C4.1,11.1,4.5,11.1,4.8,11.3z"/>
		<ellipse transform="matrix(0.8119 -0.5838 0.5838 0.8119 -4.0079 5.9953)" class="st0" cx="7.3" cy="9.2" rx="0.4" ry="0.2"/>
		<ellipse transform="matrix(0.8119 -0.5838 0.5838 0.8119 -3.8682 5.8153)" class="st0" cx="7.1" cy="8.9" rx="0.7" ry="0.3"/>
		<ellipse transform="matrix(0.8119 -0.5838 0.5838 0.8119 -3.7256 5.619)" class="st0" cx="6.9" cy="8.6" rx="1" ry="0.4"/>
		<ellipse transform="matrix(0.8119 -0.5838 0.5838 0.8119 -3.556 5.3874)" class="st0" cx="6.6" cy="8.2" rx="1.2" ry="0.4"/>
		<ellipse transform="matrix(0.8119 -0.5838 0.5838 0.8119 -3.383 5.1479)" class="st0" cx="6.3" cy="7.8" rx="1.4" ry="0.5"/>
		<ellipse transform="matrix(0.8131 -0.5822 0.5822 0.8131 -3.2244 4.8908)" class="st0" cx="6" cy="7.5" rx="1.4" ry="0.5"/>
		<ellipse transform="matrix(0.8119 -0.5838 0.5838 0.8119 -3.0531 4.7021)" class="st0" cx="5.8" cy="7.1" rx="1.4" ry="0.5"/>
		<ellipse transform="matrix(0.8119 -0.5838 0.5838 0.8119 -2.8911 4.4776)" class="st0" cx="5.5" cy="6.7" rx="1.4" ry="0.5"/>
		<ellipse transform="matrix(0.8119 -0.5838 0.5838 0.8119 -2.7253 4.2558)" class="st0" cx="5.2" cy="6.4" rx="1.4" ry="0.5"/>
		<ellipse transform="matrix(0.8119 -0.5838 0.5838 0.8119 -2.5591 4.032)" class="st0" cx="5" cy="6" rx="1.4" ry="0.5"/>
		<ellipse transform="matrix(0.8119 -0.5838 0.5838 0.8119 -2.3933 3.8102)" class="st0" cx="4.7" cy="5.6" rx="1.4" ry="0.5"/>
		<ellipse transform="matrix(0.8119 -0.5838 0.5838 0.8119 -1.9777 3.1688)" class="st0" cx="3.9" cy="4.7" rx="2.6" ry="1.5"/>
		<path class="st0" d="M4.8,3.8c0,0-0.2,0.3-0.3,0.5C4.2,4.2,3.9,4.1,3.6,4.1C3.3,4.4,3.2,4.8,3.1,5.3L2.5,5.1
			c0.1-0.4,0.3-0.7,0.5-1c-0.2,0-0.3,0-0.5,0.1C2.6,3.9,2.8,3.8,3,3.7l0.4-0.1C3.7,3.3,3.9,3.1,4.2,3c0.2-0.1,0.5-0.2,0.7-0.2
			C4.5,3,4.2,3.3,3.9,3.6C4.2,3.6,4.5,3.7,4.8,3.8z"/>
	</g>
</g>
</svg>
