<svg xmlns="http://www.w3.org/2000/svg" viewBox="0 0 34.64 19.01"><defs><style>.cls-1{fill:none;stroke:#58595b;stroke-linecap:round;stroke-linejoin:round;stroke-width:0.4px;}</style></defs><g id="Layer_2" data-name="Layer 2"><g id="イラスト"><g id="ARC"><path class="cls-1" d="M20.21,16.88a1.93,1.93,0,0,0,1.93,1.93h0"/></g><g id="LINE"><line class="cls-1" x1="20.21" y1="16.88" x2="20.21" y2="15.31"/></g><g id="ARC-2" data-name="ARC"><path class="cls-1" d="M22.17,18.81c2.65,0,7.88-.19,10.53-.33"/></g><g id="ARC-3" data-name="ARC"><path class="cls-1" d="M12.47,18.81a1.92,1.92,0,0,0,1.95-1.9v0"/></g><g id="LINE-2" data-name="LINE"><line class="cls-1" x1="14.42" y1="16.88" x2="14.42" y2="15.31"/></g><g id="ARC-4" data-name="ARC"><path class="cls-1" d="M1.94,18.48c2.64.14,7.88.31,10.53.33"/></g><g id="ARC-5" data-name="ARC"><path class="cls-1" d="M1.5,14.93a1,1,0,0,0,2.06,0h0"/></g><g id="LINE-3" data-name="LINE"><line class="cls-1" x1="1.5" y1="13" x2="1.5" y2="14.93"/></g><g id="ARC-6" data-name="ARC"><path class="cls-1" d="M3.56,13A1,1,0,0,0,1.5,13h0"/></g><g id="LINE-4" data-name="LINE"><line class="cls-1" x1="3.56" y1="14.93" x2="3.56" y2="13"/></g><g id="ARC-7" data-name="ARC"><path class="cls-1" d="M31.08,14.93a1,1,0,0,0,2.06,0h0"/></g><g id="LINE-5" data-name="LINE"><line class="cls-1" x1="31.08" y1="13" x2="31.08" y2="14.93"/></g><g id="ARC-8" data-name="ARC"><path class="cls-1" d="M33.14,13a1,1,0,0,0-2.06,0h0"/></g><g id="LINE-6" data-name="LINE"><line class="cls-1" x1="33.14" y1="14.93" x2="33.14" y2="13"/></g><g id="ARC-9" data-name="ARC"><path class="cls-1" d="M32.21,9.61A63.09,63.09,0,0,0,21.89,8"/></g><g id="ARC-10" data-name="ARC"><path class="cls-1" d="M20.7,6.73A1.29,1.29,0,0,0,21.89,8"/></g><g id="LINE-7" data-name="LINE"><line class="cls-1" x1="20.7" y1="6.73" x2="20.7" y2="0.2"/></g><g id="LINE-8" data-name="LINE"><line class="cls-1" x1="20.7" y1="0.2" x2="13.94" y2="0.2"/></g><g id="LINE-9" data-name="LINE"><line class="cls-1" x1="13.94" y1="0.2" x2="13.94" y2="6.73"/></g><g id="ARC-11" data-name="ARC"><path class="cls-1" d="M12.75,8a1.29,1.29,0,0,0,1.19-1.29"/></g><g id="ARC-12" data-name="ARC"><path class="cls-1" d="M12.75,8A63.37,63.37,0,0,0,2.42,9.61"/></g><g id="ARC-13" data-name="ARC"><path class="cls-1" d="M2.42,9.61A2.9,2.9,0,0,0,.2,12.54"/></g><g id="ARC-14" data-name="ARC"><path class="cls-1" d="M.2,12.54c0,1.11.15,3.31.21,4.42"/></g><g id="ARC-15" data-name="ARC"><path class="cls-1" d="M.41,17a1.6,1.6,0,0,0,1.53,1.52"/></g><g id="ARC-16" data-name="ARC"><path class="cls-1" d="M20.21,15.31a2.9,2.9,0,0,0-5.79,0h0"/></g><g id="ARC-17" data-name="ARC"><path class="cls-1" d="M32.7,18.48A1.62,1.62,0,0,0,34.23,17"/></g><g id="ARC-18" data-name="ARC"><path class="cls-1" d="M34.23,17c.06-1.11.16-3.31.2-4.42"/></g><g id="ARC-19" data-name="ARC"><path class="cls-1" d="M34.43,12.54a2.88,2.88,0,0,0-2.22-2.93"/></g></g></g></svg>