<svg xmlns="http://www.w3.org/2000/svg" viewBox="0 0 76.62 81.87"><defs><style>.cls-1{fill:none;stroke:#58595b;stroke-linecap:round;stroke-linejoin:round;stroke-width:0.4px;}</style></defs><g id="Layer_2" data-name="Layer 2"><g id="追加イラスト"><line class="cls-1" x1="12.11" y1="63.2" x2="14.05" y2="63.2"/><line class="cls-1" x1="12.11" y1="59.98" x2="14.05" y2="59.98"/><line class="cls-1" x1="12.11" y1="58.37" x2="14.05" y2="58.37"/><line class="cls-1" x1="12.11" y1="64.8" x2="14.05" y2="64.8"/><polyline class="cls-1" points="1.88 54.6 1.88 54.62 1.88 54.7 1.88 54.83 1.88 55.02 1.88 55.25 1.88 55.54 1.88 55.86 1.88 56.23 1.88 56.64 1.88 57.09 1.88 57.58 1.88 58.1 1.88 58.63 1.88 59.2 1.88 59.77 1.88 60.37 1.88 60.97 1.88 61.59 1.88 62.2 1.88 62.8 1.88 63.4 1.88 63.99 1.88 64.54 1.88 65.09 1.88 65.59 1.88 66.08 1.88 66.53 1.88 66.94 1.88 67.31 1.88 67.64 1.88 67.92 1.88 68.16 1.88 68.35 1.88 68.47 1.88 68.55 1.88 68.58"/><path class="cls-1" d="M7.72,81.67A.64.64,0,0,0,8.36,81"/><path class="cls-1" d="M11.67,72.13a.64.64,0,0,0,.45-.62"/><polyline class="cls-1" points="8.35 81.03 8.35 80.91 8.35 80.78 8.35 80.65 8.35 80.53 8.35 80.39 8.35 80.26 8.35 80.13 8.35 80 8.35 79.86 8.35 79.74 8.35 79.6 8.35 79.47 8.35 79.33 8.35 79.19 8.35 79.06 8.35 78.92 8.35 78.77 8.35 78.64 8.35 78.5 8.35 78.36 8.35 78.21 8.35 78.08 8.35 77.94 8.35 77.79 8.35 77.65 8.35 77.5 8.35 77.37 8.35 77.22 8.35 77.08 8.35 76.93 8.35 76.8 8.35 76.65 8.35 76.55 8.35 76.45 8.36 76.36 8.36 76.28 8.38 76.18 8.38 76.09 8.39 75.99 8.4 75.9 8.42 75.81 8.45 75.72 8.46 75.62 8.49 75.54 8.5 75.45 8.53 75.35 8.55 75.27 8.58 75.17 8.61 75.09 8.65 75.01 8.68 74.92 8.72 74.83 8.74 74.75 8.79 74.66 8.83 74.57 8.87 74.49 8.91 74.41 8.95 74.33 9 74.25 9.04 74.17 9.1 74.1 9.15 74.02 9.21 73.93 9.26 73.87 9.32 73.78 9.37 73.72 9.43 73.63 9.49 73.57 9.55 73.5 9.62 73.43 9.69 73.36 9.74 73.29 9.81 73.22 9.88 73.17 9.94 73.1 10.03 73.03 10.09 72.98 10.16 72.92 10.24 72.87 10.31 72.8 10.39 72.75 10.47 72.71 10.56 72.65 10.63 72.6 10.71 72.56 10.79 72.5 10.87 72.46 10.97 72.42 11.05 72.38 11.13 72.34 11.21 72.3 11.31 72.26 11.39 72.23 11.48 72.2 11.56 72.16 11.66 72.14"/><polyline class="cls-1" points="4.29 81.67 4.3 81.67 4.32 81.67 4.33 81.67 4.34 81.67 4.37 81.67 4.38 81.67 4.4 81.67 4.42 81.67 4.44 81.67 4.46 81.67 4.49 81.67 4.52 81.67 4.55 81.67 4.59 81.67 4.62 81.67 4.64 81.67 4.68 81.67 4.72 81.67 4.76 81.67 4.81 81.67 4.85 81.67 4.89 81.67 4.94 81.67 4.98 81.67 5.04 81.67 5.09 81.67 5.15 81.67 5.2 81.67 5.26 81.67 5.31 81.67 5.37 81.67 5.43 81.67 5.5 81.67 5.56 81.67 5.62 81.67 5.69 81.67 5.76 81.67 5.83 81.67 5.9 81.67 5.98 81.67 6.05 81.67 6.13 81.67 6.2 81.67 6.28 81.67 6.36 81.67 6.44 81.67 6.52 81.67 6.61 81.67 6.69 81.67 6.78 81.67 6.86 81.67 6.96 81.67 7.04 81.67 7.14 81.67 7.23 81.67 7.31 81.67 7.41 81.67 7.5 81.67 7.61 81.67 7.71 81.67"/><path class="cls-1" d="M12.12,51.65a.64.64,0,0,0-.45-.62"/><polyline class="cls-1" points="12.11 71.52 12.11 71.37 12.11 71.24 12.11 71.09 12.11 70.94 12.11 70.79 12.11 70.64 12.11 70.34 12.11 70.04 12.11 69.74 12.11 69.44 12.11 69.14 12.11 68.82 12.11 68.52 12.11 68.21 12.11 67.9 12.11 67.6 12.11 67.28 12.11 66.97 12.11 66.66 12.11 66.34 12.11 66.03 12.11 65.72 12.11 65.4 12.11 65.08 12.11 64.76 12.11 64.45 12.11 64.14 12.11 63.81 12.11 63.49 12.11 63.18 12.11 62.85 12.11 62.54 12.11 62.23 12.11 61.9 12.11 61.59 12.11 61.27 12.11 60.96 12.11 60.63 12.11 60.32 12.11 60.01 12.11 59.68 12.11 59.37 12.11 59.05 12.11 58.73 12.11 58.41 12.11 58.1 12.11 57.78 12.11 57.46 12.11 57.15 12.11 56.83 12.11 56.52 12.11 56.2 12.11 55.89 12.11 55.59 12.11 55.28 12.11 54.96 12.11 54.65 12.11 54.35 12.11 54.05 12.11 53.74 12.11 53.44 12.11 53.14 12.11 52.84 12.11 52.54 12.11 52.39 12.11 52.24 12.11 52.09 12.11 51.95 12.11 51.8 12.11 51.65"/><path class="cls-1" d="M8.36,42.13a.64.64,0,0,0-.64-.64"/><polyline class="cls-1" points="11.66 51.04 11.56 51.01 11.48 50.98 11.39 50.94 11.31 50.92 11.21 50.88 11.13 50.84 11.05 50.79 10.97 50.75 10.87 50.71 10.79 50.67 10.71 50.62 10.63 50.58 10.56 50.52 10.47 50.48 10.39 50.43 10.31 50.37 10.24 50.32 10.16 50.25 10.09 50.19 10.03 50.14 9.94 50.07 9.88 50.02 9.81 49.95 9.74 49.88 9.67 49.81 9.62 49.74 9.55 49.68 9.49 49.61 9.43 49.54 9.37 49.46 9.32 49.39 9.26 49.31 9.21 49.24 9.15 49.16 9.1 49.09 9.04 49.01 9 48.93 8.95 48.84 8.91 48.76 8.87 48.68 8.83 48.6 8.79 48.52 8.74 48.44 8.72 48.34 8.68 48.26 8.65 48.18 8.61 48.08 8.58 48 8.55 47.91 8.53 47.82 8.5 47.73 8.49 47.63 8.46 47.55 8.45 47.45 8.42 47.36 8.4 47.28 8.39 47.18 8.38 47.09 8.38 46.99 8.36 46.91 8.36 46.81 8.35 46.72 8.35 46.62 8.35 46.53 8.35 46.39 8.35 46.24 8.35 46.09 8.35 45.96 8.35 45.81 8.35 45.67 8.35 45.52 8.35 45.38 8.35 45.25 8.35 45.1 8.35 44.96 8.35 44.83 8.35 44.67 8.35 44.54 8.35 44.4 8.35 44.27 8.35 44.13 8.35 43.98 8.35 43.84 8.35 43.71 8.35 43.57 8.35 43.45 8.35 43.31 8.35 43.18 8.35 43.04 8.35 42.92 8.35 42.78 8.35 42.66 8.35 42.52 8.35 42.4 8.35 42.26 8.35 42.14"/><polyline class="cls-1" points="7.71 41.5 7.61 41.5 7.5 41.5 7.41 41.5 7.31 41.5 7.23 41.5 7.14 41.5 7.04 41.5 6.96 41.5 6.86 41.5 6.78 41.5 6.69 41.5 6.61 41.5 6.52 41.5 6.44 41.5 6.36 41.5 6.28 41.5 6.2 41.5 6.13 41.5 6.05 41.5 5.98 41.5 5.9 41.5 5.83 41.5 5.76 41.5 5.69 41.5 5.62 41.5 5.56 41.5 5.5 41.5 5.43 41.5 5.37 41.5 5.31 41.5 5.26 41.5 5.2 41.5 5.15 41.5 5.09 41.5 5.04 41.5 4.98 41.5 4.94 41.5 4.89 41.5 4.85 41.5 4.81 41.5 4.76 41.5 4.72 41.5 4.68 41.5 4.64 41.5 4.62 41.5 4.59 41.5 4.55 41.5 4.52 41.5 4.49 41.5 4.46 41.5 4.44 41.5 4.42 41.5 4.4 41.5 4.38 41.5 4.37 41.5 4.34 41.5 4.33 41.5 4.32 41.5 4.3 41.5 4.29 41.5"/><polyline class="cls-1" points="2.23 69.27 2.23 69.23 2.23 69.19 2.22 69.15 2.22 69.11 2.2 69.08 2.19 69.04 2.18 69 2.16 68.97 2.13 68.93 2.12 68.91 2.09 68.88 2.07 68.84 2.04 68.81 2.01 68.78 1.99 68.77 1.96 68.74"/><polyline class="cls-1" points="1.96 54.43 1.99 54.42 2.01 54.39 2.04 54.36 2.07 54.34 2.09 54.31 2.12 54.27 2.13 54.24 2.16 54.2 2.18 54.17 2.19 54.13 2.2 54.11 2.22 54.06 2.22 54.02 2.23 53.98 2.23 53.96 2.23 53.91"/><path class="cls-1" d="M1.88,68.57a.18.18,0,0,0,.08.16"/><path class="cls-1" d="M2,54.43a.18.18,0,0,0-.08.16"/><polyline class="cls-1" points="3.73 81.36 3.63 81.2 3.54 81.02 3.46 80.86 3.36 80.68 3.28 80.5 3.2 80.33 3.12 80.15 3.05 79.97 2.98 79.79 2.91 79.62 2.84 79.43 2.78 79.25 2.72 79.06 2.67 78.88 2.61 78.69 2.56 78.5 2.52 78.32 2.48 78.13 2.45 78.04 2.44 77.94 2.41 77.75 2.37 77.56 2.34 77.37 2.33 77.18 2.3 76.99 2.29 76.8 2.27 76.61 2.26 76.4 2.26 76.21 2.24 76.02 2.24 75.83 2.23 75.64 2.23 75.43 2.23 75.05 2.23 74.67 2.23 73.89 2.23 72.35 2.23 69.27"/><polyline class="cls-1" points="2.23 53.91 2.23 47.74 2.23 47.55 2.23 47.35 2.24 47.16 2.24 46.97 2.26 46.77 2.27 46.58 2.29 46.39 2.3 46.19 2.33 46 2.34 45.81 2.37 45.62 2.41 45.42 2.44 45.23 2.48 45.04 2.49 44.95 2.52 44.87 2.56 44.67 2.61 44.48 2.67 44.29 2.72 44.12 2.78 43.93 2.84 43.75 2.91 43.56 2.98 43.38 3.05 43.2 3.12 43.03 3.2 42.85 3.28 42.67 3.36 42.49 3.46 42.32 3.54 42.15 3.63 41.98 3.73 41.81"/><polyline class="cls-1" points="4.29 81.67 4.25 81.67 4.21 81.67 4.17 81.66 4.13 81.66 4.08 81.65 4.04 81.63 4 81.61 3.98 81.59 3.93 81.56 3.91 81.55 3.87 81.52 3.84 81.5 3.81 81.46 3.78 81.43 3.76 81.4 3.73 81.36"/><polyline class="cls-1" points="3.73 41.81 3.76 41.79 3.78 41.74 3.81 41.72 3.84 41.69 3.87 41.65 3.91 41.64 3.93 41.61 3.98 41.58 4 41.57 4.04 41.55 4.08 41.53 4.13 41.53 4.17 41.51 4.21 41.5 4.25 41.5 4.29 41.5"/><polyline class="cls-1" points="24.28 68.58 24.28 68.55 24.28 68.47 24.28 68.35 24.28 68.16 24.28 67.92 24.28 67.64 24.28 67.31 24.28 66.94 24.28 66.53 24.28 66.08 24.28 65.59 24.28 65.09 24.28 64.54 24.28 63.99 24.28 63.4 24.28 62.8 24.28 62.2 24.28 61.59 24.28 60.97 24.28 60.37 24.28 59.77 24.28 59.2 24.28 58.63 24.28 58.1 24.28 57.58 24.28 57.09 24.28 56.64 24.28 56.23 24.28 55.86 24.28 55.54 24.28 55.25 24.28 55.02 24.28 54.83 24.28 54.7 24.28 54.62 24.28 54.6"/><path class="cls-1" d="M17.81,81a.64.64,0,0,0,.64.64"/><polyline class="cls-1" points="18.45 81.67 18.54 81.67 18.64 81.67 18.73 81.67 18.83 81.67 18.92 81.67 19.02 81.67 19.1 81.67 19.2 81.67 19.29 81.67 19.37 81.67 19.46 81.67 19.55 81.67 19.63 81.67 19.71 81.67 19.8 81.67 19.86 81.67 19.95 81.67 20.03 81.67 20.1 81.67 20.18 81.67 20.25 81.67 20.31 81.67 20.4 81.67 20.46 81.67 20.52 81.67 20.59 81.67 20.66 81.67 20.72 81.67 20.78 81.67 20.83 81.67 20.9 81.67 20.95 81.67 21.01 81.67 21.06 81.67 21.11 81.67 21.16 81.67 21.21 81.67 21.25 81.67 21.3 81.67 21.34 81.67 21.38 81.67 21.42 81.67 21.46 81.67 21.5 81.67 21.53 81.67 21.57 81.67 21.59 81.67 21.62 81.67 21.65 81.67 21.68 81.67 21.7 81.67 21.73 81.67 21.75 81.67 21.77 81.67 21.79 81.67 21.8 81.67 21.81 81.67 21.83 81.67 21.84 81.67 21.85 81.67 21.87 81.67"/><path class="cls-1" d="M14.05,71.51a.64.64,0,0,0,.45.62"/><polyline class="cls-1" points="14.49 72.14 14.58 72.16 14.67 72.2 14.75 72.23 14.85 72.26 14.93 72.3 15.03 72.34 15.11 72.38 15.19 72.42 15.27 72.46 15.35 72.5 15.44 72.56 15.52 72.6 15.6 72.65 15.68 72.71 15.76 72.75 15.83 72.8 15.91 72.87 15.98 72.92 16.06 72.98 16.13 73.03 16.2 73.1 16.27 73.17 16.35 73.22 16.4 73.29 16.47 73.36 16.54 73.43 16.61 73.5 16.66 73.57 16.73 73.65 16.79 73.72 16.84 73.78 16.89 73.87 16.95 73.93 17 74.02 17.06 74.1 17.1 74.17 17.15 74.25 17.19 74.33 17.23 74.41 17.29 74.49 17.33 74.57 17.37 74.66 17.4 74.75 17.44 74.83 17.48 74.92 17.51 75.01 17.53 75.09 17.57 75.17 17.6 75.27 17.63 75.36 17.64 75.45 17.67 75.54 17.7 75.62 17.71 75.72 17.73 75.81 17.74 75.9 17.75 75.99 17.77 76.09 17.78 76.18 17.79 76.28 17.79 76.36 17.79 76.45 17.81 76.55 17.81 76.65 17.81 76.8 17.81 76.93 17.81 77.08 17.81 77.22 17.81 77.37 17.81 77.5 17.81 77.65 17.81 77.79 17.81 77.94 17.81 78.08 17.81 78.21 17.81 78.36 17.81 78.5 17.81 78.64 17.81 78.77 17.81 78.92 17.81 79.06 17.81 79.19 17.81 79.33 17.81 79.47 17.81 79.6 17.81 79.74 17.81 79.86 17.81 80 17.81 80.13 17.81 80.26 17.81 80.39 17.81 80.53 17.81 80.65 17.81 80.78 17.81 80.91 17.81 81.03"/><path class="cls-1" d="M14.5,51a.64.64,0,0,0-.45.62"/><polyline class="cls-1" points="14.05 51.65 14.05 51.8 14.05 51.95 14.05 52.09 14.05 52.24 14.05 52.39 14.05 52.54 14.05 52.84 14.05 53.14 14.05 53.44 14.05 53.74 14.05 54.05 14.05 54.35 14.05 54.65 14.05 54.96 14.05 55.28 14.05 55.59 14.05 55.89 14.05 56.2 14.05 56.52 14.05 56.83 14.05 57.15 14.05 57.46 14.05 57.78 14.05 58.1 14.05 58.41 14.05 58.73 14.05 59.05 14.05 59.37 14.05 59.68 14.05 60.01 14.05 60.32 14.05 60.63 14.05 60.96 14.05 61.27 14.05 61.59 14.05 61.9 14.05 62.23 14.05 62.54 14.05 62.85 14.05 63.18 14.05 63.49 14.05 63.81 14.05 64.14 14.05 64.45 14.05 64.76 14.05 65.08 14.05 65.4 14.05 65.72 14.05 66.03 14.05 66.34 14.05 66.66 14.05 66.97 14.05 67.28 14.05 67.6 14.05 67.9 14.05 68.21 14.05 68.52 14.05 68.82 14.05 69.14 14.05 69.44 14.05 69.74 14.05 70.04 14.05 70.34 14.05 70.64 14.05 70.79 14.05 70.94 14.05 71.09 14.05 71.24 14.05 71.37 14.05 71.52"/><path class="cls-1" d="M18.45,41.49a.64.64,0,0,0-.64.64"/><polyline class="cls-1" points="21.87 41.5 21.85 41.5 21.84 41.5 21.83 41.5 21.81 41.5 21.8 41.5 21.79 41.5 21.77 41.5 21.75 41.5 21.73 41.5 21.7 41.5 21.68 41.5 21.65 41.5 21.62 41.5 21.59 41.5 21.57 41.5 21.53 41.5 21.5 41.5 21.46 41.5 21.42 41.5 21.38 41.5 21.34 41.5 21.3 41.5 21.25 41.5 21.21 41.5 21.16 41.5 21.11 41.5 21.06 41.5 21.01 41.5 20.95 41.5 20.9 41.5 20.83 41.5 20.78 41.5 20.72 41.5 20.66 41.5 20.59 41.5 20.52 41.5 20.46 41.5 20.4 41.5 20.31 41.5 20.25 41.5 20.18 41.5 20.1 41.5 20.03 41.5 19.95 41.5 19.86 41.5 19.8 41.5 19.71 41.5 19.63 41.5 19.55 41.5 19.46 41.5 19.37 41.5 19.29 41.5 19.2 41.5 19.1 41.5 19.02 41.5 18.92 41.5 18.83 41.5 18.73 41.5 18.64 41.5 18.54 41.5 18.45 41.5"/><polyline class="cls-1" points="17.81 42.14 17.81 42.26 17.81 42.4 17.81 42.52 17.81 42.66 17.81 42.78 17.81 42.92 17.81 43.04 17.81 43.18 17.81 43.31 17.81 43.45 17.81 43.57 17.81 43.71 17.81 43.84 17.81 43.98 17.81 44.13 17.81 44.27 17.81 44.4 17.81 44.54 17.81 44.67 17.81 44.83 17.81 44.96 17.81 45.1 17.81 45.25 17.81 45.38 17.81 45.52 17.81 45.67 17.81 45.81 17.81 45.96 17.81 46.09 17.81 46.24 17.81 46.39 17.81 46.53 17.81 46.62 17.79 46.72 17.79 46.81 17.79 46.91 17.78 46.99 17.77 47.09 17.75 47.18 17.74 47.28 17.73 47.36 17.71 47.45 17.7 47.55 17.67 47.65 17.64 47.73 17.62 47.82 17.6 47.91 17.57 48 17.53 48.08 17.51 48.18 17.48 48.26 17.44 48.34 17.4 48.44 17.37 48.52 17.33 48.6 17.29 48.68 17.23 48.76 17.19 48.84 17.15 48.93 17.1 49.01 17.06 49.09 17 49.16 16.95 49.24 16.89 49.32 16.84 49.39 16.79 49.46 16.72 49.54 16.66 49.61 16.59 49.68 16.54 49.74 16.47 49.81 16.4 49.88 16.34 49.95 16.27 50.02 16.2 50.07 16.13 50.14 16.06 50.19 15.98 50.25 15.91 50.32 15.83 50.37 15.76 50.43 15.68 50.48 15.6 50.52 15.52 50.58 15.44 50.62 15.35 50.67 15.27 50.71 15.19 50.75 15.11 50.79 15.03 50.84 14.93 50.88 14.85 50.92 14.75 50.94 14.67 50.98 14.58 51.01 14.49 51.04"/><polyline class="cls-1" points="24.2 68.74 24.17 68.77 24.13 68.78 24.1 68.81 24.08 68.84 24.06 68.88 24.04 68.91 24.01 68.93 23.99 68.97 23.98 69 23.97 69.04 23.95 69.08 23.94 69.11 23.93 69.15 23.93 69.19 23.93 69.23 23.93 69.27"/><polyline class="cls-1" points="23.93 53.91 23.93 53.94 23.93 53.98 23.93 54.02 23.94 54.06 23.95 54.11 23.97 54.13 23.98 54.17 23.99 54.2 24.01 54.24 24.04 54.27 24.06 54.31 24.08 54.34 24.1 54.36 24.13 54.39 24.17 54.42 24.2 54.43"/><path class="cls-1" d="M24.29,54.59a.18.18,0,0,0-.08-.16"/><path class="cls-1" d="M24.21,68.73a.18.18,0,0,0,.08-.16"/><polyline class="cls-1" points="22.41 41.81 22.51 41.98 22.6 42.15 22.7 42.32 22.78 42.49 22.86 42.67 22.95 42.85 23.03 43.03 23.11 43.2 23.18 43.38 23.24 43.56 23.31 43.75 23.37 43.93 23.43 44.12 23.49 44.29 23.54 44.48 23.59 44.67 23.64 44.87 23.68 45.04 23.69 45.14 23.72 45.23 23.75 45.42 23.78 45.62 23.8 45.81 23.83 46 23.84 46.19 23.87 46.38 23.89 46.58 23.89 46.77 23.9 46.97 23.91 47.16 23.91 47.35 23.91 47.55 23.91 47.74 23.93 48.12 23.93 48.51 23.93 49.28 23.93 50.82 23.93 53.91"/><polyline class="cls-1" points="23.93 69.27 23.93 75.43 23.93 75.64 23.91 75.83 23.91 76.02 23.9 76.21 23.9 76.4 23.89 76.61 23.87 76.8 23.84 76.99 23.83 77.18 23.8 77.37 23.78 77.56 23.75 77.75 23.72 77.94 23.68 78.13 23.65 78.23 23.64 78.32 23.59 78.5 23.54 78.69 23.49 78.88 23.43 79.06 23.37 79.25 23.31 79.43 23.24 79.62 23.18 79.79 23.11 79.97 23.03 80.15 22.95 80.33 22.86 80.5 22.78 80.68 22.7 80.86 22.6 81.02 22.51 81.2 22.41 81.36 22.4 81.4 22.37 81.43 22.34 81.46 22.32 81.5 22.28 81.52 22.25 81.55 22.22 81.56 22.18 81.59 22.14 81.61 22.1 81.63 22.07 81.65 22.03 81.66 21.99 81.66 21.95 81.67 21.91 81.67 21.87 81.67"/><polyline class="cls-1" points="21.87 41.5 21.91 41.5 21.95 41.5 21.99 41.51 22.03 41.53 22.07 41.53 22.1 41.54 22.14 41.57 22.18 41.58 22.22 41.61 22.25 41.64 22.28 41.65 22.32 41.69 22.34 41.72 22.37 41.74 22.4 41.79 22.41 41.81"/><polyline class="cls-1" points="26.35 64.42 26.35 64.39 26.35 64.33 26.35 64.2 26.35 64.04 26.35 63.84 26.35 63.59 26.35 63.32 26.35 63 26.35 62.68 26.35 62.32 26.35 61.95 26.35 61.59 26.35 61.22 26.35 60.85 26.35 60.51 26.35 60.17 26.35 59.87 26.35 59.58 26.35 59.34 26.35 59.13 26.35 58.97 26.35 58.85 26.35 58.78 26.35 58.75"/><path class="cls-1" d="M26,64.8a.39.39,0,0,0,.39-.39"/><path class="cls-1" d="M26.37,58.75a.39.39,0,0,0-.39-.39"/><line class="cls-1" x1="24.28" y1="58.37" x2="25.97" y2="58.37"/><line class="cls-1" x1="24.28" y1="64.8" x2="25.97" y2="64.8"/><polyline class="cls-1" points="0.2 58.75 0.2 58.78 0.2 58.85 0.2 58.97 0.2 59.13 0.2 59.34 0.2 59.58 0.2 59.87 0.2 60.17 0.2 60.51 0.2 60.85 0.2 61.22 0.2 61.59 0.2 61.95 0.2 62.32 0.2 62.68 0.2 63 0.2 63.32 0.2 63.59 0.2 63.84 0.2 64.04 0.2 64.2 0.2 64.33 0.2 64.39 0.2 64.42"/><path class="cls-1" d="M.59,58.36a.38.38,0,0,0-.39.39"/><path class="cls-1" d="M.2,64.41a.38.38,0,0,0,.39.39"/><line class="cls-1" x1="1.88" y1="64.8" x2="0.58" y2="64.8"/><line class="cls-1" x1="1.88" y1="58.37" x2="0.58" y2="58.37"/><polyline class="cls-1" points="37.77 65.28 37.8 65.28 37.88 65.28 38.01 65.28 38.18 65.28 38.4 65.28 38.66 65.28 38.96 65.28 39.3 65.28 39.66 65.28 52.49 65.28 53.16 65.28 53.84 65.28 54.54 65.28 55.24 65.28 55.97 65.28 56.69 65.28 57.4 65.28 58.12 65.28 58.83 65.28 59.52 65.28 60.21 65.28 60.87 65.28 73.71 65.28 74.06 65.28 74.41 65.28 74.71 65.28 74.97 65.28 75.18 65.28 75.36 65.28 75.48 65.28 75.56 65.28 75.59 65.28"/><polyline class="cls-1" points="76.08 68.88 76.06 68.88 75.96 68.88 75.81 68.88 75.62 68.88 75.36 68.88 75.06 68.88 74.71 68.88 74.32 68.88 73.92 68.88 61.08 68.88 60.38 68.88 59.67 68.88 58.94 68.88 58.19 68.88 57.44 68.88 56.69 68.88 55.93 68.88 55.18 68.88 54.43 68.88 53.69 68.88 52.98 68.88 52.29 68.88 39.45 68.88 39.04 68.88 38.66 68.88 38.31 68.88 38.01 68.88 37.75 68.88 37.56 68.88 37.41 68.88 37.31 68.88 37.28 68.88"/><line class="cls-1" x1="53.11" y1="63.64" x2="53.11" y2="60.06"/><line class="cls-1" x1="60.26" y1="63.64" x2="60.26" y2="60.06"/><path class="cls-1" d="M60.26,63.63a1.65,1.65,0,0,0,1.64,1.65"/><path class="cls-1" d="M51.48,65.28a1.65,1.65,0,0,0,1.64-1.65"/><path class="cls-1" d="M76.09,68.87a.33.33,0,0,0,.33-.33"/><path class="cls-1" d="M37.78,65.26a.83.83,0,0,0-.82.83"/><line class="cls-1" x1="76.41" y1="66.09" x2="76.41" y2="68.55"/><line class="cls-1" x1="36.96" y1="66.09" x2="36.96" y2="68.55"/><path class="cls-1" d="M76.42,66.09a.83.83,0,0,0-.82-.83"/><path class="cls-1" d="M37,68.54a.33.33,0,0,0,.33.33"/><polyline class="cls-1" points="53.11 60.06 53.11 60 60.26 60 60.26 60.06"/><path class="cls-1" d="M64.94,52.62a8.25,8.25,0,0,1-4.68,7.44V60H53.11v.06a8.26,8.26,0,1,1,11.83-7.44Z"/><polyline class="cls-1" points="53.63 14.96 53.61 14.96 53.47 14.96 53.3 14.96"/><polyline class="cls-1" points="53.13 15.13 53.3 15.13 53.44 15.13 53.47 15.13"/><polyline class="cls-1" points="54.11 9.81 54.06 9.81 53.94 9.81 53.75 9.81"/><polyline class="cls-1" points="54.25 11.13 54.2 11.13 54.09 11.13 53.89 11.13"/><polyline class="cls-1" points="53.47 15.13 53.63 14.96 53.63 11.13"/><path class="cls-1" d="M54.25,9.91a.12.12,0,0,0-.12-.13"/><line class="cls-1" x1="54.25" y1="11.14" x2="54.25" y2="9.92"/><polyline class="cls-1" points="53.3 14.96 53.24 14.96 53.1 14.96 52.87 14.96 52.62 14.96 52.37 14.96 52.14 14.96 52 14.96 51.95 14.96"/><polyline class="cls-1" points="52.11 15.13 52.17 15.13 52.26 15.13 52.42 15.13 52.62 15.13 52.82 15.13 52.96 15.13 53.07 15.13 53.13 15.13"/><polyline class="cls-1" points="53.75 9.81 53.69 9.81 53.52 9.81 53.3 9.81 52.96 9.81 52.62 9.81 52.28 9.81 51.95 9.81 51.69 9.81 51.55 9.81 51.49 9.81"/><polyline class="cls-1" points="53.89 11.13 53.83 11.13 53.72 11.13 53.52 11.13 53.24 11.13 52.96 11.13 52.62 11.13 52.28 11.13 51.97 11.13 51.72 11.13 51.52 11.13 51.41 11.13 51.35 11.13"/><line class="cls-1" x1="52.11" y1="15.13" x2="51.95" y2="14.96"/><polyline class="cls-1" points="53.13 15.13 53.3 14.96 53.3 11.13"/><line class="cls-1" x1="51.95" y1="11.14" x2="51.95" y2="14.96"/><path class="cls-1" d="M53.89,9.91a.13.13,0,0,0-.13-.13"/><path class="cls-1" d="M51.51,9.78a.13.13,0,0,0-.13.13"/><line class="cls-1" x1="51.35" y1="11.14" x2="51.35" y2="9.92"/><line class="cls-1" x1="53.89" y1="11.14" x2="53.89" y2="9.92"/><polyline class="cls-1" points="61.41 14.96 61.38 14.96 61.24 14.96 61.07 14.96"/><polyline class="cls-1" points="60.9 15.13 61.07 15.13 61.21 15.13 61.24 15.13"/><polyline class="cls-1" points="61.88 9.81 61.83 9.81 61.72 9.81 61.52 9.81"/><polyline class="cls-1" points="62.03 11.13 61.97 11.13 61.86 11.13 61.66 11.13"/><polyline class="cls-1" points="61.24 15.13 61.41 14.96 61.41 11.13"/><path class="cls-1" d="M62,9.91a.13.13,0,0,0-.13-.13"/><line class="cls-1" x1="62.03" y1="11.14" x2="62.03" y2="9.92"/><polyline class="cls-1" points="61.07 14.96 61.01 14.96 60.87 14.96 60.65 14.96 60.39 14.96 60.14 14.96 59.91 14.96 59.77 14.96 59.72 14.96"/><polyline class="cls-1" points="59.89 15.13 59.94 15.13 60.03 15.13 60.2 15.13 60.39 15.13 60.59 15.13 60.73 15.13 60.84 15.13 60.9 15.13"/><polyline class="cls-1" points="61.52 9.81 61.46 9.81 61.29 9.81 61.07 9.81 60.73 9.81 60.39 9.81 60.05 9.81 59.72 9.81 59.46 9.81 59.32 9.81 59.27 9.81"/><polyline class="cls-1" points="61.66 11.13 61.6 11.13 61.49 11.13 61.29 11.13 61.01 11.13 60.73 11.13 60.39 11.13 60.05 11.13 59.74 11.13 59.49 11.13 59.3 11.13 59.18 11.13 59.13 11.13"/><line class="cls-1" x1="59.89" y1="15.13" x2="59.72" y2="14.96"/><polyline class="cls-1" points="60.9 15.13 61.07 14.96 61.07 11.13"/><line class="cls-1" x1="59.72" y1="11.14" x2="59.72" y2="14.96"/><path class="cls-1" d="M61.66,9.91a.13.13,0,0,0-.13-.13"/><path class="cls-1" d="M59.28,9.78a.13.13,0,0,0-.13.13"/><line class="cls-1" x1="59.13" y1="11.14" x2="59.13" y2="9.92"/><line class="cls-1" x1="61.66" y1="11.14" x2="61.66" y2="9.92"/><polyline class="cls-1" points="53.63 25.32 53.61 25.32 53.47 25.32 53.3 25.32"/><polyline class="cls-1" points="53.13 25.49 53.3 25.49 53.44 25.49 53.47 25.49"/><polyline class="cls-1" points="54.11 20.17 54.06 20.17 53.94 20.17 53.75 20.17"/><polyline class="cls-1" points="54.25 21.49 54.2 21.49 54.09 21.49 53.89 21.49"/><polyline class="cls-1" points="53.47 25.49 53.63 25.32 53.63 21.49"/><path class="cls-1" d="M54.25,20.27a.12.12,0,0,0-.12-.13"/><line class="cls-1" x1="54.25" y1="21.49" x2="54.25" y2="20.28"/><polyline class="cls-1" points="53.3 25.32 53.24 25.32 53.1 25.32 52.87 25.32 52.62 25.32 52.37 25.32 52.14 25.32 52 25.32 51.95 25.32"/><polyline class="cls-1" points="52.11 25.49 52.17 25.49 52.26 25.49 52.42 25.49 52.62 25.49 52.82 25.49 52.96 25.49 53.07 25.49 53.13 25.49"/><polyline class="cls-1" points="53.75 20.17 53.69 20.17 53.52 20.17 53.3 20.17 52.96 20.17 52.62 20.17 52.28 20.17 51.95 20.17 51.69 20.17 51.55 20.17 51.49 20.17"/><polyline class="cls-1" points="53.89 21.49 53.83 21.49 53.72 21.49 53.52 21.49 53.24 21.49 52.96 21.49 52.62 21.49 52.28 21.49 51.97 21.49 51.72 21.49 51.52 21.49 51.41 21.49 51.35 21.49"/><line class="cls-1" x1="52.11" y1="25.49" x2="51.95" y2="25.32"/><polyline class="cls-1" points="53.13 25.49 53.3 25.32 53.3 21.49"/><line class="cls-1" x1="51.95" y1="21.49" x2="51.95" y2="25.32"/><path class="cls-1" d="M53.89,20.27a.13.13,0,0,0-.13-.13"/><path class="cls-1" d="M51.51,20.14a.13.13,0,0,0-.13.13"/><line class="cls-1" x1="51.35" y1="21.49" x2="51.35" y2="20.28"/><line class="cls-1" x1="53.89" y1="21.49" x2="53.89" y2="20.28"/><polyline class="cls-1" points="61.41 25.32 61.38 25.32 61.24 25.32 61.07 25.32"/><polyline class="cls-1" points="60.9 25.49 61.07 25.49 61.21 25.49 61.24 25.49"/><polyline class="cls-1" points="61.88 20.17 61.83 20.17 61.72 20.17 61.52 20.17"/><polyline class="cls-1" points="62.03 21.49 61.97 21.49 61.86 21.49 61.66 21.49"/><polyline class="cls-1" points="61.24 25.49 61.41 25.32 61.41 21.49"/><path class="cls-1" d="M62,20.27a.13.13,0,0,0-.13-.13"/><line class="cls-1" x1="62.03" y1="21.49" x2="62.03" y2="20.28"/><polyline class="cls-1" points="61.07 25.32 61.01 25.32 60.87 25.32 60.65 25.32 60.39 25.32 60.14 25.32 59.91 25.32 59.77 25.32 59.72 25.32"/><polyline class="cls-1" points="59.89 25.49 59.94 25.49 60.03 25.49 60.2 25.49 60.39 25.49 60.59 25.49 60.73 25.49 60.84 25.49 60.9 25.49"/><polyline class="cls-1" points="61.52 20.17 61.46 20.17 61.29 20.17 61.07 20.17 60.73 20.17 60.39 20.17 60.05 20.17 59.72 20.17 59.46 20.17 59.32 20.17 59.27 20.17"/><polyline class="cls-1" points="61.66 21.49 61.6 21.49 61.49 21.49 61.29 21.49 61.01 21.49 60.73 21.49 60.39 21.49 60.05 21.49 59.74 21.49 59.49 21.49 59.3 21.49 59.18 21.49 59.13 21.49"/><line class="cls-1" x1="59.89" y1="25.49" x2="59.72" y2="25.32"/><polyline class="cls-1" points="60.9 25.49 61.07 25.32 61.07 21.49"/><line class="cls-1" x1="59.72" y1="21.49" x2="59.72" y2="25.32"/><path class="cls-1" d="M61.66,20.27a.13.13,0,0,0-.13-.13"/><path class="cls-1" d="M59.28,20.14a.13.13,0,0,0-.13.13"/><line class="cls-1" x1="59.13" y1="21.49" x2="59.13" y2="20.28"/><line class="cls-1" x1="61.66" y1="21.49" x2="61.66" y2="20.28"/><polyline class="cls-1" points="10.16 0.71 10.22 0.71 10.36 0.71 10.61 0.71 10.95 0.71 11.35 0.71 11.8 0.71 12.3 0.71 12.84 0.71 13.34 0.71 13.85 0.71 14.3 0.71 14.7 0.71 15.03 0.71 15.29 0.71 15.43 0.71 15.48 0.71"/><polyline class="cls-1" points="14.98 0.2 14.92 0.2 14.75 0.2 14.5 0.2 14.16 0.2 13.77 0.2 13.29 0.2 12.84 0.2 12.36 0.2 11.88 0.2 11.49 0.2 11.15 0.2 10.89 0.2 10.73 0.2 10.67 0.2"/><line class="cls-1" x1="14.98" y1="0.2" x2="15.48" y2="0.71"/><polyline class="cls-1" points="10.67 0.2 10.16 0.71 10.16 2.06"/><line class="cls-1" x1="15.48" y1="2.06" x2="15.48" y2="0.71"/><polyline class="cls-1" points="10.2 2.46 10.2 6.41 15.19 6.41 15.19 2.46"/><polyline class="cls-1" points="10.2 6.41 7.7 6.41 7.7 2.46"/><polyline class="cls-1" points="15.19 6.41 17.69 6.41 17.69 2.46"/><polyline class="cls-1" points="17.69 2.46 17.02 2.07 8.37 2.07 7.7 2.46"/><line class="cls-1" x1="15.21" y1="2.46" x2="14.53" y2="2.07"/><line class="cls-1" x1="10.13" y1="2.46" x2="9.45" y2="2.07"/><line class="cls-1" x1="10.88" y1="2.07" x2="10.2" y2="2.46"/><line class="cls-1" x1="15.87" y1="2.07" x2="15.19" y2="2.46"/><polyline class="cls-1" points="9.43 20.05 9.49 20.05 9.63 20.05 9.88 20.05 10.22 20.05 10.64 20.05 11.12 20.05 11.66 20.05 12.25 20.05 12.84 20.05 13.4 20.05 13.99 20.05 14.53 20.05 15.01 20.05 15.43 20.05 15.77 20.05 16.02 20.05 16.16 20.05 16.22 20.05"/><polyline class="cls-1" points="8.56 13.52 8.62 13.52 8.76 13.52 9.01 13.52 9.38 13.52 9.8 13.52 10.3 13.52 10.9 13.52 11.52 13.52 12.16 13.52 12.84 13.52 13.49 13.52 14.13 13.52 14.75 13.52 15.35 13.52 15.85 13.52 16.27 13.52 16.64 13.52 16.89 13.52 17.03 13.52 17.09 13.52"/><path class="cls-1" d="M9.45,20.07a8.47,8.47,0,0,0-1,15h8.64a8.46,8.46,0,0,0-.91-15"/><line class="cls-1" x1="9.43" y1="20.05" x2="9.43" y2="13.52"/><line class="cls-1" x1="16.22" y1="20.05" x2="16.22" y2="13.52"/><line class="cls-1" x1="8.56" y1="13.52" x2="8.56" y2="8.45"/><line class="cls-1" x1="17.09" y1="13.52" x2="17.09" y2="8.45"/><polyline class="cls-1" points="23.47 6.41 23.44 6.41 23.27 6.41 23.04 6.41 22.73 6.41 22.34 6.41 21.92 6.41 21.5 6.41"/><polyline class="cls-1" points="23.47 6.41 23.47 8.41 23.44 8.41 23.27 8.41 23.04 8.41 22.73 8.41 22.34 8.41 21.92 8.41 21.5 8.41"/><polyline class="cls-1" points="21.5 6.41 4.18 6.41 3.76 6.41 3.33 6.41 2.94 6.41 2.63 6.41 2.38 6.41 2.24 6.41 2.18 6.41 2.18 8.41 2.24 8.41 2.38 8.41 2.63 8.41 2.94 8.41 3.33 8.41 3.76 8.41 4.18 8.41 21.5 8.41"/></g></g></svg>