<?xml version="1.0" encoding="utf-8"?>
<!-- Generator: Adobe Illustrator 26.0.1, SVG Export Plug-In . SVG Version: 6.00 Build 0)  -->
<svg version="1.1" id="Layer_1" xmlns="http://www.w3.org/2000/svg" xmlns:xlink="http://www.w3.org/1999/xlink" x="0px" y="0px"
	 viewBox="0 0 9.3 20.3" style="enable-background:new 0 0 9.3 20.3;" xml:space="preserve">
<style type="text/css">
	.st0{fill:#FFFFFF;stroke:#58595B;stroke-width:0.15;stroke-linecap:round;stroke-linejoin:round;stroke-miterlimit:4;}
	.st1{fill:#FFFFFF;stroke:#58595B;stroke-width:0.15;stroke-linecap:round;stroke-linejoin:round;stroke-miterlimit:3.985;}
	.st2{fill:#FFFFFF;stroke:#58595B;stroke-width:0.15;stroke-linecap:round;stroke-linejoin:round;}
</style>
<g id="Layer_2_00000106838357469999091210000001200850225109799826_">
	<g id="イラスト">
		<ellipse transform="matrix(0.8119 -0.5838 0.5838 0.8119 -8.7167 7.7294)" class="st0" cx="7.6" cy="17.4" rx="0.5" ry="0.2"/>
		<ellipse transform="matrix(0.8119 -0.5838 0.5838 0.8119 -8.5659 7.525)" class="st0" cx="7.4" cy="17.1" rx="0.8" ry="0.3"/>
		<ellipse transform="matrix(0.8131 -0.5822 0.5822 0.8131 -8.3951 7.2348)" class="st1" cx="7.1" cy="16.7" rx="1.1" ry="0.4"/>
		<ellipse transform="matrix(0.8131 -0.5822 0.5822 0.8131 -8.2019 6.9753)" class="st1" cx="6.8" cy="16.3" rx="1.3" ry="0.5"/>
		<ellipse transform="matrix(0.8119 -0.5838 0.5838 0.8119 -8.0151 6.7759)" class="st0" cx="6.5" cy="15.8" rx="1.6" ry="0.6"/>
		<ellipse transform="matrix(0.8119 -0.5838 0.5838 0.8119 -7.8289 6.528)" class="st0" cx="6.2" cy="15.4" rx="1.6" ry="0.6"/>
		<ellipse transform="matrix(0.8119 -0.5838 0.5838 0.8119 -7.6414 6.2718)" class="st0" cx="5.9" cy="15" rx="1.6" ry="0.6"/>
		<ellipse transform="matrix(0.8119 -0.5838 0.5838 0.8119 -7.4567 6.0195)" class="st0" cx="5.6" cy="14.6" rx="1.6" ry="0.6"/>
		<ellipse transform="matrix(0.8119 -0.5838 0.5838 0.8119 -7.2705 5.7716)" class="st0" cx="5.3" cy="14.2" rx="1.6" ry="0.6"/>
		<ellipse transform="matrix(0.8119 -0.5838 0.5838 0.8119 -7.0829 5.5154)" class="st0" cx="5" cy="13.7" rx="1.6" ry="0.6"/>
		<ellipse transform="matrix(0.8119 -0.5838 0.5838 0.8119 -6.8968 5.2675)" class="st0" cx="4.7" cy="13.3" rx="1.6" ry="0.6"/>
		<ellipse transform="matrix(0.8119 -0.5838 0.5838 0.8119 -6.428 4.5453)" class="st0" cx="3.8" cy="12.2" rx="2.9" ry="1.7"/>
		<path class="st2" d="M4.8,11.3c-0.1,0.2-0.2,0.4-0.3,0.6c-0.3-0.1-0.7-0.2-1-0.3C3.2,12,3,12.5,2.9,13c-0.2,0-0.5-0.2-0.7-0.2
			c0.1-0.4,0.3-0.8,0.6-1.2c-0.2,0-0.4,0-0.6,0.1c0.2-0.2,0.4-0.4,0.6-0.5L3.2,11c0.3-0.3,0.6-0.5,0.9-0.7c0.3-0.1,0.5-0.2,0.8-0.2
			c-0.4,0.3-0.8,0.6-1.2,1C4.1,11.1,4.4,11.2,4.8,11.3z"/>
		<ellipse transform="matrix(0.8119 -0.5838 0.5838 0.8119 -3.9838 6.0269)" class="st0" cx="7.4" cy="9.2" rx="0.5" ry="0.2"/>
		<ellipse transform="matrix(0.8119 -0.5838 0.5838 0.8119 -3.8408 5.8426)" class="st0" cx="7.1" cy="8.9" rx="0.7" ry="0.3"/>
		<ellipse transform="matrix(0.8119 -0.5838 0.5838 0.8119 -3.6949 5.6417)" class="st0" cx="6.9" cy="8.6" rx="1" ry="0.4"/>
		<ellipse transform="matrix(0.8119 -0.5838 0.5838 0.8119 -3.5213 5.4046)" class="st0" cx="6.6" cy="8.2" rx="1.2" ry="0.5"/>
		<ellipse transform="matrix(0.8119 -0.5838 0.5838 0.8119 -3.3442 5.1596)" class="st0" cx="6.3" cy="7.8" rx="1.4" ry="0.5"/>
		<ellipse transform="matrix(0.8119 -0.5838 0.5838 0.8119 -3.1762 4.9302)" class="st0" cx="6.1" cy="7.4" rx="1.4" ry="0.5"/>
		<ellipse transform="matrix(0.8119 -0.5838 0.5838 0.8119 -3.0065 4.7032)" class="st0" cx="5.8" cy="7" rx="1.4" ry="0.5"/>
		<ellipse transform="matrix(0.8119 -0.5838 0.5838 0.8119 -2.8406 4.4734)" class="st0" cx="5.5" cy="6.6" rx="1.4" ry="0.5"/>
		<ellipse transform="matrix(0.8119 -0.5838 0.5838 0.8119 -2.6709 4.2464)" class="st0" cx="5.3" cy="6.3" rx="1.4" ry="0.5"/>
		<ellipse transform="matrix(0.8119 -0.5838 0.5838 0.8119 -2.5008 4.0173)" class="st0" cx="5" cy="5.9" rx="1.4" ry="0.5"/>
		<ellipse transform="matrix(0.8119 -0.5838 0.5838 0.8119 -2.3311 3.7903)" class="st0" cx="4.7" cy="5.5" rx="1.4" ry="0.5"/>
		<ellipse transform="matrix(0.8119 -0.5838 0.5838 0.8119 -1.9058 3.1338)" class="st0" cx="3.9" cy="4.5" rx="2.7" ry="1.5"/>
		<path class="st2" d="M4.8,3.7c0,0-0.2,0.3-0.3,0.5C4.2,4,3.9,3.9,3.6,3.9C3.3,4.3,3.1,4.7,3,5.1L2.4,4.9c0.1-0.4,0.3-0.7,0.5-1
			c-0.2,0-0.4,0-0.5,0.1C2.6,3.8,2.8,3.6,3,3.5l0.4-0.1C3.6,3.2,3.9,3,4.2,2.8c0.2-0.1,0.5-0.2,0.8-0.2C4.5,2.8,4.2,3.1,3.9,3.5
			C4.2,3.5,4.5,3.6,4.8,3.7z"/>
	</g>
</g>
</svg>
