<?xml version="1.0" encoding="UTF-8" standalone="no"?>
<svg width="122px" height="24px" viewBox="77 19 122 24" version="1.1" xmlns="http://www.w3.org/2000/svg" xmlns:xlink="http://www.w3.org/1999/xlink">
    <!-- Generator: Sketch 39.1 (31720) - http://www.bohemiancoding.com/sketch -->
    <desc>プレスリリース・ニュースリリース配信サービスのPR TIMES</desc>
    <defs></defs>
    <g id="PR-TIMES---Logo" stroke="none" stroke-width="1" fill="none" fill-rule="evenodd" transform="translate(77.000000, 19.000000)">
        <polygon id="Fill-1" fill="#FFFFFF" points="37.7349478 2.31866448 37.7349478 6.47918411 43.4196981 6.47918411 43.4196981 23.4241562 47.6368896 18.6330383 47.6368896 18.5554293 47.6368896 6.47918411 53.3441288 6.47997806 53.3441288 2.31866448"></polygon>
        <g id="Group-14" transform="translate(0.000000, 0.002580)" fill="#FFFFFF">
            <path d="M11.4033933,9.13222249 C11.3952335,10.5039772 10.8527104,11.1157191 10.2053049,11.4509664 C9.5511327,11.7830378 8.76421552,11.7893894 8.3307543,11.7885955 L4.17943777,11.7878015 L4.17943777,6.47664345 L8.3307543,6.47664345 C8.73595496,6.47505554 9.52307116,6.48180416 10.184607,6.81387559 C10.8409684,7.15031378 11.3952335,7.76344507 11.4033933,9.13222249 M13.4329789,4.20613231 C12.1015484,2.98463344 10.2876983,2.25935608 8.3307543,2.25935608 L5.9705401e-05,2.25935608 L5.9705401e-05,21.6415698 L4.17943777,21.6415698 L4.17943777,16.003501 L8.3307543,16.003501 L8.3307543,16.002707 C10.2876983,16.002707 12.1023445,15.2758418 13.4337749,14.051961 C14.7685887,12.8358214 15.5895379,11.0841594 15.5887419,9.14492576 L15.5887419,9.12666481 C15.5895379,7.17988858 14.772569,5.42445536 13.4329789,4.20613231" id="Fill-2"></path>
            <path d="M119.60379,11.1197087 L119.603989,11.1193118 C118.388785,10.0325866 116.830275,9.86823808 115.047074,9.86744413 L112.464218,9.86823808 C112.059614,9.86903203 111.441265,9.85176353 110.952079,9.64037316 C110.46548,9.41985232 110.107248,9.07309273 110.097496,8.2690154 C110.106253,7.3388978 110.475431,6.94489792 110.94173,6.71246776 C111.413204,6.48460285 112.007472,6.473289 112.383218,6.47507539 L112.427997,6.47507539 L120.04362,6.47586935 L120.04362,2.25897895 L112.464218,2.25897895 C110.738135,2.25897895 109.126288,2.66786548 107.920836,3.75062081 C106.721155,4.81432124 105.937223,6.55208897 105.934835,8.26742749 L105.935631,8.2690154 C105.937223,9.98018565 106.647519,11.7538798 107.852175,12.8235349 C109.069767,13.9096645 110.587876,14.0591265 112.464218,14.0583325 L115.089862,14.0583325 L115.111157,14.0583325 C115.444512,14.0575386 116.025844,14.0654781 116.497517,14.2671425 C116.964612,14.476945 117.324437,14.8155665 117.333591,15.6238121 C117.324437,16.5692134 116.933366,16.9727407 116.45015,17.2101331 C115.962158,17.4411738 115.366497,17.4499073 115.036725,17.4479224 L106.966147,17.4479224 L106.761158,17.4479224 L106.761158,21.6415896 L115.047074,21.6415896 C116.771764,21.6415896 118.389581,21.2150376 119.591053,20.1398249 C120.788743,19.0800942 121.567699,17.3699164 121.584815,15.6710524 L121.584815,15.6238121 C121.582427,13.9047023 120.806057,12.185791 119.60379,11.1197087" id="Fill-4"></path>
            <polygon id="Fill-6" points="55.8798371 5.2330925 55.8798371 21.6419469 60.3030122 21.6419469 60.3030122 0.196047194 55.8798371 5.1546895"></polygon>
            <path d="M28.9151267,9.13259962 C28.9067679,10.5043544 28.3636478,11.1156993 27.7162422,11.4513435 C27.061871,11.782621 26.2745558,11.7901635 25.8412936,11.7885756 L21.6909722,11.7885756 L21.6909722,6.4766236 L25.8412936,6.4766236 C26.2460962,6.4750357 27.0334115,6.48178431 27.6951463,6.81385574 C28.3519057,7.15108788 28.9067679,7.76243278 28.9151267,9.13259962 L28.9151267,9.13259962 Z M28.4472354,15.5469573 C29.3816249,15.2123056 30.2332229,14.7063581 30.9447123,14.0519412 C32.2781329,12.835603 33.0998782,11.0841396 33.0998782,9.14490591 L33.0998782,9.12664496 C33.0998782,7.17986873 32.2831083,5.42443551 30.9437172,4.20611246 C29.6136799,2.98381964 27.7980386,2.25953472 25.8412936,2.25953472 L17.5111961,2.25953472 L17.5111961,21.6415499 L21.6909722,21.6415499 L21.6909722,13.8161367 L28.4681322,21.6542532 L33.6877774,21.6542532 L33.3984052,21.3162271 L28.4472354,15.5469573 Z" id="Fill-8"></path>
            <path d="M88.1152209,3.74025971 C87.1368484,4.62412946 86.5843745,5.82994773 86.5849715,7.13401786 L86.5843745,16.8018023 C86.5843745,18.1034906 87.1360524,19.3152635 88.1184052,20.1909952 C89.0691142,21.0693073 90.2285931,21.6546502 91.774366,21.6546502 L91.7843169,21.6546502 L104.102337,21.6546502 L104.102337,17.4754726 L103.89715,17.4754726 L91.3707574,17.4754726 C91.2125381,17.4679301 91.1400956,17.4482797 90.9745126,17.3113225 C90.8487332,17.1942143 90.757384,17.0274838 90.7565879,16.8018023 L90.7565879,14.07179 L102.208283,14.07179 L102.230374,9.89261248 L90.7565879,9.89261248 L90.7565879,7.17292163 C90.7565879,6.94962195 90.8503254,6.77356256 90.9794881,6.66121801 C91.1400956,6.52624576 91.2101499,6.50858027 91.3799123,6.49885433 L104.102337,6.49885433 L104.102337,2.28017754 L91.7791424,2.28017754 C90.2210304,2.28414731 89.0713034,2.87107811 88.1152209,3.74025971" id="Fill-10"></path>
            <path d="M78.226892,2.30820413 L68.5327251,2.30820413 C67.2277641,2.30741017 66.0119631,2.85881152 65.1340947,3.83855127 C64.2516488,4.78951017 63.6645457,5.94828664 63.6669339,7.4939174 L63.6669339,21.6384138 L67.857457,21.6384138 L67.857457,21.4329781 L67.857457,7.08145808 C67.8646217,6.92485057 67.8849215,6.85061583 68.0216469,6.68666425 C68.1388685,6.56082247 68.3074367,6.46931922 68.5327251,6.46852527 L71.2692227,6.46852527 L71.2700187,21.6167786 L75.4601438,21.6392078 L75.4601438,6.46852527 L78.1888796,6.46852527 C78.4091925,6.46852527 78.5873136,6.56260887 78.7011519,6.69202344 C78.8360862,6.85220374 78.8534007,6.92167475 78.8633516,7.09197797 L78.8625555,21.6384138 L83.0922852,21.6384138 L83.0922852,7.48915367 C83.090096,5.93478941 82.5006046,4.78871621 81.6295028,3.83418452 C80.7424796,2.85881152 79.5326492,2.30741017 78.226892,2.30820413" id="Fill-12"></path>
        </g>
    </g>
</svg>
