<svg xmlns="http://www.w3.org/2000/svg" viewBox="0 0 672.68 159.12"><g id="Layer_2" data-name="Layer 2"><g id="Layer_1-2" data-name="Layer 1"><path d="M515.6,37.53c-29,0-49.19,25-49.19,60.71,0,17.4,4.5,32.29,13,43.08,9.1,11.54,22.5,17.64,38.74,17.64,25.2,0,37.27-10.28,43.94-18.69h0a1.27,1.27,0,0,0,.41-.78,1.25,1.25,0,0,0-1.11-1.37,1.18,1.18,0,0,0-.82.23h0l0,0a.86.86,0,0,0-.19.19c-6.19,6.37-17.66,14.18-37.06,14.18-22.21,0-36.56-19.88-36.56-50.65v-2h77.67l.41-8.34C564.8,55.8,548.25,37.53,515.6,37.53Zm28.89,56.32H486.72v-2c0-27.86,12.15-48.08,28.88-48.08,23.88,0,28.89,26.15,28.89,48.08Zm127.77,6.23.42-8.34c0-35.94-16.55-54.21-49.2-54.21-29,0-49.2,25-49.2,60.71,0,17.4,4.5,32.29,13,43.08C596.4,152.86,609.8,159,626,159c25.2,0,37.27-10.28,43.94-18.69h0a1.21,1.21,0,0,0,.4-.78,1.24,1.24,0,0,0-1.1-1.37,1.21,1.21,0,0,0-.83.23h0l0,0a.86.86,0,0,0-.19.19c-6.2,6.37-17.66,14.18-37.06,14.18-22.21,0-36.56-19.88-36.56-50.65v-2ZM594.6,91.84c0-27.86,12.15-48.08,28.88-48.08,23.88,0,28.89,26.15,28.89,48.08v2H594.6ZM173.47,156.38c-15.14,0-21.49-9.1-29.06-26.85L91.39.63a1,1,0,0,0-1.89,0L56.75,77.8C35.81,80.66,16.33,88,1.17,100.2c-1.1.89-1.4,1.68-1,2.46a46.05,46.05,0,0,0,14.94,15.23A60.53,60.53,0,0,0,36,126.72l-13.14,31a1,1,0,0,0,.93,1.42H32.9l13-30.78c1.26.15,2.55.3,3.92.43a251.63,251.63,0,0,0,33.1.65c2.2-.21,2.2-2.67.37-2.94-3-.45-16.56-1.71-23.57-3.56a88.53,88.53,0,0,1-10.13-3.31L62.85,88.3c3.11.11,6.31.29,9.65.58,16.48,1.48,29,4.84,38,8.32L124,129.53c10.17,27.45,26.3,29.57,37,29.57h12.5a1.36,1.36,0,0,0,0-2.72ZM40.83,115.32a56.61,56.61,0,0,1-7-4.82c-9.11-7.42-13.77-18.09-13.77-18.09s12.45-3.67,32.23-4.17ZM67.75,76.74,85,36l17.46,41.81A237,237,0,0,0,67.75,76.74Zm222.39,65.14a1,1,0,0,0-.95.64h0s-.08.22-.18.47c-2.86,6.79-11.93,9.51-25,9.51H203.33l70.95-113a1,1,0,0,0-.87-1.57H200.52c-11.3,0-17.85,4.21-19.9,12.76v0a22.09,22.09,0,0,0-.58,3.49,1,1,0,0,0,1,1,1,1,0,0,0,1-.64h0s.08-.21.19-.46c2.86-6.79,11.93-9.51,25-9.51H250.8l-71.47,113v0a1,1,0,0,0,.85,1.57H270.7c11.3,0,17.84-4.21,19.9-12.77v.05a23.46,23.46,0,0,0,.57-3.49A1,1,0,0,0,290.14,141.88ZM462.3,156.73h0a8.66,8.66,0,0,1-1.72-1,8.51,8.51,0,0,1-2.94-6.11V82.47c0-40.17-19.64-44.82-34.41-44.82s-29.08,6.68-37.45,17.44l-2,2.63-1.36-3c-5.33-11.93-14.12-17-29.39-17-12.52,0-24.63,4.64-32.41,12.42l-4,3.93s-1.42-16.35-20.8-16.35h-9.23a1.24,1.24,0,1,0,0,2.48c13.51,0,13.33,13.35,13.33,26.9v64.46c0,9.87,3.32,16.11,7.06,20l0,0,.2.2c.31.31.61.6.92.88,3.86,3.59,8.85,6.52,13.28,6.52a1.25,1.25,0,0,0,1.25-1.25,1.24,1.24,0,0,0-.77-1.14h0a8.91,8.91,0,0,1-1.71-1,8.47,8.47,0,0,1-2.94-6.11V60.38l.51-.57c8.32-9.32,18.09-14.46,27.5-14.46,15.57,0,24.92,11.8,24.92,37.12v49c0,9.87,3.32,16.11,7.05,20l0,0,.21.2c.3.31.61.6.92.88,3.85,3.59,8.84,6.52,13.28,6.52a1.24,1.24,0,0,0,.48-2.39h0a9,9,0,0,1-1.72-1,8.51,8.51,0,0,1-2.94-6.11V82.47c0-4.88,0-14-1.19-17.57l-.3-.91.51-.8c5.45-8.61,18.41-17.84,29-17.84,15.57,0,24.92,11.8,24.92,37.12v49c0,9.87,3.32,16.11,7,20l0,0,.21.2c.3.31.61.6.92.88,3.85,3.59,8.84,6.52,13.28,6.52a1.24,1.24,0,0,0,.47-2.39Z"/></g></g></svg>