<svg xmlns="http://www.w3.org/2000/svg" viewBox="0 0 107.6 23.61"><defs><style>.cls-1{fill:none;stroke:#58595b;stroke-linecap:round;stroke-linejoin:round;stroke-width:0.3px;}</style></defs><g id="Layer_2" data-name="Layer 2"><g id="イラスト"><line class="cls-1" x1="73.09" y1="7.41" x2="73.09" y2="8.04"/><line class="cls-1" x1="71.72" y1="8.04" x2="71.72" y2="7.41"/><line class="cls-1" x1="76.47" y1="2.67" x2="76.24" y2="2.67"/><line class="cls-1" x1="76.24" y1="2.67" x2="76.07" y2="2.67"/><line class="cls-1" x1="76.07" y1="2.67" x2="75.84" y2="2.72"/><line class="cls-1" x1="75.84" y1="2.72" x2="75.67" y2="2.72"/><line class="cls-1" x1="75.67" y1="2.72" x2="75.44" y2="2.78"/><line class="cls-1" x1="75.44" y1="2.78" x2="75.27" y2="2.84"/><line class="cls-1" x1="75.27" y1="2.84" x2="75.04" y2="2.89"/><line class="cls-1" x1="75.04" y1="2.89" x2="74.87" y2="2.95"/><line class="cls-1" x1="74.87" y1="2.95" x2="74.64" y2="3.01"/><line class="cls-1" x1="74.64" y1="3.01" x2="74.47" y2="3.12"/><line class="cls-1" x1="74.47" y1="3.12" x2="74.29" y2="3.18"/><line class="cls-1" x1="74.29" y1="3.18" x2="74.12" y2="3.29"/><line class="cls-1" x1="74.12" y1="3.29" x2="73.95" y2="3.41"/><line class="cls-1" x1="73.95" y1="3.41" x2="73.78" y2="3.52"/><line class="cls-1" x1="73.78" y1="3.52" x2="73.61" y2="3.64"/><line class="cls-1" x1="73.61" y1="3.64" x2="73.44" y2="3.75"/><line class="cls-1" x1="73.44" y1="3.75" x2="73.26" y2="3.92"/><line class="cls-1" x1="73.26" y1="3.92" x2="73.09" y2="4.04"/><line class="cls-1" x1="73.09" y1="4.04" x2="72.98" y2="4.21"/><line class="cls-1" x1="72.98" y1="4.21" x2="72.86" y2="4.32"/><line class="cls-1" x1="72.86" y1="4.32" x2="72.69" y2="4.49"/><line class="cls-1" x1="72.69" y1="4.49" x2="72.58" y2="4.67"/><line class="cls-1" x1="72.58" y1="4.67" x2="72.46" y2="4.84"/><line class="cls-1" x1="72.46" y1="4.84" x2="72.35" y2="5.01"/><line class="cls-1" x1="72.35" y1="5.01" x2="72.29" y2="5.18"/><line class="cls-1" x1="72.29" y1="5.18" x2="72.18" y2="5.41"/><line class="cls-1" x1="72.18" y1="5.41" x2="72.12" y2="5.58"/><line class="cls-1" x1="72.12" y1="5.58" x2="72.01" y2="5.75"/><line class="cls-1" x1="72.01" y1="5.75" x2="71.95" y2="5.98"/><line class="cls-1" x1="71.95" y1="5.98" x2="71.89" y2="6.15"/><line class="cls-1" x1="71.89" y1="6.15" x2="71.84" y2="6.38"/><line class="cls-1" x1="71.84" y1="6.38" x2="71.84" y2="6.55"/><line class="cls-1" x1="71.84" y1="6.55" x2="71.78" y2="6.78"/><line class="cls-1" x1="71.78" y1="6.78" x2="71.78" y2="6.95"/><line class="cls-1" x1="71.78" y1="6.95" x2="71.72" y2="7.18"/><line class="cls-1" x1="71.72" y1="7.18" x2="71.72" y2="7.41"/><line class="cls-1" x1="76.47" y1="2.67" x2="90.36" y2="2.67"/><line class="cls-1" x1="76.47" y1="3.98" x2="76.35" y2="4.04"/><line class="cls-1" x1="76.35" y1="4.04" x2="76.12" y2="4.04"/><line class="cls-1" x1="76.12" y1="4.04" x2="75.89" y2="4.04"/><line class="cls-1" x1="75.89" y1="4.04" x2="75.67" y2="4.09"/><line class="cls-1" x1="75.67" y1="4.09" x2="75.44" y2="4.15"/><line class="cls-1" x1="75.44" y1="4.15" x2="75.21" y2="4.27"/><line class="cls-1" x1="75.21" y1="4.27" x2="74.98" y2="4.32"/><line class="cls-1" x1="74.98" y1="4.32" x2="74.75" y2="4.44"/><line class="cls-1" x1="74.75" y1="4.44" x2="74.58" y2="4.61"/><line class="cls-1" x1="74.58" y1="4.61" x2="74.41" y2="4.72"/><line class="cls-1" x1="74.41" y1="4.72" x2="74.18" y2="4.89"/><line class="cls-1" x1="74.18" y1="4.89" x2="74.01" y2="5.07"/><line class="cls-1" x1="74.01" y1="5.07" x2="73.89" y2="5.24"/><line class="cls-1" x1="73.89" y1="5.24" x2="73.72" y2="5.41"/><line class="cls-1" x1="73.72" y1="5.41" x2="73.61" y2="5.58"/><line class="cls-1" x1="73.61" y1="5.58" x2="73.49" y2="5.81"/><line class="cls-1" x1="73.49" y1="5.81" x2="73.38" y2="6.04"/><line class="cls-1" x1="73.38" y1="6.04" x2="73.26" y2="6.21"/><line class="cls-1" x1="73.26" y1="6.21" x2="73.21" y2="6.44"/><line class="cls-1" x1="73.21" y1="6.44" x2="73.15" y2="6.67"/><line class="cls-1" x1="73.15" y1="6.67" x2="73.09" y2="6.9"/><line class="cls-1" x1="73.09" y1="6.9" x2="73.09" y2="7.12"/><line class="cls-1" x1="73.09" y1="7.12" x2="73.09" y2="7.41"/><line class="cls-1" x1="90.36" y1="3.98" x2="76.47" y2="3.98"/><line class="cls-1" x1="90.01" y1="1.06" x2="89.9" y2="1.18"/><line class="cls-1" x1="89.9" y1="4.15" x2="89.9" y2="1.18"/><line class="cls-1" x1="89.9" y1="4.15" x2="90.01" y2="4.27"/><line class="cls-1" x1="107.45" y1="0.44" x2="107.39" y2="0.26"/><line class="cls-1" x1="107.39" y1="0.26" x2="107.22" y2="0.15"/><line class="cls-1" x1="107.22" y1="0.15" x2="107.11" y2="0.15"/><line class="cls-1" x1="100.53" y1="0.15" x2="100.48" y2="0.15"/><line class="cls-1" x1="100.48" y1="0.15" x2="100.42" y2="0.15"/><line class="cls-1" x1="100.53" y1="0.15" x2="107.11" y2="0.15"/><line class="cls-1" x1="100.53" y1="0.15" x2="100.48" y2="0.15"/><line class="cls-1" x1="100.48" y1="0.15" x2="100.42" y2="0.15"/><line class="cls-1" x1="90.01" y1="1.06" x2="97.9" y2="1.06"/><line class="cls-1" x1="97.96" y1="1.01" x2="100.42" y2="0.15"/><line class="cls-1" x1="97.9" y1="1.06" x2="97.96" y2="1.01"/><line class="cls-1" x1="97.96" y1="1.01" x2="97.96" y2="1.01"/><line class="cls-1" x1="97.9" y1="4.27" x2="90.01" y2="4.27"/><line class="cls-1" x1="97.96" y1="4.32" x2="97.96" y2="4.27"/><line class="cls-1" x1="97.96" y1="4.27" x2="97.9" y2="4.27"/><line class="cls-1" x1="97.96" y1="4.32" x2="100.42" y2="5.18"/><line class="cls-1" x1="100.42" y1="5.18" x2="100.48" y2="5.18"/><line class="cls-1" x1="100.48" y1="5.18" x2="100.53" y2="5.18"/><line class="cls-1" x1="107.45" y1="0.44" x2="107.45" y2="4.84"/><line class="cls-1" x1="100.53" y1="5.18" x2="107.11" y2="5.18"/><line class="cls-1" x1="107.11" y1="5.18" x2="107.22" y2="5.18"/><line class="cls-1" x1="107.22" y1="5.18" x2="107.39" y2="5.07"/><line class="cls-1" x1="107.39" y1="5.07" x2="107.45" y2="4.84"/><line class="cls-1" x1="98.88" y1="1.52" x2="97.85" y2="1.52"/><line class="cls-1" x1="98.88" y1="3.81" x2="97.85" y2="3.81"/><line class="cls-1" x1="95.39" y1="2.49" x2="93.16" y2="2.49"/><line class="cls-1" x1="93.16" y1="2.49" x2="93.16" y2="3.98"/><line class="cls-1" x1="92.02" y1="2.49" x2="92.02" y2="3.98"/><line class="cls-1" x1="92.02" y1="2.49" x2="90.36" y2="2.49"/><line class="cls-1" x1="97.85" y1="3.98" x2="90.36" y2="3.98"/><line class="cls-1" x1="90.36" y1="3.98" x2="90.36" y2="2.49"/><line class="cls-1" x1="93.16" y1="2.84" x2="92.02" y2="2.84"/><line class="cls-1" x1="96.3" y1="1.29" x2="96.3" y2="2.49"/><line class="cls-1" x1="95.96" y1="2.84" x2="96.07" y2="2.84"/><line class="cls-1" x1="96.07" y1="2.84" x2="96.25" y2="2.72"/><line class="cls-1" x1="96.25" y1="2.72" x2="96.3" y2="2.49"/><line class="cls-1" x1="95.96" y1="2.84" x2="95.73" y2="2.84"/><line class="cls-1" x1="95.39" y1="2.49" x2="95.45" y2="2.72"/><line class="cls-1" x1="95.45" y1="2.72" x2="95.62" y2="2.84"/><line class="cls-1" x1="95.62" y1="2.84" x2="95.73" y2="2.84"/><line class="cls-1" x1="102.19" y1="1.75" x2="102.08" y2="1.64"/><line class="cls-1" x1="100.36" y1="1.29" x2="100.3" y2="1.29"/><line class="cls-1" x1="102.08" y1="1.64" x2="100.36" y2="1.29"/><line class="cls-1" x1="100.36" y1="1.29" x2="100.3" y2="1.29"/><line class="cls-1" x1="98.99" y1="1.29" x2="100.3" y2="1.29"/><line class="cls-1" x1="98.99" y1="1.29" x2="98.88" y2="1.46"/><line class="cls-1" x1="97.85" y1="3.98" x2="97.85" y2="1.46"/><line class="cls-1" x1="96.3" y1="1.29" x2="97.73" y2="1.29"/><line class="cls-1" x1="97.85" y1="1.46" x2="97.73" y2="1.29"/><line class="cls-1" x1="102.08" y1="3.69" x2="100.36" y2="3.98"/><line class="cls-1" x1="102.19" y1="1.75" x2="102.19" y2="3.58"/><line class="cls-1" x1="102.08" y1="3.69" x2="102.19" y2="3.58"/><line class="cls-1" x1="100.36" y1="3.98" x2="98.99" y2="3.98"/><line class="cls-1" x1="98.88" y1="1.46" x2="98.88" y2="3.87"/><line class="cls-1" x1="98.88" y1="3.87" x2="98.99" y2="3.98"/><line class="cls-1" x1="71.72" y1="18.21" x2="71.72" y2="17.53"/><line class="cls-1" x1="73.09" y1="18.21" x2="73.09" y2="17.53"/><line class="cls-1" x1="71.72" y1="18.21" x2="71.72" y2="18.39"/><line class="cls-1" x1="71.72" y1="18.39" x2="71.78" y2="18.61"/><line class="cls-1" x1="71.78" y1="18.61" x2="71.78" y2="18.79"/><line class="cls-1" x1="71.78" y1="18.79" x2="71.84" y2="19.01"/><line class="cls-1" x1="71.84" y1="19.01" x2="71.84" y2="19.19"/><line class="cls-1" x1="71.84" y1="19.19" x2="71.89" y2="19.41"/><line class="cls-1" x1="71.89" y1="19.41" x2="71.95" y2="19.59"/><line class="cls-1" x1="71.95" y1="19.59" x2="72.01" y2="19.81"/><line class="cls-1" x1="72.01" y1="19.81" x2="72.12" y2="19.99"/><line class="cls-1" x1="72.12" y1="19.99" x2="72.18" y2="20.16"/><line class="cls-1" x1="72.18" y1="20.16" x2="72.29" y2="20.39"/><line class="cls-1" x1="72.29" y1="20.39" x2="72.35" y2="20.56"/><line class="cls-1" x1="72.35" y1="20.56" x2="72.46" y2="20.73"/><line class="cls-1" x1="72.46" y1="20.73" x2="72.58" y2="20.9"/><line class="cls-1" x1="72.58" y1="20.9" x2="72.69" y2="21.07"/><line class="cls-1" x1="72.69" y1="21.07" x2="72.86" y2="21.24"/><line class="cls-1" x1="72.86" y1="21.24" x2="72.98" y2="21.36"/><line class="cls-1" x1="72.98" y1="21.36" x2="73.09" y2="21.53"/><line class="cls-1" x1="73.09" y1="21.53" x2="73.26" y2="21.64"/><line class="cls-1" x1="73.26" y1="21.64" x2="73.44" y2="21.82"/><line class="cls-1" x1="73.44" y1="21.82" x2="73.61" y2="21.93"/><line class="cls-1" x1="73.61" y1="21.93" x2="73.78" y2="22.04"/><line class="cls-1" x1="73.78" y1="22.04" x2="73.95" y2="22.16"/><line class="cls-1" x1="73.95" y1="22.16" x2="74.12" y2="22.27"/><line class="cls-1" x1="74.12" y1="22.27" x2="74.29" y2="22.39"/><line class="cls-1" x1="74.29" y1="22.39" x2="74.47" y2="22.44"/><line class="cls-1" x1="74.47" y1="22.44" x2="74.64" y2="22.56"/><line class="cls-1" x1="74.64" y1="22.56" x2="74.87" y2="22.62"/><line class="cls-1" x1="74.87" y1="22.62" x2="75.04" y2="22.67"/><line class="cls-1" x1="75.04" y1="22.67" x2="75.27" y2="22.73"/><line class="cls-1" x1="75.27" y1="22.73" x2="75.44" y2="22.79"/><line class="cls-1" x1="75.44" y1="22.79" x2="75.67" y2="22.84"/><line class="cls-1" x1="75.67" y1="22.84" x2="75.84" y2="22.84"/><line class="cls-1" x1="75.84" y1="22.84" x2="76.07" y2="22.9"/><line class="cls-1" x1="76.07" y1="22.9" x2="76.24" y2="22.9"/><line class="cls-1" x1="76.24" y1="22.9" x2="76.47" y2="22.9"/><line class="cls-1" x1="92.04" y1="22.9" x2="76.47" y2="22.9"/><line class="cls-1" x1="73.09" y1="18.21" x2="73.09" y2="18.44"/><line class="cls-1" x1="73.09" y1="18.44" x2="73.09" y2="18.67"/><line class="cls-1" x1="73.09" y1="18.67" x2="73.15" y2="18.9"/><line class="cls-1" x1="73.15" y1="18.9" x2="73.21" y2="19.13"/><line class="cls-1" x1="73.21" y1="19.13" x2="73.26" y2="19.36"/><line class="cls-1" x1="73.26" y1="19.36" x2="73.38" y2="19.59"/><line class="cls-1" x1="73.38" y1="19.59" x2="73.49" y2="19.76"/><line class="cls-1" x1="73.49" y1="19.76" x2="73.61" y2="19.99"/><line class="cls-1" x1="73.61" y1="19.99" x2="73.72" y2="20.16"/><line class="cls-1" x1="73.72" y1="20.16" x2="73.89" y2="20.33"/><line class="cls-1" x1="73.89" y1="20.33" x2="74.01" y2="20.56"/><line class="cls-1" x1="74.01" y1="20.56" x2="74.18" y2="20.67"/><line class="cls-1" x1="74.18" y1="20.67" x2="74.41" y2="20.84"/><line class="cls-1" x1="74.41" y1="20.84" x2="74.58" y2="20.96"/><line class="cls-1" x1="74.58" y1="20.96" x2="74.75" y2="21.13"/><line class="cls-1" x1="74.75" y1="21.13" x2="74.98" y2="21.24"/><line class="cls-1" x1="74.98" y1="21.24" x2="75.21" y2="21.3"/><line class="cls-1" x1="75.21" y1="21.3" x2="75.44" y2="21.42"/><line class="cls-1" x1="75.44" y1="21.42" x2="75.67" y2="21.47"/><line class="cls-1" x1="75.67" y1="21.47" x2="75.89" y2="21.53"/><line class="cls-1" x1="75.89" y1="21.53" x2="76.12" y2="21.53"/><line class="cls-1" x1="76.12" y1="21.53" x2="76.35" y2="21.59"/><line class="cls-1" x1="76.35" y1="21.59" x2="76.47" y2="21.59"/><line class="cls-1" x1="92.04" y1="21.59" x2="76.47" y2="21.59"/><line class="cls-1" x1="68.35" y1="12.78" x2="68.58" y2="12.78"/><line class="cls-1" x1="68.58" y1="12.78" x2="68.75" y2="12.78"/><line class="cls-1" x1="68.75" y1="12.78" x2="68.98" y2="12.73"/><line class="cls-1" x1="68.98" y1="12.73" x2="69.21" y2="12.73"/><line class="cls-1" x1="69.21" y1="12.73" x2="69.38" y2="12.67"/><line class="cls-1" x1="69.38" y1="12.67" x2="69.61" y2="12.61"/><line class="cls-1" x1="69.61" y1="12.61" x2="69.78" y2="12.55"/><line class="cls-1" x1="69.78" y1="12.55" x2="69.95" y2="12.5"/><line class="cls-1" x1="69.95" y1="12.5" x2="70.18" y2="12.44"/><line class="cls-1" x1="70.18" y1="12.44" x2="70.35" y2="12.33"/><line class="cls-1" x1="70.35" y1="12.33" x2="70.52" y2="12.27"/><line class="cls-1" x1="70.52" y1="12.27" x2="70.75" y2="12.15"/><line class="cls-1" x1="70.75" y1="12.15" x2="70.92" y2="12.04"/><line class="cls-1" x1="70.92" y1="12.04" x2="71.09" y2="11.93"/><line class="cls-1" x1="71.09" y1="11.93" x2="71.26" y2="11.81"/><line class="cls-1" x1="71.26" y1="11.81" x2="71.38" y2="11.7"/><line class="cls-1" x1="71.38" y1="11.7" x2="71.55" y2="11.53"/><line class="cls-1" x1="71.55" y1="11.53" x2="71.72" y2="11.41"/><line class="cls-1" x1="71.72" y1="11.41" x2="71.84" y2="11.24"/><line class="cls-1" x1="71.84" y1="11.24" x2="72.01" y2="11.07"/><line class="cls-1" x1="72.01" y1="11.07" x2="72.12" y2="10.95"/><line class="cls-1" x1="72.12" y1="10.95" x2="72.24" y2="10.78"/><line class="cls-1" x1="72.24" y1="10.78" x2="72.35" y2="10.61"/><line class="cls-1" x1="72.35" y1="10.61" x2="72.46" y2="10.44"/><line class="cls-1" x1="72.46" y1="10.44" x2="72.58" y2="10.27"/><line class="cls-1" x1="72.58" y1="10.27" x2="72.64" y2="10.04"/><line class="cls-1" x1="72.64" y1="10.04" x2="72.75" y2="9.87"/><line class="cls-1" x1="72.75" y1="9.87" x2="72.81" y2="9.7"/><line class="cls-1" x1="72.81" y1="9.7" x2="72.86" y2="9.47"/><line class="cls-1" x1="72.86" y1="9.47" x2="72.92" y2="9.3"/><line class="cls-1" x1="72.92" y1="9.3" x2="72.98" y2="9.07"/><line class="cls-1" x1="72.98" y1="9.07" x2="73.04" y2="8.9"/><line class="cls-1" x1="73.04" y1="8.9" x2="73.04" y2="8.67"/><line class="cls-1" x1="73.04" y1="8.67" x2="73.09" y2="8.5"/><line class="cls-1" x1="73.09" y1="8.5" x2="73.09" y2="8.27"/><line class="cls-1" x1="73.09" y1="8.27" x2="73.09" y2="8.04"/><line class="cls-1" x1="73.09" y1="17.53" x2="73.09" y2="17.3"/><line class="cls-1" x1="73.09" y1="17.3" x2="73.09" y2="17.07"/><line class="cls-1" x1="73.09" y1="17.07" x2="73.04" y2="16.9"/><line class="cls-1" x1="73.04" y1="16.9" x2="73.04" y2="16.67"/><line class="cls-1" x1="73.04" y1="16.67" x2="72.98" y2="16.5"/><line class="cls-1" x1="72.98" y1="16.5" x2="72.92" y2="16.27"/><line class="cls-1" x1="72.92" y1="16.27" x2="72.86" y2="16.1"/><line class="cls-1" x1="72.86" y1="16.1" x2="72.81" y2="15.87"/><line class="cls-1" x1="72.81" y1="15.87" x2="72.75" y2="15.7"/><line class="cls-1" x1="72.75" y1="15.7" x2="72.64" y2="15.53"/><line class="cls-1" x1="72.64" y1="15.53" x2="72.58" y2="15.36"/><line class="cls-1" x1="72.58" y1="15.36" x2="72.46" y2="15.13"/><line class="cls-1" x1="72.46" y1="15.13" x2="72.35" y2="14.96"/><line class="cls-1" x1="72.35" y1="14.96" x2="72.24" y2="14.78"/><line class="cls-1" x1="72.24" y1="14.78" x2="72.12" y2="14.61"/><line class="cls-1" x1="72.12" y1="14.61" x2="72.01" y2="14.5"/><line class="cls-1" x1="72.01" y1="14.5" x2="71.84" y2="14.33"/><line class="cls-1" x1="71.84" y1="14.33" x2="71.72" y2="14.16"/><line class="cls-1" x1="71.72" y1="14.16" x2="71.55" y2="14.04"/><line class="cls-1" x1="71.55" y1="14.04" x2="71.38" y2="13.87"/><line class="cls-1" x1="71.38" y1="13.87" x2="71.26" y2="13.76"/><line class="cls-1" x1="71.26" y1="13.76" x2="71.09" y2="13.64"/><line class="cls-1" x1="71.09" y1="13.64" x2="70.92" y2="13.53"/><line class="cls-1" x1="70.92" y1="13.53" x2="70.75" y2="13.41"/><line class="cls-1" x1="70.75" y1="13.41" x2="70.52" y2="13.3"/><line class="cls-1" x1="70.52" y1="13.3" x2="70.35" y2="13.24"/><line class="cls-1" x1="70.35" y1="13.24" x2="70.18" y2="13.13"/><line class="cls-1" x1="70.18" y1="13.13" x2="69.95" y2="13.07"/><line class="cls-1" x1="69.95" y1="13.07" x2="69.78" y2="13.01"/><line class="cls-1" x1="69.78" y1="13.01" x2="69.61" y2="12.96"/><line class="cls-1" x1="69.61" y1="12.96" x2="69.38" y2="12.9"/><line class="cls-1" x1="69.38" y1="12.9" x2="69.21" y2="12.84"/><line class="cls-1" x1="69.21" y1="12.84" x2="68.98" y2="12.84"/><line class="cls-1" x1="68.98" y1="12.84" x2="68.75" y2="12.78"/><line class="cls-1" x1="68.75" y1="12.78" x2="68.58" y2="12.78"/><line class="cls-1" x1="68.58" y1="12.78" x2="68.35" y2="12.78"/><line class="cls-1" x1="71.72" y1="17.53" x2="71.72" y2="17.3"/><line class="cls-1" x1="71.72" y1="17.3" x2="71.72" y2="17.01"/><line class="cls-1" x1="71.72" y1="17.01" x2="71.66" y2="16.79"/><line class="cls-1" x1="71.66" y1="16.79" x2="71.61" y2="16.56"/><line class="cls-1" x1="71.61" y1="16.56" x2="71.55" y2="16.39"/><line class="cls-1" x1="71.55" y1="16.39" x2="71.44" y2="16.16"/><line class="cls-1" x1="71.44" y1="16.16" x2="71.32" y2="15.93"/><line class="cls-1" x1="71.32" y1="15.93" x2="71.21" y2="15.7"/><line class="cls-1" x1="71.21" y1="15.7" x2="71.09" y2="15.53"/><line class="cls-1" x1="71.09" y1="15.53" x2="70.92" y2="15.36"/><line class="cls-1" x1="70.92" y1="15.36" x2="70.81" y2="15.18"/><line class="cls-1" x1="70.81" y1="15.18" x2="70.64" y2="15.01"/><line class="cls-1" x1="70.64" y1="15.01" x2="70.46" y2="14.84"/><line class="cls-1" x1="70.46" y1="14.84" x2="70.24" y2="14.73"/><line class="cls-1" x1="70.24" y1="14.73" x2="70.06" y2="14.61"/><line class="cls-1" x1="70.06" y1="14.61" x2="69.83" y2="14.5"/><line class="cls-1" x1="69.83" y1="14.5" x2="69.61" y2="14.38"/><line class="cls-1" x1="69.61" y1="14.38" x2="69.38" y2="14.33"/><line class="cls-1" x1="69.38" y1="14.33" x2="69.15" y2="14.21"/><line class="cls-1" x1="69.15" y1="14.21" x2="68.92" y2="14.21"/><line class="cls-1" x1="68.92" y1="14.21" x2="68.69" y2="14.16"/><line class="cls-1" x1="68.69" y1="14.16" x2="68.46" y2="14.16"/><line class="cls-1" x1="68.46" y1="14.16" x2="68.35" y2="14.16"/><line class="cls-1" x1="68.35" y1="11.41" x2="68.46" y2="11.41"/><line class="cls-1" x1="68.46" y1="11.41" x2="68.69" y2="11.41"/><line class="cls-1" x1="68.69" y1="11.41" x2="68.92" y2="11.41"/><line class="cls-1" x1="68.92" y1="11.41" x2="69.15" y2="11.35"/><line class="cls-1" x1="69.15" y1="11.35" x2="69.38" y2="11.3"/><line class="cls-1" x1="69.38" y1="11.3" x2="69.61" y2="11.18"/><line class="cls-1" x1="69.61" y1="11.18" x2="69.83" y2="11.07"/><line class="cls-1" x1="69.83" y1="11.07" x2="70.06" y2="10.95"/><line class="cls-1" x1="70.06" y1="10.95" x2="70.24" y2="10.84"/><line class="cls-1" x1="70.24" y1="10.84" x2="70.46" y2="10.73"/><line class="cls-1" x1="70.46" y1="10.73" x2="70.64" y2="10.55"/><line class="cls-1" x1="70.64" y1="10.55" x2="70.81" y2="10.38"/><line class="cls-1" x1="70.81" y1="10.38" x2="70.92" y2="10.21"/><line class="cls-1" x1="70.92" y1="10.21" x2="71.09" y2="10.04"/><line class="cls-1" x1="71.09" y1="10.04" x2="71.21" y2="9.87"/><line class="cls-1" x1="71.21" y1="9.87" x2="71.32" y2="9.64"/><line class="cls-1" x1="71.32" y1="9.64" x2="71.44" y2="9.41"/><line class="cls-1" x1="71.44" y1="9.41" x2="71.55" y2="9.24"/><line class="cls-1" x1="71.55" y1="9.24" x2="71.61" y2="9.01"/><line class="cls-1" x1="71.61" y1="9.01" x2="71.66" y2="8.78"/><line class="cls-1" x1="71.66" y1="8.78" x2="71.72" y2="8.55"/><line class="cls-1" x1="71.72" y1="8.55" x2="71.72" y2="8.27"/><line class="cls-1" x1="71.72" y1="8.27" x2="71.72" y2="8.04"/><line class="cls-1" x1="24.45" y1="10.61" x2="15.7" y2="9.93"/><line class="cls-1" x1="24.45" y1="14.96" x2="15.7" y2="15.64"/><line class="cls-1" x1="24.45" y1="10.61" x2="24.45" y2="14.96"/><line class="cls-1" x1="6.27" y1="15.64" x2="15.7" y2="15.64"/><line class="cls-1" x1="6.27" y1="9.93" x2="15.7" y2="9.93"/><line class="cls-1" x1="6.27" y1="9.93" x2="6.27" y2="15.64"/><line class="cls-1" x1="0.15" y1="10.95" x2="6.27" y2="10.95"/><line class="cls-1" x1="6.27" y1="10.95" x2="6.27" y2="14.67"/><line class="cls-1" x1="6.27" y1="14.67" x2="0.15" y2="14.67"/><line class="cls-1" x1="0.15" y1="14.67" x2="0.15" y2="10.95"/><line class="cls-1" x1="47.43" y1="10.78" x2="46.74" y2="14.78"/><line class="cls-1" x1="46.74" y1="14.78" x2="46.8" y2="14.78"/><line class="cls-1" x1="48.11" y1="10.78" x2="47.43" y2="14.78"/><line class="cls-1" x1="47.43" y1="14.78" x2="47.48" y2="14.78"/><line class="cls-1" x1="24.45" y1="11.41" x2="47.31" y2="11.41"/><line class="cls-1" x1="48" y1="11.41" x2="68.35" y2="11.41"/><line class="cls-1" x1="68.35" y1="12.78" x2="47.77" y2="12.78"/><line class="cls-1" x1="47.08" y1="12.78" x2="24.45" y2="12.78"/><line class="cls-1" x1="68.35" y1="14.16" x2="47.54" y2="14.16"/><line class="cls-1" x1="46.85" y1="14.16" x2="24.45" y2="14.16"/><line class="cls-1" x1="97.96" y1="1.29" x2="97.85" y2="1.12"/><line class="cls-1" x1="97.85" y1="1.12" x2="97.62" y2="1.12"/><line class="cls-1" x1="97.62" y1="1.12" x2="97.5" y2="1.29"/><line class="cls-1" x1="97.5" y1="1.29" x2="97.62" y2="1.46"/><line class="cls-1" x1="97.62" y1="1.46" x2="97.85" y2="1.46"/><line class="cls-1" x1="97.85" y1="1.46" x2="97.96" y2="1.29"/><line class="cls-1" x1="97.96" y1="1.29" x2="98.02" y2="1.29"/><line class="cls-1" x1="92.04" y1="23.04" x2="101.68" y2="23.04"/><line class="cls-1" x1="101.68" y1="23.04" x2="101.68" y2="20.56"/><line class="cls-1" x1="96.14" y1="21.49" x2="94.32" y2="21.49"/><line class="cls-1" x1="94.32" y1="21.49" x2="94.32" y2="23.04"/><line class="cls-1" x1="93.39" y1="21.44" x2="93.39" y2="23.04"/><line class="cls-1" x1="93.39" y1="21.44" x2="92.04" y2="21.44"/><line class="cls-1" x1="94.32" y1="21.77" x2="93.39" y2="21.77"/><line class="cls-1" x1="101.68" y1="20.56" x2="98.14" y2="20.56"/><line class="cls-1" x1="92.04" y1="21.44" x2="92.04" y2="23.04"/><line class="cls-1" x1="98.14" y1="20.56" x2="97.72" y2="21.44"/><line class="cls-1" x1="97.72" y1="21.44" x2="97.63" y2="21.54"/><line class="cls-1" x1="97.63" y1="21.54" x2="97.54" y2="21.68"/><line class="cls-1" x1="97.54" y1="21.68" x2="97.4" y2="21.77"/><line class="cls-1" x1="97.4" y1="21.77" x2="97.3" y2="21.86"/><line class="cls-1" x1="97.3" y1="21.86" x2="97.16" y2="21.91"/><line class="cls-1" x1="97.16" y1="21.91" x2="97.02" y2="21.96"/><line class="cls-1" x1="97.02" y1="21.96" x2="96.84" y2="22"/><line class="cls-1" x1="96.84" y1="22" x2="96.75" y2="22"/><line class="cls-1" x1="96.14" y1="21.49" x2="96.19" y2="21.63"/><line class="cls-1" x1="96.7" y1="22" x2="96.75" y2="22"/><line class="cls-1" x1="96.7" y1="22" x2="96.51" y2="21.96"/><line class="cls-1" x1="96.51" y1="21.96" x2="96.37" y2="21.91"/><line class="cls-1" x1="96.37" y1="21.91" x2="96.23" y2="21.77"/><line class="cls-1" x1="96.23" y1="21.77" x2="96.19" y2="21.63"/><line class="cls-1" x1="103.31" y1="23.46" x2="90.18" y2="23.46"/><line class="cls-1" x1="103.31" y1="19.89" x2="90.18" y2="19.89"/><line class="cls-1" x1="89.9" y1="20.17" x2="89.95" y2="19.99"/><line class="cls-1" x1="89.95" y1="19.99" x2="90.09" y2="19.89"/><line class="cls-1" x1="90.09" y1="19.89" x2="90.18" y2="19.89"/><line class="cls-1" x1="89.9" y1="20.17" x2="89.9" y2="23.23"/><line class="cls-1" x1="90.18" y1="23.46" x2="90.09" y2="23.46"/><line class="cls-1" x1="90.09" y1="23.46" x2="89.95" y2="23.37"/><line class="cls-1" x1="89.95" y1="23.37" x2="89.9" y2="23.23"/><line class="cls-1" x1="103.31" y1="19.89" x2="103.4" y2="19.89"/><line class="cls-1" x1="103.4" y1="19.89" x2="103.54" y2="19.99"/><line class="cls-1" x1="103.54" y1="19.99" x2="103.59" y2="20.17"/><line class="cls-1" x1="103.59" y1="20.17" x2="103.59" y2="23.23"/><line class="cls-1" x1="103.59" y1="23.23" x2="103.54" y2="23.37"/><line class="cls-1" x1="103.54" y1="23.37" x2="103.4" y2="23.46"/><line class="cls-1" x1="103.4" y1="23.46" x2="103.31" y2="23.46"/></g></g></svg>