<svg xmlns="http://www.w3.org/2000/svg" viewBox="0 0 90.75 47.88"><defs><style>.cls-1,.cls-2,.cls-5,.cls-6,.cls-7,.cls-8{fill:none;}.cls-1,.cls-2{stroke:#58595b;stroke-width:0.3px;}.cls-1,.cls-2,.cls-5,.cls-7,.cls-8{stroke-linecap:round;stroke-linejoin:round;}.cls-2,.cls-8{fill-rule:evenodd;}.cls-3{fill:#231f20;}.cls-4{fill:#fff;}.cls-5,.cls-6,.cls-7,.cls-8{stroke:#231f20;}.cls-5,.cls-6,.cls-8{stroke-width:0.15px;}.cls-6{stroke-miterlimit:10;}.cls-7{stroke-width:0.16px;}</style></defs><g id="Layer_2" data-name="Layer 2"><g id="イラスト"><line class="cls-1" x1="73.06" y1="0.94" x2="73.06" y2="4.87"/><path class="cls-2" d="M73.84.15h0a.78.78,0,0,0-.78.79"/><line class="cls-1" x1="79.58" y1="0.94" x2="79.58" y2="4.87"/><line class="cls-1" x1="73.84" y1="0.15" x2="78.8" y2="0.15"/><path class="cls-2" d="M79.58.94h0A.78.78,0,0,0,78.8.15"/><line class="cls-1" x1="62.68" y1="0.94" x2="62.68" y2="4.87"/><path class="cls-2" d="M63.46.15h0a.78.78,0,0,0-.78.79"/><line class="cls-1" x1="69.2" y1="0.94" x2="69.2" y2="4.87"/><line class="cls-1" x1="63.46" y1="0.15" x2="68.42" y2="0.15"/><path class="cls-2" d="M69.2.94h0a.78.78,0,0,0-.78-.79"/><line class="cls-1" x1="52.29" y1="0.94" x2="52.29" y2="4.87"/><path class="cls-2" d="M53.08.15h0a.79.79,0,0,0-.79.79"/><line class="cls-1" x1="58.82" y1="0.94" x2="58.82" y2="4.87"/><line class="cls-1" x1="53.08" y1="0.15" x2="58.04" y2="0.15"/><path class="cls-2" d="M58.82.94h0A.78.78,0,0,0,58,.15"/><line class="cls-1" x1="41.91" y1="0.94" x2="41.91" y2="4.87"/><path class="cls-2" d="M42.7.15h0a.79.79,0,0,0-.79.79"/><line class="cls-1" x1="48.44" y1="0.94" x2="48.44" y2="4.87"/><line class="cls-1" x1="42.7" y1="0.15" x2="47.65" y2="0.15"/><path class="cls-2" d="M48.44.94h0a.79.79,0,0,0-.79-.79"/><line class="cls-1" x1="31.53" y1="0.94" x2="31.53" y2="4.87"/><path class="cls-2" d="M32.32.15h0a.79.79,0,0,0-.79.79"/><line class="cls-1" x1="38.06" y1="0.94" x2="38.06" y2="4.87"/><line class="cls-1" x1="32.32" y1="0.15" x2="37.27" y2="0.15"/><path class="cls-2" d="M38.06.94h0a.79.79,0,0,0-.79-.79"/><line class="cls-1" x1="20.6" y1="3.3" x2="20.6" y2="4.87"/><line class="cls-1" x1="20.6" y1="3.3" x2="27.68" y2="3.3"/><line class="cls-1" x1="27.68" y1="3.3" x2="27.68" y2="4.87"/><line class="cls-1" x1="73.06" y1="0.94" x2="73.06" y2="4.87"/><path class="cls-2" d="M73.84.15h0a.78.78,0,0,0-.78.79"/><line class="cls-1" x1="79.58" y1="0.94" x2="79.58" y2="4.87"/><line class="cls-1" x1="73.84" y1="0.15" x2="78.8" y2="0.15"/><path class="cls-2" d="M79.58.94A.78.78,0,0,0,78.8.15"/><line class="cls-1" x1="62.68" y1="0.94" x2="62.68" y2="4.87"/><path class="cls-2" d="M63.46.15h0a.78.78,0,0,0-.78.79"/><line class="cls-1" x1="69.2" y1="0.94" x2="69.2" y2="4.87"/><line class="cls-1" x1="63.46" y1="0.15" x2="68.42" y2="0.15"/><path class="cls-2" d="M69.2.94h0a.78.78,0,0,0-.78-.79"/><line class="cls-1" x1="52.29" y1="0.94" x2="52.29" y2="4.87"/><path class="cls-2" d="M53.08.15h0a.79.79,0,0,0-.79.79"/><line class="cls-1" x1="58.82" y1="0.94" x2="58.82" y2="4.87"/><line class="cls-1" x1="53.08" y1="0.15" x2="58.04" y2="0.15"/><path class="cls-2" d="M58.82.94A.78.78,0,0,0,58,.15"/><line class="cls-1" x1="41.91" y1="0.94" x2="41.91" y2="4.87"/><path class="cls-2" d="M42.7.15h0a.79.79,0,0,0-.79.79"/><line class="cls-1" x1="48.44" y1="0.94" x2="48.44" y2="4.87"/><line class="cls-1" x1="42.7" y1="0.15" x2="47.65" y2="0.15"/><path class="cls-2" d="M48.44.94h0a.79.79,0,0,0-.79-.79"/><line class="cls-1" x1="31.53" y1="0.94" x2="31.53" y2="4.87"/><path class="cls-2" d="M32.32.15h0a.79.79,0,0,0-.79.79"/><line class="cls-1" x1="38.06" y1="0.94" x2="38.06" y2="4.87"/><line class="cls-1" x1="32.32" y1="0.15" x2="37.27" y2="0.15"/><path class="cls-2" d="M38.06.94a.79.79,0,0,0-.79-.79"/><line class="cls-1" x1="20.6" y1="3.3" x2="27.68" y2="3.3"/><line class="cls-1" x1="78.56" y1="47.73" x2="76.05" y2="47.73"/><line class="cls-1" x1="70.85" y1="47.73" x2="68.34" y2="47.73"/><line class="cls-1" x1="63.15" y1="47.73" x2="60.63" y2="47.73"/><line class="cls-1" x1="55.44" y1="47.73" x2="52.92" y2="47.73"/><line class="cls-1" x1="47.73" y1="47.73" x2="45.22" y2="47.73"/><line class="cls-1" x1="40.02" y1="47.73" x2="37.51" y2="47.73"/><line class="cls-1" x1="27.68" y1="3.3" x2="27.68" y2="4.87"/><line class="cls-1" x1="20.6" y1="3.3" x2="20.6" y2="4.87"/><line class="cls-1" x1="76.05" y1="47.73" x2="76.05" y2="46.95"/><line class="cls-1" x1="78.56" y1="46.95" x2="78.56" y2="47.73"/><line class="cls-1" x1="70.85" y1="46.95" x2="70.85" y2="47.73"/><line class="cls-1" x1="68.34" y1="47.73" x2="68.34" y2="46.95"/><line class="cls-1" x1="63.15" y1="46.95" x2="63.15" y2="47.73"/><line class="cls-1" x1="60.63" y1="47.73" x2="60.63" y2="46.95"/><line class="cls-1" x1="55.44" y1="46.95" x2="55.44" y2="47.73"/><line class="cls-1" x1="52.92" y1="47.73" x2="52.92" y2="46.95"/><line class="cls-1" x1="47.73" y1="46.95" x2="47.73" y2="47.73"/><line class="cls-1" x1="45.22" y1="47.73" x2="45.22" y2="46.95"/><line class="cls-1" x1="40.02" y1="46.95" x2="40.02" y2="47.73"/><line class="cls-1" x1="37.51" y1="47.73" x2="37.51" y2="46.95"/><line class="cls-1" x1="90.6" y1="46.95" x2="90.6" y2="4.87"/><line class="cls-1" x1="0.15" y1="46.95" x2="90.6" y2="46.95"/><line class="cls-1" x1="0.15" y1="4.87" x2="0.15" y2="46.95"/><line class="cls-1" x1="90.6" y1="4.87" x2="0.15" y2="4.87"/><line class="cls-1" x1="12.34" y1="4.87" x2="7.62" y2="4.87"/><line class="cls-1" x1="7.62" y1="4.87" x2="7.62" y2="4.08"/><line class="cls-1" x1="7.62" y1="4.08" x2="12.34" y2="4.08"/><line class="cls-1" x1="12.34" y1="4.08" x2="12.34" y2="4.87"/><path class="cls-3" d="M52.09,21.63c-.44,0-.74.37-.74.91a1.09,1.09,0,0,0,.19.65.73.73,0,0,0,.59.26.76.76,0,0,0,.66-.28h0s0,0,0,0h0a.75.75,0,0,1-.56.21c-.33,0-.55-.3-.55-.76v0h1.17v-.13C52.83,21.9,52.58,21.63,52.09,21.63Zm.43.84h-.87v0c0-.42.19-.72.44-.72s.43.39.43.72Zm1.93.1v-.13c0-.54-.25-.81-.74-.81S53,22,53,22.54a1,1,0,0,0,.2.65.71.71,0,0,0,.58.26.76.76,0,0,0,.66-.28h0a0,0,0,0,0,0,0,0,0,0,0,0,0,0h0a.75.75,0,0,1-.55.21c-.34,0-.55-.3-.55-.76v0Zm-1.17-.13c0-.42.18-.72.43-.72s.44.39.44.72v0h-.87Zm-6.34,1c-.22,0-.32-.13-.43-.4l-.8-1.94a0,0,0,0,0,0,0l-.49,1.16a1.8,1.8,0,0,0-.84.34,0,0,0,0,0,0,0,.63.63,0,0,0,.22.23,1.07,1.07,0,0,0,.31.13l-.19.46a0,0,0,0,0,0,0h.14L45,23h.06a4.77,4.77,0,0,0,.5,0s0,0,0-.05a2,2,0,0,1-.36-.05l-.15-.05.2-.47h.14a2.24,2.24,0,0,1,.58.12l.2.49c.15.41.39.45.55.45h.19a0,0,0,0,0,0,0S47,23.41,46.94,23.41Zm-2-.61-.11-.08a.84.84,0,0,1-.2-.27,2.25,2.25,0,0,1,.48-.06Zm.4-.58.26-.62.26.63A4.28,4.28,0,0,0,45.35,22.22Zm3.35,1h0c0,.11-.18.15-.37.15h-.92l1.07-1.7a0,0,0,0,0,0,0h-1.1c-.17,0-.27.07-.3.19h0s0,.05,0,.06,0,0,0,0a0,0,0,0,0,0,0h0c0-.11.18-.15.38-.15h.66L47,23.43h0v0h1.37c.17,0,.26-.07.29-.2h0s0,0,0-.05S48.71,23.2,48.7,23.2Zm2.59.22h0l0,0a.11.11,0,0,1,0-.09v-1c0-.6-.3-.67-.52-.67a.71.71,0,0,0-.56.26l0,0,0-.05a.44.44,0,0,0-.45-.25.66.66,0,0,0-.48.19l-.06.05a.29.29,0,0,0-.32-.24h-.14l0,0a0,0,0,0,0,0,0c.21,0,.2.2.2.4v1a.4.4,0,0,0,.11.3h0l0,0a.35.35,0,0,0,.2.1l0,0a0,0,0,0,0,0,0h0l0,0a.11.11,0,0,1,0-.09V22h0a.58.58,0,0,1,.42-.22c.23,0,.37.18.37.56V23a.4.4,0,0,0,.11.3h0v0a.38.38,0,0,0,.2.1l0,0s0,0,0,0h0l0,0a.11.11,0,0,1,0-.09v-1a1.06,1.06,0,0,0,0-.26h0v0a.59.59,0,0,1,.43-.27c.24,0,.38.18.38.56V23a.44.44,0,0,0,.1.3h0v0a.35.35,0,0,0,.2.1l0,0A0,0,0,0,0,51.29,23.42Z"/><path class="cls-3" d="M55.73,22c.29,0,.45.12.45.33a.29.29,0,0,1-.12.24.66.66,0,0,1-.2.07h0c.13,0,.2.14.41.57H56c-.17-.42-.24-.5-.43-.5h-.14v.5h-.19V22Zm-.26.55h.21c.19,0,.29-.07.29-.2s-.09-.19-.27-.19h-.23Z"/><path class="cls-3" d="M55.7,23.54a1,1,0,1,1,1-1A1,1,0,0,1,55.7,23.54Zm0-1.84a.87.87,0,1,0,.87.87A.86.86,0,0,0,55.7,21.7Z"/><path class="cls-3" d="M44.7,25.23l.22.5A1.06,1.06,0,0,1,45,26h0a1.06,1.06,0,0,1,.08-.23l.22-.5h.25v1.08h-.17v-.55c0-.11,0-.31,0-.39h0c0,.11-.09.23-.13.32l-.2.44h-.14l-.2-.44c0-.08-.09-.22-.12-.32h0v.94h-.16V25.23Z"/><path class="cls-3" d="M46.84,25.77a.53.53,0,1,1-.52-.56A.52.52,0,0,1,46.84,25.77Zm-.87,0c0,.25.14.42.35.42s.34-.17.34-.42a.35.35,0,1,0-.69,0Z"/><path class="cls-3" d="M47.44,25.23a.52.52,0,0,1,.58.54.5.5,0,0,1-.23.46.66.66,0,0,1-.36.08h-.35V25.23Zm-.19.94h.16a.38.38,0,0,0,.43-.4.37.37,0,0,0-.42-.39h-.17Z"/><path class="cls-3" d="M49,25.23v.15h-.56v.31H49v.14h-.5v.34H49v.14h-.75V25.23Z"/><path class="cls-3" d="M49.47,25.23v.93H50v.15H49.3V25.23Z"/><path class="cls-3" d="M50.82,25.38v.2h-.2v-.2Zm0,.59v.2h-.2V26Z"/><path class="cls-3" d="M52.07,25.23l.42,1.08H52.3L52.19,26h-.44l-.11.29h-.19l.43-1.08Zm0,.37a1.43,1.43,0,0,1-.06-.21h0s0,.13-.07.21l-.1.28h.35Z"/><path class="cls-3" d="M52.7,26a.47.47,0,0,0,.36.16c.14,0,.22-.06.22-.16s-.06-.15-.22-.2l-.1,0a.68.68,0,0,1-.19-.08.22.22,0,0,1-.11-.2c0-.19.15-.31.39-.31a.61.61,0,0,1,.36.13l-.08.12a.42.42,0,0,0-.28-.1c-.13,0-.21.05-.21.14s0,.13.21.18l.11,0c.2.06.3.16.3.31a.3.3,0,0,1-.13.25.6.6,0,0,1-.72-.12Z"/><path class="cls-3" d="M53.75,26a.46.46,0,0,0,.35.16c.14,0,.22-.06.22-.16s0-.15-.22-.2l-.09,0a.57.57,0,0,1-.19-.08.22.22,0,0,1-.11-.2c0-.19.14-.31.39-.31a.61.61,0,0,1,.36.13l-.08.12a.43.43,0,0,0-.29-.1c-.13,0-.2.05-.2.14s0,.13.21.18l.1,0c.21.06.31.16.31.31a.3.3,0,0,1-.13.25.58.58,0,0,1-.28.07.57.57,0,0,1-.44-.19Z"/><path class="cls-3" d="M55.67,26.19a.57.57,0,0,1-.4.15.53.53,0,0,1-.54-.56.53.53,0,0,1,.53-.57.57.57,0,0,1,.38.14l-.09.13a.35.35,0,0,0-.29-.12.37.37,0,0,0-.35.42A.42.42,0,0,0,55,26a.35.35,0,0,0,.28.14.45.45,0,0,0,.32-.12Z"/><path class="cls-3" d="M56.34,25.75v.13h-.45v-.13Z"/><path class="cls-3" d="M57.43,25.77c0,.35-.16.57-.42.57s-.42-.22-.42-.57.16-.56.42-.56S57.43,25.43,57.43,25.77Zm-.66,0c0,.26.09.42.24.42s.24-.16.24-.42-.09-.42-.24-.42S56.77,25.52,56.77,25.77Z"/><path class="cls-3" d="M58.53,25.77c0,.35-.16.57-.42.57s-.42-.22-.42-.57.16-.56.42-.56S58.53,25.43,58.53,25.77Zm-.66,0c0,.26.09.42.24.42s.24-.16.24-.42-.09-.42-.24-.42S57.87,25.52,57.87,25.77Z"/><path class="cls-3" d="M59.63,25.77c0,.35-.16.57-.42.57s-.42-.22-.42-.57.16-.56.42-.56S59.63,25.43,59.63,25.77Zm-.66,0c0,.26.09.42.24.42s.24-.16.24-.42-.09-.42-.24-.42S59,25.52,59,25.77Z"/><path class="cls-3" d="M60.24,25.4l-.25.07,0-.14a1.11,1.11,0,0,0,.34-.12h.13v1.1h-.18Z"/><path class="cls-3" d="M44.93,27.47h-.56v-.12h1.26v.12h-.56v.12h.28v.67h-.7v-.67h.28Zm.52.88v-.76h.14v.95h-.14v-.07h-.9v.07h-.14v-.95h.14v.76Zm-.68-.65v.16h.16V27.7Zm0,.27v.18h.16V28Zm.29-.11h.17V27.7h-.17Zm0,.29h.17V28h-.17Z"/><path class="cls-3" d="M46.93,27.63v.91h-.14v-.07H46v.07h-.14v-.91h.4a.75.75,0,0,0,0-.16h-.54v-.12H47v.12h-.58a.58.58,0,0,1,0,.14v0Zm-1,.12v.6h.17v-.6Zm.3.12h.21v-.12h-.21Zm0,.23h.21V28h-.21Zm0,.25h.21v-.14h-.21Zm.34,0h.17v-.6h-.17Z"/><path class="cls-3" d="M47.76,27.9a.66.66,0,0,1-.46.64l-.09-.12a.57.57,0,0,0,.33-.25.67.67,0,0,0,.07-.27h-.22v-.09l-.16.14-.1-.12a1,1,0,0,0,.41-.54l.14,0a1.5,1.5,0,0,1-.26.44h.74a1.43,1.43,0,0,1-.32-.44l.13-.06a1.12,1.12,0,0,0,.45.51l-.09.13-.14-.11h0v0a3.74,3.74,0,0,1,0,.61c0,.07-.08.1-.2.1h-.19l0-.14.19,0c.07,0,.08,0,.09-.06a3.16,3.16,0,0,0,0-.44Z"/><path class="cls-3" d="M49.3,27.4v.23h-.09v.07H49v.07h.27v.1H49v.07h.34V28h-.8v-.1h.33v-.07h-.26v-.1h.26V27.7h-.21v-.07h-.1V27.4h.31v-.13H49v.13Zm-.09,1.13h-.13v-.05h-.32v.06h-.13v-.42h.58Zm-.54-.93h.18v-.1h-.18Zm.09.78h.32v-.15h-.32Zm.41-.88H49v.1h.19Zm.34-.12v.83h-.14v-.83Zm.24-.06V28.4c0,.1,0,.13-.15.13h-.15l0-.14h.15s0,0,0,0v-1Z"/><path class="cls-3" d="M50.6,27.7l-.08.1h.65v.12h-.32a1.5,1.5,0,0,0,.36.15l-.07.12-.09,0v.39h-.13v-.06h-.19v.06H50.6v-.45h.31a1.56,1.56,0,0,1-.25-.17h-.24a1.06,1.06,0,0,1-.23.17h.31v.43h-.13v0h-.2v.06H50v-.37l-.08,0-.07-.11a1.08,1.08,0,0,0,.34-.17h-.3V27.8h.43l.07-.09H50v-.38h.46v.34Zm-.45-.1h.2v-.17h-.2Zm0,.77h.2v-.18h-.2Zm.9-.66H50.6v-.38h.47Zm-.34.66h.19v-.18h-.19Zm0-.77h.21v-.17h-.21Z"/><path class="cls-3" d="M63.85,28a.17.17,0,0,1,.15-.11.16.16,0,0,1,.16.12.18.18,0,0,1,.16-.12.15.15,0,0,1,.13.07.21.21,0,0,1,0,.15v.34h-.11v-.33c0-.08,0-.13-.09-.13s-.1.06-.12.13v.33h-.11v-.33c0-.08,0-.13-.09-.13s-.1.06-.12.14v.32h-.11v-.55h.11Z"/><path class="cls-3" d="M65,28.05c0-.07,0-.11-.13-.11a.3.3,0,0,0-.18.06l0-.08a.45.45,0,0,1,.23-.07c.15,0,.23.07.23.22v.18a.31.31,0,0,0,0,.16h-.11a.17.17,0,0,1,0-.09h0a.15.15,0,0,1-.08.08.21.21,0,0,1-.12,0,.17.17,0,0,1-.19-.17c0-.13.11-.19.31-.19H65Zm0,.09c-.15,0-.22,0-.22.11a.09.09,0,0,0,.1.09.16.16,0,0,0,.16-.15v-.05Z"/><path class="cls-3" d="M65.86,27.62v.8h-.11v-.09a.21.21,0,0,1-.18.1.29.29,0,0,1,0-.58.21.21,0,0,1,.18.09v-.32Zm-.11.44q-.06-.12-.15-.12a.18.18,0,0,0-.17.2.17.17,0,0,0,.32.09Z"/><path class="cls-3" d="M66.16,28.16a.16.16,0,0,0,.17.17.22.22,0,0,0,.18-.08l.06.08a.3.3,0,0,1-.25.1.27.27,0,0,1-.28-.29.27.27,0,0,1,.27-.29.25.25,0,0,1,.26.27v0Zm.29-.08a.14.14,0,0,0-.14-.14.14.14,0,0,0-.15.14Z"/><path class="cls-3" d="M67.27,27.64v.12h-.13v-.12Zm0,.22v.55h-.12v-.55Z"/><path class="cls-3" d="M67.61,28a.22.22,0,0,1,.19-.12c.12,0,.19.08.19.22v.34h-.11v-.32c0-.09,0-.14-.11-.14a.19.19,0,0,0-.16.14v.32h-.12v-.55h.12Z"/><path class="cls-3" d="M69.21,28.33a.41.41,0,0,1-.29.1.36.36,0,0,1-.37-.39.37.37,0,0,1,.37-.4.39.39,0,0,1,.27.1l-.07.09a.24.24,0,0,0-.2-.08.26.26,0,0,0-.24.29.32.32,0,0,0,0,.18.23.23,0,0,0,.19.1.36.36,0,0,0,.23-.08Z"/><path class="cls-3" d="M69.49,27.62V28a.25.25,0,0,1,.2-.12c.12,0,.19.08.19.22v.34h-.11v-.32c0-.09,0-.14-.12-.14a.2.2,0,0,0-.16.14v.32h-.11v-.79Z"/><path class="cls-3" d="M70.23,27.64v.12H70.1v-.12Zm0,.22v.55h-.12v-.55Z"/><path class="cls-3" d="M70.57,28a.22.22,0,0,1,.19-.12c.12,0,.19.08.19.22v.34h-.11v-.32c0-.09,0-.14-.11-.14a.19.19,0,0,0-.16.14v.32h-.12v-.55h.12Z"/><path class="cls-3" d="M71.51,28.05c0-.07-.05-.11-.13-.11a.28.28,0,0,0-.18.06l0-.08a.45.45,0,0,1,.23-.07c.16,0,.24.07.24.22v.18a.32.32,0,0,0,0,.16h-.11a.41.41,0,0,1,0-.09h0a.18.18,0,0,1-.07.08.25.25,0,0,1-.13,0,.17.17,0,0,1-.19-.17c0-.13.11-.19.31-.19h.08Zm-.05.09c-.15,0-.22,0-.22.11s0,.09.11.09a.16.16,0,0,0,.16-.15v-.05Z"/><path class="cls-3" d="M64.26,25.52l.39,1h-.17l-.11-.28H64l-.11.28h-.17l.4-1Zm0,.35-.06-.2h0a1.36,1.36,0,0,1-.06.2l-.1.26h.33Z"/><path class="cls-3" d="M65.35,25.8v.09l-.29.38L65,26.4h.43v.13h-.62v-.1l.28-.37.11-.14h-.37V25.8Z"/><path class="cls-3" d="M65.74,25.94a.21.21,0,0,1,.2-.15.2.2,0,0,1,.21.16.24.24,0,0,1,.21-.16.22.22,0,0,1,.18.08.33.33,0,0,1,0,.21v.46h-.14V26.1c0-.11,0-.18-.13-.18s-.13.08-.15.17v.45H66v-.45c0-.11,0-.17-.12-.17s-.14.07-.16.19v.43h-.15V25.8h.15Z"/><path class="cls-3" d="M67,26.2a.22.22,0,0,0,.24.23.29.29,0,0,0,.24-.11l.08.1a.4.4,0,0,1-.33.14.36.36,0,0,1-.39-.38.37.37,0,0,1,.37-.4.35.35,0,0,1,.35.37v.05Zm.4-.11a.18.18,0,0,0-.19-.19.21.21,0,0,0-.2.19Z"/><path class="cls-3" d="M67.89,26.2a.22.22,0,0,0,.24.23.27.27,0,0,0,.23-.11l.09.1a.42.42,0,0,1-.34.14.36.36,0,0,1-.38-.38.37.37,0,0,1,.37-.4.35.35,0,0,1,.35.37v.05Zm.39-.11a.18.18,0,0,0-.19-.19.21.21,0,0,0-.2.19Z"/><path class="cls-3" d="M69.59,25.53v.12h-.14v.77h.14v.12h-.43v-.12h.13v-.77h-.13v-.12Z"/><path class="cls-3" d="M70,25.94a.32.32,0,0,1,.26-.15c.17,0,.26.11.26.29v.46h-.15v-.43c0-.13,0-.19-.15-.19a.27.27,0,0,0-.22.18v.44h-.15V25.8H70Z"/><path class="cls-3" d="M71.44,26.43a.38.38,0,0,1-.32.13.37.37,0,0,1-.39-.39.38.38,0,0,1,.39-.39.44.44,0,0,1,.29.1l-.07.11a.29.29,0,0,0-.21-.08.26.26,0,0,0,0,.52.27.27,0,0,0,.22-.1Z"/><path class="cls-3" d="M71.82,26.33v.21h-.21v-.21Z"/><path class="cls-3" d="M73.22,27.66a.36.36,0,0,1,.4.38.35.35,0,0,1-.16.32.47.47,0,0,1-.25.05H73v-.75Zm-.14.65h.12c.19,0,.3-.1.3-.27a.26.26,0,0,0-.3-.28h-.12Z"/><path class="cls-3" d="M74.38,28c0,.24-.11.39-.29.39s-.3-.15-.3-.39.11-.4.3-.4S74.38,27.79,74.38,28Zm-.46,0c0,.18.06.29.17.29s.16-.11.16-.29-.06-.3-.16-.3S73.92,27.86,73.92,28Z"/><path class="cls-3" d="M75.15,28c0,.24-.11.39-.3.39s-.29-.15-.29-.39.11-.4.29-.4S75.15,27.79,75.15,28Zm-.46,0c0,.18.06.29.16.29S75,28.22,75,28s-.06-.3-.17-.3S74.69,27.86,74.69,28Z"/><path class="cls-3" d="M75.92,28c0,.24-.11.39-.3.39s-.29-.15-.29-.39.11-.4.29-.4S75.92,27.79,75.92,28Zm-.46,0c0,.18.06.29.16.29s.17-.11.17-.29-.06-.3-.17-.3S75.46,27.86,75.46,28Z"/><path class="cls-3" d="M76.69,28c0,.24-.11.39-.3.39s-.29-.15-.29-.39.11-.4.29-.4S76.69,27.79,76.69,28Zm-.46,0c0,.18.06.29.16.29s.17-.11.17-.29-.06-.3-.17-.3S76.23,27.86,76.23,28Z"/><path class="cls-3" d="M77.46,28c0,.24-.12.39-.3.39s-.29-.15-.29-.39.11-.4.29-.4S77.46,27.79,77.46,28ZM77,28c0,.18.06.29.16.29s.17-.11.17-.29-.06-.3-.17-.3S77,27.86,77,28Z"/><path class="cls-3" d="M78.23,27.66v.08a2.87,2.87,0,0,0-.25.67h-.12a2.61,2.61,0,0,1,.24-.65h-.33v.17h-.11v-.27Z"/><rect class="cls-3" x="63.69" y="22.95" width="14.65" height="1.5"/><path class="cls-4" d="M64,21.35l-.26.08,0-.14a1.31,1.31,0,0,0,.34-.12h.13v1.1H64Z"/><path class="cls-4" d="M64.78,22.13a.7.7,0,0,1,.33-.39l0,0c.18-.11.23-.16.23-.25a.18.18,0,0,0-.2-.16.34.34,0,0,0-.28.14l-.11-.1a.47.47,0,0,1,.39-.18c.22,0,.38.13.38.3a.29.29,0,0,1-.07.2,1.13,1.13,0,0,1-.19.14h0l0,0c-.16.1-.25.18-.26.26h.61v.16h-.79Z"/><path class="cls-4" d="M66,21.19l.24.64.07.23h0c0-.06,0-.15.07-.23l.23-.64h.2l-.43,1.09h-.15l-.42-1.09Z"/><path class="cls-4" d="M67.45,21.16,67,22.57l-.09,0,.5-1.41Z"/><path class="cls-4" d="M67.67,22.13a.74.74,0,0,1,.33-.39l0,0c.18-.11.22-.16.22-.25s-.08-.16-.2-.16a.32.32,0,0,0-.27.14l-.12-.1a.49.49,0,0,1,.4-.18.34.34,0,0,1,.38.3.3.3,0,0,1-.08.2.8.8,0,0,1-.19.14h0l0,0c-.16.1-.24.18-.26.26h.61v.16h-.79Z"/><path class="cls-4" d="M69.41,21.18v.7h.2V22h-.2v.25h-.16V22h-.54v-.14l.5-.7Zm-.16.39a2.18,2.18,0,0,1,0-.24h0a.92.92,0,0,1-.1.2l-.25.35h.35Z"/><path class="cls-4" d="M70,21.19l.23.64.07.23h0a1.6,1.6,0,0,1,.08-.23l.23-.64h.19l-.42,1.09h-.15l-.43-1.09Z"/><path class="cls-4" d="M71.83,21.19a.51.51,0,0,1,.57.54.53.53,0,0,1-.23.46.72.72,0,0,1-.35.08h-.36V21.19Zm-.2.93h.16c.28,0,.43-.14.43-.39s-.15-.39-.42-.39h-.17Z"/><path class="cls-4" d="M73.56,22.15a.54.54,0,0,1-.4.14.56.56,0,0,1,0-1.12.53.53,0,0,1,.38.14l-.09.12a.38.38,0,0,0-.29-.12.38.38,0,0,0-.35.42.46.46,0,0,0,.08.27.35.35,0,0,0,.28.14.45.45,0,0,0,.32-.12Z"/><path class="cls-4" d="M74.34,22.13a.74.74,0,0,1,.33-.39l0,0c.18-.11.22-.16.22-.25s-.08-.16-.2-.16a.35.35,0,0,0-.28.14l-.11-.1a.49.49,0,0,1,.4-.18.33.33,0,0,1,.37.3.29.29,0,0,1-.07.2,1.13,1.13,0,0,1-.19.14h0l0,0c-.16.1-.25.18-.26.26h.61v.16h-.79Z"/><path class="cls-4" d="M75.64,22v.23h-.23V22Z"/><path class="cls-4" d="M76.69,21.19v.15h-.5l0,.31h0a.36.36,0,0,1,.23-.08.35.35,0,0,1,.37.35.37.37,0,0,1-.41.37.58.58,0,0,1-.4-.14l.1-.12a.47.47,0,0,0,.29.12.22.22,0,0,0,.23-.23.2.2,0,0,0-.22-.22.3.3,0,0,0-.22.11l-.15,0,.06-.59Z"/><path class="cls-4" d="M78,22.28h-.16l-.17-.56,0-.23h0a.8.8,0,0,1,0,.23l-.16.56h-.16l-.29-1.09h.18l.14.58c0,.07,0,.12.06.27h0c0-.11.05-.21.06-.27l.15-.49h.15l.15.49c0,.07,0,.13.06.27h0c0-.1,0-.21,0-.27l.15-.58h.17Z"/><path class="cls-4" d="M65.9,23.19a.55.55,0,0,1,.35,1,.77.77,0,0,1-.36.08h-.36V23.19Zm-.19.93h.16a.37.37,0,0,0,.42-.39c0-.25-.14-.39-.42-.39h-.16Z"/><path class="cls-4" d="M67.7,23.73a.53.53,0,1,1-.53-.56A.52.52,0,0,1,67.7,23.73Zm-.87,0a.35.35,0,1,0,.68,0c0-.25-.14-.42-.34-.42S66.83,23.48,66.83,23.73Z"/><path class="cls-4" d="M68.63,23.19l.35.57h0a2.67,2.67,0,0,1,.12.24h0c0-.09,0-.26,0-.36v-.46h.17v1.08h-.17l-.41-.66c0-.09-.11-.19-.13-.24h0c0,.09,0,.23,0,.38v.52h-.16V23.19Z"/><path class="cls-4" d="M70.54,23.73a.53.53,0,1,1-1.05,0,.53.53,0,1,1,1.05,0Zm-.87,0a.35.35,0,1,0,.69,0c0-.25-.14-.42-.34-.42S69.67,23.48,69.67,23.73Z"/><path class="cls-4" d="M71.55,23.19v.15h-.37v.93H71v-.93h-.37v-.15Z"/><path class="cls-4" d="M73.2,23.73a.53.53,0,1,1-.53-.56A.52.52,0,0,1,73.2,23.73Zm-.87,0a.35.35,0,1,0,.68,0c0-.25-.14-.42-.34-.42S72.33,23.48,72.33,23.73Z"/><path class="cls-4" d="M73.8,23.19a.54.54,0,0,1,.27.06.29.29,0,0,1,.16.27c0,.24-.15.35-.44.35h-.2v.4h-.17V23.19Zm-.21.55h.18c.2,0,.27-.06.27-.21a.2.2,0,0,0-.07-.16.4.4,0,0,0-.18,0h-.2Z"/><path class="cls-4" d="M75.18,23.19v.15h-.56v.3h.5v.14h-.5v.34h.58v.15h-.75V23.19Z"/><path class="cls-4" d="M75.65,23.19l.35.57h0a2.67,2.67,0,0,1,.12.24h0c0-.09,0-.26,0-.36v-.46h.17v1.08h-.17l-.41-.66a1.51,1.51,0,0,1-.13-.24h0c0,.09,0,.23,0,.38v.52h-.17V23.19Z"/><path class="cls-3" d="M23.1,7.86h-.42v-.1h1v.1h-.43v.06h.57V8.2h-.15V8h-.42v.3H23.1V8h-.41V8.2h-.15V7.92h.56Zm.14,1a.06.06,0,0,0,0,.05h.19c.17,0,.23,0,.24,0s0-.05,0-.13l.14,0a.37.37,0,0,1,0,.18.11.11,0,0,1-.09,0h-.3c-.29,0-.32,0-.32-.11V8.84h-.29V8.9h-.15V8.35h1v.49h-.44Zm-.2-.8v.08h-.28V8.07Zm0,.13v.08h-.28V8.2Zm-.23.25v.09h.29V8.45Zm0,.19v.09h.29V8.64Zm.43-.1h.29V8.45h-.29Zm0,.19h.29V8.64h-.29Zm.36-.66v.08h-.29V8.07Zm0,.13v.08h-.29V8.2Z"/><path class="cls-3" d="M24.17,8.39a1.54,1.54,0,0,0-.2-.22l.11-.1a2,2,0,0,1,.2.21ZM24,9a3.07,3.07,0,0,0,.17-.49l.12.08a2.14,2.14,0,0,1-.17.51ZM24.21,8a.79.79,0,0,0-.2-.21l.11-.1a.89.89,0,0,1,.19.2Zm1,0v.53H25v.37c0,.08,0,.11-.12.11h-.15l0-.13h.12s0,0,0,0V8.57h-.26V8h.2a.65.65,0,0,0,0-.13h-.32v.37a1.25,1.25,0,0,1-.18.77l-.1-.11a1.19,1.19,0,0,0,.14-.59V7.79h.95v.12H25s0,.09-.05.13Zm-.8.86a.82.82,0,0,0,.17-.29l.13,0a.91.91,0,0,1-.19.35Zm.27-.75v.1h.39v-.1Zm0,.31h.39V8.35h-.39ZM25.2,9A1.65,1.65,0,0,0,25,8.67l.11-.07a2.23,2.23,0,0,1,.2.3Z"/><path class="cls-3" d="M23.27,10.13a1.09,1.09,0,0,0,.57,1l-.1.13a1.11,1.11,0,0,1-.54-.7v0a1.05,1.05,0,0,1-.56.7l-.11-.13a1,1,0,0,0,.6-1h-.35V10h.5Z"/><path class="cls-3" d="M24.67,10.38a1,1,0,0,1-.55.89L24,11.14a.84.84,0,0,0,.41-.38.86.86,0,0,0,.09-.36v0h-.46v-.14h.48V10h.16l0,.28h.55v.13a3.54,3.54,0,0,1,0,.74.17.17,0,0,1-.2.15l-.26,0,0-.16.24,0c.07,0,.09,0,.1-.07a4,4,0,0,0,.05-.65Z"/><path class="cls-3" d="M7.28,7.78v.75H7.12V7.78Zm.7,0v.49c0,.47-.12.64-.54.75l-.08-.14c.38-.08.47-.2.46-.61V7.77Z"/><path class="cls-3" d="M9.51,7.83V8H8.93v.29h.69V8.4H8.93v.34s0,0,0,.06l.23,0h.32V9H9.18c-.24,0-.31,0-.36-.05a.2.2,0,0,1-.05-.14V8.4H8.4V8.26h.37V8h-.3V7.83Z"/><path class="cls-3" d="M11,7.88v1H10V8.77h.86V8H10V7.88Z"/><path class="cls-3" d="M11.87,8.13A2.28,2.28,0,0,0,11.43,8l0-.15a2,2,0,0,1,.46.16Zm-.43.68a.89.89,0,0,0,1-.84l.13.1c-.11.59-.4.84-1.06.9Z"/><path class="cls-3" d="M9.11,10.14a1.08,1.08,0,0,0,.57,1l-.1.13a1.16,1.16,0,0,1-.55-.7v0a1.05,1.05,0,0,1-.56.7l-.11-.13a1,1,0,0,0,.6-1H8.61V10h.5Z"/><path class="cls-3" d="M10.51,10.38a1,1,0,0,1-.55.89l-.11-.13a.84.84,0,0,0,.41-.38,1.34,1.34,0,0,0,.09-.36v0H9.89v-.14h.48V10h.16l0,.28h.55v.13a3.54,3.54,0,0,1-.05.74.17.17,0,0,1-.2.15l-.26,0,0-.16.24,0c.07,0,.09,0,.1-.07a5.71,5.71,0,0,0,.05-.65Z"/><path class="cls-3" d="M18.89,20.1h-.43V20h1v.1H19v.06h.57v.28h-.14v-.19H19v.3h-.14v-.3h-.42v.19h-.14v-.28h.56Zm.14,1s0,0,0,.05h.19c.16,0,.22,0,.24,0a.24.24,0,0,0,0-.13l.14,0a.37.37,0,0,1,0,.18.11.11,0,0,1-.09,0H19.2c-.28,0-.32,0-.32-.11v-.09H18.6v.06h-.15v-.55h1v.49H19Zm-.21-.8v.08h-.28v-.08Zm0,.13v.08h-.28v-.08Zm-.22.25v.09h.28v-.09Zm0,.19V21h.28v-.09Zm.43-.1h.29v-.09H19ZM19,21h.29v-.09H19Zm.36-.66v.08H19.1v-.08Zm0,.13v.08H19.1v-.08Z"/><path class="cls-3" d="M20,20.63a2.53,2.53,0,0,0-.2-.22l.11-.1a2,2,0,0,1,.2.21Zm-.19.56a1.87,1.87,0,0,0,.17-.49l.13.08a2.14,2.14,0,0,1-.17.51Zm.23-.91a1,1,0,0,0-.2-.21l.1-.1a1,1,0,0,1,.2.2Zm1,0v.53h-.26v.37c0,.08,0,.11-.12.11h-.15l0-.13h.12s0,0,0,0v-.31h-.26v-.53h.21a.61.61,0,0,0,0-.13h-.32v.37a1.26,1.26,0,0,1-.17.77L20,21.18a1.09,1.09,0,0,0,.14-.59V20h1v.12h-.35l0,.13Zm-.8.86a.71.71,0,0,0,.18-.29l.13,0a1.06,1.06,0,0,1-.19.35Zm.28-.75v.1h.38v-.1Zm0,.31h.38v-.11h-.38Zm.51.53a1.29,1.29,0,0,0-.19-.32l.12-.07a1.53,1.53,0,0,1,.19.3Z"/><path class="cls-3" d="M22,20.11A.66.66,0,0,0,22,20h.14c0,.07,0,.09,0,.14h.4v.24H22.4v-.12h-.31a.93.93,0,0,1-.1.2h.16l.06-.16.14,0-.06.14h.23v.11h-.26v.11h.21v.11h-.21v.11h.21V21h-.21v.12h.3v.12H22v.07h-.13v-.63l-.08.08-.06-.11v.51h-.23v.12h-.13v-.5l-.06.09-.06-.15a1.11,1.11,0,0,0,.2-.5v0h-.18V20h.49v.08Zm-.14.12v.12h-.13v-.19h-.17a2.58,2.58,0,0,1-.09.35h.23v.11a1.11,1.11,0,0,0,.26-.39Zm-.39.78h.11v-.38h-.11Zm.5-.47v.11h.17v-.11Zm0,.22v.11h.17v-.11ZM22,21v.12h.17V21Z"/><path class="cls-3" d="M23.23,20.21v.13H22.7v-.13Zm0,1h-.32v.07h-.13v-.47h.45Zm0-1.21v.12h-.4V20Zm0,.41v.12h-.4v-.12Zm0,.2v.11h-.4v-.11Zm-.3.49h.19v-.17h-.19Zm.33.07a1.28,1.28,0,0,0,.08-.35l.13,0a1.41,1.41,0,0,1-.09.38Zm.44-1a.45.45,0,0,1,0,.16l.16.09-.08.11-.13-.08a.6.6,0,0,1-.24.26l-.09-.1a.58.58,0,0,0,.22-.22l-.17-.08.07-.09.14.05h0a.25.25,0,0,0,0-.09h-.23V20H24c0,.25,0,.45,0,.53s-.06.11-.15.11l-.15,0,0-.12h.12s0,0,.06,0a2.44,2.44,0,0,0,0-.34Zm-.06.65v.28s0,.05.06.05.08,0,.09-.15l.12.05a.3.3,0,0,1-.05.2s-.07,0-.18,0-.18,0-.18-.1v-.36Zm.11.08-.23-.19.09-.08a.91.91,0,0,1,.23.17Zm.22.31a1.63,1.63,0,0,0-.14-.34l.12-.06a2,2,0,0,1,.15.33Z"/><path class="cls-3" d="M24.8,20.06v1h.53v.16h-.72V20.06Z"/><path class="cls-3" d="M26.33,20.06v.15h-.6v.33h.53v.14h-.53V21h.62v.15h-.8V20.06Z"/><path class="cls-3" d="M27,20.06a.58.58,0,0,1,.36,1.05.7.7,0,0,1-.37.08h-.37V20.06Zm-.2,1H27a.39.39,0,0,0,.44-.41c0-.27-.15-.41-.44-.41H26.8Z"/><path class="cls-3" d="M19.91,38.26a.42.42,0,1,1-.84,0,.42.42,0,0,1,.42-.45A.42.42,0,0,1,19.91,38.26Zm-.69,0c0,.19.11.33.27.33s.27-.14.27-.33-.11-.33-.27-.33S19.22,38.06,19.22,38.26Z"/><path class="cls-3" d="M20.3,37.83l.27.45h0l.1.19h0v-.65h.13v.86h-.14l-.32-.53L20.24,38h0c0,.07,0,.18,0,.3v.42h-.14v-.86Z"/><path class="cls-3" d="M20,42.88l-.21.06,0-.11a1.42,1.42,0,0,0,.27-.09h.1v.87H20Z"/><path class="cls-3" d="M20.74,43.5a.59.59,0,0,1,.27-.31h0c.15-.1.18-.13.18-.2s-.07-.13-.16-.13a.26.26,0,0,0-.22.11l-.09-.08a.37.37,0,0,1,.32-.14c.17,0,.3.1.3.23a.21.21,0,0,1-.06.16l-.15.11,0,0,0,0a.51.51,0,0,0-.21.21h.49v.12h-.63Z"/><path class="cls-3" d="M22.06,43.11c.13,0,.21,0,.21-.14s-.06-.12-.16-.12a.24.24,0,0,0-.21.09l-.08-.09a.42.42,0,0,1,.29-.11c.18,0,.31.09.31.22s-.08.18-.21.2h0c.15,0,.24.09.24.22s-.13.25-.34.25a.45.45,0,0,1-.33-.12l.09-.09a.32.32,0,0,0,.24.09c.12,0,.19,0,.19-.14s-.08-.15-.25-.15H22v-.11Z"/><path class="cls-3" d="M23.36,42.75v.55h.15v.11h-.15v.2h-.13v-.2H22.8V43.3l.4-.55Zm-.13.31a1.28,1.28,0,0,1,0-.19h0l-.08.15-.2.28h.28Z"/><path class="cls-3" d="M22.09,37.83a.41.41,0,0,1,.46.43.4.4,0,0,1-.19.36.49.49,0,0,1-.28.07H21.8v-.86Zm-.16.74h.13c.22,0,.34-.11.34-.31a.29.29,0,0,0-.33-.31h-.14Z"/><path class="cls-3" d="M23.1,37.83v.1H23v.65h.12v.11h-.37v-.11h.11v-.65h-.11v-.1Z"/><path class="cls-3" d="M23.62,37.83a.48.48,0,0,1,.22,0,.25.25,0,0,1,.12.22c0,.19-.11.28-.34.28h-.17v.32h-.13v-.86Zm-.17.43h.15c.16,0,.22,0,.22-.16a.18.18,0,0,0-.06-.13.31.31,0,0,0-.15,0h-.16Z"/><path class="cls-3" d="M44.23,43.5a.68.68,0,0,1-.48.67l-.1-.12a.61.61,0,0,0,.35-.27.85.85,0,0,0,.08-.28h-.24v-.1l-.17.15-.1-.12a1.18,1.18,0,0,0,.43-.57l.14,0a1.43,1.43,0,0,1-.27.46h.78a1.62,1.62,0,0,1-.34-.47l.14,0a1.21,1.21,0,0,0,.47.53l-.09.13a1,1,0,0,1-.15-.11h0v0a4.14,4.14,0,0,1-.05.64c0,.07-.08.1-.21.1h-.2l0-.14h.2c.06,0,.08,0,.09-.06a2.26,2.26,0,0,0,0-.46Z"/><path class="cls-3" d="M45.85,43v.23h-.09v.08h-.24v.07h.28v.11h-.28v.07h.35v.11H45v-.11h.35v-.07h-.28v-.11h.28v-.07h-.23v-.08h-.1V43h.32v-.13h.15V43Zm-.09,1.18h-.14v0h-.33v.06h-.14v-.44h.61Zm-.56-1h.19v-.09H45.2Zm.09.82h.33v-.16h-.33Zm.43-.91h-.2v.09h.2Zm.35-.14v.88h-.14V43Zm.25-.06V44c0,.1,0,.13-.15.13H46L46,44h.16s0,0,0-.05V42.89Z"/><path class="cls-3" d="M46.82,43.89A.33.33,0,0,0,47,44l-.09-.09a.71.71,0,0,0,.29-.13h-.32v-.11h.22v-.11h-.18v-.1h.18v-.09c-.14,0-.17,0-.18-.09v-.21h.26V43h-.29v-.1h.42v.26H47v.07s0,0,.08,0,.09,0,.09-.09l.13,0h0c0,.1,0,.13-.12.15v.09h.22v-.1s-.07,0-.07-.08v-.21h.26V43h-.29v-.1h.42v.26H47.5v.06s0,0,.09,0,.08,0,.09-.08v0l.13,0c0,.14,0,.16-.24.16v.09h.2v.1h-.2v.11h.25v.11h-.31a2,2,0,0,1,.29.14l-.11.1a1.43,1.43,0,0,0-.3-.16l.09-.08H47.2l.1.08A1,1,0,0,1,47,44h0l.23,0h.6a.28.28,0,0,0,0,.13h-.56c-.3,0-.41,0-.5-.16l-.18.19L46.5,44l.18-.14v-.35h-.17v-.14h.31Zm-.09-.7a1,1,0,0,0-.2-.24l.11-.09a1.51,1.51,0,0,1,.21.23Zm.49.36v.11h.22v-.11Z"/><path class="cls-3" d="M48.15,42.85h.15v.25h.14v.13H48.3v.23l.13-.06,0,.13-.15.06V44c0,.1,0,.13-.13.13H48L48,44h.11s0,0,0,0v-.35l-.15,0,0-.14.19,0v-.27H48V43.1h.17Zm.81.63a.87.87,0,0,0,.36.56l-.1.13a1.08,1.08,0,0,1-.41-.69h-.15a1.11,1.11,0,0,1-.22.69l-.1-.12a1,1,0,0,0,.18-.64V42.9h.7v.58Zm-.3-.45v.32h.41V43Z"/><path class="cls-3" d="M36.14,43a1.21,1.21,0,0,0,0-.18l.18,0a.77.77,0,0,1-.07.16h.5v1.14h-.15v-.09h-.72v.09h-.16V43Zm-.21.31h.72v-.18h-.72Zm0,.3h.72v-.18h-.72Zm0,.31h.72v-.19h-.72Z"/><path class="cls-3" d="M38,42.85h.13v.28h.26a5.93,5.93,0,0,1-.06.91c0,.09-.06.12-.17.12H38L38,44a.39.39,0,0,0,.14,0s.07,0,.08-.07a6.18,6.18,0,0,0,0-.64v0h-.13a1.24,1.24,0,0,1-.31.9l-.11-.08.06-.06c-.21,0-.45.07-.66.09l0-.12.24,0h.08v-.09h-.29v-.11h.29v-.08h-.26v-.45h.26v-.07h-.31v-.11h.31V43l-.23,0-.05-.11a3.29,3.29,0,0,0,.59-.07l.07.1a1.33,1.33,0,0,1-.24,0v.08h.31v.07H38Zm-.75.48v.09h.15v-.09Zm0,.17v.1h.15v-.1Zm.27-.08h.16v-.09h-.16Zm0,.18h.16v-.1h-.16Zm.31-.33v-.1h-.3v.07h.26v.45h-.26v.08h.28v.11h-.28V44l.28,0h0a1.61,1.61,0,0,0,.14-.65Z"/><path class="cls-3" d="M39.43,44a4,4,0,0,1-.66.17L38.72,44l.18,0v-.25a1.81,1.81,0,0,1-.28.12l-.08-.12a1.66,1.66,0,0,0,.5-.23h-.49v-.12h.59v-.1H38.7v-.12h.44V43.1h-.51V43h.51v-.13h.15V43h.52v.12h-.52v.09h.45v.12h-.45v.1h.6v.12h-.17l.1.07a.9.9,0,0,1-.25.19l0,0a.8.8,0,0,0,.34.19l-.09.14a1,1,0,0,1-.38-.25Zm-.38,0,.37-.09a1.07,1.07,0,0,1-.21-.36,1.17,1.17,0,0,1-.16.15Zm.3-.45a.86.86,0,0,0,.11.19,1.44,1.44,0,0,0,.22-.19Z"/><path class="cls-3" d="M40,44a1.34,1.34,0,0,0,.24-.41l.14,0a1.32,1.32,0,0,1-.26.46Zm.75.06c0,.11,0,.14-.16.14h-.19l0-.14h.18s0,0,0,0v-.56H40v-.14h1.31v.14h-.57Zm.41-1.11v.14h-1v-.14Zm0,1.13a3.8,3.8,0,0,0-.24-.44l.12-.07a2,2,0,0,1,.26.42Z"/><path class="cls-3" d="M13.48,38.55h-.12v.15h.18v.12h-.18v.37l.19-.06,0,.12a3.45,3.45,0,0,1-.52.16l0-.14.22-.05v-.4H13V38.7h.21v-.15h-.11s0,0-.06.06L13,38.48a1,1,0,0,0,.23-.39h.15a1.51,1.51,0,0,1,.19.26l-.09.09Zm-.39.63a1.8,1.8,0,0,0-.07-.27l.12,0a1.71,1.71,0,0,1,.06.26Zm.38-.75a1.72,1.72,0,0,0-.15-.21,1.06,1.06,0,0,1-.11.21Zm-.1.67a1.14,1.14,0,0,0,.06-.25l.12,0a1.69,1.69,0,0,1-.08.24Zm.49,0a.39.39,0,0,1-.32.37l-.08-.11c.19,0,.25-.11.26-.26h-.11v-.44h.63v.44h-.15v.19s0,0,.06,0,.06,0,.07,0a.49.49,0,0,0,0-.13l.13.05c0,.22,0,.24-.24.24s-.16,0-.16-.11v-.24Zm.45-.85v.11h-.13a.41.41,0,0,1,0,.12h.21v.11h-.82v-.11h.18a.56.56,0,0,0,0-.12h-.11v-.11h.29v-.12H14v.12Zm-.57.58h.37v-.07h-.37Zm0,.18h.37v-.08h-.37Zm.06-.65a.56.56,0,0,1,0,.12H14l0-.12Z"/><path class="cls-3" d="M14.76,39.42h-.14v-.7a1.4,1.4,0,0,1-.1.16l-.06-.15a2,2,0,0,0,.25-.64l.14,0a2.13,2.13,0,0,1-.09.3Zm.69-.27a.34.34,0,0,1,0,.19.11.11,0,0,1-.12.07h-.14l0-.12h.13s0,0,.05,0a.54.54,0,0,0,0-.15v0h0a1.22,1.22,0,0,1-.44.26l-.07-.1a1.4,1.4,0,0,0,.5-.29s0,0,0,0a2,2,0,0,1-.41.21L14.8,39a1.52,1.52,0,0,0,.43-.19s0,0,0,0l-.3.1-.07-.1a2.52,2.52,0,0,0,.39-.12H14.9v-.26l0,0,0,0-.06-.1a1,1,0,0,0,.32-.29l.1.06h.29l.06.06-.13.16h.33v.33h-.32l-.11.06a1.09,1.09,0,0,1,.08.15,2.14,2.14,0,0,0,.26-.19l.1.09a2.16,2.16,0,0,1-.3.18,1,1,0,0,0,.36.22l-.08.13a1.09,1.09,0,0,1-.29-.23Zm-.18-.78h0a.58.58,0,0,0,.08-.1h-.24l-.12.11Zm0,.22v-.12H15v.12Zm.36,0v-.12h-.23v.12Z"/><path class="cls-3" d="M14.35,43.37v.15H13v-.15h.21v-.62h.16v.62h.25v-.88h-.55v-.14H14.3v.14h-.5v.34h.39V43H13.8v.41Z"/><path class="cls-3" d="M14.76,43.6h-.14v-.7a1.4,1.4,0,0,1-.1.16l-.06-.15a2,2,0,0,0,.25-.64l.14,0a2.13,2.13,0,0,1-.09.3Zm.69-.27a.34.34,0,0,1,0,.19.11.11,0,0,1-.12.07h-.14l0-.12h.13s0,0,.05,0a.54.54,0,0,0,0-.15v0h0a1.22,1.22,0,0,1-.44.26l-.07-.1a1.4,1.4,0,0,0,.5-.29s0,0,0,0a2,2,0,0,1-.41.21l-.07-.11a1.52,1.52,0,0,0,.43-.19s0,0,0,0l-.3.1-.07-.1a2.52,2.52,0,0,0,.39-.12H14.9v-.26l0,0,0,0-.06-.1a1,1,0,0,0,.32-.29l.1.06h.29l.06.06-.13.16h.33v.33h-.32l-.11.06a1.09,1.09,0,0,1,.08.15,2.14,2.14,0,0,0,.26-.19l.1.09a2.16,2.16,0,0,1-.3.18,1,1,0,0,0,.36.22l-.08.13a1.09,1.09,0,0,1-.29-.23Zm-.18-.78h0a.58.58,0,0,0,.08-.1h-.24l-.12.11Zm0,.22v-.12H15v.12Zm.36,0v-.12h-.23v.12Z"/><path class="cls-3" d="M27,43.15v-.27h.16a2.18,2.18,0,0,1,0,.27h.51a4.89,4.89,0,0,1-.06.82c0,.1-.09.13-.22.13h-.19l0-.16a.72.72,0,0,0,.19,0c.07,0,.08,0,.09-.07a4.83,4.83,0,0,0,0-.59h-.34a1.28,1.28,0,0,1-.12.45.92.92,0,0,1-.37.36l-.1-.12a1,1,0,0,0,.33-.31,1,1,0,0,0,.1-.38h-.41v-.14Z"/><path class="cls-3" d="M28.24,43.11l.38.27,0,0a3,3,0,0,0,.26-.5l.14.07a2.58,2.58,0,0,1-.27.52c.12.1.26.22.37.33l-.11.12a3.85,3.85,0,0,0-.33-.3l0,0a2.26,2.26,0,0,1-.6.51L28,44a1.91,1.91,0,0,0,.58-.47l-.41-.28Z"/><path class="cls-3" d="M30.63,43.28c-.05.55-.26.76-.82.84L29.74,44a.84.84,0,0,0,.46-.14.52.52,0,0,0,.24-.42H29.5v-.14Zm-.14-.34v.14h-.9v-.14Z"/><path class="cls-3" d="M31.75,43.33a1.18,1.18,0,0,0,.46.24l-.08.12L32,43.63v.54h-.15V44.1h-.64v.07h-.15v-.52l-.13.06-.08-.11a1.47,1.47,0,0,0,.46-.27H30.9v-.12h.26a.54.54,0,0,0-.07-.13l.14,0a.6.6,0,0,1,.08.16h.14V43h-.11l-.33,0L31,42.94a8.5,8.5,0,0,0,1-.09L32,43l-.42,0v.2h.12a1,1,0,0,0,.11-.21l.15,0c0,.06-.07.11-.1.16h.28v.12Zm-.54.33v.11h.25v-.11Zm0,.33h.25v-.12h-.25Zm.24-.44v-.2a.92.92,0,0,1-.23.2Zm.14.11v.11h.26v-.11Zm.26.21h-.26V44h.26Zm0-.32a.87.87,0,0,1-.25-.21v.21Z"/><path class="cls-3" d="M32.78,43.54s0,.07,0,.11h.77a1.23,1.23,0,0,1-.08.41c0,.08-.08.11-.2.11l-.27,0,0-.14.26,0c.07,0,.08,0,.1-.06a.74.74,0,0,0,.05-.19h-.65l0,.1-.16,0a2.21,2.21,0,0,0,.12-.27v0h-.28v-.13h1.33v.13Zm.69-.22h-.95V42.9h.95Zm-.79-.12h.63V43h-.63Z"/><path class="cls-3" d="M33.78,7.83V8h-.57v.29h.68V8.4h-.68v.34s0,0,0,.06l.24,0h.31V9h-.34c-.23,0-.3,0-.35-.05s-.05-.07-.05-.14V8.4h-.37V8.26h.37V8h-.3V7.83Z"/><path class="cls-3" d="M35.37,8.73v.15H34.15V8.73ZM35.23,8v.14h-.94V8Z"/><path class="cls-3" d="M36.77,8a1.19,1.19,0,0,1-.9,1l-.08-.14a1.08,1.08,0,0,0,.54-.29A1.48,1.48,0,0,0,36,8.33l.09-.11a1.61,1.61,0,0,1,.36.24A1.1,1.1,0,0,0,36.59,8h-.48a1.15,1.15,0,0,1-.39.4l-.1-.11a1,1,0,0,0,.47-.58l.15,0-.05.12h.48Z"/><path class="cls-3" d="M38.29,8.29v.15h-1.2V8.29Z"/><path class="cls-3" d="M35.16,10.42v-.34h.15v.48h-.48v.5h.38v-.31h.15v.54h-.15V11.2h-.9v.09h-.15v-.54h.15v.31h.37v-.5H34.2v-.48h.15v.34h.33V10h.15v.46Z"/><path class="cls-3" d="M36.25,10.38a1,1,0,0,1-.55.89l-.11-.13a.84.84,0,0,0,.41-.38,1,1,0,0,0,.09-.36v0h-.46v-.14h.48V10h.16l0,.28h.55v.13a3.54,3.54,0,0,1,0,.74.17.17,0,0,1-.2.15l-.26,0,0-.16.24,0c.07,0,.09,0,.1-.07a5.71,5.71,0,0,0,0-.65Z"/><path class="cls-3" d="M44.69,9.05h-.14V8.48l-.13.12-.07-.14A1.54,1.54,0,0,0,44.71,8l.12.06c0,.08-.08.13-.14.21Zm-.33-1a1,1,0,0,0,.3-.31l.13.07a1.72,1.72,0,0,1-.35.36Zm.66.2,0,0A2,2,0,0,0,44.81,8l.1-.09.09.08.15-.22.13,0a2.43,2.43,0,0,1-.2.25h0l.07.08.25-.27.11.07a2.93,2.93,0,0,1-.35.36h.3l-.09-.13.12-.06a3,3,0,0,1,.19.32l-.13.06,0,0,0,0-.33,0h0l-.06.09h.37l.09.07a1.14,1.14,0,0,1-.24.25,1.78,1.78,0,0,0,.37.13l-.08.13a1.32,1.32,0,0,1-.41-.18,1.41,1.41,0,0,1-.42.19l-.08-.13a1.28,1.28,0,0,0,.39-.13A1.06,1.06,0,0,1,45,8.65l-.13.09-.09-.1A.67.67,0,0,0,45,8.39h-.21l0-.12H45l0,0Zm0,.34a.94.94,0,0,0,.18.14,1.07,1.07,0,0,0,.16-.14Z"/><path class="cls-3" d="M47.17,8.39a.67.67,0,1,1-.67-.67A.68.68,0,0,1,47.17,8.39Zm-1.28,0a.61.61,0,1,0,.61-.61A.62.62,0,0,0,45.89,8.39Zm.81-.48v.61h.18v.13H46.7v.22h-.15V8.65h-.49V8.52l.45-.61Zm-.15.32a1.62,1.62,0,0,1,0-.21h0a1.48,1.48,0,0,1-.09.18l-.23.32h.32Z"/><path class="cls-3" d="M55,7.91l-.09-.15.15,0a.72.72,0,0,1,.11.19h.26a1.38,1.38,0,0,0,.08-.17l0,0,.16,0a1.14,1.14,0,0,1-.09.16H56V8H54.64V7.91Zm.27,1c0,.08,0,.11-.12.11H55l0-.13h.12s0,0,0,0V8.7h-.25v.35h-.14v-.9h.53Zm-.39-.56h.25V8.26h-.25Zm0,.22h.25V8.48h-.25Zm.68-.41v.58h-.15V8.18Zm.29-.06v.79c0,.09,0,.13-.15.13h-.2l0-.15.19,0s0,0,0-.05V8.12Z"/><path class="cls-3" d="M57.44,8.39a.67.67,0,1,1-.67-.67A.68.68,0,0,1,57.44,8.39Zm-1.28,0a.61.61,0,1,0,.61-.61A.62.62,0,0,0,56.16,8.39Zm.55-.09c.14,0,.23-.07.23-.16S56.87,8,56.77,8a.38.38,0,0,0-.25.1L56.43,8a.5.5,0,0,1,.35-.12c.2,0,.33.09.33.24a.24.24,0,0,1-.22.23h0c.16,0,.24.11.24.25s-.13.27-.36.27a.49.49,0,0,1-.37-.14l.09-.11a.43.43,0,0,0,.3.12c.11,0,.18-.05.18-.15s-.1-.18-.26-.18h-.08V8.3Z"/><path class="cls-3" d="M66.17,8.37v.68H66V9h-.59v.1h-.15V8.53a1.23,1.23,0,0,1-.22.23L65,8.64a1.42,1.42,0,0,0,.42-.55H65V8h.41c0-.09,0-.15.06-.23h.15c0,.09,0,.15-.05.22h.72v.14h-.76a1.84,1.84,0,0,1-.15.28Zm-.75.45H66V8.5h-.59Z"/><path class="cls-3" d="M67.77,8.39a.67.67,0,0,1-1.34,0,.67.67,0,1,1,1.34,0Zm-1.28,0a.61.61,0,1,0,.61-.61A.62.62,0,0,0,66.49,8.39Zm.26.34a.76.76,0,0,1,.3-.33l0,0c.14-.09.19-.15.19-.22A.15.15,0,0,0,67.1,8a.33.33,0,0,0-.25.12L66.74,8a.5.5,0,0,1,.36-.15c.2,0,.34.11.34.27a.25.25,0,0,1-.08.17.72.72,0,0,1-.17.14l0,0h0c-.15.09-.2.14-.23.21h.53v.15h-.69Z"/><path class="cls-3" d="M75.79,8c0-.07,0-.14,0-.22l.15,0c0,.07,0,.11,0,.2h.7v.14h-.73a1.56,1.56,0,0,1-.11.26h.72v.13h-.36v.38h.48V9h-1.1V8.86H76V8.48h-.29a1.57,1.57,0,0,1-.31.35l-.11-.12a1.08,1.08,0,0,0,.44-.62h-.38V8Z"/><path class="cls-3" d="M78.13,8.39a.67.67,0,0,1-1.34,0,.67.67,0,0,1,1.34,0Zm-1.28,0a.61.61,0,1,0,.61-.61A.62.62,0,0,0,76.85,8.39Zm.56-.34-.24.06,0-.12a1.37,1.37,0,0,0,.31-.11h.12v1h-.16Z"/><path class="cls-3" d="M76.4,44.17h-.14V43.6l-.13.12-.07-.14a1.54,1.54,0,0,0,.36-.42l.12.07-.14.2Zm-.33-1a1,1,0,0,0,.3-.31l.13.07a1.72,1.72,0,0,1-.35.36Zm.66.21,0,0a1.45,1.45,0,0,0-.26-.24l.1-.1.09.08.15-.22.13,0a2.43,2.43,0,0,1-.2.25h0l.07.08.25-.27.11.07a2.93,2.93,0,0,1-.35.36h.3l-.09-.13.12-.05a1.5,1.5,0,0,1,.19.31l-.13.06,0-.05,0,0-.33,0h0l-.06.09h.38l.08.07a1.1,1.1,0,0,1-.23.25,1.51,1.51,0,0,0,.36.13l-.08.13a1.38,1.38,0,0,1-.4-.17,1.52,1.52,0,0,1-.43.18l-.08-.13a1.28,1.28,0,0,0,.39-.13l-.15-.15a.6.6,0,0,1-.13.09l-.09-.09a.77.77,0,0,0,.28-.26h-.21l0-.12h.21l0,0Zm0,.33.18.14a1.07,1.07,0,0,0,.16-.14Z"/><path class="cls-3" d="M78.88,43.51a.67.67,0,1,1-.67-.67A.68.68,0,0,1,78.88,43.51Zm-1.28,0a.61.61,0,1,0,.61-.61A.62.62,0,0,0,77.6,43.51Zm.81-.48v.61h.19v.13h-.19V44h-.15v-.22h-.49v-.12l.45-.62Zm-.15.32c0-.05,0-.14,0-.21h0l-.1.18-.23.32h.32Z"/><path class="cls-3" d="M68.58,43l-.09-.15.15,0,.11.19H69a1.38,1.38,0,0,0,.08-.17v0l.17,0a.62.62,0,0,1-.1.16h.37v.13H68.21V43Zm.27,1c0,.08,0,.11-.12.11h-.15l0-.13h.12s0,0,0,0v-.18h-.25v.35h-.15v-.9h.54Zm-.39-.56h.25v-.11h-.25Zm0,.22h.25V43.6h-.25Zm.67-.41v.58H69V43.3Zm.3-.06V44c0,.1,0,.13-.15.13h-.2l0-.15a.68.68,0,0,0,.19,0s0,0,0,0v-.74Z"/><path class="cls-3" d="M71,43.51a.67.67,0,0,1-1.34,0,.67.67,0,0,1,.67-.67A.68.68,0,0,1,71,43.51Zm-1.28,0a.61.61,0,1,0,.61-.61A.62.62,0,0,0,69.73,43.51Zm.55-.09c.14,0,.23-.06.23-.16s-.07-.13-.17-.13a.36.36,0,0,0-.25.1l-.09-.1a.55.55,0,0,1,.35-.12c.2,0,.33.09.33.24a.24.24,0,0,1-.22.23h0c.16,0,.24.11.24.25s-.13.27-.36.27a.48.48,0,0,1-.37-.14l.09-.11a.43.43,0,0,0,.29.12c.12,0,.19,0,.19-.15s-.1-.17-.26-.17H70.2v-.13Z"/><path class="cls-3" d="M61.56,43.49v.68h-.15v-.1h-.59v.1h-.16v-.51a1.12,1.12,0,0,1-.21.22l-.1-.12a1.33,1.33,0,0,0,.41-.55H60.4v-.14h.41a1.06,1.06,0,0,0,0-.23l.16,0c0,.08,0,.14-.05.21h.72v.14h-.77a1.22,1.22,0,0,1-.14.28Zm-.74.45h.59v-.32h-.59Z"/><path class="cls-3" d="M63.17,43.51a.68.68,0,1,1-.67-.67A.68.68,0,0,1,63.17,43.51Zm-1.28,0a.62.62,0,0,0,.61.61.61.61,0,0,0,0-1.22A.62.62,0,0,0,61.89,43.51Zm.26.35a.68.68,0,0,1,.3-.34l0,0c.14-.09.19-.14.19-.22s-.07-.14-.18-.14a.37.37,0,0,0-.25.12l-.1-.1a.47.47,0,0,1,.35-.15c.2,0,.34.11.34.27a.26.26,0,0,1-.07.18l-.17.13,0,0h0c-.15.1-.2.14-.24.21h.54V44h-.69Z"/><path class="cls-3" d="M53.62,43.07c0-.07,0-.14.05-.22l.15,0c0,.07,0,.11,0,.2h.7v.14h-.73a1.56,1.56,0,0,1-.11.26h.73v.13H54V44h.48v.14h-1.1V44h.47V43.6h-.29a1.19,1.19,0,0,1-.31.35l-.1-.12a1.18,1.18,0,0,0,.44-.62H53.2v-.14Z"/><path class="cls-3" d="M56,43.51a.67.67,0,0,1-1.34,0,.67.67,0,0,1,.67-.67A.68.68,0,0,1,56,43.51Zm-1.28,0a.61.61,0,1,0,.61-.61A.62.62,0,0,0,54.68,43.51Zm.56-.34-.23.06,0-.12a1.46,1.46,0,0,0,.3-.11h.12v1h-.16Z"/><path class="cls-3" d="M33.13,37.62h.2v.13h-.21c0,.06,0,.12,0,.16a2.09,2.09,0,0,1,.2.22l-.09.13a1.72,1.72,0,0,0-.15-.2.79.79,0,0,1-.24.35l-.11-.12a.71.71,0,0,0,.27-.54h-.25v-.13H33v-.26h-.05a.93.93,0,0,1-.1.2l-.11-.08a1.14,1.14,0,0,0,.15-.41l.14,0a.64.64,0,0,1,0,.07.25.25,0,0,1,0,.07h.3v.13h-.15Zm.57.61a2.27,2.27,0,0,0,.11-.34l.15,0a2.52,2.52,0,0,1-.12.29h.23v.13h-.81v-.13ZM34,37.15v.13H33.3v-.13Zm-.06.73h-.61v-.45H34Zm-.49.34a2.18,2.18,0,0,0-.11-.27l.13-.05a2.17,2.17,0,0,1,.12.26Zm0-.46h.33v-.21H33.5Z"/><path class="cls-3" d="M34.38,37.07h.14v.25h.13v.14h-.13v.21l.12,0v.13l-.13.05v.46c0,.09,0,.13-.13.13l-.13,0,0-.14h.12s0,0,0,0v-.34l-.15,0,0-.14.17,0h0v-.26h-.17v-.14h.17Zm1.1.92h-.33v.41H35V38h-.32v-.84h.79Zm-.66-.49H35v-.22h-.2Zm0,.37H35v-.25h-.2Zm.52-.59h-.2v.22h.2Zm0,.34h-.2v.25h.2Z"/><path class="cls-3" d="M36.44,37.32v.21h-.21v-.21Zm0,.62v.21h-.21v-.21Z"/><path class="cls-3" d="M34,39.87a2.48,2.48,0,0,1-.29.17,1,1,0,0,0,.37.16l-.09.13a.87.87,0,0,1-.65-.56h-.2v.4l.38-.08v.13a5.71,5.71,0,0,1-.64.14l-.05-.14.15,0v-.43h-.24v-.11H33v-.59h.94v.12h-.79v.08h.73v.11h-.73v.08h.73v.11h-.73v.09h.94v.11h-.19Zm-.52-.1a.41.41,0,0,0,.13.19,1.74,1.74,0,0,0,.26-.19Z"/><path class="cls-3" d="M34.38,39h.14v.25h.13v.13h-.13v.22l.12,0v.12l-.13.06v.46c0,.09,0,.12-.13.12h-.13l0-.15h.12s0,0,0,0v-.35l-.15,0,0-.14.17,0h0v-.27h-.17v-.13h.17Zm1.1.91h-.33v.41H35v-.41h-.32V39.1h.79Zm-.66-.49H35v-.22h-.2Zm0,.37H35v-.24h-.2Zm.52-.59h-.2v.22h.2Zm0,.35h-.2v.24h.2Z"/><path class="cls-3" d="M36.44,39.28v.21h-.21v-.21Zm0,.61v.21h-.21v-.21Z"/><path class="cls-3" d="M31.13,20.71a1.19,1.19,0,1,1-2.38,0,1.19,1.19,0,1,1,2.38,0Z"/><rect class="cls-3" x="44.19" y="9.9" width="34.15" height="1.95"/><rect class="cls-3" x="53.1" y="40.04" width="26.27" height="1.95"/><path class="cls-4" d="M58,10.59v-.27h.16a2.26,2.26,0,0,1,0,.27h.5a4.41,4.41,0,0,1,0,.82c0,.09-.09.12-.22.12H58.2l0-.15.19,0c.07,0,.08,0,.09-.07a4.83,4.83,0,0,0,0-.59h-.34a1.28,1.28,0,0,1-.12.45,1,1,0,0,1-.37.35l-.1-.12a.9.9,0,0,0,.33-.31,1,1,0,0,0,.1-.37h-.41v-.14Z"/><path class="cls-4" d="M59.26,10.55c.11.07.22.14.38.26l0,0a2.38,2.38,0,0,0,.26-.5l.14.07a2.65,2.65,0,0,1-.27.53,2.83,2.83,0,0,1,.37.33l-.11.12a3.64,3.64,0,0,0-.33-.31l0,0a2.26,2.26,0,0,1-.6.51l-.1-.13a2,2,0,0,0,.58-.48l-.41-.28Z"/><path class="cls-4" d="M61.65,10.71a.8.8,0,0,1-.82.85l-.07-.14a1,1,0,0,0,.46-.14.56.56,0,0,0,.24-.43h-.94v-.14Zm-.14-.33v.14h-.9v-.14Z"/><path class="cls-4" d="M62.65,10.46a1,1,0,0,0,.56,1l-.1.14a1.17,1.17,0,0,1-.54-.7h0a1.05,1.05,0,0,1-.56.7l-.11-.13a1,1,0,0,0,.6-1h-.34v-.15h.5Z"/><path class="cls-4" d="M64.05,10.71a1,1,0,0,1-.56.88l-.11-.13a.8.8,0,0,0,.41-.38.86.86,0,0,0,.09-.36h-.46v-.14h.48v-.29h.16v.29h.54v.12a3.73,3.73,0,0,1,0,.75c0,.1-.08.14-.2.14l-.26,0,0-.16.24,0c.07,0,.09,0,.1-.08a3.77,3.77,0,0,0,0-.64Z"/><path class="cls-4" d="M64.7,40.67v.57h-.47v.11h.6v.12h-.6v.27h-.15v-.27H63.5v-.12h.58v-.11h-.46v-.57h.13v0l-.11-.19.14-.05a2.39,2.39,0,0,1,.13.21l-.13.05h.32a.51.51,0,0,0-.1-.21l.14-.05a1.06,1.06,0,0,1,.11.21l-.13.06h.25a1.16,1.16,0,0,0,.15-.26l.15.05c0,.07-.09.14-.14.21Zm-.93.11v.12h.32v-.12Zm0,.23v.12h.32V41Zm.46-.23v.12h.33v-.12Zm0,.23v.12h.33V41Z"/><path class="cls-4" d="M65,41.58l.13,0s.06,0,.07-.05a.94.94,0,0,0,0-.28c0-.06,0-.09,0-.15a1.25,1.25,0,0,1-.21.33L65,41.33a1.62,1.62,0,0,0,.26-.41.31.31,0,0,0,0-.08A.85.85,0,0,1,65,41L65,40.88a1.09,1.09,0,0,0,.19-.18.45.45,0,0,0-.14-.19l.1-.07a.47.47,0,0,1,.14.14l.09-.16.13.08-.16.22a1.57,1.57,0,0,1,.09.56,1.13,1.13,0,0,1,0,.37.15.15,0,0,1-.15.09l-.14,0Zm.76-1.17h.14v.26h.31v.55h-.31v.3l.17,0a.76.76,0,0,0-.09-.18l.13-.05a2.4,2.4,0,0,1,.18.42l-.14.06,0-.13h0a5.06,5.06,0,0,1-.67.1l0-.14.36,0h0v-.31h-.31v-.55h.31Zm-.18.68h.18v-.3H65.6Zm.5-.3h-.18v.3h.18Z"/><path class="cls-4" d="M67.3,41.58a4.86,4.86,0,0,1-.66.17l0-.14.18,0v-.25l-.28.12-.08-.12a1.46,1.46,0,0,0,.5-.23h-.48V41H67v-.1h-.44v-.12H67v-.09H66.5v-.12H67v-.14h.15v.14h.53v.12h-.53v.09h.46v.12h-.46V41h.6v.12H67.6l.1.07a1.17,1.17,0,0,1-.26.19l0,0a1.06,1.06,0,0,0,.35.19l-.09.14a1.25,1.25,0,0,1-.39-.25Zm-.38,0a2.54,2.54,0,0,0,.37-.1.81.81,0,0,1-.2-.35.61.61,0,0,1-.17.14Zm.31-.45a.52.52,0,0,0,.11.19,2,2,0,0,0,.21-.19Z"/><path class="cls-4" d="M67.89,41.54a1.17,1.17,0,0,0,.24-.41l.14,0a1.18,1.18,0,0,1-.26.46Zm.75.06c0,.11,0,.14-.15.14h-.2l0-.15.19,0s0,0,0,0V41H67.9v-.14h1.32V41h-.58Zm.41-1.11v.13h-1v-.13Zm0,1.13a2.71,2.71,0,0,0-.24-.44l.13-.07a1.94,1.94,0,0,1,.25.42Z"/><path class="cls-3" d="M38,37.16v.73h.21V38H38v.26h-.17V38h-.57V37.9l.53-.74Zm-.17.41c0-.06,0-.17,0-.25h0a1.49,1.49,0,0,1-.12.2l-.26.37h.37Z"/><path class="cls-3" d="M39.18,37.73a.71.71,0,0,1-.48.67l-.1-.13A.56.56,0,0,0,39,38a.77.77,0,0,0,.07-.28h-.24v-.1a1.14,1.14,0,0,1-.16.15l-.1-.12a1.09,1.09,0,0,0,.42-.58l.15.05a1.33,1.33,0,0,1-.27.46h.78a1.41,1.41,0,0,1-.34-.46l.14-.06a1.11,1.11,0,0,0,.47.53l-.09.14a1,1,0,0,1-.15-.12h0v0a3,3,0,0,1-.06.65c0,.07-.07.09-.2.09h-.21l0-.15.2,0c.06,0,.08,0,.09-.06a3.72,3.72,0,0,0,0-.46Z"/><path class="cls-3" d="M40.82,37.2v.24h-.09v.07h-.24v.08h.28v.1h-.28v.08h.35v.11H40v-.11h.34v-.08h-.27v-.1h.27v-.08h-.23v-.07H40V37.2h.32v-.13h.14v.13Zm-.09,1.19h-.14v0h-.33v.06h-.14V38h.61Zm-.57-1h.19v-.1h-.19Zm.1.82h.33v-.16h-.33Zm.42-.92h-.19v.1h.19Zm.36-.13v.87H40.9v-.87Zm.25-.06v1.13c0,.1,0,.13-.16.13H41l0-.15h.16s0,0,0,0V37.12Z"/><path class="cls-3" d="M42.76,38.4h-.15v-.08H41.7v.08h-.15V37.13h1.21Zm-1.06-.21h.91v-.94H41.7Zm.79-.48v.39h-.67v-.39h.26v-.15h-.33v-.12h.33v-.16h.15v.16h.33v.12h-.33v.15Zm-.53.1V38h.39v-.17Z"/><path class="cls-3" d="M43.72,38.2a.94.94,0,0,0,.25,0h.35a.39.39,0,0,0,0,.14H44c-.37,0-.56-.07-.7-.27a.87.87,0,0,1-.2.32l-.1-.13a1.07,1.07,0,0,0,.24-.54l.15,0a.8.8,0,0,1,0,.18.51.51,0,0,0,.24.22v-.53h-.37v-.09H43v-.32h.52v-.15h.15v.15h.54v.32H44.1v.09h-.38v.21h.46V38h-.46Zm-.53-.7h.91v-.15h-.91Z"/><path class="cls-3" d="M37.56,39.21a1.21,1.21,0,0,0,0-.18l.18,0a.77.77,0,0,1-.07.16h.51v1.14h-.16v-.09h-.72v.09H37.2V39.21Zm-.21.31h.72v-.18h-.72Zm0,.3h.72v-.18h-.72Zm0,.31h.72v-.19h-.72Z"/><path class="cls-3" d="M39.94,39h.14v.29h.26a5.35,5.35,0,0,1,0,.91.15.15,0,0,1-.17.11H40l0-.15a.32.32,0,0,0,.13,0s.07,0,.08-.07a4.21,4.21,0,0,0,0-.64v0h-.13a1.24,1.24,0,0,1-.3.9l-.11-.08.05-.06a5.07,5.07,0,0,1-.65.09l0-.12.23,0h.09v-.09H39V40h.3v-.08h-.26v-.45h.26v-.07H39v-.11h.32v-.06l-.24,0-.05-.11a3.29,3.29,0,0,0,.59-.07l.08.1-.25,0v.08h.31v.08h.15Zm-.75.48v.09h.15v-.09Zm0,.17v.1h.15v-.1Zm.28-.08h.15v-.09h-.15Zm0,.18h.15v-.1h-.15Zm.31-.33v-.1h-.31v.07h.27v.45h-.27V40h.28v.11h-.28v.08l.28,0h0a1.6,1.6,0,0,0,.15-.65Z"/><path class="cls-3" d="M41.29,39.86s0,0,.08,0,.08,0,.09,0a1.54,1.54,0,0,0,0-.17l.14,0a.42.42,0,0,1,0,.25s-.09,0-.2,0-.21,0-.21-.12v-.39l-.16,0v-.13l.17,0V39h.14v.34l.31,0v.14l-.32,0Zm.63-.6c0,.61-.12.85-.42,1.08l-.12-.11c.28-.18.37-.4.39-1h-.26v-.14h.77a8.55,8.55,0,0,1-.05,1.05c0,.12-.06.16-.18.16h-.22l0-.15.21,0c.05,0,.06,0,.08-.1a6.69,6.69,0,0,0,0-.75v-.08Z"/><path class="cls-3" d="M43.61,39.63a.34.34,0,0,0,.23-.18h-.18v-.11h.2v-.09h-.18v-.12h.18V39H44v.1h.25v.12H44v.09h.29v.11h-.23a.65.65,0,0,0,.26.19l-.08.11A.69.69,0,0,1,44,39.5a.4.4,0,0,1-.24.22h.44v.63H44v-.07h-.73v.07h-.16v-.6l-.07,0L43,39.67a.4.4,0,0,0,.28-.22H43v-.11h.28v-.09H43v-.12h.24V39h.14v.1h.19v.12h-.19v.09h.2v.11h-.23a1.41,1.41,0,0,1,.24.13l-.1.1a1,1,0,0,0-.19-.13.45.45,0,0,1-.15.16h.5Zm-.33.31H44v-.11h-.73Zm0,.22H44V40h-.73Z"/><rect class="cls-5" x="19.59" y="39.32" width="0.8" height="2.82"/><rect class="cls-5" x="20.66" y="39.32" width="0.8" height="2.82"/><rect class="cls-5" x="21.72" y="39.32" width="0.8" height="2.82"/><rect class="cls-5" x="22.79" y="39.32" width="0.8" height="2.82"/><rect class="cls-6" x="19.22" y="39.59" width="4.73" height="0.96"/><path class="cls-3" d="M24,40.92v1H19.22v-1H24m.14-.14h-5V42h5V40.78Z"/><path class="cls-3" d="M20.11,40v.24h-.24V40h.24m.15-.15h-.53v.53h.53V39.8Z"/><path class="cls-3" d="M21.18,40v.24h-.24V40h.24m.15-.15h-.54v.53h.54V39.8Z"/><path class="cls-3" d="M22.25,40v.24H22V40h.24m.14-.15h-.53v.53h.53V39.8Z"/><path class="cls-3" d="M23.31,40v.24h-.24V40h.24m.15-.15h-.53v.53h.53V39.8Z"/><path class="cls-3" d="M20.11,41.28v.24h-.24v-.24h.24m.15-.14h-.53v.53h.53v-.53Z"/><path class="cls-3" d="M21.18,41.28v.24h-.24v-.24h.24m.15-.14h-.54v.53h.54v-.53Z"/><path class="cls-3" d="M22.25,41.28v.24H22v-.24h.24m.14-.14h-.53v.53h.53v-.53Z"/><path class="cls-3" d="M23.31,41.28v.24h-.24v-.24h.24m.15-.14h-.53v.53h.53v-.53Z"/><rect class="cls-7" x="18.36" y="37.16" width="6.45" height="6.98"/><polyline class="cls-8" points="16.24 38.7 17.47 38.7 17.47 40.07 19.2 40.07"/><polyline class="cls-8" points="16.24 42.95 17.47 42.95 17.47 41.4 19.2 41.4"/><line class="cls-5" x1="38.65" y1="40.93" x2="38.65" y2="42.32"/><line class="cls-5" x1="23.84" y1="43.48" x2="26.16" y2="43.48"/></g></g></svg>