<svg xmlns="http://www.w3.org/2000/svg" viewBox="0 0 108.3 10.9"><defs><style>.cls-1{fill:none;stroke:#58595b;stroke-linecap:round;stroke-linejoin:round;stroke-width:0.3px;}</style></defs><g id="Layer_2" data-name="Layer 2"><g id="イラスト"><line class="cls-1" x1="9.41" y1="2.45" x2="20.68" y2="2.45"/><line class="cls-1" x1="9.41" y1="8.4" x2="20.68" y2="8.4"/><line class="cls-1" x1="30.61" y1="3.12" x2="20.68" y2="2.45"/><line class="cls-1" x1="30.61" y1="7.72" x2="20.68" y2="8.4"/><line class="cls-1" x1="30.61" y1="3.12" x2="30.61" y2="7.72"/><line class="cls-1" x1="9.41" y1="2.45" x2="9.41" y2="8.4"/><line class="cls-1" x1="9.41" y1="4.25" x2="0.82" y2="4.25"/><line class="cls-1" x1="0.82" y1="4.25" x2="0.15" y2="4.92"/><line class="cls-1" x1="9.41" y1="6.6" x2="0.82" y2="6.6"/><line class="cls-1" x1="0.15" y1="4.92" x2="0.15" y2="5.93"/><line class="cls-1" x1="0.82" y1="6.6" x2="0.15" y2="5.93"/><line class="cls-1" x1="3.46" y1="4.25" x2="3.46" y2="6.6"/><line class="cls-1" x1="3.8" y1="4.25" x2="3.8" y2="6.6"/><line class="cls-1" x1="5.76" y1="6.6" x2="5.76" y2="4.25"/><line class="cls-1" x1="6.1" y1="4.25" x2="6.1" y2="6.6"/><line class="cls-1" x1="59.12" y1="4.08" x2="58.44" y2="6.77"/><line class="cls-1" x1="58.44" y1="6.77" x2="58.5" y2="6.77"/><line class="cls-1" x1="59.79" y1="4.08" x2="59.12" y2="6.77"/><line class="cls-1" x1="59.12" y1="6.77" x2="59.17" y2="6.77"/><line class="cls-1" x1="59" y1="4.58" x2="30.61" y2="4.58"/><line class="cls-1" x1="30.61" y1="6.27" x2="58.61" y2="6.27"/><line class="cls-1" x1="89.92" y1="2.79" x2="89.92" y2="8.06"/><line class="cls-1" x1="89.92" y1="4.58" x2="59.68" y2="4.58"/><line class="cls-1" x1="59.23" y1="6.27" x2="89.92" y2="6.27"/><line class="cls-1" x1="108.15" y1="5.42" x2="108.15" y2="5.26"/><line class="cls-1" x1="108.15" y1="5.26" x2="108.15" y2="5.09"/><line class="cls-1" x1="108.15" y1="5.09" x2="108.15" y2="4.86"/><line class="cls-1" x1="108.15" y1="4.86" x2="108.09" y2="4.69"/><line class="cls-1" x1="108.09" y1="4.69" x2="108.09" y2="4.53"/><line class="cls-1" x1="108.09" y1="4.53" x2="108.04" y2="4.3"/><line class="cls-1" x1="108.04" y1="4.3" x2="107.98" y2="4.13"/><line class="cls-1" x1="107.98" y1="4.13" x2="107.98" y2="3.97"/><line class="cls-1" x1="107.98" y1="3.97" x2="107.93" y2="3.8"/><line class="cls-1" x1="107.93" y1="3.8" x2="107.87" y2="3.63"/><line class="cls-1" x1="107.87" y1="3.63" x2="107.76" y2="3.46"/><line class="cls-1" x1="107.76" y1="3.46" x2="107.7" y2="3.29"/><line class="cls-1" x1="107.7" y1="3.29" x2="107.65" y2="3.12"/><line class="cls-1" x1="107.65" y1="3.12" x2="107.53" y2="2.96"/><line class="cls-1" x1="107.53" y1="2.96" x2="107.48" y2="2.79"/><line class="cls-1" x1="107.48" y1="2.79" x2="107.36" y2="2.62"/><line class="cls-1" x1="107.36" y1="2.62" x2="107.25" y2="2.45"/><line class="cls-1" x1="107.25" y1="2.45" x2="107.14" y2="2.34"/><line class="cls-1" x1="107.14" y1="2.34" x2="107.03" y2="2.17"/><line class="cls-1" x1="107.03" y1="2.17" x2="106.92" y2="2"/><line class="cls-1" x1="106.92" y1="2" x2="106.8" y2="1.89"/><line class="cls-1" x1="106.8" y1="1.89" x2="106.69" y2="1.72"/><line class="cls-1" x1="106.69" y1="1.72" x2="106.52" y2="1.61"/><line class="cls-1" x1="106.52" y1="1.61" x2="106.41" y2="1.5"/><line class="cls-1" x1="106.41" y1="1.5" x2="106.3" y2="1.38"/><line class="cls-1" x1="106.3" y1="1.38" x2="106.13" y2="1.27"/><line class="cls-1" x1="106.13" y1="1.27" x2="105.96" y2="1.16"/><line class="cls-1" x1="105.96" y1="1.16" x2="105.85" y2="1.05"/><line class="cls-1" x1="105.85" y1="1.05" x2="105.68" y2="0.94"/><line class="cls-1" x1="105.68" y1="0.94" x2="105.51" y2="0.82"/><line class="cls-1" x1="105.51" y1="0.82" x2="105.34" y2="0.77"/><line class="cls-1" x1="105.34" y1="0.77" x2="105.18" y2="0.65"/><line class="cls-1" x1="105.18" y1="0.65" x2="105.01" y2="0.6"/><line class="cls-1" x1="105.01" y1="0.6" x2="104.84" y2="0.54"/><line class="cls-1" x1="104.84" y1="0.54" x2="104.67" y2="0.43"/><line class="cls-1" x1="104.67" y1="0.43" x2="104.5" y2="0.37"/><line class="cls-1" x1="104.5" y1="0.37" x2="104.33" y2="0.32"/><line class="cls-1" x1="104.33" y1="0.32" x2="104.17" y2="0.26"/><line class="cls-1" x1="104.17" y1="0.26" x2="103.94" y2="0.26"/><line class="cls-1" x1="103.94" y1="0.26" x2="103.77" y2="0.21"/><line class="cls-1" x1="103.77" y1="0.21" x2="103.61" y2="0.21"/><line class="cls-1" x1="103.61" y1="0.21" x2="103.44" y2="0.15"/><line class="cls-1" x1="103.44" y1="0.15" x2="103.21" y2="0.15"/><line class="cls-1" x1="103.21" y1="0.15" x2="103.04" y2="0.15"/><line class="cls-1" x1="103.04" y1="0.15" x2="102.88" y2="0.15"/><line class="cls-1" x1="102.88" y1="0.15" x2="102.71" y2="0.15"/><line class="cls-1" x1="102.71" y1="0.15" x2="102.48" y2="0.15"/><line class="cls-1" x1="102.48" y1="0.15" x2="102.32" y2="0.15"/><line class="cls-1" x1="102.32" y1="0.15" x2="102.15" y2="0.21"/><line class="cls-1" x1="102.15" y1="0.21" x2="101.92" y2="0.21"/><line class="cls-1" x1="101.92" y1="0.21" x2="101.75" y2="0.26"/><line class="cls-1" x1="101.75" y1="0.26" x2="101.59" y2="0.26"/><line class="cls-1" x1="101.59" y1="0.26" x2="101.42" y2="0.32"/><line class="cls-1" x1="101.42" y1="0.32" x2="101.25" y2="0.37"/><line class="cls-1" x1="101.25" y1="0.37" x2="101.02" y2="0.43"/><line class="cls-1" x1="101.02" y1="0.43" x2="100.86" y2="0.54"/><line class="cls-1" x1="100.86" y1="0.54" x2="100.69" y2="0.6"/><line class="cls-1" x1="100.69" y1="0.6" x2="100.52" y2="0.65"/><line class="cls-1" x1="100.52" y1="0.65" x2="100.35" y2="0.77"/><line class="cls-1" x1="100.35" y1="0.77" x2="100.24" y2="0.82"/><line class="cls-1" x1="100.24" y1="0.82" x2="100.07" y2="0.94"/><line class="cls-1" x1="100.07" y1="0.94" x2="99.9" y2="1.05"/><line class="cls-1" x1="99.9" y1="1.05" x2="99.73" y2="1.16"/><line class="cls-1" x1="99.73" y1="1.16" x2="99.62" y2="1.27"/><line class="cls-1" x1="99.62" y1="1.27" x2="99.45" y2="1.38"/><line class="cls-1" x1="99.45" y1="1.38" x2="99.34" y2="1.5"/><line class="cls-1" x1="99.34" y1="1.5" x2="99.17" y2="1.61"/><line class="cls-1" x1="99.17" y1="1.61" x2="99.06" y2="1.72"/><line class="cls-1" x1="99.06" y1="1.72" x2="98.95" y2="1.89"/><line class="cls-1" x1="98.95" y1="1.89" x2="98.78" y2="2"/><line class="cls-1" x1="98.78" y1="2" x2="98.67" y2="2.17"/><line class="cls-1" x1="98.67" y1="2.17" x2="98.56" y2="2.34"/><line class="cls-1" x1="98.56" y1="2.34" x2="98.44" y2="2.45"/><line class="cls-1" x1="98.44" y1="2.45" x2="98.39" y2="2.62"/><line class="cls-1" x1="98.39" y1="2.62" x2="98.28" y2="2.79"/><line class="cls-1" x1="98.28" y1="2.79" x2="98.16" y2="2.96"/><line class="cls-1" x1="98.16" y1="2.96" x2="98.11" y2="3.12"/><line class="cls-1" x1="98.11" y1="3.12" x2="98" y2="3.29"/><line class="cls-1" x1="98" y1="3.29" x2="97.94" y2="3.46"/><line class="cls-1" x1="97.94" y1="3.46" x2="97.88" y2="3.63"/><line class="cls-1" x1="97.88" y1="3.63" x2="97.83" y2="3.8"/><line class="cls-1" x1="97.83" y1="3.8" x2="97.77" y2="3.97"/><line class="cls-1" x1="97.77" y1="3.97" x2="97.71" y2="4.13"/><line class="cls-1" x1="97.71" y1="4.13" x2="97.66" y2="4.3"/><line class="cls-1" x1="97.66" y1="4.3" x2="97.66" y2="4.53"/><line class="cls-1" x1="97.66" y1="4.53" x2="97.6" y2="4.69"/><line class="cls-1" x1="97.6" y1="4.69" x2="97.6" y2="4.86"/><line class="cls-1" x1="97.6" y1="4.86" x2="97.6" y2="5.09"/><line class="cls-1" x1="97.6" y1="5.09" x2="97.55" y2="5.26"/><line class="cls-1" x1="97.55" y1="5.26" x2="97.55" y2="5.42"/><line class="cls-1" x1="97.55" y1="5.42" x2="97.55" y2="5.59"/><line class="cls-1" x1="97.55" y1="5.59" x2="97.6" y2="5.82"/><line class="cls-1" x1="97.6" y1="5.82" x2="97.6" y2="5.98"/><line class="cls-1" x1="97.6" y1="5.98" x2="97.6" y2="6.15"/><line class="cls-1" x1="97.6" y1="6.15" x2="97.66" y2="6.38"/><line class="cls-1" x1="97.66" y1="6.38" x2="97.66" y2="6.55"/><line class="cls-1" x1="97.66" y1="6.55" x2="97.71" y2="6.71"/><line class="cls-1" x1="97.71" y1="6.71" x2="97.77" y2="6.88"/><line class="cls-1" x1="97.77" y1="6.88" x2="97.83" y2="7.05"/><line class="cls-1" x1="97.83" y1="7.05" x2="97.88" y2="7.22"/><line class="cls-1" x1="97.88" y1="7.22" x2="97.94" y2="7.44"/><line class="cls-1" x1="97.94" y1="7.44" x2="98" y2="7.61"/><line class="cls-1" x1="98" y1="7.61" x2="98.11" y2="7.78"/><line class="cls-1" x1="98.11" y1="7.78" x2="98.16" y2="7.89"/><line class="cls-1" x1="98.16" y1="7.89" x2="98.28" y2="8.06"/><line class="cls-1" x1="98.28" y1="8.06" x2="98.39" y2="8.23"/><line class="cls-1" x1="98.39" y1="8.23" x2="98.44" y2="8.4"/><line class="cls-1" x1="98.44" y1="8.4" x2="98.56" y2="8.57"/><line class="cls-1" x1="98.56" y1="8.57" x2="98.67" y2="8.68"/><line class="cls-1" x1="98.67" y1="8.68" x2="98.78" y2="8.85"/><line class="cls-1" x1="98.78" y1="8.85" x2="98.95" y2="8.96"/><line class="cls-1" x1="98.95" y1="8.96" x2="99.06" y2="9.13"/><line class="cls-1" x1="99.06" y1="9.13" x2="99.17" y2="9.24"/><line class="cls-1" x1="99.17" y1="9.24" x2="99.34" y2="9.35"/><line class="cls-1" x1="99.34" y1="9.35" x2="99.45" y2="9.52"/><line class="cls-1" x1="99.45" y1="9.52" x2="99.62" y2="9.63"/><line class="cls-1" x1="99.62" y1="9.63" x2="99.73" y2="9.74"/><line class="cls-1" x1="99.73" y1="9.74" x2="99.9" y2="9.8"/><line class="cls-1" x1="99.9" y1="9.8" x2="100.07" y2="9.91"/><line class="cls-1" x1="100.07" y1="9.91" x2="100.24" y2="10.02"/><line class="cls-1" x1="100.24" y1="10.02" x2="100.35" y2="10.14"/><line class="cls-1" x1="100.35" y1="10.14" x2="100.52" y2="10.19"/><line class="cls-1" x1="100.52" y1="10.19" x2="100.69" y2="10.25"/><line class="cls-1" x1="100.69" y1="10.25" x2="100.86" y2="10.36"/><line class="cls-1" x1="100.86" y1="10.36" x2="101.02" y2="10.42"/><line class="cls-1" x1="101.02" y1="10.42" x2="101.25" y2="10.47"/><line class="cls-1" x1="101.25" y1="10.47" x2="101.42" y2="10.53"/><line class="cls-1" x1="101.42" y1="10.53" x2="101.59" y2="10.59"/><line class="cls-1" x1="101.59" y1="10.59" x2="101.75" y2="10.64"/><line class="cls-1" x1="101.75" y1="10.64" x2="101.92" y2="10.64"/><line class="cls-1" x1="101.92" y1="10.64" x2="102.15" y2="10.7"/><line class="cls-1" x1="102.15" y1="10.7" x2="102.32" y2="10.7"/><line class="cls-1" x1="102.32" y1="10.7" x2="102.48" y2="10.7"/><line class="cls-1" x1="102.48" y1="10.7" x2="102.71" y2="10.75"/><line class="cls-1" x1="102.71" y1="10.75" x2="102.88" y2="10.75"/><line class="cls-1" x1="102.88" y1="10.75" x2="103.04" y2="10.75"/><line class="cls-1" x1="103.04" y1="10.75" x2="103.21" y2="10.7"/><line class="cls-1" x1="103.21" y1="10.7" x2="103.44" y2="10.7"/><line class="cls-1" x1="103.44" y1="10.7" x2="103.61" y2="10.7"/><line class="cls-1" x1="103.61" y1="10.7" x2="103.77" y2="10.64"/><line class="cls-1" x1="103.77" y1="10.64" x2="103.94" y2="10.64"/><line class="cls-1" x1="103.94" y1="10.64" x2="104.17" y2="10.59"/><line class="cls-1" x1="104.17" y1="10.59" x2="104.33" y2="10.53"/><line class="cls-1" x1="104.33" y1="10.53" x2="104.5" y2="10.47"/><line class="cls-1" x1="104.5" y1="10.47" x2="104.67" y2="10.42"/><line class="cls-1" x1="104.67" y1="10.42" x2="104.84" y2="10.36"/><line class="cls-1" x1="104.84" y1="10.36" x2="105.01" y2="10.25"/><line class="cls-1" x1="105.01" y1="10.25" x2="105.18" y2="10.19"/><line class="cls-1" x1="105.18" y1="10.19" x2="105.34" y2="10.14"/><line class="cls-1" x1="105.34" y1="10.14" x2="105.51" y2="10.02"/><line class="cls-1" x1="105.51" y1="10.02" x2="105.68" y2="9.91"/><line class="cls-1" x1="105.68" y1="9.91" x2="105.85" y2="9.8"/><line class="cls-1" x1="105.85" y1="9.8" x2="105.96" y2="9.74"/><line class="cls-1" x1="105.96" y1="9.74" x2="106.13" y2="9.63"/><line class="cls-1" x1="106.13" y1="9.63" x2="106.3" y2="9.52"/><line class="cls-1" x1="106.3" y1="9.52" x2="106.41" y2="9.35"/><line class="cls-1" x1="106.41" y1="9.35" x2="106.52" y2="9.24"/><line class="cls-1" x1="106.52" y1="9.24" x2="106.69" y2="9.13"/><line class="cls-1" x1="106.69" y1="9.13" x2="106.8" y2="8.96"/><line class="cls-1" x1="106.8" y1="8.96" x2="106.92" y2="8.85"/><line class="cls-1" x1="106.92" y1="8.85" x2="107.03" y2="8.68"/><line class="cls-1" x1="107.03" y1="8.68" x2="107.14" y2="8.57"/><line class="cls-1" x1="107.14" y1="8.57" x2="107.25" y2="8.4"/><line class="cls-1" x1="107.25" y1="8.4" x2="107.36" y2="8.23"/><line class="cls-1" x1="107.36" y1="8.23" x2="107.48" y2="8.06"/><line class="cls-1" x1="107.48" y1="8.06" x2="107.53" y2="7.89"/><line class="cls-1" x1="107.53" y1="7.89" x2="107.65" y2="7.78"/><line class="cls-1" x1="107.65" y1="7.78" x2="107.7" y2="7.61"/><line class="cls-1" x1="107.7" y1="7.61" x2="107.76" y2="7.44"/><line class="cls-1" x1="107.76" y1="7.44" x2="107.87" y2="7.22"/><line class="cls-1" x1="107.87" y1="7.22" x2="107.93" y2="7.05"/><line class="cls-1" x1="107.93" y1="7.05" x2="107.98" y2="6.88"/><line class="cls-1" x1="107.98" y1="6.88" x2="107.98" y2="6.71"/><line class="cls-1" x1="107.98" y1="6.71" x2="108.04" y2="6.55"/><line class="cls-1" x1="108.04" y1="6.55" x2="108.09" y2="6.38"/><line class="cls-1" x1="108.09" y1="6.38" x2="108.09" y2="6.15"/><line class="cls-1" x1="108.09" y1="6.15" x2="108.15" y2="5.98"/><line class="cls-1" x1="108.15" y1="5.98" x2="108.15" y2="5.82"/><line class="cls-1" x1="108.15" y1="5.82" x2="108.15" y2="5.59"/><line class="cls-1" x1="108.15" y1="5.59" x2="108.15" y2="5.42"/><line class="cls-1" x1="100.24" y1="2.45" x2="105.18" y2="2.45"/><line class="cls-1" x1="105.18" y1="2.45" x2="105.18" y2="8.4"/><line class="cls-1" x1="105.18" y1="8.4" x2="100.24" y2="8.4"/><line class="cls-1" x1="100.24" y1="8.4" x2="100.24" y2="2.45"/><line class="cls-1" x1="100.24" y1="4.41" x2="102.88" y2="4.41"/><line class="cls-1" x1="100.24" y1="6.43" x2="102.88" y2="6.43"/><line class="cls-1" x1="102.88" y1="6.43" x2="102.99" y2="6.43"/><line class="cls-1" x1="102.99" y1="6.43" x2="103.16" y2="6.38"/><line class="cls-1" x1="103.16" y1="6.38" x2="103.38" y2="6.27"/><line class="cls-1" x1="103.38" y1="6.27" x2="103.55" y2="6.15"/><line class="cls-1" x1="103.55" y1="6.15" x2="103.66" y2="6.04"/><line class="cls-1" x1="103.66" y1="6.04" x2="103.77" y2="5.82"/><line class="cls-1" x1="103.77" y1="5.82" x2="103.83" y2="5.65"/><line class="cls-1" x1="103.83" y1="5.65" x2="103.89" y2="5.42"/><line class="cls-1" x1="103.89" y1="5.42" x2="103.83" y2="5.2"/><line class="cls-1" x1="103.83" y1="5.2" x2="103.77" y2="5.03"/><line class="cls-1" x1="103.77" y1="5.03" x2="103.66" y2="4.86"/><line class="cls-1" x1="103.66" y1="4.86" x2="103.55" y2="4.69"/><line class="cls-1" x1="103.55" y1="4.69" x2="103.38" y2="4.58"/><line class="cls-1" x1="103.38" y1="4.58" x2="103.16" y2="4.47"/><line class="cls-1" x1="103.16" y1="4.47" x2="102.99" y2="4.41"/><line class="cls-1" x1="102.99" y1="4.41" x2="102.88" y2="4.41"/><line class="cls-1" x1="92.27" y1="2.67" x2="92.27" y2="8.17"/><line class="cls-1" x1="93.28" y1="2.67" x2="93.28" y2="8.23"/><line class="cls-1" x1="95.25" y1="2.56" x2="95.25" y2="8.29"/><line class="cls-1" x1="94.24" y1="2.62" x2="94.24" y2="8.23"/><line class="cls-1" x1="91.26" y1="2.73" x2="91.26" y2="8.12"/><line class="cls-1" x1="91.26" y1="6.77" x2="92.27" y2="6.77"/><line class="cls-1" x1="91.26" y1="4.08" x2="92.27" y2="4.08"/><line class="cls-1" x1="93.28" y1="4.08" x2="94.24" y2="4.08"/><line class="cls-1" x1="93.28" y1="6.77" x2="94.24" y2="6.77"/><line class="cls-1" x1="95.25" y1="6.77" x2="96.26" y2="6.77"/><line class="cls-1" x1="95.25" y1="4.08" x2="96.26" y2="4.08"/><line class="cls-1" x1="89.92" y1="2.79" x2="91.26" y2="2.73"/><line class="cls-1" x1="92.27" y1="2.67" x2="93.28" y2="2.67"/><line class="cls-1" x1="94.24" y1="2.62" x2="95.25" y2="2.56"/><line class="cls-1" x1="96.26" y1="2.56" x2="98.5" y2="2.45"/><line class="cls-1" x1="89.92" y1="8.06" x2="91.26" y2="8.12"/><line class="cls-1" x1="92.27" y1="8.17" x2="93.28" y2="8.23"/><line class="cls-1" x1="94.24" y1="8.23" x2="95.25" y2="8.29"/><line class="cls-1" x1="96.26" y1="8.34" x2="98.5" y2="8.4"/><line class="cls-1" x1="96.26" y1="2.56" x2="96.26" y2="8.34"/><line class="cls-1" x1="103.04" y1="5.42" x2="102.99" y2="5.26"/><line class="cls-1" x1="102.99" y1="5.26" x2="102.76" y2="5.26"/><line class="cls-1" x1="102.76" y1="5.26" x2="102.65" y2="5.42"/><line class="cls-1" x1="102.65" y1="5.42" x2="102.76" y2="5.59"/><line class="cls-1" x1="102.76" y1="5.59" x2="102.99" y2="5.59"/><line class="cls-1" x1="102.99" y1="5.59" x2="103.04" y2="5.42"/><line class="cls-1" x1="103.04" y1="5.42" x2="103.1" y2="5.42"/></g></g></svg>