<svg xmlns="http://www.w3.org/2000/svg" viewBox="0 0 32.94 70.55"><defs><style>.cls-1{fill:none;stroke:#58595b;stroke-linecap:round;stroke-linejoin:round;stroke-width:0.3px;}.cls-2{fill:#58595b;}</style></defs><g id="Layer_2" data-name="Layer 2"><g id="イラスト"><line class="cls-1" x1="29.54" y1="69.57" x2="29.81" y2="69.57"/><line class="cls-1" x1="29.81" y1="69.57" x2="30.09" y2="69.5"/><line class="cls-1" x1="30.09" y1="69.5" x2="30.3" y2="69.43"/><line class="cls-1" x1="30.3" y1="69.43" x2="30.57" y2="69.37"/><line class="cls-1" x1="30.57" y1="69.37" x2="30.78" y2="69.23"/><line class="cls-1" x1="30.78" y1="69.23" x2="30.99" y2="69.09"/><line class="cls-1" x1="30.99" y1="69.09" x2="31.2" y2="68.95"/><line class="cls-1" x1="31.2" y1="68.95" x2="31.4" y2="68.74"/><line class="cls-1" x1="31.4" y1="68.74" x2="31.54" y2="68.54"/><line class="cls-1" x1="31.54" y1="68.54" x2="31.68" y2="68.33"/><line class="cls-1" x1="31.68" y1="68.33" x2="31.82" y2="68.12"/><line class="cls-1" x1="31.82" y1="68.12" x2="31.89" y2="67.91"/><line class="cls-1" x1="31.89" y1="67.91" x2="31.96" y2="67.64"/><line class="cls-1" x1="31.96" y1="67.64" x2="31.96" y2="67.36"/><line class="cls-1" x1="31.96" y1="67.36" x2="32.03" y2="67.15"/><line class="cls-1" x1="32.03" y1="67.15" x2="32.1" y2="67.15"/><line class="cls-1" x1="29.54" y1="69.57" x2="3.4" y2="69.57"/><line class="cls-1" x1="3.4" y1="69.57" x2="3.47" y2="69.57"/><line class="cls-1" x1="0.98" y1="67.15" x2="0.98" y2="67.36"/><line class="cls-1" x1="0.98" y1="67.36" x2="1.05" y2="67.64"/><line class="cls-1" x1="1.05" y1="67.64" x2="1.12" y2="67.91"/><line class="cls-1" x1="1.12" y1="67.91" x2="1.19" y2="68.12"/><line class="cls-1" x1="1.19" y1="68.12" x2="1.33" y2="68.33"/><line class="cls-1" x1="1.33" y1="68.33" x2="1.46" y2="68.54"/><line class="cls-1" x1="1.46" y1="68.54" x2="1.6" y2="68.74"/><line class="cls-1" x1="1.6" y1="68.74" x2="1.81" y2="68.95"/><line class="cls-1" x1="1.81" y1="68.95" x2="1.95" y2="69.09"/><line class="cls-1" x1="1.95" y1="69.09" x2="2.22" y2="69.23"/><line class="cls-1" x1="2.22" y1="69.23" x2="2.43" y2="69.37"/><line class="cls-1" x1="2.43" y1="69.37" x2="2.64" y2="69.43"/><line class="cls-1" x1="2.64" y1="69.43" x2="2.92" y2="69.5"/><line class="cls-1" x1="2.92" y1="69.5" x2="3.19" y2="69.57"/><line class="cls-1" x1="3.19" y1="69.57" x2="3.4" y2="69.57"/><line class="cls-1" x1="3.4" y1="69.57" x2="3.47" y2="69.57"/><line class="cls-1" x1="0.98" y1="67.15" x2="0.98" y2="3.4"/><line class="cls-1" x1="0.98" y1="3.4" x2="1.05" y2="3.4"/><line class="cls-1" x1="3.4" y1="0.98" x2="3.19" y2="0.98"/><line class="cls-1" x1="3.19" y1="0.98" x2="2.92" y2="1.05"/><line class="cls-1" x1="2.92" y1="1.05" x2="2.64" y2="1.12"/><line class="cls-1" x1="2.64" y1="1.12" x2="2.43" y2="1.19"/><line class="cls-1" x1="2.43" y1="1.19" x2="2.22" y2="1.33"/><line class="cls-1" x1="2.22" y1="1.33" x2="1.95" y2="1.46"/><line class="cls-1" x1="1.95" y1="1.46" x2="1.81" y2="1.6"/><line class="cls-1" x1="1.81" y1="1.6" x2="1.6" y2="1.81"/><line class="cls-1" x1="1.6" y1="1.81" x2="1.46" y2="2.02"/><line class="cls-1" x1="1.46" y1="2.02" x2="1.33" y2="2.22"/><line class="cls-1" x1="1.33" y1="2.22" x2="1.19" y2="2.43"/><line class="cls-1" x1="1.19" y1="2.43" x2="1.12" y2="2.64"/><line class="cls-1" x1="1.12" y1="2.64" x2="1.05" y2="2.92"/><line class="cls-1" x1="1.05" y1="2.92" x2="0.98" y2="3.19"/><line class="cls-1" x1="0.98" y1="3.19" x2="0.98" y2="3.4"/><line class="cls-1" x1="0.98" y1="3.4" x2="1.05" y2="3.4"/><line class="cls-1" x1="32.03" y1="3.4" x2="32.03" y2="67.15"/><line class="cls-1" x1="32.03" y1="67.15" x2="32.1" y2="67.15"/><line class="cls-1" x1="3.4" y1="0.98" x2="29.54" y2="0.98"/><line class="cls-1" x1="29.54" y1="0.98" x2="29.61" y2="0.98"/><line class="cls-1" x1="32.03" y1="3.4" x2="31.96" y2="3.19"/><line class="cls-1" x1="31.96" y1="3.19" x2="31.96" y2="2.92"/><line class="cls-1" x1="31.96" y1="2.92" x2="31.89" y2="2.64"/><line class="cls-1" x1="31.89" y1="2.64" x2="31.82" y2="2.43"/><line class="cls-1" x1="31.82" y1="2.43" x2="31.68" y2="2.22"/><line class="cls-1" x1="31.68" y1="2.22" x2="31.54" y2="2.02"/><line class="cls-1" x1="31.54" y1="2.02" x2="31.4" y2="1.81"/><line class="cls-1" x1="31.4" y1="1.81" x2="31.2" y2="1.6"/><line class="cls-1" x1="31.2" y1="1.6" x2="30.99" y2="1.46"/><line class="cls-1" x1="30.99" y1="1.46" x2="30.78" y2="1.33"/><line class="cls-1" x1="30.78" y1="1.33" x2="30.57" y2="1.19"/><line class="cls-1" x1="30.57" y1="1.19" x2="30.3" y2="1.12"/><line class="cls-1" x1="30.3" y1="1.12" x2="30.09" y2="1.05"/><line class="cls-1" x1="30.09" y1="1.05" x2="29.81" y2="0.98"/><line class="cls-1" x1="29.81" y1="0.98" x2="29.54" y2="0.98"/><line class="cls-1" x1="29.54" y1="0.98" x2="29.61" y2="0.98"/><line class="cls-1" x1="3.4" y1="0.15" x2="3.33" y2="0.15"/><line class="cls-1" x1="3.33" y1="0.15" x2="3.05" y2="0.15"/><line class="cls-1" x1="3.05" y1="0.15" x2="2.85" y2="0.22"/><line class="cls-1" x1="2.85" y1="0.22" x2="2.64" y2="0.29"/><line class="cls-1" x1="2.64" y1="0.29" x2="2.43" y2="0.29"/><line class="cls-1" x1="2.43" y1="0.29" x2="2.22" y2="0.43"/><line class="cls-1" x1="2.22" y1="0.43" x2="2.02" y2="0.5"/><line class="cls-1" x1="2.02" y1="0.5" x2="1.81" y2="0.56"/><line class="cls-1" x1="1.81" y1="0.56" x2="1.6" y2="0.7"/><line class="cls-1" x1="1.6" y1="0.7" x2="1.39" y2="0.84"/><line class="cls-1" x1="1.39" y1="0.84" x2="1.26" y2="0.98"/><line class="cls-1" x1="1.26" y1="0.98" x2="1.05" y2="1.19"/><line class="cls-1" x1="1.05" y1="1.19" x2="0.91" y2="1.33"/><line class="cls-1" x1="0.91" y1="1.33" x2="0.77" y2="1.53"/><line class="cls-1" x1="0.77" y1="1.53" x2="0.63" y2="1.67"/><line class="cls-1" x1="0.63" y1="1.67" x2="0.56" y2="1.88"/><line class="cls-1" x1="0.56" y1="1.88" x2="0.43" y2="2.09"/><line class="cls-1" x1="0.43" y1="2.09" x2="0.36" y2="2.29"/><line class="cls-1" x1="0.36" y1="2.29" x2="0.29" y2="2.5"/><line class="cls-1" x1="0.29" y1="2.5" x2="0.22" y2="2.78"/><line class="cls-1" x1="0.22" y1="2.78" x2="0.15" y2="2.99"/><line class="cls-1" x1="0.15" y1="2.99" x2="0.15" y2="3.19"/><line class="cls-1" x1="0.15" y1="3.19" x2="0.15" y2="3.4"/><line class="cls-1" x1="3.4" y1="0.15" x2="29.54" y2="0.15"/><line class="cls-1" x1="32.79" y1="3.4" x2="32.79" y2="3.19"/><line class="cls-1" x1="32.79" y1="3.19" x2="32.79" y2="2.99"/><line class="cls-1" x1="32.79" y1="2.99" x2="32.72" y2="2.78"/><line class="cls-1" x1="32.72" y1="2.78" x2="32.72" y2="2.5"/><line class="cls-1" x1="32.72" y1="2.5" x2="32.65" y2="2.29"/><line class="cls-1" x1="32.65" y1="2.29" x2="32.51" y2="2.09"/><line class="cls-1" x1="32.51" y1="2.09" x2="32.44" y2="1.88"/><line class="cls-1" x1="32.44" y1="1.88" x2="32.3" y2="1.67"/><line class="cls-1" x1="32.3" y1="1.67" x2="32.16" y2="1.53"/><line class="cls-1" x1="32.16" y1="1.53" x2="32.03" y2="1.33"/><line class="cls-1" x1="32.03" y1="1.33" x2="31.89" y2="1.19"/><line class="cls-1" x1="31.89" y1="1.19" x2="31.75" y2="0.98"/><line class="cls-1" x1="31.75" y1="0.98" x2="31.54" y2="0.84"/><line class="cls-1" x1="31.54" y1="0.84" x2="31.4" y2="0.7"/><line class="cls-1" x1="31.4" y1="0.7" x2="31.2" y2="0.56"/><line class="cls-1" x1="31.2" y1="0.56" x2="30.99" y2="0.5"/><line class="cls-1" x1="30.99" y1="0.5" x2="30.78" y2="0.43"/><line class="cls-1" x1="30.78" y1="0.43" x2="30.57" y2="0.29"/><line class="cls-1" x1="30.57" y1="0.29" x2="30.37" y2="0.29"/><line class="cls-1" x1="30.37" y1="0.29" x2="30.09" y2="0.22"/><line class="cls-1" x1="30.09" y1="0.22" x2="29.88" y2="0.15"/><line class="cls-1" x1="29.88" y1="0.15" x2="29.68" y2="0.15"/><line class="cls-1" x1="29.68" y1="0.15" x2="29.54" y2="0.15"/><line class="cls-1" x1="0.15" y1="67.15" x2="0.15" y2="3.4"/><line class="cls-1" x1="0.15" y1="67.15" x2="0.15" y2="67.36"/><line class="cls-1" x1="0.15" y1="67.36" x2="0.15" y2="67.57"/><line class="cls-1" x1="0.15" y1="67.57" x2="0.22" y2="67.78"/><line class="cls-1" x1="0.22" y1="67.78" x2="0.29" y2="68.05"/><line class="cls-1" x1="0.29" y1="68.05" x2="0.36" y2="68.26"/><line class="cls-1" x1="0.36" y1="68.26" x2="0.43" y2="68.47"/><line class="cls-1" x1="0.43" y1="68.47" x2="0.56" y2="68.67"/><line class="cls-1" x1="0.56" y1="68.67" x2="0.63" y2="68.88"/><line class="cls-1" x1="0.63" y1="68.88" x2="0.77" y2="69.02"/><line class="cls-1" x1="0.77" y1="69.02" x2="0.91" y2="69.23"/><line class="cls-1" x1="0.91" y1="69.23" x2="1.05" y2="69.37"/><line class="cls-1" x1="1.05" y1="69.37" x2="1.26" y2="69.57"/><line class="cls-1" x1="1.26" y1="69.57" x2="1.39" y2="69.71"/><line class="cls-1" x1="1.39" y1="69.71" x2="1.6" y2="69.85"/><line class="cls-1" x1="1.6" y1="69.85" x2="1.81" y2="69.99"/><line class="cls-1" x1="1.81" y1="69.99" x2="2.02" y2="70.06"/><line class="cls-1" x1="2.02" y1="70.06" x2="2.22" y2="70.13"/><line class="cls-1" x1="2.22" y1="70.13" x2="2.43" y2="70.26"/><line class="cls-1" x1="2.43" y1="70.26" x2="2.64" y2="70.33"/><line class="cls-1" x1="2.64" y1="70.33" x2="2.85" y2="70.33"/><line class="cls-1" x1="2.85" y1="70.33" x2="3.05" y2="70.4"/><line class="cls-1" x1="3.05" y1="70.4" x2="3.33" y2="70.4"/><line class="cls-1" x1="3.33" y1="70.4" x2="3.4" y2="70.4"/><line class="cls-1" x1="29.54" y1="70.4" x2="3.4" y2="70.4"/><line class="cls-1" x1="32.79" y1="3.4" x2="32.79" y2="67.15"/><line class="cls-1" x1="29.54" y1="70.4" x2="29.68" y2="70.4"/><line class="cls-1" x1="29.68" y1="70.4" x2="29.88" y2="70.4"/><line class="cls-1" x1="29.88" y1="70.4" x2="30.09" y2="70.33"/><line class="cls-1" x1="30.09" y1="70.33" x2="30.37" y2="70.33"/><line class="cls-1" x1="30.37" y1="70.33" x2="30.57" y2="70.26"/><line class="cls-1" x1="30.57" y1="70.26" x2="30.78" y2="70.13"/><line class="cls-1" x1="30.78" y1="70.13" x2="30.99" y2="70.06"/><line class="cls-1" x1="30.99" y1="70.06" x2="31.2" y2="69.99"/><line class="cls-1" x1="31.2" y1="69.99" x2="31.4" y2="69.85"/><line class="cls-1" x1="31.4" y1="69.85" x2="31.54" y2="69.71"/><line class="cls-1" x1="31.54" y1="69.71" x2="31.75" y2="69.57"/><line class="cls-1" x1="31.75" y1="69.57" x2="31.89" y2="69.37"/><line class="cls-1" x1="31.89" y1="69.37" x2="32.03" y2="69.23"/><line class="cls-1" x1="32.03" y1="69.23" x2="32.16" y2="69.02"/><line class="cls-1" x1="32.16" y1="69.02" x2="32.3" y2="68.88"/><line class="cls-1" x1="32.3" y1="68.88" x2="32.44" y2="68.67"/><line class="cls-1" x1="32.44" y1="68.67" x2="32.51" y2="68.47"/><line class="cls-1" x1="32.51" y1="68.47" x2="32.65" y2="68.26"/><line class="cls-1" x1="32.65" y1="68.26" x2="32.72" y2="68.05"/><line class="cls-1" x1="32.72" y1="68.05" x2="32.72" y2="67.78"/><line class="cls-1" x1="32.72" y1="67.78" x2="32.79" y2="67.57"/><line class="cls-1" x1="32.79" y1="67.57" x2="32.79" y2="67.36"/><line class="cls-1" x1="32.79" y1="67.36" x2="32.79" y2="67.15"/><path class="cls-2" d="M5.3,16.59l0,.32c0,.11,0,.25,0,.31v0H4.87c0-.14,0-.2.08-.39L5.28,15a2.86,2.86,0,0,0,0-.33H5.7a2.22,2.22,0,0,0,0,.33l.32,1.87c0,.16.06.28.09.39H5.79a2.47,2.47,0,0,0,0-.35l0-.32Zm.23-1.27a.39.39,0,0,1,0-.09.28.28,0,0,1,0-.09.28.28,0,0,0,0,.09.08.08,0,0,0,0,0,.07.07,0,0,1,0,.05l-.13.92h.32Z"/><path class="cls-2" d="M6.6,14.67c0,.11,0,.21,0,.42v1.28c0,.35,0,.43.06.49a.19.19,0,0,0,.17.08A.22.22,0,0,0,7,16.85c0-.07,0-.15,0-.48V15.09a3.73,3.73,0,0,0,0-.42h.35c0,.13,0,.23,0,.42v1.29a1.15,1.15,0,0,1-.13.71.47.47,0,0,1-.42.22.52.52,0,0,1-.44-.21,1.23,1.23,0,0,1-.12-.72V15.09c0-.19,0-.31,0-.42Z"/><path class="cls-2" d="M7.51,14.65l.26,0H8.5l.26,0v.4l-.23,0H8.3v1.79a2.89,2.89,0,0,0,0,.44H8c0-.13,0-.25,0-.44V15H7.76l-.25,0Z"/><path class="cls-2" d="M9.46,14.62c.4,0,.59.44.59,1.34s-.18,1.35-.6,1.35-.6-.44-.6-1.36S9.06,14.62,9.46,14.62Zm-.24,2c0,.18.11.26.23.26s.2-.08.23-.25a3.79,3.79,0,0,0,.06-.77c0-.63-.09-.91-.29-.91s-.29.27-.29.91A3.55,3.55,0,0,0,9.22,16.66Z"/><path class="cls-2" d="M7.38,35.23c0-.13,0-.24,0-.43V33H7.09v-.39l.23,0h.42c0,.14,0,.26,0,.48V34.8a2.56,2.56,0,0,0,0,.43Z"/><path class="cls-2" d="M25.2,35.23h-.26s0-.07,0-.14a1.85,1.85,0,0,1,.12-.55,1.93,1.93,0,0,1,.36-.62,1.82,1.82,0,0,0,.22-.32.78.78,0,0,0,.06-.31q0-.33-.21-.33a.21.21,0,0,0-.17.12,1.2,1.2,0,0,0-.06.37l-.31,0a1.39,1.39,0,0,1,.1-.49.47.47,0,0,1,.44-.33.45.45,0,0,1,.38.16.89.89,0,0,1,.15.52,1.06,1.06,0,0,1-.15.58,2.51,2.51,0,0,1-.21.28,2.69,2.69,0,0,0-.22.32,1,1,0,0,0-.14.41h.45a1.06,1.06,0,0,0,.28,0v.4l-.3,0Z"/><path class="cls-2" d="M16,24.26a1,1,0,0,1,.12-.41.45.45,0,0,1,.42-.25c.31,0,.5.24.5.67a.75.75,0,0,1-.14.49.33.33,0,0,1-.19.13.35.35,0,0,1,.25.17.89.89,0,0,1,.11.49c0,.48-.19.74-.54.74a.45.45,0,0,1-.44-.23.93.93,0,0,1-.13-.45l.31-.09a.58.58,0,0,0,.1.34.2.2,0,0,0,.15.07c.16,0,.23-.14.23-.43s-.07-.43-.28-.43l-.16,0v-.38h.15a.2.2,0,0,0,.19-.08.62.62,0,0,0,.07-.33c0-.23-.06-.34-.19-.34s-.2.09-.22.35Z"/><path class="cls-2" d="M16.56,44.32a2.3,2.3,0,0,0,0-.38v-.22h-.72v-.42a.42.42,0,0,1,.05-.1L16,43l.42-.94c0-.1.1-.26.13-.37h.34c0,.17,0,.28,0,.54v1.1h0a.42.42,0,0,0,.17,0v.38h-.2v.22c0,.16,0,.26,0,.38Zm0-1.63V42.6a.37.37,0,0,0,0-.11v-.15a1.3,1.3,0,0,1-.1.25l-.34.78h.43Z"/><circle class="cls-1" cx="16.47" cy="34.07" r="3.65"/><circle class="cls-1" cx="16.47" cy="25.1" r="3.65"/><circle class="cls-1" cx="16.47" cy="42.96" r="3.65"/><circle class="cls-1" cx="16.47" cy="51.95" r="3.65"/><circle class="cls-1" cx="7.46" cy="34.07" r="3.65"/><circle class="cls-1" cx="25.48" cy="34.07" r="3.65"/><circle class="cls-1" cx="7.46" cy="51.95" r="3.65"/><circle class="cls-1" cx="25.48" cy="51.95" r="3.65"/><circle class="cls-1" cx="7.42" cy="16.06" r="3.65"/><rect class="cls-1" x="14.01" y="22.98" width="4.92" height="4.12"/><rect class="cls-1" x="14.01" y="32.04" width="4.92" height="4.12"/><rect class="cls-1" x="14.01" y="41.04" width="4.92" height="4.12"/><rect class="cls-1" x="14.01" y="49.93" width="4.92" height="4.12"/><rect class="cls-1" x="5.02" y="49.93" width="4.92" height="4.12"/><rect class="cls-1" x="23.02" y="49.93" width="4.92" height="4.12"/><rect class="cls-1" x="5.06" y="32.04" width="4.92" height="4.12"/><rect class="cls-1" x="23.01" y="32.04" width="4.92" height="4.12"/><line class="cls-1" x1="16.47" y1="32.03" x2="16.47" y2="36.11"/><line class="cls-1" x1="14.02" y1="34.03" x2="18.93" y2="34.03"/><line class="cls-1" x1="14.02" y1="52.01" x2="18.93" y2="52.01"/><line class="cls-1" x1="16.47" y1="52.01" x2="16.47" y2="54.08"/><line class="cls-1" x1="6.72" y1="50" x2="6.72" y2="54.08"/><line class="cls-1" x1="8.33" y1="50" x2="8.33" y2="54.08"/><line class="cls-1" x1="6.72" y1="52.01" x2="8.31" y2="52.01"/><line class="cls-1" x1="25.46" y1="50" x2="25.46" y2="54.08"/></g></g></svg>