<svg xmlns="http://www.w3.org/2000/svg" viewBox="0 0 109.83 8.57"><defs><style>.cls-1{fill:none;stroke:#58595b;stroke-linecap:round;stroke-linejoin:round;stroke-width:0.3px;}</style></defs><g id="Layer_2" data-name="Layer 2"><g id="イラスト"><line class="cls-1" x1="19.98" y1="0.37" x2="23.78" y2="1.32"/><line class="cls-1" x1="1.16" y1="3.33" x2="1.04" y2="3.33"/><line class="cls-1" x1="1.04" y1="3.33" x2="0.88" y2="3.39"/><line class="cls-1" x1="0.88" y1="3.39" x2="0.65" y2="3.45"/><line class="cls-1" x1="0.65" y1="3.45" x2="0.49" y2="3.56"/><line class="cls-1" x1="0.49" y1="3.56" x2="0.37" y2="3.72"/><line class="cls-1" x1="0.37" y1="3.72" x2="0.26" y2="3.89"/><line class="cls-1" x1="0.26" y1="3.89" x2="0.21" y2="4.12"/><line class="cls-1" x1="0.21" y1="4.12" x2="0.15" y2="4.28"/><line class="cls-1" x1="0.15" y1="4.28" x2="0.21" y2="4.51"/><line class="cls-1" x1="0.21" y1="4.51" x2="0.26" y2="4.73"/><line class="cls-1" x1="0.26" y1="4.73" x2="0.37" y2="4.9"/><line class="cls-1" x1="0.37" y1="4.9" x2="0.49" y2="5.07"/><line class="cls-1" x1="0.49" y1="5.07" x2="0.65" y2="5.18"/><line class="cls-1" x1="0.65" y1="5.18" x2="0.88" y2="5.23"/><line class="cls-1" x1="0.88" y1="5.23" x2="1.04" y2="5.29"/><line class="cls-1" x1="1.04" y1="5.29" x2="1.16" y2="5.29"/><line class="cls-1" x1="34.5" y1="5.29" x2="33.83" y2="5.29"/><line class="cls-1" x1="16.18" y1="0.37" x2="16.12" y2="0.15"/><line class="cls-1" x1="16.12" y1="0.15" x2="15.9" y2="0.15"/><line class="cls-1" x1="15.9" y1="0.15" x2="15.79" y2="0.37"/><line class="cls-1" x1="15.79" y1="0.37" x2="15.9" y2="0.54"/><line class="cls-1" x1="15.9" y1="0.54" x2="16.12" y2="0.54"/><line class="cls-1" x1="16.12" y1="0.54" x2="16.18" y2="0.37"/><line class="cls-1" x1="16.18" y1="0.37" x2="16.24" y2="0.37"/><line class="cls-1" x1="33.83" y1="1.99" x2="33.83" y2="6.63"/><line class="cls-1" x1="10.09" y1="0.37" x2="19.98" y2="0.37"/><line class="cls-1" x1="23.94" y1="7.3" x2="33.83" y2="6.63"/><line class="cls-1" x1="23.78" y1="1.32" x2="33.83" y2="1.99"/><line class="cls-1" x1="10.09" y1="7.3" x2="6.13" y2="7.3"/><line class="cls-1" x1="6.13" y1="7.3" x2="6.13" y2="1.32"/><line class="cls-1" x1="6.13" y1="1.32" x2="10.09" y2="1.32"/><line class="cls-1" x1="19.98" y1="8.42" x2="23.94" y2="7.3"/><line class="cls-1" x1="10.09" y1="8.42" x2="19.98" y2="8.42"/><line class="cls-1" x1="10.09" y1="8.42" x2="10.09" y2="0.37"/><line class="cls-1" x1="6.13" y1="3.33" x2="1.16" y2="3.33"/><line class="cls-1" x1="6.13" y1="5.29" x2="1.16" y2="5.29"/><line class="cls-1" x1="89.91" y1="0.37" x2="86.11" y2="1.32"/><line class="cls-1" x1="109.68" y1="4.28" x2="109.68" y2="4.12"/><line class="cls-1" x1="109.68" y1="4.12" x2="109.63" y2="3.89"/><line class="cls-1" x1="109.63" y1="3.89" x2="109.51" y2="3.72"/><line class="cls-1" x1="109.51" y1="3.72" x2="109.35" y2="3.56"/><line class="cls-1" x1="109.35" y1="3.56" x2="109.18" y2="3.45"/><line class="cls-1" x1="109.18" y1="3.45" x2="109.01" y2="3.39"/><line class="cls-1" x1="109.01" y1="3.39" x2="108.79" y2="3.33"/><line class="cls-1" x1="108.79" y1="3.33" x2="108.68" y2="3.33"/><line class="cls-1" x1="108.68" y1="5.29" x2="108.79" y2="5.29"/><line class="cls-1" x1="108.79" y1="5.29" x2="109.01" y2="5.23"/><line class="cls-1" x1="109.01" y1="5.23" x2="109.18" y2="5.18"/><line class="cls-1" x1="109.18" y1="5.18" x2="109.35" y2="5.07"/><line class="cls-1" x1="109.35" y1="5.07" x2="109.51" y2="4.9"/><line class="cls-1" x1="109.51" y1="4.9" x2="109.63" y2="4.73"/><line class="cls-1" x1="109.63" y1="4.73" x2="109.68" y2="4.51"/><line class="cls-1" x1="109.68" y1="4.51" x2="109.68" y2="4.28"/><line class="cls-1" x1="75.39" y1="3.33" x2="76.06" y2="3.33"/><line class="cls-1" x1="94.04" y1="0.37" x2="93.93" y2="0.15"/><line class="cls-1" x1="93.93" y1="0.15" x2="93.76" y2="0.15"/><line class="cls-1" x1="93.76" y1="0.15" x2="93.65" y2="0.37"/><line class="cls-1" x1="93.65" y1="0.37" x2="93.76" y2="0.54"/><line class="cls-1" x1="93.76" y1="0.54" x2="93.93" y2="0.54"/><line class="cls-1" x1="93.93" y1="0.54" x2="94.04" y2="0.37"/><line class="cls-1" x1="94.04" y1="0.37" x2="94.1" y2="0.37"/><line class="cls-1" x1="76.06" y1="1.99" x2="76.06" y2="6.63"/><line class="cls-1" x1="99.8" y1="0.37" x2="89.91" y2="0.37"/><line class="cls-1" x1="85.94" y1="7.3" x2="76.06" y2="6.63"/><line class="cls-1" x1="86.11" y1="1.32" x2="76.06" y2="1.99"/><line class="cls-1" x1="99.8" y1="7.3" x2="103.76" y2="7.3"/><line class="cls-1" x1="103.76" y1="7.3" x2="103.76" y2="1.32"/><line class="cls-1" x1="103.76" y1="1.32" x2="99.8" y2="1.32"/><line class="cls-1" x1="89.91" y1="8.42" x2="85.94" y2="7.3"/><line class="cls-1" x1="99.8" y1="8.42" x2="89.91" y2="8.42"/><line class="cls-1" x1="99.8" y1="8.42" x2="99.8" y2="0.37"/><line class="cls-1" x1="103.76" y1="3.33" x2="108.68" y2="3.33"/><line class="cls-1" x1="103.76" y1="5.29" x2="108.68" y2="5.29"/><line class="cls-1" x1="54.27" y1="3" x2="53.6" y2="5.62"/><line class="cls-1" x1="53.6" y1="5.62" x2="53.66" y2="5.62"/><line class="cls-1" x1="54.27" y1="5.62" x2="54.94" y2="3"/><line class="cls-1" x1="54.94" y1="3" x2="55" y2="3"/><line class="cls-1" x1="75.39" y1="3.33" x2="54.83" y2="3.33"/><line class="cls-1" x1="54.22" y1="3.33" x2="33.83" y2="3.33"/><line class="cls-1" x1="34.5" y1="5.29" x2="53.71" y2="5.29"/><line class="cls-1" x1="54.33" y1="5.29" x2="76.06" y2="5.29"/></g></g></svg>