<svg xmlns="http://www.w3.org/2000/svg" viewBox="0 0 482.92 114.23"><defs><style>.cls-1{fill:#fff;}</style></defs><g id="Layer_2" data-name="Layer 2"><g id="Layer_1-2" data-name="Layer 1"><path class="cls-1" d="M370.15,26.94c-20.8,0-35.32,17.92-35.32,43.59,0,12.49,3.23,23.18,9.34,30.93,6.54,8.28,16.15,12.66,27.82,12.66,18.09,0,26.75-7.38,31.54-13.42h0a.83.83,0,0,0,.29-.56.88.88,0,0,0-.79-1,.92.92,0,0,0-.59.16h0l0,0a.53.53,0,0,0-.13.13c-4.45,4.57-12.68,10.18-26.61,10.18-15.94,0-26.25-14.27-26.25-36.35V71.85h55.76l.3-6C405.47,40.06,393.59,26.94,370.15,26.94Zm20.74,40.43H349.41V65.93c0-20,8.73-34.51,20.74-34.51,17.14,0,20.74,18.77,20.74,34.51Zm91.73,4.48.3-6c0-25.8-11.89-38.92-35.32-38.92-20.8,0-35.32,17.92-35.32,43.59,0,12.49,3.23,23.18,9.34,30.93,6.53,8.28,16.15,12.66,27.81,12.66,18.09,0,26.75-7.38,31.54-13.42h0a.92.92,0,0,0,.29-.56.89.89,0,0,0-.79-1,1,1,0,0,0-.6.16h0l0,0a.44.44,0,0,0-.14.13c-4.45,4.57-12.68,10.18-26.6,10.18-15.95,0-26.25-14.27-26.25-36.35V71.85Zm-55.76-5.92c0-20,8.72-34.51,20.74-34.51,17.13,0,20.73,18.77,20.73,34.51v1.44H426.86ZM124.53,112.27c-10.87,0-15.42-6.54-20.86-19.28L65.61.45a.74.74,0,0,0-1.36,0L40.74,55.85c-15,2.06-29,7.31-39.9,16.08-.79.64-1,1.21-.72,1.77A33.07,33.07,0,0,0,10.85,84.63a43.43,43.43,0,0,0,15,6.34L16.4,113.21a.74.74,0,0,0,.67,1h6.55L33,92.14c.91.1,1.84.21,2.82.3a181.75,181.75,0,0,0,23.76.47c1.58-.15,1.58-1.92.27-2.11-2.14-.32-11.89-1.23-16.93-2.56a60.47,60.47,0,0,1-7.26-2.38l9.5-22.47c2.23.08,4.53.21,6.93.42a101,101,0,0,1,27.29,6L89,93c7.31,19.71,18.89,21.23,26.53,21.23h9a1,1,0,1,0,0-2ZM29.31,82.79a39.83,39.83,0,0,1-5-3.47,39,39,0,0,1-9.89-13s8.94-2.64,23.14-3Zm19.33-27.7L61,25.87l12.54,30A169.39,169.39,0,0,0,48.64,55.09Zm159.65,46.77a.72.72,0,0,0-.68.45h0l-.13.33c-2.06,4.88-8.57,6.83-17.93,6.83H146L196.9,28.35a.74.74,0,0,0-.62-1.13H144c-8.11,0-12.81,3-14.28,9.17v0a17.71,17.71,0,0,0-.41,2.51.74.74,0,0,0,.74.74.73.73,0,0,0,.68-.46h0l.14-.33c2.05-4.88,8.56-6.83,17.92-6.83h31.32l-51.31,81.11v0a.71.71,0,0,0,.6,1.12h65c8.11,0,12.81-3,14.29-9.16v0a16.39,16.39,0,0,0,.41-2.51A.74.74,0,0,0,208.29,101.86Zm123.6,10.65h0a6.16,6.16,0,0,1-1.23-.73,6,6,0,0,1-2.11-4.38V59.21c0-28.85-14.1-32.18-24.71-32.18S283,31.82,277,39.55l-1.47,1.89-1-2.19C270.69,30.68,264.38,27,253.41,27c-9,0-17.67,3.33-23.26,8.92l-2.88,2.82S226.25,27,212.33,27H205.7a.89.89,0,0,0,0,1.78c9.7,0,9.58,9.58,9.58,19.31V94.39c0,7.1,2.38,11.57,5.06,14.37l0,0a1.85,1.85,0,0,0,.14.14q.33.33.66.63c2.77,2.58,6.35,4.68,9.54,4.68a.89.89,0,0,0,.89-.89.9.9,0,0,0-.55-.83h0a6.16,6.16,0,0,1-1.23-.73,6.08,6.08,0,0,1-2.11-4.38V43.35l.37-.41c6-6.7,13-10.38,19.74-10.38C259,32.56,265.7,41,265.7,59.21V94.39c0,7.1,2.38,11.57,5.06,14.37,0,0,0,0,0,0l.14.14c.22.22.44.43.67.63,2.76,2.58,6.35,4.68,9.53,4.68a.89.89,0,0,0,.89-.89.9.9,0,0,0-.55-.83h0a6.45,6.45,0,0,1-1.23-.73,6.12,6.12,0,0,1-2.11-4.38V59.21c0-3.51,0-10-.86-12.62l-.21-.65.36-.57c3.92-6.19,13.22-12.81,20.83-12.81,11.17,0,17.89,8.47,17.89,26.65V94.39c0,7.1,2.38,11.57,5.06,14.37a0,0,0,0,1,0,0l.15.14q.33.33.66.63c2.77,2.58,6.35,4.68,9.53,4.68a.89.89,0,0,0,.35-1.72Z"/></g></g></svg>