<svg xmlns="http://www.w3.org/2000/svg" viewBox="0 0 192.92 192.92"><defs><style>.cls-1{fill:#fff;stroke:#000;}.cls-1,.cls-2{stroke-miterlimit:10;stroke-width:4px;}.cls-2{fill:none;stroke:#237fd5;}</style></defs><g id="Layer_2" data-name="Layer 2"><g id="Layer_1-2" data-name="Layer 1"><path class="cls-1" d="M190.92,96.46A94.45,94.45,0,0,1,35.51,168.61L11.84,182.06,25.42,158.7a94.46,94.46,0,1,1,165.5-62.24Z"/><circle class="cls-2" cx="78.15" cy="125.34" r="5.42"/><circle class="cls-2" cx="113.85" cy="125.34" r="5.42"/><circle class="cls-2" cx="111.32" cy="91.8" r="5.42"/><circle class="cls-2" cx="68.8" cy="94.48" r="5.42"/><circle class="cls-2" cx="68.67" cy="70.43" r="5.42"/><circle class="cls-2" cx="123.5" cy="70.53" r="5.42"/><path class="cls-2" d="M94.77,46.86v99.23s-15.17,8.39-23.33-5.66c0,0-20.16-.91-12.69-19.26,0,0-21.52-10-6.79-27,0,0-14.5-29.45,11.32-38.06C63.28,56.15,72.12,36.44,94.77,46.86Z"/><path class="cls-2" d="M94.81,46.86v99.23s15.31,9.1,23.84-7c0,0,20.74,2.53,15-18.21,0,0,16.82-9,3.91-24.66,0,0,14.63-31.43-11.22-40C126.32,56.15,117.48,36.44,94.81,46.86Z"/><line class="cls-2" x1="51.96" y1="94.21" x2="63.38" y2="94.48"/><polyline class="cls-2" points="74.09 70.43 83.16 70.43 83.16 82.37 94.45 82.37"/><line class="cls-2" x1="118.08" y1="70.53" x2="95.14" y2="70.53"/><polyline class="cls-2" points="111.32 97.22 111.32 108.41 133.4 108.41 133.4 120.85"/><line class="cls-2" x1="108.43" y1="125.34" x2="94.68" y2="125.34"/><polyline class="cls-2" points="78.15 119.92 78.15 106.1 94.22 106.1"/></g></g></svg>