<?xml version="1.0" encoding="utf-8"?>
<!-- Generator: Adobe Illustrator 26.0.1, SVG Export Plug-In . SVG Version: 6.00 Build 0)  -->
<svg version="1.1" id="Layer_1" xmlns="http://www.w3.org/2000/svg" xmlns:xlink="http://www.w3.org/1999/xlink" x="0px" y="0px"
	 viewBox="0 0 900 400" style="enable-background:new 0 0 900 400;" xml:space="preserve">
<style type="text/css">
	.st0{fill:#C00506;}
</style>
<path class="st0" d="M142.1,276.9c-19.5,0-39.1,0-58.6,0c-4,0.1-7.9-0.1-11.9-0.5c-9.8-1.3-13.2-4.6-14.9-14.4
	c-0.6-3.1-0.9-6.2-1-9.3c-0.4-25.5-0.8-50.9-1.1-76.4c0-4.5,0.2-9.1,0.9-13.5c1-7.5,4.6-11.2,12.1-12c7.3-0.8,14.7-1,22-1
	c36.2-0.2,72.4-0.3,108.7-0.4h0.9c18.2,0.1,23.3,3.9,23.9,21.9c1,30.3,1.1,60.6,1,90.8c0,11.3-3.7,14.6-15,14.8
	C186.8,277,164.4,276.8,142.1,276.9L142.1,276.9z M166.3,213.9h-0.3c0-9.6-0.2-19.2,0.1-28.8c0.1-5-1.5-7.2-6.8-7.1
	c-13,0.2-26,0.3-39,0c-5.4-0.1-6.8,2.2-6.7,7.1c0.5,19.5,0.9,39,1.2,58.5c0.1,3.8,1.3,5.6,5.4,5.6c13.6-0.2,27.1-0.2,40.7,0
	c4.1,0,5.4-1.6,5.4-5.6C166.2,233.7,166.3,223.8,166.3,213.9L166.3,213.9z"/>
<path class="st0" d="M774.3,247.5c-11.2,0-21.1,0.1-31,0c-6.5-0.1-6.6-0.2-5.3-6.8c0.8-4.4,2-8.9,2.4-13.3c0.5-5.8,3.4-7.4,9-7.1
	c8.2,0.4,16.4,0,24.6,0.1c3.3,0,5.1-0.9,5.6-4.6c0.9-6.7,2.2-13.4,3.6-20c0.7-3.2-0.1-4.8-3.6-4.8c-12.7,0.1-25.5,0.1-38.2,0
	c-5-0.1-5,3.7-5.7,6.9c-3,14.4-6,28.8-8.6,43.2c-0.8,4.7-2.9,6.1-7.4,6c-15.8-0.2-31.7-0.1-47.5,0c-4.2,0-6.3-0.8-5.2-5.8
	c6-29,11.8-58.1,17.7-87.2c0.7-3.6,2.6-5.1,6.5-5c16.4,0.5,32.8,0.9,49.2,1.1c4.2,0.1,5.2,1.2,4.3,5.5c-1.7,8.1-1.4,8.2,7.2,8.2
	c24.9,0,49.8-0.1,74.7,0c8.7,0,7.5-1.6,11.3,7.7c5.9,14.6,7.4,28.8,3.3,44.4c-4.8,18-7.6,36.5-11,54.8c-1,5.2-3,7.5-8.8,7.3
	c-15.3-0.5-30.6-0.1-45.8-0.2c-6.9,0-7.3-0.5-6-7.3C771,263.4,772.6,255.9,774.3,247.5z"/>
<path class="st0" d="M479,275.7c29.5-30.7,58.9-61.5,88.4-92.2l-0.5-1.9c-2.6-0.1-5.2-0.4-7.7-0.4c-21.5,0-43,0-64.5,0
	c-7.5,0-7.5-0.1-7.6-7.4c-0.1-4.8,0.2-9.6-0.1-14.4s1.8-5.7,6-5.6c45.5,0.1,91.1,0.1,136.7,0c6.7,0,10.3,4.5,13.7,8.7
	c2.9,3.5-0.1,6.7-2.8,9.5c-11,11.4-21.8,23-32.7,34.5c-1.2,1.2-2.3,2.5-3.5,3.7c-4,3.6-3.7,6.9-0.1,10.9
	c12.9,14.3,25.5,28.8,38.2,43.2c3.3,3.8,6.6,7.6,10.7,12.3c-2.8,0.6-4.5,1.2-6.2,1.2c-16.7,0.1-33.4-0.1-50.1,0.1
	c-4,0.2-7.8-1.6-10.2-4.8c-5.2-6.3-10.7-12.4-16.2-18.5c-4.2-4.7-5.1-4.8-9.5-0.4c-6.4,6.4-12.6,13-19.1,19.3c-1.9,1.8-4.6,4-7,4.1
	c-18.3,0.3-36.6,0.2-55,0.2L479,275.7z"/>
<path class="st0" d="M374.1,230.7c0,13.3-0.2,26.6,0.1,39.9c0.1,4.6-1.1,6.6-6.1,6.5c-12.2-0.3-24.3-0.3-36.5,0
	c-4.8,0.1-6.4-1.5-6.4-6.3c-0.3-24-0.9-48.1-1.4-72.1c0-1.4,0-2.8-0.1-4.2c-0.3-8.6-0.3-8.6-9.3-8.6c-14.1,0-28.3,0-42.4,0
	c-8.9,0-9-0.1-9-8.6c0-5.6,0.3-11.2,0.5-16.8c5.8-0.4,11.7-1,17.5-1.1c11.9-0.2,23.8-0.2,35.6,0c4.8,0.1,6.8-1.6,6.2-6.3
	c-0.2-1.4,0-2.8,0-4.2c-0.1-3.1,1.2-4.7,4.5-4.7c13.6,0,27.2,0,40.7,0c3.7,0,3.8,2.3,4,5c0.7,10.1,0.7,10.1,10.6,10.1
	c12.5,0,24.9,0,37.4,0c7.6,0,7.6-0.1,7.6-8s0-15.9-0.3-23.8c-0.2-4.7,2-5.7,6.2-5.6s6.4,0.7,6.3,5.5c-0.2,10.7,0.1,21.5,0.1,32.2
	c0,1.1,0.2,3-0.3,3.2c-7.2,3.7-3.8,10.1-4,15.5c-0.3,6.6,0,6.7-7.2,6.8c-15.9,0.1-31.7,0-47.5,0c-8.4,0-8.3,0.1-8.2,8.3
	c0.1,12.4,0,24.9,0,37.3L374.1,230.7z"/>
<path class="st0" d="M414,277c-5.9,0-11.9-0.1-17.8,0c-3.8,0.1-5.6-1.1-5.8-5.2c-1.1-21.7-2.4-43.5-3.9-65.2
	c-0.3-4.3,0.6-6.3,5.4-6.1c10.5,0.2,20.9,0.1,31.4,0c4-0.1,6.1,1.1,6.5,5.6c2.1,21.1,4.6,42.1,6.8,63.2c0.8,7.6,0.6,7.6-7.4,7.7
	C424.2,277,419.1,277,414,277z"/>
<path class="st0" d="M266.2,239.4c0.5-11,1.3-22,1.5-33.1c0.1-4.5,1.8-5.9,6.1-5.8c10.5,0.2,20.9,0.2,31.4,0c4.3-0.1,6,1.4,5.9,5.9
	c-0.5,21.5-0.8,43-1,64.5c0,4-1,6.3-5.7,6.2c-11.3-0.2-22.7-0.2-34,0c-4.8,0.1-5.6-2.3-5.4-6.3c0.6-10.5,1.1-20.9,1.6-31.4
	L266.2,239.4z"/>
<path class="st0" d="M449.5,146.9c0-5.1,0.2-10.2,0-15.3c-0.1-3.7,1.2-5.3,4.9-4.9c2.9,0.3,6.8-1.1,6.9,3.9
	c0.3,11.3,0.5,22.7,0.7,33.9c0.1,4.6-3.6,3.4-6.2,3.5c-3,0.2-5.8,0.1-5.8-4.2c0.1-5.7,0-11.3,0-17L449.5,146.9z"/>
</svg>
