<?xml version="1.0" encoding="utf-8"?>
<!-- Generator: Adobe Illustrator 26.0.1, SVG Export Plug-In . SVG Version: 6.00 Build 0)  -->
<svg version="1.1" id="Layer_1" xmlns="http://www.w3.org/2000/svg" xmlns:xlink="http://www.w3.org/1999/xlink" x="0px" y="0px"
	 viewBox="0 0 900 150" style="enable-background:new 0 0 900 150;" xml:space="preserve">
<style type="text/css">
	.st0{fill:#DA0023;}
</style>
<g>
	<path class="st0" d="M316.9,129.8c-14.4,0-28.8,0.1-43.2,0c-4.1,0-8.2-0.6-11.7-2.9c-4.5-3.1-5.2-7.8-4.5-12.6
		c1.2-8.2,2.9-16.3,6-23.9c3.9-9.3,11.2-14.2,21-14.6c14.6-0.5,29.2-0.3,43.8-0.4c4.2-0.1,6-1.4,6.8-5.5c0.6-2.6,0-3.8-2.5-4.5
		c-1.1-0.3-2.3-0.4-3.3-0.4c-17.6,0-35.3,0-52.9,0c-2.8,0-2.9-0.2-2.2-2.7c0.8-3.6,1.7-7.1,2.5-10.6c0.4-1.5,1.1-2.2,2.9-2.2
		c24.1,0.1,48.1-0.1,72.3,0.2c4.6,0,9.3,0,13.8,1.7c6.1,2.3,9.3,6.6,9.5,13.2c0.2,5.8-1,11.3-2.3,16.8c-2.9,11.9-6,23.7-8.8,35.6
		c-0.9,3.7-1.7,7.3-0.3,11c0.6,1.7,0.2,2.3-1.7,2.2C346.7,129.8,331.9,129.8,316.9,129.8z M319.2,90.9c0-0.1,0-0.2,0-0.2
		c-3.9,0.2-7.7,0.4-11.5,0.6c-3,0.2-5.1,2-5.9,4.8c-1.2,4.2-2.3,8.3-3.1,12.5c-0.6,3.5,0.6,5.2,4.2,5.4c5.2,0.2,10.3,0.2,15.6,0
		c3.3-0.2,5.7-1.7,6.6-5c1.6-5.5,3-10.9,4.4-16.4c0.4-1.4-0.4-1.8-1.6-1.8C324.9,90.9,322,90.9,319.2,90.9z"/>
	<path class="st0" d="M261.7,20.1c-0.4,1.7-0.8,3.1-1.2,4.4c-0.8,2.9-1.7,5.8-2.5,8.7c-0.4,1.9-1.5,2.2-3.2,2.2
		c-12.4-0.1-24.8-0.1-37.2,0c-10.7,0-21.5,0-32.2,0.2c-5,0.1-7.7,2.2-9,7.1c-3.9,15-7.5,30.1-11.4,45.2c-1.5,6.1-3.1,12.3-4.5,18.5
		c-1.2,4.8,0.2,6.8,5,7.4c1.1,0.2,2.3,0.2,3.4,0.2c22.1,0,44.1,0,66.2,0c1,0,1.8,0,3,0c-0.1,1,0,1.6-0.2,2.2
		c-0.7,3.7-1.6,7.2-2.3,10.9c-0.3,1.5-1,2.3-2.7,2.3c-31.3-0.1-62.5-0.1-93.8-0.2c-3.9,0-7.7-0.8-11.1-2.8c-6-3.3-7.7-9.1-7.7-15.5
		c0-7.9,2.3-15.3,4.2-22.9c3.3-13,6.4-26,9.8-38.9c2-7.7,5.2-14.9,11-20.6c6.4-6.2,14.5-8.4,23.3-8.5c12.3-0.1,24.6,0,36.9-0.1
		c17.6,0,35.3,0,53,0C259.5,20.1,260.4,20.1,261.7,20.1z"/>
	<path class="st0" d="M385.2,129.5c8.6-9.8,9.5-22,12.5-33.3c4-14.9,7.5-29.9,11.2-44.8c0.4-1.7,1.1-2.1,2.8-2.1
		c11.7,0.1,23.3,0.1,34.9,0c1.8,0,2.3,0.6,1.9,2.3c-0.4,1.7-0.6,3.6-1,5.4c-0.2,0.6-0.2,1.2,0.2,2.1c0.6-0.5,1.1-1,1.6-1.4
		c5.5-5.6,12.2-8.3,20-8.3c7.9,0,15.8,0.1,23.7-0.1c1.7,0,2.5,0.4,2,2.3c-1.5,6-3.1,12-4.4,18.1c-0.4,1.5-1.2,1.9-2.5,1.9
		c-8.5-0.1-16.9-0.2-25.3,0c-3.3,0.1-6.8,0.4-10.1,0.9c-6.3,0.9-9.8,4.9-11.3,10.7c-2.8,10.9-5.4,21.8-8,32.6
		c-1,4.1-1.2,8.2,0.1,12.2c0.4,1.5-0.2,1.9-1.6,1.9c-14.9-0.1-29.7,0-44.6,0C386.6,129.8,386.1,129.8,385.2,129.5z"/>
	<path class="st0" d="M547.4,93.1c-0.3,0.8-0.6,1.5-1,2.3c-3.3,10.1-6.8,20.3-10.1,30.4c-0.6,1.7-1.4,2.5-3.2,2.3
		c-0.7-0.1-1.5,0-2.2,0c-5.3-0.1-4.2,0.6-5.2-4.2c-3.8-17.7-7.5-35.3-11.3-53.1c-0.6-2.5-0.3-2.7,2.2-2.8c2,0,3.9,0.1,5.9,0
		c1.7-0.2,2.5,0.5,2.9,2.4c2.1,11.8,4.2,23.5,6.4,35.3c0.1,0.4,0.2,0.9,0.9,1.3c0.2-0.7,0.4-1.4,0.6-2.1c2.9-10.6,6-21.2,8.9-31.8
		c0.6-2.1,1.9-3.7,4.1-4.1c2.2-0.4,4.3-0.1,5.6,1.9c0.6,1,1,2.2,1.4,3.3c2.6,10.1,5.2,20.3,7.7,30.4c0.2,0.6,0.4,1.4,0.6,2
		c0.2,0,0.4,0,0.6,0c0.2-0.8,0.4-1.6,0.6-2.5c2.1-11.2,4.2-22.5,6.1-33.8c0.3-1.8,1-2.5,2.9-2.5c1.8,0.2,3.7,0,5.5,0
		c2.9,0,2.9,0.2,2.3,2.9c-1.4,7.3-2.9,14.6-4.2,21.9c-2.1,11-4.2,22-6.3,33c-0.4,2-1.1,2.9-3.2,2.6c-1.6-0.2-3.3-0.2-4.8,0
		c-1.7,0.2-2.4-0.6-2.9-2.1c-3.1-10.4-6.4-20.8-9.6-31.2c-0.2-0.6-0.5-1.4-0.7-2C547.8,93.1,547.6,93.1,547.4,93.1z"/>
	<path class="st0" d="M748.7,98.6c0-9,0.1-17.9-0.1-26.8c0-2.1,0.6-2.8,2.7-2.6c2.5,0.2,5,0.2,7.5,0c1.8-0.1,2.4,0.6,2.3,2.4
		c-0.2,2.3,0,4.6-0.1,6.8c-0.1,1.4,0.5,2,1.9,2c2.4,0,4.8-0.2,7.1,0.2c2,0.2,4.1,0.9,6,1.7c2.3,1,3.6,3.1,3.6,5.6
		c0,12.6,0,25.3,0,38c0,1.4-0.6,2.1-2,2.1c-2.7-0.1-5.4-0.2-8.1,0c-2,0.2-2.5-0.7-2.5-2.6c0.1-11.3,0.1-22.6,0-33.9
		c0-1-0.2-2.9-0.6-2.9c-1.5-0.4-3.1-0.3-4.6-0.2c-0.4,0.1-0.7,1.4-0.7,2c-0.1,5.8-0.1,11.7-0.1,17.5c0,5.9-0.1,11.8,0,17.6
		c0,1.7-0.5,2.5-2.3,2.4c-2.5-0.2-5-0.2-7.5,0c-2,0.2-2.7-0.6-2.7-2.6C748.8,116.4,748.7,107.5,748.7,98.6z"/>
	<path class="st0" d="M625.9,107.9c0,6.1-0.1,12.3,0.1,18.4c0,1.7-0.6,2.4-2.3,2.3c-6-0.2-12-0.2-18-0.4c-1.5-0.1-3.1-0.9-4.5-1.7
		c-2-1.1-3.1-2.9-3-5.3c0.1-6.4,0-12.8,0-19.2c0-5,2.5-7.9,7.5-8.4c2.3-0.2,4.7-0.2,7.1-0.2c1.5,0,2-0.6,2-2.1c0-1.5-0.5-2-2-2
		c-3.6,0.1-7.1,0-10.7,0.1c-1.5,0-2.2-0.4-2.2-2.1c0.2-7-1-5.8,5.7-5.8c3.9-0.1,7.7-0.1,11.6,0c4.3,0.1,8,2.9,8.7,6.2
		c0.2,0.8,0.2,1.6,0.2,2.4C625.9,96,625.9,102,625.9,107.9z M609.4,110.9c0,2.1,0,4.4,0,6.5c0,3.6,0,3.6,3.7,3.3
		c1.4-0.1,1.7-0.6,1.7-1.8c0-5.3,0-10.6,0-16c0-2.4-1.7-1.7-3.1-1.7c-1.3-0.1-2.5,0-2.4,1.8C609.4,105.6,609.4,108.3,609.4,110.9z"
		/>
	<path class="st0" d="M649.6,95.4c0-7.8,0.1-15.6-0.1-23.3c0-2,0.6-2.7,2.5-2.5c2.5,0.2,5.2,0.1,7.7,0c1.7-0.1,2.3,0.6,2.2,2.3
		c-0.2,2.3,0.1,4.6-0.1,6.8c-0.1,1.5,0.4,2,2,2c3.2-0.1,6.4,0.1,9.5-0.1c1.8-0.1,2.3,0.6,2.3,2.4c-0.2,6.5,1,5.5-5.6,5.6
		c-2.1,0-4.2,0.1-6.4,0c-1.4,0-2,0.4-2,1.9c0.1,9.4,0.1,18.8,0,28.2c0,1.3,0.5,1.9,1.7,1.7c0.2,0,0.6,0,0.8,0c3.7,0,3.3,0.2,3.3-3.3
		c-0.1-2,0.6-2.6,2.5-2.5c2.7,0.2,5.4,0.1,8.1,0c1.3,0,1.7,0.5,1.8,1.7c0.4,5-1.5,8.3-6.1,10.3c-6.1,2.8-12.3,2.9-18.4,0.1
		c-4.1-1.8-6.5-4.7-6.4-9.5C649.9,110,649.6,102.7,649.6,95.4z"/>
	<path class="st0" d="M700,104.3c0-4.4,0.2-8.7-0.1-13c-0.2-3.7,1.5-6.4,4.4-8.3c5.3-3.6,14.4-3.3,19.5,0.5c3.3,2.5,4.2,6,3.7,9.8
		c-0.1,0.4-1,1.2-1.5,1.2c-2.6,0.2-5.2,0.1-7.9,0.1c-1.2,0-1.7-0.5-1.7-1.7c0-0.4,0-0.6,0-1c0-3.2-1.4-4.2-4.4-3.1
		c-0.6,0.2-1,1.4-1,2c-0.1,7.4-0.1,14.9-0.1,22.3c0,1.5-0.1,3,0.1,4.4c0.1,0.9,0.4,2.3,0.7,2.4c1.4,0.2,2.9,0.2,4.2-0.2
		c0.3-0.1,0.4-1.3,0.5-2c0.2-3.5,0.1-3.5,3.7-3.5c1.9,0,3.8,0.1,5.7,0c1.4-0.1,1.9,0.5,2,1.9c0.2,6.6-3.1,10.6-10.4,11.9
		c-5.2,1-10.3,0.3-14.5-3.4c-2-1.7-3-3.9-2.9-6.6C700.1,113.4,700,108.9,700,104.3z"/>
</g>
</svg>
