<?xml version="1.0" encoding="utf-8"?>
<!-- Generator: Adobe Illustrator 26.0.1, SVG Export Plug-In . SVG Version: 6.00 Build 0)  -->
<svg version="1.1" id="Layer_1" xmlns="http://www.w3.org/2000/svg" xmlns:xlink="http://www.w3.org/1999/xlink" x="0px" y="0px"
	 viewBox="0 0 900 150" style="enable-background:new 0 0 900 150;" xml:space="preserve">
<style type="text/css">
	.st0{fill:#C00506;}
</style>
<g>
	<path class="st0" d="M234.7,128.9c-13.6,0-27.4,0-41.1,0c-2.8,0.1-5.6-0.1-8.3-0.3c-6.9-0.9-9.3-3.3-10.5-10.1
		c-0.4-2.1-0.6-4.4-0.7-6.5c-0.3-17.8-0.6-35.7-0.8-53.6c0-3.2,0.2-6.3,0.6-9.4c0.7-5.2,3.3-7.9,8.5-8.4c5.2-0.6,10.3-0.7,15.5-0.7
		c25.4-0.2,50.8-0.2,76.2-0.3h0.6c12.8,0.1,16.3,2.7,16.7,15.4c0.7,21.3,0.8,42.5,0.7,63.7c0,7.9-2.6,10.2-10.5,10.4
		C266.1,129,250.4,128.8,234.7,128.9L234.7,128.9z M251.6,84.7h-0.2c0-6.7-0.2-13.5,0.1-20.2c0.1-3.5-1-5.1-4.8-5
		c-9.1,0.2-18.2,0.2-27.4,0c-3.8-0.1-4.8,1.5-4.7,5c0.3,13.6,0.6,27.4,0.9,41c0.1,2.7,0.9,4,3.8,4c9.5-0.2,19-0.2,28.6,0
		c2.9,0,3.8-1.1,3.8-4C251.6,98.6,251.6,91.6,251.6,84.7L251.6,84.7z"/>
	<path class="st0" d="M678,108.3c-7.9,0-14.8,0.1-21.7,0c-4.5-0.1-4.6-0.2-3.7-4.8c0.6-3.1,1.4-6.3,1.7-9.4c0.3-4,2.4-5.2,6.3-5
		c5.8,0.3,11.5,0,17.3,0.1c2.3,0,3.6-0.6,4-3.3c0.6-4.7,1.5-9.4,2.5-14c0.5-2.2-0.1-3.3-2.5-3.3c-8.9,0.1-17.8,0.1-26.8,0
		c-3.5-0.1-3.5,2.6-4,4.8c-2.1,10.1-4.2,20.2-6,30.3c-0.6,3.3-2.1,4.3-5.2,4.2c-11.1-0.2-22.2-0.1-33.3,0c-2.9,0-4.4-0.6-3.6-4
		c4.2-20.3,8.2-40.8,12.5-61.1c0.5-2.5,1.8-3.6,4.5-3.5c11.5,0.3,23,0.6,34.5,0.8c2.9,0.1,3.6,0.9,3,3.9c-1.2,5.7-1,5.8,5.1,5.8
		c17.4,0,34.9-0.1,52.4,0c6.1,0,5.2-1.1,7.9,5.4c4.1,10.2,5.2,20.2,2.3,31.2c-3.3,12.6-5.3,25.6-7.7,38.5c-0.7,3.6-2.1,5.2-6.2,5.2
		c-10.7-0.3-21.5-0.1-32.1-0.2c-4.8,0-5.2-0.3-4.2-5.2C675.7,119.5,676.8,114.2,678,108.3z"/>
	<path class="st0" d="M470.9,128c20.7-21.5,41.3-43.1,62-64.6l-0.3-1.3c-1.8-0.1-3.6-0.3-5.4-0.3c-15.1,0-30.1,0-45.2,0
		c-5.2,0-5.2-0.1-5.3-5.2c-0.1-3.3,0.2-6.7-0.1-10.1c-0.2-3.3,1.3-4,4.2-4c31.9,0.1,63.9,0.1,95.9,0c4.7,0,7.2,3.2,9.6,6.1
		c2.1,2.5-0.1,4.7-2,6.7c-7.7,8-15.3,16.1-22.9,24.2c-0.9,0.9-1.6,1.7-2.5,2.6c-2.8,2.5-2.6,4.8-0.1,7.6c9,10,17.8,20.2,26.8,30.3
		c2.3,2.7,4.6,5.3,7.5,8.6c-2,0.4-3.2,0.9-4.4,0.9c-11.7,0.1-23.4-0.1-35.1,0.1c-2.8,0.2-5.5-1.1-7.1-3.3c-3.6-4.4-7.5-8.7-11.3-13
		c-2.9-3.3-3.6-3.3-6.7-0.3c-4.5,4.5-8.8,9.1-13.4,13.6c-1.3,1.3-3.3,2.8-4.9,2.9c-12.8,0.2-25.7,0.2-38.5,0.2L470.9,128z"/>
	<path class="st0" d="M397.4,96.5c0,9.4-0.2,18.6,0.1,28c0.1,3.3-0.8,4.6-4.3,4.5c-8.6-0.2-17.1-0.2-25.6,0c-3.3,0.1-4.5-1-4.5-4.4
		c-0.2-16.8-0.6-33.7-1-50.6c0-1,0-2-0.1-2.9c-0.2-6-0.2-6-6.5-6c-9.9,0-19.8,0-29.7,0c-6.3,0-6.3-0.1-6.3-6c0-4,0.2-7.9,0.3-11.8
		c4-0.3,8.2-0.7,12.3-0.8c8.3-0.2,16.7-0.2,25,0c3.3,0.1,4.8-1.1,4.4-4.4c-0.2-1,0-2,0-2.9c-0.1-2.1,0.9-3.3,3.2-3.3
		c9.5,0,19.1,0,28.6,0c2.6,0,2.7,1.6,2.8,3.5c0.5,7.1,0.5,7.1,7.5,7.1c8.8,0,17.4,0,26.3,0c5.3,0,5.3-0.1,5.3-5.6s0-11.2-0.2-16.7
		c-0.2-3.3,1.4-4,4.4-4c2.9,0.1,4.5,0.5,4.4,3.9c-0.2,7.5,0.1,15.1,0.1,22.6c0,0.8,0.2,2.1-0.2,2.2c-5.1,2.6-2.7,7.1-2.8,10.9
		c-0.2,4.6,0,4.7-5.1,4.8c-11.2,0.1-22.2,0-33.3,0c-5.9,0-5.8,0.1-5.8,5.8c0.1,8.7,0,17.4,0,26.2L397.4,96.5z"/>
	<path class="st0" d="M425.4,129c-4.1,0-8.3-0.1-12.5,0c-2.7,0.1-4-0.8-4-3.6c-0.8-15.2-1.7-30.5-2.7-45.8c-0.2-3,0.4-4.4,3.8-4.3
		c7.4,0.2,14.7,0.1,22,0c2.8-0.1,4.3,0.8,4.5,4c1.5,14.8,3.3,29.5,4.8,44.3c0.6,5.3,0.4,5.3-5.2,5.4C432.5,129,429,129,425.4,129z"
		/>
	<path class="st0" d="M321.7,102.6c0.3-7.7,0.9-15.5,1-23.2c0.1-3.2,1.3-4.1,4.3-4c7.4,0.2,14.7,0.2,22,0c3-0.1,4.2,1,4.1,4.1
		c-0.3,15.1-0.6,30.1-0.7,45.2c0,2.8-0.7,4.4-4,4.4c-7.9-0.2-15.9-0.2-23.9,0c-3.3,0.1-4-1.6-3.8-4.4c0.4-7.4,0.8-14.7,1.1-22
		L321.7,102.6L321.7,102.6z"/>
	<path class="st0" d="M450.2,37.7c0-3.6,0.2-7.1,0-10.7c-0.1-2.6,0.9-3.7,3.4-3.4c2.1,0.2,4.8-0.8,4.8,2.7
		c0.2,7.9,0.3,15.9,0.5,23.8c0.1,3.3-2.5,2.4-4.4,2.5c-2.1,0.2-4,0.1-4-2.9c0.1-4,0-7.9,0-11.9L450.2,37.7z"/>
</g>
</svg>
