<?xml version="1.0" encoding="utf-8"?>
<!-- Generator: Adobe Illustrator 26.0.1, SVG Export Plug-In . SVG Version: 6.00 Build 0)  -->
<svg version="1.1" id="Layer_1" xmlns="http://www.w3.org/2000/svg" xmlns:xlink="http://www.w3.org/1999/xlink" x="0px" y="0px"
	 viewBox="0 0 900 150" style="enable-background:new 0 0 900 150;" xml:space="preserve">
<style type="text/css">
	.st0{fill:none;stroke:#000000;stroke-width:9;stroke-miterlimit:10;}
</style>
<path d="M279,92.6c-4.4,0.1-8.8-0.5-13.1-1.7c-3.4-1-6.7-2.6-9.5-4.8c-2.6-2-4.7-4.5-6.2-7.3c-1.6-2.9-2.6-6.1-3.2-9.4h14.1
	c0.5,2,1.2,4,2.1,5.8c0.9,1.8,2.1,3.3,3.6,4.7c1.5,1.4,3.2,2.4,5.1,3.1c2.2,0.8,4.5,1.2,6.9,1.1c1.7,0,3.4-0.2,5.1-0.5
	c1.6-0.3,3.2-0.9,4.6-1.8c1.3-0.8,2.4-1.9,3.2-3.2c0.9-1.5,1.3-3.2,1.2-4.9c0-2.3-0.6-4.6-1.9-6.5c-1.4-2-3.1-3.8-5-5.2
	c-2.2-1.7-4.6-3.1-7.1-4.4c-2.7-1.3-5.4-2.7-8.1-4.1s-5.5-2.8-8.1-4.3c-2.5-1.4-4.9-3.1-7.1-5.1c-2-1.8-3.7-3.9-5-6.3
	c-1.3-2.5-1.9-5.2-1.9-8c0-3.2,0.7-6.3,2.2-9.1c1.5-2.9,3.6-5.4,6.2-7.3c3-2.2,6.4-3.8,10-4.8c4.4-1.2,9-1.8,13.5-1.7
	c3.8-0.1,7.7,0.5,11.3,1.7c3.2,1.1,6.3,2.7,9,4.7c2.6,2,4.8,4.4,6.5,7.1c1.7,2.7,3.1,5.6,4,8.7h-12.8c-0.7-1.9-1.6-3.8-2.6-5.6
	c-0.9-1.8-2.2-3.3-3.6-4.7c-1.5-1.4-3.3-2.5-5.2-3.2c-2.3-0.8-4.8-1.2-7.3-1.2c-2.3-0.1-4.5,0.3-6.7,1c-1.6,0.6-3.1,1.5-4.4,2.7
	c-1.1,1-1.9,2.2-2.4,3.6c-0.5,1.2-0.7,2.6-0.7,3.9c0,2.2,0.7,4.3,2,6c1.5,1.9,3.2,3.6,5.2,5c2.3,1.7,4.8,3.1,7.3,4.4
	c2.7,1.4,5.5,2.8,8.4,4.3c2.8,1.4,5.6,2.9,8.4,4.5c2.6,1.5,5.1,3.2,7.3,5.2c2.1,1.8,3.8,3.9,5.2,6.2c1.3,2.4,2,5,2,7.7
	c0,3.3-0.7,6.5-2.1,9.4c-1.4,3-3.6,5.6-6.2,7.6c-3.1,2.3-6.5,4-10.2,5.1C288.5,92,283.8,92.6,279,92.6z"/>
<path d="M386.5,8.3v7.1h-41.6v27.4h34.6v7.1h-34.6v32.9h41.6v8.5h-62v-83H386.5z"/>
<path d="M393.9,8.3h13l47.3,52.8V8.3H467v84.2h-8.8l-51.4-58.3v57h-12.9V8.3z"/>
<path d="M511.9,92.6c-4.4,0.1-8.8-0.5-13.1-1.7c-3.4-1-6.7-2.6-9.5-4.8c-2.6-2-4.7-4.5-6.2-7.3c-1.6-2.9-2.7-6.1-3.2-9.4H494
	c0.5,2,1.2,4,2.1,5.8c0.9,1.8,2.1,3.3,3.6,4.7c1.5,1.4,3.2,2.4,5.1,3.1c2.2,0.8,4.5,1.2,6.9,1.1c1.7,0,3.4-0.2,5.1-0.5
	c1.6-0.3,3.2-0.9,4.6-1.8c1.3-0.8,2.4-1.9,3.2-3.2c0.9-1.5,1.3-3.2,1.2-4.9c0-2.3-0.6-4.6-1.9-6.5c-1.4-2-3.1-3.8-5-5.2
	c-2.2-1.7-4.6-3.1-7.1-4.4c-2.7-1.3-5.4-2.7-8.1-4.1c-2.8-1.4-5.5-2.8-8.1-4.3c-2.5-1.4-4.9-3.1-7.1-5.1c-2-1.8-3.7-3.9-5-6.3
	c-1.3-2.5-1.9-5.2-1.9-8c0-3.2,0.7-6.3,2.2-9.1c1.5-2.9,3.6-5.4,6.2-7.3c3-2.2,6.4-3.8,10-4.8c4.4-1.2,9-1.8,13.5-1.7
	c3.8-0.1,7.7,0.5,11.3,1.7c3.2,1.1,6.3,2.7,9,4.7c2.6,2,4.8,4.4,6.5,7.1c1.7,2.7,3.1,5.6,4,8.7h-12.8c-0.7-1.9-1.6-3.8-2.6-5.6
	c-0.9-1.8-2.2-3.3-3.6-4.7c-1.5-1.4-3.3-2.5-5.2-3.2c-2.3-0.8-4.8-1.2-7.3-1.2c-2.3-0.1-4.5,0.3-6.7,1c-1.6,0.6-3.1,1.5-4.4,2.7
	c-1.1,1-1.9,2.2-2.4,3.6c-0.5,1.2-0.7,2.6-0.7,3.9c0,2.2,0.7,4.3,1.9,6c1.5,1.9,3.2,3.6,5.2,5c2.3,1.7,4.8,3.1,7.3,4.4
	c2.7,1.4,5.5,2.8,8.4,4.3c2.8,1.4,5.6,2.9,8.4,4.5c2.6,1.5,5,3.2,7.3,5.2c2.1,1.8,3.8,3.9,5.2,6.2c1.3,2.4,2,5,2,7.7
	c0,3.3-0.7,6.5-2.1,9.5c-1.4,3-3.6,5.6-6.2,7.6c-3.1,2.3-6.5,4-10.2,5.1C521.3,92,516.6,92.6,511.9,92.6z"/>
<path d="M626.6,6.6l38.9,84.7h-20.8l-10.4-22.6h-32.2l-10.9,22.6h-13.8l40.5-84.7H626.6z M605.9,61h25l-12.3-26.8L605.9,61z"/>
<path d="M671.6,8.3h20.3v83h-20.3V8.3z"/>
<path d="M777.6,8.3v7.1h-28.7v75.9h-20.3V15.4h-28.8V8.3H777.6z"/>
<path d="M345.6,117.6c0-1.1,0-2.2-0.1-3.3h2.9c-0.1,1.1-0.2,2.2-0.2,3.3v5.2l10.8-1.3c0.7,0,1.4-0.2,2-0.5l1.7,1.5
	c-0.2,0.3-0.4,0.7-0.6,1c-0.7,1.6-1.6,3.2-2.7,4.6c-1.7,2.1-3.8,4-6.1,5.6c-0.6-0.7-1.3-1.3-2.1-1.7c3.9-2.3,6.5-5,8.1-8.3
	c-0.3,0.1-0.5,0.1-0.8,0.2c-0.1,0-0.2,0-0.4,0.1c-5,0.7-5.9,0.7-9.9,1.3v8.4c0,3.3,0.1,4.1,0.9,4.7s2.2,0.9,5.2,0.9
	c3.5,0,7-0.4,10.4-1.2l0.2,2.9c-1,0-1.2,0.1-2.1,0.2c-2.8,0.4-5.6,0.6-8.4,0.6c-4.1,0-6.1-0.5-7.3-1.7c-1.1-1.2-1.3-2.2-1.3-5.9
	v-8.6l-4.3,0.6c-1.2,0.1-2.3,0.3-3.5,0.6l-0.3-2.7h0.5c0.6,0,1.8-0.1,3.1-0.2l4.5-0.6L345.6,117.6z"/>
<path d="M369.7,139c3.6-0.3,7.1-1.2,10.4-2.7c6.9-3.1,11.7-8.3,14.5-15.8c0.6,0.8,1.3,1.6,2.2,2.1c-2.8,6.2-6.2,10.4-10.9,13.6
	c-3.7,2.5-7.3,4-13.3,5.3c-0.7,0.1-1.4,0.3-2.1,0.6L369.7,139z M372.5,116.5c2.9,2.2,5.5,4.8,7.7,7.7l-2.1,2c-2.1-3-4.7-5.7-7.6-7.9
	L372.5,116.5z"/>
<path d="M418.9,121.1v-3.5c0.1-1.2,0-2.4-0.1-3.6h2.8c-0.1,1.1-0.2,2.2-0.1,3.3v3.7h3.1c1.4,0,2.8,0,4.2-0.2v2.7
	c-1.4-0.1-2.8-0.2-4.1-0.2h-3.1c-0.1,7.2-0.4,9.5-1.7,12.1c-1.3,2.5-3.4,4.5-5.8,5.9c-1.3,0.7-2.7,1.3-4.1,1.8
	c-0.4-0.9-0.9-1.6-1.6-2.2c2.5-0.6,4.8-1.8,6.8-3.5c2.5-2.2,3.5-4.6,3.8-8.9c0.1-1.1,0.1-2.2,0.1-5.1H408v6c0,1,0,1.9,0.1,2.9h-2.9
	c0.1-1,0.2-2,0.1-3v-5.8h-3c-1.4,0-2.8,0-4.1,0.2v-2.7c1.4,0.2,2.8,0.2,4.2,0.2h3V117c0-1,0-2-0.1-3h2.9c-0.1,1-0.2,1.9-0.1,2.9v4.2
	L418.9,121.1z"/>
<path d="M456.5,115.5c-0.6,0.4-1.1,0.9-1.6,1.5c-2.6,2.6-5.4,5-8.3,7.2v15.2c0,1.3,0,2.5,0.2,3.8h-3.1c0.2-1.2,0.3-2.5,0.2-3.7
	v-13.5c-4.6,2.8-7.2,4-13.8,6.2c-0.3-0.9-0.8-1.7-1.4-2.4c6.7-1.8,13-4.9,18.5-9.2c3.3-2.6,5.8-5.1,6.8-6.7L456.5,115.5z"/>
<path d="M464.2,143.1c0.2-1.2,0.2-2.5,0.2-3.7v-22.1c0-1.2,0-2.4-0.2-3.6h3.1c-0.2,1.2-0.2,2.5-0.2,3.7v6.7c5.5,2,10.8,4.5,15.8,7.5
	l-1.6,2.6c-4.2-2.8-8.6-5.1-13.3-7c-0.4-0.1-0.8-0.3-1.1-0.6l-0.1,0c0.1,0.7,0.2,1.4,0.1,2.1v10.7c0,1.3,0,2.5,0.2,3.8L464.2,143.1z
	"/>
<path d="M501,128.5c0,1.6-1.3,2.9-2.9,2.9c-1.6,0-2.9-1.3-2.9-2.9c0-1.6,1.3-2.9,2.9-2.9c0,0,0,0,0,0
	C499.7,125.6,501,126.9,501,128.5z"/>
<path d="M536,117.1c-0.1-0.3-0.1-0.7-0.1-1c0-2.2,1.8-4.1,4-4.1c2.2,0,4.1,1.8,4.1,4c0,2.2-1.8,4.1-4,4.1c0,0,0,0,0,0
	c-0.4,0-0.8-0.1-1.2-0.2l-0.1,0.2c-1.7,6.3-4,10.8-7.3,14.2c-3.6,3.8-8,6.7-13,8.4c-0.4-0.9-1-1.8-1.7-2.5
	c9.9-2.7,17.3-10.7,19.2-20.8h-18.1c-1.3,0-2.7,0-4,0.2v-2.8c1.3,0.2,2.7,0.2,4,0.2L536,117.1L536,117.1z M537.3,116
	c0,1.4,1.1,2.6,2.5,2.6c1.4,0,2.6-1.1,2.6-2.5c0-1.4-1.1-2.6-2.5-2.6c0,0,0,0,0,0C538.5,113.5,537.4,114.7,537.3,116L537.3,116z"/>
<path d="M549.2,139.1v2.5h-2.7c0.1-0.9,0.2-1.8,0.1-2.7v-19.3c0-0.9,0-1.9-0.1-2.8c0.9,0.1,1.8,0.1,2.8,0.1h19c0.9,0,1.9,0,2.8-0.1
	c-0.1,0.9-0.1,1.9-0.1,2.8v19.3c0,1.1,0,2,0.1,2.7h-2.7v-2.5H549.2z M568.2,119.3h-19.1v17.5h19.1V119.3z"/>
<path d="M578,123.3c3.1,1.3,6.2,2.8,9,4.6l-1.4,2.5c-2.8-2-5.9-3.7-9.1-4.9L578,123.3z M577.1,139.6h0.2c2,0,6-0.9,9.4-2.2
	c6.9-2.5,12.4-8.4,15-16c0.6,0.7,1.4,1.4,2.2,1.9c-4.5,10.8-11.8,16.4-24.6,18.8c-0.5,0.1-0.9,0.2-1.4,0.4L577.1,139.6z
	 M580.8,114.8c3.1,1.2,6,2.7,8.8,4.5l-1.5,2.4c-2.7-2-5.7-3.5-8.8-4.7L580.8,114.8z M599.5,113.1c1.4,1.7,2.6,3.5,3.6,5.5l-1.8,1.1
	c-1-2-2.2-3.9-3.6-5.7L599.5,113.1z M603.5,111.2c1.5,1.7,2.7,3.5,3.7,5.5l-1.8,1c-1-2-2.2-3.9-3.7-5.6L603.5,111.2z"/>
<path d="M620.5,139.9h7.6c1.1,0,2.1,0,3.2-0.2v2.5c-1.1-0.1-2.2-0.2-3.2-0.1h-17.2c-1.1,0-2.2,0-3.2,0.1v-2.5
	c1.1,0.2,2.1,0.3,3.2,0.2h7.2v-12.3H613c-1.1,0-2.1,0-3.2,0.1v-2.5c1,0.2,2.1,0.2,3.2,0.2h13c1.1,0,2.1-0.1,3.2-0.2v2.5
	c-1-0.1-2.1-0.2-3.1-0.1h-5.5L620.5,139.9z"/>
<path d="M649.7,113.7c-0.3,0.5-0.6,0.9-0.8,1.5c-0.5,1.1-1,2.1-1.6,3.2c0.5-0.1,0.5-0.1,10.8-0.3c0.6,0.1,1.3,0,1.9-0.2l1.6,1.5
	c-0.3,0.4-0.3,0.5-0.7,1.7c-1.4,4.9-3.9,9.5-7.1,13.4c-3.4,3.8-7.7,6.9-12.4,8.9c-0.4-0.8-1-1.6-1.8-2.1c4.9-1.9,9.2-5,12.6-9
	c2.8-3.5,4.9-7.6,6.1-11.9l-12,0.2c-2.2,3.6-5.1,6.7-8.5,9.3c-0.5-0.8-1.2-1.4-2-1.9c3.8-2.4,6.8-5.8,8.9-9.8c1.3-2.3,2.1-4,2.2-5.2
	L649.7,113.7z"/>
<path d="M669.4,143.1c0.2-1.2,0.2-2.5,0.2-3.7v-22.1c0-1.2,0-2.4-0.2-3.6h3.1c-0.2,1.2-0.2,2.5-0.2,3.7v6.7c5.5,2,10.8,4.5,15.8,7.5
	l-1.6,2.6c-4.2-2.8-8.6-5.1-13.3-7c-0.4-0.1-0.8-0.3-1.1-0.6l-0.1,0c0.1,0.7,0.2,1.4,0.1,2.1v10.7c0,1.3,0,2.5,0.2,3.8L669.4,143.1z
	"/>
<polyline class="st0" points="562.4,32.7 574.2,48.8 561.5,62.3 "/>
<polyline class="st0" points="174.6,10.2 122.4,54.9 147,84.7 "/>
<polyline class="st0" points="189.5,10.2 137.3,54.9 161.9,84.7 "/>
<polyline class="st0" points="204.4,10.2 152.2,54.9 176.8,84.7 "/>
<polyline class="st0" points="171.6,128.7 223.7,84 199.1,54.2 "/>
<polyline class="st0" points="156.7,128.7 208.8,84 184.2,54.2 "/>
<polyline class="st0" points="141.8,128.7 193.9,84 169.3,54.2 "/>
</svg>
