<?xml version="1.0" encoding="utf-8"?>
<!-- Generator: Adobe Illustrator 26.0.1, SVG Export Plug-In . SVG Version: 6.00 Build 0)  -->
<svg version="1.1" id="Layer_1" xmlns="http://www.w3.org/2000/svg" xmlns:xlink="http://www.w3.org/1999/xlink" x="0px" y="0px"
	 viewBox="0 0 900 400" style="enable-background:new 0 0 900 400;" xml:space="preserve">
<style type="text/css">
	.st0{fill:#DA0023;}
</style>
<g>
	<path class="st0" d="M459.3,220.4c-23.5,0-47,0.1-70.5,0c-6.7,0-13.3-0.9-19-4.8c-7.4-5-8.5-12.7-7.4-20.6
		c1.9-13.3,4.6-26.5,9.8-39c6.3-15.2,18.2-23.2,34.3-23.8c23.8-0.8,47.6-0.5,71.4-0.7c6.8-0.1,9.7-2.3,11.1-8.9c1-4.3,0-6.2-4.2-7.4
		c-1.8-0.5-3.7-0.7-5.5-0.7c-28.8,0-57.6,0-86.3,0c-4.5,0-4.6-0.2-3.6-4.4c1.3-5.8,2.8-11.6,4.1-17.4c0.6-2.5,1.8-3.6,4.6-3.6
		c39.3,0.1,78.5-0.1,117.8,0.2c7.5,0,15.2,0,22.5,2.7c10,3.8,15.1,10.8,15.5,21.5c0.3,9.4-1.6,18.4-3.8,27.4
		c-4.7,19.4-9.7,38.7-14.4,58c-1.4,5.9-2.7,11.9-0.5,17.9c1,2.8,0.2,3.7-2.8,3.6C508,220.3,483.7,220.4,459.3,220.4z M463,156.9
		c0-0.1,0-0.2,0-0.3c-6.3,0.4-12.5,0.6-18.8,1.1c-4.9,0.4-8.3,3.2-9.6,7.8c-1.9,6.8-3.7,13.6-5.1,20.5c-1.1,5.7,1.1,8.6,6.8,8.8
		c8.5,0.3,16.9,0.3,25.4,0c5.3-0.2,9.3-2.9,10.8-8.2c2.6-8.9,4.9-17.8,7.2-26.7c0.6-2.2-0.6-3-2.6-3
		C472.4,156.9,467.7,156.9,463,156.9z"/>
	<path class="st0" d="M369.2,41.4c-0.7,2.8-1.3,5-1.9,7.2c-1.3,4.8-2.9,9.5-4,14.3c-0.7,3.1-2.5,3.6-5.2,3.6
		c-20.2-0.1-40.4-0.1-60.6,0c-17.5,0-35.1,0-52.6,0.3c-8.2,0.1-12.6,3.6-14.7,11.7c-6.3,24.5-12.3,49.1-18.5,73.7
		c-2.5,10-5,20.1-7.4,30.2c-1.9,7.8,0.4,11,8.2,12.1c1.8,0.3,3.7,0.3,5.6,0.3c36,0,71.9,0,107.9,0c1.5,0,3,0,4.9,0
		c-0.1,1.5,0,2.6-0.2,3.6c-1.2,5.9-2.6,11.8-3.8,17.8c-0.5,2.5-1.5,3.7-4.4,3.7c-51-0.1-101.9-0.1-152.9-0.2
		c-6.3,0-12.5-1.3-18.1-4.5c-9.8-5.5-12.5-14.8-12.5-25.3c0-12.8,3.7-25,6.8-37.3c5.3-21.2,10.4-42.4,16-63.4
		c3.3-12.6,8.6-24.4,18-33.7c10.5-10.4,23.7-14,38.1-14.1c20.1-0.1,40.1,0,60.2-0.1c28.8,0,57.6,0,86.4,0
		C365.8,41.4,367.2,41.4,369.2,41.4z"/>
	<path class="st0" d="M570.7,219.9c14-16.1,15.4-35.9,20.4-54.3c6.5-24.3,12.2-48.7,18.2-73.1c0.6-2.7,1.8-3.5,4.5-3.5
		c19,0.1,37.9,0.1,56.9,0c3,0,3.7,1.1,3.1,3.7c-0.6,2.9-1.1,5.8-1.5,8.8c-0.2,1-0.2,2,0.4,3.4c0.9-0.8,1.8-1.5,2.6-2.3
		c9-9.1,19.9-13.5,32.7-13.6c12.9,0,25.8,0.1,38.7-0.1c2.9,0,4.1,0.6,3.3,3.7c-2.5,9.8-5,19.6-7.3,29.5c-0.6,2.4-1.9,3.1-4.2,3.1
		c-13.8-0.1-27.6-0.2-41.3,0c-5.5,0.1-11,0.6-16.4,1.4c-10.2,1.4-16,8-18.4,17.5c-4.5,17.7-8.8,35.5-13.1,53.2
		c-1.6,6.6-1.9,13.3,0.1,19.9c0.7,2.4-0.2,3.1-2.6,3.1c-24.3-0.1-48.5,0-72.8,0C573,220.4,572.2,220.2,570.7,219.9z"/>
	<path class="st0" d="M284.8,306.6c-0.5,1.3-1.1,2.5-1.5,3.8c-5.5,16.5-11.1,33-16.5,49.6c-0.9,2.8-2.3,4.1-5.2,3.7
		c-1.2-0.1-2.4,0-3.6,0c-8.7-0.1-6.9,0.9-8.6-6.9c-6.2-28.9-12.3-57.7-18.4-86.6c-0.9-4-0.5-4.4,3.6-4.5c3.2,0,6.4,0.1,9.6,0
		c2.9-0.2,4.2,0.8,4.8,3.9c3.4,19.2,6.9,38.4,10.5,57.5c0.1,0.7,0.4,1.4,1.4,2.1c0.4-1.2,0.7-2.3,1.1-3.5
		c4.8-17.3,9.7-34.6,14.5-51.9c1-3.5,3.1-5.9,6.7-6.6c3.6-0.7,7-0.1,9.1,3.1c1.1,1.6,1.7,3.6,2.2,5.5c4.3,16.5,8.4,33.1,12.6,49.6
		c0.3,1.1,0.7,2.2,1,3.2c0.3,0,0.6,0,0.9,0c0.3-1.3,0.7-2.6,0.9-4c3.4-18.3,6.8-36.6,10-55c0.5-3,1.7-4.2,4.8-4c3,0.2,6,0,8.9,0
		c4.6,0,4.7,0.2,3.8,4.7c-2.3,11.9-4.6,23.8-6.9,35.7c-3.4,18-6.9,35.9-10.2,53.9c-0.6,3.2-1.8,4.6-5.2,4.3c-2.6-0.3-5.3-0.2-7.9,0
		c-2.7,0.2-3.9-1-4.6-3.5c-5.1-17-10.4-33.9-15.7-50.9c-0.3-1.1-0.8-2.2-1.2-3.3C285.4,306.6,285.1,306.6,284.8,306.6z"/>
	<path class="st0" d="M613.1,315.6c0-14.6,0.1-29.1-0.1-43.7c0-3.4,1.1-4.5,4.4-4.3c4.1,0.2,8.2,0.2,12.2,0c3-0.1,3.9,1.1,3.8,3.9
		c-0.2,3.7,0,7.5-0.1,11.2c-0.1,2.3,0.8,3.2,3.1,3.2c3.9,0,7.8-0.2,11.6,0.3c3.3,0.4,6.7,1.4,9.7,2.8c3.8,1.7,5.8,5,5.8,9.2
		c0,20.6,0,41.2,0,61.9c0,2.3-0.9,3.4-3.3,3.4c-4.4-0.1-8.8-0.2-13.2,0c-3.3,0.2-4.1-1.2-4.1-4.3c0.1-18.4,0.1-36.8,0-55.3
		c0-1.7-0.2-4.6-0.9-4.8c-2.4-0.6-5-0.5-7.5-0.2c-0.6,0.1-1.2,2.2-1.2,3.3c-0.1,9.5-0.1,19-0.1,28.5c0,9.6-0.1,19.2,0,28.8
		c0,2.8-0.8,4-3.8,3.9c-4.1-0.2-8.2-0.2-12.2,0c-3.3,0.2-4.4-0.9-4.4-4.3C613.2,344.7,613.1,330.1,613.1,315.6z"/>
	<path class="st0" d="M412.9,330.8c0,10-0.1,20.1,0.1,30.1c0,2.9-0.9,3.9-3.8,3.8c-9.8-0.3-19.6-0.3-29.4-0.7
		c-2.5-0.1-5.1-1.4-7.4-2.7c-3.3-1.8-5-4.8-4.9-8.7c0.1-10.5,0-20.9,0-31.4c0-8.2,4.1-12.9,12.3-13.7c3.8-0.4,7.7-0.3,11.6-0.3
		c2.5,0,3.2-1.1,3.2-3.4c0-2.4-0.8-3.3-3.3-3.3c-5.8,0.1-11.7,0-17.5,0.1c-2.5,0-3.6-0.7-3.6-3.4c0.3-11.4-1.7-9.4,9.3-9.5
		c6.3-0.1,12.6-0.1,18.9,0c7,0.1,13.1,4.6,14.3,10.1c0.3,1.3,0.3,2.6,0.3,3.9C412.9,311.4,412.9,321.1,412.9,330.8z M385.8,335.7
		c0,3.5,0,7.1,0,10.6c0,5.8,0,5.8,5.9,5.5c2.2-0.1,2.9-1,2.9-3c0-8.7,0-17.4,0-26.1c0-3.9-2.9-2.8-5-2.9c-2.1-0.1-4,0-3.9,3
		C385.9,327.1,385.8,331.4,385.8,335.7z"/>
	<path class="st0" d="M451.5,310.3c0-12.7,0.1-25.4-0.1-38c0-3.2,1.1-4.4,4.2-4.2c4.2,0.2,8.4,0.1,12.6,0c2.7-0.1,3.7,1.1,3.6,3.8
		c-0.2,3.7,0.1,7.5-0.1,11.2c-0.1,2.4,0.7,3.3,3.2,3.3c5.2-0.1,10.4,0.1,15.5-0.1c3-0.1,3.8,1.1,3.8,3.9c-0.3,10.6,1.5,9-9.1,9.1
		c-3.4,0-6.8,0.1-10.3,0c-2.2,0-3.2,0.7-3.2,3.1c0.1,15.3,0.1,30.7,0,46c0,2.1,0.8,3.1,2.9,2.8c0.4,0,0.9,0,1.3,0
		c6.1,0,5.5,0.4,5.3-5.3c-0.1-3.2,1-4.3,4.2-4.2c4.4,0.2,8.8,0.1,13.2,0c2.1,0,2.9,0.8,3,2.9c0.6,8.2-2.5,13.5-10,16.9
		c-10,4.5-20.1,4.6-30.1,0.1c-6.6-3-10.6-7.6-10.3-15.6C451.8,334.2,451.5,322.2,451.5,310.3z"/>
	<path class="st0" d="M533.7,324.8c0-7.1,0.2-14.1-0.1-21.2c-0.2-6.1,2.5-10.3,7.3-13.5c8.7-5.8,23.5-5.4,31.9,0.8
		c5.5,4.1,6.8,9.8,6.1,16.1c-0.1,0.7-1.6,1.9-2.4,1.9c-4.3,0.2-8.6,0.1-12.9,0.1c-2,0-2.9-0.8-2.8-2.8c0-0.6,0-1.1,0-1.7
		c0-5.2-2.2-6.8-7.1-5.1c-0.9,0.3-1.6,2.2-1.6,3.3c-0.1,12.1-0.1,24.3-0.1,36.4c0,2.4-0.1,4.9,0.1,7.3c0.1,1.4,0.6,3.8,1.2,3.9
		c2.2,0.4,4.6,0.2,6.8-0.2c0.5-0.1,0.7-2.1,0.8-3.3c0.2-5.7,0.1-5.7,5.9-5.7c3.1,0,6.2,0.1,9.3,0c2.2-0.1,3.1,0.8,3.2,3.1
		c0.4,10.7-5,17.3-17,19.4c-8.5,1.5-16.8,0.5-23.6-5.6c-3.2-2.9-4.9-6.3-4.8-10.8C533.8,339.8,533.7,332.3,533.7,324.8z"/>
</g>
</svg>
