<?xml version="1.0" encoding="utf-8"?>
<!-- Generator: Adobe Illustrator 26.0.1, SVG Export Plug-In . SVG Version: 6.00 Build 0)  -->
<svg version="1.1" id="Layer_1" xmlns="http://www.w3.org/2000/svg" xmlns:xlink="http://www.w3.org/1999/xlink" x="0px" y="0px"
	 viewBox="0 0 900 150" style="enable-background:new 0 0 900 150;" xml:space="preserve">
<style type="text/css">
	.st0{fill:#04499E;}
</style>
<g>
	<path class="st0" d="M557.6,129.9c-13.9,0-27.7-0.2-41.6,0.1c-14,0.3-20.1-9.5-20.7-20.1c-0.5-10.3,2.6-19.8,5.3-29.5
		c5.1-18.2,10.6-36.3,15.7-54.4c1.1-4,3.4-5.7,7.6-5.7c7.5,0.1,15-0.1,22.5,0c4.3,0,5,1,3.8,5.3c-6.3,23.1-12.7,46.2-19.1,69.2
		c-0.3,1-0.7,2.1-0.9,3.2c-1.2,5.3,0.6,7.8,6.1,8.2c8.2,0.7,10.5-1.1,12.4-9c6-24.2,12.1-48.3,18-72.5c0.8-3,2.3-4.7,5.6-4.7
		c7.2,0.2,14.5,0.2,21.7,0.2c3.1,0,3,1.9,2.3,4c-5.2,19.1-10.5,38.3-15.7,57.4c-1.5,5.4-3.2,11-4.7,16.5c-1.6,5.9-0.2,7.7,5.8,8.3
		c8.5,0.8,10.4-0.4,12.7-8.4c6.6-23.9,13.1-47.8,19.5-71.8c1.3-4.9,2.3-5.8,7.5-5.8c7.9,0,15.7-0.1,23.6-0.1c2.2,0,3.7,0.4,3,3.2
		c-5.7,20.7-11.2,41.3-17,62c-2.7,9.4-5.4,18.8-9,27.9c-4.5,12-11.4,16.3-24.3,16.3L557.6,129.9z"/>
	<path class="st0" d="M430.9,129.8c-12.1,0-24.2,0.1-36.4,0c-10.1-0.1-18.6-5.9-20-14.6c-0.8-4.4-0.1-9.1,0.5-13.7
		c2.9-22.1,10.2-43.2,16.8-64.4c2.9-9.1,14.3-16.9,24-16.9c20.9,0,41.6,0,62.6,0.1c11.8,0.1,20.2,10,19.1,21.8
		c-1.2,13-3.6,25.5-9.3,37.3c-3,6.4-7.9,9.1-14.9,9c-17.2-0.2-34.5-0.1-51.7,0c-2.5,0.1-5,0.5-7.3,1.1c-3,0.6-5.1,3.3-4.8,6.3
		c0.1,3.3,2.9,4.4,5.4,5.2c1.3,0.3,2.7,0.4,4.1,0.3c18.6-0.1,37.1-0.2,55.7-0.3c5.6,0,6.7,1.2,5.4,6.8c-1.2,5.1-2.3,10.2-3.7,15.2
		c-1.4,5.1-3.3,6.5-8.9,6.5c-12.2,0-24.5,0-36.7,0L430.9,129.8z M438.5,62.1L438.5,62.1h7.1c2.4,0,4.7-0.1,7.1,0
		c4,0.1,6.9-1.9,8.8-5.2c2.8-5,0.5-9-5.2-9c-8.6,0-17.2,0.2-25.8-0.1c-5.3-0.2-8.7,2.4-11.1,6.9c-2.3,4.2-0.3,7.4,4.5,7.5
		C428.8,62.3,433.6,62.1,438.5,62.1z"/>
	<path class="st0" d="M683,61.8c2.6,0.5,5.2,1.2,7.9,1.2c15.9,0.1,31.7,0.1,47.6,0.1c11.3,0,15.4,3.2,17.9,14.2
		c3.3,15.1,1.2,29.3-7,42.6c-4.1,6.7-10.4,9.7-18.3,9.7c-27.7-0.1-55.4-0.1-83.2,0c-2.9,0-5.8,0.5-8.6,0.3c-4.1-0.2-5-1.6-3.9-5.5
		c1.5-5.6,3-11.2,4.5-16.9c1.6-5.8,3.7-7.3,9.5-7.2c23.1,0.2,46.2,0.5,69.3,0.6c2.6,0,5.1-0.6,8.5-1c-1.3-2.7-2-5.1-3.4-6.7
		c-3-3.3-6-6.4-9.2-9.3c-0.9-0.8-2.3-1.5-3.2-1.2c-0.8,0.2-1.5,1.8-1.6,2.9c-0.4,3.4-2.2,4.6-5.4,4.6c-11.8,0.1-23.7,0.3-35.5,0.5
		c-8.6,0.2-18.6-9-18.4-17.8c0.3-16.5,4.1-32,15.3-44.9c4.4-5.1,9.7-7.6,16.4-7.6c26.4,0.1,52.7,0,79.1,0c5.4,0,5.8,0.8,4,5.9
		c-2.1,6.1-4.1,12.2-6.1,18.4c-1.5,4.7-3.7,6.5-8.9,6.5c-13.6-0.1-27.2-0.2-40.9-0.4c-2.1-0.2-4.2-0.7-6.1-1.5
		c-4.2-1.6-7.9-1.7-11.3,1.8c-3.1,3.3-6.5,6.4-9.7,9.5L683,61.8z"/>
	<path class="st0" d="M312.4,20.2c12.5,0,25,0.3,37.4-0.1c13.5-0.4,19.6,8.2,20.9,17.9c0.9,5.4,0.6,11.1-0.6,16.5
		c-5.4,23.3-11.4,46.5-17.2,69.7c-1.2,5-2.1,5.6-7.2,5.6c-8.1,0-16.3,0-24.4,0c-6,0-6.5-0.7-4.8-6.6c5.8-20.9,11.5-41.8,17.2-62.7
		c2.6-9.4,1.6-10.7-8.3-10.7c-8.1,0-16.3-0.1-24.4,0c-5.7,0.1-7.2,1.1-8.5,6.4c-5.7,23.1-11.4,46.2-17,69.4c-0.7,2.9-2,4.3-5.1,4.3
		c-8.8-0.1-17.4,0-26.2-0.1c-4.7,0-5.5-1.2-4.4-5.7c8-31.8,16-63.4,24-95.2c2.2-8.7,1.5-8.7,11.1-8.6
		C287.7,20.2,300,20.2,312.4,20.2z"/>
	<path class="st0" d="M186.5,129.6c-9.7,0-19.5-0.4-29.2,0.1c-15.5,0.9-25-10.7-23.1-25.1c1.4-11.1,4.6-21.8,7.3-32.5
		c3.9-15.1,8.2-30.1,12.2-45.2c1.5-5.6,2.8-6.6,8.6-6.6c8,0,16,0,24,0c5.8,0,7.2,1.7,5.5,7.3c-6,19.9-12.1,39.9-18.1,59.8
		c-1,3-1.8,5.9-2.3,9c-0.5,3.3,1.1,5.3,4.6,5.3c10.2,0,20.5-0.3,30.7-0.4c7.3-0.1,14.7-0.2,22.1-0.2c2.9,0,4.1,1.4,3.1,4.4
		c-2.2,6.9-4.3,13.7-6.4,20.6c-1,3.2-3.6,3.7-6.5,3.7C208.2,129.6,197.4,129.6,186.5,129.6z"/>
</g>
</svg>
