<?xml version="1.0" encoding="utf-8"?>
<!-- Generator: Adobe Illustrator 26.0.1, SVG Export Plug-In . SVG Version: 6.00 Build 0)  -->
<svg version="1.1" id="Layer_1" xmlns="http://www.w3.org/2000/svg" xmlns:xlink="http://www.w3.org/1999/xlink" x="0px" y="0px"
	 viewBox="0 0 900 400" style="enable-background:new 0 0 900 400;" xml:space="preserve">
<style type="text/css">
	.st0{fill:#04499E;}
</style>
<path class="st0" d="M591,276.3c-18.5,0-37-0.3-55.5,0.1c-18.7,0.4-26.8-12.7-27.6-26.8c-0.7-13.7,3.5-26.5,7.1-39.4
	c6.8-24.2,14-48.3,20.9-72.5c1.5-5.3,4.6-7.6,10.1-7.6c10,0.1,20-0.1,30,0c5.7,0,6.6,1.4,5.1,7.1c-8.4,30.8-16.9,61.6-25.4,92.3
	c-0.4,1.4-0.9,2.8-1.2,4.3c-1.6,7.1,0.8,10.4,8.1,10.9c10.9,0.9,14-1.5,16.5-11.9c8-32.3,16.1-64.5,24-96.8c1-4.1,3-6.3,7.5-6.2
	c9.7,0.2,19.3,0.2,29,0.2c4.2,0,3.9,2.5,3.1,5.4c-7,25.5-14,51.1-21,76.6c-2,7.3-4.3,14.6-6.2,22c-2.1,7.9-0.3,10.3,7.8,11
	c11.3,1,13.9-0.5,16.9-11.2c8.8-31.9,17.5-63.8,26-95.8c1.8-6.5,3.1-7.7,10-7.8c10.5,0,21-0.1,31.5-0.1c2.9,0,5,0.5,3.9,4.3
	c-7.6,27.6-15,55.2-22.8,82.8c-3.6,12.6-7.3,25.1-11.9,37.3c-6,16-15.3,21.8-32.4,21.8L591,276.3z"/>
<path class="st0" d="M421.8,276.3c-16.2,0-32.3,0.1-48.5,0c-13.5-0.1-24.8-7.9-26.7-19.5c-1-5.9-0.1-12.2,0.7-18.3
	c3.8-29.5,13.6-57.6,22.4-85.9c3.8-12.2,19.1-22.5,32-22.5c27.8,0,55.6,0,83.5,0.1c15.8,0.1,27,13.4,25.5,29.1
	c-1.7,17.3-4.8,34-12.5,49.8c-4.1,8.5-10.5,12.2-19.8,12.1c-23-0.2-46-0.1-69,0c-3.3,0.1-6.6,0.6-9.8,1.5c-3.9,0.8-6.7,4.4-6.4,8.4
	c0.1,4.4,3.8,5.9,7.3,7c1.8,0.4,3.6,0.5,5.5,0.4c24.8-0.1,49.6-0.3,74.4-0.4c7.5,0,8.9,1.7,7.2,9c-1.6,6.8-3.1,13.6-4.9,20.3
	c-1.9,6.9-4.5,8.7-11.8,8.7c-16.3,0-32.7,0-49,0L421.8,276.3z M432,186.1L432,186.1h9.5c3.2,0,6.3-0.1,9.5,0c5.4,0.1,9.2-2.6,11.7-7
	c3.7-6.6,0.6-11.9-7-11.9c-11.5,0-23,0.2-34.4-0.1c-7.1-0.2-11.6,3.2-14.7,9.1c-3,5.6-0.4,9.9,6,10S425.5,186.1,432,186.1z"/>
<path class="st0" d="M758.3,185.9c3.5,0.6,7,1.6,10.5,1.6c21.2,0.1,42.3,0.1,63.5,0.1c15.1,0,20.6,4.3,23.9,19
	c4.5,20.1,1.7,39.2-9.3,56.8c-5.5,8.9-13.8,12.9-24.4,12.9c-37-0.1-74-0.1-111,0c-3.8,0-7.7,0.6-11.5,0.4c-5.5-0.3-6.6-2.1-5.2-7.4
	c2-7.5,4-15,6-22.5c2.1-7.7,4.9-9.8,12.7-9.7c30.8,0.3,61.6,0.6,92.4,0.8c3.4,0,6.8-0.8,11.3-1.4c-1.8-3.6-2.7-6.7-4.6-8.9
	c-3.9-4.4-8-8.5-12.3-12.4c-1.1-1-3.1-2-4.3-1.7c-1,0.3-2,2.4-2.2,3.8c-0.5,4.6-2.9,6.1-7.3,6.1c-15.8,0.1-31.6,0.4-47.4,0.7
	c-11.5,0.2-24.8-11.9-24.6-23.8c0.4-22,5.5-42.7,20.5-59.9c5.8-6.7,12.9-10.1,21.9-10.1c35.2,0.1,70.3,0,105.5,0
	c7.2,0,7.8,1,5.4,7.9c-2.8,8.1-5.5,16.3-8.1,24.5c-2,6.2-5,8.6-11.8,8.6c-18.2-0.1-36.3-0.2-54.5-0.5c-2.8-0.2-5.6-0.9-8.1-2
	c-5.6-2.2-10.6-2.3-15.1,2.4c-4.2,4.4-8.6,8.5-12.9,12.7L758.3,185.9z"/>
<path class="st0" d="M263.7,130.1c16.7,0,33.3,0.4,50-0.1c18-0.6,26.2,10.9,28,23.8c1.1,7.3,0.8,14.8-0.8,22
	c-7.2,31.1-15.2,62-23,93c-1.6,6.6-2.8,7.5-9.6,7.5c-10.8,0-21.7,0-32.5,0c-8,0-8.6-0.9-6.4-8.8c7.7-27.9,15.4-55.8,23-83.7
	c3.4-12.6,2.1-14.2-11-14.2c-10.8,0-21.7-0.1-32.5,0c-7.6,0.1-9.6,1.5-11.3,8.5c-7.6,30.9-15.2,61.7-22.6,92.6
	c-0.9,3.8-2.7,5.7-6.8,5.7c-11.7-0.1-23.3,0-35-0.1c-6.2,0-7.4-1.6-5.8-7.6c10.7-42.4,21.3-84.7,32-127c2.9-11.6,2-11.6,14.9-11.5
	C230.8,130.1,247.2,130.1,263.7,130.1z"/>
<path class="st0" d="M95.7,276.3c-13,0-26-0.5-39,0.1c-20.7,1.1-33.3-14.2-30.8-33.6c1.9-14.7,6.1-29.1,9.8-43.4
	c5.2-20.2,10.9-40.2,16.3-60.3c2-7.5,3.7-8.8,11.5-8.8c10.7,0,21.3,0,32,0c7.7,0,9.6,2.3,7.4,9.8c-8,26.6-16.1,53.2-24.1,79.8
	c-1.3,3.9-2.4,7.9-3.1,12c-0.7,4.5,1.5,7.1,6.1,7.1c13.6,0,27.3-0.4,40.9-0.5c9.8-0.1,19.6-0.3,29.5-0.3c3.8,0,5.5,1.9,4.2,5.8
	c-2.9,9.1-5.7,18.3-8.5,27.5c-1.4,4.3-4.8,5-8.7,5C124.7,276.3,110.2,276.3,95.7,276.3z"/>
</svg>
