<?xml version="1.0" encoding="utf-8"?>
<!-- Generator: Adobe Illustrator 26.0.1, SVG Export Plug-In . SVG Version: 6.00 Build 0)  -->
<svg version="1.1" id="Layer_1" xmlns="http://www.w3.org/2000/svg" xmlns:xlink="http://www.w3.org/1999/xlink" x="0px" y="0px"
	 viewBox="0 0 900 400" style="enable-background:new 0 0 900 400;" xml:space="preserve">
<g>
	<path d="M835.1,238c0-17.6,0-34.7,0-53c-3.8,0.2-7.9,0.4-12,0.6c-0.1,0.5-0.2,0.9-0.2,1.4c1.9,0.9,3.8,1.8,5.7,2.6
		c0.3,0.7,0.6,1.4,0.8,2.1c-4.3,2.2-8.6,4.4-14.3,7.4c0.2,3.5,0.5,9.2,1.1,14.8c0.1,1.3,1.2,2.9,2.3,3.8c6.7,4.9,6.8,4.8-0.6,10.1
		c0.3,1.4,0.6,3,1,4.5c1.8,6.5-0.9,11.7-7.1,12.8c-1.3,0.2-3.9-1.6-4.4-3c-1.3-3.8-1.8-7.9-2.8-12.8c-12,1.8-24,3.5-34.5,11
		c-1.7,1.2-5.2,2-6.7,1.1c-1.8-1.1-2.6-4.2-3.3-6.5c-0.5-1.9-0.1-4.1-0.1-6c0.5-0.4,0.8-0.9,1.2-0.9c8.3,0.8,11.5-4.1,13.1-11.3
		c1.2-5.5,3-10.9,4.8-17.5c-5.5,1.8-10.1,3.3-14.9,4.8c0.4-4,0.6-7.2,1-10.8c-11,4.1-11.6,5.2-12.1,15.3c-0.3,6.4-0.6,12.9-1.9,19.2
		c-2.3,10.7-12,15.9-20.1,11.2c12.4-17.2,11.6-37,11.4-56.7c-0.1-6.6-0.6-13.3-1.4-19.9c-0.5-4.4,1.4-4.8,4.7-4
		c1.8,0.4,3.8,0.9,5.1,2c8.9,7.9,18.2,1,27.2,0.6c1.9-0.1,3.6-4.1,5.3-6.1c0.5,0,0.7-0.1,0.9-0.1c15.3,8.9,13.4,5.4,7.4,19.5
		c-2.2,5.1-4.6,10.2-6.8,15c1.4-0.3,4.3-1.1,7.3-1.7c3.2-0.6,6.3-0.9,9.5-1.3c0.4-2.1,1.1-4,1.2-6c0.2-4,0.1-8,0.2-11.9
		c0.1-2.3-0.5-5.6,0.8-6.7c1.7-1.5,4.8-1.5,7.4-1.7c8.5-0.6,17.1-0.1,25.4-1.7c5.2-1,11.2-0.2,16.5,6c4.2,4.9-0.4,8.2-3.1,10.2
		c-5.3,4-4.4,8.5-3.8,13.9c1.6,13.2,2.7,26.5,3.6,39.7C850.4,234.9,845,238.6,835.1,238z M781.5,225.3c7.8-2,14.4-3.5,20.9-5.5
		c1.4-0.5,3.1-2.6,3.3-4.2c0.5-3.9,0.2-7.9,0.2-12.4c-6.5,1.5-11.6,2.7-16.7,3.8c3.6,1.1,6.9,0.4,10.1,0.6c1.2,0.1,2.4,2.1,3.6,3.2
		c-1.2,0.8-2.5,2.3-3.7,2.2C790.4,212,785.9,217.3,781.5,225.3z M836.9,178c-1.9-4.1-2.6-8.6-4.7-9.3c-6-2.1-12.5-1.5-19.9,0.7
		c6.1,5,13.6-3.2,18.2,5.2c-6,1.3-11.4,2.4-16.9,3.5c0.1,0.9,0.3,1.7,0.4,2.6C820.9,180,827.6,179.1,836.9,178z M754.7,185.2
		c7.9,3.4,20-0.1,22.6-6.4C769.7,180.6,761.6,179.2,754.7,185.2z M786.7,197.2c0,0.7-0.1,1.3-0.1,2c5.9,0,11.8,0,17.6,0
		C803.1,193.4,796.9,192.2,786.7,197.2z M758.6,171.8c0.2,1,0.5,2,0.7,3c6.4-1.2,12.8-2.4,19.2-3.6c-0.1-0.8-0.3-1.6-0.4-2.5
		C771.5,169.8,765.1,170.8,758.6,171.8z"/>
	<path d="M478.1,201.7c-0.5,3.3-1.1,7.1-1.7,10.9c10.7-3.2,16.1-15.9,11.5-28.4c9.3,0,18.1,0,26.7,0c-1.4-6.4-4.6-8.6-11.6-7.1
		c-2.9,0.6-5.6,1.9-8.5,2.8c-8.4,2.7-8.4,2.7-9.5-4.7c-10,2.7-20,5.5-30.2,7.9c-1.5,0.4-4.8-1-5-2.1c-0.6-2.7-0.9-6.9,0.6-8.2
		c2.5-2.1,6.5-2.9,9.9-3.2c5.2-0.4,10.5,0.1,15.7,0.4c4.8,0.2,9.8,1.5,14.5,0.8c8.6-1.2,17-3.4,25.4-5.3c0.6-0.1,0.9-1.8,1.7-3.5
		c-2.1,0.7-3.2,1-4.3,1.4c-0.4-0.5-0.9-0.9-1.3-1.4c2.8-2.8,5.2-7.1,8.5-7.9c4.4-1,9.4,0.6,14.1,1.6c0.6,0.1,1.4,3.1,0.8,4.2
		c-0.9,1.7-2.7,2.8-4.4,4.3c10.4,0,20.2-0.1,30.1,0.1c2.4,0.1,4.8,1.5,7.2,2.2c-1.9,2.8-3.6,5.8-6,8.2c-0.9,0.9-3.5,0.1-5.8,0.1
		c5,9.3-5.3,6.5-8.6,11.5c7.2,3.5,14.1,6.9,21,10c2.3,1,4.9,1.2,7.3,2.1c4.3,1.5,11,1.7,9.1,8.6c-1.8,6.4-8.4,4.9-12.3,3.2
		c-5.9-2.5-11.4-6.4-16.3-10.5c-4.2-3.6-7.6-4.4-12.4,0.1c2.7,0.7,5,1.2,7.2,2c5.7,2.1,7.5,7.5,5.3,13.1c-1.2,3-2,7-1.1,9.9
		c2.7,8.1-1,14.1-5.4,21.3c-3.2-6.4-10.9-10-7-17.9c-12.4,1.1-24.8,2.2-37.1,3.3c-0.1-0.7-0.1-1.3-0.2-2c-3.1,2.7-5.9,6-9.4,7.8
		c-3.3,1.7-7.5,1.8-11.3,2.4c-1.3,0.2-2.7-0.4-4-0.3c-9.8,0.7-9.8,0.7-9.2-10c10.3,4.3,17.1-1.4,23.2-8.3c1.3-1.4,1.7-5.5,0.6-6.8
		c-2.6-3.1-4.4-0.5-6.2,1.9c-2.8,3.7-6,7-10,11.4c-1.8-5-3.1-8.2-4.3-11.6c-4.4,4.6-8.3,9-12.6,13c-1.6,1.5-4.7,3.6-5.9,3.1
		c-2-1-3.2-3.9-4.4-6.1c-0.8-1.6-1-3.5-1-3.4C460.7,215.5,469.5,208.6,478.1,201.7z M516.2,189.1c-1.8,5.1-4.8,9.3-4,12.4
		c1.6,5.7,11.4,6.1,19.4,2c0-5.9,0-11.3,0-16.6c5.5-3.3,11.2-6.7,17-10.2c-5.5-3.4-9.5-4.2-12.5,1.2c-1,1.8-3.8,2.7-5.2,4.4
		c-1.5,1.8-2.9,4-3.4,6.3c-1.1,5-1.6,10.1-2.4,15.4C517,202.1,520.9,195,516.2,189.1z M543.4,218.2c-0.5-4.8-1-10.6-1.6-17.2
		c-2.1,1.3-3.6,2.2-5.3,3.2c1.1,1.3,2.1,2,2.5,3c0.7,2,1,4.1,1.5,6.1c-1.8,0.2-3.7,0.5-5.5,0.6c-6.1,0.2-12.3,0-18.4,0.4
		c-3.5,0.2-6.9,1-10.4,1.5c0.1,0.8,0.1,1.7,0.2,2.5c5.9,0.4,11.9,1.2,17.8,1.2C530.3,219.4,536.5,218.6,543.4,218.2z M493.8,209.1
		c3.9,1.3,7.2,2.5,10.1,3.5c1.3-2.1,2.1-3.6,3.1-4.9c1-1.3,2.3-2.5,3.6-4C498.4,199.7,497.2,200,493.8,209.1z"/>
	<path d="M622.9,198.5c-5.4,1.7-10.8,3.4-16.2,5c-1.8,0.5-3.7,0.6-5.6,0.9c0.1-2.9-0.1-5.9,0.5-8.8c0.2-1,2.5-2.1,3.9-2.2
		c3-0.3,6.1-0.1,10.5-0.1c-6-5-10.6-6.9-16.5-2.6c-5.7,4.1-7.7-1.9-11.3-4.7c4.9-5.6,9.3-9.2,17.5-8.5c8.7,0.8,17.7-1.4,26.6-2.5
		c7.3-0.9,14.5-1.7,22.1,3.1c-5.5,3.6-10.6,6.8-16.8,10.9c5.4,0.5,9.5,0.8,13.7,1.2c0.1,0.7,0.1,1.3,0.2,2
		c-4.8,1.6-9.8,2.9-14.5,4.8c-1.8,0.7-3.1,2.7-4.6,4.2c0.4,0.6,0.8,1.3,1.2,1.9c5.6-0.3,11.3-0.5,16.9-0.8c0.1,0.6,0.2,1.3,0.3,1.9
		c-4.3,2.1-8.6,4.2-14.6,7c9.3,1.3,16.1,3.8,18.7,13.2c6.1-10.4,9.3-20.7,9.4-31.7c0.1-7.1,2.6-14.7-3.2-21.1
		c-0.5-0.6,0.6-3.6,1.7-4.5c3.2-2.5,6.8-4.4,12-7.7c0.3,5.9,0.6,10.1,0.9,16.2c7.5-3.7,15.1-6.2,21-10.7c7.1-5.4,13.1-4.4,20.7,0.1
		c-11.3,13.1-25,17.7-42.4,13.2c-0.3,5.3-0.6,9.7-0.8,13.5c20.7,3.2,39.8-10.1,60-5c-4.9,5.2-9.3,10.5-14.4,14.9
		c-1.9,1.7-5.4,2.3-8.2,2.3c-4.8,0-9.5-1-14.3-1.5c-5.7,11.6,5.8,26.6-8.8,38.6c-1.3-8.3-2.6-14.8-3.4-21.4
		c-0.5-3.9,0.3-7.9-0.4-11.7c-0.5-2.7-2.3-5.2-3.6-7.7c-2.8,2.5-5.9,4.6-8.1,7.5c-1.2,1.6-0.8,4.4-1.2,6.7
		c-1.8,12.4-12.9,19.5-24.1,14.5c-3-1.3-4.8-5.5-7-8.5c-1.7-2.3-3.3-4.7-6.3-6.3c0,4.3,0.2,8.5-0.1,12.8c-0.2,4-0.9,8.1-1.4,12.6
		c-7.2-1-9.9-5.7-10.2-10.9c-0.3-4.8,1.6-9.7,2.7-15.4c-5.9,1.4-12,0.2-9.1,8.8c2.1,6.2-3.3,9.5-7.3,12.8
		c-10.4,8.6-17.2,8.5-27.5-0.8c5.8-1.5,11.5-2.4,16.7-4.6c5-2.2,11.1-4,13.2-11.5c-6.7,1.8-12.1,4-17.6,4.4c-1.9,0.1-4-4.4-6.3-7.2
		c4.1-4.5,6.8-8.3,14.4-6.6c5.9,1.3,12.9-1.9,19.2-3.7c1.3-0.3,1.9-3.1,2.8-4.7C623.8,199.5,623.4,199,622.9,198.5z M627,182.6
		c-2.5,2-4.2,3.3-5.9,4.7c1.4,1.3,2.8,3.6,4.1,3.6c2.1-0.1,4.2-1.8,6.2-2.8C630.3,186.4,629,185,627,182.6z"/>
	<path d="M358.8,220.3c-6.5-2.8-11.8-5.3-16,3.6c-1.3,2.7-8.1,2.8-12.4,4.1c-0.3-0.7-0.6-1.4-1-2.1c-1.8,3.4-3.5,6.9-5.5,10.1
		c-2.7,4.1-6.3,5.5-11.2,3.3c-3.6-1.6-7.6-2.5-11.3-3.6c1.9-4.2,58.1-26.4,65.1-24.9c-1,2.1-1.9,4.2-3.8,8.4c5.7-1.2,9.8-2.1,13.8-3
		c2.7-0.6,5.5-0.7,8-1.7c1.5-0.5,2.5-2.3,3.7-3.5c-1.4-1-2.9-2.9-4.3-2.8c-4.9,0.3-9.2,0-12.2-6.5c1.9-0.8,4.2-1.8,7.3-3.1
		c6,3,8.3,2.1,8.3-6.3c-3.4,0.6-6.6,1.1-9.9,1.7c-3.4,0.6-6.7,1.1-9.8,1.6c-0.3,1.5-0.2,3.9-1,4.4c-13,6.9-26.1,13.8-39.4,20.2
		c-3.9,1.9-8.2,1.6-10-3.9c-0.5-1.4-1.5-2.7-2.4-4c-3.6-4.7-2.1-8.3,3.8-9.7c3.7-0.9,7.2-2.6,11-4c-4-1.8-7.9-2.4-9.6-4.7
		c-7.1-9.1-5.8-12,5.4-15.3c11.3-3.3,18.9-11.6,26.3-20.4c8.2,2.5,5.5,7.9,4.1,11.5c3.8,4.7,7.1,8.7,10.7,13.2
		c-5.5,2.7-9.4,4.6-15,7.4c4.8,1.2,8.1,2,11.3,2.9c3.6-7.3,14.8-13.9,22.6-13c2,0.2,4,1.7,5.6,3.1c4.8,4.4,6.3,4.2,9.7-1.3
		c0.9-1.4,3.2-3,4.6-2.8c8.6,1.3,17.1,3.1,25.9,4.8c-0.9,4.9-3.9,6.7-9.9,5.5c-6.1-1.3-12.8-2.5-15.8,7.2c8.6-2.9,15.5-2.1,20.4,7.3
		c-7.9,0.7-15,1.4-22.1,2c-0.3,0.7-0.6,1.4-0.9,2.1c2.1,1.3,4.1,3.6,6.3,3.9c7.3,0.8,14.6,1.1,21.9,1c5.3-0.1,10.6-1.1,17.1-1.8
		c-0.8,2-1.1,4-2.2,5.3c-3.1,3.6-6.1,7.5-9.9,10c-2.4,1.5-6.6,1.6-9.4,0.6c-17-5.8-33.8-5-50.7,0.2c-2.8,0.9-6,1.9-7.9,3.9
		c-3.5,3.7-6.5,3.3-10.2,0.7c-4-2.8-1.4-5.6-0.4-8.4C357.9,222.5,358.4,221.5,358.8,220.3z M332.4,202.9c0.3,0.6,0.7,1.1,1,1.7
		c6-2.8,12-5.6,18-8.4c-0.4-0.8-0.7-1.5-1.1-2.3C342,191.7,338.7,200.4,332.4,202.9z M339.6,181.4c0.1,0.8,0.2,1.6,0.3,2.3
		c3.2-0.5,6.8-0.4,9.5-1.8c1.6-0.8,1.8-4.2,2.7-6.5c-0.6-0.2-1.2-0.5-1.8-0.7C346.7,176.9,343.1,179.2,339.6,181.4z"/>
	<path d="M158.3,173.5c-1.6,12.1-3.1,23.8-4.9,37.4c-10.1,0-20.2,0.3-30.2-0.1c-6.8-0.3-10.3,1.4-9,9.2c0.7,4.2-0.1,8.7-1,13
		c-0.6,2.8-2.5,5.3-3.9,8.2c-10.3-8.3-5.6-18.6-6.1-28.9c-15.8,3.4-32.2-0.3-46,9.8c-3.9-2.6-7.9-5.3-11.9-8
		c10.2-8.2,11.8-16.4,5.3-28.6c-2.6-4.9,0.4-6.7,3.9-8.1c3.3-1.4,7-1.8,10.4-3.2c5.8-2.3,10.1-1.4,13.3,4.5c0.8,1.4,3,2.8,4.6,2.9
		c6.6,0.3,13.2,0.1,21,0.1c-1.1-4.7-1.6-8.2-2.8-11.5c-2.1-5.6-0.1-9.4,5.8-9.8c4.3-0.3,8.6-0.1,12.8-0.1
		c-2.1,7.2-3.8,13.3-5.9,20.3c10.9,0,20.2,0,29.3,0C145.6,172.7,147,172.1,158.3,173.5z M69.8,207.8c9.2-1.1,18-2.3,26.9-3
		c5.9-0.4,6.9-3.4,6.9-8.6c0-6-3.7-5.1-7.4-5.1c-4.6,0.1-9.2,0.1-13.7,0.2C72.1,191.6,68.5,195.8,69.8,207.8z M144.1,199
		c0-1.4,0-2.5,0-3.6c-0.4-8.4-0.4-8.3-8.8-6.5c-3.5,0.8-7.2,1.1-10.8,1.3c-11.1,0.7-11.3,1-8.8,12.8
		C125,201.6,134.4,200.3,144.1,199z"/>
	<path d="M302,177.5c-8.9,3.3-17.8,6.6-25.9,9.6c5.6,6.4,11.1,11.9,15.6,18.1c2.3,3.2,4.9,8.4,3.8,11.3c-1.2,2.8-6.8,4.7-10.6,5.2
		c-6.1,0.8-12.4,0.3-18.6-0.2c-4.3-0.4-5.2,1.2-5.8,5.2c-0.8,5.9-3,11.5-4.6,17.3c-1.1,0-2.1,0-3.2,0c-0.7-2.5-2-5.1-2-7.6
		c0.1-11.9,0.8-23.7,0.7-35.6c-0.1-5.6-1.9-11.1-2.3-16.7c-0.2-2.6,0-6.4,1.7-7.7c4.9-3.8,8.9-8.6,17.2-6.4c7,1.9,15,0.2,22.5-0.4
		C296.1,169.1,300.4,171.8,302,177.5z M271,213.8c0.1-0.3,0.2-0.6,0.2-0.9c2.1,0,4.5,0.7,6-0.2c1.5-0.9,3.4-4.3,2.8-5.1
		c-3-4.5-6.3-8.9-10.3-12.5c-2.8-2.6-7.6-2.2-8.4,1.9c-0.9,4.5-0.2,9.7,1.4,14C263.4,212.7,268.1,212.9,271,213.8z M270,182.1
		c-0.2-0.7-0.5-1.4-0.7-2.2c-3.2,0.7-6.4,1.2-9.5,2.2c-0.4,0.1,0.2,3,0.4,5.4C264.2,185.4,267.1,183.8,270,182.1z"/>
	<path d="M228.4,190.9c6.2,0.6,12.9,1.2,19.9,1.9c-1.6,5.9-4.3,8.7-9.5,8.2c-21.1-1.9-40.9,3.1-60.3,10.6c-2.3,0.9-5.1,0.2-7.7,0.2
		c0.4-2.2,0.9-4.5,1-6.7c0.1-2.6-0.3-5.2-0.4-6.6c9.5-1.2,18.8-2.3,28.2-3.7c3.5-0.5,7.9-1.7,5.6-6.2c-1.1-2.3-5.7-3.7-8.7-3.8
		c-4.1-0.1-8.2,1.4-13.2,2.5c0.5-4.3,0.3-7.2,1.4-9.5c0.9-1.9,3.2-4.3,5.1-4.4c17.8-1.3,35.7-2.2,53.5-3.1c2-0.1,4.1,0.6,7.7,1.1
		C242.4,178.8,230,179.1,228.4,190.9z M213,181.7c-0.6,0.6-1.2,1.2-1.8,1.8c1.9,2.9,3.7,5.7,5.6,8.6c3-3.1,5.9-6.3,8.9-9.4
		c-0.5-0.6-1-1.2-1.5-1.8C220.5,181.2,216.8,181.4,213,181.7z"/>
	<path d="M193.7,209.5c2.3-0.5,5-1.2,7.6-1.5c8.8-1.1,17.5-2.3,26.3-3c2.8-0.2,6.1,0.1,8.6,1.3c3.2,1.5,5.5,3.4,1.8,7.8
		c-2.9,3.4-3.6,8.6-5.6,13.6c-6.7,0.9-14.9,1.9-23.2,3.1c-1.5,0.2-2.9,1-4.3,1.5c-2.5,0.9-6.6,3.3-7.3,2.5c-2.3-2.4-4.4-5.9-4.8-9.2
		C192.4,220.5,193.3,215.3,193.7,209.5z M227.2,215.2c-13.8-1.4-18.3-0.5-21.2,3.9C215.3,221.9,224.3,220.5,227.2,215.2z"/>
	<path d="M366.3,174.2c9.5-12.1,20.3-9,30.8-8.3c5.2,0.3,10.5-0.7,15.7-1.5c7.7-1.2,13.4,2.3,20.7,7.7c-3.5,0.9-5,1.6-6.6,1.8
		c-18,2.1-35.9,4.3-53.9,5.8C370.6,179.7,368,175.6,366.3,174.2z"/>
	<path d="M652.1,166.1c-11.9,1.6-23.8,3.5-35.7,4.8c-2.3,0.3-5.3-1-7.1-2.5c-0.8-0.8,0.2-4,1-6c0.3-0.9,2-1.7,3-1.7
		c8.9-0.1,17.8-0.2,26.6,0.1c4.1,0.1,8.2,1.2,12.3,1.9C652.2,163.8,652.1,165,652.1,166.1z"/>
	<path d="M480.5,188.3c-2.5,2.6-4.6,5.6-7.6,7.5c-4.3,2.8-9,5-13.7,7.2c-1.2,0.6-3.3,0.7-4.3,0c-3.4-2.2-2.1-14.2,1.9-14.9
		c7.4-1.3,14.9-1.4,22.4-2.1C479.8,186.9,480.1,187.6,480.5,188.3z"/>
	<path d="M238.7,161c-2.9,2.4-5.7,4.6-8.5,6.8c-1,0.7-2.3,1.7-3.4,1.6c-6-0.6-12.1-1.1-18-2.4c-1.7-0.4-2.9-3.2-4.3-4.9
		c2.3-1.8,4.8-5.2,7-5.1C220.5,157.8,229.4,159.6,238.7,161z"/>
</g>
</svg>
