<?xml version="1.0" encoding="utf-8"?>
<!-- Generator: Adobe Illustrator 26.0.1, SVG Export Plug-In . SVG Version: 6.00 Build 0)  -->
<svg version="1.1" id="Layer_1" xmlns="http://www.w3.org/2000/svg" xmlns:xlink="http://www.w3.org/1999/xlink" x="0px" y="0px"
	 viewBox="0 0 900 150" style="enable-background:new 0 0 900 150;" xml:space="preserve">
<path d="M570.7,78.1c-3.6,4.5-8,4.5-12.2,4.6c-10.4,0.2-20.8,0.1-31.3,0.1c-7.2,0-9.1,2.3-7.2,9.2c0.3,1.2,2.6,2.7,4.1,2.7
	c9.9,0.2,19.9,0.4,29.8-0.1c2.5-0.1,5.5-2.1,7.3-4.1c2.9-3.2,5.8-3.9,9.6-2.1c3.5,1.7,7.2,3.1,10.8,4.7c0.1,0.6,0.2,1.1,0.3,1.7
	c-3.6,1-7.2,2.7-10.9,2.9c-11.1,0.4-22.3,0.1-33.4,0.2c-1.9-0.1-3.8,0.4-5.4,1.4c1.6,0.9,3.1,2.2,4.9,2.7
	c12.5,3.3,25.2,6.4,37.7,9.5c1.2,0.2,2.4,0.5,3.5,1c3.4,1.8,3.5,4.7,2.4,8c-1.2,3.7-3.4,2.3-5.8,1.8c-18.4-3.8-36-10.6-52.2-20.1
	c-0.9-0.5-1.9-0.9-2.9-1.3c0,5.9,0,11.1,0,16.4c0,7.3-3.3,10.1-11.5,9.3V105c0.1-1.4,0.1-2.8-0.1-4.2c-0.3-1-1.3-1.8-2-2.6
	c-0.8,1-2.4,2-2.2,2.8c0.9,5.3-2.5,7.2-6.6,8.4c-14.5,4.2-28.9,8.3-43.4,12.4c-2.2,0.6-4.3,1.1-6.8,1.7c-0.6-3.5,1.8-3.8,4.3-4.8
	c12.4-4.7,24.9-9.4,37.2-14.5c2.4-1,4.3-3.2,6.4-4.8c-0.1-0.6-0.3-1.1-0.4-1.7h-46l-0.1-2.1c1.6-0.4,3.2-0.7,4.8-0.8
	c16.4-0.1,32.7-0.3,49.1,0.1c5.1,0.1,5.8-2.3,5.8-6.2c0-3.9-0.8-6.2-5.5-6.1c-12.9,0.3-25.8,0.3-38.7,0.2c-1,0-2.1-1-3.1-1.6
	c1-0.7,2-1.9,2.9-1.9c12.5,0,25,0.2,37.5,0.4c4.3,0.1,6.9-1.2,6.9-6.2c0-4.9-2.4-6.1-6.9-6c-14.3,0.2-28.5,0.1-42.8,0.1
	c-1.8,0-3.5-0.4-5.3-0.5c0-0.5-0.1-1-0.1-1.6c1.6-0.4,3.2-0.7,4.9-0.9c7.1-0.1,14.3-0.1,21.4,0c3.8,0.1,5.9-1.1,5.5-5.4
	c-0.3-3.9,1.2-8.4-5.5-8.2c-8.7,0.3-17.4,0.1-26.1,0c-1.7-0.1-3.3-0.4-4.9-0.7v-1.8c1.7-0.2,3.4-0.5,5.2-0.5c11,0,21.9,0,32.9,0
	c6.9,0,7.1-0.2,7.2-6.9c0-2.8,0.2-5.5,0.6-8.3c1.1-6.3,2.8-7.5,9.2-7.1c3.7,0.2,7.3,0.8,11,1.2l0.4,1.8c-2.1,1.2-4.1,2.8-6.3,3.5
	c-6.7,2.2-3.9,7.8-4.2,11.9s3.7,3.9,6.6,3.8c14.6-0.1,11.7,1.5,11.9-11.7c0.2-10.4-0.9-9.6,9.5-9.7h10.8l0.7,1.5
	c-1.9,1.4-3.6,3.1-5.7,4.1c-4.3,2-6.7,11.9-3.4,15.1c0.4,0.4,0.9,0.6,1.4,0.6c9.3-1.2,20.2,4.3,27.5-6.2c0.6-0.9,2.9-1.2,4.1-0.8
	c4.7,1.6,9.2,3.7,13.8,5.5l0.3,1.7c-3.3,1-6.5,2.7-9.8,2.8c-8,0.4-16,0-24,0.2c-1.7,0.1-4.9,1.3-4.9,2.1c-0.2,3.6,0.3,7.2,1.5,10.6
	c0.4,0.9,5.3,0.8,7.5-0.2c3.3-1.5,6.1-5.9,9-5.8c5.1,0.2,10,2.9,15.6,4.8c-3.5,4.6-7.5,5.1-11.7,5.1c-13.1,0-26.1,0-39.2,0
	c-5.5,0-6.6,1.2-6.5,6.8c0.1,4.8,2.8,5.6,7,5c3.1-0.5,6.3-0.5,9.4-0.1c6.5,0.9,12,0,16.1-5.8c1.1-1.1,2.6-1.6,4.1-1.3
	C560.9,73.8,565.5,75.9,570.7,78.1z M514.2,64.6c4.7,0,9.4,0.3,14.1-0.2c1.5-0.2,3.3-2.3,4.1-3.9c0.7-1.6,0.1-3.8,0.2-5.7
	c0-2.9-1.5-4-4.3-4c-9.2,0.1-18.4,0.1-27.7,0c-4.9-0.1-5.3,3.4-5.3,6.7c0,3.3,0.1,7.3,5.4,7.1C505.2,64.5,509.7,64.6,514.2,64.6
	L514.2,64.6z"/>
<path d="M11.3,125.6V29.1c1.1,0.2,2.1,0.6,3,1c5.4,4,11.7,5.2,18.2,5.2c19.9,0,39.7,0,59.6,0c4.3,0,7.9-0.8,10.2-4.9
	c1.3-2.4,3.3-2.9,5.7-1.2c0.9,0.6,1.8,1.1,2.7,1.5c8.2,4.3,7.8,4.2,4.3,12.4c-1.5,3.5-1.2,7.8-1.2,11.7c0,19.4,0.1,38.9,0.3,58.4
	c0.1,7.9-1.8,11.4-7.1,12.7c-2.8,0.7-4.9,0.6-5-3.1c-0.1-4.5-2.4-5.6-6.7-5.6c-21.8,0.2-43.5,0.1-65.3,0.1c-3.3,0-5.6,0-7.1,4.2
	C21.1,126.2,16.5,127.1,11.3,125.6z M62.8,75c11.1,0,22.3-0.1,33.4,0c3.6,0,5.7-1,5.6-5c-0.1-8.9,0-17.7,0-26.6c0-3.4-1.5-5-5.1-5
	c-22.8,0.1-45.6,0.1-68.4,0c-3.7,0-4.9,1.5-4.8,5c0.1,8.7,0.3,17.4,0,26c-0.2,4.5,1.7,5.6,5.9,5.6C40.5,74.8,51.7,75,62.8,75z
	 M62.5,78.1c-11.5,0-23,0.1-34.4-0.1c-3.3,0-4.7,1.1-4.6,4.5c0.1,9,0.1,18,0,27c-0.1,3.6,1.6,5,5,5c22.6,0,45.2,0,67.8,0
	c3.9,0,5.7-1.7,5.6-5.7c-0.1-8.5-0.1-17,0-25.5c0.1-4-1.4-5.5-5.5-5.5C85.1,78.2,73.8,78,62.5,78.1L62.5,78.1z"/>
<path d="M426.1,116.2c-3.8,0.9-7.7,2.5-11.5,2.5c-37.6,0.2-75.2,0.1-112.8,0.1h-7.9c-0.1-0.6-0.2-1.3-0.2-1.9c1.9-0.5,3.9-0.9,5.9-1
	c15.5-0.1,31-0.2,46.5,0c5,0.1,6.8-1.9,6.8-6.7c-0.1-20.8-0.1-41.7,0-62.5c0-4.7-1.8-6.5-6.6-6.4c-13.1,0.2-26.1,0.1-39.2,0
	c-1.7-0.2-3.3-0.5-4.9-0.9c0-0.5,0.1-1,0.1-1.6c1.6-0.2,3.2-0.4,4.8-0.5c23,0,46,0,69,0.1c11.7,0.1,11.7,0.2,22.9-10.6l20.1,8.2
	c-5.4,5.7-12.1,5.2-18.3,5.4c-8.9,0.3-17.8,0-26.6-0.1c-5.9,0-6.7,0.8-6.7,6.5c0,20.8,0.2,41.7,0,62.5c-0.1,5.1,1.7,6.8,6.6,6.6
	c6.3-0.3,12.5,0,18.7-0.1c4.6,0,8.8-2.4,11.2-6.3c2-3.2,4.2-3.4,7.4-1.9c4.8,2.3,9.8,4.2,14.6,6.2L426.1,116.2z"/>
<path d="M656.5,122.6c1-1.1,2.2-2.1,3.4-2.9c14.2-7.3,20.3-19.5,20.8-34.7c0.4-12.8,0.4-25.7,0.1-38.5c-0.1-5.4,1.8-7.6,7.1-8.8
	c11.6-2.8,23-6.2,34.4-9.7c2.7-0.8,4.4-1,6,1.7c2.6,4.6,5.6,9,8.4,13.6l-0.7,1.5c-2.9-0.8-6.4-1-8.7-2.7c-4-3.2-9.2-4.2-14.1-2.8
	c-5.4,1.3-11,1.7-16.5,2.3c-3.3,0.4-5.1,1.6-5,5.2c0.1,4-0.2,8-0.3,12c-0.1,4.6,1.7,7.2,6.8,6.9c3.5-0.3,7-0.3,10.4,0
	c5,0.5,8.5-1.2,11.8-5c1.3-1.5,4.8-2.4,6.8-1.8c4.3,1.1,8.2,3.4,12.8,6.7c-3,1-6.1,3-9.1,3c-5,0-6.2,2-6.1,6.5
	c0.2,14.4,0,28.8,0.2,43.2c0.1,3.7-1.4,6.1-4.6,7.3c-1.8,0.6-3.7,0.6-5.5,0c-0.8-0.3-0.6-2.9-0.7-4.5c-0.1-6.6-0.2-13.2-0.2-19.8
	c0-8.4,0.3-16.6,0.3-25c0-6.9-0.6-7.5-7.3-7.6c-1.9,0-3.8-0.2-5.7-0.4c-7.8-0.7-10.3,1.4-9.8,9.2c0.9,13-2.9,24.3-11.4,34
	c-5.8,6.6-13.7,11-22.3,12.5L656.5,122.6z"/>
<path d="M890.7,32.9c-5.5,5.8-6,12.4-6,19.3c0.2,20.1,0.1,40.3,0,60.5c0,9.3-4.3,13.3-13.6,12.8c-0.9,0-1.7-0.2-2.5-0.5
	c-3.7-1.5-7.4-3-11.1-4.6c-0.4-0.2-0.6-0.8-1.5-2.1c3-0.3,5.5-0.5,7.9-0.7c8.2-0.7,9.6-1.9,9.8-10.1c0.3-13.5,0.2-27.1,0.4-40.6
	c0.1-4.7-2-6.5-6.7-6.3c-5.7,0.2-11.5-0.4-17.2,0.2c-3.9,0.4-7.7,2.3-11.6,3.3c-2.1,0.5-4.4,1.3-6.3,0.8c-0.9-0.3-1.1-3.4-1.2-5.3
	c-0.2-8.7-0.2-17.3-0.3-26c0-2.4,0-4.8,0-7.8c0.9,0.3,1.8,0.7,2.6,1.1c4.8,3.8,10.9,5.7,17,5.5c4.5-0.1,9-0.2,13.6,0
	c4.3,0.2,8.3,0.1,10.7-4.6c0.5-0.9,3.5-1.5,4.8-1C883.2,28.4,886.5,30.6,890.7,32.9z M858.2,47.8c-4.2-0.2-8.4-0.1-12.5,0.2
	c-1.7,0.5-3.1,1.8-3.7,3.5c-0.5,2.5-1,6.3,3,6.5c8.5,0.4,17,0.3,25.5,0c3.3-0.1,3.9-2.9,3.7-5.8c-0.1-2.9-1.5-4.4-4.6-4.4
	C865.9,47.9,862,47.8,858.2,47.8z M858.2,45L858.2,45c3.8,0,7.6-0.1,11.4,0c3.3,0.1,4.8-1.3,4.7-4.6c-0.1-2.9-0.7-5.1-4.3-5.1
	c-8,0-15.9,0.1-23.9,0c-3.6,0-4.3,1.9-4.3,4.9c-0.1,3.3,1.1,4.8,4.5,4.8C850.2,44.9,854.1,45,858.2,45L858.2,45z"/>
<path d="M783.3,70.9c1.7-0.5,3.5-0.9,5.2-1c16.5-0.1,33.1-0.1,49.6,0c4.3,0,7.6-0.9,10.7-4.2c1.8-1.5,4.1-2.1,6.4-1.6
	c4.5,1.2,8.7,3.3,13.1,5l0.2,1.5c-3.7,0.8-7.4,2.2-11.2,2.3c-4.5,0.1-6.3,1.7-6.1,6.3c0.2,6.1,0.1,12.2,0,18.2
	c0,5.7,0.8,6.5,6.7,6.3c1.6-0.1,3.1-0.6,4.7-0.4c1,0.1,2,1.2,3,1.8c-1,0.7-2,1.7-3.1,2c-1.1,0.3-2.4-0.4-3.6-0.5
	c-5.3-0.4-7.4,1.8-7.8,7.1c-0.2,2.5-0.8,5.5-2.4,7.2c-1.4,1.4-4.4,1.3-6.7,1.8c-0.4-1.9-1.2-3.8-1.2-5.6c-0.1-8.5-0.4-9.1-8.7-8.7
	c-11.6,0.6-23.2,1.3-34.9,2.2c-1.8,0.1-3.6,1.7-5.3,2.7c-0.8,0.5-1.2,1.9-2.1,2.2c-2.5,1-5.2,1.8-7.7,2.6c-0.1-3.5-0.4-7-0.3-10.5
	c0-0.5,1.6-1.1,2.5-1.3c1.5-0.2,3.1-0.1,4.7-0.2c7.5-0.5,8.8-1.7,8.9-9.1c0-6.1-0.1-12.2,0.1-18.2c0.1-4.7-2.1-6.2-6.4-5.8
	c-2.6,0.2-5.3,0-7.9,0C783.5,72.4,783.4,71.6,783.3,70.9z M824.3,82.1c4,0,8,0,12,0c3.3,0,4.5-1.8,4.5-5c0-3.2-1.6-4.2-4.5-4.2
	c-7.8,0.1-15.7,0-23.4,0c-2.9,0-4.6,0.9-4.5,4.2c0,3.3,1.4,4.9,4.6,5C816.8,82.2,820.6,82.1,824.3,82.1L824.3,82.1z M825,85v-0.2
	c-4,0-8,0-11.9,0c-2.7,0-4.7,0.7-4.8,4c0,3.4,1.4,4.8,4.6,4.8c8,0,15.9-0.1,23.9,0c3.3,0,4-1.7,4.1-4.6c0-2.9-1.1-4.1-4-4.1
	C833,85.1,829,85,825,85L825,85z M817.6,105.2v-0.5c6.4,0,12.8,0.3,19.2-0.2c1.4-0.1,3.4-2.5,3.7-4.2c0.2-1-2.1-3.6-3.4-3.6
	c-8.3-0.3-16.6-0.2-25-0.2c-3.3,0-3.9,2.1-3.9,4.9c0,2.9,1.4,4.1,4.2,4C814.2,105.4,815.9,105.3,817.6,105.2L817.6,105.2z"/>
<path d="M763.5,24.6c11.9,11.1,25.5,7.1,38.2,7.3c2.4,0,4.8-3.9,7.6-6.4c3.3,1.7,7.2,3.6,10.9,5.8c0.9,0.6,1.7,3.3,1.3,3.7
	c-7,6.3-3.9,14.5-4.6,22.1c-0.3,2.7-1.7,5.2-3.8,7c-2.2,1.6-5.9,3.2-7.3-1.9c-0.2-0.8-2.6-1.5-4-1.5c-7.3-0.1-14.6,0-21.9-0.1
	c-3.9-0.1-5.1,1.7-5,5.4c0.1,16.7,0,33.3,0.1,50c0,5.1-1.9,8.4-6.8,9.7c-2.8,0.8-4.7,0.2-4.7-3.4C763.5,90.2,763.5,58.1,763.5,24.6z
	 M791,47.8c-4,0-8,0.1-12,0c-3.3-0.1-4.9,1.4-4.9,4.5s1,5.7,4.5,5.8c8,0.2,15.9,0.1,23.9,0c3.6,0,4.2-2.6,4.2-5.3
	c0-2.7-0.4-5.2-4.2-5.1C798.6,47.9,794.8,47.8,791,47.8z M790.2,45c4,0,8-0.1,12,0c3.4,0.1,4.7-1.8,4.7-4.8c-0.1-3-1-5-4.6-4.9
	c-7.8,0.1-15.7,0.1-23.4,0c-3.9,0-4.6,2.5-4.7,5.5c-0.1,3,1.6,4.3,4.6,4.3C782.5,44.9,786.3,45,790.2,45z"/>
<path d="M168.9,126c0-14.3-0.1-28.7,0-43.1c0-7.1-0.6-7.7-7.5-7.5c-5.7,0.2-11.5,0.2-17.2,0c-1.2,0-2.3-1.3-3.4-1.9
	c1.1-0.5,2.2-0.9,3.4-1c6.6-0.1,13.2-0.1,19.9,0c3.4,0,5-1.2,4.9-4.9c-0.2-7.8-0.2-15.7,0-23.4c0.1-4.1-1.8-5.1-5.3-5.1
	c-5.4,0.1-10.8,0.1-16.2,0c-1.6-0.1-3.1-0.3-4.7-0.6l-0.2-1.7c1.7-0.5,3.5-0.9,5.2-1.1c12-0.1,24-0.2,36,0c4.5,0.1,8-1.2,10.9-4.8
	c1.1-1.4,4.1-2.6,5.7-2.2c4.5,1.3,8.8,3.6,13.2,5.5l0.3,1.6c-2.5,1-5,2.6-7.6,2.8c-6.3,0.5-12.5,0.4-18.8,0.5
	c-6,0.1-6.5,0.8-6.4,6.6c0.1,7.1-0.1,14.2,0.1,21.3c0.1,1.7,0.9,4.7,1.8,4.8c2.5,0.4,6,0.6,7.5-0.8c7-6.4,14-7.1,21.9-1.2
	c2.6,1.9,0.8,3.5-1.1,4c-3.5,0.9-7.1,1.5-10.8,1.7c-4.5,0.2-9-0.1-13.6-0.1c-4.2,0-6.3,1.6-6.1,6.3c0.3,11.3,0.4,22.6,0.3,33.8
	C181.2,124.3,178.5,126.5,168.9,126z"/>
<path d="M635.8,97.8c-9.4,7.7-19.5,14.5-30,20.5l-1.4-1.9c4.7-4.3,9.7-8.4,14-13.1s8-10.2,11.9-15.3c-0.3-0.7-0.5-1.4-0.8-2.1h-23.7
	l-0.1-2.1c1.1-0.4,2.3-0.7,3.5-0.8c6.9,0,13.9,0.1,20.8,0.2c4.6,0.1,6.2-2.2,5.8-6.6c-0.3-3.7,1.3-8.3-5.5-8
	c-8.5,0.4-17,0.1-25.5,0.1c-0.1-0.7-0.3-1.3-0.4-2c1.5-0.6,3-0.9,4.6-1.1c12-0.1,24-0.1,36,0.1c5.5,0.1,10.1-1.2,13.8-5.8
	c1-1.2,4.1-1.6,5.8-1c4.7,1.4,9,3.6,13,6.5c-3.1,1-6.3,2.8-9.5,3.1c-5.7,0.4-11.5,0.4-17.2,0.1c-2.7-0.1-4.4,0.8-4.6,3.6
	c-0.3,3.9-1.9,8.5,2.7,10.6c1.5,0.7,5.1-0.8,6.5-2.3c4.6-4.9,8.1-6,14.2-3.3c3.1,1.3,5.9,3.1,8.4,5.5c-2.4,0.9-4.8,2.5-7.2,2.7
	c-6.4,0.6-12.9,0.8-19.3,0.7c-4.2,0-5.4,1.8-5.3,5.7c0.2,8.9,0.3,17.8-0.1,26.6c-0.3,2.6-1.6,5-3.7,6.5c-4.6,3.1-6.7,1.5-6.7-4
	C635.9,113.7,635.8,106.6,635.8,97.8z"/>
<path d="M278.6,31.1c-1.9,1.4-3.8,3.6-5.8,3.9c-5.6,0.8-6.3,4.4-6.3,8.9c0.1,19.3,0,38.5,0,57.8c0,4.5,0.1,9-0.2,13.6
	c-0.5,6.5-2.8,9-9.2,10c-7.9,1.2-15.6,1.8-23-3.4c-2.8-1.9-7.7-0.8-11.6-1.2c-1.8-0.2-3.6-0.6-5.4-0.9l0.1-2
	c5-0.2,10.1-0.6,15.1-0.7c4.9-0.1,9.7,0.3,14.6,0.3c6.1,0,7.7-1.6,7.7-7.7c0-24,0-47.9-0.1-71.9c0-9-0.1-9,8.7-8.9
	c5.1,0,10.1,0,15.2,0C278.5,29.8,278.6,30.5,278.6,31.1z"/>
<path d="M243.1,38.2c-2,1.2-3.8,2.9-6,3.5c-4.2,1.2-5.7,3.4-5.7,7.8c0.1,14.4-0.1,28.7-0.5,43.1c-0.1,2.3-0.9,5.3-2.6,6.7
	c-1.8,1.6-5,1.7-7.5,2.4c-0.6-2.2-1.6-4.3-1.6-6.5c-0.1-17.7-0.1-35.3-0.1-53c0-6.1,0.7-6.8,7-6.8c5.6,0,11.2,0.1,16.7,0.2
	L243.1,38.2z"/>
<path d="M651.6,28.7l-11.1,8l1,1.4c6.8,0.9,13.7,2.1,18.4-5.2c1-1.1,2.5-1.6,4-1.4c4.8,1.7,9.5,3.9,14.5,6
	c-3.8,5.1-8.9,4.5-13.6,4.4c-3.3-0.1-4.2,1.1-5.3,4c-2.2,5.4-5.2,10.4-8,15.7l-2.2-0.6c0-4.3-0.4-8.7,0.1-13s-1.4-5.7-5-6.1
	c-1.4-0.1-2.8,0-4.2-0.1c-4.7-0.2-7.2,1.5-6.4,6.7c0.2,2.2,0.2,4.5,0,6.8c0,4-1.2,6.5-6,6.5c-4.8-0.1-4.6-2.9-4.6-6.3
	c0-13,0-13-12.6-13.5c-1.4-0.1-2.6-0.8-3.5-1.9c1.4-0.4,2.7-1.2,4.2-1.3c4.3-0.1,8.7,0,13,0.1c4,0.2,6.4-1,5.5-5.7
	c-0.8-4.2,1.1-6.2,5.4-6.2c5.2,0.1,10.4,0,15.5,0L651.6,28.7z"/>
<path d="M464.4,30.4c2.8-4.4,5.8-5.5,9.8-2.1c4.3,3.8,8.7,7.5,14,12c-3.2,1.8-6.5,3.4-9.9,4.8c-0.8,0.3-2.5-0.8-3.2-1.7
	C471.5,39.3,468.1,35,464.4,30.4z"/>
<path d="M566.6,32.4c-6,3.9-11.5,8-17.5,11.3c-1.5,0.8-4.2-0.7-6.4-1.1c0.5-1.6,1.1-3.2,1.9-4.6c1.4-1.8,2.9-3.5,4.5-5
	C555.2,26.4,558.3,26.2,566.6,32.4z"/>
<path d="M673.4,101.4c-1.9,2.6-3,4.9-4.8,6.2c-0.8,0.6-3.4-0.7-4.8-1.8c-4.4-3.3-8.8-6.8-12.9-10.4c-1-1-1.4-2.9-2-4.4
	c1.5,0,3.1-0.5,4.5,0c5.3,2.1,10.6,4.4,15.7,6.8C670.6,98.5,671.7,100,673.4,101.4z"/>
</svg>
