<svg xmlns="http://www.w3.org/2000/svg" viewBox="0 0 90.75 99.14"><defs><style>.cls-1,.cls-4,.cls-5{fill:none;}.cls-1,.cls-2,.cls-3{stroke:#686e71;}.cls-1,.cls-2,.cls-5,.cls-6{stroke-miterlimit:10;}.cls-1,.cls-2,.cls-3,.cls-5,.cls-6{stroke-width:0.25px;}.cls-2,.cls-3,.cls-6,.cls-7{fill:#fff;}.cls-3,.cls-4,.cls-7{stroke-linecap:round;stroke-linejoin:round;}.cls-4,.cls-5,.cls-6,.cls-7{stroke:#6d6d6d;}.cls-4,.cls-7{stroke-width:0.3px;}</style></defs><g id="Layer_2" data-name="Layer 2"><g id="Layer_1-2" data-name="Layer 1"><ellipse class="cls-1" cx="45.63" cy="28.8" rx="18.17" ry="19.06"/><ellipse class="cls-1" cx="45.63" cy="28.8" rx="21.21" ry="22.25"/><ellipse class="cls-1" cx="45.63" cy="28.8" rx="24.22" ry="25.41"/><ellipse class="cls-1" cx="45.63" cy="28.8" rx="27.33" ry="28.67"/><path class="cls-1" d="M18.37,29a51.22,51.22,0,0,1-5.66-3.66l1.4-3.29,4.5,5.85Z"/><line class="cls-1" x1="18.46" y1="28.46" x2="13.37" y2="23.87"/><path class="cls-1" d="M18.51,29.76c-1,.94-7.62,4.41-7.62,4.41l-2.1-2.85L17.7,29Z"/><line class="cls-1" x1="18.07" y1="29.4" x2="9.85" y2="32.79"/><rect class="cls-2" x="17.65" y="26.84" width="10.59" height="3.73" transform="translate(45.89 57.41) rotate(180)"/><path class="cls-1" d="M72.9,29a50.27,50.27,0,0,0,5.66-3.66l-1.4-3.29-4.5,5.85Z"/><line class="cls-1" x1="72.81" y1="28.46" x2="77.9" y2="23.87"/><path class="cls-1" d="M72.76,29.76c1,.94,7.62,4.41,7.62,4.41l2.11-2.85L73.57,29Z"/><line class="cls-1" x1="73.21" y1="29.4" x2="81.42" y2="32.79"/><rect class="cls-2" x="63.03" y="26.84" width="10.59" height="3.73"/><rect class="cls-3" x="17.91" y="30.6" width="3.18" height="4.94" transform="translate(39.01 66.14) rotate(180)"/><rect class="cls-3" x="17.42" y="32.86" width="4.17" height="8.48" transform="translate(39.01 74.2) rotate(180)"/><rect class="cls-3" x="69.92" y="30.6" width="3.18" height="4.94" transform="translate(143.02 66.14) rotate(180)"/><line class="cls-4" x1="72.39" y1="80.6" x2="70.98" y2="80.6"/><line class="cls-4" x1="70.98" y1="80.6" x2="70.98" y2="73.52"/><line class="cls-4" x1="70.98" y1="73.52" x2="72.39" y2="73.52"/><line class="cls-4" x1="72.39" y1="73.52" x2="72.39" y2="80.6"/><line class="cls-4" x1="72.03" y1="80.6" x2="72.03" y2="84.2"/><line class="cls-4" x1="71.31" y1="80.6" x2="71.31" y2="84.2"/><line class="cls-4" x1="80.61" y1="90.14" x2="80.61" y2="89.06"/><line class="cls-4" x1="78.18" y1="90.14" x2="78.18" y2="89.06"/><line class="cls-4" x1="79.53" y1="86.45" x2="79.53" y2="84.11"/><line class="cls-4" x1="79.53" y1="84.11" x2="77.97" y2="84.11"/><line class="cls-4" x1="79.53" y1="82.91" x2="77.97" y2="82.91"/><line class="cls-4" x1="79.53" y1="82.91" x2="79.53" y2="81.2"/><line class="cls-4" x1="77.97" y1="89.06" x2="77.97" y2="81.2"/><line class="cls-4" x1="77.97" y1="81.2" x2="79.53" y2="81.2"/><line class="cls-4" x1="79.17" y1="84.11" x2="79.17" y2="82.91"/><line class="cls-4" x1="80.82" y1="87.44" x2="79.53" y2="87.44"/><line class="cls-4" x1="79.17" y1="87.08" x2="79.2" y2="87.2"/><line class="cls-4" x1="79.2" y1="87.2" x2="79.26" y2="87.29"/><line class="cls-4" x1="79.26" y1="87.29" x2="79.32" y2="87.38"/><line class="cls-4" x1="79.32" y1="87.38" x2="79.44" y2="87.41"/><line class="cls-4" x1="79.44" y1="87.41" x2="79.53" y2="87.44"/><line class="cls-4" x1="79.17" y1="87.08" x2="79.17" y2="86.81"/><line class="cls-4" x1="79.53" y1="86.45" x2="79.44" y2="86.45"/><line class="cls-4" x1="79.44" y1="86.45" x2="79.32" y2="86.51"/><line class="cls-4" x1="79.32" y1="86.51" x2="79.26" y2="86.6"/><line class="cls-4" x1="79.26" y1="86.6" x2="79.2" y2="86.69"/><line class="cls-4" x1="79.2" y1="86.69" x2="79.17" y2="86.81"/><line class="cls-4" x1="80.34" y1="93.59" x2="80.43" y2="93.56"/><line class="cls-4" x1="80.43" y1="93.56" x2="80.49" y2="93.47"/><line class="cls-4" x1="80.82" y1="91.67" x2="80.82" y2="91.67"/><line class="cls-4" x1="80.82" y1="91.67" x2="80.82" y2="91.64"/><line class="cls-4" x1="80.49" y1="93.47" x2="80.82" y2="91.67"/><line class="cls-4" x1="80.82" y1="91.67" x2="80.82" y2="91.67"/><line class="cls-4" x1="80.82" y1="91.67" x2="80.82" y2="91.64"/><line class="cls-4" x1="80.82" y1="90.26" x2="80.82" y2="91.64"/><line class="cls-4" x1="80.82" y1="90.26" x2="80.79" y2="90.2"/><line class="cls-4" x1="80.79" y1="90.2" x2="80.73" y2="90.14"/><line class="cls-4" x1="80.73" y1="90.14" x2="80.67" y2="90.14"/><line class="cls-4" x1="77.97" y1="89.06" x2="80.67" y2="89.06"/><line class="cls-4" x1="80.82" y1="87.44" x2="80.82" y2="88.91"/><line class="cls-4" x1="80.67" y1="89.06" x2="80.76" y2="89.03"/><line class="cls-4" x1="80.76" y1="89.03" x2="80.82" y2="88.94"/><line class="cls-4" x1="80.82" y1="88.94" x2="80.82" y2="88.91"/><line class="cls-4" x1="78.3" y1="93.47" x2="77.97" y2="91.67"/><line class="cls-4" x1="80.34" y1="93.59" x2="78.45" y2="93.59"/><line class="cls-4" x1="78.3" y1="93.47" x2="78.36" y2="93.56"/><line class="cls-4" x1="78.36" y1="93.56" x2="78.45" y2="93.59"/><line class="cls-4" x1="77.97" y1="91.67" x2="77.97" y2="90.26"/><line class="cls-4" x1="80.67" y1="90.14" x2="78.12" y2="90.14"/><line class="cls-4" x1="78.12" y1="90.14" x2="78.06" y2="90.14"/><line class="cls-4" x1="78.06" y1="90.14" x2="78" y2="90.2"/><line class="cls-4" x1="78" y1="90.2" x2="77.97" y2="90.26"/><line class="cls-4" x1="81.09" y1="80.84" x2="81.09" y2="80.78"/><line class="cls-4" x1="81.09" y1="80.78" x2="81" y2="80.72"/><line class="cls-4" x1="81" y1="80.72" x2="80.94" y2="80.69"/><line class="cls-4" x1="77.85" y1="80.69" x2="80.94" y2="80.69"/><line class="cls-4" x1="77.85" y1="80.69" x2="77.79" y2="80.72"/><line class="cls-4" x1="77.79" y1="80.72" x2="77.7" y2="80.78"/><line class="cls-4" x1="77.7" y1="80.78" x2="77.7" y2="80.84"/><polyline class="cls-4" points="82.06 98.88 82 99 76.81 99 76.78 98.88"/><line class="cls-4" x1="82.05" y1="98.87" x2="82.05" y2="98.78"/><line class="cls-4" x1="82.05" y1="91.88" x2="82.05" y2="91.79"/><line class="cls-4" x1="82.05" y1="91.79" x2="82.02" y2="91.76"/><line class="cls-4" x1="82.05" y1="91.88" x2="82.05" y2="98.78"/><line class="cls-4" x1="82.05" y1="91.88" x2="82.05" y2="91.79"/><line class="cls-4" x1="82.05" y1="91.79" x2="82.02" y2="91.76"/><line class="cls-4" x1="81.09" y1="80.84" x2="81.09" y2="89.09"/><line class="cls-4" x1="81.12" y1="89.21" x2="82.02" y2="91.76"/><line class="cls-4" x1="81.09" y1="89.09" x2="81.12" y2="89.18"/><line class="cls-4" x1="81.12" y1="89.18" x2="81.12" y2="89.21"/><line class="cls-4" x1="77.7" y1="89.09" x2="77.7" y2="80.84"/><line class="cls-4" x1="77.67" y1="89.21" x2="77.67" y2="89.18"/><line class="cls-4" x1="77.67" y1="89.18" x2="77.7" y2="89.09"/><line class="cls-4" x1="77.67" y1="89.21" x2="76.77" y2="91.76"/><line class="cls-4" x1="76.77" y1="91.76" x2="76.77" y2="91.79"/><line class="cls-4" x1="76.77" y1="91.79" x2="76.74" y2="91.88"/><line class="cls-4" x1="76.74" y1="91.88" x2="76.74" y2="98.78"/><line class="cls-4" x1="76.74" y1="98.78" x2="76.77" y2="98.87"/><line class="cls-4" x1="87.39" y1="81.2" x2="87.39" y2="93.59"/><line class="cls-4" x1="87.39" y1="93.59" x2="90.18" y2="93.59"/><line class="cls-4" x1="88.95" y1="86.45" x2="88.95" y2="84.11"/><line class="cls-4" x1="88.95" y1="84.11" x2="87.39" y2="84.11"/><line class="cls-4" x1="88.95" y1="82.91" x2="87.39" y2="82.91"/><line class="cls-4" x1="88.95" y1="82.91" x2="88.95" y2="81.2"/><line class="cls-4" x1="88.62" y1="84.11" x2="88.62" y2="82.91"/><line class="cls-4" x1="90.18" y1="93.59" x2="90.18" y2="89.06"/><line class="cls-4" x1="88.95" y1="81.2" x2="87.39" y2="81.2"/><line class="cls-4" x1="90.18" y1="89.06" x2="89.07" y2="88.49"/><line class="cls-4" x1="88.32" y1="87.23" x2="88.32" y2="87.29"/><line class="cls-4" x1="88.32" y1="87.29" x2="88.32" y2="87.38"/><line class="cls-4" x1="88.32" y1="87.38" x2="88.35" y2="87.47"/><line class="cls-4" x1="88.35" y1="87.47" x2="88.38" y2="87.56"/><line class="cls-4" x1="88.38" y1="87.56" x2="88.38" y2="87.68"/><line class="cls-4" x1="88.38" y1="87.68" x2="88.44" y2="87.77"/><line class="cls-4" x1="88.44" y1="87.77" x2="88.47" y2="87.86"/><line class="cls-4" x1="88.47" y1="87.86" x2="88.5" y2="87.95"/><line class="cls-4" x1="88.5" y1="87.95" x2="88.56" y2="88.01"/><line class="cls-4" x1="88.56" y1="88.01" x2="88.62" y2="88.1"/><line class="cls-4" x1="88.62" y1="88.1" x2="88.68" y2="88.19"/><line class="cls-4" x1="88.68" y1="88.19" x2="88.77" y2="88.25"/><line class="cls-4" x1="88.77" y1="88.25" x2="88.83" y2="88.31"/><line class="cls-4" x1="88.83" y1="88.31" x2="88.92" y2="88.37"/><line class="cls-4" x1="88.92" y1="88.37" x2="88.98" y2="88.43"/><line class="cls-4" x1="88.98" y1="88.43" x2="89.07" y2="88.49"/><line class="cls-4" x1="88.95" y1="86.45" x2="88.8" y2="86.51"/><line class="cls-4" x1="88.32" y1="87.17" x2="88.32" y2="87.23"/><line class="cls-4" x1="88.8" y1="86.51" x2="88.8" y2="86.51"/><line class="cls-4" x1="88.8" y1="86.51" x2="88.71" y2="86.54"/><line class="cls-4" x1="88.71" y1="86.54" x2="88.62" y2="86.6"/><line class="cls-4" x1="88.62" y1="86.6" x2="88.53" y2="86.66"/><line class="cls-4" x1="88.53" y1="86.66" x2="88.47" y2="86.72"/><line class="cls-4" x1="88.47" y1="86.72" x2="88.41" y2="86.81"/><line class="cls-4" x1="88.41" y1="86.81" x2="88.38" y2="86.9"/><line class="cls-4" x1="88.38" y1="86.9" x2="88.35" y2="86.99"/><line class="cls-4" x1="88.35" y1="86.99" x2="88.32" y2="87.08"/><line class="cls-4" x1="88.32" y1="87.08" x2="88.32" y2="87.17"/><line class="cls-4" x1="86.85" y1="95.72" x2="86.85" y2="78.8"/><line class="cls-4" x1="90.6" y1="95.72" x2="90.6" y2="78.8"/><line class="cls-4" x1="90.6" y1="78.8" x2="90.6" y2="78.68"/><line class="cls-4" x1="90.6" y1="78.68" x2="90.54" y2="78.59"/><line class="cls-4" x1="90.54" y1="78.59" x2="90.48" y2="78.5"/><line class="cls-4" x1="90.48" y1="78.5" x2="90.36" y2="78.44"/><line class="cls-4" x1="90.36" y1="78.44" x2="90.27" y2="78.44"/><line class="cls-4" x1="90.27" y1="78.44" x2="87.21" y2="78.44"/><line class="cls-4" x1="87.21" y1="78.44" x2="87.09" y2="78.44"/><line class="cls-4" x1="87.09" y1="78.44" x2="87" y2="78.5"/><line class="cls-4" x1="87" y1="78.5" x2="86.91" y2="78.59"/><line class="cls-4" x1="86.91" y1="78.59" x2="86.88" y2="78.68"/><line class="cls-4" x1="86.88" y1="78.68" x2="86.85" y2="78.8"/><line class="cls-4" x1="90.27" y1="96.08" x2="90.36" y2="96.08"/><line class="cls-4" x1="90.36" y1="96.08" x2="90.48" y2="96.02"/><line class="cls-4" x1="90.48" y1="96.02" x2="90.54" y2="95.93"/><line class="cls-4" x1="90.54" y1="95.93" x2="90.6" y2="95.84"/><line class="cls-4" x1="90.6" y1="95.84" x2="90.6" y2="95.72"/><line class="cls-4" x1="90.27" y1="96.08" x2="87.21" y2="96.08"/><line class="cls-4" x1="86.85" y1="95.72" x2="86.88" y2="95.84"/><line class="cls-4" x1="86.88" y1="95.84" x2="86.91" y2="95.93"/><line class="cls-4" x1="86.91" y1="95.93" x2="87" y2="96.02"/><line class="cls-4" x1="87" y1="96.02" x2="87.09" y2="96.08"/><line class="cls-4" x1="87.09" y1="96.08" x2="87.21" y2="96.08"/><line class="cls-4" x1="70.89" y1="84.2" x2="70.89" y2="96.59"/><line class="cls-4" x1="70.89" y1="96.59" x2="73.68" y2="96.59"/><line class="cls-4" x1="72.45" y1="89.45" x2="72.45" y2="87.11"/><line class="cls-4" x1="72.45" y1="87.11" x2="70.89" y2="87.11"/><line class="cls-4" x1="72.45" y1="85.91" x2="70.89" y2="85.91"/><line class="cls-4" x1="72.45" y1="85.91" x2="72.45" y2="84.2"/><line class="cls-4" x1="72.12" y1="87.11" x2="72.12" y2="85.91"/><line class="cls-4" x1="73.68" y1="96.59" x2="73.68" y2="92.06"/><line class="cls-4" x1="72.45" y1="84.2" x2="70.89" y2="84.2"/><line class="cls-4" x1="73.68" y1="92.06" x2="72.57" y2="91.49"/><line class="cls-4" x1="71.82" y1="90.23" x2="71.82" y2="90.29"/><line class="cls-4" x1="71.82" y1="90.29" x2="71.82" y2="90.38"/><line class="cls-4" x1="71.82" y1="90.38" x2="71.85" y2="90.47"/><line class="cls-4" x1="71.85" y1="90.47" x2="71.88" y2="90.56"/><line class="cls-4" x1="71.88" y1="90.56" x2="71.88" y2="90.68"/><line class="cls-4" x1="71.88" y1="90.68" x2="71.94" y2="90.77"/><line class="cls-4" x1="71.94" y1="90.77" x2="71.97" y2="90.86"/><line class="cls-4" x1="71.97" y1="90.86" x2="72" y2="90.95"/><line class="cls-4" x1="72" y1="90.95" x2="72.06" y2="91.01"/><line class="cls-4" x1="72.06" y1="91.01" x2="72.12" y2="91.1"/><line class="cls-4" x1="72.12" y1="91.1" x2="72.18" y2="91.19"/><line class="cls-4" x1="72.18" y1="91.19" x2="72.27" y2="91.25"/><line class="cls-4" x1="72.27" y1="91.25" x2="72.33" y2="91.31"/><line class="cls-4" x1="72.33" y1="91.31" x2="72.42" y2="91.37"/><line class="cls-4" x1="72.42" y1="91.37" x2="72.48" y2="91.43"/><line class="cls-4" x1="72.48" y1="91.43" x2="72.57" y2="91.49"/><line class="cls-4" x1="72.45" y1="89.45" x2="72.3" y2="89.51"/><line class="cls-4" x1="71.82" y1="90.17" x2="71.82" y2="90.23"/><line class="cls-4" x1="72.3" y1="89.51" x2="72.3" y2="89.51"/><line class="cls-4" x1="72.3" y1="89.51" x2="72.21" y2="89.54"/><line class="cls-4" x1="72.21" y1="89.54" x2="72.12" y2="89.6"/><line class="cls-4" x1="72.12" y1="89.6" x2="72.03" y2="89.66"/><line class="cls-4" x1="72.03" y1="89.66" x2="71.97" y2="89.72"/><line class="cls-4" x1="71.97" y1="89.72" x2="71.91" y2="89.81"/><line class="cls-4" x1="71.91" y1="89.81" x2="71.88" y2="89.9"/><line class="cls-4" x1="71.88" y1="89.9" x2="71.85" y2="89.99"/><line class="cls-4" x1="71.85" y1="89.99" x2="71.82" y2="90.08"/><line class="cls-4" x1="71.82" y1="90.08" x2="71.82" y2="90.17"/><line class="cls-4" x1="70.35" y1="98.72" x2="70.35" y2="81.8"/><line class="cls-4" x1="74.1" y1="98.72" x2="74.1" y2="81.8"/><line class="cls-4" x1="74.1" y1="81.8" x2="74.1" y2="81.68"/><line class="cls-4" x1="74.1" y1="81.68" x2="74.04" y2="81.59"/><line class="cls-4" x1="74.04" y1="81.59" x2="73.98" y2="81.5"/><line class="cls-4" x1="73.98" y1="81.5" x2="73.86" y2="81.44"/><line class="cls-4" x1="73.86" y1="81.44" x2="73.77" y2="81.44"/><line class="cls-4" x1="73.77" y1="81.44" x2="70.71" y2="81.44"/><line class="cls-4" x1="70.71" y1="81.44" x2="70.59" y2="81.44"/><line class="cls-4" x1="70.59" y1="81.44" x2="70.5" y2="81.5"/><line class="cls-4" x1="70.5" y1="81.5" x2="70.41" y2="81.59"/><line class="cls-4" x1="70.41" y1="81.59" x2="70.38" y2="81.68"/><line class="cls-4" x1="70.38" y1="81.68" x2="70.35" y2="81.8"/><polyline class="cls-4" points="74.1 98.84 74.04 98.94 70.41 98.94 70.38 98.84"/><line class="cls-4" x1="74.1" y1="98.84" x2="74.1" y2="98.72"/><line class="cls-4" x1="70.35" y1="98.72" x2="70.38" y2="98.84"/><line class="cls-4" x1="88.32" y1="69.14" x2="88.32" y2="69.05"/><line class="cls-4" x1="88.32" y1="69.05" x2="88.32" y2="68.93"/><line class="cls-4" x1="88.32" y1="68.93" x2="88.32" y2="68.81"/><line class="cls-4" x1="88.32" y1="68.81" x2="88.29" y2="68.72"/><line class="cls-4" x1="88.29" y1="68.72" x2="88.29" y2="68.6"/><line class="cls-4" x1="88.29" y1="68.6" x2="88.29" y2="68.48"/><line class="cls-4" x1="88.29" y1="68.48" x2="88.26" y2="68.39"/><line class="cls-4" x1="88.26" y1="68.39" x2="88.23" y2="68.27"/><line class="cls-4" x1="88.23" y1="68.27" x2="88.2" y2="68.15"/><line class="cls-4" x1="88.2" y1="68.15" x2="88.17" y2="68.06"/><line class="cls-4" x1="88.17" y1="68.06" x2="88.14" y2="67.94"/><line class="cls-4" x1="88.14" y1="67.94" x2="88.11" y2="67.85"/><line class="cls-4" x1="88.11" y1="67.85" x2="88.08" y2="67.73"/><line class="cls-4" x1="88.08" y1="67.73" x2="88.05" y2="67.64"/><line class="cls-4" x1="88.05" y1="67.64" x2="87.99" y2="67.52"/><line class="cls-4" x1="87.99" y1="67.52" x2="87.96" y2="67.43"/><line class="cls-4" x1="87.96" y1="67.43" x2="87.9" y2="67.31"/><line class="cls-4" x1="87.9" y1="67.31" x2="87.87" y2="67.22"/><line class="cls-4" x1="87.87" y1="67.22" x2="87.81" y2="67.13"/><line class="cls-4" x1="87.81" y1="67.13" x2="87.75" y2="67.04"/><line class="cls-4" x1="87.75" y1="67.04" x2="87.69" y2="66.92"/><line class="cls-4" x1="87.69" y1="66.92" x2="87.63" y2="66.83"/><line class="cls-4" x1="87.63" y1="66.83" x2="87.57" y2="66.74"/><line class="cls-4" x1="87.57" y1="66.74" x2="87.51" y2="66.65"/><line class="cls-4" x1="87.51" y1="66.65" x2="87.45" y2="66.56"/><line class="cls-4" x1="87.45" y1="66.56" x2="87.39" y2="66.47"/><line class="cls-4" x1="87.39" y1="66.47" x2="87.3" y2="66.38"/><line class="cls-4" x1="87.3" y1="66.38" x2="87.24" y2="66.32"/><line class="cls-4" x1="87.24" y1="66.32" x2="87.15" y2="66.23"/><line class="cls-4" x1="87.15" y1="66.23" x2="87.09" y2="66.14"/><line class="cls-4" x1="87.09" y1="66.14" x2="87" y2="66.08"/><line class="cls-4" x1="87" y1="66.08" x2="86.91" y2="65.99"/><line class="cls-4" x1="86.91" y1="65.99" x2="86.85" y2="65.93"/><line class="cls-4" x1="86.85" y1="65.93" x2="86.76" y2="65.84"/><line class="cls-4" x1="86.76" y1="65.84" x2="86.67" y2="65.78"/><line class="cls-4" x1="86.67" y1="65.78" x2="86.58" y2="65.72"/><line class="cls-4" x1="86.58" y1="65.72" x2="86.49" y2="65.66"/><line class="cls-4" x1="86.49" y1="65.66" x2="86.4" y2="65.6"/><line class="cls-4" x1="86.4" y1="65.6" x2="86.31" y2="65.54"/><line class="cls-4" x1="86.31" y1="65.54" x2="86.19" y2="65.48"/><line class="cls-4" x1="86.19" y1="65.48" x2="86.1" y2="65.42"/><line class="cls-4" x1="86.1" y1="65.42" x2="86.01" y2="65.36"/><line class="cls-4" x1="86.01" y1="65.36" x2="85.92" y2="65.33"/><line class="cls-4" x1="85.92" y1="65.33" x2="85.8" y2="65.27"/><line class="cls-4" x1="85.8" y1="65.27" x2="85.71" y2="65.21"/><line class="cls-4" x1="85.71" y1="65.21" x2="85.59" y2="65.18"/><line class="cls-4" x1="85.59" y1="65.18" x2="85.5" y2="65.15"/><line class="cls-4" x1="85.5" y1="65.15" x2="85.38" y2="65.12"/><line class="cls-4" x1="85.38" y1="65.12" x2="85.29" y2="65.09"/><line class="cls-4" x1="85.29" y1="65.09" x2="85.17" y2="65.06"/><line class="cls-4" x1="85.17" y1="65.06" x2="85.08" y2="65.03"/><line class="cls-4" x1="85.08" y1="65.03" x2="84.96" y2="65"/><line class="cls-4" x1="84.96" y1="65" x2="84.84" y2="64.97"/><line class="cls-4" x1="84.84" y1="64.97" x2="84.75" y2="64.94"/><line class="cls-4" x1="84.75" y1="64.94" x2="84.63" y2="64.94"/><line class="cls-4" x1="84.63" y1="64.94" x2="84.51" y2="64.91"/><line class="cls-4" x1="84.51" y1="64.91" x2="84.42" y2="64.91"/><line class="cls-4" x1="84.42" y1="64.91" x2="84.3" y2="64.91"/><line class="cls-4" x1="84.3" y1="64.91" x2="84.18" y2="64.91"/><line class="cls-4" x1="84.18" y1="64.91" x2="84.09" y2="64.91"/><line class="cls-4" x1="84.09" y1="64.91" x2="82.65" y2="64.91"/><line class="cls-4" x1="82.65" y1="64.91" x2="82.56" y2="64.91"/><line class="cls-4" x1="82.56" y1="64.91" x2="82.44" y2="64.91"/><line class="cls-4" x1="82.44" y1="64.91" x2="82.32" y2="64.91"/><line class="cls-4" x1="82.32" y1="64.91" x2="82.2" y2="64.91"/><line class="cls-4" x1="82.2" y1="64.91" x2="82.11" y2="64.94"/><line class="cls-4" x1="82.11" y1="64.94" x2="81.99" y2="64.94"/><line class="cls-4" x1="81.99" y1="64.94" x2="81.87" y2="64.97"/><line class="cls-4" x1="81.87" y1="64.97" x2="81.78" y2="65"/><line class="cls-4" x1="81.78" y1="65" x2="81.66" y2="65.03"/><line class="cls-4" x1="81.66" y1="65.03" x2="81.57" y2="65.06"/><line class="cls-4" x1="81.57" y1="65.06" x2="81.45" y2="65.09"/><line class="cls-4" x1="81.45" y1="65.09" x2="81.36" y2="65.12"/><line class="cls-4" x1="81.36" y1="65.12" x2="81.24" y2="65.15"/><line class="cls-4" x1="81.24" y1="65.15" x2="81.15" y2="65.18"/><line class="cls-4" x1="81.15" y1="65.18" x2="81.03" y2="65.21"/><line class="cls-4" x1="81.03" y1="65.21" x2="80.94" y2="65.27"/><line class="cls-4" x1="80.94" y1="65.27" x2="80.82" y2="65.33"/><line class="cls-4" x1="80.82" y1="65.33" x2="80.73" y2="65.36"/><line class="cls-4" x1="80.73" y1="65.36" x2="80.64" y2="65.42"/><line class="cls-4" x1="80.64" y1="65.42" x2="80.52" y2="65.48"/><line class="cls-4" x1="80.52" y1="65.48" x2="80.43" y2="65.54"/><line class="cls-4" x1="80.43" y1="65.54" x2="80.34" y2="65.6"/><line class="cls-4" x1="80.34" y1="65.6" x2="80.25" y2="65.66"/><line class="cls-4" x1="80.25" y1="65.66" x2="80.16" y2="65.72"/><line class="cls-4" x1="80.16" y1="65.72" x2="80.07" y2="65.78"/><line class="cls-4" x1="80.07" y1="65.78" x2="79.98" y2="65.84"/><line class="cls-4" x1="79.98" y1="65.84" x2="79.89" y2="65.93"/><line class="cls-4" x1="79.89" y1="65.93" x2="79.8" y2="65.99"/><line class="cls-4" x1="79.8" y1="65.99" x2="79.74" y2="66.08"/><line class="cls-4" x1="79.74" y1="66.08" x2="79.65" y2="66.14"/><line class="cls-4" x1="79.65" y1="66.14" x2="79.56" y2="66.23"/><line class="cls-4" x1="79.56" y1="66.23" x2="79.5" y2="66.32"/><line class="cls-4" x1="79.5" y1="66.32" x2="79.44" y2="66.38"/><line class="cls-4" x1="79.44" y1="66.38" x2="79.35" y2="66.47"/><line class="cls-4" x1="79.35" y1="66.47" x2="79.29" y2="66.56"/><line class="cls-4" x1="79.29" y1="66.56" x2="79.23" y2="66.65"/><line class="cls-4" x1="79.23" y1="66.65" x2="79.14" y2="66.74"/><line class="cls-4" x1="79.14" y1="66.74" x2="79.08" y2="66.83"/><line class="cls-4" x1="79.08" y1="66.83" x2="79.02" y2="66.92"/><line class="cls-4" x1="79.02" y1="66.92" x2="78.99" y2="67.04"/><line class="cls-4" x1="78.99" y1="67.04" x2="78.93" y2="67.13"/><line class="cls-4" x1="78.93" y1="67.13" x2="78.87" y2="67.22"/><line class="cls-4" x1="78.87" y1="67.22" x2="78.81" y2="67.31"/><line class="cls-4" x1="78.81" y1="67.31" x2="78.78" y2="67.43"/><line class="cls-4" x1="78.78" y1="67.43" x2="78.72" y2="67.52"/><line class="cls-4" x1="78.72" y1="67.52" x2="78.69" y2="67.64"/><line class="cls-4" x1="78.69" y1="67.64" x2="78.66" y2="67.73"/><line class="cls-4" x1="78.66" y1="67.73" x2="78.63" y2="67.85"/><line class="cls-4" x1="78.63" y1="67.85" x2="78.57" y2="67.94"/><line class="cls-4" x1="78.57" y1="67.94" x2="78.54" y2="68.06"/><line class="cls-4" x1="78.54" y1="68.06" x2="78.51" y2="68.15"/><line class="cls-4" x1="78.51" y1="68.15" x2="78.51" y2="68.27"/><line class="cls-4" x1="78.51" y1="68.27" x2="78.48" y2="68.39"/><line class="cls-4" x1="78.48" y1="68.39" x2="78.45" y2="68.48"/><line class="cls-4" x1="78.45" y1="68.48" x2="78.45" y2="68.6"/><line class="cls-4" x1="78.45" y1="68.6" x2="78.42" y2="68.72"/><line class="cls-4" x1="78.42" y1="68.72" x2="78.42" y2="68.81"/><line class="cls-4" x1="78.42" y1="68.81" x2="78.42" y2="68.93"/><line class="cls-4" x1="78.42" y1="68.93" x2="78.42" y2="69.05"/><line class="cls-4" x1="78.42" y1="69.05" x2="78.42" y2="69.14"/><line class="cls-4" x1="78.42" y1="81.2" x2="78.42" y2="69.14"/><line class="cls-4" x1="87.63" y1="69.14" x2="87.63" y2="69.02"/><line class="cls-4" x1="87.63" y1="69.02" x2="87.6" y2="68.9"/><line class="cls-4" x1="87.6" y1="68.9" x2="87.6" y2="68.78"/><line class="cls-4" x1="87.6" y1="68.78" x2="87.6" y2="68.66"/><line class="cls-4" x1="87.6" y1="68.66" x2="87.57" y2="68.54"/><line class="cls-4" x1="87.57" y1="68.54" x2="87.54" y2="68.42"/><line class="cls-4" x1="87.54" y1="68.42" x2="87.51" y2="68.3"/><line class="cls-4" x1="87.51" y1="68.3" x2="87.48" y2="68.18"/><line class="cls-4" x1="87.48" y1="68.18" x2="87.45" y2="68.06"/><line class="cls-4" x1="87.45" y1="68.06" x2="87.42" y2="67.94"/><line class="cls-4" x1="87.42" y1="67.94" x2="87.36" y2="67.82"/><line class="cls-4" x1="87.36" y1="67.82" x2="87.3" y2="67.7"/><line class="cls-4" x1="87.3" y1="67.7" x2="87.27" y2="67.61"/><line class="cls-4" x1="87.27" y1="67.61" x2="87.21" y2="67.49"/><line class="cls-4" x1="87.21" y1="67.49" x2="87.15" y2="67.37"/><line class="cls-4" x1="87.15" y1="67.37" x2="87.09" y2="67.28"/><line class="cls-4" x1="87.09" y1="67.28" x2="87" y2="67.16"/><line class="cls-4" x1="87" y1="67.16" x2="86.94" y2="67.07"/><line class="cls-4" x1="86.94" y1="67.07" x2="86.88" y2="66.98"/><line class="cls-4" x1="86.88" y1="66.98" x2="86.79" y2="66.89"/><line class="cls-4" x1="86.79" y1="66.89" x2="86.7" y2="66.77"/><line class="cls-4" x1="86.7" y1="66.77" x2="86.64" y2="66.68"/><line class="cls-4" x1="86.64" y1="66.68" x2="86.55" y2="66.59"/><line class="cls-4" x1="86.55" y1="66.59" x2="86.46" y2="66.53"/><line class="cls-4" x1="86.46" y1="66.53" x2="86.34" y2="66.44"/><line class="cls-4" x1="86.34" y1="66.44" x2="86.25" y2="66.35"/><line class="cls-4" x1="86.25" y1="66.35" x2="86.16" y2="66.29"/><line class="cls-4" x1="86.16" y1="66.29" x2="86.07" y2="66.23"/><line class="cls-4" x1="86.07" y1="66.23" x2="85.95" y2="66.14"/><line class="cls-4" x1="85.95" y1="66.14" x2="85.86" y2="66.08"/><line class="cls-4" x1="85.86" y1="66.08" x2="85.74" y2="66.02"/><line class="cls-4" x1="85.74" y1="66.02" x2="85.62" y2="65.96"/><line class="cls-4" x1="85.62" y1="65.96" x2="85.53" y2="65.93"/><line class="cls-4" x1="85.53" y1="65.93" x2="85.41" y2="65.87"/><line class="cls-4" x1="85.41" y1="65.87" x2="85.29" y2="65.81"/><line class="cls-4" x1="85.29" y1="65.81" x2="85.17" y2="65.78"/><line class="cls-4" x1="85.17" y1="65.78" x2="85.05" y2="65.75"/><line class="cls-4" x1="85.05" y1="65.75" x2="84.93" y2="65.72"/><line class="cls-4" x1="84.93" y1="65.72" x2="84.81" y2="65.69"/><line class="cls-4" x1="84.81" y1="65.69" x2="84.69" y2="65.66"/><line class="cls-4" x1="84.69" y1="65.66" x2="84.57" y2="65.63"/><line class="cls-4" x1="84.57" y1="65.63" x2="84.45" y2="65.63"/><line class="cls-4" x1="84.45" y1="65.63" x2="84.33" y2="65.63"/><line class="cls-4" x1="84.33" y1="65.63" x2="84.21" y2="65.6"/><line class="cls-4" x1="84.21" y1="65.6" x2="84.09" y2="65.6"/><line class="cls-4" x1="84.09" y1="65.6" x2="82.65" y2="65.6"/><line class="cls-4" x1="82.65" y1="65.6" x2="82.53" y2="65.6"/><line class="cls-4" x1="82.53" y1="65.6" x2="82.41" y2="65.63"/><line class="cls-4" x1="82.41" y1="65.63" x2="82.29" y2="65.63"/><line class="cls-4" x1="82.29" y1="65.63" x2="82.17" y2="65.63"/><line class="cls-4" x1="82.17" y1="65.63" x2="82.05" y2="65.66"/><line class="cls-4" x1="82.05" y1="65.66" x2="81.93" y2="65.69"/><line class="cls-4" x1="81.93" y1="65.69" x2="81.81" y2="65.72"/><line class="cls-4" x1="81.81" y1="65.72" x2="81.69" y2="65.75"/><line class="cls-4" x1="81.69" y1="65.75" x2="81.57" y2="65.78"/><line class="cls-4" x1="81.57" y1="65.78" x2="81.45" y2="65.81"/><line class="cls-4" x1="81.45" y1="65.81" x2="81.33" y2="65.87"/><line class="cls-4" x1="81.33" y1="65.87" x2="81.21" y2="65.93"/><line class="cls-4" x1="81.21" y1="65.93" x2="81.12" y2="65.96"/><line class="cls-4" x1="81.12" y1="65.96" x2="81" y2="66.02"/><line class="cls-4" x1="81" y1="66.02" x2="80.88" y2="66.08"/><line class="cls-4" x1="80.88" y1="66.08" x2="80.79" y2="66.14"/><line class="cls-4" x1="80.79" y1="66.14" x2="80.67" y2="66.23"/><line class="cls-4" x1="80.67" y1="66.23" x2="80.58" y2="66.29"/><line class="cls-4" x1="80.58" y1="66.29" x2="80.49" y2="66.35"/><line class="cls-4" x1="80.49" y1="66.35" x2="80.37" y2="66.44"/><line class="cls-4" x1="80.37" y1="66.44" x2="80.28" y2="66.53"/><line class="cls-4" x1="80.28" y1="66.53" x2="80.19" y2="66.59"/><line class="cls-4" x1="80.19" y1="66.59" x2="80.1" y2="66.68"/><line class="cls-4" x1="80.1" y1="66.68" x2="80.04" y2="66.77"/><line class="cls-4" x1="80.04" y1="66.77" x2="79.95" y2="66.89"/><line class="cls-4" x1="79.95" y1="66.89" x2="79.86" y2="66.98"/><line class="cls-4" x1="79.86" y1="66.98" x2="79.8" y2="67.07"/><line class="cls-4" x1="79.8" y1="67.07" x2="79.71" y2="67.16"/><line class="cls-4" x1="79.71" y1="67.16" x2="79.65" y2="67.28"/><line class="cls-4" x1="79.65" y1="67.28" x2="79.59" y2="67.37"/><line class="cls-4" x1="79.59" y1="67.37" x2="79.53" y2="67.49"/><line class="cls-4" x1="79.53" y1="67.49" x2="79.47" y2="67.61"/><line class="cls-4" x1="79.47" y1="67.61" x2="79.41" y2="67.7"/><line class="cls-4" x1="79.41" y1="67.7" x2="79.38" y2="67.82"/><line class="cls-4" x1="79.38" y1="67.82" x2="79.32" y2="67.94"/><line class="cls-4" x1="79.32" y1="67.94" x2="79.29" y2="68.06"/><line class="cls-4" x1="79.29" y1="68.06" x2="79.26" y2="68.18"/><line class="cls-4" x1="79.26" y1="68.18" x2="79.23" y2="68.3"/><line class="cls-4" x1="79.23" y1="68.3" x2="79.2" y2="68.42"/><line class="cls-4" x1="79.2" y1="68.42" x2="79.17" y2="68.54"/><line class="cls-4" x1="79.17" y1="68.54" x2="79.14" y2="68.66"/><line class="cls-4" x1="79.14" y1="68.66" x2="79.14" y2="68.78"/><line class="cls-4" x1="79.14" y1="68.78" x2="79.11" y2="68.9"/><line class="cls-4" x1="79.11" y1="68.9" x2="79.11" y2="69.02"/><line class="cls-4" x1="79.11" y1="69.02" x2="79.11" y2="69.14"/><line class="cls-4" x1="79.11" y1="81.2" x2="79.11" y2="69.14"/><line class="cls-4" x1="88.32" y1="81.2" x2="88.32" y2="69.14"/><line class="cls-4" x1="87.63" y1="81.2" x2="87.63" y2="69.14"/><line class="cls-4" x1="79.11" y1="69.11" x2="79.11" y2="81.2"/><line class="cls-4" x1="66.58" y1="90.09" x2="66.58" y2="89.01"/><line class="cls-4" x1="64.18" y1="90.09" x2="64.18" y2="89.01"/><line class="cls-4" x1="65.53" y1="86.4" x2="65.53" y2="84.06"/><line class="cls-4" x1="65.53" y1="84.06" x2="63.97" y2="84.06"/><line class="cls-4" x1="65.53" y1="82.86" x2="63.97" y2="82.86"/><line class="cls-4" x1="65.53" y1="82.86" x2="65.53" y2="81.15"/><line class="cls-4" x1="63.97" y1="89.01" x2="63.97" y2="81.15"/><line class="cls-4" x1="63.97" y1="81.15" x2="65.53" y2="81.15"/><line class="cls-4" x1="65.17" y1="84.06" x2="65.17" y2="82.86"/><line class="cls-4" x1="66.82" y1="87.39" x2="65.53" y2="87.39"/><line class="cls-4" x1="65.17" y1="87.03" x2="65.2" y2="87.15"/><line class="cls-4" x1="65.2" y1="87.15" x2="65.23" y2="87.24"/><line class="cls-4" x1="65.23" y1="87.24" x2="65.32" y2="87.33"/><line class="cls-4" x1="65.32" y1="87.33" x2="65.41" y2="87.36"/><line class="cls-4" x1="65.41" y1="87.36" x2="65.53" y2="87.39"/><line class="cls-4" x1="65.17" y1="87.03" x2="65.17" y2="86.76"/><line class="cls-4" x1="65.53" y1="86.4" x2="65.41" y2="86.4"/><line class="cls-4" x1="65.41" y1="86.4" x2="65.32" y2="86.46"/><line class="cls-4" x1="65.32" y1="86.46" x2="65.23" y2="86.55"/><line class="cls-4" x1="65.23" y1="86.55" x2="65.2" y2="86.64"/><line class="cls-4" x1="65.2" y1="86.64" x2="65.17" y2="86.76"/><line class="cls-4" x1="66.34" y1="93.54" x2="66.43" y2="93.51"/><line class="cls-4" x1="66.43" y1="93.51" x2="66.49" y2="93.42"/><line class="cls-4" x1="66.79" y1="91.62" x2="66.79" y2="91.62"/><line class="cls-4" x1="66.79" y1="91.62" x2="66.82" y2="91.59"/><line class="cls-4" x1="66.49" y1="93.42" x2="66.79" y2="91.62"/><line class="cls-4" x1="66.79" y1="91.62" x2="66.79" y2="91.62"/><line class="cls-4" x1="66.79" y1="91.62" x2="66.82" y2="91.59"/><line class="cls-4" x1="66.82" y1="90.21" x2="66.82" y2="91.59"/><line class="cls-4" x1="66.82" y1="90.21" x2="66.79" y2="90.15"/><line class="cls-4" x1="66.79" y1="90.15" x2="66.7" y2="90.09"/><line class="cls-4" x1="66.7" y1="90.09" x2="66.67" y2="90.09"/><line class="cls-4" x1="63.97" y1="89.01" x2="66.67" y2="89.01"/><line class="cls-4" x1="66.82" y1="87.39" x2="66.82" y2="88.86"/><line class="cls-4" x1="66.67" y1="89.01" x2="66.76" y2="88.98"/><line class="cls-4" x1="66.76" y1="88.98" x2="66.79" y2="88.89"/><line class="cls-4" x1="66.79" y1="88.89" x2="66.82" y2="88.86"/><line class="cls-4" x1="64.3" y1="93.42" x2="63.97" y2="91.62"/><line class="cls-4" x1="66.34" y1="93.54" x2="64.42" y2="93.54"/><line class="cls-4" x1="64.3" y1="93.42" x2="64.33" y2="93.51"/><line class="cls-4" x1="64.33" y1="93.51" x2="64.42" y2="93.54"/><line class="cls-4" x1="63.97" y1="91.62" x2="63.97" y2="90.21"/><line class="cls-4" x1="66.67" y1="90.09" x2="64.12" y2="90.09"/><line class="cls-4" x1="64.12" y1="90.09" x2="64.06" y2="90.09"/><line class="cls-4" x1="64.06" y1="90.09" x2="64" y2="90.15"/><line class="cls-4" x1="64" y1="90.15" x2="63.97" y2="90.21"/><line class="cls-4" x1="67.09" y1="80.79" x2="67.06" y2="80.73"/><line class="cls-4" x1="67.06" y1="80.73" x2="67" y2="80.67"/><line class="cls-4" x1="67" y1="80.67" x2="66.94" y2="80.64"/><line class="cls-4" x1="63.82" y1="80.64" x2="66.94" y2="80.64"/><line class="cls-4" x1="63.82" y1="80.64" x2="63.79" y2="80.67"/><line class="cls-4" x1="63.79" y1="80.67" x2="63.7" y2="80.73"/><line class="cls-4" x1="63.7" y1="80.73" x2="63.7" y2="80.76"/><polyline class="cls-4" points="68.02 98.82 67.99 98.94 62.8 98.94 62.74 98.82"/><line class="cls-4" x1="68.02" y1="98.82" x2="68.05" y2="98.73"/><line class="cls-4" x1="68.05" y1="91.83" x2="68.02" y2="91.74"/><line class="cls-4" x1="68.02" y1="91.74" x2="68.02" y2="91.71"/><line class="cls-4" x1="68.05" y1="91.83" x2="68.05" y2="98.73"/><line class="cls-4" x1="68.05" y1="91.83" x2="68.02" y2="91.74"/><line class="cls-4" x1="68.02" y1="91.74" x2="68.02" y2="91.71"/><line class="cls-4" x1="67.09" y1="80.79" x2="67.09" y2="89.04"/><line class="cls-4" x1="67.12" y1="89.16" x2="68.02" y2="91.71"/><line class="cls-4" x1="67.09" y1="89.04" x2="67.12" y2="89.13"/><line class="cls-4" x1="67.12" y1="89.13" x2="67.12" y2="89.16"/><line class="cls-4" x1="63.67" y1="89.16" x2="63.67" y2="89.13"/><line class="cls-4" x1="63.67" y1="89.13" x2="63.7" y2="89.04"/><line class="cls-4" x1="63.67" y1="89.16" x2="62.74" y2="91.71"/><line class="cls-4" x1="62.74" y1="91.71" x2="62.74" y2="91.74"/><line class="cls-4" x1="62.74" y1="91.74" x2="62.74" y2="91.83"/><line class="cls-4" x1="62.74" y1="91.83" x2="62.74" y2="98.73"/><line class="cls-4" x1="62.74" y1="98.73" x2="62.74" y2="98.82"/><line class="cls-4" x1="63.7" y1="89.04" x2="63.7" y2="80.79"/><line class="cls-4" x1="65.47" y1="79.95" x2="64.03" y2="79.95"/><line class="cls-4" x1="64.03" y1="79.95" x2="64.03" y2="72.87"/><line class="cls-4" x1="64.03" y1="72.87" x2="65.47" y2="72.87"/><line class="cls-4" x1="65.47" y1="72.87" x2="65.47" y2="79.95"/><line class="cls-4" x1="65.11" y1="79.95" x2="65.11" y2="81.15"/><line class="cls-4" x1="64.39" y1="79.95" x2="64.39" y2="81.15"/><line class="cls-4" x1="79.47" y1="64.79" x2="78.06" y2="64.79"/><line class="cls-4" x1="78.06" y1="64.79" x2="78.06" y2="57.71"/><line class="cls-4" x1="78.06" y1="57.71" x2="79.47" y2="57.71"/><line class="cls-4" x1="79.47" y1="57.71" x2="79.47" y2="64.79"/><line class="cls-4" x1="79.11" y1="64.79" x2="79.11" y2="66.8"/><line class="cls-4" x1="78.42" y1="64.79" x2="78.42" y2="81.2"/><rect class="cls-5" x="71.31" y="40.82" width="0.75" height="32.74"/><path class="cls-5" d="M79.11,57.65h-.75V53.89a11.8,11.8,0,0,0-1.65-6L72.63,41l.64-.39,4.09,6.9a12.52,12.52,0,0,1,1.75,6.4Z"/><path class="cls-6" d="M64.52,73h.75V53.84a11.8,11.8,0,0,1,1.65-6L71,40.93l-.65-.39-4.08,6.9a12.53,12.53,0,0,0-1.76,6.4Z"/><rect class="cls-3" x="69.46" y="32.86" width="4.17" height="8.48" transform="translate(143.08 74.2) rotate(180)"/><line class="cls-7" x1="23.52" y1="78.63" x2="23.52" y2="72.27"/><line class="cls-7" x1="23.52" y1="72.27" x2="12.18" y2="72.27"/><line class="cls-7" x1="12.18" y1="72.27" x2="12.18" y2="78.63"/><line class="cls-7" x1="12.18" y1="78.63" x2="23.52" y2="78.63"/><line class="cls-7" x1="23.52" y1="43.2" x2="23.52" y2="42.48"/><line class="cls-7" x1="23.52" y1="42.48" x2="12.18" y2="42.48"/><line class="cls-7" x1="12.18" y1="42.48" x2="12.18" y2="43.2"/><line class="cls-7" x1="12.18" y1="43.2" x2="23.52" y2="43.2"/><line class="cls-7" x1="12.9" y1="42.48" x2="13.26" y2="41.07"/><line class="cls-7" x1="22.83" y1="42.48" x2="22.47" y2="41.07"/><line class="cls-7" x1="22.47" y1="41.07" x2="13.26" y2="41.07"/><line class="cls-7" x1="27.66" y1="70.83" x2="27.66" y2="68.7"/><line class="cls-7" x1="27.66" y1="68.7" x2="8.04" y2="68.7"/><line class="cls-7" x1="8.04" y1="68.7" x2="8.04" y2="70.83"/><line class="cls-7" x1="8.04" y1="70.83" x2="27.66" y2="70.83"/><line class="cls-7" x1="28.47" y1="68.7" x2="28.47" y2="66.6"/><line class="cls-7" x1="28.47" y1="66.6" x2="7.23" y2="66.6"/><line class="cls-7" x1="7.23" y1="66.6" x2="7.23" y2="68.7"/><line class="cls-7" x1="7.23" y1="68.7" x2="28.47" y2="68.7"/><line class="cls-7" x1="28.47" y1="65.16" x2="28.47" y2="63.06"/><line class="cls-7" x1="28.47" y1="63.06" x2="7.23" y2="63.06"/><line class="cls-7" x1="7.23" y1="63.06" x2="7.23" y2="65.16"/><line class="cls-7" x1="7.23" y1="65.16" x2="28.47" y2="65.16"/><line class="cls-7" x1="27.66" y1="63.06" x2="27.66" y2="60.93"/><line class="cls-7" x1="27.66" y1="60.93" x2="8.04" y2="60.93"/><line class="cls-7" x1="8.04" y1="60.93" x2="8.04" y2="63.06"/><line class="cls-7" x1="8.04" y1="63.06" x2="27.66" y2="63.06"/><line class="cls-7" x1="24.24" y1="43.2" x2="11.49" y2="43.2"/><line class="cls-7" x1="11.49" y1="72.27" x2="24.24" y2="72.27"/><line class="cls-7" x1="24.24" y1="72.27" x2="24.24" y2="70.83"/><line class="cls-7" x1="24.24" y1="66.6" x2="24.24" y2="65.16"/><line class="cls-7" x1="24.24" y1="60.93" x2="24.24" y2="43.2"/><line class="cls-7" x1="11.49" y1="70.83" x2="11.49" y2="72.27"/><line class="cls-7" x1="11.49" y1="60.93" x2="11.49" y2="43.2"/><line class="cls-7" x1="11.49" y1="65.16" x2="11.49" y2="66.6"/><line class="cls-7" x1="22.83" y1="70.83" x2="22.83" y2="68.7"/><line class="cls-7" x1="12.93" y1="70.83" x2="12.93" y2="68.7"/><line class="cls-7" x1="22.83" y1="63.06" x2="22.83" y2="60.93"/><line class="cls-7" x1="12.93" y1="63.06" x2="12.93" y2="60.93"/><line class="cls-7" x1="32.4" y1="66.6" x2="32.4" y2="65.16"/><line class="cls-7" x1="32.4" y1="65.16" x2="2.25" y2="65.16"/><line class="cls-7" x1="2.25" y1="65.16" x2="2.22" y2="65.16"/><line class="cls-7" x1="2.22" y1="65.16" x2="2.13" y2="65.16"/><line class="cls-7" x1="2.13" y1="65.16" x2="2.01" y2="65.13"/><line class="cls-7" x1="2.01" y1="65.13" x2="1.92" y2="65.1"/><line class="cls-7" x1="1.92" y1="65.1" x2="1.86" y2="65.04"/><line class="cls-7" x1="1.86" y1="65.04" x2="1.77" y2="64.98"/><line class="cls-7" x1="1.77" y1="64.98" x2="1.71" y2="64.89"/><line class="cls-7" x1="1.71" y1="64.89" x2="1.65" y2="64.83"/><line class="cls-7" x1="1.65" y1="64.83" x2="1.62" y2="64.74"/><line class="cls-7" x1="1.62" y1="64.74" x2="1.59" y2="64.62"/><line class="cls-7" x1="1.59" y1="64.62" x2="1.56" y2="64.53"/><line class="cls-7" x1="1.56" y1="64.53" x2="1.56" y2="64.47"/><line class="cls-7" x1="32.4" y1="66.6" x2="2.25" y2="66.6"/><line class="cls-7" x1="2.25" y1="66.6" x2="2.16" y2="66.6"/><line class="cls-7" x1="2.16" y1="66.6" x2="2.04" y2="66.57"/><line class="cls-7" x1="2.04" y1="66.57" x2="1.92" y2="66.57"/><line class="cls-7" x1="1.92" y1="66.57" x2="1.83" y2="66.54"/><line class="cls-7" x1="1.83" y1="66.54" x2="1.71" y2="66.51"/><line class="cls-7" x1="1.71" y1="66.51" x2="1.62" y2="66.48"/><line class="cls-7" x1="1.62" y1="66.48" x2="1.5" y2="66.45"/><line class="cls-7" x1="1.5" y1="66.45" x2="1.41" y2="66.39"/><line class="cls-7" x1="1.41" y1="66.39" x2="1.29" y2="66.36"/><line class="cls-7" x1="1.29" y1="66.36" x2="1.2" y2="66.3"/><line class="cls-7" x1="1.2" y1="66.3" x2="1.11" y2="66.24"/><line class="cls-7" x1="1.11" y1="66.24" x2="1.02" y2="66.18"/><line class="cls-7" x1="1.02" y1="66.18" x2="0.93" y2="66.12"/><line class="cls-7" x1="0.93" y1="66.12" x2="0.84" y2="66.03"/><line class="cls-7" x1="0.84" y1="66.03" x2="0.75" y2="65.97"/><line class="cls-7" x1="0.75" y1="65.97" x2="0.69" y2="65.88"/><line class="cls-7" x1="0.69" y1="65.88" x2="0.6" y2="65.79"/><line class="cls-7" x1="0.6" y1="65.79" x2="0.54" y2="65.7"/><line class="cls-7" x1="0.54" y1="65.7" x2="0.48" y2="65.61"/><line class="cls-7" x1="0.48" y1="65.61" x2="0.42" y2="65.52"/><line class="cls-7" x1="0.42" y1="65.52" x2="0.36" y2="65.43"/><line class="cls-7" x1="0.36" y1="65.43" x2="0.33" y2="65.34"/><line class="cls-7" x1="0.33" y1="65.34" x2="0.27" y2="65.22"/><line class="cls-7" x1="0.27" y1="65.22" x2="0.24" y2="65.13"/><line class="cls-7" x1="0.24" y1="65.13" x2="0.21" y2="65.01"/><line class="cls-7" x1="0.21" y1="65.01" x2="0.18" y2="64.89"/><line class="cls-7" x1="0.18" y1="64.89" x2="0.15" y2="64.8"/><line class="cls-7" x1="0.15" y1="64.8" x2="0.15" y2="64.68"/><line class="cls-7" x1="0.15" y1="64.68" x2="0.15" y2="64.56"/><polyline class="cls-7" points="0.15 64.56 0.15 64.47 0.15 34.71 1.56 34.71 1.56 64.47"/><rect class="cls-7" x="11.49" y="43.2" width="12.75" height="17.73" transform="translate(35.73 104.13) rotate(180)"/><rect class="cls-7" x="12.18" y="42.46" width="11.35" height="0.74" transform="translate(35.71 85.66) rotate(180)"/><polygon class="cls-7" points="22.85 42.45 12.89 42.45 13.15 41.05 22.54 41.05 22.85 42.45"/></g></g></svg>