<svg xmlns="http://www.w3.org/2000/svg" viewBox="0 0 22.57 14.17"><defs><style>.cls-1,.cls-2{fill:none;stroke-linecap:round;stroke-linejoin:round;stroke-width:0.4px;}.cls-1{stroke:#231916;}.cls-2{stroke:#57585b;}</style></defs><g id="Layer_2" data-name="Layer 2"><g id="Layer_2-2" data-name="Layer 2"><polyline class="cls-1" points="0.66 11.95 0.68 11.95 0.72 11.95 0.79 11.95 0.89 11.95 1.01 11.95 1.16 11.95 1.33 11.95 1.52 11.95 1.72 11.95 8.93 11.95 9.3 11.95 9.69 11.95 10.08 11.95 10.47 11.95 10.88 11.95 11.29 11.95 11.69 11.95 12.09 11.95 12.49 11.95 12.88 11.95 13.26 11.95 13.64 11.95 20.85 11.95 21.05 11.95 21.24 11.95 21.41 11.95 21.55 11.95 21.68 11.95 21.78 11.95 21.84 11.95 21.89 11.95 21.91 11.95"/><polyline class="cls-1" points="22.18 13.97 22.17 13.97 22.11 13.97 22.03 13.97 21.92 13.97 21.78 13.97 21.61 13.97 21.41 13.97 21.19 13.97 20.96 13.97 13.75 13.97 13.36 13.97 12.96 13.97 12.55 13.97 12.13 13.97 11.71 13.97 11.29 13.97 10.86 13.97 10.44 13.97 10.02 13.97 9.6 13.97 9.2 13.97 8.81 13.97 1.6 13.97 1.37 13.97 1.16 13.97 0.96 13.97 0.79 13.97 0.64 13.97 0.54 13.97 0.45 13.97 0.4 13.97 0.38 13.97"/><line class="cls-1" x1="9.27" y1="11.03" x2="9.27" y2="9.02"/><line class="cls-1" x1="13.29" y1="11.03" x2="13.29" y2="9.02"/><path class="cls-1" d="M13.29,11a.93.93,0,0,0,.93.92"/><path class="cls-1" d="M8.36,12A.92.92,0,0,0,9.28,11"/><path class="cls-1" d="M22.19,14a.18.18,0,0,0,.18-.18"/><path class="cls-1" d="M.66,11.94a.47.47,0,0,0-.46.47"/><line class="cls-1" x1="22.37" y1="12.41" x2="22.37" y2="13.79"/><line class="cls-1" x1="0.2" y1="12.41" x2="0.2" y2="13.79"/><path class="cls-1" d="M22.37,12.41a.46.46,0,0,0-.46-.47"/><path class="cls-1" d="M.2,13.79A.18.18,0,0,0,.39,14"/><polyline class="cls-2" points="9.27 9.02 9.27 8.99 13.29 8.99 13.29 9.02"/><path class="cls-1" d="M15.92,4.84A4.63,4.63,0,0,1,13.29,9V9h-4V9a4.64,4.64,0,1,1,6.65-4.18Z"/></g></g></svg>