<svg xmlns="http://www.w3.org/2000/svg" viewBox="0 0 74.12 61.44"><defs><style>.cls-1,.cls-4{fill:none;}.cls-1,.cls-2,.cls-3,.cls-4{stroke:#727477;stroke-width:0.25px;}.cls-1,.cls-2{stroke-miterlimit:10;}.cls-2,.cls-3{fill:#fff;}.cls-3,.cls-4{stroke-linecap:round;stroke-linejoin:round;}</style></defs><g id="Layer_2" data-name="Layer 2"><g id="page2"><ellipse class="cls-1" cx="37.06" cy="28.8" rx="18.17" ry="19.06"/><ellipse class="cls-1" cx="37.06" cy="28.8" rx="21.21" ry="22.25"/><ellipse class="cls-1" cx="37.06" cy="28.8" rx="24.22" ry="25.41"/><ellipse class="cls-1" cx="37.06" cy="28.8" rx="27.33" ry="28.67"/><path class="cls-1" d="M9.8,29a50.27,50.27,0,0,1-5.66-3.66l1.4-3.29L10,27.94Z"/><line class="cls-1" x1="9.89" y1="28.46" x2="4.8" y2="23.87"/><path class="cls-1" d="M9.94,29.76c-1,.94-7.62,4.41-7.62,4.41L.21,31.32,9.12,29Z"/><line class="cls-1" x1="9.49" y1="29.4" x2="1.28" y2="32.79"/><rect class="cls-2" x="9.08" y="26.84" width="10.59" height="3.73" transform="translate(28.74 57.41) rotate(180)"/><path class="cls-1" d="M64.33,29A51.22,51.22,0,0,0,70,25.38l-1.41-3.29-4.49,5.85Z"/><line class="cls-1" x1="64.23" y1="28.46" x2="69.32" y2="23.87"/><path class="cls-1" d="M64.19,29.76c1,.94,7.62,4.41,7.62,4.41l2.1-2.85L65,29Z"/><line class="cls-1" x1="64.63" y1="29.4" x2="72.84" y2="32.79"/><rect class="cls-2" x="54.46" y="26.84" width="10.59" height="3.73"/><rect class="cls-3" x="8.43" y="44.17" width="2.29" height="1.46" transform="translate(54.48 35.32) rotate(90)"/><rect class="cls-3" x="8.77" y="45.39" width="1.6" height="2.91" transform="translate(56.42 37.27) rotate(90)"/><rect class="cls-4" x="6.91" y="54.13" width="1.15" height="0.89" transform="translate(62.06 47.1) rotate(90)"/><path class="cls-4" d="M7.93,49.53H7.35V52l.32.64v.64h0a.18.18,0,0,0-.18.19v.06a.11.11,0,0,0,.1.11h.08v.35"/><line class="cls-4" x1="7.92" y1="50.54" x2="7.36" y2="50.54"/><line class="cls-4" x1="7.71" y1="49.57" x2="7.71" y2="50.52"/><polyline class="cls-4" points="7.66 50.56 7.66 51.82 7.77 52.02 7.92 52.02"/><line class="cls-4" x1="7.84" y1="52.18" x2="7.84" y2="53.94"/><line class="cls-4" x1="10.72" y1="47.64" x2="10.72" y2="55.1"/><rect class="cls-3" x="9.39" y="46.84" width="0.4" height="2.6" rx="0.2" transform="translate(57.73 38.55) rotate(90)"/><rect class="cls-3" x="9.39" y="47.56" width="0.4" height="2.6" rx="0.2" transform="translate(58.45 39.27) rotate(90)"/><path class="cls-4" d="M7.93,47.65h3.34V48a.2.2,0,0,0-.1.18.21.21,0,0,0,.1.18v.36a.21.21,0,0,0-.1.18h0a.2.2,0,0,0,.1.18v6.12H7.93Z"/><polygon class="cls-3" points="10.6 54.84 10.6 52.09 9.66 52.09 9.66 53.3 10.12 53.3 10.12 54.84 10.6 54.84"/><ellipse class="cls-4" cx="9.43" cy="54.13" rx="0.26" ry="0.28"/><ellipse class="cls-4" cx="9.43" cy="54.13" rx="0.52" ry="0.54"/><line class="cls-4" x1="9.31" y1="54.13" x2="9.69" y2="54.13"/><line class="cls-4" x1="9.32" y1="43.72" x2="9.32" y2="41.36"/><line class="cls-4" x1="10.08" y1="43.72" x2="10.08" y2="41.36"/><rect class="cls-3" x="13.9" y="51.74" width="0.32" height="6.49"/><rect class="cls-3" x="12.27" y="51.74" width="0.32" height="6.49"/><polygon class="cls-3" points="13.67 53.16 12.83 53.16 12.83 54.27 11.99 54.27 11.99 51.74 14.78 51.74 14.78 54.27 13.67 54.27 13.67 53.16"/><rect class="cls-3" x="13.67" y="53.34" width="1.11" height="0.68"/><rect class="cls-3" x="11.99" y="53.34" width="0.84" height="0.68"/><rect class="cls-3" x="13.24" y="52.73" width="2.52" height="0.56" transform="translate(67.5 38.5) rotate(90)"/><rect class="cls-3" x="12.57" y="51.48" width="0.83" height="1.37" transform="translate(65.15 39.18) rotate(90)"/><rect class="cls-3" x="12.68" y="56.31" width="0.99" height="0.44" transform="translate(69.71 43.35) rotate(90)"/><rect class="cls-3" x="12.87" y="56.5" width="0.62" height="0.44" transform="translate(69.9 43.54) rotate(90)"/><line class="cls-3" x1="12.59" y1="58.12" x2="13.89" y2="58.12"/><path class="cls-3" d="M13.09,51.71a3.35,3.35,0,0,0,0-.52,6.39,6.39,0,0,0-1-3.55c-.92-1.48-.74-6.29-.74-6.29"/><path class="cls-3" d="M13.92,51.71s0-2.75,0-3.29a6.39,6.39,0,0,0-1-3.55,6.53,6.53,0,0,1-.74-3.52"/><ellipse class="cls-3" cx="66.02" cy="51.07" rx="0.25" ry="0.26"/><ellipse class="cls-3" cx="66.02" cy="50.42" rx="0.25" ry="0.26"/><ellipse class="cls-3" cx="66.02" cy="49.77" rx="0.25" ry="0.26"/><rect class="cls-3" x="60.97" y="50.61" width="5.6" height="3.3" transform="translate(11.51 116.03) rotate(-90)"/><path class="cls-3" d="M66,49.46h-.59v4.43l.41,0v-.4s0,0,0,0a.23.23,0,0,0,.22-.24.23.23,0,0,0-.22-.23s0,0,0,0v-.58l.18-.75Z"/><rect class="cls-3" x="65.2" y="54.1" width="1.18" height="0.73" transform="translate(11.32 120.25) rotate(-90)"/><rect class="cls-3" x="65.2" y="54.1" width="1.18" height="0.73" transform="translate(11.32 120.25) rotate(-90)"/><rect class="cls-3" x="62.57" y="47.5" width="2.41" height="1.51" transform="translate(112.03 -15.52) rotate(90)"/><polygon class="cls-3" points="63.29 44.43 63.29 45.76 63.02 47.05 64.53 47.05 64.23 45.76 64.23 44.43 63.29 44.43"/><polyline class="cls-4" points="65.6 53.85 65.6 51.99 65.42 51.99"/><rect class="cls-3" x="64.45" y="50.43" width="2.27" height="0.34" transform="translate(14.99 116.19) rotate(-90)"/><line class="cls-3" x1="64.14" y1="41.39" x2="64.14" y2="44.42"/><line class="cls-3" x1="63.39" y1="41.39" x2="63.39" y2="44.42"/><path class="cls-4" d="M58.59,56.93v3.82l.56.57h1.69l.56-.57V56.93l-.56-.57H59.15Z"/><polygon class="cls-4" points="59.15 56.36 59.15 53.64 58.87 53.3 58.87 51.78 61.07 51.79 61.07 53.31 60.84 53.64 60.84 56.36 59.15 56.36"/><path class="cls-4" d="M60.72,61V59H59.21v2l.29.29h.94Z"/><rect class="cls-4" x="59.27" y="59.54" width="1.4" height="0.37" transform="translate(0.25 119.69) rotate(-90)"/><rect class="cls-4" x="59.73" y="59.07" width="0.46" height="0.37" transform="translate(0.71 119.22) rotate(-90)"/><rect class="cls-3" x="9.34" y="30.6" width="3.18" height="4.94" transform="translate(21.86 66.14) rotate(180)"/><rect class="cls-3" x="8.84" y="32.86" width="4.17" height="8.48" transform="translate(21.86 74.2) rotate(180)"/><rect class="cls-3" x="61.35" y="30.6" width="3.18" height="4.94" transform="translate(125.87 66.14) rotate(180)"/><rect class="cls-3" x="60.88" y="32.86" width="4.17" height="8.48" transform="translate(125.93 74.2) rotate(180)"/><path class="cls-3" d="M60.47,51.71a3.35,3.35,0,0,1,0-.52,6.39,6.39,0,0,1,1-3.55c.92-1.48,1.16-6.29,1.16-6.29"/><path class="cls-3" d="M59.45,51.71s0-2.75,0-3.29c0-.93.72-2.08,1.64-3.55a6.43,6.43,0,0,0,.74-3.52"/></g></g></svg>