<svg xmlns="http://www.w3.org/2000/svg" viewBox="0 0 68.29 69.5"><defs><style>.cls-1,.cls-3,.cls-5{fill:#fff;}.cls-2{fill:#6e7173;}.cls-3,.cls-7{stroke:#727477;}.cls-3{stroke-linecap:round;stroke-linejoin:round;}.cls-3,.cls-4,.cls-5,.cls-7{stroke-width:0.25px;}.cls-4,.cls-6,.cls-7{fill:none;}.cls-4,.cls-5,.cls-6{stroke:#6e7173;}.cls-4,.cls-5,.cls-6,.cls-7{stroke-miterlimit:10;}</style></defs><g id="Layer_2" data-name="Layer 2"><g id="page2"><path class="cls-1" d="M59.19,41.39v8.94a2.6,2.6,0,0,0,.44,1.45h0a2.84,2.84,0,0,1,.43,1.5V63"/><path class="cls-2" d="M60.31,63h-.5v-9.7a2.57,2.57,0,0,0-.4-1.37,2.88,2.88,0,0,1-.47-1.58V41.39h.5v8.94a2.42,2.42,0,0,0,.4,1.32,3,3,0,0,1,.47,1.63Z"/><rect class="cls-3" x="5.5" y="28.8" width="3.18" height="8.38" transform="translate(14.19 65.98) rotate(180)"/><rect class="cls-3" x="57.03" y="28.73" width="3.18" height="6.83" transform="translate(117.23 64.29) rotate(180)"/><rect class="cls-3" x="56.56" y="32.88" width="4.17" height="8.48" transform="translate(117.3 74.25) rotate(180)"/><rect class="cls-4" x="62.21" y="46.99" width="6.92" height="4.99" transform="translate(115.15 -16.18) rotate(90)"/><polygon class="cls-4" points="66.21 52.95 65.16 52.95 65.16 48.38 64.67 48.38 64.67 46.02 66.67 46.02 66.67 48.38 66.21 48.38 66.21 52.95"/><rect class="cls-4" x="65.03" y="50.62" width="1.27" height="0.53" transform="translate(116.55 -14.78) rotate(90)"/><rect class="cls-4" x="66.67" y="46.45" width="1.5" height="1.55"/><rect class="cls-4" x="63.17" y="46.45" width="1.5" height="1.55"/><line class="cls-4" x1="67.69" y1="46.45" x2="67.69" y2="48"/><line class="cls-4" x1="67.16" y1="46.45" x2="67.16" y2="48"/><line class="cls-4" x1="64.19" y1="46.45" x2="64.19" y2="48"/><line class="cls-4" x1="63.65" y1="46.45" x2="63.65" y2="48"/><rect class="cls-4" x="65.65" y="50.44" width="4.55" height="0.48" transform="translate(118.6 -17.25) rotate(90)"/><rect class="cls-4" x="61.14" y="50.44" width="4.55" height="0.48" transform="translate(114.08 -12.74) rotate(90)"/><rect class="cls-5" x="60.33" y="52.76" width="3.77" height="2.11" transform="translate(116.03 -8.4) rotate(90)"/><rect class="cls-5" x="61.48" y="55.7" width="2.52" height="5.55"/><rect class="cls-5" x="60.94" y="55.7" width="0.54" height="5.55"/><rect class="cls-5" x="61.48" y="51.93" width="1.56" height="3.77"/><rect class="cls-5" x="61.76" y="57.89" width="1.34" height="0.75" transform="translate(120.7 -4.16) rotate(90)"/><polyline class="cls-5" points="64 55.7 64 54.94 63.27 54.36"/><line class="cls-5" x1="61.16" y1="54.36" x2="60.94" y2="55.7"/><polygon class="cls-4" points="59.27 59.4 57.86 59.4 57.86 55.6 57.6 55.6 57.6 53.03 59.39 53.03 59.39 55.6 59.27 55.6 59.27 59.4"/><rect class="cls-4" x="57.52" y="53.37" width="2.2" height="1.53" transform="translate(112.76 -4.49) rotate(90)"/><rect class="cls-4" x="57.75" y="53.14" width="1.73" height="1.53" transform="translate(112.52 -4.72) rotate(90)"/><rect class="cls-4" x="57.92" y="52.97" width="1.41" height="1.53" transform="translate(112.36 -4.88) rotate(90)"/><polygon class="cls-5" points="59.27 59.4 58.13 59.4 58.13 55.6 58.38 55.6 58.38 54.04 58.96 54.04 58.96 55.6 59.27 55.6 59.27 59.4"/><rect class="cls-4" x="57.26" y="57.38" width="3.8" height="0.23" transform="translate(116.65 -1.66) rotate(90)"/><rect class="cls-4" x="58.1" y="57.67" width="1.13" height="0.45" transform="translate(116.56 -0.77) rotate(90)"/><rect class="cls-4" x="58.28" y="57.85" width="0.78" height="0.45" transform="translate(116.74 -0.59) rotate(90)"/><rect class="cls-4" x="58.3" y="52.87" width="0.65" height="0.98" transform="translate(111.98 -5.26) rotate(90)"/><path class="cls-4" d="M61.47,65.31H58.75V63h2.56c.06.09.09.14.16.23Z"/><path class="cls-4" d="M61.31,69.38H59V65.31h2.52v3.83Z"/><rect class="cls-4" x="61.47" y="64.16" width="0.23" height="0.72"/><rect class="cls-4" x="61.47" y="66.24" width="0.23" height="1.32"/><rect class="cls-4" x="58.22" y="66.01" width="5.68" height="0.42" transform="translate(127.28 5.16) rotate(90)"/><rect class="cls-4" x="57.86" y="66.4" width="4.07" height="1.89" transform="translate(127.24 7.44) rotate(90)"/><rect class="cls-4" x="58.99" y="67.52" width="1.82" height="1.89" transform="translate(128.37 8.57) rotate(90)"/><rect class="cls-4" x="58.91" y="65.82" width="2.04" height="1.42" transform="translate(126.47 6.6) rotate(90)"/><rect class="cls-4" x="59.65" y="64.85" width="0.67" height="0.25" transform="translate(124.96 4.99) rotate(90)"/><rect class="cls-4" x="59.8" y="65.84" width="0.36" height="0.25" transform="translate(125.95 5.98) rotate(90)"/><polygon class="cls-2" points="60.39 63.38 59.64 63.38 59.64 64.22 60.39 64.22 60.39 63.38 60.39 63.38"/><rect class="cls-4" x="59.84" y="68.37" width="1.81" height="0.19" transform="translate(129.21 7.73) rotate(90)"/><rect class="cls-4" x="58.14" y="68.37" width="1.81" height="0.19" transform="translate(127.52 9.42) rotate(90)"/><rect class="cls-4" x="58.73" y="68.37" width="1.81" height="0.19" transform="translate(128.11 8.83) rotate(90)"/><rect class="cls-4" x="59.28" y="68.37" width="1.81" height="0.19" transform="translate(128.66 8.29) rotate(90)"/><polygon class="cls-4" points="48.03 55.73 48.03 59.86 48.43 60.43 48.43 64 46.99 64 46.99 55.73 48.03 55.73"/><polygon class="cls-4" points="47.79 58.43 47.79 60.35 48.21 60.74 48.21 62.73 47.21 62.73 47.21 58.43 47.79 58.43"/><rect class="cls-4" x="47.21" y="57.93" width="0.51" height="0.5" transform="translate(-10.72 105.64) rotate(-90)"/><rect class="cls-4" x="46.97" y="57.11" width="1.06" height="0.57" transform="translate(-9.89 104.89) rotate(-90)"/><polygon class="cls-4" points="49.45 59.45 49.45 63.7 49.01 64.58 49.01 67.95 50.92 67.95 50.92 64.49 50.52 63.58 50.52 59.45 49.45 59.45"/><polygon class="cls-4" points="49.64 65.57 49.46 62.35 50.34 62.35 50.27 63.7 50.17 65.57 49.64 65.57"/><line class="cls-4" x1="50.13" y1="63.7" x2="50.27" y2="63.7"/><line class="cls-4" x1="49.68" y1="63.7" x2="49.54" y2="63.7"/><rect class="cls-4" x="49.43" y="61.4" width="1.28" height="0.54" transform="translate(111.75 11.6) rotate(90)"/><rect class="cls-4" x="49.68" y="59.95" width="0.78" height="0.54" transform="translate(110.29 10.14) rotate(90)"/><rect class="cls-4" x="49.91" y="60.6" width="0.42" height="0.44" transform="translate(110.94 10.69) rotate(90)"/><rect class="cls-4" x="41.02" y="49.14" width="1.81" height="3.57" transform="translate(-0.15 0.12) rotate(-0.16)"/><rect class="cls-4" x="37.62" y="49.14" width="3.4" height="3.57" transform="translate(-0.15 0.11) rotate(-0.16)"/><path class="cls-4" d="M41,53.11a.4.4,0,0,1-.4-.4h.79A.39.39,0,0,1,41,53.11Z"/><polygon class="cls-4" points="41.83 49.14 41.83 48.84 41.52 48.84 41.31 48.53 40.78 48.53 40.78 49.14 41.83 49.14"/><rect class="cls-4" x="40.72" y="50.43" width="0.88" height="0.99" transform="matrix(0, 1, -1, 0, 91.96, 9.61)"/><rect class="cls-4" x="39.94" y="50.51" width="0.62" height="0.84" transform="translate(91.06 10.53) rotate(89.84)"/><rect class="cls-4" x="40.2" y="50.77" width="0.62" height="0.32" transform="translate(91.32 10.27) rotate(89.84)"/><rect class="cls-4" x="38.48" y="49.83" width="0.89" height="0.42" transform="translate(88.86 10.97) rotate(89.84)"/><rect class="cls-4" x="38.49" y="51.6" width="0.89" height="0.42" transform="matrix(0, 1, -1, 0, 90.64, 12.73)"/><rect class="cls-4" x="39.86" y="49.33" width="0.43" height="1.88" transform="translate(90.23 10.04) rotate(89.84)"/><rect class="cls-4" x="39.81" y="50.7" width="0.54" height="1.88" transform="translate(91.6 11.4) rotate(89.84)"/><line class="cls-4" x1="41.65" y1="50.48" x2="41.02" y2="51.14"/><line class="cls-4" x1="41.65" y1="50.85" x2="41.16" y2="51.36"/><line class="cls-4" x1="41.28" y1="50.48" x2="41.02" y2="50.75"/><rect class="cls-5" x="54.09" y="53.09" width="1.93" height="1.93" transform="translate(109.12 -1) rotate(90)"/><rect class="cls-5" x="54.89" y="52.74" width="0.33" height="1.93" transform="translate(108.77 -1.35) rotate(90)"/><rect class="cls-5" x="55.25" y="53.49" width="0.33" height="0.44" transform="translate(109.12 -1.7) rotate(90)"/><rect class="cls-5" x="54.51" y="53.44" width="0.33" height="0.54" transform="translate(108.38 -0.96) rotate(90)"/><rect class="cls-5" x="54.89" y="53.26" width="0.33" height="1.93" transform="translate(109.28 -0.83) rotate(90)"/><rect class="cls-5" x="55.25" y="54" width="0.33" height="0.44" transform="translate(109.64 -1.19) rotate(90)"/><rect class="cls-5" x="54.51" y="53.95" width="0.33" height="0.54" transform="translate(108.89 -0.45) rotate(90)"/><rect class="cls-5" x="54.89" y="53.9" width="0.33" height="1.93" transform="translate(109.92 -0.19) rotate(90)"/><rect class="cls-5" x="55.25" y="54.64" width="0.33" height="0.44" transform="translate(110.27 -0.55) rotate(90)"/><rect class="cls-5" x="54.51" y="54.59" width="0.33" height="0.54" transform="translate(109.53 0.19) rotate(90)"/><rect class="cls-5" x="53.99" y="55.03" width="2.13" height="0.48"/><rect class="cls-5" x="53.99" y="60.15" width="2.13" height="1.17"/><rect class="cls-5" x="53.44" y="55.51" width="3.15" height="4.64" rx="0.29"/><rect class="cls-5" x="53.58" y="57.26" width="2.95" height="1.36" rx="0.68" transform="translate(113 2.89) rotate(90)"/><rect class="cls-5" x="51.99" y="57.85" width="2.74" height="0.16" transform="translate(111.29 4.57) rotate(90)"/><rect class="cls-5" x="55.31" y="57.86" width="2.74" height="0.16" transform="translate(114.62 1.27) rotate(90)"/><path class="cls-5" d="M54,62h1.72a.36.36,0,0,1,.36.36v0a.36.36,0,0,1-.36.36H54a0,0,0,0,1,0,0V62a0,0,0,0,1,0,0Z" transform="translate(117.43 7.3) rotate(90)"/><polygon class="cls-4" points="2.94 49.45 2.94 43.02 11.25 43.02 11.25 49.45 8.72 49.45 8.1 48.76 5.94 48.76 5.29 49.45 2.94 49.45"/><polygon class="cls-4" points="3.37 49.14 3.37 43.02 10.81 43.02 10.81 49.14 9.28 49.14 8.48 48.16 5.42 48.16 4.69 49.14 3.37 49.14"/><rect class="cls-4" x="4.52" y="44.05" width="5.14" height="3.07" transform="translate(52.68 38.49) rotate(90)"/><rect class="cls-4" x="6.77" y="42.43" width="0.65" height="1.82" transform="translate(50.43 36.25) rotate(90)"/><rect class="cls-4" x="6.77" y="48.16" width="0.65" height="1.82" transform="translate(56.17 41.98) rotate(90)"/><rect class="cls-4" x="6.67" y="46.23" width="0.84" height="0.84" transform="translate(53.75 39.56) rotate(90)"/><rect class="cls-4" x="6.91" y="46.48" width="0.36" height="0.84" transform="translate(53.99 39.8) rotate(90)"/><line class="cls-6" x1="8.18" y1="44.38" x2="8.18" y2="48.16"/><line class="cls-6" x1="8" y1="46.23" x2="8" y2="48.16"/><line class="cls-6" x1="6.01" y1="44.38" x2="6.01" y2="48.16"/><line class="cls-6" x1="6.18" y1="46.23" x2="6.18" y2="48.16"/><polygon class="cls-4" points="2.97 58.75 2.97 53.01 2.58 52.53 2.58 50.96 0.5 50.96 0.5 52.51 0.13 52.96 0.13 58.75 2.97 58.75"/><polyline class="cls-4" points="0.13 55.32 0.66 55.32 0.66 54.05 1.04 54.05 1.04 55.32 2.31 55.32 2.31 54.19 2.61 54.19 2.61 55.32 2.97 55.32"/><line class="cls-4" x1="0.66" y1="52.52" x2="2.44" y2="52.52"/><line class="cls-4" x1="0.33" y1="52.98" x2="2.77" y2="52.98"/><rect class="cls-4" x="0.23" y="56.13" width="2.9" height="1.27" transform="translate(58.45 55.09) rotate(90)"/><rect class="cls-4" x="1.4" y="54.96" width="0.55" height="1.27" transform="translate(57.27 53.92) rotate(90)"/><polygon class="cls-4" points="43.9 58.4 43.91 62.53 43.49 63.39 43.49 66.67 45.35 66.66 45.34 63.29 44.95 62.41 44.94 58.39 43.9 58.4"/><polygon class="cls-4" points="44.1 64.35 43.92 61.22 44.77 61.21 44.71 62.53 44.61 64.35 44.1 64.35"/><line class="cls-4" x1="44.57" y1="62.53" x2="44.71" y2="62.53"/><line class="cls-4" x1="44.13" y1="62.53" x2="43.99" y2="62.53"/><rect class="cls-4" x="43.89" y="60.29" width="1.25" height="0.53" transform="matrix(0, 1, -1, 0, 104.94, 15.87)"/><rect class="cls-4" x="44.13" y="58.88" width="0.76" height="0.53" transform="translate(103.52 14.47) rotate(89.84)"/><rect class="cls-4" x="44.35" y="59.51" width="0.41" height="0.43" transform="translate(104.15 15) rotate(89.84)"/><rect class="cls-3" x="6.2" y="37.18" width="1.61" height="5.84"/><line class="cls-1" x1="58.61" y1="41.29" x2="58.61" y2="52.88"/><rect class="cls-2" x="58.36" y="41.29" width="0.5" height="11.6"/><path class="cls-2" d="M1.85,51h-.5V44.54a4.38,4.38,0,0,1,1.89-3.6l1-.73a3.61,3.61,0,0,0,1.67-3h.5a4.09,4.09,0,0,1-1.88,3.44l-1.05.73a3.89,3.89,0,0,0-1.67,3.19Z"/><path class="cls-2" d="M55.32,53.06h-.5V51.44c0-1.49.08-2.92,1.13-3.93l.13-.12a5.05,5.05,0,0,0,1.71-3.49V41.44h.5V43.9a5.55,5.55,0,0,1-1.87,3.85l-.12.12c-.91.88-1,2.14-1,3.57Z"/><path class="cls-2" d="M62.47,51.85H62v-1.1a4.89,4.89,0,0,0-1.2-3.2A5.28,5.28,0,0,1,59.51,44V41.37H60V44a4.75,4.75,0,0,0,1.13,3.2,5.34,5.34,0,0,1,1.33,3.53Z"/><path class="cls-2" d="M65.92,46h-.5a1.58,1.58,0,0,0-1.16-1.52l-2.64-.77a2.06,2.06,0,0,1-1.53-2v-.36h.5v.36a1.57,1.57,0,0,0,1.16,1.51l2.64.77A2.07,2.07,0,0,1,65.92,46Z"/><path class="cls-7" d="M57.07,28.8c0-14-10.85-25.42-24.23-25.42S8.62,14.76,8.62,28.8"/><path class="cls-7" d="M60.17,28.8C60.17,13,47.94.12,32.84.12S5.52,13,5.52,28.8"/><path class="cls-2" d="M44,58.4V52.27a.93.93,0,0,0-.93-.92h-.26v-.5h.26a1.44,1.44,0,0,1,1.43,1.42v6.12Z"/><path class="cls-2" d="M50.33,59.45h-.5V51.58a1,1,0,0,0-2.08,0v4h-.5v-4a1.54,1.54,0,0,1,3.08,0Z"/><path class="cls-2" d="M50.32,51.58h-.5v-.13a3.65,3.65,0,0,1,1.83-3.16l3.93-2.51a3.21,3.21,0,0,0,1.65-2.73V41.44h.5v1.61a3.67,3.67,0,0,1-1.89,3.15l-3.93,2.52a3.16,3.16,0,0,0-1.59,2.73Z"/><path class="cls-2" d="M42.89,50.73h0v-.5h0c.81,0,1-.4,1.42-1.06.64-1.1,1.51-2.61,5.64-3A19.3,19.3,0,0,0,55,44.74a2.87,2.87,0,0,0,1.2-1,2.59,2.59,0,0,0,.45-1.45v-.91h.5v.91a3.18,3.18,0,0,1-.53,1.74,3.42,3.42,0,0,1-1.41,1.12A19.5,19.5,0,0,1,50,46.68c-3.88.35-4.67,1.73-5.25,2.74C44.36,50.09,44,50.73,42.89,50.73Z"/></g></g></svg>