<svg xmlns="http://www.w3.org/2000/svg" viewBox="0 0 57.06 44.58"><defs><style>.cls-1{fill:none;stroke:#231916;stroke-miterlimit:10;stroke-width:0.5px;}</style></defs><g id="Layer_2" data-name="Layer 2"><g id="Layer_2-2" data-name="Layer 2"><g id="SPLINE"><path class="cls-1" d="M5.32,33.08H5.4l0,0,0,0"/></g><g id="LINE"><line class="cls-1" x1="4.95" y1="33.08" x2="5.32" y2="33.08"/></g><g id="SPLINE-2" data-name="SPLINE"><path class="cls-1" d="M4.81,33.16h0v0h0l0,0H5"/></g><g id="LINE-2" data-name="LINE"><line class="cls-1" x1="4.62" y1="33.49" x2="4.81" y2="33.16"/></g><g id="SPLINE-3" data-name="SPLINE"><path class="cls-1" d="M4.62,33.65v-.08s0,0,0,0,0,0,0,0"/></g><g id="LINE-3" data-name="LINE"><line class="cls-1" x1="4.81" y1="33.97" x2="4.62" y2="33.65"/></g><g id="SPLINE-4" data-name="SPLINE"><path class="cls-1" d="M5,34.05H4.87l0,0,0,0"/></g><g id="LINE-4" data-name="LINE"><line class="cls-1" x1="5.32" y1="34.05" x2="4.95" y2="34.05"/></g><g id="SPLINE-5" data-name="SPLINE"><path class="cls-1" d="M5.46,34v0h0v0h-.1"/></g><g id="LINE-5" data-name="LINE"><line class="cls-1" x1="5.64" y1="33.65" x2="5.46" y2="33.97"/></g><g id="SPLINE-6" data-name="SPLINE"><path class="cls-1" d="M5.64,33.49v.12l0,0"/></g><g id="LINE-6" data-name="LINE"><line class="cls-1" x1="5.46" y1="33.16" x2="5.64" y2="33.49"/></g><g id="SPLINE-7" data-name="SPLINE"><path class="cls-1" d="M7.11,36.19h.08l0,0,0,0"/></g><g id="LINE-7" data-name="LINE"><line class="cls-1" x1="6.74" y1="36.19" x2="7.11" y2="36.19"/></g><g id="SPLINE-8" data-name="SPLINE"><path class="cls-1" d="M6.6,36.27v0h0v0h0l0,0h0"/></g><g id="LINE-8" data-name="LINE"><line class="cls-1" x1="6.41" y1="36.59" x2="6.6" y2="36.27"/></g><g id="SPLINE-9" data-name="SPLINE"><path class="cls-1" d="M6.41,36.75v-.08a.06.06,0,0,1,0,0s0,0,0,0"/></g><g id="LINE-9" data-name="LINE"><line class="cls-1" x1="6.6" y1="37.07" x2="6.41" y2="36.75"/></g><g id="SPLINE-10" data-name="SPLINE"><path class="cls-1" d="M6.74,37.15H6.66l0,0,0,0"/></g><g id="LINE-10" data-name="LINE"><line class="cls-1" x1="7.11" y1="37.15" x2="6.74" y2="37.15"/></g><g id="SPLINE-11" data-name="SPLINE"><path class="cls-1" d="M7.25,37.07v0l0,0h0l0,0h0"/></g><g id="LINE-11" data-name="LINE"><line class="cls-1" x1="7.44" y1="36.75" x2="7.25" y2="37.07"/></g><g id="SPLINE-12" data-name="SPLINE"><path class="cls-1" d="M7.44,36.59v.08s0,0,0,0,0,0,0,0"/></g><g id="LINE-12" data-name="LINE"><line class="cls-1" x1="7.25" y1="36.27" x2="7.44" y2="36.59"/></g><g id="SPLINE-13" data-name="SPLINE"><path class="cls-1" d="M7.11,32.05h.08l0,0,0,0"/></g><g id="LINE-13" data-name="LINE"><line class="cls-1" x1="6.74" y1="32.05" x2="7.11" y2="32.05"/></g><g id="SPLINE-14" data-name="SPLINE"><path class="cls-1" d="M6.6,32.13v0h0v0h.1"/></g><g id="LINE-14" data-name="LINE"><line class="cls-1" x1="6.41" y1="32.45" x2="6.6" y2="32.13"/></g><g id="SPLINE-15" data-name="SPLINE"><path class="cls-1" d="M6.41,32.61v-.08a.06.06,0,0,1,0,0s0,0,0,0"/></g><g id="LINE-15" data-name="LINE"><line class="cls-1" x1="6.6" y1="32.94" x2="6.41" y2="32.61"/></g><g id="SPLINE-16" data-name="SPLINE"><path class="cls-1" d="M6.74,33H6.66l0,0,0,0"/></g><g id="LINE-16" data-name="LINE"><line class="cls-1" x1="7.11" y1="33.02" x2="6.74" y2="33.02"/></g><g id="SPLINE-17" data-name="SPLINE"><path class="cls-1" d="M7.25,32.94h0l0,0h0l0,0h0"/></g><g id="LINE-17" data-name="LINE"><line class="cls-1" x1="7.44" y1="32.61" x2="7.25" y2="32.94"/></g><g id="SPLINE-18" data-name="SPLINE"><path class="cls-1" d="M7.44,32.45v.08s0,0,0,0,0,0,0,0"/></g><g id="LINE-18" data-name="LINE"><line class="cls-1" x1="7.25" y1="32.13" x2="7.44" y2="32.45"/></g><g id="SPLINE-19" data-name="SPLINE"><path class="cls-1" d="M8.9,39.29H9l0,0,0,0"/></g><g id="LINE-19" data-name="LINE"><line class="cls-1" x1="8.53" y1="39.29" x2="8.9" y2="39.29"/></g><g id="SPLINE-20" data-name="SPLINE"><path class="cls-1" d="M8.39,39.37h0l0,0h0l0,0h.08"/></g><g id="LINE-20" data-name="LINE"><line class="cls-1" x1="8.21" y1="39.7" x2="8.39" y2="39.37"/></g><g id="SPLINE-21" data-name="SPLINE"><path class="cls-1" d="M8.21,39.86v-.08s0,0,0-.05l0,0"/></g><g id="LINE-21" data-name="LINE"><line class="cls-1" x1="8.39" y1="40.18" x2="8.21" y2="39.86"/></g><g id="SPLINE-22" data-name="SPLINE"><path class="cls-1" d="M8.53,40.26H8.45l0,0,0,0"/></g><g id="LINE-22" data-name="LINE"><line class="cls-1" x1="8.9" y1="40.26" x2="8.53" y2="40.26"/></g><g id="SPLINE-23" data-name="SPLINE"><path class="cls-1" d="M9,40.18v0H9l0,0H8.9"/></g><g id="LINE-23" data-name="LINE"><line class="cls-1" x1="9.23" y1="39.86" x2="9.04" y2="40.18"/></g><g id="SPLINE-24" data-name="SPLINE"><path class="cls-1" d="M9.23,39.7h0v.07a.08.08,0,0,1,0,0s0,0,0,0"/></g><g id="LINE-24" data-name="LINE"><line class="cls-1" x1="9.04" y1="39.37" x2="9.23" y2="39.7"/></g><g id="SPLINE-25" data-name="SPLINE"><path class="cls-1" d="M8.9,35.15H9l0,0,0,0"/></g><g id="LINE-25" data-name="LINE"><line class="cls-1" x1="8.53" y1="35.15" x2="8.9" y2="35.15"/></g><g id="SPLINE-26" data-name="SPLINE"><path class="cls-1" d="M8.39,35.23h0l0,0h0l0,0h0"/></g><g id="LINE-26" data-name="LINE"><line class="cls-1" x1="8.21" y1="35.56" x2="8.39" y2="35.23"/></g><g id="SPLINE-27" data-name="SPLINE"><path class="cls-1" d="M8.21,35.72v-.08s0,0,0,0a.05.05,0,0,1,0,0"/></g><g id="LINE-27" data-name="LINE"><line class="cls-1" x1="8.39" y1="36.04" x2="8.21" y2="35.72"/></g><g id="SPLINE-28" data-name="SPLINE"><path class="cls-1" d="M8.53,36.12H8.45l0,0,0,0"/></g><g id="LINE-28" data-name="LINE"><line class="cls-1" x1="8.9" y1="36.12" x2="8.53" y2="36.12"/></g><g id="SPLINE-29" data-name="SPLINE"><path class="cls-1" d="M9,36v0H9l0,0H8.9"/></g><g id="LINE-29" data-name="LINE"><line class="cls-1" x1="9.23" y1="35.72" x2="9.04" y2="36.04"/></g><g id="SPLINE-30" data-name="SPLINE"><path class="cls-1" d="M9.23,35.56v.08a.08.08,0,0,1,0,0s0,0,0,0"/></g><g id="LINE-30" data-name="LINE"><line class="cls-1" x1="9.04" y1="35.23" x2="9.23" y2="35.56"/></g><g id="SPLINE-31" data-name="SPLINE"><path class="cls-1" d="M8.9,31H9l0,0,0,0"/></g><g id="LINE-31" data-name="LINE"><line class="cls-1" x1="8.53" y1="31.02" x2="8.9" y2="31.02"/></g><g id="SPLINE-32" data-name="SPLINE"><path class="cls-1" d="M8.39,31.1v0l0,0h0l0,0h0"/></g><g id="LINE-32" data-name="LINE"><line class="cls-1" x1="8.21" y1="31.42" x2="8.39" y2="31.1"/></g><g id="SPLINE-33" data-name="SPLINE"><path class="cls-1" d="M8.21,31.58V31.5s0,0,0,0a.05.05,0,0,1,0,0"/></g><g id="LINE-33" data-name="LINE"><line class="cls-1" x1="8.39" y1="31.9" x2="8.21" y2="31.58"/></g><g id="SPLINE-34" data-name="SPLINE"><path class="cls-1" d="M8.53,32H8.45l0,0,0,0"/></g><g id="LINE-34" data-name="LINE"><line class="cls-1" x1="8.9" y1="31.98" x2="8.53" y2="31.98"/></g><g id="SPLINE-35" data-name="SPLINE"><path class="cls-1" d="M9,31.9v0H9l0,0H9l0,0h0"/></g><g id="LINE-35" data-name="LINE"><line class="cls-1" x1="9.23" y1="31.58" x2="9.04" y2="31.9"/></g><g id="SPLINE-36" data-name="SPLINE"><path class="cls-1" d="M9.23,31.42v.08a.06.06,0,0,1,0,0s0,0,0,0"/></g><g id="LINE-36" data-name="LINE"><line class="cls-1" x1="9.04" y1="31.1" x2="9.23" y2="31.42"/></g><g id="SPLINE-37" data-name="SPLINE"><path class="cls-1" d="M10.7,38.26h.08l0,0a.08.08,0,0,1,0,0"/></g><g id="LINE-37" data-name="LINE"><line class="cls-1" x1="10.32" y1="38.26" x2="10.7" y2="38.26"/></g><g id="SPLINE-38" data-name="SPLINE"><path class="cls-1" d="M10.18,38.34l0,0v0h0l0,0h0"/></g><g id="LINE-38" data-name="LINE"><line class="cls-1" x1="10" y1="38.66" x2="10.18" y2="38.34"/></g><g id="SPLINE-39" data-name="SPLINE"><path class="cls-1" d="M10,38.82V38.7l0,0"/></g><g id="LINE-39" data-name="LINE"><line class="cls-1" x1="10.18" y1="39.14" x2="10" y2="38.82"/></g><g id="SPLINE-40" data-name="SPLINE"><path class="cls-1" d="M10.32,39.22h-.08l0,0,0,0"/></g><g id="LINE-40" data-name="LINE"><line class="cls-1" x1="10.7" y1="39.22" x2="10.32" y2="39.22"/></g><g id="SPLINE-41" data-name="SPLINE"><path class="cls-1" d="M10.83,39.14v0h0l0,0h0"/></g><g id="LINE-41" data-name="LINE"><line class="cls-1" x1="11.02" y1="38.82" x2="10.83" y2="39.14"/></g><g id="SPLINE-42" data-name="SPLINE"><path class="cls-1" d="M11,38.66v.12s0,0,0,0"/></g><g id="LINE-42" data-name="LINE"><line class="cls-1" x1="10.83" y1="38.34" x2="11.02" y2="38.66"/></g><g id="SPLINE-43" data-name="SPLINE"><path class="cls-1" d="M10.7,32.05h.08l0,0s0,0,0,0"/></g><g id="LINE-43" data-name="LINE"><line class="cls-1" x1="10.32" y1="32.05" x2="10.7" y2="32.05"/></g><g id="SPLINE-44" data-name="SPLINE"><path class="cls-1" d="M10.18,32.13l0,0h0l0,0h.09"/></g><g id="LINE-44" data-name="LINE"><line class="cls-1" x1="10" y1="32.45" x2="10.18" y2="32.13"/></g><g id="SPLINE-45" data-name="SPLINE"><path class="cls-1" d="M10,32.61v-.12l0,0"/></g><g id="LINE-45" data-name="LINE"><line class="cls-1" x1="10.18" y1="32.94" x2="10" y2="32.61"/></g><g id="SPLINE-46" data-name="SPLINE"><path class="cls-1" d="M10.32,33h-.08l0,0,0,0"/></g><g id="LINE-46" data-name="LINE"><line class="cls-1" x1="10.7" y1="33.02" x2="10.32" y2="33.02"/></g><g id="SPLINE-47" data-name="SPLINE"><path class="cls-1" d="M10.83,32.94h0v0h0l0,0h0"/></g><g id="LINE-47" data-name="LINE"><line class="cls-1" x1="11.02" y1="32.61" x2="10.83" y2="32.94"/></g><g id="SPLINE-48" data-name="SPLINE"><path class="cls-1" d="M11,32.45v.12l0,0"/></g><g id="LINE-48" data-name="LINE"><line class="cls-1" x1="10.83" y1="32.13" x2="11.02" y2="32.45"/></g><g id="SPLINE-49" data-name="SPLINE"><path class="cls-1" d="M12.49,39.29h.08l0,0,0,0"/></g><g id="LINE-49" data-name="LINE"><line class="cls-1" x1="12.11" y1="39.29" x2="12.49" y2="39.29"/></g><g id="SPLINE-50" data-name="SPLINE"><path class="cls-1" d="M12,39.37h0v0h0l0,0h.07"/></g><g id="LINE-50" data-name="LINE"><line class="cls-1" x1="11.79" y1="39.7" x2="11.98" y2="39.37"/></g><g id="SPLINE-51" data-name="SPLINE"><path class="cls-1" d="M11.79,39.86v-.13l0,0"/></g><g id="LINE-51" data-name="LINE"><line class="cls-1" x1="11.98" y1="40.18" x2="11.79" y2="39.86"/></g><g id="SPLINE-52" data-name="SPLINE"><path class="cls-1" d="M12.11,40.26H12l0,0,0,0"/></g><g id="LINE-52" data-name="LINE"><line class="cls-1" x1="12.49" y1="40.26" x2="12.11" y2="40.26"/></g><g id="SPLINE-53" data-name="SPLINE"><path class="cls-1" d="M12.63,40.18l0,0h0v0h-.1"/></g><g id="LINE-53" data-name="LINE"><line class="cls-1" x1="12.81" y1="39.86" x2="12.63" y2="40.18"/></g><g id="SPLINE-54" data-name="SPLINE"><path class="cls-1" d="M12.81,39.7h0v.11s0,0,0,0"/></g><g id="LINE-54" data-name="LINE"><line class="cls-1" x1="12.63" y1="39.37" x2="12.81" y2="39.7"/></g><g id="SPLINE-55" data-name="SPLINE"><path class="cls-1" d="M12.49,35.15h.08l0,0,0,0"/></g><g id="LINE-55" data-name="LINE"><line class="cls-1" x1="12.11" y1="35.15" x2="12.49" y2="35.15"/></g><g id="SPLINE-56" data-name="SPLINE"><path class="cls-1" d="M12,35.23h0v0h0l0,0h0"/></g><g id="LINE-56" data-name="LINE"><line class="cls-1" x1="11.79" y1="35.56" x2="11.98" y2="35.23"/></g><g id="SPLINE-57" data-name="SPLINE"><path class="cls-1" d="M11.79,35.72V35.6l0,0"/></g><g id="LINE-57" data-name="LINE"><line class="cls-1" x1="11.98" y1="36.04" x2="11.79" y2="35.72"/></g><g id="SPLINE-58" data-name="SPLINE"><path class="cls-1" d="M12.11,36.12H12l0,0,0,0"/></g><g id="LINE-58" data-name="LINE"><line class="cls-1" x1="12.49" y1="36.12" x2="12.11" y2="36.12"/></g><g id="SPLINE-59" data-name="SPLINE"><path class="cls-1" d="M12.63,36l0,0h0v0h-.1"/></g><g id="LINE-59" data-name="LINE"><line class="cls-1" x1="12.81" y1="35.72" x2="12.63" y2="36.04"/></g><g id="SPLINE-60" data-name="SPLINE"><path class="cls-1" d="M12.81,35.56v.12s0,0,0,0"/></g><g id="LINE-60" data-name="LINE"><line class="cls-1" x1="12.63" y1="35.23" x2="12.81" y2="35.56"/></g><g id="SPLINE-61" data-name="SPLINE"><path class="cls-1" d="M12.49,31h.08l0,0,0,0"/></g><g id="LINE-61" data-name="LINE"><line class="cls-1" x1="12.11" y1="31.02" x2="12.49" y2="31.02"/></g><g id="SPLINE-62" data-name="SPLINE"><path class="cls-1" d="M12,31.1v0h0l0,0h0"/></g><g id="LINE-62" data-name="LINE"><line class="cls-1" x1="11.79" y1="31.42" x2="11.98" y2="31.1"/></g><g id="SPLINE-63" data-name="SPLINE"><path class="cls-1" d="M11.79,31.58v-.12s0,0,0,0"/></g><g id="LINE-63" data-name="LINE"><line class="cls-1" x1="11.98" y1="31.9" x2="11.79" y2="31.58"/></g><g id="SPLINE-64" data-name="SPLINE"><path class="cls-1" d="M12.11,32H12l0,0s0,0,0,0"/></g><g id="LINE-64" data-name="LINE"><line class="cls-1" x1="12.49" y1="31.98" x2="12.11" y2="31.98"/></g><g id="SPLINE-65" data-name="SPLINE"><path class="cls-1" d="M12.63,31.9l0,0h0v0h0l0,0h0"/></g><g id="LINE-65" data-name="LINE"><line class="cls-1" x1="12.81" y1="31.58" x2="12.63" y2="31.9"/></g><g id="SPLINE-66" data-name="SPLINE"><path class="cls-1" d="M12.81,31.42v.12l0,0"/></g><g id="LINE-66" data-name="LINE"><line class="cls-1" x1="12.63" y1="31.1" x2="12.81" y2="31.42"/></g><g id="SPLINE-67" data-name="SPLINE"><path class="cls-1" d="M14.28,38.26h.08l0,0,0,0"/></g><g id="LINE-67" data-name="LINE"><line class="cls-1" x1="13.91" y1="38.26" x2="14.28" y2="38.26"/></g><g id="SPLINE-68" data-name="SPLINE"><path class="cls-1" d="M13.77,38.34v0h0l0,0h0"/></g><g id="LINE-68" data-name="LINE"><line class="cls-1" x1="13.58" y1="38.66" x2="13.77" y2="38.34"/></g><g id="SPLINE-69" data-name="SPLINE"><path class="cls-1" d="M13.58,38.82v-.08a.06.06,0,0,1,0,0s0,0,0,0"/></g><g id="LINE-69" data-name="LINE"><line class="cls-1" x1="13.77" y1="39.14" x2="13.58" y2="38.82"/></g><g id="SPLINE-70" data-name="SPLINE"><path class="cls-1" d="M13.91,39.22h-.08l0,0s0,0,0,0"/></g><g id="LINE-70" data-name="LINE"><line class="cls-1" x1="14.28" y1="39.22" x2="13.91" y2="39.22"/></g><g id="SPLINE-71" data-name="SPLINE"><path class="cls-1" d="M14.42,39.14v0l0,0h0l0,0h0"/></g><g id="LINE-71" data-name="LINE"><line class="cls-1" x1="14.6" y1="38.82" x2="14.42" y2="39.14"/></g><g id="SPLINE-72" data-name="SPLINE"><path class="cls-1" d="M14.6,38.66v.12a.05.05,0,0,1,0,0"/></g><g id="LINE-72" data-name="LINE"><line class="cls-1" x1="14.42" y1="38.34" x2="14.6" y2="38.66"/></g><g id="SPLINE-73" data-name="SPLINE"><path class="cls-1" d="M14.28,34.12h.08l0,0,0,0"/></g><g id="LINE-73" data-name="LINE"><line class="cls-1" x1="13.91" y1="34.12" x2="14.28" y2="34.12"/></g><g id="SPLINE-74" data-name="SPLINE"><path class="cls-1" d="M13.77,34.2v0h0l0,0h.1"/></g><g id="LINE-74" data-name="LINE"><line class="cls-1" x1="13.58" y1="34.52" x2="13.77" y2="34.2"/></g><g id="SPLINE-75" data-name="SPLINE"><path class="cls-1" d="M13.58,34.68V34.6a.06.06,0,0,1,0,0s0,0,0,0"/></g><g id="LINE-75" data-name="LINE"><line class="cls-1" x1="13.77" y1="35" x2="13.58" y2="34.68"/></g><g id="SPLINE-76" data-name="SPLINE"><path class="cls-1" d="M13.91,35.08h-.08l0,0s0,0,0,0"/></g><g id="LINE-76" data-name="LINE"><line class="cls-1" x1="14.28" y1="35.08" x2="13.91" y2="35.08"/></g><g id="SPLINE-77" data-name="SPLINE"><path class="cls-1" d="M14.42,35v0l0,0h0l0,0h0"/></g><g id="LINE-77" data-name="LINE"><line class="cls-1" x1="14.6" y1="34.68" x2="14.42" y2="35"/></g><g id="SPLINE-78" data-name="SPLINE"><path class="cls-1" d="M14.6,34.52v.08s0,0,0,0a.05.05,0,0,1,0,0"/></g><g id="LINE-78" data-name="LINE"><line class="cls-1" x1="14.42" y1="34.2" x2="14.6" y2="34.52"/></g><g id="SPLINE-79" data-name="SPLINE"><path class="cls-1" d="M14.28,30h.08l0,0,0,0"/></g><g id="LINE-79" data-name="LINE"><line class="cls-1" x1="13.91" y1="29.98" x2="14.28" y2="29.98"/></g><g id="SPLINE-80" data-name="SPLINE"><path class="cls-1" d="M13.77,30.06v0h0l0,0h.1"/></g><g id="LINE-80" data-name="LINE"><line class="cls-1" x1="13.58" y1="30.38" x2="13.77" y2="30.06"/></g><g id="SPLINE-81" data-name="SPLINE"><path class="cls-1" d="M13.58,30.54v-.08a.08.08,0,0,1,0,0s0,0,0,0"/></g><g id="LINE-81" data-name="LINE"><line class="cls-1" x1="13.77" y1="30.87" x2="13.58" y2="30.54"/></g><g id="SPLINE-82" data-name="SPLINE"><path class="cls-1" d="M13.91,31h-.08l0,0,0,0"/></g><g id="LINE-82" data-name="LINE"><line class="cls-1" x1="14.28" y1="30.95" x2="13.91" y2="30.95"/></g><g id="SPLINE-83" data-name="SPLINE"><path class="cls-1" d="M14.42,30.87h0l0,0h0a.05.05,0,0,1,0,0h0"/></g><g id="LINE-83" data-name="LINE"><line class="cls-1" x1="14.6" y1="30.54" x2="14.42" y2="30.87"/></g><g id="SPLINE-84" data-name="SPLINE"><path class="cls-1" d="M14.6,30.38v.08s0,0,0,0a.05.05,0,0,1,0,0"/></g><g id="LINE-84" data-name="LINE"><line class="cls-1" x1="14.42" y1="30.06" x2="14.6" y2="30.38"/></g><g id="SPLINE-85" data-name="SPLINE"><path class="cls-1" d="M16.07,33.08h.08s0,0,0,0l0,0"/></g><g id="LINE-85" data-name="LINE"><line class="cls-1" x1="15.7" y1="33.08" x2="16.07" y2="33.08"/></g><g id="SPLINE-86" data-name="SPLINE"><path class="cls-1" d="M15.56,33.16h0l0,0h0l0,0h0"/></g><g id="LINE-86" data-name="LINE"><line class="cls-1" x1="15.37" y1="33.49" x2="15.56" y2="33.16"/></g><g id="SPLINE-87" data-name="SPLINE"><path class="cls-1" d="M15.37,33.65v-.08s0,0,0,0,0,0,0,0"/></g><g id="LINE-87" data-name="LINE"><line class="cls-1" x1="15.56" y1="33.97" x2="15.37" y2="33.65"/></g><g id="SPLINE-88" data-name="SPLINE"><path class="cls-1" d="M15.7,34.05h-.08l0,0,0,0"/></g><g id="LINE-88" data-name="LINE"><line class="cls-1" x1="16.07" y1="34.05" x2="15.7" y2="34.05"/></g><g id="SPLINE-89" data-name="SPLINE"><path class="cls-1" d="M16.21,34v0h0v0h-.1"/></g><g id="LINE-89" data-name="LINE"><line class="cls-1" x1="16.4" y1="33.65" x2="16.21" y2="33.97"/></g><g id="SPLINE-90" data-name="SPLINE"><path class="cls-1" d="M16.4,33.49v.08a.06.06,0,0,1,0,0s0,0,0,0"/></g><g id="LINE-90" data-name="LINE"><line class="cls-1" x1="16.21" y1="33.16" x2="16.4" y2="33.49"/></g><g id="SPLINE-91" data-name="SPLINE"><path class="cls-1" d="M10.7,34.12h.08l0,0s0,0,0,0"/></g><g id="LINE-91" data-name="LINE"><line class="cls-1" x1="10.32" y1="34.12" x2="10.7" y2="34.12"/></g><g id="SPLINE-92" data-name="SPLINE"><path class="cls-1" d="M10.18,34.2l0,0h0l0,0h.09"/></g><g id="LINE-92" data-name="LINE"><line class="cls-1" x1="10" y1="34.52" x2="10.18" y2="34.2"/></g><g id="SPLINE-93" data-name="SPLINE"><path class="cls-1" d="M10,34.68v-.12l0,0"/></g><g id="LINE-93" data-name="LINE"><line class="cls-1" x1="10.18" y1="35" x2="10" y2="34.68"/></g><g id="SPLINE-94" data-name="SPLINE"><path class="cls-1" d="M10.32,35.08h-.08l0,0,0,0"/></g><g id="LINE-94" data-name="LINE"><line class="cls-1" x1="10.7" y1="35.08" x2="10.32" y2="35.08"/></g><g id="SPLINE-95" data-name="SPLINE"><path class="cls-1" d="M10.83,35v0h0l0,0h0"/></g><g id="LINE-95" data-name="LINE"><line class="cls-1" x1="11.02" y1="34.68" x2="10.83" y2="35"/></g><g id="ARC"><path class="cls-1" d="M11,34.68a.15.15,0,0,0,0-.16"/></g><g id="LINE-96" data-name="LINE"><line class="cls-1" x1="10.83" y1="34.2" x2="11.02" y2="34.52"/></g><g id="SPLINE-96" data-name="SPLINE"><path class="cls-1" d="M16.07,35.15h.08s0,0,0,0l0,0"/></g><g id="LINE-97" data-name="LINE"><line class="cls-1" x1="15.7" y1="35.15" x2="16.07" y2="35.15"/></g><g id="SPLINE-97" data-name="SPLINE"><path class="cls-1" d="M15.56,35.23h0l0,0h0l0,0h0"/></g><g id="LINE-98" data-name="LINE"><line class="cls-1" x1="15.37" y1="35.56" x2="15.56" y2="35.23"/></g><g id="SPLINE-98" data-name="SPLINE"><path class="cls-1" d="M15.37,35.72v-.08s0,0,0,0,0,0,0,0"/></g><g id="LINE-99" data-name="LINE"><line class="cls-1" x1="15.56" y1="36.04" x2="15.37" y2="35.72"/></g><g id="SPLINE-99" data-name="SPLINE"><path class="cls-1" d="M15.7,36.12h-.08l0,0,0,0"/></g><g id="LINE-100" data-name="LINE"><line class="cls-1" x1="16.07" y1="36.12" x2="15.7" y2="36.12"/></g><g id="SPLINE-100" data-name="SPLINE"><path class="cls-1" d="M16.21,36v0h0v0h-.1"/></g><g id="LINE-101" data-name="LINE"><line class="cls-1" x1="16.4" y1="35.72" x2="16.21" y2="36.04"/></g><g id="ARC-2" data-name="ARC"><path class="cls-1" d="M16.4,35.72a.15.15,0,0,0,0-.16"/></g><g id="LINE-102" data-name="LINE"><line class="cls-1" x1="16.21" y1="35.23" x2="16.4" y2="35.56"/></g><g id="SPLINE-101" data-name="SPLINE"><path class="cls-1" d="M14.28,32.05h.08l0,0,0,0"/></g><g id="LINE-103" data-name="LINE"><line class="cls-1" x1="13.91" y1="32.05" x2="14.28" y2="32.05"/></g><g id="SPLINE-102" data-name="SPLINE"><path class="cls-1" d="M13.77,32.13v0h0l0,0h.1"/></g><g id="LINE-104" data-name="LINE"><line class="cls-1" x1="13.58" y1="32.45" x2="13.77" y2="32.13"/></g><g id="SPLINE-103" data-name="SPLINE"><path class="cls-1" d="M13.58,32.61v-.08a.06.06,0,0,1,0,0s0,0,0,0"/></g><g id="LINE-105" data-name="LINE"><line class="cls-1" x1="13.77" y1="32.94" x2="13.58" y2="32.61"/></g><g id="SPLINE-104" data-name="SPLINE"><path class="cls-1" d="M13.91,33h-.08l0,0,0,0"/></g><g id="LINE-106" data-name="LINE"><line class="cls-1" x1="14.28" y1="33.02" x2="13.91" y2="33.02"/></g><g id="SPLINE-105" data-name="SPLINE"><path class="cls-1" d="M14.42,32.94h0l0,0h0l0,0h0"/></g><g id="LINE-107" data-name="LINE"><line class="cls-1" x1="14.6" y1="32.61" x2="14.42" y2="32.94"/></g><g id="ARC-3" data-name="ARC"><path class="cls-1" d="M14.6,32.61a.15.15,0,0,0,0-.16"/></g><g id="LINE-108" data-name="LINE"><line class="cls-1" x1="14.42" y1="32.13" x2="14.6" y2="32.45"/></g><g id="SPLINE-106" data-name="SPLINE"><path class="cls-1" d="M14.28,36.19h.08l0,0,0,0"/></g><g id="LINE-109" data-name="LINE"><line class="cls-1" x1="13.91" y1="36.19" x2="14.28" y2="36.19"/></g><g id="SPLINE-107" data-name="SPLINE"><path class="cls-1" d="M13.77,36.27v0h0l0,0h0l0,0h0"/></g><g id="LINE-110" data-name="LINE"><line class="cls-1" x1="13.58" y1="36.59" x2="13.77" y2="36.27"/></g><g id="SPLINE-108" data-name="SPLINE"><path class="cls-1" d="M13.58,36.75v-.08a.06.06,0,0,1,0,0s0,0,0,0"/></g><g id="LINE-111" data-name="LINE"><line class="cls-1" x1="13.77" y1="37.07" x2="13.58" y2="36.75"/></g><g id="SPLINE-109" data-name="SPLINE"><path class="cls-1" d="M13.91,37.15h-.08l0,0,0,0"/></g><g id="LINE-112" data-name="LINE"><line class="cls-1" x1="14.28" y1="37.15" x2="13.91" y2="37.15"/></g><g id="SPLINE-110" data-name="SPLINE"><path class="cls-1" d="M14.42,37.07v0l0,0h0l0,0h0"/></g><g id="LINE-113" data-name="LINE"><line class="cls-1" x1="14.6" y1="36.75" x2="14.42" y2="37.07"/></g><g id="ARC-4" data-name="ARC"><path class="cls-1" d="M14.6,36.75a.15.15,0,0,0,0-.16"/></g><g id="LINE-114" data-name="LINE"><line class="cls-1" x1="14.42" y1="36.27" x2="14.6" y2="36.59"/></g><g id="SPLINE-111" data-name="SPLINE"><path class="cls-1" d="M12.49,29h.08l0,0,0,0"/></g><g id="LINE-115" data-name="LINE"><line class="cls-1" x1="12.11" y1="28.95" x2="12.49" y2="28.95"/></g><g id="SPLINE-112" data-name="SPLINE"><path class="cls-1" d="M12,29v0h0l0,0h0"/></g><g id="LINE-116" data-name="LINE"><line class="cls-1" x1="11.79" y1="29.35" x2="11.98" y2="29.03"/></g><g id="SPLINE-113" data-name="SPLINE"><path class="cls-1" d="M11.79,29.51v-.12s0,0,0,0"/></g><g id="LINE-117" data-name="LINE"><line class="cls-1" x1="11.98" y1="29.83" x2="11.79" y2="29.51"/></g><g id="SPLINE-114" data-name="SPLINE"><path class="cls-1" d="M12.11,29.91H12l0,0s0,0,0,0"/></g><g id="LINE-118" data-name="LINE"><line class="cls-1" x1="12.49" y1="29.91" x2="12.11" y2="29.91"/></g><g id="SPLINE-115" data-name="SPLINE"><path class="cls-1" d="M12.63,29.83l0,0h0v0h0l0,0h0"/></g><g id="LINE-119" data-name="LINE"><line class="cls-1" x1="12.81" y1="29.51" x2="12.63" y2="29.83"/></g><g id="ARC-5" data-name="ARC"><path class="cls-1" d="M12.81,29.51a.15.15,0,0,0,0-.16"/></g><g id="LINE-120" data-name="LINE"><line class="cls-1" x1="12.63" y1="29.03" x2="12.81" y2="29.35"/></g><g id="SPLINE-116" data-name="SPLINE"><path class="cls-1" d="M12.49,33.08h.08l0,0,0,0"/></g><g id="LINE-121" data-name="LINE"><line class="cls-1" x1="12.11" y1="33.08" x2="12.49" y2="33.08"/></g><g id="SPLINE-117" data-name="SPLINE"><path class="cls-1" d="M12,33.16h0v0h0l0,0h0"/></g><g id="LINE-122" data-name="LINE"><line class="cls-1" x1="11.79" y1="33.49" x2="11.98" y2="33.16"/></g><g id="SPLINE-118" data-name="SPLINE"><path class="cls-1" d="M11.79,33.65v-.12s0,0,0,0"/></g><g id="LINE-123" data-name="LINE"><line class="cls-1" x1="11.98" y1="33.97" x2="11.79" y2="33.65"/></g><g id="SPLINE-119" data-name="SPLINE"><path class="cls-1" d="M12.11,34.05H12l0,0,0,0"/></g><g id="LINE-124" data-name="LINE"><line class="cls-1" x1="12.49" y1="34.05" x2="12.11" y2="34.05"/></g><g id="SPLINE-120" data-name="SPLINE"><path class="cls-1" d="M12.63,34l0,0h0v0h-.1"/></g><g id="LINE-125" data-name="LINE"><line class="cls-1" x1="12.81" y1="33.65" x2="12.63" y2="33.97"/></g><g id="ARC-6" data-name="ARC"><path class="cls-1" d="M12.81,33.65a.15.15,0,0,0,0-.16"/></g><g id="LINE-126" data-name="LINE"><line class="cls-1" x1="12.63" y1="33.16" x2="12.81" y2="33.49"/></g><g id="SPLINE-121" data-name="SPLINE"><path class="cls-1" d="M12.49,37.22h.08l0,0,0,0"/></g><g id="LINE-127" data-name="LINE"><line class="cls-1" x1="12.11" y1="37.22" x2="12.49" y2="37.22"/></g><g id="SPLINE-122" data-name="SPLINE"><path class="cls-1" d="M12,37.3h0v0h0l0,0h.07"/></g><g id="LINE-128" data-name="LINE"><line class="cls-1" x1="11.79" y1="37.63" x2="11.98" y2="37.3"/></g><g id="SPLINE-123" data-name="SPLINE"><path class="cls-1" d="M11.79,37.79v-.12s0,0,0,0"/></g><g id="LINE-129" data-name="LINE"><line class="cls-1" x1="11.98" y1="38.11" x2="11.79" y2="37.79"/></g><g id="SPLINE-124" data-name="SPLINE"><path class="cls-1" d="M12.11,38.19H12l0,0,0,0"/></g><g id="LINE-130" data-name="LINE"><line class="cls-1" x1="12.49" y1="38.19" x2="12.11" y2="38.19"/></g><g id="SPLINE-125" data-name="SPLINE"><path class="cls-1" d="M12.63,38.11l0,0h0v0h-.1"/></g><g id="LINE-131" data-name="LINE"><line class="cls-1" x1="12.81" y1="37.79" x2="12.63" y2="38.11"/></g><g id="ARC-7" data-name="ARC"><path class="cls-1" d="M12.81,37.79a.15.15,0,0,0,0-.16"/></g><g id="LINE-132" data-name="LINE"><line class="cls-1" x1="12.63" y1="37.3" x2="12.81" y2="37.63"/></g><g id="SPLINE-126" data-name="SPLINE"><path class="cls-1" d="M10.7,30h.08l0,0,0,0"/></g><g id="LINE-133" data-name="LINE"><line class="cls-1" x1="10.32" y1="29.98" x2="10.7" y2="29.98"/></g><g id="SPLINE-127" data-name="SPLINE"><path class="cls-1" d="M10.18,30.06l0,0h0l0,0h.09"/></g><g id="LINE-134" data-name="LINE"><line class="cls-1" x1="10" y1="30.38" x2="10.18" y2="30.06"/></g><g id="SPLINE-128" data-name="SPLINE"><path class="cls-1" d="M10,30.54v-.12s0,0,0,0"/></g><g id="LINE-135" data-name="LINE"><line class="cls-1" x1="10.18" y1="30.87" x2="10" y2="30.54"/></g><g id="SPLINE-129" data-name="SPLINE"><path class="cls-1" d="M10.32,31h-.08l0,0,0,0"/></g><g id="LINE-136" data-name="LINE"><line class="cls-1" x1="10.7" y1="30.95" x2="10.32" y2="30.95"/></g><g id="SPLINE-130" data-name="SPLINE"><path class="cls-1" d="M10.83,30.87h0v0h0l0,0h0"/></g><g id="LINE-137" data-name="LINE"><line class="cls-1" x1="11.02" y1="30.54" x2="10.83" y2="30.87"/></g><g id="ARC-8" data-name="ARC"><path class="cls-1" d="M11,30.54a.15.15,0,0,0,0-.16"/></g><g id="LINE-138" data-name="LINE"><line class="cls-1" x1="10.83" y1="30.06" x2="11.02" y2="30.38"/></g><g id="SPLINE-131" data-name="SPLINE"><path class="cls-1" d="M10.7,36.19h.08l0,0s0,0,0,0"/></g><g id="LINE-139" data-name="LINE"><line class="cls-1" x1="10.32" y1="36.19" x2="10.7" y2="36.19"/></g><g id="SPLINE-132" data-name="SPLINE"><path class="cls-1" d="M10.18,36.27l0,0h0l0,0h0l0,0h0"/></g><g id="LINE-140" data-name="LINE"><line class="cls-1" x1="10" y1="36.59" x2="10.18" y2="36.27"/></g><g id="SPLINE-133" data-name="SPLINE"><path class="cls-1" d="M10,36.75v-.12l0,0"/></g><g id="LINE-141" data-name="LINE"><line class="cls-1" x1="10.18" y1="37.07" x2="10" y2="36.75"/></g><g id="SPLINE-134" data-name="SPLINE"><path class="cls-1" d="M10.32,37.15h-.08l0,0,0,0"/></g><g id="LINE-142" data-name="LINE"><line class="cls-1" x1="10.7" y1="37.15" x2="10.32" y2="37.15"/></g><g id="SPLINE-135" data-name="SPLINE"><path class="cls-1" d="M10.83,37.07v0h0l0,0h0"/></g><g id="LINE-143" data-name="LINE"><line class="cls-1" x1="11.02" y1="36.75" x2="10.83" y2="37.07"/></g><g id="ARC-9" data-name="ARC"><path class="cls-1" d="M11,36.75a.15.15,0,0,0,0-.16"/></g><g id="LINE-144" data-name="LINE"><line class="cls-1" x1="10.83" y1="36.27" x2="11.02" y2="36.59"/></g><g id="SPLINE-136" data-name="SPLINE"><path class="cls-1" d="M8.9,29H9l0,0,0,0"/></g><g id="LINE-145" data-name="LINE"><line class="cls-1" x1="8.53" y1="28.95" x2="8.9" y2="28.95"/></g><g id="SPLINE-137" data-name="SPLINE"><path class="cls-1" d="M8.39,29v0l0,0h0l0,0h0"/></g><g id="LINE-146" data-name="LINE"><line class="cls-1" x1="8.21" y1="29.35" x2="8.39" y2="29.03"/></g><g id="SPLINE-138" data-name="SPLINE"><path class="cls-1" d="M8.21,29.51v-.08s0,0,0,0a.05.05,0,0,1,0,0"/></g><g id="LINE-147" data-name="LINE"><line class="cls-1" x1="8.39" y1="29.83" x2="8.21" y2="29.51"/></g><g id="SPLINE-139" data-name="SPLINE"><path class="cls-1" d="M8.53,29.91H8.45l0,0,0,0"/></g><g id="LINE-148" data-name="LINE"><line class="cls-1" x1="8.9" y1="29.91" x2="8.53" y2="29.91"/></g><g id="SPLINE-140" data-name="SPLINE"><path class="cls-1" d="M9,29.83v0H9l0,0H9l0,0h0"/></g><g id="LINE-149" data-name="LINE"><line class="cls-1" x1="9.23" y1="29.51" x2="9.04" y2="29.83"/></g><g id="ARC-10" data-name="ARC"><path class="cls-1" d="M9.23,29.51a.15.15,0,0,0,0-.16"/></g><g id="LINE-150" data-name="LINE"><line class="cls-1" x1="9.04" y1="29.03" x2="9.23" y2="29.35"/></g><g id="SPLINE-141" data-name="SPLINE"><path class="cls-1" d="M8.9,33.08H9a.05.05,0,0,1,0,0l0,0"/></g><g id="LINE-151" data-name="LINE"><line class="cls-1" x1="8.53" y1="33.08" x2="8.9" y2="33.08"/></g><g id="SPLINE-142" data-name="SPLINE"><path class="cls-1" d="M8.39,33.16h0l0,0h0l0,0h0"/></g><g id="LINE-152" data-name="LINE"><line class="cls-1" x1="8.21" y1="33.49" x2="8.39" y2="33.16"/></g><g id="SPLINE-143" data-name="SPLINE"><path class="cls-1" d="M8.21,33.65v-.08s0,0,0,0a.05.05,0,0,1,0,0"/></g><g id="LINE-153" data-name="LINE"><line class="cls-1" x1="8.39" y1="33.97" x2="8.21" y2="33.65"/></g><g id="SPLINE-144" data-name="SPLINE"><path class="cls-1" d="M8.53,34.05H8.45l0,0,0,0"/></g><g id="LINE-154" data-name="LINE"><line class="cls-1" x1="8.9" y1="34.05" x2="8.53" y2="34.05"/></g><g id="SPLINE-145" data-name="SPLINE"><path class="cls-1" d="M9,34v0H9l0,0H8.9"/></g><g id="LINE-155" data-name="LINE"><line class="cls-1" x1="9.23" y1="33.65" x2="9.04" y2="33.97"/></g><g id="ARC-11" data-name="ARC"><path class="cls-1" d="M9.23,33.65a.15.15,0,0,0,0-.16"/></g><g id="LINE-156" data-name="LINE"><line class="cls-1" x1="9.04" y1="33.16" x2="9.23" y2="33.49"/></g><g id="SPLINE-146" data-name="SPLINE"><path class="cls-1" d="M8.9,37.22H9l0,0,0,0"/></g><g id="LINE-157" data-name="LINE"><line class="cls-1" x1="8.53" y1="37.22" x2="8.9" y2="37.22"/></g><g id="SPLINE-147" data-name="SPLINE"><path class="cls-1" d="M8.39,37.3h0l0,0h0l0,0h.08"/></g><g id="LINE-158" data-name="LINE"><line class="cls-1" x1="8.21" y1="37.63" x2="8.39" y2="37.3"/></g><g id="SPLINE-148" data-name="SPLINE"><path class="cls-1" d="M8.21,37.79v-.08s0,0,0,0a.05.05,0,0,1,0,0"/></g><g id="LINE-159" data-name="LINE"><line class="cls-1" x1="8.39" y1="38.11" x2="8.21" y2="37.79"/></g><g id="SPLINE-149" data-name="SPLINE"><path class="cls-1" d="M8.53,38.19H8.45l0,0,0,0"/></g><g id="LINE-160" data-name="LINE"><line class="cls-1" x1="8.9" y1="38.19" x2="8.53" y2="38.19"/></g><g id="SPLINE-150" data-name="SPLINE"><path class="cls-1" d="M9,38.11v0H9l0,0H8.9"/></g><g id="LINE-161" data-name="LINE"><line class="cls-1" x1="9.23" y1="37.79" x2="9.04" y2="38.11"/></g><g id="ARC-12" data-name="ARC"><path class="cls-1" d="M9.23,37.79a.15.15,0,0,0,0-.16"/></g><g id="LINE-162" data-name="LINE"><line class="cls-1" x1="9.04" y1="37.3" x2="9.23" y2="37.63"/></g><g id="SPLINE-151" data-name="SPLINE"><path class="cls-1" d="M7.11,30h.08l0,0,0,0"/></g><g id="LINE-163" data-name="LINE"><line class="cls-1" x1="6.74" y1="29.98" x2="7.11" y2="29.98"/></g><g id="SPLINE-152" data-name="SPLINE"><path class="cls-1" d="M6.6,30.06v0h0v0h.1"/></g><g id="LINE-164" data-name="LINE"><line class="cls-1" x1="6.41" y1="30.38" x2="6.6" y2="30.06"/></g><g id="SPLINE-153" data-name="SPLINE"><path class="cls-1" d="M6.41,30.54v-.08a.08.08,0,0,1,0,0s0,0,0,0"/></g><g id="LINE-165" data-name="LINE"><line class="cls-1" x1="6.6" y1="30.87" x2="6.41" y2="30.54"/></g><g id="SPLINE-154" data-name="SPLINE"><path class="cls-1" d="M6.74,31H6.66l0,0,0,0"/></g><g id="LINE-166" data-name="LINE"><line class="cls-1" x1="7.11" y1="30.95" x2="6.74" y2="30.95"/></g><g id="SPLINE-155" data-name="SPLINE"><path class="cls-1" d="M7.25,30.87h0l0,0h0l0,0h0"/></g><g id="LINE-167" data-name="LINE"><line class="cls-1" x1="7.44" y1="30.54" x2="7.25" y2="30.87"/></g><g id="ARC-13" data-name="ARC"><path class="cls-1" d="M7.44,30.54a.22.22,0,0,0,0-.16"/></g><g id="LINE-168" data-name="LINE"><line class="cls-1" x1="7.25" y1="30.06" x2="7.44" y2="30.38"/></g><g id="SPLINE-156" data-name="SPLINE"><path class="cls-1" d="M7.11,34.12h.08l0,0,0,0"/></g><g id="LINE-169" data-name="LINE"><line class="cls-1" x1="6.74" y1="34.12" x2="7.11" y2="34.12"/></g><g id="SPLINE-157" data-name="SPLINE"><path class="cls-1" d="M6.6,34.2v0h0v0h.1"/></g><g id="LINE-170" data-name="LINE"><line class="cls-1" x1="6.41" y1="34.52" x2="6.6" y2="34.2"/></g><g id="SPLINE-158" data-name="SPLINE"><path class="cls-1" d="M6.41,34.68V34.6a.06.06,0,0,1,0,0s0,0,0,0"/></g><g id="LINE-171" data-name="LINE"><line class="cls-1" x1="6.6" y1="35" x2="6.41" y2="34.68"/></g><g id="SPLINE-159" data-name="SPLINE"><path class="cls-1" d="M6.74,35.08H6.66l0,0,0,0"/></g><g id="LINE-172" data-name="LINE"><line class="cls-1" x1="7.11" y1="35.08" x2="6.74" y2="35.08"/></g><g id="SPLINE-160" data-name="SPLINE"><path class="cls-1" d="M7.25,35v0l0,0h0l0,0h0"/></g><g id="LINE-173" data-name="LINE"><line class="cls-1" x1="7.44" y1="34.68" x2="7.25" y2="35"/></g><g id="ARC-14" data-name="ARC"><path class="cls-1" d="M7.44,34.68a.22.22,0,0,0,0-.16"/></g><g id="LINE-174" data-name="LINE"><line class="cls-1" x1="7.25" y1="34.2" x2="7.44" y2="34.52"/></g><g id="SPLINE-161" data-name="SPLINE"><path class="cls-1" d="M7.11,38.26h.08l0,0,0,0"/></g><g id="LINE-175" data-name="LINE"><line class="cls-1" x1="6.74" y1="38.26" x2="7.11" y2="38.26"/></g><g id="SPLINE-162" data-name="SPLINE"><path class="cls-1" d="M6.6,38.34v0l0,0h0l0,0h0"/></g><g id="LINE-176" data-name="LINE"><line class="cls-1" x1="6.41" y1="38.66" x2="6.6" y2="38.34"/></g><g id="SPLINE-163" data-name="SPLINE"><path class="cls-1" d="M6.41,38.82v-.08a.06.06,0,0,1,0,0s0,0,0,0"/></g><g id="LINE-177" data-name="LINE"><line class="cls-1" x1="6.6" y1="39.14" x2="6.41" y2="38.82"/></g><g id="SPLINE-164" data-name="SPLINE"><path class="cls-1" d="M6.74,39.22H6.66l0,0,0,0"/></g><g id="LINE-178" data-name="LINE"><line class="cls-1" x1="7.11" y1="39.22" x2="6.74" y2="39.22"/></g><g id="SPLINE-165" data-name="SPLINE"><path class="cls-1" d="M7.25,39.14v0l0,0h0l0,0h0"/></g><g id="LINE-179" data-name="LINE"><line class="cls-1" x1="7.44" y1="38.82" x2="7.25" y2="39.14"/></g><g id="ARC-15" data-name="ARC"><path class="cls-1" d="M7.44,38.82a.22.22,0,0,0,0-.16"/></g><g id="LINE-180" data-name="LINE"><line class="cls-1" x1="7.25" y1="38.34" x2="7.44" y2="38.66"/></g><g id="SPLINE-166" data-name="SPLINE"><path class="cls-1" d="M5.32,35.15H5.4l0,0,0,0"/></g><g id="LINE-181" data-name="LINE"><line class="cls-1" x1="4.95" y1="35.15" x2="5.32" y2="35.15"/></g><g id="SPLINE-167" data-name="SPLINE"><path class="cls-1" d="M4.81,35.23h0v0h0l0,0H5"/></g><g id="LINE-182" data-name="LINE"><line class="cls-1" x1="4.62" y1="35.56" x2="4.81" y2="35.23"/></g><g id="SPLINE-168" data-name="SPLINE"><path class="cls-1" d="M4.62,35.72v-.08s0,0,0,0,0,0,0,0"/></g><g id="LINE-183" data-name="LINE"><line class="cls-1" x1="4.81" y1="36.04" x2="4.62" y2="35.72"/></g><g id="SPLINE-169" data-name="SPLINE"><path class="cls-1" d="M5,36.12H4.87l0,0,0,0"/></g><g id="LINE-184" data-name="LINE"><line class="cls-1" x1="5.32" y1="36.12" x2="4.95" y2="36.12"/></g><g id="SPLINE-170" data-name="SPLINE"><path class="cls-1" d="M5.46,36v0h0v0h-.1"/></g><g id="LINE-185" data-name="LINE"><line class="cls-1" x1="5.64" y1="35.72" x2="5.46" y2="36.04"/></g><g id="ARC-16" data-name="ARC"><path class="cls-1" d="M5.64,35.72a.15.15,0,0,0,0-.16"/></g><g id="LINE-186" data-name="LINE"><line class="cls-1" x1="5.46" y1="35.23" x2="5.64" y2="35.56"/></g><rect class="cls-1" x="0.25" y="0.25" width="56.56" height="44.08" rx="2.67"/></g></g></svg>