<svg xmlns="http://www.w3.org/2000/svg" viewBox="0 0 18.63 20.53"><defs><style>.cls-1{fill:none;stroke:#231916;stroke-miterlimit:10;stroke-width:0.4px;}</style></defs><g id="Layer_2" data-name="Layer 2"><g id="Layer_2-2" data-name="Layer 2"><path class="cls-1" d="M10.21,14.6a.18.18,0,0,0-.14,0"/><polyline class="cls-1" points="10.21 14.6 10.22 14.61 10.23 14.62 10.24 14.62 10.25 14.62 10.26 14.63 10.27 14.64 10.29 14.64 10.3 14.65 10.31 14.65 10.32 14.66 10.34 14.67 10.35 14.68 10.36 14.68 10.38 14.69 10.39 14.69 10.4 14.7 10.42 14.71 10.44 14.71 10.45 14.72 10.47 14.73 10.48 14.73 10.5 14.74 10.52 14.74 10.53 14.75 10.55 14.76 10.57 14.76 10.58 14.76 10.6 14.77 10.62 14.78 10.63 14.78 10.65 14.79 10.67 14.79"/><path class="cls-1" d="M10.67,14.79a.65.65,0,0,0,0-.2c0-.05-.05-.08-.07-.08"/><polyline class="cls-1" points="10.21 14.6 10.33 14.68 10.44 14.77 10.57 14.86 10.71 14.96 10.85 15.06 10.99 15.16 11.14 15.27 11.28 15.38 11.44 15.49 11.58 15.6 11.72 15.7 11.87 15.8 12 15.9 12.13 15.99 12.25 16.08 12.36 16.16 12.46 16.23 12.55 16.3 12.62 16.35 12.69 16.4 12.74 16.43 12.78 16.46 12.79 16.48 12.8 16.48"/><polyline class="cls-1" points="12.96 16.46 12.96 16.45 12.93 16.43 12.9 16.41 12.85 16.37 12.78 16.32 12.7 16.27 12.61 16.2 12.51 16.13 12.4 16.05 12.28 15.96 12.15 15.87 12.01 15.76 11.87 15.66 11.72 15.55 11.57 15.44 11.42 15.33 11.26 15.22 11.11 15.11 10.96 15 10.81 14.89 10.67 14.79"/><path class="cls-1" d="M10.8,14.76a1.06,1.06,0,0,0,0-.19c0-.06,0-.09-.07-.08"/><polyline class="cls-1" points="10.67 14.79 10.7 14.79 10.74 14.78 10.77 14.78 10.8 14.76"/><path class="cls-1" d="M13.76,13.06s0,0,.07.12"/><polyline class="cls-1" points="13.76 13.06 13.72 13.09 13.68 13.13 13.64 13.16 13.6 13.2 13.55 13.23 13.51 13.26 13.47 13.29 13.43 13.32 13.38 13.36 13.34 13.39 13.29 13.42 13.25 13.45 13.21 13.48 13.16 13.51 13.12 13.54 13.07 13.57 13.03 13.59 12.98 13.63 12.94 13.65 12.89 13.68 12.84 13.71 12.8 13.73 12.75 13.76 12.7 13.78 12.66 13.81 12.61 13.83 12.56 13.86 12.51 13.88 12.47 13.91 12.41 13.93 12.37 13.95 12.32 13.97 12.27 13.99 12.22 14.02 12.17 14.04 12.12 14.06 12.07 14.08 12.02 14.1 11.97 14.12 11.92 14.14 11.87 14.16 11.82 14.18 11.77 14.2 11.72 14.22 11.67 14.23 11.62 14.25 11.57 14.27 11.52 14.29 11.46 14.3 11.41 14.32 11.36 14.34 11.31 14.35 11.26 14.36 11.21 14.38 11.15 14.39 11.11 14.4 11.05 14.42 11 14.43 10.95 14.44 10.9 14.45 10.85 14.46 10.8 14.47 10.75 14.48 10.7 14.49"/><polyline class="cls-1" points="10.8 14.76 10.85 14.75 10.9 14.74 10.95 14.73 11 14.71 11.05 14.7 11.1 14.68 11.15 14.67 11.2 14.65 11.26 14.64 11.3 14.62 11.35 14.6 11.4 14.58 11.45 14.57 11.51 14.54 11.55 14.53 11.6 14.51 11.65 14.49 11.7 14.46 11.75 14.45 11.8 14.43 11.85 14.4 11.9 14.38 11.95 14.36 12 14.34 12.05 14.32 12.1 14.3 12.15 14.27 12.2 14.25 12.25 14.22 12.3 14.2 12.34 14.18 12.39 14.15 12.44 14.13 12.49 14.11 12.54 14.08 12.59 14.05 12.63 14.03 12.68 14 12.73 13.97 12.77 13.95 12.82 13.92 12.87 13.89 12.91 13.87 12.96 13.83 13.01 13.81 13.06 13.78 13.1 13.75 13.15 13.72 13.19 13.69 13.23 13.65 13.28 13.62 13.32 13.6 13.37 13.56 13.41 13.53 13.46 13.49 13.5 13.46 13.54 13.43 13.58 13.39 13.63 13.36 13.67 13.32 13.71 13.29 13.75 13.25 13.8 13.21 13.84 13.18 13.89 13.13 13.95 13.07 14.01 13.02 14.06 12.96 14.12 12.91 14.17 12.85 14.22 12.8 14.28 12.74 14.33 12.69 14.38 12.63 14.43 12.57 14.48 12.51 14.53 12.45 14.58 12.39 14.63 12.34 14.68 12.27"/><path class="cls-1" d="M14.58,12.19l.1.08"/><polyline class="cls-1" points="14.78 12.04 14.76 12.04 14.76 12.03 14.74 12.02 14.74 12.02 14.72 12.01 14.72 12 14.71 12 14.7 11.99 14.68 11.98 14.67 11.97 14.65 11.96 14.64 11.95 14.63 11.94 14.61 11.93 14.6 11.92 14.59 11.91 14.56 11.89 14.54 11.87"/><polyline class="cls-1" points="14.68 12.27 14.69 12.26 14.7 12.25 14.71 12.23 14.71 12.22 14.72 12.21 14.73 12.19 14.74 12.18 14.74 12.16 14.75 12.15 14.75 12.13 14.76 12.12 14.76 12.1 14.77 12.09 14.77 12.07 14.77 12.06 14.78 12.04"/><polyline class="cls-1" points="15.69 12.71 15.68 12.7 15.65 12.68 15.61 12.65 15.55 12.61 15.48 12.56 15.39 12.49 15.29 12.42 15.18 12.34 15.05 12.25 14.92 12.15 14.78 12.04"/><path class="cls-1" d="M7.44,14.15a6.21,6.21,0,0,0,3.25.34"/><polyline class="cls-1" points="7.38 14.13 7.38 14.13 7.39 14.13 7.39 14.13 7.41 14.14 7.41 14.14 7.42 14.14 7.43 14.14 7.45 14.15"/><polyline class="cls-1" points="3.26 9.41 3.27 9.43 3.28 9.44 3.29 9.46 3.3 9.47 3.32 9.48 3.32 9.5 3.33 9.52 3.34 9.53 3.36 9.54 3.37 9.56 3.38 9.57 3.39 9.58 3.4 9.6 3.41 9.61 3.42 9.62 3.43 9.63 3.44 9.65 3.45 9.65 3.46 9.67 3.47 9.68 3.48 9.69 3.49 9.7 3.5 9.71 3.51 9.72 3.52 9.73 3.53 9.74 3.54 9.75 3.55 9.76 3.56 9.77 3.56 9.77 3.58 9.78 3.58 9.79"/><path class="cls-1" d="M3.67,9.91a.38.38,0,0,0-.09-.13"/><path class="cls-1" d="M3.56,9.43s0,0-.1,0a.46.46,0,0,0-.2,0"/><polyline class="cls-1" points="1 7.91 1 7.91 1.02 7.93 1.06 7.95 1.11 7.99 1.17 8.04 1.25 8.09 1.34 8.16 1.44 8.23 1.55 8.31 1.67 8.4 1.8 8.49 1.93 8.59 2.07 8.69 2.22 8.79 2.36 8.9 2.51 9.01 2.66 9.12 2.81 9.22 2.95 9.33 3.09 9.43 3.23 9.53 3.35 9.62 3.47 9.7 3.58 9.79"/><polyline class="cls-1" points="3.26 9.41 3.12 9.31 2.97 9.2 2.83 9.09 2.67 8.98 2.52 8.87 2.37 8.76 2.21 8.65 2.07 8.54 1.92 8.44 1.78 8.34 1.66 8.24 1.53 8.15 1.42 8.07 1.32 8 1.23 7.93 1.15 7.88 1.09 7.83 1.04 7.79 1 7.77 0.98 7.75 0.97 7.75"/><path class="cls-1" d="M4.42,4.82l.1.07"/><polyline class="cls-1" points="4.84 4.83 4.82 4.81 4.79 4.79 4.78 4.78 4.77 4.78 4.75 4.77 4.74 4.76 4.73 4.75 4.71 4.74 4.7 4.72 4.68 4.71 4.67 4.71 4.66 4.7 4.65 4.69 4.64 4.68 4.63 4.68 4.62 4.67 4.62 4.67 4.6 4.66"/><polyline class="cls-1" points="4.6 4.66 4.59 4.67 4.58 4.67 4.57 4.68 4.55 4.69 4.54 4.69 4.53 4.71 4.51 4.72 4.5 4.72 4.49 4.73 4.48 4.75 4.47 4.76 4.46 4.77 4.45 4.78 4.44 4.8 4.43 4.81 4.42 4.82"/><path class="cls-1" d="M3.81,5.9l.14,0"/><polyline class="cls-1" points="4.42 4.82 4.37 4.89 4.33 4.95 4.29 5.01 4.25 5.08 4.21 5.15 4.17 5.21 4.13 5.28 4.1 5.35 4.06 5.42 4.02 5.49 3.98 5.55 3.95 5.62 3.91 5.69 3.88 5.76 3.85 5.83 3.82 5.9"/><path class="cls-1" d="M3.54,9.29s0,0-.1,0a.47.47,0,0,0-.2,0"/><polyline class="cls-1" points="3.54 9.29 3.53 9.24 3.53 9.19 3.52 9.14 3.52 9.09 3.51 9.03 3.5 8.98 3.5 8.93 3.5 8.88 3.5 8.82 3.49 8.77 3.49 8.72 3.49 8.66 3.48 8.61 3.48 8.56 3.48 8.51 3.48 8.45 3.48 8.4 3.48 8.34 3.48 8.29 3.48 8.23 3.49 8.18 3.49 8.13 3.49 8.07 3.49 8.02 3.5 7.96 3.5 7.91 3.5 7.86 3.51 7.8 3.52 7.75 3.52 7.7 3.52 7.64 3.53 7.59 3.54 7.54 3.54 7.49 3.55 7.43 3.56 7.38 3.57 7.32 3.58 7.27 3.58 7.22 3.59 7.17 3.6 7.11 3.61 7.06 3.62 7.01 3.63 6.95 3.65 6.9 3.66 6.85 3.67 6.8 3.68 6.75 3.7 6.7 3.71 6.64 3.73 6.59 3.74 6.54 3.76 6.49 3.77 6.44 3.79 6.39 3.8 6.34 3.82 6.29 3.84 6.24 3.85 6.18 3.88 6.13 3.9 6.08 3.91 6.04 3.93 5.99 3.95 5.94"/><polyline class="cls-1" points="3.82 5.9 3.79 5.95 3.77 6 3.75 6.05 3.73 6.1 3.71 6.16 3.69 6.21 3.67 6.26 3.65 6.31 3.63 6.36 3.61 6.41 3.6 6.46 3.58 6.52 3.57 6.57 3.55 6.62 3.53 6.67 3.52 6.72 3.5 6.78 3.49 6.83 3.47 6.88 3.46 6.94 3.45 6.99 3.44 7.04 3.42 7.1 3.42 7.15 3.4 7.2 3.39 7.26 3.38 7.31 3.37 7.36 3.37 7.41 3.35 7.47 3.34 7.52 3.34 7.58 3.33 7.63 3.32 7.68 3.31 7.74 3.3 7.79 3.3 7.85 3.29 7.9 3.29 7.95 3.28 8 3.27 8.06 3.27 8.11 3.27 8.17 3.26 8.22 3.25 8.28 3.25 8.33 3.25 8.38 3.25 8.43 3.24 8.49 3.24 8.54 3.23 8.6 3.23 8.65 3.23 8.7 3.23 8.76 3.23 8.81 3.23 8.86 3.23 8.91 3.23 8.97 3.23 9.02 3.23 9.07 3.23 9.12 3.24 9.18 3.24 9.23 3.25 9.28 3.25 9.31 3.25 9.34 3.26 9.38 3.26 9.41"/><polyline class="cls-1" points="4.6 4.66 4.46 4.55 4.33 4.46 4.2 4.37 4.08 4.28 3.98 4.21 3.9 4.14 3.83 4.09 3.77 4.05 3.73 4.02 3.7 4 3.69 4"/><path class="cls-1" d="M4.52,4.89A6.64,6.64,0,0,0,4,5.94"/><polyline class="cls-1" points="4.87 12.28 4.88 12.29 4.88 12.3 4.89 12.31 4.89 12.31 4.9 12.32 4.9 12.32 4.91 12.33 4.91 12.33 4.91 12.34"/><path class="cls-1" d="M3.54,9.3a6.24,6.24,0,0,0,1.32,3"/><polyline class="cls-1" points="4.79 12.9 4.79 12.9 4.82 12.92 4.85 12.94 4.91 12.98 4.97 13.03 5.05 13.09 5.14 13.15 5.24 13.22 5.35 13.3 5.46 13.39 5.58 13.47 5.71 13.56 5.83 13.66 5.96 13.75 6.09 13.84 6.21 13.93 6.32 14.01 6.43 14.09 6.53 14.16 6.62 14.23 6.7 14.29 6.76 14.33 6.82 14.37 6.85 14.4 6.88 14.41 6.88 14.42"/><polyline class="cls-1" points="4.16 12.3 4.17 12.31 4.19 12.32 4.23 12.35 4.27 12.38 4.33 12.43 4.41 12.48 4.49 12.54 4.59 12.61 4.7 12.69 4.81 12.77 4.94 12.86 5.07 12.96 5.12 13 5.17 13.03 5.22 13.07 5.24 13.08 5.27 13.1 5.29 13.12 5.32 13.14 5.34 13.16 5.37 13.18 5.39 13.2 5.42 13.22 5.45 13.23 5.47 13.25 5.5 13.27 5.53 13.29 5.58 13.33 5.64 13.37 5.69 13.41 5.74 13.45 5.79 13.49 5.85 13.53 5.9 13.56 5.96 13.6 6.01 13.64 6.07 13.68 6.12 13.72 6.17 13.76 6.22 13.8 6.28 13.84 6.31 13.86 6.33 13.88 6.36 13.9 6.38 13.91 6.41 13.93 6.44 13.95 6.46 13.97 6.49 13.99 6.51 14.01 6.54 14.03 6.57 14.05 6.59 14.06 6.61 14.08 6.64 14.1 6.68 14.13 6.73 14.17 6.87 14.27 6.99 14.36 7.11 14.44 7.22 14.52 7.31 14.59 7.4 14.65 7.47 14.7 7.53 14.75 7.58 14.78 7.62 14.81 7.63 14.82 7.64 14.83"/><polyline class="cls-1" points="3.55 14.65 3.56 14.66 3.58 14.68 3.62 14.71 3.67 14.74 3.73 14.79 3.81 14.84 3.89 14.9 3.99 14.97 4.1 15.05 4.21 15.14 4.33 15.22 4.45 15.31 4.57 15.4 4.7 15.49 4.82 15.57 4.93 15.66 5.04 15.74 5.15 15.82 5.25 15.89 5.33 15.95 5.41 16.01 5.47 16.05 5.53 16.09 5.56 16.12 5.59 16.13 5.59 16.14"/><polyline class="cls-1" points="7.8 14.81 7.79 14.8 7.77 14.78 7.73 14.76 7.68 14.72 7.62 14.67 7.54 14.62 7.45 14.55 7.35 14.48 7.24 14.4 7.11 14.31 6.98 14.21 6.84 14.11"/><path class="cls-1" d="M6.73,14.17s.07,0,.11-.06"/><path class="cls-1" d="M5.09,12.84c0,.05,0,.11,0,.13"/><polyline class="cls-1" points="7.2 14.26 7.16 14.24 7.12 14.23 7.08 14.21 7.06 14.2 7.03 14.2 7.01 14.19 6.99 14.18 6.96 14.16 6.94 14.15 6.92 14.14 6.89 14.13 6.87 14.12 6.84 14.11 6.82 14.09 6.79 14.08 6.76 14.06 6.74 14.05 6.71 14.03 6.68 14.01 6.66 13.99 6.63 13.97 6.62 13.97 6.61 13.96 6.61 13.95 6.6 13.95 6.59 13.94 6.59 13.93 6.58 13.92 6.58 13.92 6.57 13.91 6.56 13.89 6.54 13.88 6.53 13.87 6.52 13.86 6.51 13.84 6.48 13.82 6.45 13.8 6.42 13.78 6.39 13.76 6.37 13.74 6.34 13.72 6.31 13.71 6.25 13.66 6.2 13.63 6.14 13.59 6.09 13.55 6.03 13.51 5.97 13.47 5.92 13.43 5.86 13.39 5.81 13.35 5.75 13.3 5.7 13.27 5.64 13.22 5.62 13.2 5.59 13.18 5.56 13.16 5.54 13.14 5.51 13.12 5.48 13.1 5.45 13.08 5.43 13.07 5.42 13.06 5.41 13.05 5.39 13.04 5.38 13.04 5.37 13.04 5.35 13.03 5.33 13.03 5.33 13.02 5.32 13.02 5.3 13.01 5.29 13 5.26 12.98 5.24 12.96 5.21 12.94 5.19 12.92 5.17 12.9 5.14 12.88 5.12 12.86 5.1 12.84 4.95 12.74 4.82 12.64 4.7 12.55 4.58 12.47 4.48 12.4 4.39 12.33 4.32 12.28 4.25 12.23 4.2 12.19 4.17 12.17 4.14 12.15 4.13 12.14"/><path class="cls-1" d="M7.4,14.13c-.07,0-.15,0-.2.13"/><polyline class="cls-1" points="7.53 13.94 7.51 14 7.49 14.05 7.47 14.09 7.46 14.12 7.45 14.14 7.45 14.15"/><path class="cls-1" d="M5,12.14a5.92,5.92,0,0,0,2.48,1.8"/><polyline class="cls-1" points="4.87 12.28 4.88 12.28 4.89 12.26 4.92 12.24 4.95 12.21 5 12.17 5.04 12.13"/><path class="cls-1" d="M4.84,12.54c.07-.07.1-.17.06-.22"/><polyline class="cls-1" points="4.84 12.54 4.87 12.58 4.89 12.61 4.91 12.63 4.92 12.65 4.94 12.66 4.96 12.69 4.97 12.71 4.99 12.72 5 12.74 5.03 12.76 5.04 12.78 5.05 12.8 5.08 12.82 5.1 12.84"/><polyline class="cls-1" points="7.2 14.26 7.25 14.27 7.29 14.29 7.33 14.31 7.38 14.32 7.42 14.34 7.46 14.35 7.5 14.36 7.54 14.37 7.58 14.38 7.61 14.39 7.64 14.4 7.68 14.41 7.71 14.42 7.72 14.42 7.74 14.43 7.76 14.43 7.77 14.44 7.78 14.44 7.8 14.44 7.81 14.44 7.83 14.45 7.84 14.45 7.85 14.45 7.86 14.46 7.88 14.46 7.88 14.46 7.9 14.46 7.91 14.46 7.91 14.47 7.92 14.47 7.93 14.47 7.95 14.47 7.95 14.47 7.96 14.48 7.97 14.48 7.97 14.48 7.98 14.48 7.99 14.48 7.99 14.48 8 14.48 8 14.49 8.01 14.49 8.01 14.49 8.02 14.49 8.02 14.49 8.02 14.49 8.03 14.49"/><polyline class="cls-1" points="4.36 11.83 4.37 11.83 4.36 11.84 4.37 11.84 4.37 11.84 4.37 11.85 4.38 11.85 4.38 11.86 4.38 11.86 4.39 11.87 4.39 11.87 4.39 11.88 4.4 11.88 4.4 11.89 4.4 11.9 4.41 11.9 4.41 11.91 4.42 11.92 4.42 11.93 4.43 11.94 4.43 11.95 4.44 11.96 4.44 11.97 4.45 11.98 4.46 11.99 4.46 12 4.47 12.01 4.47 12.02 4.48 12.03 4.49 12.05 4.5 12.06 4.5 12.07 4.51 12.08 4.53 12.1 4.53 12.11 4.54 12.13 4.55 12.14 4.57 12.17 4.59 12.2 4.61 12.23 4.63 12.26 4.66 12.29 4.68 12.33 4.7 12.36 4.73 12.4 4.75 12.43 4.78 12.47 4.81 12.51 4.84 12.54"/><path class="cls-1" d="M14.54,11.87h0"/><polyline class="cls-1" points="14.54 11.87 14.55 11.88 14.56 11.89 14.57 11.9 14.58 11.91 14.59 11.92 14.6 11.93 14.6 11.94 14.61 11.95 14.62 11.96 14.62 11.98 14.62 11.99 14.63 12 14.63 12.01 14.63 12.02 14.63 12.03 14.63 12.04 14.63 12.05 14.63 12.06 14.63 12.07 14.63 12.09 14.63 12.1 14.63 12.1 14.63 12.11 14.62 12.12 14.62 12.13 14.62 12.14 14.61 12.15 14.6 12.16 14.6 12.17 14.6 12.18 14.59 12.19 14.58 12.2"/><polyline class="cls-1" points="4.52 4.89 4.53 4.88 4.53 4.87 4.54 4.86 4.55 4.86 4.55 4.85 4.56 4.84 4.57 4.83 4.58 4.83 4.58 4.82 4.59 4.82 4.6 4.82 4.61 4.81 4.62 4.8 4.63 4.8 4.64 4.79 4.65 4.79 4.66 4.79 4.67 4.79 4.68 4.79 4.69 4.79 4.71 4.79 4.72 4.79 4.73 4.78 4.75 4.79 4.75 4.79 4.77 4.79 4.78 4.8 4.79 4.8 4.8 4.81 4.82 4.81 4.83 4.82 4.84 4.83"/><path class="cls-1" d="M4.84,4.83h0"/><path class="cls-1" d="M13.75,13.06a6.13,6.13,0,0,0,.83-.86"/><path class="cls-1" d="M7.52,13.94a6,6,0,0,0,7-2.06"/><path class="cls-1" d="M4.83,4.83A6,6,0,0,0,5,12.14"/><path class="cls-1" d="M7,12a4.53,4.53,0,0,0,6.32-1"/><path class="cls-1" d="M6,5.69A4.52,4.52,0,0,0,7,12"/><line class="cls-1" x1="14.54" y1="11.87" x2="13.35" y2="11.01"/><line class="cls-1" x1="6.03" y1="5.69" x2="4.84" y2="4.83"/><path class="cls-1" d="M12.8,16.48a.11.11,0,0,0,.16,0"/><line class="cls-1" x1="15.69" y1="12.71" x2="12.96" y2="16.46"/><path class="cls-1" d="M1,7.75A.1.1,0,0,0,1,7.9"/><line class="cls-1" x1="3.69" y1="4" x2="0.97" y2="7.75"/><path class="cls-1" d="M7,14.4a.11.11,0,0,0-.16,0"/><path class="cls-1" d="M4.78,12.89a.1.1,0,0,0,0-.15"/><line class="cls-1" x1="3.55" y1="14.65" x2="4.79" y2="12.9"/><line class="cls-1" x1="5.59" y1="16.14" x2="6.89" y2="14.42"/><path class="cls-1" d="M7.64,14.83a.1.1,0,0,0,.15,0"/><path class="cls-1" d="M4.13,12.15a.11.11,0,0,0,0,.15"/><polyline class="cls-1" points="4.92 12.35 4.92 12.34 4.92 12.34 4.91 12.34"/><polyline class="cls-1" points="7.38 14.13 7.37 14.12 7.37 14.12 7.37 14.12"/><line class="cls-1" x1="8.03" y1="14.49" x2="7.8" y2="14.81"/><line class="cls-1" x1="4.36" y1="11.83" x2="4.14" y2="12.15"/><path class="cls-1" d="M8.26,14.4a.25.25,0,0,0-.24.09"/><path class="cls-1" d="M4.36,11.83a.21.21,0,0,0,0-.25"/><path class="cls-1" d="M3.55,14.66a2.86,2.86,0,1,0,2,1.48"/><polyline class="cls-1" points="9.17 2.1 9.16 2.09 9.15 2.08 9.14 2.08 9.13 2.08 9.12 2.07 9.11 2.06 9.1 2.06 9.08 2.05 9.07 2.04 9.06 2.04 9.04 2.03 9.03 2.02 9.02 2.02 9 2.02 8.99 2.01 8.98 2 8.96 1.99 8.94 1.99 8.93 1.99 8.91 1.97 8.9 1.97 8.88 1.96 8.87 1.96 8.85 1.95 8.83 1.95 8.81 1.94 8.8 1.94 8.78 1.93 8.77 1.93 8.75 1.92 8.73 1.91 8.71 1.91"/><path class="cls-1" d="M8.71,1.91a.45.45,0,0,0,0,.2c0,.05,0,.09.07.08"/><path class="cls-1" d="M9.16,2.1a.2.2,0,0,0,.15,0"/><path class="cls-1" d="M5.62,3.64l-.08-.12"/><polyline class="cls-1" points="5.55 3.52 5.49 3.57 5.43 3.63 5.37 3.68 5.32 3.74 5.26 3.79 5.21 3.85 5.16 3.9 5.11 3.96 5.05 4.01 5 4.07 4.95 4.13 4.9 4.19 4.85 4.25 4.8 4.31 4.75 4.37 4.7 4.43"/><path class="cls-1" d="M4.79,4.51,4.7,4.43"/><path class="cls-1" d="M8.57,1.94a.87.87,0,0,0,0,.19c0,.06,0,.09.06.08"/><polyline class="cls-1" points="8.58 1.94 8.53 1.95 8.48 1.96 8.43 1.97 8.38 1.99 8.33 2 8.28 2.02 8.23 2.03 8.18 2.05 8.13 2.06 8.08 2.08 8.03 2.1 7.98 2.12 7.93 2.13 7.88 2.16 7.83 2.17 7.78 2.19 7.73 2.21 7.68 2.23 7.63 2.25 7.58 2.27 7.53 2.3 7.48 2.32 7.43 2.34 7.38 2.36 7.33 2.38 7.28 2.4 7.23 2.43 7.18 2.45 7.13 2.48 7.08 2.5 7.04 2.52 6.99 2.55 6.94 2.57 6.89 2.6 6.84 2.62 6.8 2.65 6.75 2.67 6.7 2.7 6.65 2.73 6.61 2.75 6.56 2.78 6.51 2.81 6.47 2.83 6.42 2.87 6.37 2.9 6.33 2.92 6.28 2.95 6.24 2.98 6.19 3.02 6.15 3.05 6.1 3.08 6.05 3.11 6.01 3.14 5.97 3.17 5.92 3.21 5.88 3.24 5.84 3.27 5.8 3.31 5.75 3.35 5.71 3.38 5.67 3.41 5.63 3.45 5.58 3.48 5.55 3.52"/><polyline class="cls-1" points="5.62 3.64 5.66 3.61 5.7 3.58 5.75 3.54 5.78 3.5 5.83 3.47 5.87 3.44 5.91 3.41 5.96 3.38 6 3.35 6.04 3.31 6.09 3.28 6.13 3.25 6.17 3.22 6.22 3.19 6.26 3.16 6.31 3.13 6.35 3.11 6.4 3.08 6.45 3.05 6.49 3.02 6.54 3 6.59 2.97 6.63 2.94 6.68 2.92 6.72 2.89 6.77 2.87 6.82 2.84 6.87 2.82 6.92 2.79 6.97 2.77 7.01 2.75 7.06 2.73 7.11 2.71 7.16 2.68 7.21 2.66 7.26 2.64 7.31 2.62 7.36 2.6 7.41 2.58 7.46 2.56 7.51 2.54 7.56 2.52 7.61 2.5 7.66 2.48 7.71 2.47 7.76 2.45 7.81 2.43 7.87 2.41 7.92 2.4 7.97 2.38 8.02 2.37 8.07 2.35 8.12 2.34 8.17 2.32 8.22 2.31 8.28 2.3 8.33 2.29 8.38 2.27 8.43 2.26 8.48 2.25 8.53 2.24 8.58 2.23 8.63 2.22 8.68 2.21"/><polyline class="cls-1" points="8.71 1.91 8.68 1.92 8.64 1.92 8.61 1.93 8.58 1.94"/><polyline class="cls-1" points="4.61 4.66 4.62 4.66 4.63 4.67 4.64 4.68 4.64 4.68 4.66 4.69 4.66 4.7 4.67 4.7 4.68 4.71 4.7 4.72 4.71 4.73 4.73 4.75 4.74 4.75 4.76 4.76 4.77 4.77 4.78 4.78 4.79 4.79 4.82 4.81 4.84 4.83"/><polyline class="cls-1" points="4.7 4.43 4.7 4.44 4.69 4.45 4.67 4.47 4.67 4.48 4.66 4.49 4.65 4.51 4.64 4.52 4.64 4.54 4.63 4.55 4.63 4.57 4.62 4.58 4.62 4.6 4.61 4.61 4.61 4.63 4.61 4.64 4.61 4.66"/><polyline class="cls-1" points="9.17 2.1 9.05 2.02 8.94 1.93 8.81 1.84 8.67 1.74 8.54 1.64 8.39 1.54 8.24 1.43 8.1 1.32 7.95 1.21 7.8 1.1 7.66 1 7.52 0.9 7.38 0.8 7.25 0.71 7.13 0.62 7.02 0.54 6.92 0.47 6.83 0.41 6.76 0.35 6.7 0.3 6.64 0.27 6.61 0.24 6.59 0.23 6.58 0.22"/><polyline class="cls-1" points="6.42 0.24 6.43 0.25 6.45 0.27 6.48 0.29 6.54 0.33 6.6 0.38 6.68 0.43 6.77 0.5 6.87 0.57 6.98 0.65 7.1 0.74 7.23 0.83 7.37 0.94 7.51 1.04 7.66 1.15 7.81 1.26 7.96 1.37 8.12 1.48 8.27 1.59 8.42 1.7 8.57 1.81 8.71 1.91"/><polyline class="cls-1" points="4.61 4.66 4.46 4.55 4.33 4.45 4.2 4.36 4.09 4.28 3.98 4.21 3.9 4.14 3.83 4.09 3.77 4.05 3.73 4.02 3.7 4 3.69 3.99"/><path class="cls-1" d="M15.84,7.41a6.24,6.24,0,0,0-7.16-5.2"/><polyline class="cls-1" points="16.12 7.29 16.11 7.27 16.1 7.26 16.09 7.24 16.08 7.23 16.07 7.21 16.06 7.2 16.05 7.18 16.04 7.17 16.02 7.16 16.02 7.14 16 7.13 15.99 7.12 15.98 7.11 15.97 7.09 15.96 7.08 15.95 7.07 15.94 7.05 15.93 7.04 15.92 7.03 15.91 7.02 15.9 7.01 15.89 7 15.88 6.99 15.87 6.98 15.86 6.97 15.85 6.96 15.84 6.95 15.83 6.94 15.82 6.93 15.82 6.93 15.81 6.92 15.8 6.92"/><path class="cls-1" d="M15.71,6.79a.22.22,0,0,0,.08.13"/><path class="cls-1" d="M15.81,7.27s0,0,.1.05l.21,0"/><path class="cls-1" d="M15,11.88l-.11-.06"/><polyline class="cls-1" points="14.54 11.87 14.56 11.89 14.59 11.9 14.6 11.92 14.61 11.93 14.63 11.93 14.64 11.95 14.65 11.95 14.67 11.96 14.68 11.98 14.7 11.99 14.71 11.99 14.72 12 14.73 12.01 14.74 12.02 14.75 12.02 14.76 12.03 14.77 12.04 14.78 12.04"/><polyline class="cls-1" points="14.78 12.04 14.79 12.04 14.8 12.03 14.81 12.02 14.83 12.02 14.84 12.01 14.86 11.99 14.87 11.98 14.88 11.98 14.89 11.97 14.9 11.96 14.91 11.94 14.92 11.93 14.93 11.92 14.94 11.9 14.95 11.89 14.96 11.88"/><path class="cls-1" d="M15.56,10.8l-.14,0"/><polyline class="cls-1" points="14.96 11.88 15.01 11.81 15.05 11.75 15.09 11.69 15.13 11.62 15.17 11.55 15.21 11.49 15.25 11.42 15.29 11.35 15.32 11.29 15.36 11.22 15.4 11.15 15.43 11.08 15.47 11.01 15.5 10.94 15.53 10.87 15.56 10.8"/><path class="cls-1" d="M15.83,7.41s0,0,.1,0l.2,0"/><polyline class="cls-1" points="15.84 7.41 15.85 7.46 15.86 7.51 15.86 7.56 15.86 7.61 15.87 7.67 15.88 7.72 15.88 7.77 15.88 7.82 15.88 7.88 15.89 7.93 15.89 7.98 15.89 8.04 15.89 8.09 15.9 8.14 15.9 8.2 15.9 8.25 15.9 8.3 15.9 8.36 15.9 8.41 15.9 8.47 15.89 8.52 15.89 8.58 15.89 8.63 15.89 8.68 15.88 8.73 15.88 8.79 15.88 8.84 15.87 8.9 15.87 8.95 15.86 9 15.86 9.06 15.85 9.11 15.85 9.16 15.84 9.22 15.83 9.27 15.82 9.32 15.81 9.38 15.81 9.43 15.8 9.48 15.79 9.54 15.78 9.59 15.77 9.64 15.76 9.7 15.75 9.75 15.73 9.8 15.72 9.85 15.71 9.9 15.7 9.95 15.68 10 15.67 10.06 15.66 10.11 15.64 10.16 15.62 10.21 15.61 10.26 15.59 10.31 15.58 10.36 15.56 10.41 15.54 10.46 15.53 10.52 15.51 10.57 15.48 10.62 15.46 10.67 15.45 10.71 15.43 10.77"/><polyline class="cls-1" points="15.56 10.8 15.59 10.75 15.61 10.7 15.63 10.65 15.65 10.6 15.67 10.55 15.69 10.49 15.71 10.44 15.73 10.39 15.75 10.34 15.77 10.29 15.78 10.24 15.8 10.19 15.81 10.13 15.83 10.08 15.85 10.03 15.87 9.97 15.88 9.93 15.89 9.87 15.9 9.82 15.92 9.77 15.93 9.71 15.94 9.66 15.96 9.6 15.97 9.55 15.98 9.5 15.99 9.45 16 9.39 16.01 9.34 16.02 9.29 16.03 9.23 16.04 9.18 16.05 9.12 16.05 9.07 16.06 9.02 16.07 8.96 16.08 8.91 16.08 8.86 16.09 8.8 16.09 8.75 16.1 8.7 16.11 8.64 16.11 8.59 16.12 8.53 16.12 8.48 16.13 8.43 16.13 8.37 16.13 8.32 16.14 8.27 16.14 8.21 16.14 8.16 16.15 8.1 16.15 8.05 16.15 8 16.15 7.95 16.15 7.89 16.15 7.84 16.15 7.79 16.15 7.73 16.15 7.68 16.15 7.63 16.15 7.58 16.14 7.53 16.14 7.47 16.13 7.42 16.13 7.39 16.13 7.36 16.12 7.32 16.12 7.29"/><polyline class="cls-1" points="18.39 8.79 18.38 8.79 18.36 8.78 18.32 8.75 18.27 8.71 18.21 8.66 18.13 8.61 18.04 8.54 17.94 8.47 17.83 8.39 17.71 8.3 17.58 8.21 17.45 8.11 17.31 8.01 17.16 7.91 17.02 7.8 16.87 7.69 16.72 7.58 16.57 7.48 16.43 7.37 16.29 7.27 16.15 7.17 16.03 7.08 15.91 7 15.8 6.92"/><polyline class="cls-1" points="16.12 7.29 16.26 7.39 16.41 7.5 16.55 7.61 16.71 7.72 16.86 7.83 17.02 7.94 17.17 8.05 17.32 8.16 17.46 8.26 17.6 8.36 17.73 8.46 17.85 8.55 17.96 8.63 18.06 8.7 18.15 8.77 18.23 8.82 18.3 8.87 18.34 8.91 18.38 8.93 18.4 8.95 18.41 8.96"/><polyline class="cls-1" points="14.86 11.81 14.86 11.82 14.85 11.83 14.84 11.84 14.83 11.85 14.83 11.85 14.82 11.86 14.81 11.87 14.8 11.87 14.8 11.88 14.79 11.88 14.78 11.89 14.77 11.89 14.76 11.89 14.75 11.9 14.74 11.9 14.73 11.91 14.72 11.91 14.71 11.91 14.7 11.91 14.69 11.92 14.68 11.92 14.66 11.91 14.65 11.92 14.64 11.91 14.63 11.91 14.62 11.91 14.6 11.9 14.59 11.9 14.58 11.89 14.56 11.89 14.55 11.88 14.54 11.87"/><path class="cls-1" d="M14.54,11.87h0"/><path class="cls-1" d="M5.62,3.64a5.63,5.63,0,0,0-.82.87"/><polyline class="cls-1" points="4.84 4.83 4.83 4.82 4.82 4.81 4.81 4.8 4.8 4.79 4.79 4.78 4.78 4.77 4.78 4.76 4.77 4.75 4.76 4.74 4.76 4.72 4.76 4.71 4.75 4.7 4.75 4.69 4.75 4.68 4.75 4.67 4.75 4.66 4.75 4.65 4.75 4.64 4.75 4.63 4.75 4.62 4.75 4.61 4.75 4.6 4.75 4.59 4.76 4.58 4.76 4.57 4.76 4.56 4.77 4.55 4.78 4.54 4.78 4.53 4.79 4.52 4.79 4.51 4.8 4.5"/><path class="cls-1" d="M14.54,11.87a6,6,0,0,0-9.7-7"/><path class="cls-1" d="M14.86,11.81a5.87,5.87,0,0,0,.56-1.05"/><path class="cls-1" d="M4.83,4.83h0"/><polyline class="cls-1" points="15.69 12.7 15.68 12.7 15.65 12.68 15.61 12.65 15.56 12.61 15.48 12.55 15.4 12.49 15.3 12.42 15.18 12.34 15.06 12.25 14.92 12.15 14.78 12.04"/><line class="cls-1" x1="14.54" y1="11.87" x2="13.35" y2="11.01"/><line class="cls-1" x1="6.03" y1="5.69" x2="4.84" y2="4.83"/><path class="cls-1" d="M13.35,11A4.52,4.52,0,0,0,6,5.69"/><path class="cls-1" d="M6.57.22a.1.1,0,0,0-.15,0"/><line class="cls-1" x1="3.69" y1="3.99" x2="6.42" y2="0.24"/><path class="cls-1" d="M18.41,9a.11.11,0,0,0,0-.15"/><line class="cls-1" x1="15.69" y1="12.7" x2="18.41" y2="8.95"/></g></g></svg>