<svg xmlns="http://www.w3.org/2000/svg" viewBox="0 0 26.31 23.08"><defs><style>.cls-1{fill:none;stroke:#231916;stroke-linecap:round;stroke-linejoin:round;stroke-width:0.5px;}</style></defs><g id="Layer_2" data-name="Layer 2"><g id="Layer_2-2" data-name="Layer 2"><g id="LINE"><line class="cls-1" x1="22.88" y1="16.61" x2="22.88" y2="15.79"/></g><g id="LINE-2" data-name="LINE"><line class="cls-1" x1="3.43" y1="15.79" x2="3.43" y2="16.61"/></g><g id="ARC"><path class="cls-1" d="M3.43,16.61c.14.17.29.34.45.5"/></g><g id="ARC-2" data-name="ARC"><path class="cls-1" d="M22.43,17.11c.16-.16.31-.33.45-.5"/></g><g id="ARC-3" data-name="ARC"><path class="cls-1" d="M21.32,17.59a1.51,1.51,0,0,0,1.11-.48"/></g><g id="ARC-4" data-name="ARC"><path class="cls-1" d="M3.88,17.11A1.51,1.51,0,0,0,5,17.59"/></g><g id="ARC-5" data-name="ARC"><path class="cls-1" d="M20.55,17.59a.26.26,0,0,0-.26.26"/></g><g id="ARC-6" data-name="ARC"><path class="cls-1" d="M6,17.85a.26.26,0,0,0-.26-.26"/></g><g id="LINE-3" data-name="LINE"><line class="cls-1" x1="20.29" y1="19.03" x2="20.29" y2="17.85"/></g><g id="LINE-4" data-name="LINE"><line class="cls-1" x1="6.02" y1="17.85" x2="6.02" y2="19.03"/></g><g id="ARC-7" data-name="ARC"><path class="cls-1" d="M20,19.3a.27.27,0,0,0,.26-.27"/></g><g id="ARC-8" data-name="ARC"><path class="cls-1" d="M6,19a.27.27,0,0,0,.26.27"/></g><g id="SPLINE"><polyline class="cls-1" points="6.6 19.32 6.6 19.32 6.6 19.32"/></g><g id="LINE-5" data-name="LINE"><line class="cls-1" x1="9.31" y1="21.71" x2="9.31" y2="21.95"/></g><g id="LINE-6" data-name="LINE"><line class="cls-1" x1="17" y1="21.95" x2="17" y2="21.71"/></g><g id="LINE-7" data-name="LINE"><line class="cls-1" x1="9.31" y1="21.95" x2="9.41" y2="22.06"/></g><g id="LINE-8" data-name="LINE"><line class="cls-1" x1="16.9" y1="22.06" x2="17" y2="21.95"/></g><g id="ARC-9" data-name="ARC"><path class="cls-1" d="M10.32,22.06a5.59,5.59,0,0,0,5.67,0"/></g><g id="LINE-9" data-name="LINE"><line class="cls-1" x1="22.88" y1="15.79" x2="3.43" y2="15.79"/></g><g id="LINE-10" data-name="LINE"><line class="cls-1" x1="13.16" y1="16.61" x2="3.43" y2="16.61"/></g><g id="LINE-11" data-name="LINE"><line class="cls-1" x1="22.88" y1="16.61" x2="13.16" y2="16.61"/></g><g id="LINE-12" data-name="LINE"><line class="cls-1" x1="21.32" y1="17.59" x2="4.99" y2="17.59"/></g><g id="SPLINE-2" data-name="SPLINE"><path class="cls-1" d="M15.66,17.85h-.31"/></g><g id="ARC-10" data-name="ARC"><path class="cls-1" d="M15.35,17.85a.25.25,0,0,0-.24-.26"/></g><g id="LWPOLYLINE"><polyline class="cls-1" points="15.66 17.85 15.66 17.8 15.67 17.75 15.68 17.7 15.69 17.66 15.7 17.63 15.72 17.61 15.73 17.59 15.75 17.59"/></g><g id="ARC-11" data-name="ARC"><path class="cls-1" d="M11.2,17.59a.24.24,0,0,0-.23.26"/></g><g id="SPLINE-3" data-name="SPLINE"><path class="cls-1" d="M11,17.85h-.32"/></g><g id="LWPOLYLINE-2" data-name="LWPOLYLINE"><polyline class="cls-1" points="10.56 17.59 10.58 17.59 10.6 17.61 10.61 17.63 10.62 17.66 10.63 17.7 10.64 17.75 10.65 17.8 10.65 17.85"/></g><g id="ARC-12" data-name="ARC"><path class="cls-1" d="M15.11,17.59a.3.3,0,0,0-.06.26"/></g><g id="ARC-13" data-name="ARC"><path class="cls-1" d="M11.27,17.85a.35.35,0,0,0-.07-.26"/></g><g id="LINE-13" data-name="LINE"><line class="cls-1" x1="10.65" y1="17.85" x2="10.33" y2="17.85"/></g><g id="LWPOLYLINE-3" data-name="LWPOLYLINE"><polyline class="cls-1" points="10.23 17.59 10.25 17.59 10.27 17.61 10.29 17.63 10.3 17.66 10.31 17.7 10.32 17.75 10.33 17.8 10.33 17.85"/></g><g id="LINE-14" data-name="LINE"><line class="cls-1" x1="15.98" y1="17.85" x2="15.66" y2="17.85"/></g><g id="LWPOLYLINE-4" data-name="LWPOLYLINE"><polyline class="cls-1" points="15.98 17.85 15.98 17.8 15.99 17.75 16 17.7 16.01 17.66 16.02 17.63 16.04 17.61 16.06 17.59 16.08 17.59"/></g><g id="ARC-14" data-name="ARC"><path class="cls-1" d="M15.37,19h.31"/></g><g id="SPLINE-4" data-name="SPLINE"><path class="cls-1" d="M15.35,17.85V19"/></g><g id="LWPOLYLINE-5" data-name="LWPOLYLINE"><polyline class="cls-1" points="15.66 17.85 15.67 18.11 15.68 19.04"/></g><g id="ARC-15" data-name="ARC"><path class="cls-1" d="M10.63,19h.31"/></g><g id="LWPOLYLINE-6" data-name="LWPOLYLINE"><polyline class="cls-1" points="10.63 19.04 10.63 18.77 10.65 17.85"/></g><g id="SPLINE-5" data-name="SPLINE"><path class="cls-1" d="M10.94,19v-.59l0-.6"/></g><g id="LINE-15" data-name="LINE"><line class="cls-1" x1="10.35" y1="19.04" x2="10.63" y2="19.04"/></g><g id="LWPOLYLINE-7" data-name="LWPOLYLINE"><polyline class="cls-1" points="10.33 17.85 10.33 18.11 10.35 19.04"/></g><g id="LINE-16" data-name="LINE"><line class="cls-1" x1="15.68" y1="19.04" x2="15.96" y2="19.04"/></g><g id="LWPOLYLINE-8" data-name="LWPOLYLINE"><polyline class="cls-1" points="15.96 19.04 15.96 18.77 15.98 17.85"/></g><g id="SPLINE-6" data-name="SPLINE"><path class="cls-1" d="M11.27,17.85c0,.2,0,.4,0,.6s0,.39,0,.58"/></g><g id="SPLINE-7" data-name="SPLINE"><path class="cls-1" d="M15.07,19c0-.19,0-.38,0-.58s0-.4,0-.6"/></g><g id="ARC-16" data-name="ARC"><path class="cls-1" d="M15,19.3a.32.32,0,0,0,.06-.27"/></g><g id="LINE-17" data-name="LINE"><line class="cls-1" x1="15.01" y1="19.3" x2="11.31" y2="19.3"/></g><g id="ARC-17" data-name="ARC"><path class="cls-1" d="M11.24,19a.3.3,0,0,0,.07.27"/></g><g id="ARC-18" data-name="ARC"><path class="cls-1" d="M10.71,19.3a.26.26,0,0,0,.23-.26"/></g><g id="LWPOLYLINE-9" data-name="LWPOLYLINE"><polyline class="cls-1" points="10.63 19.04 10.63 19.09 10.63 19.14 10.64 19.18 10.65 19.22 10.67 19.25 10.68 19.28 10.7 19.29 10.71 19.3"/></g><g id="LWPOLYLINE-10" data-name="LWPOLYLINE"><polyline class="cls-1" points="15.68 19.04 15.68 19.09 15.68 19.14 15.67 19.18 15.66 19.22 15.64 19.25 15.63 19.28 15.61 19.29 15.6 19.3"/></g><g id="ARC-19" data-name="ARC"><path class="cls-1" d="M15.37,19a.26.26,0,0,0,.23.26"/></g><g id="ARC-20" data-name="ARC"><path class="cls-1" d="M11.27,17.85H11"/></g><g id="ARC-21" data-name="ARC"><path class="cls-1" d="M15.35,17.85h-.3"/></g><g id="LINE-18" data-name="LINE"><line class="cls-1" x1="10.71" y1="19.3" x2="10.45" y2="19.3"/></g><g id="LWPOLYLINE-11" data-name="LWPOLYLINE"><polyline class="cls-1" points="10.35 19.04 10.35 19.09 10.36 19.14 10.37 19.18 10.38 19.22 10.39 19.25 10.41 19.28 10.43 19.29 10.45 19.3"/></g><g id="LWPOLYLINE-12" data-name="LWPOLYLINE"><polyline class="cls-1" points="15.96 19.04 15.96 19.09 15.95 19.14 15.94 19.18 15.93 19.22 15.92 19.25 15.9 19.28 15.88 19.29 15.87 19.3"/></g><g id="LINE-19" data-name="LINE"><line class="cls-1" x1="15.86" y1="19.3" x2="15.6" y2="19.3"/></g><g id="SPLINE-8" data-name="SPLINE"><path class="cls-1" d="M15.07,19h.3"/></g><g id="SPLINE-9" data-name="SPLINE"><path class="cls-1" d="M10.94,19h.3"/></g><g id="SPLINE-10" data-name="SPLINE"><path class="cls-1" d="M15.6,19.3H15"/></g><g id="SPLINE-11" data-name="SPLINE"><path class="cls-1" d="M11.31,19.3h-.6"/></g><g id="SPLINE-12" data-name="SPLINE"><path class="cls-1" d="M16.16,19.3h-.3"/></g><g id="SPLINE-13" data-name="SPLINE"><path class="cls-1" d="M10.45,19.3h-.29"/></g><g id="LINE-20" data-name="LINE"><line class="cls-1" x1="20.03" y1="19.3" x2="16.16" y2="19.3"/></g><g id="LINE-21" data-name="LINE"><line class="cls-1" x1="10.16" y1="19.3" x2="6.28" y2="19.3"/></g><g id="ARC-22" data-name="ARC"><path class="cls-1" d="M19.86,21.67a1.32,1.32,0,0,0,.81-.88"/></g><g id="ARC-23" data-name="ARC"><path class="cls-1" d="M5.64,20.79a1.34,1.34,0,0,0,.81.88"/></g><g id="LINE-22" data-name="LINE"><line class="cls-1" x1="9.93" y1="19.3" x2="10.76" y2="19.3"/></g><g id="SPLINE-14" data-name="SPLINE"><path class="cls-1" d="M15.43,19.3l-1.13,0-1.15,0-1.14,0-1.13,0"/></g><g id="LINE-23" data-name="LINE"><line class="cls-1" x1="15.55" y1="19.3" x2="16.38" y2="19.3"/></g><g id="LINE-24" data-name="LINE"><line class="cls-1" x1="6.96" y1="19.3" x2="9.93" y2="19.3"/></g><g id="LINE-25" data-name="LINE"><line class="cls-1" x1="16.38" y1="19.3" x2="19.35" y2="19.3"/></g><g id="LINE-26" data-name="LINE"><line class="cls-1" x1="10.76" y1="21.71" x2="6.56" y2="21.71"/></g><g id="LINE-27" data-name="LINE"><line class="cls-1" x1="6.45" y1="21.67" x2="6.56" y2="21.71"/></g><g id="LINE-28" data-name="LINE"><line class="cls-1" x1="19.75" y1="21.71" x2="15.55" y2="21.71"/></g><g id="LINE-29" data-name="LINE"><line class="cls-1" x1="19.75" y1="21.71" x2="19.86" y2="21.67"/></g><g id="LINE-30" data-name="LINE"><line class="cls-1" x1="15.55" y1="21.71" x2="10.76" y2="21.71"/></g><g id="LINE-31" data-name="LINE"><line class="cls-1" x1="16.06" y1="21.97" x2="15.84" y2="21.97"/></g><g id="SPLINE-15" data-name="SPLINE"><path class="cls-1" d="M15.84,22l-.29-.06"/></g><g id="LINE-32" data-name="LINE"><line class="cls-1" x1="16.84" y1="21.71" x2="16.31" y2="21.91"/></g><g id="SPLINE-16" data-name="SPLINE"><path class="cls-1" d="M16.31,21.91a1,1,0,0,1-.25.06"/></g><g id="SPLINE-17" data-name="SPLINE"><path class="cls-1" d="M10.76,21.91l-.29.06"/></g><g id="LINE-33" data-name="LINE"><line class="cls-1" x1="10.47" y1="21.97" x2="10.25" y2="21.97"/></g><g id="SPLINE-18" data-name="SPLINE"><path class="cls-1" d="M10.25,22a1,1,0,0,1-.25-.06"/></g><g id="LINE-34" data-name="LINE"><line class="cls-1" x1="10" y1="21.91" x2="9.47" y2="21.71"/></g><g id="ELLIPSE"><path class="cls-1" d="M11.61,21.71a6.25,6.25,0,0,0-.85.2"/></g><g id="ELLIPSE-2" data-name="ELLIPSE"><path class="cls-1" d="M15.55,21.91a6.25,6.25,0,0,0-.85-.2"/></g><g id="ARC-24" data-name="ARC"><path class="cls-1" d="M20.67,20.79a1.12,1.12,0,0,0-.05-.7"/></g><g id="ARC-25" data-name="ARC"><path class="cls-1" d="M5.69,20.09a1.12,1.12,0,0,0-.05.7"/></g><g id="ARC-26" data-name="ARC"><path class="cls-1" d="M6.88,19.3a1.29,1.29,0,0,0-1.19.79"/></g><g id="LINE-35" data-name="LINE"><line class="cls-1" x1="6.88" y1="19.3" x2="6.96" y2="19.3"/></g><g id="ARC-27" data-name="ARC"><path class="cls-1" d="M20.62,20.09a1.29,1.29,0,0,0-1.19-.79"/></g><g id="LINE-36" data-name="LINE"><line class="cls-1" x1="19.35" y1="19.3" x2="19.43" y2="19.3"/></g><g id="SPLINE-19" data-name="SPLINE"><path class="cls-1" d="M19.61,19.31h.07l.09,0-.08,0h-.07"/></g><g id="LINE-37" data-name="LINE"><line class="cls-1" x1="13.16" y1="21.95" x2="15.74" y2="21.95"/></g><g id="LINE-38" data-name="LINE"><line class="cls-1" x1="16.16" y1="21.95" x2="17" y2="21.95"/></g><g id="LINE-39" data-name="LINE"><line class="cls-1" x1="9.31" y1="21.95" x2="10.13" y2="21.95"/></g><g id="LINE-40" data-name="LINE"><line class="cls-1" x1="10.54" y1="21.95" x2="13.16" y2="21.95"/></g><g id="LINE-41" data-name="LINE"><line class="cls-1" x1="13.16" y1="22.06" x2="16.9" y2="22.06"/></g><g id="LINE-42" data-name="LINE"><line class="cls-1" x1="9.41" y1="22.06" x2="13.16" y2="22.06"/></g><g id="ARC-28" data-name="ARC"><path class="cls-1" d="M10.88,19.3a.1.1,0,0,0,0,0"/></g><g id="ARC-29" data-name="ARC"><path class="cls-1" d="M15.38,19.26a.1.1,0,0,0,0,0"/></g><g id="LINE-43" data-name="LINE"><line class="cls-1" x1="6.9" y1="19.3" x2="6.88" y2="19.3"/></g><g id="LINE-44" data-name="LINE"><line class="cls-1" x1="19.43" y1="19.3" x2="19.41" y2="19.3"/></g><g id="LINE-45" data-name="LINE"><line class="cls-1" x1="15.55" y1="21.71" x2="15.55" y2="21.91"/></g><g id="LINE-46" data-name="LINE"><line class="cls-1" x1="10.76" y1="21.71" x2="10.76" y2="21.91"/></g><path class="cls-1" d="M25.57,11.8a12.23,12.23,0,0,0,.49-3.47,12.9,12.9,0,0,0-2.77-8L3.1.25A12.92,12.92,0,0,0,.72,11.8"/><path class="cls-1" d="M1,12.67a12.81,12.81,0,0,0,1.5,2.95H23.69a13.13,13.13,0,0,0,1.55-2.85Z"/><line class="cls-1" x1="0.25" y1="8.33" x2="26.06" y2="8.33"/><line class="cls-1" x1="25.68" y1="11.41" x2="0.62" y2="11.41"/><line class="cls-1" x1="0.72" y1="11.8" x2="25.52" y2="11.8"/><line class="cls-1" x1="1.19" y1="11.8" x2="1.19" y2="12.66"/><line class="cls-1" x1="25.02" y1="11.8" x2="25.02" y2="12.66"/></g></g></svg>