<svg xmlns="http://www.w3.org/2000/svg" viewBox="0 0 29.06 19.73"><defs><style>.cls-1{fill:none;stroke:#231916;stroke-miterlimit:10;stroke-width:0.5px;}</style></defs><g id="Layer_2" data-name="Layer 2"><g id="Layer_2-2" data-name="Layer 2"><path class="cls-1" d="M23.52,12.76H14.87m0,0v0m0,0-.11,0-.08,0-.08-.07-.07-.08,0-.08v-.2l0-.1m4.33-7.5.07-.08.08,0,.09,0,.1,0,.09,0,.1,0,.08,0,.05.08m-5,7.52,0,0m0,0,4.33-7.5m0,0v0m.66,0v0m0,0,4.34,7.5m0,0v0m0,0,0,.1v.2l0,.08-.06.08-.09.07-.09,0-.1,0m0,0v0m-9-.57,0,.08,0,.09,0,.1,0,.09,0,.08.08.06.1,0h.09m4-8,.07-.09.07,0,.09,0h.19l.1,0,.07,0,.06.09m4.33,7.5,0,.08v.19l0,.09-.07.08-.07.06-.09,0h-.1m-4.61-8h0m-4.32,7.5h0m0,0,4.32-7.5m-4,8h0v0h0m8.65,0h0v0h0m0,0H14.87m4.61-8h0m0,0,4.33,7.5m0,0h0m-9,.51-.12,0-.07,0,0,0,0-.06,0-.07,0-.12m0,0,0-.08,0-.08m0,0,4.34-7.5m0,0L19,4.63l.07,0,.08,0h.16l.08,0,.07,0,.05.07m0,0,4.33,7.5m0,0,0,.08v.18l0,.08,0,.07-.07.05-.08,0h-.09m0,0H14.87M9.65,9.09h0m0,0,0-.47.08-.48.1-.47L10,7.21l.15-.46.16-.46.19-.44.22-.43L10.91,5l.26-.42.27-.4.3-.38.31-.36.33-.36.35-.32.36-.33.38-.28.4-.29.4-.25.42-.23.44-.22L15.58,1,16,.79l.47-.15L17,.52l.47-.09L17.9.35l.47-.06.49,0h.47l.49,0,.48,0,.48.07.48.09.46.11.46.13.46.17.45.19.43.2.43.23.42.25.39.27.39.28.37.31.35.33.34.34.33.36.29.38.29.4.26.39.24.42.22.44.2.43.18.45.16.46.12.46.11.47.1.48.05.47,0,.48v1l0,.48-.05.47-.1.48-.11.47-.12.46-.16.47-.18.44-.2.44-.22.43-.24.42-.26.4-.29.39-.29.38-.33.36-.34.34-.35.33-.37.31-.39.29-.39.27-.42.24-.43.23-.43.21-.45.19-.46.16-.46.13-.46.11-.48.1-.48.07-.48,0-.49,0h-.47l-.49,0-.47-.05-.48-.08-.47-.1-.46-.12L16,18.94l-.44-.18-.45-.19-.44-.21-.42-.23-.4-.26-.4-.29-.38-.28L12.73,17l-.35-.32-.33-.35-.31-.37-.3-.38-.27-.39-.26-.42-.23-.42-.22-.44-.19-.43L10.11,13,10,12.52l-.12-.46-.1-.47-.08-.48,0-.47m0,0h0m0,0V9.09m.09.78,0-.48,0-.47,0-.48L9.93,8,10,7.52l.14-.46.15-.45.17-.45.19-.43.22-.42.24-.41.26-.39.29-.39.3-.37.31-.35.34-.34L13,2.75l.36-.32.4-.28.39-.26.41-.24L15,1.42l.42-.21L15.83,1l.45-.17.45-.13.46-.11.48-.08.46-.07.47,0,.48,0,.47,0,.48,0,.47.06L21,.59l.48.09.44.13.46.15.44.17.45.19.42.21.4.24.41.24.38.29.38.28.35.32.36.32.32.35.3.37.3.38.26.38.25.41.23.42L27.8,6l.19.44.16.44.14.46.12.46.09.46.07.48.05.47,0,.46v.49l0,.46-.05.48-.07.47-.09.46-.12.46-.14.46-.16.44-.19.45-.21.42-.23.42-.25.4-.26.38-.3.38-.3.37-.32.35-.36.33-.35.31-.38.28-.38.29-.41.24-.4.25-.42.2-.45.19-.44.18-.46.15-.44.12-.48.09-.46.09-.47.05-.48,0h-.47l-.48,0-.47,0-.46-.07-.48-.08L16.73,19l-.45-.13-.45-.16-.44-.18-.42-.2-.42-.23-.41-.25-.39-.26-.4-.28L13,17l-.34-.31-.34-.34L12,16l-.3-.36-.29-.4-.26-.39-.24-.41L10.69,14l-.19-.43-.17-.45-.15-.45L10,12.21l-.11-.46-.08-.46,0-.47,0-.48,0-.47m1.16,0,0-.61.07-.6L11.1,8l.16-.61.22-.62.23-.51L12,5.81l.28-.49.51-.69L13.33,4l.42-.38.44-.36.46-.33.48-.28.5-.26.52-.23.61-.2.61-.18L18,1.66l.6-.07.61,0,.61,0,.6.07.61.11.62.18.61.2.52.23.48.26.49.28.69.5.63.57.39.42.37.45.32.46.29.49.25.49.24.51.2.62L27.3,8l.1.62.07.6,0,.61m0,0,0,.61-.07.59-.1.63-.18.61-.2.61-.24.51-.25.49-.29.49-.5.69-.58.64-.41.38-.45.37-.46.32-.49.29-.48.25-.52.23-.61.21L21,18l-.61.11-.6.07-.61,0-.61,0-.6-.07L17.37,18l-.61-.17-.61-.21-.52-.23-.5-.25-.48-.29-.69-.5-.63-.57L13,15.32l-.37-.45-.33-.46L12,13.92l-.26-.49-.23-.51-.22-.61-.16-.61L11,11.07l-.07-.59,0-.61m7.93-5.21-4.32,7.5m0,0,0,.09v.22l0,.11.06.08.08.07.11,0h.11m0,0h8.65m0,0h.11l.11,0,.08-.07.07-.08,0-.11,0-.11,0-.11,0-.09m0,0-4.33-7.5m0,0-.06-.1-.1-.06-.09,0h-.22L19,4.5l-.08.06-.07.1M.25,10.25h0V9.49m9.4.76H.25m0-.76h9.4"/></g></g></svg>