<svg xmlns="http://www.w3.org/2000/svg" viewBox="0 0 22.57 16.44"><defs><style>.cls-1{fill:none;stroke:#231916;stroke-linecap:round;stroke-linejoin:round;stroke-width:0.4px;}</style></defs><g id="Layer_2" data-name="Layer 2"><g id="Layer_2-2" data-name="Layer 2"><polyline class="cls-1" points="0.66 14.22 0.68 14.22 0.72 14.22 0.79 14.22 0.89 14.22 1.01 14.22 1.16 14.22 1.33 14.22 1.52 14.22 1.72 14.22 8.93 14.22 9.3 14.22 9.69 14.22 10.08 14.22 10.47 14.22 10.88 14.22 11.29 14.22 11.69 14.22 12.09 14.22 12.49 14.22 12.88 14.22 13.26 14.22 13.64 14.22 20.85 14.22 21.05 14.22 21.24 14.22 21.41 14.22 21.55 14.22 21.68 14.22 21.78 14.22 21.84 14.22 21.89 14.22 21.91 14.22"/><polyline class="cls-1" points="22.18 16.24 22.17 16.24 22.11 16.24 22.03 16.24 21.92 16.24 21.78 16.24 21.61 16.24 21.41 16.24 21.19 16.24 20.96 16.24 13.75 16.24 13.36 16.24 12.96 16.24 12.55 16.24 12.13 16.24 11.71 16.24 11.29 16.24 10.86 16.24 10.44 16.24 10.02 16.24 9.6 16.24 9.2 16.24 8.81 16.24 1.6 16.24 1.37 16.24 1.16 16.24 0.96 16.24 0.79 16.24 0.64 16.24 0.54 16.24 0.45 16.24 0.4 16.24 0.38 16.24"/><line class="cls-1" x1="9.27" y1="13.3" x2="9.27" y2="9.02"/><line class="cls-1" x1="13.29" y1="13.3" x2="13.29" y2="9.02"/><path class="cls-1" d="M13.29,13.29a.93.93,0,0,0,.93.93"/><path class="cls-1" d="M8.36,14.22a.93.93,0,0,0,.92-.93"/><path class="cls-1" d="M22.19,16.24a.19.19,0,0,0,.18-.19"/><path class="cls-1" d="M.66,14.21a.47.47,0,0,0-.46.46"/><line class="cls-1" x1="22.37" y1="14.68" x2="22.37" y2="16.05"/><line class="cls-1" x1="0.2" y1="14.68" x2="0.2" y2="16.05"/><path class="cls-1" d="M22.37,14.67a.46.46,0,0,0-.46-.46"/><path class="cls-1" d="M.2,16.05a.19.19,0,0,0,.19.19"/><polyline class="cls-1" points="9.27 9.02 9.27 8.99 13.29 8.99 13.29 9.02"/><path class="cls-1" d="M15.92,4.84A4.63,4.63,0,0,1,13.29,9V9h-4V9a4.64,4.64,0,1,1,6.65-4.18Z"/></g></g></svg>