<svg xmlns="http://www.w3.org/2000/svg" viewBox="0 0 67.88 62.76"><defs><style>.cls-1,.cls-3{fill:#fff;}.cls-1{stroke:#dd2625;stroke-linecap:round;stroke-linejoin:round;}.cls-2{fill:#f7931e;opacity:0.39;}.cls-4{fill:#191919;}</style></defs><g id="Layer_2" data-name="Layer 2"><path class="cls-1" d="M62.26,31.38A30.88,30.88,0,0,1,6.48,49.65L1.75,51.42,4.5,46.58a30.88,30.88,0,1,1,57.76-15.2Z"/><circle class="cls-2" cx="46.81" cy="32.33" r="6.02"/><path d="M16.5,16.49a13.57,13.57,0,0,1-1.74.45l-.22-.88a12.18,12.18,0,0,0,2.28-.78h.84v7.39H16.5Z"/><path d="M18.92,28.48v4.69h1.3v.93h-1.3v1.68H17.83V34.1H14.19v-.92l3.37-4.7Zm-1.09,2.61c0-.37,0-1.1.06-1.62h0a10.43,10.43,0,0,1-.73,1.33l-1.67,2.37h2.37Z"/><path d="M20.18,40.72v.92A24.15,24.15,0,0,0,17.71,48H16.49a20.79,20.79,0,0,1,1.24-3.69A19.19,19.19,0,0,1,19,41.75H15.75v1.49H14.67V40.72Z"/><path d="M29.42,21.68a5.27,5.27,0,0,1,2.27-2.52l.24-.17c1.11-.74,1.43-1.11,1.43-1.67a1.17,1.17,0,0,0-1.31-1.12,2.66,2.66,0,0,0-1.92.89l-.75-.69a3.46,3.46,0,0,1,2.67-1.15c1.5,0,2.54.84,2.54,2.07,0,.84-.41,1.36-1.85,2.34l-.28.18c-1.17.78-1.62,1.21-1.89,1.78h4.09v1.05H29.42Z"/><path d="M34.25,28.52v1H31l-.26,2.07h0a2.63,2.63,0,0,1,1.56-.49,2.28,2.28,0,0,1,2.35,2.4,2.47,2.47,0,0,1-2.71,2.47A3.38,3.38,0,0,1,29.4,35l.6-.75a2.9,2.9,0,0,0,1.92.73,1.48,1.48,0,0,0,1.57-1.5A1.41,1.41,0,0,0,32,32a1.65,1.65,0,0,0-1.43.68l-1-.16.44-4Z"/><path d="M30.87,44.26a1.83,1.83,0,0,1-1.46-1.76c0-1.14,1.08-2,2.57-2s2.54.78,2.54,1.88A1.82,1.82,0,0,1,33,44.2v0a3,3,0,0,1,1.17.61,1.84,1.84,0,0,1,.64,1.35c0,1.2-1.12,2-2.8,2s-2.77-.77-2.77-2a2.13,2.13,0,0,1,1.66-1.92Zm-.45,1.85c0,.68.64,1.17,1.56,1.17s1.57-.5,1.57-1.19a1,1,0,0,0-.4-.81,2.71,2.71,0,0,0-.73-.43,3.41,3.41,0,0,0-.5-.14C31,45,30.42,45.48,30.42,46.11Zm3-3.57A1.28,1.28,0,0,0,32,41.36a1.25,1.25,0,0,0-1.39,1.17,1,1,0,0,0,.38.79,2.68,2.68,0,0,0,.7.39l.32.1C32.85,43.59,33.39,43.1,33.39,42.54Z"/><path d="M46.11,18.39c1.1,0,1.81-.47,1.81-1.2s-.56-1-1.36-1a3,3,0,0,0-1.92.77L44,16.16a4.15,4.15,0,0,1,2.65-.9c1.5,0,2.47.73,2.47,1.87a1.77,1.77,0,0,1-1.67,1.72v0c1.23.2,1.87.83,1.87,1.82,0,1.33-1,2.12-2.72,2.12a3.88,3.88,0,0,1-2.85-1.08l.66-.79a3.23,3.23,0,0,0,2.2.91c1,0,1.49-.41,1.49-1.16s-.75-1.38-2-1.38H45.5v-.94Z"/><path d="M45.32,32a2.06,2.06,0,0,1,1.8-.92,2.32,2.32,0,0,1,2.4,2.31A2.44,2.44,0,0,1,47,35.93a2.66,2.66,0,0,1-2.19-1,3.61,3.61,0,0,1-.64-2.33,4.49,4.49,0,0,1,1.15-2.85,5.2,5.2,0,0,1,2.79-1.5l.41.86a5,5,0,0,0-2.19,1.1,3.27,3.27,0,0,0-1,1.82Zm.08,1.35A1.61,1.61,0,0,0,46.92,35a1.45,1.45,0,0,0,1.44-1.56,1.4,1.4,0,0,0-1.46-1.51A1.54,1.54,0,0,0,45.4,33.36Z"/><path d="M48.17,44.63a2.06,2.06,0,0,1-1.82.91A2.31,2.31,0,0,1,44,43.14a2.52,2.52,0,0,1,2.61-2.59c1.79,0,2.77,1.22,2.77,3.41A4,4,0,0,1,48,47.2a5.62,5.62,0,0,1-2.78,1l-.49-1c2.11-.17,3.21-1,3.45-2.66Zm-3-1.53a1.42,1.42,0,0,0,1.42,1.53,1.48,1.48,0,0,0,1.51-1.51,1.66,1.66,0,0,0-.32-1.07,1.44,1.44,0,0,0-1.17-.56A1.46,1.46,0,0,0,45.13,43.1Z"/><path class="cls-3" d="M60.05,33.45a1.59,1.59,0,0,0-.54.75,1.68,1.68,0,0,0-1.82.19,1.74,1.74,0,0,0-.54.75,1.69,1.69,0,0,0-1.81.18,1.78,1.78,0,0,0-.47.59l-1.73-2.18a1.7,1.7,0,0,0-2.65,2.12l5.41,6.78-.33-.12a6.81,6.81,0,0,0-1.07-.34c-1.3-.21-2.1.19-2.37,1.18a1.79,1.79,0,0,0,1,1.95l.16.07c.26.1,2.55,1,3.52,1.4l.23.11a7.74,7.74,0,0,0,8.71-.67,5,5,0,0,0,2.08-4.66,5.92,5.92,0,0,0-1.43-2.84l-4-5A1.7,1.7,0,0,0,60.05,33.45Z"/><path class="cls-4" d="M60.05,33.45a1.59,1.59,0,0,0-.54.75,1.68,1.68,0,0,0-1.82.19,1.74,1.74,0,0,0-.54.75,1.69,1.69,0,0,0-1.81.18,1.78,1.78,0,0,0-.47.59l-1.73-2.18a1.7,1.7,0,0,0-2.65,2.12l5.41,6.78-.33-.12a6.81,6.81,0,0,0-1.07-.34c-1.3-.21-2.1.19-2.37,1.18a1.79,1.79,0,0,0,1,1.95l.16.07c.26.1,2.55,1,3.52,1.4l.23.11a7.74,7.74,0,0,0,8.71-.67,5,5,0,0,0,2.08-4.66,5.92,5.92,0,0,0-1.43-2.84l-4-5A1.7,1.7,0,0,0,60.05,33.45Zm5.83,5.69a5.43,5.43,0,0,1,1.29,2.5,4.4,4.4,0,0,1-1.83,4,7.11,7.11,0,0,1-8,.59l-.27-.12c-1-.42-3.28-1.31-3.54-1.41l0,0c-.21-.12-.88-.57-.71-1.18.13-.45.42-.88,1.61-.69a6.52,6.52,0,0,1,.94.3,4.32,4.32,0,0,0,1,.31.49.49,0,0,0,.48-.25.5.5,0,0,0-.05-.54L51,35.43a1,1,0,0,1,1.59-1.27l4.45,5.58a.34.34,0,0,0,.53-.42l-2.2-2.76a1,1,0,0,1,.37-.71,1,1,0,0,1,1.43.16l2,2.47a.34.34,0,1,0,.53-.42l-1.95-2.44a1,1,0,0,1,.37-.7,1,1,0,0,1,1.43.16l2,2.47a.35.35,0,0,0,.48.05.34.34,0,0,0,0-.48L60.1,34.68a1,1,0,0,1,.37-.7,1,1,0,0,1,1.43.16Z"/></g></svg>