<?xml version="1.0" encoding="utf-8"?>
<!-- Generator: Adobe Illustrator 26.0.1, SVG Export Plug-In . SVG Version: 6.00 Build 0)  -->
<svg version="1.1" id="Layer_1" xmlns="http://www.w3.org/2000/svg" xmlns:xlink="http://www.w3.org/1999/xlink" x="0px" y="0px"
	 viewBox="0 0 250 140" style="enable-background:new 0 0 250 140;" xml:space="preserve">
<style type="text/css">
	.st0{clip-path:url(#SVGID_00000075139207796451665800000001563349390721528196_);}
	.st1{fill:#BBCEE0;}
	.st2{fill:#997968;stroke:#221F1F;stroke-width:0.5;stroke-linecap:round;stroke-linejoin:round;}
	.st3{fill:none;}
	.st4{fill:#F1AA42;stroke:#211D1E;stroke-width:0.5;stroke-miterlimit:10;}
	.st5{opacity:0.2;}
	.st6{fill:#5B5C5D;}
	.st7{fill:#F4A611;}
	.st8{fill:#F39B00;}
	.st9{fill:#F7B200;}
	.st10{fill:#4F2A24;}
	.st11{fill:#411F0D;}
	.st12{fill:#361609;}
	.st13{fill:#502411;}
	.st14{fill:#F4AC84;}
	.st15{fill:#F2A073;}
	.st16{fill:#E52821;}
	.st17{fill:#E7382E;}
	.st18{fill:#00334C;}
	.st19{fill:#002A3D;}
	.st20{fill:#004059;}
	.st21{fill:#E69266;}
	.st22{fill-rule:evenodd;clip-rule:evenodd;fill:#F2A073;}
	.st23{fill:#431D0D;}
	.st24{fill:#562814;}
	.st25{fill:#381808;}
	.st26{fill:#321206;}
	.st27{fill:#532312;}
	.st28{fill:#EA6033;}
	.st29{fill:#E7422E;}
	.st30{fill:#FFFFFF;}
	.st31{clip-path:url(#SVGID_00000119829569181205084690000011546979136341883278_);}
	.st32{fill:#5C342C;}
	.st33{fill:#071419;}
	.st34{fill-rule:evenodd;clip-rule:evenodd;fill:#F4AC84;}
	.st35{opacity:0.8;fill:#2D9FD1;enable-background:new    ;}
	.st36{fill:#DD2625;}
	.st37{fill:#C1E5F9;}
	.st38{fill:#00A0E8;}
</style>
<g id="Layer_2_00000011751043932933630330000014758817003397796770_">
	<g id="Layer_1-2">
		<g>
			<defs>
				<rect id="SVGID_1_" x="2" y="1.2" width="246" height="137.7"/>
			</defs>
			<clipPath id="SVGID_00000175320864840514585140000010911227548881629856_">
				<use xlink:href="#SVGID_1_"  style="overflow:visible;"/>
			</clipPath>
			<g style="clip-path:url(#SVGID_00000175320864840514585140000010911227548881629856_);">
				<rect x="-0.2" y="-5.1" class="st1" width="250.5" height="148.7"/>
				<path class="st2" d="M249.4,69.5v72.1H0.6V69.5c20.6-15,68.9-35,125.1-35.1C181.4,34.4,224.7,54.4,249.4,69.5z"/>
				<rect x="2" y="1.2" class="st3" width="246" height="137.7"/>
				<path class="st4" d="M283.3,169.5H-33.2v-60.2c0,0,102,18.9,160.6,18.9c58.2,0,155.9-18.9,155.9-18.9V169.5z"/>
				<g class="st5">
					<path class="st6" d="M80,54.4c6.8,2.2,6.9,5.8,0.1,8.1s-17.9,2.2-24.7,0c-6.8-2.2-6.9-5.8-0.1-8.1S73.2,52.2,80,54.4z"/>
				</g>
				<path class="st7" d="M76.4,27.2c0,0,1.7,6.7-0.8,12.4c-0.9,2.4-1.4,5-1.5,7.6c0,0.8-0.9,5.9-0.9,5.9c-1,0.4-2.1,0.4-3.1-0.1
					c0,0-0.8-5.5,0-8.3c0,0,0.5-4,0-5.7s1-7.6,1-7.6C72.7,29.7,74.5,28.3,76.4,27.2z"/>
				<path class="st8" d="M70.2,38.9c0.5,1.7,0,5.7,0,5.7c-0.8,2.8,0,8.3,0,8.3c0.4,0.3,0.9,0.4,1.4,0.4c-0.1-1-0.2-1.9-0.2-2.9
					c-0.4-2.9-0.2-5.8,0.7-8.6c0.9-3.1,1.3-6.4,1.1-9.6l-2-0.7C70.8,32.6,69.7,37.4,70.2,38.9z"/>
				<path class="st7" d="M67.5,27.9c0,0,2.8,2.1,5.5,0.8c0.5,3.4-0.1,6.9-1.8,10c0,0-1.4,3.5-2.1,5.3s-1.2,3.2-1.8,5.2
					s-2.9,6.5-2.9,8.5c0,0,0,1.4-2.2,0c0,0-0.2-10.5,2.3-13.9c0,0,0.4-8.1,0.9-10.8C65.7,31.1,66.4,29.4,67.5,27.9z"/>
				<path class="st7" d="M67.5,27.9c0,0,2.8,2.1,5.5,0.8c0.5,3.4-0.1,6.9-1.8,10c0,0-1.5,3.5-2.2,5.3s-1.1,3.2-1.7,5.2
					s-2.9,6.5-2.9,8.5c0,0,0,1.4-2.2,0c0,0-0.2-10.5,2.3-13.9c0,0,0.4-8.1,0.9-10.8C66,29.6,68.1,27.4,67.5,27.9z"/>
				<path class="st8" d="M67.5,27.9c-1.1,1.5-1.8,3.2-2.1,5c-0.5,2.7-0.9,10.8-0.9,10.8c-2.5,3.5-2.3,14-2.3,14
					c0.4,0.3,0.3,0.2,0.7,0.3c-0.3-3.5,1.7-10.6,2.9-14.1c1.4-4,0.5-7.7,0.5-10.1s1.6-2.3,1.6-2.3c1.9-0.1,3.7-0.8,5.2-2
					c0-0.2,0-0.2,0-0.3l-0.5-0.2C70,29.7,67.5,27.9,67.5,27.9z"/>
				<path class="st9" d="M73.1,29.5c-0.9,1.4-2.4,2.3-4,2.7c-2.5,0.7-2.2,2.5-1.7,5.6s-1.6,9.5-3.2,13.9c-0.8,2-1,4.3-0.6,6.4
					c0.3-0.1,0.5-0.2,0.8-0.3c0-1.8,0.3-3.6,0.9-5.3c0.5-2.1,3.9-10,4.3-11.6c0.4-2.2,1-4.4,1.7-6.5c0.4-1.1,0.5-2.6,1.9-2.9
					C73.2,31.2,73.1,29.6,73.1,29.5z"/>
				<path class="st9" d="M73.2,53c-0.1-2,0.2-4.9,0.2-6.1c0.1-3.3,0.8-6.6,2-9.7c1.6-4.4,0.5-9.6,0.5-9.6c-0.7,0.9-1.7,1.6-2.9,1.9
					l0.1,1.9c2.1-0.1-0.3,12-1.1,14.3c-0.7,1.8,0,6,0.3,7.6C72.7,53.2,72.9,53.1,73.2,53L73.2,53z"/>
				<path class="st10" d="M67.5,27.9c0,0,2.6,1.9,5,1.5c1.7-0.2,3.1-1.3,3.8-2.8c0.1,0.4,0.2,0.9,0.2,1.3c-1.1,1.6-2.9,2.5-4.8,2.5
					c-1.8,0-3.5-0.6-4.8-1.7c0,0,0.2-0.3,0.3-0.4S67.5,27.9,67.5,27.9z"/>
				<path class="st11" d="M62,51.3c-0.6-0.4,0.2,5.3-0.5,6.9c-0.1,0.4-0.1,0.8,0,1.2c0.3,0.8,1.7,1.2,2.3,2.5s3.5,1.8,3.6,0.5
					c0.1-0.4-0.4-1-1.2-1.8c-1.2-1.1-2.5-2.5,0.3-8.5C67,51.4,64.3,52.7,62,51.3z"/>
				<path class="st11" d="M69.6,47.5c-0.7-0.2,0.8,3.8,0.2,5.8s-0.4,2.2,0.6,2.7c0.6,0.1,1.2,0.1,1.7,0c0,0,0.6-0.2,1.6,0.9
					c0,0,2.6,1.7,3.4,0.2c0,0,0.3-0.8-1.1-1.5c-1.2-0.5-2.1-1.5-2.5-2.7c-0.4-1.8,1-5.3,0.7-5.6C73.8,46.7,73.6,48.7,69.6,47.5z"/>
				<path class="st12" d="M61.6,59.5c0.3,0.8,1.7,1.2,2.3,2.5s3.2,1.8,3.6,0.7c-1.1,0.6-2.6,0.3-3.2-0.9c-0.1-0.1-0.1-0.2-0.2-0.4
					c-0.3-0.6-0.7-1.1-1.2-1.5c-0.6-0.3-1.1-0.8-1.3-1.5C61.4,58.8,61.5,59.1,61.6,59.5z"/>
				<path class="st13" d="M66.3,60.7c-1.2-1.1-2.5-2.5,0.3-8.5c0.3-0.7-1.7,0.3-3.6-0.4c0.1,1.9-0.1,3.8-0.6,5.7
					c-0.4,1.6,0.8,1.7,1.3,2.3c0.6,0.8,1.2,1.6,1.9,2.4c0.9,0.9,1.7,0.5,1.9,0.3C67.3,61.8,66.8,61.2,66.3,60.7z"/>
				<path class="st12" d="M70.4,56c0.6,0.1,1.2,0.1,1.7,0c0,0,0.6-0.2,1.6,0.9c0,0,2.6,1.6,3.3,0.3c-1,0.2-2.1,0-2.9-0.6
					c-0.6-0.6-0.9-0.9-2.7-0.9c-0.8,0-1.5-0.3-1.9-0.9C69.5,55.3,69.8,55.6,70.4,56z"/>
				<path class="st13" d="M76,55.5c-1.2-0.5-2.1-1.5-2.5-2.7c-0.4-1.8,1-5.3,0.7-5.6s-0.5,0.7-2.3,0.7c0.3,1.3,0.3,2.6,0,3.9
					c-0.5,2-0.7,2.5,0.5,2.9c1,0.2,1.9,0.7,2.6,1.4c0.6,0.6,1.4,0.8,2.2,0.7C77.2,56.5,77,56,76,55.5z"/>
				<path class="st14" d="M76.5,13.6c0,0,1.8,0.5,0.6,5.8c0,0,0,4.5,0,5.9l0.5,4.1c0,0-0.3,0.5-1.5,0.2c0,0-1.9-3.6-2-5.3
					S73.4,14,75.1,13.5C75.5,13.3,76.1,13.4,76.5,13.6z"/>
				<path class="st15" d="M76.2,29.7c0.2,0.1,0.4,0.1,0.7,0.1c-0.7-1.4-1.2-2.8-1.6-4.2c-0.7-2.7,0.9-6.1,0.9-6.1L74,18.8
					c0,2.3,0.1,4.8,0.2,5.6C74.3,26.1,76.2,29.7,76.2,29.7z"/>
				<path class="st16" d="M76,29.7c0.1,0.7,0.2,1.4,0.2,2.1c-0.1,0.6,0.1,1.2,0.7,1.5c0.3,0.2,1.4,0.7,1.6-0.6
					c0.2-1.3-0.1-1.6-0.1-1.6l-1.1-1.6L76,29.7z"/>
				<path class="st17" d="M75.9,29.2c0,0,0.8,0.6,1.7-0.6c0,0,0.6-0.2,0.6,1.6c0,0.3,0,0.4,0.3,1c0.1,0.3,0.3,1.2-0.1,1.1
					c0,0-0.3-0.1-0.7-1c-0.2-0.4-0.5-0.8-1-0.9C76.2,30.1,75.9,29.7,75.9,29.2z"/>
				<path class="st18" d="M73.8,11.7c0,0-1.1,2.1,0.6,6.8c0,0,2.7,1.2,3.7-0.8c0,0,0.3-5.2-2.1-6.7C75.2,10.6,74.2,10.9,73.8,11.7z"
					/>
				<path class="st18" d="M67.9,13.5c-1.7,1-5.6,2.8-3.2,6.5c0,0,1.8,2.7,2.7,3.8c1,1.1,1.2,2.7,0.5,4c0,0,3.7,4.5,8.4-0.8
					c-0.2-1.9-0.2-3.9,0-5.8c0.4-2,1.9-8.5-2-10C72.9,10.5,71.5,11.4,67.9,13.5z"/>
				<path class="st19" d="M64.7,20c0.5,1.2,1.2,2.4,2,3.5c1.1,1.1,1.4,2.8,0.7,4.2c1.3,1.1,2.9,1.7,4.6,1.8
					c-2.6-3.7-2.5-5.9-2.3-7.9c0.3-3.3,0-5.4-1.3-6.7c-0.5-0.4-1.1-0.6-1.8-0.6C65.1,15,63,16.6,64.7,20z"/>
				<path class="st20" d="M76.3,26.9c-0.2-1.9-0.2-3.9,0-5.8c0.4-2,1.9-8.5-2-10c-0.9-0.4-1.6,0.2-3,0.5c1.5,0.4,4.8,2.9,3.8,8.2
					c-0.9,4.9-1.7,7-1.7,9.3C74.5,28.6,75.5,27.8,76.3,26.9z"/>
				<path class="st15" d="M73.5,13.5c-0.6,0.5-0.9,1.2-0.9,2c0.1,1-2.2,1-3.5-2.4c0,0,0.9-0.6,0.3-3.6L73.5,13.5z"/>
				<path class="st21" d="M72.9,13.9c0,0-2.4-1.1-3.6-0.9c0,0,0.6-0.4,0.4-2.2c-0.8-1.1-1-2.5-0.6-3.7c0.3-1.2,1.4-2,2.6-2
					C71.6,5,68,9.4,72.9,13.9z"/>
				<path class="st14" d="M75.4,8.7c0,0.3-0.4,0.3,0,1.7c0.2,0.8,0.1,0.8-0.3,2.2c-0.3,0.8-0.9,2.4-3.2,0.8
					c-1.1-1.1-2.1-2.4-2.7-3.8c-0.6-1.5-0.2-3.3,1.1-4.3C70.2,5.4,76,3.9,75.4,8.7z"/>
				<path class="st22" d="M75.5,8c-0.7,0.4-1.5,0.7-2.3,0.8c0,0-1.2-0.2-1.2,0.3c0,0.6,0.1,1.2,0.3,1.8c0.3,0.6,0.6,1.2,0.7,1.8
					c0,0.2,0.2,1.3,0.8,1.4c0,0-1.6,0.4-3.5-2.4c-0.6-0.8-1.1-1.6-1.5-2.5c0.1-0.4,2.5-1.3,3.2-1.5s3.4-0.8,3.4-0.8S75.5,7.8,75.5,8
					z"/>
				<path class="st23" d="M75.5,7.1C75.4,8,73.4,8.2,72,8.3c-0.5,0-0.9,0.4-0.6,1.8s-0.6,1.5-0.6,1.3c-0.1-1.1-1.2-2.2-1.1-0.3
					c0,0-2.4-2.9-1.2-4.8C69.2,5,71,3.8,74.1,5.2C74.9,5.5,75.4,6.2,75.5,7.1z"/>
				<path class="st23" d="M71.4,10.2c0.3,1.5-0.6,1.4-0.6,1.4c-0.1-1.4-1.3-2-1.1-0.4c0,0-2.4-2.9-1.2-4.8c0.4-0.7,1-1.2,1.7-1.5
					c-2,2.8,0.9,2.9,1.6,3.6C71.4,8.5,71.2,9,71.4,10.2z"/>
				<path class="st24" d="M71.3,9.4c0,0-0.5-0.6-0.6,0c-0.3-0.2-0.4-0.6-0.4-0.9c0,0-0.4,0-0.5,0.6c-0.3-0.3-0.4-0.7-0.2-1.1
					c-0.3,0.3-0.5,0.6-0.6,1c0,0-0.5-0.9-0.3-1.4c0,0-0.2,0-0.3,0.7c-0.4-0.9-0.2-1.8,0.5-2.5c0,0-0.2,1.6,2.9,2.5
					C71.5,8.6,71.3,9,71.3,9.4z"/>
				<path class="st25" d="M70.1,10.2c0,0-1.2-0.1-1.5-0.9c0.3,0.6,0.7,1.2,1.1,1.8C69.7,11.1,69.5,10.2,70.1,10.2z"/>
				<path class="st26" d="M68.8,5.8c0,0-0.2,1.7,2.9,2.5c0,0,2.7,0.3,3.7-1.1c0.1-0.3,0.1-0.6,0-0.8c0,0-0.1,0.7-0.6,0.8
					c0,0,0.2-0.4,0.1-0.6c-0.2,0.4-0.5,0.6-0.9,0.8c0.1-0.2,0.1-0.4,0-0.6c-0.3,0.6-0.9,0.9-1.5,1c0.2-0.1,0.3-0.3,0.4-0.6
					c0,0-1,0.7-1.6,0.4c0,0,0.6-0.2,0.6-0.5c0,0-1.2,0.3-1.8-0.2c0.3,0,0.5,0,0.7-0.2C70.8,6.7,69,6.7,68.8,5.8z"/>
				<path class="st27" d="M69.3,5.3c0,0,2.2-1.8,5.3,0.2c0,0-1.4-0.4-1.9-0.5c-0.5-0.1,0.3,0.3,0.8,0.5c-0.6-0.1-1.3-0.2-1.9-0.3
					c-0.6-0.1-1.7,0-1,0.2S69.5,5.2,69.3,5.3z"/>
				<path class="st16" d="M68.4,8.8c0,0,3.9,2.4,7.5,1.4c0,0,2.1-0.6-0.6-2.4L68.4,8.8z"/>
				<path class="st17" d="M75.4,7.7l-5,0.5c1,0.9,3.1,2.4,5.5,1.9C77.3,9.5,76.8,8.7,75.4,7.7z"/>
				<path class="st28" d="M68.1,7.4c0-2,1.7-3.5,3.6-3.5c0,0,0,0,0.1,0c2.2,0,4,1.7,4,3.9c0,0,0,0.1,0,0.1c0,0-3.6,3-7.4,0.7
					C68.2,8.2,68.1,7.8,68.1,7.4z"/>
				<path class="st29" d="M68.1,7.4c0,0.4,0.1,0.8,0.3,1.2C70,9.7,72,9.9,73.8,9.2c0,0,0.1-0.1,0.1-0.1c0.1-2.4-1.7-4.4-4.1-4.6
					C68.8,5,68.1,6.2,68.1,7.4z"/>
				<path class="st10" d="M68.4,8.8c0,0,4.1,2.2,7.3-0.8V7.6c-2.1,1.7-5,2-7.4,0.8L68.4,8.8z"/>
				<path class="st10" d="M75.3,8.2c0,0,0-0.1,0-0.1l0,0c0,0,0-0.1,0-0.1l0,0V7.9l0,0h-0.1l0,0h-0.1l0,0l-0.3-0.2h-0.4l0,0l0,0l0,0
					h-0.1l0,0l0,0l0,0h-0.1l0,0v0.1l0,0l0,0l0,0l-0.1,0.1l0,0l0,0l0,0c0,0,0,0,0,0.1V8v0.1v0.1v0.1l0,0v0.1c0,0,0,0,0,0.1v0.1
					c0,0,0,0,0,0.1v0.1c0,0,0,0,0,0.1v0.1c0,0,0,0,0,0.1v0.1c0,0,0,0,0,0.1l0,0c0,0,0,0,0,0l0,0l0,0l0,0l0,0l0,0l0,0l0,0l0,0l0,0
					l0.3,0.2l0,0l0,0l0,0h0.1h0.2H75l0,0c0,0,0.1,0,0.1-0.1l0,0c0.4-0.3,0.7-0.7,0.7-1.2L75.3,8.2z M74.7,8.2L74.7,8.2
					c0,0.1,0,0.1,0,0.1c0,0.1,0,0.1,0,0.2l0,0c0,0.1,0,0.1-0.1,0.2l0,0l-0.1,0.1l0,0l0,0l-0.1,0.1l0,0l-0.3,0.2l0,0h-0.1l0,0l0,0
					l0,0c0,0-0.1,2616.7-0.1,0c0,0,0-0.1,0-0.1c0,0,0-0.1,0-0.1l0,0c0,0,0,0,0-0.1c0,0,0-0.1,0-0.1l0,0c0,0,0-0.1,0-0.1l0,0l0.1-0.1
					l0.1-0.1l0.2-0.2l0,0l0.1-0.1h0.1h0.1l0,0l0,0l0,0L74.7,8.2L74.7,8.2z M74.7,7.9L74.7,7.9z"/>
				<polygon class="st10" points="74.4,7.6 74.4,7.6 74.4,7.6 				"/>
				<g>
					<path class="st30" d="M74.9,8C74.9,8,75,8,75,8.1c0,0,0.1,0.1,0.1,0.2c0,0.2,0,0.3-0.1,0.5c-0.1,0.3-0.4,0.6-0.7,0.7
						c-0.1,0-0.2,0-0.2,0c-0.1-0.1-0.2-0.2-0.2-0.4c0-0.4,0.2-0.8,0.6-1c0,0.1,0,0.1,0,0.2c-0.3,0.2-0.4,0.5-0.4,0.8
						c0,0.3,0.2,0.4,0.5,0.2C74.8,9.1,75,8.8,75,8.4c0-0.3-0.2-0.4-0.5-0.2c0-0.1,0-0.1,0-0.2C74.6,8,74.8,7.9,74.9,8z"/>
					<g>
						<defs>
							<path id="SVGID_00000056397410128217503680000000676560959480518822_" d="M74.9,8C74.9,8,75,8,75,8.1c0,0,0.1,0.1,0.1,0.2
								c0,0.2,0,0.3-0.1,0.5c-0.1,0.3-0.4,0.6-0.7,0.7c-0.1,0-0.2,0-0.2,0c-0.1-0.1-0.2-0.2-0.2-0.4c0-0.4,0.2-0.8,0.6-1
								c0,0.1,0,0.1,0,0.2c-0.3,0.2-0.4,0.5-0.4,0.8c0,0.3,0.2,0.4,0.5,0.2C74.8,9.1,75,8.8,75,8.4c0-0.3-0.2-0.4-0.5-0.2
								c0-0.1,0-0.1,0-0.2C74.6,8,74.8,7.9,74.9,8z"/>
						</defs>
						<clipPath id="SVGID_00000172415927380798132480000017554526714223444634_">
							<use xlink:href="#SVGID_00000056397410128217503680000000676560959480518822_"  style="overflow:visible;"/>
						</clipPath>
						<g style="clip-path:url(#SVGID_00000172415927380798132480000017554526714223444634_);">
							<g>
								<path class="st30" d="M74.9,8c0.5,0.3,0,1.3-0.6,1.4c-0.1,0-0.2,0-0.2,0c-0.1-0.1-0.2-0.2-0.2-0.4c0-0.4,0.2-0.8,0.6-1
									c0,0.1,0,0.1,0,0.2c-0.3,0.2-0.4,0.5-0.4,0.8c0,0.3,0.2,0.4,0.5,0.2C74.8,9.1,75,8.8,75,8.4c0-0.3-0.2-0.4-0.5-0.2
									c0-0.1,0-0.1,0-0.2C74.7,8,74.8,8,74.9,8L74.9,8z"/>
								<path class="st30" d="M74.5,8L74.5,8c0,0.1,0,0.1,0,0.2c-0.3,0.2-0.4,0.5-0.4,0.8c0,0.3,0.2,0.4,0.5,0.2
									C74.8,9,75,8.8,75,8.4c0-0.3-0.2-0.4-0.5-0.2C74.5,8.2,74.5,8.1,74.5,8L74.5,8C74.7,7.9,74.8,7.9,75,8l0,0l0,0l0,0l0,0l0,0
									l0,0v0.2l0,0l0,0c0,0,0,0,0,0.1l0,0c0,0,0,0,0,0.1v0.1v0.1l0,0v0.1v0.1l0,0v0.1l0,0v0.1v0.1l0,0l0,0l0,0v0l0,0h-0.1l0,0l0,0
									h-0.1l0,0l0,0h-0.8c-0.1-0.1-0.2-0.2-0.2-0.4c0-0.4,0.2-0.8,0.6-1V8z"/>
								<path class="st30" d="M74.5,8C74.5,8,74.5,8,74.5,8L74.5,8L74.5,8c0.1,0,0.1,0.1,0.1,0.1c-0.3,0.2-0.4,0.5-0.4,0.8
									c0,0.3,0.2,0.4,0.5,0.2C74.8,9,75,8.7,75,8.4c0-0.3-0.2-0.4-0.5-0.2C74.5,8.2,74.5,8.1,74.5,8L74.5,8L74.5,8L74.5,8
									C74.7,8,74.8,7.9,75,8l0,0l0,0l0,0l0,0l0,0l0,0v0.2l0,0l0,0c0,0,0,0,0,0.1l0,0c0,0,0,0,0,0.1v0.1v0.1l0,0v0.1v0.1l0,0v0.1
									l0,0v0.1v0.1l0,0l0,0l0,0v0l0,0h-0.1l0,0l0,0h-0.1l0,0l0,0h-0.8c-0.1-0.1-0.2-0.2-0.2-0.4c0-0.4,0.2-0.8,0.6-1V8z"/>
								<path class="st30" d="M74.5,8L74.5,8c-0.1,0-0.1,0.1-0.2,0.2C74.4,8.1,74.4,8.1,74.5,8c0.1,0,0.1,0.1,0.1,0.1
									c-0.3,0.2-0.4,0.5-0.4,0.8c0,0.3,0.2,0.4,0.5,0.2C74.8,9,75,8.7,75,8.4c0-0.3-0.2-0.4-0.5-0.2C74.5,8.2,74.5,8.1,74.5,8
									L74.5,8l0.1,0L74.5,8c0.1-0.1,0.3-0.1,0.4,0l0,0l0,0l0,0l0,0l0,0l0,0v0.2l0,0l0,0c0,0,0,0,0,0.1l0,0c0,0,0,0,0,0.1v0.1v0.1
									l0,0v0.1v0.1l0,0v0.1l0,0v0.1v0.1l0,0l0,0l0,0v0l0,0h-0.1l0,0l0,0h-0.1l0,0l0,0h-0.7c-0.1-0.1-0.2-0.2-0.2-0.4
									c0-0.4,0.2-0.8,0.6-1V8z"/>
								<path class="st30" d="M74.5,8c-0.1,0.1-0.2,0.2-0.3,0.3C74.3,8.2,74.4,8.1,74.5,8c0,0.1,0,0.1,0,0.2
									c-0.3,0.2-0.4,0.5-0.4,0.8c0,0.3,0.2,0.4,0.5,0.2C74.8,9,75,8.8,75,8.4c0-0.3-0.2-0.4-0.5-0.2C74.5,8.2,74.5,8.1,74.5,8
									L74.5,8l0.2,0C74.6,8,74.5,8,74.5,8C74.6,8,74.8,8,74.9,8l0,0l0,0l0,0l0,0l0,0l0,0v0.1l0,0l0,0c0,0,0,0,0,0.1l0,0
									c0,0,0,0,0,0.1v0.1v0.1l0,0v0.1v0.1l0,0v0.1l0,0v0.1v0.1l0,0l0,0l0,0v0l0,0h-0.1l0,0l0,0h-0.1l0,0l0,0h-0.7
									c-0.1-0.1-0.2-0.2-0.2-0.4c0-0.4,0.2-0.8,0.6-1V8z"/>
								<path class="st30" d="M74.5,8L74.5,8c-0.1,0.1-0.2,0.2-0.3,0.3C74.3,8.2,74.4,8.1,74.5,8c0.1,0,0.1,0.1,0.1,0.1
									c-0.3,0.2-0.4,0.5-0.4,0.8c0,0.3,0.2,0.4,0.5,0.2C74.8,9,75,8.7,75,8.4c0-0.3-0.2-0.4-0.5-0.2C74.5,8.2,74.5,8.1,74.5,8
									L74.5,8c0.1,0,0.2,0,0.3-0.1C74.6,8,74.5,8,74.5,8c0.1-0.1,0.3-0.1,0.4,0l0,0l0,0l0,0l0,0l0,0l0,0v0.1l0,0l0,0
									c0,0,0,0,0,0.1l0,0c0,0,0,0,0,0.1v0.1v0.1l0,0v0.1v0.1l0,0v0.1l0,0v0.1v0.1l0,0l0,0l0,0v0l0,0h-0.1l0,0l0,0h-0.1l0,0l0,0
									h-0.7c-0.1-0.1-0.2-0.2-0.2-0.4c0-0.4,0.2-0.8,0.6-1V8z"/>
								<path class="st30" d="M74.5,8c-0.2,0.1-0.3,0.2-0.4,0.4C74.2,8.3,74.3,8.2,74.5,8c0,0.1,0,0.1,0,0.2
									c-0.3,0.2-0.4,0.5-0.4,0.8c0,0.3,0.2,0.4,0.5,0.2C74.8,9,75,8.8,75,8.4c0-0.3-0.2-0.4-0.5-0.2C74.5,8.2,74.5,8.1,74.5,8
									L74.5,8c0.1,0,0.2,0,0.3,0C74.7,8,74.6,8,74.5,8C74.6,8,74.8,8,74.9,8l0,0l0,0l0,0l0,0l0,0l0,0v0.1l0,0l0,0c0,0,0,0,0,0.1
									l0,0c0,0,0,0,0,0.1v0.1v0.1l0,0v0.1v0.1l0,0v0.1l0,0v0.1v0.1l0,0l0,0l0,0v0l0,0h-0.1l0,0l0,0h-0.1l0,0l0,0h-0.7
									c-0.1-0.1-0.2-0.2-0.2-0.4c0-0.4,0.2-0.8,0.6-1V8z"/>
								<path class="st30" d="M74.5,8c-0.2,0.1-0.3,0.3-0.4,0.5C74.2,8.3,74.3,8.2,74.5,8c0,0.1,0,0.1,0,0.2
									c-0.3,0.2-0.4,0.5-0.4,0.8c0,0.3,0.2,0.4,0.5,0.2C74.8,9,75,8.8,75,8.4c0-0.3-0.2-0.4-0.5-0.2C74.5,8.2,74.5,8.1,74.5,8
									L74.5,8c0.1,0,0.2,0,0.3,0C74.7,8,74.6,8,74.5,8c0.1-0.1,0.3-0.1,0.4,0l0,0l0,0l0,0l0,0l0,0l0,0v0.1l0,0l0,0c0,0,0,0,0,0.1
									l0,0c0,0,0,0,0,0.1v0.1v0.1l0,0v0.1v0.1l0,0v0.1l0,0v0.1v0.1l0,0l0,0l0,0v0l0,0h-0.1l0,0l0,0h-0.1l0,0l0,0h-0.7
									c-0.1-0.1-0.2-0.2-0.2-0.4c0-0.4,0.2-0.8,0.6-1V8z"/>
								<path class="st30" d="M74.5,8c-0.2,0.1-0.4,0.3-0.4,0.5c0.1-0.1,0.1-0.2,0.2-0.3C74.3,8.2,74.4,8.1,74.5,8
									c0,0.1,0,0.1,0,0.2c-0.3,0.2-0.4,0.5-0.4,0.8c0,0.3,0.2,0.4,0.5,0.2C74.8,9,75,8.8,75,8.4c0-0.3-0.2-0.4-0.5-0.2
									C74.5,8.2,74.5,8.1,74.5,8l0.1,0.1C74.7,8,74.8,8,74.9,8C74.8,8,74.6,8,74.5,8C74.6,8,74.8,8,74.9,8l0,0l0,0l0,0l0,0l0,0
									l0,0v0.1l0,0l0,0c0,0,0,0,0,0.1l0,0c0,0,0,0,0,0.1v0.1v0.1l0,0v0.1v0.1l0,0v0.1l0,0v0.1v0.1l0,0l0,0l0,0v0l0,0h-0.1l0,0l0,0
									h-0.1l0,0l0,0h-0.7c-0.1-0.1-0.2-0.2-0.2-0.4c0-0.4,0.2-0.8,0.6-1V8z"/>
								<path class="st30" d="M74.5,8c-0.2,0.1-0.4,0.3-0.5,0.6c0.1-0.1,0.1-0.2,0.2-0.3c0.1-0.1,0.2-0.1,0.3-0.2c0,0,0,0.1,0,0.1
									c-0.3,0.2-0.4,0.5-0.4,0.8c0,0.3,0.2,0.4,0.5,0.2C74.8,9.1,75,8.8,75,8.4c0-0.3-0.2-0.4-0.5-0.2C74.5,8.2,74.5,8.1,74.5,8
									L74.5,8c0.2,0,0.3,0,0.4,0l0,0C74.8,8,74.7,7.9,74.5,8c0.1-0.1,0.2-0.1,0.4-0.1l0,0l0,0l0,0l0,0l0,0l0,0v0.2l0,0l0,0
									c0,0,0,0,0,0.1l0,0c0,0,0,0,0,0.1v0.1v0.1l0,0v0.1v0.1l0,0v0.1l0,0v0.1v0.1l0,0l0,0l0,0v0l0,0h-0.1l0,0l0,0h-0.1l0,0l0,0
									h-0.7c-0.1-0.1-0.2-0.2-0.2-0.4c0-0.4,0.2-0.8,0.6-1V8z"/>
								<path class="st30" d="M74.5,8c-0.2,0.1-0.4,0.4-0.5,0.6l0,0c0,0,0-0.1,0.1-0.1c0.1-0.2,0.3-0.3,0.5-0.4c0,0,0,0.1,0,0.1
									c-0.3,0.2-0.4,0.5-0.4,0.8c0,0.3,0.2,0.4,0.5,0.2C74.8,9.1,75,8.8,75,8.4c0-0.3-0.2-0.4-0.5-0.2C74.5,8.2,74.5,8.1,74.5,8
									L74.5,8c0.2,0,0.3,0,0.4,0h0.1C74.9,8,74.8,7.9,74.5,8C74.6,8,74.8,8,74.9,8l0,0l0,0l0,0l0,0l0,0l0,0v0.1l0,0l0,0
									c0,0,0,0,0,0.1l0,0c0,0,0,0,0,0.1v0.1v0.1l0,0v0.1v0.1l0,0v0.1l0,0v0.1v0.1l0,0l0,0l0,0v0l0,0h-0.1l0,0l0,0h-0.1l0,0l0,0
									h-0.7c-0.1-0.1-0.2-0.2-0.2-0.4c0-0.4,0.2-0.8,0.6-1V8z"/>
								<path class="st30" d="M74.5,8.2c-0.3,0.2-0.4,0.5-0.4,0.8c0,0.3,0.2,0.4,0.5,0.2C74.8,9,75,8.7,75,8.4
									C75,8.2,74.8,8.1,74.5,8.2C74.5,8.2,74.5,8.2,74.5,8.2L74.5,8.2c0.1-0.1,0.2-0.2,0.3-0.1c0,0,0.1,0,0.1,0S74.9,8,74.8,8
									c-0.1,0-0.2,0-0.3,0c0.1-0.1,0.2-0.1,0.3,0l0,0l0,0l0,0l0,0l0,0l0,0v0.2l0,0l0,0c0,0,0,0,0,0.1l0,0c0,0,0,0,0,0.1v0.1v0.1
									l0,0v0.1v0.1l0,0v0.1l0,0v0.1v0.1l0,0l0,0l0,0v0l0,0h-0.1l0,0l0,0h-0.1l0,0l0,0h-0.7c-0.1-0.1-0.2-0.2-0.2-0.4
									c0.1-0.1,0.2-0.2,0.4-0.2l0,0C74.1,8.3,74,8.5,74,8.7c0.3-0.5,0.3-0.5,0.5-0.6C74.5,8.1,74.5,8.2,74.5,8.2L74.5,8.2z"/>
								<path class="st30" d="M74.5,8.2c-0.3,0.2-0.4,0.5-0.4,0.8c0,0.3,0.2,0.4,0.5,0.2C74.8,9,75,8.7,75,8.4
									C75,8.2,74.8,8.1,74.5,8.2L74.5,8.2L74.5,8.2c0.1-0.1,0.3-0.1,0.4-0.1l0,0c0,0-0.1-0.1-0.2-0.1c0,0-0.1,0-0.2,0
									c0.1,0,0.2,0,0.3,0l0,0l0,0l0,0l0,0l0,0l0,0v0.1l0,0l0,0c0,0,0,0,0,0.1l0,0c0,0,0,0,0,0.1v0.1v0.1l0,0v0.1v0.1l0,0v0.1l0,0
									v0.1v0.1l0,0l0,0l0,0v0l0,0h-0.1l0,0l0,0h-0.1l0,0l0,0h-0.6c-0.1-0.1-0.2-0.2-0.2-0.4c0-0.3,0.1-0.6,0.3-0.8l0,0
									C74.1,7.7,74,7.9,74,8.1c0,0,0,0,0.1-0.1C74.2,8,74.4,8.1,74.5,8.2L74.5,8.2z"/>
								<path class="st30" d="M74.5,8.2c-0.3,0.2-0.4,0.5-0.4,0.8c0,0.3,0.2,0.4,0.5,0.2C74.8,9,75,8.7,75,8.4
									C75,8.2,74.8,8.1,74.5,8.2L74.5,8.2L74.5,8.2c0.2-0.1,0.3-0.1,0.5-0.1l0,0c0,0,0-0.2-0.2-0.2h-0.1c0.1,0,0.2,0,0.2,0l0,0
									l0,0l0,0l0,0l0,0l0,0v0.2l0,0l0,0c0,0,0,0,0,0.1l0,0c0,0,0,0,0,0.1v0.1v0.1l0,0v0.1v0.1l0,0v0.1l0,0v0.1v0.1l0,0l0,0l0,0v0
									l0,0h-0.1l0,0l0,0h-0.1l0,0l0,0h-0.7c-0.1-0.1-0.2-0.2-0.2-0.4c0-0.3,0.1-0.5,0.3-0.7l0,0c-0.4,0.3-0.5,0.8-0.2,1.1
									c0,0,0,0.1,0.1,0.1l0,0c0-0.1,0.1-0.1,0.1-0.2C74.2,8.5,74.4,8.3,74.5,8.2L74.5,8.2L74.5,8.2z"/>
								<path class="st30" d="M74.5,8.2c-0.3,0.2-0.4,0.5-0.4,0.8c0,0.3,0.2,0.4,0.5,0.2C74.8,9,75,8.7,75,8.4
									C75,8.2,74.8,8.1,74.5,8.2L74.5,8.2L74.5,8.2C74.7,8,74.9,8,75,8.2l0,0c0,0,0-0.2-0.2-0.2c0,0-0.1,0-0.1,0
									c0.1,0,0.1,0,0.2,0l0,0l0,0l0,0l0,0l0,0l0,0v0.2l0,0l0,0c0,0,0,0,0,0.1l0,0c0,0,0,0,0,0.1v0.1v0.1l0,0v0.1v0.1l0,0v0.1l0,0
									v0.1v0.1l0,0l0,0l0,0v0l0,0h-0.1l0,0l0,0h-0.1l0,0l0,0h-0.7c-0.1-0.1-0.2-0.2-0.2-0.4c0-0.2,0.1-0.5,0.2-0.7l0,0
									C74,8,73.9,8.2,74,8.2c0,0,0.1-0.1,0.1-0.2C74.2,8,74.4,8.1,74.5,8.2L74.5,8.2L74.5,8.2z"/>
								<path class="st30" d="M74.1,8.4C73.9,8.8,73.9,9,73.9,9l0,0c0,0,0.1,0,0.1,0.1s0.1,0.1,0.1,0.1c0.1,0,0.1,0,0.2,0
									c0.2-0.1,0.4-0.3,0.5-0.5C75,8.5,75,8.4,75,8.2C75,8.1,75,8,74.9,7.9c0,0-0.1,0-0.2,0c0,0,0.1,0,0.1,0l0,0l0,0l0,0l0,0l0,0
									l0,0v0.2l0,0l0,0c0,0,0,0,0,0.1l0,0c0,0,0,0,0,0.1v0.1v0.1l0,0v0.1v0.1l0,0v0.1l0,0v0.1v0.1l0,0l0,0l0,0v0l0,0h-0.1l0,0l0,0
									h-0.1l0,0l0,0h-0.7c-0.1-0.1-0.2-0.2-0.2-0.4c0-0.2,0.1-0.4,0.2-0.6l0,0L74.1,8.4z"/>
								<path class="st30" d="M74,8.5c-0.3,0.7,0.2,0.8,0.4,0.7c0.3-0.1,0.5-0.4,0.6-0.7C75.1,8.2,75,8,74.8,8c0,0,0,0-0.1,0
									c0,0,0.1,0,0.1,0l0,0l0,0l0,0l0,0l0,0l0,0v0.2l0,0l0,0c0,0,0,0,0,0.1l0,0c0,0,0,0,0,0.1v0.1v0.1l0,0v0.1v0.1l0,0v0.1l0,0
									v0.1v0.1l0,0l0,0l0,0v0l0,0h-0.1l0,0l0,0h-0.1l0,0l0,0h-0.7c-0.1-0.1-0.2-0.2-0.2-0.4c0-0.2,0.1-0.4,0.2-0.6l0,0l0,0L74,8.5
									z"/>
								<path class="st30" d="M74,8.5c-0.3,0.7,0.2,0.9,0.4,0.8C75,9.2,75.3,8.2,74.9,8l0,0h0.1l0,0l0,0l0,0l0,0l0,0l0,0v0.2l0,0
									l0,0c0,0,0,0,0,0.1l0,0c0,0,0,0,0,0.1v0.1v0.1l0,0v0.1v0.1l0,0v0.1l0,0v0.1v0.1l0,0l0,0l0,0v0l0,0h-0.1l0,0l0,0h-0.1l0,0
									l0,0h-0.7c-0.1-0.1-0.2-0.2-0.2-0.4C73.9,8.4,74,8.5,74,8.5L74,8.5L74,8.5z"/>
								<path class="st30" d="M74,8.7c-0.2,0.6,0.2,0.8,0.5,0.7C75,9.1,75.4,8.1,74.9,8l0,0l0,0l0,0l0,0l0,0l0,0l0,0v0.2l0,0l0,0
									c0,0,0,0,0,0.1l0,0c0,0,0,0,0,0.1v0.1v0.1l0,0v0.1v0.1l0,0v0.1l0,0v0.1v0.1l0,0l0,0l0,0v0l0,0h-0.1l0,0l0,0h-0.1l0,0l0,0
									L74,8.7c0,0-0.1-0.1-0.1-0.3C73.9,8.4,74,8.5,74,8.7L74,8.7L74,8.7L74,8.7z"/>
								<path class="st30" d="M74,8.7c-0.2,0.6,0.2,0.9,0.5,0.7C75.1,9,75.3,8.2,74.9,8l0,0l0,0l0,0l0,0l0,0l0,0v0.2l0,0l0,0
									c0,0,0,0,0,0.1l0,0c0,0,0,0,0,0.1v0.1v0.1l0,0v0.1v0.1l0,0v0.1l0,0v0.1v0.1l0,0l0,0l0,0v0l0,0h-0.1l0,0l0,0h-0.1l0,0l0,0
									L74,8.7c0,0-0.1-0.1-0.1-0.3C73.9,8.4,74,8.5,74,8.7L74,8.7L74,8.7z"/>
								<path class="st30" d="M73.9,8.8c-0.1,0.6,0.2,0.8,0.6,0.5c0.4-0.2,0.6-0.7,0.5-1.1l0,0l0,0l0,0c0,0,0,0,0,0.1l0,0
									c0,0,0,0,0,0.1v0.1v0.1l0,0v0.1v0.1l0,0v0.1l0,0v0.1v0.1l0,0l0,0l0,0v0.1l0,0H75l0,0l0,0H75l0,0l0,0h-0.9
									c-0.1-0.1-0.2-0.2-0.2-0.4C73.9,8.5,74,8.6,73.9,8.8L73.9,8.8L73.9,8.8L73.9,8.8z"/>
								<path class="st30" d="M73.9,8.8c-0.1,0.6,0.2,0.8,0.6,0.6c0.3-0.2,0.5-0.6,0.5-1c0,0,0,0.1,0,0.1c0,0,0,0,0,0.1v0.1v0.1l0,0
									v0.1v0.1l0,0v0.1l0,0v0.1v0l0,0l0,0l0,0v0.1l0,0H75l0,0l0,0H75l0,0l0,0h-0.9c-0.1-0.1-0.2-0.2-0.2-0.4c0-0.1,0-0.2,0-0.3
									l0,0L73.9,8.8z"/>
								<path class="st30" d="M73.9,8.9c-0.1,0.5,0.3,0.7,0.7,0.4c0.3-0.2,0.5-0.5,0.5-0.8v0.2v0.1v0.1l0,0v0.1l0,0v0.1v0.1l0,0l0,0
									l0,0V9l0,0H75l0,0l0,0H75l0,0l0,0h-0.9c-0.1-0.1-0.2-0.2-0.2-0.4c0-0.1,0-0.2,0-0.2v0.1L73.9,8.9z"/>
								<path class="st30" d="M73.9,8.9c-0.1,0.6,0.3,0.7,0.7,0.4c0.2-0.2,0.3-0.4,0.4-0.6c0,0,0,0.1,0,0.1l0,0v0.1l0,0v0.1v0.1l0,0
									l0,0l0,0v0l0,0H75l0,0l0,0h-0.1l0,0l0,0h-0.8c-0.1-0.1-0.2-0.2-0.2-0.4c0-0.1,0-0.1,0-0.2L73.9,8.9z"/>
								<path class="st30" d="M73.9,9c0,0.5,0.4,0.6,0.8,0.2c0.1-0.1,0.2-0.2,0.2-0.3l0,0V9l0,0l0,0l0,0V9l0,0h-0.1l0,0l0,0h-0.1
									l0,0l0,0h-0.7c-0.1-0.1-0.2-0.2-0.2-0.4V9z"/>
							</g>
						</g>
					</g>
				</g>
				<path class="st30" d="M74.5,8.2c0.2-0.1,0.5,0,0.5,0.2c0,0.3-0.2,0.6-0.4,0.8c-0.2,0.1-0.5,0-0.5-0.2
					C74.1,8.7,74.3,8.4,74.5,8.2z"/>
				<path class="st32" d="M74.5,8.1c0.3-0.2,0.6-0.1,0.6,0.3c0,0.4-0.2,0.8-0.6,1C74.3,9.5,74,9.4,74,9.1C74,8.7,74.2,8.3,74.5,8.1z
					 M74.6,9.5c0.4-0.3,0.7-0.7,0.7-1.2c0-0.4-0.4-0.6-0.8-0.4c-0.4,0.3-0.7,0.8-0.7,1.3C73.8,9.6,74.2,9.8,74.6,9.5L74.6,9.5z"/>
				<path class="st10" d="M67.4,27.7c0,0,2.6,1.9,5,1.5c1.7-0.2,3.2-1.3,3.9-2.9c0.1,0.4,0.2,0.9,0.2,1.3c-1.1,1.6-2.9,2.5-4.9,2.5
					c-1.8,0-3.5-0.7-4.9-1.8c0,0,0.2-0.3,0.3-0.4S67.4,27.7,67.4,27.7z"/>
				<polygon class="st33" points="75.5,26.7 70.2,37.5 76.8,35.7 82.2,25 				"/>
				<path class="st14" d="M65.2,15.7c0,0-1.9-0.2-2.5,8.4c0,0-0.2,3.7,1.5,5.4c1.5,1.2,3,2.4,4.6,3.5l1.2-1.5c0,0-3.5-4.4-4.2-5.4
					c0,0,2.4-6.8,1.7-8.8S66,15.7,65.2,15.7z"/>
				<path class="st15" d="M62.8,24.1c0,0-0.2,3.7,1.5,5.4c1.5,1.2,3,2.4,4.6,3.5l0.1-0.2c-0.8-0.8-4.4-4.1-5.3-6.2s1-9.2,1.5-11
					C64.7,15.9,63.3,16.8,62.8,24.1z"/>
				<path class="st18" d="M65,15.5c0,0-2,1.8-2.1,7c0,0,2.3,2,4.2,0.4c0,0,2.4-5.1,0.4-7.3C67.5,15.5,66.6,14.4,65,15.5z"/>
				<path class="st20" d="M67.1,22.9c0,0,2-4.4,0.8-6.8c-0.1,1.4-0.7,5.5-2.9,7.4C65.8,23.6,66.5,23.4,67.1,22.9z"/>
				<path class="st34" d="M68.4,32.2c1.3,0.8,2,2.7,2.3,2.9c0.8,0.3,1.7,0.2,2.4-0.3c0.3-0.2,0.4-0.5,0.5-0.8l-1,0.1l0,0
					c-0.4,0.1-0.7-0.6-0.9-0.8s-0.2-0.5,0.1-0.4c0.3,0.1,0.6,0.4,0.8,0.4s0.4-0.4-0.1-0.8c-0.7-0.5-0.7-0.8-1.8-0.8
					c-0.4,0-0.6,0.1-1.3-0.6L68.4,32.2z"/>
				<path class="st22" d="M68.2,32.5c0.9,0.8,1.8,1.7,2.4,2.7c0.7,0.3,1.5,0.2,2.2-0.1c-0.4,0-1.2,0.3-1.9-0.6
					C70,33.7,69.2,33,68.2,32.5c0.4-0.3,1.2-1.4,1.2-1.4l0,0L68.2,32.5z"/>
			</g>
		</g>
		<path class="st35" d="M53.5,58.2l-44,51.9c18.7,11,60.1,20.1,116.1,20c55.3-0.1,96.3-9,115-19.9c0,0-28.1-38-44.9-53.3
			c0,0-45-6.1-70.7-5.9C98.9,51.2,53.5,58.2,53.5,58.2z"/>
		<rect x="61.9" y="65.2" class="st36" width="1.5" height="6.1"/>
		<rect x="64.9" y="65.2" class="st36" width="1.5" height="6.1"/>
		<rect x="67.8" y="65.2" class="st36" width="1.5" height="6.1"/>
		<rect x="70.7" y="65.2" class="st36" width="1.5" height="6.1"/>
		<rect x="73.6" y="65.2" class="st36" width="1.5" height="6.1"/>
		<rect x="76.5" y="65.2" class="st36" width="1.5" height="6.1"/>
		<rect x="79.4" y="65.2" class="st36" width="1.5" height="6.1"/>
		<circle class="st37" cx="123.8" cy="129.2" r="2.3"/>
		<circle class="st38" cx="123.8" cy="129.2" r="1.4"/>
		<rect x="123.5" y="125.8" class="st38" width="0.5" height="6.6"/>
		<rect x="120.5" y="128.9" class="st38" width="6.6" height="0.5"/>
		<rect x="143.3" y="128.9" class="st38" width="6.6" height="0.5"/>
		<rect x="98.6" y="128.9" class="st38" width="6.6" height="0.5"/>
		<rect x="143.3" y="128.8" class="st37" width="0.2" height="0.6"/>
		<path class="st37" d="M149.1,129.4h-0.5v-0.6h0.5V129.4z M148.2,129.4h-0.5v-0.6h0.5V129.4z M147.3,129.4h-0.5v-0.6h0.5V129.4z
			 M146.3,129.4h-0.5v-0.6h0.5V129.4z M145.4,129.4h-0.5v-0.6h0.5V129.4z M144.5,129.4H144v-0.6h0.5L144.5,129.4z"/>
		<rect x="149.6" y="128.8" class="st37" width="0.2" height="0.6"/>
		<rect x="104.9" y="128.8" class="st37" width="0.2" height="0.6"/>
		<path class="st37" d="M99.3,129.4h0.5v-0.6h-0.5V129.4z M100.2,129.4h0.5v-0.6h-0.5V129.4z M101.1,129.4h0.5v-0.6h-0.5V129.4z
			 M102.1,129.4h0.5v-0.6h-0.5V129.4z M103,129.4h0.5v-0.6H103V129.4z M103.9,129.4h0.5v-0.6h-0.5V129.4z"/>
		<rect x="98.6" y="128.8" class="st37" width="0.2" height="0.6"/>
	</g>
</g>
</svg>
