<?xml version="1.0" encoding="utf-8"?>
<!-- Generator: Adobe Illustrator 26.0.1, SVG Export Plug-In . SVG Version: 6.00 Build 0)  -->
<svg version="1.1" id="Layer_1" xmlns="http://www.w3.org/2000/svg" xmlns:xlink="http://www.w3.org/1999/xlink" x="0px" y="0px"
	 viewBox="0 0 150 85" style="enable-background:new 0 0 150 85;" xml:space="preserve">
<style type="text/css">
	.st0{clip-path:url(#SVGID_00000183944574995278887660000004530993730556688552_);}
	.st1{fill:#BCCFE1;}
	.st2{fill:#9B7968;stroke:#231F20;stroke-width:0.5;stroke-linecap:round;stroke-linejoin:round;}
	.st3{fill:none;}
	.st4{fill:#F2AB43;stroke:#211E1E;stroke-width:0.5;stroke-miterlimit:10;}
	.st5{opacity:0.8;fill:#2FA0D2;enable-background:new    ;}
	.st6{fill:#DE2726;}
	.st7{fill:#C2E6FA;}
	.st8{fill:#00A1E9;}
	.st9{opacity:0.2;}
	.st10{fill:#5C5D5D;}
	.st11{fill:#F5A714;}
	.st12{fill:#F49D02;}
	.st13{fill:#F8B300;}
	.st14{fill:#502B25;}
	.st15{fill:#42200E;}
	.st16{fill:#37170A;}
	.st17{fill:#512412;}
	.st18{fill:#F5AE86;}
	.st19{fill:#F3A173;}
	.st20{fill:#E62921;}
	.st21{fill:#E8392E;}
	.st22{fill:#00344D;}
	.st23{fill:#002A3D;}
	.st24{fill:#00405A;}
	.st25{fill:#E79366;}
	.st26{fill-rule:evenodd;clip-rule:evenodd;fill:#F3A173;}
	.st27{fill:#441E0D;}
	.st28{fill:#562914;}
	.st29{fill:#391908;}
	.st30{fill:#331306;}
	.st31{fill:#542312;}
	.st32{fill:#EB6134;}
	.st33{fill:#E9432E;}
	.st34{fill:#FFFFFF;}
	.st35{clip-path:url(#SVGID_00000101782063333880230890000014902330066538515584_);}
	.st36{fill:#5D342C;}
	.st37{fill:#08151A;}
	.st38{fill-rule:evenodd;clip-rule:evenodd;fill:#F5AE86;}
	.st39{enable-background:new    ;}
</style>
<g id="Layer_2_00000179606428095856953310000004814340408223014587_">
	<g id="Layer_5">
		<g>
			<g>
				<defs>
					<rect id="SVGID_1_" y="0.5" width="150" height="84"/>
				</defs>
				<clipPath id="SVGID_00000128455659193145223190000003584535555779403651_">
					<use xlink:href="#SVGID_1_"  style="overflow:visible;"/>
				</clipPath>
				<g style="clip-path:url(#SVGID_00000128455659193145223190000003584535555779403651_);">
					<rect x="-1.4" y="-3.3" class="st1" width="152.7" height="90.7"/>
					<path class="st2" d="M150.9,42.2v44H-0.9v-44c12.6-9.2,42-21.4,76.2-21.4C102,20.9,128.1,28.3,150.9,42.2z"/>
					<rect y="0.5" class="st3" width="150" height="84"/>
					<path class="st4" d="M171.5,103.1h-193V66.5c0,0,62.2,11.5,97.9,11.6s95-11.6,95-11.6v36.6H171.5z"/>
				</g>
			</g>
		</g>
		<path class="st5" d="M35,37L10.4,66C20.9,72.1,44,77.2,75.3,77.2c31-0.1,53.9-5,64.3-11.2c0,0-15.7-21.2-25.1-29.8
			c0,0-25.2-3.4-39.6-3.3S35,37,35,37z"/>
		<rect x="36.6" y="39.6" class="st6" width="0.9" height="3.7"/>
		<rect x="38.3" y="39.6" class="st6" width="0.9" height="3.7"/>
		<rect x="40.1" y="39.6" class="st6" width="0.9" height="3.7"/>
		<rect x="41.9" y="39.6" class="st6" width="0.9" height="3.7"/>
		<rect x="43.6" y="39.6" class="st6" width="0.9" height="3.7"/>
		<rect x="45.4" y="39.6" class="st6" width="0.9" height="3.7"/>
		<rect x="47.2" y="39.6" class="st6" width="0.9" height="3.7"/>
		<circle class="st7" cx="74.3" cy="78.6" r="1.4"/>
		<circle class="st8" cx="74.3" cy="78.6" r="0.8"/>
		<rect x="74.1" y="76.5" class="st8" width="0.3" height="4"/>
		<rect x="72.3" y="78.4" class="st8" width="4" height="0.3"/>
		<rect x="86.2" y="78.4" class="st8" width="4" height="0.3"/>
		<rect x="58.9" y="78.4" class="st8" width="4" height="0.3"/>
		<rect x="86.2" y="78.4" class="st7" width="0.1" height="0.4"/>
		<path class="st7" d="M89.7,78.7h-0.3v-0.4h0.3V78.7z M89.2,78.7h-0.3v-0.4h0.3V78.7z M88.6,78.7h-0.3v-0.4h0.3V78.7z M88,78.7
			h-0.3v-0.4H88V78.7z M87.4,78.7h-0.3v-0.4h0.3V78.7z M86.9,78.7h-0.3v-0.4h0.3V78.7z"/>
		<rect x="90" y="78.4" class="st7" width="0.1" height="0.4"/>
		<rect x="62.7" y="78.4" class="st7" width="0.1" height="0.4"/>
		<path class="st7" d="M59.3,78.7h0.3v-0.4h-0.3V78.7z M59.9,78.7h0.2v-0.4h-0.3L59.9,78.7z M60.5,78.7h0.3v-0.4h-0.3V78.7z
			 M61,78.7h0.3v-0.4H61V78.7z M61.6,78.7h0.3v-0.4h-0.3V78.7z M62.2,78.7h0.3v-0.4h-0.3V78.7z"/>
		<rect x="58.9" y="78.4" class="st7" width="0.1" height="0.4"/>
		<g class="st9">
			<path class="st10" d="M47.6,33c4.2,1.3,4.2,3.6,0,4.9c-4.9,1.4-10.1,1.4-15.1,0c-4.2-1.4-4.2-3.6,0-4.9
				C37.4,31.7,42.6,31.7,47.6,33z"/>
		</g>
		<path class="st11" d="M45.4,16.3c0.6,2.5,0.4,5.2-0.5,7.6c-0.5,1.5-0.8,3-0.9,4.6c0,0.5-0.5,3.6-0.5,3.6c-0.6,0.3-1.3,0.3-1.9,0
			c-0.3-1.7-0.3-3.4,0-5.1c0.2-1.2,0.2-2.3,0-3.5c0-1.6,0.2-3.1,0.6-4.7C43.1,18,44.2,17.1,45.4,16.3z"/>
		<path class="st12" d="M41.6,23.5c0.2,1.2,0.2,2.3,0,3.5c-0.3,1.7-0.3,3.4,0,5.1c0.3,0.2,0.5,0.3,0.9,0.3c-0.1-0.6-0.1-1.4-0.1-1.8
			c-0.2-1.8-0.1-3.5,0.5-5.2c0.5-1.9,0.8-3.9,0.7-5.9L42.1,19C41.7,20.5,41.5,22,41.6,23.5z"/>
		<path class="st11" d="M40,16.8c1,0.7,2.2,0.9,3.3,0.5c0.3,2.1-0.1,4.2-1.1,6.1c0,0-0.9,2.2-1.3,3.2s-0.7,2-1.1,3.2
			c-0.4,1.2-1.7,4-1.7,5.2c0,0,0,0.9-1.3,0c0,0-0.1-6.4,1.4-8.5c0,0,0.2-4.9,0.6-6.6C38.9,18.8,39.3,17.7,40,16.8z"/>
		<path class="st11" d="M40,16.8c1,0.7,2.2,0.9,3.3,0.5c0.3,2.1-0.1,4.2-1.1,6.1c0,0-0.9,2.2-1.3,3.2s-0.7,2-1,3.2
			c-0.4,1.2-1.7,4-1.7,5.2c0,0,0,0.9-1.3,0c0,0-0.1-6.4,1.4-8.5c0,0,0.2-4.9,0.6-6.6C39,18.8,39.4,17.8,40,16.8z"/>
		<path class="st12" d="M40,16.8c-0.7,0.9-1.1,1.9-1.3,3c-0.3,1.7-0.6,6.6-0.6,6.6c-1.5,2.1-1.4,8.5-1.4,8.5
			c0.3,0.2,0.2,0.1,0.4,0.2c0.1-2.9,0.7-5.8,1.8-8.6c0.5-2,0.6-4.1,0.3-6.2c0-1.5,1-1.5,1-1.5c1.2,0,2.3-0.5,3.2-1.2
			c0-0.1,0-0.1,0-0.2l-0.4,0C42,17.7,40.8,17.5,40,16.8z"/>
		<path class="st13" d="M43.3,17.8c-0.6,0.8-1.4,1.4-2.4,1.6c-1.5,0.4-1.3,1.5-1,3.4s-1,5.7-1.9,8.5c-0.5,1.2-0.6,2.6-0.3,3.9
			c0.2,0,0.3-0.1,0.5-0.2c0-1.1,0.2-2.2,0.5-3.2c0.3-1.3,2.4-6.1,2.6-7.1c0.3-1.3,0.6-2.7,1-4c0.3-0.7,0.3-1.6,1.2-1.8
			C43.4,18.8,43.3,17.9,43.3,17.8z"/>
		<path class="st13" d="M43.4,32.1c0-1.2,0.2-2.9,0.2-3.7c0.1-2,0.5-4,1.2-5.9c0.6-1.9,0.7-3.9,0.3-5.9c-0.4,0.6-1,1-1.7,1.1V19
			c1.3-0.1-0.2,7.3-0.7,8.7c-0.2,1.5-0.1,3.1,0.2,4.6C43,32.3,43.2,32.2,43.4,32.1L43.4,32.1z"/>
		<path class="st14" d="M40,16.8c0.9,0.6,1.9,1,3,0.9c1-0.1,1.9-0.8,2.3-1.7c0.1,0.3,0.1,0.5,0.1,0.8c-0.7,0.9-1.8,1.5-2.9,1.5
			c-1.1,0-2.1-0.4-2.9-1.1l0.2-0.2L40,16.8z"/>
		<path class="st15" d="M36.6,31.1c-0.4-0.2,0.1,3.2-0.3,4.2c-0.1,0.2-0.1,0.5,0,0.7c0.2,0.5,1,0.7,1.4,1.6c0.4,0.8,2.1,1.1,2.2,0.3
			c0-0.2-0.3-0.6-0.7-1.1c-0.7-0.7-1.5-1.6,0.2-5.2C39.7,31.1,38,31.9,36.6,31.1z"/>
		<path class="st15" d="M41.2,28.8c-0.4-0.1,0.5,2.3,0.1,3.5c-0.3,1.2-0.2,1.3,0.4,1.7c0.3,0.1,0.7,0.1,1.1,0c0,0,0.4-0.1,1,0.5
			c0,0,1.6,1,2.1,0.1c0,0,0.2-0.5-0.7-0.9c-0.7-0.3-1.3-0.9-1.5-1.7c-0.2-1.1,0.6-3.3,0.4-3.4C43.9,28.4,43.6,29.5,41.2,28.8z"/>
		<path class="st16" d="M36.3,36.1c0.2,0.5,1,0.7,1.4,1.6c0.4,0.8,1.9,1.1,2.2,0.4c-0.7,0.4-1.6,0.1-2-0.6c0-0.1-0.1-0.1-0.1-0.2
			c-0.2-0.4-0.4-0.7-0.7-0.9c-0.4-0.2-0.7-0.5-0.8-0.9C36.3,35.7,36.3,35.9,36.3,36.1z"/>
		<path class="st17" d="M39.2,36.8c-0.7-0.7-1.5-1.6,0.2-5.2c0.2-0.5-1.1,0.2-2.2-0.2c0,1.2-0.1,2.3-0.4,3.4c-0.2,1,0.5,1.1,0.8,1.4
			c0.3,0.3,0.4,0.7,1.1,1.5c0.7,0.7,1,0.3,1.2,0.2C39.8,37.5,39.5,37.1,39.2,36.8z"/>
		<path class="st16" d="M41.7,33.9c0.3,0.1,0.7,0.1,1.1,0c0,0,0.4-0.1,1,0.5c0,0,1.6,1,2,0.2c-0.6,0.1-1.3,0-1.8-0.4
			c-0.4-0.4-0.5-0.6-1.6-0.6c-0.5,0-0.9-0.2-1.2-0.6C41.2,33.5,41.3,33.7,41.7,33.9z"/>
		<path class="st17" d="M45.1,33.7c-0.7-0.3-1.3-0.9-1.5-1.7c-0.2-1.1,0.6-3.3,0.4-3.4c-0.2-0.2-0.3,0.4-1.4,0.4
			c0.2,0.8,0.2,1.6,0,2.4c-0.3,1.2-0.4,1.5,0.3,1.8c0.6,0.1,1.1,0.4,1.6,0.9c0.3,0.4,0.9,0.5,1.3,0.4C45.8,34.2,45.7,34,45.1,33.7z"
			/>
		<path class="st18" d="M45.4,8.1c0,0,1.1,0.3,0.4,3.5c0,0,0,2.7,0,3.6l0.3,2.5c0,0-0.2,0.3-0.9,0.1c-0.6-1-1-2.1-1.2-3.2
			c0-1.1-0.4-6.3,0.6-6.6C44.8,7.9,45.2,8,45.4,8.1z"/>
		<path class="st19" d="M45.2,17.9l0.4,0.1c-0.4-0.8-0.7-1.7-1-2.6c-0.2-1.3,0-2.6,0.6-3.7L44,11.2c0,1.5,0.1,2.9,0.1,3.4
			C44.3,15.8,44.7,16.9,45.2,17.9z"/>
		<path class="st20" d="M45.1,17.9c0.1,0.4,0.1,0.9,0.1,1.3c-0.1,0.4,0.1,0.7,0.4,0.9c0.2,0.1,0.9,0.4,1-0.4s0-1,0-1l-0.7-1
			L45.1,17.9z"/>
		<path class="st21" d="M45,17.6c0,0,0.5,0.4,1-0.4c0,0,0.4-0.1,0.4,1c0,0.2,0,0.2,0.2,0.6c0.1,0.2,0.2,0.7,0,0.7c0,0-0.2,0-0.4-0.6
			c-0.1-0.3-0.3-0.5-0.6-0.5C45.3,18.2,45.1,17.9,45,17.6z"/>
		<path class="st22" d="M43.8,6.9c0,0-0.7,1.3,0.4,4.1c0,0,1.6,0.7,2.3-0.5c0,0,0.2-3.2-1.3-4.1C44.6,6.3,44,6.5,43.8,6.9z"/>
		<path class="st22" d="M40.2,8c-1.1,0.6-3.4,1.7-2,3.9c0,0,1.1,1.6,1.7,2.3c0.6,0.7,0.7,1.6,0.3,2.4c0,0,2.3,2.8,5.1-0.5
			c-0.1-1.2-0.1-2.4,0-3.5c0.2-1.2,1.2-5.2-1.2-6.1C43.2,6.2,42.4,6.8,40.2,8z"/>
		<path class="st23" d="M38.2,12c0.3,0.8,0.7,1.5,1.2,2.2c0.7,0.7,0.8,1.7,0.4,2.6c0.8,0.7,1.7,1.1,2.8,1.1
			c-1.1-1.3-1.6-3.1-1.4-4.8c0.2-2,0-3.3-0.8-4.1c-0.3-0.3-0.7-0.4-1.1-0.4c-1.2,0.4-1.9,1.7-1.4,2.9C38,11.6,38.1,11.8,38.2,12z"/>
		<path class="st24" d="M45.3,16.2c-0.1-1.2-0.1-2.4,0-3.5c0.2-1.2,1.2-5.2-1.2-6.1c-0.6-0.2-1,0.1-1.8,0.3c0.9,0.2,2.9,1.7,2.3,5
			c-0.5,1.9-0.8,3.8-1,5.7C44.3,17.3,44.8,16.8,45.3,16.2z"/>
		<path class="st19" d="M43.6,8c-0.4,0.3-0.6,0.8-0.5,1.2c0.1,0.6-1.3,0.6-2.1-1.5c0,0,0.6-0.4,0.2-2.2L43.6,8z"/>
		<path class="st25" d="M43.2,8.3C42.6,8,41.8,7.8,41,7.7c0,0,0.4-0.3,0.2-1.3c-0.5-0.7-0.6-1.5-0.4-2.3c0.2-0.7,0.9-1.2,1.6-1.2
			C41.2,4.6,41.5,7,43.2,8.3L43.2,8.3z"/>
		<path class="st18" d="M44.8,5.1c0,0.2-0.3,0.2,0,1c0.1,0.5,0,0.5-0.2,1.3C44.4,8,44,9,42.6,8c-0.7-0.7-1.3-1.4-1.7-2.3
			s-0.1-2,0.7-2.6C41.6,3.1,45.1,2.2,44.8,5.1z"/>
		<path class="st26" d="M44.8,4.7c-0.4,0.3-0.9,0.4-1.4,0.5c0,0-0.7-0.1-0.7,0.2c0,0.4,0.1,0.7,0.2,1.1c0.2,0.3,0.3,0.7,0.4,1.1
			c0,0.1,0.1,0.8,0.5,0.8c0,0-1,0.2-2.1-1.5c-0.4-0.4-0.7-0.9-1-1.4c0-0.2,1.5-0.8,1.9-0.9l2.1-0.5C44.7,4.1,44.8,4.6,44.8,4.7z"/>
		<path class="st27" d="M44.8,4.1c0,0.5-1.3,0.7-2.1,0.8c-0.3,0-0.5,0.2-0.4,1.1S42,6.9,42,6.8c-0.1-0.7-0.7-1.3-0.7-0.2
			c0,0-1.5-1.8-0.8-2.9C41,2.9,42.1,2.2,44,3C44.4,3.2,44.8,3.6,44.8,4.1z"/>
		<path class="st27" d="M42.3,6C42.5,6.9,42,6.9,42,6.9c0-0.8-0.8-1.2-0.7-0.3c0,0-1.5-1.8-0.8-2.9c0.2-0.4,0.6-0.7,1-0.9
			c-1.2,1.7,0.5,1.8,1,2.2C42.3,5,42.2,5.3,42.3,6z"/>
		<path class="st28" d="M42.3,5.5c0,0-0.3-0.4-0.4,0c-0.2-0.1-0.3-0.4-0.2-0.6c0,0-0.3,0-0.3,0.4c-0.2-0.2-0.2-0.4-0.2-0.6
			c-0.2,0.2-0.3,0.4-0.4,0.6c0,0-0.3-0.6-0.2-0.9c0,0-0.1,0-0.2,0.4c-0.2-0.5-0.1-1.1,0.3-1.5c0,0-0.1,1,1.8,1.5
			C42.4,5.1,42.3,5.3,42.3,5.5z"/>
		<path class="st29" d="M41.5,6c0,0-0.7-0.1-0.9-0.5c0.2,0.4,0.4,0.7,0.7,1.1C41.3,6.6,41.2,6,41.5,6z"/>
		<path class="st30" d="M40.7,3.4c0,0-0.1,1,1.8,1.5c0,0,1.6,0.2,2.2-0.6c0.1-0.2,0.1-0.4,0-0.5c0,0,0,0.4-0.3,0.5
			c0,0,0.1-0.2,0-0.4c-0.1,0.2-0.3,0.4-0.6,0.5c0.1-0.1,0.1-0.2,0-0.4c-0.2,0.3-0.5,0.6-0.9,0.6c0.1-0.1,0.2-0.2,0.2-0.4
			c0,0-0.6,0.4-1,0.2c0,0,0.4-0.1,0.4-0.3c0-0.2-0.7,0.2-1.1-0.2c0.2,0,0.3,0,0.4-0.1C41.9,3.9,40.9,3.9,40.7,3.4z"/>
		<path class="st31" d="M41,3c1-0.7,2.3-0.6,3.3,0.1c0,0-0.8-0.2-1.1-0.3s0.2,0.2,0.5,0.3C43.3,3,42.9,3,42.6,2.9
			c-0.4,0-1,0-0.6,0.1C42.4,3.2,41.1,3,41,3z"/>
		<path class="st20" d="M40.5,5.2c1.4,0.8,3,1.1,4.6,0.8c0,0,1.3-0.3-0.3-1.5L40.5,5.2z"/>
		<path class="st21" d="M44.7,4.5l-3,0.4c0.9,0.9,2.1,1.3,3.4,1.1C45.9,5.6,45.6,5.1,44.7,4.5z"/>
		<path class="st32" d="M40.3,4.3c0-1.2,1-2.1,2.2-2.1l0,0c1.3,0,2.4,1.1,2.4,2.4c0,0,0,0,0,0.1c-1.3,1-3.1,1.2-4.5,0.4
			C40.3,4.9,40.3,4.6,40.3,4.3z"/>
		<path class="st33" d="M40.3,4.3c0,0.3,0,0.5,0.2,0.7c1,0.6,2.2,0.8,3.3,0.3l0.1-0.1c0-1.4-1-2.7-2.5-2.8
			C40.7,2.9,40.3,3.6,40.3,4.3z"/>
		<path class="st14" d="M40.5,5.2c1.4,0.8,3.2,0.6,4.4-0.5V4.5c-1.3,1-3,1.2-4.5,0.5L40.5,5.2z"/>
		<path class="st14" d="M44.7,4.9L44.7,4.9L44.7,4.9c0-0.1,0-0.1,0-0.2l0,0l0,0h-0.1l-0.2-0.1H44l0,0l0,0l0,0l0,0l0,0l0,0l0,0l0,0
			l0,0l0,0v0.3l0,0l0,0l0,0V5l0,0v0.4l0,0l0,0l0,0l0.2,0.1h0.3l0,0l0,0C44.8,5.3,45,5,45,4.7L44.7,4.9z M44.3,4.9L44.3,4.9L44.3,4.9
			L44.3,4.9L44.3,4.9L44.3,4.9v0.2l0,0l0,0l0,0l0,0l0,0l0,0h-0.1h-0.1V5l0,0l0,0c0,0,0,0,0-0.1l0,0l0,0l0,0c-0.1,0-0.1,0-0.2,0l0,0
			l0,0l0,0H44l0,0l0,0l0,0l0,0l0,0l0,0H44.3z M44.3,4.7L44.3,4.7z"/>
		<path class="st14" d="M44.2,4.4L44.2,4.4L44.2,4.4z"/>
		<g>
			<path class="st34" d="M44.4,4.7C44.5,4.7,44.5,4.7,44.4,4.7C44.5,4.7,44.5,4.8,44.4,4.7c0.1,0.2,0.1,0.3,0.1,0.4
				c-0.1,0.2-0.2,0.3-0.4,0.4H44c-0.1,0-0.1-0.1-0.1-0.2c0-0.2,0.1-0.5,0.3-0.6v0.1C44,4.9,44,5.1,44,5.3s0.1,0.2,0.3,0.1
				s0.3-0.3,0.3-0.5s-0.1-0.2-0.3-0.1V4.7C44.3,4.6,44.4,4.6,44.4,4.7z"/>
			<g>
				<g>
					<defs>
						<path id="SVGID_00000082367363730056342150000011268215736401254070_" d="M44.4,4.7C44.5,4.7,44.5,4.7,44.4,4.7
							C44.5,4.7,44.5,4.8,44.4,4.7c0.1,0.2,0.1,0.3,0.1,0.4c-0.1,0.2-0.2,0.3-0.4,0.4H44c-0.1,0-0.1-0.1-0.1-0.2
							c0-0.2,0.1-0.5,0.3-0.6v0.1C44,4.9,44,5.1,44,5.3s0.1,0.2,0.3,0.1s0.3-0.3,0.3-0.5s-0.1-0.2-0.3-0.1V4.7
							C44.3,4.6,44.4,4.6,44.4,4.7z"/>
					</defs>
					<clipPath id="SVGID_00000087387268391123920810000004491203637440651906_">
						<use xlink:href="#SVGID_00000082367363730056342150000011268215736401254070_"  style="overflow:visible;"/>
					</clipPath>
					<g style="clip-path:url(#SVGID_00000087387268391123920810000004491203637440651906_);">
						<g>
							<path class="st34" d="M44.4,4.7c0.3,0.2,0,0.8-0.3,0.9c-0.1,0-0.2,0-0.3-0.1V5.4c0-0.2,0.1-0.5,0.3-0.6v0.1
								c-0.2,0.1-0.2,0.3-0.2,0.5s0.1,0.2,0.3,0.1s0.3-0.3,0.3-0.5s-0.1-0.2-0.3-0.1V4.8C44.3,4.6,44.4,4.6,44.4,4.7L44.4,4.7z"/>
							<path class="st34" d="M44.2,4.7L44.2,4.7C44.2,4.7,44.2,4.7,44.2,4.7C44,4.9,44,5.1,44,5.3s0.1,0.2,0.3,0.1s0.3-0.3,0.3-0.5
								C44.5,4.8,44.4,4.7,44.2,4.7C44,4.9,44.2,4.7,44.2,4.7L44.2,4.7c0.1-0.1,0.2-0.1,0.3,0h0.1l0,0l0,0v0.4l0,0l0,0l0,0l0,0l0,0
								l0,0l0,0l0,0l0,0l0,0l0,0l0,0H44c-0.1,0-0.1-0.1-0.1-0.2c0-0.2,0.1-0.5,0.3-0.6V4.7z"/>
							<path class="st34" d="M44.2,4.7L44.2,4.7L44.2,4.7L44.2,4.7C44.2,4.7,44.2,4.7,44.2,4.7C44,4.9,44,5.1,44,5.3
								s0.1,0.2,0.3,0.1s0.3-0.3,0.3-0.5C44.5,4.8,44.4,4.7,44.2,4.7C44,4.9,44.2,4.7,44.2,4.7L44.2,4.7L44.2,4.7
								c0.1-0.1,0.2-0.1,0.3,0h0.1l0,0l0,0v0.4l0,0l0,0l0,0l0,0l0,0l0,0l0,0l0,0l0,0l0,0l0,0l0,0H44c-0.1,0-0.1-0.1-0.1-0.2
								c0-0.2,0.1-0.5,0.3-0.6V4.7z"/>
							<path class="st34" d="M44.2,4.7L44.2,4.7L44.2,4.7L44.2,4.7C44.2,4.7,44.2,4.8,44.2,4.7C44.1,4.9,44,5.1,44,5.3
								c0,0.2,0.1,0.2,0.3,0.1s0.3-0.3,0.2-0.5C44.5,4.8,44.4,4.7,44.2,4.7C44.2,4.8,44.2,4.7,44.2,4.7L44.2,4.7L44.2,4.7L44.2,4.7
								c0-0.1,0.1-0.1,0.2,0h0.1l0,0l0,0v0.4l0,0l0,0l0,0l0,0l0,0l0,0l0,0l0,0l0,0l0,0l0,0l0,0H44c-0.1,0-0.1-0.1-0.1-0.2
								c0-0.2,0.1-0.5,0.3-0.6V4.7z"/>
							<path class="st34" d="M44.2,4.7c-0.1,0-0.2,0.1-0.2,0.2C44,4.9,44.1,4.8,44.2,4.7C44.2,4.8,44.2,4.8,44.2,4.7
								C44,5,43.9,5.1,43.9,5.3c0,0.2,0.1,0.2,0.3,0.1s0.3-0.3,0.3-0.5C44.5,4.8,44.4,4.7,44.2,4.7C44.2,4.8,44.2,4.7,44.2,4.7
								L44.2,4.7L44.2,4.7C44.3,4.7,44.3,4.7,44.2,4.7c0.1-0.1,0.2-0.1,0.2,0h0.1l0,0l0,0v0.4l0,0l0,0l0,0l0,0l0,0l0,0l0,0l0,0l0,0
								l0,0l0,0l0,0H44c-0.1,0-0.1-0.1-0.1-0.2c0-0.2,0.1-0.5,0.3-0.6V4.7z"/>
							<path class="st34" d="M44.2,4.7L44.2,4.7c-0.1,0-0.2,0.1-0.2,0.2C44,4.8,44.1,4.8,44.2,4.7C44.2,4.7,44.2,4.7,44.2,4.7
								C44,4.9,44,5.1,44,5.3s0.1,0.2,0.3,0.1s0.3-0.3,0.3-0.5C44.5,4.8,44.4,4.7,44.2,4.7C44,4.9,44.2,4.8,44.2,4.7L44.2,4.7
								L44.2,4.7L44.2,4.7c0.1-0.1,0.2-0.1,0.2,0h0.1l0,0l0,0v0.4l0,0l0,0l0,0l0,0l0,0l0,0l0,0l0,0l0,0l0,0l0,0l0,0H44
								c-0.1,0-0.1-0.1-0.1-0.2c0-0.2,0.1-0.5,0.3-0.6V4.7z"/>
							<path class="st34" d="M44.2,4.7c-0.1,0-0.2,0.1-0.2,0.2C44,4.8,44.1,4.7,44.2,4.7L44.2,4.7C44.1,4.9,44,5,44,5.2
								s0.1,0.2,0.3,0.1s0.3-0.3,0.3-0.5C44.5,4.8,44.4,4.7,44.2,4.7C44,4.9,44.2,4.8,44.2,4.7L44.2,4.7h0.2
								C44.3,4.7,44.2,4.7,44.2,4.7c0.1-0.1,0.2-0.1,0.2,0h0.1l0,0l0,0v0.4l0,0l0,0l0,0l0,0l0,0l0,0l0,0l0,0l0,0l0,0l0,0l0,0H44
								c-0.1,0-0.1-0.1-0.1-0.2c0-0.2,0.1-0.5,0.3-0.6V4.7z"/>
							<path class="st34" d="M44.2,4.7C44.1,4.8,44,4.9,43.9,5C44,4.9,44.1,4.8,44.2,4.7C44.2,4.8,44.2,4.8,44.2,4.7
								C44,4.9,44,5.1,44,5.3s0.1,0.2,0.3,0.1s0.3-0.3,0.3-0.5C44.5,4.8,44.4,4.7,44.2,4.7C44.2,4.8,44.2,4.7,44.2,4.7L44.2,4.7h0.2
								C44.3,4.7,44.2,4.7,44.2,4.7c0.1-0.1,0.2-0.1,0.2,0h0.1l0,0l0,0v0.4l0,0l0,0l0,0l0,0l0,0l0,0l0,0l0,0l0,0l0,0l0,0l0,0H44
								c-0.1,0-0.1-0.1-0.1-0.2c0-0.2,0.1-0.5,0.3-0.6V4.7z"/>
							<path class="st34" d="M44.2,4.7C44.1,4.8,44,4.9,43.9,5L44,4.9C44.1,4.9,44.1,4.8,44.2,4.7L44.2,4.7C44.1,4.9,44,5.1,44,5.3
								c0,0.2,0.1,0.2,0.3,0.1s0.3-0.3,0.3-0.5C44.5,4.8,44.4,4.7,44.2,4.7L44.2,4.7h0.2C44.3,4.7,44.2,4.7,44.2,4.7
								c0.1,0,0.2,0,0.2,0h0.1l0,0l0,0v0.4l0,0l0,0l0,0l0,0l0,0l0,0l0,0l0,0l0,0l0,0l0,0l0,0H44c-0.1,0-0.1-0.1-0.1-0.2
								c0-0.2,0.1-0.5,0.3-0.6V4.7z"/>
							<path class="st34" d="M44.2,4.7C44.1,4.8,44,4.9,44,5.1V4.9C44,4.9,44.1,4.8,44.2,4.7L44.2,4.7C44,4.9,43.9,5,43.9,5.2
								s0.1,0.2,0.3,0.1s0.3-0.3,0.3-0.5C44.5,4.8,44.4,4.7,44.2,4.7L44.2,4.7L44.2,4.7c0.1,0,0.2,0,0.2,0.1l0,0
								C44.4,4.8,44.3,4.8,44.2,4.7c0.1,0,0.2,0,0.2,0.1h0.1l0,0l0,0v0.4l0,0l0,0l0,0l0,0l0,0l0,0l0,0l0,0l0,0l0,0l0,0l0,0H44
								c-0.1,0-0.1-0.1-0.1-0.2c0-0.2,0.1-0.5,0.3-0.6V4.7z"/>
							<path class="st34" d="M44.2,4.7c-0.1,0.1-0.2,0.2-0.3,0.4l0,0l0,0C44,5,44.1,4.9,44.2,4.8l0,0C44,4.9,44,5.1,44,5.3
								s0.1,0.2,0.3,0.1s0.3-0.3,0.3-0.5C44.5,4.8,44.4,4.7,44.2,4.7L44.2,4.7L44.2,4.7c0.1,0.1,0.2,0.1,0.2,0.1l0,0
								C44.4,4.8,44.4,4.7,44.2,4.7c0,0,0.1,0,0.2,0.1h0.1l0,0l0,0v0.4l0,0l0,0l0,0l0,0l0,0l0,0l0,0l0,0l0,0l0,0l0,0l0,0H44
								c-0.1,0-0.1-0.1-0.1-0.2c0-0.2,0.1-0.5,0.3-0.6V4.7z"/>
							<path class="st34" d="M44.2,4.8C44.1,4.9,44,5.1,44,5.3c0,0.2,0.1,0.2,0.3,0.1s0.3-0.3,0.3-0.5C44.5,4.8,44.4,4.7,44.2,4.8
								L44.2,4.8L44.2,4.8c0.1-0.1,0.1-0.1,0.2,0l0,0c0,0,0,0-0.1,0C44.3,4.8,44.2,4.8,44.2,4.8c0-0.1,0.1-0.1,0.2,0h0.1l0,0l0,0
								v0.4l0,0l0,0l0,0l0,0l0,0l0,0l0,0l0,0l0,0l0,0l0,0l0,0H44c-0.1,0-0.1-0.1-0.1-0.2c0-0.2,0.1-0.4,0.2-0.5l0,0
								c-0.1,0.1-0.2,0.2-0.2,0.3c0.2-0.3,0.2-0.3,0.3-0.4l0,0V4.8z"/>
							<path class="st34" d="M44.2,4.8C44.1,4.9,44,5.1,44,5.3c0,0.2,0.1,0.2,0.3,0.1s0.3-0.3,0.3-0.5C44.5,4.8,44.4,4.7,44.2,4.8
								L44.2,4.8L44.2,4.8c0.1-0.1,0.2-0.1,0.2,0l0,0c0,0,0,0-0.1,0H44.2c0.1-0.1,0.1-0.1,0.2,0h0.1l0,0l0,0v0.4l0,0l0,0l0,0l0,0
								l0,0l0,0l0,0l0,0l0,0l0,0l0,0l0,0H44c-0.1,0-0.1-0.1-0.1-0.2H44l0,0c-0.1,0.1-0.1,0.2-0.2,0.3c0,0,0,0,0-0.1
								C43.9,5,44,4.9,44.1,4.8l0,0H44.2z"/>
							<path class="st34" d="M44.2,4.8C44.1,4.9,44,5.1,44,5.3c0,0.2,0.1,0.2,0.3,0.1s0.3-0.3,0.3-0.5C44.5,4.8,44.4,4.7,44.2,4.8
								L44.2,4.8L44.2,4.8c0.1-0.1,0.2-0.1,0.2,0l0,0c0,0,0-0.1-0.1-0.1S44.3,4.7,44.2,4.8l0.1-0.1h0.1l0,0l0,0v0.4l0,0l0,0l0,0l0,0
								l0,0l0,0l0,0l0,0l0,0l0,0l0,0l0,0H44c-0.1,0-0.1-0.1-0.1-0.2c0,0,0.1,0,0.1,0.1l0,0c-0.1,0.1-0.1,0.2-0.1,0.3l0,0V5.1
								C43.9,5,44,4.9,44.2,4.8L44.2,4.8L44.2,4.8z"/>
							<path class="st34" d="M44.2,4.8C44.1,4.9,44,5.1,44,5.3c0,0.2,0.1,0.2,0.3,0.1s0.3-0.3,0.3-0.5C44.5,4.8,44.4,4.7,44.2,4.8
								L44.2,4.8c0.1-0.1,0.2-0.1,0.3,0l0,0c0,0,0-0.1-0.1-0.1h-0.1h0.1h0.1l0,0l0,0V5l0,0l0,0l0,0l0,0l0,0l0,0l0,0l0,0l0,0l0,0l0,0
								l0,0H44c-0.1,0-0.1-0.1-0.1-0.2L44,4.9l0,0c-0.1,0.2-0.1,0.3-0.1,0.3s0,0,0.1-0.1C44,5,44.1,4.9,44.2,4.8L44.2,4.8z"/>
							<path class="st34" d="M44,4.9c-0.1,0.2-0.1,0.3-0.1,0.4l0,0l0,0L44,5.4h0.1c0.1-0.1,0.3-0.2,0.3-0.3L44.5,5
								c0-0.1,0-0.1-0.1-0.2l0,0l0,0l0,0v0.4l0,0l0,0l0,0l0,0l0,0l0,0l0,0l0,0l0,0l0,0l0,0l0,0H44c-0.1,0-0.1-0.1-0.1-0.2
								C43.9,4.9,43.9,4.9,44,4.9z"/>
							<path class="st34" d="M44,5c-0.2,0.4,0.1,0.5,0.3,0.5c0.1-0.1,0.2-0.1,0.4-0.4c0.1-0.3,0-0.3-0.1-0.4h0.1l0,0l0,0v0.4l0,0
								l0,0l0,0l0,0l0,0l0,0l0,0l0,0l0,0l0,0l0,0l0,0L44,5c-0.1,0-0.1-0.1-0.1-0.2C43.9,4.8,44,4.8,44,5L44,5L44,5z"/>
							<path class="st34" d="M44,5c-0.2,0.4,0.1,0.5,0.2,0.5c0.2-0.1,0.5-0.7,0.3-0.8h0.1l0,0l0,0v0.4l0,0l0,0l0,0l0,0l0,0l0,0l0,0
								l0,0l0,0l0,0l0,0l0,0L44,5c-0.1,0-0.1-0.1-0.1-0.2C43.9,4.9,43.9,5,44,5z"/>
							<path class="st34" d="M43.9,5.1c-0.1,0.4,0.1,0.5,0.3,0.4s0.5-0.7,0.2-0.8h0.1l0,0l0,0v0.4l0,0l0,0l0,0l0,0l0,0l0,0l0,0l0,0
								l0,0l0,0l0,0l0,0H43.9c0-0.1,0-0.2,0-0.2c0-0.1,0-0.2,0-0.3l0,0V5.1z"/>
							<path class="st34" d="M43.9,5.1c-0.1,0.4,0.1,0.5,0.3,0.4s0.5-0.7,0.2-0.8h0.1l0,0l0,0v0.4l0,0l0,0l0,0l0,0l0,0l0,0l0,0l0,0
								l0,0l0,0l0,0l0,0H43.9c0-0.1,0-0.1,0-0.2s0-0.2,0-0.2V5.1z"/>
							<path class="st34" d="M43.9,5.2c-0.1,0.4,0.1,0.5,0.4,0.3c0.2-0.1,0.4-0.4,0.3-0.7v0.1l0,0v0.3l0,0l0,0l0,0l0,0l0,0l0,0l0,0
								l0,0l0,0l0,0l0,0l0,0L43.9,5.2c0,0,0-0.1,0-0.2s0-0.1,0-0.2l0,0V5.2z"/>
							<path class="st34" d="M43.9,5.2c-0.1,0.4,0.1,0.5,0.4,0.3c0.2-0.1,0.3-0.3,0.3-0.6v0.3l0,0l0,0l0,0l0,0l0,0l0,0l0,0l0,0l0,0
								l0,0l0,0l0,0L43.9,5.2c0,0,0-0.1,0-0.2s0-0.1,0-0.2V5.2z"/>
							<path class="st34" d="M43.8,5.2c0,0.3,0.2,0.4,0.4,0.3s0.3-0.3,0.3-0.6v0.2l0,0l0,0l0,0l0,0l0,0l0,0l0,0l0,0l0,0l0,0l0,0l0,0
								H44c-0.1,0-0.1-0.1-0.1-0.2V4.8l0,0L43.8,5.2z"/>
							<path class="st34" d="M43.8,5.2c0,0.4,0.2,0.4,0.4,0.2c0.1-0.1,0.2-0.2,0.3-0.4l0,0l0,0l0,0l0,0l0,0l0,0l0,0l0,0l0,0l0,0l0,0
								l0,0l0,0l0,0H44c-0.1,0-0.1-0.1-0.1-0.2L43.8,5.2L43.8,5.2z"/>
							<path class="st34" d="M43.8,5.3c0,0.3,0.3,0.4,0.5,0.1c0.1-0.1,0.1-0.1,0.1-0.2l0,0l0,0l0,0l0,0l0,0l0,0l0,0l0,0l0,0H44
								c-0.1,0-0.1-0.1-0.1-0.2l0,0L43.8,5.3z"/>
						</g>
					</g>
				</g>
			</g>
		</g>
		<path class="st34" d="M44.2,4.8c0.2-0.1,0.3,0,0.3,0.1c0,0.2-0.1,0.4-0.3,0.5c-0.1,0.1-0.3,0-0.3-0.1C44,5.1,44.1,4.9,44.2,4.8z"
			/>
		<path class="st36" d="M44.2,4.7c0.2-0.1,0.4,0,0.4,0.2s-0.1,0.5-0.3,0.6s-0.4,0-0.4-0.2S44,4.9,44.2,4.7z M44.2,5.6
			c0.3-0.2,0.4-0.5,0.4-0.8s-0.2-0.4-0.5-0.2c-0.3,0.2-0.4,0.5-0.4,0.8C43.8,5.7,44,5.8,44.2,5.6z"/>
		<path class="st14" d="M39.9,16.7c0.9,0.6,2,1,3.1,1c1-0.1,1.9-0.8,2.3-1.7c0.1,0.3,0.1,0.5,0.1,0.8c-0.7,0.9-1.8,1.5-2.9,1.5
			c-1.1,0-2.1-0.4-2.9-1.1l0.2-0.3L39.9,16.7z"/>
		<polygon class="st37" points="44.8,16.1 41.6,22.7 45.6,21.6 48.9,15 		"/>
		<path class="st18" d="M38.6,9.4c0,0-1.1-0.1-1.5,5.1c-0.1,1.2,0.2,2.4,0.9,3.3c0.9,0.8,1.8,1.5,2.8,2.1l0.7-0.9
			c0,0-2.2-2.7-2.5-3.3c0,0,1.5-4.1,1-5.4C39.6,9.1,39,9.4,38.6,9.4z"/>
		<path class="st19" d="M37.1,14.5c-0.1,1.2,0.2,2.4,0.9,3.3c0.9,0.8,1.8,1.5,2.8,2.1l0.1-0.1c-1.3-1.1-2.4-2.4-3.3-3.8
			c-0.6-1.2,0.6-5.6,0.9-6.7C38.2,9.5,37.4,10.1,37.1,14.5z"/>
		<path class="st22" d="M38.4,9.3c0,0-1.2,1.1-1.3,4.3c0,0,1.4,1.2,2.6,0.2c0,0,1.5-3.1,0.3-4.4C39.6,9,38.9,8.9,38.4,9.3z"/>
		<path class="st24" d="M39.7,13.7c0,0,1.2-2.7,0.5-4.1c-0.1,1.6-0.7,3.2-1.8,4.5C38.9,14.1,39.3,14,39.7,13.7z"/>
		<path class="st38" d="M40.5,19.5c0.8,0.5,1.2,1.7,1.4,1.8c0.5,0.2,1,0.1,1.5-0.2c0.2-0.1,0.3-0.3,0.3-0.5H43l0,0
			c-0.2,0-0.4-0.3-0.5-0.5s-0.1-0.3,0-0.3c0.1,0.1,0.4,0.2,0.5,0.2s0.3-0.2,0-0.5c-0.3-0.2-0.4-0.5-1.1-0.5c-0.2,0-0.3,0-0.8-0.4
			L40.5,19.5z"/>
		<path class="st26" d="M40.4,19.6c0.6,0.5,1.1,1,1.5,1.6c0.4,0.2,0.9,0.1,1.3-0.1c-0.3,0-0.7,0.2-1.2-0.4
			C41.5,20.3,41,19.9,40.4,19.6c0.3-0.3,0.5-0.5,0.7-0.8l0,0L40.4,19.6z"/>
		<g class="st39">
			<path class="st34" d="M74.3,53.6h1.4v2.3h4.6v6.6h-1.4v-0.9h-3.2v4.1h-1.4v-4.1h-3.2v0.9h-1.4v-6.7h4.5V53.6z M71.1,60.3h3.2
				v-3.2h-3.2V60.3z M78.9,57.1h-3.2v3.2h3.2V57.1z"/>
		</g>
	</g>
</g>
</svg>
