<?xml version="1.0" encoding="utf-8"?>
<!-- Generator: Adobe Illustrator 26.0.1, SVG Export Plug-In . SVG Version: 6.00 Build 0)  -->
<svg version="1.1" id="Layer_1" xmlns="http://www.w3.org/2000/svg" xmlns:xlink="http://www.w3.org/1999/xlink" x="0px" y="0px"
	 viewBox="0 0 150 85" style="enable-background:new 0 0 150 85;" xml:space="preserve">
<style type="text/css">
	.st0{clip-path:url(#SVGID_00000067236858898978685980000005006675079696392320_);}
	.st1{fill:#BCCFE1;}
	.st2{fill:#9B7968;stroke:#231F20;stroke-width:0.5;stroke-linecap:round;stroke-linejoin:round;}
	.st3{fill:#EAAF85;}
	.st4{fill-rule:evenodd;clip-rule:evenodd;fill:#EAAF85;}
	.st5{fill:#E1A075;}
	.st6{fill:#E49C29;}
	.st7{opacity:0.2;}
	.st8{fill:#5D5E5E;}
	.st9{fill:#1D160D;}
	.st10{fill:#12110D;}
	.st11{fill:#251C13;}
	.st12{fill:#EB8127;}
	.st13{fill:#D56C2A;}
	.st14{fill:#ED8B2D;}
	.st15{fill:#545359;}
	.st16{fill:#3E3941;}
	.st17{fill:#646368;}
	.st18{fill:#D59368;}
	.st19{fill-rule:evenodd;clip-rule:evenodd;fill:#E1A075;}
	.st20{fill:#3D220F;}
	.st21{fill:#4D2C14;}
	.st22{fill:#331E0F;}
	.st23{fill:#2E190E;}
	.st24{fill:#4A2711;}
	.st25{fill:#C72A27;}
	.st26{fill:#D3372A;}
	.st27{fill:#E05E2F;}
	.st28{fill:#D3412B;}
	.st29{fill:#492E28;}
	.st30{fill:#FFFFFF;}
	.st31{clip-path:url(#SVGID_00000126318527489180314760000018357755742547529398_);}
	.st32{fill:#553730;}
	.st33{fill:#353636;}
	.st34{fill:#232323;}
	.st35{fill:#474748;}
	.st36{fill:#010100;}
	.st37{fill:#F2AB43;stroke:#211E1E;stroke-width:0.5;stroke-miterlimit:10;}
	.st38{opacity:0.8;fill:#EA7C26;enable-background:new    ;}
	.st39{fill:#8FC31F;}
	.st40{fill:#C2E6FA;}
	.st41{fill:#00A1E9;}
	.st42{enable-background:new    ;}
</style>
<g>
	<g id="Layer_2_00000048483844257889647870000011162579415483808416_">
		<g id="Layer_5">
			<g>
				<g>
					<defs>
						<rect id="SVGID_1_" y="0.5" width="150" height="84"/>
					</defs>
					<clipPath id="SVGID_00000176037735717736442000000006100036043849298837_">
						<use xlink:href="#SVGID_1_"  style="overflow:visible;"/>
					</clipPath>
					<g style="clip-path:url(#SVGID_00000176037735717736442000000006100036043849298837_);">
						<rect x="-2.9" y="-3.3" class="st1" width="152.7" height="90.7"/>
						<path class="st2" d="M150.4,42.2c0,4,0,44,0,44H-1.3c0,0,0-40.1,0-44c0.2-23.5,42-42.8,76.2-42.8
							C108.9-0.7,150.1,18.4,150.4,42.2z"/>
						<path class="st3" d="M79.3,3.3c0,0-0.9-1.5-2.1-0.4c-0.9,1.1-1.7,2.3-2.3,3.5l-4,2.4c0,0,0,0.8,0.5,0.9c1.9-0.1,3.7-0.8,5.2-2
							C77.9,6,79.6,4.7,79.3,3.3z"/>
						<path class="st4" d="M71.5,8.4c-0.5,0.6-1.8,0.5-2,0.5s-0.6,0.8-0.5,1.2c0,0.1,0,0.2,0.1,0.2l0.4-0.2l0,0
							c0-0.2,0.4-0.1,0.6-0.1s0.3,0,0.2,0.2c-0.1,0.2-0.3,0.2-0.4,0.3s0.1,0.3,0.4,0.2s0.6-0.1,0.9-0.6c0.1-0.2,0.1-0.3,0.6-0.4
							L71.5,8.4z"/>
						<path class="st5" d="M71.9,9.6C74,9,75.8,7.7,77.1,6l0.7,0.2c-0.4,0.5-0.9,0.9-1.3,1.5C75.2,8.8,73.6,9.4,71.9,9.6z"/>
						<path class="st3" d="M84.1,5.6c0,0-1.9-0.6-1.7,1.2c0.3,1.6,0.8,3.2,1.5,4.7l-0.6,4.7c0,0,0.7,0.7,1,0.5
							c1.2-1.6,1.8-3.5,1.7-5.5C85.5,8.9,85.5,6.5,84.1,5.6z"/>
						<path class="st5" d="M84.5,16.4c1.7-4.2,0.5-6.5,0.5-6.5l0.6-0.6c0.1,0.6,0.2,1.3,0.3,1.9C86,13,85.5,14.9,84.5,16.4z"/>
						<path class="st6" d="M76.2,11.3c-0.7,1.7-1.1,3.6-1,5.5l6.6,1c0.9-1.4,1.1-3.1,0.6-4.7L76.2,11.3z"/>
						<g class="st7">
							<path class="st8" d="M87.1,25c4.4,2.3,3.8,6.3-1.1,8.9c-5,2.6-12.5,2.9-16.8,0.7s-3.8-6.3,1.1-8.9S82.7,22.7,87.1,25z"/>
						</g>
						<path class="st9" d="M83.8,26.9c0.3,0,0.4,0.4,0.6,0.6c0.1,0.2,0.2,0.5,0.2,0.7c-0.1,0.4-1.2,0.7-1.5,1
							c-0.4,0.4-0.8,0.7-1.2,1c-0.2,0.2-0.5,0.3-0.8,0.4c-0.6,0-1.3-0.3-1.8-0.7c-0.2-0.2-0.2-0.5-0.1-0.7c0.5-0.5,0.9-0.5,1.2-0.9
							c0.2-0.2,0.5-0.5,0.6-0.8c0.1-0.2,0.4-0.9,0.7-0.7L83.8,26.9z"/>
						<path class="st10" d="M79.4,30c0.5,0.4,1.1,0.6,1.8,0.7c0.3-0.1,0.6-0.2,0.8-0.4c0.4-0.3,0.8-0.6,1.2-1c0.2-0.3,1.3-0.6,1.5-1
							c0-0.2-0.1-0.5-0.1-0.7c-0.7,0.5-1.3,1-1.9,1.7c-0.5,0.4-1,0.8-1.6,1.1c-0.7,0.1-1.4-0.4-1.6-1.1l-0.1,0.1
							C79.2,29.5,79.2,29.7,79.4,30z"/>
						<path class="st11" d="M81.2,27.7c-0.2,0.3-0.4,0.5-0.6,0.8c-0.2,0.2-0.5,0.4-0.8,0.5c0,0.4,0,0.9,0.7,0.7
							c0.5-0.2,1-0.5,1.5-0.8c0.3-0.1,0.6-0.4,0.7-0.8c0-0.4,0-0.8-0.1-1.1h-0.7C81.6,26.8,81.3,27.5,81.2,27.7z"/>
						<path class="st9" d="M77.4,30.5c0.2,0.1,0.2,0.5,0.3,0.7c0.1,0.3-0.1,0.7-0.4,0.8c-0.4,0.2-1-0.1-1.3,0
							c-0.7,0.1-1.4,0.2-2.1,0.2c-0.4,0-1.2-0.2-1.2-0.8c0-0.3,0.1-0.6,0.3-0.8c0.4-0.2,0.8-0.4,1.2-0.5c0.2-0.1,0.4-0.2,0.6-0.3
							c0.1,0,0.7-0.5,0.9-0.2L77.4,30.5z"/>
						<path class="st10" d="M73.8,32.3c0.7,0,1.4-0.1,2.1-0.2c0.3-0.1,0.9,0.2,1.3,0c0.2-0.1,0.4-0.3,0.4-0.6
							c-0.5,0.5-1.5,0.1-1.8,0.2c-0.4,0.1-1.3,0.1-1.8,0.2c-0.5,0-1-0.1-1.4-0.3C72.7,32,73.5,32.3,73.8,32.3z"/>
						<path class="st11" d="M74.8,29.9c-0.2,0.1-0.4,0.2-0.6,0.3c-0.4,0.1-0.8,0.3-1.2,0.5c-0.1,0.1-0.2,0.3-0.3,0.4
							c0.2,0.2,0.4,0.3,0.7,0.1c0.4-0.1,0.9-0.3,1.3-0.4c0.5-0.1,1.2,0,1.5-0.4c0.1-0.2,0.1-0.4,0.2-0.7l-0.5-0.2
							C75.5,29.4,75,29.8,74.8,29.9z"/>
						<path class="st12" d="M83.7,26.9c-0.1-1.3-2.6-3.9-4.7-5.6c0-1,0-2,0-2.9c0.1-1.2-0.1-2.9,0-4.1c-0.8-1-1.7-2-2.7-2.9
							c-0.8,1-1.2,2.3-1.2,3.6c0.3,0.9-0.1,1.2,0,2.1s0,4.4,0.2,5.8c0,0.2,0.1,0.4,0.2,0.5c0,0.1,0.1,0.1,0.2,0.1l0,0
							c2,1.4,3.9,2.9,5.6,4.7l0.2,0.3c0.1,0.2,0.3,0.3,0.4,0.3c0.3,0,0.6-0.1,0.8-0.2C83.3,28.1,83.6,27.5,83.7,26.9z"/>
						<path class="st13" d="M83.7,26.9c-0.1-1.3-2.6-3.9-4.7-5.6c0-1,0-2,0-2.9c0.1-1.2-0.2-2.5,0-3.7c0-0.2,0.5-1.4-1.2-1.6
							l0.1-0.2c-0.5,0.3-0.6,1.4-0.6,1.4c-0.3,0.8-0.5,1.7-0.5,2.6c0,0.9,0,4.4,0.2,5.8c0,0.2,0.1,0.4,0.3,0.5
							c0,0.1,0.1,0.1,0.1,0.1l0,0c2,1.4,3.9,3,5.6,4.7l0.2,0.2C83.5,27.8,83.7,27.4,83.7,26.9z"/>
						<path class="st14" d="M75.2,14.6c-0.1,0.8-0.1,1.5,0,2.3c0,0.9,0,4.4,0.2,5.8c0,0.2,0.1,0.4,0.2,0.5c0,0.1,0.1,0.1,0.2,0.1
							l0,0c2,1.4,3.9,2.9,5.6,4.7l0.2,0.3c0.1,0.2,0.3,0.3,0.4,0.3c0.2,0,0.4-0.1,0.6-0.2c-1.7-1.7-5.4-5.5-6.2-5.9
							c-0.7-0.4,0-8.8,0-11.2C75.7,11.6,75.2,13.7,75.2,14.6z"/>
						<path class="st12" d="M81.4,12.1c-1.5-1.5-2.3,0.8-2.3,0.8c-0.3,0.8-1,3.8-1.2,4.6s-1.1,3.7-1.3,4.2c-0.1,0.3-0.1,0.6-0.1,0.9
							l0,0c-0.2,2.3-0.6,4.6-1.3,6.8l-0.1,0.2c-0.1,0.1-0.1,0.3,0,0.5c0.2,0.2,0.4,0.4,0.6,0.5c0.5,0.3,1.2,0.4,1.7,0.2
							c1.1-0.7,2-4.4,2.1-6.8c0-0.4,0.1-0.8,0.2-1.2c0.5-1,0.9-2,1.3-3.1c0.4-1,0.7-2,1.2-2.9C83.2,15.2,82.8,13.2,81.4,12.1z"/>
						<path class="st13" d="M77.4,30.8c1.1-0.7,2-4.4,2.1-6.8c0-0.4,0.1-0.8,0.2-1.2c0.5-1,0.9-2,1.3-3.1c0.3-0.7,0.7-1.5,1.2-2.1
							c0.7-1.3,0.7-2.9,0.2-4.3l0,0c-1.8-1-2.7,5-2.7,5c-0.3,0.8-0.5,1.3-0.7,2c-0.3,0.7-0.7,1.5-1.1,2.1c-0.1,0.3-0.1,0.6-0.1,0.9
							l0,0c-0.2,2.3-0.6,4.6-1.3,6.8l-0.1,0.3c-0.1,0.1-0.1,0.3,0,0.4C76.7,31,77.1,30.9,77.4,30.8z"/>
						<path class="st14" d="M76.6,21.6c-0.1,0.3-0.1,0.6-0.1,0.9l0,0c-0.2,2.3-0.6,4.6-1.3,6.8l-0.1,0.2c-0.1,0.1-0.1,0.3,0,0.5
							s0.3,0.3,0.5,0.4c0.5-1.3,1-2.7,1.3-4.1c0.1-4.3,1.1-8.6,3-12.6L79,13.5c-0.1,0.4-0.9,3.4-1.1,3.9
							C77.7,18.3,76.8,21.1,76.6,21.6z"/>
						<path class="st15" d="M79.5,3.2c0,0,0,1.5-2.2,3.2c0,0-1.9-0.2-1.9-1.6c0,0,1.3-2.7,3.1-2.7C78.9,2.2,79.4,2.6,79.5,3.2z"/>
						<path class="st15" d="M82.8,4.3c1.1,0.8,3.4,2.4,1.6,4.3c0,0-1.4,1.3-2.1,1.9c-0.8,0.5-1,1.5-0.6,2.3c0,0-2.7,2.1-5.4-1.7
							c0.3-1.1,0.5-2.3,0.5-3.4c-0.1-1.2-0.5-5.3,2.1-5.6C79.8,1.9,80.6,2.6,82.8,4.3z"/>
						<path class="st16" d="M84.4,8.6c-0.4,0.7-1,1.3-1.6,1.8c-0.8,0.5-1.1,1.5-0.8,2.4c-1,0.5-2,0.6-3.1,0.4c1.4-1,2.2-2.7,2.1-4.4
							c0-2,0.4-3.2,1.3-3.8c0.4-0.1,0.7-0.2,1.1-0.1C84.5,5.6,85.8,6.8,84.4,8.6z"/>
						<path class="st17" d="M76.3,11c0.3-1.1,0.5-2.3,0.5-3.4c-0.1-1.2-0.5-5.3,2.1-5.6c0.6-0.1,1,0.3,1.9,0.7
							c-2,0.3-3.4,2.1-3.1,4.1c0,0.1,0,0.2,0,0.2c0.3,1.9,0.4,3.8,0.4,5.7C77.4,12.3,76.8,11.7,76.3,11z"/>
						<path class="st5" d="M79.2,3.4c0.3,0.3,0.5,0.8,0.4,1.3c-0.1,0.6,1.3,0.9,2.4-0.9c0,0-0.6-0.5,0.1-2.2L79.2,3.4z"/>
						<path class="st18" d="M79.5,3.9c0.8-0.2,1.6-0.2,2.4,0c0,0-0.3-0.4-0.1-1.4c0.6-0.5,0.9-1.3,0.7-2.1c-0.1-0.7-0.7-1.3-1.5-1.5
							c1,1.6,0.4,3.8-1.2,4.7C79.8,3.8,79.7,3.8,79.5,3.9z"/>
						<path class="st3" d="M78.3,0.4c0,0.2,0.3,0.3-0.1,1c-0.2,0.5-0.1,0.5,0,1.4c0.1,0.5,0.4,1.6,2,0.9c0.8-0.5,1.6-1.1,2.1-1.8
							c0.5-0.9,0.4-2-0.4-2.7C81.9-0.8,78.3-2.4,78.3,0.4z"/>
						<path class="st19" d="M78.3,0c0.4,0.3,0.9,0.6,1.5,0.8c0,0,0.8,0,0.8,0.3c0,0.4-0.2,0.7-0.4,1c-0.3,0.3-0.5,0.6-0.6,1
							c0,0.1-0.2,0.7-0.6,0.7c0,0,1,0.5,2.5-0.9c0,0,1.2-1,1.2-1.2c-0.6-0.5-1.3-1-2-1.3l-2.1-1C78.5-0.6,78.4-0.1,78.3,0z"/>
						<path class="st20" d="M78.4-0.5c0,0.5,1.3,1,2.1,1.2c0.3,0.1,0.5,0.4,0.2,1.2s0.2,1,0.3,0.8c0.2-0.7,1-1.1,0.8,0
							c0,0,1.8-1.4,1.2-2.7c-0.7-1.3-2.2-1.9-3.6-1.5C79.2-1.4,78.5-1.1,78.4-0.5z"/>
						<path class="st20" d="M80.8,1.9c-0.3,0.9,0.3,0.9,0.3,0.9c0.2-0.8,1-1,0.8-0.1c0,0,1.8-1.4,1.2-2.7c-0.2-0.4-0.5-0.8-0.9-1.1
							c1,1.9-0.9,1.6-1.3,1.9C80.9,0.9,81,1.2,80.8,1.9z"/>
						<path class="st21" d="M80.9,1.4c0,0,0.4-0.3,0.4,0.1c0.2-0.1,0.3-0.3,0.3-0.5c0.2,0.1,0.3,0.3,0.3,0.5c0,0,0.4-0.3,0.2-0.6
							c0.2,0.2,0.3,0.4,0.3,0.7c0,0,0.4-0.5,0.3-0.8c0,0,0.2,0,0.2,0.5c0.3-0.5,0.3-1.1-0.1-1.6c0,0,0,1-2.1,1.1
							C80.9,1,80.9,1.2,80.9,1.4z"/>
						<path class="st22" d="M81.6,2.1c0,0,0.8,0.1,1-0.3c-0.2,0.3-0.5,0.6-0.8,0.9C81.8,2.6,82.1,2.1,81.6,2.1z"/>
						<path class="st23" d="M82.9-0.3c0,0,0,1.1-2.1,1.1c0,0-1.8-0.2-2.3-1.2c-0.1-0.2-0.1-0.3,0-0.5c0,0,0,0.4,0.3,0.6
							c0,0-0.1-0.3,0-0.4c0.1,0.3,0.3,0.5,0.5,0.6c-0.1-0.1-0.1-0.2,0-0.3c0.2,0.4,0.5,0.7,0.9,0.8C80.1,0.3,80,0.1,80,0
							c0,0,0.6,0.5,1,0.5c0,0-0.4-0.2-0.4-0.4s0.7,0.4,1.2,0.1c-0.2,0-0.3-0.1-0.5-0.2C81.4-0.1,82.6,0.1,82.9-0.3z"/>
						<path class="st24" d="M82.5-0.7c-0.9-0.9-2.3-1.1-3.5-0.6c0,0,0.9,0,1.2,0c0.3,0-0.2,0.1-0.5,0.2c0.4,0,0.8,0,1.3,0
							c0.4,0,1.1,0.2,0.6,0.2C81.1-0.9,82.5-0.8,82.5-0.7z"/>
						<path class="st25" d="M82.9,1.5c-1.6,0.5-3.4,0.4-5-0.3c0,0-1.3-0.6,0.5-1.3L82.9,1.5z"/>
						<path class="st26" d="M78.4-0.1l3.2,1c-1.1,0.7-2.5,0.8-3.7,0.3C77,0.6,77.4,0.2,78.4-0.1z"/>
						<path class="st27" d="M83.2,0.7c0.1-1.3-0.8-2.4-2.1-2.6c-1.2-0.4-2.5,0.3-2.9,1.6c0,0.1,0,0.2-0.1,0.3c1.2,1.3,3,1.9,4.7,1.5
							C83.1,1.2,83.2,1,83.2,0.7z"/>
						<path class="st28" d="M83.2,0.7c0,0.2-0.1,0.5-0.3,0.7c-1.2,0.4-2.5,0.2-3.6-0.5V0.8c0.2-1.4,1.5-2.4,2.9-2.2c0,0,0,0,0.1,0
							C83-0.8,83.3-0.1,83.2,0.7z"/>
						<path class="st29" d="M82.9,1.5c-1.7,0.4-3.5-0.1-4.7-1.5v-0.2c1.2,1.3,3,1.8,4.8,1.5L82.9,1.5z"/>
						<path class="st29" d="M78.4,0.2L78.4,0.2L78.4,0.2L78.4,0.2L78.4,0.2L78.4,0.2l0.2-0.1h0.2h0.4l0,0l0,0l0,0l0,0l0,0l0,0l0,0
							l0,0l0,0l0,0l0,0l0,0l0,0l0,0v0.4l0,0v0.1l0,0V1H79l0.1,0.1h-0.2h-0.1l0,0l0,0l0,0c-0.2-0.2-0.4-0.5-0.4-0.8V0.2z M78.8,0.2
							L78.8,0.2L78.8,0.2L78.8,0.2v0.1l0,0v0.1v0.1c0,0,0,0,0,0.1l0,0l0,0c0,0,0,0,0,0.1l0,0h0.1l0,0l0,0l0,0l0,0l0,0l0,0l0,0V0.6
							l0,0l0,0V0.5V0.4l0,0l0,0l0,0V0.3l0,0l0,0l0,0l0,0l0,0l0,0L78.8,0.2z M78.9,0L78.9,0z"/>
						<path class="st29" d="M79.1-0.1L79.1-0.1L79.1-0.1z"/>
						<g>
							<path class="st30" d="M78.7,0.1L78.7,0.1C78.5,0.1,78.6,0.2,78.7,0.1c-0.1,0.2-0.1,0.3-0.1,0.4C78.7,0.7,78.8,0.9,79,1
								c0.1,0,0.1,0,0.2,0s0.1-0.1,0.1-0.2c0-0.3-0.1-0.5-0.3-0.7c0,0,0,0,0,0.1c0.1,0.2,0.2,0.4,0.1,0.6c0,0.2-0.2,0.2-0.3,0.1
								c-0.2-0.1-0.2-0.3-0.2-0.5s0.2-0.2,0.3,0c0.1,0.2,0-0.1,0-0.1C78.9,0.2,78.8,0.1,78.7,0.1z"/>
							<g>
								<g>
									<defs>
										<path id="SVGID_00000119101404788661196960000007948649845284989329_" d="M78.7,0.1L78.7,0.1C78.5,0.1,78.6,0.2,78.7,0.1
											c-0.1,0.2-0.1,0.3-0.1,0.4C78.7,0.7,78.8,0.9,79,1c0.1,0,0.1,0,0.2,0s0.1-0.1,0.1-0.2c0-0.3-0.1-0.5-0.3-0.7
											c0,0,0,0,0,0.1c0.1,0.2,0.2,0.4,0.1,0.6c0,0.2-0.2,0.2-0.3,0.1c-0.2-0.1-0.2-0.3-0.2-0.5s0.2-0.2,0.3,0
											c0.1,0.2,0-0.1,0-0.1C78.9,0.2,78.8,0.1,78.7,0.1z"/>
									</defs>
									<clipPath id="SVGID_00000055692094247575864670000017593537669372739741_">
										<use xlink:href="#SVGID_00000119101404788661196960000007948649845284989329_"  style="overflow:visible;"/>
									</clipPath>
									<g style="clip-path:url(#SVGID_00000055692094247575864670000017593537669372739741_);">
										<g>
											<path class="st30" d="M78.7,0.1C78.4,0.2,78.6,0.9,79,1c0.1,0,0.1,0,0.2,0s0.1-0.1,0.1-0.2c0-0.3-0.1-0.5-0.3-0.7
												c0,0,0,0,0,0.1c0.1,0.1,0.2,0.3,0.2,0.5S79,0.9,78.9,0.8c-0.2-0.1-0.2-0.3-0.2-0.5s0.2-0.2,0.3,0c0.1,0.2,0-0.1,0-0.1
												C78.9,0.2,78.8,0.1,78.7,0.1z"/>
											<path class="st30" d="M79,0.2L79,0.2v0.1c0.1,0.1,0.2,0.3,0.2,0.5S79,1,78.9,0.9c-0.2-0.1-0.2-0.3-0.2-0.5s0.2-0.2,0.3,0
												C78.9,0.3,78.9,0.3,79,0.2L79,0.2c-0.1,0-0.2-0.1-0.3-0.1h-0.1l0,0l0,0v0.5l0,0l0,0l0,0l0,0l0,0l0,0l0,0l0,0l0,0l0,0l0,0
												l0,0l0,0h0.5c0.1,0,0.1-0.1,0.1-0.2c0-0.3-0.1-0.5-0.3-0.7L79,0.2z"/>
											<path class="st30" d="M79,0.2L79,0.2L79,0.2L79,0.2C79,0.1,79,0.2,79,0.2c0.2,0.2,0.2,0.4,0.2,0.6S79,1,78.9,0.9
												c-0.2-0.1-0.2-0.3-0.2-0.5s0.2-0.2,0.3,0C78.9,0.3,78.9,0.3,79,0.2L79,0.2L79,0.2c-0.1,0-0.2-0.1-0.3-0.1h-0.1l0,0l0,0
												v0.5l0,0l0,0l0,0l0,0l0,0l0,0l0,0l0,0l0,0l0,0l0,0l0,0l0,0h0.5c0.1,0,0.1-0.1,0.1-0.2c0-0.3-0.1-0.5-0.3-0.7L79,0.2z"/>
											<path class="st30" d="M79,0.2L79,0.2c0.1,0,0.1,0.1,0.2,0.2L79,0.2v0.1c0.1,0.1,0.2,0.3,0.1,0.5c0,0.2-0.2,0.2-0.3,0.1
												c-0.2-0.1-0.2-0.3-0.2-0.5s0.2-0.2,0.3,0C78.9,0.3,78.9,0.3,79,0.2L79,0.2L79,0.2L79,0.2c0,0-0.2-0.1-0.3-0.1h-0.1l0,0
												l0,0v0.5l0,0l0,0l0,0l0,0l0,0l0,0l0,0l0,0l0,0l0,0l0,0l0,0l0,0h0.5c0.1,0,0.1-0.1,0.1-0.2c0-0.3-0.1-0.5-0.3-0.7L79,0.2z
												"/>
											<path class="st30" d="M79,0.2c0.1,0.1,0.1,0.1,0.2,0.2C79.1,0.3,79,0.2,79,0.2v0.1c0.1,0.1,0.2,0.3,0.2,0.5
												S79,1,78.9,0.9c-0.2-0.1-0.2-0.3-0.2-0.5s0.2-0.2,0.3,0C78.9,0.3,78.9,0.3,79,0.2L79,0.2l-0.1,0.1c0,0,0.1,0,0.1,0.1
												c0-0.1-0.1-0.2-0.3-0.2h-0.1l0,0l0,0v0.5l0,0l0,0l0,0l0,0l0,0l0,0l0,0l0,0l0,0l0,0l0,0l0,0l0,0h0.5
												c0.1,0,0.1-0.1,0.1-0.2c0-0.3-0.1-0.5-0.3-0.7L79,0.2z"/>
											<path class="st30" d="M79,0.2L79,0.2c0.1,0.1,0.1,0.2,0.2,0.2C79.1,0.3,79,0.3,79,0.2c-0.1,0-0.1,0.1,0,0.1
												c0.1,0.1,0.2,0.3,0.2,0.5S79,1,78.9,0.9c-0.2-0.1-0.2-0.3-0.2-0.5s0.2-0.2,0.3,0C78.9,0.3,78.9,0.3,79,0.2L79,0.2
												l-0.2,0.1c0.1,0,0.1,0,0.2,0.1c0-0.1-0.1-0.2-0.3-0.3h-0.1l0,0l0,0v0.5l0,0l0,0l0,0l0,0l0,0l0,0l0,0l0,0l0,0l0,0l0,0l0,0
												l0,0h0.5c0.1,0,0.1-0.1,0.1-0.2c0-0.3-0.1-0.5-0.3-0.7L79,0.2z"/>
											<path class="st30" d="M79,0.2c0.1,0.1,0.1,0.2,0.2,0.3C79.1,0.4,79,0.3,79,0.2c-0.1,0.1-0.1,0.1-0.1,0.1
												c0.1,0.1,0.2,0.3,0.2,0.5S78.9,1,78.8,0.9c-0.2-0.1-0.2-0.3-0.2-0.5s0.2-0.2,0.3,0C78.9,0.3,78.9,0.3,79,0.2L79,0.2h-0.2
												C78.8,0.2,78.9,0.2,79,0.2c-0.1,0-0.2-0.1-0.3-0.1h-0.1l0,0l0,0v0.5l0,0l0,0l0,0l0,0l0,0l0,0l0,0l0,0l0,0l0,0l0,0l0,0
												l0,0h0.5c0.1,0,0.1-0.1,0.1-0.2c0-0.3-0.1-0.5-0.3-0.7L79,0.2z"/>
											<path class="st30" d="M79,0.2c0.1,0.1,0.1,0.2,0.2,0.3C79.1,0.4,79,0.3,79,0.2c-0.1,0-0.1,0-0.1,0.1
												c0.2,0.1,0.3,0.3,0.2,0.5c0,0.2-0.2,0.2-0.3,0.1c-0.2-0.1-0.2-0.3-0.2-0.5s0.2-0.2,0.3,0C79.1,0.5,78.9,0.3,79,0.2
												L79,0.2c-0.1,0-0.2,0-0.2,0S78.9,0.2,79,0.2c-0.1,0-0.2-0.1-0.3-0.1h-0.1l0,0l0,0v0.5l0,0l0,0l0,0l0,0l0,0l0,0l0,0l0,0
												l0,0l0,0l0,0l0,0l0,0h0.5c0.1,0,0.1-0.1,0.1-0.2c0-0.3-0.1-0.5-0.3-0.7L79,0.2z"/>
											<path class="st30" d="M79,0.2c0.1,0.1,0.2,0.2,0.2,0.4l-0.1-0.2C79.1,0.3,79.1,0.2,79,0.2L79,0.2
												c0.2,0.2,0.2,0.4,0.2,0.6S79,1,78.9,0.9c-0.2-0.1-0.2-0.3-0.2-0.5s0.2-0.2,0.3,0l0,0l0,0l-0.2-0.1c0.1,0,0.2,0,0.2,0.1
												c0-0.1-0.1-0.2-0.3-0.3h-0.1l0,0l0,0v0.5l0,0l0,0l0,0l0,0l0,0l0,0l0,0l0,0l0,0l0,0l0,0l0,0l0,0h0.5
												c0.1,0,0.1-0.1,0.1-0.2c0-0.3-0.1-0.5-0.3-0.7L79,0.2z"/>
											<path class="st30" d="M79,0.2c0.1,0.1,0.2,0.2,0.2,0.4c0-0.1-0.1-0.1-0.1-0.2S79.1,0.3,79,0.2L79,0.2
												c0.2,0.2,0.2,0.4,0.2,0.6S79,1,78.9,0.9c-0.2-0.1-0.2-0.3-0.2-0.5s0.2-0.2,0.3,0l0,0l0,0c-0.1,0-0.1-0.1-0.2-0.1l0,0
												c0,0,0.1,0,0.3,0.1c0-0.1-0.2-0.2-0.3-0.2h-0.1l0,0l0,0v0.5l0,0l0,0l0,0l0,0l0,0l0,0l0,0l0,0l0,0l0,0l0,0l0,0l0,0h0.5
												c0.1,0,0.1-0.1,0.1-0.2c0-0.3-0.1-0.5-0.3-0.7V0.2z"/>
											<path class="st30" d="M79,0.2c0.1,0.1,0.2,0.3,0.3,0.4l0,0l0,0c-0.1-0.1-0.1-0.2-0.2-0.3l0,0c0.1,0.1,0.2,0.3,0.1,0.5
												C79.2,1,79,1,78.9,0.9c-0.2-0.1-0.2-0.3-0.2-0.5s0.2-0.2,0.3,0c0.1,0.2,0,0,0,0l0,0c-0.1,0-0.1-0.1-0.2-0.1l0,0
												c0,0,0.1,0,0.3,0.1c0-0.1-0.2-0.2-0.3-0.3h-0.1l0,0l0,0v0.5l0,0l0,0l0,0l0,0l0,0l0,0l0,0l0,0l0,0l0,0l0,0l0,0l0,0h0.5
												c0.1,0,0.1-0.1,0.1-0.2c0-0.3-0.1-0.5-0.3-0.7L79,0.2z"/>
											<path class="st30" d="M79,0.3c0.1,0.1,0.2,0.3,0.2,0.5S79,1,78.9,0.9c-0.2-0.1-0.2-0.3-0.2-0.5C78.6,0.2,78.8,0.2,79,0.3
												C79.1,0.5,78.9,0.3,79,0.3L79,0.3c-0.1,0-0.1,0-0.2,0l0,0C78.8,0.3,78.8,0.3,79,0.3C78.9,0.2,79,0.2,79,0.3
												c0-0.1-0.1-0.1-0.2,0h-0.1l0,0l0,0v0.3l0,0l0,0l0,0l0,0l0,0l0,0l0,0l0,0l0,0l0,0l0,0l0,0l0,0h0.5c0.1,0,0.1-0.1,0.1-0.2
												l-0.1-0.1l0,0c0.1,0.1,0.1,0.2,0.2,0.4C79.2,0.3,79.2,0.3,79,0.3C78.8,0.1,79,0.2,79,0.3L79,0.3z"/>
											<path class="st30" d="M79,0.3c0.1,0.1,0.2,0.3,0.2,0.5S79,1,78.9,0.9c-0.2-0.1-0.2-0.3-0.2-0.5C78.6,0.2,78.8,0.2,79,0.3
												L79,0.3L79,0.3c-0.1,0-0.2,0-0.3,0l0,0c0,0,0,0,0.1,0H79c-0.1-0.1-0.2-0.1-0.2,0h-0.1l0,0l0,0v0.4l0,0l0,0l0,0l0,0l0,0
												l0,0l0,0l0,0l0,0l0,0l0,0l0,0l0,0h0.5c0.1,0,0.1-0.1,0.1-0.2l-0.1-0.1l0,0c0.1,0.2,0.1,0.4,0.1,0.4l0,0
												C79.2,0.5,79.1,0.4,79,0.3L79,0.3L79,0.3z"/>
											<path class="st30" d="M79,0.3c0.1,0.1,0.2,0.3,0.2,0.5S79,1,78.9,0.9c-0.2-0.1-0.2-0.3-0.2-0.5C78.6,0.2,78.8,0.2,79,0.3
												L79,0.3c-0.1,0-0.2,0-0.3,0.1l0,0c0,0,0,0,0.1,0C78.8,0.3,78.9,0.3,79,0.3c-0.1,0-0.1,0-0.2,0.1h-0.1l0,0l0,0v0.2l0,0
												l0,0l0,0l0,0l0,0l0,0l0,0l0,0l0,0l0,0l0,0l0,0l0,0h0.5c0.1,0,0.1-0.1,0.1-0.2h-0.1l0,0c0.1,0.2,0,0.3,0,0.3l0,0V0.6
												C79.1,0.5,79,0.3,79,0.3L79,0.3L79,0.3z"/>
											<path class="st30" d="M79,0.3c0.1,0.1,0.2,0.3,0.2,0.5S79,1,78.9,0.9c-0.2-0.1-0.2-0.3-0.2-0.5C78.6,0.2,78.8,0.2,79,0.3
												L79,0.3L79,0.3c-0.1,0-0.2,0-0.3,0.1l0,0c0,0,0-0.1,0.1-0.1h-0.1l0,0l0,0v0.4l0,0l0,0l0,0l0,0l0,0l0,0l0,0l0,0l0,0l0,0
												l0,0l0,0l0,0h0.5c0.1,0,0.1-0.1,0.1-0.2h-0.1v0.1c0.1,0.2,0.1,0.3,0,0.3s0,0,0-0.1C79.1,0.6,79,0.4,79,0.3L79,0.3z"/>
											<path class="st30" d="M79.2,0.5c0.1,0.2,0,0.3,0,0.4l0,0c0,0,0,0-0.1,0.1H79c-0.1-0.1-0.3-0.2-0.3-0.4V0.3
												c0-0.1,0-0.1,0.1-0.2h-0.1l0,0l0,0v0.5l0,0l0,0l0,0l0,0l0,0l0,0l0,0l0,0l0,0l0,0l0,0l0,0l0,0L79.2,0.5
												C79.3,0.6,79.3,0.5,79.2,0.5C79.2,0.4,79.2,0.5,79.2,0.5z"/>
											<path class="st30" d="M79.2,0.5C79.4,1,79.1,1,78.9,0.9s-0.3-0.3-0.3-0.5c0-0.3,0-0.3,0.1-0.3h-0.1l0,0l0,0v0.5l0,0l0,0
												l0,0l0,0l0,0l0,0l0,0l0,0l0,0l0,0l0,0l0,0l0,0L79.2,0.5C79.2,0.6,79.3,0.5,79.2,0.5c0.1-0.2,0.1-0.3,0.1-0.5L79.2,0.5
												L79.2,0.5z"/>
											<path class="st30" d="M79.2,0.5C79.4,1,79.1,1,78.9,0.9S78.4,0.1,78.7,0h-0.1l0,0l0,0v0.5l0,0l0,0l0,0l0,0l0,0l0,0l0,0
												l0,0l0,0l0,0l0,0l0,0l0,0H79.2C79.2,0.6,79.3,0.5,79.2,0.5c0.1-0.2,0.1-0.3,0.1-0.4L79.2,0.5z"/>
											<path class="st30" d="M79.3,0.6c0.1,0.4-0.2,0.5-0.4,0.3c-0.2-0.1-0.5-0.8-0.1-0.9h-0.1l0,0l0,0v0.5l0,0l0,0l0,0l0,0l0,0
												l0,0l0,0l0,0l0,0l0,0l0,0l0,0l0,0L79.3,0.6c0-0.1,0-0.2,0-0.3s0-0.2,0-0.3l0,0V0.6z"/>
											<path class="st30" d="M79.3,0.6c0.1,0.4-0.2,0.5-0.4,0.3S78.5,0.1,78.8,0h-0.1l0,0l0,0v0.5l0,0l0,0l0,0l0,0l0,0l0,0l0,0
												l0,0l0,0l0,0l0,0l0,0l0,0L79.3,0.6c0-0.1,0-0.2,0-0.3s0-0.2,0-0.3V0.6z"/>
											<path class="st30" d="M79.3,0.7c0,0.4-0.2,0.4-0.4,0.2c-0.2-0.2-0.3-0.5-0.2-0.7l0,0v0.4l0,0l0,0l0,0l0,0l0,0l0,0l0,0
												l0,0l0,0l0,0l0,0l0,0l0,0L79.3,0.7c0.1-0.1,0.1-0.2,0.1-0.3s0-0.2,0-0.2l0,0L79.3,0.7z"/>
											<path class="st30" d="M79.3,0.7c0,0.4-0.2,0.4-0.4,0.2c-0.2-0.2-0.3-0.4-0.3-0.7v0.3l0,0l0,0l0,0l0,0l0,0l0,0l0,0l0,0
												l0,0l0,0l0,0l0,0l0,0h0.6c0.1,0,0.1-0.1,0.1-0.2s0-0.1,0-0.2L79.3,0.7z"/>
											<path class="st30" d="M79.3,0.7c0,0.3-0.2,0.4-0.5,0.2c-0.2-0.1-0.3-0.3-0.3-0.6v0.2l0,0l0,0l0,0l0,0l0,0l0,0l0,0l0,0
												l0,0l0,0l0,0l0,0l0,0h0.6c0.1,0,0.1-0.1,0.1-0.2s0-0.1,0-0.2l0,0L79.3,0.7z"/>
											<path class="st30" d="M79.3,0.7c0,0.4-0.3,0.4-0.5,0.1c-0.1-0.1-0.2-0.2-0.2-0.4v0.1l0,0l0,0l0,0l0,0l0,0l0,0l0,0l0,0
												l0,0l0,0l0,0l0,0l0,0h0.6c0.1,0,0.1-0.1,0.1-0.2V0.2V0.7z"/>
											<path class="st30" d="M79.3,0.8c0,0.3-0.3,0.3-0.5,0c-0.1-0.1-0.1-0.1-0.1-0.2l0,0l0,0l0,0l0,0l0,0l0,0l0,0l0,0l0,0l0,0
												l0,0h0.5c0.1,0,0.1-0.1,0.1-0.2c0,0,0,0,0-0.1l0,0V0.8z"/>
										</g>
									</g>
								</g>
							</g>
						</g>
						<path class="st30" d="M79,0.3c-0.1-0.1-0.3-0.1-0.3,0c0,0.2,0.1,0.4,0.2,0.5s0.3,0.1,0.3-0.1C79.2,0.6,79.1,0.4,79,0.3z"/>
						<path class="st32" d="M79,0.2c-0.2-0.1-0.4-0.1-0.4,0.1c0,0.3,0.1,0.5,0.3,0.7c0.1,0.1,0.3,0,0.3-0.2S79.1,0.3,79,0.2z
							 M78.8,1c-0.2-0.2-0.4-0.5-0.4-0.8s0.3-0.3,0.5-0.1s0.4,0.5,0.4,0.8S79,1.2,78.8,1z"/>
						<path class="st29" d="M82.1,12.8c-1.1,0.4-2.3,0.5-3.4,0.2s-1.9-1.1-2.3-2.2c-0.2,0.2-0.3,0.5-0.3,0.8
							c0.7,1.1,1.8,1.9,3.1,2.1c1.1,0.2,2.3,0.1,3.3-0.4L82.3,13L82.1,12.8z"/>
						<path class="st4" d="M84.5,16.4c-0.3,0.6-0.6,1.2-0.7,1.8c-0.4,0.3-1,0.4-1.5,0.3c-0.2,0-0.4-0.1-0.5-0.3l0.5-0.2l0,0
							c0.3,0,0.2-0.4,0.3-0.6c0.1-0.2,0-0.3-0.2-0.2c-0.2,0.1-0.2,0.3-0.4,0.3c-0.1,0-0.4-0.1-0.2-0.4c0.2-0.3,0.2-0.5,0.8-0.8
							c0.2-0.1,0.3-0.1,0.6-0.6L84.5,16.4z"/>
						<path class="st19" d="M84.5,16.4c-0.3,0.6-0.6,1.2-0.7,1.8c-0.2,0.3-0.6,0.3-1.2,0.3c0.2-0.1,0.7,0,0.9-0.7
							C83.7,17.2,84.2,17,84.5,16.4c-0.2-0.1-1.1-0.6-1.1-0.6l0,0L84.5,16.4z"/>
						<path class="st15" d="M83.9,5.3c0,0,1.6,0.9,2.1,4.6c0,0-1.3,1.5-2.7,0.5c0,0-2.1-3.3-1-4.9C82.2,5.5,82.7,4.7,83.9,5.3z"/>
						<path class="st17" d="M83.2,10.4c0,0-1.7-2.8-1.1-4.5c0.3,1.8,1.3,3.5,2.6,4.8C84.2,10.8,83.6,10.7,83.2,10.4z"/>
						<path class="st33" d="M28.4,156.3h17.5c0.9,0.1,1.7-0.6,1.8-1.5V53.5c-0.1-0.9-0.9-1.6-1.8-1.5H28.4c-0.9-0.1-1.7,0.6-1.8,1.5
							v101.3C26.7,155.7,27.5,156.4,28.4,156.3z"/>
						<rect x="25.6" y="149.3" class="st34" width="23.2" height="5.5"/>
						<rect x="25.6" y="149.3" class="st35" width="23.2" height="1.4"/>
						<rect x="25.6" y="153.4" class="st36" width="23.2" height="1.4"/>
						<rect x="25.6" y="142" class="st34" width="23.2" height="5.5"/>
						<rect x="25.6" y="142" class="st35" width="23.2" height="1.4"/>
						<rect x="25.6" y="146.1" class="st36" width="23.2" height="1.4"/>
						<rect x="25.6" y="134.6" class="st34" width="23.2" height="5.5"/>
						<rect x="25.6" y="134.6" class="st35" width="23.2" height="1.4"/>
						<rect x="25.6" y="138.7" class="st36" width="23.2" height="1.4"/>
						<rect x="25.6" y="127.3" class="st34" width="23.2" height="5.5"/>
						<rect x="25.6" y="127.3" class="st35" width="23.2" height="1.4"/>
						<rect x="25.6" y="131.4" class="st36" width="23.2" height="1.4"/>
						<rect x="25.6" y="119.9" class="st34" width="23.2" height="5.5"/>
						<rect x="25.6" y="119.9" class="st35" width="23.2" height="1.4"/>
						<rect x="25.6" y="124" class="st36" width="23.2" height="1.4"/>
						<rect x="25.6" y="112.6" class="st34" width="23.2" height="5.5"/>
						<rect x="25.6" y="112.6" class="st35" width="23.2" height="1.4"/>
						<rect x="25.6" y="116.7" class="st36" width="23.2" height="1.4"/>
						<rect x="25.6" y="105.3" class="st34" width="23.2" height="5.5"/>
						<rect x="25.6" y="105.3" class="st35" width="23.2" height="1.4"/>
						<rect x="25.6" y="109.3" class="st36" width="23.2" height="1.4"/>
						<rect x="25.6" y="97.9" class="st34" width="23.2" height="5.5"/>
						<rect x="25.6" y="97.9" class="st35" width="23.2" height="1.4"/>
						<rect x="25.6" y="102" class="st36" width="23.2" height="1.4"/>
						<rect x="25.6" y="90.6" class="st34" width="23.2" height="5.5"/>
						<rect x="25.6" y="90.6" class="st35" width="23.2" height="1.4"/>
						<rect x="25.6" y="94.7" class="st36" width="23.2" height="1.4"/>
						<rect x="25.6" y="83.2" class="st34" width="23.2" height="5.5"/>
						<rect x="25.6" y="83.2" class="st35" width="23.2" height="1.4"/>
						<rect x="25.6" y="87.3" class="st36" width="23.2" height="1.4"/>
						<rect x="25.6" y="75.9" class="st34" width="23.2" height="5.5"/>
						<rect x="25.6" y="75.9" class="st35" width="23.2" height="1.4"/>
						<rect x="25.6" y="80" class="st36" width="23.2" height="1.4"/>
						<rect x="25.6" y="68.5" class="st34" width="23.2" height="5.5"/>
						<rect x="25.6" y="68.5" class="st35" width="23.2" height="1.4"/>
						<rect x="25.6" y="72.6" class="st36" width="23.2" height="1.4"/>
						<rect x="25.6" y="61.2" class="st34" width="23.2" height="5.5"/>
						<rect x="25.6" y="61.2" class="st35" width="23.2" height="1.4"/>
						<rect x="25.6" y="65.3" class="st36" width="23.2" height="1.4"/>
						<rect x="25.6" y="53.8" class="st34" width="23.2" height="5.5"/>
						<rect x="25.6" y="53.8" class="st35" width="23.2" height="1.4"/>
						<rect x="25.6" y="57.9" class="st36" width="23.2" height="1.4"/>
						<path class="st33" d="M97.3,156.3h17.5c0.9,0.1,1.7-0.6,1.8-1.5V53.5c-0.1-0.9-0.9-1.6-1.8-1.5H97.3c-0.9-0.1-1.7,0.6-1.8,1.5
							v101.3C95.6,155.7,96.4,156.4,97.3,156.3z"/>
						<rect x="94.5" y="149.3" class="st34" width="23.2" height="5.5"/>
						<rect x="94.5" y="149.3" class="st35" width="23.2" height="1.4"/>
						<rect x="94.5" y="153.4" class="st36" width="23.2" height="1.4"/>
						<rect x="94.5" y="142" class="st34" width="23.2" height="5.5"/>
						<rect x="94.5" y="142" class="st35" width="23.2" height="1.4"/>
						<rect x="94.5" y="146.1" class="st36" width="23.2" height="1.4"/>
						<rect x="94.5" y="134.6" class="st34" width="23.2" height="5.5"/>
						<rect x="94.5" y="134.6" class="st35" width="23.2" height="1.4"/>
						<rect x="94.5" y="138.7" class="st36" width="23.2" height="1.4"/>
						<rect x="94.5" y="127.3" class="st34" width="23.2" height="5.5"/>
						<rect x="94.5" y="127.3" class="st35" width="23.2" height="1.4"/>
						<rect x="94.5" y="131.4" class="st36" width="23.2" height="1.4"/>
						<rect x="94.5" y="119.9" class="st34" width="23.2" height="5.5"/>
						<rect x="94.5" y="119.9" class="st35" width="23.2" height="1.4"/>
						<rect x="94.5" y="124" class="st36" width="23.2" height="1.4"/>
						<rect x="94.5" y="112.6" class="st34" width="23.2" height="5.5"/>
						<rect x="94.5" y="112.6" class="st35" width="23.2" height="1.4"/>
						<rect x="94.5" y="116.7" class="st36" width="23.2" height="1.4"/>
						<rect x="94.5" y="105.3" class="st34" width="23.2" height="5.5"/>
						<rect x="94.5" y="105.3" class="st35" width="23.2" height="1.4"/>
						<rect x="94.5" y="109.3" class="st36" width="23.2" height="1.4"/>
						<rect x="94.5" y="97.9" class="st34" width="23.2" height="5.5"/>
						<rect x="94.5" y="97.9" class="st35" width="23.2" height="1.4"/>
						<rect x="94.5" y="102" class="st36" width="23.2" height="1.4"/>
						<rect x="94.5" y="90.6" class="st34" width="23.2" height="5.5"/>
						<rect x="94.5" y="90.6" class="st35" width="23.2" height="1.4"/>
						<rect x="94.5" y="94.7" class="st36" width="23.2" height="1.4"/>
						<rect x="94.5" y="83.2" class="st34" width="23.2" height="5.5"/>
						<rect x="94.5" y="83.2" class="st35" width="23.2" height="1.4"/>
						<rect x="94.5" y="87.3" class="st36" width="23.2" height="1.4"/>
						<rect x="94.5" y="75.9" class="st34" width="23.2" height="5.5"/>
						<rect x="94.5" y="75.9" class="st35" width="23.2" height="1.4"/>
						<rect x="94.5" y="80" class="st36" width="23.2" height="1.4"/>
						<rect x="94.5" y="68.5" class="st34" width="23.2" height="5.5"/>
						<rect x="94.5" y="68.5" class="st35" width="23.2" height="1.4"/>
						<rect x="94.5" y="72.6" class="st36" width="23.2" height="1.4"/>
						<rect x="94.5" y="61.2" class="st34" width="23.2" height="5.5"/>
						<rect x="94.5" y="61.2" class="st35" width="23.2" height="1.4"/>
						<rect x="94.5" y="65.3" class="st36" width="23.2" height="1.4"/>
						<rect x="94.5" y="53.8" class="st34" width="23.2" height="5.5"/>
						<rect x="94.5" y="53.8" class="st35" width="23.2" height="1.4"/>
						<rect x="94.5" y="57.9" class="st36" width="23.2" height="1.4"/>
						<path class="st37" d="M-7.3,60.5H7.9c4.1,0,8.1,0.3,12.1,1l15.3,3.7c22.4,5.5,45.7,5.8,68.2,1l20.9-4.4
							c3.5-0.5,7-0.8,10.5-0.9l18.2-0.6l-2.4,52.7l-158.1-8.6V60.5H-7.3z"/>
						<path class="st38" d="M113.6,33.9c-13.1-1.4-26.3-2-39.4-2c-13,0.1-26,0.9-39,2.4c-4.9,9.3-9.8,18.7-14.7,28
							c17.8,4.6,36.2,6.9,54.6,6.8c18-0.1,36-2.4,53.4-6.8C125,52.5,117.2,43.8,113.6,33.9z"/>
					</g>
				</g>
			</g>
			<rect x="69.2" y="39.9" class="st39" width="0.9" height="3.7"/>
			<rect x="71" y="39.9" class="st39" width="0.9" height="3.7"/>
			<rect x="72.8" y="39.9" class="st39" width="0.9" height="3.7"/>
			<rect x="74.5" y="39.9" class="st39" width="0.9" height="3.7"/>
			<rect x="76.3" y="39.9" class="st39" width="0.9" height="3.7"/>
			<rect x="78.1" y="39.9" class="st39" width="0.9" height="3.7"/>
			<rect x="79.9" y="39.9" class="st39" width="0.9" height="3.7"/>
			<circle class="st40" cx="74" cy="67.6" r="1.4"/>
			<circle class="st41" cx="74" cy="67.6" r="0.8"/>
			<rect x="73.8" y="65.5" class="st41" width="0.3" height="4"/>
			<rect x="72" y="67.4" class="st41" width="4" height="0.3"/>
			<rect x="85.9" y="67.4" class="st41" width="4" height="0.3"/>
			<rect x="58.6" y="67.4" class="st41" width="4" height="0.3"/>
			<rect x="85.9" y="67.4" class="st40" width="0.1" height="0.4"/>
			<path class="st40" d="M89.4,67.7h-0.3v-0.4h0.3V67.7z M88.8,67.7h-0.3v-0.4h0.3V67.7z M88.3,67.7H88v-0.4h0.3V67.7z M87.7,67.7
				h-0.3v-0.4h0.3V67.7z M87.1,67.7h-0.3v-0.4h0.3V67.7z M86.6,67.7h-0.3v-0.4h0.3V67.7z"/>
			<rect x="89.7" y="67.4" class="st40" width="0.1" height="0.4"/>
			<rect x="62.4" y="67.4" class="st40" width="0.1" height="0.4"/>
			<path class="st40" d="M59,67.7h0.3v-0.4H59V67.7z M59.6,67.7h0.3v-0.4h-0.3V67.7z M60.2,67.7h0.3v-0.4h-0.4L60.2,67.7z
				 M60.7,67.7H61v-0.4h-0.3V67.7z M61.3,67.7h0.3v-0.4h-0.3V67.7z M61.9,67.7h0.3v-0.4h-0.3V67.7z"/>
			<rect x="58.6" y="67.4" class="st40" width="0.1" height="0.4"/>
			<g class="st42">
				<path class="st30" d="M74.5,53.6h1.4v2.3h4.6v6.6h-1.4v-0.9h-3.2v4.1h-1.4v-4.1h-3.2v0.9H70v-6.7h4.5V53.6z M71.4,60.3h3.2v-3.2
					h-3.2V60.3z M79.2,57.1h-3.2v3.2h3.2V57.1z"/>
			</g>
		</g>
	</g>
</g>
</svg>
