<?xml version="1.0" encoding="utf-8"?>
<!-- Generator: Adobe Illustrator 26.0.1, SVG Export Plug-In . SVG Version: 6.00 Build 0)  -->
<svg version="1.1" id="Layer_1" xmlns="http://www.w3.org/2000/svg" xmlns:xlink="http://www.w3.org/1999/xlink" x="0px" y="0px"
	 viewBox="0 0 150 85.4" style="enable-background:new 0 0 150 85.4;" xml:space="preserve">
<style type="text/css">
	.st0{clip-path:url(#SVGID_00000018210269734361785640000001573798835552692667_);}
	.st1{fill:#BCCFE1;}
	.st2{fill:#9B7968;stroke:#231F20;stroke-width:0.5;stroke-linecap:round;stroke-linejoin:round;}
	.st3{fill:#F2AB43;stroke:#211E1E;stroke-width:0.5;stroke-miterlimit:10;}
	.st4{fill:#595857;stroke:#231916;stroke-width:0.5;stroke-linecap:round;stroke-linejoin:round;}
	.st5{fill:#056FB8;stroke:#231916;stroke-width:0.5;stroke-linecap:round;stroke-linejoin:round;}
	.st6{opacity:0.8;fill:#34AD6F;enable-background:new    ;}
	.st7{fill:#EAAF85;}
	.st8{fill-rule:evenodd;clip-rule:evenodd;fill:#EAAF85;}
	.st9{fill:#E1A075;}
	.st10{fill:#E49C29;}
	.st11{opacity:0.2;}
	.st12{fill:#5D5E5E;}
	.st13{fill:#1D160D;}
	.st14{fill:#12110D;}
	.st15{fill:#251C13;}
	.st16{fill:#EB8127;}
	.st17{fill:#D56C2A;}
	.st18{fill:#ED8B2D;}
	.st19{fill:#545359;}
	.st20{fill:#3E3941;}
	.st21{fill:#646368;}
	.st22{fill:#D59368;}
	.st23{fill-rule:evenodd;clip-rule:evenodd;fill:#E1A075;}
	.st24{fill:#3D220F;}
	.st25{fill:#4D2C14;}
	.st26{fill:#331E0F;}
	.st27{fill:#2E190E;}
	.st28{fill:#4A2711;}
	.st29{fill:#C72A27;}
	.st30{fill:#D3372A;}
	.st31{fill:#E05E2F;}
	.st32{fill:#D3412B;}
	.st33{fill:#492E28;}
	.st34{fill:#FFFFFF;}
	.st35{clip-path:url(#SVGID_00000032608802606597640130000002862312954438547868_);}
	.st36{fill:#553730;}
	.st37{fill:#DE2726;}
	.st38{fill:#C2E6FA;}
	.st39{fill:#00A1E9;}
	.st40{enable-background:new    ;}
</style>
<g id="Layer_2_00000114774354445568511600000001865096796262108340_">
	<g id="Layer_5">
		<g>
			<g>
				<defs>
					<rect id="SVGID_1_" y="0.7" width="150" height="84"/>
				</defs>
				<clipPath id="SVGID_00000087386580932395520020000009209827928771350950_">
					<use xlink:href="#SVGID_1_"  style="overflow:visible;"/>
				</clipPath>
				<g style="clip-path:url(#SVGID_00000087386580932395520020000009209827928771350950_);">
					<rect x="-1.4" y="-3.1" class="st1" width="152.7" height="90.7"/>
					<path class="st2" d="M150.6,42.4c0,4,0,44,0,44H-1.1c0,0,0-40.1,0-44c0.2-23.5,42-42.8,76.2-42.8
						C109.1-0.5,150.3,18.6,150.6,42.4z"/>
					<path class="st3" d="M99.2,81.7h-48c-2.4,0-4.3-1.9-4.3-4.3V60.9c0-1.9,1.3-3.6,3.1-4.1c16.5-4.7,33.9-4.7,50.4,0
						c1.8,0.5,3.1,2.2,3.1,4.1v16.5C103.5,79.8,101.6,81.7,99.2,81.7L99.2,81.7z"/>
					<path class="st4" d="M46.9,64.9c-8.8,2.2-17.8,3.8-26.9,4.8c-9.3,1-18.6,1.4-28,1.1V55.3c9,2.2,18.2,3.6,27.5,4.4
						c9.1,0.7,18.2,0.8,27.3,0.2L46.9,64.9L46.9,64.9z"/>
					<path class="st4" d="M46.8,59.8l-2.6-0.4C35,59.5,26,58.8,17,57.4C8.4,56,0.1,53.7-8,50.5v4.8c10,2.6,20.2,4.2,30.6,4.8
						C30.7,60.6,38.7,60.5,46.8,59.8z"/>
					<path class="st4" d="M103.5,64.9c8.8,2.2,17.8,3.8,26.9,4.8c9.3,1,18.6,1.4,28,1.1V55.3c-9,2.2-18.2,3.6-27.5,4.4
						c-9.1,0.7-18.2,0.8-27.3,0.2L103.5,64.9z"/>
					<path class="st4" d="M103.6,59.8l2.6-0.4c9.1,0.1,18.2-0.6,27.2-2c8.5-1.4,16.9-3.7,24.9-6.8v4.8c-10,2.5-20.2,4.1-30.6,4.7
						C119.7,60.6,111.6,60.5,103.6,59.8z"/>
					<path class="st4" d="M66.4,69h22.3c4.5,0,8.1,3.6,8.1,8.1l0,0l0,0l0,0H58.2l0,0l0,0C58.2,72.6,61.9,69,66.4,69z"/>
					<path class="st4" d="M103.6,80.3H51.4c-0.6,0-1.2-0.3-1.7-0.7c-0.4-0.4-0.7-1-0.7-1.7l0,0c0-3.2,2.6-5.8,5.8-5.8l0,0h45.4
						c3.2,0,5.8,2.6,5.8,5.8l0,0l0,0C106,79.3,104.9,80.3,103.6,80.3L103.6,80.3z"/>
					<path class="st5" d="M54.8,80.2l-5.7,11.4h54.4l-6.7-11.4C83,76.1,68.4,76.1,54.8,80.2L54.8,80.2z"/>
					<path class="st6" d="M115.8,78.2H111l-8.7-6.8c0.4-2.5,0.5-5.1,0.4-7.7c0-2.1-1-4.1-2.6-5.5c-4.6-3.1-14.3-4.4-25.2-4.6
						c-10.4-0.1-20.2,2.1-24.7,4.9c-1.7,1.5-2.6,3.6-2.5,5.9c0.1,5.3,0.2,7,0.2,7l-8.2,6.8h-4.5c-2.2-9.7-2.8-19.6-1.8-29.5
						c0.9-7.3,2.5-14.6,4.7-21.6c24.4-3.4,49.1-3.4,73.4,0c1.9,6,4.7,12.2,5.7,21.7C118.3,59.9,116.8,71.2,115.8,78.2z"/>
					<path class="st7" d="M77.4,8C77,7.2,76,7,75.3,7.5c-0.2,0.1-0.3,0.3-0.4,0.4c-1.2,1.4-2.2,3-3,4.7l-5.1,3.6c0,0,0,0.9,0.5,0.9
						c2.5-0.6,4.8-1.8,6.6-3.5C75.7,11.5,77.8,9.5,77.4,8z"/>
					<path class="st8" d="M67.4,15.7c-0.6,0.8-2.3,1-2.6,1.1c-0.4,0.4-0.7,0.9-0.6,1.5c0,0.1,0,0.2,0.1,0.2l0.5-0.4H65
						c0-0.3,0.5-0.2,0.7-0.3c0.2-0.1,0.4,0,0.3,0.1c-0.2,0.1-0.4,0.3-0.5,0.4s0.1,0.4,0.5,0.1c0.4-0.2,0.7-0.2,1.1-0.9
						c0.1-0.2,0.1-0.4,0.9-0.6L67.4,15.7z"/>
					<path class="st9" d="M68,17c2.6-1.2,4.9-3.1,6.6-5.4l0.9,0.1c-0.5,0.6-1.1,1.3-1.7,1.9C72.2,15.2,70.2,16.3,68,17z"/>
					<path class="st7" d="M83.4,9.5c0,0-2.4-0.3-2.2,1.7c0.3,1.8,0.9,3.5,1.8,5.1L82.2,22c0,0,0.9,0.6,1.3,0.3s2.7-4.1,2.2-6.7
						S85.2,10.4,83.4,9.5z"/>
					<path class="st9" d="M83.7,22.1c2.2-5.3,0.9-7.7,0.9-7.7l0.7-0.8c0.1,0.7,0.2,1.5,0.3,2.1C86.1,17.9,84.4,21.1,83.7,22.1z"/>
					<path class="st10" d="M73.4,18c-1,2.1-1.5,4.4-1.5,6.7l8.2-0.3c1.1-1.7,1.4-3.7,0.8-5.6L73.4,18z"/>
					<g class="st11">
						<path class="st12" d="M86.8,34.2c5.1,2.8,3.5,7.3-3.6,10c-7,2.6-16.8,2.6-22-0.2c-5.1-2.8-3.5-7.3,3.6-10S81.7,31.5,86.8,34.2
							z"/>
					</g>
					<path class="st13" d="M82.4,34.4c0.3,0,0.6,0.3,0.8,0.4c0.2,0.2,0.3,0.4,0.4,0.7c0,0.5-1.3,1.3-1.5,1.7
						c-0.4,0.6-0.8,1.1-1.2,1.6c-0.3,0.3-0.6,0.6-1,0.8c-0.8,0.2-1.6,0.2-2.3,0c-0.3-0.2-0.4-0.5-0.3-0.7c0.5-0.8,1-0.9,1.3-1.5
						c0.2-0.4,0.4-0.7,0.6-1.1c0.1-0.2,0.4-1.2,0.7-1.1L82.4,34.4z"/>
					<path class="st14" d="M77.6,39.8c0.8,0.2,1.6,0.2,2.3,0c0.4-0.2,0.7-0.5,1-0.8c0.5-0.5,0.9-1.1,1.2-1.7
						c0.2-0.4,1.5-1.3,1.5-1.7c-0.1-0.3-0.2-0.5-0.4-0.7c-0.7,0.8-1.4,1.7-1.9,2.7c-0.5,0.7-1.1,1.3-1.7,1.9c-1.5,0.5-2-0.1-2.2-0.5
						l-0.1,0.1C77.1,39.4,77.2,39.7,77.6,39.8z"/>
					<path class="st15" d="M79.2,36.5c-0.2,0.4-0.4,0.8-0.6,1.1c-0.3,0.4-0.6,0.7-0.9,1c0,0.4,0.3,1,1.1,0.4c0.6-0.5,1.1-1,1.6-1.5
						c0.4-0.3,0.6-0.7,0.7-1.2c0-0.4-0.1-0.8-0.4-1.2l-0.8,0.3C79.6,35.3,79.3,36.3,79.2,36.5z"/>
					<path class="st13" d="M74.3,39.6c0.3,0,0.5,0.4,0.6,0.6c0.2,0.4,0.1,0.8-0.2,1.1c-0.4,0.4-1.2,0.5-1.6,0.8
						c-0.8,0.5-1.6,1-2.5,1.5c-0.5,0.2-1.5,0.4-1.7-0.1c-0.2-0.3-0.2-0.7,0-1c0.4-0.4,0.8-0.8,1.3-1.2c0.2-0.2,0.5-0.4,0.7-0.7
						c0.1-0.2,0.7-0.9,1-0.8L74.3,39.6z"/>
					<path class="st14" d="M70.6,43.6c0.9-0.4,1.7-0.9,2.5-1.5c0.3-0.3,1.1-0.4,1.6-0.8c0.2-0.2,0.4-0.5,0.3-0.8
						c-0.4,0.8-1.7,1-2.1,1.2c-0.4,0.3-1.6,0.9-2.2,1.3c-0.6,0.3-1.2,0.4-1.8,0.4C69.1,44,70.1,43.8,70.6,43.6z"/>
					<path class="st15" d="M70.9,40.6c-0.2,0.2-0.4,0.5-0.7,0.7c-0.4,0.4-0.9,0.8-1.3,1.2c-0.1,0.2-0.2,0.4-0.1,0.6
						c0.3,0.1,0.5,0,0.7-0.2c1-0.7,0.8-0.8,1.4-1.2c0.5-0.4,1.5-0.7,1.6-1.2c0-0.2,0-0.5,0-0.7h-0.7C71.6,39.6,71,40.4,70.9,40.6z"
						/>
					<path class="st16" d="M82.5,34.4c-0.1-1.5-3.2-4-5.9-5.5c0.1-1.1,0-2.3,0.1-3.4c0.1-1.5-0.1-3.3,0.2-4.8c-1-1-2.1-2-3.3-2.8
						c-1,1.2-1.6,2.8-1.6,4.4c0.4,1-0.1,1.4,0,2.4s-0.1,5.1,0.1,6.7c0,0.2,0.1,0.4,0.3,0.5c0.1,0.1,0.1,0.1,0.2,0.1l0,0
						c0,0,5.5,2.6,6.9,4.3l0.2,0.3c0.1,0.2,0.4,0.3,0.6,0.2c0.4-0.1,0.7-0.3,1-0.5C81.9,35.9,82.4,35.2,82.5,34.4z"/>
					<path class="st17" d="M82.5,34.4c-0.1-1.5-3.2-4-5.9-5.5c0.1-1.1,0-2.3,0.1-3.4c0.1-1.5-0.2-2.9,0-4.4c0-0.2,0.7-1.7-1.5-1.6
						l0.1-0.3c-0.6,0.4-0.8,1.7-0.8,1.7c-0.4,1-0.6,2-0.6,3.1s-0.1,5.1,0.1,6.7c0,0.2,0.2,0.4,0.3,0.5c0.1,0.1,0.1,0.1,0.2,0.1l0,0
						c0,0,5.5,2.6,6.9,4.3l0.2,0.2C82.1,35.5,82.4,35,82.5,34.4z"/>
					<path class="st18" d="M72,22.1c-0.1,0.9-0.1,1.8,0,2.7c0,1-0.1,5.1,0.1,6.7c0,0.2,0.1,0.4,0.3,0.5c0.1,0.1,0.1,0.1,0.2,0.1l0,0
						c0,0,5.5,2.6,6.9,4.3l0.2,0.3c0.1,0.2,0.4,0.3,0.6,0.2c0.3-0.1,0.5-0.2,0.8-0.3c-2.4-2-5-3.8-7.7-5.5c-1-0.4,0.2-10.3,0.2-13.1
						C72.7,18.4,72.1,21,72,22.1z"/>
					<path class="st16" d="M79.9,17.7c-1.8-1.4-2.9,1.5-2.9,1.5c-0.3,1-1.4,4.7-1.6,5.6c-0.3,0.9-1.5,4.6-1.7,5.1
						c-0.1,0.4-0.2,0.7-0.2,1.1l0,0c0,0-0.8,6.3-1.8,8.3l-0.1,0.3c-0.1,0.2-0.1,0.4,0,0.5c0.2,0.2,0.5,0.4,0.8,0.5
						c0.7,0.2,1.5,0.2,2.2-0.2c1.5-1,2.6-5.6,2.8-8.3c0.1-0.5,0.2-1,0.3-1.5c0.6-1.2,1.2-2.5,1.7-3.9c0.6-1.2,0.9-2.5,1.6-3.7
						C82.1,21.4,81.7,19,79.9,17.7C80,17.7,80,17.7,79.9,17.7z"/>
					<path class="st17" d="M74.5,40.4c1.5-1,2.6-5.6,2.8-8.3c0.1-0.5,0.2-1,0.3-1.5c0.6-1.2,1.2-2.5,1.7-3.9c0.4-1,0.9-1.9,1.5-2.8
						c0.8-1.5,1-3.4,0.4-5l0,0c-2.3-0.7-3.4,6.3-3.4,6.3c-0.3,1-0.7,1.6-1,2.5c-0.4,1-0.9,1.9-1.5,2.7c-0.1,0.4-0.2,0.7-0.2,1.1l0,0
						c0,0-0.8,6.3-1.8,8.3l-0.1,0.3c-0.1,0.1-0.1,0.3,0,0.4C73.6,40.7,74.1,40.7,74.5,40.4z"/>
					<path class="st18" d="M73.6,29.9c-0.1,0.4-0.2,0.7-0.2,1.1l0,0c0,0-0.8,6.3-1.8,8.3l-0.1,0.3c-0.1,0.2-0.1,0.4,0,0.5
						c0.2,0.2,0.4,0.3,0.6,0.4c0.7-1.6,1.3-3.3,1.7-5C73.9,28.2,78,20,78,20h-1.2c-0.2,0.5-1.2,4.1-1.5,4.8
						C75,25.9,73.9,29.3,73.6,29.9z"/>
					<path class="st19" d="M77.7,7.8c0,0,0,1.6-2.9,4.3c0,0-2.3,0.1-2.4-1.5c0,0,1.7-3.4,3.9-3.8c0.6-0.1,1.2,0.2,1.4,0.8
						C77.7,7.7,77.7,7.7,77.7,7.8z"/>
					<path class="st19" d="M81.9,8.4c1.3,0.7,4.3,2.1,1.9,4.6c0,0-1.8,1.8-2.7,2.6c-0.9,0.6-1.3,1.8-0.9,2.8
						c-1.9,1.7-4.8,1.5-6.5-0.4c-0.1-0.1-0.2-0.2-0.3-0.4c0.4-1.3,0.6-2.7,0.6-4.1c-0.1-1.5-0.6-6,2.7-7C78.1,6.2,79.2,6.9,81.9,8.4
						z"/>
					<path class="st20" d="M83.8,13c-0.6,0.9-1.3,1.7-2,2.5c-0.9,0.6-1.4,1.8-1.1,2.9c-1.2,0.8-2.5,1.2-3.9,1.1
						c2.5-2.6,2.7-4.1,2.8-5.5c0.1-2.3,0.6-3.8,1.8-4.7c0.4-0.3,0.9-0.4,1.5-0.4C84,9.5,85.5,10.7,83.8,13z"/>
					<path class="st21" d="M73.5,17.7c0.4-1.3,0.6-2.7,0.6-4.1c-0.1-1.5-0.6-6,2.7-7c0.8-0.2,1.3,0.2,2.4,0.4
						c-2.6,0.7-4.3,3.1-4,5.7c0.3,2.2,0.4,4.4,0.3,6.6C74.8,18.9,74.1,18.4,73.5,17.7z"/>
					<path class="st9" d="M77.3,8.2c0.4,0.4,0.6,0.9,0.5,1.5c-0.2,0.7,1.7,0.7,3.1-1.6c0,0-0.7-0.4,0.2-2.5L77.3,8.2z"/>
					<path class="st22" d="M77.7,8.6c1-0.4,2-0.6,3.1-0.6c0,0-0.4-0.3,0-1.6c0.7-0.7,1.1-1.6,0.9-2.6c-0.2-0.9-1-1.5-1.9-1.5
						C79.8,2.4,82.2,5.5,77.7,8.6z"/>
					<path class="st7" d="M76.2,4.8C76.2,5,76.5,5,76.1,6c-0.3,0.6-0.2,0.6,0,1.6c0.1,0.6,0.4,1.7,2.5,0.6c1-0.7,1.9-1.6,2.7-2.6
						c0.7-1,0.5-2.3-0.5-3C80.8,2.6,76.3,1.5,76.2,4.8z"/>
					<path class="st23" d="M76.3,4.4C76.8,4.7,77.4,4.9,78,5c0,0,1-0.1,1,0.2c-0.1,0.4-0.2,0.9-0.5,1.2c-0.3,0.4-0.6,0.8-0.8,1.3
						c0,0.1-0.3,0.9-0.8,0.9c0,0,1.3,0.3,3.1-1.6c0,0,1.5-1.5,1.5-1.7s-1.9-1-2.4-1.1s-2.6-0.6-2.6-0.6S76.3,4.3,76.3,4.4z"/>
					<path class="st24" d="M76.4,3.7c0,0.6,1.6,0.9,2.7,1c0.4,0,0.7,0.3,0.3,1.3s0.3,1.1,0.3,0.9c0.2-0.8,1.2-1.5,1-0.2
						c0,0,2.2-2,1.6-3.4c-0.5-0.8-1.8-1.7-4.5-0.8C77.3,2.6,76.5,3,76.4,3.7z"/>
					<path class="st24" d="M79.4,6c-0.4,1.1,0.3,1,0.3,1c0.2-1,1.3-1.5,1-0.3c0,0,2.2-2,1.6-3.4C82,2.8,81.5,2.4,81,2.2
						c1.3,2-1.1,2.1-1.7,2.5C79.6,4.8,79.7,5.2,79.4,6z"/>
					<path class="st25" d="M79.5,5.4c0,0,0.5-0.4,0.5,0c0.2-0.1,0.4-0.4,0.4-0.6c0.2,0,0.4,0.2,0.4,0.4l0,0c0,0,0.5-0.4,0.3-0.7
						c0.2,0.2,0.4,0.4,0.4,0.7c0,0,0.5-0.6,0.4-1c0,0,0.2,0,0.2,0.5c0.4-0.5,0.3-1.2,0-1.7c0,0,0,1.1-2.7,1.7
						C79.5,4.9,79.6,5.2,79.5,5.4z"/>
					<path class="st26" d="M80.4,6c0,0,1,0,1.3-0.6c-0.3,0.4-0.7,0.9-1.1,1.2C80.7,6.7,80.9,6,80.4,6z"/>
					<path class="st27" d="M82.1,3c0,0-0.1,1.2-2.7,1.7c0,0-2.2,0.2-2.9-0.8c-0.1-0.2,0-0.4,0.1-0.6c0,0,0,0.5,0.4,0.6
						c0,0-0.1-0.3,0-0.4C77.1,3.8,77.3,4,77.6,4c-0.1-0.1,0-0.3,0.1-0.4c0.2,0.4,0.7,0.7,1.1,0.7c-0.1-0.1-0.2-0.2-0.3-0.4
						c0.4,0.3,0.8,0.4,1.3,0.3c0,0-0.5-0.1-0.5-0.4c0.5,0.1,1,0.1,1.5-0.1c-0.2,0-0.4,0-0.6-0.1C80.3,3.6,81.8,3.5,82.1,3z"/>
					<path class="st28" d="M81.6,2.6c0,0-1.6-1.3-4.4,0c0,0,1.2-0.2,1.6-0.3c0.4,0-0.3,0.2-0.7,0.3c0.5,0,1.1-0.1,1.6-0.2
						c0.5,0,1.4,0,0.8,0.1C79.9,2.7,81.5,2.5,81.6,2.6z"/>
					<path class="st29" d="M82,5.1c-2,0.9-4.2,1.2-6.3,0.8c0,0-1.7-0.4,0.7-1.6L82,5.1z"/>
					<path class="st30" d="M76.4,4.2l4,0.5c-1.4,1-3,1.4-4.7,1.2C74.6,5.4,75.2,4.8,76.4,4.2z"/>
					<path class="st31" d="M82.4,4.1c0,0,0.4-2.3-2.6-2.5c-1.7-0.1-3.3,1.1-3.7,2.8c1.7,1.2,4,1.5,5.9,0.6
						C82.2,4.7,82.4,4.4,82.4,4.1z"/>
					<path class="st32" d="M82.4,4.1c0,0.3-0.2,0.6-0.4,0.8c-1.4,0.7-3,0.8-4.5,0.3l-0.1-0.1c0.4-1.8,2-3.1,3.9-3.2
						C82.1,2.4,82.5,3.2,82.4,4.1z"/>
					<path class="st33" d="M82,5.1c0,0-3.6,1.5-5.9-0.7V4.1c1.7,1.3,4,1.6,6,0.7L82,5.1z"/>
					<path class="st33" d="M76.4,4.5L76.4,4.5L76.4,4.5L76.4,4.5L76.4,4.5L76.4,4.5L76.4,4.5L76.4,4.5L76.4,4.5l0.4-0.2h0.4l0,0l0,0
						l0,0l0,0l0,0l0,0l0,0l0,0l0,0l0,0l0,0l0,0l0,0l0,0v0.1l0,0l0,0l0,0l0,0v0.7l0,0l0,0l0,0l0,0l0,0l0,0l0,0l0,0L77,5.2l0,0l0,0
						l0,0l0,0l0,0c-0.3-0.2-0.5-0.5-0.4-0.9L76.4,4.5z M76.9,4.5L76.9,4.5L76.9,4.5L76.9,4.5L76.9,4.5L76.9,4.5v0.2l0,0v0.1l0,0v0.1
						l0,0H77l0,0l0,0l0,0l0,0c0,0,0,0,0-0.1V5l0,0l0,0V4.9l0,0l0,0l0,0V4.8l0,0l0,0l0,0h-0.1h-0.1l0,0l0,0l0,0V5L76.9,4.5z M77,4.3
						L77,4.3z M77,4.3L77,4.3z M77.4,4.2L77.4,4.2z"/>
					<path class="st33" d="M77.2,4.1L77.2,4.1L77.2,4.1z"/>
					<g>
						<path class="st34" d="M76.8,4.4L76.8,4.4l-0.2,0.1c0,0.1,0,0.2,0,0.4c0.1,0.2,0.2,0.4,0.5,0.5c0.1,0,0.1,0,0.2,0
							s0.2-0.1,0.2-0.2c0-0.3-0.1-0.6-0.4-0.7v0.1c0.2,0.1,0.3,0.3,0.3,0.5S77.2,5.3,77,5.2c-0.2-0.1-0.3-0.3-0.3-0.5
							c0-0.1,0.2-0.2,0.3-0.2c0,0,0.1,0,0.1,0.1V4.5C77,4.3,76.9,4.3,76.8,4.4z"/>
						<g>
							<g>
								<defs>
									<path id="SVGID_00000041292774483576303910000001741209017879547793_" d="M76.8,4.4L76.8,4.4l-0.2,0.1c0,0.1,0,0.2,0,0.4
										c0.1,0.2,0.2,0.4,0.5,0.5c0.1,0,0.1,0,0.2,0s0.2-0.1,0.2-0.2c0-0.3-0.1-0.6-0.4-0.7v0.1c0.2,0.1,0.3,0.3,0.3,0.5
										S77.2,5.3,77,5.2c-0.2-0.1-0.3-0.3-0.3-0.5c0-0.1,0.2-0.2,0.3-0.2c0,0,0.1,0,0.1,0.1V4.5C77,4.3,76.9,4.3,76.8,4.4z"/>
								</defs>
								<clipPath id="SVGID_00000062907886745706917510000002850444742832385195_">
									<use xlink:href="#SVGID_00000041292774483576303910000001741209017879547793_"  style="overflow:visible;"/>
								</clipPath>
								<g style="clip-path:url(#SVGID_00000062907886745706917510000002850444742832385195_);">
									<g>
										<path class="st34" d="M76.8,4.4c-0.4,0.2-0.1,0.9,0.3,1c0.1,0,0.1,0,0.2,0s0.2-0.2,0.2-0.3c0-0.3-0.1-0.6-0.4-0.7v0.1
											c0.2,0.1,0.3,0.3,0.3,0.5S77.2,5.2,77,5.1c-0.2-0.1-0.3-0.3-0.3-0.5c0-0.1,0.2-0.2,0.3-0.2c0,0,0.1,0,0.1,0.1V4.4
											C77,4.3,76.9,4.3,76.8,4.4L76.8,4.4z"/>
										<path class="st34" d="M77.1,4.4L77.1,4.4L77.1,4.4c0.2,0.2,0.3,0.4,0.3,0.6S77.2,5.2,77,5.1c-0.2-0.1-0.3-0.3-0.3-0.5
											C76.7,4.5,76.9,4.4,77.1,4.4C77,4.4,77.1,4.4,77.1,4.4C77.1,4.5,77.1,4.5,77.1,4.4L77.1,4.4c-0.1-0.1-0.2-0.1-0.3,0h-0.1
											l0,0l0,0l0,0v0.5l0,0v0.2l0,0l0,0l0,0l0,0l0,0l0,0l0,0l0,0l0,0h0.4c0.1,0.1,0.3,0.1,0.4,0C77.5,4.8,77.4,4.6,77.1,4.4
											L77.1,4.4z"/>
										<path class="st34" d="M77.1,4.4L77.1,4.4L77.1,4.4L77.1,4.4C77,4.5,77,4.5,77.1,4.4c0.1,0.2,0.2,0.4,0.2,0.6
											s-0.2,0.2-0.4,0.1c-0.2-0.1-0.3-0.3-0.3-0.5c0-0.1,0.2-0.2,0.3-0.2C76.9,4.4,77,4.4,77.1,4.4C77,4.5,77,4.5,77.1,4.4
											L77.1,4.4c-0.2-0.1-0.3-0.1-0.4,0h-0.1l0,0l0,0l0,0v0.5l0,0v0.2l0,0l0,0l0,0l0,0l0,0l0,0l0,0l0,0l0,0H77
											c0.1,0.1,0.3,0.2,0.4,0.1l0.1-0.1C77.5,4.8,77.4,4.6,77.1,4.4L77.1,4.4z"/>
										<path class="st34" d="M77.1,4.4L77.1,4.4C77.2,4.4,77.2,4.5,77.1,4.4C77.2,4.5,77.2,4.4,77.1,4.4L77.1,4.4
											c0.2,0.2,0.3,0.4,0.3,0.6S77.2,5.2,77,5.1c-0.2-0.1-0.3-0.3-0.3-0.5C76.7,4.5,76.9,4.4,77.1,4.4C77,4.4,77.1,4.4,77.1,4.4
											L77.1,4.4L77.1,4.4L77.1,4.4L77.1,4.4c-0.1-0.1-0.2-0.1-0.4,0h-0.1l0,0l0,0l0,0v0.5l0,0v0.2l0,0l0,0l0,0l0,0l0,0l0,0l0,0
											l0,0l0,0H77c0.1,0.1,0.3,0.1,0.4,0C77.5,4.8,77.4,4.6,77.1,4.4L77.1,4.4z"/>
										<path class="st34" d="M77.1,4.4c0.1,0.1,0.1,0.1,0.2,0.2C77.3,4.6,77.2,4.5,77.1,4.4L77.1,4.4c0.2,0.2,0.3,0.4,0.3,0.6
											S77.2,5.2,77,5.1c-0.2-0.1-0.3-0.3-0.3-0.5C76.7,4.5,76.9,4.4,77.1,4.4C77,4.4,77.1,4.4,77.1,4.4L77.1,4.4L77.1,4.4
											L77.1,4.4C77.1,4.4,77.1,4.4,77.1,4.4c-0.1,0-0.2,0-0.3,0h-0.1l0,0l0,0l0,0v0.5l0,0v0.2l0,0l0,0l0,0l0,0l0,0l0,0l0,0l0,0
											l0,0h0.4c0.1,0.1,0.3,0.1,0.4,0C77.5,4.8,77.4,4.6,77.1,4.4L77.1,4.4z"/>
										<path class="st34" d="M77.1,4.4L77.1,4.4c0.1,0.1,0.2,0.1,0.2,0.2C77.3,4.5,77.2,4.5,77.1,4.4L77.1,4.4
											c0.2,0.2,0.3,0.4,0.3,0.6S77.2,5.2,77,5.1c-0.2-0.1-0.3-0.3-0.3-0.5C76.7,4.5,76.9,4.4,77.1,4.4C77,4.4,77.1,4.4,77.1,4.4
											L77.1,4.4L77.1,4.4h-0.2C77,4.4,77.1,4.4,77.1,4.4c-0.1-0.1-0.2-0.1-0.3,0h-0.1l0,0l0,0l0,0v0.5l0,0v0.2l0,0l0,0l0,0l0,0
											l0,0l0,0l0,0l0,0l0,0h0.4c0.1,0.1,0.3,0.1,0.4,0C77.5,4.8,77.4,4.6,77.1,4.4L77.1,4.4z"/>
										<path class="st34" d="M77.1,4.4c0.1,0.1,0.2,0.2,0.2,0.3C77.3,4.6,77.2,4.5,77.1,4.4C77.1,4.5,77.1,4.5,77.1,4.4
											c0.2,0.2,0.3,0.4,0.3,0.6S77.2,5.2,77,5.1c-0.2-0.1-0.3-0.3-0.3-0.5C76.7,4.5,76.9,4.4,77.1,4.4C77,4.4,77.1,4.4,77.1,4.4
											C77.1,4.5,77.1,4.5,77.1,4.4L77.1,4.4c-0.1,0-0.2,0-0.2,0C77,4.4,77.1,4.4,77.1,4.4c-0.1,0-0.2,0-0.3,0h-0.1l0,0l0,0l0,0
											v0.5l0,0v0.2l0,0l0,0l0,0l0,0l0,0l0,0l0,0l0,0l0,0h0.4c0.1,0.1,0.3,0.1,0.4,0C77.5,4.8,77.4,4.6,77.1,4.4L77.1,4.4z"/>
										<path class="st34" d="M77.1,4.4c0.1,0.1,0.2,0.2,0.3,0.3C77.3,4.6,77.2,4.5,77.1,4.4C77.1,4.5,77.1,4.5,77.1,4.4
											c0.2,0.2,0.3,0.4,0.3,0.6S77.2,5.2,77,5.1c-0.2-0.1-0.3-0.3-0.3-0.5C76.7,4.5,76.9,4.4,77.1,4.4C77,4.4,77.1,4.4,77.1,4.4
											C77.1,4.5,77.1,4.5,77.1,4.4L77.1,4.4c-0.1,0-0.2,0-0.2,0C77,4.4,77.1,4.4,77.1,4.4c-0.1,0-0.2,0-0.3,0h-0.1l0,0l0,0l0,0
											v0.5l0,0v0.2l0,0l0,0l0,0l0,0l0,0l0,0l0,0l0,0l0,0h0.4c0.1,0.1,0.3,0.1,0.4,0C77.5,4.8,77.4,4.6,77.1,4.4L77.1,4.4z"/>
										<path class="st34" d="M77.1,4.4c0.1,0.1,0.2,0.2,0.3,0.4c0,0-0.1-0.1-0.1-0.2C77.2,4.5,77.2,4.5,77.1,4.4
											C77.1,4.5,77.1,4.5,77.1,4.4c0.2,0.2,0.3,0.4,0.3,0.6S77.2,5.2,77,5.1c-0.2-0.1-0.3-0.3-0.3-0.5
											C76.7,4.5,76.9,4.4,77.1,4.4C77,4.4,77.1,4.4,77.1,4.4C77.1,4.5,77.1,4.5,77.1,4.4L77.1,4.4c-0.1,0-0.2,0-0.3,0
											C77,4.4,77.1,4.4,77.1,4.4c-0.1,0-0.2,0-0.3,0h-0.1l0,0l0,0l0,0V5l0,0v0.2l0,0l0,0l0,0l0,0l0,0l0,0l0,0l0,0l0,0h0.4
											c0.1,0.1,0.3,0.1,0.4,0C77.5,4.8,77.4,4.6,77.1,4.4L77.1,4.4z"/>
										<path class="st34" d="M77.1,4.4c0.1,0.1,0.3,0.2,0.3,0.4c0,0-0.1-0.1-0.1-0.2C77.2,4.6,77.2,4.5,77.1,4.4
											C77.1,4.5,77.1,4.5,77.1,4.4c0.2,0.2,0.3,0.4,0.3,0.6S77.2,5.2,77,5.1c-0.2-0.1-0.3-0.3-0.3-0.5
											C76.7,4.5,76.9,4.4,77.1,4.4C77,4.4,77.1,4.4,77.1,4.4C77.1,4.5,77.1,4.5,77.1,4.4L77.1,4.4c-0.1,0-0.2,0-0.3,0l0,0
											C76.9,4.5,77,4.4,77.1,4.4c-0.1,0-0.2,0-0.3,0h-0.1l0,0l0,0l0,0V5l0,0v0.2l0,0l0,0l0,0l0,0l0,0l0,0l0,0l0,0l0,0h0.4
											c0.1,0.1,0.3,0.1,0.4,0C77.5,4.8,77.4,4.6,77.1,4.4L77.1,4.4z"/>
										<path class="st34" d="M77.1,4.4c0.2,0.1,0.3,0.3,0.3,0.5l0,0c0,0,0,0,0-0.1C77.4,4.7,77.3,4.5,77.1,4.4L77.1,4.4
											c0.2,0.2,0.3,0.4,0.3,0.6S77.2,5.2,77,5.1c-0.2-0.1-0.3-0.3-0.3-0.5C76.7,4.5,76.9,4.4,77.1,4.4
											C77.1,4.4,77.1,4.4,77.1,4.4L77.1,4.4L77.1,4.4c-0.1,0-0.2,0-0.2,0.1l0,0c0,0,0.1-0.1,0.4,0c-0.1-0.1-0.2-0.1-0.4,0h-0.1
											l0,0l0,0l0,0V5l0,0v0.1l0,0l0,0l0,0l0,0l0,0l0,0l0,0l0,0l0,0h0.4c0.1,0,0.2,0,0.3,0C77.5,4.8,77.4,4.6,77.1,4.4L77.1,4.4z
											"/>
										<path class="st34" d="M77.1,4.5c0.2,0.1,0.3,0.3,0.3,0.5S77.2,5.2,77,5.1c-0.2-0.1-0.3-0.3-0.3-0.5
											C76.7,4.5,76.9,4.4,77.1,4.5C77,4.5,77,4.5,77.1,4.5L77.1,4.5L77.1,4.5c-0.1,0-0.2,0-0.2,0l0,0
											C76.9,4.5,76.9,4.5,77.1,4.5L77.1,4.5c0,0-0.1,0-0.2,0h-0.1l0,0l0,0l0,0V5l0,0v0.1l0,0l0,0l0,0l0,0l0,0l0,0l0,0l0,0l0,0
											h0.4c0.1,0.1,0.2,0.1,0.3,0c0-0.2-0.1-0.4-0.2-0.6l0,0c0.1,0.1,0.2,0.2,0.2,0.4C77.3,4.6,77.2,4.6,77.1,4.5
											C76.9,4.4,77.1,4.5,77.1,4.5L77.1,4.5z"/>
										<path class="st34" d="M77.1,4.5c0.2,0.1,0.3,0.3,0.3,0.5S77.2,5.2,77,5.1c-0.2-0.1-0.3-0.3-0.3-0.5
											C76.7,4.5,76.9,4.4,77.1,4.5C77,4.5,77,4.5,77.1,4.5L77.1,4.5L77.1,4.5c-0.1,0-0.2,0-0.3,0l0,0c0,0,0.1,0,0.2,0H77.1
											c-0.1,0-0.2,0-0.2,0h-0.1l0,0l0,0l0,0V5l0,0v0.1l0,0l0,0l0,0l0,0l0,0l0,0l0,0l0,0l0,0h0.4c0.1,0.1,0.3,0.1,0.4,0
											c0-0.2,0-0.4-0.2-0.6l0,0c0.2,0.2,0.1,0.4,0.1,0.4l0,0C77.4,4.7,77.3,4.6,77.1,4.5L77.1,4.5L77.1,4.5z"/>
										<path class="st34" d="M77.1,4.5c0.2,0.1,0.3,0.3,0.3,0.5S77.2,5.2,77,5.1c-0.2-0.1-0.3-0.3-0.3-0.5
											C76.7,4.5,76.9,4.4,77.1,4.5C77,4.5,77,4.5,77.1,4.5L77.1,4.5L77.1,4.5c-0.1,0-0.2,0-0.3,0l0,0c0,0,0-0.1,0.2-0.1
											L77.1,4.5c-0.2-0.1-0.2-0.1-0.3-0.1h-0.1l0,0l0,0l0,0v0.5l0,0v0.2l0,0l0,0l0,0l0,0l0,0l0,0l0,0l0,0l0,0h0.4
											c0.1,0.1,0.2,0.1,0.4,0c0-0.2,0-0.4-0.1-0.5l0,0c0.1,0.3,0,0.4,0,0.4l0,0V4.8C77.4,4.7,77.3,4.6,77.1,4.5L77.1,4.5
											L77.1,4.5z"/>
										<path class="st34" d="M77.1,4.5c0.2,0.1,0.3,0.3,0.3,0.5S77.2,5.2,77,5.1c-0.2-0.1-0.3-0.3-0.3-0.5
											C76.7,4.5,76.9,4.4,77.1,4.5C77,4.5,77,4.5,77.1,4.5L77.1,4.5c-0.1-0.1-0.2-0.1-0.4,0l0,0c0,0,0-0.1,0.2-0.2H77
											c-0.1,0-0.1,0-0.2,0h-0.1l0,0l0,0l0,0v0.5l0,0V5l0,0l0,0l0,0l0,0l0,0l0,0l0,0l0,0l0,0h0.4c0.1,0.1,0.2,0.1,0.4,0
											c0-0.2,0-0.3-0.1-0.5l0,0c0.1,0.2,0.1,0.4,0,0.4s0,0,0-0.1C77.3,4.7,77.2,4.6,77.1,4.5L77.1,4.5z"/>
										<path class="st34" d="M77.4,4.7c0.1,0.1,0.1,0.3,0,0.4l0,0c0,0,0,0-0.1,0l-0.1,0.1c-0.1,0-0.1,0-0.2,0
											c-0.2-0.1-0.3-0.2-0.4-0.4c0-0.1,0-0.2,0-0.4c0-0.1,0.1-0.1,0.2-0.2h-0.1l0,0l0,0l0,0v0.5l0,0V5l0,0l0,0l0,0l0,0l0,0l0,0
											l0,0l0,0l0,0h0.4c0.1,0.1,0.3,0.1,0.4,0C77.5,5,77.5,4.8,77.4,4.7L77.4,4.7z"/>
										<path class="st34" d="M77.4,4.8c0.2,0.5-0.3,0.6-0.4,0.5c-0.2-0.1-0.4-0.3-0.4-0.5c-0.1-0.3,0.1-0.4,0.2-0.4h-0.1l0,0l0,0
											l0,0v0.5l0,0v0.3l0,0l0,0l0,0l0,0l0,0l0,0l0,0l0,0l0,0h0.4c0.1,0.1,0.3,0.1,0.4,0C77.5,5,77.5,4.9,77.4,4.8L77.4,4.8
											L77.4,4.8z"/>
										<path class="st34" d="M77.4,4.8c0.2,0.5-0.2,0.6-0.4,0.5c-0.2-0.1-0.6-0.8-0.2-1h-0.1l0,0l0,0l0,0v0.5l0,0v0.3l0,0l0,0
											l0,0l0,0l0,0l0,0l0,0l0,0l0,0h0.4c0.1,0.1,0.3,0.1,0.4,0C77.5,5,77.5,4.9,77.4,4.8L77.4,4.8z"/>
										<path class="st34" d="M77.5,4.9c0.1,0.4-0.2,0.6-0.5,0.5s-0.6-0.9-0.2-1h-0.1l0,0l0,0l0,0v0.5l0,0v0.3l0,0l0,0l0,0l0,0
											l0,0l0,0l0,0l0,0l0,0h0.4c0.1,0.1,0.3,0.1,0.4,0C77.5,5,77.5,4.9,77.5,4.9L77.5,4.9L77.5,4.9z"/>
										<path class="st34" d="M77.5,4.9c0.1,0.5-0.2,0.6-0.5,0.5s-0.5-0.8-0.2-1h-0.1l0,0l0,0l0,0v0.5l0,0v0.2l0,0l0,0l0,0l0,0
											l0,0l0,0l0,0l0,0l0,0h0.4c0.1,0.1,0.3,0.1,0.4,0C77.5,5,77.5,4.9,77.5,4.9L77.5,4.9z"/>
										<path class="st34" d="M77.5,4.9c0,0.4-0.3,0.6-0.6,0.4c-0.3-0.2-0.4-0.5-0.3-0.8l0,0l0,0V5l0,0v0.2l0,0l0,0l0,0l0,0l0,0
											l0,0l0,0l0,0l0,0H77c0.1,0.1,0.3,0.2,0.4,0.1l0.1-0.1C77.5,5,77.5,5,77.5,4.9L77.5,4.9L77.5,4.9z"/>
										<path class="st34" d="M77.5,4.9c0,0.4-0.3,0.6-0.6,0.4c-0.2-0.2-0.4-0.4-0.3-0.7l0,0v0.3l0,0v0.2l0,0l0,0l0,0l0,0l0,0l0,0
											l0,0l0,0l0,0H77c0.1,0.1,0.3,0.2,0.4,0.1c0.1,0,0.1-0.1,0.1-0.1C77.5,5,77.5,5,77.5,4.9L77.5,4.9z"/>
										<path class="st34" d="M77.5,5c0,0.4-0.3,0.5-0.6,0.3c-0.2-0.1-0.3-0.4-0.3-0.6V5l0,0v0.1l0,0l0,0l0,0l0,0l0,0l0,0l0,0l0,0
											l0,0H77c0.1,0.2,0.3,0.2,0.4,0.1C77.5,5.2,77.5,5.1,77.5,5L77.5,5L77.5,5z"/>
										<path class="st34" d="M77.5,5c0,0.4-0.4,0.5-0.6,0.3c-0.1-0.1-0.2-0.3-0.3-0.4l0,0V5l0,0v0.2l0,0l0,0l0,0l0,0l0,0l0,0l0,0
											l0,0l0,0H77c0.1,0.2,0.3,0.2,0.4,0.1c0.1,0,0.1-0.1,0.1-0.1V5L77.5,5z"/>
										<path class="st34" d="M77.5,5.1c0,0.4-0.4,0.4-0.7,0.1c-0.1-0.1-0.1-0.1-0.1-0.2v0.1l0,0l0,0l0,0l0,0l0,0l0,0l0,0l0,0l0,0
											H77C77.1,5.3,77.3,5.3,77.5,5.1C77.5,5.2,77.5,5.1,77.5,5.1L77.5,5.1z"/>
									</g>
								</g>
							</g>
						</g>
					</g>
					<path class="st34" d="M77.1,4.5c-0.1-0.1-0.3-0.1-0.4,0l-0.1,0.1c0,0.2,0.1,0.4,0.3,0.5c0.2,0.1,0.4,0,0.4-0.1
						C77.4,4.9,77.3,4.7,77.1,4.5z"/>
					<path class="st36" d="M77.1,4.4c-0.2-0.1-0.5,0-0.5,0.2c0,0.3,0.1,0.6,0.3,0.7c0.1,0.1,0.3,0.1,0.5,0c0,0,0.1-0.1,0.1-0.2
						C77.4,4.8,77.3,4.6,77.1,4.4z M76.9,5.5c-0.3-0.2-0.5-0.5-0.4-0.9c0-0.2,0.3-0.4,0.5-0.3c0.1,0,0.1,0,0.2,0.1
						c0.3,0.2,0.5,0.5,0.4,0.9c0,0.2-0.2,0.4-0.5,0.3C77,5.5,76.9,5.5,76.9,5.5z"/>
					<path class="st33" d="M80.7,18.4c-1.3,0.7-2.8,1.1-4.3,1c-1.3-0.1-2.4-0.9-2.8-2.1c-0.2,0.3-0.4,0.6-0.4,1
						c0.9,1.2,2.3,1.8,3.8,1.8s2.9-0.4,4.2-1.1c-0.1-0.1-0.2-0.2-0.2-0.3C80.9,18.6,80.8,18.5,80.7,18.4z"/>
					<path class="st8" d="M83.7,22.1c-0.4,0.7-0.8,1.5-0.9,2.3c-0.5,0.5-1.2,0.7-1.8,0.7c-0.1,0-0.5-0.1-0.6-0.3l0.7-0.3l0,0
						c0.3,0,0.3-0.5,0.4-0.8s0-0.4-0.2-0.2S81,23.9,80.8,24s-0.4-0.1-0.2-0.5s0.2-0.7,1-1.1c0.3-0.1,0.4-0.1,0.7-0.8L83.7,22.1z"/>
					<path class="st23" d="M83.7,22.1c-0.4,0.7-0.7,1.5-0.9,2.3c-0.4,0.4-1,0.6-1.6,0.7c0.3-0.2,0.9-0.2,1.2-1
						C82.8,23.4,83.2,22.7,83.7,22.1c-0.5-0.1-1-0.3-1.5-0.4l0,0L83.7,22.1z"/>
					<path class="st19" d="M83.2,9.3c0,0,2,0.7,2.5,4.9c0,0-1.7,2-3.5,1.2c0,0-2.5-3.4-1.2-5.5C81.6,9.2,82.5,9,83.2,9.3z"/>
					<path class="st21" d="M82.2,15.4c0,0-2.1-2.9-1.5-5c0.3,1,1.2,4,3.2,5C83.4,15.6,82.8,15.6,82.2,15.4z"/>
				</g>
			</g>
		</g>
		<rect x="73" y="42.4" class="st37" width="0.9" height="3.7"/>
		<rect x="74.8" y="42.4" class="st37" width="0.9" height="3.7"/>
		<rect x="76.5" y="42.4" class="st37" width="0.9" height="3.7"/>
		<rect x="78.3" y="42.4" class="st37" width="0.9" height="3.7"/>
		<rect x="80.1" y="42.4" class="st37" width="0.9" height="3.7"/>
		<rect x="81.9" y="42.4" class="st37" width="0.9" height="3.7"/>
		<rect x="83.6" y="42.4" class="st37" width="0.9" height="3.7"/>
		<circle class="st38" cx="76.3" cy="53.1" r="1.4"/>
		<circle class="st39" cx="76.3" cy="53.1" r="0.8"/>
		<rect x="76.1" y="51" class="st39" width="0.3" height="4"/>
		<rect x="74.3" y="52.9" class="st39" width="4" height="0.3"/>
		<rect x="88.2" y="52.9" class="st39" width="4" height="0.3"/>
		<rect x="60.9" y="52.9" class="st39" width="4" height="0.3"/>
		<rect x="88.2" y="52.8" class="st38" width="0.1" height="0.4"/>
		<path class="st38" d="M91.7,53.2h-0.3v-0.4h0.3V53.2z M91.2,53.2h-0.3v-0.4h0.3V53.2z M90.6,53.2h-0.3v-0.4h0.3V53.2z M90,53.2
			h-0.3v-0.4H90V53.2z M89.5,53.2h-0.3v-0.4h0.2L89.5,53.2z M88.9,53.2h-0.3v-0.4h0.3V53.2z"/>
		<rect x="92" y="52.8" class="st38" width="0.1" height="0.4"/>
		<rect x="64.8" y="52.8" class="st38" width="0.1" height="0.4"/>
		<path class="st38" d="M61.3,53.2h0.2v-0.4h-0.3L61.3,53.2z M61.9,53.2h0.3v-0.4h-0.3V53.2z M62.5,53.2h0.3v-0.4h-0.3V53.2z
			 M63,53.2h0.3v-0.4H63V53.2z M63.6,53.2h0.3v-0.4h-0.3V53.2z M64.2,53.2h0.3v-0.4h-0.3V53.2z"/>
		<rect x="60.9" y="52.8" class="st38" width="0.1" height="0.4"/>
		<g class="st40">
			<path class="st34" d="M69.9,61.2c0.8-1.2,1.5-3.5,1.8-6.2l1.4,0.3c-0.4,3.2-1.1,5.4-2,6.8L69.9,61.2z M76.8,52.7v10.4
				c0,1.1-0.3,1.5-1.6,1.5c-0.6,0-1.2,0-1.9-0.1L73,63c0.8,0.1,1.4,0.2,1.9,0.2c0.4,0,0.5-0.1,0.5-0.4V52.7H76.8z M80.7,62
				c-0.7-2.8-1.5-5.3-2.2-6.8l1.3-0.6c0.8,1.6,1.7,4.2,2.3,6.6L80.7,62z"/>
		</g>
	</g>
</g>
</svg>
