<?xml version="1.0" encoding="utf-8"?>
<!-- Generator: Adobe Illustrator 26.0.1, SVG Export Plug-In . SVG Version: 6.00 Build 0)  -->
<svg version="1.1" id="Layer_1" xmlns="http://www.w3.org/2000/svg" xmlns:xlink="http://www.w3.org/1999/xlink" x="0px" y="0px"
	 viewBox="0 0 250 140" style="enable-background:new 0 0 250 140;" xml:space="preserve">
<style type="text/css">
	.st0{clip-path:url(#SVGID_00000168093439903105379610000002309798352666462862_);}
	.st1{fill:#BBCEE0;}
	.st2{fill:#997968;stroke:#221F1F;stroke-width:0.5;stroke-linecap:round;stroke-linejoin:round;}
	.st3{fill:#E9AD83;}
	.st4{fill-rule:evenodd;clip-rule:evenodd;fill:#E9AD83;}
	.st5{fill:#E09F74;}
	.st6{fill:#E39B28;}
	.st7{opacity:0.2;}
	.st8{fill:#5D5E5E;}
	.st9{fill:#1D160D;}
	.st10{fill:#12100C;}
	.st11{fill:#241C12;}
	.st12{fill:#EA8026;}
	.st13{fill:#D46C29;}
	.st14{fill:#EC8A2D;}
	.st15{fill:#535359;}
	.st16{fill:#3E3840;}
	.st17{fill:#636368;}
	.st18{fill:#D49268;}
	.st19{fill-rule:evenodd;clip-rule:evenodd;fill:#E09F74;}
	.st20{fill:#3C210F;}
	.st21{fill:#4C2B14;}
	.st22{fill:#331D0E;}
	.st23{fill:#2E190D;}
	.st24{fill:#492611;}
	.st25{fill:#C62927;}
	.st26{fill:#D23629;}
	.st27{fill:#DF5D2E;}
	.st28{fill:#D2402B;}
	.st29{fill:#482D28;}
	.st30{fill:#FFFFFF;}
	.st31{clip-path:url(#SVGID_00000145772110541921456570000006254149791439490198_);}
	.st32{fill:#54372F;}
	.st33{fill:#353636;}
	.st34{fill:#222222;}
	.st35{fill:#474647;}
	.st36{fill:#F1AA42;stroke:#211D1E;stroke-width:0.5;stroke-miterlimit:10;}
	.st37{opacity:0.8;fill:#E97B26;enable-background:new    ;}
	.st38{fill:#8DC220;}
	.st39{fill:#C1E5F9;}
	.st40{fill:#00A0E8;}
</style>
<g>
	<g id="Layer_2_00000170975708769922486560000000660160083263683774_">
		<g id="Layer_1-2">
			<g>
				<defs>
					<rect id="SVGID_1_" x="2" y="1.2" width="246" height="137.7"/>
				</defs>
				<clipPath id="SVGID_00000144299231346366471430000015656949191321304216_">
					<use xlink:href="#SVGID_1_"  style="overflow:visible;"/>
				</clipPath>
				<g style="clip-path:url(#SVGID_00000144299231346366471430000015656949191321304216_);">
					<rect x="-2.8" y="-5.1" class="st1" width="250.5" height="148.7"/>
					<path class="st2" d="M248.7,69.5c0.1,6.5,0,72.1,0,72.1H-0.1c0,0,0-65.8,0-72.1c0.3-38.5,68.8-70.2,125-70.3
						C180.6-0.8,248.1,30.4,248.7,69.5z"/>
					<path class="st3" d="M132,5.7c0,0-1.4-2.5-3.4-0.7c-2,1.8-3.9,5.9-3.9,5.9l-6.5,3.8c0,0,0.1,1.3,0.7,1.4s6.2-0.8,8.5-3.3
						S132.6,8,132,5.7z"/>
					<path class="st4" d="M119.3,14.2c-0.8,1-3,0.8-3.3,0.9c-0.5,0.2-0.9,1.3-0.8,2c0,0.1,0,0.3,0.2,0.4L116,17l0.1,0
						c0.1-0.4,0.6-0.2,0.9-0.2s0.6,0.1,0.3,0.3c-0.2,0.2-0.6,0.3-0.7,0.4s0.2,0.5,0.7,0.3c0.7-0.3,0.9-0.1,1.4-1
						c0.2-0.3,0.2-0.5,1.1-0.7L119.3,14.2z"/>
					<path class="st5" d="M120,16.1c3.4-1.1,6.4-3.2,8.5-6l1.2,0.4c-0.7,0.7-1.4,1.5-2.2,2.3C125.7,14.8,121.9,15.8,120,16.1z"/>
					<path class="st3" d="M139.9,9.4c0,0-3.1-1-2.8,1.9s2.5,7.7,2.5,7.7l-1,7.8c0,0,1.1,1.1,1.7,0.8s3.4-5.2,2.7-9
						S142.2,11,139.9,9.4z"/>
					<path class="st5" d="M140.6,27.2c2.8-6.9,0.9-10.7,0.9-10.7l1-1c0.1,1,0.3,2.1,0.5,3.1C143.5,21.9,141.5,25.9,140.6,27.2z"/>
					<path class="st6" d="M127,18.8c-1.2,2.9-1.8,6-1.7,9.1l10.7,1.6c1.4-2.3,1.8-5.1,0.9-7.7L127,18.8z"/>
					<g class="st7">
						<path class="st8" d="M144.8,41.3c7.1,3.7,6.3,10.3-1.9,14.6s-20.5,4.8-27.6,1.1s-6.3-10.3,1.9-14.6S137.7,37.6,144.8,41.3z"/>
					</g>
					<path class="st9" d="M139.5,44.4c0.4,0.1,0.7,0.7,0.9,1c0.2,0.4,0.3,0.8,0.3,1.2c-0.1,0.6-1.9,1.2-2.3,1.7
						c-0.6,0.6-1.2,1.2-1.9,1.7c-0.4,0.3-0.9,0.5-1.4,0.6c-1.1-0.1-2.1-0.4-2.9-1.1c-0.3-0.4-0.4-0.9-0.2-1.1c0.8-0.8,1.5-0.8,2-1.4
						c0.4-0.4,0.7-0.8,1-1.3c0.1-0.2,0.7-1.5,1.1-1.2L139.5,44.4z"/>
					<path class="st10" d="M132.2,49.5c0.8,0.7,1.8,1,2.9,1.1c0.5-0.1,1-0.3,1.4-0.6c0.7-0.5,1.4-1,1.9-1.7c0.4-0.4,2.2-1,2.3-1.7
						c0-0.4-0.1-0.8-0.3-1.1c-1.1,0.8-2.1,1.7-3.1,2.8c-0.8,0.7-1.6,1.3-2.6,1.8c-1.2,0.1-2.3-0.7-2.6-1.8l-0.2,0.2
						C131.8,48.6,131.9,49.1,132.2,49.5z"/>
					<path class="st11" d="M135.1,45.7c-0.3,0.5-0.6,0.9-1,1.3c-0.4,0.4-0.8,0.7-1.3,0.9c0,0.6,0.1,1.5,1.2,1.1
						c0.8-0.4,1.6-0.8,2.4-1.3c0.6-0.2,1-0.7,1.1-1.3c0.1-0.6,0.1-1.2-0.1-1.8h-1.1C135.9,44.2,135.3,45.4,135.1,45.7z"/>
					<path class="st9" d="M129,50.3c0.4,0.2,0.4,0.8,0.4,1.2c0.1,0.6-0.2,1.1-0.7,1.3c-0.7,0.3-1.6-0.2-2.1,0
						c-1.2,0.2-2.3,0.4-3.5,0.4c-0.7,0-1.9-0.4-2-1.2c-0.1-0.5,0.1-1,0.5-1.3c0.6-0.3,1.3-0.6,2-0.8c0.4-0.1,0.7-0.3,1.1-0.5
						c0.2-0.1,1.2-0.8,1.4-0.4L129,50.3z"/>
					<path class="st10" d="M123.1,53.2c1.2,0,2.4-0.1,3.5-0.4c0.5-0.2,1.5,0.3,2.1,0c0.4-0.2,0.6-0.5,0.7-0.9
						c-0.8,0.8-2.4,0.2-3,0.3s-2.2,0.2-3,0.4c-0.8,0-1.6-0.2-2.3-0.6C121.2,52.8,122.5,53.3,123.1,53.2z"/>
					<path class="st11" d="M124.7,49.4c-0.3,0.2-0.7,0.3-1.1,0.5c-0.7,0.2-1.4,0.5-2,0.8c-0.2,0.2-0.4,0.4-0.4,0.7
						c0.2,0.3,0.6,0.3,0.9,0.2c1.5-0.3,1.3-0.5,2.1-0.7s2,0,2.4-0.6c0.1-0.3,0.2-0.7,0.3-1l-0.8-0.4
						C125.9,48.6,124.9,49.2,124.7,49.4z"/>
					<path class="st12" d="M139.2,44.4c-0.2-2.1-4.2-6.4-7.7-9.2c0.1-1.6-0.1-3.2,0-4.7c0.2-2-0.2-4.7,0.1-6.7
						c0-0.3-4.4-4.8-4.4-4.8c-2,1.7-2,5.9-2,5.9c0.5,1.5-0.1,1.9,0,3.4s-0.1,7.1,0.3,9.5c0.1,0.3,0.2,0.6,0.4,0.8
						c0.1,0.1,0.2,0.2,0.3,0.2l0,0c0,0,7.3,5,9.1,7.8l0.3,0.4c0.2,0.3,0.4,0.4,0.7,0.4C138,47.1,139.2,45.9,139.2,44.4L139.2,44.4z"
						/>
					<path class="st13" d="M139.2,44.4c-0.2-2.1-4.2-6.4-7.7-9.2c0.1-1.6-0.1-3.2,0-4.7c0.2-2-0.3-4.2,0-6.1c0-0.3,0.9-2.2-2-2.6
						l0.2-0.4c-0.8,0.5-1,2.2-1,2.2c-0.5,1.3-0.8,2.8-0.8,4.2c0.1,1.5-0.1,7.1,0.3,9.4c0.1,0.3,0.2,0.6,0.4,0.8
						c0.1,0.1,0.2,0.2,0.3,0.2l0,0c0,0,7.3,5,9.1,7.8l0.2,0.4C138.9,45.9,139.2,45.1,139.2,44.4z"/>
					<path class="st14" d="M125.2,24.3c-0.1,1.2-0.1,2.5,0,3.8c0.1,1.5-0.1,7.1,0.3,9.4c0.1,0.3,0.2,0.6,0.4,0.8
						c0.1,0.1,0.2,0.2,0.3,0.2l0,0c0,0,7.3,5,9.1,7.8l0.3,0.4c0.2,0.3,0.4,0.4,0.7,0.4c0.3,0,0.7-0.1,1-0.3
						c-2.8-2.8-8.9-8.9-10.1-9.7s0-14.5-0.1-18.4C126.2,19.3,125.4,22.8,125.2,24.3z"/>
					<path class="st12" d="M135.5,20.1c-2.4-2.4-3.8,1.3-3.8,1.3c-0.4,1.3-1.7,6.3-2,7.5c-0.4,1.5-1.8,6.1-2.1,6.8
						c-0.2,0.5-0.2,1-0.2,1.5c0,0,0,0,0,0.1c0,0-0.9,8.7-2.1,11.2l-0.2,0.4c-0.2,0.2-0.2,0.5,0,0.7c0.3,0.4,0.6,0.6,1,0.9
						c0.8,0.5,1.9,0.6,2.8,0.3c1.9-1.1,3.3-7.2,3.5-11.1c0.1-0.7,0.2-1.3,0.4-2c1-1.5,1.3-3.5,2.1-5s1.1-3.3,1.9-4.8
						C137,27.6,139.5,24.1,135.5,20.1z"/>
					<path class="st13" d="M129,50.8c1.9-1.1,3.3-7.2,3.5-11.1c0.1-0.7,0.2-1.3,0.4-2c1-1.5,1.3-3.5,2.1-5.1
						c0.5-1.2,1.2-2.4,1.9-3.5c1.1-2.2,1.2-4.7,0.4-7l0,0c-3-1.6-4.4,8.1-4.4,8.1c-0.4,1.3-0.9,2.1-1.2,3.3
						c-0.4,1.5-1.5,2.8-1.8,3.5c-0.2,0.5-0.2,1-0.2,1.5c0,0,0,0,0,0.1c0,0-0.9,8.7-2.1,11.2l-0.2,0.4c-0.1,0.2-0.1,0.4,0,0.6
						C127.8,51.1,128.4,51.1,129,50.8z"/>
					<path class="st14" d="M127.6,35.7c-0.2,0.5-0.2,1-0.2,1.5c0,0,0,0,0,0.1c0,0-0.9,8.7-2.1,11.2l-0.2,0.4c-0.2,0.2-0.2,0.5,0,0.7
						c0.2,0.3,0.5,0.5,0.7,0.7c0.9-2.2,1.7-4.4,2.2-6.7c0-10.1,5-20.8,5-20.8l-1.6-0.4c-0.2,0.7-1.5,5.6-1.7,6.4
						C129.3,30.4,127.9,35,127.6,35.7z"/>
					<path class="st15" d="M132.3,5.5c0,0,0.1,2.3-3.6,5.3c0,0-3.1-0.4-3.2-2.6c0,0,2.1-4.4,5-4.4C131.5,3.9,132.2,4.6,132.3,5.5z"
						/>
					<path class="st15" d="M137.8,7.4c1.7,1.4,5.6,4,2.6,7c0,0-2.3,2.2-3.4,3c-1.2,0.8-1.7,2.5-1,3.8c0,0-4.5,3.5-8.8-2.7
						c0.5-1.8,0.7-3.7,0.8-5.6c-0.2-2.1-1-8.7,3.4-9.2C132.9,3.4,134.3,4.6,137.8,7.4z"/>
					<path class="st16" d="M140.4,14.4c-0.7,1.1-1.6,2.1-2.6,3c-1.3,0.8-1.9,2.5-1.3,3.9c-1.5,0.8-3.3,1-5,0.7
						c3.2-3,3.4-5.1,3.4-7.1c0.1-3.3,0.7-5.2,2.2-6.2c0.6-0.3,1.3-0.4,2-0.2C140.6,9.5,142.6,11.5,140.4,14.4z"/>
					<path class="st17" d="M127.2,18.4c0.5-1.8,0.7-3.7,0.8-5.6c-0.2-2.1-1-8.7,3.4-9.2c1-0.1,1.7,0.6,3.1,1.1
						c-1.7,0-5.5,1.7-5.1,7.1c0.3,4.9,0.9,7.2,0.6,9.4C128.8,20.5,127.9,19.5,127.2,18.4z"/>
					<path class="st5" d="M131.8,6c0.6,0.6,0.8,1.4,0.7,2.2c-0.3,1,2.2,1.4,4-1.5c0,0-0.9-0.8,0.2-3.5L131.8,6z"/>
					<path class="st18" d="M132.4,6.6c0,0,2.7-0.6,4-0.1c0,0-0.6-0.6-0.1-2.2c1-0.9,1.4-2.2,1.1-3.5c-0.2-1.3-1.2-2.3-2.5-2.5
						C135-1.6,138.2,3.4,132.4,6.6z"/>
					<path class="st3" d="M130.5,1c0,0.3,0.4,0.4-0.2,1.7c-0.4,0.8-0.2,0.8,0.1,2.2c0.2,0.8,0.6,2.5,3.3,1.5c0,0,2.6-1.6,3.4-3
						c0.9-1.4,0.6-3.3-0.7-4.4C136.4-1,130.4-3.7,130.5,1z"/>
					<path class="st19" d="M130.5,0.4c0.7,0.6,1.5,1,2.3,1.3c0,0,1.3,0.1,1.3,0.5c-0.1,0.6-0.2,1.2-0.6,1.6c-0.4,0.5-0.8,1-1,1.6
						c0,0.2-0.4,1.2-1,1.1c0,0,1.7,0.8,4-1.5c0,0,1.9-1.7,1.9-2s-2.4-1.9-3.1-2.2s-3.5-1.6-3.5-1.6S130.5,0.2,130.5,0.4z"/>
					<path class="st20" d="M130.6-0.6c0,0.9,2.1,1.6,3.5,2c0.5,0.1,0.9,0.6,0.4,1.9s0.4,1.6,0.5,1.4c0.3-1.1,1.6-1.8,1.2-0.1
						c0,0,2.9-2.3,1.9-4.4c-0.6-1.4-2.4-3-5.8-2.4C131.7-2,130.7-1.6,130.6-0.6z"/>
					<path class="st20" d="M134.5,3.3c-0.5,1.4,0.4,1.5,0.4,1.5c0.3-1.3,1.6-1.7,1.3-0.2c0,0,2.9-2.3,1.9-4.4
						c-0.3-0.7-0.9-1.4-1.6-1.8c1.8,3.1-1.3,2.6-2.1,3.1C134.8,1.8,134.9,2.3,134.5,3.3z"/>
					<path class="st21" d="M134.7,2.6c0,0,0.6-0.4,0.6,0.2c0.3-0.1,0.5-0.5,0.5-0.8c0.3,0.1,0.5,0.4,0.5,0.7c0,0,0.6-0.4,0.4-1
						c0.3,0.3,0.5,0.7,0.5,1.1c0,0,0.7-0.8,0.5-1.3c0,0,0.3,0.1,0.3,0.8c0.5-0.8,0.4-1.8-0.2-2.5c0,0,0,1.6-3.5,1.8
						C134.7,1.8,134.7,2.2,134.7,2.6z"/>
					<path class="st22" d="M135.9,3.7c0,0,1.3,0.1,1.7-0.5c-0.4,0.5-0.9,1-1.4,1.5C136.2,4.6,136.5,3.7,135.9,3.7z"/>
					<path class="st23" d="M137.9-0.2c0,0,0,1.7-3.5,1.8c0,0-2.9-0.3-3.8-1.9c-0.1-0.3-0.1-0.6,0.1-0.8c0,0,0,0.7,0.5,1
						c0,0-0.2-0.4,0-0.6c0.2,0.4,0.5,0.8,0.9,1c-0.1-0.2-0.1-0.4,0.1-0.5c0.3,0.6,0.8,1.1,1.5,1.3c-0.2-0.2-0.3-0.4-0.4-0.6
						c0,0,1,0.9,1.7,0.7c0,0-0.6-0.3-0.6-0.6c0,0,1.2,0.6,1.9,0.2c-0.3,0-0.5-0.1-0.7-0.4C135.7,0.2,137.6,0.5,137.9-0.2z"/>
					<path class="st24" d="M137.4-0.8c-1.5-1.4-3.8-1.8-5.7-1c0,0,1.5-0.1,2.1,0s-0.4,0.2-0.9,0.3s1.4,0,2.1,0.1s1.8,0.3,1,0.4
						S137.2-1,137.4-0.8z"/>
					<path class="st25" d="M137.9,2.7c0,0-4.4,1.4-8.2-0.5c0,0-2.2-1,0.9-2.2L137.9,2.7z"/>
					<path class="st26" d="M130.6,0.2l5.2,1.6c-1.9,1.1-4.1,1.3-6.1,0.5C128.3,1.4,129,0.7,130.6,0.2z"/>
					<path class="st27" d="M138.4,1.5c0,0,0.4-3.2-3.5-4.2c0,0-4-0.9-4.7,3c0,0,3.4,3.7,7.7,2.3C138.2,2.3,138.4,1.9,138.4,1.5z"/>
					<path class="st28" d="M138.4,1.5c0,0.4-0.2,0.8-0.4,1.1c-2,0.6-4.1,0.4-5.9-0.8L132,1.7c0.3-2.3,2.5-3.9,4.7-3.6
						c0.1,0,0.1,0,0.2,0C138-1.1,138.5,0.2,138.4,1.5z"/>
					<path class="st29" d="M137.9,2.7c-2.8,0.7-5.8-0.3-7.7-2.5l0.1-0.3c2,2.1,4.9,3.1,7.8,2.5L137.9,2.7z"/>
					<path class="st29" d="M130.6,0.6c0,0,0-0.1,0-0.1l0,0l0.1-0.1l0,0h0.1l0,0h0.1h0.1l0.4-0.1h0.4l0,0l0,0l0,0l0,0l0,0l0,0h0.1
						l0,0l0.1,0.1v0.1l0,0l0,0l0,0l0,0c0,0,0,0,0,0.1l0,0l0,0l0,0l0,0v0.1l0,0l0,0l0,0c0,0,0,0,0,0.1v0.1v0.1v0.1c0,0,0,0,0,0.1l0,0
						c0,0,0,0,0,0.1s0,0,0,0.1l0,0l0,0l0,0c0,0,0,0,0,0.1v0.2c0,0,0,0,0,0.1v0.4v0.1l0,0l0,0l0,0l0,0l0,0l0,0l0,0l0,0l0,0h-0.1
						l-0.3,0.1l0,0h-0.1h-0.2h-0.1l0,0l0.3,0.2l0,0l0,0l-0.1-0.1l0,0c-0.4-0.3-0.6-0.8-0.6-1.4L130.6,0.6z M131.3,0.7L131.3,0.7
						c0,0.1,0,0.1,0,0.1c0,0.1,0,0.1,0,0.2l0,0l0.1,0.2v0.1l0.1,0.1v0l0,0l0.1,0.1v0.1c0,0,0.1,0.1,0.1,0.1l0,0l0.1,0.1l0,0l0,0l0,0
						l0,0l0,0c0,0,0-0.1,0-0.1c0,0,0-0.1,0-0.1l0,0c0,0,0,0,0-0.1c0,0,0-0.1,0-0.1l0,0c0,0,0-0.1,0-0.1l0,0c0-0.1,0-0.1-0.1-0.2
						c0,0,0-0.1-0.1-0.1l-0.1-0.1l0,0L131.3,0.7L131.3,0.7l-0.1-0.1l0,0l0,0l0,0v0.1L131.3,0.7z M131.4,0.4L131.4,0.4z M131.4,0.3
						L131.4,0.3z"/>
					<polygon class="st29" points="131.7,0.2 131.7,0.2 131.7,0.2 					"/>
					<g>
						<path class="st30" d="M131.1,0.4c-0.1,0-0.1,0-0.1,0.1c0,0-0.1,0.1-0.1,0.1c0,0.2,0,0.3,0,0.5c0.1,0.4,0.3,0.6,0.6,0.8
							c0.1,0,0.2,0,0.3,0c0.1,0,0.2-0.1,0.2-0.3c0-0.4-0.1-0.8-0.5-1.1c0,0-0.1,0.1-0.1,0.2c0.2,0.2,0.4,0.5,0.4,0.8
							c-0.1,0.3-0.3,0.3-0.5,0.1c-0.2-0.2-0.3-0.5-0.3-0.8c0.1-0.2,0.3-0.3,0.5-0.1c0-0.1,0-0.1,0.1-0.2
							C131.5,0.5,131.3,0.4,131.1,0.4z"/>
						<g>
							<defs>
								<path id="SVGID_00000053507411012145626580000017823401877971020478_" d="M131.1,0.4c-0.1,0-0.1,0-0.1,0.1
									c0,0-0.1,0.1-0.1,0.1c0,0.2,0,0.3,0,0.5c0.1,0.4,0.3,0.6,0.6,0.8c0.1,0,0.2,0,0.3,0c0.1,0,0.2-0.1,0.2-0.3
									c0-0.4-0.1-0.8-0.5-1.1c0,0-0.1,0.1-0.1,0.2c0.2,0.2,0.4,0.5,0.4,0.8c-0.1,0.3-0.3,0.3-0.5,0.1c-0.2-0.2-0.3-0.5-0.3-0.8
									c0.1-0.2,0.3-0.3,0.5-0.1c0-0.1,0-0.1,0.1-0.2C131.5,0.5,131.3,0.4,131.1,0.4z"/>
							</defs>
							<clipPath id="SVGID_00000060739508974771218860000008544858821274325141_">
								<use xlink:href="#SVGID_00000053507411012145626580000017823401877971020478_"  style="overflow:visible;"/>
							</clipPath>
							<g style="clip-path:url(#SVGID_00000060739508974771218860000008544858821274325141_);">
								<g>
									<path class="st30" d="M131.1,0.4c-0.6,0.2-0.2,1.3,0.4,1.5c0.1,0,0.2,0,0.3,0c0.1,0,0.2-0.1,0.2-0.3c0-0.4-0.1-0.8-0.5-1.1
										c0,0-0.1,0.1-0.1,0.2c0.2,0.2,0.4,0.5,0.4,0.8c-0.1,0.3-0.3,0.3-0.5,0.1c-0.2-0.2-0.3-0.5-0.3-0.8c0.1-0.2,0.3-0.3,0.5-0.1
										c0-0.1,0-0.1,0.1-0.2C131.5,0.5,131.3,0.4,131.1,0.4L131.1,0.4z"/>
									<path class="st30" d="M131.5,0.6L131.5,0.6L131.5,0.6c0,0-0.1,0.1-0.1,0.2c0.2,0.2,0.4,0.5,0.4,0.8
										c-0.1,0.3-0.3,0.3-0.5,0.1c-0.2-0.2-0.3-0.5-0.3-0.8c0.1-0.2,0.3-0.3,0.5-0.1C131.5,0.7,131.6,0.6,131.5,0.6L131.5,0.6
										L131.5,0.6c-0.1-0.1-0.2-0.2-0.4-0.1H131l0,0l0,0l0,0l0,0l0,0l0,0l0,0c0,0,0,0,0,0.1v0.3v0.1c0,0,0,0,0,0.1V1
										c0,0,0,0,0,0.1v0.1c0,0,0,0,0,0.1v0.1v0.1l0,0v0.1l0,0l0,0v0h0.1h0.1l0,0l0,0h0.1h0.1h0.2c0,0.2,0.2,0.4,0.3,0.4
										c0.1,0,0.2,0,0.2-0.1C132,1.3,131.9,0.9,131.5,0.6L131.5,0.6z"/>
									<path class="st30" d="M131.5,0.6C131.5,0.6,131.6,0.6,131.5,0.6c0.1,0.1,0.1,0.1,0.1,0.1L131.5,0.6
										c-0.1,0.1-0.1,0.1-0.1,0.2c0.2,0.2,0.4,0.5,0.4,0.8c-0.1,0.3-0.3,0.3-0.5,0.1C131,1.5,131,1.2,131,0.9
										c0.1-0.2,0.3-0.3,0.5-0.1C131.5,0.7,131.6,0.6,131.5,0.6L131.5,0.6L131.5,0.6L131.5,0.6c-0.1-0.1-0.2-0.2-0.4-0.1H131l0,0
										l0,0l0,0l0,0l0,0l0,0l0,0c0,0,0,0,0,0.1v0.3v0.1c0,0,0,0,0,0.1V1c0,0,0,0,0,0.1v0.1c0,0,0,0,0,0.1v0.1v0.1l0,0v0.1l0,0l0,0
										v0h0.1h0.1l0,0l0,0h0.1h0.1h0.2c0,0.2,0.2,0.4,0.3,0.4c0.1,0,0.2,0,0.2-0.1C132,1.3,131.9,0.9,131.5,0.6L131.5,0.6z"/>
									<path class="st30" d="M131.5,0.6C131.5,0.6,131.5,0.6,131.5,0.6c0.1,0.1,0.2,0.1,0.2,0.2C131.7,0.7,131.6,0.6,131.5,0.6
										c0,0-0.1,0.1-0.1,0.1c0.2,0.2,0.4,0.5,0.4,0.8c-0.1,0.3-0.3,0.3-0.5,0.1c-0.2-0.2-0.3-0.5-0.3-0.8c0.1-0.2,0.3-0.3,0.5-0.1
										C131.5,0.7,131.6,0.7,131.5,0.6L131.5,0.6L131.5,0.6C131.5,0.6,131.6,0.6,131.5,0.6c0-0.1-0.2-0.1-0.3-0.1H131l0,0l0,0l0,0
										l0,0l0,0l0,0l0,0c0,0,0,0,0,0.1v0.3v0.1c0,0,0,0,0,0.1v0.1c0,0,0,0,0,0.1v0.1c0,0,0,0,0,0.1v0.1v0.1l0,0v0.1l0,0l0,0v0.1
										h0.1h0.1l0,0l0,0h0.1h0.1h0.2c0,0.2,0.2,0.3,0.4,0.3c0.1,0,0.1,0,0.2-0.1C132,1.3,131.9,0.9,131.5,0.6L131.5,0.6z"/>
									<path class="st30" d="M131.5,0.6c0.1,0.1,0.2,0.2,0.3,0.3C131.7,0.8,131.6,0.7,131.5,0.6c0,0.1-0.1,0.1-0.1,0.2
										c0.2,0.2,0.4,0.5,0.4,0.8c-0.1,0.3-0.3,0.3-0.5,0.1c-0.2-0.2-0.3-0.5-0.3-0.8c0.1-0.2,0.3-0.3,0.5-0.1
										C131.5,0.7,131.6,0.7,131.5,0.6L131.5,0.6l-0.2-0.1C131.5,0.5,131.5,0.6,131.5,0.6c-0.1-0.1-0.2-0.1-0.4-0.1H131l0,0l0,0
										l0,0l0,0l0,0l0,0l0,0c0,0,0,0,0,0.1v0.3v0.1c0,0,0,0,0,0.1v0.1c0,0,0,0,0,0.1v0.1c0,0,0,0,0,0.1v0.1v0.1l0,0v0.1l0,0l0,0
										v0.1h0.1h0.1l0,0l0,0h0.1h0.1h0.2c0,0.2,0.2,0.3,0.4,0.3c0.1,0,0.1,0,0.2-0.1C132,1.3,131.9,0.9,131.5,0.6L131.5,0.6z"/>
									<path class="st30" d="M131.5,0.6C131.5,0.6,131.5,0.6,131.5,0.6c0.2,0.1,0.3,0.2,0.3,0.4C131.8,0.8,131.7,0.7,131.5,0.6
										c0,0,0,0.1,0,0.1c0.2,0.2,0.4,0.5,0.4,0.8c-0.1,0.3-0.3,0.3-0.5,0.1c-0.2-0.2-0.4-0.5-0.3-0.8c0.1-0.2,0.3-0.3,0.5-0.1
										C131.5,0.7,131.5,0.7,131.5,0.6L131.5,0.6c-0.1,0-0.1-0.1-0.2-0.1C131.4,0.5,131.5,0.6,131.5,0.6c-0.1-0.1-0.2-0.1-0.4-0.1
										H131l0,0l0,0l0,0l0,0l0,0l0,0l0,0c0,0,0,0,0,0.1v0.3v0.1c0,0,0,0,0,0.1v0.1c0,0,0,0,0,0.1v0.1c0,0,0,0,0,0.1v0.1v0.1l0,0
										v0.1l0,0l0,0v0.1h0.1h0.1l0,0l0,0h0.1h0.1h0.2c0,0.2,0.2,0.3,0.4,0.3c0.1,0,0.1,0,0.2-0.1C132,1.3,131.9,0.9,131.5,0.6
										L131.5,0.6z"/>
									<path class="st30" d="M131.5,0.6c0.2,0.1,0.3,0.3,0.4,0.5C131.8,0.9,131.7,0.8,131.5,0.6c0,0.1,0,0.1,0,0.2
										c0.2,0.2,0.4,0.5,0.4,0.8c-0.1,0.3-0.3,0.3-0.5,0.1c-0.2-0.2-0.4-0.5-0.3-0.8c0.1-0.2,0.3-0.3,0.5-0.1
										C131.5,0.7,131.5,0.7,131.5,0.6L131.5,0.6c-0.1,0-0.2-0.1-0.3-0.1C131.3,0.5,131.4,0.5,131.5,0.6c-0.1-0.1-0.3-0.1-0.4-0.1
										H131l0,0l0,0l0,0l0,0l0,0l0,0l0,0c0,0,0,0,0,0.1v0.3v0.1c0,0,0,0,0,0.1V1c0,0,0,0,0,0.1v0.1c0,0,0,0,0,0.1v0.1v0.1l0,0v0.1
										l0,0l0,0v0.1h0.1h0.1l0,0l0,0h0.1h0.1h0.2c0,0.2,0.2,0.3,0.4,0.3c0.1,0,0.2,0,0.2-0.1C132,1.3,131.9,0.9,131.5,0.6
										L131.5,0.6z"/>
									<path class="st30" d="M131.6,0.6c0.2,0.1,0.3,0.3,0.4,0.6C131.8,0.9,131.7,0.8,131.6,0.6c0,0.1,0,0.1,0,0.2
										c0.2,0.2,0.4,0.5,0.4,0.8c-0.1,0.3-0.3,0.3-0.5,0.1c-0.2-0.2-0.4-0.5-0.3-0.8c0.1-0.2,0.3-0.3,0.5-0.1
										C131.5,0.7,131.5,0.7,131.6,0.6L131.6,0.6c-0.1,0-0.2-0.1-0.3-0.1C131.4,0.5,131.5,0.5,131.6,0.6c-0.1-0.1-0.2-0.1-0.4-0.1
										H131l0,0l0,0l0,0l0,0l0,0l0,0l0,0c0,0,0,0,0,0.1v0.3v0.1c0,0,0,0,0,0.1V1c0,0,0,0,0,0.1v0.1c0,0,0,0,0,0.1v0.1v0.1l0,0v0.1
										l0,0l0,0v0.1h0.1h0.1l0,0l0,0h0.1h0.1h0.2c0,0.2,0.2,0.3,0.4,0.3c0.1,0,0.2,0,0.2-0.1C132,1.3,131.9,0.9,131.6,0.6
										L131.6,0.6z"/>
									<path class="st30" d="M131.6,0.6c0.2,0.2,0.3,0.4,0.4,0.6c-0.1-0.1-0.1-0.2-0.2-0.3C131.7,0.8,131.6,0.7,131.6,0.6l0,0.2
										c0.2,0.2,0.4,0.5,0.4,0.8c-0.1,0.3-0.3,0.3-0.5,0.1c-0.2-0.2-0.4-0.5-0.3-0.8c0.1-0.2,0.3-0.3,0.5-0.1L131.6,0.6L131.6,0.6
										c-0.1,0-0.2-0.1-0.4-0.1C131.4,0.5,131.5,0.5,131.6,0.6c-0.1-0.1-0.2-0.1-0.4-0.1H131l0,0l0,0l0,0l0,0l0,0l0,0l0,0
										c0,0,0,0,0,0.1v0.3v0.1c0,0,0,0,0,0.1v0.1c0,0,0,0,0,0.1v0.1c0,0,0,0,0,0.1v0.1v0.1l0,0v0.1l0,0l0,0v0.1h0.1h0.1l0,0l0,0
										h0.1h0.1h0.2c0,0.2,0.2,0.3,0.4,0.3c0.1,0,0.1,0,0.2-0.1C132,1.3,131.9,0.9,131.6,0.6L131.6,0.6z"/>
									<path class="st30" d="M131.6,0.6c0.2,0.2,0.4,0.4,0.4,0.7c-0.1-0.1-0.1-0.2-0.2-0.3C131.7,0.8,131.6,0.7,131.6,0.6
										c0,0.1,0,0.1,0,0.2c0.2,0.2,0.4,0.5,0.4,0.8c-0.1,0.3-0.3,0.3-0.5,0.1c-0.3-0.2-0.4-0.5-0.4-0.8c0.1-0.2,0.3-0.3,0.5-0.1
										C131.5,0.7,131.5,0.7,131.6,0.6L131.6,0.6c-0.1,0-0.2-0.1-0.4-0.1l0,0C131.2,0.5,131.3,0.4,131.6,0.6
										c0-0.1-0.2-0.1-0.4-0.1H131l0,0l0,0l0,0l0,0l0,0l0,0l0,0c0,0,0,0,0,0.1v0.3v0.1c0,0,0,0,0,0.1v0.1c0,0,0,0,0,0.1v0.1
										c0,0,0,0,0,0.1v0.1v0.1l0,0v0.1l0,0l0,0v0.1h0.1h0.1l0,0l0,0h0.1h0.1h0.2c0,0.2,0.2,0.3,0.4,0.3c0.1,0,0.1,0,0.2-0.1
										C132,1.3,131.9,0.9,131.6,0.6L131.6,0.6z"/>
									<path class="st30" d="M131.6,0.6c0.2,0.2,0.4,0.4,0.4,0.7l0,0c0,0,0-0.1-0.1-0.1C131.8,1,131.7,0.8,131.6,0.6
										c0,0.1,0,0.1,0,0.2c0.2,0.2,0.4,0.5,0.4,0.8c-0.1,0.3-0.3,0.3-0.5,0.1c-0.2-0.2-0.4-0.5-0.3-0.8c0.1-0.2,0.3-0.3,0.5-0.1
										C131.5,0.7,131.5,0.7,131.6,0.6L131.6,0.6c-0.1,0-0.2-0.1-0.4-0.1c0,0,0,0-0.1,0l0,0C131.1,0.5,131.3,0.4,131.6,0.6
										c0-0.1-0.2-0.1-0.4-0.1H131l0,0l0,0l0,0l0,0l0,0l0,0l0,0c0,0,0,0,0,0.1v0.3V1c0,0,0,0,0,0.1v0.1c0,0,0,0,0,0.1v0.1
										c0,0,0,0,0,0.1v0.1v0.1l0,0v0.1l0,0l0,0v0.1h0.1h0.1l0,0l0,0h0.1h0.1h0.2c0,0.2,0.2,0.3,0.4,0.3c0.1,0,0.1,0,0.2-0.1
										C132,1.3,131.9,0.9,131.6,0.6L131.6,0.6z"/>
									<path class="st30" d="M131.5,0.8c0.2,0.2,0.4,0.5,0.4,0.8c-0.1,0.3-0.3,0.3-0.5,0.1c-0.2-0.2-0.3-0.5-0.3-0.8
										C131.1,0.6,131.3,0.6,131.5,0.8C131.5,0.7,131.5,0.7,131.5,0.8L131.5,0.8c0-0.2-0.2-0.2-0.3-0.2c0,0-0.1,0-0.1,0
										s0.1,0,0.2,0c0.1,0,0.2,0,0.3,0.1c-0.1-0.1-0.2-0.1-0.4-0.1H131l0,0l0,0l0,0l0,0l0,0l0,0l0,0c0,0,0,0,0,0.1v0.3V1
										c0,0,0,0,0,0.1v0.1c0,0,0,0,0,0.1v0.1c0,0,0,0,0,0.1v0.1v0.1l0,0v0.1l0,0l0,0v0.1h0.1h0.1l0,0l0,0h0.1h0.1h0.2
										c0,0.2,0.2,0.3,0.4,0.3c0.1,0,0.1,0,0.2-0.1c0-0.3-0.1-0.7-0.3-0.9l0,0c0.2,0.3,0.3,0.6,0.2,0.6
										C131.7,0.9,131.7,0.8,131.5,0.8C131.5,0.7,131.5,0.7,131.5,0.8L131.5,0.8z"/>
									<path class="st30" d="M131.5,0.8c0.2,0.2,0.4,0.5,0.4,0.8c-0.1,0.3-0.3,0.3-0.5,0.1c-0.2-0.2-0.3-0.5-0.3-0.8
										C131.1,0.6,131.3,0.6,131.5,0.8C131.5,0.8,131.5,0.8,131.5,0.8L131.5,0.8c-0.1-0.2-0.3-0.3-0.5-0.2l0,0
										c0,0,0.1-0.1,0.2-0.1c0.1,0,0.1,0,0.2,0c-0.1,0-0.2,0-0.3,0H131l0,0l0,0l0,0l0,0l0,0l0,0l0,0c0,0,0,0,0,0.1v0.3v0.1
										c0,0,0,0,0,0.1V1c0,0,0,0,0,0.1v0.1c0,0,0,0,0,0.1v0v0.1l0,0v0.1l0,0l0,0v0h0.1h0.1l0,0l0,0h0.1h0.1h0.2
										c0,0.2,0.1,0.4,0.3,0.4c0.1,0,0.2,0,0.2-0.1c0-0.3-0.1-0.6-0.2-0.8l0,0c0.2,0.4,0.2,0.6,0.2,0.6s0,0-0.1-0.1
										C131.8,1.1,131.7,0.9,131.5,0.8C131.5,0.7,131.5,0.7,131.5,0.8L131.5,0.8z"/>
									<path class="st30" d="M131.5,0.8c0.2,0.2,0.4,0.5,0.4,0.8c-0.1,0.3-0.3,0.3-0.5,0.1c-0.2-0.2-0.3-0.5-0.3-0.8
										C131.1,0.6,131.3,0.6,131.5,0.8L131.5,0.8L131.5,0.8c-0.1-0.1-0.3-0.2-0.5-0.2c0,0,0,0-0.1,0c0,0,0.1-0.1,0.2-0.1
										c0,0,0.1,0,0.1,0c-0.1,0-0.2,0-0.2,0H131l0,0l0,0l0,0l0,0l0,0l0,0l0,0c0,0,0,0,0,0.1v0.3v0.1c0,0,0,0,0,0.1V1
										c0,0,0,0,0,0.1v0.1c0,0,0,0,0,0.1v0.1v0.1l0,0v0.1l0,0l0,0v0h0.1h0.1l0,0l0,0h0.1h0.1h0.2c0,0.2,0.1,0.4,0.3,0.4
										c0.1,0,0.2,0,0.3-0.1c0-0.3,0-0.5-0.2-0.8l0,0c0.2,0.4,0.1,0.5,0.1,0.5l0,0c0-0.1-0.1-0.1-0.1-0.2
										C131.8,1,131.6,0.8,131.5,0.8L131.5,0.8L131.5,0.8z"/>
									<path class="st30" d="M131.5,0.8c0.2,0.2,0.4,0.5,0.4,0.8c-0.1,0.3-0.3,0.3-0.5,0.1c-0.2-0.2-0.3-0.5-0.3-0.8
										C131.1,0.6,131.3,0.6,131.5,0.8L131.5,0.8L131.5,0.8c-0.1-0.1-0.3-0.2-0.5-0.1l0,0c0,0,0-0.2,0.2-0.2c0,0,0.1,0,0.1,0
										c-0.1,0-0.1,0-0.2,0H131l0,0l0,0l0,0l0,0l0,0l0,0l0,0c0,0,0,0,0,0.1v0.3v0.1c0,0,0,0,0,0.1V1c0,0,0,0,0,0.1v0.1
										c0,0,0,0,0,0.1v0v0.1l0,0v0.1l0,0l0,0v0h0.1h0.1l0,0l0,0h0.1h0.1h0.2c0,0.2,0.1,0.4,0.3,0.4c0.1,0,0.2,0,0.2-0.1
										c0-0.2,0-0.5-0.1-0.7v0.1c0.1,0.3,0.1,0.5,0.1,0.5s-0.1-0.1-0.1-0.2C131.8,1.1,131.6,0.9,131.5,0.8L131.5,0.8L131.5,0.8z"
										/>
									<path class="st30" d="M131.9,1.1c0.2,0.4,0.1,0.6,0.1,0.6s0,0,0,0s-0.1,0-0.1,0s-0.1,0.1-0.2,0.1c-0.1,0-0.1,0-0.2,0
										c-0.2-0.1-0.4-0.4-0.5-0.6c0-0.2-0.1-0.3-0.1-0.5c0-0.1,0.1-0.2,0.2-0.2c0.1,0,0.1,0,0.2,0c0,0-0.1,0-0.1,0H131l0,0l0,0
										l0,0l0,0l0,0l0,0l0,0c0,0,0,0,0,0.1v0.3v0.1c0,0,0,0,0,0.1V1c0,0,0,0,0,0.1v0.1c0,0,0,0,0,0.1v0v0.1l0,0v0.1l0,0l0,0v0h0.1
										h0.1l0,0l0,0h0.1h0.1h0.2c0,0.2,0.1,0.4,0.3,0.4c0.1,0,0.2,0,0.3-0.1C132,1.5,132,1.2,131.9,1.1L131.9,1.1L131.9,1.1z"/>
									<path class="st30" d="M132,1.2c0.2,0.8-0.3,0.8-0.6,0.6c-0.3-0.2-0.5-0.5-0.5-0.8c-0.1-0.4,0.1-0.5,0.2-0.5H131l0,0l0,0
										l0,0l0,0l0,0l0,0l0,0c0,0,0,0,0,0.1v0.3v0.1c0,0,0,0,0,0.1V1c0,0,0,0,0,0.1v0.1c0,0,0,0,0,0.1v0.1v0.1l0,0v0.1l0,0l0,0v0
										h0.1h0.1l0,0l0,0h0.1h0.1h0.2c0,0.2,0.1,0.4,0.3,0.4c0.1,0,0.2,0,0.3-0.1C132,1.5,132,1.3,132,1.2L132,1.2L132,1.2z"/>
									<path class="st30" d="M132,1.2c0.2,0.7-0.3,0.8-0.6,0.6c-0.6-0.3-0.8-1.3-0.3-1.4H131l0,0l0,0l0,0l0,0l0,0l0,0l0,0
										c0,0,0,0,0,0.1v0.3v0.1c0,0,0,0,0,0.1V1c0,0,0,0,0,0.1v0.1c0,0,0,0,0,0.1v0.1v0.1l0,0v0.1l0,0l0,0v0h0.1h0.1l0,0l0,0h0.1
										h0.1h0.2c0,0.2,0.1,0.4,0.3,0.4c0.1,0,0.2,0,0.3-0.1C132,1.5,132,1.3,132,1.2L132,1.2z"/>
									<path class="st30" d="M132,1.3c0.1,0.6-0.3,0.8-0.6,0.5c-0.5-0.3-0.8-1.3-0.2-1.4H131l0,0l0,0l0,0l0,0l0,0l0,0l0,0
										c0,0,0,0,0,0.1v0.3v0.1c0,0,0,0,0,0.1V1c0,0,0,0,0,0.1v0.1c0,0,0,0,0,0.1v0.1v0.1l0,0v0.1l0,0l0,0v0h0.1h0.1l0,0l0,0h0.1
										h0.1h0.2c0,0.2,0.1,0.4,0.3,0.4c0.1,0,0.2,0,0.3-0.1C132,1.5,132,1.4,132,1.3L132,1.3z"/>
									<path class="st30" d="M132,1.3c0.1,0.7-0.3,0.8-0.6,0.5c-0.5-0.4-0.7-1.3-0.2-1.4H131l0,0l0,0l0,0l0,0l0,0l0,0l0,0
										c0,0,0,0,0,0.1v0.3v0.1c0,0,0,0,0,0.1V1c0,0,0,0,0,0.1v0.1c0,0,0,0,0,0.1v0.1v0.1l0,0v0.1l0,0l0,0v0h0.1h0.1l0,0l0,0h0.1
										h0.1h0.2c0,0.2,0.1,0.4,0.3,0.4c0.1,0,0.2,0,0.2-0.1C132,1.6,132,1.4,132,1.3L132,1.3L132,1.3z"/>
									<path class="st30" d="M132,1.4c0.1,0.6-0.3,0.7-0.7,0.4c-0.4-0.3-0.5-0.7-0.4-1.2l0,0l0,0l0,0c0,0,0,0,0,0.1V1v0.1
										c0,0,0,0,0,0.1v0.1c0,0,0,0,0,0.1v0.1c0,0,0,0,0,0.1v0.1v0.1l0,0v0.1l0,0l0,0v0.1h0.1h0.1l0,0l0,0h0.1h0.1h0.2
										c0,0.2,0.1,0.4,0.3,0.4c0.2,0,0.4-0.1,0.4-0.3C132,1.6,132,1.4,132,1.4L132,1.4z"/>
									<path class="st30" d="M132,1.4c0.1,0.6-0.3,0.7-0.7,0.4c-0.3-0.3-0.5-0.7-0.4-1.1c0,0,0,0.1,0,0.1v0.3v0.1c0,0,0,0,0,0.1
										v0.1c0,0,0,0,0,0.1v0.1c0,0,0,0,0,0.1v0v0.1l0,0v0.1l0,0l0,0v0.1h0.1h0.1l0,0l0,0h0.1h0.1h0.2c0,0.2,0.2,0.4,0.4,0.4
										c0.2,0,0.4-0.2,0.4-0.4l0,0C132,1.6,132,1.5,132,1.4L132,1.4L132,1.4z"/>
									<path class="st30" d="M132,1.5c0,0.5-0.4,0.6-0.8,0.3c-0.3-0.2-0.4-0.6-0.4-0.9v0.2v0.1c0,0,0,0,0,0.1v0.1c0,0,0,0,0,0.1
										v0.1c0,0,0,0,0,0.1v0v0.1l0,0v0.1l0,0l0,0v0h0.1h0.1l0,0l0,0h0.1h0.1h0.2c0,0.2,0.2,0.4,0.4,0.4c0.2,0,0.4-0.2,0.4-0.4l0,0
										C132,1.6,132,1.5,132,1.5C132,1.4,132,1.4,132,1.5L132,1.5L132,1.5z"/>
									<path class="st30" d="M132,1.5c0,0.6-0.4,0.6-0.8,0.2c-0.2-0.2-0.3-0.4-0.4-0.7c0,0,0,0.1,0,0.1c0,0,0,0,0,0.1v0.1
										c0,0,0,0,0,0.1v0.1c0,0,0,0,0,0.1v0v0.1l0,0v0.1l0,0l0,0v0h0.1h0.1l0,0l0,0h0.1h0.1h0.2c0,0.2,0.2,0.4,0.4,0.4
										c0.2,0,0.4-0.2,0.4-0.4l0,0C132,1.6,132,1.6,132,1.5L132,1.5z"/>
									<path class="st30" d="M132,1.6c-0.1,0.5-0.6,0.5-0.9,0c-0.1-0.1-0.2-0.2-0.2-0.3v0.1l0,0v0v0.1l0,0v0.1l0,0l0,0v0h0.1h0.1
										l0,0l0,0h0.1h0.1h0.2c0,0.2,0.2,0.4,0.3,0.4C131.8,1.9,132,1.8,132,1.6C132,1.7,132,1.6,132,1.6L132,1.6L132,1.6z"/>
								</g>
							</g>
						</g>
					</g>
					<path class="st30" d="M131.5,0.8c-0.2-0.2-0.5-0.1-0.5,0.1c0,0.3,0.1,0.6,0.4,0.8c0.2,0.2,0.5,0.1,0.5-0.1
						C131.9,1.3,131.7,1,131.5,0.8z"/>
					<path class="st32" d="M131.5,0.6c-0.3-0.3-0.6-0.2-0.7,0.1c0,0.4,0.1,0.8,0.5,1.1c0.3,0.3,0.6,0.2,0.7-0.1
						C132,1.3,131.8,0.9,131.5,0.6z M131.2,2c-0.4-0.3-0.6-0.8-0.6-1.4c0.1-0.4,0.5-0.5,0.9-0.2c0.4,0.3,0.6,0.9,0.6,1.4
						C132,2.2,131.6,2.3,131.2,2L131.2,2z"/>
					<path class="st29" d="M136.5,21.3c0,0-3,1.2-5.5,0.3c-1.7-0.6-3.1-1.9-3.7-3.6c-0.3,0.4-0.5,0.8-0.6,1.3c1.1,1.8,2.9,3,5,3.4
						c1.8,0.4,3.7,0.2,5.4-0.6l-0.3-0.5C136.8,21.5,136.5,21.3,136.5,21.3z"/>
					<path class="st4" d="M140.6,27.2c-0.6,0.9-0.9,1.9-1.1,3c-0.7,0.5-1.6,0.7-2.4,0.5c-0.3-0.1-0.6-0.3-0.8-0.5l0.9-0.2l0,0
						c0.4,0,0.3-0.7,0.4-1s0-0.5-0.3-0.4s-0.4,0.5-0.6,0.6s-0.6-0.2-0.3-0.7c0.4-0.6,0.3-0.9,1.3-1.3c0.3-0.1,0.6-0.1,0.9-1
						L140.6,27.2z"/>
					<path class="st19" d="M140.6,27.2c-0.5,0.9-0.9,1.9-1.1,3c-0.4,0.5-1.1,0.6-2,0.6c0.4-0.2,1.2,0,1.5-1.1
						C139.2,28.8,140.1,28.1,140.6,27.2c-0.4-0.1-1.8-1-1.8-1l0,0L140.6,27.2z"/>
					<path class="st15" d="M139.6,9c0,0,2.6,1.5,3.4,7.5c0,0-2.2,2.4-4.5,0.8c0,0-3.4-5.4-1.6-8.1C136.9,9.3,137.7,8,139.6,9z"/>
					<path class="st17" d="M138.5,17.3c0,0-2.9-4.6-2-7.4c0.4,1.5,1.6,6,4.3,7.8C140,18,139.1,17.8,138.5,17.3z"/>
					<path class="st33" d="M48.6,256.6h28.7c1.5,0.1,2.8-0.9,3-2.4V88c-0.2-1.5-1.5-2.6-3-2.4H48.6c-1.5-0.1-2.8,0.9-3,2.4v166.2
						C45.8,255.7,47.1,256.8,48.6,256.6z"/>
					<rect x="43.9" y="245.2" class="st34" width="38" height="9"/>
					<rect x="43.9" y="245.2" class="st35" width="38" height="2.3"/>
					<rect x="43.9" y="251.9" width="38" height="2.3"/>
					<rect x="43.9" y="233.2" class="st34" width="38" height="9"/>
					<rect x="43.9" y="233.2" class="st35" width="38" height="2.3"/>
					<rect x="43.9" y="239.9" width="38" height="2.3"/>
					<rect x="43.9" y="221.1" class="st34" width="38" height="9"/>
					<rect x="43.9" y="221.1" class="st35" width="38" height="2.3"/>
					<rect x="43.9" y="227.8" width="38" height="2.3"/>
					<rect x="43.9" y="209.1" class="st34" width="38" height="9"/>
					<rect x="43.9" y="209.1" class="st35" width="38" height="2.3"/>
					<rect x="43.9" y="215.8" width="38" height="2.3"/>
					<rect x="43.9" y="197" class="st34" width="38" height="9"/>
					<rect x="43.9" y="197" class="st35" width="38" height="2.3"/>
					<rect x="43.9" y="203.7" width="38" height="2.3"/>
					<rect x="43.9" y="185" class="st34" width="38" height="9"/>
					<rect x="43.9" y="185" class="st35" width="38" height="2.3"/>
					<rect x="43.9" y="191.7" width="38" height="2.3"/>
					<rect x="43.9" y="172.9" class="st34" width="38" height="9"/>
					<rect x="43.9" y="172.9" class="st35" width="38" height="2.3"/>
					<rect x="43.9" y="179.6" width="38" height="2.3"/>
					<rect x="43.9" y="160.9" class="st34" width="38" height="9"/>
					<rect x="43.9" y="160.9" class="st35" width="38" height="2.3"/>
					<rect x="43.9" y="167.6" width="38" height="2.3"/>
					<rect x="43.9" y="148.8" class="st34" width="38" height="9"/>
					<rect x="43.9" y="148.8" class="st35" width="38" height="2.3"/>
					<rect x="43.9" y="155.5" width="38" height="2.3"/>
					<rect x="43.9" y="136.8" class="st34" width="38" height="9"/>
					<rect x="43.9" y="136.8" class="st35" width="38" height="2.3"/>
					<rect x="43.9" y="143.5" width="38" height="2.3"/>
					<rect x="43.9" y="124.7" class="st34" width="38" height="9"/>
					<rect x="43.9" y="124.7" class="st35" width="38" height="2.3"/>
					<rect x="43.9" y="131.4" width="38" height="2.3"/>
					<rect x="43.9" y="112.7" class="st34" width="38" height="9"/>
					<rect x="43.9" y="112.7" class="st35" width="38" height="2.3"/>
					<rect x="43.9" y="119.4" width="38" height="2.3"/>
					<rect x="43.9" y="100.7" class="st34" width="38" height="9"/>
					<rect x="43.9" y="100.7" class="st35" width="38" height="2.3"/>
					<rect x="43.9" y="107.4" width="38" height="2.3"/>
					<rect x="43.9" y="88.6" class="st34" width="38" height="9"/>
					<rect x="43.9" y="88.6" class="st35" width="38" height="2.3"/>
					<rect x="43.9" y="95.3" width="38" height="2.3"/>
					<path class="st33" d="M161.6,256.6h28.7c1.5,0.1,2.8-0.9,3-2.4V88c-0.2-1.5-1.5-2.6-3-2.4h-28.7c-1.5-0.1-2.8,0.9-3,2.4v166.2
						C158.8,255.7,160.1,256.8,161.6,256.6z"/>
					<rect x="156.9" y="245.2" class="st34" width="38.1" height="9"/>
					<rect x="156.9" y="245.2" class="st35" width="38.1" height="2.3"/>
					<rect x="156.9" y="251.9" width="38.1" height="2.3"/>
					<rect x="156.9" y="233.2" class="st34" width="38.1" height="9"/>
					<rect x="156.9" y="233.2" class="st35" width="38.1" height="2.3"/>
					<rect x="156.9" y="239.9" width="38.1" height="2.3"/>
					<rect x="156.9" y="221.1" class="st34" width="38.1" height="9"/>
					<rect x="156.9" y="221.1" class="st35" width="38.1" height="2.3"/>
					<rect x="156.9" y="227.8" width="38.1" height="2.3"/>
					<rect x="156.9" y="209.1" class="st34" width="38.1" height="9"/>
					<rect x="156.9" y="209.1" class="st35" width="38.1" height="2.3"/>
					<rect x="156.9" y="215.8" width="38.1" height="2.3"/>
					<rect x="156.9" y="197" class="st34" width="38.1" height="9"/>
					<rect x="156.9" y="197" class="st35" width="38.1" height="2.3"/>
					<rect x="156.9" y="203.7" width="38.1" height="2.3"/>
					<rect x="156.9" y="185" class="st34" width="38.1" height="9"/>
					<rect x="156.9" y="185" class="st35" width="38.1" height="2.3"/>
					<rect x="156.9" y="191.7" width="38.1" height="2.3"/>
					<rect x="156.9" y="172.9" class="st34" width="38.1" height="9"/>
					<rect x="156.9" y="172.9" class="st35" width="38.1" height="2.3"/>
					<rect x="156.9" y="179.6" width="38.1" height="2.3"/>
					<rect x="156.9" y="160.9" class="st34" width="38.1" height="9"/>
					<rect x="156.9" y="160.9" class="st35" width="38.1" height="2.3"/>
					<rect x="156.9" y="167.6" width="38.1" height="2.3"/>
					<rect x="156.9" y="148.8" class="st34" width="38.1" height="9"/>
					<rect x="156.9" y="148.8" class="st35" width="38.1" height="2.3"/>
					<rect x="156.9" y="155.5" width="38.1" height="2.3"/>
					<rect x="156.9" y="136.8" class="st34" width="38.1" height="9"/>
					<rect x="156.9" y="136.8" class="st35" width="38.1" height="2.3"/>
					<rect x="156.9" y="143.5" width="38.1" height="2.3"/>
					<rect x="156.9" y="124.7" class="st34" width="38.1" height="9"/>
					<rect x="156.9" y="124.7" class="st35" width="38.1" height="2.3"/>
					<rect x="156.9" y="131.4" width="38.1" height="2.3"/>
					<rect x="156.9" y="112.7" class="st34" width="38.1" height="9"/>
					<rect x="156.9" y="112.7" class="st35" width="38.1" height="2.3"/>
					<rect x="156.9" y="119.4" width="38.1" height="2.3"/>
					<rect x="156.9" y="100.7" class="st34" width="38.1" height="9"/>
					<rect x="156.9" y="100.7" class="st35" width="38.1" height="2.3"/>
					<rect x="156.9" y="107.4" width="38.1" height="2.3"/>
					<rect x="156.9" y="88.6" class="st34" width="38.1" height="9"/>
					<rect x="156.9" y="88.6" class="st35" width="38.1" height="2.3"/>
					<rect x="156.9" y="95.3" width="38.1" height="2.3"/>
					<path class="st36" d="M-10,99.6h25c6.6,0,13.3,0.5,19.8,1.6l25.1,6.1c36.7,9,74.9,9.6,111.8,1.7l34.4-7.3
						c5.7-0.8,11.4-1.2,17.2-1.4l29.9-1.1l-3.9,86.3l-259.3-14V99.6z"/>
				</g>
			</g>
			<path class="st37" d="M183.3,58c-39.5-4.2-79.3-3.9-118.7,0.7C57.3,72.8,49.9,87,42.5,101.1c27,6.9,54.8,10.4,82.6,10.3
				c27.3-0.1,54.4-3.6,80.9-10.3C200.6,86.1,188.8,73,183.3,58z"/>
			<rect x="115.6" y="65.8" class="st38" width="1.5" height="6.1"/>
			<rect x="118.4" y="65.8" class="st38" width="1.5" height="6.1"/>
			<rect x="121.3" y="65.8" class="st38" width="1.5" height="6.1"/>
			<rect x="124.2" y="65.8" class="st38" width="1.5" height="6.1"/>
			<rect x="127.2" y="65.8" class="st38" width="1.5" height="6.1"/>
			<rect x="130.1" y="65.8" class="st38" width="1.5" height="6.1"/>
			<rect x="133" y="65.8" class="st38" width="1.5" height="6.1"/>
			<circle class="st39" cx="123.3" cy="111.2" r="2.3"/>
			<circle class="st40" cx="123.3" cy="111.2" r="1.4"/>
			<rect x="123.1" y="107.8" class="st40" width="0.5" height="6.6"/>
			<rect x="120" y="110.8" class="st40" width="6.6" height="0.5"/>
			<rect x="142.8" y="110.8" class="st40" width="6.6" height="0.5"/>
			<rect x="98.1" y="110.8" class="st40" width="6.6" height="0.5"/>
			<rect x="142.8" y="110.8" class="st39" width="0.2" height="0.6"/>
			<path class="st39" d="M148.7,111.4h-0.5v-0.6h0.5V111.4z M147.7,111.4h-0.5v-0.6h0.5V111.4z M146.8,111.4h-0.5v-0.6h0.5V111.4z
				 M145.9,111.4h-0.5v-0.6h0.5V111.4z M144.9,111.4h-0.5v-0.6h0.5V111.4z M144,111.4h-0.5v-0.6h0.5L144,111.4z"/>
			<rect x="149.1" y="110.8" class="st39" width="0.2" height="0.6"/>
			<rect x="104.4" y="110.8" class="st39" width="0.2" height="0.6"/>
			<path class="st39" d="M98.8,111.4h0.5v-0.6h-0.5V111.4z M99.7,111.4h0.5v-0.6h-0.5V111.4z M100.7,111.4h0.5v-0.6h-0.5V111.4z
				 M101.6,111.4h0.5v-0.6h-0.5L101.6,111.4z M102.5,111.4h0.5v-0.6h-0.5L102.5,111.4z M103.5,111.4h0.5v-0.6h-0.5V111.4z"/>
			<rect x="98.1" y="110.8" class="st39" width="0.2" height="0.6"/>
		</g>
	</g>
</g>
</svg>
