<?xml version="1.0" encoding="utf-8"?>
<!-- Generator: Adobe Illustrator 26.0.1, SVG Export Plug-In . SVG Version: 6.00 Build 0)  -->
<svg version="1.1" id="Layer_1" xmlns="http://www.w3.org/2000/svg" xmlns:xlink="http://www.w3.org/1999/xlink" x="0px" y="0px"
	 viewBox="0 0 138.4 117.9" style="enable-background:new 0 0 138.4 117.9;" xml:space="preserve">
<style type="text/css">
	.st0{opacity:0.53;fill:#B3B3B3;enable-background:new    ;}
	.st1{fill:#2D9FD1;}
	.st2{fill:none;stroke:#E50013;stroke-width:0.5;stroke-linejoin:round;}
	.st3{opacity:0.2;}
	.st4{fill:#5D5E5E;}
	.st5{fill:#EBA723;}
	.st6{fill:#E39B28;}
	.st7{fill:#E8B226;}
	.st8{fill:#5B5B5B;}
	.st9{fill:#19364D;}
	.st10{fill:#3B2314;}
	.st11{fill:#321A10;}
	.st12{fill:#482817;}
	.st13{fill:#E9AD83;}
	.st14{fill:#E09F74;}
	.st15{fill:#C62927;}
	.st16{fill:#132D3E;}
	.st17{fill:#224158;}
	.st18{fill:#D49268;}
	.st19{fill-rule:evenodd;clip-rule:evenodd;fill:#E09F74;}
	.st20{fill:#3C210F;}
	.st21{fill:#4C2B14;}
	.st22{fill:#331D0E;}
	.st23{fill:#2E190D;}
	.st24{fill:#492611;}
	.st25{fill:#D23629;}
	.st26{fill:#DF5D2E;}
	.st27{fill:#D2402B;}
	.st28{fill:#482D28;}
	.st29{fill:#FFFFFF;}
	.st30{clip-path:url(#SVGID_00000166653764230162451920000008021748143285528255_);}
	.st31{fill:#54372F;}
	.st32{fill:#636368;}
	.st33{fill:#2E373A;}
	.st34{fill:#414E51;}
	.st35{fill:#222B2E;}
	.st36{fill:#3B4447;}
	.st37{fill:#5B676B;}
	.st38{fill:#344144;}
	.st39{opacity:0.3;fill:url(#SVGID_00000039824277805595843950000017848722978285405879_);enable-background:new    ;}
	.st40{fill:#071215;}
	.st41{fill:#212B2E;}
	.st42{opacity:0.3;fill:url(#SVGID_00000178907123300140748600000014152733544174454435_);enable-background:new    ;}
	.st43{fill:#E4B21B;}
	.st44{fill:#B6781D;}
	.st45{fill:#CD870E;}
	.st46{fill:#2E383B;}
	.st47{fill:#D79613;}
	.st48{fill:#C27E16;}
	.st49{fill:#233135;}
	.st50{opacity:0.7;}
	.st51{fill:#BBC5C8;}
	.st52{fill:#38464A;}
	.st53{fill:url(#SVGID_00000044878949352840469530000003443905118281580192_);}
	.st54{fill:#4C5A5E;}
	.st55{fill:url(#SVGID_00000157272191303172408900000013480153340810909584_);}
	.st56{fill:#E3A217;}
	.st57{fill:url(#SVGID_00000036968094716377959200000013415620093533149609_);}
	.st58{fill:#94A5B0;}
	.st59{fill:url(#SVGID_00000036939979572967888750000000564168064013809054_);}
	.st60{fill:url(#SVGID_00000140716115756207577430000003642165361418119592_);}
	.st61{fill:url(#SVGID_00000143608085186025094860000004888061311866334387_);}
	.st62{fill:url(#SVGID_00000129918373895875534720000004164749044227585949_);}
	.st63{fill:#ADBDC6;}
	.st64{fill:url(#SVGID_00000022528600542700867460000017989484871839306122_);}
	.st65{fill:url(#SVGID_00000119091865802719383600000009417997174439956895_);}
	.st66{fill:url(#SVGID_00000165201346644249842100000012693213877664446880_);}
	.st67{fill:url(#SVGID_00000003817751456669215330000014718657704310941096_);}
	.st68{fill:#D7961A;}
	.st69{fill:#AA6D22;}
	.st70{fill:#77808A;}
	.st71{fill:#8799A3;}
	.st72{fill:url(#SVGID_00000153687088381438672440000013296531313875510425_);}
	.st73{fill:#9D6125;}
	.st74{fill:url(#SVGID_00000050642256081847361160000000272350541142163373_);}
	.st75{fill:url(#SVGID_00000091005230647945928170000006518910170526127250_);}
	.st76{fill:url(#SVGID_00000105418192266431116190000003449023904235519923_);}
	.st77{fill:url(#SVGID_00000178888789339927176680000004448301901982282931_);}
	.st78{fill:url(#SVGID_00000169535024920802645560000000457018984208343203_);}
	.st79{fill:url(#SVGID_00000137847442029777392110000011849422149560589441_);}
	.st80{fill:#CD8717;}
	.st81{fill:url(#SVGID_00000057853677631344081920000015163831998896806017_);}
	.st82{fill:url(#SVGID_00000002347806546762250290000003916669111927906443_);}
	.st83{fill:url(#SVGID_00000071552115529914789760000005553737960321626015_);}
	.st84{fill:url(#SVGID_00000052089098114128513210000000466316349060723103_);}
	.st85{fill:url(#SVGID_00000095315656949007746060000002869120584190816958_);}
	.st86{fill:url(#SVGID_00000113341999102401583680000007606539257663232436_);}
	.st87{fill:url(#SVGID_00000018930609736635035560000008733591529070889912_);}
	.st88{fill:url(#SVGID_00000017475501866139730010000011622312713773409436_);}
	.st89{fill:#58666F;}
	.st90{fill:url(#SVGID_00000125561074974900660860000006169044870622282126_);}
	.st91{fill:url(#SVGID_00000109018343208623158990000015710063112256802967_);}
	.st92{fill:url(#SVGID_00000165227651266141954730000017148388204479693471_);}
	.st93{fill:url(#SVGID_00000074418391774506067580000017926164695319489972_);}
	.st94{fill:url(#SVGID_00000101812835019416526570000009613249602199835312_);}
	.st95{fill:url(#SVGID_00000021820056828232829030000012095419224926937246_);}
	.st96{fill:url(#SVGID_00000041999008464274619220000017636785805506498751_);}
	.st97{fill:url(#SVGID_00000063629572407391226360000011284451548487520694_);}
	.st98{fill:url(#SVGID_00000145755274346836767590000017315062996674870193_);}
	.st99{fill:url(#SVGID_00000081610041247932199000000016123265163183995320_);}
	.st100{fill:url(#SVGID_00000116946518699789872900000004089310073784979092_);}
	.st101{fill:url(#SVGID_00000089574894219612804480000015254465050552103088_);}
</style>
<g>
	<g id="Layer_2_00000091719338843530807290000008168401225595314330_">
		<path class="st0" d="M29,105.3c27.6,16,69.4,16.9,93.3,1.9s20.9-40.1-6.7-56.1L29,105.3z"/>
		<path class="st1" d="M122.7,63.5c-10.3-1.8-23.2-4.5-42.8,9.8c-18.6,13.6-20.8,25.2-23.6,34.8l32.2,2.6c7.8-2.7,15-6.9,21.3-12.3
			c4.1-3.5,7.8-7.6,10.9-12L122.7,63.5z"/>
		<polygon class="st2" points="121.3,79.5 110,71.9 110,50.8 121.3,58.4 		"/>
		<g class="st3">
			<path class="st4" d="M120.7,69.1c2.6,1.5,2.6,4,0,5.5c-3,1.5-6.5,1.5-9.5,0c-2.6-1.5-2.6-4,0-5.5
				C114.2,67.5,117.7,67.5,120.7,69.1z"/>
		</g>
		<path class="st5" d="M121.6,68.7c0.1-1.1-3.8-3.1-3.8-3.1c-0.1,0.3-0.3,0.6-0.4,0.8c-0.7,0.4-1.6,0.3-2.2-0.4l2.1,1.9
			c0.8,0.5,1.6,0.9,2.5,1.3l-0.1,0.5l0,0c-0.2,0.6-0.3,1.2-0.3,1.8c0,0.4-0.1,0.7-0.2,1c0.2,0.3,0.5,0.4,0.8,0.2c0,0,0,0,0.1,0
			l0.9-2.4C121.4,69.8,121.5,69.2,121.6,68.7z"/>
		<path class="st6" d="M120.5,68.8c-0.8-0.8-3.2-0.9-3.2-0.9l0,0l0,0c0.8,0.5,1.7,0.9,2.6,1.3l-0.1,0.5l0,0
			c-0.1,0.2-0.1,0.5-0.2,0.7l0.6,0.7C120.4,70.3,120.5,69.5,120.5,68.8z"/>
		<path class="st7" d="M121.6,68.7c0.1-1.1-3.4-2.9-3.8-3.1h-0.1l-0.2,0.4l0.1,0.9c1,0.2,2,0.6,2.8,1.2c0,0,1,0.6,0.1,2.8h0.3
			l0.3-0.7C121.4,69.8,121.5,69.2,121.6,68.7z"/>
		<path class="st5" d="M117.3,66.5c0,0,0.4,5.6-1.2,6c-0.5,0.1-1,0.1-2.6-2.2l-0.6-0.6l0.5-0.8c0.7,0.3,1.3,0.7,1.9,1.2
			c0,0-0.9-2.3-0.1-4C115.2,66.2,116.9,66.9,117.3,66.5z"/>
		<path class="st8" d="M110.9,69L110.9,69L110.9,69L110.9,69z"/>
		<path class="st6" d="M115.3,70.2c-0.5-0.4-1.1-0.8-1.8-1.1l-0.1,0.3c2.6,2.4,2.4,1.2,2.4,1.2c-0.7-3-0.1-3.9-0.1-3.9l-0.1-0.3
			c-0.2-0.1-0.3-0.1-0.5-0.2C114.4,67.8,115.3,70.2,115.3,70.2z"/>
		<path class="st7" d="M116.2,71.1c0,1.1-0.9,0.6-1.6-0.1s-1.3-1.3-1.3-1.3h-0.3l-0.1,0.1l0.6,0.6c1.2,1.6,2,2.2,2.4,2.2
			c1,0,1.1-1.1,1-3.3c-0.1-0.7,0-1.4,0.4-2c-0.4,0.1-0.8,0.3-1.2,0.3C116.4,68.6,116.2,70,116.2,71.1z"/>
		<path class="st9" d="M117.2,67.3l0.1-0.1v0L117.2,67.3z"/>
		<path class="st10" d="M113.8,69c-0.6-0.4-1.3-0.7-2-1c-0.3,0-0.5,0.3-0.5,0.7c0,0.4,0.1,0.2,0,0.7c-0.1,0.4,0,1.3,0.4,1.3
			c0.4,0,0.5-0.9,0.5-1.1c0.2-0.1,0.3,0,0.5,0.1c0.4,0.3,0.7,0.8,0.7,0.6C113.3,69.3,114.1,69.2,113.8,69z"/>
		<path class="st11" d="M111.2,68.7c0,0.4,0.1,0.2,0,0.7c-0.1,0.4,0,1.2,0.4,1.3c-0.4-0.4-0.2-1.7-0.2-1.7c0-0.3,0-0.6,0.2-0.9
			C111.3,68.2,111.2,68.4,111.2,68.7z"/>
		<path class="st12" d="M112.1,69.6c0.2-0.1,0.3,0,0.5,0.1c0.4,0.3,0.7,0.8,0.7,0.6c0-0.2,0-0.4,0.1-0.5c-0.2-0.2-0.8-0.9-1.2-0.8
			s-0.7,0-0.7,0.6c-0.1,0.4,0,0.7,0.2,1.1C112,70.5,112.1,69.8,112.1,69.6z"/>
		<path class="st10" d="M119.6,70.3c-0.2-0.1-0.1,1.3-0.4,1.9s-0.3,0.7,0,1c0.2,0.1,0.4,0.1,0.6,0.1c0,0,0.2,0,0.4,0.4
			c0,0,0.7,0.8,1.1,0.3c0,0,0.2-0.2-0.2-0.6c-0.4-0.3-0.6-0.7-0.6-1.1c0-0.6,0.7-1.7,0.7-1.8C121,70.5,120.7,71,119.6,70.3z"/>
		<path class="st11" d="M119.2,73.2c0.2,0.1,0.4,0.1,0.6,0.1c0,0,0.2,0,0.4,0.4c0,0,0.7,0.7,1,0.4c-0.3,0-0.7-0.2-0.9-0.4
			c-0.2-0.3-0.2-0.4-0.8-0.5c-0.2,0-0.5-0.2-0.5-0.4C118.9,73,119,73.1,119.2,73.2z"/>
		<path class="st12" d="M121,73.5c-0.4-0.3-0.6-0.7-0.6-1.1c0-0.6,0.7-1.7,0.7-1.8c-0.1-0.1-0.2,0.2-0.8,0.1c0,0.5-0.1,0.9-0.3,1.3
			c-0.3,0.6-0.4,0.8-0.1,1c0.3,0.2,0.5,0.4,0.7,0.7c0.1,0.2,0.4,0.4,0.7,0.4C121.3,73.9,121.3,73.7,121,73.5z"/>
		<path class="st13" d="M118,60.5c0,0,0.7,0.1,0.7,2.2c0,0,0.3,1.8,0.4,2.3l0.5,1.6c0,0-0.1,0.2-0.6,0.2c-0.5-0.6-0.8-1.2-1.1-1.9
			c-0.2-0.7-1-3.9-0.4-4.2C117.6,60.4,117.8,60.4,118,60.5z"/>
		<path class="st14" d="M119,66.7c0.1,0,0.2,0,0.3,0c-0.3-0.5-0.6-1-0.9-1.5c-0.3-0.8-0.3-1.6-0.1-2.4l-0.9-0.1
			c0.1,0.9,0.4,1.8,0.5,2.1C118.1,65.5,118.5,66.1,119,66.7z"/>
		<path class="st15" d="M118.9,66.7c0.1,0.3,0.2,0.5,0.2,0.8c0,0.2,0.1,0.5,0.4,0.5c0.1,0,0.6,0.2,0.6-0.3c0-0.5-0.1-0.6-0.1-0.6
			l-0.5-0.5L118.9,66.7z"/>
		<path class="st16" d="M117.2,60.4c0,0-0.3,0.8,0.4,2.4c0,0,1,0.4,1.3-0.4c0,0,0-1.9-0.9-2.3C117.7,60,117.4,60.1,117.2,60.4
			C117.2,60.4,117.2,60.4,117.2,60.4z"/>
		<path class="st9" d="M115.5,61c-0.6,0.4-1.9,1-1.1,2.2c0,0,0.6,0.9,0.9,1.3c0.3,0.4,0.4,0.9,0.2,1.4c0,0,1.3,1.5,2.9-0.3
			c-0.1-0.7-0.1-1.3,0-2c0.1-0.7,0.7-2.9-0.7-3.4C117.1,60,116.6,60.3,115.5,61z"/>
		<path class="st16" d="M114.3,63.2c0.2,0.4,0.4,0.8,0.7,1.2c0.4,0.4,0.5,1,0.3,1.5c0.4,0.4,1,0.6,1.6,0.6c-0.6-0.8-0.9-1.8-0.8-2.7
			c0.1-1.1,0-1.9-0.4-2.3c-0.2-0.1-0.4-0.2-0.6-0.2c-0.7,0.2-1.1,1-0.8,1.7C114.2,63,114.2,63.1,114.3,63.2z"/>
		<path class="st17" d="M118.3,65.6c-0.1-0.7-0.1-1.3,0-2c0.1-0.7,0.7-2.9-0.7-3.4c-0.3-0.1-0.6,0.1-1,0.2c1.1,0.5,1.7,1.7,1.3,2.8
			c-0.3,1.1-0.5,2.1-0.6,3.2C117.7,66.2,118,65.9,118.3,65.6z"/>
		<path class="st14" d="M117.3,61c-0.2,0.2-0.3,0.4-0.3,0.7c0,0.4-0.7,0.3-1.2-0.8c0,0,0.3-0.2,0.1-1.2L117.3,61z"/>
		<path class="st18" d="M117.1,61.1c-0.4-0.2-0.8-0.3-1.3-0.3c0,0,0.2-0.2,0.1-0.8c-0.3-0.4-0.4-0.9-0.2-1.3
			c0.1-0.4,0.5-0.7,0.9-0.7C115.9,59,116.1,60.4,117.1,61.1C117.1,61.1,117.1,61.1,117.1,61.1z"/>
		<path class="st13" d="M118,59.3c0,0.1-0.1,0.1,0,0.6c0.1,0.3,0,0.3-0.1,0.8c-0.1,0.3-0.3,0.8-1.1,0.3c-0.4-0.4-0.7-0.8-0.9-1.3
			c-0.2-0.5-0.1-1.1,0.4-1.5C116.2,58.2,118.2,57.7,118,59.3z"/>
		<path class="st19" d="M118,59.1c-0.2,0.1-0.5,0.2-0.8,0.3c0,0-0.4-0.1-0.4,0.1c0,0.2,0,0.4,0.1,0.6c0.1,0.2,0.2,0.4,0.2,0.6
			c0,0.1,0.1,0.4,0.3,0.5c0,0-0.6,0.1-1.2-0.8c-0.2-0.3-0.4-0.6-0.5-0.9c0-0.1,0.9-0.5,1.1-0.5l1.2-0.3C118,58.8,118,59,118,59.1z"
			/>
		<path class="st20" d="M118,58.8c0,0.3-0.7,0.4-1.2,0.4c-0.2,0-0.3,0.1-0.2,0.6c0.1,0.5-0.2,0.5-0.2,0.4c0-0.4-0.4-0.7-0.4-0.1
			c0,0-0.8-1-0.4-1.7c0.2-0.4,0.9-0.9,1.9-0.4C117.8,58.2,118,58.5,118,58.8z"/>
		<path class="st20" d="M116.6,59.8c0.1,0.5-0.2,0.5-0.2,0.5c0-0.5-0.4-0.7-0.4-0.2c0,0-0.8-1-0.4-1.7c0.1-0.2,0.3-0.4,0.6-0.5
			c-0.7,0.9,0.3,1,0.5,1.2C116.6,59.3,116.5,59.5,116.6,59.8z"/>
		<path class="st21" d="M116.6,59.6c0,0-0.2-0.2-0.2,0c-0.1-0.1-0.1-0.2-0.1-0.3c0,0-0.1,0-0.2,0.2c-0.1-0.1-0.1-0.2-0.1-0.4
			c-0.1,0.1-0.2,0.2-0.2,0.3c0,0-0.2-0.3-0.1-0.5c0,0-0.1,0-0.1,0.2c-0.1-0.3-0.1-0.6,0.2-0.9c0,0-0.1,0.6,1,0.9
			C116.6,59.3,116.6,59.4,116.6,59.6z"/>
		<path class="st22" d="M116.2,59.9c0,0-0.4-0.1-0.5-0.3c0.1,0.2,0.2,0.4,0.4,0.6C116,60.2,116,59.8,116.2,59.9z"/>
		<path class="st23" d="M115.7,58.4c0,0-0.1,0.6,1,0.9c0,0,0.9,0.1,1.3-0.4c0.1-0.1,0.1-0.2,0-0.3c0,0,0,0.2-0.2,0.3
			c0,0,0.1-0.1,0-0.2c-0.1,0.1-0.2,0.2-0.3,0.3c0-0.1,0-0.1,0-0.2c-0.1,0.2-0.3,0.3-0.5,0.3c0.1,0,0.1-0.1,0.1-0.2
			c0,0-0.3,0.2-0.6,0.1c0,0,0.2-0.1,0.2-0.2c0-0.1-0.4,0.1-0.6-0.1c0.1,0,0.2,0,0.2-0.1C116.4,58.7,115.8,58.6,115.7,58.4z"/>
		<path class="st24" d="M115.9,58.2c0.6-0.4,1.3-0.4,1.8,0.1c-0.2-0.1-0.4-0.1-0.6-0.2c-0.2,0,0.1,0.1,0.3,0.2
			c0.1,0.1-0.4-0.1-0.7-0.1c-0.2,0-0.6,0-0.3,0.1S115.9,58.1,115.9,58.2z"/>
		<path class="st15" d="M115.6,59.4c0.8,0.5,1.7,0.6,2.6,0.4c0,0,0.7-0.2-0.2-0.8L115.6,59.4z"/>
		<path class="st25" d="M118,59l-1.7,0.2c0.5,0.5,1.2,0.7,1.9,0.6C118.6,59.6,118.5,59.3,118,59z"/>
		<path class="st26" d="M115.5,58.9c0-0.7,0.6-1.2,1.2-1.2c0,0,0,0,0,0c0.7,0,1.4,0.6,1.4,1.3c0,0,0,0,0,0.1
			c-0.7,0.6-1.7,0.7-2.5,0.2C115.5,59.2,115.4,59.1,115.5,58.9z"/>
		<path class="st27" d="M115.5,58.9c0,0.1,0,0.3,0.1,0.4c0.6,0.4,1.3,0.4,1.9,0.2v0c0-0.8-0.6-1.5-1.4-1.6
			C115.7,58.1,115.5,58.5,115.5,58.9z"/>
		<path class="st28" d="M115.6,59.4c0.8,0.4,1.8,0.3,2.5-0.3V59c-0.7,0.6-1.7,0.7-2.6,0.3L115.6,59.4z"/>
		<path class="st28" d="M117.9,59.2C117.9,59.2,117.9,59.2,117.9,59.2L117.9,59.2L117.9,59.2L117.9,59.2L117.9,59.2L117.9,59.2
			L117.9,59.2L117.9,59.2l-0.1-0.1h-0.2l0,0l0,0l0,0l0,0l0,0l0,0l0,0l0,0l0,0l0,0l0,0l0,0l0,0l0,0l0,0l0,0l0,0v0.2l0,0l0,0h0
			l0.1,0.1h0.2c0.1-0.1,0.2-0.3,0.2-0.4L117.9,59.2z M117.7,59.2L117.7,59.2L117.7,59.2C117.7,59.2,117.7,59.2,117.7,59.2
			L117.7,59.2v0.1l0,0l0,0l0,0l0,0l0,0l0,0l0,0h-0.1l0,0C117.7,59.3,117.7,59.3,117.7,59.2L117.7,59.2L117.7,59.2
			C117.7,59.3,117.7,59.3,117.7,59.2L117.7,59.2L117.7,59.2L117.7,59.2C117.7,59.2,117.7,59.2,117.7,59.2L117.7,59.2L117.7,59.2
			L117.7,59.2L117.7,59.2L117.7,59.2L117.7,59.2L117.7,59.2L117.7,59.2L117.7,59.2L117.7,59.2L117.7,59.2z M117.7,59.1L117.7,59.1z"
			/>
		<polygon class="st28" points="117.6,59 117.6,59 117.6,59 		"/>
		<g>
			<path class="st29" d="M117.8,59.1L117.8,59.1L117.8,59.1c0,0.1,0,0.2,0,0.2c0,0.1-0.1,0.2-0.2,0.2h-0.1c0,0-0.1-0.1-0.1-0.1
				c0-0.1,0.1-0.3,0.2-0.4c0,0,0,0,0,0.1c-0.1,0.1-0.1,0.2-0.1,0.3c0,0.1,0.1,0.1,0.2,0.1c0.1-0.1,0.1-0.2,0.1-0.3
				c0-0.1,0-0.1-0.1-0.1c0,0,0,0-0.1,0c0,0,0-0.1,0-0.1C117.7,59,117.8,59.1,117.8,59.1z"/>
			<g>
				<defs>
					<path id="SVGID_1_" d="M117.8,59.1L117.8,59.1L117.8,59.1c0,0.1,0,0.2,0,0.2c0,0.1-0.1,0.2-0.2,0.2h-0.1c0,0-0.1-0.1-0.1-0.1
						c0-0.1,0.1-0.3,0.2-0.4c0,0,0,0,0,0.1c-0.1,0.1-0.1,0.2-0.1,0.3c0,0.1,0.1,0.1,0.2,0.1c0.1-0.1,0.1-0.2,0.1-0.3
						c0-0.1,0-0.1-0.1-0.1c0,0,0,0-0.1,0c0,0,0-0.1,0-0.1C117.7,59,117.8,59.1,117.8,59.1z"/>
				</defs>
				<clipPath id="SVGID_00000101074205036438152370000013219948831955355299_">
					<use xlink:href="#SVGID_1_"  style="overflow:visible;"/>
				</clipPath>
				<g style="clip-path:url(#SVGID_00000101074205036438152370000013219948831955355299_);">
					<g>
						<path class="st29" d="M117.8,59.1c0.2,0.1,0,0.4-0.2,0.5c0,0-0.1,0-0.1,0c0,0-0.1-0.1-0.1-0.1c0-0.1,0.1-0.3,0.2-0.4
							c0,0,0,0,0,0.1c-0.1,0.1-0.1,0.2-0.1,0.3c0,0.1,0.1,0.1,0.2,0.1c0.1-0.1,0.1-0.2,0.1-0.3C117.8,59.2,117.8,59.2,117.8,59.1
							c-0.1,0.1-0.1,0.1-0.1,0.1c0,0,0-0.1,0-0.1C117.7,59.1,117.8,59.1,117.8,59.1L117.8,59.1z"/>
						<path class="st29" d="M117.7,59.1L117.7,59.1C117.7,59.1,117.7,59.1,117.7,59.1c-0.1,0.1-0.1,0.2-0.1,0.3
							c0,0.1,0.1,0.1,0.2,0.1c0.1-0.1,0.1-0.2,0.1-0.3C117.8,59.2,117.8,59.2,117.7,59.1C117.7,59.1,117.7,59.2,117.7,59.1
							C117.7,59.2,117.7,59.2,117.7,59.1L117.7,59.1c0,0,0.1,0,0.1,0h0l0,0l0,0v0.2l0,0l0,0l0,0l0,0l0,0l0,0l0,0l0,0h-0.2
							C117.6,59.3,117.6,59.3,117.7,59.1c-0.1-0.1,0-0.2,0.1-0.3L117.7,59.1z"/>
						<path class="st29" d="M117.7,59.1L117.7,59.1L117.7,59.1L117.7,59.1C117.7,59.1,117.7,59.1,117.7,59.1
							c-0.1,0.1-0.1,0.2-0.1,0.3c0,0.1,0.1,0.1,0.2,0.1c0.1-0.1,0.1-0.2,0.1-0.3C117.8,59.2,117.8,59.2,117.7,59.1
							C117.7,59.1,117.7,59.2,117.7,59.1C117.7,59.2,117.7,59.2,117.7,59.1L117.7,59.1L117.7,59.1c0,0,0.1,0,0.1,0h0l0,0l0,0v0.2
							l0,0l0,0l0,0l0,0l0,0l0,0l0,0l0,0h-0.2C117.6,59.3,117.6,59.3,117.7,59.1c-0.1-0.1,0-0.2,0.1-0.3L117.7,59.1z"/>
						<path class="st29" d="M117.7,59.1L117.7,59.1C117.6,59.1,117.6,59.2,117.7,59.1L117.7,59.1C117.7,59.1,117.7,59.1,117.7,59.1
							c-0.1,0.1-0.1,0.2-0.1,0.3c0,0.1,0.1,0.1,0.2,0.1c0.1-0.1,0.1-0.2,0.1-0.3C117.8,59.2,117.8,59.1,117.7,59.1
							C117.7,59.1,117.7,59.1,117.7,59.1C117.7,59.2,117.7,59.2,117.7,59.1L117.7,59.1L117.7,59.1c0.1,0,0.1,0,0.2,0h0l0,0l0,0v0.2
							l0,0l0,0l0,0l0,0l0,0l0,0l0,0l0,0h-0.2C117.6,59.3,117.6,59.2,117.7,59.1c0-0.1,0-0.2,0.2-0.3L117.7,59.1z"/>
						<path class="st29" d="M117.7,59.1C117.6,59.1,117.6,59.2,117.7,59.1L117.7,59.1C117.7,59.1,117.7,59.1,117.7,59.1
							c-0.1,0.1-0.1,0.2-0.1,0.3c0,0.1,0.1,0.1,0.2,0.1c0.1-0.1,0.1-0.2,0.1-0.3C117.8,59.2,117.8,59.2,117.7,59.1
							C117.7,59.1,117.7,59.2,117.7,59.1C117.7,59.2,117.7,59.2,117.7,59.1L117.7,59.1L117.7,59.1C117.7,59.1,117.7,59.1,117.7,59.1
							c0,0,0.1,0,0.1,0h0l0,0l0,0v0.2l0,0l0,0l0,0l0,0l0,0l0,0l0,0l0,0h-0.2C117.6,59.3,117.6,59.3,117.7,59.1
							c-0.1-0.1,0-0.2,0.1-0.3L117.7,59.1z"/>
						<path class="st29" d="M117.7,59.1L117.7,59.1c0,0-0.1,0.1-0.1,0.1C117.6,59.2,117.6,59.1,117.7,59.1L117.7,59.1
							c-0.1,0.1-0.1,0.2-0.1,0.3c0,0.1,0.1,0.1,0.2,0.1c0.1-0.1,0.1-0.2,0.1-0.3C117.8,59.1,117.8,59.1,117.7,59.1
							C117.7,59.1,117.7,59.1,117.7,59.1L117.7,59.1L117.7,59.1C117.7,59.1,117.7,59.1,117.7,59.1C117.7,59.1,117.7,59.1,117.7,59.1
							c0.1,0,0.1,0,0.2,0h0l0,0l0,0v0.2l0,0l0,0l0,0l0,0l0,0l0,0l0,0l0,0h-0.2C117.6,59.3,117.6,59.2,117.7,59.1
							c0-0.1,0-0.2,0.1-0.3L117.7,59.1z"/>
						<path class="st29" d="M117.7,59.1c-0.1,0-0.1,0.1-0.1,0.1C117.6,59.2,117.6,59.2,117.7,59.1L117.7,59.1
							c-0.1,0.1-0.1,0.2-0.1,0.3c0,0.1,0.1,0.1,0.2,0.1c0.1-0.1,0.1-0.2,0.1-0.3C117.8,59.2,117.8,59.1,117.7,59.1
							C117.7,59.1,117.7,59.1,117.7,59.1L117.7,59.1L117.7,59.1C117.7,59.1,117.7,59.1,117.7,59.1C117.8,59.1,117.7,59.1,117.7,59.1
							c0,0,0.1,0,0.1,0h0l0,0l0,0v0.2l0,0l0,0l0,0l0,0l0,0l0,0l0,0l0,0h-0.2c0,0-0.1-0.1-0.1-0.1c0-0.1,0.1-0.3,0.2-0.4L117.7,59.1z
							"/>
						<path class="st29" d="M117.7,59.1c-0.1,0-0.1,0.1-0.1,0.2C117.6,59.2,117.6,59.2,117.7,59.1L117.7,59.1
							c-0.1,0.1-0.1,0.2-0.1,0.3c0,0.1,0.1,0.1,0.2,0.1c0.1-0.1,0.1-0.2,0.1-0.3C117.8,59.2,117.8,59.1,117.7,59.1
							C117.7,59.1,117.7,59.1,117.7,59.1L117.7,59.1L117.7,59.1l0.1,0C117.7,59.1,117.7,59.1,117.7,59.1c0,0,0.1,0,0.1,0h0l0,0l0,0
							v0.2l0,0l0,0l0,0l0,0l0,0l0,0l0,0l0,0h-0.2c0,0-0.1-0.1-0.1-0.1c0-0.1,0.1-0.3,0.2-0.4L117.7,59.1z"/>
						<path class="st29" d="M117.7,59.1c-0.1,0-0.1,0.1-0.1,0.2C117.5,59.3,117.6,59.2,117.7,59.1L117.7,59.1L117.7,59.1
							c-0.1,0.1-0.1,0.2-0.1,0.3c0,0.1,0.1,0.1,0.2,0.1c0.1-0.1,0.1-0.2,0.1-0.3C117.8,59.2,117.8,59.1,117.7,59.1
							C117.7,59.1,117.7,59.1,117.7,59.1L117.7,59.1L117.7,59.1c0,0,0.1,0,0.1,0C117.7,59.1,117.7,59.1,117.7,59.1c0,0,0.1,0,0.1,0
							h0l0,0l0,0v0.2l0,0l0,0l0,0l0,0l0,0l0,0l0,0l0,0h-0.2c0,0-0.1-0.1-0.1-0.1c0-0.1,0.1-0.3,0.2-0.4L117.7,59.1z"/>
						<path class="st29" d="M117.7,59.1c-0.1,0-0.1,0.1-0.2,0.2c0,0,0-0.1,0.1-0.1C117.6,59.2,117.6,59.2,117.7,59.1L117.7,59.1
							c-0.1,0.1-0.1,0.2-0.1,0.3c0,0.1,0.1,0.1,0.2,0.1c0.1-0.1,0.1-0.2,0.1-0.3C117.8,59.2,117.8,59.1,117.7,59.1
							C117.7,59.1,117.7,59.1,117.7,59.1L117.7,59.1L117.7,59.1c0,0,0.1,0,0.1,0l0,0C117.8,59.1,117.8,59.1,117.7,59.1
							c0,0,0.1,0,0.1,0h0l0,0l0,0v0.2l0,0l0,0l0,0l0,0l0,0l0,0l0,0l0,0h-0.2c0,0-0.1-0.1-0.1-0.1c0-0.1,0.1-0.3,0.2-0.4L117.7,59.1z
							"/>
						<path class="st29" d="M117.7,59.1c-0.1,0.1-0.1,0.1-0.2,0.2l0,0l0,0C117.5,59.3,117.6,59.2,117.7,59.1L117.7,59.1
							c-0.1,0.1-0.2,0.2-0.2,0.3c0,0.1,0.1,0.1,0.2,0.1c0.1-0.1,0.1-0.2,0.1-0.3C117.8,59.2,117.8,59.2,117.7,59.1
							C117.7,59.1,117.7,59.2,117.7,59.1L117.7,59.1L117.7,59.1C117.7,59.2,117.7,59.2,117.7,59.1L117.7,59.1L117.7,59.1
							C117.7,59.1,117.6,59.1,117.7,59.1C117.6,59.2,117.7,59.2,117.7,59.1l0.1,0.1l0,0l0,0v0.2l0,0l0,0l0,0l0,0l0,0l0,0l0,0l0,0
							h-0.2c0,0-0.1-0.1-0.1-0.1c0-0.1,0.1-0.3,0.2-0.4L117.7,59.1z"/>
						<path class="st29" d="M117.7,59.2c-0.1,0.1-0.1,0.2-0.1,0.3c0,0.1,0.1,0.1,0.2,0.1c0.1-0.1,0.1-0.2,0.1-0.3
							C117.8,59.2,117.8,59.2,117.7,59.2C117.7,59.1,117.7,59.2,117.7,59.2L117.7,59.2L117.7,59.2c0,0,0.1,0,0.1,0l0,0H117.7
							C117.7,59.2,117.7,59.2,117.7,59.2C117.7,59.1,117.7,59.1,117.7,59.2h0.1l0,0l0,0v0.2l0,0l0,0l0,0l0,0l0,0l0,0l0,0l0,0h-0.2
							c0,0-0.1-0.1-0.1-0.1c0-0.1,0-0.2,0.1-0.3l0,0C117.6,59.1,117.6,59.1,117.7,59.2c0-0.2,0-0.2,0.1-0.2l0,0L117.7,59.2z"/>
						<path class="st29" d="M117.7,59.2c-0.1,0.1-0.1,0.2-0.1,0.3c0,0.1,0.1,0.1,0.2,0.1c0.1-0.1,0.1-0.2,0.1-0.3
							C117.8,59.2,117.8,59.2,117.7,59.2C117.7,59.1,117.7,59.2,117.7,59.2L117.7,59.2L117.7,59.2c0,0,0.1,0,0.1,0l0,0
							C117.8,59.2,117.8,59.2,117.7,59.2L117.7,59.2c0,0,0.1,0,0.1,0h0l0,0l0,0v0.2l0,0l0,0l0,0l0,0l0,0l0,0l0,0l0,0h-0.2
							C117.6,59.4,117.6,59.3,117.7,59.2c-0.1,0-0.1-0.1,0-0.2l0,0C117.6,59.1,117.6,59.2,117.7,59.2L117.7,59.2
							c0-0.1,0-0.1,0.1-0.2l0,0L117.7,59.2z"/>
						<path class="st29" d="M117.7,59.2c-0.1,0.1-0.1,0.2-0.1,0.3c0,0.1,0.1,0.1,0.2,0.1c0.1-0.1,0.1-0.2,0.1-0.3
							C117.8,59.2,117.8,59.2,117.7,59.2C117.7,59.1,117.7,59.2,117.7,59.2L117.7,59.2c0,0,0.1,0,0.1,0l0,0
							C117.8,59.2,117.8,59.1,117.7,59.2l0.1-0.1l0,0l0,0v0.2l0,0l0,0l0,0l0,0l0,0l0,0l0,0l0,0h-0.2
							C117.6,59.3,117.6,59.2,117.7,59.2c-0.1-0.1-0.1-0.2,0-0.2l0,0C117.6,59.1,117.6,59.1,117.7,59.2L117.7,59.2
							c-0.1-0.1-0.1-0.1-0.1-0.1c0-0.1,0.1-0.1,0.1-0.2L117.7,59.2z"/>
						<path class="st29" d="M117.7,59.2c-0.1,0.1-0.1,0.2-0.1,0.3c0,0.1,0.1,0.1,0.2,0.1c0.1-0.1,0.1-0.2,0.1-0.3
							C117.8,59.2,117.8,59.2,117.7,59.2C117.7,59.1,117.7,59.2,117.7,59.2L117.7,59.2c0,0,0.1,0,0.1,0l0,0
							C117.8,59.2,117.8,59.1,117.7,59.2l0.1-0.1l0,0l0,0v0.2l0,0l0,0l0,0l0,0l0,0l0,0l0,0l0,0h-0.2
							C117.6,59.3,117.6,59.2,117.7,59.2c-0.1-0.1-0.1-0.2,0-0.2l0,0C117.6,59,117.6,59.1,117.7,59.2c0,0,0,0,0-0.1
							c0-0.1,0.1-0.2,0.2-0.2L117.7,59.2z"/>
						<path class="st29" d="M117.5,59.3c-0.1,0.1-0.1,0.2-0.1,0.2s0,0,0,0l0,0c0,0,0,0,0,0.1h0.1c0.1,0,0.1-0.1,0.2-0.2v-0.2
							c0,0,0-0.1-0.1-0.1h0l0,0l0,0v0.2l0,0l0,0l0,0l0,0l0,0l0,0l0,0l0,0L117.5,59.3c0,0,0-0.1,0-0.1c0-0.1,0-0.2,0.1-0.2
							L117.5,59.3z"/>
						<path class="st29" d="M117.5,59.3c-0.1,0.2,0.1,0.3,0.1,0.3c0.1,0,0.1-0.1,0.2-0.2s0-0.2-0.1-0.2h0.1l0,0l0,0v0.2l0,0l0,0l0,0
							l0,0l0,0l0,0l0,0l0,0h-0.2c0,0-0.1-0.1-0.1-0.1c0-0.1,0-0.1,0.1-0.2l0,0L117.5,59.3z"/>
						<path class="st29" d="M117.5,59.3c-0.1,0.2,0.1,0.3,0.1,0.3c0.1,0,0.3-0.4,0.1-0.5h0.1l0,0l0,0v0.2l0,0l0,0l0,0l0,0l0,0l0,0
							l0,0l0,0h-0.2c0,0-0.1-0.1-0.1-0.1c0-0.1,0-0.1,0-0.2L117.5,59.3z"/>
						<path class="st29" d="M117.5,59.3c-0.1,0.2,0.1,0.3,0.2,0.2c0.1-0.1,0.3-0.4,0.1-0.5h0.1l0,0l0,0v0.2l0,0l0,0l0,0l0,0l0,0l0,0
							l0,0l0,0h-0.2c0,0-0.1-0.1-0.1-0.1c0-0.1,0-0.1,0-0.2l0,0L117.5,59.3z"/>
						<path class="st29" d="M117.5,59.3c-0.1,0.2,0.1,0.3,0.2,0.2s0.3-0.4,0.1-0.5h0.1l0,0l0,0v0.2l0,0l0,0l0,0l0,0l0,0l0,0l0,0l0,0
							h-0.2c0,0-0.1-0.1-0.1-0.1c0,0,0-0.1,0-0.1L117.5,59.3z"/>
						<path class="st29" d="M117.5,59.4c0,0.2,0.1,0.3,0.2,0.2c0.1-0.1,0.2-0.2,0.2-0.4l0,0v0.2l0,0l0,0l0,0l0,0l0,0l0,0l0,0l0,0
							h-0.2c0,0-0.1-0.1-0.1-0.1c0,0,0-0.1,0-0.1l0,0L117.5,59.4z"/>
						<path class="st29" d="M117.5,59.4c0,0.2,0.1,0.3,0.2,0.2c0.1-0.1,0.2-0.2,0.2-0.3v0.2l0,0l0,0l0,0l0,0l0,0l0,0l0,0l0,0h-0.2
							c0,0-0.1-0.1-0.1-0.1c0,0,0-0.1,0-0.1L117.5,59.4z"/>
						<path class="st29" d="M117.5,59.4c0,0.2,0.1,0.2,0.2,0.1c0.1-0.1,0.2-0.2,0.2-0.3v0.1l0,0l0,0l0,0l0,0l0,0l0,0l0,0l0,0h-0.2
							c0,0-0.1-0.1-0.1-0.1c0,0,0-0.1,0-0.1l0,0L117.5,59.4z"/>
						<path class="st29" d="M117.5,59.4c0,0.2,0.1,0.2,0.2,0.1c0.1-0.1,0.1-0.1,0.1-0.2l0,0l0,0l0,0l0,0l0,0l0,0l0,0l0,0l0,0l0,0
							h-0.2c0,0-0.1-0.1-0.1-0.1v-0.1L117.5,59.4z"/>
						<path class="st29" d="M117.5,59.4c0,0.2,0.1,0.2,0.3,0.1c0,0,0.1-0.1,0.1-0.1l0,0l0,0l0,0l0,0l0,0l0,0l0,0l0,0h-0.2
							c0,0-0.1-0.1-0.1-0.1l0,0L117.5,59.4z"/>
					</g>
				</g>
			</g>
		</g>
		<path class="st29" d="M117.7,59.2c0,0,0.1,0,0.1,0c0,0,0,0,0,0.1c0,0.1-0.1,0.2-0.1,0.3c-0.1,0.1-0.2,0-0.2-0.1
			C117.5,59.3,117.6,59.2,117.7,59.2z"/>
		<path class="st31" d="M117.7,59.1c0.1-0.1,0.2,0,0.2,0.1c0,0.1-0.1,0.3-0.2,0.3c-0.1,0.1-0.2,0-0.2-0.1
			C117.5,59.3,117.6,59.2,117.7,59.1z M117.7,59.6c0.1-0.1,0.2-0.3,0.2-0.4c0-0.2-0.1-0.2-0.3-0.1c-0.1,0.1-0.2,0.3-0.2,0.4
			C117.4,59.6,117.5,59.7,117.7,59.6z"/>
		<path class="st28" d="M115.2,65.9c0.5,0.4,1.1,0.6,1.8,0.5c0.6-0.1,1.1-0.5,1.3-1c0.1,0.1,0.1,0.3,0.1,0.4c-0.4,0.6-1,0.9-1.7,0.9
			c-0.6,0-1.2-0.2-1.7-0.6c0-0.1,0.1-0.1,0.1-0.1L115.2,65.9z"/>
		<path class="st12" d="M121.3,67.8c0,0.1-0.1,0.2-0.2,0.1l-5.6-2.2c-0.1,0-0.1-0.1,0-0.2l0,0c0-0.1,0.1-0.1,0.2-0.1l5.6,2.2
			C121.4,67.6,121.4,67.7,121.3,67.8L121.3,67.8z"/>
		<path class="st32" d="M120.1,65.9L121,66c0,0,1.5,1.5-1,5.3C120,71.3,121.9,67.2,120.1,65.9z"/>
		<path class="st13" d="M114.5,61.7c0.3-0.2,1.4,0,0.6,1.3c-0.3,0.5-1.3,1.6-1.2,1.8c0.7,0.2,1.4,0.5,2.1,0.8
			c-0.1,0.2-0.1,0.4-0.1,0.6c0,0-2.6-0.2-3-0.9c0,0-0.3-0.5,0.3-1.6C113.4,63,113.9,62.3,114.5,61.7z"/>
		<path class="st14" d="M112.8,65.3c0.4,0.8,3,0.9,3,0.9c0,0,0-0.1,0-0.1l-0.4-0.1c0,0-1-0.2-1.7-0.4s-0.5-0.7-0.5-0.7
			c0.2-0.7,0.4-1.4,0.5-2.1c-0.2,0.3-0.3,0.6-0.5,1C112.6,64.8,112.8,65.3,112.8,65.3z"/>
		<path class="st9" d="M114.7,61.6c0,0-0.8,0.3-1.5,1.9c0,0,0.4,1,1.2,0.7c0,0,1.3-1.3,1-2.3C115.3,61.6,115,61.5,114.7,61.6z"/>
		<path class="st17" d="M114.4,64.2c0,0,1.1-1.1,1.1-2.1c-0.2,0.4-0.9,1.7-1.8,2C113.9,64.3,114.2,64.3,114.4,64.2z"/>
		<path class="st25" d="M118.8,66.5c0,0,0.4,0.2,0.6-0.4c0,0,0.2-0.1,0.3,0.6c0,0.1,0,0.1,0.2,0.4c0.1,0.1,0.2,0.4,0.1,0.4
			c0,0-0.1,0-0.3-0.3c-0.1-0.2-0.3-0.3-0.4-0.3C119,66.9,118.9,66.7,118.8,66.5z"/>
		<path class="st25" d="M115.9,65.4c-0.2,0.1-0.5,0.9-0.2,1s0.6,0,0.8,0.2c0.1,0.2,0.8,0.8,1.3,0.2c0.1-0.1,0.1-0.3-0.1-0.4
			c-0.2,0-0.6-0.1-0.5-0.4c0.1-0.1,0,0,0.3-0.1c0,0,0.1-0.1,0-0.1c-0.3-0.1-0.5-0.1-0.8-0.1C116.7,65.7,116.1,65.3,115.9,65.4z"/>
		<path class="st15" d="M115.8,66.4c0.2,0.1,0.6,0,0.8,0.2c0.1,0.2,0.8,0.8,1.3,0.2v-0.1c-0.7,0.3-1.1-0.2-1.5-0.5
			c-0.2-0.2-0.5-0.3-0.8-0.3C115.6,66.2,115.6,66.4,115.8,66.4z"/>
		<path class="st33" d="M44.9,69l9.3-6.6l11.9-7l8.1-3.9c1.4-0.4,2.4,0.4,2.4,2.1c-0.1,2.2-1.3,4.2-3.1,5.4l-28,16.8
			c-1.8,1-3.1,0.2-3.1-1.8C42.5,72.1,43.4,70.3,44.9,69z"/>
		<path class="st34" d="M43,75c-0.1-0.3-0.2-0.7-0.2-1c0.1-1.8,1-3.5,2.4-4.7l9.3-6.6l11.8-7l8.1-3.9c0.2-0.1,0.4-0.1,0.6-0.1
			c0.1,0.3,0.2,0.7,0.2,1c-0.1,2.1-1.2,3.9-2.9,5l-28,16.8C43.8,74.9,43.4,75,43,75z"/>
		<path class="st35" d="M39.6,66l9.3-6.6l11.8-7l8.1-3.9c0.5-0.2,1.1-0.2,1.6,0.1l5.3,3c-0.5-0.2-1-0.3-1.5-0.1l-8.1,3.9l-11.9,7
			L44.9,69c-1.5,1.2-2.4,3-2.5,5c-0.1,0.8,0.2,1.6,0.9,2L37.9,73c-0.6-0.5-1-1.2-0.9-2C37.1,69,38.1,67.2,39.6,66z"/>
		<polygon class="st36" points="55.5,55.4 58.1,53.9 63.4,57 60.8,58.5 		"/>
		<polygon class="st36" points="61,52.2 63.8,50.8 69.2,53.9 66.3,55.3 		"/>
		<polygon class="st36" points="64,50.7 66.8,49.4 72.2,52.5 69.3,53.8 		"/>
		<polygon class="st36" points="48.8,59.3 49.9,58.7 55.3,61.8 54.2,62.4 52.8,63.4 47.4,60.3 		"/>
		<polygon class="st36" points="52.7,57 55.3,55.5 60.7,58.6 58.1,60.1 		"/>
		<polygon class="st36" points="60.7,52.3 60.8,52.3 66.2,55.4 66.1,55.4 63.6,56.9 58.2,53.8 		"/>
		<path class="st36" d="M68.8,48.4c0.5-0.2,1.1-0.2,1.6,0.1l5.3,3c-0.5-0.2-1-0.3-1.5-0.1l-1.9,0.9L67,49.3L68.8,48.4z"/>
		<path class="st36" d="M37,70.9c0-0.2,0-0.4,0-0.6l5.4,3.1c0,0.2,0,0.4,0,0.6c-0.1,0.8,0.2,1.6,0.9,2L37.9,73
			C37.3,72.5,36.9,71.7,37,70.9z"/>
		<path class="st36" d="M43.5,70.8l-5.4-3.1c0.4-0.6,0.9-1.2,1.5-1.7l0.4-0.3l5.4,3.1L45,69C44.4,69.5,43.9,70.1,43.5,70.8z"/>
		<polygon class="st36" points="50,58.6 52.6,57.1 58,60.2 55.4,61.7 		"/>
		<polygon class="st36" points="40.1,65.6 42.4,63.9 47.8,67 45.4,68.7 		"/>
		<path class="st36" d="M37.1,70.2c0.2-0.9,0.5-1.7,0.9-2.5l5.4,3.1c-0.5,0.8-0.8,1.6-0.9,2.5L37.1,70.2z"/>
		<polygon class="st36" points="42.5,63.8 44.9,62.2 50.2,65.3 47.9,66.9 		"/>
		<polygon class="st36" points="45,62.1 47.3,60.4 52.7,63.5 50.3,65.2 		"/>
		<path class="st37" d="M43.5,72c0,0.7,0.5,1,1.1,0.6c0.7-0.4,1.1-1.1,1.1-1.9c0-0.7-0.5-1-1.1-0.6C44,70.5,43.6,71.3,43.5,72z"/>
		<path class="st38" d="M44.1,72.1c0,0.6,0.4,0.8,0.9,0.5c0.5-0.3,0.8-0.9,0.9-1.5c0-0.6-0.4-0.8-0.9-0.5
			C44.4,70.9,44.1,71.5,44.1,72.1z"/>
		<path class="st37" d="M71.4,55.4c0,0.7,0.5,1,1.1,0.6c0.7-0.4,1.1-1.1,1.1-1.9c0-0.7-0.5-1-1.1-0.6C71.8,53.9,71.4,54.6,71.4,55.4
			z"/>
		<path class="st38" d="M71.9,55.5c0,0.6,0.4,0.8,0.9,0.5c0.5-0.3,0.8-0.9,0.9-1.5c0-0.6-0.4-0.8-0.9-0.5
			C72.2,54.3,71.9,54.8,71.9,55.5z"/>
		<path class="st35" d="M44.2,74.6l28-16.8c1.7-1.1,2.8-3,2.9-5c0-0.3-0.1-0.7-0.2-1l0,0c0.8,0,1.3,0.7,1.3,1.8
			c-0.1,2.1-1.2,3.9-2.9,5L45.3,75.5c-0.4,0.2-0.8,0.4-1.2,0.4l0,0c-0.4,0-0.7-0.1-0.9-0.4c-0.1-0.1-0.2-0.2-0.2-0.4
			C43.4,75,43.8,74.9,44.2,74.6z"/>
		<polygon class="st36" points="62.8,63.5 65.4,61.9 66.6,62.7 64.1,64.2 		"/>
		<polygon class="st36" points="49.2,71.7 50.4,72.4 47.9,73.9 46.6,73.2 		"/>
		<path class="st36" d="M75.9,55.3c-0.3,0.8-0.7,1.6-1.3,2.3l-1.2-0.7c0.6-0.7,1-1.4,1.3-2.2L75.9,55.3z"/>
		<path class="st36" d="M75,52.2l0.5-0.2c0.5,0.4,0.8,1,0.7,1.7c0,0.5-0.1,1.1-0.3,1.6l-1.2-0.7c0.2-0.5,0.3-1.1,0.3-1.7
			C75.1,52.6,75.1,52.4,75,52.2z"/>
		<path class="st36" d="M73.3,56.9l1.2,0.7c-0.3,0.4-0.8,0.7-1.2,1l-1.1,0.7l-1.3-0.7l1.3-0.8C72.6,57.6,72.9,57.3,73.3,56.9z"/>
		<polygon class="st36" points="68.1,60.3 69.3,61 66.8,62.6 65.5,61.8 		"/>
		<polygon class="st36" points="72,59.4 69.5,60.9 68.2,60.2 70.8,58.7 		"/>
		<path class="st36" d="M45.2,75.6l-1.3-0.7c0.1,0,0.2-0.1,0.3-0.2l2.3-1.4l1.3,0.7l-2.4,1.4L45.2,75.6z"/>
		<polygon class="st36" points="63.9,64.3 61.4,65.8 60.1,65.1 62.7,63.5 		"/>
		<path class="st36" d="M44.2,75.8L44.2,75.8c-0.4,0-0.7-0.1-0.9-0.4c-0.1-0.1-0.2-0.2-0.2-0.4c0.3,0,0.5-0.1,0.7-0.1l1.3,0.7
			C44.8,75.7,44.5,75.8,44.2,75.8z"/>
		<polygon class="st36" points="55.8,69.1 53.3,70.7 52,70 54.6,68.4 		"/>
		<polygon class="st36" points="53.1,70.8 50.6,72.3 49.3,71.6 51.9,70 		"/>
		<polygon class="st36" points="61.2,65.9 58.7,67.4 57.4,66.7 60,65.2 		"/>
		<polygon class="st36" points="58.5,67.5 56,69.1 54.7,68.3 57.3,66.8 		"/>
		<path class="st37" d="M43.8,73.9l27.9-16.8c1.5-1,2.4-2.6,2.5-4.3c0-0.2,0-0.5-0.1-0.7h0.1c0.3,0.1,0.3,0.6,0.3,0.9
			c-0.1,1.8-1,3.4-2.5,4.4L44.1,74.1c-0.2,0.2-0.5,0.2-0.8,0.3c-0.1,0-0.2,0-0.2-0.1v-0.1C43.3,74.2,43.6,74.1,43.8,73.9z"/>
		<polygon class="st37" points="55.9,65.1 63.4,60.7 63.4,60.1 55.9,64.4 		"/>
		<polygon class="st37" points="52.7,64.7 48.9,66.8 52.7,64.1 		"/>
		<polygon class="st37" points="70.7,54.2 65.7,57.1 65.7,56.2 66.4,55.8 70.7,53.7 		"/>
		<polygon class="st37" points="64.5,57.8 53.9,63.9 53.9,63.2 54.6,62.7 64.5,56.9 		"/>
		
			<linearGradient id="SVGID_00000088093400246981332140000001122303264643292548_" gradientUnits="userSpaceOnUse" x1="-1054.1801" y1="55.4709" x2="-1051.8269" y2="59.2517" gradientTransform="matrix(-1 0 0 -1 -994.31 120.35)">
			<stop  offset="0.47" style="stop-color:#FFFFFF"/>
			<stop  offset="1" style="stop-color:#000000"/>
		</linearGradient>
		<path style="opacity:0.3;fill:url(#SVGID_00000088093400246981332140000001122303264643292548_);enable-background:new    ;" d="
			M43,75c-0.1-0.3-0.2-0.7-0.2-1c0.1-1.8,1-3.5,2.4-4.7l9.3-6.6l11.8-7l8.1-3.9c0.2-0.1,0.4-0.1,0.6-0.1c0.1,0.3,0.2,0.7,0.2,1
			c-0.1,2.1-1.2,3.9-2.9,5l-28,16.8C43.8,74.9,43.4,75,43,75z"/>
		<polygon class="st40" points="54.5,64 66.2,70.6 66.2,72 53.5,64.8 		"/>
		<polygon class="st41" points="61.4,59.9 73.8,67.2 66.2,70.6 54.5,64 		"/>
		<path class="st33" d="M63.7,79.1l9.3-6.7l11.8-7l8.1-3.9c1.4-0.4,2.4,0.4,2.4,2.1c-0.1,2.2-1.3,4.2-3.1,5.4L64.3,85.9
			c-1.8,1-3.1,0.2-3.1-1.8C61.3,82.2,62.2,80.4,63.7,79.1z"/>
		<path class="st34" d="M61.8,85.1c-0.1-0.3-0.2-0.7-0.2-1c0.1-1.8,1-3.5,2.4-4.7l9.3-6.6l11.8-7l8.1-3.9c0.2-0.1,0.4-0.1,0.6-0.1
			c0.1,0.3,0.2,0.7,0.2,1c-0.1,2.1-1.2,3.9-2.9,5.1l-28,16.9C62.6,85,62.2,85.1,61.8,85.1z"/>
		<path class="st35" d="M58.3,76.1l9.3-6.6l11.8-7l8.1-3.9c0.5-0.2,1.1-0.2,1.6,0.1l5.3,3c-0.5-0.2-1-0.3-1.5-0.1l-8.1,3.9L73,72.5
			l-9.3,6.7c-1.5,1.2-2.4,3.1-2.5,5c-0.1,0.8,0.2,1.6,0.9,2L56.7,83c-0.6-0.5-1-1.2-0.9-2C55.9,79.1,56.8,77.3,58.3,76.1z"/>
		<polygon class="st36" points="74.2,65.5 76.8,64 82.2,67.1 79.6,68.6 		"/>
		<polygon class="st36" points="79.7,62.3 82.6,60.9 87.9,64 85.1,65.4 		"/>
		<polygon class="st36" points="82.7,60.9 85.6,59.5 90.9,62.6 88.1,64 		"/>
		<polygon class="st36" points="67.6,69.4 68.6,68.8 74,71.9 73,72.5 71.6,73.5 66.2,70.4 		"/>
		<polygon class="st36" points="71.5,67.1 74.1,65.6 79.5,68.7 76.9,70.2 		"/>
		<polygon class="st36" points="79.4,62.5 79.6,62.4 84.9,65.5 84.8,65.5 82.3,67 76.9,63.9 		"/>
		<path class="st36" d="M87.5,58.5c0.5-0.2,1.1-0.2,1.6,0.1l5.3,3c-0.5-0.2-1-0.3-1.5-0.1l-1.9,0.9l-5.4-3.1L87.5,58.5z"/>
		<path class="st36" d="M55.8,81.1c0-0.2,0-0.4,0-0.6l5.4,3.1c0,0.2,0,0.4,0,0.6c-0.1,0.8,0.2,1.6,0.9,2L56.7,83
			C56.1,82.6,55.7,81.8,55.8,81.1z"/>
		<path class="st36" d="M62.2,80.9l-5.4-3.1c0.4-0.6,0.9-1.2,1.5-1.7l0.4-0.3l5.4,3.1l-0.3,0.2C63.1,79.6,62.6,80.2,62.2,80.9z"/>
		<polygon class="st36" points="68.8,68.7 71.4,67.2 76.7,70.3 74.1,71.8 		"/>
		<polygon class="st36" points="58.8,75.7 61.1,74 66.5,77.1 64.2,78.8 		"/>
		<path class="st36" d="M55.8,80.3c0.1-0.9,0.5-1.7,0.9-2.5l5.4,3.1c-0.4,0.8-0.7,1.6-0.9,2.5L55.8,80.3z"/>
		<polygon class="st36" points="61.3,74 63.6,72.3 69,75.4 66.6,77 		"/>
		<polygon class="st36" points="63.7,72.2 66.1,70.5 71.4,73.6 69.1,75.3 		"/>
		<path class="st37" d="M62.3,82.2c0,0.7,0.5,1,1.1,0.6c0.7-0.4,1.1-1.1,1.1-1.9c0-0.7-0.5-1-1.1-0.6C62.7,80.7,62.3,81.4,62.3,82.2
			z"/>
		<path class="st38" d="M62.8,82.2c0,0.6,0.4,0.8,0.9,0.5c0.5-0.3,0.8-0.9,0.9-1.5c0-0.6-0.4-0.8-0.9-0.5
			C63.2,81,62.8,81.6,62.8,82.2z"/>
		<path class="st37" d="M90.1,65.5c0,0.7,0.5,1,1.1,0.6c0.7-0.4,1.1-1.1,1.1-1.9c0-0.7-0.5-1-1.1-0.6C90.5,64,90.1,64.7,90.1,65.5z"
			/>
		<path class="st38" d="M90.6,65.6c0,0.6,0.4,0.8,0.9,0.5c0.5-0.3,0.8-0.9,0.9-1.5c0-0.6-0.4-0.8-0.9-0.5C91,64.4,90.7,65,90.6,65.6
			z"/>
		<path class="st35" d="M62.9,84.8l28-16.8c1.7-1.1,2.8-3,2.9-5.1c0-0.3-0.1-0.7-0.2-1l0,0c0.8,0,1.3,0.7,1.3,1.8
			c-0.1,2.1-1.2,3.9-2.9,5.1L64.1,85.6c-0.4,0.2-0.8,0.3-1.2,0.4l0,0c-0.3,0-0.7-0.2-0.9-0.4c-0.1-0.1-0.2-0.2-0.2-0.4
			C62.2,85.1,62.6,85,62.9,84.8z"/>
		<polygon class="st36" points="81.5,73.6 84.1,72 85.4,72.8 82.8,74.3 		"/>
		<polygon class="st36" points="67.9,81.8 69.2,82.5 66.6,84.1 65.3,83.3 		"/>
		<path class="st36" d="M94.7,65.4c-0.3,0.8-0.7,1.6-1.3,2.3L92.1,67c0.6-0.7,1.1-1.4,1.4-2.3L94.7,65.4z"/>
		<path class="st36" d="M93.8,62.3l0.5-0.2c0.5,0.4,0.8,1,0.7,1.7c0,0.5-0.1,1.1-0.3,1.6l-1.2-0.7c0.2-0.5,0.3-1.1,0.3-1.7
			C93.8,62.7,93.8,62.5,93.8,62.3z"/>
		<path class="st36" d="M92,67l1.2,0.7c-0.3,0.4-0.7,0.7-1.2,1l-1.1,0.7l-1.3-0.7l1.3-0.7C91.3,67.7,91.7,67.4,92,67z"/>
		<polygon class="st36" points="86.8,70.4 88.1,71.1 85.5,72.7 84.2,72 		"/>
		<polygon class="st36" points="90.8,69.5 88.2,71.1 86.9,70.3 89.5,68.8 		"/>
		<path class="st36" d="M63.9,85.7l-1.3-0.8l0.3-0.2l2.3-1.4l1.3,0.7l-2.4,1.4L63.9,85.7z"/>
		<polygon class="st36" points="82.7,74.4 80.1,75.9 78.8,75.2 81.4,73.7 		"/>
		<path class="st36" d="M62.9,85.9L62.9,85.9c-0.3,0-0.7-0.2-0.9-0.4c-0.1-0.1-0.2-0.2-0.2-0.4c0.3,0,0.5-0.1,0.7-0.2l1.3,0.7
			C63.5,85.9,63.2,85.9,62.9,85.9z"/>
		<polygon class="st36" points="74.6,79.3 72,80.8 70.7,80.1 73.3,78.5 		"/>
		<polygon class="st36" points="71.9,80.9 69.3,82.4 68,81.7 70.6,80.1 		"/>
		<polygon class="st36" points="80,76 77.4,77.6 76.1,76.8 78.7,75.3 		"/>
		<polygon class="st36" points="77.3,77.6 74.7,79.2 73.4,78.4 76,76.9 		"/>
		<path class="st37" d="M62.6,84.1l27.9-16.8c1.5-1,2.4-2.6,2.5-4.4c0-0.2,0-0.5-0.1-0.7l0.1,0c0.3,0.2,0.3,0.6,0.3,1
			c-0.1,1.8-1,3.4-2.5,4.3l-28,16.8c-0.2,0.2-0.5,0.2-0.8,0.3c-0.1,0-0.2,0-0.2-0.1c0,0,0-0.1,0-0.1C62.1,84.3,62.3,84.2,62.6,84.1z
			"/>
		<polygon class="st37" points="74.6,75.2 82.1,70.8 82.1,70.2 74.6,74.5 		"/>
		<polygon class="st37" points="71.4,74.8 67.6,77 71.4,74.3 		"/>
		<polygon class="st37" points="89.4,64.4 84.5,67.2 84.5,66.3 85.2,65.9 89.4,63.8 		"/>
		<polygon class="st37" points="83.3,67.9 72.7,74 72.7,73.4 73.4,72.8 83.3,67 		"/>
		
			<linearGradient id="SVGID_00000026144663862052427210000009262354794401816752_" gradientUnits="userSpaceOnUse" x1="-1072.9358" y1="45.3598" x2="-1070.5828" y2="49.1495" gradientTransform="matrix(-1 0 0 -1 -994.31 120.35)">
			<stop  offset="0.47" style="stop-color:#FFFFFF"/>
			<stop  offset="1" style="stop-color:#000000"/>
		</linearGradient>
		<path style="opacity:0.3;fill:url(#SVGID_00000026144663862052427210000009262354794401816752_);enable-background:new    ;" d="
			M61.8,85.1c-0.1-0.3-0.2-0.7-0.2-1c0.1-1.8,1-3.5,2.4-4.7l9.3-6.6l11.8-7l8.1-3.9c0.2-0.1,0.4-0.1,0.6-0.1c0.1,0.3,0.2,0.7,0.2,1
			c-0.1,2.1-1.2,3.9-2.9,5.1l-28,16.9C62.6,85,62.2,85.1,61.8,85.1z"/>
		<polygon class="st43" points="46.4,44.8 52.4,45.4 53.2,45.6 79.9,30.2 100.4,42 101.9,46.6 101.9,53.3 101.5,53.5 101,53.1 
			73.6,68.9 60.5,61.4 53.5,65.2 46.4,61.1 46.4,58.7 43.7,57.2 		"/>
		<polygon class="st44" points="73.6,68.9 77.1,66.9 76.4,66 73.6,67.1 		"/>
		<polygon class="st45" points="101.9,53.3 101.5,53.5 101,53.1 78.7,66 79.3,54.2 100.4,42 101.9,46.6 		"/>
		<polygon class="st46" points="101.9,49.8 78.9,63.1 79,60 101.9,46.8 		"/>
		<polygon class="st43" points="60.1,58.7 65.7,55.5 78.9,63.1 100.3,50.7 100.3,53.5 77.5,66.6 73.6,66.6 		"/>
		<polygon class="st45" points="60.5,61.4 60.1,58.7 73.6,66.6 77.5,66.6 100.3,53.5 100.3,53.9 77.5,67.1 73.6,67.1 73.6,68.9 		
			"/>
		<polygon class="st47" points="73.6,66.6 73.6,67.1 73.6,68.9 60.5,61.4 60.1,58.7 		"/>
		<polygon class="st47" points="65.9,46.6 79.3,54.2 78.9,63.1 65.7,55.5 		"/>
		<polygon class="st45" points="50.7,61.4 54.2,47.3 58.5,45.1 62.3,48.8 65.9,46.6 65.7,55.5 60.1,58.7 60.5,61.4 53.5,65.2 
			53.5,63.1 		"/>
		<polygon class="st48" points="46.4,61.1 53.5,65.2 53.5,63.1 46.4,58.7 		"/>
		<polygon class="st47" points="43.7,57.2 50.7,61.4 54.2,47.3 46.4,44.8 		"/>
		<polygon class="st49" points="53.7,47.6 46.7,45.4 44.2,57 50.4,60.8 		"/>
		<g class="st50">
			<polygon class="st51" points="47.2,53.2 44.4,56 46.7,45.4 47.2,45.5 			"/>
			<polygon class="st51" points="47.9,45.7 53.2,47.4 47.9,52.6 			"/>
		</g>
		<polygon class="st52" points="51.8,55.4 50.4,60.8 46.8,58.5 		"/>
		<polygon class="st49" points="55.1,47.3 58.4,45.6 62.3,49.3 55.1,56.4 		"/>
		<polygon class="st49" points="54.5,47.7 54.5,57 51.4,60 		"/>
		<polygon class="st45" points="79.3,42.9 70.1,48.2 70.1,47.9 79.3,42.6 88.4,47.9 88.4,48.2 		"/>
		<polygon class="st45" points="89.5,36.8 80.3,42.2 80.3,41.9 89.5,36.6 98.6,41.8 98.6,42.1 		"/>
		<polygon class="st45" points="75.4,49.6 77.6,50.8 80.4,49.2 80.4,49 77.6,50.6 75.4,49.3 		"/>
		<polygon class="st46" points="87.6,48.2 85.9,49.2 85.8,49.1 87.5,48.1 		"/>
		<polygon class="st46" points="87.3,48 85.6,49 85.4,48.9 87.2,47.9 		"/>
		<polygon class="st46" points="87,47.8 85.3,48.8 85.1,48.7 86.9,47.7 		"/>
		<polygon class="st46" points="86.7,47.6 85,48.6 84.8,48.5 86.5,47.5 		"/>
		<polygon class="st46" points="86.4,47.4 84.7,48.4 84.5,48.3 86.2,47.3 		"/>
		<polygon class="st46" points="86.1,47.2 84.3,48.2 84.2,48.2 85.9,47.2 		"/>
		<polygon class="st46" points="85.7,47.1 84,48.1 83.9,48 85.6,47 		"/>
		<polygon class="st46" points="85.4,46.9 83.7,47.9 83.6,47.8 85.3,46.8 		"/>
		<polygon class="st46" points="85.1,46.7 83.4,47.7 83.2,47.6 85,46.6 		"/>
		<polygon class="st46" points="84.8,46.5 83.1,47.5 82.9,47.4 84.7,46.4 		"/>
		<polygon class="st46" points="84.5,46.3 82.8,47.3 82.6,47.2 84.3,46.3 		"/>
		<polygon class="st46" points="84.2,46.2 82.4,47.2 82.3,47.1 84,46.1 		"/>
		<polygon class="st46" points="83.9,46 82.1,47 82,46.9 83.7,45.9 		"/>
		<polygon class="st46" points="83.6,45.8 81.8,46.8 81.7,46.7 83.4,45.7 		"/>
		<polygon class="st46" points="83.2,45.6 81.5,46.6 81.4,46.5 83.1,45.5 		"/>
		<polygon class="st46" points="82.9,45.4 81.2,46.4 81,46.3 82.8,45.3 		"/>
		<polygon class="st46" points="82.6,45.2 80.9,46.2 80.7,46.2 82.5,45.2 		"/>
		<polygon class="st46" points="82.3,45.1 80.6,46.1 80.4,46 82.1,45 		"/>
		<polygon class="st46" points="82,44.9 80.2,45.9 80.1,45.8 81.8,44.8 		"/>
		<polygon class="st46" points="81.7,44.7 79.9,45.7 79.8,45.6 81.5,44.6 		"/>
		<polygon class="st46" points="81.3,44.5 79.6,45.5 79.5,45.4 81.2,44.4 		"/>
		<polygon class="st46" points="81,44.3 79.3,45.3 79.2,45.2 80.9,44.2 		"/>
		<polygon class="st46" points="80.7,44.1 79,45.1 78.8,45.1 80.6,44.1 		"/>
		<polygon class="st46" points="80.4,44 78.7,45 78.5,44.9 80.3,43.9 		"/>
		<polygon class="st46" points="80.1,43.8 78.4,44.8 78.2,44.7 79.9,43.7 		"/>
		<polygon class="st46" points="79.8,43.6 78,44.6 77.9,44.5 79.6,43.5 		"/>
		<polygon class="st46" points="92,45.5 90.3,46.5 90.2,46.4 91.9,45.4 		"/>
		<polygon class="st46" points="91.7,45.3 90,46.3 89.9,46.3 91.6,45.3 		"/>
		<polygon class="st46" points="91.4,45.2 89.7,46.2 89.5,46.1 91.3,45.1 		"/>
		<polygon class="st46" points="91.1,45 89.4,46 89.2,45.9 91,44.9 		"/>
		<polygon class="st46" points="90.8,44.8 89.1,45.8 88.9,45.7 90.6,44.7 		"/>
		<polygon class="st46" points="90.5,44.6 88.7,45.6 88.6,45.5 90.3,44.5 		"/>
		<polygon class="st46" points="90.2,44.4 88.4,45.4 88.3,45.3 90,44.3 		"/>
		<polygon class="st46" points="89.8,44.2 88.1,45.2 88,45.2 89.7,44.2 		"/>
		<polygon class="st46" points="89.5,44.1 87.8,45.1 87.6,45 89.4,44 		"/>
		<polygon class="st46" points="89.2,43.9 87.5,44.9 87.3,44.8 89.1,43.8 		"/>
		<polygon class="st46" points="88.9,43.7 87.2,44.7 87,44.6 88.8,43.6 		"/>
		<polygon class="st46" points="88.6,43.5 86.9,44.5 86.7,44.4 88.4,43.4 		"/>
		<polygon class="st46" points="88.3,43.3 86.5,44.3 86.4,44.2 88.1,43.2 		"/>
		<polygon class="st46" points="88,43.1 86.2,44.1 86.1,44.1 87.8,43.1 		"/>
		<polygon class="st46" points="87.6,43 85.9,44 85.8,43.9 87.5,42.9 		"/>
		<polygon class="st46" points="87.3,42.8 85.6,43.8 85.5,43.7 87.2,42.7 		"/>
		<polygon class="st46" points="87,42.6 85.3,43.6 85.1,43.5 86.9,42.5 		"/>
		<polygon class="st46" points="86.7,42.4 85,43.4 84.8,43.3 86.5,42.3 		"/>
		<polygon class="st46" points="86.4,42.2 84.7,43.2 84.5,43.1 86.2,42.2 		"/>
		<polygon class="st46" points="86.1,42.1 84.3,43.1 84.2,43 85.9,42 		"/>
		<polygon class="st46" points="85.8,41.9 84,42.9 83.9,42.8 85.6,41.8 		"/>
		<polygon class="st46" points="85.4,41.7 83.7,42.7 83.6,42.6 85.3,41.6 		"/>
		<polygon class="st46" points="94.7,43.8 93,44.8 92.9,44.8 94.6,43.8 		"/>
		<polygon class="st46" points="94.4,43.7 92.7,44.7 92.6,44.6 94.3,43.6 		"/>
		<polygon class="st46" points="94.1,43.5 92.4,44.5 92.2,44.4 94,43.4 		"/>
		<polygon class="st46" points="93.8,43.3 92.1,44.3 91.9,44.2 93.7,43.2 		"/>
		<polygon class="st46" points="93.5,43.1 91.8,44.1 91.6,44 93.3,43 		"/>
		<polygon class="st46" points="93.2,42.9 91.4,43.9 91.3,43.8 93,42.8 		"/>
		<polygon class="st46" points="92.9,42.7 91.1,43.7 91,43.7 92.7,42.7 		"/>
		<polygon class="st46" points="92.5,42.6 90.8,43.6 90.7,43.5 92.4,42.5 		"/>
		<polygon class="st46" points="92.2,42.4 90.5,43.4 90.4,43.3 92.1,42.3 		"/>
		<polygon class="st46" points="91.9,42.2 90.2,43.2 90,43.1 91.8,42.1 		"/>
		<polygon class="st46" points="91.6,42 89.9,43 89.7,42.9 91.4,41.9 		"/>
		<polygon class="st46" points="91.3,41.8 89.6,42.8 89.4,42.8 91.1,41.7 		"/>
		<polygon class="st46" points="91,41.7 89.2,42.7 89.1,42.6 90.8,41.6 		"/>
		<polygon class="st46" points="90.7,41.5 88.9,42.5 88.8,42.4 90.5,41.4 		"/>
		<polygon class="st46" points="90.3,41.3 88.6,42.3 88.5,42.2 90.2,41.2 		"/>
		<polygon class="st46" points="90,41.1 88.3,42.1 88.2,42 89.9,41 		"/>
		<polygon class="st46" points="97.7,42.1 96,43.1 95.8,43 97.6,42 		"/>
		<polygon class="st46" points="97.4,41.9 95.7,42.9 95.5,42.8 97.2,41.8 		"/>
		<polygon class="st46" points="97.1,41.7 95.4,42.7 95.2,42.7 96.9,41.7 		"/>
		<polygon class="st46" points="96.8,41.6 95,42.6 94.9,42.5 96.6,41.5 		"/>
		<polygon class="st46" points="96.5,41.4 94.7,42.4 94.6,42.3 96.3,41.3 		"/>
		<polygon class="st46" points="96.1,41.2 94.4,42.2 94.3,42.1 96,41.1 		"/>
		<polygon class="st46" points="95.8,41 94.1,42 93.9,41.9 95.7,40.9 		"/>
		<polygon class="st46" points="95.5,40.8 93.8,41.8 93.6,41.7 95.4,40.7 		"/>
		
			<linearGradient id="SVGID_00000024720997379902308750000007156885369829088165_" gradientUnits="userSpaceOnUse" x1="-1080.5836" y1="80.6242" x2="-1079.8608" y2="80.6242" gradientTransform="matrix(-1 0 0 -1 -994.31 120.35)">
			<stop  offset="0" style="stop-color:#414E51"/>
			<stop  offset="1" style="stop-color:#2E383B"/>
		</linearGradient>
		<path style="fill:url(#SVGID_00000024720997379902308750000007156885369829088165_);" d="M85.7,38.6c0.2-0.1,0.3-0.1,0.5,0
			c0.1,0,0.1,0.1,0.1,0.1v2c0,0.1,0,0.1-0.1,0.1c-0.2,0.1-0.3,0.1-0.5,0c-0.1,0-0.1-0.1-0.1-0.1v-2C85.6,38.6,85.6,38.6,85.7,38.6z"
			/>
		<path class="st54" d="M85.7,38.6c-0.1,0-0.1,0.1-0.1,0.2c0,0.1,0.1,0.1,0.1,0.1c0.2,0.1,0.4,0.1,0.5,0c0.1,0,0.1-0.1,0.1-0.2
			c0-0.1-0.1-0.1-0.1-0.1C86,38.5,85.8,38.5,85.7,38.6z"/>
		
			<linearGradient id="SVGID_00000049902162482520398840000012824127517639819933_" gradientUnits="userSpaceOnUse" x1="-1088.4185" y1="80.3654" x2="-1086.365" y2="80.3654" gradientTransform="matrix(-1 0 0 -1 -994.31 120.35)">
			<stop  offset="0" style="stop-color:#414E51"/>
			<stop  offset="1" style="stop-color:#2E383B"/>
		</linearGradient>
		<path style="fill:url(#SVGID_00000049902162482520398840000012824127517639819933_);" d="M92.4,39.3c0.5-0.2,1-0.2,1.5,0
			c0.2,0.1,0.3,0.2,0.3,0.4v0.5c0,0.2-0.1,0.3-0.3,0.4c-0.5,0.2-1,0.2-1.5,0c-0.2-0.1-0.3-0.2-0.3-0.4v-0.5
			C92.1,39.5,92.2,39.4,92.4,39.3z"/>
		<path class="st54" d="M92.4,39.3c-0.2,0-0.4,0.2-0.4,0.4c0,0.2,0.2,0.4,0.4,0.4c0.5,0.2,1,0.2,1.5,0c0.2,0,0.4-0.2,0.4-0.4
			c0-0.2-0.2-0.4-0.4-0.4C93.4,39.1,92.8,39.1,92.4,39.3z"/>
		<polygon class="st56" points="68,47.8 89.3,35.5 89.4,35.6 68.1,47.9 		"/>
		<polygon class="st43" points="80.4,58.9 80.5,58.9 80.5,54.2 89.3,49.1 89.2,49 80.4,54.1 		"/>
		<polygon class="st56" points="80.5,54.2 80.5,58.9 80.4,58.9 80.4,54.1 		"/>
		<polygon class="st43" points="90.2,53.2 90.3,53.2 90.3,48.5 99.1,43.4 99,43.3 90.2,48.4 		"/>
		<polygon class="st56" points="90.3,48.5 90.3,53.2 90.2,53.2 90.2,48.4 		"/>
		<polygon class="st34" points="88.6,52.3 89.2,52 89.2,51.2 88.6,51.5 		"/>
		<polygon class="st34" points="90.7,51 91.4,50.6 91.4,49.8 90.7,50.2 		"/>
		
			<linearGradient id="SVGID_00000096051120127020657170000009805836140472436617_" gradientUnits="userSpaceOnUse" x1="-1051.1395" y1="64.6317" x2="-1050.0819" y2="64.2527" gradientTransform="matrix(-1 0 0 -1 -994.31 120.35)">
			<stop  offset="0" style="stop-color:#ADBDC6"/>
			<stop  offset="0.18" style="stop-color:#A7B7C0"/>
			<stop  offset="0.43" style="stop-color:#96A5AE"/>
			<stop  offset="0.72" style="stop-color:#7A8992"/>
			<stop  offset="1" style="stop-color:#58666F"/>
		</linearGradient>
		<path style="fill:url(#SVGID_00000096051120127020657170000009805836140472436617_);" d="M53.6,48.9l0.7-0.2L59.2,62
			c0.1,0.3,0,0.7-0.3,0.9c-0.5,0.2-0.8-0.1-0.9-0.7c-0.2-0.5-4.8-13-4.8-13L53.6,48.9z"/>
		<path class="st58" d="M53.1,49.2c0.1,0.3,0.5,0.4,0.7,0.2c0.3-0.1,0.5-0.4,0.4-0.6c-0.2-0.3-0.5-0.4-0.8-0.2
			C53.2,48.7,53,48.9,53.1,49.2z"/>
		
			<linearGradient id="SVGID_00000148625065826271072200000012824841018306758585_" gradientUnits="userSpaceOnUse" x1="-1047.4285" y1="73.8432" x2="-1046.8733" y2="73.6405" gradientTransform="matrix(-1 0 0 -1 -994.31 120.35)">
			<stop  offset="0" style="stop-color:#ADBDC6"/>
			<stop  offset="0.18" style="stop-color:#A7B7C0"/>
			<stop  offset="0.43" style="stop-color:#96A5AE"/>
			<stop  offset="0.72" style="stop-color:#7A8992"/>
			<stop  offset="1" style="stop-color:#58666F"/>
		</linearGradient>
		<path style="fill:url(#SVGID_00000148625065826271072200000012824841018306758585_);" d="M53.4,49.1c0.1,0.1,0.3,0.2,0.4,0.1
			c0.2-0.1,0.3-0.2,0.2-0.4l-1.8-4.9l-0.6,0.3L53.4,49.1z"/>
		<path class="st43" d="M20.4,54.2l0.9,0.7l2.8,0.4l38.8-11.1c0.4-0.1,0.7-0.4,0.9-0.8c0.1-0.6-0.6-1.2-0.6-1.2l-2-2.3L58,38.1
			l-15,4l-21.6,9.5l-2.5,0L20.4,54.2z"/>
		<polygon class="st56" points="46.1,44.2 61.1,39.9 58,38.1 43,42.1 		"/>
		<path class="st48" d="M49.7,39.5c0.1-0.3,0.2-0.5,0.4-0.7c0.2-0.1,0.3-0.1,0.4,0.1l0.9,1.4L49.3,41L49.7,39.5z"/>
		
			<linearGradient id="SVGID_00000056395405095483955700000015172145641741637000_" gradientUnits="userSpaceOnUse" x1="-1044.0933" y1="80.9584" x2="-1043.4147" y2="79.1605" gradientTransform="matrix(-1 0 0 -1 -994.31 120.35)">
			<stop  offset="0" style="stop-color:#E4B21B"/>
			<stop  offset="1" style="stop-color:#C27E16"/>
		</linearGradient>
		<path style="fill:url(#SVGID_00000056395405095483955700000015172145641741637000_);" d="M49.4,39.3c0.1-0.3,0.2-0.5,0.4-0.7
			c0.1-0.1,0.2-0.1,0.3-0.1l0.4,0.2l0,0c-0.1-0.1-0.2-0.1-0.3,0c-0.2,0.2-0.4,0.4-0.4,0.7l-0.5,1.5l-0.4-0.2L49.4,39.3z"/>
		
			<linearGradient id="SVGID_00000110443026354947803860000003780810159612367285_" gradientUnits="userSpaceOnUse" x1="-749.5117" y1="81.1664" x2="-749.9787" y2="80.3645" gradientTransform="matrix(1 0 0 -1 800.37 120.35)">
			<stop  offset="0" style="stop-color:#ADBDC6"/>
			<stop  offset="1" style="stop-color:#8799A3"/>
		</linearGradient>
		<path style="fill:url(#SVGID_00000110443026354947803860000003780810159612367285_);" d="M51.3,39.4L50.5,39
			c-0.1-0.1-0.2-0.1-0.3,0c-0.2,0.1-0.3,0.3-0.3,0.6c0,0.1,0,0.2,0.1,0.2l0.8,0.4c0.1,0,0.2,0,0.2,0c0.2-0.1,0.3-0.3,0.3-0.6
			C51.4,39.6,51.3,39.5,51.3,39.4z"/>
		
			<linearGradient id="SVGID_00000015355892340621262180000015974297425144443317_" gradientUnits="userSpaceOnUse" x1="-1034.6268" y1="78.8172" x2="-1034.8824" y2="77.4953" gradientTransform="matrix(-1 0 0 -1 -994.31 120.35)">
			<stop  offset="0" style="stop-color:#ADBDC6"/>
			<stop  offset="0.18" style="stop-color:#A7B7C0"/>
			<stop  offset="0.43" style="stop-color:#96A5AE"/>
			<stop  offset="0.72" style="stop-color:#7A8992"/>
			<stop  offset="1" style="stop-color:#58666F"/>
		</linearGradient>
		<path style="fill:url(#SVGID_00000015355892340621262180000015974297425144443317_);" d="M29.1,43.8l21.7-4.5c0,0,0.9-0.3,1,0.6
			c0.1,0.9-1.1,0.9-1.1,0.9l-21.5,4.5l-0.2-0.8V43.8z"/>
		<path class="st63" d="M28.7,44.6c0,0.4,0.3,0.8,0.5,0.7c0.3,0,0.4-0.4,0.4-0.8c0-0.4-0.3-0.7-0.5-0.7
			C28.9,43.8,28.7,44.1,28.7,44.6z"/>
		
			<linearGradient id="SVGID_00000024721065359537291140000003997501931384370106_" gradientUnits="userSpaceOnUse" x1="-1018.0341" y1="75.2097" x2="-1018.2015" y2="74.3549" gradientTransform="matrix(-1 0 0 -1 -994.31 120.35)">
			<stop  offset="0" style="stop-color:#ADBDC6"/>
			<stop  offset="0.18" style="stop-color:#A7B7C0"/>
			<stop  offset="0.43" style="stop-color:#96A5AE"/>
			<stop  offset="0.72" style="stop-color:#7A8992"/>
			<stop  offset="1" style="stop-color:#58666F"/>
		</linearGradient>
		<path style="fill:url(#SVGID_00000024721065359537291140000003997501931384370106_);" d="M29.2,45c0.1,0,0.2-0.2,0.2-0.4
			c0-0.2-0.1-0.4-0.3-0.4l-11.1,2.1l0.7,0.7L29.2,45z"/>
		<path class="st48" d="M46.1,44.3l15.1-4.4l2,2.3c0,0,0.7,0.6,0.6,1.2c-0.1,0.4-0.5,0.7-0.9,0.8L24.1,55.3l0.1-1.7L46.1,44.3z"/>
		<polygon class="st56" points="20.4,54.2 19.8,53.2 20.2,51.9 23.2,53.8 23.1,54.1 21.2,54.8 		"/>
		
			<linearGradient id="SVGID_00000180357751650134081090000000723994821240477096_" gradientUnits="userSpaceOnUse" x1="-748.3781" y1="80.5802" x2="-748.8453" y2="79.7782" gradientTransform="matrix(1 0 0 -1 800.37 120.35)">
			<stop  offset="0" style="stop-color:#ADBDC6"/>
			<stop  offset="1" style="stop-color:#8799A3"/>
		</linearGradient>
		<path style="fill:url(#SVGID_00000180357751650134081090000000723994821240477096_);" d="M52.4,40l-0.8-0.4c-0.1,0-0.2,0-0.2,0
			c-0.2,0.1-0.3,0.3-0.3,0.6c0,0.1,0,0.2,0.1,0.2l0.8,0.4c0.1,0,0.2,0,0.2,0c0.2-0.1,0.3-0.3,0.3-0.6C52.5,40.1,52.4,40,52.4,40z"/>
		<path class="st48" d="M52.1,40.7c0.1-0.3,0.2-0.5,0.4-0.7c0.2-0.1,0.3-0.1,0.4,0.1l0.9,1.4l-2.2,0.7L52.1,40.7z"/>
		
			<linearGradient id="SVGID_00000041281917859349657880000012549794230253044641_" gradientUnits="userSpaceOnUse" x1="-1046.6254" y1="80.0089" x2="-1045.9468" y2="78.211" gradientTransform="matrix(-1 0 0 -1 -994.31 120.35)">
			<stop  offset="0" style="stop-color:#E4B21B"/>
			<stop  offset="1" style="stop-color:#C27E16"/>
		</linearGradient>
		<path style="fill:url(#SVGID_00000041281917859349657880000012549794230253044641_);" d="M51.8,40.5c0.1-0.3,0.2-0.5,0.4-0.7
			c0.1,0,0.2,0,0.3,0l0.4,0.2l0,0c-0.1-0.1-0.2-0.1-0.3,0c-0.2,0.1-0.4,0.4-0.4,0.7l-0.4,1.5L51.3,42L51.8,40.5z"/>
		<path class="st43" d="M0.4,91.9c1.1-2.8,5.3-7.6,5.3-7.6l5.8,3.1l1.8-0.1l0.8-1l1.4-0.2l0.2,0.1l7.7,4.4l-1.3,1.6l-0.3,0.1
			l-3.1,3.2l-0.4,0.1c-1.6,1.7-3.4,3.3-5.3,4.7c-1.3,0.9-2.9,1.1-4.4,0.5L1,96.4C0,95.1-0.3,93.4,0.4,91.9z"/>
		
			<linearGradient id="SVGID_00000066515282096248364680000000822159901139451792_" gradientUnits="userSpaceOnUse" x1="-1000.4024" y1="27.6529" x2="-998.0669" y2="22.3474" gradientTransform="matrix(-1 0 0 -1 -994.31 120.35)">
			<stop  offset="0" style="stop-color:#E4B21B"/>
			<stop  offset="1" style="stop-color:#C27E16"/>
		</linearGradient>
		<path style="fill:url(#SVGID_00000066515282096248364680000000822159901139451792_);" d="M0.4,91.9c0.3-0.6,0.6-1.3,1-1.9l7.9,4.5
			C8.4,95.9,7,99,8.6,100.7l0,0.1l-7.6-4.3C0,95.2-0.3,93.4,0.4,91.9z"/>
		<polygon class="st68" points="18.4,95.6 17.8,93.7 18.1,93.6 18.8,95.5 		"/>
		<path class="st48" d="M9.5,94.2c0.5-0.7,2-2.5,2-2.5h0.3L14,89l4.5,3.1l3.4-0.2l1.1-1.5l0.4,0.2l-1.3,1.6l-0.3,0.1l-3,3.1
			l-0.7-1.8l-0.3,0.1l0.6,1.9c-1.6,1.7-3.4,3.3-5.3,4.7c-1.3,0.9-2.9,1.1-4.4,0.5H8.6l0-0.1C6.9,98.9,8.6,95.5,9.5,94.2z"/>
		<polygon class="st68" points="13.3,87.3 13.8,87.6 11.9,87.7 11.5,87.3 		"/>
		<polygon class="st48" points="13.2,88.5 11.9,87.7 13.8,87.6 		"/>
		<path class="st69" d="M13,91.3c0.8-0.1,1.6,0,2.3,0.3c1,0.5,1.9,1.2,2.8,2l-0.3,0.1c0,0-1.4-1.2-1.9-1.6C15,91.5,14,91.2,13,91.3z
			"/>
		<polygon class="st70" points="22.2,89.9 23.4,89 24.2,89.5 24.3,89.7 23.4,90.7 23.2,90.5 22,92 21.9,92 21.8,91.9 22.1,91.2 
			21.8,91 21.2,91.6 21.2,91.5 21,91.5 		"/>
		<polygon class="st58" points="21,91.5 22.2,89.9 23.4,89 24.2,89.5 23.1,90.4 21.9,92 21.8,91.9 22.1,91.2 21.8,91 21.2,91.5 		
			"/>
		<polygon class="st71" points="22.2,89.9 23.1,90.4 21.9,92 21.8,91.9 22.1,91.2 21.8,91 21.2,91.5 21,91.5 		"/>
		<polygon class="st70" points="20.3,88.8 21.4,87.9 22.3,88.4 22.3,88.6 21.5,89.6 21.3,89.4 20,90.9 20,90.9 19.9,90.8 20.2,90 
			19.9,89.9 19.3,90.4 19.2,90.4 19.1,90.4 		"/>
		<polygon class="st58" points="19.1,90.4 20.3,88.8 21.4,87.9 22.3,88.4 21.2,89.3 20,90.9 19.9,90.8 20.2,90 19.8,89.9 19.2,90.4 
					"/>
		<polygon class="st71" points="20.3,88.8 21.2,89.3 20,90.9 19.9,90.8 20.2,90 19.8,89.9 19.2,90.4 19.1,90.4 		"/>
		<polygon class="st70" points="18.4,87.7 19.5,86.8 20.4,87.3 20.4,87.4 19.6,88.5 19.3,88.3 18.1,89.8 18.1,89.8 17.9,89.7 
			18.3,88.9 18,88.8 17.3,89.3 17.3,89.3 17.2,89.3 		"/>
		<polygon class="st58" points="17.2,89.3 18.4,87.7 19.5,86.8 20.4,87.3 19.3,88.2 18.1,89.8 17.9,89.7 18.3,88.9 17.9,88.7 
			17.3,89.3 		"/>
		<polygon class="st71" points="18.4,87.7 19.3,88.2 18.1,89.8 17.9,89.7 18.3,88.9 17.9,88.7 17.3,89.3 17.2,89.3 		"/>
		<polygon class="st70" points="16.5,86.6 17.6,85.7 18.5,86.2 18.5,86.3 17.6,87.3 17.4,87.2 16.2,88.7 16.1,88.7 16,88.6 
			16.3,87.8 16.1,87.7 15.4,88.2 15.4,88.2 15.3,88.2 		"/>
		<polygon class="st58" points="15.3,88.2 16.5,86.6 17.6,85.7 18.5,86.2 17.3,87.1 16.1,88.7 16,88.6 16.3,87.8 16,87.6 15.4,88.2 
					"/>
		<polygon class="st71" points="16.5,86.6 17.3,87.1 16.1,88.7 16,88.6 16.3,87.8 16,87.6 15.4,88.2 15.3,88.2 		"/>
		<polygon class="st70" points="14.5,85.5 15.7,84.6 16.5,85.1 16.5,85.2 15.7,86.2 15.5,86.1 14.3,87.6 14.2,87.6 14.1,87.5 
			14.4,86.7 14.1,86.6 13.5,87.1 13.5,87.1 13.3,87 		"/>
		<polygon class="st58" points="13.3,87 14.5,85.5 15.7,84.6 16.5,85.1 15.4,85.9 14.2,87.6 14.1,87.5 14.4,86.7 14.1,86.5 
			13.5,87.1 		"/>
		<polygon class="st71" points="14.5,85.5 15.4,85.9 14.2,87.6 14.1,87.5 14.4,86.7 14.1,86.5 13.5,87.1 13.3,87 		"/>
		<path class="st48" d="M7.7,84.1c0.1-0.1,0.3-0.2,0.4-0.3C8.6,83.5,9,83.7,9,84.3c0,0.5-0.2,0.9-0.5,1.3l-3.8,4.7
			c0,0-1.8,2.4-2.1,4.1c0,0-0.5-2.8,0.7-4.8C4.7,87.6,6.1,85.8,7.7,84.1z"/>
		
			<linearGradient id="SVGID_00000000222252766849627380000008705307493220323244_" gradientUnits="userSpaceOnUse" x1="-999.5378" y1="30.6578" x2="-999.2205" y2="26.075" gradientTransform="matrix(-1 0 0 -1 -994.31 120.35)">
			<stop  offset="0" style="stop-color:#E4B21B"/>
			<stop  offset="1" style="stop-color:#C27E16"/>
		</linearGradient>
		<path style="fill:url(#SVGID_00000000222252766849627380000008705307493220323244_);" d="M2.8,89.3c1.4-1.9,2.8-3.7,4.4-5.5
			c0.1-0.1,0.2-0.2,0.4-0.3c0.2-0.1,0.4-0.1,0.6-0.1l0.5,0.2l0,0c-0.2-0.1-0.4,0-0.6,0.1c-0.1,0.1-0.3,0.2-0.4,0.3
			c-1.6,1.7-3.1,3.5-4.4,5.5c-1.2,1.9-0.7,4.8-0.7,4.8l-0.5-0.2C2.1,94.1,1.6,91.2,2.8,89.3z"/>
		<polygon class="st48" points="5.4,87.3 7.3,90.4 6.8,91 4.5,87.7 		"/>
		<polygon class="st73" points="4.5,87.7 6.8,91 6,90.6 4,87.5 		"/>
		<polygon class="st48" points="2,85.3 4.1,88.5 3.6,89.2 1.2,85.6 		"/>
		<polygon class="st73" points="1.2,85.6 3.6,89.1 3,89 0.6,85.5 		"/>
		
			<linearGradient id="SVGID_00000015328868293577575720000016848015979937503902_" gradientUnits="userSpaceOnUse" x1="-1003.256" y1="39.4871" x2="-1002.5686" y2="38.4559" gradientTransform="matrix(-1 0 0 -1 -994.31 120.35)">
			<stop  offset="0" style="stop-color:#E4B21B"/>
			<stop  offset="1" style="stop-color:#C27E16"/>
		</linearGradient>
		<path style="fill:url(#SVGID_00000015328868293577575720000016848015979937503902_);" d="M9.5,80.7l-0.7-0.4
			c-0.1-0.1-0.3-0.1-0.4,0c-0.3,0.2-0.6,0.6-0.6,1c0,0.1,0,0.3,0.2,0.4L8.7,82c0.1,0.1,0.3,0.1,0.4,0c0.4-0.2,0.6-0.6,0.6-1
			C9.7,80.9,9.6,80.7,9.5,80.7z"/>
		<path class="st48" d="M9.7,81c0,0.4-0.2,0.8-0.6,1c-0.1,0.1-0.3,0.1-0.4,0c-0.1-0.1-0.2-0.2-0.2-0.4c0-0.4,0.2-0.8,0.6-1
			c0.1-0.1,0.3-0.1,0.4,0C9.7,80.7,9.7,80.9,9.7,81z"/>
		<path class="st48" d="M5.5,80.5c1-0.5,2.2-0.5,3.2,0.1c-0.3,0.2-0.5,0.6-0.5,1c-0.9-0.4-2-0.4-2.9,0.1c-1.9,0.9-3.5,3.5-3.5,3.5
			l-0.5-0.7C1.4,84.4,3.3,81.4,5.5,80.5z"/>
		<path class="st43" d="M5.1,80.3c0.9-0.4,2-0.5,2.9-0.1c-0.8-0.2-1.7-0.1-2.5,0.2c-2.2,0.9-4.2,3.9-4.2,3.9l-0.5-0.1
			C0.9,84.2,2.9,81.3,5.1,80.3z"/>
		
			<linearGradient id="SVGID_00000141448407096470971900000001047718964907543683_" gradientUnits="userSpaceOnUse" x1="-995.4102" y1="35.6069" x2="-995.1633" y2="34.4171" gradientTransform="matrix(-1 0 0 -1 -994.31 120.35)">
			<stop  offset="0" style="stop-color:#E4B21B"/>
			<stop  offset="1" style="stop-color:#C27E16"/>
		</linearGradient>
		<path style="fill:url(#SVGID_00000141448407096470971900000001047718964907543683_);" d="M1.8,84.6l-0.7-0.4
			c-0.1-0.1-0.3-0.1-0.4,0c-0.3,0.2-0.6,0.6-0.6,1c0,0.1,0.1,0.3,0.2,0.4L0.9,86c0.1,0.1,0.3,0.1,0.4,0c0.3-0.2,0.6-0.6,0.6-1
			C1.9,84.8,1.9,84.7,1.8,84.6z"/>
		<path class="st48" d="M1.9,85c0,0.4-0.2,0.8-0.6,1c-0.1,0.1-0.3,0.1-0.4,0c-0.1-0.1-0.2-0.2-0.2-0.3c0-0.4,0.2-0.8,0.6-1
			c0.1-0.1,0.3-0.1,0.4-0.1C1.9,84.7,2,84.8,1.9,85z"/>
		<path class="st56" d="M18.6,48.2l-1-0.5l-1.9,2.5L7.7,84.9c0,0-0.1,0.4,0.1,0.5c0.2,0.1,2.5,1.5,2.5,1.5l0.4,0.1l7.7-35.5
			L18.6,48.2z"/>
		<path class="st48" d="M16.5,47.4l0.1-1c0-0.3,0.2-0.6,0.4-0.8c0.1-0.1,0.2-0.1,0.3,0c0.1,0.1,0.1,0.2,0.1,0.3l0.2,1.8l-1.9,2.5
			l-0.9-0.5v-0.4L16.5,47.4z"/>
		<polygon class="st56" points="14.8,49.2 14.8,49.7 14.2,49.4 14.2,49 		"/>
		<polygon class="st43" points="15.9,47.2 16.5,47.4 14.8,49.2 14.2,49 		"/>
		
			<linearGradient id="SVGID_00000013879314992279235560000001977566502807957413_" gradientUnits="userSpaceOnUse" x1="-782.1304" y1="74.1014" x2="-782.7121" y2="73.0879" gradientTransform="matrix(1 0 0 -1 800.37 120.35)">
			<stop  offset="0" style="stop-color:#ADBDC6"/>
			<stop  offset="1" style="stop-color:#8799A3"/>
		</linearGradient>
		<path style="fill:url(#SVGID_00000013879314992279235560000001977566502807957413_);" d="M19.2,46.8l-1.9-1.1
			c-0.1-0.1-0.2-0.1-0.3,0c-0.2,0.2-0.4,0.4-0.4,0.7c0,0.1,0,0.2,0.1,0.3l1.9,1.1c0.1,0.1,0.2,0.1,0.3,0c0.2-0.2,0.4-0.4,0.4-0.7
			C19.4,47,19.3,46.9,19.2,46.8z"/>
		
			<linearGradient id="SVGID_00000118358810030221339230000002154796650455020959_" gradientUnits="userSpaceOnUse" x1="-797.2262" y1="34.7063" x2="-797.8167" y2="33.6928" gradientTransform="matrix(1 0 0 -1 800.37 120.35)">
			<stop  offset="0" style="stop-color:#ADBDC6"/>
			<stop  offset="1" style="stop-color:#8799A3"/>
		</linearGradient>
		<path style="fill:url(#SVGID_00000118358810030221339230000002154796650455020959_);" d="M4.6,86.5l-2.9-1.7
			c-0.1-0.1-0.2-0.1-0.3,0C1.2,85,1,85.2,1,85.5c0,0.1,0,0.2,0.1,0.3L4,87.5c0.1,0.1,0.2,0.1,0.3,0c0.2-0.2,0.4-0.4,0.4-0.7
			C4.7,86.7,4.7,86.5,4.6,86.5z"/>
		<path class="st48" d="M11.2,86c0.1-0.1,0.2-0.3,0.4-0.3c0.5-0.3,0.9-0.1,0.9,0.5c0,0.5-0.2,0.9-0.5,1.3l-3.8,4.7
			c0,0-1.8,2.4-2.1,4.1c0,0-0.5-2.8,0.7-4.8C8.2,89.5,9.6,87.7,11.2,86z"/>
		
			<linearGradient id="SVGID_00000060029982591369192780000006489433664819955328_" gradientUnits="userSpaceOnUse" x1="-1002.9064" y1="28.5948" x2="-1002.3159" y2="23.8181" gradientTransform="matrix(-1 0 0 -1 -994.31 120.35)">
			<stop  offset="0" style="stop-color:#E4B21B"/>
			<stop  offset="1" style="stop-color:#C27E16"/>
		</linearGradient>
		<path style="fill:url(#SVGID_00000060029982591369192780000006489433664819955328_);" d="M6.3,91.2c1.4-1.9,2.8-3.7,4.4-5.5
			c0.1-0.1,0.3-0.2,0.4-0.3c0.2-0.1,0.4-0.1,0.6-0.1l0.5,0.2l0,0c-0.2-0.1-0.4,0-0.6,0.1c-0.2,0.1-0.3,0.2-0.4,0.3
			c-1.6,1.7-3.1,3.5-4.4,5.4c-1.2,1.9-0.7,4.8-0.7,4.8l-0.5-0.2C5.6,95.9,5.1,93.1,6.3,91.2z"/>
		
			<linearGradient id="SVGID_00000008145148209069726730000000841064165257366666_" gradientUnits="userSpaceOnUse" x1="-754.5012" y1="34.1069" x2="-755.0211" y2="33.2168" gradientTransform="matrix(1 0 0 -1 766.37 120.35)">
			<stop  offset="0" style="stop-color:#E4B21B"/>
			<stop  offset="1" style="stop-color:#C27E16"/>
		</linearGradient>
		<path style="fill:url(#SVGID_00000008145148209069726730000000841064165257366666_);" d="M12,86.3l-0.2-0.1c-0.1,0-0.2,0-0.3,0
			c-0.2,0.1-0.4,0.4-0.4,0.7c0,0.1,0,0.2,0.1,0.2l0.2,0.1c0.1,0,0.2,0,0.3,0c0.2-0.1,0.3-0.4,0.4-0.6C12.1,86.5,12.1,86.3,12,86.3z"
			/>
		<path class="st80" d="M12.1,86.6c0,0.3-0.2,0.5-0.4,0.7c-0.1,0-0.2,0-0.3,0c-0.1-0.1-0.1-0.1-0.1-0.2c0-0.3,0.2-0.5,0.4-0.7
			c0.1-0.1,0.2-0.1,0.3,0C12,86.4,12.1,86.5,12.1,86.6z"/>
		
			<linearGradient id="SVGID_00000090275566012937397060000010736270723838580146_" gradientUnits="userSpaceOnUse" x1="-758.3822" y1="29.2904" x2="-758.8933" y2="28.4003" gradientTransform="matrix(1 0 0 -1 766.37 120.35)">
			<stop  offset="0" style="stop-color:#E4B21B"/>
			<stop  offset="1" style="stop-color:#C27E16"/>
		</linearGradient>
		<path style="fill:url(#SVGID_00000090275566012937397060000010736270723838580146_);" d="M8.1,91.1L7.9,91c-0.1,0-0.2,0-0.3,0
			c-0.2,0.1-0.4,0.4-0.4,0.7c0,0.1,0,0.2,0.1,0.2L7.6,92c0.1,0,0.2,0,0.3,0c0.2-0.1,0.4-0.4,0.4-0.7C8.2,91.2,8.2,91.1,8.1,91.1z"/>
		<path class="st80" d="M8.2,91.3c0,0.3-0.2,0.5-0.4,0.7c-0.1,0.1-0.2,0.1-0.3,0c0-0.1-0.1-0.1,0-0.2c0-0.3,0.2-0.5,0.4-0.7
			c0.1,0,0.2,0,0.3,0C8.1,91.2,8.2,91.2,8.2,91.3z"/>
		
			<linearGradient id="SVGID_00000022525561552000643640000001454555608501770136_" gradientUnits="userSpaceOnUse" x1="-1010.9599" y1="74.5724" x2="-1010.6955" y2="73.2151" gradientTransform="matrix(-1 0 0 -1 -994.31 120.35)">
			<stop  offset="0" style="stop-color:#E4B21B"/>
			<stop  offset="1" style="stop-color:#C27E16"/>
		</linearGradient>
		<path style="fill:url(#SVGID_00000022525561552000643640000001454555608501770136_);" d="M16,46.1c0-0.3,0.2-0.6,0.4-0.8
			c0.1-0.1,0.2-0.1,0.3,0l0.5,0.3c-0.1-0.1-0.2-0.1-0.3,0c-0.3,0.2-0.4,0.5-0.4,0.8l-0.1,1l-0.5-0.2L16,46.1z"/>
		
			<linearGradient id="SVGID_00000099647975026682505810000011865567501344649623_" gradientUnits="userSpaceOnUse" x1="-1013.5278" y1="73.1134" x2="-1013.0872" y2="72.3026" gradientTransform="matrix(-1 0 0 -1 -994.31 120.35)">
			<stop  offset="0" style="stop-color:#E4B21B"/>
			<stop  offset="1" style="stop-color:#C27E16"/>
		</linearGradient>
		<path style="fill:url(#SVGID_00000099647975026682505810000011865567501344649623_);" d="M18.4,47.5c0-0.3,0.2-0.6,0.4-0.8
			c0.1-0.1,0.2-0.1,0.3,0l0.5,0.3c-0.1,0-0.2,0-0.3,0c-0.3,0.2-0.4,0.5-0.4,0.8l-0.1,1.3l-0.5-0.3L18.4,47.5z"/>
		
			<linearGradient id="SVGID_00000044175996116571898860000001705460200675636864_" gradientUnits="userSpaceOnUse" x1="-1006.8422" y1="37.4489" x2="-1006.1547" y2="36.4089" gradientTransform="matrix(-1 0 0 -1 -994.31 120.35)">
			<stop  offset="0" style="stop-color:#E4B21B"/>
			<stop  offset="1" style="stop-color:#C27E16"/>
		</linearGradient>
		<path style="fill:url(#SVGID_00000044175996116571898860000001705460200675636864_);" d="M13.1,82.7l-0.7-0.4
			c-0.1-0.1-0.3-0.1-0.4,0c-0.3,0.2-0.5,0.6-0.5,1c0,0.1,0,0.3,0.2,0.4l0.7,0.4c0.1,0.1,0.3,0,0.4,0c0.3-0.2,0.5-0.6,0.5-1
			C13.2,82.9,13.2,82.8,13.1,82.7z"/>
		<path class="st48" d="M13.2,83c0,0.4-0.2,0.8-0.6,1c-0.1,0.1-0.3,0.1-0.4,0c-0.1-0.1-0.2-0.2-0.2-0.4c0-0.4,0.2-0.8,0.6-1
			c0.1-0.1,0.3-0.1,0.4,0C13.2,82.8,13.2,82.9,13.2,83z"/>
		<path class="st48" d="M9.1,82.5c1-0.5,2.2-0.5,3.2,0.1c-0.3,0.2-0.5,0.6-0.5,1c-0.9-0.5-2-0.4-2.9,0.1c-1.9,0.9-3.5,3.5-3.5,3.5
			l-0.5-0.7C4.9,86.4,6.9,83.4,9.1,82.5z"/>
		<path class="st43" d="M8.7,82.4c0.9-0.4,2-0.4,2.9-0.1c-0.8-0.2-1.7-0.1-2.5,0.2c-2.2,0.9-4.2,3.9-4.2,3.9l-0.4-0.1
			C4.5,86.3,6.4,83.3,8.7,82.4z"/>
		
			<linearGradient id="SVGID_00000057865275540834005000000013692843193590522797_" gradientUnits="userSpaceOnUse" x1="-998.9907" y1="33.5688" x2="-998.744" y2="32.379" gradientTransform="matrix(-1 0 0 -1 -994.31 120.35)">
			<stop  offset="0" style="stop-color:#E4B21B"/>
			<stop  offset="1" style="stop-color:#C27E16"/>
		</linearGradient>
		<path style="fill:url(#SVGID_00000057865275540834005000000013692843193590522797_);" d="M5.4,86.6l-0.7-0.4
			c-0.1-0.1-0.3-0.1-0.4,0c-0.3,0.2-0.6,0.6-0.6,1c0,0.1,0.1,0.3,0.2,0.4L4.5,88c0.1,0.1,0.3,0,0.4,0c0.3-0.2,0.6-0.6,0.6-1
			C5.5,86.8,5.5,86.7,5.4,86.6z"/>
		<path class="st48" d="M5.5,87c0,0.4-0.2,0.8-0.6,1c-0.1,0.1-0.3,0.1-0.4,0c-0.1-0.1-0.2-0.2-0.1-0.4c0-0.4,0.2-0.8,0.6-1
			c0.1-0.1,0.3-0.1,0.4,0C5.5,86.7,5.5,86.9,5.5,87z"/>
		
			<linearGradient id="SVGID_00000063600382245768923330000000093266435679027619_" gradientUnits="userSpaceOnUse" x1="-784.3234" y1="71.0751" x2="-784.7552" y2="70.3171" gradientTransform="matrix(1 0 0 -1 800.37 120.35)">
			<stop  offset="0" style="stop-color:#ADBDC6"/>
			<stop  offset="1" style="stop-color:#69777F"/>
		</linearGradient>
		<path style="fill:url(#SVGID_00000063600382245768923330000000093266435679027619_);" d="M16.6,49.6l-1-0.6c-0.1,0-0.2,0-0.2,0
			c-0.2,0.1-0.3,0.3-0.4,0.6c0,0.1,0,0.2,0.1,0.2l1,0.6c0.1,0,0.2,0,0.2,0c0.2-0.1,0.3-0.3,0.3-0.5C16.7,49.7,16.7,49.6,16.6,49.6z"
			/>
		
			<linearGradient id="SVGID_00000143611464009473268110000018392579293076137627_" gradientUnits="userSpaceOnUse" x1="-1000.3489" y1="43.9921" x2="-1000.8954" y2="43.7982" gradientTransform="matrix(-1 0 0 -1 -994.31 120.35)">
			<stop  offset="0" style="stop-color:#ADBDC6"/>
			<stop  offset="1" style="stop-color:#58666F"/>
		</linearGradient>
		<polygon style="fill:url(#SVGID_00000143611464009473268110000018392579293076137627_);" points="9.3,67.1 9.9,67.4 3.2,85.8 
			2.7,85.5 		"/>
		
			<linearGradient id="SVGID_00000062184081776235235830000006426184115088780672_" gradientUnits="userSpaceOnUse" x1="-1006.684" y1="62.1871" x2="-1007.8385" y2="61.7377" gradientTransform="matrix(-1 0 0 -1 -994.31 120.35)">
			<stop  offset="0" style="stop-color:#ADBDC6"/>
			<stop  offset="1" style="stop-color:#58666F"/>
		</linearGradient>
		<path style="fill:url(#SVGID_00000062184081776235235830000006426184115088780672_);" d="M16.2,51.4l-6,16.1
			c-0.4,0.1-0.9-0.1-1.2-0.4l6-16.3c0,0,0.3-1.1,0.5-1.4c0.1-0.3,1.2-0.4,1.2,0.2c-0.1,0.5-0.2,0.9-0.4,1.4L16.2,51.4z"/>
		<path class="st89" d="M15.5,51c0,0,0.1-1.6,1-1.6c0.1,0.1,0.1,0.2,0.1,0.3c-0.1,0.5-0.2,0.9-0.4,1.4L15.5,51z"/>
		
			<linearGradient id="SVGID_00000105425633787386351980000010622070922793396608_" gradientUnits="userSpaceOnUse" x1="-783.3678" y1="70.5379" x2="-783.7996" y2="69.7887" gradientTransform="matrix(1 0 0 -1 800.37 120.35)">
			<stop  offset="0" style="stop-color:#ADBDC6"/>
			<stop  offset="1" style="stop-color:#69777F"/>
		</linearGradient>
		<path style="fill:url(#SVGID_00000105425633787386351980000010622070922793396608_);" d="M17.5,50.1l-1-0.6c-0.1,0-0.2,0-0.2,0
			c-0.2,0.1-0.3,0.3-0.3,0.6c0,0.1,0,0.2,0.1,0.2l1,0.6c0.1,0,0.2,0,0.2,0c0.2-0.1,0.3-0.3,0.3-0.5C17.6,50.2,17.6,50.1,17.5,50.1z"
			/>
		<polygon class="st43" points="62.5,59.1 67.8,62.3 68.9,58.9 65.3,57.4 		"/>
		<polygon class="st43" points="68.7,57.1 69.3,57.3 68.1,59.2 67.6,58.5 		"/>
		<path class="st48" d="M64.7,53.2c0.6-0.5,1.4-0.4,1.9,0.1c0.3,0.3,0.4,0.7,0.3,1.1v2.1l-4.4,2.5V57C62.6,55.5,63.4,54,64.7,53.2z"
			/>
		
			<linearGradient id="SVGID_00000022556122820728390610000017125326559496222346_" gradientUnits="userSpaceOnUse" x1="-1058.108" y1="65.794" x2="-1057.1034" y2="62.7358" gradientTransform="matrix(-1 0 0 -1 -994.31 120.35)">
			<stop  offset="0" style="stop-color:#E4B21B"/>
			<stop  offset="1" style="stop-color:#C27E16"/>
		</linearGradient>
		<path style="fill:url(#SVGID_00000022556122820728390610000017125326559496222346_);" d="M63.7,52.7c0.4-0.3,0.9-0.4,1.4-0.2
			l1.1,0.6l0,0c-0.5-0.2-1-0.1-1.5,0.2c-1.3,0.8-2.1,2.3-2.2,3.8v2.1l-1-0.6v-2C61.6,54.9,62.4,53.5,63.7,52.7z"/>
		<path class="st48" d="M70.9,57c0.5-0.5,1.4-0.5,1.9,0.1c0.3,0.3,0.4,0.8,0.3,1.2v2.1l-4.4,2.4v-2C68.8,59.3,69.6,57.8,70.9,57z"/>
		<path class="st71" d="M62.5,43.6c0,0.2,0.2,0.3,0.4,0.2c0.2-0.1,0.3-0.4,0.4-0.6c0-0.2-0.2-0.3-0.4-0.2
			C62.6,43.1,62.5,43.3,62.5,43.6z"/>
		<path class="st71" d="M56.2,44c0,0.2,0.2,0.3,0.4,0.2c0.2-0.1,0.3-0.4,0.4-0.6c0-0.2-0.2-0.3-0.4-0.2C56.4,43.6,56.3,43.8,56.2,44
			z"/>
		<path class="st71" d="M59.8,45.7c0,0.2,0.2,0.3,0.4,0.2c0.2-0.1,0.3-0.4,0.4-0.6c0-0.2-0.2-0.3-0.4-0.2
			C60,45.3,59.8,45.5,59.8,45.7z"/>
		<path class="st48" d="M55.2,46l0.9-2.8c0,0,0.2-0.4,0.9-0.2c0.7,0.2,3.7,1.3,3.7,1.3l8,12.7l-1,1.4L55.2,46z"/>
		
			<linearGradient id="SVGID_00000082328537857981040670000008055436987615077514_" gradientUnits="userSpaceOnUse" x1="-1050.3647" y1="76.0518" x2="-1054.498" y2="77.929" gradientTransform="matrix(-1 0 0 -1 -994.31 120.35)">
			<stop  offset="0" style="stop-color:#E4B21B"/>
			<stop  offset="1" style="stop-color:#C27E16"/>
		</linearGradient>
		<path style="fill:url(#SVGID_00000082328537857981040670000008055436987615077514_);" d="M55.3,42.6c0,0,0.2-0.5,0.9-0.3
			c0.7,0.2,3.7,1.3,3.7,1.3l0.8,0.7c0,0-2.9-1-3.7-1.3s-0.9,0.2-0.9,0.2l-1,2.7l-1.1-0.4L55.3,42.6z"/>
		<polygon class="st69" points="66.7,58.3 68.7,60 67.6,58.5 55.2,46.1 54.1,45.7 56.2,47.8 54.2,46.7 53.8,46.8 64.8,57.7 
			64.2,56.8 		"/>
		
			<linearGradient id="SVGID_00000101799336181364716680000013119016705601163665_" gradientUnits="userSpaceOnUse" x1="-1052.1482" y1="73.7042" x2="-1051.5753" y2="72.77" gradientTransform="matrix(-1 0 0 -1 -994.31 120.35)">
			<stop  offset="0" style="stop-color:#E4B21B"/>
			<stop  offset="1" style="stop-color:#C27E16"/>
		</linearGradient>
		<path style="fill:url(#SVGID_00000101799336181364716680000013119016705601163665_);" d="M58.1,46.6l-0.4-0.2
			c-0.1-0.1-0.2-0.1-0.3,0c-0.2,0.2-0.4,0.4-0.4,0.7c0,0.1,0,0.2,0.1,0.3l0.4,0.2c0.1,0.1,0.2,0.1,0.3,0c0.2-0.2,0.4-0.4,0.4-0.7
			C58.2,46.8,58.2,46.7,58.1,46.6z"/>
		<polygon class="st48" points="74.2,61.3 69.6,64.2 69.6,63.3 74.2,60.5 		"/>
		<polygon class="st56" points="60.9,59 69.6,64.2 69.6,63.3 60.9,58.1 		"/>
		<polygon class="st43" points="73.4,60.1 68.7,62.8 69.6,63.3 74.2,60.5 		"/>
		<polygon class="st43" points="54.9,46.5 56.2,47.8 54.2,46.7 		"/>
		<polygon class="st56" points="60.8,58.7 68.7,63.3 68.7,66.8 60.8,62.2 		"/>
		<polygon class="st48" points="61.1,58.5 69,63.1 69,66.6 68.7,66.8 68.7,63.3 60.8,58.7 		"/>
		<polygon class="st43" points="61.1,58.5 69,63.1 68.7,63.3 60.8,58.7 		"/>
		<path class="st48" d="M64.9,64.8l2.9-1.8v3.3l-3.2,0.9c-0.1,0-0.2,0-0.3-0.1c-0.2-0.1-0.3-0.4-0.3-0.6
			C64,65.8,64.3,65.1,64.9,64.8z"/>
		
			<linearGradient id="SVGID_00000069369383519112885250000006365768666047921310_" gradientUnits="userSpaceOnUse" x1="-1064.548" y1="62.622" x2="-1063.182" y2="58.5328" gradientTransform="matrix(-1 0 0 -1 -994.31 120.35)">
			<stop  offset="0" style="stop-color:#E4B21B"/>
			<stop  offset="1" style="stop-color:#C27E16"/>
		</linearGradient>
		<path style="fill:url(#SVGID_00000069369383519112885250000006365768666047921310_);" d="M69.9,56.5c0.4-0.3,0.9-0.4,1.4-0.2
			l1.1,0.6l0,0c-0.5-0.2-1-0.1-1.5,0.2c-1.3,0.8-2.1,2.3-2.2,3.8v2l-1-0.5l-0.1-2C67.8,58.7,68.6,57.3,69.9,56.5z"/>
		<path class="st71" d="M68,63.5c0,0.2,0.1,0.3,0.2,0.4c0.1,0.1,0.2,0,0.2-0.1c0-0.2-0.1-0.3-0.2-0.4C68.1,63.3,68,63.3,68,63.5z"/>
		<path class="st71" d="M66.6,62.7c0,0.2,0.1,0.3,0.2,0.4c0.1,0.1,0.2,0,0.2-0.1c0-0.2-0.1-0.3-0.2-0.4
			C66.7,62.5,66.6,62.5,66.6,62.7z"/>
		<path class="st71" d="M62.2,62.5c0,0.2,0.1,0.3,0.2,0.4c0.1,0.1,0.2,0,0.2-0.1c0-0.2-0.1-0.3-0.2-0.4
			C62.3,62.3,62.2,62.4,62.2,62.5z"/>
		<path class="st71" d="M62.2,60.1c0,0.2,0.1,0.3,0.2,0.4c0.1,0.1,0.2,0,0.2-0.1c0-0.2-0.1-0.3-0.2-0.4C62.3,60,62.2,60,62.2,60.1z"
			/>
		<path class="st71" d="M60.9,59.3c0,0.2,0.1,0.3,0.2,0.4c0.1,0.1,0.2,0,0.2-0.1c0-0.2-0.1-0.3-0.2-0.4C61,59.1,60.9,59.1,60.9,59.3
			z"/>
		<path class="st71" d="M68,65.9c0,0.2,0.1,0.3,0.2,0.4c0.1,0.1,0.2,0,0.2-0.1c0-0.2-0.1-0.3-0.2-0.4c-0.1-0.1-0.2,0-0.2,0
			C68,65.8,68,65.8,68,65.9z"/>
		
			<linearGradient id="SVGID_00000183954428318992082900000006546962311993325489_" gradientUnits="userSpaceOnUse" x1="-1059.1018" y1="54.8928" x2="-1058.4938" y2="53.095" gradientTransform="matrix(-1 0 0 -1 -994.31 120.35)">
			<stop  offset="0" style="stop-color:#E4B21B"/>
			<stop  offset="1" style="stop-color:#C27E16"/>
		</linearGradient>
		<polygon style="fill:url(#SVGID_00000183954428318992082900000006546962311993325489_);" points="64.2,67.1 64.2,67.1 64.2,67.1 
					"/>
		
			<linearGradient id="SVGID_00000088843652407501153790000010455324990481041590_" gradientUnits="userSpaceOnUse" x1="-1059.6942" y1="55.0773" x2="-1058.9628" y2="52.9004" gradientTransform="matrix(-1 0 0 -1 -994.31 120.35)">
			<stop  offset="0" style="stop-color:#E4B21B"/>
			<stop  offset="1" style="stop-color:#C27E16"/>
		</linearGradient>
		<path style="fill:url(#SVGID_00000088843652407501153790000010455324990481041590_);" d="M64.5,64.5l2.9-1.8l0.4,0.3l-2.9,1.8
			c-0.6,0.4-0.9,1-1,1.7c0,0.2,0.1,0.5,0.3,0.6l-0.5-0.3c-0.2-0.2-0.2-0.4-0.2-0.6C63.6,65.5,63.9,64.9,64.5,64.5z"/>
		<path class="st48" d="M59,61.4l2.9-1.8v3.3l-3.2,0.9c-0.1,0-0.2,0-0.3-0.1c-0.2-0.1-0.3-0.4-0.3-0.6C58.1,62.4,58.5,61.8,59,61.4z
			"/>
		
			<linearGradient id="SVGID_00000175280888771302974670000013381175904963662015_" gradientUnits="userSpaceOnUse" x1="-1053.842" y1="58.4528" x2="-1053.1105" y2="56.276" gradientTransform="matrix(-1 0 0 -1 -994.31 120.35)">
			<stop  offset="0" style="stop-color:#E4B21B"/>
			<stop  offset="1" style="stop-color:#C27E16"/>
		</linearGradient>
		<path style="fill:url(#SVGID_00000175280888771302974670000013381175904963662015_);" d="M58.7,61.1l2.9-1.8l0.4,0.3l-2.9,1.8
			c-0.6,0.4-0.9,1-1,1.7c0,0.2,0.1,0.5,0.3,0.6l-0.5-0.3c-0.2-0.2-0.2-0.4-0.2-0.6C57.7,62.1,58.1,61.5,58.7,61.1z"/>
		
			<linearGradient id="SVGID_00000123430338710047706400000006561366347463548076_" gradientUnits="userSpaceOnUse" x1="-1066.0801" y1="61.604" x2="-1065.2251" y2="58.6693" gradientTransform="matrix(-1 0 0 -1 -994.31 120.35)">
			<stop  offset="0" style="stop-color:#ADBDC6"/>
			<stop  offset="0.18" style="stop-color:#A7B7C0"/>
			<stop  offset="0.43" style="stop-color:#96A5AE"/>
			<stop  offset="0.72" style="stop-color:#7A8992"/>
			<stop  offset="1" style="stop-color:#58666F"/>
		</linearGradient>
		<path style="fill:url(#SVGID_00000123430338710047706400000006561366347463548076_);" d="M73.1,58l-0.9-0.6
			c-0.4-0.2-0.9-0.1-1.2,0.1c-1,0.7-1.6,1.8-1.7,3c0,0.4,0.1,0.9,0.5,1.1l0.9,0.6c0.4,0.2,0.9,0.1,1.2-0.1c1-0.7,1.6-1.8,1.7-3
			C73.6,58.7,73.5,58.3,73.1,58z"/>
		<path class="st71" d="M73.6,59.1c-0.1,1.2-0.7,2.3-1.7,3c-0.4,0.4-1.1,0.3-1.5-0.1c-0.2-0.2-0.3-0.6-0.2-0.9
			c0.1-1.2,0.7-2.3,1.7-3c0.4-0.4,1.1-0.3,1.5,0.1C73.6,58.5,73.7,58.8,73.6,59.1z"/>
		<path class="st70" d="M73.2,59.4c0,0.9-0.5,1.7-1.2,2.1c-0.3,0.3-0.8,0.2-1.1-0.1c-0.2-0.2-0.2-0.4-0.2-0.6c0-0.9,0.5-1.7,1.2-2.1
			c0.3-0.3,0.8-0.2,1.1,0.1C73.1,58.9,73.2,59.2,73.2,59.4z"/>
		
			<linearGradient id="SVGID_00000141436913219209637360000008985680998230768024_" gradientUnits="userSpaceOnUse" x1="-1057.6871" y1="61.0549" x2="-1056.6295" y2="60.676" gradientTransform="matrix(-1 0 0 -1 -994.31 120.35)">
			<stop  offset="0" style="stop-color:#ADBDC6"/>
			<stop  offset="0.18" style="stop-color:#A7B7C0"/>
			<stop  offset="0.43" style="stop-color:#96A5AE"/>
			<stop  offset="0.72" style="stop-color:#7A8992"/>
			<stop  offset="1" style="stop-color:#58666F"/>
		</linearGradient>
		<path style="fill:url(#SVGID_00000141436913219209637360000008985680998230768024_);" d="M60.2,52.5l0.7-0.2l4.9,13.3
			c0,0,0.2,0.6-0.3,0.9c-0.5,0.2-0.8-0.1-0.9-0.7s-4.8-13-4.8-13L60.2,52.5z"/>
		<path class="st58" d="M59.7,52.7c0.2,0.3,0.5,0.4,0.8,0.2c0.3-0.1,0.5-0.4,0.4-0.6c-0.1-0.2-0.4-0.3-0.7-0.2
			C59.8,52.2,59.6,52.5,59.7,52.7z"/>
		
			<linearGradient id="SVGID_00000034786349866601924780000008462476882031463572_" gradientUnits="userSpaceOnUse" x1="-1053.9752" y1="70.2689" x2="-1053.4199" y2="70.0662" gradientTransform="matrix(-1 0 0 -1 -994.31 120.35)">
			<stop  offset="0" style="stop-color:#ADBDC6"/>
			<stop  offset="0.18" style="stop-color:#A7B7C0"/>
			<stop  offset="0.43" style="stop-color:#96A5AE"/>
			<stop  offset="0.72" style="stop-color:#7A8992"/>
			<stop  offset="1" style="stop-color:#58666F"/>
		</linearGradient>
		<path style="fill:url(#SVGID_00000034786349866601924780000008462476882031463572_);" d="M59.9,52.6c0,0.1,0.2,0.2,0.4,0.1
			c0.2,0,0.3-0.2,0.2-0.4l-1.8-4.9l-0.6,0.3L59.9,52.6z"/>
		
			<linearGradient id="SVGID_00000065052348518441719980000008803807249226563775_" gradientUnits="userSpaceOnUse" x1="-1052.745" y1="73.4451" x2="-1052.1809" y2="72.132" gradientTransform="matrix(-1 0 0 -1 -994.31 120.35)">
			<stop  offset="0" style="stop-color:#ADBDC6"/>
			<stop  offset="0.18" style="stop-color:#A7B7C0"/>
			<stop  offset="0.43" style="stop-color:#96A5AE"/>
			<stop  offset="0.72" style="stop-color:#7A8992"/>
			<stop  offset="1" style="stop-color:#58666F"/>
		</linearGradient>
		<path style="fill:url(#SVGID_00000065052348518441719980000008803807249226563775_);" d="M58.8,46.9l-0.4-0.3
			c-0.1-0.1-0.2-0.1-0.3,0c-0.3,0.2-0.5,0.5-0.5,0.9c0,0.1,0,0.2,0.1,0.3l0.4,0.3c0.1,0.1,0.2,0.1,0.3,0c0.3-0.2,0.5-0.5,0.5-0.9
			C58.9,47.1,58.9,47,58.8,46.9z"/>
		<path class="st71" d="M58.9,47.2c0,0.4-0.2,0.7-0.5,0.9c-0.1,0.1-0.2,0.1-0.3,0C58,48,57.9,47.9,58,47.8c0-0.4,0.2-0.7,0.5-0.9
			c0.1-0.1,0.2-0.1,0.3,0C58.9,47,58.9,47.1,58.9,47.2z"/>
		<path class="st48" d="M18.9,49.1l0.1-1.3c0-0.3,0.2-0.6,0.4-0.8c0.1-0.1,0.3-0.1,0.4,0c0.1,0.1,0.1,0.1,0.1,0.2l0.7,8.4l-9,30.9
			L10.8,87l7.7-35.5l-1.1-0.5v-0.3L18.9,49.1z"/>
		<polygon class="st43" points="18.4,48.8 18.9,49.1 17.3,50.8 16.7,50.5 		"/>
		<path class="st43" d="M24.2,53.6l-0.1,1.7l-0.4,0.7l-3.6,1c0,0-1.1,0.1-1.1-0.6c0-0.5,0.3-1,0.8-1.2c0.3-0.1,3.4-1.4,3.4-1.4
			L24.2,53.6z"/>
		<path class="st48" d="M19.8,56.4c0.1-0.3,0.3-0.6,0.6-0.7l3.2-1.1l0.7-1l-0.1,1.7l-0.4,0.7l-3.6,1C19.8,56.9,19.7,56.6,19.8,56.4z
			"/>
		<polygon class="st69" points="23.6,55.9 24.1,55.3 24.2,53.6 23.6,54.6 		"/>
		<path class="st71" d="M20.1,56.5c0,0.2,0.2,0.3,0.4,0.2c0.2-0.1,0.3-0.4,0.4-0.6c0-0.2-0.2-0.3-0.4-0.2
			C20.2,56,20.1,56.2,20.1,56.5z"/>
		<polygon class="st56" points="17.3,50.8 17.3,51.1 16.8,50.8 16.7,50.5 		"/>
	</g>
</g>
</svg>
