<?xml version="1.0" encoding="utf-8"?>
<!-- Generator: Adobe Illustrator 26.0.1, SVG Export Plug-In . SVG Version: 6.00 Build 0)  -->
<svg version="1.1" id="Layer_1" xmlns="http://www.w3.org/2000/svg" xmlns:xlink="http://www.w3.org/1999/xlink" x="0px" y="0px"
	 viewBox="0 0 150 84" style="enable-background:new 0 0 150 84;" xml:space="preserve">
<style type="text/css">
	.st0{clip-path:url(#SVGID_00000020401188059214169920000002303995370445500335_);}
	.st1{fill:#BCCFE1;}
	.st2{fill:#9B7968;stroke:#231F20;stroke-width:0.5;stroke-linecap:round;stroke-linejoin:round;}
	.st3{fill:#F2AB43;stroke:#211E1E;stroke-width:0.5;stroke-miterlimit:10;}
	.st4{fill:#595857;stroke:#231916;stroke-width:0.5;stroke-linecap:round;stroke-linejoin:round;}
	.st5{fill:#056FB8;stroke:#231916;stroke-width:0.5;stroke-linecap:round;stroke-linejoin:round;}
	.st6{opacity:0.8;fill:#34AD6F;enable-background:new    ;}
	.st7{fill:#EAAF85;}
	.st8{fill-rule:evenodd;clip-rule:evenodd;fill:#EAAF85;}
	.st9{fill:#E1A075;}
	.st10{fill:#E49C29;}
	.st11{opacity:0.2;}
	.st12{fill:#5D5E5E;}
	.st13{fill:#1D160D;}
	.st14{fill:#12110D;}
	.st15{fill:#251C13;}
	.st16{fill:#EB8127;}
	.st17{fill:#D56C2A;}
	.st18{fill:#ED8B2D;}
	.st19{fill:#545359;}
	.st20{fill:#3E3941;}
	.st21{fill:#646368;}
	.st22{fill:#D59368;}
	.st23{fill-rule:evenodd;clip-rule:evenodd;fill:#E1A075;}
	.st24{fill:#3D220F;}
	.st25{fill:#4D2C14;}
	.st26{fill:#331E0F;}
	.st27{fill:#2E190E;}
	.st28{fill:#4A2711;}
	.st29{fill:#C72A27;}
	.st30{fill:#D3372A;}
	.st31{fill:#E05E2F;}
	.st32{fill:#D3412B;}
	.st33{fill:#492E28;}
	.st34{fill:#FFFFFF;}
	.st35{clip-path:url(#SVGID_00000018236668591869797100000002839999280826733989_);}
	.st36{fill:#553730;}
	.st37{fill:#DE2726;}
	.st38{fill:#C2E6FA;}
	.st39{fill:#00A1E9;}
	.st40{enable-background:new    ;}
</style>
<g id="Layer_2_00000057829695930522088980000013737956204307185539_">
	<g id="Layer_5">
		<g>
			<g>
				<defs>
					<rect id="SVGID_1_" width="150" height="84"/>
				</defs>
				<clipPath id="SVGID_00000090995185073012933410000013057271602373412490_">
					<use xlink:href="#SVGID_1_"  style="overflow:visible;"/>
				</clipPath>
				<g style="clip-path:url(#SVGID_00000090995185073012933410000013057271602373412490_);">
					<rect x="-1.4" y="-3.8" class="st1" width="152.7" height="90.7"/>
					<path class="st2" d="M150.6,41.7c0,4,0,44,0,44H-1.1c0,0,0-40.1,0-44c0.2-23.5,42-42.8,76.2-42.8
						C109.1-1.2,150.3,17.9,150.6,41.7z"/>
					<path class="st3" d="M106.6,90.2H43.8c-3.1,0-5.6-2.5-5.6-5.6V63c0-2.5,1.7-4.7,4.1-5.4c21.5-6.1,44.3-6.1,65.8,0
						c2.4,0.7,4.1,2.9,4.1,5.4v21.6C112.2,87.7,109.7,90.2,106.6,90.2L106.6,90.2z"/>
					<path class="st4" d="M38.2,72.2C26.6,75,14.9,77.1,3,78.4c-12.1,1.3-24.4,1.8-36.6,1.5V59.6c11.8,2.8,23.9,4.7,36,5.7
						c11.9,1,23.8,1.1,35.7,0.3L38.2,72.2z"/>
					<path class="st4" d="M38.1,65.5L34.7,65c-12,0.1-23.9-0.8-35.7-2.7c-11.1-1.8-22.1-4.8-32.6-9v6.3c13.2,3.3,26.6,5.4,40,6.3
						C17,66.5,27.6,66.4,38.1,65.5z"/>
					<path class="st4" d="M112.2,72.2c11.6,2.9,23.3,5,35.2,6.3c12.1,1.3,24.4,1.8,36.6,1.5V59.6c-11.8,2.8-23.9,4.7-36,5.7
						c-11.9,1-23.8,1.1-35.7,0.3L112.2,72.2z"/>
					<path class="st4" d="M112.3,65.5l3.5-0.5c11.9,0.1,23.8-0.8,35.5-2.7c11.2-1.8,22.1-4.8,32.6-9v6.3
						c-13.1,3.3-26.5,5.4-39.9,6.3C133.4,66.5,122.8,66.4,112.3,65.5z"/>
					<path class="st4" d="M66.4,75.1h22.3c4.5,0,8.1,3.6,8.1,8.1l0,0l0,0l0,0H58.2l0,0l0,0C58.2,78.8,61.9,75.1,66.4,75.1z"/>
					<path class="st4" d="M103.6,86.5H51.4c-0.6,0-1.2-0.3-1.7-0.7c-0.4-0.4-0.7-1-0.7-1.7l0,0c0-3.2,2.6-5.8,5.8-5.8l0,0h45.4
						c3.2,0,5.8,2.6,5.8,5.8l0,0l0,0C106,85.4,104.9,86.5,103.6,86.5L103.6,86.5z"/>
					<path class="st5" d="M54.8,86.3l-5.7,11.4h54.4l-6.7-11.4C83,82.3,68.4,82.3,54.8,86.3L54.8,86.3z"/>
					<path class="st6" d="M140.7,81.6h-12.8L112,74.9l0.1-10c-0.1-2.5-1.4-4.9-3.5-6.2c-6.1-3.5-19.2-5.1-33.8-5.2
						c-14.1-0.2-27.1,2.4-33.2,5.6c-2.2,1.5-3.5,4-3.4,6.7l0.4,9l-16.7,6.8h-11C8.4,70.5,7.6,59.1,8.5,47.8
						c1-13.2,3.8-27.9,6.3-35.1C29.3,11,56.3,9.8,74.4,9.8c18.3,0,46,1.2,60.6,2.9c2.6,6.9,7.2,23.9,7.6,35.1
						C143,59.1,142.4,70.4,140.7,81.6z"/>
					<path class="st7" d="M77.4,7.3c-0.4-0.8-1.4-1-2.1-0.5c-0.2,0.1-0.3,0.3-0.4,0.4c-1.2,1.4-2.2,3-3,4.7l-5.1,3.6
						c0,0,0,0.9,0.5,0.9c2.5-0.6,4.8-1.8,6.6-3.5C75.7,10.8,77.8,8.8,77.4,7.3z"/>
					<path class="st8" d="M67.4,15c-0.6,0.8-2.3,1-2.6,1.1c-0.4,0.4-0.7,0.9-0.6,1.5c0,0.1,0,0.2,0.1,0.2l0.5-0.4H65
						c0-0.3,0.5-0.2,0.7-0.3c0.2-0.1,0.4,0,0.3,0.1c-0.2,0.1-0.4,0.3-0.5,0.4s0.1,0.4,0.5,0.1c0.4-0.2,0.7-0.2,1.1-0.9
						c0.1-0.2,0.1-0.4,0.9-0.6L67.4,15z"/>
					<path class="st9" d="M68,16.3c2.6-1.2,4.9-3.1,6.6-5.4l0.9,0.1c-0.5,0.6-1.1,1.3-1.7,1.9C72.2,14.5,70.2,15.6,68,16.3z"/>
					<path class="st7" d="M83.4,8.8c0,0-2.4-0.3-2.2,1.7c0.3,1.8,0.9,3.5,1.8,5.1l-0.9,5.7c0,0,0.9,0.6,1.3,0.3s2.7-4.1,2.2-6.7
						S85.2,9.7,83.4,8.8z"/>
					<path class="st9" d="M83.7,21.4c2.2-5.3,0.9-7.7,0.9-7.7l0.7-0.8c0.1,0.7,0.2,1.5,0.3,2.1C86.1,17.2,84.4,20.4,83.7,21.4z"/>
					<path class="st10" d="M73.4,17.3c-1,2.1-1.5,4.4-1.5,6.7l8.2-0.3c1.1-1.7,1.4-3.7,0.8-5.6L73.4,17.3z"/>
					<g class="st11">
						<path class="st12" d="M86.8,33.5c5.1,2.8,3.5,7.3-3.6,10c-7,2.6-16.8,2.6-22-0.2s-3.5-7.3,3.6-10
							C71.8,30.7,81.7,30.8,86.8,33.5z"/>
					</g>
					<path class="st13" d="M82.4,33.7c0.3,0,0.6,0.3,0.8,0.4c0.2,0.2,0.3,0.4,0.4,0.7c0,0.5-1.3,1.3-1.5,1.7
						c-0.4,0.6-0.8,1.1-1.2,1.6c-0.3,0.3-0.6,0.6-1,0.8c-0.8,0.2-1.6,0.2-2.3,0c-0.3-0.2-0.4-0.5-0.3-0.7c0.5-0.8,1-0.9,1.3-1.5
						c0.2-0.4,0.4-0.7,0.6-1.1c0.1-0.2,0.4-1.2,0.7-1.1L82.4,33.7z"/>
					<path class="st14" d="M77.6,39.1c0.8,0.2,1.6,0.2,2.3,0c0.4-0.2,0.7-0.5,1-0.8c0.5-0.5,0.9-1.1,1.2-1.7
						c0.2-0.4,1.5-1.3,1.5-1.7c-0.1-0.3-0.2-0.5-0.4-0.7c-0.7,0.8-1.4,1.7-1.9,2.7c-0.5,0.7-1.1,1.3-1.7,1.9c-1.5,0.5-2-0.1-2.2-0.5
						l-0.1,0.1C77.1,38.7,77.2,39,77.6,39.1z"/>
					<path class="st15" d="M79.2,35.8c-0.2,0.4-0.4,0.8-0.6,1.1c-0.3,0.4-0.6,0.7-0.9,1c0,0.4,0.3,1,1.1,0.4c0.6-0.5,1.1-1,1.6-1.5
						c0.4-0.3,0.6-0.7,0.7-1.2c0-0.4-0.1-0.8-0.4-1.2l-0.8,0.3C79.6,34.6,79.3,35.6,79.2,35.8z"/>
					<path class="st13" d="M74.3,38.9c0.3,0,0.5,0.4,0.6,0.6c0.2,0.4,0.1,0.8-0.2,1.1c-0.4,0.4-1.2,0.5-1.6,0.8
						c-0.8,0.5-1.6,1-2.5,1.5c-0.5,0.2-1.5,0.4-1.7-0.1c-0.2-0.3-0.2-0.7,0-1c0.4-0.4,0.8-0.8,1.3-1.2c0.2-0.2,0.5-0.4,0.7-0.7
						c0.1-0.2,0.7-0.9,1-0.8L74.3,38.9z"/>
					<path class="st14" d="M70.6,42.9c0.9-0.4,1.7-0.9,2.5-1.5c0.3-0.3,1.1-0.4,1.6-0.8c0.2-0.2,0.4-0.5,0.3-0.8
						c-0.4,0.8-1.7,1-2.1,1.2c-0.4,0.3-1.6,0.9-2.2,1.3c-0.6,0.3-1.2,0.4-1.8,0.4C69.1,43.3,70.1,43.1,70.6,42.9z"/>
					<path class="st15" d="M70.9,39.9c-0.2,0.2-0.4,0.5-0.7,0.7c-0.4,0.4-0.9,0.8-1.3,1.2c-0.1,0.2-0.2,0.4-0.1,0.6
						c0.3,0.1,0.5,0,0.7-0.2c1-0.7,0.8-0.8,1.4-1.2c0.5-0.4,1.5-0.7,1.6-1.2c0-0.2,0-0.5,0-0.7h-0.7C71.6,38.9,71,39.7,70.9,39.9z"
						/>
					<path class="st16" d="M82.5,33.7c-0.1-1.5-3.2-4-5.9-5.5c0.1-1.1,0-2.3,0.1-3.4c0.1-1.5-0.1-3.3,0.2-4.8c-1-1-2.1-2-3.3-2.8
						c-1,1.2-1.6,2.8-1.6,4.4c0.4,1-0.1,1.4,0,2.4s-0.1,5.1,0.1,6.7c0,0.2,0.1,0.4,0.3,0.5c0.1,0.1,0.1,0.1,0.2,0.1l0,0
						c0,0,5.5,2.6,6.9,4.3l0.2,0.3c0.1,0.2,0.4,0.3,0.6,0.2c0.4-0.1,0.7-0.3,1-0.5C81.9,35.2,82.4,34.5,82.5,33.7z"/>
					<path class="st17" d="M82.5,33.7c-0.1-1.5-3.2-4-5.9-5.5c0.1-1.1,0-2.3,0.1-3.4c0.1-1.5-0.2-2.9,0-4.4c0-0.2,0.7-1.7-1.5-1.6
						l0.1-0.3c-0.6,0.4-0.8,1.7-0.8,1.7c-0.4,1-0.6,2-0.6,3.1S73.8,28.4,74,30c0,0.2,0.2,0.4,0.3,0.5c0.1,0.1,0.1,0.1,0.2,0.1l0,0
						c0,0,5.5,2.6,6.9,4.3l0.2,0.2C82.1,34.8,82.4,34.3,82.5,33.7z"/>
					<path class="st18" d="M72,21.4c-0.1,0.9-0.1,1.8,0,2.7c0,1-0.1,5.1,0.1,6.7c0,0.2,0.1,0.4,0.3,0.5c0.1,0.1,0.1,0.1,0.2,0.1l0,0
						c0,0,5.5,2.6,6.9,4.3l0.2,0.3c0.1,0.2,0.4,0.3,0.6,0.2c0.3-0.1,0.5-0.2,0.8-0.3c-2.4-2-5-3.8-7.7-5.5c-1-0.4,0.2-10.3,0.2-13.1
						C72.7,17.7,72.1,20.3,72,21.4z"/>
					<path class="st16" d="M79.9,17c-1.8-1.4-2.9,1.5-2.9,1.5c-0.3,1-1.4,4.7-1.6,5.6s-1.5,4.6-1.7,5.1c-0.1,0.4-0.2,0.7-0.2,1.1
						l0,0c0,0-0.8,6.3-1.8,8.3l-0.1,0.3c-0.1,0.2-0.1,0.4,0,0.5c0.2,0.2,0.5,0.4,0.8,0.5c0.7,0.2,1.5,0.2,2.2-0.2
						c1.5-1,2.6-5.6,2.8-8.3c0.1-0.5,0.2-1,0.3-1.5c0.6-1.2,1.2-2.5,1.7-3.9c0.6-1.2,0.9-2.5,1.6-3.7C82.1,20.7,81.7,18.3,79.9,17
						C80,17,80,17,79.9,17z"/>
					<path class="st17" d="M74.5,39.7c1.5-1,2.6-5.6,2.8-8.3c0.1-0.5,0.2-1,0.3-1.5c0.6-1.2,1.2-2.5,1.7-3.9c0.4-1,0.9-1.9,1.5-2.8
						c0.8-1.5,1-3.4,0.4-5l0,0c-2.3-0.7-3.4,6.3-3.4,6.3c-0.3,1-0.7,1.6-1,2.5c-0.4,1-0.9,1.9-1.5,2.7c-0.1,0.4-0.2,0.7-0.2,1.1l0,0
						c0,0-0.8,6.3-1.8,8.3l-0.1,0.3c-0.1,0.1-0.1,0.3,0,0.4C73.6,40,74.1,39.9,74.5,39.7z"/>
					<path class="st18" d="M73.6,29.2c-0.1,0.4-0.2,0.7-0.2,1.1l0,0c0,0-0.8,6.3-1.8,8.3l-0.1,0.3c-0.1,0.2-0.1,0.4,0,0.5
						c0.2,0.2,0.4,0.3,0.6,0.4c0.7-1.6,1.3-3.3,1.7-5c0.1-7.2,4.2-15.5,4.2-15.5h-1.2c-0.2,0.5-1.2,4.1-1.5,4.8
						C75,25.2,73.9,28.6,73.6,29.2z"/>
					<path class="st19" d="M77.7,7.1c0,0,0,1.6-2.9,4.3c0,0-2.3,0.1-2.4-1.5c0,0,1.7-3.4,3.9-3.8c0.6-0.1,1.2,0.2,1.4,0.8
						C77.7,7,77.7,7,77.7,7.1z"/>
					<path class="st19" d="M81.9,7.7c1.3,0.7,4.3,2.1,1.9,4.6c0,0-1.8,1.8-2.7,2.6c-0.9,0.6-1.3,1.8-0.9,2.8
						c-1.9,1.7-4.8,1.5-6.5-0.4c-0.1-0.1-0.2-0.2-0.3-0.4c0.4-1.3,0.6-2.7,0.6-4.1c-0.1-1.5-0.6-6,2.7-7C78.1,5.5,79.2,6.2,81.9,7.7
						z"/>
					<path class="st20" d="M83.8,12.3c-0.6,0.9-1.3,1.7-2,2.5c-0.9,0.6-1.4,1.8-1.1,2.9c-1.2,0.8-2.5,1.2-3.9,1.1
						c2.5-2.6,2.7-4.1,2.8-5.5c0.1-2.3,0.6-3.8,1.8-4.7c0.4-0.3,0.9-0.4,1.5-0.4C84,8.8,85.5,10,83.8,12.3z"/>
					<path class="st21" d="M73.5,17c0.4-1.3,0.6-2.7,0.6-4.1c-0.1-1.5-0.6-6,2.7-7c0.8-0.2,1.3,0.2,2.4,0.4c-2.6,0.7-4.3,3.1-4,5.7
						c0.3,2.2,0.4,4.4,0.3,6.6C74.8,18.2,74.1,17.7,73.5,17z"/>
					<path class="st9" d="M77.3,7.5c0.4,0.4,0.6,0.9,0.5,1.5c-0.2,0.7,1.7,0.7,3.1-1.6c0,0-0.7-0.4,0.2-2.5L77.3,7.5z"/>
					<path class="st22" d="M77.7,7.9c1-0.4,2-0.6,3.1-0.6c0,0-0.4-0.3,0-1.6c0.7-0.7,1.1-1.6,0.9-2.6c-0.2-0.9-1-1.5-1.9-1.5
						C79.8,1.7,82.2,4.8,77.7,7.9z"/>
					<path class="st7" d="M76.2,4.1c0,0.2,0.3,0.2-0.1,1.2c-0.3,0.6-0.2,0.6,0,1.6c0.1,0.6,0.4,1.7,2.5,0.6c1-0.7,1.9-1.6,2.7-2.6
						c0.7-1,0.5-2.3-0.5-3C80.8,1.9,76.3,0.8,76.2,4.1z"/>
					<path class="st23" d="M76.3,3.7C76.8,4,77.4,4.2,78,4.3c0,0,1-0.1,1,0.2c-0.1,0.4-0.2,0.9-0.5,1.2C78.3,6.1,78,6.6,77.8,7
						c0,0.1-0.3,0.9-0.8,0.9c0,0,1.3,0.3,3.1-1.6c0,0,1.5-1.5,1.5-1.7s-1.9-1-2.4-1.1s-2.6-0.6-2.6-0.6S76.3,3.6,76.3,3.7z"/>
					<path class="st24" d="M76.4,2.9c0,0.6,1.6,0.9,2.7,1c0.4,0,0.7,0.3,0.3,1.3s0.3,1.1,0.3,0.9c0.2-0.8,1.2-1.5,1-0.2
						c0,0,2.2-2,1.6-3.4c-0.5-0.8-1.8-1.7-4.5-0.8C77.3,1.9,76.5,2.3,76.4,2.9z"/>
					<path class="st24" d="M79.4,5.3c-0.4,1.1,0.3,1,0.3,1c0.2-1,1.3-1.5,1-0.3c0,0,2.2-2,1.6-3.4C82,2.1,81.5,1.7,81,1.5
						c1.3,2-1.1,2.1-1.7,2.5C79.6,4.1,79.7,4.5,79.4,5.3z"/>
					<path class="st25" d="M79.5,4.7c0,0,0.5-0.4,0.5,0c0.2-0.1,0.4-0.4,0.4-0.6c0.2,0,0.4,0.2,0.4,0.4l0,0c0,0,0.5-0.4,0.3-0.7
						c0.2,0.2,0.4,0.4,0.4,0.7c0,0,0.5-0.6,0.4-1c0,0,0.2,0,0.2,0.5c0.4-0.5,0.3-1.2,0-1.7c0,0,0,1.1-2.7,1.7
						C79.5,4.2,79.6,4.5,79.5,4.7z"/>
					<path class="st26" d="M80.4,5.3c0,0,1,0,1.3-0.6c-0.3,0.4-0.7,0.9-1.1,1.2C80.7,6,80.9,5.3,80.4,5.3z"/>
					<path class="st27" d="M82.1,2.3c0,0-0.1,1.2-2.7,1.7c0,0-2.2,0.2-2.9-0.8c-0.1-0.2,0-0.4,0.1-0.6c0,0,0,0.5,0.4,0.6
						c0,0-0.1-0.3,0-0.4c0.1,0.3,0.4,0.5,0.7,0.6c-0.1-0.1,0-0.3,0.1-0.4c0.2,0.4,0.7,0.7,1.1,0.7c-0.1-0.1-0.2-0.2-0.3-0.4
						c0.4,0.3,0.8,0.4,1.3,0.3c0,0-0.5-0.1-0.5-0.4c0.5,0.1,1,0.1,1.5-0.1c-0.2,0-0.4,0-0.6-0.1C80.3,2.9,81.8,2.8,82.1,2.3z"/>
					<path class="st28" d="M81.6,1.9c0,0-1.6-1.3-4.4,0c0,0,1.2-0.2,1.6-0.3c0.4,0-0.3,0.2-0.7,0.3c0.5,0,1.1-0.1,1.6-0.2
						c0.5,0,1.4,0,0.8,0.1C79.9,2,81.5,1.8,81.6,1.9z"/>
					<path class="st29" d="M82,4.4c-2,0.9-4.2,1.2-6.3,0.8c0,0-1.7-0.4,0.7-1.6L82,4.4z"/>
					<path class="st30" d="M76.4,3.5l4,0.5c-1.4,1-3,1.4-4.7,1.2C74.6,4.7,75.2,4.1,76.4,3.5z"/>
					<path class="st31" d="M82.4,3.4c0,0,0.4-2.3-2.6-2.5c-1.7-0.1-3.3,1.1-3.7,2.8C77.8,5,80,5.2,82,4.3C82.2,4,82.4,3.7,82.4,3.4z
						"/>
					<path class="st32" d="M82.4,3.4c0,0.3-0.2,0.6-0.4,0.8c-1.4,0.7-3,0.8-4.5,0.3l-0.1-0.1c0.4-1.8,2-3.1,3.9-3.2
						C82.1,1.7,82.5,2.5,82.4,3.4z"/>
					<path class="st33" d="M82,4.4c0,0-3.6,1.5-5.9-0.7V3.4c1.7,1.3,4,1.6,6,0.7L82,4.4z"/>
					<path class="st33" d="M76.4,3.8L76.4,3.8L76.4,3.8L76.4,3.8L76.4,3.8L76.4,3.8L76.4,3.8L76.4,3.8L76.4,3.8l0.4-0.2h0.4l0,0l0,0
						l0,0l0,0l0,0l0,0l0,0l0,0l0,0l0,0l0,0l0,0l0,0l0,0v0.1l0,0l0,0l0,0l0,0v0.7l0,0l0,0l0,0l0,0l0,0l0,0l0,0l0,0L77,4.5l0,0l0,0
						l0,0l0,0l0,0c-0.3-0.2-0.5-0.5-0.4-0.9L76.4,3.8z M76.9,3.8L76.9,3.8L76.9,3.8L76.9,3.8L76.9,3.8L76.9,3.8V4l0,0v0.1l0,0v0.1
						l0,0H77l0,0l0,0l0,0l0,0c0,0,0,0,0-0.1v0.2l0,0l0,0V4.2l0,0l0,0l0,0V4.1l0,0l0,0l0,0h-0.1h-0.1l0,0l0,0l0,0v0.1L76.9,3.8z
						 M77,3.6L77,3.6z M77,3.6L77,3.6z M77.4,3.5L77.4,3.5z"/>
					<path class="st33" d="M77.2,3.4L77.2,3.4L77.2,3.4z"/>
					<g>
						<path class="st34" d="M76.8,3.7L76.8,3.7l-0.2,0.1c0,0.1,0,0.2,0,0.4c0.1,0.2,0.2,0.4,0.5,0.5c0.1,0,0.1,0,0.2,0
							s0.2-0.1,0.2-0.2c0-0.3-0.1-0.6-0.4-0.7v0.1c0.2,0.1,0.3,0.3,0.3,0.5S77.2,4.6,77,4.5c-0.2-0.1-0.3-0.3-0.3-0.5
							c0-0.1,0.2-0.2,0.3-0.2c0,0,0.1,0,0.1,0.1V3.8C77,3.6,76.9,3.6,76.8,3.7z"/>
						<g>
							<g>
								<defs>
									<path id="SVGID_00000054247961013396282400000001312415155310491292_" d="M76.8,3.7L76.8,3.7l-0.2,0.1c0,0.1,0,0.2,0,0.4
										c0.1,0.2,0.2,0.4,0.5,0.5c0.1,0,0.1,0,0.2,0s0.2-0.1,0.2-0.2c0-0.3-0.1-0.6-0.4-0.7v0.1c0.2,0.1,0.3,0.3,0.3,0.5
										S77.2,4.6,77,4.5c-0.2-0.1-0.3-0.3-0.3-0.5c0-0.1,0.2-0.2,0.3-0.2c0,0,0.1,0,0.1,0.1V3.8C77,3.6,76.9,3.6,76.8,3.7z"/>
								</defs>
								<clipPath id="SVGID_00000149346619886237313010000015520046691372055487_">
									<use xlink:href="#SVGID_00000054247961013396282400000001312415155310491292_"  style="overflow:visible;"/>
								</clipPath>
								<g style="clip-path:url(#SVGID_00000149346619886237313010000015520046691372055487_);">
									<g>
										<path class="st34" d="M76.8,3.7c-0.4,0.2-0.1,0.9,0.3,1c0.1,0,0.1,0,0.2,0s0.2-0.2,0.2-0.3c0-0.3-0.1-0.6-0.4-0.7v0.1
											c0.2,0.1,0.3,0.3,0.3,0.5S77.2,4.5,77,4.4c-0.2-0.1-0.3-0.3-0.3-0.5c0-0.1,0.2-0.2,0.3-0.2c0,0,0.1,0,0.1,0.1V3.7
											C77,3.6,76.9,3.6,76.8,3.7L76.8,3.7z"/>
										<path class="st34" d="M77.1,3.7L77.1,3.7L77.1,3.7c0.2,0.2,0.3,0.4,0.3,0.6c0,0.2-0.2,0.2-0.4,0.1
											c-0.2-0.1-0.3-0.3-0.3-0.5C76.7,3.8,76.9,3.7,77.1,3.7C77,3.7,77.1,3.7,77.1,3.7C77.1,3.8,77.1,3.8,77.1,3.7L77.1,3.7
											c-0.1-0.1-0.2-0.1-0.3,0h-0.1l0,0l0,0l0,0v0.5l0,0v0.2l0,0l0,0l0,0l0,0l0,0l0,0l0,0l0,0l0,0h0.4c0.1,0.1,0.3,0.1,0.4,0
											C77.5,4.1,77.4,3.8,77.1,3.7L77.1,3.7z"/>
										<path class="st34" d="M77.1,3.7L77.1,3.7L77.1,3.7L77.1,3.7C77,3.8,77,3.8,77.1,3.7c0.1,0.2,0.2,0.4,0.2,0.6
											c0,0.2-0.2,0.2-0.4,0.1c-0.2-0.1-0.3-0.3-0.3-0.5c0-0.1,0.2-0.2,0.3-0.2C76.9,3.7,77,3.7,77.1,3.7C77,3.8,77,3.8,77.1,3.7
											L77.1,3.7c-0.2-0.1-0.3-0.1-0.4,0h-0.1l0,0l0,0l0,0v0.5l0,0v0.2l0,0l0,0l0,0l0,0l0,0l0,0l0,0l0,0l0,0H77
											c0.1,0.1,0.3,0.2,0.4,0.1l0.1-0.1C77.5,4.1,77.4,3.8,77.1,3.7L77.1,3.7z"/>
										<path class="st34" d="M77.1,3.7L77.1,3.7C77.2,3.7,77.2,3.8,77.1,3.7C77.2,3.8,77.2,3.7,77.1,3.7L77.1,3.7
											c0.2,0.2,0.3,0.4,0.3,0.6c0,0.2-0.2,0.2-0.4,0.1c-0.2-0.1-0.3-0.3-0.3-0.5C76.7,3.8,76.9,3.7,77.1,3.7
											C77,3.7,77.1,3.7,77.1,3.7L77.1,3.7L77.1,3.7L77.1,3.7L77.1,3.7c-0.1-0.1-0.2-0.1-0.4,0h-0.1l0,0l0,0l0,0v0.5l0,0v0.2l0,0
											l0,0l0,0l0,0l0,0l0,0l0,0l0,0l0,0H77c0.1,0.1,0.3,0.1,0.4,0C77.5,4.1,77.4,3.8,77.1,3.7L77.1,3.7z"/>
										<path class="st34" d="M77.1,3.7c0.1,0.1,0.1,0.1,0.2,0.2C77.3,3.8,77.2,3.8,77.1,3.7L77.1,3.7c0.2,0.2,0.3,0.4,0.3,0.6
											c0,0.2-0.2,0.2-0.4,0.1c-0.2-0.1-0.3-0.3-0.3-0.5C76.7,3.8,76.9,3.7,77.1,3.7C77,3.7,77.1,3.7,77.1,3.7L77.1,3.7L77.1,3.7
											L77.1,3.7C77.1,3.7,77.1,3.7,77.1,3.7c-0.1,0-0.2,0-0.3,0h-0.1l0,0l0,0l0,0v0.5l0,0v0.2l0,0l0,0l0,0l0,0l0,0l0,0l0,0l0,0
											l0,0h0.4c0.1,0.1,0.3,0.1,0.4,0C77.5,4.1,77.4,3.8,77.1,3.7L77.1,3.7z"/>
										<path class="st34" d="M77.1,3.7L77.1,3.7c0.1,0.1,0.2,0.1,0.2,0.2C77.3,3.8,77.2,3.8,77.1,3.7L77.1,3.7
											c0.2,0.2,0.3,0.4,0.3,0.6c0,0.2-0.2,0.2-0.4,0.1c-0.2-0.1-0.3-0.3-0.3-0.5C76.7,3.8,76.9,3.7,77.1,3.7
											C77,3.7,77.1,3.7,77.1,3.7L77.1,3.7L77.1,3.7h-0.2C77,3.7,77.1,3.7,77.1,3.7c-0.1-0.1-0.2-0.1-0.3,0h-0.1l0,0l0,0l0,0v0.5
											l0,0v0.2l0,0l0,0l0,0l0,0l0,0l0,0l0,0l0,0l0,0h0.4c0.1,0.1,0.3,0.1,0.4,0C77.5,4.1,77.4,3.8,77.1,3.7L77.1,3.7z"/>
										<path class="st34" d="M77.1,3.7c0.1,0.1,0.2,0.2,0.2,0.3C77.3,3.9,77.2,3.8,77.1,3.7C77.1,3.8,77.1,3.8,77.1,3.7
											c0.2,0.2,0.3,0.4,0.3,0.6c0,0.2-0.2,0.2-0.4,0.1c-0.2-0.1-0.3-0.3-0.3-0.5C76.7,3.8,76.9,3.7,77.1,3.7
											C77,3.7,77.1,3.7,77.1,3.7C77.1,3.8,77.1,3.8,77.1,3.7L77.1,3.7c-0.1,0-0.2,0-0.2,0C77,3.7,77.1,3.7,77.1,3.7
											c-0.1,0-0.2,0-0.3,0h-0.1l0,0l0,0l0,0v0.5l0,0v0.2l0,0l0,0l0,0l0,0l0,0l0,0l0,0l0,0l0,0h0.4c0.1,0.1,0.3,0.1,0.4,0
											C77.5,4.1,77.4,3.8,77.1,3.7L77.1,3.7z"/>
										<path class="st34" d="M77.1,3.7c0.1,0.1,0.2,0.2,0.3,0.3C77.3,3.9,77.2,3.8,77.1,3.7C77.1,3.8,77.1,3.8,77.1,3.7
											c0.2,0.2,0.3,0.4,0.3,0.6c0,0.2-0.2,0.2-0.4,0.1c-0.2-0.1-0.3-0.3-0.3-0.5C76.7,3.8,76.9,3.7,77.1,3.7
											C77,3.7,77.1,3.7,77.1,3.7C77.1,3.8,77.1,3.8,77.1,3.7L77.1,3.7c-0.1,0-0.2,0-0.2,0C77,3.7,77.1,3.7,77.1,3.7
											c-0.1,0-0.2,0-0.3,0h-0.1l0,0l0,0l0,0v0.5l0,0v0.2l0,0l0,0l0,0l0,0l0,0l0,0l0,0l0,0l0,0h0.4c0.1,0.1,0.3,0.1,0.4,0
											C77.5,4.1,77.4,3.8,77.1,3.7L77.1,3.7z"/>
										<path class="st34" d="M77.1,3.7c0.1,0.1,0.2,0.2,0.3,0.4c0,0-0.1-0.1-0.1-0.2C77.2,3.8,77.2,3.8,77.1,3.7
											C77.1,3.8,77.1,3.8,77.1,3.7c0.2,0.2,0.3,0.4,0.3,0.6c0,0.2-0.2,0.2-0.4,0.1c-0.2-0.1-0.3-0.3-0.3-0.5
											C76.7,3.8,76.9,3.7,77.1,3.7C77,3.7,77.1,3.7,77.1,3.7C77.1,3.8,77.1,3.8,77.1,3.7L77.1,3.7c-0.1,0-0.2,0-0.3,0
											C77,3.7,77.1,3.7,77.1,3.7c-0.1,0-0.2,0-0.3,0h-0.1l0,0l0,0l0,0v0.5l0,0v0.2l0,0l0,0l0,0l0,0l0,0l0,0l0,0l0,0l0,0h0.4
											c0.1,0.1,0.3,0.1,0.4,0C77.5,4.1,77.4,3.8,77.1,3.7L77.1,3.7z"/>
										<path class="st34" d="M77.1,3.7c0.1,0.1,0.3,0.2,0.3,0.4c0,0-0.1-0.1-0.1-0.2C77.2,3.9,77.2,3.8,77.1,3.7
											C77.1,3.8,77.1,3.8,77.1,3.7c0.2,0.2,0.3,0.4,0.3,0.6c0,0.2-0.2,0.2-0.4,0.1c-0.2-0.1-0.3-0.3-0.3-0.5
											C76.7,3.8,76.9,3.7,77.1,3.7C77,3.7,77.1,3.7,77.1,3.7C77.1,3.8,77.1,3.8,77.1,3.7L77.1,3.7c-0.1,0-0.2,0-0.3,0l0,0
											C76.9,3.8,77,3.7,77.1,3.7c-0.1,0-0.2,0-0.3,0h-0.1l0,0l0,0l0,0v0.5l0,0v0.2l0,0l0,0l0,0l0,0l0,0l0,0l0,0l0,0l0,0h0.4
											c0.1,0.1,0.3,0.1,0.4,0C77.5,4.1,77.4,3.8,77.1,3.7L77.1,3.7z"/>
										<path class="st34" d="M77.1,3.7c0.2,0.1,0.3,0.3,0.3,0.5l0,0c0,0,0,0,0-0.1S77.3,3.8,77.1,3.7L77.1,3.7
											c0.2,0.2,0.3,0.4,0.3,0.6c0,0.2-0.2,0.2-0.4,0.1c-0.2-0.1-0.3-0.3-0.3-0.5C76.7,3.8,76.9,3.7,77.1,3.7
											C77.1,3.7,77.1,3.7,77.1,3.7L77.1,3.7L77.1,3.7c-0.1,0-0.2,0-0.2,0.1l0,0c0,0,0.1-0.1,0.4,0c-0.1-0.1-0.2-0.1-0.4,0h-0.1
											l0,0l0,0l0,0v0.5l0,0v0.1l0,0l0,0l0,0l0,0l0,0l0,0l0,0l0,0l0,0h0.4c0.1,0,0.2,0,0.3,0C77.5,4.1,77.4,3.8,77.1,3.7
											L77.1,3.7z"/>
										<path class="st34" d="M77.1,3.8c0.2,0.1,0.3,0.3,0.3,0.5c0,0.2-0.2,0.2-0.4,0.1c-0.2-0.1-0.3-0.3-0.3-0.5
											C76.7,3.8,76.9,3.7,77.1,3.8C77,3.8,77,3.8,77.1,3.8L77.1,3.8L77.1,3.8c-0.1,0-0.2,0-0.2,0l0,0
											C76.9,3.8,76.9,3.8,77.1,3.8L77.1,3.8c0,0-0.1,0-0.2,0h-0.1l0,0l0,0l0,0v0.5l0,0v0.1l0,0l0,0l0,0l0,0l0,0l0,0l0,0l0,0l0,0
											h0.4c0.1,0.1,0.2,0.1,0.3,0c0-0.2-0.1-0.4-0.2-0.6l0,0c0.1,0.1,0.2,0.2,0.2,0.4C77.3,3.9,77.2,3.9,77.1,3.8
											C76.9,3.7,77.1,3.8,77.1,3.8L77.1,3.8z"/>
										<path class="st34" d="M77.1,3.8c0.2,0.1,0.3,0.3,0.3,0.5c0,0.2-0.2,0.2-0.4,0.1c-0.2-0.1-0.3-0.3-0.3-0.5
											C76.7,3.8,76.9,3.7,77.1,3.8C77,3.8,77,3.8,77.1,3.8L77.1,3.8L77.1,3.8c-0.1,0-0.2,0-0.3,0l0,0c0,0,0.1,0,0.2,0H77.1
											c-0.1,0-0.2,0-0.2,0h-0.1l0,0l0,0l0,0v0.5l0,0v0.1l0,0l0,0l0,0l0,0l0,0l0,0l0,0l0,0l0,0h0.4c0.1,0.1,0.3,0.1,0.4,0
											c0-0.2,0-0.4-0.2-0.6l0,0c0.2,0.2,0.1,0.4,0.1,0.4v0C77.4,4,77.3,3.9,77.1,3.8L77.1,3.8L77.1,3.8z"/>
										<path class="st34" d="M77.1,3.8c0.2,0.1,0.3,0.3,0.3,0.5c0,0.2-0.2,0.2-0.4,0.1c-0.2-0.1-0.3-0.3-0.3-0.5
											C76.7,3.8,76.9,3.7,77.1,3.8C77,3.8,77,3.8,77.1,3.8L77.1,3.8L77.1,3.8c-0.1,0-0.2,0-0.3,0l0,0c0,0,0-0.1,0.2-0.1
											L77.1,3.8c-0.2-0.1-0.2-0.1-0.3-0.1h-0.1l0,0l0,0l0,0v0.5l0,0v0.2l0,0l0,0l0,0l0,0l0,0l0,0l0,0l0,0l0,0h0.4
											c0.1,0.1,0.2,0.1,0.4,0c0-0.2,0-0.4-0.1-0.5l0,0c0.1,0.2,0.1,0.4,0.1,0.4l0,0V4.1C77.4,4,77.3,3.9,77.1,3.8L77.1,3.8
											L77.1,3.8z"/>
										<path class="st34" d="M77.1,3.8c0.2,0.1,0.3,0.3,0.3,0.5c0,0.2-0.2,0.2-0.4,0.1c-0.2-0.1-0.3-0.3-0.3-0.5
											C76.7,3.8,76.9,3.7,77.1,3.8C77,3.8,77,3.8,77.1,3.8L77.1,3.8c-0.1-0.1-0.2-0.1-0.4,0l0,0c0,0,0-0.1,0.2-0.2H77
											c-0.1,0-0.1,0-0.2,0h-0.1l0,0l0,0l0,0v0.5l0,0v0.2l0,0l0,0l0,0l0,0l0,0l0,0l0,0l0,0l0,0h0.4c0.1,0.1,0.2,0.1,0.4,0
											c0-0.2,0-0.3-0.1-0.5l0,0c0.1,0.2,0.1,0.4,0,0.4s0,0,0-0.1C77.3,4,77.2,3.9,77.1,3.8L77.1,3.8z"/>
										<path class="st34" d="M77.4,4c0.1,0.1,0.1,0.3,0,0.4l0,0c0,0,0,0-0.1,0l-0.1,0.1c-0.1,0-0.1,0-0.2,0
											c-0.2-0.1-0.3-0.2-0.4-0.4c0-0.1,0-0.2,0-0.4c0-0.1,0.1-0.1,0.2-0.2h-0.1l0,0l0,0l0,0V4l0,0v0.3l0,0l0,0l0,0l0,0l0,0l0,0
											l0,0l0,0l0,0h0.4c0.1,0.1,0.3,0.1,0.4,0C77.5,4.3,77.5,4.1,77.4,4L77.4,4z"/>
										<path class="st34" d="M77.4,4.1c0.2,0.5-0.3,0.6-0.4,0.5c-0.2-0.1-0.4-0.3-0.4-0.5c-0.1-0.3,0.1-0.4,0.2-0.4h-0.1l0,0l0,0
											l0,0v0.5l0,0v0.3l0,0l0,0l0,0l0,0l0,0l0,0l0,0l0,0l0,0h0.4c0.1,0.1,0.3,0.1,0.4,0C77.5,4.3,77.5,4.1,77.4,4.1L77.4,4.1
											L77.4,4.1z"/>
										<path class="st34" d="M77.4,4.1c0.2,0.5-0.2,0.6-0.4,0.5c-0.2-0.1-0.6-0.8-0.2-1h-0.1l0,0l0,0l0,0v0.5l0,0v0.3l0,0l0,0
											l0,0l0,0l0,0l0,0l0,0l0,0l0,0h0.4c0.1,0.1,0.3,0.1,0.4,0C77.5,4.3,77.5,4.2,77.4,4.1L77.4,4.1z"/>
										<path class="st34" d="M77.5,4.2c0.1,0.4-0.2,0.6-0.5,0.5s-0.6-0.9-0.2-1h-0.1l0,0l0,0l0,0v0.5l0,0v0.3l0,0l0,0l0,0l0,0
											l0,0l0,0l0,0l0,0l0,0h0.4c0.1,0.1,0.3,0.1,0.4,0C77.5,4.3,77.5,4.2,77.5,4.2L77.5,4.2L77.5,4.2z"/>
										<path class="st34" d="M77.5,4.2c0.1,0.5-0.2,0.6-0.5,0.5s-0.5-0.8-0.2-1h-0.1l0,0l0,0l0,0v0.5l0,0v0.2l0,0l0,0l0,0l0,0
											l0,0l0,0l0,0l0,0l0,0h0.4c0.1,0.1,0.3,0.1,0.4,0C77.5,4.3,77.5,4.2,77.5,4.2L77.5,4.2z"/>
										<path class="st34" d="M77.5,4.2c0,0.4-0.3,0.6-0.6,0.4c-0.3-0.2-0.4-0.5-0.3-0.8l0,0l0,0v0.4l0,0v0.2l0,0l0,0l0,0l0,0l0,0
											l0,0l0,0l0,0l0,0H77c0.1,0.1,0.3,0.2,0.4,0.1l0.1-0.1C77.5,4.3,77.5,4.2,77.5,4.2L77.5,4.2L77.5,4.2z"/>
										<path class="st34" d="M77.5,4.2c0,0.4-0.3,0.6-0.6,0.4c-0.2-0.2-0.4-0.4-0.3-0.7l0,0v0.3l0,0v0.2l0,0l0,0l0,0l0,0l0,0l0,0
											l0,0l0,0l0,0H77c0.1,0.1,0.3,0.2,0.4,0.1c0.1,0,0.1-0.1,0.1-0.1C77.5,4.3,77.5,4.3,77.5,4.2L77.5,4.2z"/>
										<path class="st34" d="M77.5,4.3c0,0.4-0.3,0.5-0.6,0.3c-0.2-0.1-0.3-0.4-0.3-0.6v0.3l0,0v0.1l0,0l0,0l0,0l0,0l0,0l0,0l0,0
											l0,0l0,0H77c0.1,0.2,0.3,0.2,0.4,0.1c0.1,0,0.1-0.1,0.1-0.1V4.3L77.5,4.3z"/>
										<path class="st34" d="M77.5,4.3c0,0.4-0.4,0.5-0.6,0.3c-0.1-0.1-0.2-0.3-0.3-0.4l0,0v0.1l0,0v0.2l0,0l0,0l0,0l0,0l0,0l0,0
											l0,0l0,0l0,0H77c0.1,0.2,0.3,0.2,0.4,0.1c0.1,0,0.1-0.1,0.1-0.1V4.3L77.5,4.3z"/>
										<path class="st34" d="M77.5,4.4c0,0.4-0.4,0.4-0.7,0.1c-0.1-0.1-0.1-0.1-0.1-0.2v0.1l0,0l0,0l0,0l0,0l0,0l0,0l0,0l0,0l0,0
											H77C77.1,4.5,77.3,4.6,77.5,4.4C77.5,4.5,77.5,4.4,77.5,4.4L77.5,4.4z"/>
									</g>
								</g>
							</g>
						</g>
					</g>
					<path class="st34" d="M77.1,3.8c-0.1-0.1-0.3-0.1-0.4,0l-0.1,0.1c0,0.2,0.1,0.4,0.3,0.5c0.2,0.1,0.4,0,0.4-0.1
						C77.4,4.2,77.3,4,77.1,3.8z"/>
					<path class="st36" d="M77.1,3.7c-0.2-0.1-0.5,0-0.5,0.2c0,0.3,0.1,0.6,0.3,0.7c0.1,0.1,0.3,0.1,0.5,0c0,0,0.1-0.1,0.1-0.2
						C77.4,4.1,77.3,3.9,77.1,3.7z M76.9,4.8c-0.3-0.2-0.5-0.5-0.4-0.9c0-0.2,0.3-0.4,0.5-0.3c0.1,0,0.1,0,0.2,0.1
						c0.3,0.2,0.5,0.5,0.4,0.9c0,0.2-0.2,0.4-0.5,0.3C77,4.8,76.9,4.8,76.9,4.8z"/>
					<path class="st33" d="M80.7,17.7c-1.3,0.7-2.8,1.1-4.3,1c-1.3-0.1-2.4-0.9-2.8-2.1c-0.2,0.3-0.4,0.6-0.4,1
						c0.9,1.2,2.3,1.8,3.8,1.8s2.9-0.4,4.2-1.1C81.1,18.2,81,18.1,81,18C80.9,17.9,80.8,17.8,80.7,17.7z"/>
					<path class="st8" d="M83.7,21.4c-0.4,0.7-0.8,1.5-0.9,2.3c-0.5,0.5-1.2,0.7-1.8,0.7c-0.1,0-0.5-0.1-0.6-0.3l0.7-0.3l0,0
						c0.3,0,0.3-0.5,0.4-0.8s0-0.4-0.2-0.2c-0.2,0.2-0.3,0.4-0.5,0.5s-0.4-0.1-0.2-0.5c0.2-0.4,0.2-0.7,1-1.1
						c0.3-0.1,0.4-0.1,0.7-0.8L83.7,21.4z"/>
					<path class="st23" d="M83.7,21.4c-0.4,0.7-0.7,1.5-0.9,2.3c-0.4,0.4-1,0.6-1.6,0.7c0.3-0.2,0.9-0.2,1.2-1
						C82.8,22.7,83.2,22,83.7,21.4c-0.5-0.1-1-0.3-1.5-0.4l0,0L83.7,21.4z"/>
					<path class="st19" d="M83.2,8.6c0,0,2,0.7,2.5,4.9c0,0-1.7,2-3.5,1.2c0,0-2.5-3.4-1.2-5.5C81.6,8.5,82.5,8.3,83.2,8.6z"/>
					<path class="st21" d="M82.2,14.7c0,0-2.1-2.9-1.5-5c0.3,1,1.2,4,3.2,5C83.4,14.9,82.8,14.9,82.2,14.7z"/>
				</g>
			</g>
		</g>
		<rect x="72.1" y="39.1" class="st37" width="0.9" height="3.7"/>
		<rect x="73.9" y="39.1" class="st37" width="0.9" height="3.7"/>
		<rect x="75.7" y="39.1" class="st37" width="0.9" height="3.7"/>
		<rect x="77.5" y="39.1" class="st37" width="0.9" height="3.7"/>
		<rect x="79.2" y="39.1" class="st37" width="0.9" height="3.7"/>
		<rect x="81" y="39.1" class="st37" width="0.9" height="3.7"/>
		<rect x="82.8" y="39.1" class="st37" width="0.9" height="3.7"/>
		<circle class="st38" cx="76.3" cy="51.9" r="1.4"/>
		<circle class="st39" cx="76.3" cy="51.9" r="0.8"/>
		<rect x="76.1" y="49.9" class="st39" width="0.3" height="4"/>
		<rect x="74.3" y="51.7" class="st39" width="4" height="0.3"/>
		<rect x="88.2" y="51.7" class="st39" width="4" height="0.3"/>
		<rect x="60.9" y="51.7" class="st39" width="4" height="0.3"/>
		<rect x="88.2" y="51.7" class="st38" width="0.1" height="0.4"/>
		<path class="st38" d="M91.7,52.1h-0.3v-0.4h0.3V52.1z M91.2,52.1h-0.3v-0.4h0.3V52.1z M90.6,52.1h-0.3v-0.4h0.3V52.1z M90,52.1
			h-0.3v-0.4H90V52.1z M89.5,52.1h-0.3v-0.4h0.2L89.5,52.1z M88.9,52.1h-0.3v-0.4h0.3V52.1z"/>
		<rect x="92" y="51.7" class="st38" width="0.1" height="0.4"/>
		<rect x="64.8" y="51.7" class="st38" width="0.1" height="0.4"/>
		<path class="st38" d="M61.3,52.1h0.2v-0.4h-0.3L61.3,52.1z M61.9,52.1h0.3v-0.4h-0.3V52.1z M62.5,52.1h0.3v-0.4h-0.3V52.1z
			 M63,52.1h0.3v-0.4H63V52.1z M63.6,52.1h0.3v-0.4h-0.3V52.1z M64.2,52.1h0.3v-0.4h-0.3V52.1z"/>
		<rect x="60.9" y="51.7" class="st38" width="0.1" height="0.4"/>
		<g class="st40">
			<path class="st34" d="M76.9,57.6c0.7,2.4,2.9,5.1,5.2,6.3l-0.9,1.3c-2.2-1.3-4.1-3.5-5.1-6c-0.8,2.7-2.8,5-5.3,6L70,64.1
				c2.6-1,4.9-3.8,5.2-6.5h-5v-1.4h5v-3h1.4v3h5.1v1.4H76.9z"/>
		</g>
	</g>
</g>
</svg>
