<?xml version="1.0" encoding="utf-8"?>
<!-- Generator: Adobe Illustrator 26.0.1, SVG Export Plug-In . SVG Version: 6.00 Build 0)  -->
<svg version="1.1" id="Layer_1" xmlns="http://www.w3.org/2000/svg" xmlns:xlink="http://www.w3.org/1999/xlink" x="0px" y="0px"
	 viewBox="0 0 250 140" style="enable-background:new 0 0 250 140;" xml:space="preserve">
<style type="text/css">
	.st0{clip-path:url(#SVGID_00000025420662631665765580000018091194512590154175_);}
	.st1{fill:#BBCEE0;}
	.st2{fill:#997968;stroke:#221F1F;stroke-width:0.5;stroke-linecap:round;stroke-linejoin:round;}
	.st3{fill:#F1AA42;stroke:#211D1E;stroke-width:0.5;stroke-miterlimit:10;}
	.st4{fill:#595857;stroke:#231916;stroke-width:0.5;stroke-linecap:round;stroke-linejoin:round;}
	.st5{fill:#046EB7;stroke:#231916;stroke-width:0.5;stroke-linecap:round;stroke-linejoin:round;}
	.st6{fill:#E9AD83;}
	.st7{fill-rule:evenodd;clip-rule:evenodd;fill:#E9AD83;}
	.st8{fill:#E09F74;}
	.st9{fill:#E39B28;}
	.st10{opacity:0.2;}
	.st11{fill:#5D5E5E;}
	.st12{fill:#1D160D;}
	.st13{fill:#12100C;}
	.st14{fill:#241C12;}
	.st15{fill:#EA8026;}
	.st16{fill:#D46C29;}
	.st17{fill:#EC8A2D;}
	.st18{fill:#535359;}
	.st19{fill:#3E3840;}
	.st20{fill:#636368;}
	.st21{fill:#D49268;}
	.st22{fill-rule:evenodd;clip-rule:evenodd;fill:#E09F74;}
	.st23{fill:#3C210F;}
	.st24{fill:#4C2B14;}
	.st25{fill:#331D0E;}
	.st26{fill:#2E190D;}
	.st27{fill:#492611;}
	.st28{fill:#C62927;}
	.st29{fill:#D23629;}
	.st30{fill:#DF5D2E;}
	.st31{fill:#D2402B;}
	.st32{fill:#482D28;}
	.st33{fill:#FFFFFF;}
	.st34{clip-path:url(#SVGID_00000152947639327553734240000016856173191355355553_);}
	.st35{fill:#54372F;}
	.st36{opacity:0.8;fill:#33AC6E;enable-background:new    ;}
	.st37{fill:#DD2625;}
	.st38{fill:#C1E5F9;}
	.st39{fill:#00A0E8;}
</style>
<g id="Layer_2_00000048490755490642683420000014675482481021217422_">
	<g id="Layer_1-2">
		<g>
			<defs>
				<rect id="SVGID_1_" x="2" y="1.2" width="246" height="137.7"/>
			</defs>
			<clipPath id="SVGID_00000046305338000420439040000011126371536451258815_">
				<use xlink:href="#SVGID_1_"  style="overflow:visible;"/>
			</clipPath>
			<g style="clip-path:url(#SVGID_00000046305338000420439040000011126371536451258815_);">
				<rect x="-0.3" y="-5.1" class="st1" width="250.5" height="148.7"/>
				<path class="st2" d="M249.1,69.5c0.1,6.5,0,72.1,0,72.1H0.2c0,0,0-65.8,0-72.1c0.3-38.5,68.8-70.2,125-70.3
					C180.9-0.8,248.4,30.4,249.1,69.5z"/>
				<path class="st3" d="M164.7,134H85.9c-3.9,0-7-3.1-7-7V99.9c0-3.1,2.1-5.9,5.1-6.7c27-7.6,55.6-7.6,82.6,0
					c3,0.8,5.1,3.6,5.1,6.7V127C171.7,130.9,168.5,134,164.7,134z"/>
				<path class="st4" d="M78.9,106.4c-14.5,3.6-29.2,6.3-44.1,7.9c-15.2,1.7-30.5,2.3-45.8,1.8V90.7c14.8,3.5,29.9,5.9,45.1,7.2
					C49,99,64,99.1,78.9,98.2V106.4z"/>
				<path class="st4" d="M78.7,98.1l-4.3-0.6c-10.7,0.4-29.7-0.9-44.6-3.3C15.8,91.8,2.2,88-11,82.8v7.8c16.4,4.2,33.2,6.8,50.1,7.9
					C52.3,99.3,65.5,99.2,78.7,98.1z"/>
				<path class="st4" d="M171.7,106.4c14.5,3.6,29.2,6.3,44.1,7.9c15.2,1.7,30.5,2.3,45.9,1.8V90.7c-14.8,3.5-29.9,5.9-45.1,7.2
					c-14.9,1.2-29.9,1.3-44.8,0.4V106.4z"/>
				<path class="st4" d="M171.9,98.1l4.3-0.6c10.7,0.4,29.7-0.9,44.6-3.3c14-2.3,27.7-6.1,40.8-11.3v7.8
					c-16.4,4.2-33.2,6.8-50.1,7.9C198.3,99.3,185,99.2,171.9,98.1z"/>
				<path class="st4" d="M103.1,113.1h52.1c3.1,0,5.6,2.5,5.6,5.5v0v7.8l0,0H97.5l0,0v-7.8C97.5,115.6,100,113.1,103.1,113.1
					L103.1,113.1z"/>
				<path class="st4" d="M171.9,131.7H86.4c-1,0-2-0.4-2.8-1.1c-0.7-0.7-1.1-1.7-1.1-2.8l0,0c0-5.2,4.2-9.4,9.4-9.4c0,0,0,0,0,0
					h74.5c5.2,0,9.4,4.2,9.4,9.4c0,0,0,0,0,0l0,0C175.8,129.9,174,131.7,171.9,131.7z"/>
				<path class="st5" d="M91.8,131.4l-9.4,18.7h89.2l-10.9-18.8C138.3,124.8,114.3,124.8,91.8,131.4L91.8,131.4z"/>
				<path class="st6" d="M129,13c0,0-1.8-2.6-4.3,0s-5,7.7-5,7.7l-8.3,5.9c0,0,0.1,1.5,0.9,1.5s7.9-2.3,10.8-5.8S129.6,15.7,129,13z
					"/>
				<path class="st7" d="M112.7,25.7c-1,1.3-3.8,1.6-4.2,1.8c-0.7,0.6-1.1,1.5-1,2.5c0,0.2-0.1,0.3,0.2,0.4l0.8-0.6l0.2-0.1
					c0.1-0.5,0.8-0.3,1.2-0.5s0.7,0,0.4,0.3s-0.7,0.4-0.8,0.6s0.2,0.6,0.9,0.2c0.9-0.5,1.2-0.4,1.8-1.4c0.2-0.4,0.2-0.6,1.4-1
					L112.7,25.7z"/>
				<path class="st8" d="M113.6,27.8c7.6-3.8,10.9-8.8,10.9-8.8l1.5,0.2c-0.9,1-1.9,2.1-2.8,3.2C120.8,25.1,115.9,27.1,113.6,27.8z"
					/>
				<path class="st6" d="M138.8,15.7c0,0-3.8-0.5-3.6,2.8s3,8.4,3,8.4l-1.5,9.3c0,0,1.4,1,2.1,0.5s4.4-6.8,3.6-11
					S141.7,17,138.8,15.7z"/>
				<path class="st8" d="M139.3,36.2c3.6-8.6,1.4-12.7,1.4-12.7l1.3-1.4c0.2,1.1,0.3,2.3,0.5,3.5C143.2,29.4,140.5,34.5,139.3,36.2z
					"/>
				<path class="st9" d="M122.4,29.4c-1.5,3.4-2.3,7.2-2.3,10.9l13.5-0.5c0,0,3.1-4.5,1.4-9.1L122.4,29.4z"/>
				<g class="st10">
					<path class="st11" d="M144.3,56.2c8.3,4.6,5.7,11.9-5.9,16.3s-27.6,4.2-35.9-0.4s-5.7-11.9,5.8-16.3S136,51.5,144.3,56.2z"/>
				</g>
				<path class="st12" d="M137.1,56.5c0.6-0.1,1,0.4,1.4,0.7c0.3,0.3,0.5,0.7,0.6,1.2c0,0.7-2.1,2.2-2.5,2.9c-0.6,1-1.3,1.9-2.1,2.7
					c-0.4,0.5-1,0.9-1.6,1.3c-1.2,0.4-2.6,0.4-3.8,0.1c-0.5-0.3-0.7-0.8-0.4-1.1c0.9-1.3,1.7-1.5,2.2-2.5c0.4-0.6,0.7-1.2,1-1.9
					c0.1-0.3,0.6-1.9,1.1-1.8L137.1,56.5z"/>
				<path class="st13" d="M129.2,65.3c1.3,0.4,2.6,0.3,3.8-0.1c0.6-0.3,1.1-0.8,1.6-1.3c0.8-0.8,1.4-1.7,2.1-2.7
					c0.4-0.7,2.5-2.1,2.5-2.9c-0.1-0.4-0.3-0.8-0.6-1.1c-1.2,1.4-2.3,2.8-3.2,4.4c-0.8,1.1-1.8,2.2-2.8,3.1
					c-2.4,0.8-3.3-0.3-3.7-0.9c-0.1,0.1-0.1,0.2-0.2,0.3C128.5,64.5,128.7,65,129.2,65.3z"/>
				<path class="st14" d="M132,59.8c-0.3,0.7-0.6,1.3-1,1.9c-0.4,0.6-0.9,1.1-1.5,1.6c0.1,0.6,0.5,1.6,1.8,0.6
					c0.9-0.8,1.8-1.6,2.6-2.5c0.6-0.5,1-1.2,1.1-1.9c0-0.7-0.2-1.4-0.6-1.9l-1.3,0.5C132.5,57.9,132.1,59.5,132,59.8z"/>
				<path class="st12" d="M123.8,64.9c0.5,0.1,0.8,0.7,1,1c0.4,0.6,0.2,1.4-0.3,1.8c-0.7,0.7-2,0.8-2.6,1.3
					c-1.3,0.9-2.7,1.7-4.1,2.4c-0.8,0.4-2.5,0.7-2.8-0.2c-0.3-0.5-0.2-1.2,0.1-1.7c0.7-0.7,1.4-1.4,2.1-2c0.4-0.3,0.8-0.7,1.1-1.1
					c0.2-0.3,1.1-1.5,1.6-1.3L123.8,64.9z"/>
				<path class="st13" d="M117.8,71.4c1.4-0.7,2.8-1.5,4.1-2.4c0.5-0.5,1.9-0.6,2.6-1.3c0.4-0.3,0.6-0.8,0.5-1.3
					c-0.6,1.2-2.9,1.6-3.5,2s-2.6,1.4-3.5,2.1c-0.9,0.5-1.9,0.7-2.9,0.7C115.3,72.1,117,71.8,117.8,71.4z"/>
				<path class="st14" d="M118.3,66.5c-0.3,0.4-0.7,0.8-1.1,1.1c-0.7,0.6-1.4,1.3-2.1,2c-0.2,0.3-0.3,0.6-0.2,1
					c0.4,0.1,0.9,0,1.2-0.3c1.6-1.2,1.4-1.3,2.3-1.9s2.5-1.1,2.6-2c0.1-0.4,0.1-0.8,0-1.2l-1.1,0.1
					C119.4,64.9,118.5,66.2,118.3,66.5z"/>
				<path class="st15" d="M137.2,56.5c-0.2-2.5-5.2-6.5-9.5-9.1c0.2-1.8,0-3.8,0.1-5.5c0.2-2.4-0.2-5.5,0.3-7.8
					c0.1-0.3-5.4-4.6-5.4-4.6c-2.6,2.4-2.7,7.3-2.7,7.3c0.6,1.6-0.2,2.2-0.1,3.9s-0.2,8.3,0.2,10.9c0.1,0.3,0.3,0.7,0.5,0.9
					c0.1,0.1,0.2,0.2,0.3,0.2l0,0c0,0,9,4.2,11.3,7l0.4,0.5c0.2,0.3,0.6,0.4,0.9,0.3c0.6-0.2,1.1-0.4,1.6-0.8
					C136.3,58.9,137.3,57.6,137.2,56.5z"/>
				<path class="st16" d="M137.2,56.5c-0.2-2.5-5.2-6.5-9.5-9.1c0.2-1.8-0.1-3.8,0.1-5.5c0.2-2.4-0.3-4.8,0.1-7.1
					c0.1-0.3,1.2-2.8-2.5-2.6l0.2-0.5c-1,0.7-1.3,2.8-1.3,2.8c-0.7,1.6-1,3.3-1.1,5.1c0.1,1.7-0.2,8.3,0.2,10.9
					c0.1,0.3,0.3,0.7,0.5,0.9c0.1,0.1,0.2,0.2,0.3,0.2l0,0c0,0,9,4.2,11.3,7L136,59C136.7,58.4,137.2,57.5,137.2,56.5z"/>
				<path class="st17" d="M120,36.2c-0.2,1.4-0.2,2.9-0.1,4.4c0.1,1.7-0.2,8.3,0.2,10.9c0.1,0.3,0.3,0.7,0.5,0.9
					c0.1,0.1,0.2,0.2,0.3,0.2l0,0c0,0,9,4.2,11.3,7l0.4,0.5c0.2,0.3,0.6,0.4,0.9,0.3c0.5-0.1,0.9-0.3,1.3-0.5
					c-3.4-2.7-11-8.5-12.5-9.1s0.3-16.8,0.3-21.5C121.3,30.2,120.2,34.4,120,36.2z"/>
				<path class="st15" d="M133.1,29c-2.9-2.3-4.8,2.3-4.8,2.3c-0.6,1.6-2.3,7.7-2.7,9.2c-0.5,1.8-2.4,7.5-2.8,8.4
					c-0.2,0.6-0.3,1.2-0.3,1.8c0,0,0,0,0,0.1s-1.3,10.4-2.9,13.5l-0.2,0.5c-0.2,0.3-0.2,0.6,0,0.9c0.4,0.4,0.8,0.6,1.3,0.8
					c1.2,0.4,2.5,0.3,3.6-0.3c2.4-1.7,4.3-9.1,4.6-13.7c0.1-0.8,0.3-1.7,0.5-2.5c1.3-1.9,1.8-4.3,2.7-6.3s1.4-4.1,2.6-6
					c2-2.8,1.4-6.7-1.3-8.7C133.2,29.1,133.1,29,133.1,29z"/>
				<path class="st16" d="M124.1,66.3c2.4-1.7,4.3-9.1,4.6-13.7c0.1-0.8,0.3-1.7,0.5-2.5c1.3-1.9,1.8-4.3,2.7-6.3
					c0.7-1.6,1.6-3.1,2.5-4.5c1.4-2.5,1.6-5.5,0.6-8.2l0,0c-3.8-1.2-5.8,10.4-5.8,10.4c-0.6,1.6-1.1,2.6-1.6,4.1
					c-0.5,1.8-2,3.6-2.3,4.5c-0.2,0.6-0.3,1.2-0.3,1.8V52c0,0-1.3,10.4-2.9,13.5l-0.2,0.5c-0.1,0.2-0.1,0.5,0,0.7
					C122.7,66.9,123.5,66.7,124.1,66.3z"/>
				<path class="st17" d="M122.8,49c-0.2,0.6-0.3,1.2-0.3,1.8c0,0,0,0,0,0.1s-1.3,10.4-2.9,13.5l-0.2,0.5c-0.2,0.3-0.2,0.6,0,0.9
					c0.3,0.3,0.6,0.5,0.9,0.6c1.2-2.7,2.1-5.4,2.8-8.3c0.2-11.8,6.8-25.4,6.8-25.4l-2-0.1c-0.3,0.9-2,6.8-2.3,7.8
					C125,42.4,123.2,48,122.8,49z"/>
				<path class="st18" d="M129.4,12.8c0,0,0,2.7-4.7,7c0,0-3.8,0.2-4-2.3c0,0,2.8-5.6,6.5-6.2C128.2,11.1,129.2,11.7,129.4,12.8
					C129.4,12.8,129.4,12.8,129.4,12.8z"/>
				<path class="st18" d="M136.2,13.7c2.1,1.2,7,3.4,3.1,7.6c0,0-2.9,3-4.4,4.3c-1,0.9-2.3,2.4-1.4,4.6c0,0-5.8,5.1-11.1-1.2
					c0,0,1.2-4.4,1.1-6.7s-1-9.9,4.5-11.5C130.2,10.2,131.9,11.2,136.2,13.7z"/>
				<path class="st19" d="M139.4,21.3c-1,1.4-2.1,2.8-3.3,4c-1,0.9-2.6,2.7-1.8,4.9c0,0-3.2,2.2-6.4,1.9c4.1-4.2,4.4-6.7,4.5-9.1
					c0.2-3.8,0.9-6.3,2.9-7.7c0.7-0.5,1.6-0.7,2.5-0.7C139.7,15.6,142.3,17.5,139.4,21.3z"/>
				<path class="st20" d="M122.6,28.9c0,0,1.2-4.4,1.1-6.7s-1-9.9,4.5-11.5c1.3-0.4,2.1,0.3,3.9,0.6c-4.2,1.1-7,5-6.6,9.3
					c0.3,5.7,0.9,8.2,0.6,10.8C124.6,31,123.5,30.1,122.6,28.9z"/>
				<path class="st8" d="M128.7,13.5c0.7,0.6,1,1.5,0.8,2.4c-0.3,1.2,2.7,1.2,5.1-2.7c0,0-1.2-0.7,0.3-4.1L128.7,13.5z"/>
				<path class="st21" d="M129.5,14.1c0,0,3.4-1.2,5-1c0,0-0.7-0.5-0.1-2.6c1.2-1.1,1.8-2.7,1.6-4.3c-0.3-1.5-1.6-2.5-3.1-2.4
					C132.9,3.9,136.9,9,129.5,14.1z"/>
				<path class="st6" d="M127.1,7.9c0,0.4,0.5,0.4-0.2,2c-0.5,1-0.3,1,0.1,2.6c0.2,0.9,0.7,2.8,4.1,1c0,0,3.3-2.4,4.3-4.3
					s0.9-3.7-0.8-5C134.6,4.3,127.2,2.4,127.1,7.9z"/>
				<path class="st22" d="M127.2,7.2c0.9,0.5,1.9,0.9,2.9,1c0,0,1.6-0.2,1.6,0.4c-0.1,0.7-0.4,1.4-0.8,2c-0.5,0.6-1,1.3-1.3,2.1
					c0,0.3-0.5,1.5-1.3,1.6c0,0,2.1,0.5,5.1-2.6c0,0,2.5-2.4,2.5-2.8s-3.1-1.6-3.9-1.8s-4.4-1-4.4-1S127.2,6.9,127.2,7.2z"/>
				<path class="st23" d="M127.3,6.1c-0.1,1,2.6,1.4,4.4,1.6c0.7,0,1.1,0.5,0.5,2.1s0.5,1.8,0.6,1.5c0.4-1.3,2-2.5,1.6-0.3
					c0,0,3.7-3.3,2.6-5.5c-0.8-1.5-3-3-7.3-1.5C128.8,4.2,127.4,4.9,127.3,6.1z"/>
				<path class="st23" d="M132.2,9.8c-0.6,1.7,0.5,1.6,0.5,1.6c0.4-1.6,2.1-2.3,1.6-0.5c0,0,3.7-3.3,2.6-5.5c-0.4-0.8-1.1-1.4-2-1.7
					c2.2,3.2-1.7,3.3-2.7,4.1C132.5,7.9,132.6,8.5,132.2,9.8z"/>
				<path class="st24" d="M132.4,8.9c0,0,0.8-0.6,0.8,0.1c0.4-0.2,0.6-0.6,0.7-1c0.4,0,0.6,0.3,0.6,0.7c0,0,0,0,0,0
					c0,0,0.7-0.6,0.5-1.2c0.4,0.3,0.6,0.7,0.6,1.1c0,0,0.9-1,0.7-1.6c0,0,0.3,0,0.3,0.8c0.6-0.9,0.5-2.1-0.2-2.9c0,0,0,1.9-4.4,2.8
					C132.4,8.1,132.5,8.5,132.4,8.9z"/>
				<path class="st25" d="M133.9,9.8c0,0,1.6-0.1,2.1-1c-0.5,0.7-1.1,1.4-1.8,2C134.3,10.8,134.7,9.8,133.9,9.8z"/>
				<path class="st26" d="M136.5,4.9c0,0-0.1,2-4.4,2.8c0,0-3.6,0.3-4.7-1.4c-0.1-0.3-0.1-0.7,0.2-1c0,0,0,0.8,0.6,1
					c0,0-0.2-0.5,0-0.7c0.2,0.4,0.6,0.8,1.1,0.9c-0.1-0.2-0.1-0.5,0.1-0.7c0.4,0.7,1.1,1.1,1.9,1.2c0,0-0.4-0.3-0.4-0.7
					c0.6,0.4,1.4,0.6,2.1,0.5c0,0-0.8-0.2-0.8-0.6c0.8,0.2,1.7,0.1,2.4-0.2c-0.3,0-0.7,0-0.9-0.2C133.7,5.8,136.1,5.8,136.5,4.9z"/>
				<path class="st27" d="M135.9,4.2c0,0-2.6-2.2-7.2,0.1c0,0,1.9-0.4,2.6-0.5s-0.5,0.4-1.1,0.6c0.9-0.1,1.7-0.2,2.6-0.3
					c0.8-0.1,2.3,0,1.2,0.2S135.7,4.1,135.9,4.2z"/>
				<path class="st28" d="M136.5,8.3c0,0-5.6,2.6-10.3,1.3c0,0-2.7-0.7,1.2-2.7L136.5,8.3z"/>
				<path class="st29" d="M127.3,6.8l6.5,0.8c-1.5,1-4.5,2.6-7.7,2C124.4,8.8,125.3,7.9,127.3,6.8z"/>
				<path class="st30" d="M137.2,6.7c0,0,0.6-3.8-4.3-4.1c0,0-5.1-0.2-6,4.5c2.8,2.1,6.6,2.5,9.7,1C136.9,7.7,137.1,7.2,137.2,6.7z"
					/>
				<path class="st31" d="M137.2,6.7c-0.1,0.5-0.3,1-0.6,1.4c-2.3,1.2-5,1.3-7.4,0.4c-0.1,0-0.1-0.1-0.2-0.1
					c0.9-4.3,4.9-5.1,6.3-5.2C136.6,3.9,137.3,5.3,137.2,6.7z"/>
				<path class="st32" d="M136.5,8.3c0,0-5.9,2.5-9.6-1.1l0.1-0.4c0,0,3.6,3.4,9.8,1.2L136.5,8.3z"/>
				<path class="st32" d="M127.4,7.4c0-0.1,0-0.1,0-0.2l0,0l0,0c0,0,0.1-0.1,0.1-0.1l0,0l0.1-0.1l0,0h0.1h0.1h0.1h0.1l0.4-0.2l0,0
					l0,0h0.5l0,0h0.1h0.1l0,0h0.1l0.1,0.1l0,0l0,0l0.1,0.1l0,0v0.1l0,0l0,0v0.1l0,0l0,0l0,0c0,0,0,0.1,0,0.1v0.1c0,0,0,0.1,0,0.1
					v0.1v0.1l0,0c0,0,0,0,0,0.1c0,0,0,0.1,0,0.1l0,0l0,0l0,0c0,0,0,0.1,0,0.1v0.3c0,0,0,0.1,0,0.1v0.1c0,0,0,0,0,0.1v0.1
					c0,0,0,0,0,0.1v0.1v0.1l0,0l0,0l0,0l0,0l0,0l0,0l0,0l0,0h-0.1l-0.4,0.2l0,0h-0.1h-0.1h-0.1h-0.2c-0.1,0-0.1,0-0.2,0l0,0
					l-0.1-0.1l0,0c-0.5-0.3-0.8-0.9-0.7-1.5L127.4,7.4z M128.1,7.4L128.1,7.4L128.1,7.4v0.1v0.2l0,0c0,0.1,0,0.1,0.1,0.2V8
					c0,0,0,0.1,0.1,0.1l0,0l0,0l0.1,0.1l0,0l0.1,0.1l0,0h0.1l0,0l0,0l0,0l0,0l0,0c0,0,0-0.1,0-0.1c0,0,0-0.1,0-0.2l0,0
					c0,0,0,0,0-0.1c0-0.1,0-0.1,0-0.2l0,0c0,0,0-0.1,0-0.1c0,0,0,0,0-0.1c0-0.1-0.1-0.1-0.1-0.2c0,0,0-0.1-0.1-0.1l-0.1-0.1l0,0
					l-0.2-0.1l0.1,0h-0.1l0,0l0,0l0,0l0,0C128.1,7.2,128.1,7.3,128.1,7.4L128.1,7.4z M128.4,7L128.4,7z"/>
				<polygon class="st32" points="128.6,6.7 128.7,6.7 128.6,6.7 				"/>
				<g>
					<path class="st33" d="M127.9,7.2c-0.1,0-0.1,0.1-0.2,0.1c0,0.1-0.1,0.1-0.1,0.2c-0.1,0.2-0.1,0.4,0,0.6
						c0.1,0.4,0.4,0.7,0.8,0.8c0.3,0.1,0.6-0.1,0.6-0.4c0,0,0,0,0-0.1c0.1-0.5-0.2-0.9-0.6-1.2c-0.1,0.1-0.1,0.1-0.1,0.2
						c0.3,0.2,0.5,0.5,0.4,0.9c0,0.2-0.3,0.4-0.5,0.3c-0.1,0-0.1,0-0.2-0.1c-0.3-0.2-0.5-0.5-0.4-0.9c0-0.2,0.3-0.4,0.5-0.3
						c0.1,0,0.1,0,0.2,0.1c0-0.1,0-0.2,0.1-0.2C128.3,7.1,128.1,7.1,127.9,7.2z"/>
					<g>
						<defs>
							<path id="SVGID_00000035488557046960783500000011204932682914448301_" d="M127.9,7.2c-0.1,0-0.1,0.1-0.2,0.1
								c0,0.1-0.1,0.1-0.1,0.2c-0.1,0.2-0.1,0.4,0,0.6c0.1,0.4,0.4,0.7,0.8,0.8c0.3,0.1,0.6-0.1,0.6-0.4c0,0,0,0,0-0.1
								c0.1-0.5-0.2-0.9-0.6-1.2c-0.1,0.1-0.1,0.1-0.1,0.2c0.3,0.2,0.5,0.5,0.4,0.9c0,0.2-0.3,0.4-0.5,0.3c-0.1,0-0.1,0-0.2-0.1
								c-0.3-0.2-0.5-0.5-0.4-0.9c0-0.2,0.3-0.4,0.5-0.3c0.1,0,0.1,0,0.2,0.1c0-0.1,0-0.2,0.1-0.2C128.3,7.1,128.1,7.1,127.9,7.2z"
								/>
						</defs>
						<clipPath id="SVGID_00000145058119433069654270000004509036648841944198_">
							<use xlink:href="#SVGID_00000035488557046960783500000011204932682914448301_"  style="overflow:visible;"/>
						</clipPath>
						<g style="clip-path:url(#SVGID_00000145058119433069654270000004509036648841944198_);">
							<g>
								<path class="st33" d="M127.9,7.2c-0.7,0.3-0.3,1.5,0.5,1.7c0.1,0,0.2,0,0.3,0c0.2-0.1,0.3-0.2,0.3-0.4
									c0.1-0.5-0.2-0.9-0.6-1.2c-0.1,0.1-0.1,0.1-0.1,0.2c0.3,0.2,0.5,0.5,0.4,0.9c0,0.2-0.3,0.4-0.5,0.3c-0.1,0-0.1,0-0.2-0.1
									c-0.3-0.2-0.5-0.5-0.4-0.9c0-0.2,0.3-0.4,0.5-0.3c0.1,0,0.1,0,0.2,0.1c0-0.1,0-0.2,0.1-0.2C128.3,7.1,128.1,7.1,127.9,7.2
									L127.9,7.2z"/>
								<path class="st33" d="M128.5,7.2L128.5,7.2L128.5,7.2c0,0.1-0.1,0.1-0.1,0.2c0.3,0.2,0.5,0.5,0.4,0.9c0,0.2-0.3,0.4-0.5,0.3
									c-0.1,0-0.1,0-0.2-0.1c-0.3-0.2-0.5-0.5-0.4-0.9c0-0.2,0.3-0.4,0.5-0.3c0.1,0,0.1,0,0.2,0.1C128.4,7.3,128.4,7.3,128.5,7.2
									L128.5,7.2c-0.2-0.1-0.4-0.1-0.6-0.1h-0.1l0,0l0,0l0,0l0,0l0,0v0.1l0,0v0.1c0,0,0,0,0,0.1v0.1c0,0,0,0,0,0.1v0.1
									c0,0,0,0,0,0.1v0.1c0,0,0,0,0,0.1v0.1v0.1v0.1V8V8v0.1v0.1v0.1l0,0v0.1l0,0h0.1l0,0h0.1h0.1h0.1l0,0h0.1h0.3l0,0
									c0.2-0.1,0.3-0.2,0.3-0.4c0.1-0.5-0.2-0.9-0.6-1.2L128.5,7.2z"/>
								<path class="st33" d="M128.5,7.2C128.5,7.2,128.5,7.2,128.5,7.2l0.1,0.1L128.5,7.2c0,0-0.1,0.1-0.1,0.2
									c0.3,0.2,0.5,0.5,0.4,0.9c0,0.2-0.3,0.4-0.5,0.3c-0.1,0-0.1,0-0.2-0.1c-0.3-0.2-0.5-0.5-0.4-0.9c0-0.2,0.3-0.4,0.5-0.3
									c0.1,0,0.1,0,0.2,0.1C128.4,7.3,128.4,7.2,128.5,7.2L128.5,7.2L128.5,7.2L128.5,7.2c-0.1-0.2-0.3-0.2-0.5-0.1h-0.1l0,0l0,0
									l0,0l0,0l0,0v0.1l0,0v0.1c0,0,0,0,0,0.1v0.1c0,0,0,0,0,0.1v0.1c0,0,0,0,0,0.1v0.1c0,0,0,0,0,0.1v0.1v0.1v0.1v0.1V8V8v0.1
									v0.1l0,0v0.1l0,0h0.1l0,0h0.1h0.1h0.1l0,0h0.1h0.3l0,0c0.2-0.1,0.3-0.2,0.3-0.4c0.1-0.5-0.2-0.9-0.6-1.2L128.5,7.2z"/>
								<path class="st33" d="M128.5,7.2C128.5,7.2,128.5,7.2,128.5,7.2c0.1,0.1,0.2,0.1,0.3,0.2C128.7,7.3,128.6,7.3,128.5,7.2
									c-0.1,0-0.1,0.1-0.1,0.2c0.3,0.2,0.5,0.5,0.4,0.9c0,0.2-0.3,0.4-0.5,0.3c-0.1,0-0.1,0-0.2-0.1c-0.3-0.2-0.5-0.5-0.4-0.9
									c0-0.2,0.3-0.4,0.5-0.3c0.1,0,0.1,0,0.2,0.1C128.4,7.3,128.4,7.3,128.5,7.2L128.5,7.2l-0.1,0C128.4,7.2,128.5,7.2,128.5,7.2
									c-0.1-0.1-0.3-0.1-0.5-0.1h-0.1l0,0l0,0l0,0l0,0l0,0v0.1l0,0v0.1c0,0,0,0,0,0.1v0.1c0,0,0,0,0,0.1v0.1c0,0,0,0,0,0.1v0.1
									c0,0,0,0,0,0.1v0.1v0.1v0.1V8v0.1v0.1v0.1v0.1l0,0v0.1l0,0h0.1l0,0h0.1h0.1h0.1l0,0h0.1h0.3l0,0c0.2-0.1,0.3-0.2,0.3-0.4
									c0.1-0.5-0.2-0.9-0.6-1.2L128.5,7.2z"/>
								<path class="st33" d="M128.5,7.2c0.1,0.1,0.3,0.2,0.3,0.3C128.7,7.4,128.6,7.3,128.5,7.2c-0.1,0.1-0.1,0.1-0.1,0.2
									c0.3,0.2,0.5,0.5,0.4,0.9c0,0.2-0.3,0.4-0.5,0.3c-0.1,0-0.1,0-0.2-0.1c-0.3-0.2-0.5-0.5-0.4-0.9c0-0.2,0.3-0.4,0.5-0.3
									c0.1,0,0.1,0,0.2,0.1C128.4,7.4,128.4,7.3,128.5,7.2L128.5,7.2l-0.3-0.1C128.3,7.2,128.4,7.2,128.5,7.2
									c-0.2-0.1-0.4-0.1-0.6-0.1h-0.1l0,0l0,0l0,0l0,0l0,0v0.1l0,0v0.1c0,0,0,0,0,0.1v0.1c0,0,0,0,0,0.1v0.1c0,0,0,0,0,0.1v0.1
									c0,0,0,0,0,0.1v0.1v0.1v0.1V8V8v0.1v0.1v0.1l0,0v0.1l0,0h0.1l0,0h0.1h0.1h0.1l0,0h0.1h0.3l0,0c0.2-0.1,0.3-0.2,0.3-0.4
									c0.1-0.5-0.2-0.9-0.6-1.2L128.5,7.2z"/>
								<path class="st33" d="M128.5,7.2C128.5,7.2,128.5,7.2,128.5,7.2c0.2,0.1,0.3,0.2,0.4,0.4C128.8,7.4,128.6,7.3,128.5,7.2
									c-0.1,0.1-0.1,0.1-0.1,0.2c0.3,0.2,0.5,0.5,0.4,0.9c0,0.2-0.3,0.4-0.5,0.3c-0.1,0-0.1,0-0.2-0.1c-0.3-0.2-0.5-0.5-0.4-0.9
									c0-0.2,0.3-0.4,0.5-0.3c0.1,0,0.1,0,0.2,0.1C128.4,7.3,128.4,7.3,128.5,7.2L128.5,7.2c-0.1,0-0.2-0.1-0.3-0.1
									C128.3,7.1,128.4,7.2,128.5,7.2c-0.1-0.1-0.3-0.1-0.5-0.1h-0.1l0,0l0,0l0,0l0,0l0,0v0.1l0,0v0.1c0,0,0,0,0,0.1v0.1
									c0,0,0,0,0,0.1v0.1c0,0,0,0,0,0.1v0.1c0,0,0,0,0,0.1v0.1v0.1v0.1V8V8v0.1v0.1v0.1l0,0v0.1l0,0h0.1l0,0h0.1h0.1h0.1l0,0h0.1
									h0.3l0,0c0.2-0.1,0.3-0.2,0.3-0.4c0.1-0.5-0.2-0.9-0.6-1.2L128.5,7.2z"/>
								<path class="st33" d="M128.5,7.2c0.2,0.1,0.3,0.3,0.4,0.5C128.8,7.5,128.6,7.4,128.5,7.2c-0.1,0.1-0.1,0.1-0.1,0.2
									c0.3,0.2,0.5,0.5,0.4,0.9c0,0.2-0.3,0.4-0.5,0.3c-0.1,0-0.1,0-0.2-0.1c-0.3-0.2-0.5-0.5-0.4-0.9c0-0.2,0.3-0.4,0.5-0.3
									c0.1,0,0.1,0,0.2,0.1C128.4,7.4,128.4,7.3,128.5,7.2L128.5,7.2c-0.2,0-0.3,0-0.4-0.1C128.2,7.1,128.4,7.2,128.5,7.2
									c-0.2-0.1-0.4-0.1-0.6-0.1h-0.1l0,0l0,0l0,0l0,0l0,0v0.1l0,0v0.1c0,0,0,0,0,0.1v0.1c0,0,0,0,0,0.1v0.1c0,0,0,0,0,0.1v0.1
									c0,0,0,0,0,0.1v0.1v0.1v0.1V8v0.1v0.1v0.1v0.1l0,0v0.1l0,0h0.1l0,0h0.1h0.1h0.1l0,0h0.1h0.3l0,0c0.2-0.1,0.3-0.2,0.3-0.4
									c0.1-0.5-0.2-0.9-0.6-1.2L128.5,7.2z"/>
								<path class="st33" d="M128.5,7.2c0.2,0.1,0.4,0.3,0.5,0.6C128.8,7.6,128.7,7.4,128.5,7.2c-0.1,0.1-0.1,0.2-0.1,0.2
									c0.3,0.2,0.5,0.5,0.4,0.9c0,0.2-0.3,0.4-0.5,0.3c-0.1,0-0.1,0-0.2-0.1c-0.3-0.2-0.5-0.5-0.4-0.9c0-0.2,0.3-0.4,0.5-0.3
									c0.1,0,0.1,0,0.2,0.1C128.4,7.4,128.4,7.3,128.5,7.2L128.5,7.2c-0.2,0-0.3-0.1-0.5-0.1C128.2,7.1,128.3,7.2,128.5,7.2
									c-0.2-0.1-0.4-0.1-0.6,0h-0.1l0,0l0,0l0,0l0,0l0,0v0.1l0,0v0.1c0,0,0,0,0,0.1v0.1c0,0,0,0,0,0.1v0.1c0,0,0,0,0,0.1v0.1
									c0,0,0,0,0,0.1v0.1v0.1v0.1V8V8v0.1v0.1v0.1l0,0v0.1l0,0h0.1l0,0h0.1h0.1h0.1l0,0h0.1h0.3l0,0c0.2-0.1,0.3-0.2,0.3-0.4
									c0.1-0.5-0.2-0.9-0.6-1.2L128.5,7.2z"/>
								<path class="st33" d="M128.5,7.2c0.2,0.1,0.4,0.4,0.5,0.6c-0.1-0.1-0.2-0.2-0.2-0.3C128.6,7.4,128.6,7.3,128.5,7.2
									c0,0.1,0,0.2,0,0.2c0.3,0.2,0.5,0.5,0.4,0.9c0,0.2-0.3,0.4-0.5,0.3c-0.1,0-0.1,0-0.2-0.1c-0.3-0.2-0.5-0.5-0.4-0.9
									c0-0.2,0.3-0.4,0.5-0.3c0.1,0,0.1,0,0.2,0.1C128.4,7.4,128.4,7.3,128.5,7.2L128.5,7.2c-0.2,0-0.4,0-0.5-0.1
									C128.2,7.1,128.3,7.1,128.5,7.2c-0.2-0.1-0.4-0.1-0.5-0.1h-0.1l0,0l0,0l0,0l0,0l0,0v0.1l0,0v0.1c0,0,0,0,0,0.1v0.1
									c0,0,0,0,0,0.1v0.1c0,0,0,0,0,0.1v0.1c0,0,0,0,0,0.1v0.1v0.1v0.1V8V8v0.1v0.1v0.1l0,0v0.1l0,0h0.1l0,0h0.1h0.1h0.1l0,0h0.1
									h0.3l0,0c0.2-0.1,0.3-0.2,0.3-0.4c0.1-0.5-0.2-0.9-0.6-1.2L128.5,7.2z"/>
								<path class="st33" d="M128.5,7.2c0.3,0.1,0.4,0.4,0.5,0.7c-0.1-0.1-0.2-0.2-0.2-0.3C128.7,7.5,128.6,7.4,128.5,7.2
									c0,0.1,0,0.2,0,0.2c0.3,0.2,0.5,0.5,0.4,0.9c0,0.2-0.3,0.4-0.5,0.3c-0.1,0-0.1,0-0.2-0.1c-0.3-0.2-0.5-0.5-0.4-0.9
									c0-0.2,0.3-0.4,0.5-0.3c0.1,0,0.1,0,0.2,0.1C128.4,7.4,128.4,7.3,128.5,7.2L128.5,7.2c-0.2,0-0.3-0.1-0.5-0.1l0,0
									C128,7.2,128.2,7,128.5,7.2c-0.1-0.1-0.3-0.1-0.5-0.1h-0.1l0,0l0,0l0,0l0,0l0,0v0.1l0,0v0.1c0,0,0,0,0,0.1v0.1
									c0,0,0,0,0,0.1v0.1c0,0,0,0,0,0.1v0.1c0,0,0,0,0,0.1v0.1v0.1v0.1V8V8v0.1v0.1v0.1l0,0v0.1l0,0h0.1l0,0h0.1h0.1h0.1l0,0h0.1
									h0.3l0,0c0.2-0.1,0.3-0.2,0.3-0.4c0.1-0.5-0.2-0.9-0.6-1.2L128.5,7.2z"/>
								<path class="st33" d="M128.5,7.2c0.3,0.2,0.5,0.4,0.5,0.7l0,0c0,0,0-0.1-0.1-0.1C128.8,7.6,128.7,7.4,128.5,7.2
									c0,0.1,0,0.2,0,0.2c0.3,0.2,0.5,0.5,0.4,0.9c0,0.2-0.3,0.4-0.5,0.3c-0.1,0-0.1,0-0.2-0.1c-0.3-0.2-0.5-0.5-0.4-0.9
									c0-0.2,0.3-0.4,0.5-0.3c0.1,0,0.1,0,0.2,0.1C128.5,7.4,128.5,7.3,128.5,7.2l-0.1,0.1c-0.1-0.1-0.3-0.1-0.4-0.2
									c0,0,0,0-0.1,0l0,0C127.9,7.2,128.1,7,128.5,7.2C128.4,7,128.2,7,128,7.1h-0.1l0,0l0,0l0,0l0,0l0,0v0.1l0,0v0.1
									c0,0,0,0,0,0.1v0.1c0,0,0,0,0,0.1v0.1c0,0,0,0,0,0.1v0.1c0,0,0,0,0,0.1v0.1v0.1v0.1v0.1V8V8v0.1v0.1l0,0v0.1l0,0h0.1l0,0
									h0.1h0.1h0.1l0,0h0.1h0.3l0,0c0.2-0.1,0.3-0.2,0.3-0.4c0.1-0.5-0.2-0.9-0.6-1.2L128.5,7.2z"/>
								<path class="st33" d="M128.4,7.4c0.3,0.2,0.5,0.5,0.4,0.9c0,0.2-0.3,0.4-0.5,0.3c-0.1,0-0.1,0-0.2-0.1
									c-0.3-0.2-0.5-0.5-0.4-0.9c0-0.2,0.3-0.4,0.5-0.3C128.3,7.3,128.3,7.4,128.4,7.4L128.4,7.4L128.4,7.4
									c-0.2-0.2-0.3-0.2-0.4-0.3c0,0-0.1,0-0.1,0s0.1-0.1,0.2-0.1c0.1,0,0.2,0,0.3,0c-0.1-0.1-0.3-0.1-0.5,0h-0.1l0,0l0,0l0,0l0,0
									l0,0v0.1l0,0v0.1c0,0,0,0,0,0.1v0.1c0,0,0,0,0,0.1v0.1c0,0,0,0,0,0.1v0.1c0,0,0,0,0,0.1v0.1v0.1v0.1v0.1v0.1V8v0.1v0.1l0,0
									v0.1l0,0h0.1l0,0h0.1h0.1h0.1l0,0h0.1h0.3l0,0c0.2-0.1,0.3-0.2,0.3-0.4c0.1-0.4-0.1-0.7-0.4-1l0,0c0.3,0.3,0.3,0.6,0.3,0.6
									c-0.3-0.5-0.3-0.6-0.6-0.7v0.1L128.4,7.4z"/>
								<path class="st33" d="M128.4,7.4c0.3,0.2,0.5,0.5,0.4,0.9c0,0.2-0.3,0.4-0.5,0.3c-0.1,0-0.1,0-0.2-0.1
									c-0.3-0.2-0.5-0.5-0.4-0.9c0-0.2,0.3-0.4,0.5-0.3C128.3,7.3,128.3,7.4,128.4,7.4C128.4,7.4,128.4,7.4,128.4,7.4L128.4,7.4
									c-0.2-0.2-0.3-0.2-0.5-0.2l0,0c0,0,0.1-0.1,0.3-0.1c0.1,0,0.1,0,0.2,0c-0.1,0-0.3,0-0.4,0h-0.1l0,0l0,0l0,0l0,0l0,0v0.1l0,0
									v0.1c0,0,0,0,0,0.1v0.1c0,0,0,0,0,0.1v0.1c0,0,0,0,0,0.1v0.1c0,0,0,0,0,0.1v0.1v0.1v0.1v0.1V8v0.1v0.1v0.1l0,0v0.1l0,0h0.1
									l0,0h0.1h0.1h0.1l0,0h0.1h0.3l0,0c0.2-0.1,0.3-0.2,0.3-0.4c0-0.3-0.1-0.7-0.3-0.9l0,0c0.3,0.4,0.2,0.6,0.2,0.6s0,0-0.1-0.1
									c-0.1-0.3-0.3-0.5-0.5-0.6c0,0,0,0.1,0,0.1L128.4,7.4z"/>
								<path class="st33" d="M128.4,7.4c0.3,0.2,0.5,0.5,0.4,0.9c0,0.2-0.3,0.4-0.5,0.3c-0.1,0-0.1,0-0.2-0.1
									c-0.3-0.2-0.5-0.5-0.4-0.9c0-0.2,0.3-0.4,0.5-0.3C128.3,7.3,128.3,7.4,128.4,7.4L128.4,7.4L128.4,7.4
									c-0.2-0.1-0.4-0.1-0.5-0.1c0,0,0,0-0.1,0c0,0,0.1-0.2,0.3-0.2h0.2c-0.1,0-0.2,0-0.3,0h-0.1l0,0l0,0l0,0l0,0l0,0v0.1l0,0v0.1
									c0,0,0,0,0,0.1v0.1c0,0,0,0,0,0.1v0.1c0,0,0,0,0,0.1v0.1c0,0,0,0,0,0.1v0.1v0.1V8V8v0.1v0.1v0.1v0.1l0,0v0.1l0,0h0.1l0,0
									h0.1h0.1h0.1l0,0h0.1h0.3l0,0c0.2-0.1,0.3-0.2,0.3-0.4c0-0.3,0-0.6-0.2-0.8l0,0c0.2,0.4,0.2,0.6,0.2,0.6l0,0
									c0-0.1-0.1-0.1-0.1-0.2c-0.1-0.2-0.3-0.4-0.5-0.6l0,0L128.4,7.4z"/>
								<path class="st33" d="M128.4,7.4c0.3,0.2,0.5,0.5,0.4,0.9c0,0.2-0.3,0.4-0.5,0.3c-0.1,0-0.1,0-0.2-0.1
									c-0.3-0.2-0.5-0.5-0.4-0.9c0-0.2,0.3-0.4,0.5-0.3C128.3,7.3,128.3,7.4,128.4,7.4L128.4,7.4L128.4,7.4
									c-0.2-0.1-0.4-0.1-0.6,0c0,0,0,0-0.1,0c0,0,0.1-0.2,0.3-0.3h0.2c-0.1,0-0.2,0-0.2,0h-0.1l0,0l0,0l0,0l0,0l0,0v0.1l0,0v0.1
									c0,0,0,0,0,0.1v0.1c0,0,0,0,0,0.1v0.1c0,0,0,0,0,0.1v0.1c0,0,0,0,0,0.1v0.1v0.1v0.1V8V8v0.1v0.1v0.1l0,0v0.1l0,0h0.1l0,0
									h0.1h0.1h0.1l0,0h0.1h0.3l0,0c0.2-0.1,0.3-0.2,0.3-0.4c0-0.3,0-0.6-0.2-0.8v0.1c0.2,0.3,0.1,0.6,0.1,0.6
									c0,0-0.1-0.1-0.1-0.2c-0.1-0.3-0.2-0.5-0.5-0.7l0,0L128.4,7.4z"/>
								<path class="st33" d="M128.9,7.7c0.2,0.4,0.1,0.6,0.1,0.7l0,0c0,0-0.1,0-0.2,0.1c0,0.1-0.1,0.1-0.2,0.2c-0.1,0-0.2,0-0.3,0
									c-0.3-0.1-0.5-0.3-0.6-0.6c0-0.1-0.1-0.6-0.1-0.6c0-0.1,0.1-0.2,0.3-0.3c0.1,0,0.1,0,0.2,0c-0.1,0-0.1,0-0.2,0h-0.1l0,0l0,0
									l0,0l0,0l0,0v0.1l0,0v0.1c0,0,0,0,0,0.1v0.1c0,0,0,0,0,0.1v0.1c0,0,0,0,0,0.1v0.1c0,0,0,0,0,0.1v0.1v0.1v0.1v0.1V8V8v0.1
									v0.1l0,0v0.1l0,0h0.1l0,0h0.1h0.1h0.1l0,0h0.1h0.3l0,0c0.2-0.1,0.3-0.2,0.3-0.4c0-0.2,0-0.5-0.1-0.7l0,0L128.9,7.7z"/>
								<path class="st33" d="M129,7.8c0.3,0.8-0.4,1-0.7,0.8c-0.4-0.1-0.6-0.5-0.6-0.8c-0.1-0.5,0.2-0.6,0.3-0.7h0.1h-0.1h-0.1l0,0
									l0,0l0,0l0,0l0,0v0.1l0,0v0.1c0,0,0,0,0,0.1v0.1c0,0,0,0,0,0.1v0.1c0,0,0,0,0,0.1v0.1c0,0,0,0,0,0.1v0.1v0.1v0.1v0.1V8v0.1
									v0.1v0.1l0,0v0.1l0,0h0.1l0,0h0.1h0.1h0.1l0,0h0.1h0.3l0,0c0.2-0.1,0.3-0.2,0.3-0.4c0-0.2,0-0.5-0.1-0.7v0.1l0,0L129,7.8z"
									/>
								<path class="st33" d="M129,7.8c0.3,0.8-0.4,1-0.7,0.9c-0.7-0.3-0.9-1.4-0.3-1.6l0,0h-0.1h-0.1l0,0l0,0l0,0l0,0l0,0v0.1l0,0
									v0.1c0,0,0,0,0,0.1v0.1c0,0,0,0,0,0.1v0.1c0,0,0,0,0,0.1v0.1c0,0,0,0,0,0.1v0.1v0.1v0.1v0.1V8v0.1v0.1v0.1l0,0v0.1l0,0h0.1
									l0,0h0.1h0.1h0.1l0,0h0.1h0.3l0,0c0.2-0.1,0.3-0.2,0.3-0.4c0-0.2,0-0.4-0.1-0.6l0,0L129,7.8z"/>
								<path class="st33" d="M129,7.9c0.2,0.7-0.4,0.9-0.8,0.8c-0.6-0.3-0.9-1.4-0.3-1.6l0,0h-0.1l0,0l0,0l0,0l0,0l0,0v0.1l0,0v0.1
									c0,0,0,0,0,0.1v0.1c0,0,0,0,0,0.1v0.1c0,0,0,0,0,0.1v0.1c0,0,0,0,0,0.1v0.1v0.1v0.1v0.1V8v0.1v0.1v0.1l0,0v0.1l0,0h0.1l0,0
									h0.1h0.1h0.1l0,0h0.1h0.3l0,0c0.2-0.1,0.3-0.2,0.3-0.4C128.9,7.8,128.9,7.8,129,7.9L129,7.9L129,7.9L129,7.9z"/>
								<path class="st33" d="M129,7.9c0.2,0.7-0.4,1-0.8,0.8c-0.7-0.3-0.9-1.3-0.3-1.6h-0.1l0,0l0,0l0,0l0,0l0,0v0.1l0,0v0.1
									c0,0,0,0,0,0.1v0.1c0,0,0,0,0,0.1v0.1c0,0,0,0,0,0.1v0.1c0,0,0,0,0,0.1v0.1v0.1v0.1V8V8v0.1v0.1v0.1l0,0v0.1l0,0h0.1l0,0
									h0.1h0.1h0.1l0,0h0.1h0.3l0,0c0.2-0.1,0.3-0.2,0.3-0.4c0-0.2,0-0.3,0-0.5l0,0L129,7.9z"/>
								<path class="st33" d="M129.1,8.1c0.1,0.3-0.1,0.6-0.4,0.7c-0.2,0.1-0.4,0-0.5-0.1c-0.5-0.3-0.7-0.8-0.5-1.3l0,0l0,0v0.1
									c0,0,0,0,0,0.1v0.1c0,0,0,0,0,0.1v0.1c0,0,0,0,0,0.1v0.1c0,0,0,0,0,0.1V8V8v0.1v0.1v0.1v0.1v0.1v0.1l0,0v0.1l0,0h0.1l0,0
									h0.1h0.1h0.1l0,0h0.1h0.3l0,0c0.2-0.1,0.3-0.2,0.3-0.4c0-0.1,0-0.3,0-0.4v0.1L129.1,8.1z"/>
								<path class="st33" d="M129.1,8.1c0.1,0.7-0.4,0.9-0.9,0.6c-0.4-0.2-0.6-0.7-0.5-1.2c0,0,0,0.1,0,0.1c0,0,0,0,0,0.1v0.1
									c0,0,0,0,0,0.1v0.1c0,0,0,0,0,0.1V8v0.1v0.1v0.1v0.1v0.1v0.1v0.1l0,0v0.1l0,0h0.1l0,0h0.1h0.1h0.1l0,0h0.1h0.3l0,0
									c0.2-0.1,0.3-0.2,0.3-0.4c0-0.1,0-0.2,0-0.4l0,0L129.1,8.1z"/>
								<path class="st33" d="M129.1,8.2c0,0.6-0.5,0.8-1,0.5c-0.3-0.2-0.5-0.6-0.5-1v0.2c0,0,0,0,0,0.1V8V8v0.1v0.1v0.1v0.1v0.1
									v0.1l0,0v0.1l0,0h0.1l0,0h0.1h0.1h0.1l0,0h0.1h0.3l0,0c0.2-0.1,0.3-0.2,0.3-0.4c0-0.1,0-0.2,0-0.3v0.4H129.1z"/>
								<path class="st33" d="M129.1,8.2c0,0.7-0.6,0.8-1,0.4c-0.2-0.2-0.4-0.4-0.4-0.7c0,0,0,0.1,0,0.1V8v0.1v0.1v0.1v0.1v0.1v0.1
									l0,0v0.1l0,0h0.1l0,0h0.1h0.1h0.1l0,0h0.1h0.3l0,0c0.2-0.1,0.3-0.2,0.3-0.4c0-0.1,0-0.1,0-0.2L129.1,8.2z"/>
								<path class="st33" d="M129.1,8.3C129,8.9,128.4,9,128,8.6c-0.1-0.1-0.2-0.2-0.2-0.3v0.1l0,0v0.1v0.1l0,0v0.1l0,0h0.1l0,0
									h0.1h0.1h0.1l0,0h0.1h0.3l0,0c0.2-0.1,0.3-0.2,0.3-0.4c0,0,0-0.1,0-0.1l0,0L129.1,8.3z"/>
							</g>
						</g>
					</g>
				</g>
				<path class="st33" d="M128.4,7.4c-0.2-0.1-0.4-0.1-0.6,0c0,0.1-0.1,0.1-0.1,0.2c0,0.4,0.1,0.7,0.4,0.9c0.2,0.1,0.4,0.1,0.6,0
					c0-0.1,0.1-0.1,0.1-0.2C128.9,8,128.7,7.6,128.4,7.4z"/>
				<path class="st35" d="M128.4,7.2c-0.2-0.2-0.6-0.2-0.8,0.1c-0.1,0.1-0.1,0.2-0.1,0.2c-0.1,0.5,0.2,0.9,0.6,1.2
					c0.2,0.2,0.6,0.2,0.7-0.1c0.1-0.1,0.1-0.2,0.1-0.2C129,7.9,128.8,7.5,128.4,7.2z M128.1,8.9c-0.5-0.3-0.8-0.9-0.7-1.5
					c0.1-0.4,0.4-0.6,0.8-0.6c0.1,0,0.2,0.1,0.3,0.2c0.5,0.3,0.8,0.9,0.7,1.5c-0.1,0.4-0.4,0.6-0.8,0.6C128.3,9,128.2,9,128.1,8.9z"
					/>
				<path class="st32" d="M134.3,30.2c0,0-3.8,2.1-7,1.6c-2.1-0.2-3.9-1.5-4.6-3.4c-0.4,0.5-0.6,1.1-0.7,1.6c1.5,1.9,3.8,3,6.3,2.9
					c2.4,0,4.8-0.6,6.8-1.9c0,0-0.3-0.4-0.4-0.5S134.3,30.2,134.3,30.2z"/>
				<path class="st7" d="M139.3,36.2c-0.7,1.2-1.2,2.4-1.5,3.8c-0.8,0.8-1.9,1.2-3,1.1c-0.2,0-0.9-0.2-1-0.4l1.2-0.5l0,0
					c0.6-0.1,0.4-0.9,0.6-1.3s0-0.6-0.4-0.3s-0.5,0.7-0.7,0.8s-0.7-0.1-0.4-0.8c0.6-0.8,0.4-1.1,1.6-1.8c0.4-0.2,0.7-0.2,1.2-1.3
					L139.3,36.2z"/>
				<path class="st22" d="M139.3,36.2c-0.7,1.2-1.2,2.4-1.5,3.8c-0.7,0.7-1.6,1.1-2.6,1.1c0.5-0.3,1.5-0.3,1.9-1.7
					C137.5,38.4,138.7,37.4,139.3,36.2c-0.5-0.1-2.3-0.7-2.3-0.7l0,0L139.3,36.2z"/>
				<path class="st18" d="M138.5,15.2c0,0,3.3,1.1,4.1,8c0,0-2.8,3.3-5.7,2c0,0-4.1-5.6-1.9-9C135.8,15.1,137.2,14.7,138.5,15.2z"/>
				<path class="st20" d="M136.9,25.2c0,0-3.5-4.7-2.3-8.2c0.4,1.7,1.9,6.6,5.3,8.2C138.9,25.6,137.8,25.6,136.9,25.2z"/>
			</g>
		</g>
		<path class="st36" d="M196.3,126.2h-8.5l-15.1-10.7c0.6-4,0.9-8,0.8-12c-0.1-3.2-1.8-6.8-4.6-8.5c-7.9-4.8-25-6.9-44.1-7.2
			c-18.3-0.2-35.3,3.3-43.2,7.6c-2.6,1.4-4.5,5.6-4.4,9.2c0.3,8.2,0.3,10.9,0.3,10.9l-14.2,10.7h-7.8c-2.8-12-5.5-28.9-3.1-46
			c1.7-11.5,4.4-22.9,8.2-33.8c42.6-5.3,85.7-5.3,128.2,0c3.4,9.4,8.3,19,9.9,33.8C200.7,97.5,198,115.2,196.3,126.2z"/>
		<rect x="121.7" y="69.5" class="st37" width="1.5" height="6.1"/>
		<rect x="124.6" y="69.5" class="st37" width="1.5" height="6.1"/>
		<rect x="127.5" y="69.5" class="st37" width="1.5" height="6.1"/>
		<rect x="130.4" y="69.5" class="st37" width="1.5" height="6.1"/>
		<rect x="133.3" y="69.5" class="st37" width="1.5" height="6.1"/>
		<rect x="136.2" y="69.5" class="st37" width="1.5" height="6.1"/>
		<rect x="139.1" y="69.5" class="st37" width="1.5" height="6.1"/>
		<circle class="st38" cx="127.1" cy="87" r="2.3"/>
		<circle class="st39" cx="127.1" cy="87" r="1.4"/>
		<rect x="126.9" y="83.7" class="st39" width="0.5" height="6.6"/>
		<rect x="123.8" y="86.7" class="st39" width="6.6" height="0.5"/>
		<rect x="146.6" y="86.7" class="st39" width="6.6" height="0.5"/>
		<rect x="101.9" y="86.7" class="st39" width="6.6" height="0.5"/>
		<rect x="146.6" y="86.6" class="st38" width="0.2" height="0.6"/>
		<path class="st38" d="M152.5,87.2H152v-0.6h0.5V87.2z M151.5,87.2h-0.5v-0.6h0.5V87.2z M150.6,87.2h-0.5v-0.6h0.5V87.2z
			 M149.7,87.2h-0.5v-0.6h0.5V87.2z M148.7,87.2h-0.5v-0.6h0.5V87.2z M147.8,87.2h-0.5v-0.6h0.5V87.2z"/>
		<rect x="152.9" y="86.6" class="st38" width="0.2" height="0.6"/>
		<rect x="108.2" y="86.6" class="st38" width="0.2" height="0.6"/>
		<path class="st38" d="M102.6,87.2h0.5v-0.6h-0.5V87.2z M103.5,87.2h0.5v-0.6h-0.5V87.2z M104.5,87.2h0.5v-0.6h-0.5V87.2z
			 M105.4,87.2h0.5v-0.6h-0.5V87.2z M106.3,87.2h0.5v-0.6h-0.5V87.2z M107.3,87.2h0.5v-0.6h-0.5V87.2z"/>
		<rect x="101.9" y="86.6" class="st38" width="0.2" height="0.6"/>
	</g>
</g>
</svg>
