<?xml version="1.0" encoding="utf-8"?>
<!-- Generator: Adobe Illustrator 26.0.1, SVG Export Plug-In . SVG Version: 6.00 Build 0)  -->
<svg version="1.1" id="Layer_1" xmlns="http://www.w3.org/2000/svg" xmlns:xlink="http://www.w3.org/1999/xlink" x="0px" y="0px"
	 viewBox="0 0 150 84.4" style="enable-background:new 0 0 150 84.4;" xml:space="preserve">
<style type="text/css">
	.st0{clip-path:url(#SVGID_00000097470104833321381160000016191160965943842187_);}
	.st1{fill:#BCCFE1;}
	.st2{fill:#9B7968;stroke:#231F20;stroke-width:0.5;stroke-linecap:round;stroke-linejoin:round;}
	.st3{fill:none;}
	.st4{fill:#F2AB43;stroke:#211E1E;stroke-width:0.5;stroke-miterlimit:10;}
	.st5{opacity:0.2;}
	.st6{fill:#5C5D5D;}
	.st7{fill:#F5A714;}
	.st8{fill:#F49D02;}
	.st9{fill:#F8B300;}
	.st10{fill:#502B25;}
	.st11{fill:#42200E;}
	.st12{fill:#37170A;}
	.st13{fill:#512412;}
	.st14{fill:#F5AE86;}
	.st15{fill:#F3A173;}
	.st16{fill:#E62921;}
	.st17{fill:#E8392E;}
	.st18{fill:#00344D;}
	.st19{fill:#002A3D;}
	.st20{fill:#00405A;}
	.st21{fill:#E79366;}
	.st22{fill-rule:evenodd;clip-rule:evenodd;fill:#F3A173;}
	.st23{fill:#441E0D;}
	.st24{fill:#562914;}
	.st25{fill:#391908;}
	.st26{fill:#331306;}
	.st27{fill:#542312;}
	.st28{fill:#EB6134;}
	.st29{fill:#E9432E;}
	.st30{fill:#FFFFFF;}
	.st31{clip-path:url(#SVGID_00000171686976659470969180000010978418223177276320_);}
	.st32{fill:#5D342C;}
	.st33{fill:#08151A;}
	.st34{fill-rule:evenodd;clip-rule:evenodd;fill:#F5AE86;}
	.st35{opacity:0.8;fill:#2FA0D2;enable-background:new    ;}
	.st36{fill:#8FC31F;}
	.st37{fill:#C2E6FA;}
	.st38{fill:#00A1E9;}
	.st39{enable-background:new    ;}
</style>
<g id="Layer_2_00000101094080503776050270000004373642487793344132_">
	<g id="Layer_5">
		<g>
			<g>
				<defs>
					<rect id="SVGID_1_" y="0.2" width="150" height="84"/>
				</defs>
				<clipPath id="SVGID_00000141445406789870730030000017477953612594545077_">
					<use xlink:href="#SVGID_1_"  style="overflow:visible;"/>
				</clipPath>
				<g style="clip-path:url(#SVGID_00000141445406789870730030000017477953612594545077_);">
					<rect x="-1.4" y="-3.6" class="st1" width="152.7" height="90.7"/>
					<path class="st2" d="M150.9,41.9v44H-0.9v-44c12.6-9.2,42-21.4,76.2-21.4C102,20.6,128.1,28,150.9,41.9z"/>
					<rect y="0.2" class="st3" width="150" height="84"/>
					<path class="st4" d="M171.5,102.8h-193V66.2c0,0,62.2,11.5,97.9,11.6c35.7,0,95-11.6,95-11.6v36.6H171.5z"/>
					<g class="st5">
						<path class="st6" d="M47.6,32.7c4.2,1.3,4.2,3.6,0,4.9c-4.9,1.4-10.1,1.4-15.1,0c-4.2-1.4-4.2-3.6,0-4.9
							C37.4,31.4,42.6,31.4,47.6,32.7z"/>
					</g>
					<path class="st7" d="M45.4,16.1c0.6,2.5,0.4,5.2-0.5,7.6c-0.5,1.5-0.8,3-0.9,4.6c0,0.5-0.5,3.6-0.5,3.6c-0.6,0.3-1.3,0.3-1.9,0
						c-0.3-1.7-0.3-3.4,0-5.1c0.2-1.2,0.2-2.3,0-3.5c0-1.6,0.2-3.1,0.6-4.7C43.1,17.7,44.2,16.8,45.4,16.1z"/>
					<path class="st8" d="M41.6,23.2c0.2,1.2,0.2,2.3,0,3.5c-0.3,1.7-0.3,3.4,0,5.1c0.3,0.2,0.5,0.3,0.9,0.3
						c-0.1-0.6-0.1-1.4-0.1-1.8c-0.2-1.8-0.1-3.5,0.5-5.2c0.5-1.9,0.8-3.9,0.7-5.9l-1.3-0.4C41.7,20.2,41.5,21.7,41.6,23.2z"/>
					<path class="st7" d="M40,16.6c1,0.7,2.2,0.9,3.3,0.5c0.3,2.1-0.1,4.2-1.1,6.1c0,0-0.9,2.2-1.3,3.2s-0.7,2-1.1,3.2
						c-0.4,1.2-1.7,4-1.7,5.2c0,0,0,0.9-1.3,0c0,0-0.1-6.4,1.4-8.5c0,0,0.2-4.9,0.6-6.6C38.9,18.5,39.3,17.5,40,16.6z"/>
					<path class="st7" d="M40,16.6c1,0.7,2.2,0.9,3.3,0.5c0.3,2.1-0.1,4.2-1.1,6.1c0,0-0.9,2.2-1.3,3.2s-0.7,2-1,3.2
						c-0.4,1.2-1.7,4-1.7,5.2c0,0,0,0.9-1.3,0c0,0-0.1-6.4,1.4-8.5c0,0,0.2-4.9,0.6-6.6C39,18.5,39.4,17.5,40,16.6z"/>
					<path class="st8" d="M40,16.6c-0.7,0.9-1.1,1.9-1.3,3c-0.3,1.7-0.6,6.6-0.6,6.6c-1.5,2.1-1.4,8.5-1.4,8.5
						c0.3,0.2,0.2,0.1,0.4,0.2c0.1-2.9,0.7-5.8,1.8-8.6c0.5-2,0.6-4.1,0.3-6.2c0-1.5,1-1.5,1-1.5c1.2,0,2.3-0.5,3.2-1.2
						c0-0.1,0-0.1,0-0.2L43,17.1C42,17.4,40.8,17.2,40,16.6z"/>
					<path class="st9" d="M43.3,17.5c-0.6,0.8-1.4,1.4-2.4,1.6c-1.5,0.4-1.3,1.5-1,3.4s-1,5.7-1.9,8.5c-0.5,1.2-0.6,2.6-0.3,3.9
						c0.2,0,0.3-0.1,0.5-0.2c0-1.1,0.2-2.2,0.5-3.2c0.3-1.3,2.4-6.1,2.6-7.1c0.3-1.3,0.6-2.7,1-4c0.3-0.7,0.3-1.6,1.2-1.8
						C43.4,18.5,43.3,17.6,43.3,17.5z"/>
					<path class="st9" d="M43.4,31.8c0-1.2,0.2-2.9,0.2-3.7c0.1-2,0.5-4,1.2-5.9c0.6-1.9,0.7-3.9,0.3-5.9c-0.4,0.6-1,1-1.7,1.1v1.1
						c1.3-0.1-0.2,7.3-0.7,8.7c-0.2,1.5-0.1,3.1,0.2,4.6C43,32,43.2,32,43.4,31.8L43.4,31.8z"/>
					<path class="st10" d="M40,16.6c0.9,0.6,1.9,1,3,0.9c1-0.1,1.9-0.8,2.3-1.7c0.1,0.3,0.1,0.5,0.1,0.8c-0.7,0.9-1.8,1.5-2.9,1.5
						c-1.1,0-2.1-0.4-2.9-1.1l0.2-0.2L40,16.6z"/>
					<path class="st11" d="M36.6,30.8c-0.4-0.2,0.1,3.2-0.3,4.2c-0.1,0.2-0.1,0.5,0,0.7c0.2,0.5,1,0.7,1.4,1.6
						c0.4,0.8,2.1,1.1,2.2,0.3c0-0.2-0.3-0.6-0.7-1.1c-0.7-0.7-1.5-1.6,0.2-5.2C39.7,30.8,38,31.7,36.6,30.8z"/>
					<path class="st11" d="M41.2,28.5c-0.4-0.1,0.5,2.3,0.1,3.5c-0.3,1.2-0.2,1.3,0.4,1.7c0.3,0.1,0.7,0.1,1.1,0c0,0,0.4-0.1,1,0.5
						c0,0,1.6,1,2.1,0.1c0,0,0.2-0.5-0.7-0.9c-0.7-0.3-1.3-0.9-1.5-1.7c-0.2-1.1,0.6-3.3,0.4-3.4C43.9,28.2,43.6,29.2,41.2,28.5z"/>
					<path class="st12" d="M36.3,35.8c0.2,0.5,1,0.7,1.4,1.6c0.4,0.8,1.9,1.1,2.2,0.4c-0.7,0.4-1.6,0.1-2-0.6c0-0.1-0.1-0.1-0.1-0.2
						c-0.2-0.4-0.4-0.7-0.7-0.9c-0.4-0.2-0.7-0.5-0.8-0.9C36.3,35.4,36.3,35.6,36.3,35.8z"/>
					<path class="st13" d="M39.2,36.6c-0.7-0.7-1.5-1.6,0.2-5.2c0.2-0.5-1.1,0.2-2.2-0.2c0,1.2-0.1,2.3-0.4,3.4
						c-0.2,1,0.5,1.1,0.8,1.4c0.3,0.3,0.4,0.7,1.1,1.5c0.7,0.7,1,0.3,1.2,0.2C39.8,37.2,39.5,36.8,39.2,36.6z"/>
					<path class="st12" d="M41.7,33.7c0.3,0.1,0.7,0.1,1.1,0c0,0,0.4-0.1,1,0.5c0,0,1.6,1,2,0.2c-0.6,0.1-1.3,0-1.8-0.4
						c-0.4-0.4-0.5-0.6-1.6-0.6c-0.5,0-0.9-0.2-1.2-0.6C41.2,33.3,41.3,33.4,41.7,33.7z"/>
					<path class="st13" d="M45.1,33.4c-0.7-0.3-1.3-0.9-1.5-1.7c-0.2-1.1,0.6-3.3,0.4-3.4c-0.2-0.2-0.3,0.4-1.4,0.4
						c0.2,0.8,0.2,1.6,0,2.4c-0.3,1.2-0.4,1.5,0.3,1.8c0.6,0.1,1.1,0.4,1.6,0.9c0.3,0.4,0.9,0.5,1.3,0.4
						C45.8,34,45.7,33.7,45.1,33.4z"/>
					<path class="st14" d="M45.4,7.8c0,0,1.1,0.3,0.4,3.5c0,0,0,2.7,0,3.6l0.3,2.5c0,0-0.2,0.3-0.9,0.1c-0.6-1-1-2.1-1.2-3.2
						c0-1.1-0.4-6.3,0.6-6.6C44.8,7.7,45.2,7.7,45.4,7.8z"/>
					<path class="st15" d="M45.2,17.6l0.4,0.1c-0.4-0.8-0.7-1.7-1-2.6c-0.2-1.3,0-2.6,0.6-3.7L44,11c0,1.5,0.1,2.9,0.1,3.4
						C44.3,15.5,44.7,16.6,45.2,17.6z"/>
					<path class="st16" d="M45.1,17.6c0.1,0.4,0.1,0.9,0.1,1.3c-0.1,0.4,0.1,0.7,0.4,0.9c0.2,0.1,0.9,0.4,1-0.4s0-1,0-1l-0.7-1
						L45.1,17.6z"/>
					<path class="st17" d="M45,17.3c0,0,0.5,0.4,1-0.4c0,0,0.4-0.1,0.4,1c0,0.2,0,0.2,0.2,0.6c0.1,0.2,0.2,0.7,0,0.7
						c0,0-0.2,0-0.4-0.6c-0.1-0.3-0.3-0.5-0.6-0.5C45.3,17.9,45.1,17.6,45,17.3z"/>
					<path class="st18" d="M43.8,6.6c0,0-0.7,1.3,0.4,4.1c0,0,1.6,0.7,2.3-0.5c0,0,0.2-3.2-1.3-4.1C44.6,6,44,6.2,43.8,6.6z"/>
					<path class="st18" d="M40.2,7.8c-1.1,0.6-3.4,1.7-2,3.9c0,0,1.1,1.6,1.7,2.3c0.6,0.7,0.7,1.6,0.3,2.4c0,0,2.3,2.8,5.1-0.5
						c-0.1-1.2-0.1-2.4,0-3.5c0.2-1.2,1.2-5.2-1.2-6.1C43.2,6,42.4,6.5,40.2,7.8z"/>
					<path class="st19" d="M38.2,11.7c0.3,0.8,0.7,1.5,1.2,2.2c0.7,0.7,0.8,1.7,0.4,2.6c0.8,0.7,1.7,1.1,2.8,1.1
						c-1.1-1.3-1.6-3.1-1.4-4.8c0.2-2,0-3.3-0.8-4.1c-0.3-0.3-0.7-0.4-1.1-0.4c-1.2,0.4-1.9,1.7-1.4,2.9
						C38,11.3,38.1,11.5,38.2,11.7z"/>
					<path class="st20" d="M45.3,15.9c-0.1-1.2-0.1-2.4,0-3.5c0.2-1.2,1.2-5.2-1.2-6.1c-0.6-0.2-1,0.1-1.8,0.3
						c0.9,0.2,2.9,1.7,2.3,5c-0.5,1.9-0.8,3.8-1,5.7C44.3,17,44.8,16.5,45.3,15.9z"/>
					<path class="st15" d="M43.6,7.7C43.2,8,43,8.5,43.1,9c0.1,0.6-1.3,0.6-2.1-1.5c0,0,0.6-0.4,0.2-2.2L43.6,7.7z"/>
					<path class="st21" d="M43.2,8c-0.7-0.3-1.4-0.5-2.2-0.6c0,0,0.4-0.3,0.2-1.3c-0.5-0.7-0.6-1.5-0.4-2.3c0.2-0.7,0.9-1.2,1.6-1.2
						C41.2,4.3,41.5,6.7,43.2,8L43.2,8z"/>
					<path class="st14" d="M44.8,4.8c0,0.2-0.3,0.2,0,1c0.1,0.5,0,0.5-0.2,1.3c-0.2,0.5-0.5,1.5-1.9,0.5C42,6.9,41.4,6.2,41,5.3
						s-0.1-2,0.7-2.6C41.6,2.8,45.1,1.9,44.8,4.8z"/>
					<path class="st22" d="M44.8,4.4c-0.4,0.3-0.9,0.4-1.4,0.5c0,0-0.7-0.1-0.7,0.2c0,0.4,0.1,0.7,0.2,1.1c0.2,0.3,0.3,0.7,0.4,1.1
						c0,0.1,0.1,0.8,0.5,0.8c0,0-1,0.2-2.1-1.5c-0.4-0.5-0.7-0.9-0.9-1.5c0-0.2,1.5-0.8,1.9-0.9l2.1-0.5C44.7,3.8,44.8,4.3,44.8,4.4
						z"/>
					<path class="st23" d="M44.8,3.8c0,0.5-1.3,0.7-2.1,0.8c-0.3,0-0.5,0.2-0.4,1.1S42,6.7,42,6.5c-0.1-0.7-0.7-1.3-0.7-0.2
						c0,0-1.5-1.8-0.8-2.9C41,2.6,42.1,1.9,44,2.7C44.4,2.9,44.8,3.3,44.8,3.8z"/>
					<path class="st23" d="M42.3,5.7C42.5,6.6,42,6.6,42,6.6c0-0.8-0.8-1.2-0.7-0.3c0,0-1.5-1.8-0.8-2.9c0.2-0.4,0.6-0.7,1-0.9
						c-1.2,1.7,0.5,1.8,1,2.2C42.3,4.7,42.2,5,42.3,5.7z"/>
					<path class="st24" d="M42.3,5.3c0,0-0.3-0.4-0.4,0c-0.2-0.1-0.3-0.4-0.2-0.6c0,0-0.3,0-0.3,0.4c-0.2-0.2-0.2-0.4-0.2-0.6
						C41,4.6,40.9,4.8,40.8,5c0,0-0.3-0.6-0.2-0.9c0,0-0.1,0-0.2,0.4C40.2,4,40.3,3.4,40.7,3c0,0-0.1,1,1.8,1.5
						C42.4,4.8,42.3,5,42.3,5.3z"/>
					<path class="st25" d="M41.5,5.7c0,0-0.7-0.1-0.9-0.5C40.8,5.6,41,6,41.3,6.3C41.3,6.3,41.2,5.7,41.5,5.7z"/>
					<path class="st26" d="M40.7,3.2c0,0-0.1,1,1.8,1.5c0,0,1.6,0.2,2.2-0.6c0.1-0.2,0.1-0.4,0-0.5c0,0,0,0.4-0.3,0.5
						c0,0,0.1-0.2,0-0.4c-0.1,0.2-0.3,0.4-0.6,0.5c0.1-0.1,0.1-0.2,0-0.4c-0.2,0.3-0.5,0.6-0.9,0.6C43,4.3,43.1,4.1,43.2,4
						c0,0-0.6,0.4-1,0.2c0,0,0.4-0.1,0.4-0.3s-0.7,0.2-1.1-0.2c0.2,0,0.3,0,0.4-0.1C41.9,3.6,40.9,3.6,40.7,3.2z"/>
					<path class="st27" d="M41,2.8c1-0.7,2.3-0.6,3.3,0.1c0,0-0.8-0.2-1.1-0.3s0.2,0.2,0.5,0.3c-0.4-0.1-0.8-0.1-1.1-0.2
						c-0.4,0-1,0-0.6,0.1C42.4,2.9,41.1,2.7,41,2.8z"/>
					<path class="st16" d="M40.5,4.9c1.4,0.8,3,1.1,4.6,0.8c0,0,1.3-0.3-0.3-1.5L40.5,4.9z"/>
					<path class="st17" d="M44.7,4.3l-3,0.4c0.9,0.9,2.1,1.3,3.4,1.1C45.9,5.3,45.6,4.8,44.7,4.3z"/>
					<path class="st28" d="M40.3,4.1c0-1.2,1-2.1,2.2-2.1l0,0c1.3,0,2.4,1.1,2.4,2.4c0,0,0,0,0,0.1c-1.3,1-3.1,1.2-4.5,0.4
						C40.3,4.6,40.3,4.3,40.3,4.1z"/>
					<path class="st29" d="M40.3,4.1c0,0.3,0,0.5,0.2,0.7c1,0.6,2.2,0.8,3.3,0.3L43.9,5c0-1.4-1-2.7-2.5-2.8
						C40.7,2.6,40.3,3.3,40.3,4.1z"/>
					<path class="st10" d="M40.5,4.9c1.4,0.8,3.2,0.6,4.4-0.5V4.2c-1.3,1-3,1.2-4.5,0.5L40.5,4.9z"/>
					<path class="st10" d="M44.7,4.6L44.7,4.6L44.7,4.6c0-0.1,0-0.1,0-0.2l0,0l0,0h-0.1l-0.2-0.1H44l0,0l0,0l0,0l0,0l0,0l0,0l0,0
						l0,0l0,0l0,0v0.3l0,0l0,0l0,0v0.1l0,0v0.4l0,0l0,0l0,0l0.2,0.1h0.3l0,0l0,0C44.8,5,45,4.7,45,4.4L44.7,4.6z M44.3,4.6L44.3,4.6
						L44.3,4.6L44.3,4.6L44.3,4.6L44.3,4.6v0.2l0,0l0,0l0,0l0,0l0,0l0,0h-0.1h-0.1V4.7l0,0l0,0c0,0,0,0,0-0.1l0,0l0,0l0,0
						c-0.1,0-0.1,0-0.2,0l0,0l0,0l0,0H44l0,0l0,0l0,0l0,0l0,0l0,0H44.3z M44.3,4.4L44.3,4.4z"/>
					<path class="st10" d="M44.2,4.2L44.2,4.2L44.2,4.2z"/>
					<g>
						<path class="st30" d="M44.4,4.4C44.5,4.4,44.5,4.4,44.4,4.4C44.5,4.4,44.5,4.5,44.4,4.4c0.1,0.2,0.1,0.3,0.1,0.4
							c-0.1,0.2-0.2,0.3-0.4,0.4H44c-0.1,0-0.1-0.1-0.1-0.2c0-0.2,0.1-0.5,0.3-0.6v0.1C44,4.6,43.9,4.8,43.9,5s0.1,0.2,0.3,0.1
							s0.3-0.3,0.3-0.5s-0.1-0.2-0.3-0.1V4.4C44.3,4.4,44.4,4.4,44.4,4.4z"/>
						<g>
							<g>
								<defs>
									<path id="SVGID_00000121967830055043232280000003475048247757104515_" d="M44.4,4.4C44.5,4.4,44.5,4.4,44.4,4.4
										C44.5,4.4,44.5,4.5,44.4,4.4c0.1,0.2,0.1,0.3,0.1,0.4c-0.1,0.2-0.2,0.3-0.4,0.4H44c-0.1,0-0.1-0.1-0.1-0.2
										c0-0.2,0.1-0.5,0.3-0.6v0.1C44,4.6,43.9,4.8,43.9,5s0.1,0.2,0.3,0.1s0.3-0.3,0.3-0.5s-0.1-0.2-0.3-0.1V4.4
										C44.3,4.4,44.4,4.4,44.4,4.4z"/>
								</defs>
								<clipPath id="SVGID_00000005224507119600930660000010367534993302074010_">
									<use xlink:href="#SVGID_00000121967830055043232280000003475048247757104515_"  style="overflow:visible;"/>
								</clipPath>
								<g style="clip-path:url(#SVGID_00000005224507119600930660000010367534993302074010_);">
									<g>
										<path class="st30" d="M44.4,4.4c0.3,0.2,0,0.8-0.3,0.9c-0.1,0-0.2,0-0.3-0.1V5.1c0-0.2,0.1-0.5,0.3-0.6v0.1
											c-0.1,0-0.2,0.2-0.2,0.4s0.1,0.2,0.3,0.1s0.3-0.3,0.3-0.5s-0.1-0.2-0.3-0.1V4.4C44.3,4.3,44.4,4.3,44.4,4.4L44.4,4.4z"/>
										<path class="st30" d="M44.2,4.4L44.2,4.4C44.2,4.4,44.2,4.4,44.2,4.4C44,4.6,43.9,4.8,43.9,5s0.1,0.2,0.3,0.1
											s0.3-0.3,0.3-0.5C44.5,4.5,44.4,4.4,44.2,4.4C44,4.6,44.2,4.4,44.2,4.4L44.2,4.4c0.1-0.1,0.2-0.1,0.3,0h0.1l0,0l0,0v0.4
											l0,0l0,0l0,0l0,0l0,0l0,0l0,0l0,0l0,0l0,0l0,0l0,0H44c-0.1,0-0.1-0.1-0.1-0.2c0-0.2,0.1-0.5,0.3-0.6V4.4z"/>
										<path class="st30" d="M44.2,4.4L44.2,4.4L44.2,4.4L44.2,4.4C44.2,4.4,44.2,4.4,44.2,4.4C44,4.6,43.9,4.8,43.9,5
											s0.1,0.2,0.3,0.1s0.3-0.3,0.3-0.5C44.5,4.5,44.4,4.4,44.2,4.4C44,4.6,44.2,4.4,44.2,4.4L44.2,4.4L44.2,4.4
											c0.1-0.1,0.2-0.1,0.3,0h0.1l0,0l0,0v0.4l0,0l0,0l0,0l0,0l0,0l0,0l0,0l0,0l0,0l0,0l0,0l0,0H44c-0.1,0-0.1-0.1-0.1-0.2
											c0-0.2,0.1-0.5,0.3-0.6V4.4z"/>
										<path class="st30" d="M44.2,4.4L44.2,4.4L44.2,4.4L44.2,4.4C44.2,4.5,44.2,4.5,44.2,4.4C44.1,4.6,44,4.8,44,5
											s0.1,0.2,0.3,0.1s0.3-0.3,0.2-0.5C44.5,4.5,44.4,4.4,44.2,4.4C44.2,4.5,44.2,4.4,44.2,4.4L44.2,4.4L44.2,4.4L44.2,4.4
											c0-0.1,0.1-0.1,0.2,0h0.1l0,0l0,0v0.4l0,0l0,0l0,0l0,0l0,0l0,0l0,0l0,0l0,0l0,0l0,0l0,0H44c-0.1,0-0.1-0.1-0.1-0.2
											c0-0.2,0.1-0.5,0.3-0.6V4.4z"/>
										<path class="st30" d="M44.2,4.4c-0.1,0-0.2,0.1-0.2,0.2C44,4.6,44.1,4.5,44.2,4.4C44.2,4.5,44.2,4.5,44.2,4.4
											C44,4.7,43.9,4.8,43.9,5s0.1,0.2,0.3,0.1s0.3-0.3,0.3-0.5C44.5,4.5,44.4,4.4,44.2,4.4C44.2,4.5,44.2,4.4,44.2,4.4
											L44.2,4.4L44.2,4.4C44.3,4.4,44.3,4.4,44.2,4.4c0.1-0.1,0.2-0.1,0.2,0h0.1l0,0l0,0v0.4l0,0l0,0l0,0l0,0l0,0l0,0l0,0l0,0
											l0,0l0,0l0,0l0,0H44c-0.1,0-0.1-0.1-0.1-0.2c0-0.2,0.1-0.5,0.3-0.6V4.4z"/>
										<path class="st30" d="M44.2,4.4L44.2,4.4c-0.1,0-0.2,0.1-0.2,0.2C44,4.6,44.1,4.5,44.2,4.4C44.2,4.4,44.2,4.4,44.2,4.4
											C44,4.6,43.9,4.8,43.9,5s0.1,0.2,0.3,0.1s0.3-0.3,0.3-0.5C44.5,4.5,44.4,4.4,44.2,4.4C44,4.6,44.2,4.5,44.2,4.4L44.2,4.4
											L44.2,4.4L44.2,4.4c0.1-0.1,0.2-0.1,0.2,0h0.1l0,0l0,0v0.4l0,0l0,0l0,0l0,0l0,0l0,0l0,0l0,0l0,0l0,0l0,0l0,0H44
											c-0.1,0-0.1-0.1-0.1-0.2c0-0.2,0.1-0.5,0.3-0.6V4.4z"/>
										<path class="st30" d="M44.2,4.4c-0.1,0-0.2,0.1-0.2,0.2C44,4.5,44.1,4.5,44.2,4.4L44.2,4.4C44.1,4.6,44,4.8,44,4.9
											c0,0.2,0.1,0.2,0.3,0.1s0.3-0.3,0.3-0.5C44.5,4.5,44.4,4.4,44.2,4.4C44,4.6,44.2,4.5,44.2,4.4L44.2,4.4h0.2
											C44.3,4.4,44.2,4.4,44.2,4.4c0.1-0.1,0.2-0.1,0.2,0h0.1l0,0l0,0v0.4l0,0l0,0l0,0l0,0l0,0l0,0l0,0l0,0l0,0l0,0l0,0l0,0H44
											c-0.1,0-0.1-0.1-0.1-0.2c0-0.2,0.1-0.5,0.3-0.6V4.4z"/>
										<path class="st30" d="M44.2,4.4C44.1,4.5,44,4.6,44,4.7C44,4.6,44.1,4.5,44.2,4.4C44.2,4.5,44.2,4.5,44.2,4.4
											C44,4.6,43.9,4.8,43.9,5s0.1,0.2,0.3,0.1s0.3-0.3,0.3-0.5C44.5,4.5,44.4,4.4,44.2,4.4C44.2,4.5,44.2,4.4,44.2,4.4
											L44.2,4.4h0.2C44.3,4.4,44.2,4.4,44.2,4.4c0.1-0.1,0.2-0.1,0.2,0h0.1l0,0l0,0v0.4l0,0l0,0l0,0l0,0l0,0l0,0l0,0l0,0l0,0
											l0,0l0,0l0,0H44c-0.1,0-0.1-0.1-0.1-0.2c0-0.2,0.1-0.5,0.3-0.6V4.4z"/>
										<path class="st30" d="M44.2,4.4c-0.1,0.1-0.2,0.2-0.3,0.3L44,4.6C44.1,4.6,44.1,4.5,44.2,4.4L44.2,4.4
											C44.1,4.6,44,4.8,44,5s0.1,0.2,0.3,0.1s0.3-0.3,0.3-0.5C44.5,4.5,44.4,4.4,44.2,4.4L44.2,4.4h0.2
											C44.3,4.4,44.2,4.4,44.2,4.4c0.1,0,0.2,0,0.2,0h0.1l0,0l0,0v0.4l0,0l0,0l0,0l0,0l0,0l0,0l0,0l0,0l0,0l0,0l0,0l0,0H44
											c-0.1,0-0.1-0.1-0.1-0.2c0-0.2,0.1-0.5,0.3-0.6V4.4z"/>
										<path class="st30" d="M44.2,4.4C44.1,4.5,44,4.6,44,4.8V4.6C44,4.6,44.1,4.5,44.2,4.4L44.2,4.4c-0.2,0.2-0.3,0.3-0.3,0.5
											S44,5.1,44.2,5s0.3-0.3,0.3-0.5C44.5,4.5,44.4,4.4,44.2,4.4L44.2,4.4L44.2,4.4c0.1,0,0.2,0,0.2,0.1l0,0
											C44.4,4.5,44.3,4.5,44.2,4.4c0.1,0,0.2,0,0.2,0.1h0.1l0,0l0,0v0.4l0,0l0,0l0,0l0,0l0,0l0,0l0,0l0,0l0,0l0,0l0,0l0,0H44
											c-0.1,0-0.1-0.1-0.1-0.2c0-0.2,0.1-0.5,0.3-0.6V4.4z"/>
										<path class="st30" d="M44.2,4.4c-0.1,0.1-0.2,0.2-0.3,0.4l0,0l0,0C44,4.7,44.1,4.6,44.2,4.4L44.2,4.4
											C44,4.6,43.9,4.8,43.9,5s0.1,0.2,0.3,0.1s0.3-0.3,0.3-0.5C44.5,4.5,44.4,4.4,44.2,4.4L44.2,4.4L44.2,4.4
											c0.1,0.1,0.2,0.1,0.2,0.1l0,0C44.4,4.5,44.4,4.4,44.2,4.4c0,0,0.1,0,0.2,0.1h0.1l0,0l0,0v0.4l0,0l0,0l0,0l0,0l0,0l0,0l0,0
											l0,0l0,0l0,0l0,0l0,0H44c-0.1,0-0.1-0.1-0.1-0.2c0-0.2,0.1-0.5,0.3-0.6V4.4z"/>
										<path class="st30" d="M44.2,4.5C44.1,4.6,44,4.8,44,5s0.1,0.2,0.3,0.1s0.3-0.3,0.3-0.5C44.5,4.5,44.4,4.4,44.2,4.5
											L44.2,4.5L44.2,4.5c0.1-0.1,0.1-0.1,0.2,0l0,0c0,0,0,0-0.1,0C44.3,4.5,44.2,4.5,44.2,4.5c0-0.1,0.1-0.1,0.2,0h0.1l0,0l0,0
											v0.4l0,0l0,0l0,0l0,0l0,0l0,0l0,0l0,0l0,0l0,0l0,0l0,0H44c-0.1,0-0.1-0.1-0.1-0.2c0-0.2,0.1-0.4,0.2-0.5l0,0
											c-0.1,0.1-0.2,0.2-0.2,0.3c0.2-0.3,0.2-0.3,0.3-0.4l0,0V4.5z"/>
										<path class="st30" d="M44.2,4.5C44.1,4.6,44,4.8,44,5s0.1,0.2,0.3,0.1s0.3-0.3,0.3-0.5C44.5,4.5,44.4,4.4,44.2,4.5
											L44.2,4.5L44.2,4.5c0.1-0.1,0.2-0.1,0.2,0l0,0c0,0,0,0-0.1,0H44.2c0.1-0.1,0.1-0.1,0.2,0h0.1l0,0l0,0v0.4l0,0l0,0l0,0l0,0
											l0,0l0,0l0,0l0,0l0,0l0,0l0,0l0,0H44c-0.1,0-0.1-0.1-0.1-0.2H44l0,0c-0.1,0.1-0.1,0.2-0.2,0.3c0,0,0,0,0-0.1
											c0.1-0.1,0.2-0.2,0.3-0.3l0,0L44.2,4.5z"/>
										<path class="st30" d="M44.2,4.5C44.1,4.6,44,4.8,44,5s0.1,0.2,0.3,0.1s0.3-0.3,0.3-0.5C44.5,4.5,44.4,4.4,44.2,4.5
											L44.2,4.5L44.2,4.5c0.1-0.1,0.2-0.1,0.2,0l0,0c0,0,0-0.1-0.1-0.1S44.3,4.4,44.2,4.5l0.1-0.1h0.1l0,0l0,0v0.4l0,0l0,0l0,0
											l0,0l0,0l0,0l0,0l0,0l0,0l0,0l0,0l0,0H44c-0.1,0-0.1-0.1-0.1-0.2c0,0,0.1,0,0.1,0.1l0,0c-0.1,0.1-0.1,0.2-0.1,0.3l0,0V4.8
											C43.9,4.7,44,4.6,44.2,4.5L44.2,4.5L44.2,4.5z"/>
										<path class="st30" d="M44.2,4.5C44.1,4.6,44,4.8,44,5s0.1,0.2,0.3,0.1s0.3-0.3,0.3-0.5C44.5,4.5,44.4,4.4,44.2,4.5
											L44.2,4.5c0.1-0.1,0.2-0.1,0.3,0l0,0c0,0,0-0.1-0.1-0.1h-0.1h0.1h0.1l0,0l0,0v0.4l0,0l0,0l0,0l0,0l0,0l0,0l0,0l0,0l0,0
											l0,0l0,0l0,0H44c-0.1,0-0.1-0.1-0.1-0.2L44,4.7l0,0C43.9,4.9,43.9,5,43.9,5s0,0,0.1-0.1C44,4.7,44.1,4.6,44.2,4.5
											L44.2,4.5z"/>
										<path class="st30" d="M44,4.6C43.9,4.9,43.9,5,43.9,5l0,0l0,0L44,5.1h0.1c0.1-0.1,0.3-0.2,0.3-0.3l0.1-0.1
											c0-0.1,0-0.1-0.1-0.2l0,0l0,0l0,0v0.4l0,0l0,0l0,0l0,0l0,0l0,0l0,0l0,0l0,0l0,0l0,0l0,0H44c-0.1,0-0.1-0.1-0.1-0.2
											C43.9,4.6,43.9,4.6,44,4.6z"/>
										<path class="st30" d="M44,4.7c-0.2,0.4,0.1,0.5,0.3,0.5c0.1-0.1,0.2-0.1,0.4-0.4c0.1-0.3,0-0.3-0.1-0.4h0.1l0,0l0,0v0.4
											l0,0l0,0l0,0l0,0l0,0l0,0l0,0l0,0l0,0l0,0l0,0l0,0L44,4.7c-0.1,0-0.1-0.1-0.1-0.2C43.9,4.5,44,4.5,44,4.7L44,4.7L44,4.7z"
											/>
										<path class="st30" d="M44,4.7c-0.2,0.4,0.1,0.5,0.2,0.5c0.2-0.1,0.5-0.7,0.3-0.8h0.1l0,0l0,0v0.4l0,0l0,0l0,0l0,0l0,0l0,0
											l0,0l0,0l0,0l0,0l0,0l0,0L44,4.7c-0.1,0-0.1-0.1-0.1-0.2C43.9,4.6,43.9,4.7,44,4.7z"/>
										<path class="st30" d="M43.9,4.8c-0.1,0.4,0.1,0.5,0.3,0.4s0.5-0.7,0.2-0.8h0.1l0,0l0,0v0.4l0,0l0,0l0,0l0,0l0,0l0,0l0,0
											l0,0l0,0l0,0l0,0l0,0H43.9c0-0.1,0-0.2,0-0.2c0-0.1,0-0.2,0-0.3l0,0V4.8z"/>
										<path class="st30" d="M43.9,4.8c-0.1,0.4,0.1,0.5,0.3,0.4s0.5-0.7,0.2-0.8h0.1l0,0l0,0v0.4l0,0l0,0l0,0l0,0l0,0l0,0l0,0
											l0,0l0,0l0,0l0,0l0,0H43.9c0-0.1,0-0.1,0-0.2s0-0.2,0-0.2V4.8z"/>
										<path class="st30" d="M43.9,4.9c-0.1,0.4,0.1,0.5,0.4,0.3c0.2-0.1,0.4-0.4,0.3-0.7v0.1l0,0V5l0,0l0,0l0,0l0,0l0,0l0,0l0,0
											l0,0l0,0l0,0l0,0l0,0L43.9,4.9C43.9,5,43.9,4.9,43.9,4.9c0-0.2,0-0.2,0-0.3l0,0V4.9z"/>
										<path class="st30" d="M43.9,4.9c-0.1,0.4,0.1,0.5,0.4,0.3c0.2-0.1,0.3-0.3,0.3-0.6v0.3l0,0l0,0l0,0l0,0l0,0l0,0l0,0l0,0
											l0,0l0,0l0,0l0,0L43.9,4.9c0,0,0-0.1,0-0.2s0-0.1,0-0.2V4.9z"/>
										<path class="st30" d="M43.8,4.9c0,0.3,0.2,0.4,0.4,0.3s0.3-0.3,0.3-0.6v0.2l0,0l0,0l0,0l0,0l0,0l0,0l0,0l0,0l0,0l0,0l0,0
											l0,0H44c-0.1,0-0.1-0.1-0.1-0.2V4.5l0,0L43.8,4.9z"/>
										<path class="st30" d="M43.8,4.9c0,0.4,0.2,0.4,0.4,0.2c0.1-0.1,0.2-0.2,0.3-0.4l0,0l0,0l0,0l0,0l0,0l0,0l0,0l0,0l0,0l0,0
											l0,0l0,0l0,0l0,0H44c-0.1,0-0.1-0.1-0.1-0.2L43.8,4.9L43.8,4.9z"/>
										<path class="st30" d="M43.8,5c0,0.3,0.3,0.4,0.5,0.1c0.1,0,0.1-0.1,0.2-0.1l0,0l0,0l0,0l0,0l0,0l0,0l0,0l0,0l0,0H44
											c-0.1,0-0.1-0.1-0.1-0.2l0,0L43.8,5z"/>
									</g>
								</g>
							</g>
						</g>
					</g>
					<path class="st30" d="M44.2,4.5c0.2-0.1,0.3,0,0.3,0.1c0,0.2-0.1,0.4-0.3,0.5C44.1,5.2,44,5.1,44,5C44,4.8,44.1,4.6,44.2,4.5z"
						/>
					<path class="st32" d="M44.2,4.5c0.2-0.1,0.4,0,0.4,0.2s-0.1,0.5-0.3,0.6s-0.4,0-0.4-0.2C43.9,4.8,44,4.6,44.2,4.5z M44.2,5.3
						c0.3-0.2,0.4-0.5,0.4-0.8s-0.2-0.4-0.5-0.2c-0.3,0.2-0.4,0.5-0.4,0.8C43.8,5.4,44,5.5,44.2,5.3z"/>
					<path class="st10" d="M39.9,16.4c0.9,0.6,2,1,3.1,1c1-0.1,1.9-0.8,2.3-1.7c0.1,0.3,0.1,0.5,0.1,0.8c-0.7,0.9-1.8,1.5-2.9,1.5
						c-1.1,0-2.1-0.4-2.9-1.1l0.2-0.3L39.9,16.4z"/>
					<polygon class="st33" points="44.8,15.8 41.6,22.4 45.6,21.3 48.9,14.7 					"/>
					<path class="st14" d="M38.6,9.1c0,0-1.1-0.1-1.5,5.1c-0.1,1.2,0.2,2.4,0.9,3.3c0.9,0.8,1.8,1.5,2.8,2.1l0.7-0.9
						c0,0-2.2-2.7-2.5-3.3c0,0,1.5-4.1,1-5.4C39.6,8.8,39,9.1,38.6,9.1z"/>
					<path class="st15" d="M37.1,14.2c-0.1,1.2,0.2,2.4,0.9,3.3c0.9,0.8,1.8,1.5,2.8,2.1l0.1-0.1c-1.3-1.1-2.4-2.4-3.3-3.8
						c-0.6-1.2,0.6-5.6,0.9-6.7C38.2,9.2,37.4,9.8,37.1,14.2z"/>
					<path class="st18" d="M38.4,9c0,0-1.2,1.1-1.3,4.3c0,0,1.4,1.2,2.6,0.2c0,0,1.5-3.1,0.3-4.4C39.6,8.7,38.9,8.7,38.4,9z"/>
					<path class="st20" d="M39.7,13.4c0,0,1.2-2.7,0.5-4.1c-0.1,1.6-0.7,3.2-1.8,4.5C38.9,13.9,39.3,13.7,39.7,13.4z"/>
					<path class="st34" d="M40.5,19.2c0.8,0.5,1.2,1.7,1.4,1.8c0.5,0.2,1,0.1,1.5-0.2c0.2-0.1,0.3-0.3,0.3-0.5H43l0,0
						c-0.2,0-0.4-0.3-0.5-0.5s-0.1-0.3,0-0.3c0.1,0.1,0.4,0.2,0.5,0.2s0.3-0.2,0-0.5c-0.3-0.2-0.4-0.5-1.1-0.5c-0.2,0-0.3,0-0.8-0.4
						L40.5,19.2z"/>
					<path class="st22" d="M40.4,19.3c0.6,0.5,1.1,1,1.5,1.6c0.4,0.2,0.9,0.1,1.3-0.1c-0.3,0-0.7,0.2-1.2-0.4
						C41.5,20,41,19.6,40.4,19.3c0.3-0.3,0.5-0.5,0.7-0.8l0,0L40.4,19.3z"/>
				</g>
			</g>
		</g>
		<path class="st35" d="M43.2,44L23.6,66.4c8.3,5.2,26.7,10.1,51.6,10c24.6,0,42.8-4.8,51.2-10l-20-23C85.4,41,64.2,41.2,43.2,44z"
			/>
		<rect x="36.6" y="39.8" class="st36" width="0.9" height="3.7"/>
		<rect x="38.3" y="39.8" class="st36" width="0.9" height="3.7"/>
		<rect x="40.1" y="39.8" class="st36" width="0.9" height="3.7"/>
		<rect x="41.9" y="39.8" class="st36" width="0.9" height="3.7"/>
		<rect x="43.6" y="39.8" class="st36" width="0.9" height="3.7"/>
		<rect x="45.4" y="39.8" class="st36" width="0.9" height="3.7"/>
		<rect x="47.2" y="39.8" class="st36" width="0.9" height="3.7"/>
		<circle class="st37" cx="74.3" cy="77.4" r="1.4"/>
		<circle class="st38" cx="74.3" cy="77.4" r="0.8"/>
		<rect x="74.1" y="75.4" class="st38" width="0.3" height="4"/>
		<rect x="72.3" y="77.3" class="st38" width="4" height="0.3"/>
		<rect x="86.2" y="77.3" class="st38" width="4" height="0.3"/>
		<rect x="58.9" y="77.3" class="st38" width="4" height="0.3"/>
		<rect x="86.2" y="77.2" class="st37" width="0.1" height="0.4"/>
		<path class="st37" d="M89.7,77.6h-0.3v-0.4h0.3V77.6z M89.2,77.6h-0.3v-0.4h0.3V77.6z M88.6,77.6h-0.3v-0.4h0.3V77.6z M88,77.6
			h-0.3v-0.4H88V77.6z M87.4,77.6h-0.3v-0.4h0.3V77.6z M86.9,77.6h-0.3v-0.4h0.3V77.6z"/>
		<rect x="90" y="77.2" class="st37" width="0.1" height="0.4"/>
		<rect x="62.7" y="77.2" class="st37" width="0.1" height="0.4"/>
		<path class="st37" d="M59.3,77.6h0.3v-0.4h-0.3V77.6z M59.9,77.6h0.2v-0.4h-0.3L59.9,77.6z M60.5,77.6h0.3v-0.4h-0.3V77.6z
			 M61,77.6h0.3v-0.4H61V77.6z M61.6,77.6h0.3v-0.4h-0.3V77.6z M62.2,77.6h0.3v-0.4h-0.3V77.6z"/>
		<rect x="58.9" y="77.2" class="st37" width="0.1" height="0.4"/>
		<g class="st39">
			<path class="st30" d="M68.8,60.8c0.8-1.2,1.5-3.5,1.8-6.2l1.4,0.3c-0.4,3.2-1.1,5.4-2,6.8L68.8,60.8z M75.8,52.2v10.4
				c0,1.1-0.3,1.5-1.6,1.5c-0.6,0-1.2,0-1.9-0.1l-0.3-1.5c0.8,0.1,1.4,0.2,1.9,0.2c0.4,0,0.5-0.1,0.5-0.4V52.2H75.8z M79.7,61.6
				c-0.7-2.8-1.5-5.3-2.2-6.8l1.3-0.6c0.8,1.6,1.7,4.2,2.3,6.6L79.7,61.6z"/>
		</g>
	</g>
</g>
</svg>
