<svg xmlns="http://www.w3.org/2000/svg" xmlns:xlink="http://www.w3.org/1999/xlink" viewBox="0 0 48.3 100.36"><defs><style>.cls-1,.cls-33{fill:none;}.cls-2{opacity:0.2;}.cls-3{fill:#5d5d5d;}.cls-4{fill:#f7ad0c;}.cls-5{fill:#eda006;}.cls-6{fill:#f4b80f;}.cls-7{fill:#5b5b5b;}.cls-8{fill:#1d374e;}.cls-9{fill:#3d2415;}.cls-10{fill:#331c11;}.cls-11{fill:#492817;}.cls-12{fill:#f1b287;}.cls-13,.cls-18{fill:#e8a476;}.cls-14{fill:#d32420;}.cls-15{fill:#172e3f;}.cls-16{fill:#23435b;}.cls-17{fill:#db9669;}.cls-18{fill-rule:evenodd;}.cls-19{fill:#3f210a;}.cls-20{fill:#4f2b0c;}.cls-21{fill:#361d07;}.cls-22{fill:#301808;}.cls-23{fill:#4c260c;}.cls-24{fill:#e03128;}.cls-25{fill:#ed602b;}.cls-26{fill:#df3f29;}.cls-27{fill:#492e29;}.cls-28,.cls-35{fill:#fff;}.cls-29{clip-path:url(#clip-path);}.cls-30{fill:#feffff;}.cls-31{fill:#553730;}.cls-32{fill:#646368;}.cls-33,.cls-35{stroke:#fc1717;}.cls-33{stroke-miterlimit:10;}.cls-34{fill:#fc1717;}.cls-35{stroke-linecap:round;stroke-linejoin:round;}.cls-36{fill:#ff5a79;}</style><clipPath id="clip-path"><path class="cls-1" d="M30.75,39.93a.13.13,0,0,1,.13.12.25.25,0,0,1,.06.19,1.08,1.08,0,0,1-.06.64,1.33,1.33,0,0,1-.83.82.26.26,0,0,1-.31,0,.52.52,0,0,1-.26-.44,1.38,1.38,0,0,1,.7-1.21.25.25,0,0,1,.06.19,1.16,1.16,0,0,0-.5,1c0,.31.25.44.57.25a1.11,1.11,0,0,0,.51-1c0-.32-.26-.45-.58-.26a.25.25,0,0,0-.06-.19A.64.64,0,0,1,30.75,39.93Z"/></clipPath></defs><g id="Layer_2" data-name="Layer 2"><g id="Layer_2-2" data-name="Layer 2"><g id="Layer_1-2" data-name="Layer 1-2"><g class="cls-2"><path class="cls-3" d="M41.16,75.23c9.46,5.46,9.53,14.35.13,19.81s-24.7,5.46-34.16,0S-2.39,80.69,7,75.23,31.7,69.77,41.16,75.23Z"/></g><path class="cls-4" d="M44.15,74.08C44.34,70.08,30.63,63,30.63,63c-.45,1-1,1.91-1.46,2.8-2.16,1-5.21,1.58-7.62-1.27l7.62,6.85a58.91,58.91,0,0,0,9,4.45l-.38,1.65h0a22,22,0,0,0-1,6.41,12.17,12.17,0,0,1-.69,3.68,2.08,2.08,0,0,0,2.92.7c.06-.06.19-.13.25-.19l3.3-8.51C44,75.73,44.08,75.42,44.15,74.08Z"/><path class="cls-5" d="M40.21,74.4C37.48,71.67,29,71.16,29,71.16h0l.13.13a59.42,59.42,0,0,0,9,4.44l-.38,1.66h0a17.27,17.27,0,0,0-.64,2.47l2.22,2.35C40.59,75.16,40.21,74.4,40.21,74.4Z"/><path class="cls-6" d="M44.15,74.08c.19-3.74-12.06-10.34-13.4-11l-.19.06c-.19.44-.44.89-.63,1.27l.5,3.24s6.93,1.14,9.85,4.12c0,0,3.49,2.1.44,10l1.14.12.89-2.28C44,75.73,44.08,75.42,44.15,74.08Z"/><path class="cls-4" d="M29,66.4s1.27,19.94-4.12,21.4c-1.65.44-3.43.38-9.46-7.81l-2.16-2,1.84-2.67s5.4,2.79,6.6,4.19c0,0-3-8.25-.38-14.35C21.36,65.07,27.51,67.67,29,66.4Z"/><path class="cls-7" d="M6.06,75.1l.06.06h0L6,75Z"/><path class="cls-5" d="M21.74,79.42c-1.08-1.21-5.21-3.43-6.35-4l-.13,1c9.27,8.51,8.64,4.26,8.64,4.26-2.61-10.54-.39-13.91-.39-13.91l-.31-1c-1.08-.38-1.78-.7-1.78-.7C18.69,70.78,21.74,79.42,21.74,79.42Z"/><path class="cls-6" d="M24.91,82.65c0,3.88-3,2.23-5.65-.44s-4.76-4.63-4.76-4.63l-1,.06-.19.32,2.16,2c4.13,5.59,7,7.68,8.45,7.62,3.68-.07,3.8-3.94,3.49-11.56-.13-3.81.57-5.9,1.33-7a18.29,18.29,0,0,1-4.19,1.08C25.93,73.7,24.91,78.78,24.91,82.65Z"/><path class="cls-8" d="M28.72,69l.38-.19V68.5C29,68.69,28.85,68.81,28.72,69Z"/><path class="cls-9" d="M16.4,75.16c-1.52-.82-6-3.43-7.23-3.49s-1.84,1-1.91,2.35.38.89-.13,2.35.07,4.7,1.53,4.76,1.71-3.11,1.78-3.94a1.73,1.73,0,0,1,1.65.32c1.27.95,2.6,3,2.6,2.22C14.56,76.31,17.74,75.93,16.4,75.16Z"/><path class="cls-10" d="M7.2,74c-.07,1.4.38.89-.13,2.35s0,4.25,1.27,4.7c-1.52-1.53-.63-6-.63-6a5.7,5.7,0,0,1,.63-3.24C7.58,72.12,7.26,72.94,7.2,74Z"/><path class="cls-11" d="M10.37,77.13a1.89,1.89,0,0,1,1.72.32c1.27,1,2.6,3,2.6,2.22a4.7,4.7,0,0,1,.32-1.9c-.64-.77-2.86-3.18-4.26-2.8-1.58.45-2.41.13-2.41,2.16,0,1.65,0,3.11.64,3.81C10.12,80.62,10.31,77.89,10.37,77.13Z"/><path class="cls-9" d="M37,79.86c-.69-.44-.19,4.7-1.33,6.92-1.08,2-1.08,2.48-.06,3.43a4.21,4.21,0,0,0,2,.44s.69,0,1.58,1.46c0,0,2.54,2.73,3.75,1.15,0,0,.63-.89-.89-2.1a5,5,0,0,1-2.1-3.87c.07-2.16,2.54-6.1,2.29-6.48C41.86,80.12,41.16,82.4,37,79.86Z"/><path class="cls-10" d="M35.64,90.21a4.23,4.23,0,0,0,2,.44s.7,0,1.59,1.46c0,0,2.47,2.61,3.68,1.21A4.15,4.15,0,0,1,39.7,91.8c-.57-1-.76-1.34-2.85-1.78a2.76,2.76,0,0,1-2-1.59C34.75,89.19,34.94,89.58,35.64,90.21Z"/><path class="cls-11" d="M42.05,91.16A5,5,0,0,1,40,87.29c.06-2.16,2.54-6.1,2.28-6.48s-.82.64-2.79.19a13.15,13.15,0,0,1-1.08,4.7c-1.14,2.22-1.46,2.8-.25,3.56a6.61,6.61,0,0,1,2.54,2.41A2.47,2.47,0,0,0,43,93C43.13,92.69,43.07,92,42.05,91.16Z"/><path class="cls-12" d="M31.32,44.88s2.67.19,2.29,7.81c0,0,1.08,6.16,1.59,8.06l1.71,5.52s-.32.77-2,.58c0,0-3.43-4.45-4-6.8s-3.62-13.9-1.46-15C29.48,45.07,30.56,44.43,31.32,44.88Z"/><path class="cls-13" d="M34.88,66.85a2.53,2.53,0,0,0,.95,0,35.37,35.37,0,0,1-3.3-5.34c-1.71-3.55-.32-8.63-.32-8.63l-3-.45c.57,3.18,1.39,6.48,1.65,7.62C31.45,62.4,34.88,66.85,34.88,66.85Z"/><path class="cls-14" d="M34.63,66.91a15.1,15.1,0,0,1,.76,2.92,2,2,0,0,0,1.27,1.9c.5.2,2.09.58,2-1.2s-.51-2.16-.51-2.16l-1.9-1.9Z"/><path class="cls-15" d="M28.53,44.5s-1.21,2.73,1.27,8.57c0,0,3.49,1.33,4.7-1.27,0,0-.07-6.67-3.24-8.32A2.24,2.24,0,0,0,28.53,44.5Z"/><path class="cls-8" d="M22.24,46.66c-2.15,1.2-6.85,3.43-3.93,7.93,0,0,2.22,3.24,3.3,4.64a4.13,4.13,0,0,1,.63,4.89s4.51,5.52,10.23-1a30.89,30.89,0,0,1,0-7.11c.5-2.48,2.35-10.41-2.42-12.19C28.28,43,26.56,44.12,22.24,46.66Z"/><path class="cls-15" d="M18.31,54.53a22.29,22.29,0,0,0,2.41,4.32A4.64,4.64,0,0,1,21.61,64s2.6,2.35,5.59,2.16C24,61.64,24.15,59,24.4,56.43c.38-4.06.07-6.6-1.52-8.19a3.24,3.24,0,0,0-2.16-.76C18.82,48.56,16.21,50.47,18.31,54.53Z"/><path class="cls-16" d="M32.47,63a30.91,30.91,0,0,1,0-7.11c.5-2.48,2.35-10.42-2.42-12.19-1.14-.45-2,.25-3.68.57,1.84.51,5.84,3.49,4.64,10-1.08,6-2,8.63-2.1,11.43A9.16,9.16,0,0,0,32.47,63Z"/><path class="cls-13" d="M29.1,46.59A2.87,2.87,0,0,0,28,49.07c.13,1.27-2.66,1.21-4.25-2.92,0,0,1.14-.76.32-4.38Z"/><path class="cls-17" d="M28.34,47.16S25.42,45.77,23.9,46c0,0,.69-.57.44-2.66a5.13,5.13,0,0,1-.76-4.58,3.25,3.25,0,0,1,3.17-2.41S22.37,41.7,28.34,47.16Z"/><path class="cls-12" d="M31.39,40.75c-.07.38-.51.45-.07,2.1.32,1,.13,1-.44,2.73-.32,1-1.08,3-3.87,1,0,0-2.73-2.6-3.37-4.57A4.53,4.53,0,0,1,25,36.75C25.1,36.69,32.09,35,31.39,40.75Z"/><path class="cls-18" d="M31.45,40a6.85,6.85,0,0,1-2.73.95s-1.4-.19-1.52.32a4.84,4.84,0,0,0,.38,2.16,5.88,5.88,0,0,1,.82,2.22c-.06.26.26,1.59,1,1.65,0,0-2,.51-4.32-2.92,0,0-1.91-2.54-1.84-3s3-1.65,3.87-1.84,4.19-1,4.19-1S31.45,39.74,31.45,40Z"/><path class="cls-19" d="M31.45,38.78c-.06,1.08-2.54,1.4-4.19,1.53-.63.06-1.08.51-.76,2.22s-.7,1.84-.7,1.59c-.13-1.4-1.46-2.67-1.4-.38,0,0-2.85-3.56-1.52-5.91.89-1.52,3.11-3,6.86-1.33A2.52,2.52,0,0,1,31.45,38.78Z"/><path class="cls-19" d="M26.5,42.59c.32,1.84-.7,1.72-.7,1.72-.13-1.65-1.59-2.48-1.4-.57,0,0-2.85-3.56-1.52-5.91a4.34,4.34,0,0,1,2-1.78c-2.47,3.37,1.08,3.56,1.91,4.39C26.5,40.63,26.31,41.26,26.5,42.59Z"/><path class="cls-20" d="M26.44,41.64s-.64-.7-.77.06a1.27,1.27,0,0,1-.44-1.14s-.57,0-.64.76a1.32,1.32,0,0,1-.31-1.27,2.33,2.33,0,0,0-.77,1.15s-.63-1.15-.38-1.72c0,0-.31,0-.44.89a2.85,2.85,0,0,1,.57-3s-.25,2,3.62,3.12A1.64,1.64,0,0,0,26.44,41.64Z"/><path class="cls-21" d="M24.91,42.59s-1.46-.19-1.78-1.08a11.72,11.72,0,0,0,1.34,2.16C24.4,43.74,24.21,42.53,24.91,42.59Z"/><path class="cls-22" d="M23.26,37.32s-.19,2.16,3.62,3.12c0,0,3.24.38,4.51-1.34a1,1,0,0,0,0-1s-.13.88-.7,1c0,0,.32-.51.13-.7a2.15,2.15,0,0,1-1.15,1,.57.57,0,0,0-.06-.7,2.3,2.3,0,0,1-1.84,1.2,1.18,1.18,0,0,0,.51-.69s-1.21.76-2,.44c0,0,.7-.25.76-.64,0,0-1.46.39-2.16-.31a.8.8,0,0,0,.83-.26C25.67,38.4,23.51,38.28,23.26,37.32Z"/><path class="cls-23" d="M24,36.63s2.67-2.29,6.54.25a22.62,22.62,0,0,0-2.29-.57c-.57-.07.45.44,1,.63a19.26,19.26,0,0,1-2.35-.44c-.7-.13-2-.06-1.15.25S24.09,36.5,24,36.63Z"/><path class="cls-14" d="M22.82,40.94s4.76,2.92,9.2,1.59c0,0,2.61-.7-.7-2.86Z"/><path class="cls-24" d="M31.32,39.61l-6,.63C26.5,41.32,29,43.17,32,42.53,33.74,41.77,33,40.75,31.32,39.61Z"/><path class="cls-25" d="M22.44,39.23A4.34,4.34,0,0,1,26.94,35a4.77,4.77,0,0,1,4.83,4.76v.19s-4.32,3.68-9,.76A2.34,2.34,0,0,1,22.44,39.23Z"/><path class="cls-26" d="M22.44,39.23a2.94,2.94,0,0,0,.31,1.46,7.31,7.31,0,0,0,6.67.63l.13-.12a5.45,5.45,0,0,0-5-5.59A4.21,4.21,0,0,0,22.44,39.23Z"/><path class="cls-27" d="M22.82,40.94s4.95,2.73,8.88-1v-.45a8.3,8.3,0,0,1-9.07,1Z"/><path class="cls-27" d="M31.26,40.24v-.19h0c0-.06,0-.06-.06-.12l-.07-.07V39.8h-.06L31,39.74h-.13l-.38-.13h-.83l-.06.06-.06.07h0l-.07.06h0l-.06.06h0l-.19.19h0l-.06.07v.06l-.07.06-.06.07-.07.06h0v.83h0v.06h0l.07.06h.13l.38.19h.06l.06.07H30c.06,0,.13,0,.13-.07h0l.12-.06h0a1.43,1.43,0,0,0,1-1.21Zm-.7-.06v.19a.23.23,0,0,1-.06.19h0c0,.07-.07.13-.13.19s0,.07-.06.07a.14.14,0,0,1-.13.12V41h0l-.06.12a.07.07,0,0,1-.07.07l-.12.12h0l-.07.07h0v-.45h0v-.06a.22.22,0,0,1,.07-.19v-.06c0-.07,0-.07.06-.13a.06.06,0,0,1,.06-.06c.07-.07.07-.13.13-.2l.06-.12.13-.07.06-.06.13-.13v.07h.07V40h0v.13Z"/><path class="cls-28" d="M30.75,39.93a.13.13,0,0,1,.13.12.25.25,0,0,1,.06.19,1.08,1.08,0,0,1-.06.64,1.33,1.33,0,0,1-.83.82.26.26,0,0,1-.31,0,.52.52,0,0,1-.26-.44,1.38,1.38,0,0,1,.7-1.21.25.25,0,0,1,.06.19,1.16,1.16,0,0,0-.5,1c0,.31.25.44.57.25a1.11,1.11,0,0,0,.51-1c0-.32-.26-.45-.58-.26a.25.25,0,0,0-.06-.19A.64.64,0,0,1,30.75,39.93Z"/><g class="cls-29"><path class="cls-28" d="M30.75,39.93c.64.38,0,1.58-.7,1.77a.26.26,0,0,1-.31,0,.52.52,0,0,1-.26-.44,1.38,1.38,0,0,1,.7-1.21.25.25,0,0,1,.06.19,1.16,1.16,0,0,0-.5,1c0,.31.25.44.57.25a1.11,1.11,0,0,0,.51-1c0-.32-.26-.45-.58-.26a.25.25,0,0,0-.06-.19.64.64,0,0,1,.57-.12Z"/><path class="cls-28" d="M30.24,40h0c0,.06.07.13.07.19a1.11,1.11,0,0,0-.51,1c0,.32.25.45.57.26a1.11,1.11,0,0,0,.51-1c0-.32-.25-.45-.57-.26,0-.06-.07-.13-.07-.19h0a.47.47,0,0,1,.51-.06h.13v.31h0v.7l-.13.13h0l-.06.06-.06.07-.07.06-.06.06-.07.07-.06.06-.06.06h-.57a.52.52,0,0,1-.26-.44,1.38,1.38,0,0,1,.7-1.21Z"/><path class="cls-28" d="M30.24,40l-.06.06-.06.07.12-.13a.22.22,0,0,1,.07.19,1.11,1.11,0,0,0-.51,1c0,.32.25.45.57.26a1.11,1.11,0,0,0,.51-1c0-.32-.25-.45-.57-.26,0-.06-.07-.13-.07-.19h0a.54.54,0,0,1,.51-.13h.13v.89s0,.07-.06.07v.12l-.07.07v.06l-.06.06-.06.07-.07.06-.06.06-.07.07-.06.06-.06.06h-.57a.52.52,0,0,1-.26-.44,1.38,1.38,0,0,1,.7-1.21Z"/><path class="cls-28" d="M30.24,40h0c-.12.06-.25.19-.25.25l.25-.25a.22.22,0,0,1,.07.19,1.11,1.11,0,0,0-.51,1c0,.32.25.45.57.26a1.11,1.11,0,0,0,.51-1c0-.32-.25-.45-.57-.26a.63.63,0,0,1-.07-.19h.07l.12-.06a.32.32,0,0,1-.19.06.67.67,0,0,1,.51-.06h.13v.31h0v.51s0,.07-.06.07v.12l-.07.13v.06l-.06.07-.06.06-.07.06-.06.07-.07.06-.06.06h-.06l-.07.07h-.5a.55.55,0,0,1-.26-.45,1.37,1.37,0,0,1,.7-1.2Z"/><path class="cls-28" d="M30.24,40a1.74,1.74,0,0,0-.38.32,1.58,1.58,0,0,0,.38-.32.22.22,0,0,1,.07.19,1.11,1.11,0,0,0-.51,1c0,.32.25.45.57.26a1.11,1.11,0,0,0,.51-1c0-.32-.25-.45-.57-.26a.25.25,0,0,1-.07-.19h.07a.23.23,0,0,1,.19-.06c-.07,0-.19.06-.26.06a.67.67,0,0,1,.51-.06h.13v.31h0v.7l-.13.13v.06l-.06.07-.06.06-.07.06-.06.07-.07.06-.06.06h-.06l-.07.07h-.5a.55.55,0,0,1-.26-.45,1.37,1.37,0,0,1,.7-1.2Z"/><path class="cls-28" d="M30.24,40h0a.87.87,0,0,0-.38.45c.07-.2.26-.32.38-.45v.19a1.13,1.13,0,0,0-.5,1c0,.32.25.45.57.26a1.11,1.11,0,0,0,.51-1c0-.32-.26-.45-.58-.26V40l.07.06c.06-.06.12-.06.25-.12a3.14,3.14,0,0,0-.32.06.71.71,0,0,1,.51-.06h.13v.31h0v.51s0,.07-.06.07v.12l-.07.13v.06l-.06.07-.06.06-.07.06-.06.07-.07.06-.06.06h-.06l-.07.07h-.5a.55.55,0,0,1-.26-.45,1.37,1.37,0,0,1,.7-1.2Z"/><path class="cls-28" d="M30.24,40a1.12,1.12,0,0,0-.44.51,3.33,3.33,0,0,1,.44-.51v.19a1.13,1.13,0,0,0-.5,1c0,.32.25.45.57.26a1.11,1.11,0,0,0,.51-1c0-.32-.26-.45-.58-.26V40h.07c.06-.06.19-.06.32-.13a1,1,0,0,0-.39.13.48.48,0,0,1,.51-.06h.13v.31h0v.7l-.13.13h0l-.06.06-.06.07-.07.06-.06.06-.07.07-.06.06-.06.06h-.57a.52.52,0,0,1-.26-.44,1.38,1.38,0,0,1,.7-1.21Z"/><path class="cls-28" d="M30.24,40a1.48,1.48,0,0,0-.5.57,1.87,1.87,0,0,1,.5-.51v.19a1.16,1.16,0,0,0-.5,1c0,.31.25.44.57.25a1.11,1.11,0,0,0,.51-1c0-.32-.26-.45-.58-.26v-.19h.07c.12-.06.25-.06.38-.12-.19,0-.32.06-.45.06a.74.74,0,0,1,.51,0h.13v.89a.06.06,0,0,1-.06.06v.13h-.07v.06l-.06.07-.06.06-.07.06-.06.07-.07.06-.06.06h0l-.06.07-.07.06h-.5a.52.52,0,0,1-.26-.44A1.5,1.5,0,0,1,30.24,40Z"/><path class="cls-28" d="M30.24,40a1,1,0,0,0-.5.64c.12-.13.19-.26.25-.32a.5.5,0,0,1,.32-.19v.12a1.14,1.14,0,0,0-.51,1c0,.31.25.44.57.25a1.11,1.11,0,0,0,.51-1c0-.32-.25-.45-.57-.26v-.12h.06a.86.86,0,0,1,.38-.13.74.74,0,0,0-.51,0,.74.74,0,0,1,.51,0h.13v.76s0,.07-.06.07v.12l-.07.13v.06l-.06.07-.06.06-.07.06-.06.07-.07.06-.06.06h0l-.06.07-.07.06h-.5a.52.52,0,0,1-.26-.44,1.37,1.37,0,0,1,.7-1.21Z"/><path class="cls-28" d="M30.24,40a2.1,2.1,0,0,0-.57.7c.13-.13.19-.25.26-.32s.19-.19.31-.32v.13a1.13,1.13,0,0,0-.5,1c0,.32.25.45.57.26a1.11,1.11,0,0,0,.51-1c0-.32-.26-.45-.58-.26v-.13h.07a.89.89,0,0,1,.38-.12h0c0,.06-.13-.07-.45.06a.74.74,0,0,1,.51,0h.07v.76a.07.07,0,0,1-.07.07v.25l-.06.06-.06.07-.07.06-.06.06-.07.07-.06.06-.06.06h.06l-.06.07-.07.06h-.5a.79.79,0,0,1-.26-.51,1.37,1.37,0,0,1,.7-1.2Z"/><path class="cls-28" d="M30.24,40a1.43,1.43,0,0,0-.57.76h0c.07,0,.07-.06.07-.12a1.19,1.19,0,0,1,.57-.58v.13a1.11,1.11,0,0,0-.51,1c0,.32.25.45.57.26a1.11,1.11,0,0,0,.51-1c0-.32-.25-.45-.57-.26v-.13h.06a1,1,0,0,1,.38-.12h.07c-.07.06-.19-.13-.58.06a.67.67,0,0,1,.51-.06h.13v.31h0v.51s0,.07-.06.07v.12l-.07.13-.06.06-.06.07-.07.06-.06.06-.07.07-.06.06-.06.06h0l-.07.07h-.5a.55.55,0,0,1-.26-.45,1.37,1.37,0,0,1,.7-1.2Z"/><path class="cls-28" d="M30.31,40.24a1.14,1.14,0,0,0-.51,1c0,.31.25.44.57.25a1.11,1.11,0,0,0,.51-1,.34.34,0,0,0-.57-.26v-.12h.06a.75.75,0,0,1,.38-.07c.07,0,.07.07.13,0s-.06-.06-.19-.12a.61.61,0,0,0-.32.06.59.59,0,0,1,.45,0h.12v.76s0,.07-.06.07v.12l-.13.13v.06l-.06.07-.06.06-.07.06-.06.07-.07.06-.06.06-.06.07v-.07l-.07.07h-.5a.55.55,0,0,1-.26-.45,1.78,1.78,0,0,1,.45-1.08h0a1.84,1.84,0,0,0-.38.64c.38-.57.38-.57.63-.76v.12Z"/><path class="cls-28" d="M30.31,40.24a1.14,1.14,0,0,0-.51,1c0,.31.25.44.57.25a1.11,1.11,0,0,0,.51-1,.34.34,0,0,0-.57-.26v-.06l.06-.06a.67.67,0,0,1,.51-.07h0a.27.27,0,0,0-.25-.12h-.2c.13-.07.26-.07.32,0h.07v.89a.06.06,0,0,1-.07.06v.06l-.06.07-.06.06-.07.06-.06.07-.07.06-.06.06-.06.07-.07.06-.06.06-.06.07h-.38a.55.55,0,0,1-.26-.45,1.31,1.31,0,0,1,.38-1h0a1.17,1.17,0,0,0-.31.64l.12-.13a1.91,1.91,0,0,1,.57-.64v.07Z"/><path class="cls-28" d="M30.31,40.24a1.14,1.14,0,0,0-.51,1c0,.31.25.44.57.25a1.11,1.11,0,0,0,.51-1,.34.34,0,0,0-.57-.26h0l.06-.06a.67.67,0,0,1,.51-.06h.06a.28.28,0,0,0-.25-.19H30.5a.18.18,0,0,1,.25,0h.13v1h0v.06l-.13.07v.06l-.06.06-.06.07-.07.06-.06.06-.07.07-.06.06-.06.06-.07.07v-.07h-.5a.52.52,0,0,1-.26-.44,1.53,1.53,0,0,1,.32-.89h0a1.1,1.1,0,0,0-.25.64h0a.36.36,0,0,0,.12-.26,1.72,1.72,0,0,1,.51-.63V40Z"/><path class="cls-28" d="M30.31,40.24a1.14,1.14,0,0,0-.51,1c0,.31.25.44.57.25a1.11,1.11,0,0,0,.51-1,.34.34,0,0,0-.57-.26h0a.5.5,0,0,1,.57,0h.06c.07,0,0-.19-.25-.25h-.13a.23.23,0,0,1,.19.06h.13v.7s0,.07-.06.07v.12l-.07.13v.06l-.06.07-.06.06-.07.06-.06.07-.07.06-.06.06h0l-.06.07-.07.06h-.5a.52.52,0,0,1-.26-.44,1.3,1.3,0,0,1,.32-.76l-.06.06a1.36,1.36,0,0,0-.19.63s.12-.12.12-.19a1.76,1.76,0,0,1,.64-.7Z"/><path class="cls-28" d="M29.74,40.5a1,1,0,0,0-.19.7v.06c.06,0,.12,0,.12.06l.19.19h.26a1,1,0,0,0,.63-.63,2.5,2.5,0,0,0,.13-.64.34.34,0,0,0-.19-.31c-.06,0-.13-.07-.19-.07a.22.22,0,0,1,.19.07h.13v.89a.06.06,0,0,1-.07.06h0V41l-.06.06-.06.06-.07.07-.06.06-.07.06-.06.07-.06.06-.07.06-.06.07.06-.07h-.5a.52.52,0,0,1-.26-.44,1.23,1.23,0,0,1,.26-.76h0Z"/><path class="cls-28" d="M29.67,40.63c-.38.82.26,1,.51.88a1.21,1.21,0,0,0,.7-.88c.19-.51-.06-.7-.19-.77h.13v1.08l-.07.07v.06l-.06.06-.06.07-.07.06-.06.06-.07.07-.06.06-.06.06h-.57a.52.52,0,0,1-.26-.44,1.36,1.36,0,0,1,.19-.7s0,.07-.06.07h0v.19Z"/><path class="cls-28" d="M29.67,40.63c-.38.82.19,1.07.51.95.7-.26,1.08-1.46.51-1.65h.19v.89a.06.06,0,0,1-.06.06h0v.06l-.07.07v.06l-.06.06-.06.07-.07.06-.06.06-.07.07-.06.06-.06.06h-.57a.52.52,0,0,1-.26-.44,2.36,2.36,0,0,1,.13-.63h0v.19Z"/><path class="cls-28" d="M29.61,40.75c-.25.7.19,1,.63.83.64-.26,1.08-1.46.45-1.65h.19v1h0v.06l-.06.07-.07.06-.06.06-.06.07-.07.06-.06.06-.07.07-.06.06-.06.06H29.8a.51.51,0,0,1-.25-.44,1.94,1.94,0,0,1,.12-.57v.06h0Z"/><path class="cls-28" d="M29.61,40.75c-.25.76.19,1.08.63.83.64-.38,1-1.4.45-1.65h.13v.31h0v.51a.07.07,0,0,1-.07.07v.25l-.06.06-.06.07-.07.06-.06.06-.07.07-.06.06-.06.06-.07.07.07-.07h-.57a.52.52,0,0,1-.26-.44c.07-.13.07-.25.13-.32Z"/><path class="cls-28" d="M29.61,40.88c-.19.7.25.95.76.7A1.46,1.46,0,0,0,31,40.24h0v.83l-.07.06-.06.07-.06.06-.07.06v.07l-.06.06-.06.06-.07.07-.06.06-.07.06-.06.07h-.51a.57.57,0,0,1-.25-.45,1.14,1.14,0,0,1,.06-.44v.06h0Z"/><path class="cls-28" d="M29.61,40.88c-.19.7.25.95.76.7A1.55,1.55,0,0,0,31,40.37v.51a.06.06,0,0,1-.07.06v.13l-.06.06-.06.07-.07.06v.06l-.06.07-.06.06-.07.06-.06.07-.07.06-.06.06-.06.07H29.8a.54.54,0,0,1-.25-.45.86.86,0,0,1,.06-.38h0Z"/><path class="cls-28" d="M29.55,41c-.13.63.38.82.82.5a1.75,1.75,0,0,0,.64-1v.38a.06.06,0,0,1-.07.06v.13l-.06.06-.06.07-.07.06-.06.06.06.07-.06.06-.06.06-.07.07-.06.06-.07.06-.06.07h-.51a.57.57,0,0,1-.25-.45v-.25h0Z"/><path class="cls-28" d="M29.55,41c-.13.69.38.82.88.5a1.4,1.4,0,0,0,.51-.76.2.2,0,0,1-.06.13v.19l-.06.06-.07.07h0l-.06.06-.06.06-.07.07-.06.06-.07.06h0l-.06.07-.06.06H29.8a.51.51,0,0,1-.25-.44v-.26h0Z"/><path class="cls-28" d="M29.55,41.13c0,.64.57.7,1,.32a1.43,1.43,0,0,0,.26-.38l-.07.06v.07l-.06.06-.06.06-.07.07-.06.06-.07.06-.06.07-.06.06-.07.06-.06.07h-.44a1.21,1.21,0,0,1-.19-.64v0Z"/></g><path class="cls-30" d="M30.31,40.24c.32-.19.57-.06.57.26a1.19,1.19,0,0,1-.51,1c-.32.19-.57.06-.57-.25A1.06,1.06,0,0,1,30.31,40.24Z"/><path class="cls-31" d="M30.31,40.05c.38-.25.7-.06.76.39a1.42,1.42,0,0,1-.64,1.2c-.38.26-.69.06-.76-.38A1.46,1.46,0,0,1,30.31,40.05Zm.06,1.72a1.79,1.79,0,0,0,.83-1.53c0-.57-.45-.76-1-.44a2,2,0,0,0-.88,1.52c.06.58.5.77,1,.45Z"/><path class="cls-27" d="M21.55,64.05S24.72,66.4,27.7,66a5.86,5.86,0,0,0,4.7-3.49,4.55,4.55,0,0,1,.26,1.58,7,7,0,0,1-6,3,9.86,9.86,0,0,1-6-2.16s.32-.38.45-.51A2.21,2.21,0,0,0,21.55,64.05Z"/><path class="cls-11" d="M43.26,70.91c-.13.32-.38.57-.64.44l-20-7.61c-.19-.07-.26-.45-.13-.77h0c.13-.31.38-.57.63-.44l20,7.62a.62.62,0,0,1,.13.76Z"/><path class="cls-32" d="M38.94,64.18l3.18.32S47.51,70,38.56,83.35C38.62,83.35,45.48,68.88,38.94,64.18Z"/><path class="cls-12" d="M18.94,49.32c1-.63,5,.07,2.23,4.83-1,1.65-4.45,5.78-4.45,6.22a77,77,0,0,1,7.49,2.92,3.68,3.68,0,0,0-.44,2.16s-9.27-.57-10.67-3.3c0,0-.89-2,1.15-5.78S17.29,50.34,18.94,49.32Z"/><path class="cls-13" d="M13.1,62.08c1.4,2.73,10.67,3.31,10.67,3.31a1.67,1.67,0,0,1-.06-.51l-1.27-.45s-3.5-.69-6.1-1.52-2-2.54-2-2.54A60,60,0,0,0,16,52.75c-.57,1-1.14,2.1-1.9,3.49C12.15,60.18,13.1,62.08,13.1,62.08Z"/><path class="cls-8" d="M19.71,48.75s-2.8,1-5.27,6.86c0,0,1.46,3.43,4.12,2.47,0,0,4.76-4.63,3.75-8.12A2.11,2.11,0,0,0,19.71,48.75Z"/><path class="cls-16" d="M18.56,58.15s4-3.94,3.88-7.24c-.77,1.52-3.18,5.91-6.29,6.92A2.94,2.94,0,0,0,18.56,58.15Z"/><path class="cls-24" d="M34.31,66.21s1.27.57,2.16-1.27c0,0,.82-.38,1.2,2,.07.38.13.45.7,1.34.19.31.76,1.52.19,1.58,0,0-.44,0-1.2-1.14a1.8,1.8,0,0,0-1.59-1A2.31,2.31,0,0,1,34.31,66.21Z"/><path class="cls-24" d="M24.09,62.4c-.64.51-1.72,3.05-.64,3.62.64.32,2.29.13,2.79.83s2.93,2.92,4.83.57c.19-.26.32-1.15-.32-1.27s-2.16-.51-1.65-1.27c.19-.26.07-.13,1.21-.32.12,0,.44-.25-.07-.51a12.48,12.48,0,0,0-2.73-.38C26.63,63.54,24.59,62.08,24.09,62.4Z"/><path class="cls-14" d="M23.51,66c.64.32,2.29.13,2.8.83s2.86,2.92,4.76.57c.06-.07.06-.19.13-.26-2.67,1.27-3.94-.63-5.21-1.84a4.09,4.09,0,0,0-2.79-1C22.94,65.07,23,65.77,23.51,66Z"/><polygon class="cls-33" points="3.13 80.56 47.77 99.61 47.77 33.32 3.13 14.21 3.13 80.56"/><path class="cls-34" d="M4.85,16.31v1.27a.48.48,0,0,1,.63-.13,1.17,1.17,0,0,1,.64,1v1.27l-.26-.13V18.4a.65.65,0,0,0-.38-.69c-.25-.13-.44,0-.57.25v1.27l-.25-.13L4.6,16.25Z"/><path class="cls-34" d="M6.88,18v1.21a.68.68,0,0,0,.38.7c.26.13.45,0,.57-.26V18.4l.26.13.06,2-.25-.06v-.38a.48.48,0,0,1-.64.12,1.06,1.06,0,0,1-.63-1V17.9Z"/><path class="cls-34" d="M8.91,19.23A.41.41,0,0,1,9.42,19a1.1,1.1,0,0,1,.51.63c.13-.25.32-.31.51-.19a1.06,1.06,0,0,1,.44.45,1.33,1.33,0,0,1,.13.57v1.27l-.26-.13V20.37c0-.31-.12-.57-.31-.63s-.38.06-.38.32v1.27l-.39-.13V19.93a.64.64,0,0,0-.31-.64c-.19-.06-.38.07-.45.32v1.27l-.25-.13-.07-2,.26.12Z"/><path class="cls-34" d="M12.53,21.07a.62.62,0,0,0-.13-.38,1,1,0,0,0-.38-.25.58.58,0,0,0-.57,0l-.13-.26a1.38,1.38,0,0,1,.7,0,1.08,1.08,0,0,1,.7,1v.7a1.65,1.65,0,0,0,.13.63l-.19-.06c0-.07-.07-.26-.07-.38h0a.94.94,0,0,1-.25.19.41.41,0,0,1-.38-.07,1,1,0,0,1-.57-.88.35.35,0,0,1,.25-.39c.19-.06.38,0,.76.13l.26.13Zm-.19.26c-.51-.2-.76-.2-.76.12A.54.54,0,0,0,12,22c.32.13.57,0,.57-.32v-.19Z"/><path class="cls-34" d="M13.61,21.26a.49.49,0,0,1,.64-.13,1.18,1.18,0,0,1,.63,1v1.27l-.25-.13v-1.2a.68.68,0,0,0-.38-.7c-.26-.13-.45,0-.58.25v1.27l-.25-.12-.06-2,.25.12Z"/></g></g><path class="cls-35" d="M31.67,10.2a9.69,9.69,0,0,1-8.12,9.57L21.7,25.65l-1.93-6a9.7,9.7,0,1,1,11.9-9.44Z"/><path class="cls-36" d="M22,13a2.54,2.54,0,1,1,2.54-2.53A2.53,2.53,0,0,1,22,13Zm0-6.16a3.63,3.63,0,1,0,3.63,3.63A3.62,3.62,0,0,0,22,6.82Z"/></g></svg>