<svg xmlns="http://www.w3.org/2000/svg" viewBox="0 0 69.34 123.84"><defs><style>.cls-1,.cls-11,.cls-12{isolation:isolate;}.cls-1{opacity:0.1;}.cls-2,.cls-24{fill:none;stroke-miterlimit:10;}.cls-2,.cls-32{stroke:#fc1717;}.cls-12,.cls-3{fill:#f2a983;}.cls-4{fill:#673a1a;}.cls-5{fill:#000508;}.cls-6{fill:#005d8b;}.cls-7{fill:#0b6a98;}.cls-11,.cls-8{fill:#d88f69;}.cls-9{fill:#ff3f39;}.cls-10{fill:#e5251f;}.cls-11,.cls-12{opacity:0.15;}.cls-13{fill:#634024;}.cls-14{fill:#ff5953;}.cls-15{fill:#3b4447;}.cls-16{fill:#fc1717;}.cls-17{fill:#e38e22;}.cls-18{fill:#f0ae31;}.cls-19{fill:#f7c53f;}.cls-20{fill:#fbd54c;}.cls-21{fill:#2e373a;}.cls-22{fill:#ecb700;}.cls-23{fill:#ffd119;}.cls-24,.cls-34{stroke:#000;}.cls-25{fill:#ffb400;}.cls-26{fill:#ffcb4d;}.cls-27{fill:#ccac88;}.cls-28{fill:#d9b995;}.cls-29{fill:#b39372;}.cls-30{fill:#ffffeb;}.cls-31{fill:#cdcdb9;}.cls-32,.cls-34{fill:#fff;stroke-linecap:round;stroke-linejoin:round;}.cls-33{fill:#ff5a79;}.cls-34{stroke-dasharray:1 3;}</style></defs><g id="Layer_2" data-name="Layer 2"><path class="cls-1" d="M24.46,95.65l9,5.18c-.45-3.1,2.84-7.26,9-10.8,8.46-4.86,19.19-6.63,23.93-3.91S68,95,59.56,99.94c-6.12,3.54-13.38,5.43-18.75,5.18l4,2.27L24.46,119.14,4.2,107.39Z"/><polygon class="cls-2" points="24.21 94.96 68.34 114.15 68.84 34.23 24.78 15.1 24.21 94.96"/><path class="cls-3" d="M33.74,57.71l-.25.19s-.88,1.07-1.33,1.52-1.7,1.89-1.7,2.33.57.89,1.07,1.33A15.21,15.21,0,0,0,33,64a9.49,9.49,0,0,1,1,.26,2.27,2.27,0,0,0,1.14-.13c.06-.13.44-1.39.44-1.45s-.19-.38-.31-.38a.45.45,0,0,1-.32-.25,2.93,2.93,0,0,0,.32-1.45,5.83,5.83,0,0,1,.19-1.27l.19-.63Z"/><path class="cls-4" d="M47.19,97.55a5.58,5.58,0,0,1,.38,2.9s-.07.25-1,.69a5.58,5.58,0,0,0-2,1.52,4.31,4.31,0,0,1-3.35,2.27c-2.21.32-3.53-.5-3.72-1,0,0,.06-.94,1.58-2.27s3-2.65,3-2.65a1,1,0,0,1,1.14,0c.57.44.44,1.14,1.26,1.14a2.75,2.75,0,0,0,2-1.33C46.87,98.24,47.19,97.55,47.19,97.55Z"/><path class="cls-5" d="M41.25,104.87a4.24,4.24,0,0,0,3.35-2.27,4.9,4.9,0,0,1,2-1.52c.88-.44,1-.69,1-.69v-.07h0a4.41,4.41,0,0,1,0,.89s-.07.25-1,.69c-.32.19-.57.32-.82.44l-.38-.19a4.94,4.94,0,0,0-.76.76,4.29,4.29,0,0,1-3.34,2.27c-2.21.32-3.54-.5-3.73-.94a.92.92,0,0,1,.07-.26C37.91,104.49,39.17,105.18,41.25,104.87Z"/><path class="cls-4" d="M58.74,85.17A4.55,4.55,0,0,1,60,87.7,2.85,2.85,0,0,1,59,89a6.77,6.77,0,0,0-2.46,2.21c-.38,1-.63,2.52-2.21,3s-3.09.82-3.72-.38a5.55,5.55,0,0,1,.75-2.08c.57-.76,2.47-2.53,2.78-3.1a1.35,1.35,0,0,1,.76.13,1.85,1.85,0,0,0,1.45.06C56.85,88.58,58.8,86.06,58.74,85.17Z"/><path class="cls-5" d="M50.6,93.82v0c.69,1.26,2.14,1,3.72.38s1.83-2.15,2.21-3S58.3,89.4,59,89a2.85,2.85,0,0,0,1-1.26v-.07l.19.76a2.85,2.85,0,0,1-1,1.26,9.8,9.8,0,0,0-1.26.89c-.13-.07-.32-.13-.44-.19a3.41,3.41,0,0,0-.89,1.07c-.37,1-.63,2.53-2.21,3s-3.09.82-3.72-.38C50.6,94.14,50.6,93.88,50.6,93.82Z"/><path class="cls-6" d="M42,63.77c.31,5.12,2.4,7.26,5,11.43S53.06,84,53.69,89.28c0,0,4.86.56,5.93-2.78,0,0-2.46-5.56-3.47-8.15s-4.1-5.55-4.1-5.55l-2.46-7.45C49.59,65.29,41.82,61.94,42,63.77Z"/><path class="cls-7" d="M44.28,80.63c.07-2.34,1.46-15,1.46-15l9.84-.31C55,69.14,50.72,80.63,50.6,82S51,87.82,50,90.6a74.44,74.44,0,0,0-2.28,9,5.54,5.54,0,0,1-6-.19C44.09,94.39,44.22,83,44.28,80.63Z"/><path class="cls-8" d="M35.64,58.78l-.76-.44a.87.87,0,0,0-.38.7c-.13.69.19,1-.19,1.45s-.51.5-.44,1a10.72,10.72,0,0,1,.06,1.32c0,.38.19,1.14-.25,1.39a.6.6,0,0,0,.31.07,2.27,2.27,0,0,0,1.14-.13c.06-.13.44-1.39.44-1.45s-.19-.38-.31-.38a.45.45,0,0,1-.32-.25,2.93,2.93,0,0,0,.32-1.45,5.83,5.83,0,0,1,.19-1.27Z"/><path class="cls-3" d="M48.7,67.12a2.09,2.09,0,0,1-.82.57,11.85,11.85,0,0,0-2.52,1A14,14,0,0,0,44.16,70s-.19,1.64,0,1.71.63-.19.63-.19l.25-.32s.38,1.33.63,1.39a3.37,3.37,0,0,1,.82.44,4,4,0,0,0,1.71.13,3,3,0,0,0,.76-.89s.63-2.71,1.26-3.15Z"/><path class="cls-8" d="M48.26,73.05a1.31,1.31,0,0,0,.44-.44c-.57-.13-1.7-.19-2.14-.25s-.82-.51-.76-.7.57-.5.69-.57-.06-.44-.06-.75S46.3,70,45.86,70a1.29,1.29,0,0,0-.76.44l-.06.69s.38,1.33.63,1.39a3.39,3.39,0,0,1,.82.45A4.18,4.18,0,0,0,48.26,73.05Z"/><path class="cls-9" d="M33.43,57.84a3.15,3.15,0,0,1,2.08,1.7s6.38-4.42,7.76-6.37,2.09-14.52,2.09-14.52-2.53.75-3.16,2.84S42,44.2,41.32,46.6a18.65,18.65,0,0,1-1.39,3.47S33.74,57.27,33.43,57.84Z"/><path class="cls-10" d="M43.84,42.81s-1.32-.5-1.32.51a8.62,8.62,0,0,1-.13,2.4c-.25,1.64-.19,3.78-1,4s-1.26-.06-1,.64.88,2.39-1.45,4.73a31.35,31.35,0,0,1-4.29,3.47,5,5,0,0,1,.82,1s6.37-4.42,7.76-6.37C44,52,44.6,47.3,44.92,43.51Z"/><path class="cls-9" d="M47.82,38.9a5.43,5.43,0,0,0-2.53-.25,9.5,9.5,0,0,0-2.14,4.48,22,22,0,0,0-.51,6.25c.26,1.26.32,4.16.44,6.25s-1.26,8-1.32,8.08S42.07,65.6,47,66.8a14.06,14.06,0,0,0,9.09-1s-1.83-5-1.39-7.26a30.29,30.29,0,0,1,2-5.74l2.08-7.26s-2.9-3.79-4-4.93S47.82,38.9,47.82,38.9Z"/><path class="cls-10" d="M56.72,52.72l.69-2.39-1.19-.45s-2.53-.69-2.85.82-.44,2.09-.88,2.4-1.7-.57-1.33,1.9,1.46,4.73-.06,5.68-1.51,1.7-1.45,2.46c.06.51-1.52,2.53-2.4,3.6a14,14,0,0,0,9-1.07s-1.84-5-1.39-7.26A27.62,27.62,0,0,1,56.72,52.72Z"/><path class="cls-9" d="M48.51,67.12l1.77,2.46s7.89-6.5,9-7.77,1.07-8.45,1.07-10.29S59.75,46,58.8,45.46s-4.23.89-4.35,3.48,1.39,8.58,1.07,10.85Z"/><path class="cls-8" d="M53.56,37.19a6.15,6.15,0,0,0,.19,2.47c.45.88-1.07,1.76-2.9,2.52s-2.21.38-2.53,0c-.56-.69-.44-2.84-.44-2.84Z"/><path class="cls-11" d="M47.57,41.3,48,39.4l5.68-2.14a6.1,6.1,0,0,0,.19,2.46,1.89,1.89,0,0,1-.26,1.45l-.88.76s.06-2-1.07-1.64A11.7,11.7,0,0,1,47.57,41.3Z"/><path class="cls-10" d="M48.39,42.18,46.56,44s.19-3.28.38-4.73l.94-.44A13.69,13.69,0,0,0,48.39,42.18Z"/><path class="cls-3" d="M53,30.31a4.48,4.48,0,0,0-4.74.19,4.42,4.42,0,0,0-2,2.65c-.12.51-.25,1-.37,1.39s.31.89.31.89c-.44.57-.13,1.89,0,2.21a.69.69,0,0,0-.06.31.29.29,0,0,0,.25.32,4.91,4.91,0,0,1,.19,1.13c0,.32-.06,1.39,1.2,1.39a7.55,7.55,0,0,0,4.23-1.64,8.63,8.63,0,0,0,2.71-4.61A4.4,4.4,0,0,0,53,30.31Z"/><path class="cls-8" d="M45.93,34.54a14,14,0,0,0,.37-1.39v-.06A16.6,16.6,0,0,1,52,34.92a.2.2,0,0,0,.12.07,5.91,5.91,0,0,1-2.9,1.57c-1.08.19-1.33-.56-3-1.13A.94.94,0,0,1,45.93,34.54Z"/><path class="cls-8" d="M46.18,37.7h0a7.6,7.6,0,0,0,.69-1.52c.13-.56-.94-1.13-.94-1.13h0a.69.69,0,0,0,.25.38C45.74,36,46.11,37.38,46.18,37.7Z"/><path class="cls-12" d="M53,30.31a4.48,4.48,0,0,0-4.74.19,4.6,4.6,0,0,0-1.83,2.28c.19.44.44.75.82.82,1.26.25,2.4-.13,3,.06s.7,1.07.76,1.89.57,1.08.38,2-1.27,2-1.58,2.84a9.14,9.14,0,0,0,2.08-1.13,8.62,8.62,0,0,0,2.72-4.61A4.22,4.22,0,0,0,53,30.31Z"/><path class="cls-13" d="M51.54,35.74a3.06,3.06,0,0,0,.51,1c.12.07.44-.12.5-.25s1.39-1.58,1.46.13a7.48,7.48,0,0,0,.63-2,3.78,3.78,0,0,0,.06-.82,11.65,11.65,0,0,1-3.22.88C51.54,35.11,51.48,35.49,51.54,35.74Z"/><path class="cls-8" d="M47.06,40.73a5.43,5.43,0,0,0-.19-2.34c0-.06-.31,0-.5-.06h0a5.61,5.61,0,0,1,.19,1.14C46.56,39.72,46.49,40.41,47.06,40.73Z"/><path class="cls-3" d="M52.49,38c.13.12.51.25,1.2-.51s.69-1.45.32-1.7a.62.62,0,0,0-.89.19C53,36.25,52.49,38,52.49,38Z"/><path class="cls-12" d="M52.49,38c.13.12.51.25,1.2-.51s.69-1.45.32-1.7a.62.62,0,0,0-.89.19C53,36.25,52.49,38,52.49,38Z"/><path class="cls-9" d="M54.32,36.06s-1.39-1-2.33-1.45a16.86,16.86,0,0,0-6.13-1.83,20.15,20.15,0,0,1,1.83-3.29c.7-.82,2.84-1.26,4.8-.12C55,30.82,55,32.27,55,33.47A6.28,6.28,0,0,1,54.32,36.06Z"/><path class="cls-14" d="M45.86,32.71A16.86,16.86,0,0,1,52,34.54a.2.2,0,0,0,.12.07,5.91,5.91,0,0,1-2.9,1.57c-1.08.19-1.39-.63-3.28-1.26a4.74,4.74,0,0,0-2.59-.19,8.22,8.22,0,0,1,1.26-1.2A14.47,14.47,0,0,1,45.86,32.71Z"/><path class="cls-10" d="M53.63,38.84a9,9,0,0,1-5.31,3.34l.51,2.91s4.86-3.41,5.74-4.68Z"/><path class="cls-15" d="M33.55,62.13l3.6-1.2s.82.44.38,1.07l-4.36,1.46Z"/><path class="cls-3" d="M31.41,61.44s1.2,1.07,1.26,1.57.57,1.14,1,1.14.44-1.64.19-2.65S31.41,61.31,31.41,61.44Z"/><path class="cls-16" d="M26.42,17.12v1.26a.47.47,0,0,1,.63-.12,1,1,0,0,1,.57,1v1.26l-.25-.13V19.2a.67.67,0,0,0-.38-.69c-.26-.13-.45,0-.57.25V20l-.25-.12-.07-2.84Z"/><path class="cls-16" d="M28.44,18.89v1.2a.66.66,0,0,0,.38.69c.25.13.44,0,.57-.25V19.27l.25.12v2l-.25-.13v-.38a.5.5,0,0,1-.64.13,1.19,1.19,0,0,1-.63-1v-1.2Z"/><path class="cls-16" d="M30.4,20.09a.38.38,0,0,1,.5-.19,1,1,0,0,1,.51.63c.12-.19.31-.32.5-.19a.94.94,0,0,1,.44.44,1.2,1.2,0,0,1,.13.57v1.26l-.25-.12v-1.2a.62.62,0,0,0-.32-.63c-.19-.07-.38.06-.38.31v1.26l-.25-.12V20.84a.64.64,0,0,0-.32-.63c-.19-.06-.37.07-.44.32v1.26l-.38-.19v-2l.26.12Z"/><path class="cls-16" d="M34,22a.93.93,0,0,0-.12-.38.67.67,0,0,0-.32-.25.47.47,0,0,0-.57,0l-.12-.25a.86.86,0,0,1,.69.06,1.09,1.09,0,0,1,.7,1v.69a1.69,1.69,0,0,0,.12.64l-.25-.13c0-.06-.06-.25-.06-.38h0a1,1,0,0,1-.26.19.42.42,0,0,1-.37-.06,1,1,0,0,1-.57-.89.35.35,0,0,1,.25-.38c.19-.06.38,0,.76.13l.25.13Zm-.19.19c-.5-.19-.75-.19-.75.13a.51.51,0,0,0,.38.5c.31.13.56,0,.56-.31V22.3Z"/><path class="cls-16" d="M35.07,22.11A.47.47,0,0,1,35.7,22a1,1,0,0,1,.57,1v1.26L36,24.13v-1.2a.68.68,0,0,0-.37-.7c-.26-.12-.45,0-.57.26v1.26l-.26-.13V21.67l.26.12Z"/><path class="cls-15" d="M33.24,62.07a.7.7,0,0,1,.88.06c.19.19.13.82.13.82l-1.9.7A1,1,0,0,0,32,62.7v-.06Z"/><path class="cls-17" d="M18.34,101.46h-.13A.43.43,0,0,1,18,101L30.84,63.77a1.39,1.39,0,0,1,.69-.76l1.9-.88a.38.38,0,1,1,.31.69l-1.89.89L31.6,64,18.72,101.14a.41.41,0,0,1-.38.32"/><path class="cls-18" d="M28.19,72.93l-4.3,12.43h.19L28.38,73l-.19-.06m5.43-10.67h-.13l-1.89.88a1.55,1.55,0,0,0-.64.63L18.09,101a.21.21,0,0,0,.19.32h.06c.12,0,.19-.06.25-.19l5.18-15c-.07,0-.07-.07-.13-.13L18.4,101l-.12.06h-.07c-.06,0-.12-.13-.06-.19l9.78-28.28a.42.42,0,0,1,0-.38c.07-.06.13-.13.19-.13L31,63.71a.9.9,0,0,1,.5-.57l1.9-.88h.06c.06,0,.13,0,.13.06a.22.22,0,0,1-.07.19l-1.89.88a.92.92,0,0,0-.38.44L28.44,72.1a.06.06,0,0,1,.06.07h.07l2.84-8.27a.9.9,0,0,1,.31-.38l1.9-.88a.29.29,0,0,0,.12-.38c.06.06-.06,0-.12,0"/><path class="cls-19" d="M28.12,72.86,23.77,85.42c.06,0,.06-.06.12-.06l4.3-12.43-.07-.07h0M28,72.74,18.21,101a.23.23,0,0,0,.07.19h.06l.12-.07L23.7,86.06c0-.07-.06-.07-.06-.13L18.4,101.14h0v-.06l5.3-15.34c0-.06,0-.06.07-.13l4.42-12.75c-.13-.06-.19-.06-.19-.12m5.62-10.36h0l-2,.89a1.5,1.5,0,0,0-.51.56l-2.9,8.4c.06,0,.06,0,.13-.06l2.9-8.34a1,1,0,0,1,.5-.5l1.9-.88h.06v.06l-1.89.88a.89.89,0,0,0-.44.51l-2.84,8.27h.12l2.84-8.27a.88.88,0,0,1,.38-.44l1.89-.89a.12.12,0,0,0,.07-.19h-.25"/><path class="cls-20" d="M23.64,85.68,18.34,101v.06h0l5.24-15.21a.25.25,0,0,0,.06-.19m4.42-12.82L23.64,85.61h0c0-.06.06-.06.13-.12l4.29-12.63h0m5.49-10.41-1.89.88c-.19.06-.38.32-.51.5l-2.9,8.34h.06l2.84-8.27a1.21,1.21,0,0,1,.45-.51l1.95-.94h0"/><path class="cls-17" d="M36.2,93.19a.25.25,0,0,1-.19-.06l-12.18-7a.41.41,0,0,1,.44-.7L36.46,92.5a.4.4,0,0,1,.12.56.79.79,0,0,1-.38.13"/><path class="cls-17" d="M40.56,80a.22.22,0,0,1-.19-.07L28.19,72.86a.41.41,0,1,1,.44-.69l12.18,7.07a.42.42,0,0,1,.13.57.58.58,0,0,1-.38.19"/><path class="cls-18" d="M28.38,72.29a.53.53,0,0,0-.26.13.3.3,0,0,0,.13.38l12.12,7,.06-.13-12.12-7a.23.23,0,0,1-.06-.19c0-.06.06-.06.13-.06h.06L40.5,79.36l.06-.12L28.5,72.29h-.12"/><path class="cls-19" d="M28.38,72.42c-.07,0-.07,0-.13.06s0,.13.06.19l12.12,7,.07-.06-12.12-7v-.06h.06l12.12,7,.06-.12-12-7-.19-.06"/><polyline class="cls-20" points="28.38 72.55 28.31 72.55 28.31 72.61 40.43 79.62 40.5 79.55 28.38 72.55"/><path class="cls-18" d="M24,85.49a.48.48,0,0,0-.25.12.3.3,0,0,0,.12.38l12,6.88.06-.12L24,85.87a.25.25,0,0,1-.06-.19c0-.07.06-.07.12-.07h.07l11.93,6.88.06-.12L24.27,85.49H24"/><path class="cls-19" d="M24,85.61c-.06,0-.06,0-.13.07s0,.12.07.19l11.93,6.88.06-.13L24,85.74v-.06h.06L36,92.56l.07-.13L24.15,85.55a.22.22,0,0,1-.13.06"/><polyline class="cls-20" points="24.02 85.74 23.96 85.74 24.02 85.8 35.95 92.68 35.95 92.62 24.02 85.74"/><path class="cls-21" d="M36.77,104.24h0l-1.64-.95a1.19,1.19,0,0,0-.82-.13c-1.52.13-3.22,2-3.85,4-.51,1.65-.19,3,.69,3.41l1.52.89a1.29,1.29,0,0,0,1,.19c1.51-.13,3.22-2,3.85-4,.38-1.65.06-3-.76-3.41"/><path class="cls-15" d="M37.47,107.65c-.64,2.08-2.34,3.91-3.85,4s-2.21-1.46-1.58-3.54,2.33-3.91,3.85-4S38.1,105.56,37.47,107.65Z"/><path class="cls-22" d="M36.71,107.71c-.44,1.51-1.71,2.84-2.78,2.9s-1.58-1.07-1.14-2.59,1.71-2.84,2.78-2.9S37.15,106.19,36.71,107.71Z"/><path class="cls-23" d="M35.51,107.84c-.19.63-.7,1.13-1.14,1.13s-.63-.44-.44-1,.7-1.13,1.14-1.13S35.7,107.2,35.51,107.84Z"/><path class="cls-22" d="M35.7,107.9c-.19.63-.7,1.13-1.14,1.13s-.63-.44-.44-1,.69-1.13,1.14-1.13S35.89,107.33,35.7,107.9Z"/><path class="cls-15" d="M35.38,108c-.12.32-.38.63-.63.63s-.31-.25-.25-.57.38-.63.63-.63S35.45,107.65,35.38,108Z"/><path class="cls-23" d="M36.2,105.25a2.23,2.23,0,0,1,.26,2.27c-.45,1.51-1.71,2.84-2.78,2.9a1.08,1.08,0,0,1-.63-.12,1.23,1.23,0,0,0,.88.31,4,4,0,0,0,2.78-2.9C37,106.57,36.83,105.63,36.2,105.25Z"/><path class="cls-17" d="M30.65,109.48h-.13a.44.44,0,0,1-.25-.51L43.15,71.79a1.36,1.36,0,0,1,.69-.76l1.9-.88a.38.38,0,0,1,.5.19.39.39,0,0,1-.19.5l-1.89.89-.25.25L31,109.16c-.07.25-.19.32-.38.32"/><path class="cls-18" d="M30.65,109.22h0c-.13,0-.13-.12-.13-.19L43.4,71.92a.89.89,0,0,1,.51-.57l1.89-.89h.06c.07,0,.13,0,.13.07a.25.25,0,0,1-.06.19L44,71.6a.93.93,0,0,0-.38.44L30.77,109.16l-.12.06M45.93,70.27H45.8l-1.89.89a1.5,1.5,0,0,0-.64.63L30.4,109a.21.21,0,0,0,.19.32h.06c.12,0,.19-.07.25-.19L43.78,71.92a.9.9,0,0,1,.31-.38l1.9-.89a.28.28,0,0,0,.12-.38c0,.07-.12,0-.18,0"/><path class="cls-19" d="M30.65,109.16h0L43.46,71.92a1,1,0,0,1,.51-.51l1.89-.88h.07v.06l-1.9.88a.89.89,0,0,0-.44.51L30.65,109.16h0M45.93,70.4h0l-2,.88a1.53,1.53,0,0,0-.51.57L30.52,109.1a.23.23,0,0,0,.07.19h.06l.12-.07L43.65,72A.93.93,0,0,1,44,71.6l1.9-.88c.06,0,.12-.13.06-.19a.21.21,0,0,0-.06-.13"/><path class="cls-20" d="M45.86,70.53,44,71.41c-.19.06-.38.32-.51.51L30.65,109.1v.06h0L43.53,72a1.12,1.12,0,0,1,.44-.51l1.89-.94h0"/><polygon class="cls-24" points="3.71 103.89 47.83 123.08 48.34 83.08 4.28 63.95 3.71 103.89"/><path class="cls-15" d="M45.55,70.08a.7.7,0,0,1,.88.07c.19.19.13.82.13.82l-1.9.69a1,1,0,0,0-.31-.94v-.07Z"/><polygon class="cls-17" points="30.84 109.6 12.97 107.08 13.1 106.76 30.96 109.29 30.84 109.6"/><polygon class="cls-25" points="13.1 106.76 12.97 107.08 0.41 99.75 0.54 99.44 13.1 106.76"/><polygon class="cls-26" points="30.96 109.29 13.1 106.76 0.54 99.44 18.4 101.96 30.96 109.29"/><polygon class="cls-27" points="16.07 106.64 30.14 108.66 34.12 97.1 19.92 95.15 16.07 106.64"/><polygon class="cls-28" points="19.92 95.15 34.06 97.1 22.06 90.1 7.92 88.08 19.92 95.15"/><polygon class="cls-29" points="19.92 95.15 16.07 106.64 4.01 99.63 7.92 88.08 19.92 95.15"/><polygon class="cls-30" points="15.75 89.21 14.23 89.02 26.23 96.03 27.81 96.22 15.75 89.21"/><polygon class="cls-31" points="26.42 100.07 27.74 96.22 26.23 96.03 24.9 99.82 26.42 100.07"/><path d="M22.44,104.3v-.06h-.06l.06.06a1,1,0,0,0-.69.32h.06c.06,0,.06.06.06.12l.13-.12c.06,0,.06.06.06.12l.13-.12c.06,0,.06.06.06.12l.13-.12c.06,0,.06.06.06.12l.13-.12.06.06A.23.23,0,0,0,22.44,104.3Z"/><polygon points="21.68 106.07 21.75 106.07 22.25 104.74 22.19 104.74 21.68 106.07"/><path d="M21.49,106.32c-.06,0-.06-.13-.06-.19h-.06c-.06.13,0,.25.06.25s.19-.06.25-.25h-.06C21.62,106.26,21.56,106.32,21.49,106.32Z"/><path d="M20.42,103.92l-.31.76c-.13.31-.07.57.12.57a.74.74,0,0,0,.57-.51l.32-.76Z"/><polygon points="20.04 106 20.3 105.31 20.23 105.31 19.98 106 19.85 106 19.6 106.07 19.6 106.13 20.3 106.19 20.3 106.13 20.11 106 20.04 106"/><polygon points="17.9 105.63 17.83 105.81 18.84 106 18.91 105.81 17.9 105.63"/><polygon points="18.59 105.69 18.72 105.69 19.29 104.3 19.35 104.3 19.41 103.73 19.03 104.3 19.16 104.3 18.59 105.69"/><polygon points="18.15 105.56 18.27 105.63 18.84 104.24 18.91 104.24 18.97 103.67 18.59 104.17 18.65 104.24 18.15 105.56"/><path d="M23.26,104.05l-1.39-.19-1.07,2.65,1.39.19Zm-1.39-.19,1.33.19-1,2.52-1.33-.19Z"/><path d="M21.62,103.79l-1.39-.18-1.07,2.65,1.39.19Zm-1.39-.18,1.33.18-1,2.53-1.33-.19Z"/><path d="M20,103.54l-1.39-.19L17.52,106l1.39.19Zm-1.33-.12,1.33.19-1,2.52-1.33-.19Z"/><polygon class="cls-27" points="20.17 94.96 34.31 96.98 38.29 85.42 24.08 83.47 20.17 94.96"/><polygon class="cls-28" points="24.08 83.47 38.16 85.42 26.17 78.42 12.03 76.4 24.08 83.47"/><polygon class="cls-29" points="24.08 83.47 20.17 94.96 8.18 87.95 12.03 76.4 24.08 83.47"/><polygon class="cls-30" points="19.92 77.53 18.34 77.28 30.33 84.35 31.91 84.54 19.92 77.53"/><polygon class="cls-31" points="30.59 88.39 31.85 84.54 30.33 84.35 29.07 88.14 30.59 88.39"/><path d="M26.54,92.56V92.5h-.06l.06.06a1,1,0,0,0-.69.31h.06c.07,0,.07.07.07.13l.12-.13c.07,0,.07.07.07.13l.12-.13c.07,0,.07.07.07.13l.12-.13c.06,0,.06.07.06.13l.13-.13.06.07C26.86,92.81,26.73,92.62,26.54,92.56Z"/><polygon points="25.79 94.39 25.85 94.39 26.42 93.06 26.36 93 25.79 94.39"/><path d="M25.6,94.64c-.07,0-.07-.12-.07-.19h-.06c-.06.13,0,.25.06.25s.19-.06.26-.25h-.07C25.72,94.58,25.66,94.64,25.6,94.64Z"/><path d="M24.59,92.18l-.32.76c-.12.31-.06.57.13.57A.74.74,0,0,0,25,93l.31-.76Z"/><polygon points="24.15 94.33 24.4 93.63 24.34 93.63 24.08 94.33 24.02 94.33 23.77 94.33 23.7 94.39 24.4 94.52 24.46 94.45 24.21 94.33 24.15 94.33"/><polygon points="22 93.95 21.94 94.14 22.95 94.33 23.07 94.07 22 93.95"/><polygon points="22.76 93.95 22.88 94.01 23.39 92.62 23.52 92.62 23.58 92.05 23.2 92.56 23.26 92.62 22.76 93.95"/><polygon points="22.25 93.88 22.38 93.95 22.95 92.56 23.01 92.56 23.07 91.99 22.69 92.5 22.82 92.5 22.25 93.88"/><path d="M27.37,92.31,26,92.12,24.9,94.77l1.39.19ZM26,92.18l1.32.19-1,2.52L25,94.7Z"/><path d="M25.72,92.05l-1.38-.19-1.08,2.66,1.39.18Zm-1.38-.12,1.32.19-1,2.52-1.32-.19Z"/><path d="M24.15,91.8l-1.39-.19-1.08,2.65,1.39.19Zm-1.39-.13,1.32.19-1,2.53-1.32-.19Z"/><path class="cls-32" d="M51.85,10.2a9.69,9.69,0,0,1-8.12,9.57l-1.86,5.88-1.92-6a9.7,9.7,0,1,1,11.9-9.44Z"/><path class="cls-33" d="M42.15,13a2.54,2.54,0,1,1,2.54-2.53A2.54,2.54,0,0,1,42.15,13Zm0-6.16a3.63,3.63,0,1,0,3.63,3.63A3.62,3.62,0,0,0,42.15,6.82Z"/><path class="cls-34" d="M19.89,59.31a9.69,9.69,0,0,1-8.12,9.57L9.92,74.76,8,68.75a9.7,9.7,0,1,1,11.9-9.44Z"/><polygon class="cls-33" points="13.42 56.87 12.5 55.95 10.2 58.25 7.89 55.95 6.97 56.87 9.28 59.17 6.97 61.47 7.89 62.39 10.2 60.09 12.5 62.39 13.42 61.47 11.12 59.17 13.42 56.87"/></g></svg>