<svg xmlns="http://www.w3.org/2000/svg" xmlns:xlink="http://www.w3.org/1999/xlink" viewBox="0 0 65.17 109.88"><defs><style>.cls-1{fill:#e6e6e6;}.cls-2{fill:#1c1c1c;}.cls-3{fill:#131719;}.cls-4{fill:#4d4d4d;}.cls-5{fill:#79e031;}.cls-6{fill:#3e9400;}.cls-7{fill:#333;}.cls-8{fill:#18171d;}.cls-54,.cls-9{fill:none;stroke-miterlimit:10;}.cls-55,.cls-9{stroke:#fc1717;}.cls-10{fill:#fc1717;}.cls-11{fill:#ededed;}.cls-12{fill:#a6a6a6;}.cls-13{fill:gray;}.cls-14{fill:#bfbfbf;}.cls-15{fill:#292929;}.cls-16{fill:url(#linear-gradient);}.cls-17{fill:#666;}.cls-18{fill:url(#linear-gradient-2);}.cls-19{fill:#595959;}.cls-20{fill:#ff5d59;}.cls-21{fill:#0c376a;}.cls-22{fill:#08264a;}.cls-23{fill:url(#linear-gradient-3);}.cls-24{fill:url(#linear-gradient-4);}.cls-25{fill:url(#linear-gradient-5);}.cls-26{fill:url(#linear-gradient-6);}.cls-27{fill:#404040;}.cls-28{fill:url(#linear-gradient-7);}.cls-29{fill:#3d3d3d;}.cls-30{fill:url(#linear-gradient-8);}.cls-31{fill:url(#linear-gradient-9);}.cls-32{fill:url(#linear-gradient-10);}.cls-33{fill:url(#linear-gradient-11);}.cls-34{fill:url(#linear-gradient-12);}.cls-35{fill:url(#linear-gradient-13);}.cls-36{fill:url(#linear-gradient-14);}.cls-37{fill:#f8cfb3;}.cls-38{fill:#f74e4b;}.cls-39{fill:#fd7373;}.cls-40{fill:url(#linear-gradient-15);}.cls-41{fill:url(#linear-gradient-16);}.cls-42{fill:url(#linear-gradient-17);}.cls-43{fill:url(#linear-gradient-18);}.cls-44{fill:#1f1f1f;}.cls-45{fill:url(#linear-gradient-19);}.cls-46{fill:url(#linear-gradient-20);}.cls-47{fill:#e63c39;}.cls-48{fill:#fd0;}.cls-49{fill:#fb0;}.cls-50{fill:#fcb182;}.cls-51{fill:#8d4f36;}.cls-52{fill:#75422d;}.cls-53{fill:#a85e40;}.cls-54,.cls-57{stroke:#000;}.cls-55,.cls-57{fill:#fff;stroke-linecap:round;stroke-linejoin:round;}.cls-56{fill:#ff5a79;}.cls-57{stroke-dasharray:1 3;}</style><linearGradient id="linear-gradient" x1="-6048.93" y1="157.64" x2="-6048.65" y2="158.14" gradientTransform="matrix(-1, 0, 0, 1, -6006.25, -81.84)" gradientUnits="userSpaceOnUse"><stop offset="0.13" stop-color="#404040"/><stop offset="0.13" stop-color="#595959"/><stop offset="0.47" stop-color="#595959"/><stop offset="0.48" stop-color="#404040"/><stop offset="0.77" stop-color="#404040"/><stop offset="0.77" stop-color="#333"/></linearGradient><linearGradient id="linear-gradient-2" x1="-6049.32" y1="157.91" x2="-6049.07" y2="158.33" gradientTransform="matrix(-1, 0, 0, 1, -6006.25, -81.84)" gradientUnits="userSpaceOnUse"><stop offset="0.13" stop-color="#333"/><stop offset="0.13" stop-color="#4c4c4c"/><stop offset="0.47" stop-color="#4c4c4c"/><stop offset="0.48" stop-color="#333"/><stop offset="0.77" stop-color="#333"/><stop offset="0.77" stop-color="#262626"/></linearGradient><linearGradient id="linear-gradient-3" x1="-5896.02" y1="156.29" x2="-5894.89" y2="157.83" gradientTransform="matrix(-1, 0, 0, 1, -5868.77, -77.12)" gradientUnits="userSpaceOnUse"><stop offset="0.12" stop-color="#1c1c1c"/><stop offset="0.12" stop-color="#292929"/><stop offset="0.53" stop-color="#292929"/><stop offset="0.54" stop-color="#1c1c1c"/><stop offset="0.85" stop-color="#1c1c1c"/><stop offset="0.86" stop-color="#131719"/></linearGradient><linearGradient id="linear-gradient-4" x1="-5915.88" y1="152.75" x2="-5915.46" y2="154.18" gradientTransform="matrix(-1, 0, 0, 1, -5863.79, -81.84)" xlink:href="#linear-gradient-3"/><linearGradient id="linear-gradient-5" x1="-5908.51" y1="169.5" x2="-5909.25" y2="170.45" gradientTransform="matrix(-1, 0, 0, 1, -5858.33, -72.21)" xlink:href="#linear-gradient-3"/><linearGradient id="linear-gradient-6" x1="-5909.28" y1="156.61" x2="-5910.83" y2="156.77" gradientTransform="matrix(-1, 0, 0, 1, -5863.79, -81.84)" xlink:href="#linear-gradient-3"/><linearGradient id="linear-gradient-7" x1="-5910.8" y1="143.33" x2="-5912.1" y2="143.46" gradientTransform="matrix(-1, 0, 0, 1, -5863.79, -81.84)" gradientUnits="userSpaceOnUse"><stop offset="0.13" stop-color="#a6a6a6"/><stop offset="0.13" stop-color="#bfbfbf"/><stop offset="0.47" stop-color="#bfbfbf"/><stop offset="0.48" stop-color="#a6a6a6"/><stop offset="0.77" stop-color="#a6a6a6"/><stop offset="0.77" stop-color="#999"/></linearGradient><linearGradient id="linear-gradient-8" x1="-5894.09" y1="160.85" x2="-5893.41" y2="160.65" gradientTransform="matrix(-1, 0, 0, 1, -5863.79, -81.84)" gradientUnits="userSpaceOnUse"><stop offset="0.23" stop-color="#999"/><stop offset="0.23" stop-color="#a6a6a6"/><stop offset="0.52" stop-color="#a6a6a6"/><stop offset="0.53" stop-color="#bfbfbf"/><stop offset="0.87" stop-color="#bfbfbf"/><stop offset="0.87" stop-color="#a6a6a6"/></linearGradient><linearGradient id="linear-gradient-9" x1="-5895.81" y1="161.47" x2="-5895.13" y2="161.27" xlink:href="#linear-gradient-8"/><linearGradient id="linear-gradient-10" x1="-5897.4" y1="152.5" x2="-5895.67" y2="152.27" gradientTransform="matrix(-1, 0, 0, 1, -5863.79, -81.84)" gradientUnits="userSpaceOnUse"><stop offset="0.14" stop-color="#131719"/><stop offset="0.15" stop-color="#1c1c1c"/><stop offset="0.46" stop-color="#1c1c1c"/><stop offset="0.47" stop-color="#292929"/><stop offset="0.88" stop-color="#292929"/><stop offset="0.88" stop-color="#1c1c1c"/></linearGradient><linearGradient id="linear-gradient-11" x1="-6040.16" y1="148.69" x2="-6038.77" y2="148.41" gradientTransform="matrix(-1, 0, 0, 1, -6006.25, -81.84)" gradientUnits="userSpaceOnUse"><stop offset="0.14" stop-color="#131719"/><stop offset="0.15" stop-color="#1c1c1c"/><stop offset="0.46" stop-color="#1c1c1c"/><stop offset="0.47" stop-color="#1f1f1f"/><stop offset="0.88" stop-color="#1f1f1f"/><stop offset="0.88" stop-color="#1c1c1c"/></linearGradient><linearGradient id="linear-gradient-12" x1="-6040.58" y1="147.72" x2="-6038.79" y2="147.34" gradientTransform="matrix(-1, 0, 0, 1, -6006.25, -81.84)" xlink:href="#linear-gradient-10"/><linearGradient id="linear-gradient-13" x1="-5895.84" y1="147.51" x2="-5896.54" y2="148.76" gradientTransform="matrix(-1, 0, 0, 1, -5863.79, -81.84)" gradientUnits="userSpaceOnUse"><stop offset="0.16" stop-color="#1c1c1c"/><stop offset="0.17" stop-color="#595959"/><stop offset="0.53" stop-color="#595959"/><stop offset="0.54" stop-color="#1c1c1c"/><stop offset="0.85" stop-color="#1c1c1c"/><stop offset="0.86" stop-color="#131719"/></linearGradient><linearGradient id="linear-gradient-14" x1="258.17" y1="141.94" x2="257.36" y2="143.4" gradientTransform="translate(-234.02 -81.84)" gradientUnits="userSpaceOnUse"><stop offset="0.12" stop-color="#1c1c1c"/><stop offset="0.12" stop-color="#595959"/><stop offset="0.53" stop-color="#595959"/><stop offset="0.54" stop-color="#1c1c1c"/><stop offset="0.85" stop-color="#1c1c1c"/><stop offset="0.86" stop-color="#131719"/></linearGradient><linearGradient id="linear-gradient-15" x1="260.19" y1="142.84" x2="259.19" y2="144.67" xlink:href="#linear-gradient-14"/><linearGradient id="linear-gradient-16" x1="272.69" y1="149.96" x2="271.69" y2="151.78" xlink:href="#linear-gradient-14"/><linearGradient id="linear-gradient-17" x1="-6053.82" y1="169.36" x2="-6053.57" y2="169.79" xlink:href="#linear-gradient-2"/><linearGradient id="linear-gradient-18" x1="-6054.14" y1="169.49" x2="-6053.86" y2="169.99" xlink:href="#linear-gradient"/><linearGradient id="linear-gradient-19" x1="274.99" y1="151.46" x2="274.17" y2="152.93" xlink:href="#linear-gradient-14"/><linearGradient id="linear-gradient-20" x1="-5895.22" y1="147.51" x2="-5894.37" y2="149.12" gradientTransform="matrix(-1, 0, 0, 1, -5863.79, -81.84)" xlink:href="#linear-gradient-3"/></defs><g id="Layer_2" data-name="Layer 2"><g id="Layer_2-2" data-name="Layer 2"><g id="Layer_1-2" data-name="Layer 1-2"><path class="cls-1" d="M62.29,77.63a2.24,2.24,0,0,0-1,0,4.57,4.57,0,0,0-2.36,1.54,33.1,33.1,0,0,1-5.68,4,8.36,8.36,0,0,1-2.36,1,3,3,0,0,1-2.36-.52,2.71,2.71,0,0,0-1-.66,4.75,4.75,0,0,1-1.33-.45,5.69,5.69,0,0,0-1.4-.88C43.26,81,41.35,82.27,40,83c-1,.59-3,1.84-3,3.1a1.19,1.19,0,0,0,.59.88,6.44,6.44,0,0,1,.88.59c.59.59.23,1-.29,1.33a37.45,37.45,0,0,0-3.32,2.51,51,51,0,0,1-4.57,3,26.83,26.83,0,0,0-7.3,7.45c-.45.66-.74,1.69.14,2.14,1.63.88,4.43-1.63,5.61-2.44l10-7.45c.88-.66,3.39-3.24,4.49-2.8.67.3,1,1.18,1.85,1.48a4.58,4.58,0,0,0,2.43.14,7.38,7.38,0,0,0,3.32-2.06A5.42,5.42,0,0,0,52.19,89a2.7,2.7,0,0,1,.44-1,2.51,2.51,0,0,1,.74-.59A24.1,24.1,0,0,0,57,85.08c.89-.74,1.92-1.55,2.88-2.22a17.7,17.7,0,0,0,3.83-3.24.84.84,0,0,0,.23-.59c0-.08-.08-.22-.08-.3A2.13,2.13,0,0,0,62.29,77.63Z"/><path class="cls-2" d="M48.06,77c0,6,3.61,8.71,8.11,6.12s8.11-9.51,8.11-15.48-3.61-8.71-8.11-6.13S48.06,71,48.06,77Zm1.33.22c0-5.68,3-12,7.22-14.45a6.37,6.37,0,0,1,2.73-1.11c2.36,0,4.13,2.58,4.13,6.27,0,5.68-3.61,12-7.81,14.38a5.12,5.12,0,0,1-2.73.81,3.14,3.14,0,0,1-2.73-1.47c-.74-1-.81-2.51-.81-4.43Z"/><path class="cls-3" d="M48.94,77.55c0,6,3.62,8.71,8.12,6.12s8.11-9.51,8.11-15.48-3.61-8.71-8.11-6.13S48.94,71.58,48.94,77.55Zm1,0c0-5.68,3.4-12.24,7.6-14.68a5.11,5.11,0,0,1,2.73-.73c2.36,0,3.91,2.28,3.91,6,0,5.67-3.4,12.24-7.6,14.67a5.1,5.1,0,0,1-2.73.81,3.14,3.14,0,0,1-2.73-1.47A8.63,8.63,0,0,1,49.9,77.55Z"/><path class="cls-4" d="M50.2,77.63a7.53,7.53,0,0,0,1.18,4.57A3.2,3.2,0,0,0,54,83.67a5.79,5.79,0,0,0,2.73-.81c4.13-2.36,7.52-8.85,7.52-14.45,0-3.69-1.47-6-3.83-6a5.56,5.56,0,0,0-2.66.81C53.52,65.53,50.2,72,50.2,77.63Zm0,.14C49.75,72.61,54,65.16,57.79,63a7.91,7.91,0,0,1,2.88-.74c1.7,0,3.1,3,3.1,6.12,0,5.17-3.54,12-7.3,14.16a6.3,6.3,0,0,1-2.51,1,3.76,3.76,0,0,1-2.51-1.26A9,9,0,0,1,50.2,77.77Z"/><path class="cls-5" d="M50.05,77.26c0,1.91.15,3.39,1,4.42a2.93,2.93,0,0,0,2.43,1.63,5.92,5.92,0,0,0,2.73-.82c4.21-2.43,7.6-9,7.6-14.67,0-3.69-1.55-5.61-3.91-5.61a5.77,5.77,0,0,0-2.66,1.25C53,65.9,50.05,71.58,50.05,77.26Zm0,0c0-5.46,3.32-11.88,7.38-14.24a5.86,5.86,0,0,1,2.5-.81c2.07,0,3.4,2.21,3.4,5.61,0,5.53-3.32,11.87-7.38,14.23a5,5,0,0,1-2.51.74,2.61,2.61,0,0,1-2.28-1.25A7.3,7.3,0,0,1,50.05,77.26Z"/><path class="cls-3" d="M51.67,82.27h0l4.43-8.92.15-.3.07-.14h0v-.08h0v-.07h0v-.08l.07-.22,4.94-10.1h-.07L56.32,72.54h0v.07h0v.07h0v.15l-.07.15Z"/><path class="cls-6" d="M49.9,77.55a8.05,8.05,0,0,0,1.18,4.65,3.14,3.14,0,0,0,2.73,1.47,5.79,5.79,0,0,0,2.73-.81c4.2-2.43,7.67-9,7.67-14.67,0-3.69-1.55-6.13-3.91-6.13a5.12,5.12,0,0,0-2.58.67C53.15,65,49.9,71.87,49.9,77.55Zm.52,0c0-5.53,3.32-11.87,7.37-14.23a4.89,4.89,0,0,1,2.44-.74c2.06,0,3.39,2.21,3.39,5.61,0,5.53-3.32,11.87-7.37,14.23a5,5,0,0,1-2.44.74,2.54,2.54,0,0,1-2.29-1.26A7.47,7.47,0,0,1,50.42,77.55Z"/><path class="cls-3" d="M56,73.05l-5.53,6.79v.07L56.17,73l.08-.07.07-.08h0v-.07h0v-.08l.07-.07,6.42-7.89-.07-.07-6.2,7.74-.22.22h0Z"/><path class="cls-3" d="M50,77.77l6-4.72.15-.14.08-.08h0l.07-.07.15-.15,6.86-5.31.07-.15-6.86,5.31-.07.08-.08.07h-.07l-.15.07L50.05,77.4Z"/><polygon class="cls-3" points="50.12 75.64 56.1 72.91 56.17 72.83 56.17 72.83 56.24 72.83 56.24 72.83 56.24 72.83 56.32 72.83 56.32 72.83 56.32 72.83 56.32 72.83 56.32 72.83 56.32 72.83 56.32 72.76 56.32 72.76 56.32 72.76 56.39 72.76 56.39 72.76 56.39 72.76 56.39 72.76 56.39 72.76 56.39 72.76 56.39 72.76 56.39 72.76 56.39 72.76 56.61 72.68 63.47 69.51 63.47 69.44 56.61 72.54 56.47 72.68 56.47 72.68 56.39 72.68 56.32 72.68 56.32 72.68 56.32 72.68 56.32 72.68 56.32 72.68 56.32 72.68 56.32 72.68 56.32 72.68 56.32 72.68 56.32 72.76 56.32 72.76 56.32 72.76 56.24 72.76 56.24 72.76 56.24 72.76 56.24 72.76 56.24 72.76 56.24 72.76 56.24 72.76 56.17 72.76 56.1 72.83 56.02 72.83 50.12 75.56 50.12 75.64"/><path class="cls-3" d="M50.49,74,56,72.83h.52l6.56-1.4v-.07l-6.49,1.32h-.44l-.29.08-5.39,1.1Z"/><path class="cls-3" d="M50.71,72.68l5.17.15h.88l6,.15v-.07l-6.2-.15H56.1l-5.39-.15Z"/><path class="cls-3" d="M51.3,71.5l4.8,1.18h.51l5.68,1.48v-.07l-5.45-1.33-.3-.08h-.29L56,72.61l-4.64-1.18Z"/><path class="cls-3" d="M51.75,70.4,56,72.61l.22.15h.3l.14.07,5.09,2.66v-.08l-5.16-2.73h-.07l-.08-.07h-.14l-.15-.07-4.28-2.29A.23.23,0,0,0,51.75,70.4Z"/><path class="cls-3" d="M52.19,69.29,56,72.61l.08.07.07.08h.08l.07.07.15.08,4.42,3.83.08-.07-4.43-3.84-.15-.15h0l-.07-.07h0l-.15-.15-4-3.17Z"/><path class="cls-3" d="M56.25,64.13v18h.07V64.06Z"/><path class="cls-3" d="M53.66,83.23h0l2.51-10.1.08-.22h0v-.08h0v-.22l2.43-9.88-.07.07-2.29,9.37-.07.22v.29h0v.08h0V73l-.08.37Z"/><path class="cls-3" d="M54.92,65.38l1.25,7v.29h0v.08l.08.37,1.4,7.74h.07l-1.33-7.82v-.22h0v-.29l-1.25-7.08A.26.26,0,0,0,54.92,65.38Z"/><path class="cls-7" d="M58.53,71.87h0c0-.14-.07-.14-.15-.14s-.14-.15-.14-.23v-.29a.07.07,0,0,1,.07-.07h.07a.08.08,0,0,0,.08-.08c.07-.07.07-.07.07-.15v-.29c0-.07,0-.15-.07-.15h-.15c-.15.08-.29,0-.29-.22a.28.28,0,0,1,.07-.22c.15-.3-.07-.52-.22-.44s-.08.07-.15.14c-.15.23-.44.23-.44-.07h0c0-.37-.37-.29-.52.15a.91.91,0,0,1-.22.29.13.13,0,0,1-.22,0h0c-.15-.22-.52.08-.52.52h0a.5.5,0,0,1-.29.52h-.15c-.22-.08-.44.29-.44.59v.14a.61.61,0,0,1-.22.67h0a.72.72,0,0,0-.3.51c0,.15.08.22.15.22s.15.15.15.23a.57.57,0,0,1-.15.36c-.22.37-.15.82.15.59h0c.14-.07.29,0,.29.23v.22c-.15.29,0,.51.22.44s.15,0,.15-.07c.15-.23.37-.3.37,0h0c0,.22.15.36.29.22s.23-.15.23-.3a1.39,1.39,0,0,1,.22-.37.14.14,0,0,1,.22,0h0c0,.08.07.08.15.08h.22l.07-.08h0v-.37h0c0-.22.15-.29.3-.44s.07-.15.14-.15h.22l.08-.07.07-.07v-.3h0c0-.07,0-.15-.07-.15v-.14c.07-.08.07-.08.07-.15v-.22l.08-.08.14-.07h.15a.07.07,0,0,0,.07-.07l.15-.15v-.3h0C58.38,72.17,58.53,71.87,58.53,71.87Zm-.22-1.25a.09.09,0,0,1,.15.07.61.61,0,0,1-.15.3c-.07.07-.15,0-.15-.08A.39.39,0,0,1,58.31,70.62Zm-.29,0c0,.07-.08.15-.08.22s-.07,0-.07-.07.07-.15.07-.22.08,0,.08.07Zm-2.81,3.76a.28.28,0,0,1-.07.22c-.07,0-.07,0-.07-.07s.07-.15.07-.22S55.21,74.31,55.21,74.38Zm0-.74h0V73.2a1.1,1.1,0,0,1,.15-.44s0-.08.07-.08h.15c.08.08.15.15.22.15a.22.22,0,0,0,.3,0c.07-.07.15-.07.22-.15s.22-.14.22-.07-.07.15-.07.22l-.15.22c-.07.15-.22.3-.3.45s-.14.14-.22.14a.4.4,0,0,1-.29.08.44.44,0,0,1-.3-.08ZM57.65,71v.44c0,.07-.08.07-.15.15l-.3.15a.88.88,0,0,0-.29.22.58.58,0,0,0-.15.29c0,.08-.15.3-.15.22V72a1.46,1.46,0,0,1,.15-.52.58.58,0,0,1,.15-.29.57.57,0,0,1,.29-.3c.08,0,.08-.07.15-.07h0s.08,0,.08.07.22.07.22.15Zm-1.26.51a1,1,0,0,0-.07.45c0,.07.07.14.07.22s.08.22,0,.22H56.1a.53.53,0,0,1-.3-.15l-.14-.15a.43.43,0,0,1,0-.44c0-.07.07-.15.07-.22v-.07A.83.83,0,0,1,56.1,71c.07-.08.15-.08.29-.08h.08v.15a1,1,0,0,1-.08.44Zm.22,1.55a.9.9,0,0,1,.08.45v.29a.64.64,0,0,1-.22.44c-.08.08-.08.15-.15.15v.07c-.07,0-.07.08-.15.08H56c-.07,0-.15-.08-.22-.15v-.07a.25.25,0,0,1,.07-.15,1.39,1.39,0,0,1,.3-.37l.22-.44c0-.08.07-.22.07-.3s0-.29.08-.29.07.07.07.15.07.07.07.14Zm.59.45h0a.16.16,0,0,1-.14-.15A.74.74,0,0,0,57,73a.62.62,0,0,0-.14-.3h-.23s-.22,0-.14-.07.07-.15.14-.15.15-.07.15-.14.22-.15.37-.15h.22l.22.22v.29c0,.08,0,.15-.07.15,0,.15-.07.22-.15.37.08.07,0,.22-.15.3Zm.59-3.69c.08-.08.15,0,.15.07a.53.53,0,0,1-.15.3c-.07.07-.14,0-.14-.08a.39.39,0,0,1,.14-.29Zm-.51.22c.07,0,.07,0,.07.07s-.07.15-.07.22-.08,0-.08-.07a.26.26,0,0,1,.08-.22Zm-.44-.15h0c0-.07,0-.07.07-.15v-.07H57c.08,0,.08.07.08.15a.58.58,0,0,1-.15.29h-.15V70c.08,0,.08-.15.08-.15Zm-.3.37c.07,0,.07,0,.07.07s-.07.15-.07.23-.07,0-.07-.08,0-.22.07-.22Zm-.52,0c.08-.07.15,0,.15.07a.51.51,0,0,1-.15.3c-.07.07-.14,0-.14-.15s0-.22.14-.22Zm-.29.81h0c0,.15,0,.22-.07.22h-.08v-.07a.17.17,0,0,1,.15-.15Zm-.59.44c0-.07,0-.07.07-.14h0c.08,0,.08.07.08.14a.57.57,0,0,1-.15.3h-.07v-.07a.15.15,0,0,1,.07-.23Zm0,.74h0c.07.15,0,.22-.07.22h0v-.07h0c0-.07,0-.15.07-.15Zm-.44.89c-.08.07-.15,0-.15-.15a.57.57,0,0,1,.15-.3c.07-.07.14,0,.14.08a.59.59,0,0,1-.14.37Zm0,1.25c-.08.07-.15,0-.15-.07a.53.53,0,0,1,.15-.3c.07-.07.14,0,.14.08a.39.39,0,0,1-.14.29Zm.22-.74c-.08.08-.08,0-.08-.07a.26.26,0,0,1,.08-.22c.07,0,.07,0,.07.07a.27.27,0,0,1-.07.22Zm.22,1.63c-.07.07-.15,0-.15-.15a.61.61,0,0,1,.15-.3c.07-.07.15,0,.15.08a.46.46,0,0,1-.15.37Zm.59-.3c-.07,0-.07,0-.07-.07s.07-.15.07-.22.07,0,.07.07-.07.15-.07.22Zm.29.52c-.07.07-.14,0-.14-.15A.62.62,0,0,1,56,75c.08-.07.15,0,.15.15s-.07.15-.15.3Zm.45-.67c-.08,0-.08,0-.08-.07s.08-.15.08-.22.07,0,.07.07,0,.08-.07.22Zm.51.08c-.07.07-.14,0-.14-.15a.62.62,0,0,1,.14-.3c.08-.07.15,0,.15.08a.43.43,0,0,1-.15.37Zm.37-.89c-.07,0-.07,0-.07-.07a.27.27,0,0,1,.07-.22c.08,0,.08,0,.08.07s-.08.15-.08.22Zm.52-.29c-.08.07-.15,0-.15-.08a.51.51,0,0,1,.15-.29c.07-.08.15,0,.15.07a1.64,1.64,0,0,1-.15.3Zm0-.74c-.08,0-.08,0-.08-.07s.08-.15.08-.23.07,0,.07.08a.28.28,0,0,1-.07.22Zm.22-1.18c-.07,0-.07,0-.07-.07s.07-.15.07-.23.07,0,.07.08a.28.28,0,0,1-.07.22Zm.22.52c-.07.07-.15,0-.15-.08a.58.58,0,0,1,.15-.29c.07-.08.15,0,.15.07a.42.42,0,0,1-.15.3Z"/><path class="cls-8" d="M58.53,71.73c-.07,0-.15-.15-.15-.23a1.15,1.15,0,0,1,.15-.44c.22-.29.15-.74-.15-.59h0c-.14.08-.29,0-.29-.22a.28.28,0,0,1,.07-.22c.15-.3-.07-.52-.22-.44s-.07.07-.15.14c-.14.23-.44.23-.44-.07h0c0-.37-.37-.29-.51.15a.91.91,0,0,1-.23.29c-.07.08-.14.08-.22,0h0c-.14-.22-.51.08-.51.52h0a.57.57,0,0,1-.3.52h-.15c-.22-.08-.44.29-.44.59,0,.07,0,.14.08.14a.6.6,0,0,1-.23.67h0a.74.74,0,0,0-.29.51c0,.15.07.22.15.22s.14.15.14.23a.56.56,0,0,1-.14.36c-.22.37-.15.82.14.59h0c.15-.07.3,0,.3.23a.29.29,0,0,1-.07.22c-.15.29.07.51.22.44s.07-.07.14-.15.45-.22.45.08h0c0,.22.14.29.29.22a.39.39,0,0,0,.22-.3,1.08,1.08,0,0,1,.22-.29.14.14,0,0,1,.23,0h0c.14.22.51-.08.51-.52h0a.51.51,0,0,1,.3-.52h.14c.23.08.45-.29.45-.59,0-.07,0-.14-.08-.14a.61.61,0,0,1,.22-.67h0a.72.72,0,0,0,.3-.51C58.68,71.87,58.61,71.73,58.53,71.73Zm-.15-1c.08-.07.15,0,.15.15a.57.57,0,0,1-.15.3c-.07.07-.14,0-.14-.08A.46.46,0,0,1,58.38,70.69Zm-.29,0a.27.27,0,0,1-.07.22c-.08,0-.08,0-.08-.07s.08-.15.08-.22.07-.07.07.07Zm-2.8,3.76c0,.08-.08.15-.08.23s-.07,0-.07-.08a.28.28,0,0,1,.07-.22C55.29,74.31,55.29,74.38,55.29,74.45Zm0-.73h0c0-.08,0-.08-.08-.15v-.3a1.15,1.15,0,0,1,.15-.44.07.07,0,0,1,.07-.07c.08-.08.08,0,.15,0s.15.15.22.15a.24.24,0,0,0,.3,0c.07-.08.15-.08.22-.15s.22-.15.22-.08-.07.15-.07.23-.08.14-.15.22-.22.29-.3.44-.14.15-.22.15a.45.45,0,0,1-.29.07c-.15,0-.15-.07-.22-.07Zm2.5-2.66v.44c0,.08-.07.08-.14.15s-.22.08-.3.15a.91.91,0,0,0-.29.22.51.51,0,0,0-.15.3c0,.07-.15.29-.15.22V72a1.46,1.46,0,0,1,.15-.52.51.51,0,0,1,.15-.29c.07-.15.22-.22.29-.3s.08-.07.15-.07h.07s.08,0,.08.07.07,0,.14.15Zm-1.32.52V72c0,.07.07.15.07.22s.07.22,0,.22h-.29a.55.55,0,0,1-.3-.14l-.15-.15a.49.49,0,0,1,0-.44c0-.08.08-.15.08-.23v-.07a.88.88,0,0,1,.37-.37c.07-.07.14-.07.29-.07h.07v.15a3.11,3.11,0,0,1-.14.44Zm.22,1.47a1,1,0,0,1,.07.45v.29a.6.6,0,0,1-.22.44c-.07.08-.07.15-.15.15h-.07c-.07,0-.07.07-.15.07H56c-.07,0-.15-.07-.22-.14v-.08a.24.24,0,0,1,.07-.14l.3-.37.22-.45a.45.45,0,0,1,.07-.29c0-.07,0-.3.08-.3s.07.08.07.15.15.15.15.22Zm.66.52h0c-.15,0-.15,0-.15-.07a.81.81,0,0,0-.07-.37.53.53,0,0,0-.15-.3h-.22s-.22,0-.15-.07.08-.15.15-.15l.22-.15c.15-.07.22-.14.37-.14h.22c.08.07.15.14.15.22v.29c0,.08,0,.15-.07.15s-.08.22-.15.37-.07.15-.15.22Zm.52-3.69c.07-.07.15,0,.15.15a.58.58,0,0,1-.15.29c-.08.08-.15,0-.15-.07,0-.22.07-.37.15-.37Zm-.44.22c.07,0,.07,0,.07.08s-.07.14-.07.22-.08,0-.08-.08,0-.14.08-.22Zm-.37-.37c.07-.07.14,0,.14.08a.56.56,0,0,1-.14.29c-.08.08-.15,0-.15-.07a.38.38,0,0,1,.15-.3Zm-.45.59c.08,0,.08,0,.08.08a.26.26,0,0,1-.08.22c-.07,0-.07,0-.07-.07s0-.23.07-.23Zm-.51,0c.07-.07.15,0,.15.08a.58.58,0,0,1-.15.29c-.08.08-.15,0-.15-.14s.07-.23.15-.23Zm-.37.82c.07,0,.07,0,.07.07s-.07.15-.07.22-.07,0-.07-.07,0-.22.07-.22Zm-.44.29c.07-.07.14,0,.14.15a.56.56,0,0,1-.14.29c-.08.08-.15,0-.15-.14s.07-.3.15-.3Zm-.15.81c.07,0,.07,0,.07.08s-.07.14-.07.22-.07,0-.07-.08,0-.22.07-.22Zm-.37.89c-.07.07-.15,0-.15-.08a.58.58,0,0,1,.15-.29c.07-.08.15,0,.15.07S54.92,73.05,54.77,73.13Zm0,1.25a.09.09,0,0,1-.15-.07.61.61,0,0,1,.15-.3c.07-.07.15,0,.15.15s0,.22-.15.22Zm.22-.74c-.07,0-.07,0-.07-.07s.07-.15.07-.22.08,0,.08.07,0,.15-.08.22Zm.22,1.7c-.07.07-.14,0-.14-.15a.56.56,0,0,1,.14-.29c.08-.08.15,0,.15.07C55.36,75.19,55.36,75.27,55.21,75.34Zm.59-.3c-.07,0-.07,0-.07-.07s.07-.15.07-.22.08,0,.08.07a.25.25,0,0,1-.08.22Zm.3.45c-.08.07-.15,0-.15-.15a.57.57,0,0,1,.15-.3c.07-.07.15,0,.15.15a.42.42,0,0,1-.15.3Zm.51-.67c-.07,0-.07,0-.07-.07s.07-.15.07-.22.08,0,.08.07-.08.15-.08.22Zm.45.08c-.08.07-.15,0-.15-.08a.51.51,0,0,1,.15-.29c.07-.08.14,0,.14.07a.41.41,0,0,1-.14.3Zm.37-.81c-.08,0-.08,0-.08-.08s.08-.15.08-.22.07,0,.07.07a.3.3,0,0,1-.07.23Zm.51-.3a.09.09,0,0,1-.15-.07.61.61,0,0,1,.15-.3c.08-.07.15,0,.15.15a.82.82,0,0,1-.15.22Zm0-.81c-.07,0-.07,0-.07-.07s.07-.15.07-.23.08,0,.08.08,0,.15-.08.22Zm.22-1.18c-.07,0-.07,0-.07-.07s.07-.15.07-.23.08,0,.08.08,0,.15-.08.22Zm.22.52c-.07.07-.14,0-.14-.08a.56.56,0,0,1,.14-.29c.08-.08.15,0,.15.14s0,.15-.15.23Z"/><polygon class="cls-9" points="22.69 84.48 61.26 101.23 61.7 31.38 23.13 14.64 22.69 84.48"/><path class="cls-10" d="M24.53,16.41v1.11a.48.48,0,0,1,.52-.15.94.94,0,0,1,.51.88v1.11l-.14-.15v-1a.65.65,0,0,0-.3-.59.42.42,0,0,0-.52.22v1.11l-.22-.08v-2.5Z"/><path class="cls-10" d="M26.3,18v1a.65.65,0,0,0,.3.59c.22.07.36,0,.51-.22V18.25l.22.08V20L27.11,20v-.3a.47.47,0,0,1-.51.15.83.83,0,0,1-.52-.88V17.81Z"/><path class="cls-10" d="M28.07,19a.33.33,0,0,1,.44-.15.84.84,0,0,1,.45.52c.07-.22.22-.22.44-.15a.94.94,0,0,1,.37.37,1.17,1.17,0,0,1,.07.52v1.1l-.22-.07V20a.67.67,0,0,0-.3-.59c-.14-.07-.29,0-.36.22v1.11l-.23-.07V19.58a.63.63,0,0,0-.29-.52c-.15-.07-.3.08-.37.3v1.11l-.22-.08V18.7l.22.07Z"/><path class="cls-10" d="M31.24,20.61c0-.14-.07-.22-.07-.37a1.37,1.37,0,0,0-.3-.22.64.64,0,0,0-.51,0l-.08-.22a.85.85,0,0,1,.59,0,1,1,0,0,1,.59.89v.59a3.65,3.65,0,0,0,.08.51l-.22-.07a2.76,2.76,0,0,1-.08-.37h0c-.07.07-.15.15-.22.15a.76.76,0,0,1-.37-.08.88.88,0,0,1-.51-.73.4.4,0,0,1,.22-.37c.14-.08.37,0,.66.15l.22.14Zm-.22.22c-.44-.22-.66-.14-.66.08a.48.48,0,0,0,.29.44c.3.15.52,0,.52-.29v-.23Z"/><path class="cls-10" d="M32.13,20.76a.48.48,0,0,1,.51-.15,1,1,0,0,1,.52.89v1.1l-.22-.07v-1a.65.65,0,0,0-.3-.59c-.22-.08-.37,0-.51.22v1.11l-.22-.08V20.47l.22.07Z"/><path class="cls-11" d="M46.66,88.32a.35.35,0,0,0-.37,0,.26.26,0,0,0-.08.22.08.08,0,0,0,.08.08.34.34,0,0,0,.37,0c.07-.08.14-.15,0-.3Z"/><polygon class="cls-11" points="46.66 88.32 46.95 88.1 46.36 88.03 46.66 88.32"/><path class="cls-3" d="M25.49,63.61a1.28,1.28,0,0,1,1-.74l.15.23a2,2,0,0,0-.45.36.86.86,0,0,0-.07.37v.59a.3.3,0,0,1-.07.23h-.45a.3.3,0,0,1-.07-.23A1.58,1.58,0,0,1,25.49,63.61Z"/><path class="cls-12" d="M25.27,65.83c.07,0,.07,0,.15-.08a.14.14,0,0,0,0-.22,1,1,0,0,0-.52-.37c-.15-.15-.81-.59-.3-.66a5.87,5.87,0,0,1,1.18.15c.08,0,.15,0,.15-.08v-.15c-.07,0-.07-.07-.15-.07-.29-.07-.59-.07-.88-.15-1-.14-1.55-1.18-2.43-1.47-.37-.15-2.29-.74-2.29.14a.31.31,0,0,0,.22.3h.22a4.53,4.53,0,0,1,1.7.22,5.91,5.91,0,0,1,1.4,1,2.33,2.33,0,0,1,.37.44,2.14,2.14,0,0,0,1,1C25.12,65.83,25.19,65.83,25.27,65.83Z"/><path class="cls-13" d="M24.6,64.5a.24.24,0,0,0-.14.07c-.08-.07,0-.15.14-.22a5.87,5.87,0,0,1,1.18.15h.15v.15c0,.07-.07.07-.15.07A3.58,3.58,0,0,0,24.6,64.5Z"/><path class="cls-13" d="M20.4,63h.22a3.46,3.46,0,0,1,1.7.22,4.52,4.52,0,0,1,1.4,1,1.84,1.84,0,0,1,.37.44,2.75,2.75,0,0,0,1,1h.15c.07,0,.07,0,.15-.07V65.6a.15.15,0,0,1,0,.23.29.29,0,0,1-.15.07h-.15a2.33,2.33,0,0,1-1-1c-.15-.15-.22-.3-.37-.45a3.28,3.28,0,0,0-1.4-1,3.36,3.36,0,0,0-1.7-.22h-.29a.78.78,0,0,1-.22-.29v-.08A.39.39,0,0,1,20.4,63Z"/><path class="cls-14" d="M25.78,64.65a5.12,5.12,0,0,0-1-.15c-.88-.22-1.4-1.11-2.21-1.48-.37-.15-2-.66-2.21-.07v-.08c0-.81,1.84-.29,2.28-.14.89.37,1.4,1.33,2.44,1.55.29.07.59.07.88.14.08,0,.08,0,.15.08v.15Z"/><path class="cls-14" d="M24.9,65.38c-.15-.14-.66-.51-.44-.59a1.64,1.64,0,0,0,.44.37c.15.15.37.22.44.37v.22C25.27,65.6,25.05,65.53,24.9,65.38Z"/><path class="cls-2" d="M24.24,65.09h0a.45.45,0,0,0,.07.29l.22.22c.07.08.15.08.22.15l.15.08h.15c.14,0,.29.07.37.07h.29v-.15l.07-.07c0-.08.08-.15.15-.22l.22-.37.15-.22v-.15a.07.07,0,0,0-.07-.07l-.08-.08L26,64.42l-.15-.14c-.15-.08-.22-.22-.37-.22s-.07-.08-.15-.08h-.15a.78.78,0,0,0-.66.37A.76.76,0,0,0,24.24,65.09Z"/><path class="cls-3" d="M26.3,65a1.05,1.05,0,0,1-.44.82c-.22.14-.44,0-.44-.3a1,1,0,0,1,.44-.81C26.08,64.57,26.3,64.72,26.3,65Z"/><path class="cls-12" d="M26.3,65l-.22-.14h-.22a.77.77,0,0,0-.37.66c0,.15,0,.22.15.3l.22.14V65.9h.07a.78.78,0,0,0,.37-.66V65Z"/><path class="cls-13" d="M26.45,65.24a.78.78,0,0,1-.37.66c-.22.15-.37,0-.37-.22a.79.79,0,0,1,.37-.67C26.3,64.87,26.45,65,26.45,65.24Z"/><path class="cls-3" d="M39.65,74.9v.44c0,.07.07.15.15.22l2,1.18.22-.15h0V76.3l.52-.3.22-.14.29.07h.08l.14-.07h0v-.45l-.22.15-.29-.07-.08-.08v-.14l-.29-.15-1-.59-.15.22c-.07-.07,0-.07-.07-.07l.07-.23a.83.83,0,0,0-.81,0l-.52.3-.22.07.15.3Zm1.48.14-.23.08v.07l-.36-.07-.23.15.15.22-.44-.3.15-.07h0l.51-.3h.22c.08,0,.15,0,.15.08h0c.22-.08.22.07.08.14Zm1.4.59-.3.15c-.15,0-.29-.15-.44-.29v.14c.07-.07-.07-.14-.07-.14s-.3-.15-.3-.22h-.07c-.08-.15,0-.15.07-.23h0l.52.3h0l.59.29Zm-.81.59-1-.66h.29c.15,0,.22.07.37.15s.15.07.22.15h0a.31.31,0,0,1,.08.36Z"/><path class="cls-15" d="M39.65,74.9h0c0,.07.07.22.15.22h0l.07.07.44.3h0l.23.14,1.1.67.15.07.22-.15-.15-.14.37-.22h0l.3-.15.14-.15.08-.07.29.07.22-.15-.59-.29L42.38,75l-1.11-.66h0a.25.25,0,0,0-.22-.08.62.62,0,0,0-.51.08l-.59.37-.15.14h-.08C39.72,74.75,39.72,74.82,39.65,74.9Zm1.48-.3h0l-.15.08h0l-.37.22-.15.07h0c-.07,0-.15.07-.22,0s-.07,0-.15-.07h0c-.14-.08-.14-.15-.07-.22h0l.22-.15.52-.3H41c.07,0,.15,0,.15.08h0a.15.15,0,0,1,0,.29Zm1.62.67a.29.29,0,0,1-.22.07h-.45a.7.7,0,0,1-.36-.15h0c-.08-.07-.15-.07-.23-.15s-.07-.07-.07-.14v-.15c0-.07.07-.07.07-.15h0l.59.37.52.3Zm-1,.36v.15c0,.08-.08.08-.08.15h0l-.51-.3-.45-.29-.22-.15a.29.29,0,0,1,.22-.07h.37c.15,0,.22.07.37.15h0c.07.07.15.07.22.14s.08.08.08.22Z"/><path class="cls-16" d="M42.9,75.93l-.37-.22h-.15a.4.4,0,0,0-.22.37c0,.07,0,.14.07.14l.37.23h.07a.43.43,0,0,0,.23-.37v-.15Z"/><path class="cls-17" d="M43,76.08a.42.42,0,0,1-.22.37c-.08.07-.22,0-.22-.15a.4.4,0,0,1,.22-.37C42.9,75.86,43,75.93,43,76.08Z"/><path class="cls-18" d="M43.19,76.15,42.9,76h-.08a.61.61,0,0,0-.15.3c0,.07,0,.07.08.15l.29.14h0a.51.51,0,0,0,.15-.29v-.15Z"/><path class="cls-19" d="M43.26,76.22a.39.39,0,0,1-.14.3c-.08.07-.15,0-.15-.15a.35.35,0,0,1,.15-.29A.15.15,0,0,1,43.26,76.22Z"/><path class="cls-20" d="M41.49,72a3.1,3.1,0,0,1-.36,1.1c-.23.22-.74,1.18-.89,1.26a1.47,1.47,0,0,0-1,1c-.15.88.07,1.62.88,1.69a3.19,3.19,0,0,0,2.07-1,9.78,9.78,0,0,1,1-1.47c.44-.44,2.21-1.11,2.14-1.62a3.76,3.76,0,0,0-.45-1.55,2,2,0,0,0-.88-.67Z"/><path class="cls-3" d="M45.18,72.46c.08.59-1.69,1.26-2.14,1.7a10.62,10.62,0,0,0-1,1.47c-.22.23-1.32,1.11-2.06,1a1,1,0,0,1-.89-1,1.9,1.9,0,0,1,.74-1.4l.37-.37c.37-.37.52-.88.89-1.25a3.14,3.14,0,0,0,.36-1.11l.45-.22,1.91-1a2.06,2.06,0,0,1,.89.66A4.18,4.18,0,0,1,45.18,72.46Z"/><path class="cls-4" d="M42.67,72.09a2,2,0,0,1-.22.89,4.78,4.78,0,0,1-1.84,2.14l-.44.22a.78.78,0,0,1-.45-.15c-.07-.07-.07-.22-.07-.37a1.32,1.32,0,0,1,.15-.59l.37-.37c.37-.36.51-.88.88-1.25a3.2,3.2,0,0,0,.37-1.11l.44-.22c.15,0,.3,0,.37.08A.79.79,0,0,1,42.67,72.09Z"/><path class="cls-21" d="M43,71.14c-.14.66-.51,1.4-1.25,1a3.25,3.25,0,0,1-.81-.59l-.52-.52c-.88-.81-1.69-1.69-2.51-2.58A22.52,22.52,0,0,1,36,66.05c-.15-.22-.3-.52-.45-.74a6.56,6.56,0,0,1-.66-1.62,8.74,8.74,0,0,1-.15-1.33c0-1.4,1.92-.59,2.66-.44l.37.07a3.09,3.09,0,0,1,1.91.88,6.47,6.47,0,0,1,1.33,2.29c.44,1.11,1,2.21,1.4,3.32C42.6,69.29,43.19,70.25,43,71.14Z"/><path class="cls-22" d="M43,71.14c-.14.66-.51,1.4-1.25,1a3.25,3.25,0,0,1-.81-.59h.22c.07,0,.15.07.22.15a.66.66,0,0,0,.81-.52,1.55,1.55,0,0,0-.15-1c-.59-1.85-.81-3.76-1.84-5.39a1.3,1.3,0,0,0-.59-.51,1.31,1.31,0,0,0-.88.37,4.6,4.6,0,0,1-1.63.88,2.44,2.44,0,0,1-1.62-.07,5.94,5.94,0,0,1-.66-1.63,7.09,7.09,0,0,1,2.5-1.62c.08-.07.23-.07.3-.15a3.13,3.13,0,0,1,1.92.89,6.28,6.28,0,0,1,1.32,2.29c.45,1.1,1,2.21,1.41,3.31A5.29,5.29,0,0,1,43,71.14Z"/><path class="cls-4" d="M45.11,81.76a.41.41,0,0,1-.3.14c-.07,0-.14-.07-.22-.07a1.39,1.39,0,0,1-.29-.44,1.28,1.28,0,0,1-.15-.52c-.3-.88-.52-1.77-.74-2.65a6.11,6.11,0,0,0-.59-1.63.52.52,0,0,1,0-.73.32.32,0,0,1,.37,0,.77.77,0,0,1,.15.59,1.62,1.62,0,0,0,.29.81A31.57,31.57,0,0,1,45.18,81a1.48,1.48,0,0,1,.08.59C45.26,81.68,45.18,81.76,45.11,81.76Z"/><path class="cls-3" d="M45.26,81.83A.42.42,0,0,1,45,82c-.07,0-.15-.08-.22-.08a1.5,1.5,0,0,1-.3-.44A1.45,1.45,0,0,1,44.3,81c-.3-.89-.52-1.78-.81-2.66a6.26,6.26,0,0,0-.59-1.62.55.55,0,0,1-.15-.37.35.35,0,0,1,.37-.37.29.29,0,0,1,.22.07.79.79,0,0,1,.15.59,1.5,1.5,0,0,0,.29.81,32.31,32.31,0,0,1,1.55,3.69,1.71,1.71,0,0,1,.07.59C45.33,81.76,45.33,81.83,45.26,81.83Z"/><path class="cls-3" d="M52.85,68.11l3.25,4.43.07.14h0l.15.15,3.69,5,.07-.08-3.69-5-.07-.15-.07-.07v-.08h0l-.08-.07L52.93,68Z"/><path class="cls-3" d="M53.66,66.78l2.44,5.76.07.14h0v.08h0v.07h0V73l.08.07,2.8,6.49h.07L56.47,73.2l-.08-.15v-.14h0l-.07-.08h0l-.15-.44-2.51-5.61C53.74,66.71,53.74,66.78,53.66,66.78Z"/><path class="cls-14" d="M57.65,72.68l-.89-.51h-.29a.88.88,0,0,0-.37.66.38.38,0,0,0,.15.3l.81.51v-.07h.07a.88.88,0,0,0,.37-.66.82.82,0,0,0,.15-.23Z"/><path class="cls-17" d="M57.72,73a.77.77,0,0,1-.37.66c-.22.15-.37,0-.37-.29a.79.79,0,0,1,.37-.67C57.57,72.61,57.72,72.68,57.72,73Z"/><polygon class="cls-23" points="31.98 73.72 33.16 72.17 45.85 81.39 44.67 82.94 31.98 73.72"/><polygon class="cls-24" points="56.98 73.79 57.28 72.39 46.8 69.36 46.51 70.84 56.98 73.79"/><polygon class="cls-25" points="45.26 81.61 57.13 72.68 57.87 73.64 45.99 82.64 45.26 81.61"/><path class="cls-26" d="M44.67,81.76a.73.73,0,0,0,.66.81h.07a.79.79,0,0,0,.74-.67l1.55-14.23v-.15h0c0-.15-.15-.22-.22-.29a1.23,1.23,0,0,0-1,0c-.08.07-.15.14-.15.22v.07Z"/><path class="cls-27" d="M46.21,67.52a.32.32,0,0,0,.3.3,1.31,1.31,0,0,0,1,0c.08-.08.15-.08.15-.15v-.15h0c0-.15-.15-.22-.22-.29a1.23,1.23,0,0,0-1,0c-.08.07-.15.14-.15.22Z"/><path class="cls-28" d="M46.29,67.52h0a.23.23,0,0,0,.22.22.92.92,0,0,0,.88,0c.08,0,.08-.07.15-.14v-.08h0L48.8,55.79v-.14h0a.42.42,0,0,0-.15-.3.94.94,0,0,0-.89,0,.16.16,0,0,0-.14.15v.07L46.29,67.52Z"/><path class="cls-27" d="M47.62,55.72c0,.15.07.22.22.3a1,1,0,0,0,.88,0c.08,0,.08-.08.15-.15v-.15h0a.35.35,0,0,0-.15-.29.92.92,0,0,0-.88,0,.15.15,0,0,0-.15.14Z"/><path class="cls-29" d="M27.85,83.08c0,.15.07.23.29.3a.9.9,0,0,0,1-.07c.08,0,.08-.08.15-.15v-.22s0-.08-.07-.08l-.08-.07a.24.24,0,0,0-.14-.07,1.06,1.06,0,0,0-1,.07l-.07.07v.08h0V83h0Z"/><path class="cls-30" d="M28,83c0,.07.07.15.22.22a.79.79,0,0,0,.81,0l.07-.07v-.08h0c.81-2.73,2.36-8.18,2.44-8.33v-.07a.2.2,0,0,0-.22-.23,1.33,1.33,0,0,0-.74,0l-.08.08h0v.07h0c-.36,1.33-1.84,6.05-2.5,8.34h0C28.07,82.94,28,83,28,83Z"/><path class="cls-14" d="M30.5,74.6c0,.15.08.22.23.22a.65.65,0,0,0,.73,0c.08,0,.08-.07.08-.14V74.6c0-.07-.08-.15-.22-.22a.66.66,0,0,0-.74,0l-.08.07h0v.15Z"/><path class="cls-29" d="M29.62,83.67c0,.15.07.23.29.3a.9.9,0,0,0,1-.07c.08,0,.08-.08.08-.15v-.22a.08.08,0,0,0-.08-.08l-.07-.07h-.07a1.06,1.06,0,0,0-1,.07l-.07.08h0v.07h0C29.69,83.53,29.62,83.67,29.62,83.67Z"/><path class="cls-31" d="M29.69,83.67c0,.08.08.15.22.23a.85.85,0,0,0,.82,0l.07-.08v-.07h0c.88-2.8,2.43-8.19,2.43-8.41v-.07c0-.08-.07-.15-.22-.23a.7.7,0,0,0-.74,0l-.07.08h0v.07h0c-.37,1.33-1.84,6-2.51,8.34h0C29.77,83.45,29.69,83.6,29.69,83.67Z"/><path class="cls-14" d="M32.2,75.19a.19.19,0,0,0,.22.22,1.17,1.17,0,0,0,.74,0c.07,0,.07-.07.07-.14v-.08c0-.07-.07-.15-.22-.22a.66.66,0,0,0-.74,0L32.2,75h0v.15Z"/><path class="cls-2" d="M30.36,74.82h0a.93.93,0,0,0,.22.3,1.1,1.1,0,0,0,.44.15.84.84,0,0,0,.59-.23c.15-.22.15-.81.52-.51.07.07.14.22.07.29a.48.48,0,0,1-.07.3v.22a.45.45,0,0,0,.07.29.53.53,0,0,0,.37.15l.22.08a1.17,1.17,0,0,0,.52.07.56.56,0,0,0,.37-.52v-.07h0a1.91,1.91,0,0,0,0-.89v-.14a1.73,1.73,0,0,0-2.07-1,1.82,1.82,0,0,0-1.18,1C30.36,74.53,30.28,74.68,30.36,74.82Z"/><path class="cls-15" d="M30.36,74.38h.44c.37-.07.74-.37,1.11-.29a1,1,0,0,1,.73.51,5.46,5.46,0,0,0,.59.74c.08.07.08.07.15.07h.07a1.64,1.64,0,0,0,0-.88v-.15a1.71,1.71,0,0,0-2.06-1A2,2,0,0,0,30.36,74.38Z"/><path class="cls-3" d="M30.36,74.9a.88.88,0,0,0,.22.29,1,1,0,0,0,.44.15.83.83,0,0,0,.59-.22c.15-.22.15-.81.52-.52.07.08.14.22.07.3a.45.45,0,0,1-.07.29v.22a.48.48,0,0,0,.07.3.57.57,0,0,0,.37.15l.22.07a1.17,1.17,0,0,0,.52.07.55.55,0,0,0,.37-.51c0,.07-.08.07-.15.14a.88.88,0,0,1-.74.08c-.15,0-.22-.08-.29-.22a.61.61,0,0,1-.08-.52,1,1,0,0,0-.15-.44c-.07-.15-.22-.15-.36-.15a.83.83,0,0,0-.37.37.81.81,0,0,1-.89.15Z"/><path class="cls-2" d="M32.13,71.28l6.93,2.22a5,5,0,0,0,1.77.29,5.11,5.11,0,0,0,3.1-1l2.43-1.62.08-.07a.62.62,0,0,0,.14-.37,1.27,1.27,0,0,0-.51-1,.43.43,0,0,0-.3-.08l-.07.08L43.12,71.5A4.16,4.16,0,0,1,39.5,72l-6.93-2.29Z"/><path class="cls-3" d="M39.06,73.13a5,5,0,0,0,1.77.29,5.11,5.11,0,0,0,3.1-1l2.51-1.62.07-.07c.07-.08.07-.08.07-.15v.22a.42.42,0,0,1-.14.37l-.08.07-2.51,1.63a6.31,6.31,0,0,1-3.09,1A5,5,0,0,1,39,73.57l-6.94-2.21L32.2,71Z"/><path class="cls-15" d="M46,70.18h0a1.21,1.21,0,0,1-.37.29,2.81,2.81,0,0,1-.51.37l-1.26.81-.66.44a4.17,4.17,0,0,1-3.61.52L32.64,70.4l-.29,1-.15-.08.44-1.4,6.94,2.29a4.14,4.14,0,0,0,3.61-.52l1-.66,1.11-.74c.14-.07.66-.52.81-.44h0v.07A.43.43,0,0,1,46,70.18Z"/><path class="cls-32" d="M34.12,67l-1,6.78v.07h0a.31.31,0,0,1-.22.3,1.29,1.29,0,0,1-1.26,0,.5.5,0,0,1-.29-.44l1-6.79.15.08.07-.08a1.27,1.27,0,0,1,1.25,0c.08.08.15.08.22.15Z"/><path class="cls-7" d="M33.82,66.64a1.27,1.27,0,0,0-1.25,0c-.3.22-.3.51.07.73a1.24,1.24,0,0,0,1.26,0C34.19,67.15,34.19,66.86,33.82,66.64Z"/><path class="cls-33" d="M34,66.34l-.14.59V67h0c0,.07-.08.22-.15.22a1.31,1.31,0,0,1-1,0,.39.39,0,0,1-.22-.3l.07-.66h.07l.08-.08a1.15,1.15,0,0,1,1,0c.22.08.22.15.36.15Z"/><path class="cls-7" d="M33.82,66.05a1.08,1.08,0,0,0-1,0c-.29.14-.22.44.08.59a1.31,1.31,0,0,0,1,0A.36.36,0,0,0,33.82,66.05Z"/><path class="cls-34" d="M34.56,64.94l-.22,1.33v.07h0c0,.15-.07.22-.22.3a1.29,1.29,0,0,1-1.26,0,.54.54,0,0,1-.29-.45l.22-1.32h.15l.07-.08a1.29,1.29,0,0,1,1.26,0c.07.08.14.08.22.15Z"/><path class="cls-19" d="M34.27,64.5a1.29,1.29,0,0,0-1.26,0c-.29.22-.29.51.08.74a1.27,1.27,0,0,0,1.25,0C34.63,65,34.63,64.72,34.27,64.5Z"/><path class="cls-35" d="M31.17,66.12l1.47-.88h.08c.07-.08.22,0,.29,0a1.25,1.25,0,0,1,.52,1,.57.57,0,0,1-.15.37l-1.47.89v-.08l-.15-.07a1.25,1.25,0,0,1-.52-1c-.07,0-.07-.07-.07-.22Z"/><path class="cls-2" d="M31,66.49a1.25,1.25,0,0,0,.52,1c.29.15.51,0,.51-.37a1.27,1.27,0,0,0-.51-1C31.24,66,31,66.19,31,66.49Z"/><path class="cls-36" d="M26.3,61.33,22.24,59h-.07c-.15-.08-.22,0-.37.07a1.29,1.29,0,0,0-.59,1.11.56.56,0,0,0,.22.44L25.49,63V62.8l.15-.07a1.31,1.31,0,0,0,.59-1.11.4.4,0,0,0-.08-.29Z"/><path class="cls-37" d="M36.92,46.21a4.43,4.43,0,0,1-.59,1.69l-1.33,2V50a23.25,23.25,0,0,1-3,3.1A10.24,10.24,0,0,0,30.43,55a20.89,20.89,0,0,1-2.06,2.22,5.78,5.78,0,0,1-.67.59,8.43,8.43,0,0,0-1.4,1.4,2.43,2.43,0,0,0-.44,1.1,2.34,2.34,0,0,1-.08.74c0,.07-.07.22-.14.15s-.15-.15-.15-.22a.3.3,0,0,0-.15-.3h-.15a1.16,1.16,0,0,0-.81.81c-.07.15,0,.52-.14.59a2.15,2.15,0,0,1-.67-.07H23.5a1.61,1.61,0,0,1-1.11-1.33A2,2,0,0,1,23.28,59a10.42,10.42,0,0,1,1.4-1.25,10.74,10.74,0,0,0,1.18-1.33c.29-.37.66-.81,1-1.18A26.24,26.24,0,0,0,28.37,53a9.89,9.89,0,0,0,.81-1.47,4.32,4.32,0,0,1,1-1.33,20.36,20.36,0,0,0,2.28-3.32,4.39,4.39,0,0,1,1.85-2.29,2,2,0,0,1,2.5,1,1.25,1.25,0,0,1,.15.59Z"/><path class="cls-38" d="M26,56.61c-.08-.08-.45.07-.52.14a1.84,1.84,0,0,0-.44.37l-.52.52-.15.15c0,.14,0,.29.08.36a1.85,1.85,0,0,0,.59.52,2.07,2.07,0,0,0,1.25.52c.15,0,.22-.22.37-.37a3.43,3.43,0,0,0,.44-1.11,1.71,1.71,0,0,1-.37-.22c-.14-.07-.22-.22-.29-.29s-.22-.23-.3-.37S26.08,56.61,26,56.61Z"/><path class="cls-39" d="M37.59,45.69a4.7,4.7,0,0,1-.67,1.92.58.58,0,0,0-.15.29,10.74,10.74,0,0,1-1.32,1.92.07.07,0,0,1-.08.07,20.14,20.14,0,0,1-3.24,3.4,12.27,12.27,0,0,0-1.85,2.14c-.73.88-1.47,1.69-2.28,2.5-.3.3-.59.74-1,.67a2,2,0,0,1-.81-.52l-.66-.66a.92.92,0,0,1-.15-.74c0-.07,0-.07.08-.15s.22-.37.36-.51a7,7,0,0,0,.67-.74l.66-.89a13.73,13.73,0,0,0,1-1.32,13.34,13.34,0,0,0,1-1.7,7.12,7.12,0,0,1,1.11-1.55,20.48,20.48,0,0,0,2.5-3.69,9.89,9.89,0,0,1,1.11-1.84,2.33,2.33,0,0,1,.81-.67l.15-.07a2.2,2.2,0,0,1,2.8,1.11c0,.37.08.66.08,1Z"/><path class="cls-38" d="M34.49,43.77a2.5,2.5,0,0,1,.88.89A6.61,6.61,0,0,1,36.7,47.9a10.8,10.8,0,0,1-1.33,1.92.07.07,0,0,1-.07.07,20.2,20.2,0,0,1-3.25,3.4,12.65,12.65,0,0,0-1.84,2.14c-.74.88-1.48,1.69-2.29,2.5-.29.3-.59.74-1,.67a2,2,0,0,1-.81-.52l-.66-.66a.88.88,0,0,1-.15-.74h0c.29.29.44.74.74,1a1.45,1.45,0,0,0,1.54.08,4.64,4.64,0,0,0,1.26-1.11l1.33-1.55a2.63,2.63,0,0,0,.51-.74,1.61,1.61,0,0,0-.22-1.62c-.29-.37-.74-.66-.66-1.11.66.23,1,1.11,1.77,1.26s1.25-.52,1.62-1.11a9.67,9.67,0,0,0,.66-1.33,3,3,0,0,0,.3-1.1,4.44,4.44,0,0,0-.3-.89,7.3,7.3,0,0,1-.07-3.32v-.66Z"/><path class="cls-40" d="M26.6,61.1l-.45-.29a.07.07,0,0,1-.07-.07h0a.33.33,0,0,0-.44.07,1.75,1.75,0,0,0-.74,1.4.67.67,0,0,0,.29.59l.45.3V63c.07,0,.07-.08.14-.08a1.75,1.75,0,0,0,.74-1.4.72.72,0,0,0-.07-.37Z"/><path class="cls-2" d="M26.82,61.69a1.71,1.71,0,0,1-.74,1.41c-.37.22-.74,0-.74-.59a1.71,1.71,0,0,1,.74-1.41C26.45,60.88,26.82,61.18,26.82,61.69Z"/><path class="cls-12" d="M38.69,70a29.72,29.72,0,0,0-4.28-2.29c-.07,0-.07.08-.14.08-.67.37-1.41.59-3.25-.59-2.51-1.63-3-2.22-3.1-2.73a1.1,1.1,0,0,0-.59-.81,2.82,2.82,0,0,0-.81-.59c-.15-.08-.37-.23-.51-.3s-.37-.22-.37-.44a.7.7,0,0,1,.07-.37c.07-.07.07-.15.15-.22l.15-.15c.29-.15.51.15.81.22a12.74,12.74,0,0,1,1.32.89,2.81,2.81,0,0,1,.89,1.4c0,.15.37.59,2.65,2.06,1.55,1,2.07.74,2.36.59a1.41,1.41,0,0,1,1.33.08c.52.22,1,.44,1.4.66.23.15,2.51,1.4,2.51,1.48Z"/><path class="cls-13" d="M25.78,62c.08-.07.08-.15.15-.22l.15-.15c-.07.07-.07.07-.07.15a.62.62,0,0,0-.08.37c0,.22.15.29.37.44s.37.22.52.29a6.6,6.6,0,0,1,.81.59,1.4,1.4,0,0,1,.59.82c.07.51.59,1.1,3.1,2.73,1.84,1.18,2.65.95,3.24.59l.15-.08A26.74,26.74,0,0,1,39,69.73l-.15.23a28.76,28.76,0,0,0-4.28-2.29c-.07,0-.07.07-.15.07-.66.37-1.4.59-3.24-.59-2.51-1.55-3-2.14-3.1-2.73a1.14,1.14,0,0,0-.59-.81,3.44,3.44,0,0,0-.81-.59c-.15-.07-.37-.22-.52-.29s-.37-.22-.37-.45C25.71,62.21,25.78,62.06,25.78,62Z"/><path class="cls-14" d="M36.85,68a9.26,9.26,0,0,0-1.48-.73A1.43,1.43,0,0,0,34,67.15c-.36.15-.81.45-2.36-.59-2.36-1.47-2.65-2-2.65-2.06a2.51,2.51,0,0,0-.89-1.4,5.2,5.2,0,0,0-1.32-.89c-.22-.15-.52-.37-.74-.22a.16.16,0,0,0-.15.15c-.07.07-.07.14-.15.14v-.22c.08-.07.08-.14.15-.22l.15-.15c.29-.14.52.15.74.23a14.41,14.41,0,0,1,1.32.88A2.86,2.86,0,0,1,29,64.2c0,.15.37.59,2.65,2.07,1.55,1,2.07.74,2.36.59a1.41,1.41,0,0,1,1.33.07c.52.22,1,.44,1.4.67.23.14,2.51,1.4,2.51,1.47l-.15.22C38.84,69.07,37.07,68,36.85,68Z"/><path class="cls-41" d="M39.06,68.26l-.44-.3s-.08,0-.08-.07h0a.36.36,0,0,0-.44.07,1.81,1.81,0,0,0-.74,1.41.68.68,0,0,0,.3.59l.44.29V70.1c.08,0,.08-.07.15-.07a2,2,0,0,0,.81-1.33.7.7,0,0,0-.07-.37Z"/><path class="cls-2" d="M39.28,68.85a1.65,1.65,0,0,1-.74,1.4c-.44.22-.73,0-.73-.59a1.67,1.67,0,0,1,.73-1.4C39,68,39.28,68.26,39.28,68.85Z"/><path class="cls-17" d="M44.89,85.22a1,1,0,0,0,.44-.07c2.14-.52,12.1-11.06,12.46-11.51l-.36-.37c-2.81,3-10.55,11-12.25,11.36a1,1,0,0,1-.88-.14c-.45-.3-.67-1.11-.67-2.29a2.83,2.83,0,0,1,1.11-2.14A15.24,15.24,0,0,1,47.54,78c1-.66,2.21-1.25,3.62-2a31.69,31.69,0,0,1,3.54-1.62c.81-.37,1.69-.74,2.5-1l.67-.3-.15-.44-.66.3c-.81.29-1.7.66-2.51,1-1.25.59-2.44,1.1-3.54,1.69-1.4.74-2.58,1.33-3.62,2a16.05,16.05,0,0,0-2.87,2.13,3.79,3.79,0,0,0-1.26,2.51,3.43,3.43,0,0,0,.82,2.66A.86.86,0,0,0,44.89,85.22Z"/><path class="cls-4" d="M43.26,84l.3.15v.59l.37-.15L44,85l.37-.15.22.23.37-.3.3.15.29-.52.37.08.22-.59.37-.15.15-.52.37-.37v-.51l.22-.37-.15-.44.22-.52-.22-.3.22-.59L47,80.06l.08-.59-.37.15-.08-.52-.44.3L45.92,79l-.37.44-.29-.22-.3.51h-.37l-.15.6-.44.22-.07.51-.37.37.07.44-.29.45.15.37-.23.51.23.22Zm.59-1.32c.08-.15.08-.23.15-.23l.74-.07c.07,0,.15.15.07.22l-.44,1.11a.16.16,0,0,1-.15.15h-.07L44,83.75c-.07-.08-.07-.08-.07-.15a.86.86,0,0,1-.08-.44Zm.23-.89a.37.37,0,0,1,.14-.29.57.57,0,0,1,.15-.3,1.8,1.8,0,0,1,.37-.44,1.15,1.15,0,0,1,.29-.3c.08,0,.15,0,.15.15v1c0,.15-.07.3-.15.3l-.73.15c-.08,0-.08,0-.08-.08S44.08,81.9,44.08,81.83Zm1.25,1c.07-.15,0-.3,0-.22l.52.59v.15a.24.24,0,0,1-.08.14l-.22.22c-.07.08-.15.15-.22.15S45.11,84,45,84s-.07.15-.15.07,0-.14.08-.29Zm1.18-1.48a.23.23,0,0,1,.15-.07v.44a1.83,1.83,0,0,1-.15.59c-.07.15-.07.3-.15.37s-.15.15-.22.08l-.44-.59c-.08-.08,0,0,.07-.15Zm-.22-.44-.74.74c-.07.07,0-.07,0-.22v-1c0-.08-.15-.08-.15-.15s.08-.07.15-.07l.22-.08h.15a.38.38,0,0,1,.29.15c.08.07.15.15.15.22a.32.32,0,0,1-.07.37Z"/><path class="cls-3" d="M43.63,84.26l.3.15V85l.37-.15.07.37.37-.14.22.22.37-.3.29.15.3-.52.37.08.22-.59.37-.15.15-.52.36-.37-.07-.51.3-.37-.15-.44.22-.59-.22-.3.22-.59-.37-.07.07-.59-.36.14L47,79.25l-.44.29-.22-.37-.37.45-.3-.22-.29.51H45l-.15.59-.37.22-.07.52-.37.37v.44l-.29.44.14.37-.22.52.22.22Zm.59-1.4c0-.14.08-.22.15-.22l.74-.07c.07,0,.15.15.07.22l-.44,1.11a.15.15,0,0,1-.15.14h-.15l-.14-.14a.24.24,0,0,1-.08-.15,1,1,0,0,1-.07-.44A1,1,0,0,0,44.22,82.86Zm.22-.81c.08-.15.08-.22.15-.37l.15-.29a1.64,1.64,0,0,1,.37-.44,1,1,0,0,1,.29-.23c.08,0,.15,0,.15.15v1a.37.37,0,0,1-.15.3l-.73.15c-.08,0-.08,0-.08-.08h0c-.15-.14-.15-.22-.15-.22Zm1,.89c.07-.15.14-.22.22-.15l.51.59v.15a.24.24,0,0,1-.07.14l-.22.23c-.07.07-.15.14-.22.14s-.22.15-.37.15-.22.07-.3,0A.14.14,0,0,1,45,84Zm1.25-1.7c.07-.07.07-.07.15-.07a.24.24,0,0,1,.07.14v.59a1.56,1.56,0,0,1-.15.59,1.36,1.36,0,0,0-.14.37c-.08.08-.15.15-.22.08L46,82.35c-.07-.15,0-.22.08-.3Zm-.07-.15-.74.74c-.07.07-.15.07-.15-.07V80.5c0-.07.08-.07.15-.07l.22-.08h.15a.38.38,0,0,1,.29.15c.08.08.15.15.15.22a3.1,3.1,0,0,1-.07.37Z"/><path class="cls-4" d="M45.33,82a.51.51,0,0,1,.29-.15c.08,0,.15.07.23.07a1.63,1.63,0,0,1,.29.45,1.41,1.41,0,0,1,.15.51c.22.89.37,1.77.59,2.73a4.16,4.16,0,0,0,.51,1.62.57.57,0,0,1,.15.37c0,.15-.07.3-.22.3a.34.34,0,0,1-.37,0,.79.79,0,0,1-.15-.59,2,2,0,0,0-.22-.89,24.73,24.73,0,0,1-1.25-3.76,1.71,1.71,0,0,1-.07-.59C45.26,82.13,45.33,82.05,45.33,82Z"/><path class="cls-3" d="M45.55,82.05a.57.57,0,0,1,.3-.15c.07,0,.14.08.22.08a1.59,1.59,0,0,1,.29.44,1.28,1.28,0,0,1,.15.52c.22.88.44,1.77.59,2.73a4.06,4.06,0,0,0,.52,1.62.57.57,0,0,1,.14.37c0,.14-.07.29-.22.29a.32.32,0,0,1-.37,0,.83.83,0,0,1-.14-.59,1.48,1.48,0,0,0-.23-.81,24.48,24.48,0,0,1-1.25-3.83,1.73,1.73,0,0,1-.07-.59C45.48,82.2,45.48,82.13,45.55,82.05Z"/><path class="cls-14" d="M46,81.9l-.22-.14H45.7c-.08-.08-.15-.08-.22,0a1.28,1.28,0,0,0-.45.81.6.6,0,0,0,.15.37l.22.14V83h.08a1,1,0,0,0,.44-.81.28.28,0,0,0-.07-.22Z"/><path class="cls-17" d="M46.14,82.2a1,1,0,0,1-.44.81c-.22.15-.44,0-.44-.29a1,1,0,0,1,.44-.82C45.92,81.76,46.14,81.9,46.14,82.2Z"/><path class="cls-42" d="M47.76,87.58l-.29-.14h-.08a.56.56,0,0,0-.14.29v.07l.29.15h0a.51.51,0,0,0,.15-.29v-.08Z"/><path class="cls-19" d="M47.76,87.73a.41.41,0,0,1-.14.3c-.08.07-.15,0-.15-.15a.38.38,0,0,1,.15-.3C47.69,87.58,47.76,87.58,47.76,87.73Z"/><path class="cls-43" d="M48.13,87.73l-.37-.22h-.14a.4.4,0,0,0-.23.37c0,.07,0,.15.08.15l.37.22h.07a.41.41,0,0,0,.22-.37v-.15Z"/><path class="cls-17" d="M48.21,87.88a.42.42,0,0,1-.23.37c-.07.07-.22,0-.22-.15a.41.41,0,0,1,.22-.37C48.06,87.73,48.21,87.8,48.21,87.88Z"/><polygon class="cls-44" points="48.21 87.36 48.21 87.8 48.5 87.58 48.21 87.36"/><path class="cls-3" d="M47,88.54l2,1.18a.66.66,0,0,0,.74,0l.81-.51c.08,0,.08-.08.15-.15h0c0-.08-.07-.15-.15-.22h-.07l.07-.15-.29-.3-.15-.14-1.4-.81-.15.22-.22.14.15.15L48,88l-.44.14.08.22-.08.08-.29-.15Zm2.66,0c-.15.08-.08.22-.3.15a.28.28,0,0,1-.22-.07L49,88.54a.72.72,0,0,1-.37-.29c-.08-.08,0-.15.07-.15h0l.59.29.44.23Zm-.45.81h0l.08-.07.07-.07.52-.3h.37c.14.07.14.15,0,.22l-.74.44a.43.43,0,0,1-.44,0h0C49,89.5,49,89.43,49.16,89.35Zm-1.62-.73a.26.26,0,0,1,.22-.08h.45a.57.57,0,0,1,.36.15c.08.07.15.07.23.15s.14.22.07.29a.15.15,0,0,1-.15.15Z"/><polygon class="cls-3" points="48.94 89.28 48.94 89.72 46.95 88.54 46.95 88.1 48.94 89.28"/><path class="cls-3" d="M49.24,89.28h.22l.29-.15.37-.29.15-.15.22-.15h0V89h0a.15.15,0,0,1-.15.15l-.81.52a.65.65,0,0,1-.73,0v-.37h.44Z"/><path class="cls-15" d="M47,88.1l.59.37.3.15,1.1.66h0a.29.29,0,0,0,.22.07.64.64,0,0,0,.52-.07l.59-.37.15-.15h0a.16.16,0,0,0,.15-.14c0-.08-.08-.23-.15-.23L48.5,87.21l-.22.15.15.15-.89.52L47.25,88Zm2.95.22a.28.28,0,0,1-.22.07h-.44a.57.57,0,0,1-.37-.14c-.07-.08-.15-.08-.22-.15s-.15-.22-.08-.3a.16.16,0,0,1,.15-.14Zm.44.44h0l-.22.15-.51.3c-.08,0-.15.07-.22.07s-.15,0-.15-.07h0c-.15-.08-.15-.15,0-.23l.22-.14.37-.22.15-.08h0a.49.49,0,0,1,.44,0h0a.25.25,0,0,1-.08.22Zm-2.65-.44-.15-.07a.88.88,0,0,1,.44-.08,1.77,1.77,0,0,1,.59.15h0a.55.55,0,0,1,.3.3c.07.07,0,.22-.07.29h0l-.59-.29Z"/><path class="cls-20" d="M49.75,83.53a2.26,2.26,0,0,1,.3,1.4c0,1-.15,1-.15,1.55a5.69,5.69,0,0,1-.29,2.5,3.66,3.66,0,0,1-1.92,2,1.25,1.25,0,0,1-1.33-.74c-.15-.22.37-1.18.37-1.33a9,9,0,0,0,.22-2,28.05,28.05,0,0,1,.52-3.39,2.66,2.66,0,0,1,1-.59A1.12,1.12,0,0,1,49.75,83.53Z"/><path class="cls-3" d="M49.53,83.08a2.38,2.38,0,0,1,.3,1.41c0,1-.15,1-.15,1.54a6.26,6.26,0,0,1-.29,2.59,3.67,3.67,0,0,1-1.92,2,.92.92,0,0,1-1-.3c-.22-.22-.15-.66-.15-1s.22-.59.22-.88a9.06,9.06,0,0,0,.22-2,20.22,20.22,0,0,1,.52-3.4,3,3,0,0,1,1-.59A1.44,1.44,0,0,1,49.53,83.08Z"/><path class="cls-4" d="M46.73,86.48a3.46,3.46,0,0,1,.15-.89,1,1,0,0,1,1-.81c.37,0,.81.07,1,.44s-.15,1-.15,1.33c-.15,1.25.22,3.25-1.4,3.61a.66.66,0,0,1-.89-.36,3.59,3.59,0,0,1,.08-2,4.45,4.45,0,0,0,.14-1A.57.57,0,0,0,46.73,86.48Z"/><path class="cls-21" d="M48.65,84a1,1,0,0,1-1.11-.44c-.07-.07-.15-.22-.22-.29a15.46,15.46,0,0,1-.66-1.92,4,4,0,0,0-.52-1c-.15-.3-.29-.67-.44-1-.59-1.33-1.11-2.58-1.62-3.91A23.62,23.62,0,0,1,42.38,70a1.52,1.52,0,0,0-.07-.52V69a3.2,3.2,0,0,1,.14-.81v-.08l.22.67a2.76,2.76,0,0,0,.52.73,2.1,2.1,0,0,0,1.33.52,2.55,2.55,0,0,0,1,0,2.37,2.37,0,0,0,1.11-1v-.15c0,.08.07.22.07.3h0a14.83,14.83,0,0,0,.59,1.55l.07.22a8.2,8.2,0,0,1,1.26,3.83c0,1.48.22,2.88.29,4.35,0,.89,0,1.85.08,2.81a3.49,3.49,0,0,0,.14.74C49.24,83.23,49.24,83.82,48.65,84Z"/><path class="cls-22" d="M48.65,84a1,1,0,0,1-1.11-.44c.3.07.67.07.81-.22s.08-.3,0-.37A37.53,37.53,0,0,1,48,78c0-.88-.07-1.69-.14-2.5a3.36,3.36,0,0,0-.52-2.07,1.53,1.53,0,0,0-.88-.59,1.9,1.9,0,0,0-.67.08,4,4,0,0,1-2.06-.08c-.22,0-.37-.15-.59-.29A.46.46,0,0,1,43,72c.67.15,1.18.59,1.92.52a1.92,1.92,0,0,0,1.25-.89c.3-.44.45-1.4-.36-1.33A5.72,5.72,0,0,1,43.12,70a6.52,6.52,0,0,1-.89-.59v-.52h.08a.56.56,0,0,1,.29-.14,1,1,0,0,1,.52-.08c.88,0,1.69.22,2.58.15a1.26,1.26,0,0,1,.88.15l.15.14h0a.29.29,0,0,1,.07.15,11.34,11.34,0,0,0,.52,1.4l.07.22a8.2,8.2,0,0,1,1.26,3.84c0,1.47.22,2.88.29,4.35,0,.89,0,1.85.08,2.8a3.27,3.27,0,0,0,.14.74C49.24,83.23,49.24,83.82,48.65,84Z"/><path class="cls-45" d="M43.12,70.84l-4.06-2.36H39c-.15-.07-.22,0-.37.07A1.32,1.32,0,0,0,38,69.66a.51.51,0,0,0,.22.44l4.06,2.36v-.14c.07,0,.07,0,.14-.08a1.29,1.29,0,0,0,.59-1.1.46.46,0,0,0-.07-.3Z"/><path class="cls-3" d="M43.26,71.28a1.29,1.29,0,0,1-.59,1.11c-.29.15-.59,0-.59-.44a1.43,1.43,0,0,1,.59-1.11C43,70.62,43.26,70.84,43.26,71.28Z"/><path class="cls-46" d="M30.21,67.08h0l.81.44h.07v-.15h.08c.07,0,.07-.07.15-.07h0c0-.07-.08-.07-.08-.15v-.22a.83.83,0,0,1,.44-.74h.23l.07.08a1,1,0,0,0-.07-.44H32l-.74-.45H31a1.38,1.38,0,0,0-.67,1.11A.62.62,0,0,0,30.21,67.08Z"/><path class="cls-2" d="M31,67.52h.37l.14-.07-.22-.15h0c0-.07-.07-.07-.07-.15v-.22a.83.83,0,0,1,.44-.74h.3l.22.15a.67.67,0,0,0-.15-.51l-.07-.08h-.23A1.4,1.4,0,0,0,31,66.86.71.71,0,0,0,31,67.52Z"/><path class="cls-15" d="M43.93,61.1a1.27,1.27,0,0,0,.59.52c1,.3,1.62-.52,2.43-.88A10.5,10.5,0,0,1,50,60c.14,0,.29-.08.51-.08a3.07,3.07,0,0,0,1.85-3.17,1.78,1.78,0,0,0-.3-.88h0c-.88-1.33-3-1.33-4.35-.74a2.93,2.93,0,0,0-1.48,1.48,7.81,7.81,0,0,1-.29,1.32,4.65,4.65,0,0,1-1,1.18,3.6,3.6,0,0,0-1,1.33c0,.07-.08.15-.08.22S43.85,61,43.93,61.1Z"/><path class="cls-27" d="M46.14,58a8.23,8.23,0,0,1-.66.81c-.3.29-1.18.66-.89,1.18a.85.85,0,0,0,.67.44h.29a2.18,2.18,0,0,0,1.18-.59,9.75,9.75,0,0,1,1.48-1c.88-.52,2.06-.59,2.8-1.26a1.35,1.35,0,0,0,.44-1.25,1.33,1.33,0,0,0-1-1.18A3.27,3.27,0,0,0,48.57,55a3,3,0,0,0-2,1.4,7.26,7.26,0,0,0-.22,1.11A3.87,3.87,0,0,1,46.14,58Z"/><path class="cls-3" d="M43.93,61.1a1.27,1.27,0,0,0,.59.52c1,.3,1.62-.52,2.43-.88A10.5,10.5,0,0,1,50,60c.14,0,.29-.08.51-.08a3.07,3.07,0,0,0,1.85-3.17,1.78,1.78,0,0,0-.3-.88,2.35,2.35,0,0,1,.15,1.4,1.85,1.85,0,0,1-1.11,1.33,2.69,2.69,0,0,1-.74.14,11.58,11.58,0,0,0-3.76,1.63,3.66,3.66,0,0,1-1,.51,1.39,1.39,0,0,1-.95.15,1.23,1.23,0,0,1-.74-.74c0,.08-.08.15-.08.22A.76.76,0,0,0,43.93,61.1Z"/><path class="cls-19" d="M56.54,73.57c0,.44.22.74.52.74a.64.64,0,0,0,.37-.08,2.21,2.21,0,0,0,.59-.59,2.47,2.47,0,0,0,.29-1c0-.59-.44-.88-.88-.59A1.67,1.67,0,0,0,56.54,73.57Zm1.33-1c0-.15-.08-.29-.22-.29h-.08c-.07,0-.07-.08,0-.15s.08-.08.08-.15h.14a.24.24,0,0,1,.23.22c.07.08.07.15.07.3v.14a.3.3,0,0,1-.07.23h0c-.08,0-.08,0-.08-.08Zm-1,1.4a.29.29,0,0,1,.07-.15h.15a.47.47,0,0,0,.37-.29l.07-.07c.08-.08.08-.08.15,0h0v.07c0,.07,0,.07-.07.15l-.08.07c-.07.15-.22.22-.29.3a.29.29,0,0,1-.22.07h-.15Zm-.3-.37h0V73.5a.9.9,0,0,1,.08-.45c.07-.14.07-.22.15-.29l.07-.22c.07-.08.07-.15.07-.08v.22l-.07.15a1.46,1.46,0,0,0-.15.59v.15s0,.07-.15.07Z"/><path class="cls-3" d="M57.43,72a1.93,1.93,0,0,0-.82,1.55c0,.59.37.88.82.59a1.94,1.94,0,0,0,.81-1.55C58.24,72,57.87,71.73,57.43,72Zm-.59,1.48c0,.07-.08.14-.08.22s-.07,0-.07-.08h0V73.5c0-.15.07-.3.07-.52s.08-.22.15-.37l.07-.15a.25.25,0,0,1,.15-.07v.22l-.07.15a1.32,1.32,0,0,0-.15.59Zm.95.22-.07.14c-.07.15-.22.23-.29.3a.3.3,0,0,1-.23.07h-.14c-.08,0-.08-.07-.08-.14s.08-.08.08-.15h.14c.15,0,.3-.15.45-.3l.07-.07c.07-.07.15-.07.15,0v.07a.08.08,0,0,0-.08.08Zm.3-.89H58v-.15c0-.14-.08-.29-.23-.29h-.07c-.07,0-.07-.07,0-.15s.07-.07.07-.15h.15c.08,0,.15.08.22.15s.08.15.08.3v.14s-.08.15-.15.15Z"/><path class="cls-14" d="M57.94,72.76l-.22-.15h-.07a.14.14,0,0,0-.22,0,1,1,0,0,0-.45.81.57.57,0,0,0,.15.37l.22.15v-.15l.08-.07a1,1,0,0,0,.44-.81.23.23,0,0,1,.07-.15Z"/><path class="cls-17" d="M58,73.05a1,1,0,0,1-.45.81c-.22.15-.44,0-.44-.29a1,1,0,0,1,.44-.81C57.87,72.61,58,72.76,58,73.05Z"/><path class="cls-2" d="M25.05,64.28a.29.29,0,0,0,.07.22.28.28,0,0,0,.22.07h.44V64a.68.68,0,0,1,.23-.52c.07-.07.14-.22.29-.29s.22-.07.37-.15a1.16,1.16,0,0,1,.22-.66l.22-.22a1.51,1.51,0,0,1,.3-.08L27,61.84,27,61.77a.24.24,0,0,0-.14-.08h-.15a1.15,1.15,0,0,0-.44.37.79.79,0,0,0-.15.59,1.78,1.78,0,0,0-1,1.33A.48.48,0,0,0,25.05,64.28Z"/><path class="cls-7" d="M24.24,65.09h0a.45.45,0,0,0,.07.29l.22.22c.07.08.15.08.22.15l.15.08a1.53,1.53,0,0,0,.37-.74c0-.15.07-.3.07-.44a.9.9,0,0,1,.08-.45h0a.72.72,0,0,1,.07-.37c.07-.14.15-.22.22-.37s.3-.22.37-.36.15-.08.15-.15V62.8a.93.93,0,0,1,.66-.81l-.15-.07a.24.24,0,0,0-.14-.08h-.08a1.07,1.07,0,0,0-.44.37.54.54,0,0,0-.07.59,2.27,2.27,0,0,0-1,1.26.78.78,0,0,0-.67.36A1.89,1.89,0,0,0,24.24,65.09Z"/><path class="cls-3" d="M36,69.59a1.26,1.26,0,0,1,1-.74l.15.22a1.15,1.15,0,0,0-.44.44.76.76,0,0,0-.08.37v.59c0,.08,0,.15-.07.15H36a.28.28,0,0,1-.07-.22A3.45,3.45,0,0,1,36,69.59Z"/><path class="cls-12" d="M35.3,70.4l-.22-.15h-.22a.76.76,0,0,0-.37.66.39.39,0,0,0,.14.3l.23.15v-.08h.07a.77.77,0,0,0,.37-.66V70.4Z"/><path class="cls-13" d="M35.37,70.62a.77.77,0,0,1-.37.66c-.22.15-.37,0-.37-.22A.78.78,0,0,1,35,70.4C35.22,70.25,35.37,70.4,35.37,70.62Z"/><path class="cls-2" d="M34.71,71.06h0a.48.48,0,0,0,.07.3l.22.22c.08.07.15.07.22.15l.15.07h.15a3.57,3.57,0,0,1,.37.07h.29v-.14l.08-.08.15-.22.22-.37v-.37a.07.07,0,0,0-.08-.07l-.07-.07-.15-.15-.15-.15C36,70.18,36,70,35.81,70L35.67,70h-.08a.77.77,0,0,0-.66.36A.75.75,0,0,0,34.71,71.06Z"/><path class="cls-3" d="M36.7,71.06a1,1,0,0,1-.44.81c-.22.15-.45,0-.45-.29a1,1,0,0,1,.45-.81C36.55,70.62,36.7,70.77,36.7,71.06Z"/><path class="cls-2" d="M35.52,70.25c0,.07,0,.15.07.15a.29.29,0,0,0,.22.07h.45v-.59a.75.75,0,0,1,.22-.51,1,1,0,0,1,.29-.3c.08-.07.23-.07.37-.15a1.24,1.24,0,0,1,.22-.66l.23-.22a1.09,1.09,0,0,1,.29-.15l-.37-.22-.15-.07a.24.24,0,0,0-.14-.08h-.08a1.14,1.14,0,0,0-.44.37.79.79,0,0,0-.15.59,2.38,2.38,0,0,0-1,1.25A2.11,2.11,0,0,0,35.52,70.25Z"/><path class="cls-7" d="M34.63,71.06h0a.43.43,0,0,0,.08.3l.22.22c.07.07.15.07.22.15l.15.07a1.72,1.72,0,0,0,.37-.81,1,1,0,0,0,.07-.44,1,1,0,0,1,.07-.45h0c0-.14.08-.22.08-.37s.15-.22.22-.36.3-.23.37-.37a.17.17,0,0,0,.15-.15V68.7a1,1,0,0,1,.59-.81l-.08-.07a.24.24,0,0,0-.14-.08h-.08a1.07,1.07,0,0,0-.44.37.54.54,0,0,0-.07.59,2.27,2.27,0,0,0-1,1.26.78.78,0,0,0-.67.36A3.58,3.58,0,0,0,34.63,71.06Z"/><path class="cls-12" d="M36.18,71.58h0c-.07-.15-.07-.37.08-.44s.44,0,.59.14.44.3.66.52l.15.07a6.25,6.25,0,0,0,1.25.59,2.5,2.5,0,0,1,.89.45c.37.22,1.77,1.62,1,2-.07.07-.22,0-.37-.08s-.15-.14-.15-.22a3.68,3.68,0,0,0-1-1.33c-.22-.14-.51-.29-.74-.44s-.44-.22-.66-.37c-.44-.22-1-.37-1.4-.59C36.41,71.87,36.26,71.73,36.18,71.58Z"/><path class="cls-13" d="M36.18,71.43h0c.08.15.23.3.37.3.45.22.89.36,1.4.59a2.92,2.92,0,0,1,.67.36c.22.15.51.23.74.37a3.6,3.6,0,0,1,1,1.33c.07.07.07.15.15.22a.4.4,0,0,0,.29.08,1.11,1.11,0,0,0,.22-.3.4.4,0,0,1-.22.37c-.07.07-.22,0-.29,0s-.15-.15-.15-.22a3.6,3.6,0,0,0-1-1.33c-.23-.15-.52-.29-.74-.44s-.44-.22-.67-.37c-.44-.22-1-.37-1.4-.59a.78.78,0,0,1-.37-.3h0a.27.27,0,0,1-.07-.22A.25.25,0,0,0,36.18,71.43Z"/><path class="cls-14" d="M39.8,73l-.89-.44A4.1,4.1,0,0,1,37.66,72l-.15-.08a5.41,5.41,0,0,0-.66-.51.62.62,0,0,0-.59-.15l-.15.15a.27.27,0,0,1,.15-.37c.22-.15.44,0,.59.15s.44.29.66.51l.15.08a6.85,6.85,0,0,0,1.25.59,2.46,2.46,0,0,1,.89.44c.29.22,1.33,1.18,1.25,1.77A3.74,3.74,0,0,0,39.8,73Z"/><path class="cls-21" d="M44.59,55.28a6.49,6.49,0,0,1-.51,2.06,12.5,12.5,0,0,1-1,2h0a10.35,10.35,0,0,1-2.29,2.14A1.74,1.74,0,0,0,40,63.32a7.24,7.24,0,0,1-3.62,1.92,1.56,1.56,0,0,1-.81-.15,1.49,1.49,0,0,1-.44-.74l-.15-.44a3.32,3.32,0,0,1-.15-2.51A9.74,9.74,0,0,1,36.18,59a38.16,38.16,0,0,1,5.17-6.72c.59-.51,1-1,1.47-.22a25.62,25.62,0,0,1,1.48,2.29,3.24,3.24,0,0,1,.29.74Z"/><path class="cls-22" d="M43.19,58.3c0,.37-.07.67-.07,1a10.35,10.35,0,0,1-2.29,2.14A1.74,1.74,0,0,0,40,63.32a6.56,6.56,0,0,1-3.62,1.84,1.56,1.56,0,0,1-.81-.15,1.5,1.5,0,0,1-.44-.73l-.15-.45c1.11.59,2.58-.07,3.61-.66C40.61,62,40,59.26,41.35,57.56L42,57.2a1.23,1.23,0,0,1,.74-.23.9.9,0,0,1,.51.52A3.13,3.13,0,0,1,43.19,58.3Z"/><path class="cls-21" d="M51,58a2.25,2.25,0,0,1-.15.66,4.45,4.45,0,0,0-.37.81c-.15.59-.37,1.18-.51,1.77-.89,2.81-1.33,5.76-2.44,8.41-.07.15-.07.22-.22.3a.57.57,0,0,1-.37.14,5.13,5.13,0,0,1-4.35-.88L42.38,69a1,1,0,0,1-.07-.45h0c.07-3.54,1.25-6.93,1.47-10.47a3,3,0,0,0-.66-2.51c-.08-.14-.15-.22-.22-.37a1.92,1.92,0,0,1,.29-1.54c.3-.52.59-1,.89-1.41l.36.08a9.41,9.41,0,0,1,1.33.44c.74.22,1.26-.29,1.92-.37a2.31,2.31,0,0,1,1.55.52h0a3.83,3.83,0,0,1,1,1.4,4.5,4.5,0,0,1,.66,1.4A5.89,5.89,0,0,1,51,58Z"/><path class="cls-22" d="M51,58a2.25,2.25,0,0,1-.15.66,4.45,4.45,0,0,0-.37.81c-.15.59-.37,1.18-.51,1.77-.89,2.81-1.33,5.76-2.44,8.41-.07.15-.07.22-.22.3a.57.57,0,0,1-.37.14,5.13,5.13,0,0,1-4.35-.88L42.38,69a1,1,0,0,1-.07-.45l1.54.45a2.8,2.8,0,0,0,2.29-.3,3.46,3.46,0,0,0,1-1.55c.52-1.25,1-2.5,1.4-3.76a25.63,25.63,0,0,0,1.18-4.13A9.44,9.44,0,0,0,49.39,55L49,54.17a3,3,0,0,1,.29-1.4,3.92,3.92,0,0,1,1,1.4,4.88,4.88,0,0,1,.67,1.4A9.06,9.06,0,0,1,51,58Z"/><path class="cls-20" d="M49.83,55.13c-.22,2.14-2.8,3.54-4.72,3.76a6.59,6.59,0,0,1-4.5-1.1,4.1,4.1,0,0,1-.81-.74L39.72,57l-.07-.14c-.37-.67-.59-1.4-1-2s-.66-1-1-1.48C36.85,52,36,50.78,35,49.53a6.13,6.13,0,0,1-1-4.06.84.84,0,0,1,.08-.44A2.54,2.54,0,0,1,35,43.48c.52-1.11,2.14-.81,3-.67.29.08.66.08,1,.15,1.18.22,2.43.44,3.61.74a8.69,8.69,0,0,1,3.47,1.47,6.31,6.31,0,0,1,1.4,2.22,32.77,32.77,0,0,1,2,5.31A6.56,6.56,0,0,1,49.83,55.13Z"/><path class="cls-47" d="M39.72,56.9l-.07-.15c-.37-.59-.59-1.32-1-1.91s-.66-1-1-1.48C36.85,52,36,50.78,35,49.53a6.13,6.13,0,0,1-1-4.06.84.84,0,0,1,.08-.44.62.62,0,0,1,.51.59l-.29,1A7.64,7.64,0,0,0,36,50.78a3.07,3.07,0,0,0,1.18,1,1.87,1.87,0,0,0,1.55.22.16.16,0,0,1-.15.15H38.4a.45.45,0,0,0-.37.59,1.81,1.81,0,0,0,.29.66A11.61,11.61,0,0,1,39.72,56.9Z"/><path class="cls-47" d="M49.46,52.62a33.48,33.48,0,0,0-2-5.31,6.07,6.07,0,0,0-1.4-2.14A8.69,8.69,0,0,0,42.6,43.7,30.83,30.83,0,0,0,39,43a.28.28,0,0,0,.07.22l.81.3c1.11,1.4,3.32,1.18,4.8,2.21A6.25,6.25,0,0,1,46,47.17c.3.44.52.81.81,1.25a3.07,3.07,0,0,1-1.32,1.7,10.17,10.17,0,0,1-2.88,1.32.28.28,0,0,0-.15.08.34.34,0,0,0,.22.22,4.64,4.64,0,0,0,2-.52,3.9,3.9,0,0,1,2.06-.37,2.22,2.22,0,0,1,1.55,2,5.43,5.43,0,0,1-.15,3.4,4.37,4.37,0,0,1-4.35,2.21,8.66,8.66,0,0,1-4-1.48,3.57,3.57,0,0,0,.81.74,6.46,6.46,0,0,0,4.5,1.11c1.92-.22,4.5-1.62,4.72-3.76A7.13,7.13,0,0,0,49.46,52.62Z"/><path class="cls-48" d="M38.69,40.31s-.81.95-1.1,1.4l-.23.29a1.74,1.74,0,0,0-.44.89,2,2,0,0,0,1.26,1.84,2.49,2.49,0,0,0,1.91-.07Z"/><path class="cls-49" d="M40.09,44.73l-1-3.24h-.22L38.77,43c0,.3-.08.52-.08.82a.79.79,0,0,1-.22.51,1.64,1.64,0,0,1-.37.44h.08A3.38,3.38,0,0,0,40.09,44.73Z"/><path class="cls-37" d="M40.09,46.06a2.61,2.61,0,0,1-.37.81,2.82,2.82,0,0,1-.59.81.87.87,0,0,1-.66.37,1.26,1.26,0,0,1-.88-.15,1,1,0,0,1-.52-.59L37,47.17c-.15-.37-.3-.67-.45-1,0-.07-.22-.29-.14-.44s.66-3.39,2.06-3.47c.15-.22.3-.29.44-.07s.08.07.08.15a2.16,2.16,0,0,1,1.47,1.77A6,6,0,0,1,40.09,46.06Z"/><path class="cls-50" d="M40.09,46.06a2.61,2.61,0,0,1-.37.81,8,8,0,0,0,.3-1.33,9.53,9.53,0,0,0-.15-2.06c-.15,0-.15.14-.15.29a3,3,0,0,1-.36,1.33,6,6,0,0,1-1,1.4,2.11,2.11,0,0,1-1.4.81l-.08-.14c-.15-.37-.29-.67-.44-1,0-.07-.22-.29-.15-.44S37,42.3,38.4,42.22c.14-.22.29-.29.44-.07,0,.07.07.07.07.15a2.17,2.17,0,0,1,1.48,1.77A4.78,4.78,0,0,1,40.09,46.06Z"/><path class="cls-37" d="M39.72,41.93c-.07.15-.07.37-.14.51l-.15.52-.22,1a3.8,3.8,0,0,1-.3.81,2.09,2.09,0,0,1-.37.52l-.07.07c-.74.89-1.4,1.7-2.58,1.7a2.05,2.05,0,0,1-2-1.11A16.11,16.11,0,0,1,32.79,43a4.5,4.5,0,0,1-.22-1.4v-.29c.07-.52.07-1,.15-1.55v-.22A2,2,0,0,1,34.27,38s4.2.52,5.16,2.21a3.75,3.75,0,0,0,.29.81A1.67,1.67,0,0,1,39.72,41.93Z"/><path class="cls-50" d="M39.65,42.52c-.07.07-.07.15-.22.07-.74-.37-1.33-1.1-2.07-1.4a2.2,2.2,0,0,0-1-.22,7,7,0,0,0-2.14.15,3.43,3.43,0,0,0-1,.37l-.45.22c-.14.07-.14-.15-.14-.3a11.74,11.74,0,0,1,.14-1.55H33c.37-.07.81-.14,1.18-.22a8.6,8.6,0,0,1,1.33-.15,9.91,9.91,0,0,1,2.58.3,4.08,4.08,0,0,1,1.62.74,1.2,1.2,0,0,1,.37.51,1.39,1.39,0,0,1,0,.81,1.1,1.1,0,0,1-.29.52Z"/><path class="cls-37" d="M47.17,51.74A10.57,10.57,0,0,0,47,53.21a9.67,9.67,0,0,1-.29,1.4c-.37,1.11-.89,2.07-1.18,3.18a26.15,26.15,0,0,1-1.77,4.64c-.3.59-.74,1.85-1.11,2.88A14.92,14.92,0,0,0,42,67v1a5.86,5.86,0,0,1,.07,1.1,3.36,3.36,0,0,1,.08.89,1,1,0,0,1-.44.52c-.3.22-.59.36-.59.81v.07h-.08a2.49,2.49,0,0,1-2.28-.22,2.49,2.49,0,0,1-.37-1.33,1.18,1.18,0,0,1,.44-1.25,12.34,12.34,0,0,0,1-1.62c.29-.74.51-1.48.74-2.29.44-1.4.88-3.1,1.18-3.84s.44-1.77.73-2.65a14,14,0,0,0,.45-2.36,17.86,17.86,0,0,1,.59-2.07,16.05,16.05,0,0,0,.07-4.94,6.7,6.7,0,0,1-.22-2.43,1.53,1.53,0,0,1,.81-1.18l.44-.22a1.88,1.88,0,0,1,1.77.44C48.13,47,47.62,49.89,47.17,51.74Z"/><path class="cls-47" d="M41.35,65.09,40.46,65c.08.15-.15.45-.15.59s-.14.37-.14.59,0,.23.14.37a6.34,6.34,0,0,0,1,.45h.81c.23,0,.23-.45.3-.67s.15-1,.15-1C42.08,65.31,41.72,65.16,41.35,65.09Z"/><path class="cls-51" d="M40.68,40.45c-.07.22-.14.52-.22.74a4.2,4.2,0,0,1-.37.89,6.73,6.73,0,0,0-.37.88c-.14.37-.29.44-.36.44s-.08-.07-.08-.14a3,3,0,0,0-1-2.29,4.35,4.35,0,0,0-1.18-.52c-.22-.07-.44-.07-.74-.14a3.17,3.17,0,0,0-.81.07c-1,.15-2.21.59-3.1.22a1.77,1.77,0,0,1-1-1,.28.28,0,0,1-.07-.22,1,1,0,0,0,.66.22A3.38,3.38,0,0,1,30.87,38c.37.22,1.11.66,1.55.51-.07-.15-.29-.37-.44-.59a.72.72,0,0,0,.66-.15,2.36,2.36,0,0,0,.45-.44c.22-.29.51-.51.73-.81a3.32,3.32,0,0,1,1.26-.81,5.51,5.51,0,0,1,2.43-.3,2.39,2.39,0,0,1,.67.15,5.23,5.23,0,0,1,1.4.74A3.93,3.93,0,0,1,40.76,38,4,4,0,0,1,40.68,40.45Z"/><path class="cls-52" d="M40.68,40.45a12.75,12.75,0,0,1-.51,1.63c-.08.07-.22.51-.45.88s-.29.44-.36.44-.08-.07-.08-.14a3,3,0,0,0-1-2.29A3.94,3.94,0,0,0,37,40.45c-.23-.07-.45-.07-.67-.14a3.17,3.17,0,0,0-.81.07c-1,.15-2.21.59-3.1.22a1.77,1.77,0,0,1-1-1,1.74,1.74,0,0,0,1.18.52A5,5,0,0,0,34.12,40a13.07,13.07,0,0,1,3-.15A3.86,3.86,0,0,1,38,40a3.27,3.27,0,0,1,.82.52,2.62,2.62,0,0,1,.73,1.91c.15,0,.3-.07.3-.22A5.53,5.53,0,0,0,40.68,40.45Z"/><path class="cls-53" d="M40.17,38.46a3.26,3.26,0,0,0-.3-.88,2.89,2.89,0,0,0-1.69-1.4A4.58,4.58,0,0,0,36,36a1.93,1.93,0,0,0-.88.23c-1,.44-1.48,1.4-2.14,2.13,0,0,.59.15.66.15a1.71,1.71,0,0,0,.59-.07L35.52,38a4.37,4.37,0,0,1,2.58.29,2.61,2.61,0,0,1,.67.3A3.14,3.14,0,0,1,40,39.86,3.37,3.37,0,0,0,40.17,38.46Z"/><path class="cls-39" d="M47.54,50.56a6.8,6.8,0,0,0-.15,1.18c-.14,1-.22,2.14-.36,3.17-.08.66-.23,1.33-.37,2s-.37,1.11-.52,1.62c-.66,1.7-1.33,3.4-2,5.09-.3.67-.66,1.33-1,2,0,.08-.07.23-.15.23a1.89,1.89,0,0,1-.88.07,2.81,2.81,0,0,1-1.7-.81v-.22l.22-.89a7.36,7.36,0,0,0,.59-1.4,8.68,8.68,0,0,1,.45-1.33c.29-.88.51-1.84.73-2.8A14.81,14.81,0,0,0,42.9,56c.14-1,.44-1.92.59-2.88s.14-2.29.22-3.47-.52-2.36-.22-3.61a1.91,1.91,0,0,1,.88-1.26c.15-.07.37-.14.52-.22a.68.68,0,0,1,.37-.07,1.77,1.77,0,0,1,1.32.52,3.22,3.22,0,0,1,1,1.62A14.11,14.11,0,0,1,47.54,50.56Z"/><path class="cls-38" d="M47.54,50.56a6.8,6.8,0,0,0-.15,1.18c-.14,1-.22,2.14-.36,3.17-.08.66-.23,1.33-.37,2s-.37,1.11-.52,1.62c-.66,1.7-1.33,3.4-2,5.09-.3.67-.66,1.33-1,2,0,.08-.07.23-.15.23a1.89,1.89,0,0,1-.88.07,2.81,2.81,0,0,1-1.7-.81v-.22a2.9,2.9,0,0,0,1.55.22,2.47,2.47,0,0,0,1.11-.81,11.88,11.88,0,0,0,2.43-6.35,1,1,0,0,0-.22-.88,1,1,0,0,0-.44-.15l-1.48-.37a3,3,0,0,0,2.36-.37A3.34,3.34,0,0,0,46.58,54c.15-1.47.3-3,.45-4.35a6.18,6.18,0,0,0-.37-3.61,2.65,2.65,0,0,0-1.4-1.26v-.07a1.77,1.77,0,0,1,1.32.52,3.22,3.22,0,0,1,1,1.62A12.74,12.74,0,0,1,47.54,50.56Z"/><polygon class="cls-54" points="6.12 92.38 44.69 109.12 45.13 80.7 6.56 63.96 6.12 92.38"/><path class="cls-4" d="M25.64,89.5a.15.15,0,0,0,.14-.15v-.07l-.07-.07A14.89,14.89,0,0,1,26,86c.22-1.18.44-2.28.66-3.46.29-1.62.66-3.25,1-4.87a25.42,25.42,0,0,0,.15-8.48,12.21,12.21,0,0,0-.59-2.29l-.45-.88c-.07-.15-.14-.22-.22-.37l-.15-.15c-.07-.07-.22-.29-.29-.15s-.07.15,0,.15l.15.15c.07.15.22.22.29.37a3.78,3.78,0,0,1,.44.81,7.89,7.89,0,0,1,.59,2.21v.07a26.62,26.62,0,0,1-.22,8.41c-.29,1.62-.59,3.32-1,4.87-.22,1.11-.51,2.29-.73,3.47a13.1,13.1,0,0,0-.3,3.39v.07Z"/><path class="cls-2" d="M25.27,89.65h0v.15c0,.07,0,.07.07.14s.08.15.15.22.15.08.22.15a1,1,0,0,0,.52.15.23.23,0,0,0,.22-.22,1.7,1.7,0,0,0,.29-.37c.22-.37.52-.74.74-1.11a4.34,4.34,0,0,1,.37-.59c.15-.29,1-3.46,1.4-4.94h0V83h0v-.07l-.07-.08a.29.29,0,0,0-.15-.07,1,1,0,0,0-.66-.07.77.77,0,0,0-.37.14.08.08,0,0,0-.08.08V83h0v.15h0c-.29,1-1.18,4-1.18,4a3.59,3.59,0,0,1-1,1.63l-.07.07a3.13,3.13,0,0,0-.37.66v.15C25.42,89.65,25.27,89.65,25.27,89.65Z"/><path class="cls-3" d="M25.93,90.31c.08,0,.15-.07.22-.15s.15-.22.3-.36a11.89,11.89,0,0,0,.74-1.11,4.36,4.36,0,0,1,.36-.59L29,83.16h0v-.22h0L29,82.86H29c.07,0,.07.08.15.08l.07.07v.07h0v.23h0c-.44,1.47-1.4,4.94-1.4,4.94a4.34,4.34,0,0,1-.37.59,8.83,8.83,0,0,1-.74,1.1,1.17,1.17,0,0,1-.29.37l-.22.22a.74.74,0,0,1-.52-.14l-.07-.08Z"/><path class="cls-15" d="M25.27,89.65h0c.07.29.44-.15.59-.3a1.82,1.82,0,0,0,.51-.59,5.85,5.85,0,0,0,.74-1.32c.08-.3.15-.59.22-.82.3-1.18.67-2.43.89-3.61l.07-.37c-.15,0-.22.08-.37.15a.07.07,0,0,0-.07.07v.08h0v.14h0c-.3,1-1.18,4-1.18,4.06a3.69,3.69,0,0,1-1,1.62l-.07.08a2.74,2.74,0,0,0-.37.66C25.34,89.5,25.34,89.57,25.27,89.65Z"/><path class="cls-2" d="M18.41,94.15c0,6,3.61,8.7,8.11,6.12s8.11-9.52,8.11-15.49S31,76,26.52,78.58,18.41,88.17,18.41,94.15Zm1.4.14c0-5.67,3-12,7.23-14.45a6.32,6.32,0,0,1,2.73-1.11c2.36,0,4.13,2.58,4.13,6.27,0,5.68-3.62,12-7.82,14.38a5.11,5.11,0,0,1-2.73.82,3,3,0,0,1-2.65-1.48C19.81,97.69,19.81,96.29,19.81,94.29Z"/><path class="cls-3" d="M19.29,94.66c0,6,3.62,8.71,8.12,6.13s8.11-9.52,8.11-15.49-3.61-8.71-8.11-6.13S19.29,88.69,19.29,94.66Zm1,0c0-5.68,3.39-12.24,7.59-14.67a5,5,0,0,1,2.73-.74c2.36,0,3.91,2.29,3.91,6C34.56,91,31.17,97.54,27,100a5.1,5.1,0,0,1-2.72.82,3.15,3.15,0,0,1-2.73-1.48A7.88,7.88,0,0,1,20.33,94.66Z"/><path class="cls-4" d="M20.55,94.74a7.53,7.53,0,0,0,1.18,4.57,3.19,3.19,0,0,0,2.65,1.48A5.41,5.41,0,0,0,27,100c4.13-2.43,7.52-8.92,7.52-14.45,0-3.69-1.47-6-3.83-6a4.86,4.86,0,0,0-2.66.81C23.94,82.72,20.55,89.21,20.55,94.74Zm0,.14c-.44-5.16,3.83-12.61,7.59-14.82a8.12,8.12,0,0,1,2.95-.74c1.7,0,3.1,3,3.1,6.12,0,5.17-3.54,12-7.3,14.17a8,8,0,0,1-2.58,1,3.79,3.79,0,0,1-2.51-1.26A10.11,10.11,0,0,1,20.55,94.88Z"/><path class="cls-5" d="M20.4,94.37c0,1.92.15,3.39,1,4.5a2.92,2.92,0,0,0,2.43,1.62,5.1,5.1,0,0,0,2.73-.81c4.21-2.44,7.6-9,7.6-14.68,0-3.69-1.55-5.6-3.91-5.6a6.15,6.15,0,0,0-2.66,1.25C23.42,83,20.4,88.69,20.4,94.37Zm0,0c0-5.46,3.32-11.88,7.38-14.24a4.91,4.91,0,0,1,2.43-.73c2.06,0,3.39,2.21,3.39,5.6,0,5.46-3.32,11.88-7.37,14.24a5,5,0,0,1-2.44.73,2.53,2.53,0,0,1-2.28-1.25A7.58,7.58,0,0,1,20.4,94.37Z"/><path class="cls-3" d="M26.67,81.24V99.31h.07V81.24Z"/><path class="cls-3" d="M24.09,100.42h.07L26.6,90.24l.07-.22h0v-.08h0v-.22L29,80l-.07.07-2.22,9.22-.07.29v.08h0v.07h0v.08h0V90l-.07.37Z"/><path class="cls-3" d="M22,99.46l.08.07,4.35-9,.15-.29.07-.15h0V90h0v-.08h0v-.07l.07-.22,4.94-10.11h-.07L26.74,89.72h0v.08h0v.07l-.14.22-.08.07Z"/><path class="cls-3" d="M26.45,90.16,20.92,97v.08l5.68-6.94.07-.07.07-.07h0v-.08h0l.08-.07L33.23,82l-.07-.08L27,89.5l-.22.22h0v.08Z"/><path class="cls-3" d="M20.33,94.88l6.12-4.72.15-.07.07-.07h0l.07-.08.15-.14,7-5.39-.08-.07-6.93,5.31-.07.07-.08.08h0l-.37.22-6.12,4.72A.21.21,0,0,1,20.33,94.88Z"/><polygon class="cls-3" points="20.55 92.75 26.45 90.02 26.6 90.02 26.6 90.02 26.67 89.94 26.67 89.94 26.67 89.94 26.67 89.94 26.67 89.94 26.67 89.94 26.67 89.94 26.67 89.94 26.67 89.94 26.74 89.94 26.74 89.94 26.74 89.94 26.74 89.94 26.74 89.94 26.74 89.94 26.74 89.94 26.74 89.94 26.74 89.87 26.74 89.87 26.82 89.87 26.82 89.87 27.04 89.8 33.9 86.62 33.82 86.55 27.04 89.72 26.82 89.8 26.82 89.8 26.74 89.8 26.74 89.87 26.74 89.87 26.74 89.87 26.74 89.87 26.74 89.87 26.74 89.87 26.67 89.87 26.67 89.87 26.67 89.87 26.67 89.87 26.67 89.87 26.67 89.87 26.67 89.87 26.67 89.87 26.67 89.87 26.67 89.87 26.6 89.87 26.6 89.87 26.6 89.87 26.6 89.94 26.52 89.94 26.37 90.02 20.55 92.67 20.55 92.75"/><path class="cls-3" d="M20.84,91.12l5.53-1.18.15-.07h.3l6.56-1.4v.07l-6.49,1.33h-.52l-.29.07-5.31,1.18Z"/><path class="cls-3" d="M21.06,89.87l5.17.15h.88l6,.14v-.07l-6.2-.15h-.44l-5.39-.07Z"/><path class="cls-3" d="M21.65,88.69l4.8,1.18H27l5.68,1.47v-.07l-5.53-1.4-.3-.07H26.6l-.23-.08-4.72-1Z"/><path class="cls-3" d="M22.1,87.58l4.2,2.22.22.07h.3l.14.07,5.09,2.66v-.08l-5.16-2.65-.07-.07-.08-.08H26.6l-.15-.07-4.28-2.21Z"/><path class="cls-3" d="M22.61,86.4l3.84,3.32.07.08.08.07h.07l.07.07.15.08,4.5,3.83.07-.07L27,89.94l-.15-.14h0l-.07-.08h0l-.22-.15-4-3.17Z"/><path class="cls-3" d="M23.28,85.3l3.24,4.42.08.15h0l.14.15,3.69,5L30.5,95l-3.68-5-.08-.14-.07-.08v-.07h0v-.08h0l-.07-.07-3.25-4.42Z"/><path class="cls-3" d="M24.09,83.9l2.43,5.75.08.15h0V90l3,6.71h.07l-2.8-6.42-.07-.22V90h0v-.08h0v-.07h0l-.08-.15-2.58-5.9Z"/><path class="cls-3" d="M25.34,82.49l1.26,7v.3h0v.07l.07.37,1.47,8h.08l-1.4-8V90h0v-.3l-1.4-7.23Z"/><path class="cls-6" d="M20.25,94.66a8.61,8.61,0,0,0,1.18,4.65,3.16,3.16,0,0,0,2.73,1.48,5.92,5.92,0,0,0,2.73-.82c4.2-2.43,7.6-9,7.6-14.67,0-3.69-1.55-6.13-3.91-6.13a5.17,5.17,0,0,0-2.58.67C23.57,82.13,20.25,89,20.25,94.66Zm.52,0c0-5.45,3.32-11.87,7.37-14.23a5,5,0,0,1,2.44-.74c2.06,0,3.39,2.21,3.39,5.61,0,5.45-3.32,11.87-7.37,14.23a5,5,0,0,1-2.44.74A2.61,2.61,0,0,1,21.88,99,7.4,7.4,0,0,1,20.77,94.66Z"/><path class="cls-7" d="M29,89v-.07c0-.07-.08-.07-.08-.07s-.15-.15-.15-.22v-.23a.07.07,0,0,1,.08-.07l.07-.07H29l.07-.08c0-.07.07-.07.07-.14v-.3c0-.07,0-.15-.07-.15h-.15c-.15.08-.29,0-.29-.22v-.22c.14-.29,0-.52-.22-.44l-.15.15c-.15.22-.44.22-.44-.08h0c0-.37-.37-.29-.52.15a.91.91,0,0,1-.22.29c-.08.08-.15.08-.22,0h0c-.15-.22-.52.08-.52.45h0a.48.48,0,0,1-.29.51h-.15c-.22-.07-.44.3-.44.59,0,.08,0,.15.07.15a.59.59,0,0,1-.22.66h-.08a.78.78,0,0,0-.29.52c0,.15.07.22.15.22s.14.08.14.22a1.12,1.12,0,0,1-.14.45c-.22.29-.15.81.14.59h0c.15-.08.3,0,.3.22V92c-.15.37,0,.51.22.44.07,0,.15,0,.15-.07.15-.22.37-.3.37,0h0c0,.22.14.29.29.22s.22-.15.22-.3a.44.44,0,0,1,.22-.37.15.15,0,0,1,.23,0h0a.07.07,0,0,0,.07.08h.15l.07-.08.07-.07h0v-.44h0c0-.22.15-.3.3-.44s.07-.15.15-.15h.22l.07-.08.08-.07v-.07h0c0-.08,0-.15-.08-.15v-.15a.22.22,0,0,0,.08-.15v-.22l.07-.07a.07.07,0,0,1,.07-.07h.15l.07-.08a.26.26,0,0,0,.23-.37v-.22h0Zm-.3-1.25a.09.09,0,0,1,.15.07.57.57,0,0,1-.15.3c-.07.07-.15,0-.15-.15S28.59,87.8,28.66,87.73Zm-.29,0a.26.26,0,0,1-.08.22c-.07,0-.07,0-.07-.07s.07-.15.07-.22.08,0,.08.07Zm-2.81,3.76c0,.08-.07.15-.07.22s-.07,0-.07-.07.07-.15.07-.22S25.56,91.42,25.56,91.49Zm0-.74h0v-.44a1.1,1.1,0,0,1,.15-.44.07.07,0,0,1,.07-.07h.15c.08.07.15.14.22.14a.22.22,0,0,0,.3,0c.07-.07.15-.07.22-.14s.22-.15.22-.08-.07.15-.07.22-.08.15-.15.22-.22.3-.3.45l-.22.22a.45.45,0,0,1-.29.07c-.15-.07-.22-.07-.3-.15Zm2.51-2.65v.44c0,.08-.07.08-.15.15l-.29.07a1.37,1.37,0,0,0-.3.22.62.62,0,0,0-.14.3c0,.07-.15.29-.15.22V89a1.29,1.29,0,0,1,.15-.51.59.59,0,0,1,.14-.3,1.15,1.15,0,0,1,.3-.29c.07,0,.07-.08.15-.08m0,.08a.07.07,0,0,1,.07.07c.07.08.15.08.15.15Zm-1,.74a.43.43,0,0,0,0,.44c0,.07.07.15.07.22s.07.22,0,.22H26.6a.51.51,0,0,1-.3-.15c-.07-.07-.07-.07-.07-.14a.45.45,0,0,1,0-.45c0-.07.07-.14.07-.22v-.07a.25.25,0,0,1,.07-.15l.23-.22c.07-.07.14-.07.29-.07H27v.14a1.12,1.12,0,0,0-.14.45ZM27,90.16a.9.9,0,0,1,.08.45v.29a1.67,1.67,0,0,1-.37.67H26.6c-.08,0-.08.07-.15.07h-.22c-.08,0-.15-.07-.22-.15v-.07a.25.25,0,0,1,.07-.15,1.34,1.34,0,0,1,.29-.37l.23-.44a.49.49,0,0,1,.07-.3c0-.07,0-.29.07-.29s.08.07.08.15.14.07.14.14Zm.67.45h0c-.15,0-.15-.08-.15-.08a.86.86,0,0,0-.07-.37.58.58,0,0,0-.15-.29H27s-.22,0-.15-.07.07-.15.15-.15.15-.08.22-.15a.57.57,0,0,1,.37-.15h.22c.07.08.15.15.15.22v.3c0,.07,0,.15-.08.15s-.07.22-.14.37-.08.14-.15.22Zm.59-3.69a.09.09,0,0,1,.15.07.61.61,0,0,1-.15.3c-.08.07-.15,0-.15-.15s0-.15.15-.22Zm-.52.29c.08,0,.08,0,.08.08s-.08.15-.08.22-.07,0-.07-.07,0-.23.07-.23ZM27.26,87h0l.07-.14v-.08h.08c.07,0,.07.08.07.15a.51.51,0,0,1-.15.29.07.07,0,0,1-.07-.07h0V87Zm-.3.37c.08,0,.08,0,.08.08a.26.26,0,0,1-.08.22c-.07,0-.07,0-.07-.08s-.07-.14.07-.22Zm-.51,0c.07-.07.15,0,.15.08a.58.58,0,0,1-.15.29c-.08.07-.15,0-.15-.07s0-.22.15-.3Zm-.3.81h0a.32.32,0,0,1-.07.22H26v-.07a.16.16,0,0,1,.14-.15Zm-.66.45c0-.08,0-.08.07-.15v-.08h0c.08,0,.08.08.08.15a.61.61,0,0,1-.15.3h-.07v-.08A.24.24,0,0,1,25.49,88.62Zm0,.73c0-.07.07,0,0,0,.07.15,0,.22-.07.22h0V89.5h0C25.49,89.5,25.49,89.43,25.49,89.35Zm-.44.89c-.08.07-.15,0-.15-.08a.51.51,0,0,1,.15-.29c.07-.07.14,0,.14.15A1.28,1.28,0,0,1,25.05,90.24Zm0,1.25c-.08.08-.15,0-.15-.15a.51.51,0,0,1,.15-.29c.07-.07.14,0,.14.07A.44.44,0,0,1,25.05,91.49Zm.22-.81c-.08,0-.08,0-.08-.07s.08-.15.08-.22.07,0,.07.07,0,.22-.07.22Zm.22,1.7c-.07.07-.15,0-.15-.08a.29.29,0,0,1,.15-.29c.07-.08.15,0,.15.07s0,.22-.15.3Zm.59-.3c-.07.08-.07,0-.07-.07s.07-.15.07-.22.07,0,.07.07a.28.28,0,0,1-.07.22Zm.29.44c-.07.08-.14,0-.14-.07a.56.56,0,0,1,.14-.29c.08-.08.15,0,.15.07a.35.35,0,0,1-.15.29Zm.45-.66c-.08,0-.08,0-.08-.07a.25.25,0,0,1,.08-.22c.07,0,.07,0,.07.07s0,.22-.07.22Zm.51.15c-.07.07-.14,0-.14-.08a.56.56,0,0,1,.14-.29c.08-.07.15,0,.15.07a.53.53,0,0,1-.15.3Zm.37-.89c-.07,0-.07,0-.07-.07s.07-.15.07-.22.08,0,.08.07,0,.15-.08.22Zm.52-.29c-.08.07-.15,0-.15-.15a.51.51,0,0,1,.15-.29c.07-.08.15,0,.15.07A.46.46,0,0,1,28.22,90.83Zm0-.81c-.08,0-.08,0-.08-.08a.26.26,0,0,1,.08-.22c.07,0,.07,0,.07.08s.08.22-.07.22Zm.22-1.18c-.07,0-.07,0-.07-.08s.07-.14.07-.22.07,0,.07.08,0,.22-.07.22Zm.22.51c-.07.08-.15,0-.15-.07a.65.65,0,0,1,.15-.3c.07-.07.15,0,.15.15a.43.43,0,0,1-.08.3Z"/><path class="cls-8" d="M28.88,88.91c-.07,0-.15-.15-.15-.22a.57.57,0,0,1,.15-.37c.22-.29.15-.74-.15-.59h0c-.14.07-.29,0-.29-.22a.28.28,0,0,1,.07-.22c.15-.3-.07-.52-.22-.44l-.15.14c-.14.22-.44.22-.44-.07h0c0-.37-.37-.3-.51.07a1.11,1.11,0,0,1-.23.3c-.07.07-.14.07-.22-.08s-.51.08-.51.45h0a.49.49,0,0,1-.3.51h-.15c-.22-.07-.44.3-.44.59,0,.08,0,.15.08.15a.58.58,0,0,1-.23.66h0a.78.78,0,0,0-.29.52c0,.15.07.22.15.22s.14.15.14.22a1.12,1.12,0,0,1-.14.45c-.22.29-.15.73.14.59h0c.15-.08.3,0,.3.22a.29.29,0,0,1-.07.22c-.15.29.07.51.22.44s.07-.07.14-.15.45-.22.45.08h0c0,.22.14.29.29.22a.39.39,0,0,0,.22-.3A1.27,1.27,0,0,1,27,92a.14.14,0,0,1,.23,0h0c.14.22.51-.08.51-.44h0a.49.49,0,0,1,.3-.52h.14c.23.07.45-.3.45-.59v-.15a.58.58,0,0,1,.22-.66h0a.75.75,0,0,0,.29-.52C29,89,29,88.91,28.88,88.91Zm-.07-1.11c.07-.07.15,0,.15.08a.58.58,0,0,1-.15.29c-.08.08-.15,0-.15-.14S28.73,87.88,28.81,87.8Zm-.3,0c0,.08-.07.15-.07.23s-.07,0-.07-.08.07-.15.07-.22.07,0,.07.07Zm-2.8,3.77c0,.07-.07.14-.07.22s-.08,0-.08-.08.08-.14.08-.22S25.71,91.49,25.71,91.57Zm0-.74h0v-.44a1,1,0,0,1,.15-.45.07.07,0,0,1,.07-.07h.15c.07.07.15.15.22.15a.24.24,0,0,0,.3,0c.07-.08.14-.08.22-.15s.22-.15.22-.07S27,89.94,27,90s-.07.14-.14.22-.22.29-.3.44-.15.15-.22.15a.45.45,0,0,1-.29.07c-.23,0-.3,0-.3-.07Zm2.43-2.66a.62.62,0,0,1,.08.37v.08c0,.07-.08.07-.15.14a.4.4,0,0,1-.29.08.83.83,0,0,0-.3.22.58.58,0,0,0-.15.29c0,.08-.14.3-.14.22v-.51a1.44,1.44,0,0,1,.14-.52.58.58,0,0,1,.15-.29c.07-.15.22-.22.3-.3s.07-.07.14-.07h0c.08,0,.08,0,.08.07S28.14,88.1,28.14,88.17Zm-1.25.52a.49.49,0,0,0,0,.44c0,.08.07.15.07.22s.08.22,0,.22h-.29a.62.62,0,0,1-.3-.14l-.14-.15v-.44c0-.08.07-.15.07-.22v-.08a.29.29,0,0,1,.07-.15l.23-.22c.07-.07.14-.07.29-.07H27v.15A1.15,1.15,0,0,1,26.89,88.69Zm.22,1.47a.9.9,0,0,1,.08.45v.29a.62.62,0,0,1-.23.44c-.07.08-.07.15-.14.15h-.08c-.07,0-.07.08-.14.08h-.23c-.07,0-.14-.08-.22-.15v-.08c0-.07,0-.14.08-.14.07-.15.22-.22.29-.37l.22-.44c0-.08.08-.23.08-.3s0-.29.07-.29.07.07.07.14S27,90.09,27.11,90.16Zm.59.52h0a.09.09,0,0,1-.15-.07c0-.08,0-.3-.07-.37a.53.53,0,0,0-.15-.3h-.22s-.15,0-.15-.07.08-.15.15-.15l.15-.15c.15-.07.22-.14.37-.14h.22l.22.22v.29c0,.08,0,.15-.07.15s-.08.22-.15.37S27.78,90.61,27.7,90.68ZM28.29,87c.08-.07.15,0,.15.08a.51.51,0,0,1-.15.29c-.07.08-.15,0-.15-.15s.08-.14.15-.22Zm-.51.22c.07,0,.07,0,.07.08a.28.28,0,0,1-.07.22c-.08,0-.08,0-.08-.07a.27.27,0,0,1,.08-.23Zm-.37-.36c.07-.08.14,0,.14.07a.56.56,0,0,1-.14.29c-.08.08-.15,0-.15-.14s.07-.15.15-.22Zm-.45.59c.08,0,.08,0,.08.07s-.08.15-.08.22-.07,0-.07-.07a.32.32,0,0,1,.07-.22Zm-.44,0c.08-.08.15,0,.15.14a.53.53,0,0,1-.15.3c-.07.07-.15,0-.15-.08s0-.36.15-.36Zm-.37.81c.08,0,.08,0,.08.07s-.08.15-.08.22-.07,0-.07-.07,0-.22.07-.22Zm-.51.29c.07-.07.14,0,.14.08a.56.56,0,0,1-.14.29c-.08.07-.15,0-.15-.07s.07-.3.15-.3Zm-.08.81c.08,0,.08,0,.08.08s-.08.14-.08.22-.07,0-.07-.08S25.49,89.35,25.56,89.35Zm-.37.89c-.07.07-.14,0-.14-.08a.56.56,0,0,1,.14-.29c.08-.07.15,0,.15.07s-.07.3-.15.3Zm0,1.33c-.07.07-.14,0-.14-.15a.59.59,0,0,1,.14-.3c.08-.07.15,0,.15.08A.43.43,0,0,1,25.19,91.57Zm.23-.82c-.08,0-.08,0-.08-.07s.08-.15.08-.22.07,0,.07.07,0,.22-.07.22Zm.22,1.7c-.08.07-.15,0-.15-.15a.51.51,0,0,1,.15-.29c.07-.08.14,0,.14.07a.44.44,0,0,1-.14.37Zm.51-.29c-.07,0-.07,0-.07-.08s.07-.15.07-.22.08,0,.08.07,0,.15-.08.23Zm.37.44c-.07.07-.15,0-.15-.08a.58.58,0,0,1,.15-.29c.08-.07.15,0,.15.07a.38.38,0,0,1-.15.3Zm.44-.67c-.07,0-.07,0-.07-.07s.07-.15.07-.22.08,0,.08.07,0,.15-.08.22Zm.52.08c-.07.07-.15,0-.15-.08a.58.58,0,0,1,.15-.29c.07-.07.15,0,.15.15s-.08.22-.15.22Zm.3-.81c-.08,0-.08,0-.08-.08s.08-.14.08-.22.07,0,.07.08,0,.14-.07.22Zm.51-.3c-.07.08-.15,0-.15-.15a.58.58,0,0,1,.15-.29c.08-.07.15,0,.15.07s0,.3-.15.37Zm.08-.81c-.08,0-.08,0-.08-.07s.08-.15.08-.22.07,0,.07.07A.28.28,0,0,1,28.37,90.09Zm.22-1.18c-.08,0-.08,0-.08-.07a.25.25,0,0,1,.08-.22c.07,0,.07,0,.07.07s0,.22-.07.22Zm.22.52c-.08.07-.15,0-.15-.08a.51.51,0,0,1,.15-.29c.07-.08.15,0,.15.07s-.08.3-.15.3Z"/><path class="cls-14" d="M28,89.8l-.81-.52H27a.87.87,0,0,0-.36.66c0,.15,0,.22.14.3l.81.51h.08a.87.87,0,0,0,.37-.66V89.8Z"/><path class="cls-17" d="M28.14,90.09a.75.75,0,0,1-.36.66c-.23.08-.37,0-.37-.29a.74.74,0,0,1,.37-.66C28,89.72,28.14,89.87,28.14,90.09Z"/><path class="cls-2" d="M27,90.24h0v.15c0,.07,0,.07.07.14s.08.15.15.22.15.08.22.15a1,1,0,0,0,.52.15.23.23,0,0,0,.22-.22,1.34,1.34,0,0,1,.29-.37,8.92,8.92,0,0,0,.74-1.11,4.34,4.34,0,0,1,.37-.59s1-3.46,1.4-4.94h0V83.6h0v-.07L31,83.45l-.22-.07a2.22,2.22,0,0,0-.67-.07c-.15,0-.22.07-.37.14a.07.07,0,0,0-.07.08h0v.14h0c-.3,1-1.18,4-1.18,4.06a4.36,4.36,0,0,1-1,1.7l-.07.07a2.74,2.74,0,0,0-.37.66v.08Z"/><path class="cls-3" d="M27.7,90.9c.15,0,.15-.07.22-.15s.15-.22.3-.36c.22-.37.51-.74.74-1.11a4.36,4.36,0,0,1,.36-.59s1-3.47,1.41-4.94h0v-.22h0v-.15h.07l.15.07.07.08v.07h0v.22h0c-.44,1.48-1.4,4.94-1.4,4.94a3.79,3.79,0,0,1-.37.59,8.92,8.92,0,0,1-.74,1.11,1.17,1.17,0,0,1-.29.37l-.22.22a.7.7,0,0,1-.52-.15l-.07-.07C27.48,90.9,27.55,90.9,27.7,90.9Z"/><path class="cls-15" d="M27,90.24h0c.07.29.44-.15.59-.3a1.82,1.82,0,0,0,.51-.59A5.85,5.85,0,0,0,28.88,88c.08-.3.15-.59.22-.82.3-1.18.67-2.36.89-3.61l.15-.37c-.15,0-.23.08-.37.15s-.08,0-.08.07h0v.15h0c-.29,1-1.18,4-1.18,4.06a3.58,3.58,0,0,1-1,1.77l-.07.07a2.74,2.74,0,0,0-.37.66Z"/><path class="cls-19" d="M26.89,90.68c0,.44.22.74.52.74a.64.64,0,0,0,.37-.08,1.67,1.67,0,0,0,.59-.66,2.47,2.47,0,0,0,.29-1c0-.59-.44-.88-.88-.66A1.94,1.94,0,0,0,26.89,90.68Zm1.4-1c0-.15-.07-.29-.22-.29H28c-.08,0-.08-.08,0-.15s.07-.07.07-.15h.15c.07,0,.15.08.22.15s.07.15.07.29v.15a.27.27,0,0,1-.07.22h0c-.07,0-.07,0-.07-.07Zm-1,1.48c0-.08.07-.08.07-.15h.15a.48.48,0,0,0,.37-.3l.07-.07c.08-.07.08-.07.15,0h0v.07c0,.08,0,.15-.07.15l-.08.08c-.07.14-.22.22-.29.29a.29.29,0,0,1-.22.07h-.15V91.2ZM27,90.83v-.15a1,1,0,0,1,.07-.44,1.64,1.64,0,0,1,.15-.3l.07-.22c.08-.07.08-.15.08-.07v.22l-.08.15a1.42,1.42,0,0,0-.14.59v.14a.22.22,0,0,0-.15.08Z"/><path class="cls-3" d="M27.78,89.13A1.93,1.93,0,0,0,27,90.68c0,.59.37.89.82.59a1.94,1.94,0,0,0,.81-1.55C28.66,89.13,28.29,88.91,27.78,89.13Zm-.52,1.48c0,.07-.07.14-.15.22s-.07,0-.07-.08h0v-.14a1.52,1.52,0,0,1,.07-.52c.08-.15.08-.22.15-.37l.07-.15c.08-.07.08-.07.15-.07v.07c0,.08,0,.08-.07.15l-.08.15a1.46,1.46,0,0,0-.14.59Zm1,.22-.08.07c-.07.15-.22.22-.29.3a.28.28,0,0,1-.22.07h-.08c-.07,0-.07-.07-.07-.15a.24.24,0,0,1,.07-.14h.15a.59.59,0,0,0,.37-.23l.07-.07c.08-.07.15-.07.15,0v.07l-.07.08Zm.29-.89h0c-.07,0-.07,0-.07-.07v-.15c0-.15-.07-.29-.22-.29h-.08c-.07,0-.07-.08,0-.15s.08-.07.08-.07h.15c.07,0,.14.07.22.22s.07.14.07.29v.15a.25.25,0,0,1-.15.07Z"/><path class="cls-4" d="M28,90.09l.22-1.33c.44-2.5.81-5.09,1.47-7.52.08-.29.22-.66.3-1a1.1,1.1,0,0,0,.15-.52l1.18-3.68c.36-1.11.73-2.22,1.18-3.25a3.71,3.71,0,0,1,1-1.4A1.67,1.67,0,0,1,35,71.06l.08-.22a2,2,0,0,0-1.77.44,4.24,4.24,0,0,0-1,1.48,26.1,26.1,0,0,0-1.18,3.32l-1.18,3.68a5.27,5.27,0,0,0-.14.52c-.08.3-.22.67-.3,1A70.2,70.2,0,0,0,28,88.84l-.22,1.32Z"/><path class="cls-14" d="M28.29,89.94l-.22-.14H28c-.08-.08-.15-.08-.22,0a1,1,0,0,0-.45.81.62.62,0,0,0,.15.37l.22.14v-.07h.08a1,1,0,0,0,.44-.81.59.59,0,0,0,.07-.3Z"/><path class="cls-17" d="M28.44,90.24a1.2,1.2,0,0,1-.37.81c-.22.15-.44,0-.44-.3a1,1,0,0,1,.44-.81C28.22,89.8,28.44,89.94,28.44,90.24Z"/></g></g><path class="cls-55" d="M49.42,10.2a9.69,9.69,0,0,1-8.12,9.57l-1.85,5.88-1.93-6a9.7,9.7,0,1,1,11.9-9.44Z"/><path class="cls-56" d="M39.72,13a2.54,2.54,0,1,1,2.54-2.53A2.53,2.53,0,0,1,39.72,13Zm0-6.16a3.63,3.63,0,1,0,3.63,3.63A3.62,3.62,0,0,0,39.72,6.82Z"/><path class="cls-57" d="M19.89,60.37a9.7,9.7,0,0,1-8.12,9.57L9.92,75.82,8,69.81a9.7,9.7,0,1,1,11.9-9.44Z"/><polygon class="cls-56" points="13.42 57.92 12.5 57.01 10.2 59.31 7.89 57.01 6.97 57.92 9.28 60.23 6.97 62.53 7.89 63.45 10.2 61.15 12.5 63.45 13.42 62.53 11.12 60.23 13.42 57.92"/></g></svg>