<svg xmlns="http://www.w3.org/2000/svg" xmlns:xlink="http://www.w3.org/1999/xlink" viewBox="0 0 72.98 113.99"><defs><style>.cls-1,.cls-2,.cls-6{fill:none;}.cls-2,.cls-40{stroke:#000;}.cls-2,.cls-6{stroke-miterlimit:10;}.cls-3{fill:#576772;}.cls-4{fill:#687e87;}.cls-5{fill:#728892;}.cls-39,.cls-6{stroke:#fc1717;}.cls-7{fill:#fc1717;}.cls-8{opacity:0.2;}.cls-9{fill:#5d5d5d;}.cls-10{fill:#f7ad0c;}.cls-11{fill:#eda006;}.cls-12{fill:#f4b80f;}.cls-13{fill:#492e29;}.cls-14{fill:#3d2415;}.cls-15{fill:#331c11;}.cls-16{fill:#492817;}.cls-17,.cls-38{fill:#f1b287;}.cls-18,.cls-25{fill:#e8a476;}.cls-19{fill:#d32420;}.cls-20{fill:#e03128;}.cls-21{fill:#1d374e;}.cls-22{fill:#172e3f;}.cls-23{fill:#23435b;}.cls-24{fill:#db9669;}.cls-25,.cls-38{fill-rule:evenodd;}.cls-26{fill:#3f210a;}.cls-27{fill:#4f2b0c;}.cls-28{fill:#361d07;}.cls-29{fill:#301808;}.cls-30{fill:#4c260c;}.cls-31{fill:#ed602b;}.cls-32{fill:#df3f29;}.cls-33,.cls-39,.cls-40{fill:#fff;}.cls-34{clip-path:url(#clip-path);}.cls-35{fill:#feffff;}.cls-36{fill:#553730;}.cls-37{fill:#141b1f;}.cls-39,.cls-40{stroke-linecap:round;stroke-linejoin:round;}.cls-40{stroke-dasharray:1 3;}.cls-41{fill:#ff5a79;}</style><clipPath id="clip-path"><path class="cls-1" d="M58.19,34.24c.06,0,.11,0,.17.11s0,.11.11.22a1.36,1.36,0,0,1-.06.66,1.39,1.39,0,0,1-.88.89c-.11.06-.23,0-.34-.06a.41.41,0,0,1-.22-.44,1.64,1.64,0,0,1,.72-1.33.53.53,0,0,1,.06.22,1.25,1.25,0,0,0-.56,1c0,.33.28.5.61.28a1.22,1.22,0,0,0,.56-1c0-.33-.28-.5-.61-.28a.53.53,0,0,0-.06-.22C57.75,34.18,58,34.18,58.19,34.24Z"/></clipPath></defs><g id="Layer_2" data-name="Layer 2"><g id="Layer_2-2" data-name="Layer 2"><g id="Layer_1-2" data-name="Layer 1-2"><polygon class="cls-2" points="5.48 77.96 49.85 96.9 49.85 52.48 5.53 33.54 5.48 77.96"/><path class="cls-3" d="M41.79,63.76V67.7c0,.66-2.32,3-2.32,3l-.22-6.1,1.44-.83Z"/><path class="cls-4" d="M40,65.92l.05.83s-.44,3.88-.55,3.94-1.78,0-2,0a46.78,46.78,0,0,1-3.88-3V65.48s4.65-1.66,4.76-1.66S40,65.92,40,65.92Z"/><path class="cls-5" d="M33.54,65.48l.22-1,1.72-2.11s2.77.22,3.27.28a12.37,12.37,0,0,1,1.44.39s1.55.44,1.55.72-.33.5-.33.5H40.35l.83.44L41,65.2,40.41,65l.39.55-.61,1-.22.23s-1.72,0-2.22,0a12.75,12.75,0,0,1-2.16-1.06A8.22,8.22,0,0,0,33.54,65.48Z"/><path class="cls-4" d="M27.56,68.42l1.22,5.81L32,76.12s-.45-6.93-.78-7.26-1.71-1.61-1.71-1.61Z"/><polygon class="cls-3" points="31.43 68.8 30.66 71.19 31.99 75.89 37.86 74.51 37.86 72.35 36.75 67.97 31.43 68.8"/><path class="cls-5" d="M27.56,68.42l2.38-3.22s4.6.61,5.1.83a13.53,13.53,0,0,1,1.71,2.16,12.7,12.7,0,0,0-2.49.73c-.22.22-3.6,2.49-3.6,2.49s-.83-1.11-1.28-1.66.06-1.5.06-1.5l-.83.72Z"/><path class="cls-3" d="M30.88,62.66l-3.05,1.88.56,4.15,6.31-.11a4.36,4.36,0,0,0,.06-1.44c-.11-.33-.45-2.32-.61-3l-.06-.23Z"/><path class="cls-4" d="M25.78,61.93h-1s-.5,5.49-.56,5.77,2.44,1,3.33,1h.83l.61-4-1.5-3.05Z"/><path class="cls-5" d="M25.29,61.27c-.23.44-.17.39-.56.66s1.72,1.5,1.72,1.5L27.89,63l-1.22.83.39.22.83-.22-.78.55,1.89.28,5.09-.83s-1.71-2.11-1.77-2S32,59.33,32,59.33Z"/><polygon class="cls-3" points="32.98 76.06 33.65 78.11 33.32 81.55 31.1 84.04 30.82 80.16 32.98 76.06"/><polygon class="cls-4" points="30.94 79.61 31.21 81.05 31.1 84.04 29.16 84.04 25.73 79.88 24.62 76.28 30.94 79.61"/><path class="cls-5" d="M29.44,73s3.55,2.89,3.6,3a7.8,7.8,0,0,1-.33,1.55c-.17.56-1.44,3.38-1.44,3.38s-1.83-.44-3-.83-3.6-3.93-3.6-3.93Z"/><path class="cls-3" d="M30.27,68.58s.06,4.27,0,5.1-3,3.93-3,3.93l-.33-8,1.88-1.11Z"/><path class="cls-4" d="M27.94,71.41l.11,1.11s-.6,5.09-.72,5.09-2.32,0-2.65,0-5.1-3.93-5.1-3.93V70.8s6.09-2.16,6.2-2.16S27.94,71.41,27.94,71.41Z"/><path class="cls-5" d="M19.52,70.85l.34-1.38,2.27-2.72s3.65.28,4.26.39,1.89.5,1.89.5,2,.61,2,.94-.45.67-.45.67l-1.38-.11,1.11.61-.28.66-.67-.22.5.66-.77,1.44-.34.28a23.06,23.06,0,0,1-2.88,0,17.54,17.54,0,0,1-2.82-1.38A16,16,0,0,0,19.52,70.85Z"/><polygon class="cls-3" points="16.98 71.13 18.53 74.12 14.76 76.34 12.49 73.73 16.98 71.13"/><polygon class="cls-4" points="13.82 73.07 13.65 74.12 14.76 76.34 13.82 76.67 12.1 76.39 10.22 74.12 10.71 73.35 13.82 72.02 13.82 73.07"/><polygon class="cls-5" points="13.65 70.8 10.71 73.35 11.27 73.35 12.88 72.9 11.77 74.12 13.65 74.12 16.98 71.13 15.7 70.41 13.65 70.8"/><path class="cls-3" d="M9.39,84.59a4.3,4.3,0,0,1-1.17,2.88c-.39.17-4.26.67-5.48.78-.56-.67,1.38-3.6,1.38-3.6H9.39Z"/><path class="cls-5" d="M3.79,85.53c-.61-.16-.28-.55-.61-1S2.79,83.43,2.52,83a2.32,2.32,0,0,1-.23-1.61A6.55,6.55,0,0,1,5,82.1c1,.5.72.55,1.55.89s2.16.33,2.55.94.33,1.11-.56,1A5.58,5.58,0,0,0,6,85c-.72.33-1.17.78-1.61.78A.83.83,0,0,1,3.79,85.53Z"/><path class="cls-4" d="M3,81.88l-.72-.56a4.12,4.12,0,0,0-.83,1.94c0,.72-.72,1.06-.83,1.55S.3,85,0,85.59s1.17,1.72,2,2.27c.39.28.66.44.66.33l1.11-2.77Z"/><path class="cls-4" d="M15.42,75.23l1.22,5.82,3.22,1.88s-.45-6.92-.78-7.26-1.72-1.6-1.72-1.6Z"/><polygon class="cls-3" points="19.3 75.62 18.53 78 19.86 82.71 25.73 81.32 25.73 79.16 24.62 74.79 19.3 75.62"/><path class="cls-5" d="M15.42,75.23,17.81,72s4.59.61,5.09.83A12.27,12.27,0,0,1,24.62,75a12.48,12.48,0,0,0-2.49.72c-.22.22-3.6,2.49-3.6,2.49s-.83-1.11-1.28-1.66.06-1.5.06-1.5l-.83.72Z"/><path class="cls-4" d="M38.14,70.91l1.22,5.82,3.21,1.88s-.44-6.93-.78-7.26-1.71-1.6-1.71-1.6Z"/><polygon class="cls-3" points="41.96 71.3 41.18 73.73 42.51 78.39 48.39 77 48.39 74.84 47.28 70.47 41.96 71.3"/><path class="cls-5" d="M38.14,70.91l2.38-3.21s4.6.61,5.1.83a12.69,12.69,0,0,1,1.71,2.16,12.67,12.67,0,0,0-2.49.72c-.22.22-3.6,2.49-3.6,2.49s-.83-1.11-1.27-1.66.05-1.5.05-1.5l-.83.72Z"/><path class="cls-4" d="M26.67,79.16,27.89,85l3.16,1.88s-.45-6.92-.78-7.25-1.72-1.55-1.72-1.55Z"/><polygon class="cls-3" points="30.49 79.55 29.72 81.93 31.05 86.64 36.92 85.26 36.92 83.1 35.81 78.72 30.49 79.55"/><path class="cls-5" d="M26.67,79.16,29.05,76s4.66.61,5.1.83a13.59,13.59,0,0,1,1.72,2.16,13.49,13.49,0,0,0-2.5.72c-.22.22-3.6,2.5-3.6,2.5S29,81.05,28.5,80.49s.05-1.49.05-1.49l-.83.72Z"/><path class="cls-3" d="M20.13,78.78V82.6A16.4,16.4,0,0,1,18.58,86c-.55.55-4.26,2-5.59,2.38a2.84,2.84,0,0,1-2.39-.44S9.33,83.26,9.28,83,20.13,78.78,20.13,78.78Z"/><path class="cls-4" d="M12.1,81.66,10.94,83a8.09,8.09,0,0,0-.67,2.77c.11.77.39,2.21.39,2.21a16.86,16.86,0,0,1-2.55-1.55c-.83-.66-.72-3.49-.77-4.71s0-4.1,1.44-4.37l.94.88h2.16Z"/><path class="cls-5" d="M8.78,77.28c-.83,1-.72,2-.34,1.94s2.22-1,2.5-.28a20,20,0,0,1,0,4,11,11,0,0,0,3-.28c.77-.33,5.59-2.55,5.59-2.55l.61-1.38L15,77.28Z"/><path class="cls-4" d="M41.07,78.61v3.16a12.89,12.89,0,0,0,1.28,2.77A20,20,0,0,0,47,86.48a2.18,2.18,0,0,0,1.93-.34s1.06-3.82,1.11-4S41.07,78.61,41.07,78.61Z"/><path class="cls-3" d="M47.72,81,48.66,82a8.1,8.1,0,0,1,.56,2.28c-.11.6-.34,1.77-.34,1.77A16.94,16.94,0,0,0,51,84.81c.66-.55.61-2.82.66-3.87s0-3.38-1.16-3.6l-.77.72H47.94Z"/><path class="cls-5" d="M50.44,77.39c.72.83.6,1.61.27,1.55s-1.83-.77-2.05-.22a16.74,16.74,0,0,0,0,3.32,9.13,9.13,0,0,1-2.49-.22l-4.6-2.1-.5-1.11,4.16-1.22Z"/><polygon class="cls-3" points="29.94 83.98 30.38 87.64 25.78 91.07 25.23 86.97 29.94 83.98"/><path class="cls-4" d="M25.78,87.2V91h-1.1a1,1,0,0,0-.84-.67c-.77-.16-1.16.67-1.16.67s-3.21.72-3.77,0a19.6,19.6,0,0,0-3.32-2.33L17.7,84.2H25Z"/><path class="cls-5" d="M17.7,84.2,21.07,87l2.61-1.1-1.61,1.44,1.05.66,1-.33-.33.83,1.94.67s2.21-2.22,2.44-2.5,1.71-2.71,1.71-2.71S26.5,80,25.62,80,17.7,84.2,17.7,84.2Z"/><path class="cls-3" d="M18,66.81a8.57,8.57,0,0,1,1.55.83,22,22,0,0,1,.83,2.49l-.61,2-1.94-2.94.44-1Z"/><path class="cls-4" d="M15.54,68.69a3.56,3.56,0,0,1-.39.5,8.56,8.56,0,0,0,.33,1.72,3,3,0,0,0,.33.72,7.14,7.14,0,0,0,2.61.55,7,7,0,0,0,1.27-.11L19,69.52,15.7,69Z"/><path class="cls-5" d="M17.86,67c-.05,0-1.44.61-1.49.66a8.07,8.07,0,0,1-1,.94c-.28.17-.17.61-.17.61l1.33.33a1.44,1.44,0,0,0,.83.12L19,69.52l-.84-.33,1,.06.22-.45-.44,0,.44-.22A2.67,2.67,0,0,0,19,67.42a7.52,7.52,0,0,0-1-.72Z"/><path class="cls-3" d="M55.31,81.71a8.57,8.57,0,0,1,1.55.83,21.53,21.53,0,0,1,.83,2.5l-.61,2-1.94-2.94.45-1Z"/><path class="cls-4" d="M52.82,83.65a2.84,2.84,0,0,1-.39.5,10.63,10.63,0,0,0,.33,1.72,3.17,3.17,0,0,0,.33.72,7.18,7.18,0,0,0,2.61.55A6.78,6.78,0,0,0,57,87l-.72-2.55L53,83.93Z"/><path class="cls-5" d="M55.09,81.93c-.06,0-1.44.61-1.5.61a7.31,7.31,0,0,1-1,.94c-.28.17-.17.67-.17.67l1.33.33a2.16,2.16,0,0,0,.83.11l1.66-.11-.83-.33,1,0,.22-.44-.44-.05.44-.23a2.83,2.83,0,0,0-.44-1.1,7.52,7.52,0,0,0-1-.72Z"/><path class="cls-3" d="M39.08,86.53s3.16-2.1,4-2.55,1.72-3,1.72-3l-1.11-5-6.59.77Z"/><path class="cls-4" d="M34.2,83.32l.5-4.38c1.06.78,2.11,1.55,3.22,2.22a3.16,3.16,0,0,0,1.55.44l-.45,5a5.55,5.55,0,0,1-1.49-.28C37.36,86.14,34.2,83.32,34.2,83.32Z"/><path class="cls-5" d="M35.15,80.38l-.39-1.44a23.58,23.58,0,0,1,1.33-2.6c.16.11,2.93-1.77,3.49-1.94s4.21,1.72,4.21,1.72A10.85,10.85,0,0,0,41.29,78,15.31,15.31,0,0,0,40,80.16l-1.49-.61,1.32.83-.33,1.22L37.14,82Z"/><path class="cls-3" d="M38.19,85.92l0,2.55S36.25,90.24,35.7,90s-2.6-.72-2.6-.72l-.61-.39-.22-2.82Z"/><path class="cls-4" d="M34.48,85.65l-.94.94s-.94.44-.78.83-.33,1.49-.33,1.49a6.71,6.71,0,0,0-1-1.88,1.42,1.42,0,0,1-.33-1.33l1.17-2.55,2.38.39Z"/><path class="cls-5" d="M32.27,83.15,33,84.54l1.16-.11L33.15,85l.11.55.61-.16-.55.55.16.61a24.87,24.87,0,0,0,2.83.28,16,16,0,0,0,1.77-.89c.11,0-1.38-1.77-1.38-2.21A8.38,8.38,0,0,0,36,81.77Z"/><path class="cls-3" d="M51.6,89.08l.55,1.38s-.55,1.45-.94,1.5-1.55.33-1.55.33h-.44l-.78-1.44Z"/><path class="cls-4" d="M49.55,89.91l-.28.72s-.39.5-.22.67.17.83.17.83a6.38,6.38,0,0,0-.94-.78.78.78,0,0,1-.5-.61V89l1.38-.44Z"/><path class="cls-5" d="M47.78,89.14l.72.55.61-.39-.45.61.22.28.28-.28-.16.44.22.28c.55-.17,1.05-.39,1.6-.61.17-.11.72-.94.78-.94s-1.16-.55-1.28-.83a5.42,5.42,0,0,0-.83-.83Z"/><path class="cls-3" d="M38.75,70.08c.72.55.77,5.37.77,5.37l-1.33,2.83-1-4.77.55-3.38Z"/><path class="cls-4" d="M33.87,72a15.2,15.2,0,0,0-2.77.61l.11,3.71s1.44,2.72,3.55,2.66a8.85,8.85,0,0,0,3.38-.66l-.45-4.55Z"/><path class="cls-5" d="M37.2,74.12c-1.17-.05-2.39-.05-3.55,0a14.7,14.7,0,0,1-2.55-1.55s.28-1.11,1.17-1.11,1-.94,2-1,3.54-.78,4.21-.61a.74.74,0,0,1,.44.94l-.44-.33A4.41,4.41,0,0,1,38.58,73,1.88,1.88,0,0,1,37.2,74.12Z"/><path class="cls-3" d="M41.68,88a3.14,3.14,0,0,1,1.28.94l-.45.5.56-.44.22.83v.39l-1.16.66Z"/><path class="cls-4" d="M41.68,88c-.77.11-1.44,1.83-1.44,1.83l.45,1s1.05-.22,1.33,0,.27-.88.27-1.44A4.56,4.56,0,0,0,41.68,88Z"/><polygon class="cls-6" points="28.11 94.29 72.48 113.23 72.48 33.13 28.17 14.18 28.11 94.29"/><path class="cls-7" d="M29.77,16.23v1.22a.5.5,0,0,1,.61-.11,1,1,0,0,1,.61,1v1.22l-.17-.12V18.23a.7.7,0,0,0-.38-.72.48.48,0,0,0-.61.22V19l-.28-.11V16.12Z"/><path class="cls-7" d="M31.88,18v1.22a.78.78,0,0,0,.39.72.47.47,0,0,0,.6-.22V18.45l.28.11.06,1.94-.28-.11V20a.64.64,0,0,1-.61.17,1,1,0,0,1-.61-1V18Z"/><path class="cls-7" d="M33.82,19.11a.36.36,0,0,1,.49-.16,1.07,1.07,0,0,1,.5.61.39.39,0,0,1,.5-.23.93.93,0,0,1,.45.45,1.73,1.73,0,0,1,.11.55v1.22l-.23-.11V20.22a.67.67,0,0,0-.33-.66c-.16-.06-.33.05-.39.27v1.28L34.7,21V19.72c0-.28-.11-.55-.33-.61s-.33.06-.44.33v1.22l-.22-.11-.06-1.94.22.11Z"/><path class="cls-7" d="M37.47,21a.75.75,0,0,0-.11-.39c0-.11-.16-.17-.33-.28a.5.5,0,0,0-.55,0l-.12-.28a.84.84,0,0,1,.72.06,1.06,1.06,0,0,1,.72,1v.66a1.6,1.6,0,0,0,.12.61l-.34-.05a1.72,1.72,0,0,0-.11-.39h0s-.11.16-.22.16-.22,0-.39-.05a1,1,0,0,1-.61-.83c0-.22.06-.33.23-.39a1.23,1.23,0,0,1,.72.11l.22.11Zm-.22.22c-.5-.22-.77-.17-.72.11a.54.54,0,0,0,.39.5c.33.11.61,0,.61-.34v-.22Z"/><path class="cls-7" d="M38.53,21.16a.5.5,0,0,1,.6-.11,1.05,1.05,0,0,1,.61,1v1.22l-.27-.11V21.94a.7.7,0,0,0-.39-.72c-.22-.11-.44,0-.61.22v1.27l-.28-.11,0-1.94.27.11Z"/><g class="cls-8"><path class="cls-9" d="M66,89.52c8.92,5.15,9,13.52.11,18.67s-23.32,5.15-32.24,0-9-13.52-.11-18.67S57.08,84.37,66,89.52Z"/></g><path class="cls-10" d="M60.07,59.22s2.22,8.81-1,16.12a31.66,31.66,0,0,0-1.94,9.92c0,1-1.16,7.7-1.16,7.7a4.57,4.57,0,0,1-4-.17s-1.11-7.2,0-10.8c0,0,.66-5.21,0-7.42s1.28-10,1.28-10A40.43,40.43,0,0,1,60.07,59.22Z"/><path class="cls-11" d="M52,74.51c.66,2.22-.06,7.42-.06,7.42-1.11,3.6,0,10.81,0,10.81a3.57,3.57,0,0,0,1.83.55c-.17-1.38-.33-2.94-.33-3.82,0-1.78-.94-4.38,1-11.19a38.49,38.49,0,0,0,1.44-12.63l-2.65-.78C52.82,66.31,51.43,72.63,52,74.51Z"/><path class="cls-10" d="M48.55,60.27s3.6,2.66,7.15,1.06a21.59,21.59,0,0,1-2.27,13s-1.89,4.6-2.77,6.87-1.55,4.21-2.33,6.87-3.77,8.53-3.77,11c0,0,0,1.82-2.88,0,0,0-.33-13.63,2.94-18.17,0,0,.55-10.53,1.22-14.07A14.75,14.75,0,0,1,48.55,60.27Z"/><path class="cls-10" d="M48.55,60.27s3.6,2.66,7.15,1.06a21.59,21.59,0,0,1-2.27,13s-2,4.6-2.88,6.87-1.44,4.21-2.22,6.87-3.82,8.53-3.82,11c0,0,0,1.82-2.88,0,0,0-.34-13.63,2.93-18.17,0,0,.56-10.53,1.22-14.07C46.61,62.43,49.33,59.55,48.55,60.27Z"/><path class="cls-11" d="M48.55,60.27a14.47,14.47,0,0,0-2.77,6.54c-.66,3.55-1.22,14.07-1.22,14.07-3.27,4.54-2.93,18.17-2.93,18.17.55.33.44.33.88.44-.38-4.59,2.16-13.84,3.77-18.39,1.88-5.26.67-10,.67-13.18s2.1-3,2.1-3a11.23,11.23,0,0,0,6.76-2.61c0-.27-.06-.22-.06-.44L55,61.6C51.77,62.6,48.55,60.27,48.55,60.27Z"/><path class="cls-12" d="M55.81,62.21a8.38,8.38,0,0,1-5.15,3.49c-3.27.89-2.83,3.33-2.22,7.31s-2.16,12.3-4.15,18.12c-1.55,4.43-1.06,7.26-.72,8.36a2.21,2.21,0,0,0,1-.44c-.16-2.38.67-4.82,1.11-6.92.61-2.77,5-13,5.6-15.13s.88-5.26,2.16-8.53c.55-1.44.66-3.32,2.43-3.77C55.92,64.48,55.81,62.43,55.81,62.21Z"/><path class="cls-12" d="M56,92.9c-.06-2.66.33-6.42.33-7.92a37.75,37.75,0,0,1,2.55-12.63c2.1-5.71.66-12.52.66-12.52a6.43,6.43,0,0,1-3.66,2.44L56,64.7c2.71-.16-.39,15.68-1.45,18.62-.88,2.33.06,7.86.45,9.91a3.35,3.35,0,0,0,1-.33Z"/><path class="cls-13" d="M48.55,60.27s3.38,2.5,6.48,2a6.33,6.33,0,0,0,5-3.66,5.72,5.72,0,0,1,.28,1.66A7.51,7.51,0,0,1,54,63.49a10.53,10.53,0,0,1-6.31-2.28s.33-.44.44-.55S48.55,60.27,48.55,60.27Z"/><path class="cls-14" d="M41.41,90.74c-.72-.44.27,6.93-.56,9a2.29,2.29,0,0,0-.05,1.61c.44,1,2.16,1.6,2.93,3.32s4.55,2.38,4.77.67c0-.5-.56-1.39-1.61-2.33-1.61-1.44-3.27-3.32.44-11.08C47.89,90.8,44.34,92.57,41.41,90.74Z"/><path class="cls-14" d="M51.27,85.76c-.89-.28,1,5,.27,7.53-.66,2.38-.55,2.83.83,3.55a5.19,5.19,0,0,0,2.22,0s.78-.17,2.11,1.1c0,0,3.43,2.22,4.37.28,0,0,.45-1-1.49-2a5.47,5.47,0,0,1-3.22-3.55c-.5-2.27,1.28-7,.89-7.31C56.7,84.81,56.42,87.31,51.27,85.76Z"/><path class="cls-15" d="M40.8,101.38c.44,1,2.16,1.6,2.93,3.32s4.1,2.33,4.71.94a3,3,0,0,1-4.38-1.6,5,5,0,0,0-1.6-2,3.18,3.18,0,0,1-1.72-1.88A2.3,2.3,0,0,0,40.8,101.38Z"/><path class="cls-16" d="M46.89,103c-1.61-1.44-3.27-3.32.44-11.08.45-.94-2.27.44-4.76-.5a26.64,26.64,0,0,1-.78,7.37c-.55,2.1,1,2.27,1.72,3s.83,1.5,2.38,3.1c1.22,1.22,2.22.67,2.55.39C48.5,104.76,47.89,103.93,46.89,103Z"/><path class="cls-15" d="M52.37,96.78a4.9,4.9,0,0,0,2.22,0s.78-.17,2.11,1.11c0,0,3.32,2.16,4.32.39a4.92,4.92,0,0,1-3.83-.84c-.83-.83-1.16-1.16-3.54-1.16a3,3,0,0,1-2.55-1.16C51.16,96,51.49,96.34,52.37,96.78Z"/><path class="cls-16" d="M59.63,96.28a5.44,5.44,0,0,1-3.21-3.54c-.5-2.28,1.27-7,.88-7.32s-.72.89-3,.89a13.13,13.13,0,0,1,0,5.15c-.72,2.61-.88,3.27.61,3.77a7,7,0,0,1,3.38,1.88,2.91,2.91,0,0,0,2.88.83C61.13,97.56,60.91,96.84,59.63,96.28Z"/><path class="cls-17" d="M60.24,41.6s2.44.61.83,7.59c0,0,0,5.88.06,7.7l.66,5.43s-.44.61-1.94.22c0,0-2.43-4.65-2.55-6.92s-.94-13.41,1.22-14.07A1.83,1.83,0,0,1,60.24,41.6Z"/><path class="cls-18" d="M59.85,62.54a4.07,4.07,0,0,0,.89.12,33.59,33.59,0,0,1-2.11-5.49c-.94-3.54,1.22-8,1.22-8l-2.77-.88c0,3,.22,6.2.28,7.31C57.42,57.84,59.85,62.54,59.85,62.54Z"/><path class="cls-19" d="M59.58,62.54a15.77,15.77,0,0,1,.22,2.77,1.94,1.94,0,0,0,.88,2c.45.28,1.83.88,2-.78s-.11-2-.11-2l-1.44-2.1Z"/><path class="cls-20" d="M59.41,61.82s1.11.72,2.22-.83c0,0,.83-.22.77,2.11,0,.33.06.44.44,1.33.12.33.45,1.49-.11,1.49,0,0-.38-.11-.88-1.27a1.91,1.91,0,0,0-1.28-1.16A2.08,2.08,0,0,1,59.41,61.82Z"/><path class="cls-21" d="M56.7,39.06s-1.39,2.77.77,8.86c0,0,3.49,1.55,4.88-1,0,0,.33-6.81-2.77-8.7A2.16,2.16,0,0,0,56.7,39.06Z"/><path class="cls-21" d="M49.11,41.44c-2.28,1.33-7.32,3.71-4.21,8.42,0,0,2.38,3.49,3.54,4.93A4.44,4.44,0,0,1,49.11,60S53.93,65.87,60,58.89c0,0-.55-4.93,0-7.59s2.55-11.08-2.55-13C55.53,37.56,53.7,38.78,49.11,41.44Z"/><path class="cls-22" d="M44.84,49.86a27.25,27.25,0,0,0,2.55,4.6,4.89,4.89,0,0,1,.94,5.48s2.77,2.55,5.93,2.33c-3.38-4.82-3.22-7.65-3-10.36.44-4.32,0-7.09-1.67-8.75a3.45,3.45,0,0,0-2.27-.84C45.39,43.43,42.62,45.48,44.84,49.86Z"/><path class="cls-23" d="M60,58.89S59.47,54,60,51.3s2.55-11.08-2.55-13c-1.22-.44-2.1.28-3.88.61,2,.55,6.26,3.77,5,10.69-1.16,6.37-2.16,9.2-2.22,12.19A10.86,10.86,0,0,0,60,58.89Z"/><path class="cls-18" d="M56.42,41.38A3.22,3.22,0,0,0,55.26,44c.16,1.39-2.83,1.28-4.55-3.16,0,0,1.22-.77.39-4.65Z"/><path class="cls-24" d="M55.59,42s-3.1-1.49-4.77-1.22c0,0,.78-.61.5-2.88A5.46,5.46,0,0,1,50.49,33a3.5,3.5,0,0,1,3.38-2.61C53.87,30.47,49.22,36.12,55.59,42Z"/><path class="cls-17" d="M58.86,35.18c-.06.44-.56.44-.06,2.21.33,1.11.11,1.11-.44,2.88-.33,1-1.11,3.16-4.16,1.06,0,0-2.88-2.77-3.54-4.93a4.79,4.79,0,0,1,1.49-5.6S59.58,29,58.86,35.18Z"/><path class="cls-25" d="M58.91,34.35a7.86,7.86,0,0,1-2.93,1s-1.5-.22-1.61.33a4.82,4.82,0,0,0,.44,2.33,7.21,7.21,0,0,1,.89,2.38c-.06.28.22,1.66,1,1.77,0,0-2.1.56-4.6-3.1,0,0-2-2.71-2-3.21s3.27-1.72,4.15-1.94l4.44-1.05S58.91,34.07,58.91,34.35Z"/><path class="cls-26" d="M58.91,33.07c-.11,1.17-2.71,1.5-4.43,1.61-.67,0-1.16.5-.83,2.38s-.72,2-.78,1.66c-.16-1.49-1.55-2.88-1.49-.44,0,0-3.1-3.77-1.61-6.32.94-1.66,3.32-3.26,7.31-1.44A2.92,2.92,0,0,1,58.91,33.07Z"/><path class="cls-26" d="M53.65,37.06c.33,1.94-.78,1.83-.78,1.83-.11-1.77-1.66-2.6-1.49-.61,0,0-3.05-3.77-1.61-6.32A4.1,4.1,0,0,1,52,30.08c-2.66,3.6,1.16,3.82,2,4.65C53.59,35,53.37,35.62,53.65,37.06Z"/><path class="cls-27" d="M53.54,36.12s-.67-.72-.83.06a1.43,1.43,0,0,1-.5-1.22s-.61,0-.72.83a1.56,1.56,0,0,1-.33-1.39,2.87,2.87,0,0,0-.84,1.28s-.66-1.17-.38-1.83c0,0-.34,0-.45.94a3.1,3.1,0,0,1,.61-3.27s-.27,2.11,3.83,3.33A2.23,2.23,0,0,0,53.54,36.12Z"/><path class="cls-28" d="M51.93,37.12S50.38,36.9,50,36a17.79,17.79,0,0,0,1.39,2.33S51.21,37,51.93,37.12Z"/><path class="cls-29" d="M50.16,31.47s-.22,2.27,3.82,3.32c0,0,3.49.39,4.82-1.38a1.27,1.27,0,0,0,0-1.11s-.11.94-.72,1.11c0,0,.28-.5.11-.78a2.45,2.45,0,0,1-1.22,1,.68.68,0,0,0,0-.78,2.61,2.61,0,0,1-2,1.28,1.45,1.45,0,0,0,.56-.72s-1.28.83-2.11.49c0,0,.78-.22.83-.66,0,0-1.55.44-2.32-.33a1.23,1.23,0,0,0,.94-.28C52.76,32.63,50.49,32.52,50.16,31.47Z"/><path class="cls-30" d="M50.88,30.75s2.88-2.44,7,.27c0,0-1.83-.5-2.44-.61s.5.45,1,.67A19.37,19.37,0,0,1,54,30.64c-.77-.12-2.21-.06-1.27.22S51.1,30.58,50.88,30.75Z"/><path class="cls-19" d="M49.72,35.29s5,3.1,9.8,1.72c0,0,2.77-.72-.72-3Z"/><path class="cls-20" d="M58.8,34l-6.48.66c1.33,1.17,4,3.11,7.2,2.39C61.29,36.23,60.63,35.18,58.8,34Z"/><path class="cls-31" d="M49.27,33.52A4.63,4.63,0,0,1,54,29a5.14,5.14,0,0,1,5.15,5.27s-4.66,3.93-9.59.83A3.59,3.59,0,0,1,49.27,33.52Z"/><path class="cls-32" d="M49.27,33.52a3.1,3.1,0,0,0,.33,1.55,7.81,7.81,0,0,0,7.15.66l.17-.16c-.22-4.88-4-5.88-5.32-6A4.77,4.77,0,0,0,49.27,33.52Z"/><path class="cls-13" d="M49.72,35.29s5.31,2.93,9.52-1l-.05-.5a8.86,8.86,0,0,1-9.7,1Z"/><path class="cls-13" d="M58.69,34.62v-.16h0a.17.17,0,0,0-.06-.11l-.05-.06s-.06,0-.06,0a.05.05,0,0,1-.05-.06l-.06,0h-.22L57.8,34h-.66L57,34h0l0,.06-.06.06h0l0,0v.06h0l-.06,0h0s0,.06,0,.06h0l-.06,0-.06.11,0,.11-.06.11,0,.12h0v.88l0,.06h0l.06.05h0l0,.06s.06,0,.06.05h0l.06.06.38.22.06.06,0,.05h.39a.23.23,0,0,0,.17-.05h0a.17.17,0,0,0,.11-.06h0a2.22,2.22,0,0,0,.78-1.61Zm-.78-.11v.17s0,.17,0,.22h0a.42.42,0,0,1-.11.22l-.06.06s0,.11-.11.16l0,.06h0c-.06.05-.06.11-.11.11l-.06.06-.17.11h0l-.11,0h-.17v-.39h0v-.05a.2.2,0,0,1,.06-.17v0A.18.18,0,0,1,57,35,.06.06,0,0,1,57,34.9s0-.11.11-.17l.11-.11.11-.11.17-.11s.11-.11.16-.11a.23.23,0,0,1,.17,0h0v0h0v.22Z"/><path class="cls-33" d="M58.19,34.24c.06,0,.11,0,.17.11s0,.11.11.22a1.36,1.36,0,0,1-.06.66,1.39,1.39,0,0,1-.88.89c-.11.06-.23,0-.34-.06a.41.41,0,0,1-.22-.44,1.64,1.64,0,0,1,.72-1.33.53.53,0,0,1,.06.22,1.25,1.25,0,0,0-.56,1c0,.33.28.5.61.28a1.22,1.22,0,0,0,.56-1c0-.33-.28-.5-.61-.28a.53.53,0,0,0-.06-.22C57.75,34.18,58,34.18,58.19,34.24Z"/><g class="cls-34"><path class="cls-33" d="M58.19,34.24c.67.38,0,1.71-.72,1.88a.48.48,0,0,1-.55-.33v-.17a1.81,1.81,0,0,1,.66-1.33.53.53,0,0,1,.06.22,1.22,1.22,0,0,0-.56,1c0,.33.28.5.61.28a1.22,1.22,0,0,0,.56-1c0-.33-.28-.5-.61-.28a.53.53,0,0,0-.06-.22,1.12,1.12,0,0,1,.61,0Z"/><path class="cls-33" d="M57.64,34.35h0a.34.34,0,0,1,0,.22,1.24,1.24,0,0,0-.55,1c0,.33.28.49.61.27a1.24,1.24,0,0,0,.55-1c0-.34-.27-.5-.61-.28,0-.11,0-.17,0-.22h0a.6.6,0,0,1,.61-.06h0l.06.06,0,0,.06.06v.72l-.06,0,0,.06-.06.05,0,.06-.06.05,0,.06-.06.06,0,0-.06.06-.06,0,0,.06-.06.05,0,.06-.06.05h-.44c-.17-.11-.28-.27-.22-.44a1.13,1.13,0,0,1,.61-1.16Z"/><path class="cls-33" d="M57.64,34.35a.22.22,0,0,1-.11,0l-.06.06c.06-.06.11-.06.17-.11a.34.34,0,0,1,0,.22,1.24,1.24,0,0,0-.55,1c0,.33.28.49.61.27a1.24,1.24,0,0,0,.55-1c0-.34-.27-.5-.61-.28a.37.37,0,0,1,0-.22h0c0-.06,0,0,0,0a.51.51,0,0,1,.55-.06h.06l0,.06.06,0,0,.06v.77l0,.06-.06.05,0,.06-.06.05,0,.06-.06.06,0,0-.06.06-.06,0,0,.06-.06.05,0,.06-.06.05,0,.06h-.5a.39.39,0,0,1-.22-.44,1.38,1.38,0,0,1,.72-1.22Z"/><path class="cls-33" d="M57.64,34.35l-.06,0c-.11.06-.16.17-.22.22a.66.66,0,0,1,.28-.27.44.44,0,0,1,0,.22,1.24,1.24,0,0,0-.55,1c0,.33.28.49.61.27a1.24,1.24,0,0,0,.55-1c0-.34-.27-.5-.61-.28a.37.37,0,0,1,0-.22h0l.11-.06s-.16,0-.16.06a.51.51,0,0,1,.55-.06h.06l0,.06.06,0,0,.06V34.4a.06.06,0,0,0,.06.06v.66a.06.06,0,0,1-.06.06l0,0-.06.06,0,.05-.06.06,0,.05-.06.06,0,.06-.06,0-.06.06,0,0-.06.06,0,.05-.06.06h-.55a.56.56,0,0,1-.28-.45,1.5,1.5,0,0,1,.78-1.1Z"/><path class="cls-33" d="M57.58,34.35a1.41,1.41,0,0,0-.39.38,2.76,2.76,0,0,1,.39-.38.38.38,0,0,1,.06.22,1.22,1.22,0,0,0-.56,1c0,.33.28.49.61.27a1.22,1.22,0,0,0,.56-1c0-.34-.28-.5-.61-.28,0-.06,0-.17-.06-.22h.06l.16-.06s-.11,0-.22.06a.52.52,0,0,1,.56-.06h0l.06.06,0,0,.06.06V34.4s0,.06,0,.06v.66s0,.06,0,.06l-.06,0,0,.06-.06.05,0,.06-.06.05,0,.06-.06.06-.06,0,0,.06-.06,0,0,.06-.06.05,0,.06h-.5a.56.56,0,0,1-.28-.45A1.42,1.42,0,0,1,57.58,34.35Z"/><path class="cls-33" d="M57.58,34.35a0,0,0,0,0,0,0,1.41,1.41,0,0,0-.39.45,1.86,1.86,0,0,1,.44-.5.38.38,0,0,1,.06.22,1.22,1.22,0,0,0-.56,1c0,.33.28.49.61.27a1.22,1.22,0,0,0,.56-1c0-.34-.28-.5-.61-.28a.38.38,0,0,0-.06-.22h.11c.11-.06.17-.06.28-.11a.75.75,0,0,0-.39.11.52.52,0,0,1,.56-.06h0l.06.06,0,0,.06.06V34.4s0,.06,0,.06v.66s0,.06,0,.06l-.06,0,0,.06-.06.05,0,.06-.06.05,0,.06-.06.06-.06,0,0,.06-.06,0,0,.06-.06.05,0,.06h-.5a.56.56,0,0,1-.28-.45A1.42,1.42,0,0,1,57.58,34.35Z"/><path class="cls-33" d="M57.58,34.35a1.21,1.21,0,0,0-.5.55,1.49,1.49,0,0,1,.5-.5v.17a1.24,1.24,0,0,0-.55,1c0,.33.27.49.61.27a1.24,1.24,0,0,0,.55-1c0-.34-.28-.5-.61-.28V34.4l.06,0a.72.72,0,0,1,.33-.11,1,1,0,0,0-.39.11.69.69,0,0,1,.56-.06h0l.06.06,0,0,.06.06v.77l-.06.06,0,.05-.06.06,0,.05-.06.06,0,.06-.06,0-.06.06,0,0-.06.06,0,.05-.06.06,0,.05-.06.06h-.44a.39.39,0,0,1-.22-.44A1.32,1.32,0,0,1,57.58,34.35Z"/><path class="cls-33" d="M57.58,34.35A1.42,1.42,0,0,0,57,35a2.48,2.48,0,0,1,.55-.61v.22a1.24,1.24,0,0,0-.55,1c0,.33.27.49.61.27a1.24,1.24,0,0,0,.55-1c0-.34-.28-.5-.61-.28v-.22h0c.17-.06.28-.06.45-.11a.43.43,0,0,0-.45.11.42.42,0,0,1,.5-.06h.06l0,.06.06,0,0,.06v.72l0,0-.06.06,0,.05-.06.06,0,.05-.06.06-.06.06,0,0-.06.06,0,0-.06.06,0,.05-.06.06h-.5a.43.43,0,0,1-.22-.45A1.42,1.42,0,0,1,57.58,34.35Z"/><path class="cls-33" d="M57.58,34.35A1.22,1.22,0,0,0,57,35c.11-.11.16-.22.27-.33s.23-.17.34-.28v.17a1.22,1.22,0,0,0-.56,1c0,.33.28.49.61.27a1.22,1.22,0,0,0,.56-1c0-.34-.28-.5-.61-.28V34.4l0,0a1.24,1.24,0,0,1,.45-.11.71.71,0,0,0-.56.11.62.62,0,0,1,.61-.06h.06l0,.06.06,0,0,.06V34.4a.06.06,0,0,0,.06.06v.66a.06.06,0,0,1-.06.06l0,0-.06.06,0,.05-.06.06,0,.05-.06.06,0,.06-.06,0-.06.06,0,0-.06.06,0,.05-.06.06h-.55a.56.56,0,0,1-.28-.45A1.91,1.91,0,0,1,57.58,34.35Z"/><path class="cls-33" d="M57.58,34.35a1.3,1.3,0,0,0-.55.77c.11-.11.16-.27.27-.39l.34-.33v.17a1.22,1.22,0,0,0-.56,1c0,.33.28.49.61.27a1.22,1.22,0,0,0,.56-1c0-.34-.28-.5-.61-.28V34.4l0,0a1,1,0,0,1,.45-.11h0a1,1,0,0,0-.61.11.6.6,0,0,1,.61-.06h.06l0,.06.06,0,0,.06V34.4a.06.06,0,0,0,.06.06v.72a.05.05,0,0,1-.06,0l0,.06-.06.05,0,.06-.06.05,0,.06-.06.06,0,0-.06.06-.06,0,0,.06-.06.05,0,.06-.06.05h-.55a.55.55,0,0,1-.28-.44A1.68,1.68,0,0,1,57.58,34.35Z"/><path class="cls-33" d="M57.58,34.35a1.53,1.53,0,0,0-.61.83h0c.06,0,.06-.06.11-.11a3,3,0,0,1,.56-.61v.11a1.22,1.22,0,0,0-.56,1c0,.33.28.49.61.27a1.22,1.22,0,0,0,.56-1c0-.34-.28-.5-.61-.28v-.11l0-.06a.85.85,0,0,1,.5-.11h.06s-.22-.16-.67.06a.6.6,0,0,1,.61-.06h.06l0,.06.06,0,0,.06v.77l0,.06-.06.05,0,.06-.06.05,0,.06-.06.06,0,0-.06.06-.06,0,0,.06-.06.05,0,.06-.06.05h-.55c-.17-.11-.28-.27-.22-.44A1.42,1.42,0,0,1,57.58,34.35Z"/><path class="cls-33" d="M57.64,34.57a1.22,1.22,0,0,0-.56,1c0,.33.28.49.61.27a1.22,1.22,0,0,0,.56-1c0-.34-.28-.5-.61-.28v-.11l0-.06a1.14,1.14,0,0,1,.45-.11s0,.06.11,0-.06-.11-.17-.11a.65.65,0,0,0-.33.06.56.56,0,0,1,.44,0h.06l0,0,.06.06,0,0h0a.06.06,0,0,0,.06.06v.72a.05.05,0,0,1-.06,0l0,.06-.06.05,0,.06-.06.05,0,.06-.06.06,0,0-.06.06-.06,0,0,.06-.06.05,0,.06-.06.05h-.55a.55.55,0,0,1-.28-.44,1.42,1.42,0,0,1,.5-1.11h0a1.22,1.22,0,0,0-.39.72c.39-.61.45-.61.67-.77,0,.11,0,.16,0,.22Z"/><path class="cls-33" d="M57.64,34.57a1.22,1.22,0,0,0-.56,1c0,.33.28.49.61.27a1.22,1.22,0,0,0,.56-1c0-.34-.28-.5-.61-.28v-.11l0-.06a.65.65,0,0,1,.56,0h0c.06,0-.11-.17-.27-.17h-.17a.52.52,0,0,1,.39,0h0l.06.06,0,0,.06.06v.83l-.06,0,0,.06-.06.05,0,.06-.06.05,0,.06-.06.06,0,0-.06.06-.06,0,0,.06-.06.05,0,.06h-.5a.4.4,0,0,1-.22-.45,1.53,1.53,0,0,1,.39-1h0a1.49,1.49,0,0,0-.34.66c.06,0,.06,0,.11-.16a1.88,1.88,0,0,1,.61-.67v.11Z"/><path class="cls-33" d="M57.64,34.57a1.22,1.22,0,0,0-.56,1c0,.33.28.49.61.27a1.22,1.22,0,0,0,.56-1c0-.34-.28-.5-.61-.28v-.06l0,0a.69.69,0,0,1,.56-.06h0c.06,0,0-.16-.27-.22h-.17a.4.4,0,0,1,.28.06h0l.06,0,0,.06.06,0h0s0,.06,0,.06v.66s0,.06,0,.06l-.06,0,0,.06-.06.05,0,.06-.06.05,0,.06-.06.06-.06,0,0,.06-.06,0,0,.06-.06.05,0,.06-.06.05h-.44a.55.55,0,0,1-.28-.44,1.52,1.52,0,0,1,.33-.94v0c-.27.45-.27.67-.22.67h0c.06-.06.11-.17.17-.22a1.65,1.65,0,0,1,.55-.67.23.23,0,0,1,0,.17Z"/><path class="cls-33" d="M57.64,34.57a1.22,1.22,0,0,0-.56,1c0,.33.28.49.61.27a1.22,1.22,0,0,0,.56-1c0-.34-.28-.5-.61-.28h0l0-.06a.52.52,0,0,1,.56,0h0c.06,0,0-.22-.27-.27h-.17a.36.36,0,0,1,.22,0h.06l0,.06.06,0,0,.06V34.4a.06.06,0,0,0,.06.06v.66a.06.06,0,0,1-.06.06l0,0-.06.06,0,.05-.06.06,0,.05-.06.06-.06.06,0,0-.06.06,0,0-.06.06,0,.05-.06.06h-.44a.56.56,0,0,1-.28-.45,1.64,1.64,0,0,1,.28-.88l-.06,0c-.22.39-.22.67-.16.67s.11-.11.16-.22a1.37,1.37,0,0,1,.56-.72v.22Z"/><path class="cls-33" d="M57.08,34.85c-.27.49-.16.72-.16.72a0,0,0,0,0,0,0,.2.2,0,0,0,.17.06c.11.16.11.16.16.16a.24.24,0,0,0,.28,0,1.15,1.15,0,0,0,.67-.66l.16-.67a.46.46,0,0,0-.22-.33.2.2,0,0,0-.16,0,.2.2,0,0,1,.16,0h.06l0,.06.06,0,0,.06v.83l0,0-.06.06,0,.05-.06.06,0,.05-.06.06,0,.06-.06,0-.06.06,0,0-.06.06,0,.05-.06.06h-.55a.4.4,0,0,1-.22-.45,1.55,1.55,0,0,1,.22-.83c0,.17,0,.17-.06.23Z"/><path class="cls-33" d="M57,35c-.45.89.27,1.05.55.94a1.33,1.33,0,0,0,.78-.94c.16-.55-.06-.72-.22-.77H58s.11,0,.11,0h0l.06.06,0,0,.06.06v.72l-.06,0,0,.06-.06.05,0,.06-.06.05,0,.06-.06.06-.06,0,0,.06-.06,0,0,.06-.06.05,0,.06h-.5a.4.4,0,0,1-.22-.45,1.12,1.12,0,0,1,.22-.72L57,35Z"/><path class="cls-33" d="M57,35c-.39.89.16,1.11.55,1,.72-.28,1.11-1.55.56-1.77h-.06l.11,0h.06l0,.06.06,0,0,.06V34.4a.06.06,0,0,0,.06.06v.72a.05.05,0,0,1-.06,0l0,.06-.06.05,0,.06-.06.05,0,.06-.06.06,0,0-.06.06-.06,0,0,.06-.06.05,0,.06-.06.05h-.55a.55.55,0,0,1-.28-.44A4.79,4.79,0,0,0,57,35Z"/><path class="cls-33" d="M57,35.12c-.27.78.22,1.06.67.89.66-.28,1.11-1.55.5-1.77h.11l0,0,.06.06,0,0h0v.78l0,0-.06.06,0,.05-.06.06,0,.05-.06.06,0,.06-.06,0-.06.06,0,0-.06.06,0,.05-.06.06h-.55a.4.4,0,0,1-.22-.45,1.78,1.78,0,0,1,.11-.6l-.06.27Z"/><path class="cls-33" d="M57,35.12c-.27.83.22,1.11.67.89.72-.33,1-1.44.5-1.77h0l.06,0,0,.06.06,0h0v.78l-.06,0,0,.06-.06.05,0,.06-.06.05,0,.06-.06.06-.06,0,0,.06-.06,0,0,.06-.06.05,0,.06h-.5a.4.4,0,0,1-.22-.45A1.85,1.85,0,0,1,57,34.9l-.06.22Z"/><path class="cls-33" d="M56.92,35.29c-.17.72.27,1,.77.72a1.39,1.39,0,0,0,.67-1.44v0h0v.56a.05.05,0,0,1-.06,0l0,.06-.06.05,0,.06-.06.05,0,.06-.06.06-.06,0,0,.06-.06,0,0,.06-.06.05,0,.06-.06.05,0,.06h-.34a.58.58,0,0,1-.27-.44,1.67,1.67,0,0,1,0-.5v.11Z"/><path class="cls-33" d="M56.92,35.29c-.17.77.27,1.05.77.72a1.55,1.55,0,0,0,.72-1.33v.5a0,0,0,0,1,0,0l-.06.06,0,.05-.06.06,0,.05-.06.06,0,.06-.06,0-.06.06,0,0-.06.06,0,.05-.06.06,0,.05h-.45a.56.56,0,0,1-.27-.44,1,1,0,0,1,0-.39v.06Z"/><path class="cls-33" d="M56.86,35.4c-.11.72.39.89.89.55a1.52,1.52,0,0,0,.66-1.1v.27s0,.06,0,.06l-.06,0,0,.06-.06.05,0,.06-.06.05,0,.06-.06.06-.06,0,0,.06-.06,0,0,.06-.06.05,0,.06-.06.05h-.39a.56.56,0,0,1-.27-.44.76.76,0,0,1,0-.33v0h0Z"/><path class="cls-33" d="M56.86,35.4c-.11.72.44.89.94.55a1.69,1.69,0,0,0,.56-.83c0,.06,0,.11-.06.11s0,.06,0,.06l-.06.05,0,.06-.06.05,0,.06-.06.06-.06,0,0,.06-.06,0,0,.06-.06.05,0,.06-.06.05,0,.06h-.39a.56.56,0,0,1-.28-.44V35.4Z"/><path class="cls-33" d="M56.86,35.57c0,.72.61.77,1,.33a.85.85,0,0,0,.28-.39l0,.06-.06,0,0,.06-.06,0-.06.06,0,.05-.06.06,0,.05-.06.06,0,.05-.06.06h-.44a.39.39,0,0,1-.22-.44c-.06-.11-.06-.17-.06-.11Z"/></g><path class="cls-35" d="M57.64,34.57c.33-.17.61-.06.61.28a1.22,1.22,0,0,1-.56,1c-.33.17-.61.06-.61-.27A1.4,1.4,0,0,1,57.64,34.57Z"/><path class="cls-36" d="M57.69,34.35c.45-.28.78-.06.78.38A1.56,1.56,0,0,1,57.75,36c-.45.28-.78.05-.78-.39A1.52,1.52,0,0,1,57.69,34.35Zm.06,1.88a2.27,2.27,0,0,0,.94-1.66c0-.56-.5-.78-1-.5a2.1,2.1,0,0,0-.94,1.66c0,.61.5.83,1,.5Z"/><path class="cls-13" d="M48.39,60s3.43,2.49,6.53,2c1.61-.22,3.44-.83,5-3.71A5.74,5.74,0,0,1,60.24,60a7.46,7.46,0,0,1-6.37,3.21,10.67,10.67,0,0,1-6.37-2.27s.33-.45.44-.56S48.39,60,48.39,60Z"/><polygon class="cls-37" points="58.91 58.67 52.04 72.68 60.63 70.41 67.72 56.4 58.91 58.67"/><path class="cls-17" d="M45.62,44.32S43.18,44,42.4,55.23c0,0-.27,4.88,2,7.09a71.84,71.84,0,0,0,6,4.55L51.93,65s-4.6-5.7-5.37-7.09c0,0,3.16-8.86,2.16-11.52S46.56,44.32,45.62,44.32Z"/><path class="cls-18" d="M42.4,55.29s-.27,4.87,2,7.09a71.16,71.16,0,0,0,6,4.54l.17-.22c-1.11-1-5.77-5.37-7-8s1.21-12,1.88-14.3C44.9,44.48,43,45.76,42.4,55.29Z"/><path class="cls-21" d="M45.28,44s-2.54,2.33-2.77,9.09c0,0,3,2.66,5.49.5,0,0,3.1-6.71.55-9.59C48.55,44.1,47.39,42.66,45.28,44Z"/><path class="cls-23" d="M48,53.68s2.6-5.65,1-8.81c-.17,1.83-.89,7.15-3.77,9.59A3.61,3.61,0,0,0,48,53.68Z"/><path class="cls-38" d="M49.66,65.87c1.77,1,2.66,3.54,2.94,3.77a3.46,3.46,0,0,0,3.21-.45,1.49,1.49,0,0,0,.61-1l-1.22.12h0c-.55.16-.83-.72-1.16-1.06s-.28-.66.11-.55.77.44,1.05.44.55-.55-.06-1c-.88-.61-.83-1-2.32-1-.5,0-.72.11-1.72-.78Z"/><path class="cls-25" d="M49.44,66.2c1.83,1.22,2.82,3.27,3.16,3.49.72.44,1.66.22,2.77-.17-.56,0-1.5.45-2.55-.77a29,29,0,0,0-3.38-2.6c.39-.39,1.55-1.72,1.55-1.72h0Z"/></g></g><path class="cls-39" d="M56.16,10.2A9.69,9.69,0,0,1,48,19.77l-1.85,5.88-1.93-6a9.7,9.7,0,1,1,11.9-9.44Z"/><path class="cls-40" d="M21.11,35.45A9.69,9.69,0,0,1,13,45L11.14,50.9l-1.92-6a9.7,9.7,0,1,1,11.89-9.44Z"/><path class="cls-41" d="M46.46,13A2.54,2.54,0,1,1,49,10.45,2.53,2.53,0,0,1,46.46,13Zm0-6.16a3.63,3.63,0,1,0,3.63,3.63A3.62,3.62,0,0,0,46.46,6.82Z"/><polygon class="cls-41" points="14.64 33.01 13.72 32.09 11.42 34.39 9.12 32.09 8.2 33.01 10.5 35.31 8.2 37.61 9.12 38.53 11.42 36.23 13.72 38.53 14.64 37.61 12.34 35.31 14.64 33.01"/></g></svg>