<?xml version="1.0" encoding="utf-8"?>
<!-- Generator: Adobe Illustrator 26.0.1, SVG Export Plug-In . SVG Version: 6.00 Build 0)  -->
<svg version="1.1" id="Layer_1" xmlns="http://www.w3.org/2000/svg" xmlns:xlink="http://www.w3.org/1999/xlink" x="0px" y="0px"
	 viewBox="0 0 260 200" style="enable-background:new 0 0 260 200;" xml:space="preserve">
<style type="text/css">
	.st0{fill:#EEEEEF;stroke:#231916;stroke-width:0.25;stroke-miterlimit:10;}
	.st1{fill:#EEEEEF;fill-opacity:0;}
	.st2{opacity:0.5;fill:#EEEEEF;stroke:#231916;stroke-width:0.25;stroke-miterlimit:10;enable-background:new    ;}
	.st3{opacity:0.7;fill:#EEEEEF;stroke:#231916;stroke-width:0.25;stroke-miterlimit:10;enable-background:new    ;}
	.st4{fill:#DD2625;}
</style>
<g id="Layer_2_00000075157914718882283710000002590234994586268341_">
	<g id="Layer_1-2">
		<path class="st0" d="M173.8,62.6l-19.3,9L129.7,86l-34.9,26.5c-5.5,4.2-9.6,12.1-9.6,18.7c0,7.4,5.2,10.4,11.6,6.7L172,94.5
			c7.4-4.3,13.3-14.7,13.3-23.2C185.3,63.5,180.3,59.9,173.8,62.6z"/>
		<path class="st0" d="M85.1,131.2c0-6.6,4.2-14.5,9.6-18.7L129.7,86l24.8-14.3l19.3-9c2.9-1.2,5.5-1.2,7.5-0.1l0,0l-13.4-7.7
			c-2-1.2-4.8-1.3-7.8-0.1l-19.3,9L116,78.1l-34.9,26.5c-5.5,4.2-9.6,12.1-9.6,18.7c0,3.6,1.2,6.2,3.2,7.4l13.6,7.8l0,0
			C86.3,137.3,85.1,134.8,85.1,131.2z"/>
		<polygon class="st0" points="144.2,77.6 144.7,77.3 131.1,69.4 130.6,69.7 		"/>
		<polygon class="st0" points="137.8,65.5 151.4,73.4 151.9,73.1 138.3,65.3 		"/>
		<polygon class="st0" points="129.8,85.9 130.3,85.6 116.6,77.7 116.2,78 		"/>
		<polygon class="st0" points="137,81.7 137.5,81.5 123.8,73.6 123.4,73.8 		"/>
		<path class="st0" d="M92.7,114.4L93,114l-13.7-7.9l-0.3,0.3L92.7,114.4z"/>
		<polygon class="st0" points="159.1,69.5 159.6,69.3 146,61.4 145.4,61.6 		"/>
		<path class="st0" d="M161.5,54.3l13.6,7.9l0.6-0.2l-13.6-7.9L161.5,54.3z"/>
		<polygon class="st0" points="167.1,65.8 167.6,65.6 153.9,57.7 153.4,57.9 		"/>
		<polygon class="st0" points="104.9,104.8 105.3,104.5 91.7,96.6 91.2,96.9 		"/>
		<polygon class="st0" points="123.6,90.6 124,90.3 110.3,82.4 109.9,82.7 		"/>
		<path class="st0" d="M85.3,133.7c0-0.2-0.1-0.4-0.1-0.6l-13.7-7.9l0.1,0.6L85.3,133.7z"/>
		<path class="st0" d="M88.3,120.2c0.1-0.1,0.2-0.3,0.2-0.4l-13.7-7.9l-0.2,0.4L88.3,120.2z"/>
		<path class="st0" d="M85.7,126.7c0-0.2,0.1-0.3,0.1-0.5l-13.7-7.9l-0.1,0.5L85.7,126.7z"/>
		<polygon class="st0" points="98.7,109.5 99.1,109.2 85.4,101.3 85,101.6 		"/>
		<polygon class="st0" points="117.4,95.3 117.8,95 104.1,87.2 103.7,87.5 		"/>
		<polygon class="st0" points="111.1,100.1 111.5,99.8 97.9,91.9 97.5,92.2 		"/>
		<path class="st0" d="M178.4,63.8c1.7,1.4,2.8,3.8,2.8,7.1c0,7.5-5.3,16.7-11.8,20.5L94,134.9c-1.5,1-3.4,1.5-5.2,1.3
			c1.8,1.6,4.7,1.7,7.9-0.1L172,92.7c6.5-3.8,11.8-13,11.8-20.5C183.8,67.5,181.7,64.4,178.4,63.8z"/>
		<path class="st0" d="M94,132.5L169.3,89c5.4-3.1,9.8-10.7,9.8-16.9c0-5.3-3.3-8.1-7.8-6.5l-16.9,7.8l-24.6,14.2L95,114.1
			c-4.8,3.7-8.4,10.6-8.4,16.2c0,0.3,0,0.6,0,0.9C87.9,133.8,90.8,134.5,94,132.5z"/>
		<polygon class="st0" points="152.8,103.7 153.3,103.5 150.9,102.1 150.4,102.4 		"/>
		<polygon class="st0" points="159.8,99.7 160.2,99.4 157.9,98 157.4,98.3 		"/>
		<polygon class="st0" points="166.8,95.7 167.2,95.4 164.9,94 164.4,94.3 		"/>
		<path class="st0" d="M183.8,71.3l-2.7-1.6v0.6l2.7,1.6C183.8,71.7,183.8,71.5,183.8,71.3z"/>
		<path class="st0" d="M173.6,91.6l0.4-0.3l-2.4-1.4l-0.4,0.3L173.6,91.6z"/>
		<polygon class="st0" points="145.8,107.8 146.3,107.5 143.9,106.1 143.4,106.4 		"/>
		<path class="st0" d="M179.1,85.8l0.2-0.4l-2.5-1.4c-0.1,0.1-0.2,0.3-0.3,0.4L179.1,85.8z"/>
		<path class="st0" d="M182.7,78.6l0.1-0.5l-2.6-1.5l-0.1,0.5L182.7,78.6z"/>
		<polygon class="st0" points="138.8,111.8 139.3,111.5 136.9,110.2 136.4,110.4 		"/>
		<polygon class="st0" points="110.9,127.9 111.3,127.7 109,126.3 108.5,126.5 		"/>
		<polygon class="st0" points="96.9,136 97.4,135.7 95,134.3 94.5,134.6 		"/>
		<polygon class="st0" points="103.9,132 104.4,131.7 102,130.3 101.5,130.6 		"/>
		<polygon class="st0" points="131.8,115.8 132.3,115.5 129.9,114.2 129.5,114.4 		"/>
		<polygon class="st0" points="117.9,123.9 118.3,123.6 116,122.2 115.5,122.5 		"/>
		<polygon class="st0" points="124.8,119.9 125.3,119.6 122.9,118.2 122.5,118.5 		"/>
		<path class="st0" d="M86.8,128.8c0.6,3.8,3.6,5.1,7.3,3c4.4-2.9,7.1-7.6,7.4-12.8c0-4.5-3-6.4-6.8-4.6
			C90.4,118,87.5,123.2,86.8,128.8z"/>
		<path class="st0" d="M101.2,119.8c-0.3,4.7-2.7,9-6.7,11.5c-3.7,2.1-6.7,0.4-6.7-3.8c0.3-4.7,2.7-9,6.7-11.6
			C98.2,113.8,101.2,115.5,101.2,119.8z"/>
		<path class="st0" d="M106.8,56.8c0.1-0.1-0.6-0.5-1.8-1.1c-1.2-0.6-2.4-1-3.7-1.2c-0.1,0-0.2,0-0.2,0l0,0L83.3,98
			c-0.1,0.1,0.6,0.6,1.8,1.1c1.2,0.6,2.4,1,3.7,1.3c0.1,0,0.2,0,0.2,0C93.2,89.9,102.5,67.3,106.8,56.8L106.8,56.8z"/>
		<path class="st0" d="M87.2,99.2c1.5,0.7,2.2,1.2,1.6,1.1c-1.3-0.3-2.5-0.7-3.7-1.3c-1.4-0.7-2.1-1.2-1.6-1.1
			C84.8,98.2,86,98.6,87.2,99.2z"/>
		<path class="st0" d="M87.9,100c0-0.1-0.4-0.4-1.2-0.7c-0.8-0.4-1.6-0.7-2.5-0.9c-0.1,0-0.1,0-0.1,0l0,0l-12.2,29.8
			c0,0.1,0.4,0.4,1.2,0.7c0.8,0.4,1.6,0.7,2.5,0.9c0.1,0,0.1,0,0.1,0C78.7,122.6,85,107.2,87.9,100L87.9,100z"/>
		<polygon class="st0" points="124.8,70 138.5,77.9 138.5,76.6 124.8,68.7 		"/>
		<polygon class="st0" points="138.5,77.9 179,54.5 179,53.2 138.5,76.6 		"/>
		<polygon class="st0" points="138.5,76.6 179,53.2 165.3,45.4 124.8,68.7 		"/>
		<polygon class="st0" points="131.3,108 106.1,93.2 186.4,46.8 211.7,61.6 		"/>
		<polygon class="st0" points="197,56.8 191.2,27.1 172.5,38.2 151.9,40.7 140.1,33.8 136.7,62.7 148.5,69.6 159.7,91.6 170.6,85.3 
			197.3,69.6 		"/>
		<polygon class="st0" points="114.1,102.2 88.9,87.4 85.8,96.7 111,111.5 		"/>
		<polygon class="st0" points="88.2,98.1 90.2,91 111.2,103.3 108.6,110.1 		"/>
		<polygon class="st0" points="151.9,40.7 140.1,33.8 136.7,62.7 148.5,69.6 		"/>
		<polygon class="st0" points="140.9,37 137.9,62.1 147.5,67.6 150.5,42.6 		"/>
		<polygon class="st0" points="151.9,40.7 148.5,69.6 159.7,91.6 170.6,85.3 172.5,38.2 		"/>
		<polygon class="st0" points="172.5,35.8 151.9,38.3 140.1,31.4 144.7,19.7 163.4,8.6 191.2,24.7 		"/>
		<polygon class="st0" points="172.5,35.8 151.9,38.3 140.1,31.4 140.1,33.8 151.9,40.7 172.5,38.2 191.2,27.1 191.2,24.7 		"/>
		<polygon class="st0" points="140.1,31.4 140.1,33.8 151.9,40.7 151.9,38.3 		"/>
		<polygon class="st0" points="154.1,42.8 151.1,68.3 164.7,69.3 169.1,64.9 170.1,40.9 		"/>
		<polygon class="st0" points="193.5,51.4 189.5,30.9 174.9,39.6 173.9,62.7 		"/>
		<polygon class="st1" points="141.2,37.2 140.9,37.1 138,61.6 148.5,59.6 150.5,42.6 		"/>
		<polygon class="st1" points="158.3,50.8 158.3,42.3 154.1,42.8 152.5,56.2 		"/>
		<polygon class="st1" points="192.9,48.3 189.5,30.9 178.7,37.3 179.3,40.3 		"/>
		<polygon class="st1" points="170.1,40.9 162.7,41.8 162.7,47.4 169.9,44.5 		"/>
		<polygon class="st0" points="136.4,62.6 107.2,84.4 119.3,91.4 148.5,69.6 		"/>
		<polygon class="st0" points="148.5,69.6 119.3,91.4 131.3,108 159.7,91.6 		"/>
		<polygon class="st0" points="141.1,91.5 124.5,94.5 132,104.9 145.3,97.2 		"/>
		<polygon class="st0" points="153.3,84.3 147.6,73.2 122.6,91.9 123.1,92.6 147.5,88.2 		"/>
		<polygon class="st0" points="114.1,102.2 88.9,87.4 100.8,80.6 126,95.4 		"/>
		<polygon class="st0" points="111,147.5 85.8,132.7 85.8,96.7 111,111.5 		"/>
		<polygon class="st0" points="88.2,131.4 88.2,98.1 108.6,110.1 108.6,143.4 		"/>
		<polygon class="st0" points="89.3,130.7 89.3,100.2 107.4,110.8 107.4,141.3 		"/>
		<polygon class="st0" points="131.3,108 126,95.4 114.1,102.2 111,111.5 111,147.5 205.2,93.2 211,75.3 211.7,61.6 		"/>
		<path class="st0" d="M213,85.3l-19.3,9l-24.8,14.3L134,135.1c-5.5,4.2-9.6,12.1-9.6,18.7c0,7.4,5.2,10.4,11.6,6.7l75.3-43.5
			c7.4-4.3,13.4-14.6,13.4-23.2C224.5,86.1,219.5,82.5,213,85.3z"/>
		<path class="st0" d="M124.3,153.8c0-6.6,4.2-14.5,9.6-18.7l34.9-26.5l24.8-14.3l19.3-9c2.9-1.2,5.5-1.2,7.5-0.1l0,0l-13.4-7.7
			c-2-1.3-4.8-1.3-7.8-0.1l-19.3,9l-24.8,14.3l-34.9,26.6c-5.5,4.2-9.6,12.1-9.6,18.7c0,3.6,1.2,6.1,3.2,7.4l13.6,7.8l0,0
			C125.5,159.9,124.3,157.4,124.3,153.8z"/>
		<polygon class="st0" points="183.4,100.2 183.9,99.9 170.2,92 169.8,92.3 		"/>
		<polygon class="st0" points="177,88.2 190.6,96 191.1,95.8 177.4,87.9 		"/>
		<polygon class="st0" points="169,108.5 169.5,108.2 155.8,100.3 155.3,100.6 		"/>
		<polygon class="st0" points="176.2,104.3 176.7,104.1 163,96.2 162.5,96.5 		"/>
		<path class="st0" d="M131.8,137l0.4-0.4l-13.7-7.9c-0.1,0.1-0.2,0.2-0.3,0.4L131.8,137z"/>
		<polygon class="st0" points="198.3,92.1 198.8,91.9 185.1,84 184.6,84.2 		"/>
		<path class="st0" d="M200.7,76.9l13.6,7.9l0.6-0.2l-13.6-7.9C201.2,76.8,200.9,76.8,200.7,76.9z"/>
		<polygon class="st0" points="206.2,88.4 206.8,88.2 193.1,80.3 192.6,80.5 		"/>
		<polygon class="st0" points="144.1,127.4 144.5,127.1 130.8,119.2 130.4,119.5 		"/>
		<polygon class="st0" points="162.8,113.2 163.2,112.9 149.5,105 149.1,105.3 		"/>
		<path class="st0" d="M124.5,156.3c0-0.2-0.1-0.4-0.1-0.6l-13.7-7.9c0,0.2,0,0.4,0.1,0.6L124.5,156.3z"/>
		<path class="st0" d="M127.5,142.8l0.2-0.4l-13.7-7.9c-0.1,0.1-0.2,0.3-0.2,0.4L127.5,142.8z"/>
		<path class="st0" d="M124.9,149.3l0.1-0.5l-13.7-7.9c0,0.2-0.1,0.3-0.1,0.5L124.9,149.3z"/>
		<polygon class="st0" points="137.9,132.1 138.3,131.8 124.6,123.9 124.2,124.3 		"/>
		<polygon class="st0" points="156.5,118 156.9,117.7 143.3,109.8 142.9,110.1 		"/>
		<polygon class="st0" points="150.3,122.7 150.7,122.4 137.1,114.5 136.6,114.8 		"/>
		<path class="st0" d="M217.6,86.5c1.8,1.4,2.8,3.8,2.8,7.1c0,7.5-5.3,16.7-11.8,20.5l-75.3,43.5c-1.5,1-3.4,1.4-5.2,1.3
			c1.8,1.6,4.7,1.7,7.9-0.1l75.3-43.5c6.5-3.8,11.8-13,11.8-20.5C223,90,220.9,87,217.6,86.5z"/>
		<path class="st0" d="M133.2,155.1l75.3-43.5c5.4-3.1,9.8-10.7,9.8-16.9c0-5.3-3.3-8.1-7.8-6.5l-16.9,7.9L169,110.3l-34.8,26.4
			c-4.8,3.7-8.3,10.5-8.3,16.2c0,0.3,0,0.6,0,0.9C127.1,156.4,129.9,157,133.2,155.1z"/>
		<polygon class="st0" points="192,126.3 192.4,126.1 190.1,124.7 189.6,125 		"/>
		<polygon class="st0" points="198.9,122.3 199.4,122 197,120.7 196.6,120.9 		"/>
		<polygon class="st0" points="205.9,118.3 206.4,118 204,116.6 203.6,116.9 		"/>
		<path class="st0" d="M223,93.9l-2.7-1.6c0,0.2,0,0.4,0,0.6l2.7,1.5C223,94.3,223,94.1,223,93.9z"/>
		<path class="st0" d="M212.8,114.2l0.4-0.3l-2.4-1.4l-0.4,0.3L212.8,114.2z"/>
		<polygon class="st0" points="185,130.4 185.4,130.1 183.1,128.7 182.6,129 		"/>
		<path class="st0" d="M218.3,108.5l0.3-0.4l-2.5-1.4l-0.3,0.4L218.3,108.5z"/>
		<path class="st0" d="M221.9,101.2l0.1-0.5l-2.6-1.5l-0.1,0.5L221.9,101.2z"/>
		<polygon class="st0" points="178,134.4 178.5,134.1 176.1,132.8 175.6,133 		"/>
		<polygon class="st0" points="150.1,150.5 150.5,150.3 148.1,148.9 147.7,149.2 		"/>
		<polygon class="st0" points="136.1,158.6 136.6,158.3 134.2,157 133.7,157.2 		"/>
		<polygon class="st0" points="143.1,154.6 143.5,154.3 141.2,152.9 140.7,153.2 		"/>
		<polygon class="st0" points="171,138.4 171.5,138.2 169.1,136.8 168.6,137.1 		"/>
		<polygon class="st0" points="157,146.5 157.5,146.2 155.1,144.9 154.7,145.1 		"/>
		<polygon class="st0" points="164,142.5 164.5,142.2 162.1,140.8 161.6,141.1 		"/>
		<path class="st0" d="M217.5,95.3c0,5.3-3.8,11.8-8.4,14.5s-8.4,0.5-8.4-4.8s3.8-11.8,8.4-14.5S217.5,90,217.5,95.3z"/>
		<path class="st0" d="M126,151.5c0.6,3.8,3.6,5.1,7.3,3c4.4-2.9,7.1-7.6,7.4-12.9c0-4.5-3-6.4-6.8-4.6
			C129.6,140.6,126.7,145.8,126,151.5z"/>
		<path class="st0" d="M216.8,96c-0.3,5.2-3,10-7.4,12.9c-4.1,2.4-7.4,0.4-7.4-4.3c0.3-5.2,3.1-10,7.4-12.9
			C213.4,89.3,216.8,91.2,216.8,96z"/>
		<path class="st0" d="M140.3,142.4c-0.3,4.7-2.7,9-6.7,11.6c-3.7,2.1-6.7,0.4-6.7-3.9c0.3-4.7,2.7-9,6.7-11.5
			C137.4,136.4,140.3,138.1,140.3,142.4z"/>
		<polygon class="st0" points="191.2,118 142.6,146.1 142.6,136.6 191.2,108.6 		"/>
		<polygon class="st0" points="188.6,105.9 140,133.9 142.6,136.6 191.2,108.6 		"/>
		<path class="st0" d="M148.4,142.8c-0.1,1.9-1.1,3.7-2.7,4.7c-1.5,0.9-2.7,0.2-2.7-1.6c0.1-1.9,1.1-3.7,2.7-4.7
			C147.2,140.3,148.4,141,148.4,142.8z"/>
		<path class="st0" d="M154.2,139.5c-0.1,1.9-1.1,3.7-2.7,4.7c-1.5,0.9-2.7,0.2-2.7-1.6c0.1-1.9,1.1-3.7,2.7-4.7
			C153,137,154.2,137.7,154.2,139.5z"/>
		<path class="st0" d="M160.6,135.7c-0.1,1.9-1.1,3.7-2.7,4.7c-1.5,0.9-2.7,0.2-2.7-1.6c0.1-1.9,1.1-3.7,2.7-4.7
			C159.4,133.3,160.6,134,160.6,135.7z"/>
		<path class="st0" d="M178.2,125.6c-0.1,1.9-1.1,3.7-2.7,4.7c-1.5,0.9-2.7,0.2-2.7-1.6c0.1-1.9,1.1-3.7,2.7-4.7
			C177,123.1,178.2,123.8,178.2,125.6z"/>
		<path class="st0" d="M185.4,121.4c-0.1,1.9-1.1,3.7-2.7,4.7c-1.5,0.9-2.7,0.2-2.7-1.6c0.1-1.9,1.1-3.7,2.7-4.7
			C184.2,118.9,185.4,119.7,185.4,121.4z"/>
		<polygon class="st0" points="198.9,110.4 191.2,114.9 191.2,111.2 198.9,106.7 		"/>
		<path class="st0" d="M189.2,101.2c-0.1,1.5-0.9,2.8-2.1,3.6c-1.1,0.7-2.1,0.1-2.1-1.2c0.1-1.5,0.8-2.8,2.1-3.6
			C188.2,99.4,189.2,99.9,189.2,101.2z"/>
		<path class="st0" d="M169.7,112.5c-0.1,1.5-0.8,2.8-2.1,3.6c-1.1,0.7-2.1,0.1-2.1-1.2c0.1-1.5,0.8-2.8,2.1-3.6
			C168.8,110.6,169.7,111.1,169.7,112.5z"/>
		<polygon class="st0" points="163.7,92.5 177.3,100.4 177.3,99.1 163.7,91.2 		"/>
		<polygon class="st0" points="177.3,100.4 217.8,77 217.8,75.7 177.3,99.1 		"/>
		<polygon class="st0" points="177.3,99.1 217.8,75.7 204.2,67.9 163.7,91.2 		"/>
		<polygon class="st0" points="201.8,56.2 175,71.7 180.8,75.1 207.5,59.7 		"/>
		<polygon class="st0" points="201.8,56.2 209,57.6 217.3,62.6 207.5,59.7 		"/>
		<polygon class="st0" points="181.8,82.6 182.1,90.9 217.3,70.4 217.3,62.6 208.6,67.1 		"/>
		<polygon class="st0" points="181.8,82.6 180.8,75.1 207.5,59.7 217.3,62.6 208.6,67.1 		"/>
		<polygon class="st2" points="181.8,82.6 180.8,75.1 207.5,59.7 217.3,62.6 208.6,67.1 		"/>
		<polygon class="st0" points="182.1,90.9 173.4,85.9 175,71.7 180.8,75.1 181.8,82.6 		"/>
		<polygon class="st0" points="119.8,161.8 123.4,163.7 127.6,159.4 123.9,157.6 		"/>
		<polygon class="st0" points="123.4,163.7 124.1,166.9 127.6,166.2 127.6,159.4 		"/>
		<polygon class="st0" points="192.1,121.9 175.1,131.7 175.1,123.7 192.1,113.8 		"/>
		<polygon class="st0" points="175.1,131.7 172.8,130.3 172.8,122.2 175.1,123.7 		"/>
		<polygon class="st0" points="192.1,113.8 175.1,123.7 172.8,122.2 189.8,112.3 		"/>
		<polygon class="st0" points="127.6,159.4 190,119.9 192.5,120.6 192.5,122.8 190.6,126.2 127.6,166.2 		"/>
		<polygon class="st0" points="190,119.9 127.6,159.4 123.9,157.6 186.4,118.1 		"/>
		<polygon class="st0" points="192.5,120.6 190,119.9 186.4,118.1 188.9,118.8 		"/>
		<path class="st0" d="M139.4,70.8c0.1-0.1-0.6-0.6-1.8-1.1c-1.2-0.6-2.4-1-3.7-1.3c-0.1,0-0.2,0-0.2,0l0,0L116,112
			c-0.1,0.1,0.6,0.6,1.8,1.1c1.2,0.6,2.4,1,3.7,1.3c0.1,0,0.2,0,0.2,0C125.9,103.9,135.1,81.3,139.4,70.8L139.4,70.8z"/>
		<path class="st0" d="M119.8,113.2c1.4,0.7,2.2,1.2,1.6,1.1c-1.3-0.3-2.5-0.7-3.7-1.3c-1.4-0.7-2.2-1.2-1.6-1.1
			C117.4,112.2,118.7,112.7,119.8,113.2z"/>
		<path class="st0" d="M120.6,114.1c0-0.1-0.4-0.4-1.2-0.7c-0.8-0.4-1.6-0.7-2.5-0.9c-0.1,0-0.1,0-0.1,0l0,0l-12.2,29.8
			c0,0.1,0.4,0.4,1.2,0.7c0.8,0.4,1.6,0.7,2.5,0.9c0.1,0,0.1,0,0.1,0C111.3,136.7,117.6,121.2,120.6,114.1L120.6,114.1z"/>
		<polygon class="st0" points="110.2,166.6 127.8,176.5 127.8,148.9 111,131.9 		"/>
		<polygon class="st0" points="48.5,104.6 48.8,133.9 42.8,140.4 41.1,141.4 42.7,107.8 47,104.4 		"/>
		<polygon class="st0" points="110.2,166.6 66.7,141.3 67.8,106.8 111,131.9 		"/>
		<polygon class="st3" points="110.2,166.6 66.7,141.3 67.8,106.8 111,131.9 		"/>
		<polygon class="st0" points="48.8,133.8 66.7,141.3 67.8,106.8 50.7,104.5 		"/>
		<polygon class="st2" points="110.2,166.6 127.8,176.5 127.8,148.9 111,131.9 		"/>
		<polygon class="st2" points="48.8,133.8 66.7,141.3 67.8,106.8 50.7,104.5 		"/>
		<polygon class="st0" points="110.2,166.6 66.7,141.3 48.8,133.8 41.1,141.4 58,146.7 106.1,174.6 118.2,185.9 127.8,176.5 		"/>
		<polygon class="st0" points="52.1,151.9 35.6,146.6 41.1,142.3 58,147.6 106.1,175.5 118.2,186.8 112.3,191.2 95.1,176.7 		"/>
		<polygon class="st0" points="58,146.7 41.1,141.4 41.1,142.3 58,147.6 106.1,175.5 118.2,186.8 118.2,185.9 106.1,174.6 		"/>
		<polygon class="st0" points="114.5,132.4 71.3,107.3 67.8,106.8 111,131.9 124.3,148.5 127.8,148.9 		"/>
		<polygon class="st0" points="126.8,147.5 126.8,174.7 118.9,183.4 117.2,184.4 118.8,150.9 123.1,147 		"/>
		<polygon class="st0" points="127.8,148.9 127.8,176.2 119.9,184.9 118.2,185.9 119.8,152.3 124.1,148.5 		"/>
		<polygon class="st0" points="115.2,180.2 117.6,178.8 119.5,180.5 116.9,181.8 112.3,191.2 110.6,189.6 		"/>
		<polygon class="st0" points="115.2,180.2 110.6,189.6 112.3,191.2 116.9,181.8 		"/>
		<polygon class="st0" points="116.9,181.8 119.3,180.5 120.7,181.2 118.2,187.9 112.3,191.2 		"/>
		<polygon class="st0" points="39.8,137.3 42.2,136 43.8,136.5 41.4,137.8 37.2,147.1 35.6,146.6 		"/>
		<polygon class="st0" points="39.8,137.3 35.6,146.6 37.2,147.1 41.4,137.8 		"/>
		<polygon class="st0" points="50.7,104.5 50.2,134.4 44.3,140.6 42.6,141.6 44.2,108 48.5,104.6 		"/>
		<polygon class="st0" points="41.4,137.8 43.8,136.5 45.2,137.2 42.7,142.8 37.2,147.1 		"/>
		<path class="st0" d="M122.7,50.7c-0.7-0.4-1.5-0.4-2.2,0c-0.3,0.1-0.4,0.4-0.5,0.6v30.8c0,0.3,0.2,0.5,0.5,0.7
			c0.7,0.3,1.5,0.3,2.2,0c0.3-0.1,0.4-0.4,0.5-0.7V51.4C123.1,51.1,123,50.9,122.7,50.7z"/>
		<path class="st0" d="M122.7,50.7c0.4,0.1,0.5,0.5,0.4,0.9c-0.1,0.2-0.2,0.3-0.4,0.4c-0.7,0.4-1.5,0.4-2.2,0
			c-0.4-0.1-0.6-0.5-0.4-0.8c0.1-0.2,0.2-0.4,0.4-0.4C121.2,50.4,122,50.4,122.7,50.7z"/>
		<polygon class="st0" points="210.8,69.4 208.6,67.8 201.1,72.1 201.1,78.8 210.8,73.2 		"/>
		<circle class="st4" cx="176.1" cy="16.6" r="5.9"/>
		<circle class="st4" cx="149.2" cy="16.9" r="5.9"/>
		<circle class="st4" cx="179.2" cy="33.8" r="5.9"/>
	</g>
</g>
</svg>
