<svg xmlns="http://www.w3.org/2000/svg" viewBox="0 0 208.49 180.74"><defs><style>.cls-1{isolation:isolate;}.cls-2,.cls-3,.cls-4,.cls-5,.cls-6{fill:#eeeeef;stroke:#231916;stroke-miterlimit:10;stroke-width:0.25px;}.cls-2,.cls-6{mix-blend-mode:multiply;}.cls-2{opacity:0.1;}.cls-4{opacity:0.5;}.cls-5{opacity:0;}.cls-7{fill:#dd2625;}</style></defs><g class="cls-1"><g id="Layer_2" data-name="Layer 2"><g id="Layer_1-2" data-name="Layer 1"><path class="cls-2" d="M92.76,139.91l-10.21,5.9-2.92-1.69,10.22-5.9ZM83,134.25l3.55,2L76.29,142.2l-3.55-2Zm-11.78-6.81,2.5,1.45-12.4,7.16-2.53-1.43Zm21.37,26.32-3-1.67,12.13-7,2.92,1.68Z"/><path class="cls-3" d="M106.24,64.5h-.57V47.39A4.27,4.27,0,0,0,104,44.28l-2.77-1.91a4.87,4.87,0,0,1-1.88-3.58V25.16a1.44,1.44,0,0,1,2.29-1.36L112,29.43l-.27.49L101.41,24.3a1.05,1.05,0,0,0-1-.1,1,1,0,0,0-.41,1V38.79a4.29,4.29,0,0,0,1.63,3.11l2.77,1.92a4.87,4.87,0,0,1,1.88,3.57Z"/><path class="cls-3" d="M101.87,39.2c0,.58-.42.82-.92.53L98.4,38.26a2,2,0,0,1-.92-1.6V25.32c0-.58.41-.82.92-.53L101,26.26a2.06,2.06,0,0,1,.92,1.6Z"/><path class="cls-3" d="M88.25,99.91a20.62,20.62,0,0,0-.17-2.44l1.29-1c-.05-.42-.11-.83-.19-1.22l-1.72-.4a11.55,11.55,0,0,0-.55-1.35L88.18,92c-.15-.33-.31-.65-.48-1L85.22,89.8l.67-1.06a8.69,8.69,0,0,0-.75-.61l-6.59-4.46-9.12-4.13a7.33,7.33,0,0,0-1-.24l-.52.81-2.5-.92a10.8,10.8,0,0,0-1.1.16c-.33.74-.54,1.24-.7,1.61L61,80.39c-.35.15-.71.31-1.07.49l-.1.05c-.29,1.1-.42,1.65-.52,2.08l-.45.25L56.44,83c-.39.29-.77.59-1.15.9-.08,1-.1,1.54-.11,1.94-.41.34-.81.69-1.2,1.06l-2,0c-.37.38-.72.78-1.07,1.18.15.88.24,1.31.31,1.65-.52.62-1,1.26-1.52,1.93l-1.69.19c-.31.45-.61.91-.91,1.38.35.66.55,1,.7,1.24-.54.89-1,1.79-1.52,2.72l-1.51.27c-.23.5-.46,1-.68,1.5.51.4.8.61,1,.75-.47,1.11-.89,2.24-1.24,3.36l-1.38.3c-.15.5-.29,1-.42,1.51.61.14,1,.2,1.23.24a29,29,0,0,0-.61,3.36l-1.38.68c0,.44-.08.86-.1,1.29a.62.62,0,0,0,0,.13c.65-.1,1-.18,1.34-.24,0,.35,0,.7,0,1a18.77,18.77,0,0,0,.1,2l-1.29,1c0,.42.11.83.19,1.23l1.43-.26a12.84,12.84,0,0,0,.69,2.17l-1.12,1.28c.15.33.31.65.49,1l1.88-.05a10.48,10.48,0,0,0,.82.93l-.89,1.41a8.81,8.81,0,0,0,.75.62l3.69.78L48.45,125l3.95,1.77,6.41,3.42.54-.62,1.95,1.86a7.48,7.48,0,0,0,1,.24l.79-1.24a5.58,5.58,0,0,0,.59.09l1.63,1.26a10.8,10.8,0,0,0,1.1-.16c.25-.54.42-.94.56-1.26a14,14,0,0,0,1.68-.45l1.09.67c.35-.15.71-.31,1.07-.49l.1-.05c.14-.52.24-.92.32-1.24.27-.13.53-.28.8-.44.44-.25.88-.53,1.31-.81l1,.3,0,.09c.39-.29.78-.59,1.16-.9,0-.49.06-.86.07-1.16A27.81,27.81,0,0,0,77.57,124H78.7c.37-.39.72-.78,1.08-1.19l-.19-1c.73-.87,1.43-1.78,2.09-2.73h1c.31-.46.61-.92.91-1.39-.2-.37-.34-.63-.46-.83.66-1.1,1.28-2.24,1.83-3.39h1c.23-.5.46-1,.68-1.51-.32-.25-.55-.42-.74-.55a34.37,34.37,0,0,0,1.27-3.65l1.08-.2c.15-.5.28-1,.41-1.51l-1-.21a26.32,26.32,0,0,0,.55-3.47l1.22-.6c0-.44.09-.88.11-1.31,0,0,0-.08,0-.11Z"/><path class="cls-3" d="M47.86,115.38c0-11.6,8-25.7,18-31.5a16,16,0,0,1,8.21-2.48l-4.62-1.86a7.33,7.33,0,0,0-1-.24l-.52.81-2.5-.92a10.8,10.8,0,0,0-1.1.16c-.33.74-.54,1.24-.7,1.61L61,80.39c-.35.15-.71.31-1.07.49l-.1.05c-.29,1.1-.42,1.65-.52,2.08l-.45.25L56.44,83c-.39.29-.77.59-1.15.9-.08,1-.1,1.54-.11,1.94-.41.34-.81.69-1.2,1.06l-2,0c-.37.38-.72.78-1.07,1.18.15.88.24,1.31.31,1.65-.52.62-1,1.26-1.52,1.93l-1.69.19c-.31.45-.61.91-.91,1.38.35.66.55,1,.7,1.24-.54.89-1,1.79-1.52,2.72l-1.51.27c-.23.5-.46,1-.68,1.5.51.4.8.61,1,.75-.47,1.11-.89,2.24-1.24,3.36l-1.38.3c-.15.5-.29,1-.42,1.51.61.14,1,.2,1.23.24a29,29,0,0,0-.61,3.36l-1.38.68c0,.44-.08.86-.1,1.29a.62.62,0,0,0,0,.13c.65-.1,1-.18,1.34-.24,0,.35,0,.7,0,1a18.77,18.77,0,0,0,.1,2l-1.29,1c0,.42.11.83.19,1.23l1.43-.26a12.84,12.84,0,0,0,.69,2.17l-1.12,1.28c.15.33.31.65.49,1l1.88-.05a10.48,10.48,0,0,0,.82.93l-.89,1.41a8.81,8.81,0,0,0,.75.62l3.69.78L48.45,125l3.95,1.77.26.12C49.68,124.84,47.86,120.89,47.86,115.38Z"/><path class="cls-3" d="M82.67,119c.31-.46.61-.92.91-1.39-.2-.37-.34-.63-.46-.83.66-1.1,1.28-2.24,1.83-3.39h1c.23-.5.46-1,.68-1.51-.32-.25-.55-.42-.74-.55a34.37,34.37,0,0,0,1.27-3.65l1.08-.2c.15-.5.28-1,.41-1.51l-1-.21a26.32,26.32,0,0,0,.55-3.47l1.22-.6c0-.44.09-.88.11-1.31,0,0,0-.08,0-.11l-1.24-.39a20.62,20.62,0,0,0-.17-2.44l1.29-1c-.05-.42-.11-.83-.19-1.22l-1.72-.4a11.55,11.55,0,0,0-.55-1.35l1-1.2A4.72,4.72,0,0,1,86.13,91C83.21,86.5,77.52,85.57,71,89.35c-9.52,5.5-17.24,18.87-17.24,29.86,0,4.78,1.46,8.32,3.88,10.35l1.2.59.54-.62,1.95,1.86a7.48,7.48,0,0,0,1,.24l.79-1.24a5.58,5.58,0,0,0,.59.09l1.63,1.26a10.8,10.8,0,0,0,1.1-.16c.25-.54.42-.94.56-1.26a14,14,0,0,0,1.68-.45l1.09.67c.35-.15.71-.31,1.07-.49l.1-.05c.14-.52.24-.92.32-1.24.27-.13.53-.28.8-.44.44-.25.88-.53,1.31-.81l1,.3,0,.09c.39-.29.78-.59,1.16-.9,0-.49.06-.86.07-1.16A27.81,27.81,0,0,0,77.57,124H78.7c.37-.39.72-.78,1.08-1.19l-.19-1c.73-.87,1.43-1.78,2.09-2.73Z"/><polygon class="cls-3" points="55.32 112.29 55.73 110.78 50.04 102.07 42.53 103.44 42.12 104.95 49.57 103.56 55.32 112.29"/><polygon class="cls-3" points="57.34 106.37 58.02 104.87 53.1 96.22 44.81 97.53 44.13 99.03 52.24 97.65 57.34 106.37"/><polygon class="cls-3" points="48.05 91.92 47.14 93.3 55.86 92.31 60.35 100.64 61.26 99.25 56.9 91.06 48.05 91.92"/><polygon class="cls-3" points="52.02 86.97 50.95 88.15 60.09 87.81 64.16 95.49 65.22 94.31 61.23 86.84 52.02 86.97"/><polygon class="cls-3" points="56.44 83.03 55.29 83.93 64.63 84.47 68.5 91.26 69.65 90.37 65.81 83.83 56.44 83.03"/><polygon class="cls-3" points="61.03 80.39 59.86 80.93 69.14 82.61 73.07 88.27 74.24 87.72 70.31 82.24 61.03 80.39"/><polygon class="cls-3" points="74.43 82.19 65.46 79.19 64.36 79.35 73.43 82.05 77.57 86.69 78.67 86.53 74.43 82.19"/><polygon class="cls-3" points="54.56 117.97 54.56 116.57 48.08 107.87 41.35 109.23 41.24 110.65 47.74 109.36 54.56 117.97"/><polygon class="cls-3" points="54.76 123.09 54.56 121.86 47.21 113.57 41.35 114.52 41.55 115.75 47.18 114.95 54.76 123.09"/><polygon class="cls-3" points="56.18 127.11 55.76 126.28 47.53 118.67 42.55 118.94 43.04 119.9 47.8 119.83 56.18 127.11"/><polygon class="cls-3" points="49.02 122.81 44.85 122.19 45.6 122.81 49.58 123.68 58.81 130.15 58.06 129.53 49.02 122.81"/><path class="cls-3" d="M86.94,99.93a1.52,1.52,0,0,1,.64-1.63s1.68-2.71,1.6-3.1c-1.59.76-1.15.88-1.92,1.21-.61.27-.73.29-1-.36a1.29,1.29,0,0,1,.34-1.6L88.18,92c-.15-.33-.31-.65-.48-1-1.57,1.22-1.12,1.37-1.89,1.94-.6.45-.73.51-1.18.07s-.32-1,0-1.46l1.25-2.86a8.69,8.69,0,0,0-.75-.61c-1.44,1.61-1,1.78-1.68,2.53-.56.61-.69.71-1.28.51s-.56-.68-.32-1.23l.78-3.06a7.33,7.33,0,0,0-1-.24c-1.22,1.89-.72,2.06-1.32,3-.49.71-.6.84-1.3.9s-.76-.36-.62-.91l.22-3.07c-.36,0-.73.09-1.1.16-.91,2-.37,2.2-.84,3.18-.36.78-.46.93-1.21,1.24-.91.37-.92,0-.89-.53l-.39-2.85c-.36.15-.71.32-1.07.5l-.1,0c-.54,2,0,2.18-.25,3.17a2.06,2.06,0,0,1-1.06,1.49c-.91.65-1,.33-1.09-.11l-1-2.45-1.16.89c-.13,1.92.48,2,.39,3a2,2,0,0,1-.82,1.64c-.86.89-1,.65-1.22.32l-1.62-1.87c-.36.38-.71.77-1.06,1.18.28,1.65.92,1.71,1,2.53.08.65.07.81-.54,1.68-.73,1.06-1,.93-1.26.72l-2.13-1.17c-.31.46-.61.92-.91,1.39.68,1.28,1.35,1.3,1.65,1.94s.26.65-.21,1.61c-.57,1.15-.86,1.14-1.22,1.06L58,104.87c-.23.5-.46,1-.68,1.5,1,.82,1.71.79,2.19,1.21s.43.45.13,1.42c-.37,1.18-.69,1.28-1.1,1.36l-2.83.42c-.14.5-.28,1-.41,1.51,1.31.29,2,.22,2.62.4s.57.21.46,1.14c-.13,1.12-.47,1.33-.9,1.54l-2.94,1.2c0,.43-.08.86-.11,1.29V118c1.49-.24,2.18-.35,2.9-.43.56-.07.67,0,.76.78a1.52,1.52,0,0,1-.64,1.63l-2.91,1.89c0,.42.12.83.2,1.23,1.58-.76,2.26-.9,3-1.24.61-.27.73-.28,1,.37a1.27,1.27,0,0,1-.34,1.6l-2.7,2.46c.15.33.31.65.49,1a32,32,0,0,1,3-2c.6-.45.73-.51,1.18-.07s.32,1,0,1.46l-2.35,2.86c.24.22.49.42.75.62a32.35,32.35,0,0,1,2.78-2.55c.56-.6.69-.7,1.28-.5s.56.68.32,1.23l-1.89,3.06a7.48,7.48,0,0,0,1,.24,31.29,31.29,0,0,1,2.42-3c.48-.71.6-.85,1.3-.9s.76.36.62.91l-1.33,3.06a10.8,10.8,0,0,0,1.1-.16c.91-2,1.48-2.2,1.95-3.17.36-.78.46-.94,1.21-1.24.91-.37.92,0,.89.52l-.72,2.85c.35-.15.71-.31,1.07-.49l.1-.05c.54-2,1.08-2.19,1.36-3.17a2,2,0,0,1,1.06-1.49c.91-.65,1-.33,1.09.11l-.1,2.45c.39-.29.78-.59,1.16-.9.14-1.9.64-2,.73-3A2.09,2.09,0,0,1,77,122.4c.86-.88,1-.65,1.22-.31L78.7,124c.37-.39.72-.78,1.08-1.19-.28-1.63.19-1.72.08-2.54-.09-.65-.07-.8.53-1.68.74-1,1-.93,1.27-.71l1,1.18c.31-.46.61-.92.91-1.39-.68-1.27-.23-1.31-.53-2s-.26-.65.21-1.61c.57-1.16.86-1.14,1.22-1.07l1.43.41c.23-.5.46-1,.68-1.51-1-.81-.59-.8-1.07-1.23s-.43-.44-.13-1.42c.37-1.18.69-1.28,1.1-1.35l1.71-.4c.15-.5.28-1,.41-1.51a9.65,9.65,0,0,1-1.5-.43c-.49-.14-.57-.21-.46-1.13.13-1.13.47-1.33.9-1.54l1.82-1.18c0-.44.09-.88.11-1.31,0,0,0-.08,0-.11-1.5.24-1.07.33-1.79.41S87,100.75,86.94,99.93Z"/><path class="cls-4" d="M85.08,103.3c0,7.47-5.25,16.56-11.72,20.3s-11.72.7-11.72-6.77,5.25-16.56,11.72-20.3S85.08,95.82,85.08,103.3Z"/><path class="cls-4" d="M83.48,104.22c0,6.45-4.53,14.3-10.12,17.53s-10.12.61-10.12-5.85,4.53-14.29,10.12-17.52S83.48,97.77,83.48,104.22Z"/><path class="cls-3" d="M79,99a7.29,7.29,0,0,1,1.36,4.63c0,5.61-3.94,12.44-8.8,15.24-2.13,1.23-4.07,1.48-5.59.91,1.55,2,4.3,2.26,7.44.45,4.86-2.81,8.8-9.63,8.8-15.24C82.16,101.83,80.91,99.72,79,99Z"/><path class="cls-3" d="M71.51,118.86c4.86-2.8,8.8-9.63,8.8-15.24A7.29,7.29,0,0,0,79,99c-1.52-.57-3.47-.31-5.59.91-4.86,2.81-8.8,9.63-8.8,15.24a7.29,7.29,0,0,0,1.36,4.63C67.44,120.34,69.38,120.09,71.51,118.86Z"/><path class="cls-3" d="M77.79,105.67c0-4.12-2.89-5.79-6.47-3.73a11.36,11.36,0,0,0-2.44,2A20.89,20.89,0,0,0,64.93,112a10.93,10.93,0,0,0-.08,1.12c0,4.13,2.9,5.8,6.47,3.74A14.28,14.28,0,0,0,77.79,105.67Z"/><path class="cls-3" d="M77.53,106c0-3.74-2.62-5.25-5.86-3.39a13,13,0,0,0-5.86,10.15c0,3.74,2.63,5.25,5.86,3.38A12.92,12.92,0,0,0,77.53,106Z"/><path class="cls-3" d="M74.91,107.06a2.67,2.67,0,0,0-1-2.3,2.79,2.79,0,0,0-2.29.4A8.14,8.14,0,0,0,68,111.54a2.69,2.69,0,0,0,1,2.3,2.77,2.77,0,0,0,2.28-.41A8.11,8.11,0,0,0,74.91,107.06Z"/><path class="cls-3" d="M74,104.76a2.67,2.67,0,0,1,1,2.3,8.11,8.11,0,0,1-3.69,6.37,2.77,2.77,0,0,1-2.28.41,2.5,2.5,0,0,0,2.73-.18,8.14,8.14,0,0,0,3.68-6.38A2.39,2.39,0,0,0,74,104.76Z"/><path class="cls-3" d="M73,108.16c0-1.12-.79-1.58-1.77-1a3.93,3.93,0,0,0-1.76,3.06c0,1.13.79,1.59,1.76,1A3.92,3.92,0,0,0,73,108.16Z"/><path class="cls-3" d="M71.67,105.88c0-.29-.2-.4-.45-.26a1,1,0,0,0-.44.77c0,.29.2.41.44.26A1,1,0,0,0,71.67,105.88Z"/><path class="cls-3" d="M71.57,105.94c0-.23-.15-.32-.35-.21a.76.76,0,0,0-.34.6c0,.23.15.32.34.21A.75.75,0,0,0,71.57,105.94Z"/><path class="cls-3" d="M73.55,105.69c0-.28-.19-.4-.44-.26a1,1,0,0,0-.45.78c0,.28.2.4.45.26A1,1,0,0,0,73.55,105.69Z"/><path class="cls-3" d="M73.46,105.75c0-.22-.16-.31-.35-.2a.75.75,0,0,0-.35.6c0,.22.15.31.35.2A.77.77,0,0,0,73.46,105.75Z"/><path class="cls-3" d="M74.35,107.42c0-.29-.2-.41-.45-.26a1,1,0,0,0-.44.77c0,.29.2.4.44.26A1,1,0,0,0,74.35,107.42Z"/><path class="cls-3" d="M74.25,107.47c0-.22-.15-.31-.35-.2a.78.78,0,0,0-.35.61c0,.22.16.31.35.2A.75.75,0,0,0,74.25,107.47Z"/><path class="cls-3" d="M73.58,110c0-.28-.2-.4-.45-.26a1,1,0,0,0-.45.78c0,.28.2.4.45.25A1,1,0,0,0,73.58,110Z"/><path class="cls-3" d="M73.48,110.1c0-.22-.16-.31-.35-.2a.77.77,0,0,0-.35.6c0,.22.16.31.35.2A.77.77,0,0,0,73.48,110.1Z"/><path class="cls-3" d="M71.67,112c0-.29-.2-.4-.45-.26a1,1,0,0,0-.44.78c0,.28.2.4.44.25A1,1,0,0,0,71.67,112Z"/><path class="cls-3" d="M71.57,112.08c0-.22-.15-.31-.35-.2a.8.8,0,0,0-.34.61c0,.22.15.31.34.2A.75.75,0,0,0,71.57,112.08Z"/><path class="cls-3" d="M69.79,112.22c0-.29-.2-.4-.45-.26a1,1,0,0,0-.45.77c0,.29.2.4.45.26A1,1,0,0,0,69.79,112.22Z"/><path class="cls-3" d="M69.69,112.27c0-.22-.16-.31-.35-.2a.77.77,0,0,0-.35.6c0,.23.16.32.35.2A.77.77,0,0,0,69.69,112.27Z"/><path class="cls-3" d="M69,110.49c0-.29-.2-.4-.45-.26a1,1,0,0,0-.45.78c0,.28.2.4.45.26A1,1,0,0,0,69,110.49Z"/><path class="cls-3" d="M68.91,110.55c0-.22-.16-.31-.35-.2a.77.77,0,0,0-.35.6c0,.22.16.31.35.2A.77.77,0,0,0,68.91,110.55Z"/><path class="cls-3" d="M69.79,107.86c0-.28-.2-.4-.45-.25a1,1,0,0,0-.45.77c0,.29.2.4.45.26A1,1,0,0,0,69.79,107.86Z"/><path class="cls-3" d="M69.69,107.92c0-.22-.16-.31-.35-.2a.77.77,0,0,0-.35.6c0,.23.16.32.35.21A.81.81,0,0,0,69.69,107.92Z"/><polygon class="cls-3" points="76.9 80.93 78.61 82.54 90.3 88.94 82.34 78.74 76.9 80.93"/><polygon class="cls-3" points="83.15 76.51 72.75 70.51 60.17 77.77 70.56 83.78 83.15 76.51"/><polygon class="cls-3" points="90.3 88.94 91.95 88.07 83.15 76.51 70.56 83.78 70.56 85.53 82.34 78.74 90.3 88.94"/><polygon class="cls-3" points="70.56 83.78 60.17 77.77 60.17 79.53 70.56 85.53 70.56 83.78"/><polygon class="cls-3" points="194.74 68.88 138.93 101.09 138.93 81.11 194.74 48.89 194.74 68.88"/><polygon class="cls-3" points="194.74 54.3 138.93 86.52 138.93 81.11 194.74 48.89 194.74 54.3"/><polygon class="cls-3" points="184.25 74.93 194.74 68.88 194.74 48.89 184.25 54.94 184.25 74.93"/><path class="cls-3" d="M185.43,74.25c-1.68-8.64-9-11.63-17.85-6.54s-16.17,16.57-17.85,27.15Z"/><path class="cls-3" d="M203.49,88.57a20.94,20.94,0,0,0-.17-2.45l1.3-1c-.06-.42-.12-.83-.2-1.23l-1.72-.39a10.88,10.88,0,0,0-.55-1.35l1.27-1.45q-.22-.5-.48-1l-2.48-1.24.67-1.06a7.14,7.14,0,0,0-.75-.61l-6.59-4.46-9.12-4.13a7.77,7.77,0,0,0-.95-.24c-.21.32-.38.58-.52.81l-2.5-.93c-.36,0-.73.09-1.1.16-.33.75-.54,1.24-.7,1.62L176.27,69c-.36.15-.71.32-1.07.5l-.1,0c-.29,1.1-.42,1.65-.52,2.08l-.45.25-2.45-.23c-.39.29-.77.59-1.15.89-.08,1-.1,1.55-.11,2-.41.34-.81.69-1.2,1.06l-2,0c-.37.38-.72.77-1.07,1.18.15.88.24,1.31.31,1.65-.52.62-1,1.26-1.52,1.92l-1.69.19c-.31.46-.61.92-.91,1.39.35.66.55,1,.7,1.24-.54.88-1,1.79-1.52,2.71l-1.5.28q-.36.75-.69,1.5c.51.4.8.6,1,.75-.47,1.11-.89,2.24-1.24,3.36l-1.39.3c-.14.5-.28,1-.41,1.51.61.13,1,.2,1.24.24A27.26,27.26,0,0,0,158,97.2l-1.38.69c0,.43-.08.86-.1,1.29a.57.57,0,0,0,0,.13c.65-.1,1-.18,1.33-.24,0,.35,0,.7,0,1a18.9,18.9,0,0,0,.1,2l-1.29,1c.05.42.11.83.19,1.23l1.43-.26a12.26,12.26,0,0,0,.69,2.17l-1.12,1.28c.15.33.31.65.49,1l1.88,0a10.48,10.48,0,0,0,.82.93l-.89,1.41a8.81,8.81,0,0,0,.75.62l3.69.78-.84,1.37,3.95,1.76,6.41,3.42c.21-.23.39-.43.54-.61l1.95,1.86a7.48,7.48,0,0,0,1,.24l.79-1.24a5.58,5.58,0,0,0,.59.09l1.63,1.26c.36,0,.73-.09,1.1-.16.25-.54.42-.94.56-1.27a13.91,13.91,0,0,0,1.68-.44l1.09.67c.35-.15.71-.31,1.07-.49l.1-.06c.14-.52.24-.91.32-1.23.27-.14.53-.28.8-.44.44-.25.88-.53,1.31-.82l1,.3,0,.09c.39-.28.78-.58,1.16-.89,0-.49.06-.86.07-1.16a27.81,27.81,0,0,0,2.06-1.87h1.13c.37-.39.72-.78,1.07-1.19-.07-.44-.13-.76-.18-1,.73-.87,1.43-1.79,2.1-2.74h1c.31-.45.61-.92.91-1.38-.2-.37-.34-.63-.46-.83.66-1.1,1.28-2.24,1.83-3.4h.95q.36-.73.69-1.5c-.32-.25-.55-.43-.74-.55a33.77,33.77,0,0,0,1.27-3.66l1.08-.19c.14-.51.28-1,.41-1.51-.46-.11-.77-.17-1-.21a26.59,26.59,0,0,0,.55-3.47l1.22-.61c0-.43.09-.87.11-1.31a.37.37,0,0,0,0-.11Z"/><path class="cls-3" d="M163.1,104c0-11.6,8.05-25.7,18-31.5a16,16,0,0,1,8.21-2.48l-4.62-1.86a7.77,7.77,0,0,0-.95-.24c-.21.32-.38.58-.52.81l-2.5-.93c-.36,0-.73.09-1.1.16-.33.75-.54,1.24-.7,1.62L176.27,69c-.36.15-.71.32-1.07.5l-.1,0c-.29,1.1-.42,1.65-.52,2.08l-.45.25-2.45-.23c-.39.29-.77.59-1.15.89-.08,1-.1,1.55-.11,2-.41.34-.81.69-1.2,1.06l-2,0c-.37.38-.72.77-1.07,1.18.15.88.24,1.31.31,1.65-.52.62-1,1.26-1.52,1.92l-1.69.19c-.31.46-.61.92-.91,1.39.35.66.55,1,.7,1.24-.54.88-1,1.79-1.52,2.71l-1.5.28q-.36.75-.69,1.5c.51.4.8.6,1,.75-.47,1.11-.89,2.24-1.24,3.36l-1.39.3c-.14.5-.28,1-.41,1.51.61.13,1,.2,1.24.24A27.26,27.26,0,0,0,158,97.2l-1.38.69c0,.43-.08.86-.1,1.29a.57.57,0,0,0,0,.13c.65-.1,1-.18,1.33-.24,0,.35,0,.7,0,1a18.9,18.9,0,0,0,.1,2l-1.29,1c.05.42.11.83.19,1.23l1.43-.26a12.26,12.26,0,0,0,.69,2.17l-1.12,1.28c.15.33.31.65.49,1l1.88,0a10.48,10.48,0,0,0,.82.93l-.89,1.41a8.81,8.81,0,0,0,.75.62l3.69.78-.84,1.37,3.95,1.76.25.13C164.92,113.5,163.1,109.55,163.1,104Z"/><path class="cls-3" d="M197.91,107.68c.31-.45.61-.92.91-1.38-.2-.37-.34-.63-.46-.83.66-1.1,1.28-2.24,1.83-3.4h.95q.36-.73.69-1.5c-.32-.25-.55-.43-.74-.55a33.77,33.77,0,0,0,1.27-3.66l1.08-.19c.14-.51.28-1,.41-1.51-.46-.11-.77-.17-1-.21a26.59,26.59,0,0,0,.55-3.47l1.22-.61c0-.43.09-.87.11-1.31a.37.37,0,0,0,0-.11l-1.24-.38a20.94,20.94,0,0,0-.17-2.45l1.3-1c-.06-.42-.12-.83-.2-1.23l-1.72-.39a10.88,10.88,0,0,0-.55-1.35l1-1.2a5,5,0,0,1-1.83-1.23c-2.92-4.52-8.61-5.45-15.16-1.67C176.69,83.51,169,96.88,169,107.87c0,4.78,1.46,8.32,3.88,10.35l1.2.58c.21-.23.39-.43.54-.61l1.95,1.86a7.48,7.48,0,0,0,1,.24l.79-1.24a5.58,5.58,0,0,0,.59.09l1.63,1.26c.36,0,.73-.09,1.1-.16.25-.54.42-.94.56-1.27a13.91,13.91,0,0,0,1.68-.44l1.09.67c.35-.15.71-.31,1.07-.49l.1-.06c.14-.52.24-.91.32-1.23.27-.14.53-.28.8-.44.44-.25.88-.53,1.31-.82l1,.3,0,.09c.39-.28.78-.58,1.16-.89,0-.49.06-.86.07-1.16a27.81,27.81,0,0,0,2.06-1.87h1.13c.37-.39.72-.78,1.07-1.19-.07-.44-.13-.76-.18-1,.73-.87,1.43-1.79,2.1-2.74Z"/><polygon class="cls-3" points="170.56 100.95 170.97 99.44 165.28 90.73 157.76 92.1 157.35 93.61 164.81 92.22 170.56 100.95"/><polygon class="cls-3" points="172.58 95.03 173.26 93.53 168.34 84.88 160.06 86.19 159.37 87.69 167.48 86.31 172.58 95.03"/><polygon class="cls-3" points="163.29 80.57 162.38 81.96 171.1 80.96 175.59 89.3 176.5 87.91 172.13 79.72 163.29 80.57"/><polygon class="cls-3" points="167.26 75.63 166.19 76.81 175.33 76.47 179.4 84.14 180.47 82.96 176.47 75.49 167.26 75.63"/><polygon class="cls-3" points="171.68 71.69 170.53 72.58 179.87 73.13 183.74 79.92 184.89 79.03 181.05 72.49 171.68 71.69"/><polygon class="cls-3" points="176.27 69.04 175.1 69.59 184.38 71.26 188.31 76.92 189.48 76.38 185.55 70.9 176.27 69.04"/><polygon class="cls-3" points="189.67 70.84 180.7 67.84 179.6 68 188.67 70.71 192.81 75.34 193.91 75.18 189.67 70.84"/><polygon class="cls-3" points="169.8 106.63 169.8 105.23 163.32 96.53 156.59 97.89 156.48 99.31 162.98 98.02 169.8 106.63"/><polygon class="cls-3" points="170 111.75 169.81 110.52 162.45 102.22 156.6 103.18 156.79 104.41 162.42 103.6 170 111.75"/><polygon class="cls-3" points="171.42 115.77 171 114.94 162.77 107.32 157.79 107.6 158.28 108.56 163.04 108.49 171.42 115.77"/><polygon class="cls-3" points="164.26 111.46 160.09 110.85 160.84 111.47 164.82 112.33 174.05 118.8 173.3 118.19 164.26 111.46"/><path class="cls-3" d="M202.18,88.58a1.5,1.5,0,0,1,.64-1.62s1.68-2.71,1.6-3.11c-1.59.76-1.15.89-1.92,1.22-.61.27-.73.29-1-.37a1.26,1.26,0,0,1,.34-1.59l1.59-2.45q-.22-.5-.48-1c-1.57,1.23-1.12,1.38-1.89,2-.6.45-.73.51-1.18.07s-.32-1,0-1.46l1.25-2.86a7.14,7.14,0,0,0-.75-.61c-1.44,1.61-1,1.77-1.68,2.53-.56.6-.69.7-1.28.5s-.56-.67-.32-1.22l.78-3.07c-.31-.09-.63-.17-.95-.23-1.22,1.89-.72,2-1.32,3-.49.72-.6.85-1.3.9s-.76-.35-.62-.9l.22-3.07c-.36,0-.73.09-1.1.16-.91,2-.37,2.2-.83,3.18-.37.78-.47.93-1.22,1.24-.91.36-.92,0-.89-.53l-.39-2.85c-.35.15-.71.32-1.07.5l-.1.05c-.54,2,0,2.17-.25,3.17A2.06,2.06,0,0,1,187,81.59c-.91.64-1,.33-1.09-.11l-1-2.45c-.39.29-.77.58-1.16.89-.13,1.92.48,2,.39,3a2.09,2.09,0,0,1-.82,1.64c-.86.88-1,.65-1.22.31L180.46,83c-.36.39-.71.78-1.06,1.18.28,1.66.92,1.72,1,2.54.09.65.07.81-.54,1.68-.73,1.06-1,.93-1.26.72l-2.13-1.17c-.31.46-.61.92-.91,1.39.68,1.28,1.35,1.29,1.65,1.94s.26.64-.21,1.6c-.57,1.16-.86,1.14-1.22,1.07l-2.55-.38c-.24.5-.46,1-.68,1.5,1,.81,1.71.79,2.19,1.21s.43.44.13,1.42c-.36,1.18-.69,1.28-1.1,1.35l-2.83.43c-.14.5-.28,1-.41,1.51,1.31.29,2,.22,2.62.4s.57.21.46,1.14c-.13,1.12-.47,1.33-.9,1.54l-2.94,1.2c-.05.43-.08.86-.11,1.29v.13c1.49-.24,2.18-.35,2.9-.43.57-.07.67,0,.76.78a1.5,1.5,0,0,1-.64,1.62l-2.91,1.9c0,.42.12.83.2,1.23,1.58-.76,2.26-.91,3-1.24.61-.27.73-.28,1,.37a1.28,1.28,0,0,1-.34,1.59l-2.7,2.47a9.43,9.43,0,0,0,.49,1,35.29,35.29,0,0,1,3-2c.61-.46.74-.52,1.19-.07s.32.94,0,1.46l-2.35,2.86a8.69,8.69,0,0,0,.75.61,33.49,33.49,0,0,1,2.78-2.54c.56-.6.69-.7,1.28-.5s.56.67.32,1.23l-1.89,3.06a7.48,7.48,0,0,0,1,.24,30,30,0,0,1,2.42-3c.48-.72.6-.85,1.3-.9s.76.35.62.9l-1.33,3.07c.36,0,.73-.09,1.1-.16.91-2,1.48-2.2,1.94-3.18.37-.77.47-.93,1.22-1.23.91-.37.92,0,.89.52l-.72,2.85c.35-.15.71-.31,1.07-.49l.1-.06c.54-2,1.08-2.18,1.36-3.16a2.08,2.08,0,0,1,1.06-1.5c.91-.64,1-.33,1.09.11l-.1,2.45c.39-.28.78-.58,1.16-.89.13-1.9.64-2,.73-3a2,2,0,0,1,.83-1.64c.85-.88,1-.65,1.21-.32l.49,1.89c.37-.39.72-.78,1.07-1.19-.27-1.64.2-1.72.09-2.54-.09-.65-.07-.81.53-1.68.74-1,1-.93,1.27-.72l1,1.18c.31-.45.61-.92.91-1.38-.68-1.27-.23-1.31-.53-2s-.26-.64.21-1.6c.57-1.16.86-1.14,1.22-1.07l1.42.4q.36-.73.69-1.5c-1-.81-.59-.8-1.07-1.23s-.43-.44-.13-1.42c.36-1.18.69-1.28,1.1-1.35l1.71-.4c.14-.51.28-1,.41-1.51a9.28,9.28,0,0,1-1.5-.43c-.49-.14-.57-.21-.46-1.14.13-1.12.47-1.33.9-1.54l1.82-1.18c0-.43.09-.87.11-1.31a.37.37,0,0,0,0-.11c-1.5.24-1.07.33-1.79.42C202.37,89.43,202.27,89.4,202.18,88.58Z"/><path class="cls-4" d="M200.32,92c0,7.48-5.25,16.57-11.72,20.3s-11.72.71-11.72-6.76,5.25-16.57,11.72-20.3S200.32,84.48,200.32,92Z"/><path class="cls-4" d="M198.72,92.88c0,6.45-4.53,14.3-10.12,17.52s-10.12.61-10.12-5.84S183,90.26,188.6,87,198.72,86.43,198.72,92.88Z"/><path class="cls-3" d="M194.19,87.65a7.29,7.29,0,0,1,1.36,4.63c0,5.61-3.94,12.43-8.8,15.24-2.13,1.22-4.07,1.48-5.6.91,1.56,1.95,4.31,2.26,7.45.45,4.86-2.81,8.8-9.63,8.8-15.24C197.4,90.48,196.15,88.38,194.19,87.65Z"/><path class="cls-3" d="M186.75,107.52c4.86-2.81,8.8-9.63,8.8-15.24a7.29,7.29,0,0,0-1.36-4.63c-1.52-.57-3.47-.31-5.59.91-4.86,2.81-8.8,9.63-8.8,15.24a7.35,7.35,0,0,0,1.35,4.63C182.68,109,184.62,108.74,186.75,107.52Z"/><path class="cls-3" d="M193,94.33c0-4.12-2.89-5.8-6.47-3.73a11.36,11.36,0,0,0-2.44,2,20.76,20.76,0,0,0-4,8.12,8.44,8.44,0,0,0-.08,1.12c0,4.13,2.9,5.8,6.47,3.74A14.29,14.29,0,0,0,193,94.33Z"/><path class="cls-3" d="M192.77,94.69c0-3.74-2.62-5.26-5.86-3.39a13,13,0,0,0-5.86,10.15c0,3.73,2.63,5.25,5.86,3.38A12.94,12.94,0,0,0,192.77,94.69Z"/><path class="cls-3" d="M190.15,95.72a2.7,2.7,0,0,0-1-2.31,2.83,2.83,0,0,0-2.29.41,8.14,8.14,0,0,0-3.68,6.37,2.67,2.67,0,0,0,1,2.3,2.76,2.76,0,0,0,2.28-.4A8.11,8.11,0,0,0,190.15,95.72Z"/><path class="cls-3" d="M189.2,93.41a2.7,2.7,0,0,1,1,2.31,8.11,8.11,0,0,1-3.69,6.37,2.76,2.76,0,0,1-2.28.4,2.47,2.47,0,0,0,2.73-.17,8.13,8.13,0,0,0,3.68-6.38A2.42,2.42,0,0,0,189.2,93.41Z"/><path class="cls-3" d="M188.23,96.82c0-1.13-.79-1.58-1.77-1a3.9,3.9,0,0,0-1.76,3.06c0,1.13.79,1.59,1.76,1A3.89,3.89,0,0,0,188.23,96.82Z"/><path class="cls-3" d="M186.91,94.53c0-.28-.2-.4-.45-.25a1,1,0,0,0-.44.77c0,.29.2.4.44.26A1,1,0,0,0,186.91,94.53Z"/><path class="cls-3" d="M186.81,94.59c0-.22-.15-.31-.35-.2a.76.76,0,0,0-.34.6c0,.23.15.32.34.21A.78.78,0,0,0,186.81,94.59Z"/><path class="cls-3" d="M188.8,94.35c0-.29-.2-.4-.45-.26a1,1,0,0,0-.45.78c0,.28.2.4.45.25A1,1,0,0,0,188.8,94.35Z"/><path class="cls-3" d="M188.7,94.4a.21.21,0,0,0-.35-.19.77.77,0,0,0-.35.6c0,.22.16.31.35.2A.78.78,0,0,0,188.7,94.4Z"/><path class="cls-3" d="M189.59,96.07c0-.28-.2-.4-.45-.26a1,1,0,0,0-.44.78c0,.29.2.4.44.26A1,1,0,0,0,189.59,96.07Z"/><path class="cls-3" d="M189.49,96.13c0-.22-.15-.31-.35-.2a.76.76,0,0,0-.34.6c0,.22.15.32.34.2A.75.75,0,0,0,189.49,96.13Z"/><path class="cls-3" d="M188.82,98.7c0-.29-.2-.4-.45-.26a1,1,0,0,0-.45.78c0,.28.2.39.45.25A1,1,0,0,0,188.82,98.7Z"/><path class="cls-3" d="M188.72,98.76c0-.23-.16-.32-.35-.21a.79.79,0,0,0-.35.61c0,.22.16.31.35.2A.77.77,0,0,0,188.72,98.76Z"/><path class="cls-3" d="M186.91,100.69c0-.29-.2-.4-.45-.26a1,1,0,0,0-.44.77c0,.29.2.4.44.26A1,1,0,0,0,186.91,100.69Z"/><path class="cls-3" d="M186.81,100.74c0-.22-.15-.31-.35-.2a.77.77,0,0,0-.34.61c0,.22.15.31.34.2A.77.77,0,0,0,186.81,100.74Z"/><path class="cls-3" d="M185,100.87c0-.28-.2-.4-.45-.26a1,1,0,0,0-.45.78c0,.29.2.4.45.26A1,1,0,0,0,185,100.87Z"/><path class="cls-3" d="M184.93,100.93c0-.22-.16-.31-.35-.2a.77.77,0,0,0-.35.6c0,.22.16.32.35.2A.77.77,0,0,0,184.93,100.93Z"/><path class="cls-3" d="M184.25,99.15c0-.29-.2-.4-.45-.26a1,1,0,0,0-.45.77c0,.29.2.41.45.26A1,1,0,0,0,184.25,99.15Z"/><path class="cls-3" d="M184.15,99.21c0-.23-.16-.32-.35-.21a.81.81,0,0,0-.35.61c0,.22.16.31.35.2A.77.77,0,0,0,184.15,99.21Z"/><path class="cls-3" d="M185,96.52c0-.28-.2-.4-.45-.26a1,1,0,0,0-.45.78c0,.29.2.4.45.26A1,1,0,0,0,185,96.52Z"/><path class="cls-3" d="M184.93,96.58c0-.22-.16-.31-.35-.2a.77.77,0,0,0-.35.6c0,.22.16.32.35.2A.77.77,0,0,0,184.93,96.58Z"/><polygon class="cls-3" points="143.19 98.63 143.19 83.33 141.23 83.33 141.23 99.77 143.19 98.63"/><rect class="cls-3" x="124.62" y="84.88" width="14.32" height="16.22"/><polygon class="cls-3" points="124.62 84.88 104.75 72.28 104.75 88.49 124.62 101.09 124.62 84.88"/><polygon class="cls-3" points="101.94 117.38 82.07 104.78 104.75 88.49 124.62 101.09 101.94 117.38"/><rect class="cls-3" x="124.62" y="78.58" width="14.32" height="6.3"/><path class="cls-3" d="M106.28,116.63,79.45,100.82c-1.21-.69-2.89-.58-4.74.48A14.88,14.88,0,0,0,68,113c0,2.16.76,3.68,2,4.37l26.83,15.81c1.21.68,2.89.58,4.73-.49A14.84,14.84,0,0,0,108.26,121C108.26,118.84,107.51,117.33,106.28,116.63Z"/><polygon class="cls-3" points="177.35 13.73 136.76 37.17 155.1 47.76 195.69 24.32 177.35 13.73"/><polygon class="cls-3" points="156.19 45.02 153.86 40.62 145.82 35.97 142.3 37.01 156.19 45.02"/><polygon class="cls-3" points="145.82 35.97 155.94 30.14 152.72 30.99 142.3 37.01 145.82 35.97"/><polygon class="cls-3" points="156.19 45.02 166.6 39.01 163.98 34.78 153.86 40.62 156.19 45.02"/><polygon class="cls-3" points="153.86 40.62 163.98 34.78 155.94 30.14 145.82 35.97 153.86 40.62"/><polygon class="cls-3" points="195.69 24.32 155.1 47.76 158.88 71.58 199.47 48.15 195.69 24.32"/><polygon class="cls-3" points="204.53 51.7 204.53 46.76 200.26 49.23 204.53 51.7"/><polygon class="cls-3" points="208.24 53.25 207.52 53.67 201.14 49.98 201.86 49.57 208.24 53.25"/><polygon class="cls-3" points="205.13 51.45 201.86 49.57 201.14 49.98 204.41 51.87 205.13 51.45"/><polygon class="cls-3" points="208.24 57.21 207.52 57.62 207.45 53.67 208.24 53.25 208.24 57.21"/><polygon class="cls-3" points="159.58 85.77 159.58 79.21 155.27 76.77 155.27 83.33 159.58 85.77"/><polygon class="cls-3" points="159.58 103 159.58 96.2 155.27 93.76 155.27 100.56 159.58 103"/><polygon class="cls-3" points="159.58 108.39 159.58 104.81 155.27 102.37 155.27 105.95 159.58 108.39"/><polygon class="cls-3" points="159.58 94.39 159.58 87.58 155.27 85.14 155.27 91.94 159.58 94.39"/><polygon class="cls-3" points="159.58 103 150.63 108.16 146.33 105.72 155.27 100.56 159.58 103"/><polygon class="cls-3" points="159.58 94.39 150.63 99.55 146.33 97.11 155.27 91.94 159.58 94.39"/><polygon class="cls-3" points="159.58 85.77 150.63 90.94 146.33 88.5 155.27 83.33 159.58 85.77"/><path class="cls-3" d="M160.66,107.77V78.58l-1.08.63v6.56l-9,5.17V84.37l-1.08.63v29.18l1.08-.62V110l9-5.17v3.58Zm-10-15,9-5.17v6.8l-9,5.17Zm0,15.41v-6.8l9-5.16V103Z"/><polygon class="cls-3" points="149.55 114.18 145.48 111.74 145.25 82.56 149.55 85 149.55 114.18"/><polygon class="cls-3" points="195.14 60.77 195.14 72.25 207.7 65 207.7 53.52 195.14 60.77"/><polygon class="cls-3" points="195.14 72.25 186.37 67.18 186.37 55.71 195.14 60.77 195.14 72.25"/><polygon class="cls-3" points="200.26 49.23 204.53 46.76 198.72 43.4 199.47 48.15 186.37 55.71 195.14 60.77 207.7 53.52 200.26 49.23"/><polygon class="cls-3" points="165.74 67.62 166.07 67.43 166.07 41.43 165.74 41.62 165.74 67.62"/><polygon class="cls-3" points="166.07 67.43 186.93 55.39 186.93 42.71 166.07 54.75 166.07 67.43"/><polygon class="cls-3" points="165.44 53.48 158.98 57.2 170.01 63.56 176.47 59.83 165.44 53.48"/><polygon class="cls-3" points="145.93 86.05 162.47 76.5 153.94 71.58 137.4 81.12 145.93 86.05"/><polygon class="cls-3" points="145.93 87.2 145.93 86.05 137.4 81.12 137.4 82.27 145.93 87.2"/><polygon class="cls-3" points="170 63.57 162.47 76.5 153.94 71.58 161.47 58.64 170 63.57"/><polygon class="cls-4" points="170 63.57 162.47 76.5 153.94 71.58 161.47 58.64 170 63.57"/><polygon class="cls-3" points="176.47 59.83 170.01 63.56 162.29 76.6 162.3 76.6 145.93 86.05 145.93 87.2 162.76 77.61 170.37 64.5 176.47 60.98 176.47 59.83"/><path class="cls-3" d="M174.77,30.66c1.53.88,1.53,2.31,0,3.2a6.14,6.14,0,0,1-5.54,0c-1.53-.89-1.53-2.32,0-3.2A6.14,6.14,0,0,1,174.77,30.66Z"/><polygon class="cls-3" points="186.93 55.39 187.26 55.2 187.26 29.19 186.93 29.39 186.93 55.39"/><polygon class="cls-3" points="165.22 29.4 163.34 28.31 162.97 28.52 164.86 29.61 165.22 29.4"/><polygon class="cls-3" points="165.88 29.02 163.99 27.93 163.63 28.14 165.52 29.23 165.88 29.02"/><polygon class="cls-3" points="166.54 28.64 164.65 27.55 164.29 27.76 166.18 28.85 166.54 28.64"/><polygon class="cls-3" points="167.19 28.26 165.31 27.17 164.95 27.38 166.83 28.46 167.19 28.26"/><polygon class="cls-3" points="167.85 27.88 165.97 26.79 165.61 27 167.49 28.08 167.85 27.88"/><polygon class="cls-3" points="168.51 27.49 166.62 26.4 166.26 26.61 168.15 27.7 168.51 27.49"/><polygon class="cls-3" points="169.17 27.11 167.28 26.02 166.92 26.23 168.81 27.32 169.17 27.11"/><polygon class="cls-3" points="169.83 26.73 167.94 25.64 167.58 25.85 169.47 26.94 169.83 26.73"/><polygon class="cls-3" points="170.48 26.35 168.6 25.26 168.24 25.47 170.13 26.56 170.48 26.35"/><polygon class="cls-3" points="171.14 25.97 169.26 24.88 168.9 25.09 170.78 26.18 171.14 25.97"/><polygon class="cls-3" points="171.8 25.59 169.91 24.5 169.55 24.7 171.44 25.79 171.8 25.59"/><polygon class="cls-3" points="172.46 25.2 170.57 24.11 170.21 24.32 172.1 25.41 172.46 25.2"/><polygon class="cls-3" points="173.12 24.82 171.23 23.73 170.87 23.94 172.76 25.03 173.12 24.82"/><polygon class="cls-3" points="173.78 24.44 171.89 23.35 171.53 23.56 173.41 24.65 173.78 24.44"/><polygon class="cls-3" points="161.6 27.3 159.72 26.21 159.35 26.42 161.24 27.51 161.6 27.3"/><polygon class="cls-3" points="162.26 26.92 160.37 25.83 160.01 26.04 161.9 27.13 162.26 26.92"/><polygon class="cls-3" points="162.92 26.54 161.03 25.45 160.67 25.66 162.56 26.75 162.92 26.54"/><polygon class="cls-3" points="163.58 26.16 161.69 25.07 161.33 25.28 163.22 26.37 163.58 26.16"/><polygon class="cls-3" points="164.24 25.78 162.35 24.69 161.99 24.9 163.87 25.98 164.24 25.78"/><polygon class="cls-3" points="164.89 25.39 163.01 24.3 162.65 24.51 164.53 25.6 164.89 25.39"/><polygon class="cls-3" points="165.55 25.01 163.66 23.92 163.3 24.13 165.19 25.22 165.55 25.01"/><polygon class="cls-3" points="166.21 24.63 164.32 23.54 163.96 23.75 165.85 24.84 166.21 24.63"/><polygon class="cls-3" points="166.87 24.25 164.98 23.16 164.62 23.37 166.51 24.46 166.87 24.25"/><polygon class="cls-3" points="167.52 23.87 165.64 22.78 165.28 22.99 167.16 24.08 167.52 23.87"/><polygon class="cls-3" points="168.18 23.49 166.3 22.4 165.93 22.61 167.82 23.7 168.18 23.49"/><polygon class="cls-3" points="168.84 23.11 166.95 22.02 166.59 22.22 168.48 23.31 168.84 23.11"/><polygon class="cls-3" points="169.5 22.72 167.61 21.64 167.25 21.84 169.14 22.93 169.5 22.72"/><polygon class="cls-3" points="170.16 22.34 168.27 21.25 167.91 21.46 169.8 22.55 170.16 22.34"/><polygon class="cls-3" points="178.52 31.59 176.63 30.51 176.27 30.71 178.16 31.8 178.52 31.59"/><polygon class="cls-3" points="179.18 31.21 177.29 30.13 176.93 30.33 178.81 31.42 179.18 31.21"/><polygon class="cls-3" points="179.84 30.83 177.95 29.74 177.59 29.95 179.47 31.04 179.84 30.83"/><polygon class="cls-3" points="180.49 30.45 178.61 29.36 178.25 29.57 180.13 30.66 180.49 30.45"/><polygon class="cls-3" points="181.15 30.07 179.26 28.98 178.9 29.19 180.79 30.28 181.15 30.07"/><polygon class="cls-3" points="181.81 29.69 179.92 28.6 179.56 28.81 181.45 29.9 181.81 29.69"/><polygon class="cls-3" points="182.47 29.3 180.58 28.22 180.22 28.43 182.1 29.51 182.47 29.3"/><polygon class="cls-3" points="174.9 29.5 173.01 28.41 172.65 28.61 174.54 29.71 174.9 29.5"/><polygon class="cls-3" points="175.56 29.11 173.67 28.02 173.31 28.23 175.2 29.32 175.56 29.11"/><polygon class="cls-3" points="176.22 28.73 174.33 27.64 173.97 27.85 175.85 28.94 176.22 28.73"/><polygon class="cls-3" points="176.87 28.35 174.99 27.26 174.63 27.47 176.51 28.56 176.87 28.35"/><polygon class="cls-3" points="177.53 27.97 175.65 26.88 175.28 27.09 177.17 28.18 177.53 27.97"/><polygon class="cls-3" points="178.19 27.59 176.3 26.5 175.94 26.71 177.83 27.8 178.19 27.59"/><polygon class="cls-3" points="178.85 27.21 176.96 26.12 176.6 26.33 178.49 27.42 178.85 27.21"/><polygon class="cls-3" points="168.52 18.83 186.86 29.42 187.24 29.2 168.9 18.61 168.52 18.83"/><polygon class="cls-3" points="171.16 38.49 171.53 38.27 153.19 27.68 152.81 27.9 171.16 38.49"/><path class="cls-3" d="M173,27.94c-.54-.31-1.42.92-2,1.23a.68.68,0,0,0-.4.56v2.38a.67.67,0,0,0,.4.56,2.18,2.18,0,0,0,2,0,.67.67,0,0,0,.4-.56V28.16C173.38,28,173.25,28.09,173,27.94Z"/><path class="cls-3" d="M175.55,28V16.55a.89.89,0,0,0-.45-.56c-.94-.54-2.95-.26-4.5.64-1.12.64-1.68,1.43-1.56,2l.21,11.43c.07.35.15.57.25.62.94.55,2.95.26,4.5-.63C175.12,29.42,175.69,28.62,175.55,28Z"/><path class="cls-3" d="M175.1,16c.93.54.44,1.7-1.1,2.59s-3.56,1.18-4.5.64-.44-1.7,1.1-2.59S174.16,15.45,175.1,16Z"/><path class="cls-3" d="M173,.64c-.54-.31-1.42.92-2,1.24a.66.66,0,0,0-.4.56V17.87a.67.67,0,0,0,.4.56,2.12,2.12,0,0,0,2,0,.67.67,0,0,0,.4-.56V.87C173.38.66,173.25.8,173,.64Z"/><path class="cls-3" d="M173.35,1.14c.15-.78-.34-1.2-1.08-.94a2.75,2.75,0,0,0-1.63,1.87c-.14.78.34,1.2,1.08.94A2.75,2.75,0,0,0,173.35,1.14Z"/><path class="cls-3" d="M173.12,1.22c.13-.65-.27-1-.9-.79A2.29,2.29,0,0,0,170.87,2c-.13.64.28,1,.9.78A2.3,2.3,0,0,0,173.12,1.22Z"/><polygon class="cls-3" points="120.1 74.39 104.75 65.49 109.66 31.6 124.62 40.16 120.1 74.39"/><path class="cls-3" d="M157.81,25.79,135.44,38.71V82.26l18.5-10.68,7.53-12.95Zm-9.29,15.82L142,38l6.5-3.75Zm2.19,1.23V33L154,31.08l1.73,14.55Z"/><polygon class="cls-3" points="124.62 40.23 135.44 38.71 157.81 25.79 134.41 12.28 112.04 25.2 109.66 31.6 124.62 40.23"/><polygon class="cls-3" points="104.75 75.95 104.75 65.49 120.1 74.39 120.1 85.23 104.75 75.95"/><polygon class="cls-3" points="135.44 82.26 120.1 85.23 120.1 74.39 124.62 40.23 135.44 38.71 135.44 82.26"/><polygon class="cls-3" points="120.1 74.39 133.74 71.14 133.74 41.88 124.47 41.35 120.1 74.39"/><polygon class="cls-3" points="142.02 37.99 138.1 40.25 138.1 69.41 148.52 63.39 148.52 41.62 142.02 37.99"/><polygon class="cls-3" points="155.62 30.14 153.98 31.08 155.72 45.63 150.71 42.84 150.71 58.71 158.19 53.25 155.62 30.14"/><polygon class="cls-5" points="148.52 41.62 148.52 34.24 142.02 37.99 148.52 41.62"/><polygon class="cls-5" points="150.71 32.97 150.71 42.84 155.72 45.63 153.98 31.08 150.71 32.97"/><polygon class="cls-5" points="109.66 31.6 104.75 65.49 108.97 57.01 109.66 31.6"/><polygon class="cls-5" points="122.59 39 113.68 33.9 113.4 33.92 112.43 52.99 122.59 47.15 122.59 39"/><polygon class="cls-3" points="124.62 40.23 135.44 40.65 135.44 38.71 124.62 40.23"/><polygon class="cls-6" points="148.46 66.53 145.63 68.16 145.63 66.47 148.46 64.84 148.46 66.53"/><polygon class="cls-6" points="146 74.78 149.72 67.08 149.72 31.8 149.53 31.8 149.53 67.04 145.86 74.65 136.86 79.56 136.86 37.89 136.67 38 136.67 79.88 145.97 74.8 146 74.78"/><polygon class="cls-3" points="158.01 27.61 157.81 25.79 135.44 38.71 135.44 40.65 158.01 27.61"/><path class="cls-3" d="M95,95.49l.24-33s-5.49,2.13-6.61,5.14S84.3,83.82,84.3,83.82L90.53,98.7Z"/><path class="cls-3" d="M95.25,62.51l-2.63-2S87.13,62.68,86,65.69s-4.34,16.17-4.34,16.17l2.63,2s3.22-13.16,4.34-16.17S95.25,62.51,95.25,62.51Z"/><path class="cls-3" d="M138.46,83.53h-.57V65.88a1.49,1.49,0,0,1,2.31-1.42l2.48,1.27a.93.93,0,0,0,1.49-.92V51.14a4.11,4.11,0,0,0-1.66-3l-6.58-4.26.31-.47,6.58,4.26a4.68,4.68,0,0,1,1.92,3.52V64.81a1.49,1.49,0,0,1-2.31,1.42L140,65a.93.93,0,0,0-1.49.92Z"/><path class="cls-3" d="M200,49.64a1.13,1.13,0,0,1-.55-.17l-6.14-3.54.29-.49L199.71,49a.29.29,0,0,0,.5-.29V39a1.75,1.75,0,0,0-.78-1.35l-6.14-3.55.29-.49,6.13,3.55A2.29,2.29,0,0,1,200.77,39V48.7a.93.93,0,0,1-.41.84A.8.8,0,0,1,200,49.64Z"/><path class="cls-3" d="M138.54,62.92a2.73,2.73,0,0,0-1.3.33L140,67.88a2.68,2.68,0,0,0-1.42-5Z"/><path class="cls-3" d="M140.45,66.7c0,1.22-.85,1.72-1.91,1.11a4.23,4.23,0,0,1-1.9-3.31c0-1.22.85-1.71,1.9-1.1A4.21,4.21,0,0,1,140.45,66.7Z"/><path class="cls-3" d="M140.2,66.56c0,1-.74,1.48-1.66,1a3.66,3.66,0,0,1-1.65-2.86c0-1.06.74-1.48,1.65-1A3.65,3.65,0,0,1,140.2,66.56Z"/><path class="cls-3" d="M104.37,43.76a2.74,2.74,0,0,0-1.31.34c.49.84,2.18,3.71,2.73,4.63a2.69,2.69,0,0,0-1.42-5Z"/><path class="cls-3" d="M106.27,47.55c0,1.22-.85,1.72-1.91,1.11a4.23,4.23,0,0,1-1.9-3.31c0-1.22.85-1.71,1.91-1.1A4.22,4.22,0,0,1,106.27,47.55Z"/><path class="cls-3" d="M106,47.41c0,1.05-.74,1.48-1.66,1a3.66,3.66,0,0,1-1.65-2.86c0-1.06.74-1.48,1.66-1A3.67,3.67,0,0,1,106,47.41Z"/><path class="cls-3" d="M146.65,64.81c0,.58-.41.82-.92.53l-2.55-1.47a2,2,0,0,1-.92-1.6V50.93c0-.58.41-.82.92-.53l2.55,1.47a2,2,0,0,1,.92,1.6Z"/><path class="cls-3" d="M202.56,38.32A4.21,4.21,0,0,0,200.65,35a1.32,1.32,0,0,0-1.38-.11h0A2.7,2.7,0,0,0,202,39.58l.07,0,0,0h0A1.39,1.39,0,0,0,202.56,38.32Z"/><path class="cls-3" d="M97,73.71c1.72-1.67,2.64-4.36,2.05-6s-2.46-1.62-4.18,0L63.42,97.8s-6.33,7-8.25,15.26-4.25,17.3-4.25,17.3L46,136.11v3.95l7.58-4.38,13.09-28.25a44,44,0,0,1,8-11.11C80.24,90.63,97,73.71,97,73.71Z"/><path class="cls-3" d="M46,140.06v-3.95l4.92-5.75s2.34-9,4.25-17.3S63.42,97.8,63.42,97.8l31.44-30c1.22-1.19,2.51-1.54,3.37-1h0l-3.41-2c-.86-.5-2.17-.15-3.4,1L60,95.79s-6.34,6.95-8.25,15.25-4.26,17.31-4.26,17.31l-4.91,5.74V138l3.61,2.21.21-.42Z"/><path class="cls-3" d="M59.3,113.43c-1.14.65-2.06.12-2.06-1.19a4.53,4.53,0,0,1,2.06-3.56L99.21,83.2l-.49,7.89Z"/><path class="cls-3" d="M57.24,112.24a4.53,4.53,0,0,1,2.06-3.56L99.21,83.2,98.41,79,56.63,107a4.58,4.58,0,0,0-2.05,3.57,1.35,1.35,0,0,0,.73,1.39l2.49,1.59A1.45,1.45,0,0,1,57.24,112.24Z"/><path class="cls-3" d="M70.12,107.78,66.78,94.25v0l0-.15h0c-.28-1-1.18-1.3-2.26-.68a5.2,5.2,0,0,0-2.34,4.07,3,3,0,0,0,0,.31h0l1.48,14.41h0l-4,15.51h0A5.58,5.58,0,0,0,59.5,129c0,2.1,1.48,3,3.29,1.91A7.41,7.41,0,0,0,66,126.29h0l3.94-16A5.32,5.32,0,0,0,70.12,107.78Z"/><path class="cls-3" d="M59.5,129a5.58,5.58,0,0,1,.16-1.26h0l4-15.51L62.14,97.79h0a3,3,0,0,1,0-.31,5.2,5.2,0,0,1,2.34-4.07,1.7,1.7,0,0,1,1.63-.18l-3.5-2.3a1.77,1.77,0,0,0-1.48.24,5.19,5.19,0,0,0-2.35,4.07,3,3,0,0,0,0,.31h0L60.26,110l-3.95,15.52h0a5,5,0,0,0-.16,1.26A2.2,2.2,0,0,0,57.31,129l3,2h0A2.42,2.42,0,0,1,59.5,129Z"/><path class="cls-3" d="M109.32,71c0-2.09-1.46-2.94-3.28-1.9a7.25,7.25,0,0,0-3.27,5.68l-1.47,27.54,9.37-5.41Z"/><path class="cls-3" d="M106,69.05a2.32,2.32,0,0,1,2.28-.24h0l-5.91-2.9a2.18,2.18,0,0,0-2.51.1,7.23,7.23,0,0,0-3.28,5.67L95.15,99.22l6.15,3,1.47-27.54A7.25,7.25,0,0,1,106,69.05Z"/><path class="cls-3" d="M87.26,80.22l9.41-7.58a1.85,1.85,0,0,1,1.84-.08,5.77,5.77,0,0,1,3.24,4.1,1.82,1.82,0,0,1-.52,1.78L91.82,86A1.85,1.85,0,0,1,90,86.1,5.77,5.77,0,0,1,86.74,82,1.82,1.82,0,0,1,87.26,80.22Z"/><path class="cls-3" d="M86.74,82A5.77,5.77,0,0,0,90,86.1,1.85,1.85,0,0,0,91.82,86a1.82,1.82,0,0,0,.52-1.79,5.77,5.77,0,0,0-3.24-4.1A1.59,1.59,0,0,0,86.74,82Z"/><path class="cls-3" d="M67,97.15,87.79,81.7a1,1,0,0,1,1,0A3.3,3.3,0,0,1,90.7,84a1,1,0,0,1-.3,1L69.58,100.48a1.07,1.07,0,0,1-1.06,0,3.3,3.3,0,0,1-1.85-2.35A1.06,1.06,0,0,1,67,97.15Z"/><path class="cls-3" d="M73.74,99.47,66.1,95a1.38,1.38,0,0,0-1.35.14,4.25,4.25,0,0,0-1.91,3.32,1.36,1.36,0,0,0,.56,1.24L71,104.17a1.36,1.36,0,0,0,1.35-.15,4.22,4.22,0,0,0,1.92-3.31A1.32,1.32,0,0,0,73.74,99.47Z"/><path class="cls-3" d="M75.09,115l-7.64-4.5a1.38,1.38,0,0,0-1.35.14A4.24,4.24,0,0,0,64.18,114a1.34,1.34,0,0,0,.57,1.24l7.64,4.5a1.33,1.33,0,0,0,1.35-.14,4.21,4.21,0,0,0,1.91-3.31A1.37,1.37,0,0,0,75.09,115Z"/><path class="cls-3" d="M72.61,146.26,50.77,133.5a1.33,1.33,0,0,0-1.35.14A4.22,4.22,0,0,0,47.5,137a1.35,1.35,0,0,0,.57,1.25L69.92,151a1.31,1.31,0,0,0,1.34-.14,4.22,4.22,0,0,0,1.92-3.32A1.34,1.34,0,0,0,72.61,146.26Z"/><path class="cls-3" d="M71.82,129.54,64.18,125a1.35,1.35,0,0,0-1.35.14,4.22,4.22,0,0,0-1.92,3.32,1.34,1.34,0,0,0,.57,1.24l7.64,4.5a1.33,1.33,0,0,0,1.35-.14,4.21,4.21,0,0,0,1.91-3.32A1.34,1.34,0,0,0,71.82,129.54Z"/><path class="cls-3" d="M68.57,134.22a5.59,5.59,0,0,1,.16-1.27h0l4-15.51L71.22,103h0a3,3,0,0,1,0-.31,5.18,5.18,0,0,1,2.35-4.06,1.63,1.63,0,0,1,1.62-.18l-3.5-2.31a1.77,1.77,0,0,0-1.48.24,5.19,5.19,0,0,0-2.35,4.07,3,3,0,0,0,0,.31h0l1.47,14.41-4,15.51h0a5,5,0,0,0-.16,1.26,2.19,2.19,0,0,0,1.16,2.23l3,2h0A2.43,2.43,0,0,1,68.57,134.22Z"/><path class="cls-3" d="M79.19,113,75.85,99.49v0l0-.14h0c-.27-1-1.18-1.3-2.25-.67a5.18,5.18,0,0,0-2.35,4.06,3,3,0,0,0,0,.31h0l1.47,14.41h0l-4,15.51h0a5.59,5.59,0,0,0-.16,1.27c0,2.09,1.48,2.94,3.3,1.9A7.43,7.43,0,0,0,75,131.53h0l3.94-16A5.3,5.3,0,0,0,79.19,113Z"/><path class="cls-3" d="M74.63,122.08c-1.13.66-2,.12-2-1.19a4.54,4.54,0,0,1,2-3.56l26.67-17-.48,7.89Z"/><path class="cls-3" d="M72.58,120.89a4.54,4.54,0,0,1,2-3.56l26.67-17L98.64,98.6,72,115.65a4.54,4.54,0,0,0-2,3.56,1.38,1.38,0,0,0,.73,1.4l2.49,1.58A1.45,1.45,0,0,1,72.58,120.89Z"/><path class="cls-3" d="M121,87.76c1.72-1.67,2.64-4.36,2-6s-2.46-1.63-4.18,0L87.38,111.85s-6.33,7-8.25,15.25-4.25,17.31-4.25,17.31L70,150.15v3.95l7.57-4.37,13.1-28.26a43.92,43.92,0,0,1,8-11.11C104.2,104.67,121,87.76,121,87.76Z"/><path class="cls-3" d="M70,154.1v-3.95l4.91-5.74s2.34-9,4.25-17.31,8.25-15.25,8.25-15.25l31.44-30.06c1.22-1.19,2.52-1.53,3.38-1.05h0l-3.41-2c-.86-.5-2.17-.15-3.4,1L84,109.83s-6.34,7-8.25,15.26-4.26,17.3-4.26,17.3l-4.91,5.75v4l3.62,2.2.2-.42Z"/><path class="cls-3" d="M72.41,102.64c0,.84.59,1.18,1.32.76A2.9,2.9,0,0,0,75,101.13c0-.84-.59-1.18-1.31-.76A2.9,2.9,0,0,0,72.41,102.64Z"/><path class="cls-3" d="M73.73,120.24c0,.84.58,1.18,1.31.76a2.92,2.92,0,0,0,1.31-2.28c0-.83-.59-1.18-1.31-.76A2.89,2.89,0,0,0,73.73,120.24Z"/><path class="cls-3" d="M70.35,134c0,.84.59,1.18,1.31.76A2.91,2.91,0,0,0,73,132.49c0-.83-.59-1.17-1.32-.75A2.89,2.89,0,0,0,70.35,134Z"/><path class="cls-3" d="M90.72,116a2.76,2.76,0,0,0-.61-1.89,2.47,2.47,0,0,0-2.25.31,7.55,7.55,0,0,0-3.42,5.92,2.76,2.76,0,0,0,.61,1.89,2.5,2.5,0,0,0,2.26-.32A7.55,7.55,0,0,0,90.72,116Z"/><path class="cls-3" d="M90.11,114.09a2.76,2.76,0,0,1,.61,1.89,7.55,7.55,0,0,1-3.41,5.91,2.5,2.5,0,0,1-2.26.32c.61.67,1.64.76,2.81.08a7.56,7.56,0,0,0,3.41-5.91A2.3,2.3,0,0,0,90.11,114.09Z"/><path class="cls-3" d="M96.57,107.86a1.38,1.38,0,0,0-.41-1.1,1.55,1.55,0,0,0-1,.23,4.1,4.1,0,0,0-1.85,3.21,1.37,1.37,0,0,0,.41,1.1,1.55,1.55,0,0,0,1-.23A4.1,4.1,0,0,0,96.57,107.86Z"/><path class="cls-3" d="M96.16,106.76a1.38,1.38,0,0,1,.41,1.1,4.1,4.1,0,0,1-1.85,3.21,1.55,1.55,0,0,1-1,.23,1.22,1.22,0,0,0,1.44,0A4.1,4.1,0,0,0,97,108.06C97,107.31,96.66,106.85,96.16,106.76Z"/><path class="cls-3" d="M118,85.9c0,1.18.82,1.66,1.85,1.07a4.1,4.1,0,0,0,1.85-3.21c0-1.18-.83-1.66-1.85-1.07A4.08,4.08,0,0,0,118,85.9Z"/><path class="cls-3" d="M104.59,74c0,1.18.83,1.66,1.85,1.07a4.06,4.06,0,0,0,1.85-3.2c0-1.18-.82-1.66-1.85-1.07A4.09,4.09,0,0,0,104.59,74Z"/><polygon class="cls-3" points="74.88 144.41 69.97 150.15 66.54 148.14 71.45 142.39 74.88 144.41"/><path class="cls-3" d="M91.93,128.33l13.21-10.65a1.45,1.45,0,0,1,1.45-.06,4.52,4.52,0,0,1,2.53,3.21,1.44,1.44,0,0,1-.41,1.4l-13.2,10.64a1.45,1.45,0,0,1-1.45.06,4.52,4.52,0,0,1-2.54-3.2A1.44,1.44,0,0,1,91.93,128.33Z"/><path class="cls-3" d="M91.52,129.73a4.52,4.52,0,0,0,2.54,3.2,1.45,1.45,0,0,0,1.45-.06,1.41,1.41,0,0,0,.4-1.4,4.54,4.54,0,0,0-2.53-3.21,1.25,1.25,0,0,0-1.86,1.47Z"/><path class="cls-3" d="M76,141.6l16.32-12.11a.82.82,0,0,1,.83,0,2.56,2.56,0,0,1,1.45,1.84.79.79,0,0,1-.23.8L78.08,144.21a.85.85,0,0,1-.83,0,2.58,2.58,0,0,1-1.46-1.84A.84.84,0,0,1,76,141.6Z"/><polygon class="cls-3" points="18.71 109.22 76.84 143.15 73.5 142.44 15.27 108.73 18.71 109.22"/><polygon class="cls-3" points="29.11 113.57 87.25 147.5 80.96 147.87 22.83 113.94 29.11 113.57"/><path class="cls-3" d="M88.41,155a2.59,2.59,0,0,0-.62-1.85,2.56,2.56,0,0,0-2,.37,7.29,7.29,0,0,0-3.29,5.7,2.6,2.6,0,0,0,.62,1.86,2.54,2.54,0,0,0,2-.38A7.28,7.28,0,0,0,88.41,155Z"/><path class="cls-3" d="M73.5,142.44l3.34.71L81,147.87l6.29-.37,1.33,1.73c2.08,0,3.51,1.62,3.51,4.48a13.87,13.87,0,0,1-6.28,10.87L63.45,177.32Z"/><polygon class="cls-3" points="63.45 177.32 70.29 173.43 75.91 142.95 73.5 142.44 63.45 177.32"/><polygon class="cls-3" points="63.45 177.32 5.26 143.63 15.27 108.73 73.5 142.44 63.45 177.32"/><polygon class="cls-3" points="62.83 176.96 72.69 142.76 15.69 109.76 5.9 144.01 62.83 176.96"/><path class="cls-3" d="M33.93,120.33,15.69,109.76,5.9,144l21.78-13.36A13.94,13.94,0,0,0,33.93,120.33Z"/><polygon class="cls-3" points="22.81 151.16 17.02 154.49 15.89 154.86 14.83 154.25 15.46 153.58 21.23 150.25 22.81 151.16"/><polygon class="cls-3" points="15.89 155.44 14.83 154.82 14.83 154.25 15.89 154.86 15.89 155.44"/><polygon class="cls-3" points="15.89 155.44 17.02 155.08 17.02 154.49 15.89 154.86 15.89 155.44"/><polygon class="cls-3" points="22.81 151.46 20.79 152.63 21.03 152.76 17.02 155.08 17.02 154.49 22.81 151.16 22.81 151.46"/><polygon class="cls-3" points="15.32 146.83 9.53 150.17 8.41 150.53 7.34 149.91 7.97 149.25 13.74 145.92 15.32 146.83"/><polygon class="cls-3" points="8.41 151.11 7.34 150.5 7.34 149.91 8.41 150.53 8.41 151.11"/><polygon class="cls-3" points="8.41 151.11 9.53 150.75 9.53 150.17 8.41 150.53 8.41 151.11"/><polygon class="cls-3" points="15.32 147.13 13.3 148.3 13.54 148.44 9.53 150.75 9.53 150.17 15.32 146.83 15.32 147.13"/><polygon class="cls-3" points="8.18 142.72 2.4 146.06 1.27 146.42 0.2 145.81 0.84 145.14 5.62 142.38 5.33 143.36 5.98 143.72 7.86 142.53 8.18 142.72"/><polygon class="cls-3" points="1.27 147 0.2 146.39 0.2 145.81 1.27 146.42 1.27 147"/><polygon class="cls-3" points="1.27 147 2.4 146.64 2.4 146.06 1.27 146.42 1.27 147"/><polygon class="cls-3" points="8.18 143.02 6.17 144.19 6.4 144.33 2.4 146.64 2.4 146.06 8.18 142.72 8.18 143.02"/><polygon class="cls-3" points="30.27 155.47 24.49 158.81 23.36 159.18 22.29 158.56 22.92 157.9 28.7 154.56 30.27 155.47"/><polygon class="cls-3" points="23.36 159.76 22.29 159.14 22.29 158.56 23.36 159.18 23.36 159.76"/><polygon class="cls-3" points="23.36 159.76 24.49 159.39 24.49 158.81 23.36 159.18 23.36 159.76"/><polygon class="cls-3" points="30.27 155.78 28.25 156.94 28.49 157.08 24.49 159.39 24.49 158.81 30.27 155.47 30.27 155.78"/><polygon class="cls-3" points="37.73 159.77 31.95 163.11 30.82 163.48 29.75 162.86 30.38 162.2 36.16 158.87 37.73 159.77"/><polygon class="cls-3" points="30.82 164.06 29.75 163.44 29.75 162.86 30.82 163.48 30.82 164.06"/><polygon class="cls-3" points="30.82 164.06 31.95 163.69 31.95 163.11 30.82 163.48 30.82 164.06"/><polygon class="cls-3" points="37.73 160.08 35.71 161.24 35.95 161.38 31.95 163.69 31.95 163.11 37.73 159.77 37.73 160.08"/><polygon class="cls-3" points="45.16 164.09 39.38 167.43 38.25 167.8 37.18 167.18 37.81 166.52 43.59 163.19 45.16 164.09"/><polygon class="cls-3" points="38.25 168.38 37.18 167.76 37.18 167.18 38.25 167.8 38.25 168.38"/><polygon class="cls-3" points="38.25 168.38 39.38 168.01 39.38 167.43 38.25 167.8 38.25 168.38"/><polygon class="cls-3" points="45.16 164.4 43.14 165.56 43.38 165.7 39.38 168.01 39.38 167.43 45.16 164.09 45.16 164.4"/><polygon class="cls-3" points="52.63 168.4 46.84 171.73 45.72 172.1 44.65 171.48 45.28 170.82 51.05 167.49 52.63 168.4"/><polygon class="cls-3" points="45.72 172.68 44.65 172.06 44.65 171.48 45.72 172.1 45.72 172.68"/><polygon class="cls-3" points="45.72 172.68 46.84 172.32 46.84 171.73 45.72 172.1 45.72 172.68"/><polygon class="cls-3" points="52.63 168.7 50.61 169.86 50.85 170 46.84 172.32 46.84 171.73 52.63 168.4 52.63 168.7"/><polygon class="cls-3" points="60.05 172.73 54.27 176.06 53.14 176.43 52.08 175.81 52.71 175.15 58.48 171.82 60.05 172.73"/><polygon class="cls-3" points="53.14 177.01 52.08 176.4 52.08 175.81 53.14 176.43 53.14 177.01"/><polygon class="cls-3" points="53.14 177.01 54.27 177.01 54.27 176.06 53.14 176.43 53.14 177.01"/><polygon class="cls-3" points="60.05 173.03 58.04 174.2 58.56 174.49 54.27 177.01 54.27 176.06 60.05 172.73 60.05 173.03"/><polygon class="cls-3" points="58.86 180.52 57.8 179.9 57.8 179.32 58.86 179.94 58.86 180.52"/><polygon class="cls-3" points="58.86 180.52 59.99 180.52 59.99 179.57 58.86 179.94 58.86 180.52"/><polygon class="cls-3" points="59.99 179.57 59.99 180.52 64.28 177.99 65.78 176.53 65.78 176.23 59.99 179.57"/><polygon class="cls-3" points="65.58 176.11 63.45 177.32 62.83 176.96 63.13 175.94 58.43 178.66 57.8 179.32 58.86 179.94 59.99 179.57 65.78 176.23 65.58 176.11 65.58 176.11"/><path class="cls-3" d="M87.79,153.16a2.59,2.59,0,0,1,.62,1.85,7.28,7.28,0,0,1-3.3,5.7,2.54,2.54,0,0,1-2,.38,2.1,2.1,0,0,0,2.67,0,7.29,7.29,0,0,0,3.3-5.71C89.11,154.19,88.59,153.39,87.79,153.16Z"/><polygon class="cls-3" points="71.67 170.37 75.8 151.82 80.49 151.69 76.32 152.45 71.67 170.37"/><path class="cls-3" d="M135.48,127.47a18.77,18.77,0,0,0-.18-2.44l1.3-1c0-.43-.12-.83-.19-1.23l-1.72-.39a11.06,11.06,0,0,0-.56-1.36l1.28-1.45c-.15-.33-.32-.65-.49-1l-2.48-1.25.67-1a8.81,8.81,0,0,0-.75-.62l-6.58-4.46-9.12-4.13a7.48,7.48,0,0,0-1-.24l-.52.82-2.5-.93a10.62,10.62,0,0,0-1.09.16c-.34.74-.55,1.24-.71,1.61l-2.63-.57c-.35.15-.71.31-1.07.49a.31.31,0,0,1-.1,0c-.29,1.1-.42,1.65-.52,2.08l-.45.25-2.44-.22c-.39.28-.78.58-1.16.89-.07,1-.09,1.55-.11,1.94-.4.34-.8.7-1.2,1.06l-2,0c-.36.38-.72.78-1.07,1.18.15.88.25,1.32.32,1.65-.53.62-1,1.27-1.53,1.93l-1.68.19c-.32.45-.62.92-.91,1.38.35.66.55,1,.7,1.24-.55.89-1,1.79-1.52,2.72l-1.51.27q-.36.75-.69,1.5c.51.41.8.61,1,.76a35.71,35.71,0,0,0-1.23,3.36l-1.39.29c-.15.5-.29,1-.41,1.51.61.14,1,.2,1.23.25a30.73,30.73,0,0,0-.62,3.35l-1.37.69c0,.43-.09.86-.11,1.29a.49.49,0,0,1,0,.12c.65-.1,1-.18,1.34-.24,0,.35,0,.7,0,1,0,.71,0,1.39.1,2l-1.29,1c0,.42.12.82.19,1.22l1.43-.25a13.45,13.45,0,0,0,.69,2.17l-1.12,1.27c.16.34.32.65.49,1l1.88-.05a9.23,9.23,0,0,0,.82.93l-.89,1.41a8.81,8.81,0,0,0,.75.62l3.69.79-.84,1.36,4,1.77,6.41,3.42.55-.62,1.94,1.86a8.42,8.42,0,0,0,1,.24c.35-.53.59-.92.79-1.24l.6.1,1.62,1.25a11,11,0,0,0,1.11-.16c.24-.53.42-.94.56-1.26a14.37,14.37,0,0,0,1.67-.45l1.09.68c.36-.16.71-.32,1.07-.5l.11-.05c.13-.52.24-.92.31-1.24.27-.13.54-.28.8-.43.44-.26.88-.54,1.31-.82l1,.3v.09c.39-.29.78-.58,1.17-.9,0-.49,0-.86.07-1.15.7-.59,1.39-1.21,2.05-1.88h1.14c.36-.38.72-.78,1.07-1.18-.07-.44-.14-.77-.19-1q1.11-1.31,2.1-2.73h1c.31-.46.62-.92.91-1.39-.19-.36-.34-.62-.46-.83a36.92,36.92,0,0,0,1.83-3.39h1c.24-.5.47-1,.68-1.5-.32-.26-.55-.43-.73-.56a36.68,36.68,0,0,0,1.26-3.65l1.08-.2c.15-.5.29-1,.41-1.51l-1-.2a28.7,28.7,0,0,0,.55-3.47l1.22-.61c0-.44.08-.88.11-1.31v-.11Z"/><path class="cls-3" d="M95.09,142.94c0-11.6,8-25.7,18-31.5a16,16,0,0,1,8.21-2.48l-4.61-1.86a7.48,7.48,0,0,0-1-.24l-.52.82-2.5-.93a10.62,10.62,0,0,0-1.09.16c-.34.74-.55,1.24-.71,1.61l-2.63-.57c-.35.15-.71.31-1.07.49a.31.31,0,0,1-.1,0c-.29,1.1-.42,1.65-.52,2.08l-.45.25-2.44-.22c-.39.28-.78.58-1.16.89-.07,1-.09,1.55-.11,1.94-.4.34-.8.7-1.2,1.06l-2,0c-.36.38-.72.78-1.07,1.18.15.88.25,1.32.32,1.65-.53.62-1,1.27-1.53,1.93l-1.68.19c-.32.45-.62.92-.91,1.38.35.66.55,1,.7,1.24-.55.89-1,1.79-1.52,2.72l-1.51.27q-.36.75-.69,1.5c.51.41.8.61,1,.76a35.71,35.71,0,0,0-1.23,3.36l-1.39.29c-.15.5-.29,1-.41,1.51.61.14,1,.2,1.23.25a30.73,30.73,0,0,0-.62,3.35l-1.37.69c0,.43-.09.86-.11,1.29a.49.49,0,0,1,0,.12c.65-.1,1-.18,1.34-.24,0,.35,0,.7,0,1,0,.71,0,1.39.1,2l-1.29,1c0,.42.12.82.19,1.22l1.43-.25a13.45,13.45,0,0,0,.69,2.17l-1.12,1.27c.16.34.32.65.49,1l1.88-.05a9.23,9.23,0,0,0,.82.93l-.89,1.41a8.81,8.81,0,0,0,.75.62l3.69.79-.84,1.36,4,1.77.26.12C96.91,152.4,95.09,148.45,95.09,142.94Z"/><path class="cls-3" d="M129.89,146.59c.31-.46.62-.92.91-1.39-.19-.36-.34-.62-.46-.83a36.92,36.92,0,0,0,1.83-3.39h1c.24-.5.47-1,.68-1.5-.32-.26-.55-.43-.73-.56a36.68,36.68,0,0,0,1.26-3.65l1.08-.2c.15-.5.29-1,.41-1.51l-1-.2a28.7,28.7,0,0,0,.55-3.47l1.22-.61c0-.44.08-.88.11-1.31v-.11l-1.23-.39a18.77,18.77,0,0,0-.18-2.44l1.3-1c0-.43-.12-.83-.19-1.23l-1.72-.39a11.06,11.06,0,0,0-.56-1.36l1.05-1.19a4.77,4.77,0,0,1-1.82-1.24c-2.92-4.52-8.62-5.45-15.16-1.67-9.53,5.5-17.25,18.87-17.25,29.87,0,4.77,1.46,8.31,3.89,10.34l1.19.59.55-.62,1.94,1.86a8.42,8.42,0,0,0,1,.24c.35-.53.59-.92.79-1.24l.6.1,1.62,1.25a11,11,0,0,0,1.11-.16c.24-.53.42-.94.56-1.26a14.37,14.37,0,0,0,1.67-.45l1.09.68c.36-.16.71-.32,1.07-.5l.11-.05c.13-.52.24-.92.31-1.24.27-.13.54-.28.8-.43.44-.26.88-.54,1.31-.82l1,.3v.09c.39-.29.78-.58,1.17-.9,0-.49,0-.86.07-1.15.7-.59,1.39-1.21,2.05-1.88h1.14c.36-.38.72-.78,1.07-1.18-.07-.44-.14-.77-.19-1q1.11-1.31,2.1-2.73Z"/><polygon class="cls-3" points="102.55 139.85 102.96 138.34 97.26 129.63 89.75 131 89.34 132.51 96.79 131.12 102.55 139.85"/><polygon class="cls-3" points="104.56 133.93 105.25 132.43 100.32 123.78 92.04 125.09 91.35 126.59 99.47 125.21 104.56 133.93"/><polygon class="cls-3" points="95.28 119.48 94.37 120.86 103.09 119.87 107.58 128.2 108.48 126.81 104.12 118.63 95.28 119.48"/><polygon class="cls-3" points="99.24 114.53 98.17 115.71 107.31 115.37 111.38 123.05 112.45 121.87 108.45 114.4 99.24 114.53"/><polygon class="cls-3" points="103.67 110.6 102.51 111.49 111.86 112.03 115.72 118.83 116.88 117.94 113.03 111.39 103.67 110.6"/><polygon class="cls-3" points="108.25 107.95 107.08 108.49 116.37 110.17 120.29 115.83 121.46 115.28 117.53 109.8 108.25 107.95"/><polygon class="cls-3" points="121.65 109.75 112.69 106.75 111.58 106.91 120.65 109.61 124.79 114.25 125.89 114.08 121.65 109.75"/><polygon class="cls-3" points="101.78 145.53 101.78 144.13 95.3 135.43 88.58 136.8 88.46 138.21 94.97 136.93 101.78 145.53"/><polygon class="cls-3" points="101.98 150.65 101.79 149.42 94.43 141.13 88.58 142.09 88.77 143.31 94.4 142.51 101.98 150.65"/><polygon class="cls-3" points="103.4 154.67 102.98 153.84 94.75 146.23 89.77 146.5 90.26 147.46 95.02 147.39 103.4 154.67"/><polygon class="cls-3" points="96.24 150.37 92.07 149.75 92.82 150.37 96.81 151.24 106.03 157.71 105.28 157.09 96.24 150.37"/><path class="cls-3" d="M134.16,127.49a1.52,1.52,0,0,1,.64-1.63,16.47,16.47,0,0,0,1.61-3.1c-1.59.76-1.16.88-1.93,1.22-.6.26-.73.28-1-.37a1.29,1.29,0,0,1,.34-1.6l1.6-2.45c-.15-.33-.32-.65-.49-1-1.57,1.23-1.12,1.38-1.88,1.94-.61.45-.74.51-1.19.07s-.31-1,0-1.46l1.25-2.85a8.81,8.81,0,0,0-.75-.62c-1.44,1.62-1,1.78-1.67,2.54-.57.6-.7.7-1.29.5s-.56-.68-.32-1.23l.79-3.06a7.48,7.48,0,0,0-1-.24c-1.22,1.9-.71,2.06-1.32,3-.48.71-.6.84-1.3.9s-.76-.36-.62-.91l.22-3.06a8.84,8.84,0,0,0-1.1.16c-.91,2-.37,2.19-.83,3.17-.37.78-.47.94-1.22,1.24-.91.37-.91,0-.89-.53l-.39-2.85c-.35.16-.71.32-1.07.5l-.1,0c-.54,2,0,2.18-.25,3.17a2,2,0,0,1-1.06,1.49c-.91.65-1,.33-1.08-.11l-1-2.44c-.39.28-.78.58-1.16.89-.14,1.92.47,2,.38,3a2.06,2.06,0,0,1-.82,1.64c-.85.88-1,.65-1.22.31l-1.61-1.87c-.36.38-.72.78-1.07,1.18.28,1.65.92,1.72,1,2.54.09.64.08.8-.53,1.67-.74,1.06-1,.93-1.26.72l-2.14-1.17c-.31.46-.61.93-.9,1.39.67,1.28,1.34,1.3,1.64,1.94s.26.65-.21,1.61c-.56,1.15-.86,1.14-1.22,1.07l-2.54-.39q-.36.75-.69,1.5c1,.82,1.71.79,2.19,1.21s.43.45.13,1.43c-.36,1.18-.69,1.27-1.1,1.35l-2.82.42c-.15.5-.29,1-.41,1.51,1.3.3,2,.23,2.61.4s.58.21.47,1.14c-.14,1.13-.47,1.33-.9,1.54l-3,1.2c0,.44-.08.86-.1,1.29,0,.05,0,.09,0,.13,1.5-.24,2.19-.35,2.9-.43s.68,0,.76.78a1.49,1.49,0,0,1-.64,1.63l-2.9,1.89c0,.43.11.83.19,1.23,1.59-.76,2.27-.9,3-1.24.61-.26.73-.28,1,.37a1.28,1.28,0,0,1-.33,1.6L103,153.84c.15.33.32.65.49,1a33.36,33.36,0,0,1,3-2c.6-.45.74-.51,1.19-.07s.31.95,0,1.46l-2.36,2.86a8.81,8.81,0,0,0,.75.62,31.73,31.73,0,0,1,2.78-2.54c.56-.61.69-.71,1.28-.51s.56.68.32,1.23L108.52,159a8.42,8.42,0,0,0,1,.24,30.67,30.67,0,0,1,2.43-3c.48-.71.6-.84,1.29-.9.84-.06.76.36.63.91l-1.34,3.06a11,11,0,0,0,1.11-.16c.9-2,1.48-2.2,1.94-3.17.37-.78.47-.93,1.22-1.24s.91,0,.88.53l-.72,2.85c.36-.16.71-.32,1.07-.5l.11-.05c.53-2,1.07-2.18,1.36-3.17a2,2,0,0,1,1.05-1.49c.91-.65,1-.33,1.09.11l-.1,2.45c.39-.29.78-.58,1.17-.9.13-1.9.63-2,.72-2.95a2.08,2.08,0,0,1,.83-1.65c.85-.88,1-.65,1.21-.31l.5,1.88c.36-.38.72-.78,1.07-1.18-.28-1.64.19-1.73.09-2.54-.09-.65-.08-.81.53-1.68.73-1.06,1-.93,1.26-.72l1,1.18c.31-.46.62-.92.91-1.39-.67-1.27-.22-1.31-.53-1.95s-.26-.65.21-1.61c.57-1.15.87-1.14,1.22-1.07l1.43.41c.24-.5.47-1,.68-1.5-1-.81-.59-.81-1.06-1.24s-.43-.44-.14-1.42c.37-1.18.7-1.27,1.1-1.35l1.71-.4c.15-.5.29-1,.41-1.51a10.06,10.06,0,0,1-1.5-.43c-.49-.13-.57-.2-.46-1.13.13-1.12.47-1.33.9-1.54l1.83-1.18c0-.44.08-.88.11-1.31v-.11c-1.49.24-1.07.33-1.78.41S134.25,128.31,134.16,127.49Z"/><path class="cls-4" d="M132.3,130.86c0,7.47-5.25,16.56-11.72,20.3s-11.72.7-11.72-6.77,5.25-16.56,11.72-20.3S132.3,123.38,132.3,130.86Z"/><path class="cls-4" d="M130.7,131.78c0,6.46-4.53,14.3-10.12,17.53s-10.11.61-10.11-5.84,4.52-14.3,10.11-17.53S130.7,125.33,130.7,131.78Z"/><path class="cls-3" d="M126.17,126.55a7.32,7.32,0,0,1,1.36,4.64c0,5.6-3.94,12.43-8.8,15.23-2.12,1.23-4.07,1.48-5.59.91,1.56,2,4.31,2.26,7.44.45,4.86-2.8,8.8-9.62,8.8-15.23C129.38,129.39,128.13,127.29,126.17,126.55Z"/><path class="cls-3" d="M118.73,146.42c4.86-2.8,8.8-9.63,8.8-15.23a7.32,7.32,0,0,0-1.36-4.64c-1.52-.57-3.46-.31-5.59.92-4.86,2.8-8.8,9.62-8.8,15.23a7.29,7.29,0,0,0,1.36,4.63C114.66,147.9,116.61,147.65,118.73,146.42Z"/><path class="cls-3" d="M125,133.24c0-4.13-2.89-5.8-6.46-3.74a10.89,10.89,0,0,0-2.44,2,20.78,20.78,0,0,0-4,8.12,10.88,10.88,0,0,0-.07,1.13c0,4.12,2.89,5.79,6.47,3.73A14.29,14.29,0,0,0,125,133.24Z"/><path class="cls-3" d="M124.75,133.59c0-3.73-2.62-5.25-5.86-3.38A12.94,12.94,0,0,0,113,140.35c0,3.74,2.62,5.25,5.86,3.39A13,13,0,0,0,124.75,133.59Z"/><path class="cls-3" d="M122.13,134.62a2.67,2.67,0,0,0-.95-2.3,2.83,2.83,0,0,0-2.29.4,8.14,8.14,0,0,0-3.68,6.38,2.68,2.68,0,0,0,1,2.3,2.83,2.83,0,0,0,2.29-.4A8.16,8.16,0,0,0,122.13,134.62Z"/><path class="cls-3" d="M121.18,132.32a2.67,2.67,0,0,1,.95,2.3,8.16,8.16,0,0,1-3.68,6.38,2.83,2.83,0,0,1-2.29.4,2.51,2.51,0,0,0,2.74-.18,8.14,8.14,0,0,0,3.68-6.38A2.4,2.4,0,0,0,121.18,132.32Z"/><path class="cls-3" d="M120.22,135.73c0-1.13-.8-1.59-1.77-1a3.92,3.92,0,0,0-1.77,3.07c0,1.12.79,1.58,1.77,1A3.94,3.94,0,0,0,120.22,135.73Z"/><path class="cls-3" d="M118.89,133.44c0-.29-.19-.4-.44-.26a1,1,0,0,0-.45.78c0,.28.2.4.45.26A1,1,0,0,0,118.89,133.44Z"/><path class="cls-3" d="M118.8,133.5c0-.23-.16-.32-.35-.2a.77.77,0,0,0-.35.6c0,.22.16.31.35.2A.77.77,0,0,0,118.8,133.5Z"/><path class="cls-3" d="M120.78,133.25c0-.28-.2-.4-.45-.25a1,1,0,0,0-.45.77c0,.28.2.4.45.26A1,1,0,0,0,120.78,133.25Z"/><path class="cls-3" d="M120.68,133.31c0-.22-.16-.31-.35-.2a.77.77,0,0,0-.35.6c0,.22.16.32.35.2A.77.77,0,0,0,120.68,133.31Z"/><path class="cls-3" d="M121.57,135c0-.29-.2-.4-.44-.26a1,1,0,0,0-.45.77c0,.29.2.41.45.26A1,1,0,0,0,121.57,135Z"/><path class="cls-3" d="M121.48,135c0-.22-.16-.31-.35-.2a.75.75,0,0,0-.35.61c0,.22.15.31.35.2A.78.78,0,0,0,121.48,135Z"/><path class="cls-3" d="M120.8,137.6c0-.28-.2-.4-.45-.26a1,1,0,0,0-.44.78c0,.28.2.4.44.26A1,1,0,0,0,120.8,137.6Z"/><path class="cls-3" d="M120.7,137.66c0-.22-.15-.31-.35-.2a.76.76,0,0,0-.34.6c0,.22.15.31.34.2A.75.75,0,0,0,120.7,137.66Z"/><path class="cls-3" d="M118.89,139.59c0-.28-.19-.4-.44-.26a1,1,0,0,0-.45.78c0,.28.2.4.45.26A1,1,0,0,0,118.89,139.59Z"/><path class="cls-3" d="M118.8,139.65c0-.22-.16-.31-.35-.2a.77.77,0,0,0-.35.6c0,.22.16.31.35.2A.77.77,0,0,0,118.8,139.65Z"/><path class="cls-3" d="M117,139.78c0-.29-.2-.4-.45-.26a1,1,0,0,0-.44.77c0,.29.2.41.44.26A1,1,0,0,0,117,139.78Z"/><path class="cls-3" d="M116.91,139.83c0-.22-.15-.31-.35-.2a.78.78,0,0,0-.34.61c0,.22.15.31.34.2A.75.75,0,0,0,116.91,139.83Z"/><path class="cls-3" d="M116.23,138.05c0-.28-.2-.4-.45-.26a1,1,0,0,0-.44.78c0,.29.2.4.44.26A1,1,0,0,0,116.23,138.05Z"/><path class="cls-3" d="M116.13,138.11c0-.22-.15-.31-.35-.2a.76.76,0,0,0-.34.6c0,.22.15.31.34.2A.75.75,0,0,0,116.13,138.11Z"/><path class="cls-3" d="M117,135.43c0-.29-.2-.4-.45-.26a1,1,0,0,0-.44.77c0,.29.2.41.44.26A1,1,0,0,0,117,135.43Z"/><path class="cls-3" d="M116.91,135.49c0-.23-.15-.32-.35-.21a.77.77,0,0,0-.34.61c0,.22.15.31.34.2A.75.75,0,0,0,116.91,135.49Z"/><path class="cls-3" d="M125.52,105.38l.24-25.28s-5.49,2.13-6.61,5.14-4.34,16.17-4.34,16.17Z"/><path class="cls-3" d="M125.76,80.1l-2.63-2s-5.49,2.14-6.61,5.15-4.34,16.16-4.34,16.16l2.63,2s3.22-13.16,4.34-16.17S125.76,80.1,125.76,80.1Z"/><path class="cls-3" d="M124.34,85.76a3.87,3.87,0,0,1-1.75,3c-1,.56-1.76.11-1.76-1a3.88,3.88,0,0,1,1.76-3C123.56,84.19,124.34,84.64,124.34,85.76Z"/><polygon class="cls-3" points="120.86 106.55 122.58 108.16 134.26 114.56 126.3 104.36 120.86 106.55"/><polygon class="cls-3" points="127.11 102.13 116.72 96.13 104.13 103.4 114.52 109.4 127.11 102.13"/><polygon class="cls-3" points="134.26 114.56 135.91 113.69 127.11 102.13 114.52 109.4 114.52 111.16 126.3 104.36 134.26 114.56"/><polygon class="cls-3" points="114.52 109.4 104.13 103.4 104.13 105.16 114.52 111.16 114.52 109.4"/><circle class="cls-7" cx="120.1" cy="21.25" r="5.9"/><circle class="cls-7" cx="143.31" cy="34.24" r="5.9"/><circle class="cls-7" cx="188.6" cy="19.49" r="5.9"/></g></g></g></svg>