<svg xmlns="http://www.w3.org/2000/svg" viewBox="0 0 211.96 166.97"><defs><style>.cls-1{isolation:isolate;}.cls-2,.cls-3,.cls-4{fill:#eeeeef;stroke:#231916;stroke-miterlimit:10;stroke-width:0.25px;}.cls-3,.cls-4{mix-blend-mode:multiply;}.cls-3{opacity:0.2;}.cls-4{opacity:0.5;}.cls-5{fill:#dd2625;}</style></defs><g class="cls-1"><g id="Layer_2" data-name="Layer 2"><g id="Layer_1-2" data-name="Layer 1"><polygon class="cls-2" points="63.38 163.43 5.01 129.74 5.01 133.05 63.38 166.75 63.38 163.43"/><path class="cls-2" d="M58.69,161.94,34.4,148.11a1.11,1.11,0,0,0-1.08.11,3.38,3.38,0,0,0-1.52,2.64,1.07,1.07,0,0,0,.45,1l24.29,13.83a1.06,1.06,0,0,0,1.07-.11,3.35,3.35,0,0,0,1.52-2.64A1.09,1.09,0,0,0,58.69,161.94Z"/><path class="cls-2" d="M59.13,162.93a3.35,3.35,0,0,1-1.52,2.64.93.93,0,0,1-1.52-.88,3.38,3.38,0,0,1,1.52-2.64,1.11,1.11,0,0,1,1.08-.11A1.09,1.09,0,0,1,59.13,162.93Z"/><path class="cls-2" d="M57.93,165.47c-.78.45-1.42.08-1.42-.82a3.16,3.16,0,0,1,1.42-2.46L60,161v3.28Z"/><path class="cls-2" d="M33.47,151.51c-.79.45-1.42.08-1.42-.82a3.11,3.11,0,0,1,1.42-2.46l2.08-1.2v3.28Z"/><path class="cls-2" d="M30,145.85,5.7,132a1,1,0,0,0-1.07.11,3.33,3.33,0,0,0-1.53,2.64,1,1,0,0,0,.45,1l24.29,13.83a1,1,0,0,0,1.07-.11,3.36,3.36,0,0,0,1.53-2.63A1.07,1.07,0,0,0,30,145.85Z"/><path class="cls-2" d="M30.44,146.84a3.36,3.36,0,0,1-1.53,2.63,1,1,0,0,1-1.07.11,1.06,1.06,0,0,1-.45-1A3.35,3.35,0,0,1,28.91,146a.93.93,0,0,1,1.53.88Z"/><path class="cls-2" d="M29.24,149.37c-.79.45-1.42.09-1.42-.82a3.11,3.11,0,0,1,1.42-2.45l2.08-1.21v3.28Z"/><path class="cls-2" d="M4.77,135.41c-.78.45-1.42.08-1.42-.82a3.17,3.17,0,0,1,1.42-2.46l2.08-1.2v3.28Z"/><path class="cls-2" d="M134.62,112.45l-53,34.21a11,11,0,0,0-5,8.57c0,3.16,2.22,4.44,5,2.86l53-30.57a14.43,14.43,0,0,0,6.52-11.31C141.14,112.05,138.22,110.37,134.62,112.45Z"/><path class="cls-2" d="M134.62,114.41l-53,34.07a7.46,7.46,0,0,0-3.37,5.84c0,2.15,1.51,3,3.37,2l53-30.71a10.69,10.69,0,0,0,4.82-8.36C139.44,114.12,137.28,112.87,134.62,114.41Z"/><polygon class="cls-2" points="81.8 148.36 81.8 153.72 134.84 123.09 134.84 117.14 91.03 142.43 81.8 148.36"/><path class="cls-2" d="M139.44,117.2c0-3.08-2.16-4.33-4.82-2.79a10.66,10.66,0,0,0-4.83,8.36c0,3.08,2.16,4.32,4.83,2.79A10.69,10.69,0,0,0,139.44,117.2Z"/><path class="cls-2" d="M138.5,117.74c0-2.48-1.74-3.48-3.88-2.24a8.57,8.57,0,0,0-3.89,6.73c0,2.48,1.74,3.48,3.89,2.24A8.6,8.6,0,0,0,138.5,117.74Z"/><path class="cls-2" d="M137.43,118.36c0-1.8-1.26-2.53-2.81-1.63a6.22,6.22,0,0,0-2.82,4.88c0,1.8,1.26,2.52,2.82,1.63A6.25,6.25,0,0,0,137.43,118.36Z"/><path class="cls-2" d="M85,150.43c0-2.15-1.51-3-3.38-2a7.46,7.46,0,0,0-3.37,5.84c0,2.15,1.51,3,3.37,2A7.45,7.45,0,0,0,85,150.43Z"/><path class="cls-2" d="M84.35,150.79c0-1.74-1.22-2.45-2.74-1.58A6.07,6.07,0,0,0,78.88,154c0,1.74,1.22,2.45,2.73,1.58A6.05,6.05,0,0,0,84.35,150.79Z"/><path class="cls-2" d="M76.66,155.23a11,11,0,0,1,5-8.57l53-34.21c1.79-1,3.42-1.14,4.6-.47l-9.58-5.44c-1.18-.69-2.81-.59-4.62.45L72,141.21a10.94,10.94,0,0,0-5,8.57A3.5,3.5,0,0,0,68.52,153l9.5,5.4h0A3.51,3.51,0,0,1,76.66,155.23Z"/><path class="cls-2" d="M135.69,111.93a2.63,2.63,0,0,0-.35.15l-9.5-5.49.35-.15Z"/><polygon class="cls-2" points="131.73 114.31 131.45 114.49 121.93 108.99 122.21 108.81 131.73 114.31"/><polygon class="cls-2" points="127.93 116.76 127.64 116.95 118.12 111.45 118.41 111.27 127.93 116.76"/><polygon class="cls-2" points="124.12 119.22 123.83 119.41 114.31 113.91 114.6 113.73 124.12 119.22"/><polygon class="cls-2" points="120.31 121.68 120.02 121.87 110.5 116.37 110.78 116.19 120.31 121.68"/><polygon class="cls-2" points="116.5 124.14 116.21 124.32 106.69 118.83 106.98 118.64 116.5 124.14"/><polygon class="cls-2" points="112.69 126.6 112.4 126.78 102.88 121.29 103.17 121.11 112.69 126.6"/><polygon class="cls-2" points="108.88 129.06 108.59 129.24 99.08 123.75 99.36 123.56 108.88 129.06"/><polygon class="cls-2" points="105.07 131.52 104.78 131.7 95.26 126.2 95.54 126.02 105.07 131.52"/><polygon class="cls-2" points="101.26 133.98 100.97 134.16 91.45 128.66 91.74 128.48 101.26 133.98"/><polygon class="cls-2" points="97.45 136.44 97.17 136.62 87.64 131.12 87.92 130.94 97.45 136.44"/><polygon class="cls-2" points="93.64 138.9 93.35 139.08 83.83 133.58 84.11 133.4 93.64 138.9"/><polygon class="cls-2" points="89.83 141.36 89.55 141.54 80.03 136.04 80.31 135.85 89.83 141.36"/><polygon class="cls-2" points="86.02 143.81 85.74 144 76.21 138.5 76.5 138.32 86.02 143.81"/><polygon class="cls-2" points="82.21 146.27 81.93 146.46 72.41 140.96 72.69 140.78 82.21 146.27"/><path class="cls-2" d="M79,149.06a2.2,2.2,0,0,0-.17.25l-9.56-5.51a2.23,2.23,0,0,1,.19-.24Z"/><path class="cls-2" d="M77.1,152.64c0,.1-.07.2-.09.3l-9.57-5.53.09-.29Z"/><path class="cls-2" d="M77.43,157.84l-9.71-5.61a2.69,2.69,0,0,1-.28-.5l9.65,5.57A2.47,2.47,0,0,0,77.43,157.84Z"/><polygon class="cls-2" points="186.27 95.45 196.77 89.39 196.77 85.22 187.36 90.66 186.27 91.94 186.27 95.45"/><polygon class="cls-2" points="187.36 90.66 196.77 85.22 137.04 50.73 127.63 56.16 187.36 90.66"/><polygon class="cls-2" points="186.27 95.45 126.54 60.95 126.54 57.44 186.27 91.94 186.27 95.45"/><polygon class="cls-2" points="187.36 90.66 127.63 56.16 126.54 57.44 186.27 91.94 187.36 90.66"/><polygon class="cls-2" points="141.65 54.23 169.63 70.34 175.85 66.76 147.79 50.73 141.65 54.23"/><polygon class="cls-2" points="169.63 70.34 169.63 83.12 175.85 79.54 175.85 66.76 169.63 70.34"/><polygon class="cls-2" points="141.65 67.01 169.63 83.12 169.63 70.34 141.65 54.23 141.65 67.01"/><polygon class="cls-2" points="108.34 62.91 108.34 81.06 156.63 109.04 156.63 90.89 108.34 62.91"/><polygon class="cls-2" points="178.1 78.49 156.63 90.89 108.34 62.91 129.81 50.51 178.1 78.49"/><path class="cls-2" d="M125,69.21l-9.36-5.4L125,58.4l9.36,5.41Zm-8.56-5.4L125,68.75l8.56-4.94-8.56-5Z"/><path class="cls-2" d="M152,83.78l-9.36-5.4L152,73l9.36,5.41Zm-8.56-5.4L152,83.32l8.56-4.94L152,73.43Z"/><polygon class="cls-2" points="144.61 102.83 116.85 118.86 116.85 99.76 144.61 83.73 144.61 102.83"/><polygon class="cls-2" points="180.4 95.31 156.63 109.04 156.63 90.89 178.1 78.49 180.4 79.32 180.4 95.31"/><path class="cls-2" d="M134.66,111.59c-4,6.28-9.71,17.09-13.07,19l-8.47,4.89v3.59l9.8-5.66c5.24-3,11.85-14.33,15.81-20.61s11.55-10.67,17.9-14.34V90.92C148.2,95.79,138.62,105.31,134.66,111.59Z"/><polygon class="cls-2" points="113.12 139.1 110.91 137.83 110.91 134.24 113.12 135.51 113.12 139.1"/><path class="cls-2" d="M154.43,89.65c-8.43,4.87-18,14.4-22,20.68s-9.71,17.08-13.07,19l-8.47,4.89,2.21,1.27,8.47-4.89c3.36-1.94,9.11-12.75,13.07-19s13.54-15.8,22-20.67Z"/><polygon class="cls-2" points="178.1 78.49 180.4 79.32 132.11 51.34 129.81 50.51 178.1 78.49"/><polygon class="cls-2" points="107.88 139.68 109.32 140.49 109.32 123.98 107.88 123.17 107.88 139.68"/><polygon class="cls-2" points="109.32 140.49 112.49 138.66 112.49 122.15 109.32 123.98 109.32 140.49"/><path class="cls-2" d="M106.59,137.46l-1.76-1a1.28,1.28,0,0,0-1.26.13,4,4,0,0,0-1.78,3.09,1.25,1.25,0,0,0,.53,1.16l1.75,1a1.28,1.28,0,0,0,1.26-.13,3.92,3.92,0,0,0,1.78-3.09A1.27,1.27,0,0,0,106.59,137.46Z"/><path class="cls-2" d="M107.11,138.62a3.92,3.92,0,0,1-1.78,3.09,1.08,1.08,0,0,1-1.78-1,3.92,3.92,0,0,1,1.78-3.09,1.25,1.25,0,0,1,1.26-.13A1.27,1.27,0,0,1,107.11,138.62Z"/><polygon class="cls-2" points="180.17 89.36 158.75 101.73 158.75 107.12 180.17 94.76 180.17 89.36"/><polygon class="cls-2" points="179.09 92.43 159.4 103.8 184.37 118.18 204.06 106.81 179.09 92.43"/><polygon class="cls-2" points="159.4 102.03 159.4 105.64 184.37 120.03 184.37 116.42 159.4 102.03"/><polygon class="cls-2" points="200.94 108.62 200.94 106.85 175.96 92.47 175.96 94.23 200.94 108.62"/><path class="cls-2" d="M200.33,107.68,175,93.17a.49.49,0,0,0-.5,0,1.55,1.55,0,0,0-.71,1.23.49.49,0,0,0,.21.46l25.39,14.52a.5.5,0,0,0,.5-.06,1.54,1.54,0,0,0,.7-1.23A.49.49,0,0,0,200.33,107.68Z"/><path class="cls-2" d="M189.06,114.15,163.67,99.64a.49.49,0,0,0-.5,0,1.55,1.55,0,0,0-.71,1.23.5.5,0,0,0,.21.46l25.39,14.52a.5.5,0,0,0,.5-.06,1.55,1.55,0,0,0,.71-1.23A.51.51,0,0,0,189.06,114.15Z"/><polygon class="cls-2" points="200.94 106.85 204.06 105.05 179.09 90.66 175.96 92.47 200.94 106.85"/><polygon class="cls-2" points="162.19 100.42 159.4 102.03 184.37 116.42 187.16 114.8 162.19 100.42"/><polygon class="cls-2" points="200.94 108.62 187.16 116.57 187.16 114.8 184.37 116.42 184.37 120.03 204.06 108.66 204.06 105.05 200.94 106.85 200.94 108.62"/><polygon class="cls-2" points="168.35 98.62 193.33 113.01 196.24 111.33 171.27 96.94 168.35 98.62"/><path class="cls-2" d="M166.94,88.74a4.15,4.15,0,0,0-1.72,3.32c0,1.29.77,1.89,1.72,1.34l13.54-7.81V78.85Z"/><polygon class="cls-2" points="171.94 88.39 175.75 86.19 175.75 83.95 171.94 86.15 171.94 88.39"/><polygon class="cls-2" points="208.55 112.25 177.64 130.1 173.53 130.03 173.53 120.92 177.64 114.31 208.55 96.46 208.55 112.25"/><polygon class="cls-2" points="182.29 117.47 211.72 100.48 208.55 98.36 208.55 101.13 181.28 116.87 182.29 117.47"/><path class="cls-2" d="M176.42,119.08c0,.82.5,1.21,1.1.86a2.65,2.65,0,0,0,1.1-2.12c0-.83-.49-1.21-1.1-.86A2.67,2.67,0,0,0,176.42,119.08Z"/><polygon class="cls-2" points="178.06 128.58 205.38 112.8 205.38 110.86 178.06 126.64 178.06 128.58"/><polygon class="cls-2" points="208.55 102.81 181.28 118.56 181.28 121.78 208.55 107.44 208.55 102.81"/><polygon class="cls-2" points="177.64 114.31 172.41 110.97 203.32 93.13 208.55 96.46 177.64 114.31"/><polygon class="cls-2" points="177.64 114.31 172.41 110.97 168.3 117.58 173.53 120.92 177.64 114.31"/><polygon class="cls-2" points="173.53 130.03 168.3 126.7 168.3 117.58 173.53 120.92 173.53 130.03"/><polygon class="cls-2" points="182.29 120.7 211.72 105.22 211.72 100.48 182.29 117.47 182.29 120.7"/><polygon class="cls-2" points="187.34 117.28 183.52 119.48 183.52 117.67 187.34 115.47 187.34 117.28"/><polygon class="cls-2" points="207.29 100.28 203.47 102.49 203.47 100.68 207.29 98.47 207.29 100.28"/><path class="cls-2" d="M177.69,111.57a.39.39,0,0,1-.4-.4v-9.64a7.88,7.88,0,0,1,3.25-6.27L200,84a2.31,2.31,0,0,1,2.38-.15,3.18,3.18,0,0,1,1.28,2.89V96.4a.4.4,0,0,1-.8,0V86.76a2.43,2.43,0,0,0-.88-2.2,1.54,1.54,0,0,0-1.58.15L180.94,96a7.1,7.1,0,0,0-2.86,5.58v9.64A.39.39,0,0,1,177.69,111.57Z"/><polygon class="cls-2" points="182.29 120.7 181.28 120.1 181.28 116.87 182.29 117.47 182.29 120.7"/><path class="cls-2" d="M181.22,84.57a.4.4,0,0,1-.4-.4V55.82c0-.39,0-1-.28-1.13s-.41,0-.76.17c-1.51.88-1.91,2.77-2.88,7.35l0,.12c-1,4.74-2.65,15.8-2.67,15.91a.4.4,0,0,1-.45.34.38.38,0,0,1-.33-.45c0-.11,1.66-11.2,2.67-16l0-.12c1-4.83,1.44-6.82,3.26-7.88A1.5,1.5,0,0,1,181,54c.74.46.67,1.7.65,1.84V84.17A.4.4,0,0,1,181.22,84.57Z"/><path class="cls-2" d="M141.13,60.53a.39.39,0,0,1-.4-.39V31.78c0-.39,0-1-.28-1.13s-.41,0-.75.18c-1.52.87-1.92,2.77-2.89,7.35l0,.11c-1,4.74-2.65,15.81-2.66,15.92a.4.4,0,0,1-.79-.12c0-.11,1.67-11.2,2.67-16l0-.12c1-4.82,1.43-6.82,3.26-7.87a1.48,1.48,0,0,1,1.58-.16c.73.46.66,1.69.65,1.83V60.14A.39.39,0,0,1,141.13,60.53Z"/><path class="cls-2" d="M143.1,81.85a.43.43,0,0,1-.35-.2.41.41,0,0,1,.15-.55L163,69.57a4,4,0,0,0,1.76-3V53.47a1.5,1.5,0,0,0-.5-1.21,1,1,0,0,0-.89-.15l-12,3.27a.39.39,0,0,1-.49-.28.4.4,0,0,1,.28-.49l12-3.27a1.76,1.76,0,0,1,1.58.28,2.27,2.27,0,0,1,.81,1.85V66.53a4.72,4.72,0,0,1-2.15,3.73L143.3,81.79A.39.39,0,0,1,143.1,81.85Z"/><path class="cls-2" d="M149.11,68.66a.41.41,0,0,1-.35-.2.4.4,0,0,1,.15-.54l16-9.25a.41.41,0,0,1,.55.15.4.4,0,0,1-.15.54l-16,9.25A.45.45,0,0,1,149.11,68.66Z"/><path class="cls-2" d="M104.92,124.59a1.46,1.46,0,0,0-1.35,0,.45.45,0,0,0-.28.38v12.1a.47.47,0,0,0,.28.39,1.53,1.53,0,0,0,1.35,0,.48.48,0,0,0,.27-.39V125A.45.45,0,0,0,104.92,124.59Z"/><path class="cls-2" d="M105.41,102.64a2.54,2.54,0,0,0-2.34,0,.81.81,0,0,0-.49.67V125a.83.83,0,0,0,.49.68,2.61,2.61,0,0,0,2.34,0,.83.83,0,0,0,.49-.68V103.31A.81.81,0,0,0,105.41,102.64Z"/><path class="cls-2" d="M101.54,107.81l.77,6,2.64-1.52,1.11,12.82,12.63-7.3c8.14-17.42,19.38-26.34,25.92-30.12l.21-.35V82.82Z"/><polygon class="cls-2" points="144.81 82.82 101.54 107.81 101.54 106.09 144.81 81.1 144.81 82.82"/><polygon class="cls-2" points="107.12 29.53 107.12 34.47 97.41 57.42 101.18 55.31 110.18 33.8 110.18 27.77 107.12 29.53"/><polygon class="cls-2" points="110.18 27.77 107.12 29.53 104.45 28.17 107.51 26.4 110.18 27.77"/><polygon class="cls-2" points="107.12 34.47 107.12 29.53 104.45 28.17 104.45 33.11 107.12 34.47"/><polygon class="cls-2" points="107.12 34.47 97.41 57.42 94.74 56.06 104.45 33.11 107.12 34.47"/><polygon class="cls-2" points="104.62 40.39 100.28 50.63 141.54 74.39 145.87 64.14 104.62 40.39"/><polygon class="cls-2" points="150.76 55.33 150.76 60.27 141.05 83.28 144.81 81.1 153.82 59.6 153.82 53.56 150.76 55.33"/><polygon class="cls-2" points="153.82 53.56 150.76 55.33 148.09 53.96 151.15 52.2 153.82 53.56"/><polygon class="cls-2" points="150.76 60.27 150.76 55.33 148.09 53.96 148.09 58.91 150.76 60.27"/><polygon class="cls-2" points="150.76 60.27 141.05 83.28 138.38 81.86 148.09 58.91 150.76 60.27"/><polygon class="cls-2" points="144.09 75.85 126.27 86.14 79.69 59.32 97.5 49.03 144.09 75.85"/><path class="cls-2" d="M83.61,58a.4.4,0,0,1-.4-.36l-1.1-9.93A4,4,0,0,1,84,44.13l3-1.75a2,2,0,0,1,1.87-.17,1.73,1.73,0,0,1,.91,1.45l1.1,9.93a.39.39,0,0,1-.35.44.4.4,0,0,1-.44-.35l-1.1-9.94a1,1,0,0,0-.48-.82,1.19,1.19,0,0,0-1.11.15l-3,1.75a3.25,3.25,0,0,0-1.53,2.84L84,57.6a.4.4,0,0,1-.35.44Z"/><path class="cls-2" d="M90,48.91a.38.38,0,0,1-.34-.2.4.4,0,0,1,.14-.55l9.94-5.73a3.94,3.94,0,0,0,1.75-3V38.6a.81.81,0,0,0-1.36-.79l-10.47,6a.4.4,0,1,1-.39-.69l10.47-6.05a1.73,1.73,0,0,1,1.77-.13,1.75,1.75,0,0,1,.78,1.61v.79a4.71,4.71,0,0,1-2.16,3.73l-9.93,5.73A.36.36,0,0,1,90,48.91Z"/><path class="cls-2" d="M136.62,67.37l.15-2.16s-5.55,2-7.09,2.83S128,72.22,128,72.36,136.62,67.37,136.62,67.37Z"/><path class="cls-2" d="M129.68,68c1.54-.86,7.09-2.83,7.09-2.83l-8.58-5.1s-5.55,2-7.09,2.82-1.72,4.18-1.72,4.33,8.58,5.1,8.58,5.1S128.14,68.89,129.68,68Z"/><path class="cls-2" d="M137.92,64.55l-.25-14.33a2.81,2.81,0,0,0-1.79,1.83c-.62,1.57-.46,9.89-.67,11.25S135.49,65.57,137.92,64.55Z"/><path class="cls-2" d="M135.21,63.3c.21-1.36,0-9.68.67-11.25a2.81,2.81,0,0,1,1.79-1.83l-5.78-3.57a2.81,2.81,0,0,0-1.79,1.83c-.62,1.57-3.27,8.36-3.47,9.72-.1.68,0,1.25.37,1.51l8.51,5.05h0A1.54,1.54,0,0,1,135.21,63.3Z"/><path class="cls-2" d="M137.41,48.61,137,45s-2.06,1.23-1.75,3.19S137.21,48.73,137.41,48.61Z"/><path class="cls-2" d="M135.2,48.21C134.89,46.25,137,45,137,45l-3-1.78s-2,1.23-1.75,3.19a1.18,1.18,0,0,0,.53,1l3,1.75h0A1.26,1.26,0,0,1,135.2,48.21Z"/><path class="cls-2" d="M113.75,54.81l.16-2.16s-5.56,2-7.1,2.83-1.71,4.18-1.71,4.33S113.75,54.81,113.75,54.81Z"/><path class="cls-2" d="M106.81,55.48c1.54-.86,7.1-2.83,7.1-2.83l-8.58-5.1s-5.56,2-7.1,2.83-1.71,4.18-1.71,4.32,8.58,5.11,8.58,5.11C105.1,59.66,105.28,56.33,106.81,55.48Z"/><path class="cls-2" d="M115.06,52l-.26-14.33A2.86,2.86,0,0,0,113,39.49c-.61,1.57-.46,9.9-.67,11.26S112.63,53,115.06,52Z"/><path class="cls-2" d="M112.34,50.75c.21-1.36.06-9.69.67-11.26a2.86,2.86,0,0,1,1.79-1.83L109,34.09a2.86,2.86,0,0,0-1.79,1.84c-.61,1.56-3.26,8.35-3.47,9.71-.1.68,0,1.25.37,1.52l8.52,5h0A1.56,1.56,0,0,1,112.34,50.75Z"/><path class="cls-2" d="M114.55,36.05l-.47-3.59s-2,1.23-1.75,3.2S114.34,36.17,114.55,36.05Z"/><path class="cls-2" d="M112.33,35.66c-.3-2,1.75-3.2,1.75-3.2l-3-1.78s-2.06,1.23-1.75,3.19c.08.56.28.84.52,1l3,1.75h0A1.2,1.2,0,0,1,112.33,35.66Z"/><polygon class="cls-2" points="126.39 91.74 119.38 95.79 119.38 83.87 121.05 81.03 126.39 77.94 126.39 91.74"/><polygon class="cls-2" points="113.61 61.35 106.87 57.45 111.73 56.56 118.47 60.47 113.61 61.35"/><polygon class="cls-2" points="110.9 60.37 104.16 56.47 106.13 60.75 112.87 64.65 110.9 60.37"/><polygon class="cls-2" points="110.9 60.37 104.16 56.47 104.97 55.23 111.72 59.13 110.9 60.37"/><polygon class="cls-2" points="121.05 81.03 74.81 54.01 79.83 51.11 126.39 77.94 121.05 81.03"/><polygon class="cls-2" points="150.85 34.9 150.85 54.7 149.29 53.8 149.29 34 150.85 34.9"/><polygon class="cls-2" points="152.41 34 150.85 34.9 150.85 54.7 152.41 53.8 152.41 34"/><polygon class="cls-2" points="70.72 28.74 78.89 55.28 77.33 54.38 69.16 27.84 70.72 28.74"/><polygon class="cls-2" points="72.28 27.84 70.72 28.74 78.89 55.28 80.45 54.38 72.28 27.84"/><polygon class="cls-2" points="119.38 83.87 113.24 87.42 101.54 101.9 101.54 106.09 119.38 95.79 119.38 83.87"/><polygon class="cls-2" points="101.54 106.09 54.98 79.26 54.98 75.06 101.54 101.9 101.54 106.09"/><polygon class="cls-2" points="113.24 87.42 66.68 60.59 54.98 75.06 101.54 101.9 113.24 87.42"/><polygon class="cls-2" points="113.24 87.42 66.68 60.59 72.82 57.04 119.38 83.87 113.24 87.42"/><polygon class="cls-2" points="121.05 81.03 74.81 54.01 72.82 57.04 119.38 83.87 121.05 81.03"/><polygon class="cls-2" points="110.9 70.34 104.15 66.44 106.13 60.75 112.87 64.65 110.9 70.34"/><polygon class="cls-2" points="113.61 61.35 111.72 59.13 110.9 60.37 112.87 64.65 110.9 70.34 112.14 69.73 113.89 70.74 116.61 65.48 116.91 63.35 118.35 61.66 118.47 60.47 113.61 61.35"/><polygon class="cls-2" points="113.45 53.28 121.62 79.82 120.06 78.92 111.89 52.38 113.45 53.28"/><polygon class="cls-2" points="115 52.38 113.45 53.28 121.62 79.82 123.18 78.92 115 52.38"/><polygon class="cls-2" points="123.18 87.9 123.18 93.63 141.09 83.23 144.26 75.71 123.18 87.9"/><polygon class="cls-2" points="123.18 93.6 125.19 92.43 125.19 86.73 123.18 87.9 123.18 93.6"/><polygon class="cls-2" points="66.16 24.51 71.75 25.43 109.85 47.42 114.93 52.66 114.93 56.16 66.16 28.01 66.16 24.51"/><polygon class="cls-2" points="152.03 23.04 109.85 47.42 71.75 25.43 113.93 1.05 152.03 23.04"/><polygon class="cls-2" points="152.03 23.04 109.85 47.42 114.93 52.66 157.11 28.29 152.03 23.04"/><polygon class="cls-2" points="157.11 31.78 114.93 56.16 114.93 52.66 157.11 28.29 157.11 31.78"/><polygon class="cls-2" points="108.34 0.13 66.16 24.51 71.75 25.43 113.93 1.05 108.34 0.13"/><path class="cls-2" d="M129,83.29a.39.39,0,0,1-.39-.35L127.52,73a4,4,0,0,1,1.92-3.63l3-1.75a2,2,0,0,1,1.88-.16,1.77,1.77,0,0,1,.91,1.44l1.1,9.93a.4.4,0,1,1-.79.09L134.47,69a1,1,0,0,0-.48-.82,1.2,1.2,0,0,0-1.12.14l-3,1.75a3.28,3.28,0,0,0-1.52,2.85l1.1,9.93a.4.4,0,0,1-.35.44Z"/><path class="cls-2" d="M135.4,74.16a.41.41,0,0,1-.35-.2.4.4,0,0,1,.15-.54l9.93-5.74a4,4,0,0,0,1.76-3v-.79a1,1,0,0,0-.38-.92,1,1,0,0,0-1,.14l-10.47,6a.39.39,0,0,1-.54-.14.4.4,0,0,1,.14-.55l10.47-6a1.58,1.58,0,0,1,2.55,1.47v.79a4.67,4.67,0,0,1-2.15,3.73l-9.93,5.74A.39.39,0,0,1,135.4,74.16Z"/><path class="cls-2" d="M118.59,101.78a2.18,2.18,0,0,1-1,1.7l-10.37,6c-.54.31-1,.06-1-.56v-.26a2.16,2.16,0,0,1,1-1.69l10.37-6c.54-.31,1-.06,1,.56Z"/><path class="cls-2" d="M118.75,105.78a2.18,2.18,0,0,1-1,1.69l-10.16,5.87c-.54.31-1,.06-1-.56v-.26a2.16,2.16,0,0,1,1-1.69L117.78,105c.53-.31,1-.06,1,.56Z"/><path class="cls-2" d="M118.92,109.78a2.19,2.19,0,0,1-1,1.7L108,117.21c-.54.32-1,.06-1-.56v-.26a2.18,2.18,0,0,1,1-1.69l10-5.74c.54-.31,1-.06,1,.56Z"/><path class="cls-2" d="M119.08,113.78a2.16,2.16,0,0,1-1,1.69l-9.73,5.62c-.54.31-1,.06-1-.56v-.26a2.16,2.16,0,0,1,1-1.69L118.1,113c.54-.31,1-.06,1,.56Z"/><polygon class="cls-2" points="90.92 127.12 68.23 114.06 68.23 110.68 93.03 124.94 90.92 127.12"/><polygon class="cls-2" points="54.68 150.64 90.92 127.12 68.23 114.06 31.99 137.59 54.68 150.64"/><polygon class="cls-2" points="48.33 75.46 107.85 109.7 111.84 129.26 109.22 134.25 49.69 100.02 45.91 89.67 48.33 75.46"/><polygon class="cls-2" points="49.69 100.02 4.06 129.65 0.27 119.3 45.91 89.67 49.69 100.02"/><path class="cls-2" d="M48.33,75.46,45.91,89.67.27,119.3c1.13-2.66,1.68-4.14,2.44-5.84C3.67,111.29,4.43,105.48,48.33,75.46Z"/><polygon class="cls-2" points="101.2 105.87 54.57 79.67 68.23 110.68 68.25 110.69 93.03 124.94 101.2 105.87"/><polygon class="cls-2" points="4.06 129.65 22.57 140.39 68.23 110.68 49.69 100.02 4.06 129.65"/><polygon class="cls-2" points="70.97 112.26 68.23 110.68 22.59 140.31 31.99 137.59 70.97 112.26"/><polygon class="cls-2" points="82.42 131.16 81.23 131.85 59.29 119.19 60.49 118.5 82.42 131.16"/><polygon class="cls-3" points="81.16 120.87 43.52 145.16 41.23 143.84 78.88 119.55 81.16 120.87"/><polygon class="cls-2" points="81.23 131.85 81.23 132.63 59.29 119.96 59.29 119.19 81.23 131.85"/><polygon class="cls-2" points="89.67 126.25 88.47 126.94 66.54 114.28 67.73 113.58 89.67 126.25"/><polygon class="cls-2" points="88.47 126.94 88.47 127.72 66.54 115.05 66.54 114.28 88.47 126.94"/><polygon class="cls-2" points="75.38 135.63 74.19 136.32 52.25 123.65 53.45 122.96 75.38 135.63"/><polygon class="cls-2" points="74.19 136.32 74.19 137.1 52.25 124.43 52.25 123.65 74.19 136.32"/><polygon class="cls-2" points="67.73 140.54 66.54 141.23 44.6 128.57 45.8 127.88 67.73 140.54"/><polygon class="cls-2" points="66.54 141.23 66.54 142.01 44.6 129.35 44.6 128.57 66.54 141.23"/><polygon class="cls-2" points="60.3 145.57 59.1 146.26 37.16 133.59 38.36 132.9 60.3 145.57"/><polygon class="cls-2" points="59.1 146.26 59.1 147.04 37.16 134.37 37.16 133.59 59.1 146.26"/><polygon class="cls-2" points="45.28 153.36 63.58 163.88 109.22 134.25 90.92 123.73 45.28 153.36"/><polygon class="cls-2" points="109.22 134.25 63.58 163.88 66.2 158.28 111.84 129.26 109.22 134.25"/><polygon class="cls-2" points="81.16 118.26 43.52 142.55 43.52 144 83.24 118.5 81.16 118.26"/><polygon class="cls-4" points="90.92 127.12 68.23 114.06 68.23 110.68 93.03 124.94 90.92 127.12"/><polygon class="cls-2" points="81.16 118.26 43.52 142.55 41.23 141.23 78.88 116.94 81.16 118.26"/><path class="cls-2" d="M107.85,109.7l4,19.56-45.63,29S63.58,150.4,65,146.57C65.8,144.34,64,139.72,107.85,109.7Z"/><path class="cls-2" d="M107.85,109.7,48.33,75.46c-43.9,30-44.66,35.83-45.62,38C2,115.16,1.4,116.64.27,119.3l3.79,10.35.76.43L.88,119.31,2,116.61c.44-1.1.8-2,1.22-2.92q.07-.16.15-.36c.9-2.2,3.62-8.89,45-37.2l58.44,33.61c-40,27.41-41.53,33.51-42.19,36.13a3.54,3.54,0,0,1-.15.51c-1.33,3.65.73,10.53,1.15,11.86l-2.45,5.4.43.24,2.63-5.6S63.58,150.4,65,146.57C65.8,144.34,64,139.72,107.85,109.7Z"/><polygon class="cls-2" points="4.06 129.65 22.57 140.39 30.36 133.96 4.06 129.65"/><polygon class="cls-2" points="53.27 146.81 45.28 153.36 63.58 163.88 53.27 146.81"/><polygon class="cls-2" points="45.28 153.36 22.57 140.39 30.36 133.96 53.27 146.81 45.28 153.36"/><polygon class="cls-2" points="54.59 79.72 100.96 106.38 101.52 106.06 55.08 79.35 54.59 79.72"/><path class="cls-2" d="M85.77,79.25c1.39.66,1.64,2.48.54,4.07S83.2,85.67,81.8,85s-1.64-2.47-.54-4.07S84.37,78.6,85.77,79.25Z"/><path class="cls-2" d="M84.8,77.63c-.56-.33-1.47,1-2,1.29a.7.7,0,0,0-.43.58V82a.71.71,0,0,0,.43.59,2.27,2.27,0,0,0,2,0,.71.71,0,0,0,.43-.59V77.86C85.23,77.65,85.09,77.79,84.8,77.63Z"/><path class="cls-2" d="M87.49,77.72v-12a.94.94,0,0,0-.47-.58c-1-.57-3.08-.27-4.69.66-1.17.67-1.76,1.5-1.63,2.11l.21,11.93c.08.35.17.58.27.64,1,.57,3.08.27,4.69-.66C87.05,79.17,87.64,78.34,87.49,77.72Z"/><path class="cls-2" d="M87,65.17c1,.56.46,1.77-1.15,2.7s-3.71,1.23-4.69.67-.46-1.78,1.15-2.71S86,64.6,87,65.17Z"/><path class="cls-2" d="M84.8,49.16c-.56-.32-1.47,1-2,1.29a.7.7,0,0,0-.43.58v16.1a.7.7,0,0,0,.43.58,2.21,2.21,0,0,0,2,0,.7.7,0,0,0,.43-.58V49.39C85.23,49.18,85.09,49.32,84.8,49.16Z"/><path class="cls-2" d="M85.19,49.68c.16-.81-.35-1.25-1.13-1a2.88,2.88,0,0,0-1.69,1.95c-.15.81.35,1.25,1.13,1A2.83,2.83,0,0,0,85.19,49.68Z"/><path class="cls-2" d="M85,49.76c.13-.68-.29-1-.94-.82a2.4,2.4,0,0,0-1.41,1.63c-.13.68.29,1,.94.82A2.4,2.4,0,0,0,85,49.76Z"/><circle class="cls-5" cx="89.01" cy="12.29" r="5.9"/><circle class="cls-5" cx="136.79" cy="38.29" r="5.9"/><circle class="cls-5" cx="131.73" cy="9.64" r="5.9"/></g></g></g></svg>