<?xml version="1.0" encoding="utf-8"?>
<!-- Generator: Adobe Illustrator 26.0.1, SVG Export Plug-In . SVG Version: 6.00 Build 0)  -->
<svg version="1.1" id="Layer_1" xmlns="http://www.w3.org/2000/svg" xmlns:xlink="http://www.w3.org/1999/xlink" x="0px" y="0px"
	 viewBox="0 0 260 200" style="enable-background:new 0 0 260 200;" xml:space="preserve">
<style type="text/css">
	.st0{fill:#EEEEEF;stroke:#231916;stroke-width:0.25;stroke-miterlimit:10;}
	.st1{fill:#DD2625;}
</style>
<g id="Layer_2_00000060014251160537814460000012240959918324678551_">
	<g id="Layer_1-2">
		<path class="st0" d="M244.7,100.5l-27.7,16c-2.4,1.6-3.9,4.1-4,7c0,2.6,1.8,3.6,4,2.3l27.7-16c2.4-1.6,3.9-4.2,4-7
			C248.8,100.3,247,99.3,244.7,100.5z"/>
		<path class="st0" d="M244.7,102l-27.7,16c-1.6,1.1-2.6,2.8-2.7,4.8c0,1.8,1.2,2.5,2.7,1.6l27.7-16c1.6-1.1,2.6-2.8,2.8-4.8
			C247.5,101.9,246.3,101.2,244.7,102z"/>
		<path class="st0" d="M219.8,119.6c0-1.8-1.2-2.5-2.7-1.6c-1.6,1.1-2.6,2.8-2.7,4.8c0,1.8,1.2,2.5,2.7,1.6
			C218.7,123.3,219.8,121.5,219.8,119.6z"/>
		<path class="st0" d="M219.1,120c0-1.3-0.9-1.8-2-1.1c-1.2,0.8-1.9,2.1-2,3.5c0,1.3,0.9,1.8,2,1.1C218.3,122.7,219,121.4,219.1,120
			z"/>
		<path class="st0" d="M218.5,120.3c0-0.9-0.6-1.3-1.4-0.8c-0.8,0.6-1.4,1.5-1.4,2.5c0,0.9,0.6,1.3,1.4,0.8
			C217.9,122.3,218.5,121.3,218.5,120.3z"/>
		<path class="st0" d="M226.8,115.6c0-1.8-1.2-2.5-2.7-1.6c-1.6,1.1-2.6,2.8-2.8,4.8c0,1.8,1.2,2.5,2.8,1.6
			C225.7,119.3,226.7,117.5,226.8,115.6z"/>
		<path class="st0" d="M226,116c0-1.3-0.9-1.8-2-1.1c-1.2,0.8-1.9,2.1-2,3.5c0,1.3,0.9,1.8,2,1.1C225.2,118.7,225.9,117.4,226,116z"
			/>
		<path class="st0" d="M225.4,116.3c0-0.9-0.6-1.3-1.4-0.8c-0.8,0.5-1.4,1.5-1.4,2.5c0,0.9,0.6,1.3,1.4,0.8
			C224.9,118.3,225.4,117.4,225.4,116.3z"/>
		<path class="st0" d="M233.7,111.6c0-1.8-1.2-2.5-2.7-1.6c-1.6,1.1-2.6,2.8-2.7,4.8c0,1.8,1.2,2.5,2.7,1.6
			C232.6,115.3,233.6,113.5,233.7,111.6z"/>
		<path class="st0" d="M232.9,112c0-1.3-0.9-1.8-2-1.1c-1.2,0.8-1.9,2-2,3.5c0,1.3,0.9,1.8,2,1.2C232.1,114.7,232.8,113.4,232.9,112
			z"/>
		<path class="st0" d="M232.4,112.4c0-0.9-0.6-1.3-1.4-0.8c-0.8,0.6-1.4,1.5-1.4,2.5c0,0.9,0.6,1.3,1.4,0.8
			C231.8,114.3,232.3,113.4,232.4,112.4z"/>
		<path class="st0" d="M240.6,107.6c0-1.8-1.2-2.5-2.7-1.6c-1.6,1.1-2.6,2.8-2.7,4.8c0,1.8,1.2,2.5,2.7,1.6
			C239.5,111.3,240.5,109.5,240.6,107.6z"/>
		<path class="st0" d="M239.8,108c0-1.3-0.9-1.8-2-1.2c-1.2,0.8-1.9,2-2,3.5c0,1.3,0.9,1.8,2,1.2C239,110.7,239.8,109.4,239.8,108z"
			/>
		<path class="st0" d="M239.3,108.4c0-0.9-0.6-1.3-1.4-0.8c-0.8,0.5-1.4,1.5-1.4,2.5c0,0.9,0.6,1.3,1.4,0.8
			C238.7,110.3,239.2,109.4,239.3,108.4z"/>
		<path class="st0" d="M247.5,103.6c0-1.8-1.2-2.5-2.8-1.6c-1.6,1.1-2.6,2.8-2.7,4.8c0,1.8,1.2,2.5,2.7,1.6
			C246.4,107.3,247.4,105.6,247.5,103.6z"/>
		<path class="st0" d="M246.7,104.1c0-1.3-0.9-1.8-2-1.2c-1.2,0.8-1.9,2.1-2,3.5c0,1.3,0.9,1.8,2,1.1
			C245.9,106.7,246.7,105.5,246.7,104.1z"/>
		<path class="st0" d="M246.2,104.4c0-0.9-0.6-1.3-1.4-0.8c-0.8,0.6-1.4,1.5-1.4,2.5c0,0.9,0.6,1.3,1.4,0.8
			C245.6,106.3,246.1,105.4,246.2,104.4z"/>
		<polygon class="st0" points="246.4,105.7 244.3,107.8 221.7,120.9 217.6,122.3 217.6,120.9 246.4,104.3 		"/>
		<path class="st0" d="M213.1,123.5c0.2-2.8,1.6-5.4,4-7l27.7-16c0.8-0.6,1.8-0.7,2.7-0.3l0,0l-7.5-4.3c-0.9-0.5-2.1-0.5-3,0.2
			l-27.7,16c-2.4,1.6-3.9,4.2-4,7c-0.1,0.9,0.3,1.9,1,2.5l7.9,4.5l0,0C213.4,125.5,212.9,124.5,213.1,123.5z"/>
		<path class="st0" d="M245.3,100.2l-0.3,0.1l-7.8-4.4l0.3-0.1L245.3,100.2z"/>
		<polygon class="st0" points="242,102.1 241.8,102.3 233.9,97.8 234.2,97.7 		"/>
		<polygon class="st0" points="238.7,104 238.5,104.2 230.7,99.7 230.9,99.6 		"/>
		<polygon class="st0" points="235.4,105.9 235.2,106.1 227.4,101.6 227.6,101.5 		"/>
		<polygon class="st0" points="232.1,107.8 231.9,108 224.1,103.5 224.3,103.4 		"/>
		<polygon class="st0" points="228.8,109.7 228.6,109.9 220.8,105.4 221,105.3 		"/>
		<polygon class="st0" points="225.5,111.6 225.3,111.8 217.5,107.3 217.7,107.2 		"/>
		<polygon class="st0" points="222.3,113.5 222,113.7 214.2,109.2 214.4,109.1 		"/>
		<polygon class="st0" points="219,115.4 218.7,115.6 210.9,111.1 211.2,111 		"/>
		<path class="st0" d="M215.9,117.4l-0.2,0.2l-7.8-4.4c0.1-0.1,0.1-0.1,0.2-0.2L215.9,117.4z"/>
		<path class="st0" d="M213.9,120.1l-0.1,0.2l-7.8-4.4c0-0.1,0.1-0.2,0.1-0.2L213.9,120.1z"/>
		<path class="st0" d="M213.1,123.5v0.2l-7.8-4.4v-0.3l7.8,4.4V123.5z"/>
		<path class="st0" d="M230.1,84.4c-0.7-0.4-1.5-0.4-2.3,0c-0.3,0.1-0.4,0.4-0.5,0.7v20.2c0,0.3,0.2,0.5,0.5,0.7
			c0.7,0.4,1.5,0.4,2.3,0c0.3-0.1,0.4-0.4,0.5-0.7V85.1C230.5,84.8,230.3,84.5,230.1,84.4z"/>
		<polygon class="st0" points="246.4,104.3 217.6,120.9 216.7,120.3 245.4,103.7 		"/>
		<polygon class="st0" points="217.6,122.3 216.7,121.7 216.7,120.3 217.6,120.9 		"/>
		<polygon class="st0" points="234.7,111 227,115.5 228.1,113 235.8,108.6 		"/>
		<polygon class="st0" points="235.8,108.6 228.1,113 228.1,107 235.8,102.5 		"/>
		<polygon class="st0" points="235.8,102.5 228.1,107 226,105.7 233.7,101.3 		"/>
		<polygon class="st0" points="227,115.3 226,114.9 226,105.7 228.1,107 228.1,113 		"/>
		<polygon class="st0" points="175.3,131.8 209.2,112.3 210.8,126.1 210,130.1 174.5,150.5 173.7,147.5 		"/>
		<polygon class="st0" points="173.7,147.5 135.9,125.6 137.4,109.9 175.3,131.8 		"/>
		<polygon class="st0" points="173.7,147.5 135.9,125.6 136.6,128.6 174.5,150.5 		"/>
		<polygon class="st0" points="209.2,112.3 175.3,131.8 174.9,135.9 209.6,115.9 		"/>
		<path class="st0" d="M167.5,145.1l-27.7,16c-2.4,1.6-3.9,4.2-4,7c0,2.6,1.8,3.6,4,2.3l27.7-16c2.4-1.6,3.9-4.2,4-7
			C171.6,144.9,169.8,143.8,167.5,145.1z"/>
		<path class="st0" d="M167.5,146.6l-27.7,16c-1.6,1.1-2.6,2.8-2.7,4.8c0,1.8,1.2,2.5,2.7,1.6l27.7-16c1.6-1.1,2.6-2.8,2.7-4.8
			C170.3,146.4,169.1,145.7,167.5,146.6z"/>
		<path class="st0" d="M142.6,164.1c0-1.8-1.2-2.5-2.7-1.6c-1.6,1.1-2.6,2.8-2.7,4.8c0,1.8,1.2,2.5,2.7,1.6
			C141.5,167.8,142.5,166.1,142.6,164.1z"/>
		<path class="st0" d="M141.9,164.6c0-1.3-0.9-1.8-2-1.2c-1.2,0.8-1.9,2-2,3.5c0,1.3,0.9,1.8,2,1.2
			C141.1,167.3,141.8,166,141.9,164.6z"/>
		<path class="st0" d="M141.3,164.9c0-0.9-0.6-1.3-1.4-0.8c-0.8,0.5-1.4,1.5-1.4,2.5c0,0.9,0.6,1.3,1.4,0.8
			C140.7,166.8,141.3,165.9,141.3,164.9z"/>
		<path class="st0" d="M149.6,160.2c0-1.8-1.2-2.5-2.8-1.6c-1.6,1.1-2.6,2.8-2.7,4.8c0,1.8,1.2,2.5,2.7,1.6
			C148.4,163.9,149.4,162.1,149.6,160.2z"/>
		<path class="st0" d="M148.8,160.6c0-1.3-0.9-1.8-2-1.1c-1.2,0.8-1.9,2-2,3.5c0,1.3,0.9,1.8,2,1.1C148,163.3,148.7,162,148.8,160.6
			z"/>
		<path class="st0" d="M148.2,160.9c0-0.9-0.6-1.3-1.4-0.8c-0.8,0.6-1.4,1.5-1.4,2.5c0,0.9,0.6,1.3,1.4,0.8
			C147.6,162.8,148.2,161.9,148.2,160.9z"/>
		<path class="st0" d="M156.5,156.2c0-1.8-1.2-2.5-2.7-1.6c-1.6,1.1-2.6,2.8-2.7,4.8c0,1.8,1.2,2.5,2.7,1.6
			C155.4,159.9,156.4,158.1,156.5,156.2z"/>
		<path class="st0" d="M155.7,156.6c0-1.3-0.9-1.8-2-1.1c-1.2,0.8-1.9,2.1-2,3.5c0,1.3,0.9,1.8,2,1.1
			C154.9,159.3,155.6,158,155.7,156.6z"/>
		<path class="st0" d="M155.2,156.9c0-0.9-0.6-1.3-1.4-0.8c-0.8,0.6-1.4,1.5-1.4,2.5c0,0.9,0.6,1.3,1.4,0.8
			C154.6,158.8,155.1,157.9,155.2,156.9z"/>
		<path class="st0" d="M163.4,152.2c0-1.8-1.2-2.5-2.7-1.6c-1.6,1.1-2.6,2.8-2.8,4.8c0,1.8,1.2,2.5,2.8,1.6
			C162.3,155.9,163.3,154.1,163.4,152.2z"/>
		<path class="st0" d="M162.6,152.6c0-1.3-0.9-1.8-2-1.1c-1.2,0.8-1.9,2-2,3.5c0,1.3,0.9,1.8,2,1.2
			C161.8,155.3,162.5,154,162.6,152.6z"/>
		<path class="st0" d="M162.1,152.9c0-0.9-0.6-1.3-1.4-0.8c-0.8,0.5-1.4,1.5-1.4,2.5c0,0.9,0.6,1.3,1.4,0.8
			C161.5,154.8,162,153.9,162.1,152.9z"/>
		<path class="st0" d="M170.3,148.2c0-1.8-1.2-2.5-2.7-1.6c-1.6,1.1-2.6,2.8-2.8,4.8c0,1.8,1.2,2.5,2.8,1.6
			C169.2,151.9,170.2,150.1,170.3,148.2z"/>
		<path class="st0" d="M169.5,148.6c0-1.3-0.9-1.8-2-1.2c-1.2,0.8-1.9,2-2,3.5c0,1.3,0.9,1.8,2,1.2
			C168.7,151.3,169.5,150,169.5,148.6z"/>
		<path class="st0" d="M169,148.9c0-0.9-0.6-1.3-1.4-0.8c-0.8,0.6-1.4,1.5-1.4,2.5c0,0.9,0.6,1.3,1.4,0.8
			C168.4,150.9,168.9,149.9,169,148.9z"/>
		<polygon class="st0" points="169.1,150.2 167.1,152.4 144.4,165.4 140.4,166.8 140.4,165.4 169.1,148.8 		"/>
		<path class="st0" d="M135.8,168.1c0.2-2.8,1.7-5.4,4-7l27.7-16c0.8-0.6,1.8-0.7,2.7-0.3l0,0l-7.6-4.3c-0.9-0.5-2.1-0.5-3,0.2
			l-27.7,16c-2.3,1.5-3.8,4.1-4,6.9c-0.1,1,0.3,1.9,1,2.5l7.9,4.5l0,0C136.2,170,135.8,169.1,135.8,168.1z"/>
		<path class="st0" d="M168.1,144.8l-0.3,0.1l-7.8-4.4l0.3-0.1L168.1,144.8z"/>
		<polygon class="st0" points="164.8,146.7 164.5,146.8 156.7,142.4 157,142.3 		"/>
		<polygon class="st0" points="161.5,148.6 161.3,148.7 153.4,144.3 153.7,144.2 		"/>
		<polygon class="st0" points="158.2,150.5 158,150.6 150.1,146.2 150.4,146.1 		"/>
		<polygon class="st0" points="154.9,152.4 154.7,152.5 146.9,148.1 147.1,148 		"/>
		<polygon class="st0" points="151.6,154.3 151.4,154.4 143.6,150 143.8,149.9 		"/>
		<polygon class="st0" points="148.3,156.2 148.1,156.3 140.3,151.9 140.5,151.8 		"/>
		<polygon class="st0" points="145.1,158.1 144.8,158.2 137,153.8 137.2,153.7 		"/>
		<polygon class="st0" points="141.8,160 141.5,160.1 133.7,155.7 133.9,155.6 		"/>
		<path class="st0" d="M138.7,162l-0.2,0.2l-7.8-4.4l0.2-0.2L138.7,162z"/>
		<path class="st0" d="M136.7,164.7c0,0.1-0.1,0.1-0.1,0.2l-7.8-4.4c0-0.1,0.1-0.1,0.1-0.2L136.7,164.7z"/>
		<path class="st0" d="M135.8,168.1c0,0.1,0,0.1,0,0.2l-7.8-4.4v-0.3l7.8,4.4C135.8,168,135.8,168.1,135.8,168.1z"/>
		<path class="st0" d="M152.8,129c-0.7-0.4-1.5-0.4-2.3,0c-0.3,0.1-0.4,0.4-0.5,0.7v20.2c0,0.3,0.2,0.5,0.5,0.7
			c0.7,0.4,1.5,0.4,2.3,0c0.3-0.1,0.4-0.4,0.5-0.7v-20.2C153.3,129.3,153.1,129.1,152.8,129z"/>
		<polygon class="st0" points="169.1,148.8 140.4,165.4 139.5,164.8 168.2,148.2 		"/>
		<polygon class="st0" points="140.4,166.8 139.5,166.2 139.5,164.8 140.4,165.4 		"/>
		<polygon class="st0" points="157.5,155.6 149.7,160 150.9,157.6 158.6,153.1 		"/>
		<polygon class="st0" points="158.6,153.1 150.9,157.6 150.9,151.5 158.6,147.1 		"/>
		<polygon class="st0" points="158.6,147.1 150.9,151.5 148.8,150.3 156.5,145.8 		"/>
		<polygon class="st0" points="149.8,159.9 148.8,159.4 148.8,150.3 150.9,151.5 150.9,157.6 		"/>
		<path class="st0" d="M142.8,129.5l-27.6,16c-2.4,1.6-3.9,4.2-4,7c0,2.6,1.8,3.6,4,2.3l27.6-16c2.4-1.5,3.9-4.1,4-7
			C146.9,129.3,145.1,128.2,142.8,129.5z"/>
		<path class="st0" d="M142.8,131.1l-27.6,16c-1.6,1.1-2.6,2.8-2.7,4.8c0,1.8,1.2,2.5,2.7,1.6l27.6-16c1.6-1.1,2.6-2.8,2.8-4.8
			C145.6,130.8,144.3,130.2,142.8,131.1z"/>
		<path class="st0" d="M117.9,148.6c0-1.8-1.2-2.5-2.7-1.6c-1.6,1.1-2.6,2.8-2.7,4.8c0,1.8,1.2,2.5,2.7,1.6
			C116.8,152.3,117.8,150.5,117.9,148.6z"/>
		<path class="st0" d="M117.2,149c0-1.3-0.9-1.8-2-1.1c-1.2,0.8-1.9,2-2,3.5c0,1.3,0.9,1.8,2,1.2C116.3,151.7,117.1,150.4,117.2,149
			z"/>
		<path class="st0" d="M116.6,149.3c0-0.9-0.6-1.3-1.4-0.8c-0.8,0.5-1.4,1.5-1.4,2.5c0,0.9,0.6,1.3,1.4,0.8
			C116,151.3,116.5,150.3,116.6,149.3z"/>
		<path class="st0" d="M124.8,144.6c0-1.8-1.2-2.5-2.7-1.6c-1.6,1.1-2.6,2.8-2.7,4.8c0,1.8,1.2,2.5,2.7,1.6
			C123.7,148.3,124.7,146.5,124.8,144.6z"/>
		<path class="st0" d="M124.1,145c0-1.3-0.9-1.8-2-1.2c-1.2,0.8-1.9,2-2,3.5c0,1.3,0.9,1.8,2,1.2C123.3,147.7,124,146.4,124.1,145z"
			/>
		<path class="st0" d="M123.6,145.3c0-0.9-0.6-1.3-1.4-0.8c-0.8,0.5-1.4,1.5-1.4,2.5c0,0.9,0.6,1.3,1.4,0.8
			C123,147.3,123.5,146.3,123.6,145.3z"/>
		<path class="st0" d="M131.7,140.6c0-1.8-1.2-2.5-2.7-1.6c-1.6,1.1-2.6,2.8-2.7,4.8c0,1.8,1.2,2.5,2.7,1.6
			C130.6,144.3,131.6,142.5,131.7,140.6z"/>
		<path class="st0" d="M131,141c0-1.3-0.9-1.8-2-1.2c-1.2,0.8-1.9,2.1-2,3.5c0,1.3,0.9,1.8,2,1.1C130.2,143.7,130.9,142.4,131,141z"
			/>
		<path class="st0" d="M130.4,141.3c0-0.9-0.6-1.3-1.4-0.8c-0.8,0.6-1.4,1.5-1.4,2.5c0,0.9,0.6,1.3,1.4,0.8
			C129.8,143.3,130.4,142.4,130.4,141.3z"/>
		<path class="st0" d="M138.7,136.6c0-1.8-1.2-2.5-2.7-1.6c-1.6,1.1-2.6,2.8-2.7,4.8c0,1.8,1.2,2.5,2.7,1.6
			C137.6,140.3,138.6,138.5,138.7,136.6z"/>
		<path class="st0" d="M137.9,137c0-1.3-0.9-1.8-2-1.1c-1.2,0.8-1.9,2-2,3.5c0,1.3,0.9,1.8,2,1.1C137.1,139.7,137.8,138.4,137.9,137
			z"/>
		<path class="st0" d="M137.3,137.4c0-0.9-0.6-1.3-1.4-0.8c-0.8,0.6-1.4,1.5-1.4,2.5c0,0.9,0.6,1.3,1.4,0.8
			C136.8,139.3,137.3,138.4,137.3,137.4z"/>
		<path class="st0" d="M145.6,132.6c0-1.8-1.2-2.5-2.8-1.6c-1.6,1.1-2.6,2.8-2.7,4.8c0,1.8,1.2,2.5,2.7,1.6
			C144.4,136.3,145.5,134.5,145.6,132.6z"/>
		<path class="st0" d="M144.8,133c0-1.3-0.9-1.8-2-1.1c-1.2,0.8-1.9,2.1-2,3.5c0,1.3,0.9,1.8,2,1.1C144,135.7,144.7,134.4,144.8,133
			z"/>
		<path class="st0" d="M144.2,133.4c0-0.9-0.6-1.3-1.4-0.8c-0.8,0.6-1.4,1.5-1.4,2.5c0,0.9,0.6,1.3,1.4,0.8
			C143.7,135.3,144.2,134.4,144.2,133.4z"/>
		<polygon class="st0" points="144.4,134.7 142.3,136.8 119.7,149.8 115.7,151.3 115.7,149.9 144.4,133.3 		"/>
		<path class="st0" d="M111.1,152.5c0.2-2.8,1.7-5.4,4-7l27.6-16c0.8-0.6,1.8-0.7,2.7-0.3l0,0l-7.5-4.3c-0.9-0.5-2.1-0.4-3,0.2
			l-27.7,16c-2.4,1.6-3.9,4.2-4,7c-0.1,1,0.3,1.9,1,2.5l7.9,4.5l0,0C111.4,154.5,111,153.5,111.1,152.5z"/>
		<path class="st0" d="M143.4,129.3l-0.3,0.1l-7.9-4.4l0.3-0.1L143.4,129.3z"/>
		<polygon class="st0" points="140.1,131.1 139.8,131.3 132,126.8 132.3,126.7 		"/>
		<polygon class="st0" points="136.8,133 136.5,133.2 128.7,128.7 129,128.6 		"/>
		<polygon class="st0" points="133.5,134.9 133.3,135.1 125.4,130.6 125.7,130.5 		"/>
		<polygon class="st0" points="130.2,136.8 130,137 122.1,132.5 122.4,132.4 		"/>
		<polygon class="st0" points="126.9,138.7 126.7,138.9 118.8,134.4 119.1,134.3 		"/>
		<polygon class="st0" points="123.6,140.6 123.4,140.8 115.6,136.3 115.8,136.2 		"/>
		<polygon class="st0" points="120.3,142.5 120.1,142.7 112.3,138.2 112.5,138.1 		"/>
		<polygon class="st0" points="117,144.4 116.8,144.6 109,140.1 109.2,140 		"/>
		<path class="st0" d="M113.9,146.4l-0.2,0.2l-7.8-4.4l0.2-0.2L113.9,146.4z"/>
		<path class="st0" d="M112,149.1l-0.1,0.2l-7.8-4.4c0-0.1,0.1-0.1,0.1-0.2L112,149.1z"/>
		<path class="st0" d="M111.1,152.5v0.1l-7.8-4.4v-0.3l7.8,4.4V152.5z"/>
		<path class="st0" d="M128.1,113.4c-0.7-0.4-1.5-0.4-2.3,0c-0.3,0.1-0.4,0.4-0.5,0.7v20.2c0,0.3,0.2,0.5,0.5,0.7
			c0.7,0.4,1.5,0.4,2.3,0c0.3-0.1,0.4-0.4,0.5-0.7v-20.2C128.6,113.8,128.4,113.5,128.1,113.4z"/>
		<polygon class="st0" points="144.4,133.3 115.7,149.9 114.8,149.3 143.5,132.7 		"/>
		<polygon class="st0" points="115.7,151.3 114.8,150.6 114.8,149.3 115.7,149.9 		"/>
		<polygon class="st0" points="132.7,140 125,144.5 126.2,142 133.9,137.6 		"/>
		<polygon class="st0" points="133.9,137.6 126.2,142 126.2,136 133.9,131.5 		"/>
		<polygon class="st0" points="133.9,131.5 126.2,136 124.1,134.7 131.8,130.2 		"/>
		<polygon class="st0" points="125.1,144.3 124.1,143.9 124.1,134.7 126.2,136 126.2,142 		"/>
		<polygon class="st0" points="171,59.1 204.7,78.8 207.1,82.7 207,91.1 169.3,74.2 		"/>
		<polygon class="st0" points="203.6,40.1 171,59.1 204.7,78.8 237.6,59.8 		"/>
		<polygon class="st0" points="239.8,64.2 207.1,82.7 204.7,78.8 237.6,59.8 		"/>
		<polygon class="st0" points="239.8,95.5 206.8,114.5 207.1,82.7 239.8,64.2 		"/>
		<polygon class="st0" points="239.8,95.5 251.5,85.6 251.5,57.7 239.8,64.2 		"/>
		<polygon class="st0" points="237.7,59.9 249.4,53.4 251.5,57.7 239.8,64.2 		"/>
		<polygon class="st0" points="220.4,36.5 203.7,40.2 237.7,59.9 249.4,53.4 		"/>
		<polygon class="st0" points="176.8,59.1 176.8,58.1 204.6,74.2 204.6,75.2 		"/>
		<polygon class="st0" points="204.6,74.2 231.8,58.5 231.8,59.5 204.6,75.2 		"/>
		<polygon class="st0" points="176.8,58.1 203.9,42.5 231.8,58.5 204.6,74.2 		"/>
		<polygon class="st0" points="178.7,58.1 203.9,43.5 229.9,58.5 204.6,73.1 		"/>
		<polygon class="st0" points="229.2,58.9 228.5,59.3 228.5,59.3 202.6,44.3 203.2,43.9 		"/>
		<polygon class="st0" points="228,59.7 227.3,60 201.3,45 202,44.7 		"/>
		<polygon class="st0" points="226.7,60.4 226.1,60.7 200.1,45.7 200.8,45.4 		"/>
		<polygon class="st0" points="225.5,61.1 224.9,61.4 198.9,46.4 199.5,46.1 		"/>
		<polygon class="st0" points="224.3,61.8 223.7,62.1 197.7,47.1 198.3,46.8 		"/>
		<polygon class="st0" points="223.1,62.5 222.4,62.8 196.4,47.9 197.1,47.5 		"/>
		<polygon class="st0" points="221.9,63.2 221.2,63.6 195.2,48.6 195.9,48.2 		"/>
		<polygon class="st0" points="220.6,63.9 220,64.3 194,49.3 194.7,48.9 		"/>
		<polygon class="st0" points="219.4,64.6 218.8,65 192.8,50 193.4,49.6 		"/>
		<polygon class="st0" points="218.2,65.3 217.6,65.7 191.6,50.7 192.2,50.3 		"/>
		<polygon class="st0" points="217,66 216.3,66.4 190.3,51.4 191,51 		"/>
		<polygon class="st0" points="215.8,66.7 215.1,67.1 189.1,52.1 189.8,51.7 		"/>
		<polygon class="st0" points="214.5,67.4 213.9,67.8 187.9,52.8 188.5,52.4 		"/>
		<polygon class="st0" points="213.3,68.1 212.7,68.5 186.7,53.5 187.3,53.1 		"/>
		<polygon class="st0" points="212.1,68.8 211.4,69.2 185.4,54.2 186.1,53.8 		"/>
		<polygon class="st0" points="210.9,69.5 210.2,69.9 184.2,54.9 184.9,54.5 		"/>
		<polygon class="st0" points="209.6,70.2 209,70.6 183,55.6 183.7,55.2 		"/>
		<polygon class="st0" points="208.4,70.9 207.8,71.3 181.8,56.3 182.4,55.9 		"/>
		<polygon class="st0" points="207.2,71.6 206.5,72 180.6,57 181.2,56.6 		"/>
		<polygon class="st0" points="206,72.4 205.3,72.7 179.3,57.7 180,57.4 		"/>
		<polygon class="st0" points="135.2,151.4 104.1,133 100.6,124.8 131.8,143.2 		"/>
		<polygon class="st0" points="131.8,143.2 100.6,124.8 100.6,106.8 131.8,125.2 		"/>
		<polygon class="st0" points="181.8,97.8 154.5,82.1 151.1,84 178.4,99.8 		"/>
		<polygon class="st0" points="201.3,90.9 186.8,99.3 148.8,77.4 163.3,69 		"/>
		<polygon class="st0" points="201.3,95.6 207,92.3 207,82.5 205.6,81.8 201.3,84.3 		"/>
		<polygon class="st0" points="203.9,89.4 203.9,94 189.3,102.4 186.8,99.3 		"/>
		<polygon class="st0" points="203.9,94 202.3,95 202.3,90.3 203.9,89.4 		"/>
		<polygon class="st0" points="145.6,67.9 143.1,69.4 140.9,68.3 143.4,66.8 		"/>
		<polygon class="st0" points="143.1,74.3 143.1,69.4 140.9,68.3 140.9,73.2 		"/>
		<polygon class="st0" points="143.1,74.3 150.4,83.4 148.2,82.2 140.9,73.2 		"/>
		<polygon class="st0" points="145.6,67.9 145.6,72 153.5,81.5 150.4,83.4 143.1,74.3 143.1,69.4 		"/>
		<polygon class="st0" points="143.1,52.8 143.1,68.9 141.8,68.2 141.8,52 		"/>
		<polygon class="st0" points="144.4,52 143.1,52.8 143.1,68.9 144.4,68.2 		"/>
		<polygon class="st0" points="206.1,82.1 201.3,84.3 163.3,62.4 167.7,59.9 		"/>
		<polygon class="st0" points="201.3,90.9 201.3,84.3 163.3,62.4 163.3,69 		"/>
		<polygon class="st0" points="207.9,54.8 203.1,82.1 201.8,81.4 206.6,54.1 		"/>
		<polygon class="st0" points="209.2,54.1 207.9,54.8 203.1,82.1 204.4,81.4 		"/>
		<path class="st0" d="M193.3,94.7L193.3,94.7c-0.2,0-0.3-0.2-0.3-0.3c0,0,0,0,0,0l0.9-9.1c0.2-1.3,0.9-2.4,2-3.1l2.5-1.4
			c0.4-0.3,0.9-0.3,1.4-0.1c0.4,0.3,0.6,0.9,0.5,1.4l-0.9,9.1c0,0.2-0.1,0.3-0.3,0.3c-0.2,0-0.3-0.1-0.3-0.3c0,0,0-0.1,0-0.1
			l0.9-9.1c0-0.4,0-0.7-0.2-0.8c-0.2-0.1-0.4-0.1-0.7,0.1l-2.5,1.4c-0.9,0.6-1.5,1.6-1.6,2.6l-0.9,9.1
			C193.6,94.6,193.5,94.8,193.3,94.7C193.3,94.7,193.3,94.7,193.3,94.7z"/>
		<path class="st0" d="M184.9,94.9c-0.2,0-0.4-0.1-0.6-0.2c-0.4-0.3-0.7-0.8-0.6-1.3v-0.7c0.1-1.2,0.7-2.4,1.8-3l8.5-4.9
			c0.2-0.1,0.4,0,0.4,0.1c0.1,0.2,0,0.4-0.1,0.4l0,0l-8.5,4.9c-0.8,0.6-1.4,1.5-1.4,2.5v0.7c0,0.3,0.1,0.6,0.3,0.7
			c0.3,0.1,0.6,0.1,0.8-0.1l8.1-4.7c0.1-0.1,0.3-0.1,0.5,0.1c0.1,0.1,0.1,0.3-0.1,0.5c0,0,0,0-0.1,0l-8.1,4.7
			C185.6,94.8,185.2,94.9,184.9,94.9z"/>
		<path class="st0" d="M157.8,74.6L157.8,74.6c-0.2,0-0.3-0.2-0.3-0.4l0.9-9.1c0.2-1.3,0.9-2.4,1.9-3.1l2.4-1.4
			c0.4-0.3,0.9-0.3,1.4-0.1c0.4,0.3,0.6,0.9,0.5,1.4l-0.9,9.1c0,0.2-0.2,0.3-0.4,0.3s-0.3-0.2-0.3-0.4l0.9-9.1
			c0.1-0.3,0-0.6-0.2-0.8c-0.2-0.1-0.5,0-0.7,0.1l-2.5,1.4c-0.9,0.6-1.5,1.6-1.6,2.6l-0.9,9.1C158.1,74.4,157.9,74.6,157.8,74.6z"/>
		<path class="st0" d="M149.4,74.8c-0.2,0-0.4,0-0.6-0.2c-0.4-0.3-0.7-0.8-0.6-1.3v-0.6c0.1-1.2,0.7-2.4,1.8-3l8.5-4.9
			c0.1-0.1,0.3-0.1,0.5,0.1c0.1,0.1,0.1,0.3-0.1,0.5c0,0,0,0-0.1,0l-8.5,4.9c-0.8,0.6-1.4,1.5-1.4,2.5v0.6c0,0.3,0.1,0.6,0.3,0.7
			c0.3,0.1,0.6,0.1,0.8-0.1l8.1-4.7c0.1-0.1,0.3-0.1,0.5,0.1c0.1,0.1,0.1,0.3-0.1,0.5c0,0,0,0-0.1,0l-8.1,4.7
			C150,74.7,149.7,74.7,149.4,74.8z"/>
		<path class="st0" d="M162.6,76.2c-0.7-0.4-1.4-0.7-1.9-0.3c-1.1,0.9-5.8,4.4-5.8,4.4l0.1,1.6l7,4l-0.1-1.6c0,0,4.5-3.6,5.8-4.4
			c0.2-0.1,0.4-0.2,0.6-0.1L162.6,76.2z"/>
		<path class="st0" d="M161,84.9l-0.6-9.7c0,0,1-0.9,1.5-0.2s1.2,5.4,1.4,6.3C163.4,82.2,163,83.4,161,84.9z"/>
		<path class="st0" d="M162,86l-0.1-1.6c0,0,4.5-3.6,5.8-4.4c1.3-0.7,1.4,1.8,1.4,1.9S162,86,162,86z"/>
		<path class="st0" d="M159.3,73.6l0.5-3.4c0,0,1.7-0.8,1.3,1.1C161.1,72.3,160.3,73.2,159.3,73.6z"/>
		<path class="st0" d="M161.6,74.8L161.6,74.8l-5.6-3.4c-0.5-0.4-1.3,0.4-1.3,0.4l-0.7,9.1l7,4l-0.6-9.7
			C160.4,75.2,161,74.6,161.6,74.8z"/>
		<path class="st0" d="M160.8,70L160.8,70l-2.6-1.5c-0.4-0.3-1.1,0.1-1.1,0.1l-0.5,3.4l2.7,1.6l0.5-3.4
			C160.1,70,160.4,69.9,160.8,70z"/>
		<path class="st0" d="M175.1,83.2c-0.7-0.4-1.4-0.7-1.9-0.3c-1.1,0.9-5.8,4.4-5.8,4.4l0.1,1.6l7,4l-0.1-1.6c0,0,4.5-3.6,5.8-4.4
			c0.2-0.1,0.4-0.2,0.6-0.1L175.1,83.2z"/>
		<path class="st0" d="M173.5,91.9l-0.6-9.6c0,0,1-0.9,1.5-0.2c0.5,0.7,1.2,5.4,1.4,6.3S175.5,90.4,173.5,91.9z"/>
		<path class="st0" d="M174.6,93l-0.1-1.6c0,0,4.5-3.6,5.8-4.4c1.3-0.8,1.4,1.8,1.4,1.9S174.6,93,174.6,93z"/>
		<path class="st0" d="M171.8,80.6l0.5-3.4c0,0,1.7-0.8,1.4,1.1C173.6,79.3,172.9,80.2,171.8,80.6z"/>
		<path class="st0" d="M174.1,81.8L174.1,81.8l-5.7-3.4c-0.5-0.4-1.3,0.4-1.3,0.4l-0.7,9.1l7,4l-0.6-9.6
			C172.9,82.3,173.6,81.6,174.1,81.8z"/>
		<path class="st0" d="M173.3,77L173.3,77l-2.6-1.5c-0.4-0.3-1.1,0.1-1.1,0.1l-0.5,3.4l2.7,1.6l0.5-3.4C172.6,77,173,76.9,173.3,77z
			"/>
		<polygon class="st0" points="185.4,102.5 151.7,82.7 144.4,73.7 178,93.4 		"/>
		<polygon class="st0" points="181.4,88.8 178.9,90.3 176.7,89.1 179.2,87.7 		"/>
		<polygon class="st0" points="178.9,95.2 178.9,90.3 176.7,89.1 176.7,94.1 		"/>
		<polygon class="st0" points="178.9,95.2 186.3,104.2 184.1,103.1 176.7,94.1 		"/>
		<polygon class="st0" points="181.4,88.8 181.4,92.8 189.3,102.4 186.3,104.2 178.9,95.2 178.9,90.3 		"/>
		<polygon class="st0" points="178.9,73.5 178.9,89.7 177.7,88.9 177.7,72.8 		"/>
		<polygon class="st0" points="180.2,72.8 178.9,73.5 178.9,89.7 180.2,88.9 		"/>
		<polygon class="st0" points="137.9,48.9 142.5,49.7 173.5,67.6 177.7,71.9 177.7,74.7 137.9,51.8 		"/>
		<polygon class="st0" points="207.9,47.8 173.5,67.6 142.5,49.7 176.9,29.8 		"/>
		<polygon class="st0" points="207.9,47.8 173.5,67.6 177.7,71.9 212,52 		"/>
		<polygon class="st0" points="212,54.9 177.7,74.7 177.7,71.9 212,52 		"/>
		<polygon class="st0" points="172.3,29.1 137.9,48.9 142.5,49.7 176.9,29.8 		"/>
		<polygon class="st0" points="177.8,95.4 132.2,120.8 101.7,103.1 141.1,74.2 		"/>
		<path class="st0" d="M145.3,108.5L145.3,108.5l-24.3-14.1l20.4-14.9l27.4,15.8L145.3,108.5z M121.7,94.4l23.7,13.7l22.8-12.7
			l-26.7-15.4L121.7,94.4z"/>
		<polygon class="st0" points="177.8,95.4 132.2,120.8 131.8,125.2 181.3,98.1 		"/>
		<polygon class="st0" points="131.8,125.2 132.2,120.8 101.7,103.1 100.6,106.8 		"/>
		<polygon class="st0" points="176.7,121.8 206.9,104.4 207,92.3 186.3,104.2 181.3,98.1 131.8,125.2 131.8,143.2 		"/>
		<polygon class="st0" points="206.9,104.4 176.7,121.8 131.8,143.2 135.3,151.4 179,130.5 206.8,114.5 		"/>
		<path class="st0" d="M251.7,72.7c0,0-29.1,10.6-36.8,14.1c-8.3,3.8-10.1,9.9-10.1,9.9l-13.6,34.5c-0.6,1.4-0.9,2.8-0.9,4.3
			c0,4.3,3,6.1,6.7,3.9c2.5-1.6,4.4-3.9,5.5-6.6l9.3-19.4L251,90.8c1.1-0.8,1.8-2,1.8-3.3V74.2C252.9,72.6,251.7,72.7,251.7,72.7z"
			/>
		<path class="st0" d="M214.9,86.8c-8.3,3.8-10.1,9.9-10.1,9.9l-13.6,34.5c-0.6,1.4-0.9,2.8-0.9,4.3c0,4.3,3,6.1,6.7,3.9
			c2.5-1.6,4.4-3.9,5.5-6.6l9.3-19.4l15.5-31.8C222.1,83.8,217.4,85.7,214.9,86.8z"/>
		<path class="st0" d="M204.2,123.6c0,0.1,0,0.1,0,0.2c0,0.5-0.3,1-0.8,1.3l-9.3,5.4c-0.2,0.1-0.3,0.1-0.5,0.1
			c0.1,0.3,0.4,0.4,0.8,0.1l9.3-5.4c0.5-0.3,0.8-0.7,0.8-1.3C204.5,123.9,204.4,123.7,204.2,123.6z"/>
		<path class="st0" d="M203.5,125.1c0.5-0.3,0.7-0.7,0.8-1.3c0-0.1,0-0.1,0-0.2c-0.2,0-0.4,0-0.5,0.1l-9.3,5.4
			c-0.5,0.3-0.8,0.7-0.8,1.3c0,0.1,0,0.1,0,0.2c0.2,0,0.4,0,0.5-0.1L203.5,125.1z"/>
		<path class="st0" d="M206.2,118.9c0,0.1,0,0.1,0,0.2c-0.1,0.5-0.3,1-0.8,1.3l-9.3,5.4c-0.2,0.1-0.3,0.1-0.5,0.1
			c0.1,0.3,0.4,0.4,0.8,0.1l9.3-5.4c0.5-0.3,0.7-0.7,0.8-1.3C206.5,119.1,206.4,118.9,206.2,118.9z"/>
		<path class="st0" d="M205.4,120.3c0.4-0.3,0.7-0.7,0.8-1.3c0-0.1,0-0.1,0-0.2c-0.2,0-0.4,0-0.5,0.1l-9.3,5.4
			c-0.5,0.3-0.8,0.7-0.8,1.3c0,0.1,0,0.1,0,0.2c0.2,0,0.4,0,0.5-0.1L205.4,120.3z"/>
		<path class="st0" d="M208.2,114.3c0,0.1,0,0.1,0,0.2c-0.1,0.5-0.3,1-0.8,1.3l-9.3,5.4c-0.2,0.1-0.3,0.1-0.5,0.1
			c0.1,0.3,0.4,0.4,0.8,0.2l9.3-5.4c0.5-0.3,0.8-0.7,0.9-1.2C208.5,114.6,208.4,114.4,208.2,114.3z"/>
		<path class="st0" d="M207.4,115.8c0.4-0.3,0.7-0.7,0.8-1.3c0-0.1,0-0.1,0-0.2c-0.2,0-0.4,0-0.5,0.1l-9.3,5.4
			c-0.5,0.3-0.7,0.7-0.8,1.3c0,0.1,0,0.1,0,0.2c0.2,0,0.4,0,0.5-0.1L207.4,115.8z"/>
		<path class="st0" d="M215.9,105.4l-4,8.2l39.2-22.7c1.1-0.8,1.8-2,1.8-3.3V84L215.9,105.4z"/>
		<path class="st0" d="M216.5,105l-0.6,0.3l-4,8.2l0.6-0.3L216.5,105z"/>
		<polygon class="st0" points="250.1,75.7 239.9,81.6 239.9,81.1 250.1,75.2 		"/>
		<polygon class="st0" points="250.1,75.7 239.9,81.6 239.9,81.8 250.1,75.9 		"/>
		<polygon class="st0" points="250.1,76.7 239.9,82.6 239.9,82 250.1,76.1 		"/>
		<polygon class="st0" points="250.1,76.7 239.9,82.6 239.9,82.8 250.1,76.9 		"/>
		<polygon class="st0" points="250.1,77.7 239.9,83.6 239.9,83 250.1,77.1 		"/>
		<polygon class="st0" points="250.1,77.7 239.9,83.6 239.9,83.8 250.1,77.9 		"/>
		<polygon class="st0" points="250.1,78.7 239.9,84.6 239.9,84 250.1,78.1 		"/>
		<polygon class="st0" points="250.1,78.7 239.9,84.6 239.9,84.8 250.1,78.9 		"/>
		<polygon class="st0" points="250.1,79.6 239.9,85.6 239.9,85 250.1,79.1 		"/>
		<polygon class="st0" points="250.1,79.6 239.9,85.6 239.9,85.8 250.1,79.9 		"/>
		<polygon class="st0" points="250.1,80.6 239.9,86.5 239.9,86 250.1,80.1 		"/>
		<polygon class="st0" points="250.1,80.6 239.9,86.5 239.9,86.7 250.1,80.8 		"/>
		<polygon class="st0" points="250.1,81.6 239.9,87.5 239.9,86.9 250.1,81 		"/>
		<polygon class="st0" points="250.1,81.6 239.9,87.5 239.9,87.7 250.1,81.8 		"/>
		<polygon class="st0" points="250.1,82.6 239.9,88.5 239.9,87.9 250.1,82 		"/>
		<polygon class="st0" points="250.1,82.6 239.9,88.5 239.9,88.7 250.1,82.8 		"/>
		<polygon class="st0" points="250.1,83.6 239.9,89.5 239.9,88.9 250.1,83 		"/>
		<polygon class="st0" points="250.1,83.6 239.9,89.5 239.9,89.7 250.1,83.8 		"/>
		<path class="st0" d="M190.3,135.6c0-1.5,0.3-2.9,0.9-4.3l13.6-34.5c0,0,1.8-6.2,10.1-9.9c7.7-3.5,36.8-14.1,36.8-14.1
			c0.2,0,0.3,0,0.5,0.1l0,0l-3.8-2.3c-0.2-0.1-0.4-0.1-0.6-0.1c0,0-29.1,10.6-36.8,14.1c-8.3,3.8-10.1,9.9-10.1,9.9L187.2,129
			c-0.5,1.4-0.8,2.8-0.9,4.3c0,2.2,0.8,3.7,2.1,4.4l3.8,2.2C191,139.2,190.3,137.7,190.3,135.6z"/>
		<path class="st0" d="M223.3,79.4c-5.2,2-9.9,3.9-12.5,5c-8.3,3.8-10.1,9.9-10.1,9.9l-13.6,34.5c-0.5,1.4-0.8,2.8-0.9,4.3
			c0,2.2,0.8,3.7,2.1,4.4l3.8,2.2c-1.1-0.7-1.9-2.2-1.9-4.3c0-1.5,0.3-2.9,0.9-4.3l13.6-34.5c0,0,1.8-6.2,10.1-9.9
			c2.5-1.1,7.2-3,12.5-5L223.3,79.4z"/>
		<polygon class="st0" points="13.6,124.4 14.6,124 16,113.6 15,114 		"/>
		<path class="st0" d="M17.5,123.5l24.6-8.1c0,0,6.7-4.2,10-3.9s9.3,1,9.3,1l-3,7.9c-3.9-2.3-13.2,0-13.2,0l-28,9.6
			c-1.5,0.8-2.7,0-2.6-1.8C14.8,126.3,15.9,124.5,17.5,123.5z"/>
		<path class="st0" d="M74.3,124.1c-5.4-1.7-10.9-3.1-16.5-4.2l2.6-7.5c4.6,0.9,9.7,2.4,14.9,3.9c10.3,3,39.4,9.7,45.7,11.1
			l-0.9,7.2C114,133.3,84.7,127.1,74.3,124.1z"/>
		<polygon class="st0" points="32.9,124.6 34,124.2 35.4,113.8 34.4,114.2 		"/>
		<polygon class="st0" points="43,121.6 44,121.2 45.5,110.7 44.5,111.1 		"/>
		<polygon class="st0" points="51.5,120.1 52.4,120.2 56.3,109.3 55.4,109.2 		"/>
		<polygon class="st0" points="23.2,127.5 24.2,127.2 25.7,116.7 24.6,117.1 		"/>
		<path class="st0" d="M14.7,128.2c0.2-1.9,1.2-3.6,2.8-4.6l24.6-8.1c0,0,6.2-2.6,9.5-2.3c0.6,0.1,1.6-0.7,2.3-0.7l0.7-2
			c0,0-5.7-0.6-9-0.9c-3.3-0.3-11.1,1.3-11.1,1.3L10,118.9c-1.6,1-2.7,2.7-2.8,4.6c-0.1,0.8,0.2,1.5,0.8,1.9l7.4,4.5l0,0
			C14.8,129.6,14.6,128.9,14.7,128.2z"/>
		<path class="st0" d="M15.6,127.6c0,1.2,0.7,1.7,1.7,1.2c1.1-0.7,1.8-1.8,1.9-3c0-1.2-0.7-1.7-1.7-1.2
			C16.4,125.2,15.7,126.4,15.6,127.6z"/>
		<path class="st0" d="M121.9,135.2c-10.7-2.5-36.8-8.4-46.3-11.1c-10.8-3.2-21.2-6.8-28-4.6S20.2,128,20.2,128l-0.2,1.4
			c3.6-1.2,20.7-6.4,26.8-8.3c6.8-2.2,17.2,1.4,28,4.6c9.8,2.9,36.5,9,46.3,11.3L121.9,135.2z"/>
		<polygon class="st0" points="12.2,112.8 9.1,115.7 17.6,112.7 		"/>
		<path class="st0" d="M50.7,109.9c6.9-2.2,17.2,0.9,28.1,4c9.3,2.7,33.6,8.4,43.1,10.6l-11-6.5c-9.5-2.2-33.8-7.8-43.1-10.5
			c-10.8-3.2-21.3-6.2-28.1-4c-6.9,2.2-27.6,9.4-27.6,9.4l11,6.5C23.2,119.3,43.9,112.1,50.7,109.9z"/>
		<path class="st0" d="M121.9,124.5c-9.5-2.2-33.8-7.8-43.1-10.6c-10.8-3.2-21.3-6.2-28.1-4c-6.9,2.2-27.6,9.4-27.6,9.4l1.5,5.3
			c0,0,20.7-7.2,27.6-9.4s17.2,0.9,28.1,4c9.6,2.8,35.4,8.8,44.1,10.8L121.9,124.5z"/>
		<polygon class="st0" points="129.3,116.4 129.3,117 108,104.7 108,104.1 		"/>
		<polygon class="st0" points="136.9,112.6 129.3,117 129.3,116.4 136.9,112 		"/>
		<polygon class="st0" points="136.9,112 129.3,116.4 108,104.1 115.6,99.7 		"/>
		<path class="st0" d="M112.7,105v-2c0-0.7,0.4-1.4,1-1.8c0.6-0.3,1-0.1,1,0.6v2L112.7,105z"/>
		<path class="st0" d="M113.8,101.2c0.2-0.2,0.5-0.2,0.7-0.1l-0.8-0.5c-0.2-0.1-0.5-0.1-0.7,0.1c-0.6,0.4-1,1.1-1,1.8v2l0.8,0.5v-2
			C112.8,102.3,113.2,101.6,113.8,101.2z"/>
		<path class="st0" d="M116.5,102.9l-2.2-1.3c-0.2-0.1-0.4-0.1-0.6,0.1c-0.5,0.3-0.7,0.8-0.8,1.3c0,0.2,0.1,0.4,0.2,0.5l2.2,1.3
			c0.2,0.1,0.4,0.1,0.6-0.1c0.5-0.3,0.7-0.8,0.8-1.3C116.8,103.3,116.7,103.1,116.5,102.9z"/>
		<path class="st0" d="M115.6,106.7v-1.9c0-0.7,0.4-1.4,1-1.8c0.6-0.3,1-0.1,1,0.6v2L115.6,106.7z"/>
		<path class="st0" d="M116.1,104.4c0-0.4,0.2-0.7,0.6-1c0.3-0.2,0.6,0,0.6,0.3c0,0.4-0.2,0.7-0.6,0.9
			C116.3,104.9,116.1,104.8,116.1,104.4z"/>
		<path class="st0" d="M116.6,102.9c0.2-0.2,0.5-0.2,0.7-0.1l-0.8-0.5c-0.2-0.1-0.5-0.1-0.7,0.1c-0.6,0.4-1,1.1-1,1.8v2l0.8,0.5v-2
			C115.6,104,116,103.3,116.6,102.9z"/>
		<path class="st0" d="M126.3,113.2v-2c0-0.7,0.4-1.4,1-1.8c0.6-0.3,1-0.1,1,0.6v2L126.3,113.2z"/>
		<path class="st0" d="M127.4,109.4c0.2-0.1,0.5-0.1,0.7,0l-0.8-0.5c-0.2-0.1-0.5-0.1-0.7,0.1c-0.6,0.4-1,1.1-1,1.8v2l0.8,0.5v-2
			C126.3,110.5,126.7,109.8,127.4,109.4z"/>
		<path class="st0" d="M130.1,111.1l-2.2-1.3c-0.2-0.1-0.4-0.1-0.5,0.1c-0.5,0.3-0.7,0.8-0.8,1.3c0,0.2,0.1,0.4,0.2,0.5l2.2,1.2
			c0.2,0.1,0.4,0.1,0.5-0.1c0.5-0.3,0.8-0.8,0.8-1.3C130.3,111.4,130.2,111.2,130.1,111.1z"/>
		<path class="st0" d="M129.2,114.9v-2c0-0.7,0.4-1.4,1-1.8c0.6-0.3,1-0.1,1,0.6v2L129.2,114.9z"/>
		<path class="st0" d="M129.7,112.6c0-0.4,0.2-0.7,0.6-0.9c0.3-0.2,0.6,0,0.6,0.3c0,0.4-0.2,0.7-0.6,0.9
			C129.9,113.1,129.7,113,129.7,112.6z"/>
		<path class="st0" d="M130.2,111.1c0.2-0.2,0.5-0.2,0.7-0.1l-0.8-0.5c-0.2-0.1-0.5-0.1-0.7,0.1c-0.6,0.4-1,1.1-1,1.8v2l0.8,0.5v-2
			C129.2,112.1,129.6,111.5,130.2,111.1z"/>
		<polygon class="st0" points="103.4,110.1 102.7,111.7 127.7,112 128,110.6 		"/>
		<polygon class="st0" points="67.8,110.6 69.5,111.3 102.8,111.4 103.2,110.6 		"/>
		<polygon class="st0" points="91.4,103 90.7,104.5 114.1,103.8 115,102.1 		"/>
		<polygon class="st0" points="58,104.7 57.5,105.6 90.9,104.2 91.2,103.4 		"/>
		<path class="st0" d="M52,103.4l11.5,6.6c2,0.4,4,0.8,6.1,1.4L58,104.7C56,104.2,54,103.7,52,103.4z"/>
		<path class="st0" d="M188,95.8l-2.2-1.2c-0.4-0.3-1-0.3-1.5-0.1c-0.4,0.3-0.7,0.8-0.6,1.3v7.1l0,0v37.9h0.6v-12.6l4.6,2.7v13.6
			h0.7l0.1-45.5C189.7,97.7,189.1,96.5,188,95.8z M184.7,95.1c0.3-0.1,0.6-0.1,0.8,0.1l2.2,1.2c0.8,0.6,1.4,1.5,1.4,2.5v12.3
			l-4.7-2.7v-5.7h-0.1v-7C184.4,95.5,184.5,95.2,184.7,95.1L184.7,95.1z M184.4,127.4v-18.2l4.7,2.7v18.2L184.4,127.4z"/>
		<polygon class="st0" points="176.2,116.1 184.4,111.4 184.1,110.8 176.2,115.4 176.2,106.4 176.2,106.4 184.4,101.7 184.1,101.1 
			175.9,105.8 176,106.1 175.5,106.1 175.5,144.2 176.2,144.2 176.2,135.6 176.2,135.6 184.4,130.8 184.1,130.3 176.2,134.8 
			176.2,125.8 176.2,125.8 184.4,121.1 184.1,120.5 176.2,125.1 176.2,116.1 		"/>
		<path class="st0" d="M179.8,99.1l-2.2-1.2c-0.4-0.3-1-0.3-1.5-0.1c-0.4,0.3-0.7,0.8-0.6,1.3v7.1l0,0v37.9h0.6v-12.6l4.6,2.7v13.6
			h0.7l0.1-45.6C181.5,100.9,180.8,99.8,179.8,99.1z M176.5,98.3c0.3-0.1,0.6-0.1,0.8,0.1l2.2,1.2c0.8,0.6,1.4,1.5,1.4,2.5v12.3
			l-4.7-2.7v-5.7l0,0v-7C176.2,98.8,176.3,98.5,176.5,98.3z M176.2,130.7v-18.2l4.7,2.7v18.2L176.2,130.7z"/>
		<circle class="st1" cx="153.9" cy="37.8" r="5.6"/>
		<circle class="st1" cx="197.6" cy="60.8" r="5.6"/>
		<circle class="st1" cx="235.4" cy="46.2" r="5.6"/>
	</g>
</g>
</svg>
