<svg xmlns="http://www.w3.org/2000/svg" viewBox="0 0 272.26 157.26"><defs><style>.cls-1{fill:#eeeeef;stroke:#231916;stroke-miterlimit:10;stroke-width:0.25px;}.cls-2{fill:#dd2625;}</style></defs><g id="Layer_2" data-name="Layer 2"><g id="Layer_1-2" data-name="Layer 1"><path class="cls-1" d="M263.13,79.22,232.52,96.9a9.86,9.86,0,0,0-4.46,7.73c0,2.85,2,4,4.46,2.58l30.61-17.67a9.87,9.87,0,0,0,4.47-7.74C267.6,79,265.6,77.8,263.13,79.22Z"/><path class="cls-1" d="M263.13,80.87,232.52,98.54a6.75,6.75,0,0,0-3,5.27c0,1.94,1.37,2.73,3,1.76L263.13,87.9a6.73,6.73,0,0,0,3.05-5.27C266.18,80.69,264.81,79.9,263.13,80.87Z"/><path class="cls-1" d="M235.57,100.3c0-1.94-1.36-2.73-3-1.76a6.75,6.75,0,0,0-3,5.27c0,1.94,1.37,2.73,3,1.76A6.71,6.71,0,0,0,235.57,100.3Z"/><path class="cls-1" d="M234.73,100.78c0-1.41-1-2-2.21-1.27a4.88,4.88,0,0,0-2.2,3.82c0,1.41,1,2,2.2,1.27A4.86,4.86,0,0,0,234.73,100.78Z"/><path class="cls-1" d="M234.11,101.14c0-1-.71-1.42-1.59-.91a3.5,3.5,0,0,0-1.58,2.74c0,1,.71,1.41,1.58.91A3.48,3.48,0,0,0,234.11,101.14Z"/><path class="cls-1" d="M243.22,95.88c0-1.94-1.36-2.73-3-1.76a6.73,6.73,0,0,0-3.05,5.27c0,1.94,1.37,2.73,3.05,1.76A6.72,6.72,0,0,0,243.22,95.88Z"/><path class="cls-1" d="M242.38,96.36c0-1.4-1-2-2.2-1.27A4.86,4.86,0,0,0,238,98.91c0,1.41,1,2,2.21,1.27A4.85,4.85,0,0,0,242.38,96.36Z"/><path class="cls-1" d="M241.76,96.72c0-1-.71-1.41-1.58-.91a3.47,3.47,0,0,0-1.58,2.74c0,1,.7,1.42,1.58.91A3.5,3.5,0,0,0,241.76,96.72Z"/><path class="cls-1" d="M250.87,91.46c0-1.94-1.36-2.73-3-1.76a6.72,6.72,0,0,0-3,5.27c0,2,1.36,2.73,3,1.76A6.72,6.72,0,0,0,250.87,91.46Z"/><path class="cls-1" d="M250,91.94c0-1.4-1-2-2.21-1.27a4.88,4.88,0,0,0-2.21,3.82c0,1.41,1,2,2.21,1.28A4.9,4.9,0,0,0,250,91.94Z"/><path class="cls-1" d="M249.41,92.31c0-1-.71-1.42-1.58-.92a3.51,3.51,0,0,0-1.58,2.74c0,1,.71,1.42,1.58.91A3.49,3.49,0,0,0,249.41,92.31Z"/><path class="cls-1" d="M258.52,87c0-1.94-1.36-2.72-3-1.75a6.72,6.72,0,0,0-3,5.27c0,1.94,1.36,2.72,3,1.75A6.72,6.72,0,0,0,258.52,87Z"/><path class="cls-1" d="M257.69,87.53c0-1.41-1-2-2.21-1.28a4.89,4.89,0,0,0-2.21,3.82c0,1.41,1,2,2.21,1.28A4.89,4.89,0,0,0,257.69,87.53Z"/><path class="cls-1" d="M257.06,87.89c0-1-.71-1.42-1.58-.91a3.49,3.49,0,0,0-1.58,2.73c0,1,.71,1.42,1.58.92A3.51,3.51,0,0,0,257.06,87.89Z"/><path class="cls-1" d="M266.18,82.63c0-1.94-1.37-2.73-3.05-1.76a6.72,6.72,0,0,0-3,5.27c0,1.94,1.36,2.73,3,1.76A6.73,6.73,0,0,0,266.18,82.63Z"/><path class="cls-1" d="M265.34,83.11c0-1.41-1-2-2.21-1.28a4.91,4.91,0,0,0-2.2,3.83c0,1.4,1,2,2.2,1.27A4.86,4.86,0,0,0,265.34,83.11Z"/><path class="cls-1" d="M264.71,83.47c0-1-.7-1.42-1.58-.91a3.5,3.5,0,0,0-1.58,2.74c0,1,.71,1.41,1.58.91A3.48,3.48,0,0,0,264.71,83.47Z"/><polygon class="cls-1" points="264.92 84.92 262.6 87.26 237.57 101.71 233.11 103.28 233.11 101.74 264.92 83.38 264.92 84.92"/><path class="cls-1" d="M228.06,104.63a9.86,9.86,0,0,1,4.46-7.73l30.61-17.68a3.25,3.25,0,0,1,3-.37h0L257.8,74.1a3,3,0,0,0-3.31.22L223.88,92a9.88,9.88,0,0,0-4.46,7.74,3.27,3.27,0,0,0,1.12,2.77l8.74,5h0A3.17,3.17,0,0,1,228.06,104.63Z"/><path class="cls-1" d="M263.78,78.9l-.31.15-8.65-4.91.31-.14Z"/><polygon class="cls-1" points="260.09 80.98 259.82 81.14 251.17 76.24 251.44 76.08 260.09 80.98"/><polygon class="cls-1" points="256.45 83.08 256.18 83.24 247.53 78.34 247.8 78.18 256.45 83.08"/><polygon class="cls-1" points="252.81 85.19 252.54 85.34 243.88 80.44 244.16 80.28 252.81 85.19"/><polygon class="cls-1" points="249.17 87.29 248.9 87.44 240.25 82.54 240.52 82.38 249.17 87.29"/><polygon class="cls-1" points="245.53 89.39 245.25 89.55 236.6 84.65 236.88 84.49 245.53 89.39"/><polygon class="cls-1" points="241.88 91.5 241.61 91.65 232.96 86.75 233.23 86.59 241.88 91.5"/><polygon class="cls-1" points="238.24 93.6 237.97 93.75 229.32 88.85 229.59 88.69 238.24 93.6"/><polygon class="cls-1" points="234.6 95.7 234.33 95.86 225.68 90.96 225.95 90.8 234.6 95.7"/><path class="cls-1" d="M231.17,97.92l-.2.2-8.65-4.9c.07-.07.13-.14.2-.2Z"/><path class="cls-1" d="M229,100.87l-.12.24-8.64-4.89a2.72,2.72,0,0,1,.11-.25Z"/><path class="cls-1" d="M228.06,104.63v.17l-8.64-4.9v-.31l8.64,4.9Z"/><path class="cls-1" d="M246.87,61.38a2.82,2.82,0,0,0-2.5,0,.88.88,0,0,0-.51.72V84.47a.88.88,0,0,0,.51.73,2.82,2.82,0,0,0,2.5,0,.87.87,0,0,0,.52-.73V62.1A.87.87,0,0,0,246.87,61.38Z"/><polygon class="cls-1" points="264.92 83.38 233.11 101.74 232.09 101.06 263.9 82.7 264.92 83.38"/><polygon class="cls-1" points="233.11 103.28 232.09 102.6 232.09 101.06 233.11 101.74 233.11 103.28"/><polygon class="cls-1" points="251.97 90.83 243.45 95.75 244.71 93.05 253.23 88.13 251.97 90.83"/><polygon class="cls-1" points="253.23 88.13 244.71 93.05 244.71 86.35 253.23 81.42 253.23 88.13"/><polygon class="cls-1" points="253.23 81.42 244.71 86.35 242.38 84.94 250.91 80.02 253.23 81.42"/><polygon class="cls-1" points="243.53 95.57 242.38 95.08 242.38 84.94 244.71 86.35 244.71 93.05 243.53 95.57"/><polygon class="cls-1" points="186.31 113.86 223.77 92.23 225.53 107.55 224.65 111.91 185.43 134.56 184.54 131.21 186.31 113.86"/><polygon class="cls-1" points="184.54 131.21 142.61 106.93 144.37 89.58 186.31 113.86 184.54 131.21"/><polygon class="cls-1" points="184.54 131.21 142.61 106.93 143.49 110.28 185.43 134.56 184.54 131.21"/><polygon class="cls-1" points="223.77 92.23 186.31 113.86 185.85 118.36 224.22 96.2 223.77 92.23"/><path class="cls-1" d="M177.68,128.54l-30.61,17.67A9.88,9.88,0,0,0,142.6,154c0,2.85,2,4,4.47,2.58l30.61-17.67a9.87,9.87,0,0,0,4.46-7.74C182.14,128.27,180.15,127.12,177.68,128.54Z"/><path class="cls-1" d="M177.68,130.19l-30.61,17.67a6.72,6.72,0,0,0-3,5.27c0,1.94,1.36,2.73,3,1.75l30.61-17.67a6.72,6.72,0,0,0,3-5.27C180.72,130,179.36,129.22,177.68,130.19Z"/><path class="cls-1" d="M150.11,149.61c0-1.94-1.36-2.72-3-1.75a6.72,6.72,0,0,0-3,5.27c0,1.94,1.36,2.73,3,1.75A6.72,6.72,0,0,0,150.11,149.61Z"/><path class="cls-1" d="M149.28,150.1c0-1.41-1-2-2.21-1.28a4.89,4.89,0,0,0-2.21,3.82c0,1.41,1,2,2.21,1.28A4.88,4.88,0,0,0,149.28,150.1Z"/><path class="cls-1" d="M148.65,150.46c0-1-.71-1.42-1.58-.91a3.49,3.49,0,0,0-1.58,2.73c0,1,.71,1.42,1.58.92A3.51,3.51,0,0,0,148.65,150.46Z"/><path class="cls-1" d="M157.77,145.2c0-1.94-1.37-2.73-3.05-1.76a6.72,6.72,0,0,0-3,5.27c0,1.94,1.36,2.73,3,1.76A6.73,6.73,0,0,0,157.77,145.2Z"/><path class="cls-1" d="M156.93,145.68c0-1.41-1-2-2.21-1.27a4.86,4.86,0,0,0-2.21,3.82c0,1.4,1,2,2.21,1.27A4.86,4.86,0,0,0,156.93,145.68Z"/><path class="cls-1" d="M156.3,146c0-1-.71-1.42-1.58-.91a3.5,3.5,0,0,0-1.58,2.74c0,1,.71,1.41,1.58.91A3.51,3.51,0,0,0,156.3,146Z"/><path class="cls-1" d="M165.42,140.78c0-1.94-1.37-2.73-3-1.76a6.72,6.72,0,0,0-3,5.27c0,1.94,1.36,2.73,3,1.76A6.73,6.73,0,0,0,165.42,140.78Z"/><path class="cls-1" d="M164.58,141.26c0-1.41-1-2-2.21-1.27a4.88,4.88,0,0,0-2.2,3.82c0,1.41,1,2,2.2,1.27A4.86,4.86,0,0,0,164.58,141.26Z"/><path class="cls-1" d="M164,141.62c0-1-.71-1.41-1.59-.91a3.5,3.5,0,0,0-1.58,2.74c0,1,.71,1.41,1.58.91A3.48,3.48,0,0,0,164,141.62Z"/><path class="cls-1" d="M173.07,136.36c0-1.94-1.36-2.73-3-1.76a6.73,6.73,0,0,0-3.05,5.27c0,1.94,1.37,2.73,3.05,1.76A6.72,6.72,0,0,0,173.07,136.36Z"/><path class="cls-1" d="M172.23,136.84c0-1.4-1-2-2.2-1.27a4.86,4.86,0,0,0-2.21,3.82c0,1.41,1,2,2.21,1.28A4.91,4.91,0,0,0,172.23,136.84Z"/><path class="cls-1" d="M171.61,137.2c0-1-.71-1.41-1.58-.91a3.5,3.5,0,0,0-1.59,2.74c0,1,.71,1.42,1.59.91A3.5,3.5,0,0,0,171.61,137.2Z"/><path class="cls-1" d="M180.72,131.94c0-1.94-1.36-2.72-3-1.75a6.73,6.73,0,0,0-3.05,5.27c0,1.94,1.37,2.72,3.05,1.75A6.72,6.72,0,0,0,180.72,131.94Z"/><path class="cls-1" d="M179.88,132.43c0-1.41-1-2-2.2-1.28a4.89,4.89,0,0,0-2.21,3.82c0,1.41,1,2,2.21,1.28A4.88,4.88,0,0,0,179.88,132.43Z"/><path class="cls-1" d="M179.26,132.79c0-1-.71-1.42-1.58-.92a3.51,3.51,0,0,0-1.58,2.74c0,1,.71,1.42,1.58.92A3.51,3.51,0,0,0,179.26,132.79Z"/><polygon class="cls-1" points="179.46 134.23 177.14 136.57 152.11 151.03 147.65 152.6 147.65 151.06 179.46 132.69 179.46 134.23"/><path class="cls-1" d="M142.6,154a9.88,9.88,0,0,1,4.47-7.74l30.61-17.67a3.22,3.22,0,0,1,3-.37h0l-8.37-4.75a3,3,0,0,0-3.31.22l-30.61,17.67A9.85,9.85,0,0,0,134,149a3.29,3.29,0,0,0,1.13,2.78l8.73,5h0A3.21,3.21,0,0,1,142.6,154Z"/><path class="cls-1" d="M178.33,128.22l-.31.14-8.65-4.9.3-.14Z"/><polygon class="cls-1" points="174.63 130.3 174.37 130.46 165.71 125.55 165.99 125.39 174.63 130.3"/><polygon class="cls-1" points="171 132.4 170.72 132.56 162.07 127.66 162.34 127.5 171 132.4"/><polygon class="cls-1" points="167.35 134.5 167.08 134.66 158.43 129.76 158.7 129.6 167.35 134.5"/><polygon class="cls-1" points="163.71 136.6 163.44 136.76 154.79 131.86 155.06 131.7 163.71 136.6"/><polygon class="cls-1" points="160.07 138.71 159.8 138.87 151.15 133.97 151.42 133.81 160.07 138.71"/><polygon class="cls-1" points="156.43 140.81 156.16 140.97 147.51 136.06 147.78 135.91 156.43 140.81"/><polygon class="cls-1" points="152.79 142.91 152.51 143.07 143.87 138.17 144.13 138.01 152.79 142.91"/><polygon class="cls-1" points="149.14 145.02 148.87 145.18 140.22 140.27 140.49 140.12 149.14 145.02"/><path class="cls-1" d="M145.71,147.24l-.2.2-8.65-4.9.21-.2Z"/><path class="cls-1" d="M143.57,150.19a2.56,2.56,0,0,0-.11.24l-8.65-4.9c0-.08.08-.16.12-.24Z"/><path class="cls-1" d="M142.6,154a1,1,0,0,0,0,.17l-8.65-4.9v-.31l8.65,4.9A.66.66,0,0,0,142.6,154Z"/><path class="cls-1" d="M161.42,110.7a2.75,2.75,0,0,0-2.5,0,.87.87,0,0,0-.52.72v22.37a.87.87,0,0,0,.52.72,2.75,2.75,0,0,0,2.5,0,.88.88,0,0,0,.51-.72V111.42A.88.88,0,0,0,161.42,110.7Z"/><polygon class="cls-1" points="179.46 132.69 147.65 151.06 146.64 150.38 178.45 132.01 179.46 132.69"/><polygon class="cls-1" points="147.65 152.6 146.64 151.92 146.64 150.38 147.65 151.06 147.65 152.6"/><polygon class="cls-1" points="166.52 140.15 157.99 145.06 159.25 142.37 167.78 137.44 166.52 140.15"/><polygon class="cls-1" points="167.78 137.44 159.25 142.37 159.25 135.66 167.78 130.74 167.78 137.44"/><polygon class="cls-1" points="167.78 130.74 159.25 135.66 156.93 134.26 165.45 129.34 167.78 130.74"/><polygon class="cls-1" points="158.07 144.89 156.93 144.4 156.93 134.26 159.25 135.66 159.25 142.37 158.07 144.89"/><path class="cls-1" d="M150.32,111.31,119.72,129a9.87,9.87,0,0,0-4.47,7.74c0,2.85,2,4,4.47,2.58l30.6-17.68a9.85,9.85,0,0,0,4.47-7.73C154.79,111,152.79,109.88,150.32,111.31Z"/><path class="cls-1" d="M150.32,113l-30.6,17.67a6.73,6.73,0,0,0-3,5.27c0,1.94,1.37,2.73,3,1.76L150.32,120a6.73,6.73,0,0,0,3.05-5.27C153.37,112.77,152,112,150.32,113Z"/><path class="cls-1" d="M122.76,132.38c0-1.94-1.37-2.73-3-1.76a6.73,6.73,0,0,0-3,5.27c0,1.94,1.37,2.73,3,1.76A6.75,6.75,0,0,0,122.76,132.38Z"/><path class="cls-1" d="M121.92,132.86c0-1.4-1-2-2.2-1.27a4.86,4.86,0,0,0-2.21,3.82c0,1.41,1,2,2.21,1.28A4.91,4.91,0,0,0,121.92,132.86Z"/><path class="cls-1" d="M121.3,133.23c0-1-.71-1.42-1.58-.92a3.5,3.5,0,0,0-1.59,2.74c0,1,.71,1.42,1.59.91A3.49,3.49,0,0,0,121.3,133.23Z"/><path class="cls-1" d="M130.41,128c0-1.94-1.36-2.72-3-1.75a6.72,6.72,0,0,0-3,5.27c0,1.94,1.36,2.72,3,1.75A6.72,6.72,0,0,0,130.41,128Z"/><path class="cls-1" d="M129.57,128.45c0-1.41-1-2-2.2-1.28a4.89,4.89,0,0,0-2.21,3.82c0,1.41,1,2,2.21,1.28A4.88,4.88,0,0,0,129.57,128.45Z"/><path class="cls-1" d="M129,128.81c0-1-.71-1.42-1.58-.92a3.48,3.48,0,0,0-1.58,2.74c0,1,.7,1.42,1.58.92A3.53,3.53,0,0,0,129,128.81Z"/><path class="cls-1" d="M138.06,123.54c0-1.94-1.36-2.72-3-1.75a6.72,6.72,0,0,0-3,5.27c0,1.94,1.36,2.73,3,1.76A6.74,6.74,0,0,0,138.06,123.54Z"/><path class="cls-1" d="M137.23,124c0-1.41-1-2-2.21-1.28a4.9,4.9,0,0,0-2.21,3.83c0,1.4,1,2,2.21,1.27A4.86,4.86,0,0,0,137.23,124Z"/><path class="cls-1" d="M136.6,124.39c0-1-.71-1.42-1.58-.91a3.5,3.5,0,0,0-1.58,2.74c0,1,.71,1.41,1.58.91A3.51,3.51,0,0,0,136.6,124.39Z"/><path class="cls-1" d="M145.71,119.13c0-1.94-1.36-2.73-3-1.76a6.72,6.72,0,0,0-3,5.27c0,1.94,1.36,2.73,3,1.76A6.72,6.72,0,0,0,145.71,119.13Z"/><path class="cls-1" d="M144.88,119.61c0-1.41-1-2-2.21-1.27a4.85,4.85,0,0,0-2.2,3.82c0,1.41,1,2,2.2,1.27A4.86,4.86,0,0,0,144.88,119.61Z"/><path class="cls-1" d="M144.25,120c0-1-.7-1.42-1.58-.91a3.5,3.5,0,0,0-1.58,2.74c0,1,.71,1.41,1.58.91A3.48,3.48,0,0,0,144.25,120Z"/><path class="cls-1" d="M153.37,114.71c0-1.94-1.37-2.73-3.05-1.76a6.72,6.72,0,0,0-3,5.27c0,1.94,1.36,2.73,3,1.76A6.73,6.73,0,0,0,153.37,114.71Z"/><path class="cls-1" d="M152.53,115.19c0-1.4-1-2-2.21-1.27a4.88,4.88,0,0,0-2.2,3.82c0,1.41,1,2,2.2,1.27A4.86,4.86,0,0,0,152.53,115.19Z"/><path class="cls-1" d="M151.9,115.55c0-1-.7-1.41-1.58-.91a3.5,3.5,0,0,0-1.58,2.74c0,1,.71,1.41,1.58.91A3.47,3.47,0,0,0,151.9,115.55Z"/><polygon class="cls-1" points="152.11 117 149.79 119.34 124.76 133.79 120.3 135.36 120.3 133.82 152.11 115.46 152.11 117"/><path class="cls-1" d="M115.25,136.72a9.87,9.87,0,0,1,4.47-7.74l30.6-17.67a3.2,3.2,0,0,1,3-.37h0L145,106.18a3.06,3.06,0,0,0-3.31.22l-30.61,17.67a9.9,9.9,0,0,0-4.46,7.74,3.24,3.24,0,0,0,1.13,2.77l8.73,5h0A3.18,3.18,0,0,1,115.25,136.72Z"/><path class="cls-1" d="M151,111l-.3.14L142,106.22l.31-.13Z"/><polygon class="cls-1" points="147.28 113.07 147.01 113.22 138.36 108.32 138.63 108.16 147.28 113.07"/><polygon class="cls-1" points="143.64 115.17 143.37 115.32 134.72 110.42 134.99 110.26 143.64 115.17"/><polygon class="cls-1" points="140 117.27 139.73 117.42 131.08 112.53 131.34 112.37 140 117.27"/><polygon class="cls-1" points="136.36 119.37 136.09 119.53 127.44 114.63 127.71 114.47 136.36 119.37"/><polygon class="cls-1" points="132.72 121.48 132.44 121.63 123.79 116.73 124.06 116.57 132.72 121.48"/><polygon class="cls-1" points="129.08 123.58 128.8 123.73 120.15 118.83 120.42 118.68 129.08 123.58"/><polygon class="cls-1" points="125.43 125.68 125.16 125.84 116.51 120.93 116.78 120.78 125.43 125.68"/><polygon class="cls-1" points="121.79 127.78 121.52 127.94 112.87 123.04 113.14 122.88 121.79 127.78"/><path class="cls-1" d="M118.36,130l-.2.19-8.65-4.9.2-.19Z"/><path class="cls-1" d="M116.22,133l-.12.24-8.64-4.9a2.56,2.56,0,0,1,.11-.24Z"/><path class="cls-1" d="M115.25,136.72v.16l-8.64-4.9v-.3l8.64,4.9Z"/><path class="cls-1" d="M134.06,93.47a2.75,2.75,0,0,0-2.5,0,.88.88,0,0,0-.51.72v22.37a.88.88,0,0,0,.51.72,2.75,2.75,0,0,0,2.5,0,.87.87,0,0,0,.52-.72V94.19A.87.87,0,0,0,134.06,93.47Z"/><polygon class="cls-1" points="152.11 115.46 120.3 133.82 119.28 133.15 151.09 114.78 152.11 115.46"/><polygon class="cls-1" points="120.3 135.36 119.28 134.68 119.28 133.15 120.3 133.82 120.3 135.36"/><polygon class="cls-1" points="139.16 122.91 130.64 127.83 131.9 125.13 140.42 120.21 139.16 122.91"/><polygon class="cls-1" points="140.42 120.21 131.9 125.13 131.9 118.43 140.42 113.51 140.42 120.21"/><polygon class="cls-1" points="140.42 113.51 131.9 118.43 129.57 117.02 138.1 112.1 140.42 113.51"/><polygon class="cls-1" points="130.72 127.65 129.57 127.16 129.57 117.02 131.9 118.43 131.9 125.13 130.72 127.65"/><polygon class="cls-1" points="181.55 33.32 218.8 55.16 221.48 59.44 221.38 68.82 179.67 50.05 181.55 33.32"/><polygon class="cls-1" points="217.55 12.38 181.55 33.32 218.8 55.16 255.17 34.17 217.55 12.38"/><polygon class="cls-1" points="257.6 39.06 221.48 59.44 218.8 55.16 255.17 34.17 257.6 39.06"/><polygon class="cls-1" points="257.6 73.6 221.12 94.66 221.48 59.44 257.6 39.06 257.6 73.6"/><polygon class="cls-1" points="257.6 73.6 270.59 62.7 270.59 31.84 257.6 39.06 257.6 73.6"/><polygon class="cls-1" points="255.34 34.26 268.33 27.05 270.59 31.84 257.6 39.06 255.34 34.26"/><polygon class="cls-1" points="236.16 8.31 217.65 12.44 255.34 34.26 268.33 27.05 236.16 8.31"/><polygon class="cls-1" points="187.96 33.38 187.96 32.27 218.75 50.05 218.75 51.16 187.96 33.38"/><polygon class="cls-1" points="218.75 50.05 248.76 32.72 248.76 33.84 218.75 51.16 218.75 50.05"/><polygon class="cls-1" points="187.96 32.27 217.97 14.94 248.76 32.72 218.75 50.05 187.96 32.27"/><polygon class="cls-1" points="189.99 32.27 217.97 16.12 246.72 32.72 218.75 48.87 189.99 32.27"/><polygon class="cls-1" points="245.91 33.19 245.2 33.61 245.19 33.61 216.44 17 217.15 16.59 245.91 33.19"/><polygon class="cls-1" points="244.56 33.98 243.84 34.39 215.08 17.78 215.8 17.37 244.56 33.98"/><polygon class="cls-1" points="243.21 34.76 242.49 35.17 213.73 18.57 214.45 18.15 243.21 34.76"/><polygon class="cls-1" points="241.86 35.54 241.14 35.95 212.38 19.35 213.09 18.93 241.86 35.54"/><polygon class="cls-1" points="240.5 36.32 239.79 36.73 211.03 20.13 211.74 19.71 240.5 36.32"/><polygon class="cls-1" points="239.15 37.1 238.43 37.51 209.67 20.91 210.39 20.49 239.15 37.1"/><polygon class="cls-1" points="237.8 37.88 237.08 38.29 208.32 21.69 209.04 21.27 237.8 37.88"/><polygon class="cls-1" points="236.45 38.66 235.73 39.08 206.97 22.47 207.69 22.05 236.45 38.66"/><polygon class="cls-1" points="235.09 39.44 234.38 39.85 205.61 23.25 206.34 22.84 235.09 39.44"/><polygon class="cls-1" points="233.74 40.22 233.03 40.64 204.26 24.03 204.98 23.61 233.74 40.22"/><polygon class="cls-1" points="232.39 41 231.67 41.42 202.91 24.81 203.63 24.4 232.39 41"/><polygon class="cls-1" points="231.04 41.78 230.32 42.2 201.56 25.59 202.28 25.18 231.04 41.78"/><polygon class="cls-1" points="229.69 42.56 228.97 42.98 200.21 26.37 200.92 25.96 229.69 42.56"/><polygon class="cls-1" points="228.34 43.34 227.61 43.76 198.85 27.16 199.57 26.74 228.34 43.34"/><polygon class="cls-1" points="226.98 44.12 226.26 44.54 197.5 27.93 198.22 27.52 226.98 44.12"/><polygon class="cls-1" points="225.63 44.9 224.91 45.32 196.15 28.71 196.87 28.3 225.63 44.9"/><polygon class="cls-1" points="224.28 45.68 223.56 46.1 194.8 29.5 195.51 29.08 224.28 45.68"/><polygon class="cls-1" points="222.92 46.47 222.21 46.88 193.44 30.28 194.16 29.86 222.92 46.47"/><polygon class="cls-1" points="221.57 47.25 220.85 47.66 192.09 31.06 192.81 30.64 221.57 47.25"/><polygon class="cls-1" points="220.22 48.03 219.5 48.45 190.74 31.84 191.46 31.43 220.22 48.03"/><polygon class="cls-1" points="141.92 135.51 107.43 115.15 103.64 106.06 138.13 126.43 141.92 135.51"/><polygon class="cls-1" points="138.13 126.43 103.64 106.06 103.64 86.13 138.13 106.5 138.13 126.43"/><polygon class="cls-1" points="193.45 76.22 163.21 58.8 159.47 60.95 189.72 78.37 193.45 76.22"/><polygon class="cls-1" points="215.03 68.56 198.96 77.85 156.93 53.65 173 44.37 215.03 68.56"/><polygon class="cls-1" points="215.03 73.71 221.35 70.05 221.35 59.31 219.85 58.48 215.03 61.26 215.03 73.71"/><polygon class="cls-1" points="217.93 66.89 217.93 72.03 201.81 81.29 198.96 77.85 217.93 66.89"/><polygon class="cls-1" points="217.93 72.03 216.11 73.08 216.11 67.94 217.93 66.89 217.93 72.03"/><polygon class="cls-1" points="153.37 43.15 150.61 44.74 148.2 43.51 150.96 41.92 153.37 43.15"/><polygon class="cls-1" points="150.61 50.19 150.61 44.74 148.2 43.51 148.2 48.96 150.61 50.19"/><polygon class="cls-1" points="150.61 50.19 158.74 60.2 156.33 58.97 148.2 48.96 150.61 50.19"/><polygon class="cls-1" points="153.37 43.15 153.37 47.61 162.14 58.19 158.74 60.2 150.61 50.19 150.61 44.74 153.37 43.15"/><polygon class="cls-1" points="150.61 26.34 150.61 44.21 149.21 43.4 149.21 25.53 150.61 26.34"/><polygon class="cls-1" points="152.02 25.53 150.61 26.34 150.61 44.21 152.02 43.4 152.02 25.53"/><polygon class="cls-1" points="220.39 58.85 215.03 61.26 173 37.06 177.82 34.28 220.39 58.85"/><polygon class="cls-1" points="215.03 68.56 215.03 61.26 173 37.06 173 44.37 215.03 68.56"/><polygon class="cls-1" points="222.36 28.63 217.02 58.85 215.61 58.03 220.95 27.82 222.36 28.63"/><polygon class="cls-1" points="223.76 27.82 222.36 28.63 217.02 58.85 218.43 58.03 223.76 27.82"/><path class="cls-1" d="M206.16,72.81h0a.35.35,0,0,1-.32-.39l1-10.11A5,5,0,0,1,209,58.87l2.73-1.58a1.41,1.41,0,0,1,1.52-.1,1.58,1.58,0,0,1,.57,1.58l-1,10.1a.36.36,0,1,1-.71-.06l1-10.11c.05-.44,0-.78-.24-.9s-.45-.07-.77.12l-2.74,1.57a4.26,4.26,0,0,0-1.79,2.89l-1,10.11A.35.35,0,0,1,206.16,72.81Z"/><path class="cls-1" d="M196.93,73a1.28,1.28,0,0,1-.64-.17,1.58,1.58,0,0,1-.7-1.45v-.72a4.25,4.25,0,0,1,1.95-3.36L207,61.86a.36.36,0,0,1,.36.63l-9.44,5.45a3.57,3.57,0,0,0-1.59,2.74v.72a.89.89,0,0,0,.34.82.91.91,0,0,0,.89-.12l9-5.17a.36.36,0,1,1,.36.62l-9,5.18A2,2,0,0,1,196.93,73Z"/><path class="cls-1" d="M166.86,50.49h0a.36.36,0,0,1-.32-.39l1-10.11a4.87,4.87,0,0,1,2.15-3.44L172.38,35a1.38,1.38,0,0,1,1.53-.1,1.59,1.59,0,0,1,.56,1.57l-1,10.11a.36.36,0,0,1-.72-.07l1-10.11a1,1,0,0,0-.24-.9.81.81,0,0,0-.78.12L170,37.17a4.22,4.22,0,0,0-1.8,2.89l-1,10.11A.37.37,0,0,1,166.86,50.49Z"/><path class="cls-1" d="M157.62,50.69a1.2,1.2,0,0,1-.64-.17,1.57,1.57,0,0,1-.7-1.45v-.71A4.25,4.25,0,0,1,158.23,45l9.44-5.45a.36.36,0,1,1,.36.62l-9.44,5.46A3.55,3.55,0,0,0,157,48.36v.71a.93.93,0,0,0,.34.83.91.91,0,0,0,.89-.12l9-5.17a.36.36,0,1,1,.36.62l-9,5.17A2,2,0,0,1,157.62,50.69Z"/><path class="cls-1" d="M172.19,52.3c-.77-.47-1.52-.8-2.13-.31-1.26,1-6.4,4.83-6.4,4.83l.14,1.79,7.79,4.47-.13-1.79s5-4,6.39-4.83a.75.75,0,0,1,.68-.12Z"/><path class="cls-1" d="M170.42,61.89l-.68-10.69s1.06-1,1.61-.22,1.33,6,1.52,7S172.61,60.28,170.42,61.89Z"/><path class="cls-1" d="M171.59,63.08l-.13-1.79s5-4,6.39-4.83,1.55,2,1.55,2.11S171.59,63.08,171.59,63.08Z"/><path class="cls-1" d="M168.58,49.37l.54-3.81s1.83-.94,1.49,1.2A3,3,0,0,1,168.58,49.37Z"/><path class="cls-1" d="M171.06,50.74h0l-6.25-3.8c-.58-.42-1.45.39-1.45.39l-.73,10.09,7.79,4.47-.68-10.69S170.49,50.5,171.06,50.74Z"/><path class="cls-1" d="M170.21,45.41h0l-2.91-1.68c-.45-.31-1.22.09-1.22.09l-.53,3.81,3,1.74.54-3.81A1.65,1.65,0,0,1,170.21,45.41Z"/><path class="cls-1" d="M186,60.06c-.77-.47-1.51-.79-2.12-.32-1.27,1-6.4,4.84-6.4,4.84l.14,1.79,7.79,4.47-.14-1.79s5-4,6.4-4.84a.77.77,0,0,1,.68-.11Z"/><path class="cls-1" d="M184.27,69.65,183.59,59s1.06-1,1.62-.22,1.33,5.95,1.51,7S186.47,68,184.27,69.65Z"/><path class="cls-1" d="M185.45,70.84l-.14-1.79s5-4,6.4-4.84,1.55,2,1.55,2.12S185.45,70.84,185.45,70.84Z"/><path class="cls-1" d="M182.44,57.13l.53-3.81s1.83-.94,1.5,1.19A3.07,3.07,0,0,1,182.44,57.13Z"/><path class="cls-1" d="M184.92,58.5h0l-6.26-3.8c-.57-.42-1.45.39-1.45.39l-.73,10.09,7.79,4.47L183.59,59S184.35,58.26,184.92,58.5Z"/><path class="cls-1" d="M184.06,53.17h0l-2.91-1.68c-.45-.31-1.22.09-1.22.09l-.54,3.81,3,1.74.53-3.81A1.66,1.66,0,0,1,184.06,53.17Z"/><polygon class="cls-1" points="197.41 81.35 160.14 59.48 152.02 49.47 189.28 71.33 197.41 81.35"/><polygon class="cls-1" points="193.04 66.25 190.28 67.84 187.87 66.61 190.63 65.02 193.04 66.25"/><polygon class="cls-1" points="190.28 73.29 190.28 67.84 187.87 66.61 187.87 72.06 190.28 73.29"/><polygon class="cls-1" points="190.28 73.29 198.41 83.3 196 82.07 187.87 72.06 190.28 73.29"/><polygon class="cls-1" points="193.04 66.25 193.04 70.7 201.81 81.29 198.41 83.3 190.28 73.29 190.28 67.84 193.04 66.25"/><polygon class="cls-1" points="190.28 49.34 190.28 67.21 188.88 66.39 188.88 48.53 190.28 49.34"/><polygon class="cls-1" points="191.69 48.53 190.28 49.34 190.28 67.21 191.69 66.39 191.69 48.53"/><polygon class="cls-1" points="144.89 22.12 149.93 22.95 184.3 42.79 188.89 47.52 188.89 50.68 144.89 25.28 144.89 22.12"/><polygon class="cls-1" points="222.36 20.8 184.3 42.79 149.93 22.95 187.99 0.96 222.36 20.8"/><polygon class="cls-1" points="222.36 20.8 184.3 42.79 188.89 47.52 226.94 25.53 222.36 20.8"/><polygon class="cls-1" points="226.94 28.68 188.89 50.68 188.89 47.52 226.94 25.53 226.94 28.68"/><polygon class="cls-1" points="182.94 0.13 144.89 22.12 149.93 22.95 187.99 0.96 182.94 0.13"/><polygon class="cls-1" points="189.08 73.54 138.61 101.64 104.85 82.03 148.47 50.08 189.08 73.54"/><path class="cls-1" d="M153.1,88l-.08,0L126.26,72.44l22.53-16.5,30.33,17.53ZM126.92,72.4l26.19,15.13,25.28-14.07L148.81,56.37Z"/><polygon class="cls-1" points="189.08 73.54 138.61 101.64 138.13 106.5 192.91 76.53 189.08 73.54"/><polygon class="cls-1" points="138.13 106.5 138.61 101.64 104.85 82.03 103.64 86.13 138.13 106.5"/><polygon class="cls-1" points="187.87 102.76 221.22 83.51 221.35 70.05 198.41 83.3 192.91 76.53 138.13 106.5 138.13 126.43 187.87 102.76"/><polygon class="cls-1" points="221.22 83.51 187.87 102.76 138.13 126.43 141.98 135.51 190.41 112.39 221.12 94.66 221.22 83.51"/><path class="cls-1" d="M270.81,48.44S238.56,60.16,230.05,64c-9.21,4.21-11.15,11-11.15,11l-15.06,38.22a13.53,13.53,0,0,0-1,4.76c0,4.77,3.34,6.7,7.47,4.32a16,16,0,0,0,6.14-7.27l10.26-21.46,43.36-25.17a4.62,4.62,0,0,0,2-3.66V50.06C272.14,48.25,270.81,48.44,270.81,48.44Z"/><path class="cls-1" d="M230.05,64c-9.21,4.21-11.15,11-11.15,11l-15.06,38.22a13.53,13.53,0,0,0-1,4.76c0,4.77,3.34,6.7,7.47,4.32a16,16,0,0,0,6.14-7.27l10.26-21.46,17.17-35.19C238.08,60.69,232.81,62.78,230.05,64Z"/><path class="cls-1" d="M218.27,104.79a.51.51,0,0,1,0,.22,1.83,1.83,0,0,1-.88,1.41l-10.32,6a.75.75,0,0,1-.59.11c.11.31.45.39.85.16l10.32-6a1.84,1.84,0,0,0,.89-1.4A.47.47,0,0,0,218.27,104.79Z"/><path class="cls-1" d="M217.43,106.42a1.83,1.83,0,0,0,.88-1.41.51.51,0,0,0,0-.22.73.73,0,0,0-.58.11l-10.32,6a1.84,1.84,0,0,0-.89,1.41.78.78,0,0,0,0,.22.75.75,0,0,0,.59-.11Z"/><path class="cls-1" d="M220.47,99.51a.48.48,0,0,1,0,.22,1.87,1.87,0,0,1-.88,1.41l-10.33,6a.72.72,0,0,1-.58.11c.11.31.44.39.85.16l10.32-6a1.83,1.83,0,0,0,.88-1.41A.46.46,0,0,0,220.47,99.51Z"/><path class="cls-1" d="M219.63,101.14a1.87,1.87,0,0,0,.88-1.41.48.48,0,0,0,0-.22.72.72,0,0,0-.58.1l-10.32,6a1.82,1.82,0,0,0-.89,1.4.79.79,0,0,0,0,.23.72.72,0,0,0,.58-.11Z"/><path class="cls-1" d="M222.67,94.46a.79.79,0,0,1,0,.23,1.85,1.85,0,0,1-.88,1.4l-10.33,6a.73.73,0,0,1-.58.11c.11.32.44.4.84.17l10.33-6A1.85,1.85,0,0,0,223,95,.48.48,0,0,0,222.67,94.46Z"/><path class="cls-1" d="M221.83,96.09a1.85,1.85,0,0,0,.88-1.4.79.79,0,0,0,0-.23.73.73,0,0,0-.58.11l-10.33,6a1.86,1.86,0,0,0-.88,1.41.78.78,0,0,0,0,.22.73.73,0,0,0,.58-.11Z"/><path class="cls-1" d="M231.18,84.58l-4.42,9.06,43.36-25.17a4.62,4.62,0,0,0,2-3.66V60.93Z"/><path class="cls-1" d="M231.84,84.2l-.66.38-4.42,9.06.65-.38Z"/><polygon class="cls-1" points="269.09 51.77 257.76 58.3 257.76 57.68 269.09 51.14 269.09 51.77"/><polygon class="cls-1" points="269.09 51.77 257.76 58.3 257.76 58.53 269.09 51.99 269.09 51.77"/><polygon class="cls-1" points="269.09 52.85 257.76 59.39 257.76 58.76 269.09 52.22 269.09 52.85"/><polygon class="cls-1" points="269.09 52.85 257.76 59.39 257.76 59.62 269.09 53.08 269.09 52.85"/><polygon class="cls-1" points="269.09 53.93 257.76 60.47 257.76 59.84 269.09 53.3 269.09 53.93"/><polygon class="cls-1" points="269.09 53.93 257.76 60.47 257.76 60.7 269.09 54.16 269.09 53.93"/><polygon class="cls-1" points="269.09 55.02 257.76 61.55 257.76 60.93 269.09 54.39 269.09 55.02"/><polygon class="cls-1" points="269.09 55.02 257.76 61.55 257.76 61.78 269.09 55.24 269.09 55.02"/><polygon class="cls-1" points="269.09 56.1 257.76 62.64 257.76 62.01 269.09 55.47 269.09 56.1"/><polygon class="cls-1" points="269.09 56.1 257.76 62.64 257.76 62.86 269.09 56.33 269.09 56.1"/><polygon class="cls-1" points="269.09 57.18 257.76 63.72 257.76 63.09 269.09 56.55 269.09 57.18"/><polygon class="cls-1" points="269.09 57.18 257.76 63.72 257.76 63.95 269.09 57.41 269.09 57.18"/><polygon class="cls-1" points="269.09 58.27 257.76 64.8 257.76 64.18 269.09 57.64 269.09 58.27"/><polygon class="cls-1" points="269.09 58.27 257.76 64.8 257.76 65.03 269.09 58.49 269.09 58.27"/><polygon class="cls-1" points="269.09 59.35 257.76 65.89 257.76 65.26 269.09 58.72 269.09 59.35"/><polygon class="cls-1" points="269.09 59.35 257.76 65.89 257.76 66.11 269.09 59.57 269.09 59.35"/><polygon class="cls-1" points="269.09 60.43 257.76 66.97 257.76 66.34 269.09 59.8 269.09 60.43"/><polygon class="cls-1" points="269.09 60.43 257.76 66.97 257.76 67.19 269.09 60.66 269.09 60.43"/><path class="cls-1" d="M202.89,118.05a13.53,13.53,0,0,1,1-4.76L218.9,75.07s1.94-6.82,11.15-11c8.51-3.88,40.76-15.6,40.76-15.6a1.3,1.3,0,0,1,.55.08h0L267.1,46a1.21,1.21,0,0,0-.69-.14s-32.25,11.71-40.75,15.6c-9.21,4.2-11.15,11-11.15,11l-15.06,38.22a13.49,13.49,0,0,0-.95,4.76c0,2.44.87,4.14,2.28,4.89l4.17,2.47C203.68,122,202.89,120.36,202.89,118.05Z"/><path class="cls-1" d="M239.44,55.88c-5.81,2.23-11,4.3-13.78,5.56-9.21,4.2-11.15,11-11.15,11l-15.06,38.22a13.49,13.49,0,0,0-.95,4.76c0,2.44.87,4.14,2.28,4.89l4.17,2.47c-1.27-.81-2.06-2.45-2.06-4.76a13.53,13.53,0,0,1,1-4.76L218.9,75.07s1.94-6.82,11.15-11c2.76-1.26,8-3.34,13.86-5.58Z"/><polygon class="cls-1" points="7.25 105.67 8.39 105.24 10.01 93.67 8.88 94.09 7.25 105.67"/><path class="cls-1" d="M11.66,104.69l27.28-9S46.3,91,50,91.32s10.27,1.09,10.27,1.09L57,101.17c-4.28-2.54-14.63,0-14.63,0l-31,10.65c-1.66.87-2.94,0-2.86-2A6.61,6.61,0,0,1,11.66,104.69Z"/><path class="cls-1" d="M74.53,105.29a167.56,167.56,0,0,0-18.21-4.63l2.83-8.25c5.13,1,10.75,2.63,16.49,4.31,11.45,3.34,43.64,10.75,50.6,12.34l-1,8C118.47,115.53,86,108.64,74.53,105.29Z"/><polygon class="cls-1" points="28.7 105.87 29.84 105.44 31.46 93.87 30.33 94.29 28.7 105.87"/><polygon class="cls-1" points="39.85 102.5 40.99 102.08 42.61 90.5 41.48 90.93 39.85 102.5"/><polygon class="cls-1" points="49.2 100.92 50.22 100.95 54.56 88.87 53.54 88.84 49.2 100.92"/><polygon class="cls-1" points="17.91 109.1 19.04 108.68 20.67 97.1 19.53 97.53 17.91 109.1"/><path class="cls-1" d="M8.51,109.8a6.61,6.61,0,0,1,3.15-5.11l27.28-9s6.91-2.84,10.56-2.52c.68.06,1.78-.82,2.59-.74l.78-2.26s-6.34-.64-10-1S30.56,90.6,30.56,90.6l-27.28,9a6.61,6.61,0,0,0-3.15,5.11,2.17,2.17,0,0,0,.93,2.15l8.22,5h0A2.28,2.28,0,0,1,8.51,109.8Z"/><path class="cls-1" d="M9.54,109.19c0,1.29.79,1.88,1.88,1.31a4.35,4.35,0,0,0,2.07-3.36c0-1.3-.79-1.88-1.88-1.31A4.33,4.33,0,0,0,9.54,109.19Z"/><path class="cls-1" d="M127.22,117.58c-11.83-2.77-40.71-9.27-51.22-12.34-12-3.52-23.41-7.48-31-5.08s-30.4,9.45-30.4,9.45l-.21,1.56c3.94-1.37,22.9-7.06,29.69-9.2,7.58-2.39,19,1.57,31,5.09,10.86,3.17,40.42,10,51.29,12.55Z"/><polygon class="cls-1" points="5.76 92.78 2.33 95.96 11.78 92.68 5.76 92.78"/><path class="cls-1" d="M48.41,89.61c7.59-2.39,19.08,1,31.12,4.47,10.26,3,37.18,9.26,47.67,11.68l-12.15-7.23c-10.49-2.41-37.41-8.67-47.67-11.67-12-3.52-23.53-6.86-31.12-4.47S5.76,92.78,5.76,92.78L17.91,100S40.82,92,48.41,89.61Z"/><path class="cls-1" d="M127.2,105.76c-10.49-2.42-37.41-8.68-47.67-11.68-12-3.52-23.53-6.86-31.12-4.47S17.91,100,17.91,100l1.66,5.87s22.94-8,30.52-10.41,19.08,1,31.12,4.47c10.64,3.11,39.22,9.73,48.78,11.93Z"/><polygon class="cls-1" points="135.36 96.82 135.36 97.49 111.78 83.87 111.78 83.2 135.36 96.82"/><polygon class="cls-1" points="143.79 92.62 135.36 97.49 135.36 96.82 143.79 91.95 143.79 92.62"/><polygon class="cls-1" points="143.79 91.95 135.36 96.82 111.78 83.2 120.21 78.34 143.79 91.95"/><path class="cls-1" d="M117,84.19V82a2.57,2.57,0,0,1,1.16-2c.64-.37,1.16-.07,1.16.67v2.18Z"/><path class="cls-1" d="M118.18,80a.81.81,0,0,1,.81-.08l-.89-.53a.84.84,0,0,0-.81.09,2.56,2.56,0,0,0-1.15,2v2.18l.88.52V82A2.57,2.57,0,0,1,118.18,80Z"/><path class="cls-1" d="M121.22,81.88l-2.43-1.41a.62.62,0,0,0-.61.06,1.91,1.91,0,0,0-.85,1.49.59.59,0,0,0,.25.56L120,84a.62.62,0,0,0,.61-.06,1.92,1.92,0,0,0,.86-1.49A.61.61,0,0,0,121.22,81.88Z"/><path class="cls-1" d="M120.19,86V83.85a2.57,2.57,0,0,1,1.16-2c.64-.37,1.16-.07,1.16.67v2.18Z"/><path class="cls-1" d="M120.74,83.53a1.38,1.38,0,0,1,.61-1.06c.34-.19.61,0,.61.36a1.34,1.34,0,0,1-.61,1C121,84.08,120.74,83.92,120.74,83.53Z"/><path class="cls-1" d="M121.35,81.84a.86.86,0,0,1,.82-.09l-.9-.52a.82.82,0,0,0-.8.09,2.57,2.57,0,0,0-1.16,2v2.18l.88.52V83.85A2.57,2.57,0,0,1,121.35,81.84Z"/><path class="cls-1" d="M132.05,93.23V91.05a2.57,2.57,0,0,1,1.16-2c.64-.37,1.15-.07,1.15.67v2.18Z"/><path class="cls-1" d="M133.21,89A.81.81,0,0,1,134,89l-.89-.52a.81.81,0,0,0-.81.08,2.57,2.57,0,0,0-1.16,2v2.18l.89.52V91.05A2.57,2.57,0,0,1,133.21,89Z"/><path class="cls-1" d="M136.25,90.93l-2.44-1.41a.58.58,0,0,0-.6.06,1.91,1.91,0,0,0-.86,1.49.61.61,0,0,0,.25.55L135,93a.58.58,0,0,0,.6-.06,1.88,1.88,0,0,0,.86-1.49A.61.61,0,0,0,136.25,90.93Z"/><path class="cls-1" d="M135.22,95.07V92.89a2.57,2.57,0,0,1,1.16-2c.64-.37,1.16-.07,1.16.67v2.18Z"/><path class="cls-1" d="M135.77,92.57a1.34,1.34,0,0,1,.61-1c.33-.2.61,0,.61.35a1.35,1.35,0,0,1-.61,1C136,93.12,135.77,93,135.77,92.57Z"/><path class="cls-1" d="M136.38,90.88a.81.81,0,0,1,.81-.08l-.89-.53a.84.84,0,0,0-.81.09,2.57,2.57,0,0,0-1.16,2v2.18l.89.52V92.89A2.57,2.57,0,0,1,136.38,90.88Z"/><polygon class="cls-1" points="106.69 89.81 105.88 91.57 133.54 91.95 133.9 90.34 106.69 89.81"/><polygon class="cls-1" points="67.24 90.39 69.16 91.14 106.08 91.21 106.48 90.33 67.24 90.39"/><polygon class="cls-1" points="93.42 81.91 92.61 83.66 118.58 82.88 119.58 80.93 93.42 81.91"/><polygon class="cls-1" points="56.47 83.81 55.86 84.87 92.81 83.3 93.22 82.42 56.47 83.81"/><path class="cls-1" d="M49.83,82.35l12.68,7.32c2.17.41,4.44.93,6.76,1.53l-12.8-7.39C54.18,83.23,52,82.73,49.83,82.35Z"/><path class="cls-1" d="M200.34,74l-2.41-1.36a1.59,1.59,0,0,0-1.62-.11,1.58,1.58,0,0,0-.69,1.45v7.91h0v41.93h.71v-14l5.13,3,0,15h.72l.08-50.37A4.2,4.2,0,0,0,200.34,74Zm-3.66-.85a.9.9,0,0,1,.89.11L200,74.6a3.53,3.53,0,0,1,1.59,2.73l0,13.66-5.17-3V81.7h-.06V74A.92.92,0,0,1,196.68,73.12ZM196.39,109V88.83l5.16,3,0,20.11Z"/><polygon class="cls-1" points="187.24 96.47 196.32 91.23 195.96 90.61 187.24 95.65 187.24 85.71 187.24 85.72 196.32 80.47 195.96 79.85 186.88 85.09 187.06 85.41 186.52 85.41 186.52 127.5 187.24 127.5 187.24 117.99 187.24 117.99 196.32 112.75 195.96 112.13 187.24 117.17 187.24 107.23 187.24 107.23 196.32 101.99 195.96 101.37 187.24 106.41 187.24 96.47 187.24 96.47"/><path class="cls-1" d="M191.24,77.64l-2.41-1.37a1.6,1.6,0,0,0-1.61-.11,1.58,1.58,0,0,0-.7,1.45v7.91h0v41.93h.71v-14l5.14,3,0,15h.72L193.2,81A4.18,4.18,0,0,0,191.24,77.64Zm-3.66-.86a.9.9,0,0,1,.89.11l2.42,1.37A3.53,3.53,0,0,1,192.48,81l0,13.66-5.17-3V85.36h0V77.61A.92.92,0,0,1,187.58,76.78Zm-.29,35.83V92.5l5.17,3,0,20.1Z"/><circle class="cls-2" cx="162.63" cy="9.79" r="6.25"/><circle class="cls-2" cx="210.92" cy="35.21" r="6.25"/><circle class="cls-2" cx="252.81" cy="19.08" r="6.25"/></g></g></svg>