<?xml version="1.0" encoding="utf-8"?>
<!-- Generator: Adobe Illustrator 26.0.1, SVG Export Plug-In . SVG Version: 6.00 Build 0)  -->
<svg version="1.1" id="Layer_1" xmlns="http://www.w3.org/2000/svg" xmlns:xlink="http://www.w3.org/1999/xlink" x="0px" y="0px"
	 viewBox="0 0 260 200" style="enable-background:new 0 0 260 200;" xml:space="preserve">
<style type="text/css">
	.st0{fill:#EEEEEF;stroke:#231916;stroke-width:0.25;stroke-miterlimit:10;}
	.st1{opacity:0.2;fill:#EEEEEF;stroke:#231916;stroke-width:0.25;stroke-miterlimit:10;enable-background:new    ;}
	.st2{opacity:0.5;fill:#EEEEEF;stroke:#231916;stroke-width:0.25;stroke-miterlimit:10;enable-background:new    ;}
	.st3{fill:#DD2625;}
</style>
<g>
	<g id="Layer_2_00000122710027114492362370000010763546398875593385_">
		<g id="Layer_1-2">
			<polygon class="st0" points="87.4,179.9 29,146.3 29,149.6 87.4,183.3 			"/>
			<path class="st0" d="M82.7,178.5l-24.3-13.8c-0.4-0.2-0.8-0.1-1.1,0.1c-0.9,0.6-1.5,1.6-1.5,2.6c0,0.4,0.1,0.8,0.5,1l24.3,13.8
				c0.4,0.2,0.8,0.1,1.1-0.1c0.9-0.6,1.5-1.6,1.5-2.6C83.2,179.1,83,178.7,82.7,178.5z"/>
			<path class="st0" d="M83.1,179.4c-0.1,1.1-0.6,2.1-1.5,2.6c-0.4,0.3-1,0.3-1.3-0.1c-0.2-0.2-0.3-0.5-0.2-0.8
				c0.1-1.1,0.6-2.1,1.5-2.6c0.3-0.2,0.7-0.3,1.1-0.1C83,178.7,83.2,179.1,83.1,179.4z"/>
			<path class="st0" d="M81.9,182c-0.8,0.4-1.4,0.1-1.4-0.8c0.1-1,0.6-1.9,1.4-2.5l2.1-1.2v3.3L81.9,182z"/>
			<path class="st0" d="M57.5,168c-0.8,0.4-1.4,0.1-1.4-0.8c0-1,0.6-1.9,1.4-2.5l2.1-1.2v3.3L57.5,168z"/>
			<path class="st0" d="M54,162.4l-24.3-13.9c-0.3-0.2-0.8-0.1-1.1,0.1c-0.9,0.6-1.5,1.6-1.5,2.6c-0.1,0.4,0.1,0.8,0.4,1l24.3,13.8
				c0.3,0.2,0.8,0.1,1.1-0.1c0.9-0.6,1.5-1.6,1.5-2.6C54.5,163,54.3,162.6,54,162.4z"/>
			<path class="st0" d="M54.5,163.4c-0.1,1.1-0.6,2-1.5,2.6c-0.3,0.2-0.7,0.3-1.1,0.1c-0.3-0.2-0.5-0.6-0.5-1c0.1-1.1,0.6-2,1.5-2.6
				c0.4-0.3,1-0.3,1.3,0.1C54.4,162.8,54.5,163.1,54.5,163.4L54.5,163.4z"/>
			<path class="st0" d="M53.3,165.9c-0.8,0.4-1.4,0.1-1.4-0.8c0.1-1,0.6-1.9,1.4-2.4l2.1-1.2v3.3L53.3,165.9z"/>
			<path class="st0" d="M28.8,151.9c-0.8,0.4-1.4,0.1-1.4-0.8c0.1-1,0.6-1.9,1.4-2.5l2.1-1.2v3.3L28.8,151.9z"/>
			<path class="st0" d="M158.6,129l-53,34.2c-2.9,1.9-4.8,5.1-5,8.6c0,3.2,2.2,4.4,5,2.9l53-30.6c3.9-2.5,6.3-6.7,6.5-11.3
				C165.2,128.6,162.2,126.9,158.6,129z"/>
			<path class="st0" d="M158.6,130.9l-53,34.1c-2,1.3-3.2,3.5-3.4,5.8c0,2.1,1.5,3,3.4,2l53-30.7c2.8-1.9,4.6-5,4.8-8.4
				C163.5,130.6,161.3,129.4,158.6,130.9z"/>
			<polygon class="st0" points="105.8,164.9 105.8,170.2 158.9,139.6 158.9,133.7 115,158.9 			"/>
			<path class="st0" d="M163.5,133.7c0-3.1-2.2-4.3-4.8-2.8c-2.9,1.9-4.6,5-4.8,8.4c0,3.1,2.2,4.3,4.8,2.8
				C161.5,140.2,163.3,137.1,163.5,133.7z"/>
			<path class="st0" d="M162.5,134.3c0-2.5-1.7-3.5-3.9-2.2c-2.3,1.5-3.7,4-3.9,6.7c0,2.5,1.7,3.5,3.9,2.2
				C160.9,139.5,162.4,137,162.5,134.3z"/>
			<path class="st0" d="M161.4,134.9c0-1.8-1.3-2.5-2.8-1.6c-1.7,1.1-2.7,2.9-2.8,4.9c0,1.8,1.3,2.5,2.8,1.6
				C160.3,138.7,161.3,136.9,161.4,134.9z"/>
			<path class="st0" d="M109,166.9c0-2.1-1.5-3-3.4-2c-2,1.3-3.2,3.5-3.4,5.8c0,2.1,1.5,3,3.4,2C107.6,171.5,108.9,169.3,109,166.9z
				"/>
			<path class="st0" d="M108.4,167.3c0-1.7-1.2-2.4-2.7-1.6c-1.6,1.1-2.6,2.8-2.7,4.8c0,1.7,1.2,2.4,2.7,1.6
				C107.3,171,108.3,169.2,108.4,167.3z"/>
			<path class="st0" d="M100.7,171.7c0.2-3.5,2.1-6.7,5-8.6l53-34.2c1.8-1,3.4-1.1,4.6-0.5l-9.6-5.4c-1.2-0.7-2.8-0.6-4.6,0.4
				L96,157.7c-2.9,1.9-4.8,5.1-5,8.6c-0.1,1.3,0.5,2.5,1.5,3.2l9.5,5.4l0,0C101.1,174.2,100.5,173,100.7,171.7z"/>
			<path class="st0" d="M159.7,128.4c-0.1,0-0.2,0.1-0.4,0.1l-9.5-5.5l0.4-0.2L159.7,128.4z"/>
			<polygon class="st0" points="155.8,130.8 155.5,131 145.9,125.5 146.2,125.3 			"/>
			<polygon class="st0" points="151.9,133.3 151.7,133.5 142.1,128 142.4,127.8 			"/>
			<polygon class="st0" points="148.1,135.7 147.9,135.9 138.3,130.4 138.6,130.2 			"/>
			<polygon class="st0" points="144.3,138.2 144,138.4 134.5,132.9 134.8,132.7 			"/>
			<polygon class="st0" points="140.5,140.7 140.2,140.8 130.7,135.3 131,135.2 			"/>
			<polygon class="st0" points="136.7,143.1 136.4,143.3 126.9,137.8 127.2,137.6 			"/>
			<polygon class="st0" points="132.9,145.6 132.6,145.8 123.1,140.3 123.4,140.1 			"/>
			<polygon class="st0" points="129.1,148 128.8,148.2 119.3,142.7 119.6,142.5 			"/>
			<polygon class="st0" points="125.3,150.5 125,150.7 115.5,145.2 115.8,145 			"/>
			<polygon class="st0" points="121.5,153 121.2,153.1 111.7,147.6 111.9,147.5 			"/>
			<polygon class="st0" points="117.7,155.4 117.4,155.6 107.8,150.1 108.1,149.9 			"/>
			<polygon class="st0" points="113.8,157.9 113.6,158.1 104,152.6 104.3,152.4 			"/>
			<polygon class="st0" points="110,160.3 109.8,160.5 100.2,155 100.5,154.8 			"/>
			<polygon class="st0" points="106.2,162.8 105.9,163 96.4,157.5 96.7,157.3 			"/>
			<path class="st0" d="M103,165.6c-0.1,0.1-0.1,0.2-0.2,0.2l-9.6-5.5c0.1-0.1,0.1-0.2,0.2-0.2L103,165.6z"/>
			<path class="st0" d="M101.1,169.2c0,0.1-0.1,0.2-0.1,0.3l-9.6-5.5l0.1-0.3L101.1,169.2z"/>
			<path class="st0" d="M101.4,174.4l-9.7-5.6c-0.1-0.2-0.2-0.3-0.3-0.5l9.7,5.6C101.2,174,101.3,174.2,101.4,174.4z"/>
			<polygon class="st0" points="210.3,112 220.8,105.9 220.8,101.7 211.4,107.2 210.3,108.5 			"/>
			<polygon class="st0" points="211.4,107.2 220.8,101.7 161.1,67.2 151.6,72.7 			"/>
			<polygon class="st0" points="210.3,112 150.6,77.5 150.6,74 210.3,108.5 			"/>
			<polygon class="st0" points="211.4,107.2 151.6,72.7 150.6,74 210.3,108.5 			"/>
			<polygon class="st0" points="165.7,70.7 193.6,86.9 199.9,83.3 171.8,67.2 			"/>
			<polygon class="st0" points="193.6,86.9 193.6,99.6 199.9,96.1 199.9,83.3 			"/>
			<polygon class="st0" points="165.7,83.5 193.6,99.6 193.6,86.9 165.7,70.7 			"/>
			<polygon class="st0" points="132.4,79.4 132.4,97.6 180.6,125.6 180.6,107.4 			"/>
			<polygon class="st0" points="202.1,95 180.6,107.4 132.4,79.4 153.8,67 			"/>
			<path class="st0" d="M149,85.7l-9.4-5.4l9.4-5.4l9.4,5.4L149,85.7z M140.5,80.3l8.6,4.9l8.6-4.9l-8.6-5L140.5,80.3z"/>
			<path class="st0" d="M176,100.3l-9.4-5.4l9.4-5.4l9.4,5.4L176,100.3z M167.5,94.9l8.6,4.9l8.6-4.9l-8.6-4.9L167.5,94.9z"/>
			<polygon class="st0" points="168.6,119.3 140.9,135.4 140.9,116.3 168.6,100.2 			"/>
			<polygon class="st0" points="204.4,111.8 180.6,125.6 180.6,107.4 202.1,95 204.4,95.8 			"/>
			<path class="st0" d="M158.7,128.1c-4,6.3-9.7,17.1-13.1,19l-8.5,4.9v3.6l9.8-5.7c5.2-3,11.9-14.3,15.8-20.6
				c4-6.3,11.6-10.7,17.9-14.3v-7.5C172.2,112.3,162.6,121.8,158.7,128.1z"/>
			<polygon class="st0" points="137.1,155.6 134.9,154.3 134.9,150.8 137.1,152 			"/>
			<path class="st0" d="M178.4,106.2c-8.4,4.9-18,14.4-22,20.7s-9.7,17.1-13.1,19l-8.5,4.9l2.2,1.3l8.5-4.9
				c3.4-1.9,9.1-12.8,13.1-19s13.5-15.8,22-20.7L178.4,106.2z"/>
			<polygon class="st0" points="202.1,95 204.4,95.8 156.1,67.9 153.8,67 			"/>
			<polygon class="st0" points="131.9,156.2 133.3,157 133.3,140.5 131.9,139.7 			"/>
			<polygon class="st0" points="133.3,157 136.5,155.2 136.5,138.7 133.3,140.5 			"/>
			<path class="st0" d="M130.6,154l-1.8-1c-0.4-0.2-0.9-0.1-1.3,0.1c-1,0.7-1.7,1.8-1.8,3.1c0,0.5,0.2,0.9,0.5,1.2l1.8,1
				c0.4,0.2,0.9,0.1,1.3-0.1c1.1-0.7,1.7-1.8,1.8-3.1C131.2,154.7,131,154.2,130.6,154z"/>
			<path class="st0" d="M131.1,155.1c-0.1,1.3-0.7,2.4-1.8,3.1c-0.4,0.4-1.1,0.4-1.5-0.1c-0.2-0.2-0.3-0.6-0.3-0.9
				c0.1-1.3,0.7-2.4,1.8-3.1c0.4-0.3,0.8-0.3,1.3-0.1C131,154.3,131.2,154.7,131.1,155.1z"/>
			<polygon class="st0" points="204.2,105.9 182.8,118.2 182.8,123.6 204.2,111.3 			"/>
			<polygon class="st0" points="203.1,108.9 183.4,120.3 208.4,134.7 228.1,123.3 			"/>
			<polygon class="st0" points="183.4,118.5 183.4,122.2 208.4,136.5 208.4,132.9 			"/>
			<polygon class="st0" points="225,125.1 225,123.4 200,109 200,110.7 			"/>
			<path class="st0" d="M224.4,124.2L199,109.7c-0.2-0.1-0.3-0.1-0.5,0c-0.4,0.3-0.7,0.7-0.7,1.2c0,0.2,0.1,0.4,0.2,0.5l25.4,14.5
				c0.2,0.1,0.4,0,0.5-0.1c0.4-0.3,0.7-0.7,0.7-1.2C224.6,124.4,224.5,124.3,224.4,124.2z"/>
			<path class="st0" d="M213.1,130.7l-25.4-14.5c-0.2-0.1-0.3-0.1-0.5,0c-0.4,0.3-0.7,0.7-0.7,1.2c0,0.2,0.1,0.4,0.2,0.5l25.4,14.5
				c0.2,0.1,0.4,0,0.5-0.1c0.4-0.3,0.7-0.7,0.7-1.2C213.3,130.9,213.2,130.8,213.1,130.7z"/>
			<polygon class="st0" points="225,123.4 228.1,121.6 203.1,107.2 200,109 			"/>
			<polygon class="st0" points="186.2,116.9 183.4,118.5 208.4,132.9 211.2,131.3 			"/>
			<polygon class="st0" points="225,125.1 211.2,133.1 211.2,131.3 208.4,132.9 208.4,136.5 228.1,125.2 228.1,121.6 225,123.4 			
				"/>
			<polygon class="st0" points="192.4,115.1 217.4,129.5 220.3,127.8 195.3,113.5 			"/>
			<path class="st0" d="M191,105.3c-1.1,0.8-1.7,2-1.7,3.3c0,1.3,0.8,1.9,1.7,1.3l13.5-7.8v-6.7L191,105.3z"/>
			<polygon class="st0" points="196,104.9 199.8,102.7 199.8,100.5 196,102.7 			"/>
			<polygon class="st0" points="232.6,128.8 201.7,146.6 197.5,146.5 197.5,137.4 201.7,130.8 232.6,113 			"/>
			<polygon class="st0" points="206.3,134 235.7,117 232.6,114.9 232.6,117.6 205.3,133.4 			"/>
			<path class="st0" d="M200.4,135.6c0,0.8,0.5,1.2,1.1,0.9c0.7-0.5,1.1-1.3,1.1-2.1c0-0.8-0.5-1.2-1.1-0.9
				C200.9,134,200.5,134.8,200.4,135.6z"/>
			<polygon class="st0" points="202.1,145.1 229.4,129.3 229.4,127.4 202.1,143.2 			"/>
			<polygon class="st0" points="232.6,119.3 205.3,135.1 205.3,138.3 232.6,124 			"/>
			<polygon class="st0" points="201.7,130.8 196.4,127.5 227.3,109.6 232.6,113 			"/>
			<polygon class="st0" points="201.7,130.8 196.4,127.5 192.3,134.1 197.5,137.4 			"/>
			<polygon class="st0" points="197.5,146.5 192.3,143.2 192.3,134.1 197.5,137.4 			"/>
			<polygon class="st0" points="206.3,137.2 235.7,121.7 235.7,117 206.3,134 			"/>
			<polygon class="st0" points="211.4,133.8 207.5,136 207.5,134.2 211.4,132 			"/>
			<polygon class="st0" points="231.3,116.8 227.5,119 227.5,117.2 231.3,115 			"/>
			<path class="st0" d="M201.7,128.1c-0.2,0-0.4-0.2-0.4-0.4c0,0,0,0,0,0V118c0-2.5,1.2-4.8,3.2-6.3l19.5-11.3
				c0.7-0.5,1.6-0.5,2.4-0.2c0.9,0.7,1.4,1.8,1.3,2.9v9.7c0,0.2-0.2,0.4-0.4,0.4s-0.4-0.2-0.4-0.4v-9.6c0.1-0.8-0.2-1.7-0.9-2.2
				c-0.5-0.2-1.1-0.2-1.6,0.2L205,112.5c-1.8,1.3-2.8,3.4-2.9,5.6v9.6C202.1,127.9,201.9,128.1,201.7,128.1z"/>
			<polygon class="st0" points="206.3,137.2 205.3,136.6 205.3,133.4 206.3,134 			"/>
			<path class="st0" d="M205.2,101.1c-0.2,0-0.4-0.2-0.4-0.4V72.3c0-0.4,0-1-0.3-1.1c-0.3-0.1-0.4,0-0.8,0.2
				c-1.5,0.9-1.9,2.8-2.9,7.3v0.1c-1,4.7-2.6,15.8-2.7,15.9c0,0.2-0.2,0.4-0.4,0.3c-0.2,0-0.4-0.2-0.3-0.4c0,0,0,0,0,0
				c0-0.1,1.7-11.2,2.7-16v-0.1c1-4.8,1.4-6.8,3.3-7.9c0.5-0.4,1.1-0.4,1.6-0.1c0.7,0.5,0.7,1.7,0.6,1.8v28.3
				C205.7,100.9,205.5,101.1,205.2,101.1C205.3,101.1,205.3,101.1,205.2,101.1z"/>
			<path class="st0" d="M165.1,77c-0.2,0-0.4-0.2-0.4-0.4c0,0,0,0,0,0V48.3c0-0.4,0-1-0.3-1.1s-0.4,0-0.8,0.2
				c-1.5,0.9-1.9,2.8-2.9,7.3v0.1c-1,4.7-2.6,15.8-2.7,15.9c0,0.2-0.3,0.4-0.5,0.3c-0.2,0-0.3-0.2-0.3-0.4c0-0.1,1.7-11.2,2.7-16
				v-0.1c1-4.8,1.4-6.8,3.3-7.9c0.5-0.4,1.1-0.4,1.6-0.2c0.7,0.5,0.7,1.7,0.6,1.8v28.4C165.5,76.9,165.4,77,165.1,77z"/>
			<path class="st0" d="M167.1,98.4c-0.1,0-0.3-0.1-0.4-0.2c-0.1-0.2,0-0.4,0.1-0.6L187,86.1c1-0.7,1.7-1.8,1.8-3V70
				c0-0.5-0.2-0.9-0.5-1.2c-0.3-0.2-0.6-0.2-0.9-0.2l-12,3.3c-0.2,0.1-0.4-0.1-0.5-0.3c0,0,0,0,0,0c-0.1-0.2,0.1-0.4,0.3-0.5l12-3.3
				c0.5-0.2,1.1-0.1,1.6,0.3c0.5,0.5,0.8,1.1,0.8,1.9V83c-0.1,1.5-0.9,2.9-2.1,3.7l-20.1,11.5C167.3,98.3,167.2,98.4,167.1,98.4z"/>
			<path class="st0" d="M173.1,85.2c-0.1,0-0.3-0.1-0.4-0.2c-0.1-0.2,0-0.4,0.1-0.5l16-9.2c0.2-0.1,0.4,0,0.5,0.2
				c0.1,0.2,0,0.4-0.1,0.5l-16,9.2C173.3,85.2,173.2,85.2,173.1,85.2z"/>
			<path class="st0" d="M128.9,141.1c-0.4-0.2-0.9-0.2-1.4,0c-0.2,0.1-0.3,0.2-0.3,0.4v12.1c0,0.2,0.1,0.3,0.3,0.4
				c0.4,0.2,0.9,0.2,1.4,0c0.2-0.1,0.3-0.2,0.3-0.4v-12.1C129.2,141.3,129.1,141.2,128.9,141.1z"/>
			<path class="st0" d="M129.4,119.2c-0.7-0.4-1.6-0.4-2.3,0c-0.3,0.1-0.5,0.4-0.5,0.7v21.7c0,0.3,0.2,0.6,0.5,0.7
				c0.7,0.4,1.6,0.4,2.3,0c0.3-0.1,0.5-0.4,0.5-0.7v-21.7C129.9,119.5,129.7,119.3,129.4,119.2z"/>
			<path class="st0" d="M125.6,124.3l0.8,6l2.6-1.5l1.1,12.8l12.6-7.3c8.1-17.4,19.4-26.3,25.9-30.1l0.2-0.3v-4.5L125.6,124.3z"/>
			<polygon class="st0" points="168.8,99.3 125.6,124.3 125.6,122.6 168.8,97.6 			"/>
			<polygon class="st0" points="131.1,46 131.1,51 121.4,73.9 125.2,71.8 134.2,50.3 134.2,44.3 			"/>
			<polygon class="st0" points="134.2,44.3 131.1,46 128.5,44.7 131.5,42.9 			"/>
			<polygon class="st0" points="131.1,51 131.1,46 128.5,44.7 128.5,49.6 			"/>
			<polygon class="st0" points="131.1,51 121.4,73.9 118.8,72.6 128.5,49.6 			"/>
			<polygon class="st0" points="128.6,56.9 124.3,67.1 165.6,90.9 169.9,80.7 			"/>
			<polygon class="st0" points="174.8,71.8 174.8,76.8 165.1,99.8 168.8,97.6 177.8,76.1 177.8,70.1 			"/>
			<polygon class="st0" points="177.8,70.1 174.8,71.8 172.1,70.5 175.2,68.7 			"/>
			<polygon class="st0" points="174.8,76.8 174.8,71.8 172.1,70.5 172.1,75.4 			"/>
			<polygon class="st0" points="174.8,76.8 165.1,99.8 162.4,98.4 172.1,75.4 			"/>
			<polygon class="st0" points="168.1,92.4 150.3,102.7 103.7,75.8 121.5,65.5 			"/>
			<path class="st0" d="M107.6,74.5c-0.2,0-0.4-0.2-0.4-0.4l-1.1-9.9c-0.1-1.4,0.7-2.8,1.9-3.6l3-1.8c0.6-0.4,1.3-0.4,1.9-0.2
				c0.5,0.3,0.9,0.8,0.9,1.5l1.1,9.9c0,0.2-0.1,0.4-0.3,0.4c0,0,0,0,0,0c-0.2,0-0.4-0.1-0.4-0.3l-1.1-9.9c0-0.3-0.2-0.6-0.5-0.8
				c-0.4-0.1-0.8-0.1-1.1,0.2l-3,1.8c-1,0.6-1.6,1.7-1.5,2.8l1.1,9.9C108,74.3,107.9,74.5,107.6,74.5L107.6,74.5z"/>
			<path class="st0" d="M114,65.4c-0.1,0-0.3-0.1-0.3-0.2c-0.1-0.2-0.1-0.4,0.1-0.5c0,0,0,0,0,0l9.9-5.7c1-0.7,1.7-1.8,1.8-3v-0.8
				c0.1-0.4-0.1-0.9-0.6-1c-0.3-0.1-0.6,0-0.8,0.2l-10.5,6c-0.2,0.1-0.4,0.1-0.6-0.1c-0.1-0.2-0.1-0.4,0.1-0.6c0,0,0.1,0,0.1-0.1
				l10.5-6c0.5-0.4,1.2-0.4,1.8-0.1c0.5,0.4,0.8,1,0.8,1.6v0.8c-0.1,1.5-0.9,2.9-2.2,3.7l-9.9,5.7C114.2,65.4,114.1,65.4,114,65.4z"
				/>
			<path class="st0" d="M160.6,83.9l0.1-2.2c0,0-5.5,2-7.1,2.8c-1.5,0.8-1.7,4.2-1.7,4.3S160.6,83.9,160.6,83.9z"/>
			<path class="st0" d="M153.7,84.5c1.5-0.9,7.1-2.8,7.1-2.8l-8.6-5.1c0,0-5.6,2-7.1,2.8c-1.5,0.8-1.7,4.2-1.7,4.3s8.6,5.1,8.6,5.1
				S152.2,85.4,153.7,84.5z"/>
			<path class="st0" d="M161.9,81.1l-0.2-14.3c-0.9,0.3-1.5,1-1.8,1.8c-0.6,1.6-0.5,9.9-0.7,11.2S159.5,82.1,161.9,81.1z"/>
			<path class="st0" d="M159.2,79.8c0.2-1.4,0-9.7,0.7-11.2c0.3-0.9,0.9-1.5,1.8-1.8l-5.8-3.6c-0.9,0.3-1.5,1-1.8,1.8
				c-0.6,1.6-3.3,8.4-3.5,9.7c-0.1,0.7,0,1.2,0.4,1.5l8.5,5.1l0,0C159.2,80.9,159.1,80.3,159.2,79.8z"/>
			<path class="st0" d="M161.4,65.1l-0.4-3.6c0,0-2.1,1.2-1.8,3.2C159.6,66.7,161.2,65.2,161.4,65.1z"/>
			<path class="st0" d="M159.2,64.7c-0.3-2,1.8-3.2,1.8-3.2l-3-1.8c0,0-2,1.2-1.8,3.2c0,0.4,0.2,0.8,0.5,1l3,1.8l0,0
				C159.5,65.5,159.3,65.1,159.2,64.7z"/>
			<path class="st0" d="M137.8,71.3l0.2-2.2c0,0-5.6,2-7.1,2.8s-1.7,4.2-1.7,4.3S137.8,71.3,137.8,71.3z"/>
			<path class="st0" d="M130.8,72c1.5-0.9,7.1-2.8,7.1-2.8l-8.6-5.1c0,0-5.6,2-7.1,2.8s-1.7,4.2-1.7,4.3s8.6,5.1,8.6,5.1
				C129.1,76.2,129.3,72.8,130.8,72z"/>
			<path class="st0" d="M139.1,68.5l-0.3-14.3c-0.9,0.3-1.5,1-1.8,1.8c-0.6,1.6-0.5,9.9-0.7,11.3C136.1,68.6,136.6,69.5,139.1,68.5z
				"/>
			<path class="st0" d="M136.4,67.3c0.2-1.4,0.1-9.7,0.7-11.3c0.3-0.9,0.9-1.5,1.8-1.8l-5.8-3.6c-0.9,0.3-1.5,1-1.8,1.8
				c-0.6,1.6-3.3,8.3-3.5,9.7c-0.1,0.7,0,1.2,0.4,1.5l8.5,5l0,0C136.3,68.3,136.2,67.8,136.4,67.3z"/>
			<path class="st0" d="M138.6,52.6l-0.5-3.6c0,0-2,1.2-1.8,3.2S138.4,52.7,138.6,52.6z"/>
			<path class="st0" d="M136.4,52.2c-0.3-2,1.8-3.2,1.8-3.2l-3-1.8c0,0-2.1,1.2-1.8,3.2c0.1,0.6,0.3,0.8,0.5,1l3,1.8l0,0
				C136.6,52.9,136.4,52.6,136.4,52.2z"/>
			<polygon class="st0" points="150.4,108.3 143.4,112.3 143.4,100.4 145.1,97.5 150.4,94.5 			"/>
			<polygon class="st0" points="137.6,77.9 130.9,74 135.8,73.1 142.5,77 			"/>
			<polygon class="st0" points="134.9,76.9 128.2,73 130.1,77.3 136.9,81.2 			"/>
			<polygon class="st0" points="134.9,76.9 128.2,73 129,71.7 135.7,75.6 			"/>
			<polygon class="st0" points="145.1,97.5 98.8,70.5 103.8,67.6 150.4,94.5 			"/>
			<polygon class="st0" points="174.9,51.4 174.9,71.2 173.3,70.3 173.3,50.5 			"/>
			<polygon class="st0" points="176.4,50.5 174.9,51.4 174.9,71.2 176.4,70.3 			"/>
			<polygon class="st0" points="94.7,45.3 102.9,71.8 101.3,70.9 93.2,44.4 			"/>
			<polygon class="st0" points="96.3,44.4 94.7,45.3 102.9,71.8 104.5,70.9 			"/>
			<polygon class="st0" points="143.4,100.4 137.3,103.9 125.6,118.4 125.6,122.6 143.4,112.3 			"/>
			<polygon class="st0" points="125.6,122.6 79,95.8 79,91.6 125.6,118.4 			"/>
			<polygon class="st0" points="137.3,103.9 90.7,77.1 79,91.6 125.6,118.4 			"/>
			<polygon class="st0" points="137.3,103.9 90.7,77.1 96.8,73.6 143.4,100.4 			"/>
			<polygon class="st0" points="145.1,97.5 98.8,70.5 96.8,73.6 143.4,100.4 			"/>
			<polygon class="st0" points="134.9,86.9 128.2,83 130.1,77.3 136.9,81.2 			"/>
			<polygon class="st0" points="137.6,77.9 135.7,75.6 134.9,76.9 136.9,81.2 134.9,86.9 136.2,86.2 137.9,87.3 140.6,82 
				140.9,79.9 142.4,78.2 142.5,77 			"/>
			<polygon class="st0" points="137.5,69.8 145.6,96.3 144.1,95.4 135.9,68.9 			"/>
			<polygon class="st0" points="139,68.9 137.5,69.8 145.6,96.3 147.2,95.4 			"/>
			<polygon class="st0" points="147.2,104.4 147.2,110.1 165.1,99.7 168.3,92.2 			"/>
			<polygon class="st0" points="147.2,110.1 149.2,108.9 149.2,103.2 147.2,104.4 			"/>
			<polygon class="st0" points="90.2,41 95.8,41.9 133.9,63.9 138.9,69.2 138.9,72.7 90.2,44.5 			"/>
			<polygon class="st0" points="176,39.6 133.9,63.9 95.8,41.9 137.9,17.6 			"/>
			<polygon class="st0" points="176,39.6 133.9,63.9 138.9,69.2 181.1,44.8 			"/>
			<polygon class="st0" points="181.1,48.3 138.9,72.7 138.9,69.2 181.1,44.8 			"/>
			<polygon class="st0" points="132.4,16.6 90.2,41 95.8,41.9 137.9,17.6 			"/>
			<path class="st0" d="M153,99.8c-0.2,0-0.4-0.2-0.4-0.3l-1.1-9.9c-0.1-1.5,0.7-2.9,1.9-3.6l3-1.8c0.6-0.4,1.3-0.4,1.9-0.2
				c0.5,0.3,0.9,0.8,0.9,1.4l1.1,9.9c0,0.2-0.1,0.4-0.3,0.5c-0.2,0-0.4-0.1-0.5-0.3c0,0,0-0.1,0-0.1l-1.1-9.9c0-0.3-0.2-0.6-0.5-0.8
				c-0.4-0.1-0.8-0.1-1.1,0.1l-3,1.8c-1,0.6-1.5,1.7-1.5,2.8l1.1,9.9c0,0.2-0.1,0.4-0.4,0.4H153z"/>
			<path class="st0" d="M159.4,90.7c-0.1,0-0.3-0.1-0.4-0.2c-0.1-0.2,0-0.4,0.1-0.5l9.9-5.7c1-0.7,1.7-1.8,1.8-3v-0.8
				c0-0.4-0.1-0.7-0.4-0.9c-0.3-0.1-0.7-0.1-1,0.1l-10.5,6c-0.2,0.1-0.4,0.1-0.5-0.1c0,0,0,0,0,0c-0.1-0.2-0.1-0.4,0.1-0.5
				c0,0,0,0,0,0l10.5-6c0.7-0.5,1.7-0.4,2.2,0.2c0.3,0.3,0.4,0.8,0.3,1.2v0.8c-0.1,1.5-0.9,2.9-2.1,3.7l-9.9,5.7
				C159.5,90.7,159.5,90.7,159.4,90.7z"/>
			<path class="st0" d="M142.6,118.3c0,0.7-0.4,1.3-1,1.7l-10.4,6c-0.5,0.3-1,0.1-1-0.6v-0.3c0-0.7,0.4-1.3,1-1.7l10.4-6
				c0.5-0.3,1-0.1,1,0.6V118.3z"/>
			<path class="st0" d="M142.8,122.3c0,0.7-0.4,1.3-1,1.7l-10.2,5.9c-0.5,0.3-1,0.1-1-0.6V129c0-0.7,0.4-1.3,1-1.7l10.2-5.8
				c0.5-0.3,1-0.1,1,0.6L142.8,122.3z"/>
			<path class="st0" d="M142.9,126.3c0,0.7-0.4,1.3-1,1.7l-9.9,5.7c-0.5,0.3-1,0.1-1-0.6v-0.3c0-0.7,0.4-1.3,1-1.7l10-5.7
				c0.5-0.3,1-0.1,1,0.6L142.9,126.3z"/>
			<path class="st0" d="M143.1,130.3c0,0.7-0.4,1.3-1,1.7l-9.7,5.6c-0.5,0.3-1,0.1-1-0.6v-0.3c0-0.7,0.4-1.3,1-1.7l9.8-5.6
				c0.5-0.3,1-0.1,1,0.6L143.1,130.3z"/>
			<polygon class="st0" points="114.9,143.6 92.2,130.6 92.2,127.2 117,141.5 			"/>
			<polygon class="st0" points="78.7,167.2 114.9,143.6 92.2,130.6 56,154.1 			"/>
			<polygon class="st0" points="72.3,92 131.9,126.2 135.9,145.8 133.2,150.8 73.7,116.5 69.9,106.2 			"/>
			<polygon class="st0" points="73.7,116.5 28.1,146.2 24.3,135.8 69.9,106.2 			"/>
			<path class="st0" d="M72.3,92l-2.4,14.2l-45.6,29.6c1.1-2.7,1.7-4.1,2.4-5.8C27.7,127.8,28.4,122,72.3,92z"/>
			<polygon class="st0" points="125.2,122.4 78.6,96.2 92.2,127.2 92.3,127.2 117,141.5 			"/>
			<polygon class="st0" points="28.1,146.2 46.6,156.9 92.2,127.2 73.7,116.5 			"/>
			<polygon class="st0" points="95,128.8 92.2,127.2 46.6,156.8 56,154.1 			"/>
			<polygon class="st0" points="106.4,147.7 105.2,148.4 83.3,135.7 84.5,135 			"/>
			<polygon class="st1" points="105.2,137.4 67.5,161.7 65.2,160.4 102.9,136.1 			"/>
			<polygon class="st0" points="105.2,148.4 105.2,149.1 83.3,136.5 83.3,135.7 			"/>
			<polygon class="st0" points="113.7,142.8 112.5,143.5 90.6,130.8 91.8,130.1 			"/>
			<polygon class="st0" points="112.5,143.5 112.5,144.2 90.6,131.6 90.6,130.8 			"/>
			<polygon class="st0" points="99.4,152.1 98.2,152.8 76.3,140.2 77.5,139.5 			"/>
			<polygon class="st0" points="98.2,152.8 98.2,153.6 76.3,140.9 76.3,140.2 			"/>
			<polygon class="st0" points="91.8,157.1 90.6,157.7 68.6,145.1 69.8,144.4 			"/>
			<polygon class="st0" points="90.6,157.7 90.6,158.5 68.6,145.9 68.6,145.1 			"/>
			<polygon class="st0" points="84.3,162.1 83.1,162.8 61.2,150.1 62.4,149.4 			"/>
			<polygon class="st0" points="83.1,162.8 83.1,163.6 61.2,150.9 61.2,150.1 			"/>
			<polygon class="st0" points="69.3,169.9 87.6,180.4 133.2,150.8 114.9,140.2 			"/>
			<polygon class="st0" points="133.2,150.8 87.6,180.4 90.2,174.8 135.9,145.8 			"/>
			<polygon class="st0" points="105.2,134.8 67.5,159.1 67.5,160.5 107.3,135 			"/>
			<polygon class="st2" points="114.9,143.6 92.2,130.6 92.2,127.2 117,141.5 			"/>
			<polygon class="st0" points="105.2,134.8 67.5,159.1 65.2,157.7 102.9,133.5 			"/>
			<path class="st0" d="M131.9,126.2l4,19.6l-45.6,29c0,0-2.6-7.9-1.2-11.7C89.8,160.9,88,156.2,131.9,126.2z"/>
			<path class="st0" d="M131.9,126.2L72.3,92c-43.9,30-44.7,35.8-45.6,38c-0.7,1.7-1.3,3.2-2.4,5.8l3.8,10.4l0.8,0.4l-3.9-10.8
				l1.1-2.7c0.4-1.1,0.8-2,1.2-2.9c0-0.1,0.1-0.2,0.2-0.4c0.9-2.2,3.6-8.9,45-37.2l58.4,33.6c-40,27.4-41.5,33.5-42.2,36.1
				c0,0.2-0.1,0.3-0.2,0.5c-1.3,3.6,0.7,10.5,1.2,11.9l-2.5,5.4l0.4,0.2l2.6-5.6c0,0-2.6-7.9-1.2-11.7
				C89.8,160.9,88,156.2,131.9,126.2z"/>
			<polygon class="st0" points="28.1,146.2 46.6,156.9 54.4,150.5 			"/>
			<polygon class="st0" points="77.3,163.3 69.3,169.9 87.6,180.4 			"/>
			<polygon class="st0" points="69.3,169.9 46.6,156.9 54.4,150.5 77.3,163.3 			"/>
			<polygon class="st0" points="78.6,96.2 125,122.9 125.5,122.6 79.1,95.9 			"/>
			<path class="st0" d="M109.8,95.8c1.4,0.7,1.6,2.5,0.5,4.1s-3.1,2.3-4.5,1.7s-1.6-2.5-0.5-4.1S108.4,95.1,109.8,95.8z"/>
			<path class="st0" d="M108.8,94.1c-0.6-0.3-1.5,1-2,1.3c-0.2,0.1-0.4,0.3-0.4,0.6v2.5c0,0.3,0.2,0.5,0.4,0.6c0.6,0.3,1.4,0.3,2,0
				c0.2-0.1,0.4-0.3,0.4-0.6v-4.1C109.2,94.2,109.1,94.3,108.8,94.1z"/>
			<path class="st0" d="M111.5,94.2v-12c-0.1-0.2-0.2-0.5-0.5-0.6c-1-0.6-3.1-0.3-4.7,0.7c-1.2,0.7-1.8,1.5-1.6,2.1l0.2,11.9
				c0.1,0.3,0.2,0.6,0.3,0.6c1,0.6,3.1,0.3,4.7-0.7C111.1,95.7,111.7,94.9,111.5,94.2z"/>
			<path class="st0" d="M111,81.7c1,0.6,0.5,1.8-1.2,2.7s-3.7,1.2-4.7,0.7s-0.5-1.8,1.2-2.7S110,81.1,111,81.7z"/>
			<path class="st0" d="M108.8,65.7c-0.6-0.3-1.5,1-2,1.3c-0.2,0.1-0.4,0.3-0.4,0.6v16.1c0,0.3,0.2,0.5,0.4,0.6c0.6,0.3,1.4,0.3,2,0
				c0.2-0.1,0.4-0.3,0.4-0.6V65.9C109.2,65.7,109.1,65.8,108.8,65.7z"/>
			<path class="st0" d="M109.2,66.2c0.2-0.8-0.3-1.2-1.1-1c-0.8,0.3-1.5,1.1-1.7,2c-0.2,0.8,0.3,1.2,1.1,1
				C108.4,67.8,109,67.1,109.2,66.2z"/>
			<path class="st0" d="M109,66.3c0.1-0.7-0.3-1-0.9-0.8c-0.7,0.3-1.2,0.9-1.4,1.6c-0.1,0.7,0.3,1,0.9,0.8
				C108.3,67.6,108.8,67,109,66.3z"/>
			<circle class="st3" cx="113" cy="28.8" r="5.9"/>
			<circle class="st3" cx="160.8" cy="54.8" r="5.9"/>
			<circle class="st3" cx="155.7" cy="26.2" r="5.9"/>
		</g>
	</g>
</g>
</svg>
