<svg xmlns="http://www.w3.org/2000/svg" viewBox="0 0 140.25 149.11"><defs><style>.cls-1{isolation:isolate;}.cls-2,.cls-3,.cls-4{fill:#eeeeef;stroke:#231916;stroke-miterlimit:10;stroke-width:0.25px;}.cls-2{mix-blend-mode:multiply;}.cls-3{fill-rule:evenodd;}.cls-5{fill:#dd2625;}</style></defs><g class="cls-1"><g id="Layer_2" data-name="Layer 2"><g id="Layer_1-2" data-name="Layer 1"><path class="cls-2" d="M100.81,72.05l1.78-.82L55.13,47.78a10.76,10.76,0,0,0-10.83-.1L24.38,59A2.14,2.14,0,0,0,24,62.51L48.46,85.86,57,92.41,20.94,71.64l-2.65,1.7L54.2,94,40.8,101.3l15.1,8.46L7,136.62l5.93,3.8L61.5,113.08l10,5.69L22.66,146.28,27.49,149l48.77-27.47,5.81,3.3,18.18-9.67,3.8,2.2,36-21.88Z"/><path class="cls-3" d="M133.44,77.47V89.81L121.18,99S121.5,80.82,133.44,77.47Z"/><path class="cls-3" d="M117.53,90.83c.26,4.29,3.83,6,7.93,3.74s7.23-7.56,7-11.85-3.83-6-7.93-3.74S117.26,86.53,117.53,90.83Z"/><polygon class="cls-3" points="136.88 82.7 130.13 78.52 132.26 82.69 136.88 82.7"/><polygon class="cls-3" points="126.29 99.03 119.49 94.82 125.23 92.14 125.93 97.01 126.29 99.03"/><path class="cls-3" d="M124.28,95c.27,4.3,3.84,6,7.94,3.74s7.23-7.55,7-11.85-3.83-6-7.93-3.74S124,90.72,124.28,95Z"/><path class="cls-3" d="M126.37,93.88c.19,3.09,2.76,4.3,5.71,2.7s5.21-5.45,5-8.54-2.76-4.31-5.72-2.7S126.17,90.79,126.37,93.88Z"/><path class="cls-3" d="M124.28,95c.27,4.3,3.84,6,7.94,3.74s7.23-7.55,7-11.85-3.83-6-7.93-3.74S124,90.72,124.28,95Z"/><path class="cls-3" d="M125,94.62c.24,3.88,3.46,5.4,7.16,3.38s6.53-6.83,6.29-10.7-3.46-5.4-7.17-3.38S124.76,90.74,125,94.62Z"/><path class="cls-3" d="M126.79,93.65c.17,2.85,2.54,4,5.26,2.48s4.81-5,4.63-7.86-2.55-4-5.27-2.49S126.61,90.8,126.79,93.65Z"/><path class="cls-3" d="M127.14,93.1c.15,2.51,2.24,3.5,4.65,2.19a8.2,8.2,0,0,0,4.08-7c-.16-2.52-2.25-3.5-4.65-2.19A8.18,8.18,0,0,0,127.14,93.1Z"/><path class="cls-3" d="M127.27,93c.16,2.44,2.18,3.39,4.51,2.12a7.92,7.92,0,0,0,3.95-6.72c-.15-2.44-2.17-3.4-4.5-2.13A8,8,0,0,0,127.27,93Z"/><path class="cls-3" d="M127.54,92.88c.14,2.29,2,3.18,4.22,2a7.44,7.44,0,0,0,3.71-6.31c-.14-2.29-2-3.18-4.23-2A7.43,7.43,0,0,0,127.54,92.88Z"/><path class="cls-3" d="M127.78,92.76c.13,2.14,1.9,3,4,1.87a7.05,7.05,0,0,0,3.49-5.95c-.13-2.08-1.85-3-3.84-1.92a.24.24,0,0,0-.14,0,6.93,6.93,0,0,0-3.45,5.24A2.41,2.41,0,0,0,127.78,92.76Z"/><path class="cls-3" d="M127.82,92.05c.39.85,1.39,1.07,2.51.45a4.85,4.85,0,0,0,2.45-4.13c-.07-1-.61-1.57-1.37-1.61a.24.24,0,0,0-.14,0A6.93,6.93,0,0,0,127.82,92.05Z"/><polygon class="cls-4" points="85.49 35.15 98.22 27.8 98.22 48.08 85.49 55.44 85.49 35.15"/><polygon class="cls-4" points="90.84 31.92 126.46 53.29 120.28 57 85.49 35.15 90.84 31.92"/><polygon class="cls-4" points="57.16 71.82 54.95 73.09 54.95 71.82 57.16 71.82"/><path class="cls-3" d="M41.73,88c.27,4.29,3.83,6,7.94,3.74s7.23-7.56,7-11.85-3.83-6-7.94-3.74S41.47,83.71,41.73,88Z"/><polygon class="cls-3" points="61.09 79.88 54.34 75.7 56.47 79.86 61.09 79.88"/><polygon class="cls-3" points="50.5 96.21 43.7 91.99 49.43 89.32 50.13 94.19 50.5 96.21"/><path class="cls-3" d="M48.49,92.19c.27,4.29,3.83,6,7.93,3.74s7.23-7.56,7-11.85-3.83-6-7.94-3.74S48.22,87.9,48.49,92.19Z"/><path class="cls-3" d="M50.57,91.06c.2,3.09,2.76,4.3,5.72,2.69s5.21-5.44,5-8.54-2.76-4.3-5.72-2.69S50.38,88,50.57,91.06Z"/><path class="cls-3" d="M48.49,92.19c.27,4.29,3.83,6,7.93,3.74s7.23-7.56,7-11.85-3.83-6-7.94-3.74S48.22,87.9,48.49,92.19Z"/><path class="cls-3" d="M49.21,91.8c.24,3.87,3.46,5.39,7.17,3.37s6.53-6.82,6.29-10.7-3.46-5.39-7.17-3.38S49,87.92,49.21,91.8Z"/><path class="cls-3" d="M51,90.83c.18,2.85,2.55,4,5.27,2.48a9.26,9.26,0,0,0,4.62-7.87c-.17-2.85-2.54-4-5.26-2.48A9.3,9.3,0,0,0,51,90.83Z"/><path class="cls-3" d="M51.34,90.27c.16,2.52,2.25,3.5,4.65,2.19a8.21,8.21,0,0,0,4.09-6.94c-.16-2.52-2.25-3.5-4.65-2.19A8.18,8.18,0,0,0,51.34,90.27Z"/><path class="cls-3" d="M51.48,90.2c.15,2.43,2.18,3.39,4.51,2.12a7.94,7.94,0,0,0,3.95-6.73c-.15-2.44-2.18-3.39-4.51-2.12A8,8,0,0,0,51.48,90.2Z"/><path class="cls-3" d="M51.74,90.05c.15,2.29,2,3.19,4.23,2a7.48,7.48,0,0,0,3.71-6.32c-.15-2.28-2-3.18-4.23-2A7.47,7.47,0,0,0,51.74,90.05Z"/><path class="cls-3" d="M52,89.93c.14,2.15,1.91,3,4,1.88a7.06,7.06,0,0,0,3.5-6c-.13-2.09-1.85-3-3.85-1.93,0,0-.08,0-.13,0A7,7,0,0,0,52,89.23,3.29,3.29,0,0,0,52,89.93Z"/><path class="cls-3" d="M52,89.23c.39.84,1.39,1.07,2.51.45A4.81,4.81,0,0,0,57,85.55c-.06-1-.6-1.57-1.37-1.62,0,0-.08,0-.13,0A7,7,0,0,0,52,89.23Z"/><path class="cls-4" d="M50.7,70.16,56.44,74l44.8-12.12V49.71a4.69,4.69,0,0,0-1.19-3.14c-1.39-1.55-3.79-2.65-5.83-1.47Z"/><polygon class="cls-4" points="81.96 100.88 86.76 103.65 81.96 109.03 81.96 100.88"/><path class="cls-3" d="M106.79,112.26l-15.68-7.92L95,95.71s5.55-3.77,9.07-2C107.91,95.69,109.62,103.51,106.79,112.26Z"/><polygon class="cls-4" points="56.12 80.63 81.96 95.71 81.96 109.03 56.12 93.95 56.12 80.63"/><polygon class="cls-4" points="126.46 53.29 133.09 69.88 90.57 94.47 90.57 74.14 126.46 53.29"/><path class="cls-4" d="M57.41,73,90.26,53.75V8.2a6.82,6.82,0,0,0-2.58-5.37l-.28-.17a.12.12,0,0,0,0-.06A6.9,6.9,0,0,0,80,2.27l-17.29,10S57,36.1,57.41,73Zm7.53-57.28L81.08,6.44a1.13,1.13,0,0,1,.62-.2A1.29,1.29,0,0,1,83,7.53v42.3l-25.52,15C55.11,34.3,62.86,19.2,64.94,15.75Z"/><path class="cls-4" d="M89,6.89a6.77,6.77,0,0,0-1.35-4A6.83,6.83,0,0,1,90.26,8.2V53.75L57.41,73c-.06-.67-.09-1.29-.14-2L89,52.44Z"/><path class="cls-4" d="M81.76,6.25A1.28,1.28,0,0,1,83,7.53v42.3l-25.52,15c-.05-.67-.07-1.3-.11-2L81.76,48.52Z"/><polygon class="cls-4" points="55.63 68.56 89.84 88.5 120.28 71.2 86.08 51.26 55.63 68.56"/><polygon class="cls-4" points="86.08 30.94 120.28 50.88 120.28 71.2 86.08 51.26 86.08 30.94"/><polygon class="cls-4" points="118.36 52.81 86.08 34 86.08 30.94 120.28 50.88 120.28 71.2 118.36 70.08 118.36 52.81"/><path class="cls-4" d="M74.67,63.38v1.7a1.92,1.92,0,0,0,1,1.78l11.56,6.62a4.7,4.7,0,0,0,4.62,0L106.48,65V43.31A5,5,0,0,0,104,38.94L92.14,32.06c-1-.63-3.86,1.07-3.86,2.29l1.51,21-6.89,4-6.12,3.54Z"/><path class="cls-4" d="M74.67,63.38v1.7a1.92,1.92,0,0,0,1,1.78l11.56,6.62a4.7,4.7,0,0,0,4.62,0L106.48,65V63.21l-1.58.89L76.78,62.87Z"/><path class="cls-4" d="M98.83,49.59,88.46,36.82l-.18-2.48c0-1.2,2.81-2.9,3.86-2.29L104,38.94a5.05,5.05,0,0,1,2.51,4.37l-2.24,1.23Z"/><path class="cls-4" d="M90.57,33.42l11.83,6.9a5,5,0,0,1,2.5,4.36V64.1L88.22,54.48V34.78A1.57,1.57,0,0,1,90.57,33.42Z"/><path class="cls-4" d="M104.9,64.1,91.82,71.65a4.66,4.66,0,0,1-4.63,0L75.63,65a1.91,1.91,0,0,1,0-3.31l12.6-7.25Z"/><path class="cls-4" d="M80,4.83l10.27,6L110,22.29h6.86L87.68,5.39l-.28-.17a.1.1,0,0,0,0,0C85.56,3.92,82.23,1.4,80,2.27Z"/><path class="cls-4" d="M56.44,82.94,86.1,100.88c.52-47.72,6.6-71.16,6.6-71.16l-30-17.46S56,30.25,56.44,82.94ZM62.76,20C63,18.61,64.6,18,65.93,18.16a2.69,2.69,0,0,1,1,.36c3.86,2.25,10.81,6.29,15.58,9.05l2.24,1.31c1.59.93,1.86,2.77,1.56,4.59-1.18,6.92-2.18,18.88-5.92,39.46-.41,2.22-5.65,3-12.72-.43C59.21,68.4,57.92,64.28,58,63,60.57,37.57,61.84,26.91,62.76,20Z"/><path class="cls-4" d="M64.71,18.9c-1.06,7-2,19.68-4.72,43-.15,1.26,1.16,5.38,9.67,9.47C74.08,73.49,78,74,80.23,73.54c-1,1.73-6.15,2-12.52-1C59.21,68.4,58,64.29,58,63c1.52-22.64,3.51-36,4.72-43a2.58,2.58,0,0,1,2.37-1.87A1.73,1.73,0,0,0,64.71,18.9Z"/><path class="cls-4" d="M83.14,4.09,69,12.22l-3.1-1.79L80,2.27a6.9,6.9,0,0,1,7.39.33.12.12,0,0,1,0,.06l.28.17,29.19,16.9H110L90.26,8.23Z"/><polygon class="cls-4" points="65.85 10.43 92.73 26.12 106.85 17.91 110.01 19.73 95.81 27.92 92.71 29.71 62.69 12.25 65.85 10.43"/><path class="cls-4" d="M85.1,91.88c-.21,2.13.42,4.31.7,6.58L88,99.74c-.4-3.13-.73-6.12-1-9C82.83,44,96,28,96,28l-.17-.08-3.1,1.79,0,0c0,.06-.08.11-.14.22a5.39,5.39,0,0,0-.45.67C89.71,34.58,88.22,60.2,85.1,91.88Z"/><path class="cls-4" d="M84.51,92.22l.59-.34,2-1.15L120.3,71.2V25.68A6.85,6.85,0,0,0,110,19.75L95.81,27.92l-3.1,1.79,0,0c0,.06-.08.11-.14.22a5.39,5.39,0,0,0-.45.67C89.43,34.83,84,67.8,84.51,92.22ZM95,33.21l16.17-9.32a1.22,1.22,0,0,1,.61-.19A1.28,1.28,0,0,1,113,25V67.32l-25.49,15C90.49,50.65,92.88,36.65,95,33.21Z"/><path class="cls-4" d="M111.11,23.89a1.23,1.23,0,0,1,.62-.18A1.28,1.28,0,0,1,113,25V67.3l-25.5,15c-.08-1-.12-1.94-.17-2.9l22.91-13.47V24.39Z"/><path class="cls-3" d="M83.16,111.81c.27,4.29,3.83,6,7.93,3.74s7.23-7.56,7-11.85-3.83-6-7.93-3.74S82.89,107.51,83.16,111.81Z"/><polygon class="cls-3" points="102.51 103.69 95.76 99.5 97.89 103.67 102.51 103.69"/><polygon class="cls-3" points="91.92 120.02 85.13 115.8 90.86 113.13 91.56 117.99 91.92 120.02"/><path class="cls-3" d="M89.92,116c.26,4.29,3.83,6,7.93,3.74s7.23-7.56,7-11.85-3.83-6-7.93-3.74S89.65,111.7,89.92,116Z"/><path class="cls-3" d="M92,114.86c.19,3.1,2.76,4.31,5.71,2.7s5.21-5.45,5-8.54-2.76-4.31-5.72-2.7S91.8,111.77,92,114.86Z"/><path class="cls-3" d="M89.92,116c.26,4.29,3.83,6,7.93,3.74s7.23-7.56,7-11.85-3.83-6-7.93-3.74S89.65,111.7,89.92,116Z"/><path class="cls-3" d="M90.64,115.6c.24,3.88,3.46,5.4,7.16,3.38s6.53-6.82,6.29-10.7-3.46-5.4-7.17-3.38S90.4,111.73,90.64,115.6Z"/><path class="cls-3" d="M92.42,114.63c.18,2.85,2.54,4,5.27,2.49s4.8-5,4.62-7.87-2.54-4-5.27-2.48S92.24,111.78,92.42,114.63Z"/><path class="cls-3" d="M92.77,114.08c.16,2.51,2.25,3.5,4.65,2.19a8.18,8.18,0,0,0,4.08-7c-.16-2.51-2.24-3.5-4.65-2.19A8.2,8.2,0,0,0,92.77,114.08Z"/><path class="cls-3" d="M92.91,114c.15,2.44,2.17,3.4,4.5,2.13a7.92,7.92,0,0,0,4-6.73c-.15-2.44-2.17-3.39-4.5-2.13A7.93,7.93,0,0,0,92.91,114Z"/><path class="cls-3" d="M93.17,113.86c.14,2.29,2,3.18,4.22,2a7.44,7.44,0,0,0,3.71-6.31c-.14-2.29-2-3.18-4.22-2A7.44,7.44,0,0,0,93.17,113.86Z"/><path class="cls-3" d="M93.41,113.74c.13,2.14,1.94,3.05,4,1.87s3.7-3.73,3.49-6-1.85-3-3.84-1.92a.27.27,0,0,0-.14.05A7,7,0,0,0,93.45,113,2.42,2.42,0,0,0,93.41,113.74Z"/><path class="cls-3" d="M93.45,113c.39.85,1.39,1.08,2.51.46a4.85,4.85,0,0,0,2.45-4.14c-.06-1-.61-1.57-1.37-1.61a.27.27,0,0,0-.14.05A7,7,0,0,0,93.45,113Z"/><path class="cls-2" d="M107.34,95.73l-2,2.82-2,5.72-2.91-1.89s-5.82-1-7.24,1a39.43,39.43,0,0,1-4.59,4.81l-4.37-5.1,14.21-10.3Z"/><path class="cls-4" d="M89.84,93.44l.68,6.94,13.58-6.64c.54.55,1.89,8.56,1.89,8.56l.8,10,8.75-5.07,5.21-3,2.18-1.26V93.27l10.25-14.65,1.34-.7-1.31-9.49Z"/><polygon class="cls-4" points="89.78 105.34 59.52 87.29 50.43 70.46 89.84 93.45 89.78 105.34"/><polygon class="cls-4" points="129.74 72.01 128.56 72.68 125.4 82.18 126.58 81.51 129.74 72.01"/><polygon class="cls-4" points="127.27 73.39 126.09 74.05 122.93 83.55 124.11 82.88 127.27 73.39"/><polygon class="cls-4" points="124.8 74.76 123.62 75.42 120.45 84.92 121.63 84.25 124.8 74.76"/><polygon class="cls-4" points="122.33 76.13 121.15 76.8 117.98 86.29 119.16 85.62 122.33 76.13"/><polygon class="cls-4" points="60.77 21.7 59.25 22.59 63.85 25.34 65.36 24.45 60.77 21.7"/><polygon class="cls-4" points="114.66 42.6 118.74 37.71 118.74 31.57 114.66 36.46 114.66 42.6"/><polygon class="cls-4" points="114.66 54.69 118.74 49.8 118.74 43.66 114.66 48.55 114.66 54.69"/><polygon class="cls-4" points="114.66 66.78 118.74 61.88 118.74 55.74 114.66 60.64 114.66 66.78"/><polygon class="cls-4" points="97.04 23.81 96.09 24.36 72.57 10.33 73.48 9.75 97.04 23.81"/><polygon class="cls-4" points="96.09 24.36 94.97 24.82 72.57 11.42 72.57 10.33 96.09 24.36"/><polygon class="cls-4" points="103.18 20.22 102.23 20.78 78.72 6.74 79.62 6.16 103.18 20.22"/><polygon class="cls-4" points="102.23 20.78 101.11 21.23 78.72 7.83 78.72 6.74 102.23 20.78"/><path class="cls-4" d="M96.51,26.08h0V24.73h-.87a2.93,2.93,0,0,0-.26-.19,6,6,0,0,0-5.39,0c-.11.07-.2.15-.3.22H88.9v1.35h0A2,2,0,0,0,90,27.63a6,6,0,0,0,5.39,0A1.82,1.82,0,0,0,96.51,26.08Z"/><path class="cls-4" d="M96.51,24.73h0l-.64-6.6H89.54l-.63,6.52s0,.05,0,.07h0A2,2,0,0,0,90,26.27a6,6,0,0,0,5.39,0A1.82,1.82,0,0,0,96.51,24.73Z"/><path class="cls-4" d="M90.43,23.41a5,5,0,0,1,4.52,0c1.25.73,1.27,1.9,0,2.62a5,5,0,0,1-4.52,0C89.21,25.29,89.19,24.13,90.43,23.41Z"/><path class="cls-4" d="M94.34,20c-.8-1.39-2.11-1.38-2.93,0a5.59,5.59,0,0,0,0,5.07c.81,1.39,2.12,1.37,2.93,0A5.57,5.57,0,0,0,94.34,20Z"/><path class="cls-4" d="M90.44,25.86a5.28,5.28,0,0,0,2.06.62l.12-.11a3.3,3.3,0,0,0,.36-.51,7.38,7.38,0,0,0,0-6.71,3,3,0,0,0-.89-1h-2l-.15.12,0,.05-.58,5.94s0,.05,0,.07h0A2,2,0,0,0,90.44,25.86Z"/><path class="cls-4" d="M92.43,20.67c-.59-1-1.54-1-2.14,0a4.07,4.07,0,0,0,0,3.69c.58,1,1.54,1,2.13,0A4.07,4.07,0,0,0,92.43,20.67Z"/><path class="cls-4" d="M90.45,16.82a5,5,0,0,1,4.47,0c1.25.72,1.26,1.87,0,2.58a4.93,4.93,0,0,1-4.47,0C89.24,18.69,89.23,17.53,90.45,16.82Z"/><polygon class="cls-4" points="70.53 29.43 75.13 32.19 75.13 105.42 70.53 102.67 70.53 29.43"/><polygon class="cls-4" points="56.44 21.15 61.04 23.91 61.04 97.14 56.44 94.38 56.44 21.15"/><polygon class="cls-4" points="62.56 23.02 61.04 23.91 61.04 97.14 62.56 96.25 62.56 23.02"/><polygon class="cls-4" points="76.64 31.3 75.13 32.19 75.13 105.42 76.64 104.53 76.64 31.3"/><polygon class="cls-4" points="77.35 30.96 74.89 32.53 56.15 21.34 58.6 19.76 77.35 30.96"/><polygon class="cls-4" points="74.89 32.53 74.89 37.47 56.15 26.27 56.15 21.34 74.89 32.53"/><polygon class="cls-4" points="77.35 30.96 77.35 35.9 74.89 37.47 74.89 32.53 77.35 30.96"/><polygon class="cls-4" points="69.94 92.92 74.98 95.94 74.98 116.63 69.94 113.61 69.94 92.92"/><polygon class="cls-4" points="54.48 83.83 59.52 86.86 59.52 107.54 54.48 104.52 54.48 83.83"/><polygon class="cls-4" points="61.19 85.88 59.52 86.86 59.52 107.54 61.19 106.56 61.19 85.88"/><polygon class="cls-4" points="76.64 94.97 74.98 95.94 74.98 116.63 76.64 115.65 76.64 94.97"/><polygon class="cls-4" points="71.6 91.94 69.94 92.92 74.98 95.94 76.64 94.97 71.6 91.94"/><polygon class="cls-4" points="56.14 82.86 54.48 83.83 59.52 86.86 61.19 85.88 56.14 82.86"/><polygon class="cls-4" points="19.92 140.49 25.06 143.35 75.08 114.53 69.94 111.68 19.92 140.49"/><polygon class="cls-4" points="25.05 145.28 25.06 143.35 75.08 114.53 75.06 116.46 25.05 145.28"/><polygon class="cls-4" points="19.91 142.42 19.92 140.49 25.06 143.35 25.05 145.28 19.91 142.42"/><polygon class="cls-4" points="4.45 133.33 4.47 131.4 9.61 134.26 9.59 136.19 4.45 133.33"/><polygon class="cls-4" points="4.47 131.4 9.61 134.26 59.62 105.44 54.48 102.59 4.47 131.4"/><polygon class="cls-4" points="9.59 136.19 9.61 134.26 59.62 105.44 59.6 107.37 9.59 136.19"/><polygon class="cls-4" points="79.52 102.38 77.74 103.35 50.46 87.06 52.25 86.09 79.52 102.38"/><polygon class="cls-4" points="77.74 103.35 77.74 110.53 50.46 94.24 50.46 87.06 77.74 103.35"/><polygon class="cls-4" points="79.52 102.38 79.52 109.56 77.74 110.53 77.74 103.35 79.52 102.38"/><polygon class="cls-4" points="70.53 92.5 70.53 94.05 61.02 88.36 62.37 87.62 70.53 92.5"/><polygon class="cls-4" points="70.53 94.05 70.53 96.39 61.02 90.71 61.02 88.36 70.53 94.05"/><polygon class="cls-4" points="70.53 80.27 70.53 81.81 61.02 76.13 62.37 75.39 70.53 80.27"/><polygon class="cls-4" points="70.53 81.81 70.53 84.16 61.02 78.48 61.02 76.13 70.53 81.81"/><polygon class="cls-4" points="70.53 68.03 70.53 69.57 61.02 63.89 62.37 63.15 70.53 68.03"/><polygon class="cls-4" points="70.53 69.57 70.53 71.92 61.02 66.24 61.02 63.89 70.53 69.57"/><polygon class="cls-4" points="70.53 55.79 70.53 57.34 61.02 51.66 62.37 50.92 70.53 55.79"/><polygon class="cls-4" points="70.53 57.34 70.53 59.69 61.02 54.01 61.02 51.66 70.53 57.34"/><polygon class="cls-4" points="70.53 43.56 70.53 45.1 61.02 39.42 62.37 38.68 70.53 43.56"/><polygon class="cls-4" points="70.53 45.1 70.53 47.45 61.02 41.77 61.02 39.42 70.53 45.1"/><polygon class="cls-4" points="62.79 25.39 60.28 28.8 57.56 27.23 60.07 23.82 62.79 25.39"/><polygon class="cls-4" points="68.14 28.48 65.63 31.89 62.91 30.32 65.42 26.91 68.14 28.48"/><polygon class="cls-4" points="73.49 31.57 70.98 34.98 68.26 33.41 70.77 30 73.49 31.57"/><polygon class="cls-4" points="88.57 108.16 90.36 107.13 91.58 100.38 88.57 102.16 88.57 108.16"/><polygon class="cls-4" points="102.73 94.79 88.89 103.02 88.57 103.21 81.87 99.36 82.2 99.17 82.27 99.13 102.73 93.74 102.73 94.79"/><polygon class="cls-4" points="108.65 96 102.73 94.79 96.03 90.94 108.65 94.95 108.65 96"/><polygon class="cls-4" points="81.87 98.3 88.57 102.16 88.57 108.16 81.87 104.31 81.87 98.3"/><polygon class="cls-4" points="102.73 93.74 88.89 101.97 88.57 102.16 81.87 98.31 82.2 98.12 82.27 98.08 96.03 89.89 102.73 93.74"/><polygon class="cls-4" points="108.65 94.95 102.73 93.74 96.03 89.89 101.95 91.09 108.65 94.95"/><path class="cls-4" d="M82.92,101v1.93a1,1,0,0,0,.52.88l3.45,2a.42.42,0,0,0,.63-.36v-.23l-2.89-1.67a1,1,0,0,1-.52-.88V101l-.56-.32A.42.42,0,0,0,82.92,101Z"/><path class="cls-4" d="M84.11,101v1.7a1,1,0,0,0,.52.88l2.89,1.67v-1.69a1,1,0,0,0-.52-.89Z"/><polygon class="cls-4" points="86.11 91.25 81.87 98.3 133.21 68.43 129.48 66.21 86.11 91.25"/><polygon class="cls-4" points="45.78 83.51 56.44 80.91 56.44 75.02 45.78 77.51 45.78 83.51"/><polygon class="cls-4" points="56.44 75.02 46.1 78.37 45.78 78.56 39.08 74.71 39.41 74.52 39.48 74.48 56.44 73.97 56.44 75.02"/><polygon class="cls-4" points="39.08 73.65 45.78 77.51 45.78 83.51 39.08 79.67 39.08 73.65"/><polygon class="cls-4" points="56.44 73.97 46.1 77.32 45.78 77.51 39.08 73.66 39.41 73.47 39.48 73.43 52.75 65.55 56.44 67.57 56.44 73.97"/><path class="cls-4" d="M39.71,76.05V78a1,1,0,0,0,.51.88l3.46,2a.42.42,0,0,0,.62-.37v-.23l-2.89-1.67a1,1,0,0,1-.51-.88V76l-.57-.32A.41.41,0,0,0,39.71,76.05Z"/><path class="cls-4" d="M40.9,76v1.7a1,1,0,0,0,.51.88l2.89,1.67V78.57a1,1,0,0,0-.51-.89Z"/><polygon class="cls-4" points="0.24 117.1 4.17 119.61 42.92 97.33 38.99 94.81 0.24 117.1"/><polygon class="cls-4" points="4.17 119.61 4.17 127.24 42.92 104.96 42.92 97.33 4.17 119.61"/><polygon class="cls-4" points="20.56 111.73 20.56 116.14 6.81 124.05 6.81 119.67 20.56 111.73"/><polygon class="cls-4" points="39.94 100.62 39.94 105.03 26.17 112.94 26.17 108.53 39.94 100.62"/><polygon class="cls-4" points="0.24 117.1 0.24 124.99 4.17 127.24 4.17 119.61 0.24 117.1"/><polygon class="cls-4" points="36.38 102.75 39.94 105.03 39.94 100.62 36.38 102.75"/><polygon class="cls-4" points="17 113.86 20.56 116.14 20.56 111.73 17 113.86"/><polygon class="cls-4" points="17.54 127.03 21.47 129.55 60.22 107.27 56.29 104.75 17.54 127.03"/><polygon class="cls-4" points="21.47 129.55 21.47 137.18 60.22 114.9 60.22 107.27 21.47 129.55"/><polygon class="cls-4" points="37.86 121.67 37.86 126.08 24.11 133.99 24.11 129.6 37.86 121.67"/><polygon class="cls-4" points="57.24 110.56 57.24 114.97 43.46 122.88 43.46 118.47 57.24 110.56"/><polygon class="cls-4" points="17.54 127.03 17.54 134.93 21.47 137.18 21.47 129.55 17.54 127.03"/><polygon class="cls-4" points="53.67 112.69 57.24 114.97 57.24 110.56 53.67 112.69"/><polygon class="cls-4" points="34.29 123.79 37.86 126.08 37.86 121.67 34.29 123.79"/><polygon class="cls-4" points="34.84 136.97 38.76 139.49 77.52 117.2 73.59 114.69 34.84 136.97"/><polygon class="cls-4" points="38.76 139.49 38.76 147.12 77.52 124.84 77.52 117.2 38.76 139.49"/><polygon class="cls-4" points="55.15 131.6 55.15 136.01 41.41 143.92 41.41 139.54 55.15 131.6"/><polygon class="cls-4" points="74.54 120.5 74.54 124.91 60.76 132.82 60.76 128.41 74.54 120.5"/><polygon class="cls-4" points="34.84 136.97 34.84 144.87 38.76 147.12 38.76 139.49 34.84 136.97"/><polygon class="cls-4" points="70.97 122.63 74.54 124.91 74.54 120.5 70.97 122.63"/><polygon class="cls-4" points="51.59 133.73 55.15 136.01 55.15 131.6 51.59 133.73"/><polygon class="cls-4" points="42.69 135.05 38.76 137.56 0.24 115.17 4.17 112.66 42.69 135.05"/><polygon class="cls-4" points="38.76 137.56 38.76 139.49 0.24 117.1 0.24 115.17 38.76 137.56"/><polygon class="cls-4" points="42.69 135.05 42.69 137.24 38.76 139.49 38.76 137.56 42.69 135.05"/><polygon class="cls-4" points="51.4 130.04 47.47 132.56 8.95 110.17 12.88 107.65 51.4 130.04"/><polygon class="cls-4" points="47.47 132.56 47.47 134.48 8.95 112.09 8.95 110.17 47.47 132.56"/><polygon class="cls-4" points="51.4 130.04 51.4 132.23 47.47 134.48 47.47 132.56 51.4 130.04"/><polygon class="cls-4" points="60.1 125.03 56.18 127.55 17.65 105.16 21.58 102.64 60.1 125.03"/><polygon class="cls-4" points="56.18 127.55 56.18 129.47 17.65 107.08 17.65 105.16 56.18 127.55"/><polygon class="cls-4" points="60.1 125.03 60.1 127.22 56.18 129.47 56.18 127.55 60.1 125.03"/><polygon class="cls-4" points="68.81 120.03 64.88 122.54 26.36 100.15 30.29 97.64 68.81 120.03"/><polygon class="cls-4" points="64.88 122.54 64.88 124.46 26.36 102.07 26.36 100.15 64.88 122.54"/><polygon class="cls-4" points="68.81 120.03 68.81 122.21 64.88 124.46 64.88 122.54 68.81 120.03"/><polygon class="cls-4" points="77.52 115.02 73.59 117.53 35.07 95.14 38.99 92.63 77.52 115.02"/><polygon class="cls-4" points="73.59 117.53 73.59 119.45 35.07 97.06 35.07 95.14 73.59 117.53"/><polygon class="cls-4" points="77.52 115.02 77.52 117.2 73.59 119.45 73.59 117.53 77.52 115.02"/><polygon class="cls-4" points="39.34 113.54 21.49 103.24 21.49 84.04 39.34 94.33 39.34 113.54"/><polygon class="cls-4" points="53.51 86.11 39.34 94.33 39.34 113.54 53.51 105.36 53.51 86.11"/><polygon class="cls-4" points="45.36 93.32 41.03 95.83 41.03 101.7 45.36 99.2 45.36 93.32"/><polygon class="cls-4" points="43.87 96.53 43.86 99.45 42.51 100.22 42.52 97.3 41.85 97.68 43.21 94.8 44.55 96.14 43.87 96.53"/><polygon class="cls-4" points="53.51 86.11 39.34 94.33 30.96 89.5 28.25 87.94 21.49 84.04 35.66 75.82 42.42 79.72 45.15 81.29 53.51 86.11"/><polygon class="cls-4" points="30.96 89.5 28.25 87.94 42.42 79.72 45.15 81.29 30.96 89.5"/><polygon class="cls-4" points="27.93 105.29 22.8 102.37 22.8 97.95 27.93 100.87 27.93 105.29"/><polygon class="cls-4" points="27.64 104.73 23.09 102.13 23.09 101.93 27.64 104.53 27.64 104.73"/><polygon class="cls-4" points="27.64 104.18 23.09 101.58 23.09 101.38 27.64 103.98 27.64 104.18"/><polygon class="cls-4" points="27.64 103.62 23.09 101.02 23.09 100.82 27.64 103.42 27.64 103.62"/><polygon class="cls-4" points="27.64 103.07 23.09 100.47 23.09 100.27 27.64 102.87 27.64 103.07"/><polygon class="cls-4" points="27.64 102.02 23.09 99.42 23.09 98.79 27.64 101.39 27.64 102.02"/><polygon class="cls-4" points="28.25 87.94 28.23 94.41 28.79 92.89 29.38 95.03 30.17 93.65 30.88 95.86 30.96 89.5 28.25 87.94"/><polygon class="cls-4" points="48.59 91.7 47.3 92.46 47.3 94.19 48.59 93.44 48.59 91.7"/><polygon class="cls-4" points="50.41 90.65 49.12 91.41 49.12 93.14 50.41 92.39 50.41 90.65"/><polygon class="cls-4" points="52.23 89.61 50.94 90.36 50.94 92.09 52.23 91.34 52.23 89.61"/><polygon class="cls-4" points="22.3 123.41 4.46 113.12 4.46 93.92 22.3 104.21 22.3 123.41"/><polygon class="cls-4" points="36.48 95.98 22.3 104.21 22.3 123.41 36.48 115.23 36.48 95.98"/><polygon class="cls-4" points="28.33 103.2 24 105.71 24 111.57 28.33 109.07 28.33 103.2"/><polygon class="cls-4" points="26.84 106.4 26.83 109.32 25.48 110.09 25.49 107.17 24.82 107.55 26.17 104.68 27.52 106.02 26.84 106.4"/><polygon class="cls-4" points="36.47 95.99 22.31 104.21 13.93 99.37 11.21 97.81 4.46 93.91 18.63 85.69 25.39 89.59 28.12 91.16 36.47 95.99"/><polygon class="cls-4" points="13.93 99.37 11.21 97.81 25.39 89.59 28.12 91.16 13.93 99.37"/><polygon class="cls-4" points="10.89 115.17 5.77 112.24 5.77 107.82 10.89 110.75 10.89 115.17"/><polygon class="cls-4" points="10.61 114.61 6.06 112 6.06 111.8 10.61 114.41 10.61 114.61"/><polygon class="cls-4" points="10.61 114.05 6.06 111.45 6.06 111.25 10.61 113.85 10.61 114.05"/><polygon class="cls-4" points="10.61 113.5 6.06 110.89 6.06 110.69 10.61 113.3 10.61 113.5"/><polygon class="cls-4" points="10.61 112.94 6.06 110.34 6.06 110.14 10.61 112.74 10.61 112.94"/><polygon class="cls-4" points="10.61 111.9 6.06 109.3 6.06 108.66 10.61 111.26 10.61 111.9"/><polygon class="cls-4" points="11.21 97.81 11.2 104.28 11.76 102.77 12.35 104.91 13.14 103.52 13.85 105.73 13.93 99.37 11.21 97.81"/><polygon class="cls-4" points="31.56 101.57 30.27 102.33 30.27 104.06 31.56 103.31 31.56 101.57"/><polygon class="cls-4" points="33.38 100.53 32.09 101.28 32.09 103.02 33.38 102.26 33.38 100.53"/><polygon class="cls-4" points="35.2 99.48 33.9 100.23 33.9 101.97 35.2 101.22 35.2 99.48"/><polygon class="cls-4" points="59.13 124.84 41.28 114.54 41.28 95.34 59.13 105.64 59.13 124.84"/><polygon class="cls-4" points="73.3 97.41 59.13 105.64 59.13 124.84 73.3 116.66 73.3 97.41"/><polygon class="cls-4" points="65.15 104.62 60.83 107.13 60.83 113 65.15 110.5 65.15 104.62"/><polygon class="cls-4" points="63.66 107.83 63.65 110.75 62.3 111.52 62.31 108.59 61.64 108.98 63 106.1 64.34 107.44 63.66 107.83"/><polygon class="cls-4" points="73.3 97.41 59.13 105.64 50.75 100.8 48.04 99.24 41.28 95.34 55.45 87.12 62.21 91.02 64.94 92.59 73.3 97.41"/><polygon class="cls-4" points="50.75 100.8 48.04 99.24 62.21 91.02 64.94 92.59 50.75 100.8"/><polygon class="cls-4" points="47.72 116.59 42.6 113.67 42.6 109.25 47.72 112.17 47.72 116.59"/><polygon class="cls-4" points="47.43 116.03 42.88 113.43 42.88 113.23 47.43 115.83 47.43 116.03"/><polygon class="cls-4" points="47.43 115.48 42.88 112.88 42.88 112.67 47.43 115.28 47.43 115.48"/><polygon class="cls-4" points="47.43 114.92 42.88 112.32 42.88 112.12 47.43 114.72 47.43 114.92"/><polygon class="cls-4" points="47.43 114.37 42.88 111.77 42.88 111.57 47.43 114.17 47.43 114.37"/><polygon class="cls-4" points="47.43 113.32 42.88 110.72 42.88 110.09 47.43 112.69 47.43 113.32"/><polygon class="cls-4" points="48.04 99.24 48.02 105.71 48.58 104.19 49.17 106.33 49.96 104.95 50.67 107.16 50.75 100.8 48.04 99.24"/><polygon class="cls-4" points="68.39 103 67.09 103.76 67.09 105.49 68.39 104.74 68.39 103"/><polygon class="cls-4" points="70.2 101.95 68.91 102.71 68.91 104.44 70.2 103.69 70.2 101.95"/><polygon class="cls-4" points="72.02 100.91 70.73 101.66 70.73 103.39 72.02 102.64 72.02 100.91"/><polygon class="cls-4" points="42.1 134.71 24.25 124.42 24.25 105.22 42.1 115.51 42.1 134.71"/><polygon class="cls-4" points="56.27 107.28 42.1 115.51 42.1 134.71 56.27 126.53 56.27 107.28"/><polygon class="cls-4" points="48.12 114.5 43.8 117.01 43.8 122.87 48.12 120.37 48.12 114.5"/><polygon class="cls-4" points="46.63 117.7 46.62 120.62 45.27 121.39 45.28 118.47 44.61 118.85 45.97 115.98 47.31 117.32 46.63 117.7"/><polygon class="cls-4" points="56.27 107.29 42.1 115.51 33.72 110.67 31 109.11 24.25 105.21 38.42 96.99 45.18 100.89 47.91 102.46 56.27 107.29"/><polygon class="cls-4" points="33.72 110.67 31 109.11 45.18 100.89 47.91 102.46 33.72 110.67"/><polygon class="cls-4" points="30.69 126.47 25.57 123.54 25.57 119.12 30.69 122.05 30.69 126.47"/><polygon class="cls-4" points="30.4 125.91 25.85 123.3 25.85 123.1 30.4 125.7 30.4 125.91"/><polygon class="cls-4" points="30.4 125.35 25.85 122.75 25.85 122.55 30.4 125.15 30.4 125.35"/><polygon class="cls-4" points="30.4 124.8 25.85 122.19 25.85 121.99 30.4 124.6 30.4 124.8"/><polygon class="cls-4" points="30.4 124.24 25.85 121.64 25.85 121.44 30.4 124.04 30.4 124.24"/><polygon class="cls-4" points="30.4 123.2 25.85 120.59 25.85 119.96 30.4 122.56 30.4 123.2"/><polygon class="cls-4" points="31 109.11 30.99 115.58 31.55 114.07 32.14 116.21 32.93 114.82 33.64 117.03 33.72 110.67 31 109.11"/><polygon class="cls-4" points="51.35 112.87 50.06 113.63 50.06 115.36 51.35 114.61 51.35 112.87"/><polygon class="cls-4" points="53.17 111.83 51.88 112.58 51.88 114.31 53.17 113.56 53.17 111.83"/><polygon class="cls-4" points="54.99 110.78 53.7 111.53 53.7 113.27 54.99 112.52 54.99 110.78"/><polygon class="cls-4" points="39.34 93.65 21.49 83.36 21.49 64.16 39.34 74.45 39.34 93.65"/><polygon class="cls-4" points="53.51 66.22 39.34 74.45 39.34 93.65 53.51 85.47 53.51 66.22"/><polygon class="cls-4" points="45.36 73.44 41.03 75.95 41.03 81.81 45.36 79.31 45.36 73.44"/><polygon class="cls-4" points="43.87 76.64 43.86 79.56 42.51 80.33 42.52 77.41 41.85 77.79 43.21 74.92 44.55 76.26 43.87 76.64"/><polygon class="cls-4" points="53.51 66.23 39.34 74.45 30.96 69.61 28.25 68.05 21.49 64.15 35.66 55.93 42.42 59.83 45.15 61.4 53.51 66.23"/><polygon class="cls-4" points="30.96 69.61 28.25 68.05 42.42 59.83 45.15 61.4 30.96 69.61"/><polygon class="cls-4" points="27.93 85.41 22.8 82.48 22.8 78.06 27.93 80.98 27.93 85.41"/><polygon class="cls-4" points="27.64 84.85 23.09 82.24 23.09 82.04 27.64 84.64 27.64 84.85"/><polygon class="cls-4" points="27.64 84.29 23.09 81.69 23.09 81.49 27.64 84.09 27.64 84.29"/><polygon class="cls-4" points="27.64 83.74 23.09 81.14 23.09 80.94 27.64 83.54 27.64 83.74"/><polygon class="cls-4" points="27.64 83.18 23.09 80.58 23.09 80.38 27.64 82.98 27.64 83.18"/><polygon class="cls-4" points="27.64 82.14 23.09 79.53 23.09 78.9 27.64 81.5 27.64 82.14"/><polygon class="cls-4" points="28.25 68.05 28.23 74.52 28.79 73.01 29.38 75.15 30.17 73.76 30.88 75.97 30.96 69.61 28.25 68.05"/><polygon class="cls-4" points="48.59 71.81 47.3 72.57 47.3 74.3 48.59 73.55 48.59 71.81"/><polygon class="cls-4" points="50.41 70.77 49.12 71.52 49.12 73.25 50.41 72.5 50.41 70.77"/><polygon class="cls-4" points="52.23 69.72 50.94 70.47 50.94 72.21 52.23 71.46 52.23 69.72"/><polygon class="cls-4" points="22.3 103.52 4.46 93.23 4.46 74.03 22.3 84.32 22.3 103.52"/><polygon class="cls-4" points="36.48 76.1 22.3 84.32 22.3 103.52 36.48 95.35 36.48 76.1"/><polygon class="cls-4" points="28.33 83.31 24 85.82 24 91.68 28.33 89.19 28.33 83.31"/><polygon class="cls-4" points="26.84 86.51 26.83 89.44 25.48 90.2 25.49 87.28 24.82 87.67 26.17 84.79 27.52 86.13 26.84 86.51"/><polygon class="cls-4" points="36.47 76.1 22.31 84.32 13.93 79.49 11.21 77.93 4.46 74.03 18.63 65.8 25.39 69.7 28.12 71.28 36.47 76.1"/><polygon class="cls-4" points="13.93 79.49 11.21 77.93 25.39 69.7 28.12 71.28 13.93 79.49"/><polygon class="cls-4" points="10.89 95.28 5.77 92.36 5.77 87.93 10.89 90.86 10.89 95.28"/><polygon class="cls-4" points="10.61 94.72 6.06 92.12 6.06 91.92 10.61 94.52 10.61 94.72"/><polygon class="cls-4" points="10.61 94.17 6.06 91.56 6.06 91.36 10.61 93.96 10.61 94.17"/><polygon class="cls-4" points="10.61 93.61 6.06 91.01 6.06 90.81 10.61 93.41 10.61 93.61"/><polygon class="cls-4" points="10.61 93.06 6.06 90.45 6.06 90.25 10.61 92.86 10.61 93.06"/><polygon class="cls-4" points="10.61 92.01 6.06 89.41 6.06 88.78 10.61 91.38 10.61 92.01"/><polygon class="cls-4" points="11.21 77.93 11.2 84.39 11.76 82.88 12.35 85.02 13.14 83.64 13.85 85.84 13.93 79.49 11.21 77.93"/><polygon class="cls-4" points="31.56 81.69 30.27 82.44 30.27 84.18 31.56 83.42 31.56 81.69"/><polygon class="cls-4" points="33.38 80.64 32.09 81.4 32.09 83.13 33.38 82.38 33.38 80.64"/><polygon class="cls-4" points="35.2 79.59 33.9 80.35 33.9 82.08 35.2 81.33 35.2 79.59"/><polygon class="cls-4" points="59.13 104.95 41.28 94.66 41.28 75.46 59.13 85.75 59.13 104.95"/><polygon class="cls-4" points="73.3 77.53 59.13 85.75 59.13 104.95 73.3 96.77 73.3 77.53"/><polygon class="cls-4" points="65.15 84.74 60.83 87.25 60.83 93.11 65.15 90.61 65.15 84.74"/><polygon class="cls-4" points="63.66 87.94 63.65 90.86 62.3 91.63 62.31 88.71 61.64 89.09 63 86.22 64.34 87.56 63.66 87.94"/><polygon class="cls-4" points="73.3 77.53 59.13 85.75 50.75 80.92 48.04 79.35 41.28 75.45 55.45 67.23 62.21 71.13 64.94 72.7 73.3 77.53"/><polygon class="cls-4" points="50.75 80.92 48.04 79.35 62.21 71.13 64.94 72.7 50.75 80.92"/><polygon class="cls-4" points="47.72 96.71 42.6 93.78 42.6 89.36 47.72 92.28 47.72 96.71"/><polygon class="cls-4" points="47.43 96.15 42.88 93.54 42.88 93.34 47.43 95.94 47.43 96.15"/><polygon class="cls-4" points="47.43 95.59 42.88 92.99 42.88 92.79 47.43 95.39 47.43 95.59"/><polygon class="cls-4" points="47.43 95.04 42.88 92.44 42.88 92.23 47.43 94.84 47.43 95.04"/><polygon class="cls-4" points="47.43 94.48 42.88 91.88 42.88 91.68 47.43 94.28 47.43 94.48"/><polygon class="cls-4" points="47.43 93.44 42.88 90.84 42.88 90.2 47.43 92.8 47.43 93.44"/><polygon class="cls-4" points="48.04 79.35 48.02 85.82 48.58 84.31 49.17 86.45 49.96 85.06 50.67 87.27 50.75 80.92 48.04 79.35"/><polygon class="cls-4" points="68.39 83.11 67.09 83.87 67.09 85.6 68.39 84.85 68.39 83.11"/><polygon class="cls-4" points="70.2 82.07 68.91 82.82 68.91 84.56 70.2 83.8 70.2 82.07"/><polygon class="cls-4" points="72.02 81.02 70.73 81.78 70.73 83.51 72.02 82.76 72.02 81.02"/><polygon class="cls-4" points="42.1 114.82 24.25 104.53 24.25 85.33 42.1 95.62 42.1 114.82"/><polygon class="cls-4" points="56.27 87.4 42.1 95.62 42.1 114.82 56.27 106.65 56.27 87.4"/><polygon class="cls-4" points="48.12 94.61 43.8 97.12 43.8 102.98 48.12 100.49 48.12 94.61"/><polygon class="cls-4" points="46.63 97.81 46.62 100.74 45.27 101.5 45.28 98.58 44.61 98.97 45.97 96.09 47.31 97.43 46.63 97.81"/><polygon class="cls-4" points="56.27 87.4 42.1 95.62 33.72 90.79 31 89.23 24.25 85.33 38.42 77.1 45.18 81 47.91 82.58 56.27 87.4"/><polygon class="cls-4" points="33.72 90.79 31 89.23 45.18 81 47.91 82.58 33.72 90.79"/><polygon class="cls-4" points="30.69 106.58 25.57 103.66 25.57 99.23 30.69 102.16 30.69 106.58"/><polygon class="cls-4" points="30.4 106.02 25.85 103.42 25.85 103.22 30.4 105.82 30.4 106.02"/><polygon class="cls-4" points="30.4 105.47 25.85 102.86 25.85 102.66 30.4 105.26 30.4 105.47"/><polygon class="cls-4" points="30.4 104.91 25.85 102.31 25.85 102.11 30.4 104.71 30.4 104.91"/><polygon class="cls-4" points="30.4 104.36 25.85 101.75 25.85 101.55 30.4 104.16 30.4 104.36"/><polygon class="cls-4" points="30.4 103.31 25.85 100.71 25.85 100.08 30.4 102.68 30.4 103.31"/><polygon class="cls-4" points="31 89.23 30.99 95.69 31.55 94.18 32.14 96.32 32.93 94.94 33.64 97.14 33.72 90.79 31 89.23"/><polygon class="cls-4" points="51.35 92.99 50.06 93.74 50.06 95.48 51.35 94.72 51.35 92.99"/><polygon class="cls-4" points="53.17 91.94 51.88 92.7 51.88 94.43 53.17 93.68 53.17 91.94"/><polygon class="cls-4" points="54.99 90.89 53.7 91.65 53.7 93.38 54.99 92.63 54.99 90.89"/><circle class="cls-5" cx="69.26" cy="6.25" r="6.25"/><circle class="cls-5" cx="102.73" cy="24.25" r="6.25"/><circle class="cls-5" cx="125.62" cy="52.91" r="6.25"/></g></g></g></svg>