<svg xmlns="http://www.w3.org/2000/svg" viewBox="0 0 189.34 183.08"><defs><style>.cls-1,.cls-2,.cls-3,.cls-4{fill:#eeeeef;stroke:#231916;stroke-miterlimit:10;stroke-width:0.25px;}.cls-2{opacity:0;}.cls-3{opacity:0.5;}.cls-4{opacity:0.7;}.cls-5{fill:#dd2625;}</style></defs><g id="Layer_2" data-name="Layer 2"><g id="Layer_1-2" data-name="Layer 1"><path class="cls-1" d="M138.48,54.19l-19.3,9L94.38,77.5,59.45,104c-5.47,4.21-9.64,12.11-9.64,18.73,0,7.37,5.18,10.35,11.56,6.67L136.67,86C144.05,81.7,150,71.34,150,62.81,150,55,145,51.45,138.48,54.19Z"/><path class="cls-1" d="M49.81,122.77c0-6.62,4.17-14.52,9.64-18.73L94.38,77.5l24.8-14.32,19.3-9C141.4,53,144,53,146,54.1h0l-13.42-7.71c-2-1.25-4.75-1.34-7.8-.06l-19.31,9L80.69,69.64,45.76,96.18c-5.47,4.21-9.64,12.11-9.64,18.73,0,3.59,1.23,6.15,3.24,7.39L53,130.11h0C51,128.84,49.81,126.31,49.81,122.77Z"/><polygon class="cls-1" points="108.9 69.12 109.38 68.84 95.72 60.96 95.25 61.23 108.9 69.12"/><polygon class="cls-1" points="102.45 57.07 116.11 64.96 116.58 64.68 102.93 56.8 102.45 57.07"/><polygon class="cls-1" points="94.49 77.44 94.96 77.16 81.31 69.28 80.83 69.55 94.49 77.44"/><polygon class="cls-1" points="101.69 73.28 102.17 73 88.51 65.12 88.04 65.39 101.69 73.28"/><path class="cls-1" d="M57.34,105.91l.35-.34L44,97.68l-.35.34Z"/><polygon class="cls-1" points="123.75 61.05 124.28 60.81 110.63 52.92 110.1 53.17 123.75 61.05"/><path class="cls-1" d="M126.21,45.83l13.64,7.87.65-.17-13.64-7.88Z"/><polygon class="cls-1" points="131.73 57.33 132.25 57.09 118.6 49.21 118.08 49.45 131.73 57.33"/><polygon class="cls-1" points="69.58 96.34 69.99 96.03 56.33 88.14 55.92 88.45 69.58 96.34"/><polygon class="cls-1" points="88.25 82.16 88.66 81.85 75 73.96 74.59 74.27 88.25 82.16"/><path class="cls-1" d="M50,125.21c0-.2-.07-.4-.1-.6l-13.7-7.91.09.6Z"/><path class="cls-1" d="M53,111.73c.07-.14.15-.28.23-.41l-13.67-7.9-.24.41Z"/><path class="cls-1" d="M50.4,118.2c0-.16.08-.32.13-.48l-13.69-7.9-.12.48Z"/><polygon class="cls-1" points="63.36 101.07 63.77 100.76 50.11 92.87 49.7 93.18 63.36 101.07"/><polygon class="cls-1" points="82.03 86.89 82.44 86.57 68.78 78.69 68.37 79 82.03 86.89"/><polygon class="cls-1" points="75.81 91.61 76.21 91.3 62.55 83.42 62.15 83.73 75.81 91.61"/><path class="cls-1" d="M143.06,55.37c1.72,1.39,2.75,3.85,2.75,7.14C145.81,70,140.5,79.22,134,83l-75.3,43.47a8.41,8.41,0,0,1-5.19,1.32c1.84,1.63,4.68,1.72,7.87-.12l75.3-43.47c6.51-3.76,11.82-13,11.82-20.47C148.49,59,146.34,55.93,143.06,55.37Z"/><path class="cls-1" d="M58.69,124.07,134,80.59c5.37-3.1,9.75-10.68,9.75-16.89,0-5.35-3.3-8.06-7.78-6.54L119.1,65,94.51,79.21l-34.8,26.44c-4.84,3.73-8.35,10.55-8.35,16.22,0,.3,0,.59,0,.86C52.61,125.29,55.42,126,58.69,124.07Z"/><polygon class="cls-1" points="117.45 95.27 117.93 95 115.55 93.62 115.07 93.9 117.45 95.27"/><polygon class="cls-1" points="124.44 91.24 124.91 90.97 122.53 89.59 122.06 89.86 124.44 91.24"/><polygon class="cls-1" points="131.42 87.21 131.9 86.93 129.52 85.56 129.04 85.83 131.42 87.21"/><path class="cls-1" d="M148.46,62.85l-2.7-1.56,0,.57,2.69,1.55C148.48,63.22,148.47,63,148.46,62.85Z"/><path class="cls-1" d="M138.29,83.11l.41-.31-2.43-1.4-.4.31Z"/><polygon class="cls-1" points="110.47 99.3 110.94 99.03 108.56 97.66 108.09 97.93 110.47 99.3"/><path class="cls-1" d="M143.75,77.36,144,77l-2.52-1.45c-.08.14-.17.26-.26.4Z"/><path class="cls-1" d="M147.36,70.17l.15-.46-2.59-1.49-.15.46Z"/><polygon class="cls-1" points="103.48 103.33 103.96 103.06 101.58 101.69 101.11 101.96 103.48 103.33"/><polygon class="cls-1" points="75.55 119.46 76.02 119.19 73.64 117.82 73.17 118.09 75.55 119.46"/><polygon class="cls-1" points="61.58 127.53 62.05 127.25 59.67 125.88 59.2 126.16 61.58 127.53"/><polygon class="cls-1" points="68.56 123.5 69.04 123.22 66.66 121.85 66.18 122.12 68.56 123.5"/><polygon class="cls-1" points="96.5 107.37 96.97 107.09 94.59 105.72 94.12 105.99 96.5 107.37"/><polygon class="cls-1" points="82.53 115.43 83.01 115.16 80.63 113.78 80.15 114.06 82.53 115.43"/><polygon class="cls-1" points="89.52 111.4 89.99 111.13 87.61 109.75 87.14 110.03 89.52 111.4"/><path class="cls-1" d="M51.45,120.35c.55,3.78,3.63,5.15,7.33,3A16.42,16.42,0,0,0,66.2,110.5c0-4.47-3-6.43-6.75-4.63A22.79,22.79,0,0,0,51.45,120.35Z"/><path class="cls-1" d="M65.87,111.3a14.76,14.76,0,0,1-6.67,11.55c-3.68,2.12-6.66.4-6.66-3.85a14.75,14.75,0,0,1,6.66-11.55C62.88,105.33,65.87,107.05,65.87,111.3Z"/><path class="cls-1" d="M71.46,48.32c.06-.13-.61-.55-1.77-1.08A16.61,16.61,0,0,0,66,46c-.12,0-.18,0-.19.05h0L48,89.53c-.05.13.62.56,1.77,1.08a15.89,15.89,0,0,0,3.66,1.27c.12,0,.19,0,.2,0,4.29-10.48,13.55-33,17.84-43.52Z"/><path class="cls-1" d="M51.85,90.76c1.45.66,2.15,1.16,1.57,1.12a15.89,15.89,0,0,1-3.66-1.27c-1.44-.66-2.15-1.16-1.57-1.12A15.89,15.89,0,0,1,51.85,90.76Z"/><path class="cls-1" d="M52.6,91.58c0-.09-.42-.38-1.21-.74a10.33,10.33,0,0,0-2.5-.86c-.09,0-.13,0-.14,0h0L36.56,119.75c0,.09.43.38,1.21.74a10.51,10.51,0,0,0,2.51.86c.08,0,.12,0,.13,0,2.93-7.17,9.26-22.59,12.19-29.75Z"/><polygon class="cls-1" points="89.5 61.57 103.13 69.44 103.13 68.1 89.5 60.23 89.5 61.57"/><polygon class="cls-1" points="103.13 69.44 143.63 46.06 143.63 44.71 103.13 68.1 103.13 69.44"/><polygon class="cls-1" points="103.13 68.1 143.63 44.71 130 36.9 89.5 60.28 103.13 68.1"/><polygon class="cls-1" points="95.94 99.58 70.74 84.78 151.12 38.37 176.32 53.17 95.94 99.58"/><polygon class="cls-1" points="161.65 48.29 155.88 18.62 137.21 29.79 116.57 32.23 104.72 25.39 101.33 54.28 113.17 61.11 124.36 83.17 135.27 76.87 162.01 61.11 161.65 48.29"/><polygon class="cls-1" points="78.76 93.78 53.56 78.98 50.43 88.21 75.63 103.01 78.76 93.78"/><polygon class="cls-1" points="52.82 89.61 54.88 82.52 75.88 94.85 73.25 101.6 52.82 89.61"/><polygon class="cls-1" points="116.57 32.23 104.72 25.39 101.33 54.28 113.17 61.11 116.57 32.23"/><polygon class="cls-1" points="105.55 28.57 102.61 53.64 112.2 59.18 115.15 34.11 105.55 28.57"/><polygon class="cls-1" points="116.57 32.23 113.17 61.11 124.36 83.17 135.27 76.87 137.21 29.79 116.57 32.23"/><polygon class="cls-1" points="137.2 27.34 116.57 29.82 104.72 22.99 109.35 11.26 128.04 0.14 155.88 16.22 137.2 27.34"/><polygon class="cls-1" points="137.2 27.34 116.57 29.82 104.72 22.99 104.72 25.39 116.57 32.23 137.2 29.74 155.88 18.62 155.88 16.22 137.2 27.34"/><polygon class="cls-1" points="104.72 22.99 104.72 25.39 116.57 32.23 116.57 29.82 104.72 22.99"/><polygon class="cls-1" points="118.72 34.37 115.72 59.88 129.37 60.83 133.73 56.48 134.72 32.48 118.72 34.37"/><polygon class="cls-1" points="158.18 42.92 154.19 22.41 139.54 31.17 138.59 54.23 158.18 42.92"/><polygon class="cls-2" points="105.92 28.79 105.55 28.61 102.66 53.17 113.14 51.14 115.15 34.11 105.92 28.79"/><polygon class="cls-2" points="122.96 42.32 122.96 33.87 118.72 34.37 117.14 47.75 122.96 42.32"/><polygon class="cls-2" points="157.59 39.88 154.19 22.41 143.37 28.88 143.96 31.85 157.59 39.88"/><polygon class="cls-2" points="134.72 32.48 127.36 33.35 127.36 38.93 134.57 35.99 134.72 32.48"/><polygon class="cls-1" points="101.04 54.1 71.89 75.96 84 82.97 113.14 61.11 101.04 54.1"/><polygon class="cls-1" points="113.14 61.11 84 82.97 95.94 99.58 124.36 83.17 113.14 61.11"/><polygon class="cls-1" points="105.81 83.01 89.13 86.02 96.62 96.44 109.99 88.71 105.81 83.01"/><polygon class="cls-1" points="117.98 75.89 112.31 64.72 87.3 83.47 87.77 84.13 112.13 79.74 117.98 75.89"/><polygon class="cls-1" points="78.76 93.78 53.56 78.98 65.46 72.11 90.66 86.91 78.76 93.78"/><polygon class="cls-1" points="75.63 139.07 50.43 124.27 50.43 88.21 75.63 103.01 75.63 139.07"/><polygon class="cls-1" points="52.82 122.91 52.82 89.61 73.25 101.6 73.25 134.91 52.82 122.91"/><polygon class="cls-1" points="54.01 122.22 54.01 91.69 72.06 102.29 72.06 132.82 54.01 122.22"/><polygon class="cls-1" points="95.94 99.58 90.66 86.91 78.76 93.78 75.63 103.01 75.63 139.07 169.82 84.69 175.67 66.84 176.32 53.17 95.94 99.58"/><path class="cls-1" d="M177.66,76.8l-19.31,9-24.79,14.31L98.63,126.65C93.16,130.86,89,138.77,89,145.38c0,7.37,5.17,10.36,11.55,6.67l75.3-43.47c7.39-4.26,13.37-14.63,13.37-23.16C189.21,77.61,184.18,74.06,177.66,76.8Z"/><path class="cls-1" d="M89,145.38c0-6.61,4.17-14.52,9.64-18.73l34.93-26.54L158.35,85.8l19.31-9c2.91-1.22,5.52-1.19,7.52-.09h0L171.76,69c-2-1.26-4.75-1.35-7.8-.07l-19.3,9-24.8,14.31L84.93,118.79c-5.47,4.21-9.64,12.11-9.64,18.73,0,3.6,1.24,6.15,3.24,7.4l13.61,7.8h0C90.19,151.45,89,148.93,89,145.38Z"/><polygon class="cls-1" points="148.07 91.73 148.55 91.46 134.89 83.57 134.42 83.85 148.07 91.73"/><polygon class="cls-1" points="141.63 79.69 155.28 87.57 155.76 87.3 142.1 79.41 141.63 79.69"/><polygon class="cls-1" points="133.66 100.05 134.13 99.78 120.48 91.89 120.01 92.17 133.66 100.05"/><polygon class="cls-1" points="140.87 95.89 141.34 95.62 127.69 87.73 127.21 88.01 140.87 95.89"/><path class="cls-1" d="M96.51,128.53l.35-.35L83.2,120.29c-.12.12-.24.23-.35.35Z"/><polygon class="cls-1" points="162.93 83.66 163.45 83.42 149.8 75.54 149.28 75.78 162.93 83.66"/><path class="cls-1" d="M165.38,68.44,179,76.31l.64-.17L166,68.27C165.82,68.32,165.6,68.37,165.38,68.44Z"/><polygon class="cls-1" points="170.91 79.95 171.43 79.7 157.78 71.82 157.25 72.07 170.91 79.95"/><polygon class="cls-1" points="108.76 118.95 109.17 118.64 95.51 110.76 95.1 111.07 108.76 118.95"/><polygon class="cls-1" points="127.42 104.77 127.83 104.46 114.17 96.57 113.77 96.88 127.42 104.77"/><path class="cls-1" d="M89.2,147.82c0-.19-.07-.4-.1-.6l-13.69-7.91a5.77,5.77,0,0,0,.09.6Z"/><path class="cls-1" d="M92.17,134.34l.24-.41L78.73,126c-.08.13-.15.27-.23.41Z"/><path class="cls-1" d="M89.58,140.81l.12-.47L76,132.44c0,.16-.09.31-.13.47Z"/><polygon class="cls-1" points="102.53 123.68 102.94 123.37 89.28 115.48 88.87 115.8 102.53 123.68"/><polygon class="cls-1" points="121.2 109.5 121.61 109.19 107.95 101.3 107.54 101.61 121.2 109.5"/><polygon class="cls-1" points="114.98 114.23 115.39 113.92 101.73 106.03 101.32 106.34 114.98 114.23"/><path class="cls-1" d="M182.23,78C184,79.37,185,81.83,185,85.12c0,7.52-5.3,16.71-11.82,20.47l-75.3,43.48a8.43,8.43,0,0,1-5.18,1.31c1.83,1.63,4.68,1.73,7.86-.12l75.3-43.47c6.52-3.76,11.82-13,11.82-20.47C187.66,81.57,185.52,78.54,182.23,78Z"/><path class="cls-1" d="M97.86,146.68l75.3-43.47c5.38-3.11,9.76-10.69,9.76-16.9,0-5.35-3.31-8.06-7.79-6.54l-16.85,7.86-24.6,14.2-34.8,26.44c-4.83,3.72-8.35,10.54-8.35,16.22,0,.29,0,.58,0,.86C91.79,147.9,94.59,148.57,97.86,146.68Z"/><polygon class="cls-1" points="156.63 117.89 157.1 117.61 154.72 116.24 154.25 116.51 156.63 117.89"/><polygon class="cls-1" points="163.61 113.85 164.09 113.58 161.71 112.2 161.23 112.48 163.61 113.85"/><polygon class="cls-1" points="170.6 109.82 171.07 109.55 168.69 108.17 168.22 108.45 170.6 109.82"/><path class="cls-1" d="M187.64,85.47l-2.71-1.57c0,.19,0,.38,0,.57L187.65,86C187.65,85.84,187.65,85.65,187.64,85.47Z"/><path class="cls-1" d="M177.47,105.72l.41-.31-2.43-1.4-.4.32Z"/><polygon class="cls-1" points="149.65 121.92 150.12 121.64 147.74 120.27 147.26 120.54 149.65 121.92"/><path class="cls-1" d="M182.93,100l.26-.39-2.51-1.45-.27.39Z"/><path class="cls-1" d="M186.53,92.79l.15-.47-2.59-1.49-.15.46Z"/><polygon class="cls-1" points="142.66 125.95 143.13 125.67 140.75 124.3 140.28 124.58 142.66 125.95"/><polygon class="cls-1" points="114.72 142.08 115.2 141.8 112.82 140.43 112.34 140.71 114.72 142.08"/><polygon class="cls-1" points="100.75 150.14 101.23 149.87 98.85 148.5 98.38 148.77 100.75 150.14"/><polygon class="cls-1" points="107.74 146.11 108.21 145.84 105.83 144.46 105.36 144.74 107.74 146.11"/><polygon class="cls-1" points="135.68 129.98 136.15 129.71 133.77 128.33 133.3 128.61 135.68 129.98"/><polygon class="cls-1" points="121.71 138.05 122.18 137.77 119.8 136.4 119.33 136.67 121.71 138.05"/><polygon class="cls-1" points="128.69 134.01 129.17 133.74 126.79 132.37 126.31 132.64 128.69 134.01"/><path class="cls-1" d="M182.15,86.89c0,5.35-3.75,11.85-8.38,14.52s-8.39.51-8.39-4.84,3.76-11.85,8.39-14.52S182.15,81.54,182.15,86.89Z"/><path class="cls-1" d="M90.63,143c.55,3.78,3.62,5.15,7.33,3a16.43,16.43,0,0,0,7.42-12.86c0-4.47-3-6.43-6.75-4.63A22.72,22.72,0,0,0,90.63,143Z"/><path class="cls-1" d="M181.45,87.5A16.44,16.44,0,0,1,174,100.41c-4.12,2.38-7.45.45-7.45-4.3A16.47,16.47,0,0,1,174,83.2C178.12,80.82,181.45,82.75,181.45,87.5Z"/><path class="cls-1" d="M105,133.91a14.74,14.74,0,0,1-6.66,11.55c-3.69,2.13-6.67.4-6.67-3.85a14.7,14.7,0,0,1,6.67-11.54C102.05,127.94,105,129.67,105,133.91Z"/><polygon class="cls-1" points="155.83 109.59 107.25 137.63 107.25 128.16 155.83 100.11 155.83 109.59"/><polygon class="cls-1" points="153.22 97.42 104.64 125.47 107.25 128.16 155.83 100.11 153.22 97.42"/><path class="cls-1" d="M113.11,134.29a6,6,0,0,1-2.72,4.71c-1.5.87-2.71.16-2.71-1.57a6,6,0,0,1,2.71-4.71C111.9,131.86,113.11,132.56,113.11,134.29Z"/><path class="cls-1" d="M118.87,131a6,6,0,0,1-2.71,4.71c-1.51.86-2.72.16-2.72-1.58a6,6,0,0,1,2.72-4.7C117.66,128.53,118.87,129.23,118.87,131Z"/><path class="cls-1" d="M125.29,127.26a6,6,0,0,1-2.72,4.71c-1.5.87-2.72.17-2.72-1.57a6,6,0,0,1,2.72-4.71C124.07,124.83,125.29,125.53,125.29,127.26Z"/><path class="cls-1" d="M142.86,117.12a6,6,0,0,1-2.72,4.71c-1.5.86-2.72.16-2.72-1.57a6,6,0,0,1,2.72-4.71C141.64,114.68,142.86,115.38,142.86,117.12Z"/><path class="cls-1" d="M150.12,112.93a6,6,0,0,1-2.72,4.71c-1.5.86-2.72.16-2.72-1.57a6,6,0,0,1,2.72-4.71C148.9,110.49,150.12,111.2,150.12,112.93Z"/><polygon class="cls-1" points="163.59 101.99 155.83 106.47 155.83 102.71 163.59 98.23 163.59 101.99"/><path class="cls-1" d="M153.83,92.77a4.59,4.59,0,0,1-2.07,3.58c-1.14.66-2.07.12-2.07-1.2a4.57,4.57,0,0,1,2.07-3.58C152.9,90.91,153.83,91.45,153.83,92.77Z"/><path class="cls-1" d="M134.38,104a4.57,4.57,0,0,1-2.07,3.58c-1.14.66-2.07.12-2.07-1.19a4.59,4.59,0,0,1,2.07-3.59C133.45,102.14,134.38,102.68,134.38,104Z"/><polygon class="cls-1" points="128.38 84.07 142.01 91.94 142.01 90.6 128.38 82.73 128.38 84.07"/><polygon class="cls-1" points="142.01 91.94 182.51 68.56 182.51 67.22 142.01 90.6 142.01 91.94"/><polygon class="cls-1" points="142.01 90.6 182.51 67.22 168.87 59.4 128.38 82.79 142.01 90.6"/><polygon class="cls-1" points="166.42 47.75 139.66 63.2 145.44 66.65 172.21 51.2 166.42 47.75"/><polygon class="cls-1" points="166.42 47.75 173.66 49.13 181.98 54.17 172.21 51.2 166.42 47.75"/><polygon class="cls-1" points="146.5 74.13 146.78 82.43 181.98 61.91 181.98 54.17 173.26 58.68 146.5 74.13"/><polygon class="cls-1" points="146.5 74.13 145.44 66.65 172.21 51.2 181.98 54.17 173.26 58.68 146.5 74.13"/><polygon class="cls-3" points="146.5 74.13 145.44 66.65 172.21 51.2 181.98 54.17 173.26 58.68 146.5 74.13"/><polygon class="cls-1" points="146.78 82.43 138.11 77.4 139.66 63.2 145.44 66.65 146.5 74.13 146.78 82.43"/><polygon class="cls-1" points="84.45 153.37 88.08 155.21 92.22 150.96 88.59 149.13 84.45 153.37"/><polygon class="cls-1" points="88.08 155.21 88.76 158.41 92.22 157.78 92.22 150.96 88.08 155.21"/><polygon class="cls-1" points="156.77 113.46 139.77 123.28 139.77 115.19 156.77 105.37 156.77 113.46"/><polygon class="cls-1" points="139.77 123.28 137.47 121.8 137.47 113.7 139.77 115.19 139.77 123.28"/><polygon class="cls-1" points="156.77 105.37 139.77 115.19 137.47 113.7 154.46 103.89 156.77 105.37"/><polygon class="cls-1" points="92.22 150.96 154.67 111.47 157.14 112.18 157.14 114.32 155.23 117.76 92.22 157.78 92.22 150.96"/><polygon class="cls-1" points="154.67 111.47 92.22 150.96 88.59 149.13 151.04 109.63 154.67 111.47"/><polygon class="cls-1" points="157.14 112.18 154.67 111.47 151.04 109.63 153.52 110.34 157.14 112.18"/><path class="cls-1" d="M104.09,62.34c.07-.13-.61-.56-1.76-1.08A16.09,16.09,0,0,0,98.66,60c-.13,0-.19,0-.2,0h0L80.63,103.55c-.06.13.62.55,1.77,1.07a15.89,15.89,0,0,0,3.66,1.27c.12,0,.19,0,.2,0,4.29-10.48,13.55-33,17.83-43.51Z"/><path class="cls-1" d="M84.49,104.78c1.45.65,2.15,1.15,1.57,1.11a15.89,15.89,0,0,1-3.66-1.27c-1.45-.65-2.15-1.15-1.57-1.11A15.89,15.89,0,0,1,84.49,104.78Z"/><path class="cls-1" d="M85.24,105.6c0-.09-.42-.38-1.21-.74a11.15,11.15,0,0,0-2.51-.87c-.08,0-.12,0-.13,0h0L69.2,133.77c0,.09.42.38,1.21.73a10.62,10.62,0,0,0,2.5.87c.08,0,.13,0,.14,0,2.93-7.16,9.26-22.58,12.19-29.74Z"/><polygon class="cls-1" points="74.83 158.12 92.48 168.06 92.46 140.46 75.69 123.41 74.83 158.12"/><polygon class="cls-1" points="13.16 96.14 13.43 125.45 7.44 131.96 5.76 132.93 7.34 99.38 11.66 95.97 13.16 96.14"/><polygon class="cls-1" points="74.83 158.12 31.39 132.87 32.51 98.37 75.69 123.41 74.83 158.12"/><polygon class="cls-4" points="74.83 158.12 31.39 132.87 32.51 98.37 75.69 123.41 74.83 158.12"/><polygon class="cls-1" points="13.43 125.37 31.39 132.87 32.51 98.37 15.36 96.06 13.43 125.37"/><polygon class="cls-3" points="74.83 158.12 92.48 168.06 92.46 140.46 75.69 123.41 74.83 158.12"/><polygon class="cls-3" points="13.43 125.37 31.39 132.87 32.51 98.37 15.36 96.06 13.43 125.37"/><polygon class="cls-1" points="74.83 158.12 31.39 132.87 13.43 125.37 5.76 132.93 22.66 138.22 70.79 166.1 82.86 177.43 92.48 168.06 74.83 158.12"/><polygon class="cls-1" points="16.74 143.4 0.26 138.11 5.76 133.81 22.66 139.1 70.79 167.03 82.86 178.36 76.95 182.77 59.77 168.24 16.74 143.4"/><polygon class="cls-1" points="22.66 138.22 5.76 132.93 5.76 133.81 22.66 139.1 70.79 167.03 82.86 178.36 82.86 177.43 70.79 166.1 22.66 138.22"/><polygon class="cls-1" points="79.15 123.93 35.97 98.89 32.51 98.37 75.69 123.41 89.02 140.06 92.46 140.46 79.15 123.93"/><polygon class="cls-1" points="91.44 138.99 91.44 166.27 83.53 174.98 81.85 175.96 83.43 142.4 87.75 138.56 91.44 138.99"/><polygon class="cls-1" points="92.46 140.46 92.46 167.75 84.54 176.46 82.86 177.43 84.44 143.87 88.76 140.03 92.46 140.46"/><polygon class="cls-1" points="79.92 171.74 82.28 170.37 84.21 171.99 81.58 173.35 76.95 182.77 75.29 181.15 79.92 171.74"/><polygon class="cls-1" points="79.92 171.74 75.29 181.15 76.95 182.77 81.58 173.35 79.92 171.74"/><polygon class="cls-1" points="81.58 173.35 83.94 171.99 85.32 172.79 82.86 179.43 76.95 182.77 81.58 173.35"/><polygon class="cls-1" points="4.48 128.86 6.84 127.5 8.46 128 6.1 129.36 1.88 138.61 0.26 138.11 4.48 128.86"/><polygon class="cls-1" points="4.48 128.86 0.26 138.11 1.88 138.61 6.1 129.36 4.48 128.86"/><polygon class="cls-1" points="15.36 96.06 14.85 125.96 8.95 132.13 7.26 133.1 8.84 99.55 13.16 96.14 15.36 96.06"/><polygon class="cls-1" points="6.1 129.36 8.46 128 9.83 128.79 7.37 134.31 1.88 138.61 6.1 129.36"/><path class="cls-1" d="M87.38,42.28a2.44,2.44,0,0,0-2.23,0,.78.78,0,0,0-.46.64V73.77a.78.78,0,0,0,.46.65,2.5,2.5,0,0,0,2.23,0,.8.8,0,0,0,.46-.65V42.92A.8.8,0,0,0,87.38,42.28Z"/><path class="cls-1" d="M87.38,42.28a.68.68,0,0,1,0,1.28,2.44,2.44,0,0,1-2.23,0,.67.67,0,0,1,0-1.28A2.44,2.44,0,0,1,87.38,42.28Z"/><polygon class="cls-1" points="175.42 60.97 173.25 59.34 165.72 63.68 165.72 70.31 175.42 64.71 175.42 60.97"/><circle class="cls-5" cx="140.79" cy="8.18" r="5.9"/><circle class="cls-5" cx="113.92" cy="8.45" r="5.9"/><circle class="cls-5" cx="143.86" cy="25.39" r="5.9"/></g></g></svg>