<?xml version="1.0" encoding="utf-8"?>
<!-- Generator: Adobe Illustrator 26.0.1, SVG Export Plug-In . SVG Version: 6.00 Build 0)  -->
<svg version="1.1" id="Layer_1" xmlns="http://www.w3.org/2000/svg" xmlns:xlink="http://www.w3.org/1999/xlink" x="0px" y="0px"
	 viewBox="0 0 260 200" style="enable-background:new 0 0 260 200;" xml:space="preserve">
<style type="text/css">
	.st0{fill:#EEEEEF;stroke:#231916;stroke-width:0.25;stroke-miterlimit:10;}
	.st1{fill-rule:evenodd;clip-rule:evenodd;fill:#EEEEEF;stroke:#231916;stroke-width:0.25;stroke-miterlimit:10;}
	.st2{fill:#DD2625;}
</style>
<g>
	<g id="Layer_2_00000050646661085840293190000004514536472599751049_">
		<g id="Layer_1-2">
			<path class="st0" d="M160.7,97.5l1.8-0.8L115,73.2c-3.3-2-7.5-2-10.8-0.1L84.3,84.4c-1,0.6-1.4,1.9-0.9,2.9
				c0.1,0.2,0.3,0.4,0.5,0.6l24.5,23.3l8.5,6.6L80.8,97.1l-2.7,1.7l35.9,20.7l-13.4,7.3l15.1,8.5l-48.9,26.9l5.9,3.8l48.6-27.3
				l10,5.7l-48.8,27.5l4.8,2.7l48.8-27.5l5.8,3.3l18.2-9.7l3.8,2.2l36-21.9L160.7,97.5z"/>
			<path class="st1" d="M193.3,102.9v12.3l-12.3,9.2C181.1,124.4,181.4,106.3,193.3,102.9z"/>
			<path class="st1" d="M177.4,116.3c0.3,4.3,3.8,6,7.9,3.7c4.1-2.3,7.2-7.6,7-11.8s-3.8-6-7.9-3.7
				C180.3,106.7,177.1,112,177.4,116.3z"/>
			<polygon class="st1" points="196.8,108.1 190,104 192.1,108.1 			"/>
			<polygon class="st1" points="186.2,124.5 179.4,120.3 185.1,117.6 185.8,122.5 			"/>
			<path class="st1" d="M184.2,120.4c0.3,4.3,3.8,6,7.9,3.7s7.2-7.6,7-11.8s-3.8-6-7.9-3.7S183.9,116.2,184.2,120.4z"/>
			<path class="st1" d="M186.2,119.3c0.2,3.1,2.8,4.3,5.7,2.7s5.2-5.4,5-8.5s-2.8-4.3-5.7-2.7S186,116.2,186.2,119.3z"/>
			<path class="st1" d="M184.2,120.4c0.3,4.3,3.8,6,7.9,3.7s7.2-7.6,7-11.8s-3.8-6-7.9-3.7S183.9,116.2,184.2,120.4z"/>
			<path class="st1" d="M184.9,120.1c0.2,3.9,3.5,5.4,7.2,3.4s6.5-6.8,6.3-10.7s-3.5-5.4-7.2-3.4S184.6,116.2,184.9,120.1z"/>
			<path class="st1" d="M186.7,119.1c0.2,2.8,2.5,4,5.3,2.5s4.8-5,4.6-7.9s-2.6-4-5.3-2.5S186.5,116.2,186.7,119.1z"/>
			<path class="st1" d="M187,118.5c0.2,2.5,2.2,3.5,4.6,2.2c2.5-1.5,4-4.1,4.1-7c-0.2-2.5-2.2-3.5-4.6-2.2
				C188.6,113,187,115.7,187,118.5z"/>
			<path class="st1" d="M187.1,118.4c0.2,2.4,2.2,3.4,4.5,2.1c2.4-1.4,3.9-3.9,3.9-6.7c-0.1-2.4-2.2-3.4-4.5-2.1
				C188.7,113.1,187.2,115.7,187.1,118.4z"/>
			<path class="st1" d="M187.4,118.3c0.1,2.3,2,3.2,4.2,2c2.3-1.3,3.7-3.7,3.7-6.3c-0.1-2.3-2-3.2-4.2-2
				C188.9,113.3,187.5,115.7,187.4,118.3z"/>
			<path class="st1" d="M187.7,118.2c0.1,2.1,1.9,3,4,1.9c2.1-1.2,3.4-3.5,3.5-5.9c-0.1-2.1-1.9-3-3.8-1.9c0,0-0.1,0-0.1,0
				c-1.9,1.1-3.2,3-3.4,5.2C187.7,117.7,187.6,118,187.7,118.2z"/>
			<path class="st1" d="M187.7,117.5c0.4,0.8,1.4,1.1,2.5,0.4c1.5-0.8,2.4-2.4,2.4-4.1c-0.1-1-0.6-1.6-1.4-1.6c0,0-0.1,0-0.1,0
				C189.2,113.3,187.9,115.3,187.7,117.5z"/>
			<polygon class="st0" points="145.4,60.6 158.1,53.2 158.1,73.5 145.4,80.9 			"/>
			<polygon class="st0" points="150.7,57.4 186.3,78.7 180.2,82.4 145.4,60.6 			"/>
			<polygon class="st0" points="117,97.3 114.8,98.5 114.8,97.3 			"/>
			<path class="st1" d="M101.6,113.4c0.3,4.3,3.8,6,7.9,3.7s7.2-7.6,7-11.8s-3.8-6-7.9-3.7C104.5,103.9,101.3,109.2,101.6,113.4z"/>
			<polygon class="st1" points="121,105.3 114.2,101.1 116.3,105.3 			"/>
			<polygon class="st1" points="110.4,121.7 103.6,117.4 109.3,114.8 110,119.6 			"/>
			<path class="st1" d="M108.4,117.6c0.3,4.3,3.8,6,7.9,3.7c4.1-2.3,7.2-7.6,7-11.8c-0.2-4.3-3.8-6-7.9-3.7S108.1,113.3,108.4,117.6
				z"/>
			<path class="st1" d="M110.4,116.5c0.2,3.1,2.8,4.3,5.7,2.7s5.2-5.4,5-8.5s-2.8-4.3-5.7-2.7S110.3,113.4,110.4,116.5z"/>
			<path class="st1" d="M108.4,117.6c0.3,4.3,3.8,6,7.9,3.7c4.1-2.3,7.2-7.6,7-11.8c-0.2-4.3-3.8-6-7.9-3.7S108.1,113.3,108.4,117.6
				z"/>
			<path class="st1" d="M109.1,117.2c0.2,3.9,3.5,5.4,7.2,3.4s6.5-6.8,6.3-10.7s-3.5-5.4-7.2-3.4S108.9,113.4,109.1,117.2z"/>
			<path class="st1" d="M110.9,116.3c0.2,2.8,2.6,4,5.3,2.5c2.8-1.6,4.6-4.6,4.6-7.9c-0.2-2.8-2.5-4-5.3-2.5
				C112.7,110,110.9,113,110.9,116.3z"/>
			<path class="st1" d="M111.2,115.7c0.2,2.5,2.2,3.5,4.7,2.2c2.5-1.4,4-4.1,4.1-6.9c-0.2-2.5-2.2-3.5-4.7-2.2
				C112.8,110.2,111.3,112.8,111.2,115.7z"/>
			<path class="st1" d="M111.4,115.6c0.2,2.4,2.2,3.4,4.5,2.1c2.4-1.4,3.9-3.9,4-6.7c-0.2-2.4-2.2-3.4-4.5-2.1
				C112.9,110.3,111.4,112.9,111.4,115.6z"/>
			<path class="st1" d="M111.6,115.5c0.1,2.3,2,3.2,4.2,2c2.3-1.3,3.7-3.7,3.7-6.3c-0.2-2.3-2-3.2-4.2-2
				C113.1,110.5,111.7,112.9,111.6,115.5z"/>
			<path class="st1" d="M111.9,115.4c0.1,2.2,1.9,3,4,1.9c2.1-1.2,3.5-3.5,3.5-6c-0.1-2.1-1.8-3-3.8-1.9c0,0-0.1,0-0.1,0
				c-2,1.1-3.3,3.1-3.5,5.4C111.9,114.9,111.9,115.1,111.9,115.4z"/>
			<path class="st1" d="M111.9,114.7c0.4,0.8,1.4,1.1,2.5,0.4c1.5-0.8,2.5-2.4,2.5-4.1c-0.1-1-0.6-1.6-1.4-1.6c0,0-0.1,0-0.1,0
				C113.4,110.5,112.1,112.5,111.9,114.7z"/>
			<path class="st0" d="M110.6,95.6l5.7,3.8l44.8-12.1V75.2c0-1.2-0.4-2.3-1.2-3.1c-1.4-1.6-3.8-2.7-5.8-1.5L110.6,95.6z"/>
			<polygon class="st0" points="141.8,126.3 146.6,129.1 141.8,134.5 			"/>
			<path class="st1" d="M166.7,137.7l-15.7-7.9l3.9-8.6c0,0,5.6-3.8,9.1-2C167.8,121.1,169.5,129,166.7,137.7z"/>
			<polygon class="st0" points="116,106.1 141.8,121.2 141.8,134.5 116,119.4 			"/>
			<polygon class="st0" points="186.3,78.7 193,95.3 150.4,119.9 150.4,99.6 			"/>
			<path class="st0" d="M117.3,98.4l32.9-19.2V33.6c0-2.1-0.9-4.1-2.6-5.4l-0.3-0.2c0,0,0,0,0-0.1c-2.2-1.5-5.1-1.7-7.4-0.3
				l-17.3,10C122.6,37.7,116.9,61.5,117.3,98.4z M124.8,41.2l16.1-9.3c0.2-0.1,0.4-0.2,0.6-0.2c0.7,0,1.3,0.6,1.3,1.3c0,0,0,0,0,0
				v42.3l-25.5,15C115,59.7,122.7,44.6,124.8,41.2L124.8,41.2z"/>
			<path class="st0" d="M148.9,32.3c0-1.4-0.5-2.8-1.4-4c1.6,1.3,2.6,3.2,2.6,5.3v45.5l-32.9,19.2c-0.1-0.7-0.1-1.3-0.1-2l31.7-18.6
				V32.3z"/>
			<path class="st0" d="M141.6,31.7c0.7,0,1.2,0.6,1.2,1.3v42.3l-25.5,15c0-0.7-0.1-1.3-0.1-2L141.6,74V31.7z"/>
			<polygon class="st0" points="115.5,94 149.7,113.9 180.2,96.6 146,76.7 			"/>
			<polygon class="st0" points="146,56.4 180.2,76.3 180.2,96.6 146,76.7 			"/>
			<polygon class="st0" points="178.2,78.3 146,59.4 146,56.4 180.2,76.3 180.2,96.6 178.2,95.5 			"/>
			<path class="st0" d="M134.5,88.8v1.7c0,0.7,0.4,1.4,1,1.8l11.6,6.6c1.4,0.8,3.2,0.8,4.6,0l14.6-8.5V68.8c0-1.8-0.9-3.5-2.5-4.4
				L152,57.5c-1-0.6-3.9,1.1-3.9,2.3l1.5,21l-6.9,4l-6.1,3.5L134.5,88.8z"/>
			<path class="st0" d="M134.5,88.8v1.7c0,0.7,0.4,1.4,1,1.8l11.6,6.6c1.4,0.8,3.2,0.8,4.6,0l14.6-8.5v-1.8l-1.6,0.9l-28.1-1.2
				L134.5,88.8z"/>
			<path class="st0" d="M158.7,75l-10.4-12.8l-0.2-2.5c0-1.2,2.8-2.9,3.9-2.3l11.9,6.9c1.6,0.9,2.5,2.6,2.5,4.4l-2.2,1.2L158.7,75z"
				/>
			<path class="st0" d="M150.4,58.9l11.8,6.9c1.6,0.9,2.5,2.6,2.5,4.4v19.4l-16.7-9.6V60.2c0-0.9,0.7-1.6,1.6-1.6
				C149.9,58.7,150.2,58.7,150.4,58.9z"/>
			<path class="st0" d="M164.8,89.5l-13.1,7.6c-1.4,0.8-3.2,0.8-4.6,0l-11.6-6.7c-0.9-0.5-1.2-1.7-0.7-2.6c0.2-0.3,0.4-0.5,0.7-0.7
				l12.6-7.2L164.8,89.5z"/>
			<path class="st0" d="M139.9,30.3l10.3,6l19.7,11.5h6.9l-29.2-16.9l-0.3-0.2l0,0c-1.8-1.3-5.2-3.8-7.4-2.9V30.3z"/>
			<path class="st0" d="M116.3,108.4l29.7,17.9c0.5-47.7,6.6-71.2,6.6-71.2l-30-17.5C122.6,37.7,115.9,55.7,116.3,108.4z
				 M122.6,45.4c0.2-1.4,1.8-2,3.2-1.8c0.4,0.1,0.7,0.2,1,0.4c3.9,2.2,10.8,6.3,15.6,9l2.2,1.3c1.6,0.9,1.9,2.8,1.6,4.6
				c-1.2,6.9-2.2,18.9-5.9,39.5c-0.4,2.2-5.7,3-12.7-0.4c-8.5-4.1-9.8-8.2-9.7-9.5C120.4,63,121.7,52.4,122.6,45.4z"/>
			<path class="st0" d="M124.6,44.3c-1.1,7-2,19.7-4.7,43c-0.2,1.3,1.2,5.4,9.7,9.5c4.4,2.1,8.3,2.6,10.6,2.2c-1,1.7-6.2,2-12.5-1
				c-8.5-4.1-9.7-8.2-9.7-9.5c1.5-22.6,3.5-36,4.7-43c0.3-1.1,1.3-1.8,2.4-1.9C124.8,43.8,124.6,44.1,124.6,44.3z"/>
			<path class="st0" d="M143,29.5l-14.1,8.1l-3.1-1.8l14.1-8.2c2.3-1.3,5.2-1.2,7.4,0.3c0,0,0,0,0,0.1l0.3,0.2l29.2,16.9h-6.9
				l-19.7-11.5L143,29.5z"/>
			<polygon class="st0" points="125.7,35.9 152.6,51.6 166.7,43.4 169.9,45.2 155.7,53.4 152.6,55.2 122.6,37.7 			"/>
			<path class="st0" d="M145,117.3c-0.2,2.1,0.4,4.3,0.7,6.6l2.2,1.3c-0.4-3.1-0.7-6.1-1-9c-4.2-46.7,9-62.7,9-62.7l-0.2-0.1
				l-3.1,1.8l0,0c0,0.1-0.1,0.1-0.1,0.2c-0.2,0.2-0.3,0.4-0.4,0.7C149.6,60,148.1,85.6,145,117.3z"/>
			<path class="st0" d="M144.4,117.7l0.6-0.3l2-1.2l33.2-19.5V51.1c0-3.8-3.1-6.9-6.8-6.9c-1.2,0-2.4,0.3-3.5,0.9l-14.2,8.2
				l-3.1,1.8l0,0c0,0.1-0.1,0.1-0.1,0.2c-0.2,0.2-0.3,0.4-0.5,0.7C149.3,60.3,143.9,93.2,144.4,117.7z M154.9,58.7l16.2-9.3
				c0.2-0.1,0.4-0.2,0.6-0.2c0.7,0,1.2,0.6,1.2,1.3v42.3l-25.5,15C150.4,76.1,152.8,62.1,154.9,58.7z"/>
			<path class="st0" d="M171,49.3c0.2-0.1,0.4-0.2,0.6-0.2c0.7,0,1.3,0.6,1.3,1.3c0,0,0,0,0,0v42.3l-25.5,15c-0.1-1-0.1-1.9-0.2-2.9
				l22.9-13.5V49.8L171,49.3z"/>
			<path class="st1" d="M143,137.3c0.3,4.3,3.8,6,7.9,3.7c4.1-2.3,7.2-7.6,7-11.9c-0.2-4.3-3.8-6-7.9-3.7S142.8,133,143,137.3z"/>
			<polygon class="st1" points="162.4,129.1 155.6,124.9 157.8,129.1 			"/>
			<polygon class="st1" points="151.8,145.5 145,141.2 150.7,138.6 151.4,143.4 			"/>
			<path class="st1" d="M149.8,141.4c0.3,4.3,3.8,6,7.9,3.7c4.1-2.3,7.2-7.6,7-11.9c-0.2-4.3-3.8-6-7.9-3.7
				C152.7,131.9,149.5,137.1,149.8,141.4z"/>
			<path class="st1" d="M151.9,140.3c0.2,3.1,2.8,4.3,5.7,2.7c3-1.6,5.2-5.5,5-8.5c-0.2-3.1-2.8-4.3-5.7-2.7
				C153.9,133.4,151.7,137.2,151.9,140.3z"/>
			<path class="st1" d="M149.8,141.4c0.3,4.3,3.8,6,7.9,3.7c4.1-2.3,7.2-7.6,7-11.9c-0.2-4.3-3.8-6-7.9-3.7
				C152.7,131.9,149.5,137.1,149.8,141.4z"/>
			<path class="st1" d="M150.5,141c0.2,3.9,3.5,5.4,7.2,3.4c3.7-2,6.5-6.8,6.3-10.7c-0.2-3.9-3.5-5.4-7.2-3.4
				C153.1,132.4,150.3,137.2,150.5,141z"/>
			<path class="st1" d="M152.3,140.1c0.2,2.8,2.5,4,5.3,2.5c2.7-1.5,4.8-5,4.6-7.9s-2.5-4-5.3-2.5
				C154.2,133.7,152.1,137.2,152.3,140.1z"/>
			<path class="st1" d="M152.6,139.5c0.2,2.5,2.2,3.5,4.7,2.2c2.5-1.4,4.1-4.1,4.1-7c-0.2-2.5-2.2-3.5-4.6-2.2
				C154.2,134,152.7,136.6,152.6,139.5z"/>
			<path class="st1" d="M152.8,139.4c0.1,2.4,2.2,3.4,4.5,2.1c2.4-1.4,3.9-3.9,4-6.7c-0.1-2.4-2.2-3.4-4.5-2.1
				C154.4,134.1,152.8,136.7,152.8,139.4z"/>
			<path class="st1" d="M153,139.3c0.1,2.3,2,3.2,4.2,2c2.3-1.3,3.7-3.7,3.7-6.3c-0.1-2.3-2-3.2-4.2-2
				C154.5,134.3,153.1,136.7,153,139.3z"/>
			<path class="st1" d="M153.3,139.2c0.1,2.1,1.9,3.1,4,1.9c2.1-1.2,3.7-3.7,3.5-6c-0.2-2.3-1.8-3-3.8-1.9c-0.1,0-0.1,0-0.1,0
				c-1.9,1.1-3.2,3.1-3.5,5.3C153.3,138.7,153.3,138.9,153.3,139.2z"/>
			<path class="st1" d="M153.3,138.4c0.4,0.8,1.4,1.1,2.5,0.5c1.5-0.8,2.4-2.4,2.5-4.1c-0.1-1-0.6-1.6-1.4-1.6c-0.1,0-0.1,0-0.1,0.1
				C154.9,134.3,153.6,136.3,153.3,138.4z"/>
			<path class="st0" d="M167.2,121.2l-2,2.8l-2,5.7l-2.9-1.9c0,0-5.8-1-7.2,1c-1.4,1.7-2.9,3.3-4.6,4.8l-4.4-5.1l14.2-10.3
				L167.2,121.2z"/>
			<path class="st0" d="M149.7,118.9l0.7,6.9l13.6-6.6c0.5,0.6,1.9,8.6,1.9,8.6l0.8,10l8.8-5.1l5.2-3l2.2-1.3v-9.7l10.2-14.7
				l1.3-0.7l-1.3-9.5L149.7,118.9z"/>
			<polygon class="st0" points="149.7,130.8 119.4,112.7 110.3,95.9 149.7,118.9 			"/>
			<polygon class="st0" points="189.6,97.5 188.4,98.1 185.3,107.6 186.5,107 			"/>
			<polygon class="st0" points="187.1,98.8 186,99.5 182.8,109 184,108.3 			"/>
			<polygon class="st0" points="184.7,100.2 183.5,100.9 180.3,110.4 181.5,109.7 			"/>
			<polygon class="st0" points="182.2,101.6 181,102.2 177.9,111.7 179,111.1 			"/>
			<polygon class="st0" points="120.6,47.1 119.1,48 123.7,50.8 125.2,49.9 			"/>
			<polygon class="st0" points="174.5,68 178.6,63.2 178.6,57 174.5,61.9 			"/>
			<polygon class="st0" points="174.5,80.1 178.6,75.2 178.6,69.1 174.5,74 			"/>
			<polygon class="st0" points="174.5,92.2 178.6,87.3 178.6,81.2 174.5,86.1 			"/>
			<polygon class="st0" points="156.9,49.3 156,49.8 132.4,35.8 133.4,35.2 			"/>
			<polygon class="st0" points="156,49.8 154.8,50.3 132.4,36.9 132.4,35.8 			"/>
			<polygon class="st0" points="163.1,45.7 162.1,46.2 138.6,32.2 139.5,31.6 			"/>
			<polygon class="st0" points="162.1,46.2 161,46.7 138.6,33.3 138.6,32.2 			"/>
			<path class="st0" d="M156.4,51.5L156.4,51.5v-1.4h-0.9c-0.1-0.1-0.2-0.1-0.3-0.2c-1.7-0.9-3.7-0.9-5.4,0
				c-0.1,0.1-0.2,0.1-0.3,0.2h-0.8v1.4l0,0c0.1,0.7,0.5,1.2,1.1,1.5c1.7,0.9,3.7,0.9,5.4,0C155.9,52.8,156.3,52.2,156.4,51.5z"/>
			<path class="st0" d="M156.4,50.2L156.4,50.2l-0.6-6.6h-6.3l-0.6,6.5c0,0,0,0,0,0.1l0,0c0.1,0.7,0.5,1.2,1.1,1.5
				c1.7,0.9,3.7,0.9,5.4,0C155.9,51.5,156.3,50.9,156.4,50.2z"/>
			<path class="st0" d="M150.3,48.9c1.4-0.7,3.1-0.7,4.5,0c1.2,0.7,1.3,1.9,0,2.6c-1.4,0.7-3.1,0.7-4.5,0
				C149.1,50.7,149.1,49.6,150.3,48.9z"/>
			<path class="st0" d="M154.2,45.4c-0.8-1.4-2.1-1.4-2.9,0c-0.8,1.6-0.8,3.5,0,5.1c0.8,1.4,2.1,1.4,2.9,0
				C155,48.9,155,47,154.2,45.4z"/>
			<path class="st0" d="M150.3,51.3c0.6,0.3,1.3,0.6,2.1,0.6l0.1-0.1c0.1-0.2,0.3-0.3,0.4-0.5c1.1-2.1,1.1-4.6,0-6.7
				c-0.2-0.4-0.5-0.7-0.9-1h-2l-0.1,0.1v0l-0.6,5.9c0,0,0,0,0,0.1l0,0C149.3,50.4,149.7,51,150.3,51.3z"/>
			<path class="st0" d="M152.3,46.1c-0.6-1-1.5-1-2.1,0c-0.6,1.2-0.6,2.5,0,3.7c0.6,1,1.5,1,2.1,0C152.9,48.6,152.9,47.3,152.3,46.1
				z"/>
			<path class="st0" d="M150.3,42.3c1.4-0.7,3.1-0.7,4.5,0c1.2,0.7,1.3,1.9,0,2.6c-1.4,0.7-3.1,0.7-4.5,0
				C149.1,44.1,149.1,43,150.3,42.3z"/>
			<polygon class="st0" points="130.4,54.9 135,57.6 135,130.9 130.4,128.1 			"/>
			<polygon class="st0" points="116.3,46.6 120.9,49.4 120.9,122.6 116.3,119.8 			"/>
			<polygon class="st0" points="122.4,48.5 120.9,49.4 120.9,122.6 122.4,121.7 			"/>
			<polygon class="st0" points="136.5,56.7 135,57.6 135,130.9 136.5,130 			"/>
			<polygon class="st0" points="137.2,56.4 134.8,58 116,46.8 118.5,45.2 			"/>
			<polygon class="st0" points="134.8,58 134.8,62.9 116,51.7 116,46.8 			"/>
			<polygon class="st0" points="137.2,56.4 137.2,61.3 134.8,62.9 134.8,58 			"/>
			<polygon class="st0" points="129.8,118.4 134.9,121.4 134.9,142.1 129.8,139.1 			"/>
			<polygon class="st0" points="114.4,109.3 119.4,112.3 119.4,133 114.4,130 			"/>
			<polygon class="st0" points="121.1,111.3 119.4,112.3 119.4,133 121.1,132 			"/>
			<polygon class="st0" points="136.5,120.4 134.9,121.4 134.9,142.1 136.5,141.1 			"/>
			<polygon class="st0" points="131.5,117.4 129.8,118.4 134.9,121.4 136.5,120.4 			"/>
			<polygon class="st0" points="116,108.3 114.4,109.3 119.4,112.3 121.1,111.3 			"/>
			<polygon class="st0" points="79.8,165.9 84.9,168.8 135,140 129.8,137.1 			"/>
			<polygon class="st0" points="84.9,170.7 84.9,168.8 135,140 134.9,141.9 			"/>
			<polygon class="st0" points="79.8,167.9 79.8,165.9 84.9,168.8 84.9,170.7 			"/>
			<polygon class="st0" points="64.3,158.8 64.3,156.8 69.5,159.7 69.5,161.6 			"/>
			<polygon class="st0" points="64.3,156.8 69.5,159.7 119.5,130.9 114.4,128 			"/>
			<polygon class="st0" points="69.5,161.6 69.5,159.7 119.5,130.9 119.5,132.8 			"/>
			<polygon class="st0" points="139.4,127.8 137.6,128.8 110.3,112.5 112.1,111.5 			"/>
			<polygon class="st0" points="137.6,128.8 137.6,136 110.3,119.7 110.3,112.5 			"/>
			<polygon class="st0" points="139.4,127.8 139.4,135 137.6,136 137.6,128.8 			"/>
			<polygon class="st0" points="130.4,117.9 130.4,119.5 120.9,113.8 122.2,113.1 			"/>
			<polygon class="st0" points="130.4,119.5 130.4,121.8 120.9,116.2 120.9,113.8 			"/>
			<polygon class="st0" points="130.4,105.7 130.4,107.3 120.9,101.6 122.2,100.8 			"/>
			<polygon class="st0" points="130.4,107.3 130.4,109.6 120.9,103.9 120.9,101.6 			"/>
			<polygon class="st0" points="130.4,93.5 130.4,95 120.9,89.3 122.2,88.6 			"/>
			<polygon class="st0" points="130.4,95 130.4,97.4 120.9,91.7 120.9,89.3 			"/>
			<polygon class="st0" points="130.4,81.2 130.4,82.8 120.9,77.1 122.2,76.4 			"/>
			<polygon class="st0" points="130.4,82.8 130.4,85.1 120.9,79.5 120.9,77.1 			"/>
			<polygon class="st0" points="130.4,69 130.4,70.5 120.9,64.9 122.2,64.1 			"/>
			<polygon class="st0" points="130.4,70.5 130.4,72.9 120.9,67.2 120.9,64.9 			"/>
			<polygon class="st0" points="122.7,50.8 120.2,54.2 117.4,52.7 119.9,49.3 			"/>
			<polygon class="st0" points="128,53.9 125.5,57.3 122.8,55.8 125.3,52.4 			"/>
			<polygon class="st0" points="133.4,57 130.9,60.4 128.1,58.9 130.6,55.4 			"/>
			<polygon class="st0" points="148.4,133.6 150.2,132.6 151.5,125.8 148.4,127.6 			"/>
			<polygon class="st0" points="162.6,120.2 148.8,128.5 148.4,128.7 141.7,124.8 142.1,124.6 142.1,124.6 162.6,119.2 			"/>
			<polygon class="st0" points="168.5,121.4 162.6,120.2 155.9,116.4 168.5,120.4 			"/>
			<polygon class="st0" points="141.7,123.7 148.4,127.6 148.4,133.6 141.7,129.8 			"/>
			<polygon class="st0" points="162.6,119.2 148.8,127.4 148.4,127.6 141.7,123.8 142.1,123.6 142.1,123.5 155.9,115.3 			"/>
			<polygon class="st0" points="168.5,120.4 162.6,119.2 155.9,115.3 161.8,116.5 			"/>
			<path class="st0" d="M142.8,126.4v1.9c0,0.4,0.2,0.7,0.5,0.9l3.4,2c0.2,0.1,0.5,0,0.6-0.2c0-0.1,0.1-0.1,0.1-0.2v-0.2l-2.9-1.7
				c-0.3-0.2-0.5-0.5-0.5-0.9v-1.7l-0.6-0.3c-0.2-0.1-0.5,0-0.6,0.2C142.8,126.3,142.8,126.4,142.8,126.4z"/>
			<path class="st0" d="M144,126.4v1.7c0,0.4,0.2,0.7,0.5,0.9l2.9,1.7V129c0-0.4-0.2-0.7-0.5-0.9L144,126.4z"/>
			<polygon class="st0" points="146,116.7 141.7,123.7 193.1,93.9 189.4,91.7 			"/>
			<polygon class="st0" points="105.7,109 116.3,106.4 116.3,100.5 105.7,103 			"/>
			<polygon class="st0" points="116.3,100.5 106,103.8 105.7,104 99,100.2 99.3,100 99.4,99.9 116.3,99.4 			"/>
			<polygon class="st0" points="99,99.1 105.7,103 105.7,109 99,105.1 			"/>
			<polygon class="st0" points="116.3,99.4 106,102.8 105.7,103 99,99.1 99.3,98.9 99.4,98.9 112.6,91 116.3,93 			"/>
			<path class="st0" d="M99.6,101.5v1.9c0,0.4,0.2,0.7,0.5,0.9l3.5,2c0.2,0.1,0.5,0,0.6-0.2c0-0.1,0.1-0.1,0.1-0.2v-0.2l-2.9-1.7
				c-0.3-0.2-0.5-0.5-0.5-0.9v-1.7l-0.6-0.3c-0.2-0.1-0.4-0.1-0.6,0.1C99.6,101.3,99.6,101.4,99.6,101.5z"/>
			<path class="st0" d="M100.8,101.4v1.7c0,0.4,0.2,0.7,0.5,0.9l2.9,1.7V104c0-0.4-0.2-0.7-0.5-0.9L100.8,101.4z"/>
			<polygon class="st0" points="60.1,142.5 64,145.1 102.8,122.8 98.9,120.3 			"/>
			<polygon class="st0" points="64,145.1 64,152.7 102.8,130.4 102.8,122.8 			"/>
			<polygon class="st0" points="80.4,137.2 80.4,141.6 66.7,149.5 66.7,145.1 			"/>
			<polygon class="st0" points="99.8,126.1 99.8,130.5 86,138.4 86,134 			"/>
			<polygon class="st0" points="60.1,142.5 60.1,150.4 64,152.7 64,145.1 			"/>
			<polygon class="st0" points="96.3,128.2 99.8,130.5 99.8,126.1 			"/>
			<polygon class="st0" points="76.9,139.3 80.4,141.6 80.4,137.2 			"/>
			<polygon class="st0" points="77.4,152.5 81.3,155 120.1,132.7 116.2,130.2 			"/>
			<polygon class="st0" points="81.3,155 81.3,162.6 120.1,140.3 120.1,132.7 			"/>
			<polygon class="st0" points="97.7,147.1 97.7,151.5 84,159.4 84,155 			"/>
			<polygon class="st0" points="117.1,136 117.1,140.4 103.3,148.3 103.3,143.9 			"/>
			<polygon class="st0" points="77.4,152.5 77.4,160.4 81.3,162.6 81.3,155 			"/>
			<polygon class="st0" points="113.5,138.1 117.1,140.4 117.1,136 			"/>
			<polygon class="st0" points="94.2,149.2 97.7,151.5 97.7,147.1 			"/>
			<polygon class="st0" points="94.7,162.4 98.6,164.9 137.4,142.6 133.5,140.1 			"/>
			<polygon class="st0" points="98.6,164.9 98.6,172.6 137.4,150.3 137.4,142.6 			"/>
			<polygon class="st0" points="115,157 115,161.5 101.3,169.4 101.3,165 			"/>
			<polygon class="st0" points="134.4,145.9 134.4,150.4 120.6,158.3 120.6,153.9 			"/>
			<polygon class="st0" points="94.7,162.4 94.7,170.3 98.6,172.6 98.6,164.9 			"/>
			<polygon class="st0" points="130.8,148.1 134.4,150.4 134.4,145.9 			"/>
			<polygon class="st0" points="111.5,159.2 115,161.5 115,157 			"/>
			<polygon class="st0" points="102.6,160.5 98.6,163 60.1,140.6 64,138.1 			"/>
			<polygon class="st0" points="98.6,163 98.6,164.9 60.1,142.5 60.1,140.6 			"/>
			<polygon class="st0" points="102.6,160.5 102.6,162.7 98.6,164.9 98.6,163 			"/>
			<polygon class="st0" points="111.3,155.5 107.3,158 68.8,135.6 72.8,133.1 			"/>
			<polygon class="st0" points="107.3,158 107.3,159.9 68.8,137.5 68.8,135.6 			"/>
			<polygon class="st0" points="111.3,155.5 111.3,157.7 107.3,159.9 107.3,158 			"/>
			<polygon class="st0" points="120,150.5 116.1,153 77.5,130.6 81.5,128.1 			"/>
			<polygon class="st0" points="116.1,153 116.1,154.9 77.5,132.5 77.5,130.6 			"/>
			<polygon class="st0" points="120,150.5 120,152.7 116.1,154.9 116.1,153 			"/>
			<polygon class="st0" points="128.7,145.5 124.8,148 86.2,125.6 90.2,123.1 			"/>
			<polygon class="st0" points="124.8,148 124.8,149.9 86.2,127.5 86.2,125.6 			"/>
			<polygon class="st0" points="128.7,145.5 128.7,147.7 124.8,149.9 124.8,148 			"/>
			<polygon class="st0" points="137.4,140.5 133.5,143 94.9,120.6 98.9,118.1 			"/>
			<polygon class="st0" points="133.5,143 133.5,144.9 94.9,122.5 94.9,120.6 			"/>
			<polygon class="st0" points="137.4,140.5 137.4,142.6 133.5,144.9 133.5,143 			"/>
			<polygon class="st0" points="99.2,139 81.4,128.7 81.4,109.5 99.2,119.8 			"/>
			<polygon class="st0" points="113.4,111.6 99.2,119.8 99.2,139 113.4,130.8 			"/>
			<polygon class="st0" points="105.2,118.8 100.9,121.3 100.9,127.1 105.2,124.6 			"/>
			<polygon class="st0" points="103.7,122 103.7,124.9 102.4,125.7 102.4,122.7 101.7,123.1 103.1,120.2 104.4,121.6 			"/>
			<polygon class="st0" points="113.4,111.6 99.2,119.8 90.8,114.9 88.1,113.4 81.4,109.5 95.5,101.3 102.3,105.2 105,106.7 			"/>
			<polygon class="st0" points="90.8,114.9 88.1,113.4 102.3,105.2 105,106.7 			"/>
			<polygon class="st0" points="87.8,130.7 82.7,127.8 82.7,123.4 87.8,126.3 			"/>
			<polygon class="st0" points="87.5,130.2 83,127.6 83,127.4 87.5,130 			"/>
			<polygon class="st0" points="87.5,129.6 83,127 83,126.8 87.5,129.4 			"/>
			<polygon class="st0" points="87.5,129.1 83,126.5 83,126.3 87.5,128.9 			"/>
			<polygon class="st0" points="87.5,128.5 83,125.9 83,125.7 87.5,128.3 			"/>
			<polygon class="st0" points="87.5,127.5 83,124.9 83,124.2 87.5,126.8 			"/>
			<polygon class="st0" points="88.1,113.4 88.1,119.9 88.7,118.3 89.3,120.5 90,119.1 90.8,121.3 90.8,114.9 			"/>
			<polygon class="st0" points="108.5,117.1 107.2,117.9 107.2,119.6 108.5,118.9 			"/>
			<polygon class="st0" points="110.3,116.1 109,116.9 109,118.6 110.3,117.8 			"/>
			<polygon class="st0" points="112.1,115.1 110.8,115.8 110.8,117.5 112.1,116.8 			"/>
			<polygon class="st0" points="82.2,148.9 64.3,138.6 64.3,119.4 82.2,129.7 			"/>
			<polygon class="st0" points="96.4,121.4 82.2,129.7 82.2,148.9 96.4,140.7 			"/>
			<polygon class="st0" points="88.2,128.6 83.9,131.2 83.9,137 88.2,134.5 			"/>
			<polygon class="st0" points="86.7,131.8 86.7,134.8 85.4,135.5 85.4,132.6 84.7,133 86,130.1 87.4,131.5 			"/>
			<polygon class="st0" points="96.3,121.4 82.2,129.7 73.8,124.8 71.1,123.3 64.3,119.4 78.5,111.1 85.3,115 88,116.6 			"/>
			<polygon class="st0" points="73.8,124.8 71.1,123.3 85.3,115 88,116.6 			"/>
			<polygon class="st0" points="70.8,140.6 65.6,137.7 65.6,133.3 70.8,136.2 			"/>
			<polygon class="st0" points="70.5,140.1 65.9,137.4 65.9,137.2 70.5,139.9 			"/>
			<polygon class="st0" points="70.5,139.5 65.9,136.9 65.9,136.7 70.5,139.3 			"/>
			<polygon class="st0" points="70.5,138.9 65.9,136.3 65.9,136.1 70.5,138.7 			"/>
			<polygon class="st0" points="70.5,138.4 65.9,135.8 65.9,135.6 70.5,138.2 			"/>
			<polygon class="st0" points="70.5,137.3 65.9,134.7 65.9,134.1 70.5,136.7 			"/>
			<polygon class="st0" points="71.1,123.3 71.1,129.7 71.6,128.2 72.2,130.4 73,129 73.7,131.2 73.8,124.8 			"/>
			<polygon class="st0" points="91.4,127 90.1,127.8 90.1,129.5 91.4,128.8 			"/>
			<polygon class="st0" points="93.3,126 92,126.7 92,128.5 93.3,127.7 			"/>
			<polygon class="st0" points="95.1,124.9 93.8,125.7 93.8,127.4 95.1,126.7 			"/>
			<polygon class="st0" points="119,150.3 101.2,140 101.2,120.8 119,131.1 			"/>
			<polygon class="st0" points="133.2,122.9 119,131.1 119,150.3 133.2,142.1 			"/>
			<polygon class="st0" points="125,130.1 120.7,132.6 120.7,138.4 125,135.9 			"/>
			<polygon class="st0" points="123.5,133.3 123.5,136.2 122.2,137 122.2,134 121.5,134.4 122.9,131.5 124.2,132.9 			"/>
			<polygon class="st0" points="133.2,122.9 119,131.1 110.6,126.2 107.9,124.7 101.2,120.8 115.3,112.6 122.1,116.5 124.8,118 			
				"/>
			<polygon class="st0" points="110.6,126.2 107.9,124.7 122.1,116.5 124.8,118 			"/>
			<polygon class="st0" points="107.6,142 102.5,139.1 102.5,134.7 107.6,137.6 			"/>
			<polygon class="st0" points="107.3,141.5 102.8,138.9 102.8,138.7 107.3,141.3 			"/>
			<polygon class="st0" points="107.3,140.9 102.8,138.3 102.8,138.1 107.3,140.7 			"/>
			<polygon class="st0" points="107.3,140.4 102.8,137.8 102.8,137.6 107.3,140.2 			"/>
			<polygon class="st0" points="107.3,139.8 102.8,137.2 102.8,137 107.3,139.6 			"/>
			<polygon class="st0" points="107.3,138.8 102.8,136.2 102.8,135.5 107.3,138.1 			"/>
			<polygon class="st0" points="107.9,124.7 107.9,131.2 108.5,129.6 109,131.8 109.8,130.4 110.5,132.6 110.6,126.2 			"/>
			<polygon class="st0" points="128.3,128.4 127,129.2 127,130.9 128.3,130.2 			"/>
			<polygon class="st0" points="130.1,127.4 128.8,128.2 128.8,129.9 130.1,129.1 			"/>
			<polygon class="st0" points="131.9,126.4 130.6,127.1 130.6,128.8 131.9,128.1 			"/>
			<polygon class="st0" points="102,160.2 84.1,149.9 84.1,130.7 102,141 			"/>
			<polygon class="st0" points="116.1,132.7 102,141 102,160.2 116.1,152 			"/>
			<polygon class="st0" points="108,139.9 103.7,142.5 103.7,148.3 108,145.8 			"/>
			<polygon class="st0" points="106.5,143.1 106.5,146.1 105.1,146.8 105.2,143.9 104.5,144.3 105.8,141.4 107.2,142.8 			"/>
			<polygon class="st0" points="116.1,132.7 102,141 93.6,136.1 90.9,134.6 84.1,130.7 98.3,122.4 105.1,126.3 107.8,127.9 			"/>
			<polygon class="st0" points="93.6,136.1 90.9,134.6 105.1,126.3 107.8,127.9 			"/>
			<polygon class="st0" points="90.6,151.9 85.4,149 85.4,144.6 90.6,147.5 			"/>
			<polygon class="st0" points="90.3,151.4 85.7,148.7 85.7,148.5 90.3,151.1 			"/>
			<polygon class="st0" points="90.3,150.8 85.7,148.2 85.7,148 90.3,150.6 			"/>
			<polygon class="st0" points="90.3,150.2 85.7,147.6 85.7,147.4 90.3,150 			"/>
			<polygon class="st0" points="90.3,149.7 85.7,147.1 85.7,146.9 90.3,149.5 			"/>
			<polygon class="st0" points="90.3,148.6 85.7,146 85.7,145.4 90.3,148 			"/>
			<polygon class="st0" points="90.9,134.6 90.9,141 91.4,139.5 92,141.7 92.8,140.3 93.5,142.5 93.6,136.1 			"/>
			<polygon class="st0" points="111.2,138.3 109.9,139.1 109.9,140.8 111.2,140.1 			"/>
			<polygon class="st0" points="113,137.3 111.8,138 111.8,139.8 113,139 			"/>
			<polygon class="st0" points="114.9,136.2 113.6,137 113.6,138.7 114.9,138 			"/>
			<polygon class="st0" points="99.2,119.1 81.4,108.8 81.4,89.6 99.2,99.9 			"/>
			<polygon class="st0" points="113.4,91.7 99.2,99.9 99.2,119.1 113.4,110.9 			"/>
			<polygon class="st0" points="105.2,98.9 100.9,101.4 100.9,107.3 105.2,104.8 			"/>
			<polygon class="st0" points="103.7,102.1 103.7,105 102.4,105.8 102.4,102.9 101.7,103.2 103.1,100.4 104.4,101.7 			"/>
			<polygon class="st0" points="113.4,91.7 99.2,99.9 90.8,95.1 88.1,93.5 81.4,89.6 95.5,81.4 102.3,85.3 105,86.8 			"/>
			<polygon class="st0" points="90.8,95.1 88.1,93.5 102.3,85.3 105,86.8 			"/>
			<polygon class="st0" points="87.8,110.9 82.7,107.9 82.7,103.5 87.8,106.4 			"/>
			<polygon class="st0" points="87.5,110.3 83,107.7 83,107.5 87.5,110.1 			"/>
			<polygon class="st0" points="87.5,109.7 83,107.1 83,106.9 87.5,109.5 			"/>
			<polygon class="st0" points="87.5,109.2 83,106.6 83,106.4 87.5,109 			"/>
			<polygon class="st0" points="87.5,108.6 83,106 83,105.8 87.5,108.4 			"/>
			<polygon class="st0" points="87.5,107.6 83,105 83,104.3 87.5,106.9 			"/>
			<polygon class="st0" points="88.1,93.5 88.1,100 88.7,98.5 89.3,100.6 90,99.2 90.8,101.4 90.8,95.1 			"/>
			<polygon class="st0" points="108.5,97.3 107.2,98 107.2,99.7 108.5,99 			"/>
			<polygon class="st0" points="110.3,96.2 109,97 109,98.7 110.3,97.9 			"/>
			<polygon class="st0" points="112.1,95.2 110.8,95.9 110.8,97.7 112.1,96.9 			"/>
			<polygon class="st0" points="82.2,129 64.3,118.7 64.3,99.5 82.2,109.8 			"/>
			<polygon class="st0" points="96.4,101.5 82.2,109.8 82.2,129 96.4,120.8 			"/>
			<polygon class="st0" points="88.2,108.8 83.9,111.3 83.9,117.1 88.2,114.6 			"/>
			<polygon class="st0" points="86.7,112 86.7,114.9 85.4,115.6 85.4,112.7 84.7,113.1 86,110.2 87.4,111.6 			"/>
			<polygon class="st0" points="96.3,101.5 82.2,109.8 73.8,104.9 71.1,103.4 64.3,99.5 78.5,91.2 85.3,95.1 88,96.7 			"/>
			<polygon class="st0" points="73.8,104.9 71.1,103.4 85.3,95.1 88,96.7 			"/>
			<polygon class="st0" points="70.8,120.7 65.6,117.8 65.6,113.4 70.8,116.3 			"/>
			<polygon class="st0" points="70.5,120.2 65.9,117.6 65.9,117.4 70.5,120 			"/>
			<polygon class="st0" points="70.5,119.6 65.9,117 65.9,116.8 70.5,119.4 			"/>
			<polygon class="st0" points="70.5,119.1 65.9,116.5 65.9,116.3 70.5,118.9 			"/>
			<polygon class="st0" points="70.5,118.5 65.9,115.9 65.9,115.7 70.5,118.3 			"/>
			<polygon class="st0" points="70.5,117.5 65.9,114.9 65.9,114.2 70.5,116.8 			"/>
			<polygon class="st0" points="71.1,103.4 71.1,109.8 71.6,108.3 72.2,110.5 73,109.1 73.7,111.3 73.8,104.9 			"/>
			<polygon class="st0" points="91.4,107.1 90.1,107.9 90.1,109.6 91.4,108.9 			"/>
			<polygon class="st0" points="93.3,106.1 92,106.8 92,108.6 93.3,107.8 			"/>
			<polygon class="st0" points="95.1,105 93.8,105.8 93.8,107.5 95.1,106.8 			"/>
			<polygon class="st0" points="119,130.4 101.2,120.1 101.2,100.9 119,111.2 			"/>
			<polygon class="st0" points="133.2,103 119,111.2 119,130.4 133.2,122.2 			"/>
			<polygon class="st0" points="125,110.2 120.7,112.7 120.7,118.6 125,116.1 			"/>
			<polygon class="st0" points="123.5,113.4 123.5,116.3 122.2,117.1 122.2,114.2 121.5,114.5 122.9,111.7 124.2,113 			"/>
			<polygon class="st0" points="133.2,103 119,111.2 110.6,106.4 107.9,104.8 101.2,100.9 115.3,92.7 122.1,96.6 124.8,98.1 			"/>
			<polygon class="st0" points="110.6,106.4 107.9,104.8 122.1,96.6 124.8,98.1 			"/>
			<polygon class="st0" points="107.6,122.2 102.5,119.2 102.5,114.8 107.6,117.7 			"/>
			<polygon class="st0" points="107.3,121.6 102.8,119 102.8,118.8 107.3,121.4 			"/>
			<polygon class="st0" points="107.3,121 102.8,118.4 102.8,118.2 107.3,120.8 			"/>
			<polygon class="st0" points="107.3,120.5 102.8,117.9 102.8,117.7 107.3,120.3 			"/>
			<polygon class="st0" points="107.3,119.9 102.8,117.3 102.8,117.1 107.3,119.7 			"/>
			<polygon class="st0" points="107.3,118.9 102.8,116.3 102.8,115.6 107.3,118.2 			"/>
			<polygon class="st0" points="107.9,104.8 107.9,111.3 108.5,109.8 109,111.9 109.8,110.5 110.5,112.7 110.6,106.4 			"/>
			<polygon class="st0" points="128.3,108.6 127,109.3 127,111 128.3,110.3 			"/>
			<polygon class="st0" points="130.1,107.5 128.8,108.3 128.8,110 130.1,109.2 			"/>
			<polygon class="st0" points="131.9,106.5 130.6,107.2 130.6,109 131.9,108.2 			"/>
			<polygon class="st0" points="102,140.3 84.1,130 84.1,110.8 102,121.1 			"/>
			<polygon class="st0" points="116.1,112.8 102,121.1 102,140.3 116.1,132.1 			"/>
			<polygon class="st0" points="108,120.1 103.7,122.6 103.7,128.4 108,125.9 			"/>
			<polygon class="st0" points="106.5,123.3 106.5,126.2 105.1,126.9 105.2,124 104.5,124.4 105.8,121.5 107.2,122.9 			"/>
			<polygon class="st0" points="116.1,112.8 102,121.1 93.6,116.2 90.9,114.7 84.1,110.8 98.3,102.5 105.1,106.4 107.8,108 			"/>
			<polygon class="st0" points="93.6,116.2 90.9,114.7 105.1,106.4 107.8,108 			"/>
			<polygon class="st0" points="90.6,132 85.4,129.1 85.4,124.7 90.6,127.6 			"/>
			<polygon class="st0" points="90.3,131.5 85.7,128.9 85.7,128.7 90.3,131.3 			"/>
			<polygon class="st0" points="90.3,130.9 85.7,128.3 85.7,128.1 90.3,130.7 			"/>
			<polygon class="st0" points="90.3,130.4 85.7,127.8 85.7,127.6 90.3,130.2 			"/>
			<polygon class="st0" points="90.3,129.8 85.7,127.2 85.7,127 90.3,129.6 			"/>
			<polygon class="st0" points="90.3,128.8 85.7,126.2 85.7,125.5 90.3,128.1 			"/>
			<polygon class="st0" points="90.9,114.7 90.9,121.1 91.4,119.6 92,121.8 92.8,120.4 93.5,122.6 93.6,116.2 			"/>
			<polygon class="st0" points="111.2,118.4 109.9,119.2 109.9,120.9 111.2,120.2 			"/>
			<polygon class="st0" points="113,117.4 111.8,118.1 111.8,119.9 113,119.1 			"/>
			<polygon class="st0" points="114.9,116.3 113.6,117.1 113.6,118.8 114.9,118.1 			"/>
			<circle class="st2" cx="129.1" cy="31.7" r="6.2"/>
			<circle class="st2" cx="162.6" cy="49.7" r="6.2"/>
			<circle class="st2" cx="185.5" cy="78.4" r="6.2"/>
		</g>
	</g>
</g>
</svg>
