<?xml version="1.0" encoding="utf-8"?>
<!-- Generator: Adobe Illustrator 26.0.1, SVG Export Plug-In . SVG Version: 6.00 Build 0)  -->
<svg version="1.1" id="Layer_1" xmlns="http://www.w3.org/2000/svg" xmlns:xlink="http://www.w3.org/1999/xlink" x="0px" y="0px"
	 viewBox="0 0 260 200" style="enable-background:new 0 0 260 200;" xml:space="preserve">
<style type="text/css">
	.st0{fill:#EEEEEF;stroke:#231916;stroke-width:0.25;stroke-miterlimit:10;}
	.st1{opacity:0.3;fill:#EEEEEF;stroke:#231916;stroke-width:0.25;stroke-miterlimit:10;enable-background:new    ;}
	.st2{fill:#DD2625;}
</style>
<g>
	<g id="Layer_2_00000011744889902374450280000013745977702282928042_">
		<g id="Layer_1-2">
			<path class="st0" d="M114.8,108.6l23.5-16.8l30-17.7l20.6-9.9c3.5-1.1,6.2,1,6.2,5.3c-0.3,5.6-3.2,10.7-7.9,13.7l-70.9,42.6
				c-4.4,2.5-7.9,0.5-7.9-4.6C108.4,116.8,111.2,111.5,114.8,108.6z"/>
			<path class="st0" d="M109.9,123.8c-0.3-0.8-0.5-1.7-0.4-2.6c0-4.1,2.5-9,6-11.8l23.5-16.8L168.8,75l20.5-9.9
				c0.5-0.1,0.9-0.2,1.4-0.2c0.3,0.8,0.4,1.7,0.4,2.5c-0.3,5.2-3,10-7.4,12.8l-70.9,42.6C112,123.4,111,123.7,109.9,123.8z"/>
			<path class="st0" d="M101.1,100.8L124.7,84l30-17.7l20.6-10c1.4-0.5,2.9-0.4,4.1,0.4l13.4,7.6c-1.2-0.6-2.6-0.7-3.9-0.2L168.3,74
				l-30,17.7l-23.5,16.9c-3.7,2.9-6.4,8.2-6.4,12.7c0,2.5,0.9,4.3,2.3,5.1l-13.7-7.8c-1.4-0.8-2.3-2.6-2.3-5.1
				C94.7,109,97.5,103.7,101.1,100.8z"/>
			<polygon class="st0" points="141.5,74 148.1,70.1 161.7,78 155.1,81.9 			"/>
			<polygon class="st0" points="155.4,65.9 162.6,62.4 176.2,70.2 169,73.7 			"/>
			<polygon class="st0" points="163,62.2 170.3,58.7 183.8,66.6 176.6,70.1 			"/>
			<polygon class="st0" points="124.7,84 127.3,82.4 140.9,90.2 138.4,91.7 134.7,94.3 121.1,86.5 			"/>
			<polygon class="st0" points="134.6,78.1 141.2,74.2 154.7,82.1 148.2,85.9 			"/>
			<polygon class="st0" points="154.6,66.3 155,66.1 168.6,73.9 168.3,74 162,77.8 148.4,69.9 			"/>
			<path class="st0" d="M175.3,56.3c1.4-0.5,2.9-0.4,4.1,0.4l13.4,7.6c-1.2-0.6-2.6-0.7-3.9-0.2l-4.8,2.3l-13.6-7.8L175.3,56.3z"/>
			<path class="st0" d="M94.7,113.4c0-0.5,0-1.1,0.1-1.6l13.7,7.9c-0.1,0.5-0.1,1-0.1,1.5c0,2.5,0.9,4.3,2.3,5.1l-13.7-7.8
				C95.6,117.7,94.7,116,94.7,113.4z"/>
			<path class="st0" d="M111,112.9l-13.6-7.8c1-1.6,2.3-3.1,3.7-4.3l1-0.7l13.6,7.8l-0.9,0.6C113.4,109.8,112.1,111.2,111,112.9z"/>
			<polygon class="st0" points="127.7,82.2 134.3,78.3 147.8,86.1 141.3,90 			"/>
			<polygon class="st0" points="102.4,99.9 108.3,95.6 121.9,103.5 116,107.7 			"/>
			<path class="st0" d="M94.9,111.6c0.4-2.2,1.2-4.4,2.4-6.3l13.6,7.9c-1.2,1.9-2,4.1-2.3,6.3L94.9,111.6z"/>
			<polygon class="st0" points="108.6,95.4 114.6,91.2 128.2,99 122.2,103.3 			"/>
			<polygon class="st0" points="114.9,90.9 120.8,86.7 134.4,94.5 128.5,98.8 			"/>
			<path class="st0" d="M111.2,116.2c0,1.8,1.3,2.5,2.8,1.6c1.7-1.1,2.7-2.9,2.8-4.9c0-1.8-1.3-2.5-2.8-1.6
				C112.3,112.4,111.3,114.2,111.2,116.2z"/>
			<path class="st0" d="M112.6,116.4c0,1.4,1,2,2.2,1.3c1.3-0.9,2.2-2.3,2.2-3.9c0-1.4-1-2-2.2-1.3
				C113.5,113.4,112.7,114.8,112.6,116.4z"/>
			<path class="st0" d="M181.7,74c0,1.8,1.3,2.5,2.8,1.6c1.7-1.1,2.7-2.9,2.8-4.9c0-1.8-1.3-2.5-2.8-1.6
				C182.9,70.2,181.8,72,181.7,74z"/>
			<path class="st0" d="M183.1,74.2c0,1.4,1,2,2.2,1.3c1.3-0.9,2.2-2.3,2.2-3.9c0-1.4-1-2-2.2-1.3C184,71.2,183.2,72.6,183.1,74.2z"
				/>
			<path class="st0" d="M112.9,122.8l70.8-42.6c4.4-2.8,7.1-7.6,7.4-12.8c0-0.9-0.1-1.7-0.4-2.6l0,0c2.1,0,3.3,1.7,3.3,4.6
				c-0.3,5.2-3,10-7.4,12.8l-70.8,42.7c-0.9,0.6-1.9,0.9-3,0.9l0,0c-0.9,0-1.8-0.4-2.3-1.1c-0.2-0.3-0.4-0.6-0.6-1
				C111,123.7,112,123.4,112.9,122.8z"/>
			<polygon class="st0" points="160.1,94.5 166.6,90.5 169.8,92.4 163.3,96.3 			"/>
			<polygon class="st0" points="125.5,115.2 128.7,117.1 122.2,121 119,119.2 			"/>
			<path class="st0" d="M193.3,73.7c-0.7,2.1-1.9,4.1-3.3,5.8l-3.1-1.8c1.5-1.7,2.7-3.6,3.4-5.7L193.3,73.7z"/>
			<path class="st0" d="M191,65.8l1.2-0.6c1.2,0.7,1.8,2.1,1.8,4.2c0,1.3-0.3,2.7-0.7,3.9l-3-1.8c0.5-1.4,0.8-2.8,0.8-4.3
				C191.2,66.8,191.1,66.3,191,65.8z"/>
			<path class="st0" d="M186.6,77.9l3.1,1.8c-0.9,1-1.9,1.8-3,2.5l-2.9,1.7l-3.2-1.9l3.1-1.9C184.8,79.6,185.8,78.8,186.6,77.9z"/>
			<polygon class="st0" points="173.4,86.4 176.7,88.3 170.1,92.2 166.9,90.3 			"/>
			<polygon class="st0" points="183.5,84.2 177,88.1 173.7,86.2 180.3,82.3 			"/>
			<path class="st0" d="M115.3,125.1l-3.3-1.9c0.3-0.1,0.6-0.3,0.8-0.4l5.8-3.5l3.2,1.9l-6.1,3.7L115.3,125.1z"/>
			<polygon class="st0" points="163,96.5 156.4,100.4 153.2,98.6 159.7,94.6 			"/>
			<path class="st0" d="M112.8,125.8L112.8,125.8c-0.9,0-1.8-0.4-2.3-1.1c-0.2-0.3-0.4-0.6-0.6-1c0.6,0,1.3-0.1,1.8-0.4l3.3,1.9
				C114.4,125.6,113.6,125.8,112.8,125.8z"/>
			<polygon class="st0" points="142.4,108.9 135.9,112.8 132.7,110.9 139.2,107 			"/>
			<polygon class="st0" points="135.6,113 129.1,116.9 125.8,115 132.3,111.1 			"/>
			<polygon class="st0" points="156.1,100.6 149.6,104.6 146.4,102.7 152.9,98.8 			"/>
			<polygon class="st0" points="149.3,104.8 142.8,108.7 139.5,106.8 146,102.9 			"/>
			<path class="st0" d="M111.9,121l70.9-42.6c3.7-2.5,6.1-6.5,6.4-11c0-0.6-0.1-1.3-0.3-1.8l0.2-0.1c0.7,0.4,0.8,1.6,0.8,2.4
				c-0.3,4.5-2.7,8.5-6.4,11l-70.8,42.6c-0.6,0.4-1.3,0.6-2,0.7c-0.2,0-0.4,0-0.6-0.2c0-0.1,0-0.2,0-0.3
				C110.6,121.6,111.3,121.4,111.9,121z"/>
			<polygon class="st0" points="142.5,98.5 161.5,87.5 161.5,85.9 142.5,96.9 			"/>
			<polygon class="st0" points="134.4,97.5 124.8,103 134.4,96.2 			"/>
			<polygon class="st0" points="180.1,71.1 167.4,78.4 167.4,76 169.2,75 180.1,69.7 			"/>
			<polygon class="st0" points="164.5,80.1 137.5,95.6 137.5,93.9 139.3,92.6 164.5,77.8 			"/>
			<path class="st1" d="M109.9,123.8c-0.3-0.8-0.5-1.7-0.4-2.6c0-4.1,2.5-9,6-11.8l23.5-16.8L168.8,75l20.5-9.9
				c0.5-0.1,0.9-0.2,1.4-0.2c0.3,0.8,0.4,1.7,0.4,2.5c-0.3,5.2-3,10-7.4,12.8l-70.9,42.6C112,123.4,111,123.7,109.9,123.8z"/>
			<polygon class="st0" points="139,95.8 168.7,112.5 168.7,116.1 136.6,98 			"/>
			<polygon class="st0" points="156.4,85.3 188,104 168.7,112.5 139,95.8 			"/>
			<path class="st0" d="M162.4,134.2l23.5-16.8l30-17.7l20.6-10c3.5-1.1,6.2,1,6.2,5.3c-0.3,5.6-3.3,10.7-8,13.8l-70.9,42.6
				c-4.4,2.5-7.9,0.5-7.9-4.6C156,142.4,158.7,137.1,162.4,134.2z"/>
			<path class="st0" d="M157.4,149.4c-0.3-0.8-0.5-1.7-0.4-2.6c0-4.1,2.5-9,6-11.8l23.5-16.8l29.9-17.7l20.5-9.9
				c0.5-0.1,0.9-0.2,1.4-0.2c0.3,0.8,0.4,1.7,0.4,2.6c-0.3,5.2-3,10-7.4,12.8l-70.9,42.6C159.5,149,158.5,149.3,157.4,149.4z"/>
			<path class="st0" d="M148.7,126.4l23.5-16.8l30-17.7l20.6-10c1.4-0.5,2.9-0.4,4.1,0.4l13.4,7.6c-1.2-0.6-2.6-0.7-3.9-0.2
				l-20.6,10l-30,17.7l-23.5,16.8c-3.6,2.9-6.4,8.2-6.4,12.6c0,2.5,0.9,4.3,2.3,5.1l-13.7-7.8c-1.4-0.8-2.3-2.6-2.3-5.1
				C142.3,134.6,145,129.3,148.7,126.4z"/>
			<polygon class="st0" points="189,99.7 195.6,95.8 209.2,103.6 202.6,107.5 			"/>
			<polygon class="st0" points="202.9,91.5 210.2,88 223.7,95.9 216.5,99.4 			"/>
			<polygon class="st0" points="210.5,87.9 217.8,84.4 231.4,92.2 224.1,95.7 			"/>
			<polygon class="st0" points="172.2,109.6 174.9,108 188.5,115.9 185.9,117.4 182.3,120 168.7,112.1 			"/>
			<polygon class="st0" points="182.1,103.7 188.7,99.9 202.3,107.7 195.7,111.6 			"/>
			<polygon class="st0" points="202.1,91.9 202.5,91.7 216.1,99.6 215.8,99.7 209.5,103.4 195.9,95.6 			"/>
			<path class="st0" d="M222.8,82c1.4-0.5,2.9-0.4,4.1,0.4l13.4,7.6c-1.2-0.6-2.6-0.7-3.9-0.2l-4.8,2.3l-13.6-7.8L222.8,82z"/>
			<path class="st0" d="M142.3,139.1c0-0.5,0-1.1,0.1-1.6l13.7,7.9c-0.1,0.5-0.1,1-0.1,1.5c0,2.5,0.9,4.3,2.3,5.1l-13.7-7.8
				C143.2,143.4,142.3,141.6,142.3,139.1z"/>
			<path class="st0" d="M158.6,138.6l-13.6-7.9c1-1.6,2.3-3.1,3.7-4.3l1-0.7l13.6,7.9l-0.9,0.6C160.9,135.4,159.6,136.9,158.6,138.6
				z"/>
			<polygon class="st0" points="175.2,107.8 181.8,103.9 195.4,111.8 188.8,115.7 			"/>
			<polygon class="st0" points="149.9,125.5 155.9,121.3 169.5,129.1 163.5,133.4 			"/>
			<path class="st0" d="M142.4,137.2c0.4-2.2,1.2-4.4,2.4-6.3l13.6,7.9c-1.2,1.9-2,4.1-2.4,6.3L142.4,137.2z"/>
			<polygon class="st0" points="156.2,121 162.1,116.8 175.7,124.7 169.8,128.9 			"/>
			<polygon class="st0" points="162.4,116.6 168.4,112.3 182,120.2 176,124.4 			"/>
			<path class="st0" d="M158.7,141.8c0,1.8,1.3,2.5,2.8,1.6c1.7-1.1,2.7-2.9,2.8-4.9c0-1.8-1.3-2.5-2.8-1.6
				C159.9,138,158.8,139.9,158.7,141.8z"/>
			<path class="st0" d="M160.1,142.1c0,1.4,1,2,2.2,1.3c1.3-0.9,2.2-2.3,2.3-3.9c0-1.4-1-2-2.3-1.3C161,139,160.2,140.5,160.1,142.1
				z"/>
			<path class="st0" d="M229.2,99.6c0,1.8,1.3,2.5,2.8,1.6c1.7-1.1,2.7-2.9,2.8-4.9c0-1.8-1.3-2.5-2.8-1.6
				C230.4,95.8,229.4,97.6,229.2,99.6z"/>
			<path class="st0" d="M230.6,99.8c0,1.4,1,2,2.2,1.3c1.3-0.9,2.2-2.3,2.2-3.9c0-1.4-1-2-2.2-1.3C231.5,96.8,230.7,98.2,230.6,99.8
				z"/>
			<path class="st0" d="M160.4,148.5l70.9-42.6c4.4-2.8,7.1-7.6,7.4-12.8c0-0.9-0.1-1.7-0.4-2.6l0,0c2.1,0,3.3,1.7,3.3,4.6
				c-0.3,5.2-3,10-7.4,12.8l-70.9,42.6c-0.9,0.6-1.9,0.9-3,0.9l0,0c-0.9,0-1.8-0.4-2.4-1.1c-0.2-0.3-0.4-0.6-0.6-1
				C158.5,149.3,159.5,149,160.4,148.5z"/>
			<polygon class="st0" points="207.6,120.1 214.1,116.2 217.3,118 210.8,122 			"/>
			<polygon class="st0" points="173,140.9 176.3,142.7 169.7,146.7 166.5,144.8 			"/>
			<path class="st0" d="M240.9,99.3c-0.7,2.1-1.9,4.1-3.3,5.8l-3.1-1.8c1.5-1.7,2.7-3.6,3.4-5.7L240.9,99.3z"/>
			<path class="st0" d="M238.6,91.4l1.2-0.6c1.2,0.7,1.8,2.1,1.8,4.2c0,1.4-0.2,2.7-0.7,4l-3-1.8c0.5-1.4,0.8-2.8,0.8-4.3
				C238.7,92.5,238.7,92,238.6,91.4z"/>
			<path class="st0" d="M234.1,103.5l3.1,1.8c-0.9,1-1.9,1.9-3.1,2.6l-2.9,1.7l-3.2-1.9l3.2-1.9
				C232.4,105.2,233.3,104.4,234.1,103.5z"/>
			<polygon class="st0" points="220.9,112.1 224.2,113.9 217.7,117.8 214.4,116 			"/>
			<polygon class="st0" points="231,109.8 224.5,113.7 221.3,111.9 227.8,107.9 			"/>
			<path class="st0" d="M162.9,150.8l-3.3-1.9c0.3-0.1,0.6-0.3,0.8-0.4l5.8-3.5l3.2,1.9l-6.1,3.6L162.9,150.8z"/>
			<polygon class="st0" points="210.5,122.2 204,126.1 200.7,124.2 207.3,120.3 			"/>
			<path class="st0" d="M160.3,151.5L160.3,151.5c-0.9,0-1.8-0.4-2.4-1.1c-0.2-0.3-0.4-0.6-0.6-1c0.6,0,1.3-0.1,1.9-0.4l3.3,1.9
				C161.9,151.2,161.1,151.4,160.3,151.5z"/>
			<polygon class="st0" points="190,134.5 183.4,138.4 180.2,136.6 186.7,132.6 			"/>
			<polygon class="st0" points="183.1,138.6 176.6,142.5 173.4,140.7 179.9,136.8 			"/>
			<polygon class="st0" points="203.6,126.3 197.1,130.2 193.9,128.3 200.4,124.4 			"/>
			<polygon class="st0" points="196.8,130.4 190.3,134.3 187,132.4 193.6,128.5 			"/>
			<path class="st0" d="M159.4,146.7l70.8-42.6c3.7-2.5,6.1-6.5,6.4-11c0-0.6-0.1-1.3-0.3-1.8l0.2-0.1c0.7,0.4,0.8,1.6,0.8,2.4
				c-0.3,4.5-2.7,8.5-6.4,11L160,147.1c-0.6,0.4-1.3,0.6-2,0.7c-0.2,0-0.4-0.1-0.6-0.2c0-0.1,0-0.2,0-0.3
				C158.1,147.3,158.8,147,159.4,146.7z"/>
			<polygon class="st0" points="190,124.1 209,113.2 209,111.5 190,122.5 			"/>
			<polygon class="st0" points="181.9,123.1 172.3,128.7 181.9,121.8 			"/>
			<polygon class="st0" points="227.6,96.7 215,104 215,101.7 216.8,100.6 227.6,95.4 			"/>
			<polygon class="st0" points="212,105.8 185.1,121.3 185.1,119.5 186.9,118.2 212,103.4 			"/>
			<path class="st1" d="M157.4,149.4c-0.3-0.8-0.5-1.7-0.4-2.6c0-4.1,2.5-9,6-11.8l23.5-16.8l29.9-17.7l20.5-9.9
				c0.5-0.1,0.9-0.2,1.4-0.2c0.3,0.8,0.4,1.7,0.4,2.6c-0.3,5.2-3,10-7.4,12.8l-70.9,42.6C159.5,149,158.5,149.3,157.4,149.4z"/>
			<polygon class="st0" points="118.4,47.2 133.6,48.8 135.8,49.1 203.5,10 255.4,40 259.1,51.8 259.1,68.7 258.1,69.2 257,68.2 
				187.5,108.3 154.2,89.2 136.4,99 118.5,88.6 118.5,82.5 111.6,78.5 			"/>
			<polygon class="st0" points="187.5,108.3 196.3,103.2 194.5,100.9 187.4,103.7 			"/>
			<polygon class="st0" points="259.1,68.7 258.1,69.2 257,68.2 200.4,100.9 202,70.9 255.4,40 259.1,51.8 			"/>
			<polygon class="st0" points="259.1,59.9 200.8,93.6 201.2,85.7 259.1,52.3 			"/>
			<polygon class="st0" points="153.2,82.3 167.4,74.3 200.8,93.6 255.1,62.2 255.1,69.1 197.4,102.5 187.4,102.5 			"/>
			<polygon class="st0" points="154.2,89.2 153.2,82.3 187.4,102.5 197.4,102.5 255.1,69.3 255.1,70.3 197.4,103.7 187.4,103.7 
				187.5,108.3 			"/>
			<polygon class="st0" points="187.4,102.5 187.4,103.7 187.5,108.3 154.2,89.2 153.2,82.3 			"/>
			<polygon class="st0" points="167.9,51.7 202,70.9 200.8,93.6 167.4,74.3 			"/>
			<polygon class="st0" points="129.3,89.2 138.2,53.5 149.2,48 158.9,57.2 167.9,51.7 167.4,74.3 153.2,82.3 154.2,89.2 136.4,99 
				136.4,93.6 			"/>
			<polygon class="st0" points="118.5,88.6 136.4,99 136.4,93.6 118.5,82.5 			"/>
			<polygon class="st0" points="111.6,78.5 129.3,89.2 138.2,53.5 118.4,47.2 			"/>
			<polygon class="st0" points="136.9,54.2 119.2,48.6 112.8,78 128.7,87.6 			"/>
			<polygon class="st0" points="140.5,53.4 149,49.2 158.7,58.5 140.5,76.5 			"/>
			<polygon class="st0" points="139,54.4 139,78 131.3,85.6 			"/>
			<polygon class="st0" points="201.8,42.3 178.5,55.8 178.5,55 201.8,41.5 224.9,54.9 224.9,55.6 			"/>
			<polygon class="st0" points="227.8,27 204.5,40.5 204.5,39.7 227.8,26.3 251,39.6 251,40.3 			"/>
			<polygon class="st0" points="192,59.3 197.5,62.5 204.7,58.3 204.7,57.7 197.5,61.9 192,58.7 			"/>
			<polygon class="st0" points="223,55.6 218.6,58.2 218.3,58 222.7,55.4 			"/>
			<polygon class="st0" points="222.2,55.2 217.8,57.7 217.5,57.5 221.9,55 			"/>
			<polygon class="st0" points="221.4,54.7 217,57.3 216.7,57 221.1,54.5 			"/>
			<polygon class="st0" points="220.6,54.3 216.3,56.8 215.9,56.6 220.3,54.1 			"/>
			<polygon class="st0" points="219.8,53.8 215.5,56.3 215.1,56.1 219.5,53.6 			"/>
			<polygon class="st0" points="219,53.3 214.7,55.9 214.3,55.7 218.7,53.1 			"/>
			<polygon class="st0" points="218.2,52.9 213.9,55.4 213.5,55.2 217.9,52.7 			"/>
			<polygon class="st0" points="217.4,52.4 213.1,55 212.7,54.7 217.1,52.2 			"/>
			<polygon class="st0" points="216.6,52 212.3,54.5 211.9,54.3 216.3,51.7 			"/>
			<polygon class="st0" points="215.8,51.5 211.5,54 211.1,53.8 215.5,51.3 			"/>
			<polygon class="st0" points="215.1,51 210.7,53.6 210.3,53.4 214.7,50.8 			"/>
			<polygon class="st0" points="214.3,50.6 209.9,53.1 209.5,52.9 213.9,50.4 			"/>
			<polygon class="st0" points="213.5,50.1 209.1,52.6 208.7,52.4 213.1,49.9 			"/>
			<polygon class="st0" points="212.7,49.6 208.3,52.2 207.9,52 212.3,49.4 			"/>
			<polygon class="st0" points="211.9,49.2 207.5,51.7 207.1,51.5 211.5,49 			"/>
			<polygon class="st0" points="211.1,48.7 206.7,51.3 206.3,51 210.7,48.5 			"/>
			<polygon class="st0" points="210.3,48.3 205.9,50.8 205.5,50.6 209.9,48 			"/>
			<polygon class="st0" points="209.5,47.8 205.1,50.3 204.7,50.1 209.1,47.6 			"/>
			<polygon class="st0" points="208.7,47.3 204.3,49.9 203.9,49.7 208.3,47.1 			"/>
			<polygon class="st0" points="207.9,46.9 203.5,49.4 203.1,49.2 207.5,46.7 			"/>
			<polygon class="st0" points="207.1,46.4 202.7,48.9 202.3,48.7 206.7,46.2 			"/>
			<polygon class="st0" points="206.3,46 201.9,48.5 201.5,48.3 205.9,45.7 			"/>
			<polygon class="st0" points="205.5,45.5 201.1,48 200.7,47.8 205.1,45.3 			"/>
			<polygon class="st0" points="204.7,45 200.3,47.6 199.9,47.3 204.3,44.8 			"/>
			<polygon class="st0" points="203.9,44.6 199.5,47.1 199.1,46.9 203.5,44.4 			"/>
			<polygon class="st0" points="203.1,44.1 198.7,46.6 198.3,46.4 202.7,43.9 			"/>
			<polygon class="st0" points="234.2,49 229.8,51.5 229.5,51.3 233.8,48.8 			"/>
			<polygon class="st0" points="233.4,48.5 229,51 228.7,50.8 233,48.3 			"/>
			<polygon class="st0" points="232.6,48 228.2,50.6 227.9,50.4 232.2,47.8 			"/>
			<polygon class="st0" points="231.8,47.6 227.4,50.1 227.1,49.9 231.4,47.4 			"/>
			<polygon class="st0" points="231,47.1 226.6,49.6 226.3,49.4 230.6,46.9 			"/>
			<polygon class="st0" points="230.2,46.7 225.8,49.2 225.5,49 229.8,46.4 			"/>
			<polygon class="st0" points="229.4,46.2 225,48.7 224.7,48.5 229.1,46 			"/>
			<polygon class="st0" points="228.6,45.7 224.2,48.3 223.9,48.1 228.3,45.5 			"/>
			<polygon class="st0" points="227.8,45.3 223.4,47.8 223.1,47.6 227.5,45.1 			"/>
			<polygon class="st0" points="227,44.8 222.6,47.3 222.3,47.1 226.7,44.6 			"/>
			<polygon class="st0" points="226.2,44.3 221.8,46.9 221.5,46.7 225.9,44.1 			"/>
			<polygon class="st0" points="225.4,43.9 221,46.4 220.7,46.2 225.1,43.7 			"/>
			<polygon class="st0" points="224.6,43.4 220.3,46 219.9,45.7 224.3,43.2 			"/>
			<polygon class="st0" points="223.8,43 219.5,45.5 219.1,45.3 223.5,42.7 			"/>
			<polygon class="st0" points="223,42.5 218.7,45 218.3,44.8 222.7,42.3 			"/>
			<polygon class="st0" points="222.2,42 217.9,44.6 217.5,44.4 221.9,41.8 			"/>
			<polygon class="st0" points="221.4,41.6 217.1,44.1 216.7,43.9 221.1,41.4 			"/>
			<polygon class="st0" points="220.6,41.1 216.3,43.6 215.9,43.4 220.3,40.9 			"/>
			<polygon class="st0" points="219.8,40.7 215.5,43.2 215.1,43 219.5,40.4 			"/>
			<polygon class="st0" points="219.1,40.2 214.7,42.7 214.3,42.5 218.7,40 			"/>
			<polygon class="st0" points="218.3,39.7 213.9,42.3 213.5,42 217.9,39.5 			"/>
			<polygon class="st0" points="217.5,39.3 213.1,41.8 212.7,41.6 217.1,39.1 			"/>
			<polygon class="st0" points="241,44.7 236.7,47.2 236.3,47 240.7,44.5 			"/>
			<polygon class="st0" points="240.2,44.3 235.9,46.8 235.5,46.6 239.9,44 			"/>
			<polygon class="st0" points="239.5,43.8 235.1,46.3 234.7,46.1 239.1,43.6 			"/>
			<polygon class="st0" points="238.7,43.3 234.3,45.9 233.9,45.6 238.3,43.1 			"/>
			<polygon class="st0" points="237.9,42.9 233.5,45.4 233.1,45.2 237.5,42.7 			"/>
			<polygon class="st0" points="237.1,42.4 232.7,44.9 232.3,44.7 236.7,42.2 			"/>
			<polygon class="st0" points="236.3,41.9 231.9,44.5 231.5,44.3 235.9,41.7 			"/>
			<polygon class="st0" points="235.5,41.5 231.1,44 230.7,43.8 235.1,41.3 			"/>
			<polygon class="st0" points="234.7,41 230.3,43.5 229.9,43.3 234.3,40.8 			"/>
			<polygon class="st0" points="233.9,40.6 229.5,43.1 229.1,42.9 233.5,40.3 			"/>
			<polygon class="st0" points="233.1,40.1 228.7,42.6 228.3,42.4 232.7,39.9 			"/>
			<polygon class="st0" points="232.3,39.6 227.9,42.2 227.5,42 231.9,39.4 			"/>
			<polygon class="st0" points="231.5,39.2 227.1,41.7 226.7,41.5 231.1,39 			"/>
			<polygon class="st0" points="230.7,38.7 226.3,41.2 225.9,41 230.3,38.5 			"/>
			<polygon class="st0" points="229.9,38.2 225.5,40.8 225.1,40.6 229.5,38 			"/>
			<polygon class="st0" points="229.1,37.8 224.7,40.3 224.3,40.1 228.7,37.6 			"/>
			<polygon class="st0" points="248.6,40.3 244.2,42.8 243.8,42.6 248.2,40.1 			"/>
			<polygon class="st0" points="247.8,39.9 243.4,42.4 243,42.2 247.4,39.6 			"/>
			<polygon class="st0" points="247,39.4 242.6,41.9 242.2,41.7 246.6,39.2 			"/>
			<polygon class="st0" points="246.2,38.9 241.8,41.5 241.4,41.2 245.8,38.7 			"/>
			<polygon class="st0" points="245.4,38.5 241,41 240.6,40.8 245,38.3 			"/>
			<polygon class="st0" points="244.6,38 240.2,40.5 239.8,40.3 244.2,37.8 			"/>
			<polygon class="st0" points="243.8,37.5 239.4,40.1 239,39.9 243.4,37.3 			"/>
			<polygon class="st0" points="243,37.1 238.6,39.6 238.2,39.4 242.6,36.9 			"/>
			<path class="st0" d="M218,31.3c0.4-0.2,0.9-0.2,1.3,0c0.2,0.1,0.3,0.2,0.3,0.4v5.2c0,0.2-0.1,0.3-0.3,0.4c-0.4,0.2-0.9,0.2-1.3,0
				c-0.1-0.1-0.3-0.2-0.3-0.4v-5.2C217.8,31.5,217.9,31.4,218,31.3z"/>
			<path class="st0" d="M218,31.3c-0.2,0.1-0.3,0.3-0.2,0.5c0,0.1,0.1,0.2,0.2,0.2c0.4,0.2,0.9,0.2,1.3,0c0.2-0.1,0.3-0.3,0.2-0.5
				c0-0.1-0.1-0.2-0.2-0.2C218.9,31.1,218.4,31.1,218,31.3z"/>
			<path class="st0" d="M235,33.2c1.2-0.6,2.5-0.6,3.7,0c0.4,0.2,0.7,0.6,0.8,1.1v1.3c0,0.5-0.3,0.9-0.8,1.1c-1.2,0.6-2.5,0.6-3.7,0
				c-0.4-0.2-0.7-0.6-0.8-1.1v-1.3C234.3,33.8,234.6,33.4,235,33.2z"/>
			<path class="st0" d="M235,33.2c-0.6,0.2-0.9,0.8-0.7,1.4c0.1,0.3,0.4,0.6,0.7,0.7c1.2,0.6,2.5,0.6,3.7,0c0.6-0.2,0.9-0.8,0.7-1.4
				c-0.1-0.3-0.4-0.6-0.7-0.7C237.5,32.6,236.2,32.6,235,33.2z"/>
			<polygon class="st0" points="173.3,54.8 227.3,23.7 227.5,23.8 173.6,54.9 			"/>
			<polygon class="st0" points="204.6,82.8 204.9,83 204.9,71 227.2,58.1 226.9,57.9 204.6,70.8 			"/>
			<polygon class="st0" points="204.9,71 204.9,83 204.6,82.8 204.6,70.8 			"/>
			<polygon class="st0" points="229.4,68.4 229.7,68.6 229.7,56.5 252,43.6 251.7,43.4 229.4,56.3 			"/>
			<polygon class="st0" points="229.7,56.5 229.7,68.6 229.4,68.4 229.4,56.3 			"/>
			<polygon class="st0" points="225.4,66.2 227,65.3 227,63.3 225.4,64.2 			"/>
			<polygon class="st0" points="230.9,62.9 232.5,62 232.5,59.9 230.9,60.8 			"/>
			<path class="st0" d="M136.9,57.6l1.7-0.5l12.4,33.7c0.3,0.8-0.1,1.8-0.8,2.2c-1.3,0.6-2-0.3-2.4-1.7s-12.1-33-12.1-33L136.9,57.6
				z"/>
			<path class="st0" d="M135.5,58.2c0.4,0.7,1.2,0.9,1.9,0.5c0.8-0.3,1.4-1,1.1-1.6c-0.4-0.7-1.2-0.9-1.9-0.5
				C135.8,56.9,135.3,57.6,135.5,58.2z"/>
			<path class="st0" d="M136.2,57.9c0.2,0.3,0.6,0.5,1,0.3c0.5-0.2,0.7-0.5,0.6-0.9l-4.6-12.4l-1.6,0.7L136.2,57.9z"/>
			<path class="st0" d="M52.5,71l2.3,1.7l7.1,1l98.4-28.1c1-0.3,1.8-1.1,2.2-2.1c0.4-1.6-1.4-3-1.4-3l-5.1-5.9l-7.9-4.6l-38.1,10.4
				l-54.7,24l-6.3-0.2L52.5,71z"/>
			<polygon class="st0" points="117.6,45.7 155.8,34.6 147.9,30 109.8,40.4 			"/>
			<path class="st0" d="M126.9,33.7c0.1-0.7,0.5-1.3,1.1-1.6c0.5-0.3,0.8-0.2,1,0.1l2.4,3.5l-5.7,1.8L126.9,33.7z"/>
			<path class="st0" d="M125.9,33.1c0.1-0.7,0.5-1.3,1.1-1.7c0.2-0.1,0.5-0.2,0.7-0.1l1,0.6l0,0c-0.3-0.1-0.6-0.1-0.8,0.1
				c-0.6,0.4-1,1-1.1,1.6l-1.2,3.8l-1-0.5L125.9,33.1z"/>
			<path class="st0" d="M130.8,33.5l-1.9-1.1c-0.2-0.1-0.4-0.1-0.6,0.1c-0.5,0.3-0.8,0.9-0.9,1.5c0,0.2,0.1,0.4,0.3,0.6l1.9,1.1
				c0.2,0.1,0.4,0.1,0.6-0.1c0.5-0.3,0.8-0.9,0.9-1.5C131.1,33.8,131,33.6,130.8,33.5z"/>
			<path class="st0" d="M74.6,44.5l54.9-11.3c0,0,2.4-0.7,2.6,1.5s-2.7,2.1-2.7,2.1L75.1,48.4l-0.6-2.1L74.6,44.5z"/>
			<path class="st0" d="M73.7,46.6c0.1,1.1,0.7,1.9,1.3,1.9s1.1-1,1-2.1s-0.7-1.9-1.3-1.8S73.6,45.5,73.7,46.6z"/>
			<path class="st0" d="M75,47.5c0.3,0,0.6-0.5,0.5-1.1s-0.4-1.1-0.7-1l-28.1,5.4l1.6,1.6L75,47.5z"/>
			<path class="st0" d="M117.6,45.7l38.2-11.1l5.1,5.9c0,0,1.8,1.4,1.4,3c-0.3,1-1.1,1.8-2.2,2.1L61.9,73.7l0.4-4.3L117.6,45.7z"/>
			<polygon class="st0" points="52.5,71 51.1,68.5 52,65.1 59.7,70 59.3,70.6 54.5,72.5 			"/>
			<path class="st0" d="M133.6,34.9l-1.9-1.1c-0.2-0.1-0.4-0.1-0.6,0.1c-0.5,0.3-0.8,0.9-0.9,1.5c0,0.2,0.1,0.4,0.2,0.5l1.9,1.1
				c0.2,0.1,0.4,0.1,0.6-0.1c0.5-0.3,0.8-0.9,0.9-1.5C133.9,35.2,133.8,35,133.6,34.9z"/>
			<path class="st0" d="M133,36.9c0.1-0.7,0.5-1.3,1.1-1.7c0.4-0.3,0.8-0.2,1,0.1l2.4,3.5l-5.7,1.8L133,36.9z"/>
			<path class="st0" d="M132.1,36.4c0.1-0.7,0.5-1.3,1.1-1.6c0.2-0.1,0.5-0.2,0.7-0.1l1,0.6l0,0c-0.3-0.1-0.6-0.1-0.8,0.1
				c-0.6,0.4-1,1-1.1,1.7l-1.1,3.8l-1-0.5L132.1,36.4z"/>
			<path class="st0" d="M1.8,166.4c2.9-7,13.5-19.4,13.5-19.4l14.6,7.9l4.6-0.1l2.1-2.4l3.6-0.5l0.5,0.3l19.5,11.2l-3.2,3.9
				l-0.8,0.3l-7.7,7.9l-1,0.2c0,0-7.4,8-13.3,12c-3.3,2.4-7.5,2.8-11.2,1.3L3.5,178C0.7,174.8,0,170.3,1.8,166.4z"/>
			<path class="st0" d="M1.8,166.4c0.7-1.6,1.5-3.2,2.5-4.7L24.5,173c-2.5,3.7-6,11.5-1.9,15.8l0.1,0.1L3.5,178
				C0.7,174.8,0,170.3,1.8,166.4z"/>
			<polygon class="st0" points="47.5,175.8 45.9,171.1 46.7,170.9 48.5,175.6 			"/>
			<path class="st0" d="M25,172.4c1.2-1.7,5.2-6.3,5.2-6.3l0.7,0.1l5.4-6.8l11.5,7.8l8.6-0.4l2.9-3.9l0.9,0.5l-3.2,3.9l-0.8,0.3
				l-7.7,7.9l-1.7-4.7l-0.9,0.2l1.6,4.7c0,0-7.4,8-13.3,12c-3.3,2.4-7.5,2.8-11.2,1.3l-0.1-0.1l-0.1-0.1
				C18.3,184.3,22.5,175.7,25,172.4z"/>
			<polygon class="st0" points="34.5,154.8 35.9,155.6 31.1,155.9 29.9,155 			"/>
			<polygon class="st0" points="34.3,157.8 31.1,155.9 35.9,155.6 			"/>
			<path class="st0" d="M33.9,165.1c2-0.3,4,0,5.8,0.8c2.9,1.3,7,5,7,5l-0.8,0.2c0,0-3.6-3.1-4.9-4C39,165.6,36.5,164.9,33.9,165.1z
				"/>
			<polygon class="st0" points="57.2,161.5 60.1,159.2 62.3,160.4 62.4,160.9 60.2,163.4 59.7,163.1 56.5,166.8 56.4,166.7 
				56.1,166.6 56.9,164.7 56.2,164.3 54.6,165.7 54.5,165.6 54.2,165.5 			"/>
			<polygon class="st0" points="54.2,165.5 57.2,161.5 60.1,159.2 62.3,160.4 59.5,162.7 56.4,166.7 56.1,166.6 56.9,164.7 
				56.1,164.2 54.5,165.6 			"/>
			<polygon class="st0" points="57.2,161.5 59.5,162.7 56.4,166.7 56.1,166.6 56.9,164.7 56.1,164.2 54.5,165.6 54.2,165.5 			"/>
			<polygon class="st0" points="52.4,158.7 55.2,156.4 57.4,157.6 57.5,158.1 55.3,160.6 54.8,160.3 51.7,164 51.5,163.9 
				51.2,163.8 52,161.8 51.3,161.5 49.7,162.9 49.6,162.8 49.3,162.7 			"/>
			<polygon class="st0" points="49.3,162.7 52.4,158.7 55.2,156.4 57.4,157.6 54.6,159.9 51.5,163.9 51.2,163.8 52,161.8 
				51.2,161.4 49.6,162.8 			"/>
			<polygon class="st0" points="52.4,158.7 54.6,159.9 51.5,163.9 51.2,163.8 52,161.8 51.2,161.4 49.6,162.8 49.3,162.7 			"/>
			<polygon class="st0" points="47.5,155.9 50.3,153.6 52.5,154.8 52.6,155.3 50.4,157.8 49.9,157.5 46.8,161.2 46.6,161.1 
				46.3,161 47.1,159 46.5,158.7 44.8,160.1 44.7,160 44.4,159.9 			"/>
			<polygon class="st0" points="44.4,159.9 47.5,155.9 50.3,153.6 52.5,154.8 49.7,157.1 46.6,161.1 46.3,161 47.1,159 46.3,158.6 
				44.7,160 			"/>
			<polygon class="st0" points="47.5,155.9 49.7,157.1 46.6,161.1 46.3,161 47.1,159 46.3,158.6 44.7,160 44.4,159.9 			"/>
			<polygon class="st0" points="42.6,153.1 45.4,150.8 47.7,152 47.7,152.4 45.6,155 45,154.7 41.9,158.4 41.7,158.3 41.5,158.2 
				42.3,156.2 41.6,155.8 39.9,157.3 39.8,157.2 39.5,157.1 			"/>
			<polygon class="st0" points="39.5,157.1 42.6,153.1 45.4,150.8 47.7,152 44.8,154.3 41.7,158.3 41.5,158.2 42.3,156.2 
				41.4,155.8 39.8,157.2 			"/>
			<polygon class="st0" points="42.6,153.1 44.8,154.3 41.7,158.3 41.5,158.2 42.3,156.2 41.4,155.8 39.8,157.2 39.5,157.1 			"/>
			<polygon class="st0" points="37.7,150.3 40.5,148 42.8,149.2 42.8,149.6 40.7,152.2 40.1,151.9 37,155.6 36.9,155.5 36.6,155.4 
				37.4,153.4 36.7,153 35,154.5 35,154.4 34.7,154.3 			"/>
			<polygon class="st0" points="34.7,154.3 37.7,150.3 40.5,148 42.8,149.2 39.9,151.5 36.9,155.5 36.6,155.4 37.4,153.4 36.5,153 
				35,154.4 			"/>
			<polygon class="st0" points="37.7,150.3 39.9,151.5 36.9,155.5 36.6,155.4 37.4,153.4 36.5,153 35,154.4 34.7,154.3 			"/>
			<path class="st0" d="M20.4,146.7c0.3-0.3,0.6-0.6,1-0.9c1.3-0.7,2.3-0.1,2.3,1.3c-0.1,1.2-0.6,2.3-1.4,3.2l-9.6,11.9
				c0,0-4.6,6-5.3,10.3c0,0-1.2-7.2,1.9-12S20.4,146.7,20.4,146.7z"/>
			<path class="st0" d="M8,160c3-4.9,11.1-13.8,11.1-13.8c0.3-0.3,0.6-0.6,1-0.9c0.4-0.3,1-0.4,1.5-0.2l1.3,0.6l0,0
				c-0.5-0.2-1.1-0.1-1.5,0.2c-0.4,0.2-0.7,0.5-1,0.9c0,0-8.1,8.9-11.1,13.8s-1.9,12-1.9,12L6.1,172C6.1,172,4.9,164.8,8,160z"/>
			<polygon class="st0" points="14.4,155 19.4,162.6 18.1,164.4 12.3,155.9 			"/>
			<polygon class="st0" points="12.3,155.9 18.1,164.4 16.2,163.2 10.9,155.5 			"/>
			<polygon class="st0" points="5.9,149.7 11.4,157.9 10,159.7 3.8,150.7 			"/>
			<polygon class="st0" points="3.8,150.7 9.9,159.6 8.6,159.1 2.4,150.2 			"/>
			<path class="st0" d="M24.9,138l-1.7-0.9c-0.3-0.1-0.7-0.1-1,0.1c-0.9,0.6-1.4,1.5-1.5,2.5c0,0.4,0.1,0.7,0.4,0.9l1.7,1
				c0.3,0.1,0.7,0.1,1-0.1c0.9-0.6,1.4-1.5,1.5-2.5C25.4,138.7,25.2,138.3,24.9,138z"/>
			<path class="st0" d="M25.3,139c-0.1,1-0.6,2-1.5,2.5c-0.3,0.2-0.7,0.2-1,0.1c-0.3-0.2-0.5-0.6-0.4-1c0.1-1,0.6-2,1.5-2.5
				c0.3-0.2,0.7-0.3,1-0.1C25.2,138.2,25.4,138.6,25.3,139z"/>
			<path class="st0" d="M14.8,137.6c4.4-1.8,7.4-0.3,8.2,0.1c-0.8,0.6-1.3,1.4-1.4,2.4c-0.9-0.5-3.5-1.6-7.5,0.1
				c-4.9,2.1-8.8,9-8.8,9l-1.2-1.8C4.3,147.5,9.2,139.9,14.8,137.6z"/>
			<path class="st0" d="M13.7,137.3c2.3-1.1,5-1.2,7.4-0.2c-2.1-0.5-4.4-0.3-6.4,0.6c-5.6,2.3-10.5,9.9-10.5,9.9l-1.1-0.4
				C3.2,147.1,8.1,139.5,13.7,137.3z"/>
			<path class="st0" d="M5.4,148l-1.6-0.9c-0.3-0.1-0.7-0.1-1,0.1c-0.9,0.6-1.4,1.5-1.5,2.6c0,0.4,0.1,0.7,0.4,0.9l1.7,1
				c0.3,0.1,0.7,0.1,1-0.1c0.9-0.6,1.4-1.5,1.5-2.5C5.9,148.6,5.7,148.3,5.4,148z"/>
			<path class="st0" d="M5.8,149c-0.1,1-0.6,2-1.5,2.5c-0.3,0.2-0.7,0.3-1,0.1c-0.3-0.2-0.5-0.6-0.4-1c0.1-1,0.6-2,1.5-2.6
				c0.3-0.2,0.7-0.2,1-0.1C5.7,148.2,5.9,148.6,5.8,149z"/>
			<path class="st0" d="M48,55.8l-2.6-1.3l-4.9,6.2l-20.1,88.2c0,0-0.3,0.9,0.3,1.2s6.4,3.8,6.4,3.8l1,0.3l19.4-89.9L48,55.8z"/>
			<path class="st0" d="M42.6,53.8l0.2-2.5c0-0.8,0.5-1.6,1.1-2c0.2-0.2,0.5-0.2,0.8-0.1c0.2,0.2,0.4,0.4,0.3,0.7l0.4,4.5l-4.9,6.3
				l-2.1-1.3v-1.1L42.6,53.8z"/>
			<polygon class="st0" points="38.3,58.4 38.4,59.5 36.9,58.7 36.9,57.9 			"/>
			<polygon class="st0" points="41.2,53.3 42.6,53.8 38.3,58.4 36.9,57.9 			"/>
			<path class="st0" d="M49.6,52.2l-4.9-2.8c-0.2-0.1-0.5-0.1-0.8,0.1c-0.6,0.4-1,1.1-1.1,1.9c0,0.3,0.1,0.5,0.3,0.7l4.9,2.8
				c0.2,0.1,0.5,0.1,0.8-0.1c0.6-0.4,1-1.1,1.1-1.8C49.9,52.6,49.8,52.4,49.6,52.2z"/>
			<path class="st0" d="M12.5,152.8l-7.3-4.3c-0.2-0.1-0.5-0.1-0.8,0.1c-0.6,0.4-1,1.1-1.1,1.9c0,0.3,0.1,0.5,0.3,0.7l7.3,4.3
				c0.2,0.1,0.5,0.1,0.8-0.1c0.6-0.4,1-1.1,1.1-1.9C12.8,153.2,12.7,153,12.5,152.8z"/>
			<path class="st0" d="M29.3,151.5c0.3-0.3,0.6-0.6,1-0.9c1.3-0.7,2.3-0.1,2.3,1.3c-0.1,1.2-0.6,2.3-1.4,3.2L21.5,167
				c0,0-4.6,6-5.3,10.3c0,0-1.2-7.2,1.9-12S29.3,151.5,29.3,151.5z"/>
			<path class="st0" d="M16.8,164.7c3-4.8,11.1-13.8,11.1-13.8c0.3-0.3,0.6-0.6,1-0.9c0.4-0.3,1-0.4,1.5-0.2l1.3,0.6l0,0
				c-0.5-0.2-1.1-0.1-1.5,0.2c-0.4,0.2-0.7,0.5-1,0.9c0,0-8.1,9-11.2,13.8s-1.9,12-1.9,12l-1.3-0.6
				C14.9,176.7,13.7,169.6,16.8,164.7z"/>
			<path class="st0" d="M31.2,152.3l-0.4-0.3c-0.2-0.1-0.5-0.1-0.7,0.1c-0.6,0.4-0.9,1-1,1.7c0,0.2,0.1,0.5,0.3,0.6l0.4,0.3
				c0.2,0.1,0.5,0.1,0.7-0.1c0.6-0.4,1-1,1-1.6C31.5,152.7,31.4,152.4,31.2,152.3z"/>
			<path class="st0" d="M31.5,152.9c0,0.7-0.4,1.3-1,1.6c-0.2,0.2-0.6,0.2-0.8-0.1c-0.1-0.1-0.2-0.3-0.1-0.5c0-0.7,0.4-1.3,1-1.6
				c0.2-0.1,0.5-0.2,0.7-0.1C31.4,152.4,31.5,152.7,31.5,152.9z"/>
			<path class="st0" d="M21.3,164.5l-0.4-0.3c-0.2-0.1-0.5-0.1-0.7,0.1c-0.6,0.4-1,1-1,1.7c0,0.2,0.1,0.5,0.3,0.6l0.4,0.2
				c0.2,0.1,0.5,0.1,0.7-0.1c0.6-0.4,1-1,1-1.6C21.6,164.9,21.5,164.6,21.3,164.5z"/>
			<path class="st0" d="M21.6,165.1c0,0.7-0.4,1.3-1,1.6c-0.2,0.1-0.5,0.2-0.7,0.1c-0.2-0.1-0.3-0.4-0.3-0.6c0-0.7,0.4-1.3,1-1.6
				c0.2-0.1,0.5-0.2,0.7-0.1C21.5,164.6,21.6,164.9,21.6,165.1z"/>
			<path class="st0" d="M41.4,50.6c0-0.8,0.5-1.5,1.1-2c0.2-0.2,0.5-0.2,0.8-0.1l1.4,0.8c-0.3-0.1-0.6-0.1-0.8,0.1
				c-0.7,0.4-1.1,1.2-1.1,2l-0.2,2.5l-1.4-0.6L41.4,50.6z"/>
			<path class="st0" d="M47.6,54.1c0-0.8,0.4-1.6,1.1-2c0.2-0.2,0.5-0.2,0.8-0.1l1.3,0.8c-0.2-0.1-0.5-0.1-0.7,0.1
				c-0.7,0.4-1.1,1.2-1.1,2l-0.2,3.2l-1.4-0.8L47.6,54.1z"/>
			<path class="st0" d="M34,143.2l-1.7-1c-0.3-0.1-0.7-0.1-1,0.1c-0.9,0.6-1.5,1.5-1.5,2.6c0,0.4,0.1,0.7,0.4,0.9l1.7,1
				c0.3,0.1,0.7,0.1,1-0.1c0.9-0.6,1.4-1.5,1.5-2.5C34.4,143.8,34.3,143.4,34,143.2z"/>
			<path class="st0" d="M34.4,144.2c-0.1,1-0.6,2-1.5,2.5c-0.3,0.2-0.7,0.2-1,0.1c-0.3-0.2-0.5-0.6-0.4-1c0.1-1,0.6-2,1.5-2.5
				c0.4-0.3,0.9-0.3,1.3,0.1C34.4,143.6,34.5,143.8,34.4,144.2L34.4,144.2z"/>
			<path class="st0" d="M23.9,142.8c4.4-1.8,7.4-0.3,8.2,0.1c-0.8,0.6-1.3,1.4-1.3,2.4c-0.9-0.5-3.5-1.6-7.5,0.1
				c-4.9,2.1-8.8,9-8.8,9l-1.2-1.8C13.3,152.7,18.2,145,23.9,142.8z"/>
			<path class="st0" d="M22.8,142.4c2.3-1.1,5-1.1,7.4-0.2c-2.1-0.5-4.4-0.3-6.4,0.6c-5.6,2.3-10.6,9.9-10.6,9.9l-1.1-0.4
				C12.2,152.3,17.2,144.7,22.8,142.4z"/>
			<path class="st0" d="M14.4,153.2l-1.7-0.9c-0.3-0.1-0.7-0.1-1,0.1c-0.9,0.6-1.4,1.5-1.5,2.6c0,0.4,0.1,0.7,0.4,0.9l1.7,1
				c0.3,0.1,0.7,0.1,1-0.1c0.9-0.6,1.4-1.5,1.5-2.5C14.9,153.8,14.7,153.4,14.4,153.2z"/>
			<path class="st0" d="M14.9,154.2c-0.1,1-0.6,2-1.5,2.5c-0.3,0.2-0.7,0.3-1,0.1c-0.3-0.2-0.5-0.6-0.4-1c0.1-1,0.6-2,1.5-2.5
				c0.3-0.2,0.7-0.2,1-0.1C14.7,153.4,14.9,153.8,14.9,154.2z"/>
			<path class="st0" d="M42.9,59.3l-2.6-1.5c-0.2-0.1-0.4-0.1-0.6,0c-0.5,0.3-0.8,0.8-0.8,1.4c0,0.2,0.1,0.4,0.2,0.5l2.6,1.5
				c0.2,0.1,0.4,0.1,0.6-0.1c0.5-0.3,0.8-0.8,0.8-1.4C43.2,59.5,43.1,59.4,42.9,59.3z"/>
			<polygon class="st0" points="24.5,103.7 26,104.3 9.1,151.1 7.6,150.4 			"/>
			<path class="st0" d="M41.9,63.9l-15.1,40.9c-1.1,0.3-2.3-0.2-3-1.1l15-41.2c0,0,0.8-2.8,1.2-3.6c0.5-1,3.1-0.9,2.9,0.5
				c-0.2,1.2-0.6,2.3-1,3.4L41.9,63.9z"/>
			<path class="st0" d="M40.2,62.8c0,0,0.3-3.9,2.4-4.1c0.2,0.2,0.3,0.5,0.2,0.7c-0.2,1.2-0.6,2.3-1,3.4L40.2,62.8z"/>
			<path class="st0" d="M45.3,60.6l-2.6-1.5c-0.2-0.1-0.4-0.1-0.6,0.1c-0.5,0.3-0.8,0.8-0.8,1.4c0,0.2,0.1,0.4,0.2,0.5l2.6,1.5
				c0.2,0.1,0.4,0.1,0.6-0.1c0.5-0.3,0.8-0.8,0.8-1.4C45.5,60.9,45.5,60.7,45.3,60.6z"/>
			<polygon class="st0" points="159.3,83.4 172.7,91.4 175.5,83 166.4,79.2 			"/>
			<polygon class="st0" points="174.9,78.3 176.6,79 173.6,83.7 172.3,81.8 			"/>
			<path class="st0" d="M164.9,68.5c1.1-0.8,2.6-1,3.9-0.4c1,0.6,1.6,1.8,1.6,3.6v5.2l-11.1,6.4v-5.3
				C159.5,74.2,161.6,70.6,164.9,68.5z"/>
			<path class="st0" d="M162.3,67.1c1-0.7,2.3-0.9,3.5-0.6l2.8,1.4l0,0c-1.2-0.5-2.6-0.3-3.7,0.5c-3.3,2.1-5.4,5.7-5.6,9.6v5.3
				l-2.6-1.4v-5.2C157,72.8,159,69.2,162.3,67.1z"/>
			<path class="st0" d="M180.7,78.1c1.4-1.2,3.5-1.1,4.8,0.3c0.7,0.8,1,1.9,0.8,2.9v5.2l-11.1,6.3v-5.1
				C175.3,83.8,177.4,80.2,180.7,78.1z"/>
			<path class="st0" d="M159.3,44.1c0,0.6,0.4,0.8,0.9,0.5c0.5-0.3,0.9-0.9,0.9-1.6c0-0.6-0.4-0.8-0.9-0.5
				C159.7,42.9,159.3,43.4,159.3,44.1z"/>
			<path class="st0" d="M140.7,50.3l2.3-7c0,0,0.4-1.2,2.3-0.5s9.3,3.2,9.3,3.2L175,78.3l-2.7,3.5L140.7,50.3z"/>
			<path class="st0" d="M141.1,41.6c0,0,0.5-1.3,2.4-0.6c1.9,0.6,9.3,3.2,9.3,3.2l2,1.9c0,0-7.4-2.6-9.3-3.2s-2.3,0.5-2.3,0.5
				l-2.3,7l-2.7-1L141.1,41.6z"/>
			<polygon class="st0" points="170,81.4 174.9,85.7 172.3,81.8 140.7,50.3 138,49.4 143.5,54.8 138.3,51.8 137.1,52.2 165.1,79.7 
				163.7,77.6 			"/>
			<path class="st0" d="M148.2,51.7l-0.9-0.6c-0.2-0.1-0.5-0.1-0.8,0.1c-0.6,0.4-1,1.1-1.1,1.8c0,0.3,0.1,0.5,0.3,0.7l0.9,0.6
				c0.2,0.1,0.5,0.1,0.8-0.1c0.6-0.4,1-1.1,1.1-1.8C148.5,52.1,148.4,51.9,148.2,51.7z"/>
			<polygon class="st0" points="189,89.1 177.2,96.2 177.2,94 189,86.8 			"/>
			<polygon class="st0" points="155.2,83.1 177.2,96.2 177.2,94 155.2,80.9 			"/>
			<polygon class="st0" points="187,86 175.1,92.8 177.2,94 189,86.8 			"/>
			<polygon class="st0" points="140,51.4 143.5,54.8 138.3,51.8 			"/>
			<polygon class="st0" points="154.9,82.5 175.1,94.1 175.1,102.9 154.9,91.3 			"/>
			<polygon class="st0" points="155.6,82 175.8,93.7 175.8,102.4 175.1,102.9 175.1,94.1 154.9,82.5 			"/>
			<polygon class="st0" points="155.6,82 175.8,93.7 175.1,94.1 154.9,82.5 			"/>
			<path class="st0" d="M165.4,97.8l7.2-4.6v8.3l-8.2,2.3c-0.3,0-0.5,0-0.8-0.2c-0.5-0.4-0.8-1-0.7-1.6
				C163,100.3,164,98.7,165.4,97.8z"/>
			<path class="st0" d="M178.1,76.7c1-0.7,2.3-0.9,3.5-0.6l2.8,1.4l0,0c-1.2-0.5-2.6-0.3-3.7,0.5c-3.3,2.1-5.4,5.7-5.6,9.6v5.1
				l-2.4-1.4l-0.1-5.1C172.8,82.4,174.9,78.9,178.1,76.7z"/>
			<path class="st0" d="M173.2,94.5c0,0.4,0.3,0.8,0.6,1.1c0.3,0.2,0.6,0,0.6-0.3c0-0.4-0.3-0.8-0.6-1.1
				C173.4,93.9,173.2,94.1,173.2,94.5z"/>
			<path class="st0" d="M169.7,92.4c0,0.4,0.3,0.8,0.6,1.1c0.4,0.2,0.6,0,0.6-0.4c0-0.4-0.3-0.8-0.6-1.1
				C170,91.9,169.7,92,169.7,92.4z"/>
			<path class="st0" d="M158.5,92.1c0,0.4,0.2,0.8,0.6,1.1c0.3,0.2,0.6,0,0.6-0.3c0-0.4-0.3-0.8-0.6-1.1
				C158.8,91.5,158.5,91.7,158.5,92.1z"/>
			<path class="st0" d="M158.5,86.1c0,0.4,0.2,0.8,0.6,1.1c0.3,0.2,0.6,0,0.6-0.3c0-0.4-0.3-0.8-0.6-1.1
				C158.8,85.6,158.5,85.7,158.5,86.1z"/>
			<path class="st0" d="M155.2,83.9c0,0.4,0.3,0.8,0.6,1.1c0.3,0.2,0.6,0,0.6-0.3c0-0.4-0.2-0.8-0.6-1.1
				C155.5,83.3,155.2,83.5,155.2,83.9z"/>
			<path class="st0" d="M173.2,100.5c0,0.4,0.3,0.8,0.6,1.1c0.3,0.2,0.6,0,0.6-0.4c0-0.4-0.3-0.8-0.6-1.1
				C173.4,100,173.2,100.1,173.2,100.5z"/>
			<path class="st0" d="M163.7,103.7"/>
			<path class="st0" d="M164.4,97l7.2-4.6l1,0.7l-7.2,4.6c-1.5,1-2.4,2.6-2.5,4.3c-0.1,0.6,0.2,1.2,0.7,1.6l-1.1-0.8
				c-0.4-0.4-0.6-0.9-0.6-1.5C162,99.6,162.9,98,164.4,97z"/>
			<path class="st0" d="M150.6,89.2l7.2-4.6V93l-8.2,2.3c-0.3,0-0.6,0-0.8-0.2c-0.5-0.4-0.8-1-0.7-1.6
				C148.2,91.8,149.1,90.2,150.6,89.2z"/>
			<path class="st0" d="M149.6,88.5l7.2-4.6l1,0.7l-7.2,4.6c-1.5,1-2.4,2.6-2.5,4.3c-0.1,0.6,0.2,1.2,0.7,1.6l-1.1-0.8
				c-0.4-0.4-0.6-0.9-0.6-1.5C147.2,91,148.1,89.4,149.6,88.5z"/>
			<path class="st0" d="M186.2,80.7l-2.3-1.4c-1-0.5-2.2-0.3-3.1,0.3c-2.6,1.7-4.2,4.4-4.3,7.5c-0.1,1.1,0.4,2.2,1.3,2.8l2.3,1.4
				c1,0.4,2.1,0.3,3-0.3c2.6-1.7,4.2-4.5,4.3-7.5C187.5,82.4,187.1,81.3,186.2,80.7z"/>
			<path class="st0" d="M187.4,83.5c-0.2,3-1.8,5.8-4.3,7.5c-0.9,0.6-2,0.7-3,0.3c-0.9-0.6-1.4-1.7-1.3-2.8c0.2-3,1.8-5.8,4.3-7.5
				c0.9-0.6,2.1-0.8,3.1-0.3C187.1,81.3,187.6,82.4,187.4,83.5z"/>
			<path class="st0" d="M186.2,84.2c-0.1,2.2-1.3,4.2-3.1,5.4c-0.8,0.7-2,0.6-2.7-0.2c-0.4-0.4-0.6-1-0.4-1.6
				c0.1-2.2,1.3-4.2,3.1-5.4c0.8-0.7,2-0.6,2.7,0.2C186.2,83,186.4,83.6,186.2,84.2z"/>
			<path class="st0" d="M153.5,66.7l1.7-0.5l12.4,33.7c0.3,0.8-0.1,1.8-0.8,2.2c-1.3,0.6-2-0.4-2.4-1.7s-12.1-33-12.1-33L153.5,66.7
				z"/>
			<path class="st0" d="M152.1,67.3c0.4,0.7,1.2,0.9,1.9,0.6c0.8-0.3,1.4-1,1.1-1.6c-0.4-0.7-1.2-0.9-1.9-0.6
				C152.4,65.9,151.9,66.7,152.1,67.3z"/>
			<path class="st0" d="M152.8,67c0.1,0.3,0.6,0.5,1,0.3c0.4-0.2,0.7-0.6,0.6-0.9L149.8,54l-1.6,0.7L152.8,67z"/>
			<path class="st0" d="M149.9,52.5l-1.1-0.7c-0.3-0.1-0.6-0.1-0.9,0.1c-0.7,0.5-1.2,1.3-1.2,2.1c0,0.3,0.1,0.6,0.4,0.8l1,0.7
				c0.3,0.1,0.6,0.1,0.9-0.1c0.7-0.5,1.2-1.3,1.2-2.2C150.3,53,150.1,52.7,149.9,52.5z"/>
			<path class="st0" d="M150.3,53.3c0,0.9-0.5,1.7-1.2,2.2c-0.3,0.2-0.6,0.2-0.9,0.1c-0.3-0.2-0.4-0.5-0.4-0.8
				c0-0.9,0.5-1.7,1.2-2.1c0.3-0.2,0.6-0.2,0.9-0.1C150.1,52.7,150.3,53,150.3,53.3z"/>
			<path class="st0" d="M48.7,58.1l0.2-3.2c0-0.8,0.5-1.6,1.1-2c0.2-0.2,0.5-0.2,0.8-0.1c0.2,0.2,0.4,0.4,0.3,0.7L53,74.8L30,153.3
				l-1.9,1l19.4-90l-2.8-1.1l-0.1-0.8L48.7,58.1z"/>
			<polygon class="st0" points="47.4,57.3 48.8,58.1 44.7,62.3 43.3,61.6 			"/>
			<path class="st0" d="M62.3,69.4l-0.4,4.3l-1.2,1.7l-9,2.6c0,0-2.8,0.3-2.8-1.6c-0.1-1.3,0.8-2.5,2-3c0.7-0.3,8.6-3.5,8.6-3.5
				L62.3,69.4z"/>
			<path class="st0" d="M51,76.6c0.1-0.9,0.7-1.6,1.6-1.8l8.1-2.8l1.7-2.5l-0.4,4.3l-1.2,1.6l-9,2.6C51.2,77.7,50.9,77.2,51,76.6z"
				/>
			<polygon class="st0" points="60.8,75.3 61.9,73.7 62.3,69.4 60.6,71.9 			"/>
			<path class="st0" d="M51.8,76.7c0,0.6,0.4,0.8,0.9,0.5c0.5-0.3,0.9-0.9,0.9-1.6c0-0.6-0.4-0.8-0.9-0.5
				C52.2,75.5,51.8,76.1,51.8,76.7z"/>
			<polygon class="st0" points="44.7,62.3 44.8,63.2 43.4,62.4 43.3,61.6 			"/>
			<path class="st0" d="M143.5,45.2c0,0.6,0.4,0.8,0.9,0.5c0.5-0.4,0.9-0.9,0.9-1.6c0-0.6-0.4-0.8-0.9-0.5
				C143.8,44,143.5,44.6,143.5,45.2z"/>
			<path class="st0" d="M152.5,49.5c0,0.6,0.4,0.8,0.9,0.5c0.5-0.3,0.9-0.9,0.9-1.5c0-0.6-0.4-0.8-0.9-0.5
				C152.8,48.3,152.5,48.9,152.5,49.5z"/>
			<circle class="st2" cx="175.5" cy="23.7" r="6.2"/>
			<circle class="st2" cx="231" cy="25" r="6.2"/>
			<circle class="st2" cx="227" cy="55.6" r="6.2"/>
		</g>
	</g>
</g>
</svg>
