<svg xmlns="http://www.w3.org/2000/svg" viewBox="0 0 258.53 180.19"><defs><style>.cls-1{isolation:isolate;}.cls-2,.cls-3{fill:#eeeeef;stroke:#231916;stroke-miterlimit:10;stroke-width:0.25px;}.cls-3{mix-blend-mode:multiply;opacity:0.3;}.cls-4{fill:#dd2625;}</style></defs><g class="cls-1"><g id="Layer_2" data-name="Layer 2"><g id="Layer_1-2" data-name="Layer 1"><path class="cls-2" d="M114.1,98.65l23.53-16.82,30-17.7,20.64-9.94c3.54-1.14,6.18,1,6.18,5.34a17.46,17.46,0,0,1-7.91,13.69l-70.88,42.64c-4.37,2.53-7.91.48-7.91-4.56C107.7,106.85,110.45,101.57,114.1,98.65Z"/><path class="cls-2" d="M109.18,113.85a6.77,6.77,0,0,1-.44-2.55c0-4.07,2.52-9,6-11.83L138.2,82.7l29.87-17.65,20.53-9.9a4.93,4.93,0,0,1,1.41-.23,6.86,6.86,0,0,1,.43,2.55,16.33,16.33,0,0,1-7.4,12.8l-70.87,42.64A6.19,6.19,0,0,1,109.18,113.85Z"/><path class="cls-2" d="M100.4,90.87l23.53-16.82,29.95-17.69,20.64-10a4.61,4.61,0,0,1,4.11.37l13.45,7.64a4.66,4.66,0,0,0-3.86-.23l-20.64,9.94-30,17.7L114.1,98.65c-3.65,2.92-6.4,8.2-6.4,12.65,0,2.52.89,4.29,2.31,5.12l-13.69-7.78c-1.43-.82-2.32-2.59-2.32-5.12C94,99.08,96.75,93.79,100.4,90.87Z"/><polygon class="cls-2" points="140.76 64.11 147.34 60.23 160.92 68.07 154.34 71.96 140.76 64.11"/><polygon class="cls-2" points="154.65 55.99 161.9 52.5 175.48 60.33 168.22 63.83 154.65 55.99"/><polygon class="cls-2" points="162.27 52.32 169.52 48.82 183.09 56.66 175.84 60.16 162.27 52.32"/><polygon class="cls-2" points="123.93 74.06 126.61 72.47 140.2 80.32 137.63 81.83 134 84.43 120.41 76.57 123.93 74.06"/><polygon class="cls-2" points="133.85 68.19 140.43 64.31 154.01 72.15 147.44 76.04 133.85 68.19"/><polygon class="cls-2" points="153.88 56.36 154.29 56.17 167.86 64 167.58 64.14 161.25 67.88 147.67 60.03 153.88 56.36"/><path class="cls-2" d="M174.52,46.41a4.61,4.61,0,0,1,4.11.38l13.45,7.63a4.7,4.7,0,0,0-3.86-.23l-4.76,2.3-13.57-7.84Z"/><path class="cls-2" d="M94,103.53a11.11,11.11,0,0,1,.12-1.61l13.68,7.9a12.71,12.71,0,0,0-.1,1.49c0,2.51.89,4.29,2.31,5.11l-13.69-7.77C94.89,107.82,94,106.05,94,103.53Z"/><path class="cls-2" d="M110.31,103,96.67,95.15a17.61,17.61,0,0,1,3.73-4.28l1-.69L115,98l-.86.62A17.19,17.19,0,0,0,110.31,103Z"/><polygon class="cls-2" points="126.94 72.28 133.52 68.39 147.1 76.23 140.53 80.12 126.94 72.28"/><polygon class="cls-2" points="101.67 89.97 107.61 85.72 121.21 93.57 115.26 97.82 101.67 89.97"/><path class="cls-2" d="M94.16,101.68a17.6,17.6,0,0,1,2.38-6.31l13.64,7.88a17.62,17.62,0,0,0-2.35,6.33Z"/><polygon class="cls-2" points="107.91 85.5 113.86 81.25 127.46 89.1 121.51 93.35 107.91 85.5"/><polygon class="cls-2" points="114.16 81.04 120.11 76.79 133.7 84.64 127.76 88.89 114.16 81.04"/><path class="cls-2" d="M110.45,106.29c0,1.81,1.27,2.54,2.83,1.63A6.22,6.22,0,0,0,116.1,103c0-1.81-1.26-2.53-2.82-1.63A6.24,6.24,0,0,0,110.45,106.29Z"/><path class="cls-2" d="M111.83,106.51c0,1.43,1,2,2.25,1.3a5,5,0,0,0,2.25-3.9c0-1.44-1-2-2.25-1.3A5,5,0,0,0,111.83,106.51Z"/><path class="cls-2" d="M181,64.07c0,1.8,1.27,2.53,2.83,1.63a6.24,6.24,0,0,0,2.82-4.89c0-1.8-1.26-2.53-2.82-1.63A6.25,6.25,0,0,0,181,64.07Z"/><path class="cls-2" d="M182.36,64.28c0,1.44,1,2,2.25,1.3a5,5,0,0,0,2.25-3.9c0-1.43-1-2-2.25-1.3A5,5,0,0,0,182.36,64.28Z"/><path class="cls-2" d="M112.17,112.91,183,70.27a16.33,16.33,0,0,0,7.4-12.8,6.86,6.86,0,0,0-.43-2.55h0c2.09,0,3.33,1.72,3.33,4.61a16.35,16.35,0,0,1-7.4,12.8L115.09,115a6.29,6.29,0,0,1-3,.94h0a2.85,2.85,0,0,1-2.35-1.09,4,4,0,0,1-.55-1A6.19,6.19,0,0,0,112.17,112.91Z"/><polygon class="cls-2" points="159.32 84.55 165.84 80.62 169.07 82.49 162.55 86.41 159.32 84.55"/><polygon class="cls-2" points="124.76 105.33 128 107.2 121.48 111.12 118.25 109.25 124.76 105.33"/><path class="cls-2" d="M192.59,63.76a18,18,0,0,1-3.33,5.76l-3.13-1.81a18,18,0,0,0,3.43-5.7Z"/><path class="cls-2" d="M190.29,55.89l1.24-.6c1.17.66,1.83,2.14,1.83,4.24a13.07,13.07,0,0,1-.68,3.95l-3-1.75a13.4,13.4,0,0,0,.78-4.26A8.48,8.48,0,0,0,190.29,55.89Z"/><path class="cls-2" d="M185.88,68,189,69.8A13.08,13.08,0,0,1,186,72.33l-2.87,1.73-3.23-1.87L183,70.27A12.81,12.81,0,0,0,185.88,68Z"/><polygon class="cls-2" points="172.68 76.5 175.92 78.38 169.4 82.3 166.16 80.43 172.68 76.5"/><polygon class="cls-2" points="182.76 74.25 176.25 78.18 173.01 76.31 179.53 72.39 182.76 74.25"/><path class="cls-2" d="M114.61,115.22l-3.28-1.89a8.22,8.22,0,0,0,.84-.42l5.75-3.46,3.23,1.87L115.09,115Z"/><polygon class="cls-2" points="162.22 86.61 155.71 90.53 152.47 88.66 158.99 84.74 162.22 86.61"/><path class="cls-2" d="M112.08,115.91h0a2.85,2.85,0,0,1-2.35-1.09,4,4,0,0,1-.55-1,5.25,5.25,0,0,0,1.85-.39l3.29,1.9A5.52,5.52,0,0,1,112.08,115.91Z"/><polygon class="cls-2" points="141.69 98.97 135.17 102.89 131.94 101.02 138.45 97.1 141.69 98.97"/><polygon class="cls-2" points="134.84 103.08 128.33 107 125.09 105.14 131.61 101.22 134.84 103.08"/><polygon class="cls-2" points="155.38 90.73 148.86 94.65 145.63 92.78 152.15 88.86 155.38 90.73"/><polygon class="cls-2" points="148.53 94.85 142.02 98.77 138.78 96.9 145.3 92.98 148.53 94.85"/><path class="cls-2" d="M111.13,111.11,182,68.5a14.3,14.3,0,0,0,6.39-11,4.62,4.62,0,0,0-.31-1.85l.19-.09c.66.39.78,1.62.78,2.4a14.32,14.32,0,0,1-6.4,11l-70.84,42.61a4,4,0,0,1-2,.66.83.83,0,0,1-.62-.19,2.44,2.44,0,0,1,0-.27A4,4,0,0,0,111.13,111.11Z"/><polygon class="cls-2" points="141.78 88.6 160.77 77.64 160.77 75.99 141.78 86.95 141.78 88.6"/><polygon class="cls-2" points="133.62 87.59 124.02 93.13 133.62 86.27 133.62 87.59"/><polygon class="cls-2" points="179.35 61.18 166.7 68.49 166.7 66.11 168.49 65.05 179.35 59.81 179.35 61.18"/><polygon class="cls-2" points="163.73 70.2 136.81 85.74 136.81 83.98 138.61 82.7 163.73 67.86 163.73 70.2"/><path class="cls-3" d="M109.18,113.85a6.77,6.77,0,0,1-.44-2.55c0-4.07,2.52-9,6-11.83L138.2,82.7l29.87-17.65,20.53-9.9a4.93,4.93,0,0,1,1.41-.23,6.86,6.86,0,0,1,.43,2.55,16.33,16.33,0,0,1-7.4,12.8l-70.87,42.64A6.19,6.19,0,0,1,109.18,113.85Z"/><polygon class="cls-2" points="138.26 85.87 167.94 102.61 167.94 106.15 135.82 88.07 138.26 85.87"/><polygon class="cls-2" points="155.67 75.42 187.22 94.13 167.94 102.61 138.26 85.87 155.67 75.42"/><path class="cls-2" d="M161.63,124.29l23.53-16.82,30-17.69,20.64-10c3.53-1.14,6.18,1,6.18,5.34A17.48,17.48,0,0,1,234,98.87l-70.88,42.64c-4.37,2.52-7.91.48-7.91-4.57C155.23,132.5,158,127.21,161.63,124.29Z"/><path class="cls-2" d="M156.71,139.49a6.69,6.69,0,0,1-.44-2.55c0-4.06,2.52-9,6-11.82l23.47-16.78L215.6,90.69l20.53-9.89a4.91,4.91,0,0,1,1.41-.24,6.9,6.9,0,0,1,.43,2.55,16.35,16.35,0,0,1-7.4,12.81L159.7,138.55A6.19,6.19,0,0,1,156.71,139.49Z"/><path class="cls-2" d="M147.93,116.51l23.52-16.82,30-17.69,20.64-10a4.58,4.58,0,0,1,4.11.38l13.45,7.63a4.7,4.7,0,0,0-3.86-.23l-20.64,10-30,17.69-23.53,16.82c-3.65,2.92-6.4,8.21-6.4,12.65,0,2.52.88,4.29,2.31,5.12l-13.69-7.77c-1.43-.83-2.32-2.6-2.32-5.12C141.53,124.72,144.28,119.43,147.93,116.51Z"/><polygon class="cls-2" points="188.29 89.75 194.87 85.87 208.45 93.71 201.87 97.6 188.29 89.75"/><polygon class="cls-2" points="202.18 81.63 209.43 78.14 223 85.98 215.75 89.47 202.18 81.63"/><polygon class="cls-2" points="209.8 77.96 217.05 74.47 230.62 82.3 223.37 85.8 209.8 77.96"/><polygon class="cls-2" points="171.46 99.7 174.14 98.11 187.72 105.96 185.16 107.47 181.53 110.07 167.94 102.22 171.46 99.7"/><polygon class="cls-2" points="181.38 93.84 187.96 89.95 201.54 97.8 194.96 101.68 181.38 93.84"/><polygon class="cls-2" points="201.41 82 201.81 81.81 215.39 89.65 215.11 89.78 208.78 93.52 195.2 85.68 201.41 82"/><path class="cls-2" d="M222.05,72.06a4.61,4.61,0,0,1,4.11.37l13.45,7.63a4.7,4.7,0,0,0-3.86-.23L231,82.13l-13.58-7.84Z"/><path class="cls-2" d="M141.53,129.17a11,11,0,0,1,.12-1.6l13.68,7.9a12.4,12.4,0,0,0-.1,1.48c0,2.52.88,4.29,2.31,5.12l-13.69-7.78C142.42,133.47,141.53,131.69,141.53,129.17Z"/><path class="cls-2" d="M157.84,128.67,144.2,120.8a17,17,0,0,1,3.73-4.28l1-.7,13.59,7.85-.86.62A17.17,17.17,0,0,0,157.84,128.67Z"/><polygon class="cls-2" points="174.47 97.92 181.05 94.03 194.63 101.88 188.06 105.76 174.47 97.92"/><polygon class="cls-2" points="149.2 115.61 155.14 111.36 168.74 119.21 162.79 123.46 149.2 115.61"/><path class="cls-2" d="M141.68,127.32a17.5,17.5,0,0,1,2.39-6.3l13.64,7.87a17.69,17.69,0,0,0-2.35,6.33Z"/><polygon class="cls-2" points="155.44 111.14 161.39 106.89 174.99 114.75 169.04 119 155.44 111.14"/><polygon class="cls-2" points="161.69 106.68 167.63 102.43 181.23 110.28 175.28 114.53 161.69 106.68"/><path class="cls-2" d="M158,131.94c0,1.8,1.26,2.53,2.83,1.63a6.26,6.26,0,0,0,2.82-4.89c0-1.8-1.27-2.53-2.82-1.63A6.22,6.22,0,0,0,158,131.94Z"/><path class="cls-2" d="M159.35,132.15c0,1.44,1,2,2.25,1.3a5,5,0,0,0,2.26-3.9c0-1.44-1-2-2.26-1.3A5,5,0,0,0,159.35,132.15Z"/><path class="cls-2" d="M228.51,89.71c0,1.81,1.27,2.54,2.82,1.64a6.22,6.22,0,0,0,2.83-4.89c0-1.8-1.26-2.53-2.83-1.63A6.24,6.24,0,0,0,228.51,89.71Z"/><path class="cls-2" d="M229.89,89.93c0,1.43,1,2,2.25,1.3a5,5,0,0,0,2.25-3.9c0-1.44-1-2-2.25-1.3A4.94,4.94,0,0,0,229.89,89.93Z"/><path class="cls-2" d="M159.69,138.55l70.88-42.63A16.35,16.35,0,0,0,238,83.11a6.69,6.69,0,0,0-.44-2.55h0c2.09,0,3.34,1.73,3.34,4.61A16.37,16.37,0,0,1,233.49,98l-70.87,42.63a6.29,6.29,0,0,1-3,.94h0a2.85,2.85,0,0,1-2.35-1.09,3.66,3.66,0,0,1-.55-1A6.13,6.13,0,0,0,159.69,138.55Z"/><polygon class="cls-2" points="206.84 110.19 213.36 106.27 216.6 108.14 210.08 112.06 206.84 110.19"/><polygon class="cls-2" points="172.29 130.98 175.53 132.84 169.01 136.76 165.77 134.9 172.29 130.98"/><path class="cls-2" d="M240.12,89.4a18,18,0,0,1-3.33,5.76l-3.14-1.81a17.85,17.85,0,0,0,3.44-5.7Z"/><path class="cls-2" d="M237.82,81.54l1.24-.6c1.17.65,1.83,2.13,1.83,4.23a13,13,0,0,1-.68,4l-3-1.75a13.35,13.35,0,0,0,.78-4.26A8.37,8.37,0,0,0,237.82,81.54Z"/><path class="cls-2" d="M233.4,93.63l3.15,1.81A13.17,13.17,0,0,1,233.49,98l-2.87,1.72-3.24-1.87,3.19-1.91A12.82,12.82,0,0,0,233.4,93.63Z"/><polygon class="cls-2" points="220.21 102.15 223.45 104.02 216.93 107.94 213.69 106.07 220.21 102.15"/><polygon class="cls-2" points="230.29 99.9 223.77 103.82 220.54 101.95 227.06 98.03 230.29 99.9"/><path class="cls-2" d="M162.14,140.86,158.86,139c.28-.13.55-.27.83-.43l5.75-3.46,3.24,1.87-6.06,3.65Z"/><polygon class="cls-2" points="209.75 112.25 203.24 116.17 200 114.31 206.52 110.38 209.75 112.25"/><path class="cls-2" d="M159.61,141.55h0a2.85,2.85,0,0,1-2.35-1.09,3.66,3.66,0,0,1-.55-1,5.25,5.25,0,0,0,1.85-.39l3.29,1.9A5.52,5.52,0,0,1,159.61,141.55Z"/><polygon class="cls-2" points="189.22 124.61 182.7 128.53 179.46 126.66 185.98 122.74 189.22 124.61"/><polygon class="cls-2" points="182.37 128.72 175.85 132.64 172.62 130.78 179.14 126.86 182.37 128.72"/><polygon class="cls-2" points="202.91 116.37 196.39 120.29 193.16 118.42 199.67 114.5 202.91 116.37"/><polygon class="cls-2" points="196.06 120.49 189.54 124.41 186.31 122.54 192.83 118.62 196.06 120.49"/><path class="cls-2" d="M158.66,136.75l70.83-42.61a14.28,14.28,0,0,0,6.4-11,4.83,4.83,0,0,0-.31-1.85l.18-.09c.67.4.79,1.62.79,2.41a14.3,14.3,0,0,1-6.4,11l-70.84,42.61a4.08,4.08,0,0,1-2,.67.83.83,0,0,1-.62-.2c0-.09,0-.18,0-.26A4.21,4.21,0,0,0,158.66,136.75Z"/><polygon class="cls-2" points="189.3 114.24 208.3 103.28 208.3 101.63 189.3 112.6 189.3 114.24"/><polygon class="cls-2" points="181.14 113.23 171.55 118.77 181.14 111.91 181.14 113.23"/><polygon class="cls-2" points="226.88 86.83 214.23 94.13 214.23 91.75 216.02 90.69 226.88 85.46 226.88 86.83"/><polygon class="cls-2" points="211.25 95.85 184.34 111.38 184.34 109.63 186.14 108.34 211.25 93.51 211.25 95.85"/><path class="cls-3" d="M156.71,139.49a6.69,6.69,0,0,1-.44-2.55c0-4.06,2.52-9,6-11.82l23.47-16.78L215.6,90.69l20.53-9.89a4.91,4.91,0,0,1,1.41-.24,6.9,6.9,0,0,1,.43,2.55,16.35,16.35,0,0,1-7.4,12.81L159.7,138.55A6.19,6.19,0,0,1,156.71,139.49Z"/><polygon class="cls-2" points="117.67 37.34 132.86 38.85 135.03 39.24 202.76 0.14 254.64 30.09 258.41 41.94 258.41 58.81 257.4 59.34 256.28 58.29 186.73 98.44 153.49 79.28 135.63 89.06 117.77 78.68 117.77 72.61 110.91 68.62 117.67 37.34"/><polygon class="cls-2" points="186.73 98.44 195.61 93.34 193.77 90.97 186.62 93.77 186.73 98.44"/><polygon class="cls-2" points="258.41 58.81 257.4 59.34 256.28 58.29 199.67 90.97 201.28 61.01 254.64 30.09 258.41 41.94 258.41 58.81"/><polygon class="cls-2" points="258.41 49.99 200.07 83.67 200.49 75.84 258.41 42.4 258.41 49.99"/><polygon class="cls-2" points="152.49 72.43 166.71 64.36 200.07 83.67 254.4 52.3 254.4 59.23 196.67 92.56 186.62 92.56 152.49 72.43"/><polygon class="cls-2" points="153.49 79.28 152.49 72.43 186.62 92.56 196.67 92.56 254.4 59.37 254.4 60.43 196.67 93.77 186.62 93.77 186.73 98.44 153.49 79.28"/><polygon class="cls-2" points="186.62 92.56 186.62 93.77 186.73 98.44 153.49 79.28 152.49 72.43 186.62 92.56"/><polygon class="cls-2" points="167.16 41.84 201.28 61.01 200.07 83.67 166.71 64.36 167.16 41.84"/><polygon class="cls-2" points="128.61 79.31 137.45 43.55 148.51 38.12 158.12 47.3 167.16 41.84 166.71 64.36 152.49 72.43 153.49 79.28 135.63 89.06 135.66 83.67 128.61 79.31"/><polygon class="cls-2" points="117.77 78.68 135.63 89.06 135.66 83.67 117.77 72.61 117.77 78.68"/><polygon class="cls-2" points="110.91 68.62 128.61 79.31 137.45 43.55 117.67 37.34 110.91 68.62"/><polygon class="cls-2" points="136.21 44.25 118.45 38.67 112.09 68.11 127.94 77.69 136.21 44.25"/><polygon class="cls-2" points="139.79 43.52 148.29 39.34 157.95 48.58 139.79 66.57 139.79 43.52"/><polygon class="cls-2" points="138.26 44.47 138.26 68.08 130.53 75.74 138.26 44.47"/><polygon class="cls-2" points="201.07 32.38 177.73 45.87 177.73 45.13 201.07 31.64 224.2 45 224.2 45.74 201.07 32.38"/><polygon class="cls-2" points="227.08 17.08 203.75 30.57 203.75 29.84 227.08 16.35 250.22 29.7 250.22 30.44 227.08 17.08"/><polygon class="cls-2" points="191.23 49.36 196.79 52.57 203.97 48.42 203.97 47.81 196.79 51.96 191.23 48.76 191.23 49.36"/><polygon class="cls-2" points="222.29 45.74 217.91 48.28 217.54 48.06 221.92 45.53 222.29 45.74"/><polygon class="cls-2" points="221.5 45.28 217.11 47.81 216.74 47.6 221.13 45.07 221.5 45.28"/><polygon class="cls-2" points="220.7 44.82 216.31 47.35 215.94 47.14 220.33 44.61 220.7 44.82"/><polygon class="cls-2" points="219.9 44.36 215.52 46.89 215.15 46.68 219.53 44.15 219.9 44.36"/><polygon class="cls-2" points="219.1 43.9 214.72 46.43 214.35 46.22 218.73 43.69 219.1 43.9"/><polygon class="cls-2" points="218.3 43.44 213.92 45.97 213.55 45.75 217.94 43.22 218.3 43.44"/><polygon class="cls-2" points="217.51 42.98 213.13 45.51 212.75 45.29 217.14 42.76 217.51 42.98"/><polygon class="cls-2" points="216.71 42.51 212.33 45.05 211.96 44.83 216.34 42.3 216.71 42.51"/><polygon class="cls-2" points="215.91 42.05 211.53 44.58 211.16 44.37 215.54 41.84 215.91 42.05"/><polygon class="cls-2" points="215.11 41.59 210.73 44.12 210.36 43.91 214.75 41.37 215.11 41.59"/><polygon class="cls-2" points="214.32 41.13 209.93 43.66 209.56 43.45 213.95 40.91 214.32 41.13"/><polygon class="cls-2" points="213.52 40.66 209.14 43.2 208.77 42.98 213.15 40.45 213.52 40.66"/><polygon class="cls-2" points="212.72 40.2 208.34 42.73 207.97 42.52 212.35 39.99 212.72 40.2"/><polygon class="cls-2" points="211.93 39.74 207.54 42.27 207.17 42.06 211.56 39.53 211.93 39.74"/><polygon class="cls-2" points="211.13 39.28 206.74 41.81 206.37 41.6 210.76 39.07 211.13 39.28"/><polygon class="cls-2" points="210.33 38.82 205.95 41.35 205.58 41.13 209.96 38.6 210.33 38.82"/><polygon class="cls-2" points="209.53 38.35 205.15 40.89 204.78 40.67 209.16 38.14 209.53 38.35"/><polygon class="cls-2" points="208.73 37.89 204.35 40.42 203.98 40.21 208.36 37.68 208.73 37.89"/><polygon class="cls-2" points="207.94 37.43 203.56 39.96 203.19 39.75 207.57 37.22 207.94 37.43"/><polygon class="cls-2" points="207.14 36.97 202.75 39.5 202.39 39.29 206.77 36.76 207.14 36.97"/><polygon class="cls-2" points="206.34 36.51 201.96 39.04 201.59 38.83 205.97 36.29 206.34 36.51"/><polygon class="cls-2" points="205.54 36.05 201.16 38.58 200.79 38.37 205.17 35.83 205.54 36.05"/><polygon class="cls-2" points="204.75 35.58 200.36 38.12 200 37.9 204.38 35.37 204.75 35.58"/><polygon class="cls-2" points="203.95 35.12 199.56 37.65 199.2 37.44 203.58 34.91 203.95 35.12"/><polygon class="cls-2" points="203.15 34.66 198.77 37.19 198.4 36.98 202.78 34.45 203.15 34.66"/><polygon class="cls-2" points="202.35 34.2 197.97 36.73 197.6 36.52 201.99 33.98 202.35 34.2"/><polygon class="cls-2" points="233.47 39.06 229.09 41.59 228.72 41.38 233.1 38.85 233.47 39.06"/><polygon class="cls-2" points="232.67 38.6 228.29 41.13 227.92 40.92 232.31 38.39 232.67 38.6"/><polygon class="cls-2" points="231.88 38.14 227.49 40.67 227.12 40.45 231.51 37.92 231.88 38.14"/><polygon class="cls-2" points="231.08 37.68 226.69 40.21 226.32 39.99 230.71 37.46 231.08 37.68"/><polygon class="cls-2" points="230.28 37.21 225.9 39.74 225.53 39.53 229.91 37 230.28 37.21"/><polygon class="cls-2" points="229.48 36.75 225.1 39.28 224.73 39.07 229.11 36.54 229.48 36.75"/><polygon class="cls-2" points="228.69 36.29 224.3 38.82 223.93 38.61 228.32 36.08 228.69 36.29"/><polygon class="cls-2" points="227.89 35.83 223.51 38.36 223.13 38.15 227.52 35.61 227.89 35.83"/><polygon class="cls-2" points="227.09 35.37 222.71 37.9 222.34 37.68 226.72 35.15 227.09 35.37"/><polygon class="cls-2" points="226.29 34.9 221.91 37.44 221.54 37.22 225.92 34.69 226.29 34.9"/><polygon class="cls-2" points="225.5 34.44 221.11 36.97 220.74 36.76 225.13 34.23 225.5 34.44"/><polygon class="cls-2" points="224.7 33.98 220.31 36.51 219.94 36.3 224.33 33.77 224.7 33.98"/><polygon class="cls-2" points="223.9 33.52 219.52 36.05 219.15 35.84 223.53 33.3 223.9 33.52"/><polygon class="cls-2" points="223.1 33.06 218.72 35.59 218.35 35.37 222.73 32.84 223.1 33.06"/><polygon class="cls-2" points="222.31 32.6 217.92 35.13 217.55 34.91 221.94 32.38 222.31 32.6"/><polygon class="cls-2" points="221.51 32.13 217.12 34.66 216.75 34.45 221.14 31.92 221.51 32.13"/><polygon class="cls-2" points="220.71 31.67 216.33 34.2 215.96 33.99 220.34 31.46 220.71 31.67"/><polygon class="cls-2" points="219.91 31.21 215.53 33.74 215.16 33.53 219.54 31 219.91 31.21"/><polygon class="cls-2" points="219.11 30.75 214.73 33.28 214.36 33.06 218.75 30.53 219.11 30.75"/><polygon class="cls-2" points="218.32 30.28 213.93 32.81 213.56 32.6 217.95 30.07 218.32 30.28"/><polygon class="cls-2" points="217.52 29.82 213.14 32.35 212.77 32.14 217.15 29.61 217.52 29.82"/><polygon class="cls-2" points="216.72 29.36 212.34 31.89 211.97 31.68 216.35 29.15 216.72 29.36"/><polygon class="cls-2" points="240.31 34.81 235.93 37.34 235.56 37.13 239.94 34.59 240.31 34.81"/><polygon class="cls-2" points="239.51 34.35 235.13 36.88 234.76 36.66 239.14 34.13 239.51 34.35"/><polygon class="cls-2" points="238.72 33.88 234.33 36.41 233.96 36.2 238.34 33.67 238.72 33.88"/><polygon class="cls-2" points="237.92 33.42 233.53 35.95 233.16 35.74 237.55 33.21 237.92 33.42"/><polygon class="cls-2" points="237.12 32.96 232.74 35.49 232.37 35.28 236.75 32.75 237.12 32.96"/><polygon class="cls-2" points="236.32 32.5 231.94 35.03 231.57 34.81 235.95 32.28 236.32 32.5"/><polygon class="cls-2" points="235.53 32.03 231.14 34.57 230.77 34.35 235.16 31.82 235.53 32.03"/><polygon class="cls-2" points="234.73 31.57 230.34 34.1 229.97 33.89 234.36 31.36 234.73 31.57"/><polygon class="cls-2" points="233.93 31.11 229.54 33.64 229.18 33.43 233.56 30.9 233.93 31.11"/><polygon class="cls-2" points="233.13 30.65 228.75 33.18 228.38 32.97 232.76 30.44 233.13 30.65"/><polygon class="cls-2" points="232.34 30.19 227.95 32.72 227.58 32.51 231.96 29.97 232.34 30.19"/><polygon class="cls-2" points="231.54 29.73 227.15 32.26 226.78 32.05 231.17 29.51 231.54 29.73"/><polygon class="cls-2" points="230.74 29.26 226.36 31.8 225.99 31.58 230.37 29.05 230.74 29.26"/><polygon class="cls-2" points="229.94 28.8 225.56 31.33 225.19 31.12 229.57 28.59 229.94 28.8"/><polygon class="cls-2" points="229.15 28.34 224.76 30.87 224.39 30.66 228.78 28.13 229.15 28.34"/><polygon class="cls-2" points="228.35 27.88 223.96 30.41 223.59 30.2 227.98 27.66 228.35 27.88"/><polygon class="cls-2" points="247.83 30.41 243.44 32.94 243.07 32.73 247.46 30.2 247.83 30.41"/><polygon class="cls-2" points="247.03 29.95 242.65 32.48 242.28 32.27 246.66 29.74 247.03 29.95"/><polygon class="cls-2" points="246.23 29.49 241.85 32.02 241.48 31.8 245.87 29.27 246.23 29.49"/><polygon class="cls-2" points="245.44 29.02 241.05 31.56 240.68 31.34 245.07 28.81 245.44 29.02"/><polygon class="cls-2" points="244.64 28.56 240.26 31.09 239.88 30.88 244.27 28.35 244.64 28.56"/><polygon class="cls-2" points="243.84 28.1 239.46 30.63 239.09 30.42 243.47 27.89 243.84 28.1"/><polygon class="cls-2" points="243.04 27.64 238.66 30.17 238.29 29.96 242.67 27.43 243.04 27.64"/><polygon class="cls-2" points="242.25 27.18 237.86 29.71 237.49 29.5 241.88 26.96 242.25 27.18"/><path class="cls-2" d="M217.27,21.42a1.42,1.42,0,0,1,1.3,0,.44.44,0,0,1,.27.37V27a.45.45,0,0,1-.27.37,1.42,1.42,0,0,1-1.3,0A.46.46,0,0,1,217,27V21.79A.45.45,0,0,1,217.27,21.42Z"/><path class="cls-2" d="M217.27,21.42a.39.39,0,0,0,0,.74,1.42,1.42,0,0,0,1.3,0,.39.39,0,0,0,0-.74A1.42,1.42,0,0,0,217.27,21.42Z"/><path class="cls-2" d="M234.27,23.31a4,4,0,0,1,3.68,0,1.28,1.28,0,0,1,.76,1.06v1.31a1.28,1.28,0,0,1-.76,1.06,4,4,0,0,1-3.68,0,1.3,1.3,0,0,1-.77-1.06V24.37A1.3,1.3,0,0,1,234.27,23.31Z"/><path class="cls-2" d="M234.27,23.31a1.12,1.12,0,0,0,0,2.13,4.11,4.11,0,0,0,3.68,0,1.12,1.12,0,0,0,0-2.13A4,4,0,0,0,234.27,23.31Z"/><polygon class="cls-2" points="172.61 44.89 226.54 13.78 226.79 13.93 172.87 45.04 172.61 44.89"/><polygon class="cls-2" points="203.84 72.89 204.14 73.1 204.14 61.05 226.46 48.17 226.15 47.97 203.84 60.85 203.84 72.89"/><polygon class="cls-2" points="204.14 61.05 204.14 73.1 203.84 72.89 203.84 60.85 204.14 61.05"/><polygon class="cls-2" points="228.69 58.45 228.99 58.65 228.99 46.6 251.3 33.72 251 33.51 228.69 46.4 228.69 58.45"/><polygon class="cls-2" points="228.99 46.6 228.99 58.65 228.69 58.45 228.69 46.4 228.99 46.6"/><polygon class="cls-2" points="224.71 56.32 226.29 55.41 226.29 53.35 224.71 54.27 224.71 56.32"/><polygon class="cls-2" points="230.16 52.97 231.74 52.06 231.74 50 230.16 50.91 230.16 52.97"/><path class="cls-2" d="M136.13,47.74l1.71-.54,12.37,33.7a1.84,1.84,0,0,1-.84,2.2c-1.33.62-2-.35-2.37-1.68s-12.15-33-12.15-33Z"/><path class="cls-2" d="M134.8,48.28a1.45,1.45,0,0,0,1.91.55c.84-.29,1.35-1,1.13-1.63a1.45,1.45,0,0,0-1.91-.55C135.09,47,134.58,47.68,134.8,48.28Z"/><path class="cls-2" d="M135.49,48a.79.79,0,0,0,1,.29c.46-.16.73-.55.62-.88L132.53,35l-1.59.72Z"/><path class="cls-2" d="M51.73,61.06,54,62.75l7.11,1L159.5,35.69a3.23,3.23,0,0,0,2.16-2.08c.38-1.58-1.41-3-1.41-3l-5.14-5.9-7.94-4.58L109.05,30.51l-54.71,24L48,54.36Z"/><polygon class="cls-2" points="116.89 35.79 155.11 24.71 147.17 20.13 109.05 30.51 116.89 35.79"/><path class="cls-2" d="M126.17,23.75a2.58,2.58,0,0,1,1.12-1.64c.45-.26.84-.19,1,.13l2.4,3.51L125,27.51Z"/><path class="cls-2" d="M125.21,23.22a2.6,2.6,0,0,1,1.12-1.65.89.89,0,0,1,.72-.12l1,.56h0a.82.82,0,0,0-.78.1,2.58,2.58,0,0,0-1.12,1.64L125,27.51l-1-.53Z"/><path class="cls-2" d="M130.1,23.56l-1.93-1.08a.58.58,0,0,0-.6.06,1.89,1.89,0,0,0-.86,1.48.59.59,0,0,0,.26.55l1.92,1.08a.58.58,0,0,0,.6-.06,1.89,1.89,0,0,0,.86-1.47A.62.62,0,0,0,130.1,23.56Z"/><path class="cls-2" d="M73.91,34.61l54.91-11.32s2.35-.71,2.63,1.48-2.7,2.15-2.7,2.15L74.32,38.52l-.57-2.1Z"/><path class="cls-2" d="M73,36.66c.09,1.08.68,1.91,1.32,1.86s1.08-1,1-2.06-.69-1.91-1.33-1.85S72.9,35.58,73,36.66Z"/><path class="cls-2" d="M74.25,37.64c.35,0,.59-.54.54-1.13s-.38-1.06-.73-1L46,40.89l1.64,1.64Z"/><path class="cls-2" d="M116.88,35.79l38.23-11.08,5.14,5.9s1.79,1.42,1.41,3a3.23,3.23,0,0,1-2.16,2.08L61.15,63.78l.37-4.28Z"/><polygon class="cls-2" points="51.73 61.06 50.36 58.62 51.27 55.17 58.95 60.14 58.58 60.69 53.77 62.55 51.73 61.06"/><path class="cls-2" d="M132.91,25,131,23.94a.58.58,0,0,0-.6.06,1.88,1.88,0,0,0-.85,1.48.61.61,0,0,0,.25.55l1.93,1.08a.58.58,0,0,0,.6-.06,1.88,1.88,0,0,0,.85-1.48A.59.59,0,0,0,132.91,25Z"/><path class="cls-2" d="M132.29,27a2.6,2.6,0,0,1,1.12-1.65c.45-.26.84-.19,1,.14L136.85,29l-5.71,1.76Z"/><path class="cls-2" d="M131.34,26.46a2.58,2.58,0,0,1,1.12-1.64.89.89,0,0,1,.71-.13l1,.57h0a.86.86,0,0,0-.79.09A2.6,2.6,0,0,0,132.29,27l-1.15,3.76-1-.54Z"/><path class="cls-2" d="M1.06,156.51c2.86-7,13.5-19.39,13.5-19.39l14.58,7.95,4.61-.12,2.06-2.43,3.58-.54.54.32,19.55,11.22-3.25,3.94-.82.26-7.69,7.94-1,.25s-7.42,8-13.31,12a11.63,11.63,0,0,1-11.25,1.3L2.79,168.1A10.82,10.82,0,0,1,1.06,156.51Z"/><path class="cls-2" d="M1.06,156.51a32.5,32.5,0,0,1,2.51-4.72l20.2,11.34c-2.46,3.73-6,11.52-1.85,15.84l.13.14-19.26-11A10.82,10.82,0,0,1,1.06,156.51Z"/><polygon class="cls-2" points="46.73 165.91 45.15 161.18 46.01 160.98 47.72 165.66 46.73 165.91"/><path class="cls-2" d="M24.24,162.45c1.2-1.66,5.19-6.33,5.19-6.33l.74.1,5.45-6.79,11.49,7.82,8.57-.4,2.9-3.85.9.52-3.25,3.94-.82.26-7.69,7.94L46,161l-.86.2,1.58,4.73s-7.42,8-13.31,12a11.63,11.63,0,0,1-11.25,1.3l-.12-.07-.13-.14C17.53,174.37,21.8,165.83,24.24,162.45Z"/><polygon class="cls-2" points="33.75 144.94 35.2 145.71 30.32 146 29.14 145.07 33.75 144.94"/><polygon class="cls-2" points="33.58 147.93 30.32 146 35.2 145.71 33.58 147.93"/><path class="cls-2" d="M33.19,155.22A11.07,11.07,0,0,1,39,156c2.9,1.26,7,5,7,5l-.81.19s-3.57-3.15-4.91-4A10.12,10.12,0,0,0,33.19,155.22Z"/><polygon class="cls-2" points="56.51 151.57 59.36 149.31 61.59 150.53 61.62 150.96 59.48 153.52 58.94 153.21 55.81 156.9 55.68 156.84 55.38 156.67 56.19 154.75 55.49 154.36 53.85 155.78 53.77 155.74 53.48 155.57 56.51 151.57"/><polygon class="cls-2" points="53.48 155.57 56.51 151.57 59.36 149.31 61.59 150.53 58.74 152.79 55.68 156.84 55.38 156.67 56.19 154.75 55.33 154.27 53.77 155.74 53.48 155.57"/><polygon class="cls-2" points="56.51 151.57 58.74 152.79 55.68 156.84 55.38 156.67 56.19 154.75 55.33 154.27 53.77 155.74 53.48 155.57 56.51 151.57"/><polygon class="cls-2" points="51.62 148.77 54.47 146.5 56.7 147.72 56.74 148.16 54.59 150.72 54.05 150.4 50.92 154.09 50.79 154.04 50.49 153.87 51.3 151.94 50.6 151.55 48.97 152.98 48.88 152.94 48.59 152.77 51.62 148.77"/><polygon class="cls-2" points="48.59 152.77 51.62 148.77 54.47 146.5 56.7 147.72 53.85 149.98 50.79 154.04 50.49 153.87 51.3 151.94 50.45 151.47 48.88 152.94 48.59 152.77"/><polygon class="cls-2" points="51.62 148.77 53.85 149.98 50.79 154.04 50.49 153.87 51.3 151.94 50.45 151.47 48.88 152.94 48.59 152.77 51.62 148.77"/><polygon class="cls-2" points="46.73 145.96 49.58 143.7 51.81 144.91 51.85 145.35 49.71 147.91 49.16 147.59 46.03 151.28 45.91 151.23 45.6 151.06 46.41 149.13 45.72 148.75 44.08 150.17 44 150.13 43.7 149.96 46.73 145.96"/><polygon class="cls-2" points="43.7 149.96 46.73 145.96 49.58 143.7 51.81 144.91 48.97 147.17 45.91 151.23 45.6 151.06 46.41 149.13 45.56 148.66 44 150.13 43.7 149.96"/><polygon class="cls-2" points="46.73 145.96 48.97 147.17 45.91 151.23 45.6 151.06 46.41 149.13 45.56 148.66 44 150.13 43.7 149.96 46.73 145.96"/><polygon class="cls-2" points="41.85 143.15 44.7 140.89 46.93 142.1 46.96 142.54 44.82 145.1 44.27 144.78 41.14 148.48 41.01 148.43 40.72 148.25 41.53 146.33 40.83 145.94 39.19 147.36 39.11 147.33 38.81 147.16 41.85 143.15"/><polygon class="cls-2" points="38.81 147.16 41.85 143.15 44.7 140.89 46.93 142.1 44.08 144.37 41.01 148.43 40.72 148.25 41.53 146.33 40.67 145.85 39.11 147.33 38.81 147.16"/><polygon class="cls-2" points="41.85 143.15 44.08 144.37 41.01 148.43 40.72 148.25 41.53 146.33 40.67 145.85 39.11 147.33 38.81 147.16 41.85 143.15"/><polygon class="cls-2" points="36.96 140.35 39.81 138.09 42.04 139.3 42.07 139.74 39.93 142.3 39.39 141.98 36.26 145.67 36.13 145.62 35.83 145.45 36.64 143.52 35.94 143.13 34.3 144.56 34.22 144.52 33.92 144.35 36.96 140.35"/><polygon class="cls-2" points="33.92 144.35 36.96 140.35 39.81 138.09 42.04 139.3 39.19 141.56 36.13 145.62 35.83 145.45 36.64 143.52 35.79 143.05 34.22 144.52 33.92 144.35"/><polygon class="cls-2" points="36.96 140.35 39.19 141.56 36.13 145.62 35.83 145.45 36.64 143.52 35.79 143.05 34.22 144.52 33.92 144.35 36.96 140.35"/><path class="cls-2" d="M19.68,136.83a4,4,0,0,1,1-.86c1.26-.72,2.27-.14,2.27,1.31a5.07,5.07,0,0,1-1.38,3.21L12,152.37s-4.63,6-5.31,10.31c0,0-1.16-7.19,1.89-12S19.68,136.83,19.68,136.83Z"/><path class="cls-2" d="M7.23,150.08c3-4.86,11.15-13.81,11.15-13.81a3.89,3.89,0,0,1,1-.86,1.72,1.72,0,0,1,1.48-.22l1.32.56h0a1.69,1.69,0,0,0-1.5.21,4,4,0,0,0-1,.86s-8.1,8.95-11.15,13.81-1.89,12-1.89,12l-1.3-.55S4.18,154.93,7.23,150.08Z"/><polygon class="cls-2" points="13.68 145.09 18.69 152.74 17.32 154.47 11.55 146.03 13.68 145.09"/><polygon class="cls-2" points="11.55 146.03 17.32 154.47 15.45 153.28 10.19 145.56 11.55 146.03"/><polygon class="cls-2" points="5.18 139.83 10.62 148.03 9.25 149.76 3.05 140.77 5.18 139.83"/><polygon class="cls-2" points="3.05 140.77 9.18 149.65 7.82 149.17 1.68 140.3 3.05 140.77"/><path class="cls-2" d="M24.17,128.14l-1.67-.94a1,1,0,0,0-1,.1A3.23,3.23,0,0,0,20,129.84a1,1,0,0,0,.43.95l1.66,1a1.08,1.08,0,0,0,1-.11,3.26,3.26,0,0,0,1.47-2.54A1.05,1.05,0,0,0,24.17,128.14Z"/><path class="cls-2" d="M24.61,129.1a3.26,3.26,0,0,1-1.47,2.54,1.08,1.08,0,0,1-1,.11,1.07,1.07,0,0,1-.43-1,3.26,3.26,0,0,1,1.47-2.54,1,1,0,0,1,1-.11A1.05,1.05,0,0,1,24.61,129.1Z"/><path class="cls-2" d="M14.1,127.72c4.39-1.77,7.38-.33,8.19.15a3.26,3.26,0,0,0-1.38,2.41c-.88-.5-3.54-1.6-7.46.13-4.87,2.14-8.76,9-8.76,9l-1.17-1.79S8.45,130,14.1,127.72Z"/><path class="cls-2" d="M13,127.36a9.61,9.61,0,0,1,7.42-.23,10.06,10.06,0,0,0-6.35.59C8.45,130,3.52,137.58,3.52,137.58l-1.07-.36S7.38,129.63,13,127.36Z"/><path class="cls-2" d="M4.64,138.14,3,137.19a1,1,0,0,0-1,.1,3.26,3.26,0,0,0-1.47,2.55,1,1,0,0,0,.43.95l1.67,1a1,1,0,0,0,1-.11,3.23,3.23,0,0,0,1.47-2.54A1,1,0,0,0,4.64,138.14Z"/><path class="cls-2" d="M5.07,139.09a3.23,3.23,0,0,1-1.47,2.54,1,1,0,0,1-1,.11,1,1,0,0,1-.43-1,3.25,3.25,0,0,1,1.46-2.55,1.05,1.05,0,0,1,1-.1A1,1,0,0,1,5.07,139.09Z"/><path class="cls-2" d="M47.23,45.9l-2.58-1.3-4.9,6.24L19.69,139s-.26.9.32,1.16S26.44,144,26.44,144l1,.3L46.85,54.39Z"/><path class="cls-2" d="M41.84,43.92,42,41.43a2.5,2.5,0,0,1,1.13-2,.79.79,0,0,1,.8-.08.8.8,0,0,1,.33.73l.39,4.47-4.89,6.33-2.14-1.3,0-1.11Z"/><polygon class="cls-2" points="37.59 48.52 37.62 49.63 36.21 48.79 36.21 48 37.59 48.52"/><polygon class="cls-2" points="40.45 43.36 41.84 43.92 37.59 48.52 36.21 48 40.45 43.36"/><path class="cls-2" d="M48.84,42.3l-4.9-2.79a.79.79,0,0,0-.76.07,2.4,2.4,0,0,0-1.07,1.86.74.74,0,0,0,.32.69l4.9,2.79a.76.76,0,0,0,.76-.07A2.37,2.37,0,0,0,49.16,43,.74.74,0,0,0,48.84,42.3Z"/><path class="cls-2" d="M11.75,142.9l-7.31-4.27a.77.77,0,0,0-.76.08,2.36,2.36,0,0,0-1.07,1.85.77.77,0,0,0,.32.7l7.31,4.27a.77.77,0,0,0,.76-.08,2.36,2.36,0,0,0,1.07-1.85A.77.77,0,0,0,11.75,142.9Z"/><path class="cls-2" d="M28.54,141.56a4.19,4.19,0,0,1,1-.85c1.26-.72,2.27-.14,2.27,1.31a5.07,5.07,0,0,1-1.38,3.21l-9.62,11.88s-4.63,6-5.31,10.31c0,0-1.16-7.19,1.88-12S28.54,141.56,28.54,141.56Z"/><path class="cls-2" d="M16.08,154.82C19.13,150,27.23,141,27.23,141a4.1,4.1,0,0,1,1-.86,1.65,1.65,0,0,1,1.48-.22l1.31.56h0a1.66,1.66,0,0,0-1.5.21,4.19,4.19,0,0,0-1,.85s-8.1,9-11.16,13.82-1.88,12-1.88,12l-1.3-.56S13,159.67,16.08,154.82Z"/><path class="cls-2" d="M30.45,142.4l-.43-.26a.71.71,0,0,0-.68.07,2.14,2.14,0,0,0-.95,1.66.66.66,0,0,0,.28.61l.43.26a.67.67,0,0,0,.67-.07,2.09,2.09,0,0,0,1-1.65A.67.67,0,0,0,30.45,142.4Z"/><path class="cls-2" d="M30.73,143a2.09,2.09,0,0,1-1,1.65.58.58,0,0,1-.95-.55,2.11,2.11,0,0,1,.95-1.65.69.69,0,0,1,.68-.07A.67.67,0,0,1,30.73,143Z"/><path class="cls-2" d="M20.55,154.58l-.43-.26a.67.67,0,0,0-.67.07,2.13,2.13,0,0,0-1,1.66.67.67,0,0,0,.29.62l.43.25a.64.64,0,0,0,.67-.07,2.09,2.09,0,0,0,1-1.65A.66.66,0,0,0,20.55,154.58Z"/><path class="cls-2" d="M20.84,155.2a2.09,2.09,0,0,1-1,1.65.64.64,0,0,1-.67.07.65.65,0,0,1-.28-.62,2.08,2.08,0,0,1,.95-1.65.67.67,0,0,1,.67-.07A.66.66,0,0,1,20.84,155.2Z"/><path class="cls-2" d="M40.63,40.65a2.48,2.48,0,0,1,1.13-1.95.8.8,0,0,1,.79-.09l1.38.79a.79.79,0,0,0-.8.08,2.5,2.5,0,0,0-1.13,2l-.16,2.49-1.39-.56Z"/><path class="cls-2" d="M46.86,44.18a2.49,2.49,0,0,1,1.12-2,.79.79,0,0,1,.8-.08l1.31.75a.79.79,0,0,0-.74.1,2.5,2.5,0,0,0-1.13,2L48,48.16l-1.36-.77Z"/><path class="cls-2" d="M33.22,133.3l-1.67-1a1,1,0,0,0-1,.1A3.26,3.26,0,0,0,29.05,135a1,1,0,0,0,.44.95l1.66,1a1.06,1.06,0,0,0,1-.11,3.22,3.22,0,0,0,1.46-2.54A1,1,0,0,0,33.22,133.3Z"/><path class="cls-2" d="M33.65,134.25a3.22,3.22,0,0,1-1.46,2.54,1.06,1.06,0,0,1-1,.11,1,1,0,0,1-.43-1,3.23,3.23,0,0,1,1.47-2.54.89.89,0,0,1,1.46.84Z"/><path class="cls-2" d="M23.15,132.87c4.39-1.77,7.38-.33,8.19.15A3.31,3.31,0,0,0,30,135.43c-.88-.49-3.54-1.59-7.46.14-4.87,2.14-8.76,9-8.76,9l-1.17-1.78S17.5,135.14,23.15,132.87Z"/><path class="cls-2" d="M22.08,132.51a9.6,9.6,0,0,1,7.42-.22,10,10,0,0,0-6.35.58c-5.65,2.27-10.58,9.87-10.58,9.87l-1.07-.36S16.43,134.79,22.08,132.51Z"/><path class="cls-2" d="M13.69,143.29,12,142.34a1,1,0,0,0-1,.11A3.21,3.21,0,0,0,9.52,145a1,1,0,0,0,.43.95l1.67,1a1,1,0,0,0,1-.11,3.26,3.26,0,0,0,1.47-2.54A1.07,1.07,0,0,0,13.69,143.29Z"/><path class="cls-2" d="M14.12,144.25a3.26,3.26,0,0,1-1.47,2.54,1,1,0,0,1-1,.11,1,1,0,0,1-.43-1,3.25,3.25,0,0,1,1.46-2.54,1.06,1.06,0,0,1,1-.11A1.07,1.07,0,0,1,14.12,144.25Z"/><path class="cls-2" d="M42.19,49.35l-2.61-1.5a.57.57,0,0,0-.57,0,1.81,1.81,0,0,0-.8,1.4.58.58,0,0,0,.24.53l2.61,1.5a.58.58,0,0,0,.57-.06,1.77,1.77,0,0,0,.8-1.39A.58.58,0,0,0,42.19,49.35Z"/><polygon class="cls-2" points="23.78 93.78 25.23 94.44 8.32 141.15 6.87 140.49 23.78 93.78"/><path class="cls-2" d="M41.14,54,26,94.93a2.94,2.94,0,0,1-3-1.1L38,52.62s.81-2.78,1.17-3.62c.45-1,3.12-.89,2.94.5a18.26,18.26,0,0,1-1,3.44Z"/><path class="cls-2" d="M39.47,52.85s.29-3.92,2.4-4.09a.83.83,0,0,1,.25.74,18.26,18.26,0,0,1-1,3.44Z"/><path class="cls-2" d="M44.55,50.67l-2.62-1.51a.56.56,0,0,0-.56.06,1.78,1.78,0,0,0-.81,1.4.55.55,0,0,0,.24.52l2.61,1.51a.58.58,0,0,0,.57-.06,1.8,1.8,0,0,0,.81-1.4A.58.58,0,0,0,44.55,50.67Z"/><polygon class="cls-2" points="158.56 73.45 171.95 81.53 174.73 73.09 165.71 69.31 158.56 73.45"/><polygon class="cls-2" points="174.21 68.44 175.84 69.05 172.84 73.8 171.55 71.94 174.21 68.44"/><path class="cls-2" d="M164.13,58.55a3.91,3.91,0,0,1,3.92-.4c1,.58,1.64,1.83,1.64,3.61V67l-11.13,6.45V68.19A12.31,12.31,0,0,1,164.13,58.55Z"/><path class="cls-2" d="M161.6,57.19a4.29,4.29,0,0,1,3.46-.61L167.83,58h0a4,4,0,0,0-3.7.5,12.31,12.31,0,0,0-5.57,9.64v5.26L156,72V66.83A12.3,12.3,0,0,1,161.6,57.19Z"/><path class="cls-2" d="M179.94,68.17a3.39,3.39,0,0,1,5.56,3.21v5.24l-11.13,6.27V77.81A12.27,12.27,0,0,1,179.94,68.17Z"/><path class="cls-2" d="M158.55,34.17c0,.57.4.8.9.52a2,2,0,0,0,.9-1.56c0-.57-.4-.8-.9-.52A2,2,0,0,0,158.55,34.17Z"/><path class="cls-2" d="M140,40.43l2.32-7s.43-1.15,2.33-.52S154,36.13,154,36.13l20.25,32.31-2.66,3.5Z"/><path class="cls-2" d="M140.34,31.67s.48-1.26,2.38-.64S152,34.27,152,34.27L154,36.13s-7.4-2.61-9.31-3.23-2.33.52-2.33.52l-2.32,7-2.71-1Z"/><polygon class="cls-2" points="169.31 71.45 174.21 75.77 171.55 71.94 140 40.43 137.29 39.46 142.73 44.9 137.61 41.94 136.4 42.28 164.32 69.84 162.93 67.65 169.31 71.45"/><path class="cls-2" d="M147.44,41.79l-.91-.6a.77.77,0,0,0-.76.08,2.36,2.36,0,0,0-1.07,1.85.74.74,0,0,0,.32.69l.91.6a.72.72,0,0,0,.75-.07,2.35,2.35,0,0,0,1.08-1.85A.76.76,0,0,0,147.44,41.79Z"/><polygon class="cls-2" points="188.24 79.15 176.51 86.34 176.51 84.12 188.24 76.94 188.24 79.15"/><polygon class="cls-2" points="154.44 73.2 176.51 86.34 176.51 84.12 154.44 70.99 154.44 73.2"/><polygon class="cls-2" points="186.26 76.08 174.37 82.89 176.51 84.12 188.24 76.94 186.26 76.08"/><polygon class="cls-2" points="139.28 41.45 142.73 44.9 137.61 41.94 139.28 41.45"/><polygon class="cls-2" points="154.18 72.58 174.37 84.23 174.37 93.02 154.18 81.36 154.18 72.58"/><polygon class="cls-2" points="154.88 72.1 175.07 83.75 175.07 92.53 174.37 93.02 174.37 84.23 154.18 72.58 154.88 72.1"/><polygon class="cls-2" points="154.88 72.1 175.07 83.75 174.37 84.23 154.18 72.58 154.88 72.1"/><path class="cls-2" d="M164.7,87.85l7.24-4.55v8.31l-8.2,2.3a1.31,1.31,0,0,1-.79-.15,1.75,1.75,0,0,1-.73-1.61A5.47,5.47,0,0,1,164.7,87.85Z"/><path class="cls-2" d="M177.4,66.81a4.24,4.24,0,0,1,3.46-.6l2.77,1.44v0a4,4,0,0,0-3.69.5,12.27,12.27,0,0,0-5.57,9.64v5.08L172,81.52l-.11-5.07A12.31,12.31,0,0,1,177.4,66.81Z"/><path class="cls-2" d="M172.42,84.56a1.36,1.36,0,0,0,.61,1.06c.34.2.62,0,.62-.35a1.35,1.35,0,0,0-.62-1.06C172.7,84,172.42,84.17,172.42,84.56Z"/><path class="cls-2" d="M169,82.53a1.4,1.4,0,0,0,.61,1.07c.35.19.62,0,.62-.36a1.32,1.32,0,0,0-.62-1.06C169.26,82,169,82.14,169,82.53Z"/><path class="cls-2" d="M157.78,82.15a1.34,1.34,0,0,0,.61,1.06c.34.2.62,0,.62-.35a1.38,1.38,0,0,0-.62-1.07C158.05,81.6,157.78,81.76,157.78,82.15Z"/><path class="cls-2" d="M157.78,76.21a1.34,1.34,0,0,0,.61,1.06c.34.2.62,0,.62-.35a1.35,1.35,0,0,0-.62-1.06C158.05,75.66,157.78,75.82,157.78,76.21Z"/><path class="cls-2" d="M154.44,74a1.35,1.35,0,0,0,.62,1.06c.34.2.61,0,.61-.35a1.34,1.34,0,0,0-.61-1.06C154.72,73.44,154.44,73.6,154.44,74Z"/><path class="cls-2" d="M172.42,90.61a1.4,1.4,0,0,0,.61,1.07c.34.19.62,0,.62-.36a1.35,1.35,0,0,0-.62-1.06C172.7,90.06,172.42,90.22,172.42,90.61Z"/><path class="cls-2" d="M163,93.77Z"/><path class="cls-2" d="M163.68,87.11l7.24-4.55,1,.74-7.24,4.55a5.47,5.47,0,0,0-2.48,4.3,1.76,1.76,0,0,0,.69,1.58l-1.15-.83a1.87,1.87,0,0,1-.56-1.49A5.52,5.52,0,0,1,163.68,87.11Z"/><path class="cls-2" d="M149.87,79.3l7.24-4.55v8.32l-8.2,2.3a1.28,1.28,0,0,1-.79-.16,1.71,1.71,0,0,1-.74-1.61A5.47,5.47,0,0,1,149.87,79.3Z"/><path class="cls-2" d="M148.85,78.56,156.09,74l1,.74-7.24,4.55a5.47,5.47,0,0,0-2.49,4.3,1.78,1.78,0,0,0,.69,1.58l-1.14-.83a1.87,1.87,0,0,1-.56-1.49A5.49,5.49,0,0,1,148.85,78.56Z"/><path class="cls-2" d="M185.44,70.77l-2.33-1.44a3,3,0,0,0-3.05.31,9.56,9.56,0,0,0-4.33,7.49A3,3,0,0,0,177,79.94l2.33,1.45a3.08,3.08,0,0,0,3-.31,9.57,9.57,0,0,0,4.32-7.5A3,3,0,0,0,185.44,70.77Z"/><path class="cls-2" d="M186.71,73.58a9.57,9.57,0,0,1-4.32,7.5,3.08,3.08,0,0,1-3,.31,3,3,0,0,1-1.28-2.81,9.58,9.58,0,0,1,4.33-7.5,3.08,3.08,0,0,1,3.05-.31A3,3,0,0,1,186.71,73.58Z"/><path class="cls-2" d="M185.5,74.28a6.86,6.86,0,0,1-3.11,5.39,1.9,1.9,0,0,1-3.12-1.79,6.87,6.87,0,0,1,3.12-5.39,1.89,1.89,0,0,1,3.11,1.79Z"/><path class="cls-2" d="M152.72,56.82l1.71-.54L166.8,90a1.85,1.85,0,0,1-.84,2.21c-1.33.61-2-.36-2.37-1.69s-12.15-33-12.15-33Z"/><path class="cls-2" d="M151.39,57.36a1.45,1.45,0,0,0,1.91.55c.84-.3,1.35-1,1.13-1.63a1.44,1.44,0,0,0-1.91-.56C151.68,56,151.18,56.75,151.39,57.36Z"/><path class="cls-2" d="M152.09,57.11c.11.33.58.46,1,.3s.73-.56.62-.89l-4.62-12.46-1.59.71Z"/><path class="cls-2" d="M149.15,42.57l-1.05-.69a.87.87,0,0,0-.87.08A2.77,2.77,0,0,0,146,44.11a.85.85,0,0,0,.37.8l1,.69a.87.87,0,0,0,.87-.08,2.74,2.74,0,0,0,1.24-2.15A.86.86,0,0,0,149.15,42.57Z"/><path class="cls-2" d="M149.52,43.37a2.74,2.74,0,0,1-1.24,2.15.87.87,0,0,1-.87.08.86.86,0,0,1-.36-.8,2.72,2.72,0,0,1,1.23-2.14.85.85,0,0,1,.87-.09A.86.86,0,0,1,149.52,43.37Z"/><path class="cls-2" d="M48,48.16,48.22,45a2.5,2.5,0,0,1,1.13-2,.77.77,0,0,1,.79-.08.79.79,0,0,1,.34.73l1.74,21.27L29.31,143.38l-1.9,1L46.85,54.39,44,53.24l-.08-.82Z"/><polygon class="cls-2" points="46.68 47.39 48.04 48.16 43.93 52.42 42.56 51.65 46.68 47.39"/><path class="cls-2" d="M61.52,59.5l-.37,4.28L60,65.44,51,68s-2.82.27-2.76-1.64a3.05,3.05,0,0,1,2-3c.72-.27,8.59-3.51,8.59-3.51Z"/><path class="cls-2" d="M50.23,66.7a2.38,2.38,0,0,1,1.56-1.85L59.87,62l1.65-2.46-.37,4.28L60,65.44,51,68A1.25,1.25,0,0,1,50.23,66.7Z"/><polygon class="cls-2" points="60.02 65.44 61.15 63.78 61.52 59.51 59.87 61.96 60.02 65.44"/><path class="cls-2" d="M51.06,66.81c0,.58.4.81.9.52a2,2,0,0,0,.9-1.55c0-.58-.4-.81-.9-.52A2,2,0,0,0,51.06,66.81Z"/><polygon class="cls-2" points="43.93 52.42 44.04 53.25 42.65 52.47 42.56 51.65 43.93 52.42"/><path class="cls-2" d="M142.73,35.33c0,.57.4.8.9.52a2,2,0,0,0,.89-1.56c0-.57-.4-.8-.89-.52A2,2,0,0,0,142.73,35.33Z"/><path class="cls-2" d="M151.74,39.61c0,.57.4.8.9.51a2,2,0,0,0,.89-1.55c0-.57-.4-.81-.89-.52A2,2,0,0,0,151.74,39.61Z"/><circle class="cls-4" cx="174.73" cy="13.78" r="6.25"/><circle class="cls-4" cx="230.3" cy="15.1" r="6.25"/><circle class="cls-4" cx="226.27" cy="45.68" r="6.25"/></g></g></g></svg>