<?xml version="1.0" encoding="utf-8"?>
<!-- Generator: Adobe Illustrator 26.0.1, SVG Export Plug-In . SVG Version: 6.00 Build 0)  -->
<svg version="1.1" id="Layer_1" xmlns="http://www.w3.org/2000/svg" xmlns:xlink="http://www.w3.org/1999/xlink" x="0px" y="0px"
	 viewBox="0 0 260 200" style="enable-background:new 0 0 260 200;" xml:space="preserve">
<style type="text/css">
	.st0{opacity:0.1;fill:#EEEEEF;stroke:#231916;stroke-width:0.25;stroke-miterlimit:10;enable-background:new    ;}
	.st1{fill:#EEEEEF;stroke:#231916;stroke-width:0.25;stroke-miterlimit:10;}
	.st2{opacity:0.5;fill:#EEEEEF;stroke:#231916;stroke-width:0.25;stroke-miterlimit:10;enable-background:new    ;}
	.st3{fill:#EEEEEF;fill-opacity:0;}
	.st4{fill:#DD2625;}
</style>
<g>
	<g id="Layer_2_00000023985031492074388510000016852089873031103373_">
		<g id="Layer_1-2">
			<path class="st0" d="M118.5,149.5l-10.2,5.9l-2.9-1.7l10.2-5.9L118.5,149.5z M108.8,143.9l3.6,2l-10.3,5.9l-3.6-2L108.8,143.9z
				 M97,137.1l2.5,1.4l-12.4,7.2l-2.5-1.4L97,137.1z M118.3,163.4l-3-1.7l12.1-7l2.9,1.7L118.3,163.4z"/>
			<path class="st1" d="M132,74.1h-0.6V57c-0.1-1.2-0.7-2.4-1.7-3.1L127,52c-1.1-0.9-1.8-2.2-1.9-3.6V34.8c-0.1-0.8,0.4-1.5,1.2-1.6
				c0.4-0.1,0.8,0,1.1,0.3l10.4,5.6l-0.3,0.5l-10.3-5.6c-0.3-0.2-0.7-0.2-1-0.1c-0.3,0.2-0.5,0.6-0.4,1v13.6
				c0.1,1.2,0.7,2.4,1.6,3.1l2.8,1.9c1.1,0.9,1.8,2.2,1.9,3.6L132,74.1z"/>
			<path class="st1" d="M127.6,48.8c0,0.6-0.4,0.8-0.9,0.5l-2.6-1.5c-0.5-0.4-0.9-0.9-0.9-1.6V34.9c0-0.6,0.4-0.8,0.9-0.5l2.6,1.5
				c0.5,0.4,0.9,1,0.9,1.6L127.6,48.8z"/>
			<path class="st1" d="M114,109.5c0-0.8-0.1-1.6-0.2-2.4l1.3-1c-0.1-0.4-0.1-0.8-0.2-1.2l-1.7-0.4c-0.2-0.5-0.3-0.9-0.6-1.3
				l1.3-1.5c-0.2-0.3-0.3-0.7-0.5-1l-2.5-1.2l0.7-1.1c-0.2-0.2-0.5-0.4-0.8-0.6l-6.6-4.5l-9.1-4.1c-0.3-0.1-0.7-0.2-1-0.2l-0.5,0.8
				l-2.5-0.9c-0.4,0-0.7,0.1-1.1,0.2c-0.3,0.7-0.5,1.2-0.7,1.6L86.8,90c-0.3,0.2-0.7,0.3-1.1,0.5l-0.1,0.1c-0.3,1.1-0.4,1.7-0.5,2.1
				l-0.5,0.2l-2.4-0.3c-0.4,0.3-0.8,0.6-1.1,0.9c-0.1,1-0.1,1.5-0.1,1.9c-0.4,0.3-0.8,0.7-1.2,1.1h-2c-0.4,0.4-0.7,0.8-1.1,1.2
				c0.2,0.9,0.2,1.3,0.3,1.7c-0.5,0.6-1,1.3-1.5,1.9l-1.7,0.2c-0.3,0.4-0.6,0.9-0.9,1.4c0.3,0.7,0.6,1,0.7,1.2
				c-0.5,0.9-1,1.8-1.5,2.7l-1.5,0.3c-0.2,0.5-0.5,1-0.7,1.5c0.5,0.4,0.8,0.6,1,0.8c-0.5,1.1-0.9,2.2-1.2,3.4l-1.4,0.3
				c-0.1,0.5-0.3,1-0.4,1.5c0.6,0.1,1,0.2,1.2,0.2c-0.3,1.1-0.5,2.2-0.6,3.4l-1.4,0.7c0,0.4-0.1,0.9-0.1,1.3c0,0,0,0.1,0,0.1
				c0.7-0.1,1-0.2,1.3-0.2c0,0.3,0,0.7,0,1c0,0.7,0,1.3,0.1,2l-1.3,1c0,0.4,0.1,0.8,0.2,1.2l1.4-0.3c0.2,0.7,0.4,1.5,0.7,2.2
				l-1.1,1.3c0.2,0.3,0.3,0.7,0.5,1l1.9-0.1c0.3,0.3,0.5,0.6,0.8,0.9l-0.9,1.4c0.2,0.2,0.5,0.4,0.8,0.6l3.7,0.8l-0.8,1.6l3.9,1.8
				l6.4,3.4l0.5-0.6l2,1.9c0.3,0.1,0.7,0.2,1,0.2l0.8-1.2c0.2,0,0.4,0.1,0.6,0.1l1.6,1.3c0.4,0,0.7-0.1,1.1-0.2
				c0.2-0.5,0.4-0.9,0.6-1.3c0.6-0.1,1.1-0.3,1.7-0.4l1.1,0.7c0.3-0.1,0.7-0.3,1.1-0.5l0.1-0.1c0.1-0.5,0.2-0.9,0.3-1.2
				c0.3-0.1,0.5-0.3,0.8-0.4c0.4-0.2,0.9-0.5,1.3-0.8l1,0.3v0.1c0.4-0.3,0.8-0.6,1.2-0.9c0-0.5,0.1-0.9,0.1-1.2
				c0.7-0.6,1.4-1.2,2-1.9h1.1c0.4-0.4,0.7-0.8,1.1-1.2l-0.2-1c0.7-0.9,1.4-1.8,2.1-2.7h1c0.3-0.5,0.6-0.9,0.9-1.4
				c-0.2-0.4-0.3-0.6-0.5-0.8c0.7-1.1,1.3-2.2,1.8-3.4h1c0.2-0.5,0.5-1,0.7-1.5c-0.3-0.2-0.6-0.4-0.7-0.6c0.5-1.2,0.9-2.4,1.3-3.7
				l1.1-0.2c0.2-0.5,0.3-1,0.4-1.5l-1-0.2c0.3-1.1,0.4-2.3,0.6-3.5l1.2-0.6c0-0.4,0.1-0.9,0.1-1.3c0,0,0-0.1,0-0.1L114,109.5z"/>
			<path class="st1" d="M73.6,125c0-11.6,8-25.7,18-31.5c2.5-1.6,5.3-2.4,8.2-2.5l-4.6-1.9c-0.3-0.1-0.7-0.2-1-0.2l-0.5,0.8
				l-2.5-0.9c-0.4,0-0.7,0.1-1.1,0.2c-0.3,0.7-0.5,1.2-0.7,1.6L86.8,90c-0.3,0.2-0.7,0.3-1.1,0.5l-0.1,0.1c-0.3,1.1-0.4,1.7-0.5,2.1
				l-0.5,0.2l-2.4-0.3c-0.4,0.3-0.8,0.6-1.1,0.9c-0.1,1-0.1,1.5-0.1,1.9c-0.4,0.3-0.8,0.7-1.2,1.1h-2c-0.4,0.4-0.7,0.8-1.1,1.2
				c0.2,0.9,0.2,1.3,0.3,1.7c-0.5,0.6-1,1.3-1.5,1.9l-1.7,0.2c-0.3,0.4-0.6,0.9-0.9,1.4c0.3,0.7,0.6,1,0.7,1.2
				c-0.5,0.9-1,1.8-1.5,2.7l-1.5,0.3c-0.2,0.5-0.5,1-0.7,1.5c0.5,0.4,0.8,0.6,1,0.8c-0.5,1.1-0.9,2.2-1.2,3.4l-1.4,0.3
				c-0.1,0.5-0.3,1-0.4,1.5c0.6,0.1,1,0.2,1.2,0.2c-0.3,1.1-0.5,2.2-0.6,3.4l-1.4,0.7c0,0.4-0.1,0.9-0.1,1.3c0,0,0,0.1,0,0.1
				c0.7-0.1,1-0.2,1.3-0.2c0,0.3,0,0.7,0,1c0,0.7,0,1.3,0.1,2l-1.3,1c0,0.4,0.1,0.8,0.2,1.2l1.4-0.3c0.2,0.7,0.4,1.5,0.7,2.2
				l-1.1,1.3c0.2,0.3,0.3,0.7,0.5,1l1.9-0.1c0.3,0.3,0.5,0.6,0.8,0.9l-0.9,1.4c0.2,0.2,0.5,0.4,0.8,0.6l3.7,0.8l-0.8,1.6l3.9,1.8
				l0.3,0.1C75.4,134.5,73.6,130.5,73.6,125z"/>
			<path class="st1" d="M108.4,128.6c0.3-0.5,0.6-0.9,0.9-1.4c-0.2-0.4-0.3-0.6-0.5-0.8c0.7-1.1,1.3-2.2,1.8-3.4h1
				c0.2-0.5,0.5-1,0.7-1.5c-0.3-0.2-0.6-0.4-0.7-0.6c0.5-1.2,0.9-2.4,1.3-3.7l1.1-0.2c0.2-0.5,0.3-1,0.4-1.5l-1-0.2
				c0.3-1.1,0.4-2.3,0.6-3.5l1.2-0.6c0-0.4,0.1-0.9,0.1-1.3c0,0,0-0.1,0-0.1l-1.2-0.4c0-0.8-0.1-1.6-0.2-2.4l1.3-1
				c-0.1-0.4-0.1-0.8-0.2-1.2l-1.7-0.4c-0.2-0.5-0.3-0.9-0.6-1.3l1-1.2c-0.7-0.3-1.3-0.7-1.8-1.3c-2.9-4.5-8.6-5.4-15.1-1.7
				c-9.5,5.5-17.2,18.9-17.2,29.9c0,4.8,1.5,8.3,3.9,10.4l1.2,0.6l0.5-0.6l2,1.9c0.3,0.1,0.7,0.2,1,0.2l0.8-1.2
				c0.2,0,0.4,0.1,0.6,0.1l1.6,1.3c0.4,0,0.7-0.1,1.1-0.2c0.2-0.5,0.4-0.9,0.6-1.3c0.6-0.1,1.1-0.3,1.7-0.4l1.1,0.7
				c0.3-0.1,0.7-0.3,1.1-0.5l0.1-0.1c0.1-0.5,0.2-0.9,0.3-1.2c0.3-0.1,0.5-0.3,0.8-0.4c0.4-0.2,0.9-0.5,1.3-0.8l1,0.3v0.1
				c0.4-0.3,0.8-0.6,1.2-0.9c0-0.5,0.1-0.9,0.1-1.2c0.7-0.6,1.3-1.2,2-1.8h1.1c0.4-0.4,0.7-0.8,1.1-1.2l-0.2-1
				c0.7-0.9,1.4-1.8,2.1-2.7L108.4,128.6z"/>
			<polygon class="st1" points="81.1,121.9 81.5,120.4 75.8,111.7 68.3,113.1 67.9,114.6 75.3,113.2 			"/>
			<polygon class="st1" points="83.1,116 83.8,114.5 78.9,105.8 70.6,107.2 69.9,108.7 78,107.3 			"/>
			<polygon class="st1" points="73.8,101.5 72.9,102.9 81.6,101.9 86.1,110.3 87,108.9 82.7,100.7 			"/>
			<polygon class="st1" points="77.8,96.6 76.7,97.8 85.8,97.4 89.9,105.1 91,103.9 87,96.5 			"/>
			<polygon class="st1" points="82.2,92.7 81,93.6 90.4,94.1 94.3,100.9 95.4,100 91.6,93.5 			"/>
			<polygon class="st1" points="86.8,90 85.6,90.6 94.9,92.2 98.8,97.9 100,97.3 96.1,91.9 			"/>
			<polygon class="st1" points="100.2,91.8 91.2,88.8 90.1,89 99.2,91.7 103.3,96.3 104.4,96.2 			"/>
			<polygon class="st1" points="80.3,127.6 80.3,126.2 73.8,117.5 67.1,118.9 67,120.3 73.5,119 			"/>
			<polygon class="st1" points="80.5,132.7 80.3,131.5 73,123.2 67.1,124.1 67.3,125.4 72.9,124.6 			"/>
			<polygon class="st1" points="81.9,136.7 81.5,135.9 73.3,128.3 68.3,128.6 68.8,129.5 73.6,129.5 			"/>
			<polygon class="st1" points="74.8,132.4 70.6,131.8 71.4,132.4 75.3,133.3 84.6,139.8 83.8,139.2 			"/>
			<path class="st1" d="M112.7,109.6c-0.2-0.6,0.1-1.3,0.6-1.6c0,0,1.7-2.7,1.6-3.1c-1.6,0.8-1.2,0.9-1.9,1.2
				c-0.6,0.3-0.7,0.3-1-0.4c-0.3-0.5-0.1-1.2,0.3-1.6l1.6-2.5c-0.2-0.3-0.3-0.7-0.5-1c-1.6,1.2-1.1,1.4-1.9,1.9
				c-0.6,0.4-0.7,0.5-1.2,0.1s-0.3-1,0-1.5l1.2-2.9c-0.2-0.2-0.5-0.4-0.8-0.6c-1.4,1.6-1,1.8-1.7,2.5c-0.6,0.6-0.7,0.7-1.3,0.5
				s-0.6-0.7-0.3-1.2l0.8-3.1c-0.3-0.1-0.7-0.2-1-0.2c-1.2,1.9-0.7,2.1-1.3,3c-0.5,0.7-0.6,0.8-1.3,0.9s-0.8-0.4-0.6-0.9l0.2-3.1
				c-0.4,0-0.7,0.1-1.1,0.2c-0.9,2-0.4,2.2-0.8,3.2c-0.4,0.8-0.5,0.9-1.2,1.2c-0.9,0.4-0.9,0-0.9-0.5l-0.4-2.8
				c-0.4,0.2-0.7,0.3-1.1,0.5h-0.1c-0.5,2,0,2.2-0.2,3.2c-0.1,0.6-0.5,1.2-1.1,1.5c-0.9,0.7-1,0.3-1.1-0.1l-1-2.4l-1.2,0.9
				c-0.1,1.9,0.5,2,0.4,3c0,0.6-0.3,1.3-0.8,1.6c-0.9,0.9-1,0.7-1.2,0.3l-1.6-1.9c-0.4,0.4-0.7,0.8-1.1,1.2c0.3,1.7,0.9,1.7,1,2.5
				c0.1,0.7,0.1,0.8-0.5,1.7c-0.7,1.1-1,0.9-1.3,0.7l-2.1-1.2c-0.3,0.5-0.6,0.9-0.9,1.4c0.7,1.3,1.3,1.3,1.6,1.9s0.3,0.7-0.2,1.6
				c-0.6,1.2-0.9,1.1-1.2,1.1l-2.5-0.4c-0.2,0.5-0.5,1-0.7,1.5c1,0.8,1.7,0.8,2.2,1.2c0.5,0.4,0.4,0.4,0.1,1.4
				c-0.4,1.2-0.7,1.3-1.1,1.4l-2.8,0.4c-0.1,0.5-0.3,1-0.4,1.5c1.3,0.3,2,0.2,2.6,0.4s0.6,0.2,0.5,1.1c-0.1,1.1-0.5,1.3-0.9,1.5
				l-2.9,1.2c0,0.4-0.1,0.9-0.1,1.3v0.1c1.5-0.2,2.2-0.3,2.9-0.4c0.6-0.1,0.7,0,0.8,0.8c0.2,0.6-0.1,1.3-0.6,1.6l-2.9,1.9
				c0,0.4,0.1,0.8,0.2,1.2c1.6-0.8,2.3-0.9,3-1.2c0.6-0.3,0.7-0.3,1,0.4c0.3,0.5,0.1,1.2-0.3,1.6l-2.7,2.5c0.2,0.3,0.3,0.7,0.5,1
				c1-0.7,2-1.4,3-2c0.6-0.4,0.7-0.5,1.2-0.1c0.4,0.4,0.3,1,0,1.5l-2.4,2.9c0.2,0.2,0.5,0.4,0.8,0.6c0.9-0.9,1.8-1.8,2.8-2.5
				c0.6-0.6,0.7-0.7,1.3-0.5c0.6,0.2,0.6,0.7,0.3,1.2L87,141c0.3,0.1,0.7,0.2,1,0.2c0.7-1,1.6-2.1,2.4-3c0.5-0.7,0.6-0.9,1.3-0.9
				s0.8,0.4,0.6,0.9l-1.3,3.1c0.4,0,0.7-0.1,1.1-0.2c0.9-2,1.5-2.2,1.9-3.2c0.4-0.8,0.5-0.9,1.2-1.2c0.9-0.4,0.9,0,0.9,0.5l-0.7,2.9
				c0.3-0.1,0.7-0.3,1.1-0.5l0.1,0c0.5-2,1.1-2.2,1.4-3.2c0.1-0.6,0.5-1.2,1.1-1.5c0.9-0.6,1-0.3,1.1,0.1l-0.1,2.4
				c0.4-0.3,0.8-0.6,1.2-0.9c0.1-1.9,0.6-2,0.7-3c0-0.6,0.3-1.2,0.8-1.6c0.9-0.9,1-0.6,1.2-0.3l0.5,1.9c0.4-0.4,0.7-0.8,1.1-1.2
				c-0.3-1.6,0.2-1.7,0.1-2.5c-0.1-0.6-0.1-0.8,0.5-1.7c0.7-1,1-0.9,1.3-0.7l1,1.2c0.3-0.5,0.6-0.9,0.9-1.4c-0.7-1.3-0.2-1.3-0.5-2
				s-0.3-0.7,0.2-1.6c0.6-1.2,0.9-1.1,1.2-1.1l1.4,0.4c0.2-0.5,0.5-1,0.7-1.5c-1-0.8-0.6-0.8-1.1-1.2s-0.4-0.4-0.1-1.4
				c0.4-1.2,0.7-1.3,1.1-1.3l1.7-0.4c0.2-0.5,0.3-1,0.4-1.5c-0.5-0.1-1-0.2-1.5-0.4c-0.5-0.1-0.6-0.2-0.5-1.1
				c0.1-1.1,0.5-1.3,0.9-1.5l1.8-1.2c0-0.4,0.1-0.9,0.1-1.3c0,0,0-0.1,0-0.1c-1.5,0.2-1.1,0.3-1.8,0.4S112.8,110.4,112.7,109.6z"/>
			<path class="st2" d="M110.8,112.9c0,7.5-5.2,16.6-11.7,20.3c-6.5,3.7-11.7,0.7-11.7-6.8c0-7.5,5.2-16.6,11.7-20.3
				S110.8,105.4,110.8,112.9z"/>
			<path class="st2" d="M109.2,113.8c0,6.4-4.5,14.3-10.1,17.5c-5.6,3.2-10.1,0.6-10.1-5.9c0-6.5,4.5-14.3,10.1-17.5
				S109.2,107.4,109.2,113.8z"/>
			<path class="st1" d="M104.8,108.6c1,1.3,1.4,3,1.4,4.6c0,5.6-3.9,12.4-8.8,15.2c-2.1,1.2-4.1,1.5-5.6,0.9c1.6,2,4.3,2.3,7.4,0.4
				c4.9-2.8,8.8-9.6,8.8-15.2C107.9,111.5,106.7,109.3,104.8,108.6z"/>
			<path class="st1" d="M97.3,128.5c4.9-2.8,8.8-9.6,8.8-15.2c0.1-1.6-0.4-3.3-1.3-4.6c-1.5-0.6-3.5-0.3-5.6,0.9
				c-4.9,2.8-8.8,9.6-8.8,15.2c-0.1,1.7,0.4,3.3,1.4,4.6C93.2,130,95.1,129.7,97.3,128.5z"/>
			<path class="st1" d="M103.5,115.3c0-4.1-2.9-5.8-6.5-3.7c-0.9,0.5-1.7,1.2-2.4,2c-1.9,2.4-3.2,5.1-3.9,8.1c0,0.4-0.1,0.7-0.1,1.1
				c0,4.1,2.9,5.8,6.5,3.7C100.9,124,103.3,119.8,103.5,115.3z"/>
			<path class="st1" d="M103.3,115.6c0-3.7-2.6-5.2-5.9-3.4c-3.5,2.3-5.6,6-5.9,10.2c0,3.7,2.6,5.2,5.9,3.4
				C100.9,123.5,103.1,119.8,103.3,115.6z"/>
			<path class="st1" d="M100.7,116.7c0.1-0.9-0.3-1.7-1-2.3c-0.8-0.2-1.6-0.1-2.3,0.4c-2.2,1.4-3.5,3.8-3.6,6.4
				c-0.1,0.9,0.3,1.7,1,2.3c0.8,0.2,1.6,0.1,2.3-0.4C99.2,121.6,100.5,119.3,100.7,116.7z"/>
			<path class="st1" d="M99.8,114.4c0.7,0.6,1.1,1.4,1,2.3c-0.1,2.6-1.5,5-3.7,6.4c-0.7,0.5-1.5,0.6-2.3,0.4
				c0.9,0.5,1.9,0.4,2.7-0.2c2.2-1.4,3.5-3.8,3.7-6.4C101.3,115.8,100.7,114.8,99.8,114.4z"/>
			<path class="st1" d="M98.8,117.8c0-1.1-0.8-1.6-1.8-1c-1,0.7-1.7,1.8-1.8,3.1c0,1.1,0.8,1.6,1.8,1C98,120.2,98.7,119,98.8,117.8z
				"/>
			<path class="st1" d="M97.4,115.5c0-0.3-0.2-0.4-0.4-0.3c-0.3,0.2-0.4,0.5-0.4,0.8c0,0.3,0.2,0.4,0.4,0.3
				C97.2,116.1,97.4,115.8,97.4,115.5z"/>
			<path class="st1" d="M97.3,115.6c0-0.2-0.2-0.3-0.3-0.2c-0.2,0.1-0.3,0.4-0.3,0.6c0,0.2,0.2,0.3,0.3,0.2
				C97.2,116,97.3,115.8,97.3,115.6z"/>
			<path class="st1" d="M99.3,115.3c0-0.3-0.2-0.4-0.4-0.3c-0.3,0.2-0.4,0.5-0.4,0.8c0,0.3,0.2,0.4,0.4,0.3
				C99.1,115.9,99.3,115.6,99.3,115.3z"/>
			<path class="st1" d="M99.2,115.4c0-0.2-0.2-0.3-0.3-0.2c-0.2,0.1-0.3,0.4-0.3,0.6c0,0.2,0.2,0.3,0.3,0.2
				C99.1,115.8,99.2,115.6,99.2,115.4z"/>
			<path class="st1" d="M100.1,117c0-0.3-0.2-0.4-0.4-0.3c-0.3,0.2-0.4,0.5-0.4,0.8c0,0.3,0.2,0.4,0.4,0.3
				C99.9,117.6,100.1,117.4,100.1,117z"/>
			<path class="st1" d="M100,117.1c0-0.2-0.2-0.3-0.3-0.2c-0.2,0.1-0.3,0.4-0.3,0.6c0,0.2,0.2,0.3,0.3,0.2
				C99.9,117.6,100,117.3,100,117.1z"/>
			<path class="st1" d="M99.3,119.6c0-0.3-0.2-0.4-0.4-0.3c-0.3,0.2-0.4,0.5-0.4,0.8c0,0.3,0.2,0.4,0.4,0.2
				C99.1,120.2,99.3,119.9,99.3,119.6z"/>
			<path class="st1" d="M99.2,119.7c0-0.2-0.2-0.3-0.3-0.2c-0.2,0.1-0.3,0.4-0.3,0.6c0,0.2,0.2,0.3,0.3,0.2
				C99.1,120.2,99.2,120,99.2,119.7z"/>
			<path class="st1" d="M97.4,121.6c0-0.3-0.2-0.4-0.4-0.3c-0.3,0.2-0.4,0.5-0.4,0.8c0,0.3,0.2,0.4,0.4,0.2
				C97.2,122.2,97.4,121.9,97.4,121.6z"/>
			<path class="st1" d="M97.3,121.7c0-0.2-0.2-0.3-0.3-0.2c-0.2,0.1-0.3,0.4-0.3,0.6c0,0.2,0.2,0.3,0.3,0.2
				C97.2,122.2,97.3,122,97.3,121.7z"/>
			<path class="st1" d="M95.5,121.8c0-0.3-0.2-0.4-0.4-0.3c-0.3,0.2-0.4,0.5-0.4,0.8c0,0.3,0.2,0.4,0.4,0.3
				C95.4,122.4,95.5,122.2,95.5,121.8z"/>
			<path class="st1" d="M95.4,121.9c0-0.2-0.2-0.3-0.3-0.2c-0.2,0.1-0.3,0.4-0.3,0.6c0,0.2,0.2,0.3,0.3,0.2
				C95.3,122.4,95.4,122.1,95.4,121.9z"/>
			<path class="st1" d="M94.8,120.1c0-0.3-0.2-0.4-0.4-0.3c-0.3,0.2-0.4,0.5-0.4,0.8c0,0.3,0.2,0.4,0.4,0.3
				C94.6,120.7,94.7,120.4,94.8,120.1z"/>
			<path class="st1" d="M94.7,120.2c0-0.2-0.2-0.3-0.3-0.2c-0.2,0.1-0.3,0.4-0.3,0.6c0,0.2,0.2,0.3,0.3,0.2
				C94.5,120.6,94.7,120.4,94.7,120.2z"/>
			<path class="st1" d="M95.5,117.5c0-0.3-0.2-0.4-0.4-0.2c-0.3,0.2-0.4,0.5-0.4,0.8c0,0.3,0.2,0.4,0.4,0.3
				C95.4,118.1,95.5,117.8,95.5,117.5z"/>
			<path class="st1" d="M95.4,117.5c0-0.2-0.2-0.3-0.3-0.2c-0.2,0.1-0.3,0.4-0.3,0.6c0,0.2,0.2,0.3,0.3,0.2
				C95.3,118,95.4,117.8,95.4,117.5z"/>
			<polygon class="st1" points="102.7,90.6 104.4,92.2 116.1,98.6 108.1,88.4 			"/>
			<polygon class="st1" points="108.9,86.1 98.5,80.1 85.9,87.4 96.3,93.4 			"/>
			<polygon class="st1" points="116.1,98.6 117.7,97.7 108.9,86.1 96.3,93.4 96.3,95.2 108.1,88.4 			"/>
			<polygon class="st1" points="96.3,93.4 85.9,87.4 85.9,89.2 96.3,95.2 			"/>
			<polygon class="st1" points="220.5,78.5 164.7,110.7 164.7,90.7 220.5,58.5 			"/>
			<polygon class="st1" points="220.5,63.9 164.7,96.1 164.7,90.7 220.5,58.5 			"/>
			<polygon class="st1" points="210,84.6 220.5,78.5 220.5,58.5 210,64.6 			"/>
			<path class="st1" d="M211.2,83.9c-1.7-8.6-9-11.6-17.9-6.5c-8.9,5.1-16.2,16.6-17.9,27.2L211.2,83.9z"/>
			<path class="st1" d="M229.2,98.2c0-0.8-0.1-1.6-0.2-2.4l1.3-1c-0.1-0.4-0.1-0.8-0.2-1.2l-1.7-0.4c-0.2-0.5-0.3-0.9-0.6-1.3
				l1.3-1.4c-0.1-0.3-0.3-0.7-0.5-1l-2.5-1.2l0.7-1.1c-0.2-0.2-0.5-0.4-0.8-0.6l-6.6-4.5l-9.1-4.1c-0.3-0.1-0.6-0.2-0.9-0.2
				c-0.2,0.3-0.4,0.6-0.5,0.8l-2.5-0.9c-0.4,0-0.7,0.1-1.1,0.2c-0.3,0.8-0.5,1.2-0.7,1.6l-2.6-0.6c-0.4,0.2-0.7,0.3-1.1,0.5h-0.1
				c-0.3,1.1-0.4,1.7-0.5,2.1l-0.5,0.2l-2.4-0.2c-0.4,0.3-0.8,0.6-1.1,0.9c-0.1,1-0.1,1.6-0.1,2c-0.4,0.3-0.8,0.7-1.2,1.1h-2
				c-0.4,0.4-0.7,0.8-1.1,1.2c0.1,0.9,0.2,1.3,0.3,1.7c-0.5,0.6-1,1.3-1.5,1.9l-1.7,0.2c-0.3,0.5-0.6,0.9-0.9,1.4
				c0.4,0.7,0.6,1,0.7,1.2c-0.5,0.9-1,1.8-1.5,2.7l-1.5,0.3c-0.2,0.5-0.5,1-0.7,1.5c0.5,0.4,0.8,0.6,1,0.8c-0.5,1.1-0.9,2.2-1.2,3.4
				l-1.4,0.3c-0.1,0.5-0.3,1-0.4,1.5c0.6,0.1,1,0.2,1.2,0.2c-0.2,1.1-0.4,2.3-0.5,3.4l-1.4,0.7c0,0.4-0.1,0.9-0.1,1.3
				c0,0,0,0.1,0,0.1c0.6-0.1,1-0.2,1.3-0.2c0,0.3,0,0.7,0,1c0,0.7,0,1.3,0.1,2l-1.3,1c0,0.4,0.1,0.8,0.2,1.2l1.4-0.3
				c0.2,0.7,0.4,1.5,0.7,2.2l-1.1,1.3c0.1,0.3,0.3,0.7,0.5,1h1.9c0.3,0.3,0.5,0.6,0.8,0.9l-0.9,1.4c0.2,0.2,0.5,0.4,0.8,0.6l3.7,0.8
				l-0.8,1.4l3.9,1.8l6.4,3.4c0.2-0.2,0.4-0.4,0.5-0.6l1.9,1.9c0.3,0.1,0.7,0.2,1,0.2l0.8-1.2c0.2,0,0.4,0.1,0.6,0.1l1.6,1.3
				c0.4,0,0.7-0.1,1.1-0.2c0.2-0.5,0.4-0.9,0.6-1.3c0.6-0.1,1.1-0.3,1.7-0.4l1.1,0.7c0.4-0.1,0.7-0.3,1.1-0.5l0.1-0.1
				c0.1-0.5,0.2-0.9,0.3-1.2c0.3-0.1,0.5-0.3,0.8-0.4c0.4-0.2,0.9-0.5,1.3-0.8l1,0.3v0.1c0.4-0.3,0.8-0.6,1.2-0.9
				c0-0.5,0.1-0.9,0.1-1.2c0.7-0.6,1.4-1.2,2.1-1.9h1.1c0.4-0.4,0.7-0.8,1.1-1.2c-0.1-0.4-0.1-0.8-0.2-1c0.7-0.9,1.4-1.8,2.1-2.7h1
				c0.3-0.4,0.6-0.9,0.9-1.4c-0.2-0.4-0.3-0.6-0.5-0.8c0.7-1.1,1.3-2.2,1.8-3.4h1c0.2-0.5,0.5-1,0.7-1.5c-0.3-0.2-0.6-0.4-0.7-0.6
				c0.5-1.2,0.9-2.4,1.3-3.7l1.1-0.2c0.1-0.5,0.3-1,0.4-1.5c-0.5-0.1-0.8-0.2-1-0.2c0.3-1.1,0.4-2.3,0.6-3.5l1.2-0.6
				c0-0.4,0.1-0.9,0.1-1.3c0,0,0-0.1,0-0.1L229.2,98.2z"/>
			<path class="st1" d="M188.9,113.6c0-11.6,8-25.7,18-31.5c2.5-1.6,5.3-2.4,8.2-2.5l-4.6-1.9c-0.3-0.1-0.6-0.2-0.9-0.2
				c-0.2,0.3-0.4,0.6-0.5,0.8l-2.5-0.9c-0.4,0-0.7,0.1-1.1,0.2c-0.3,0.8-0.5,1.2-0.7,1.6l-2.7-0.6c-0.4,0.2-0.7,0.3-1.1,0.5h-0.1
				c-0.3,1.1-0.4,1.7-0.5,2.1l-0.5,0.2l-2.4-0.2c-0.4,0.3-0.8,0.6-1.1,0.9c-0.1,1-0.1,1.6-0.1,2c-0.4,0.3-0.8,0.7-1.2,1.1h-2
				c-0.4,0.4-0.7,0.8-1.1,1.2c0.1,0.9,0.2,1.3,0.3,1.7c-0.5,0.6-1,1.3-1.5,1.9l-1.7,0.2c-0.3,0.5-0.6,0.9-0.9,1.4
				c0.4,0.7,0.6,1,0.7,1.2c-0.5,0.9-1,1.8-1.5,2.7l-1.5,0.3c-0.2,0.5-0.5,1-0.7,1.5c0.5,0.4,0.8,0.6,1,0.8c-0.5,1.1-0.9,2.2-1.2,3.4
				l-1.4,0.3c-0.1,0.5-0.3,1-0.4,1.5c0.6,0.1,1,0.2,1.2,0.2c-0.2,1.1-0.4,2.3-0.5,3.4l-1.4,0.7c0,0.4-0.1,0.9-0.1,1.3
				c0,0,0,0.1,0,0.1c0.6-0.1,1-0.2,1.3-0.2c0,0.3,0,0.7,0,1c0,0.7,0,1.3,0.1,2l-1.3,1c0,0.4,0.1,0.8,0.2,1.2l1.4-0.3
				c0.2,0.7,0.4,1.5,0.7,2.2l-1.1,1.3c0.1,0.3,0.3,0.7,0.5,1h1.9c0.3,0.3,0.5,0.6,0.8,0.9l-0.9,1.4c0.2,0.2,0.5,0.4,0.8,0.6l3.7,0.8
				l-0.8,1.4l3.9,1.8l0.2,0.1C190.7,123.1,188.9,119.2,188.9,113.6z"/>
			<path class="st1" d="M223.7,117.3c0.3-0.4,0.6-0.9,0.9-1.4c-0.2-0.4-0.3-0.6-0.5-0.8c0.7-1.1,1.3-2.2,1.8-3.4h0.9
				c0.2-0.5,0.5-1,0.7-1.5c-0.3-0.2-0.5-0.4-0.7-0.6c0.5-1.2,0.9-2.4,1.3-3.7l1.1-0.2c0.1-0.5,0.3-1,0.4-1.5c-0.5-0.1-0.8-0.2-1-0.2
				c0.3-1.1,0.4-2.3,0.5-3.5l1.2-0.6c0-0.4,0.1-0.9,0.1-1.3c0,0,0-0.1,0-0.1l-1.2-0.4c0-0.8-0.1-1.6-0.2-2.4l1.3-1
				c-0.1-0.4-0.1-0.8-0.2-1.2l-1.7-0.4c-0.2-0.5-0.3-0.9-0.6-1.3l1-1.2c-0.7-0.3-1.3-0.7-1.8-1.2c-2.9-4.5-8.6-5.4-15.2-1.7
				c-9.5,5.5-17.2,18.8-17.2,29.8c0,4.8,1.5,8.3,3.9,10.3l1.2,0.6c0.2-0.2,0.4-0.4,0.5-0.6l1.9,1.9c0.3,0.1,0.7,0.2,1,0.2l0.8-1.2
				c0.2,0,0.4,0.1,0.6,0.1l1.6,1.3c0.4,0,0.7-0.1,1.1-0.2c0.2-0.5,0.4-0.9,0.6-1.3c0.6-0.1,1.1-0.3,1.7-0.4l1.1,0.7
				c0.4-0.1,0.7-0.3,1.1-0.5l0.1-0.1c0.1-0.5,0.2-0.9,0.3-1.2c0.3-0.1,0.5-0.3,0.8-0.4c0.4-0.2,0.9-0.5,1.3-0.8l1,0.3v0.1
				c0.4-0.3,0.8-0.6,1.2-0.9c0-0.5,0.1-0.9,0.1-1.2c0.7-0.6,1.4-1.2,2.1-1.9h1.1c0.4-0.4,0.7-0.8,1.1-1.2c-0.1-0.4-0.1-0.8-0.2-1
				c0.7-0.9,1.4-1.8,2.1-2.7L223.7,117.3z"/>
			<polygon class="st1" points="196.3,110.6 196.7,109.1 191,100.4 183.5,101.7 183.1,103.2 190.6,101.8 			"/>
			<polygon class="st1" points="198.3,104.7 199,103.2 194.1,94.5 185.8,95.8 185.1,97.3 193.2,95.9 			"/>
			<polygon class="st1" points="189,90.2 188.1,91.6 196.9,90.6 201.3,98.9 202.3,97.5 197.9,89.3 			"/>
			<polygon class="st1" points="193,85.3 191.9,86.4 201.1,86.1 205.2,93.8 206.2,92.6 202.2,85.1 			"/>
			<polygon class="st1" points="197.4,81.3 196.3,82.2 205.6,82.8 209.5,89.5 210.6,88.7 206.8,82.1 			"/>
			<polygon class="st1" points="202,78.7 200.9,79.2 210.1,80.9 214.1,86.5 215.2,86 211.3,80.5 			"/>
			<polygon class="st1" points="215.4,80.5 206.5,77.5 205.4,77.6 214.4,80.3 218.6,85 219.7,84.8 			"/>
			<polygon class="st1" points="195.6,116.3 195.6,114.9 189.1,106.2 182.3,107.5 182.2,108.9 188.7,107.6 			"/>
			<polygon class="st1" points="195.8,121.4 195.6,120.1 188.2,111.8 182.4,112.8 182.5,114 188.2,113.2 			"/>
			<polygon class="st1" points="197.2,125.4 196.8,124.6 188.5,116.9 183.5,117.2 184,118.2 188.8,118.1 			"/>
			<polygon class="st1" points="190,121.1 185.8,120.5 186.6,121.1 190.6,122 199.8,128.4 199.1,127.8 			"/>
			<path class="st1" d="M227.9,98.2c-0.2-0.6,0.1-1.3,0.6-1.6c0,0,1.7-2.7,1.6-3.1c-1.6,0.8-1.1,0.9-1.9,1.2c-0.6,0.3-0.7,0.3-1-0.4
				c-0.3-0.5-0.1-1.2,0.3-1.6l1.6-2.4c-0.1-0.3-0.3-0.7-0.5-1c-1.6,1.2-1.1,1.4-1.9,2c-0.6,0.4-0.7,0.5-1.2,0.1
				c-0.5-0.4-0.3-1,0-1.5l1.2-2.9c-0.2-0.2-0.5-0.4-0.8-0.6c-1.4,1.6-1,1.8-1.7,2.5c-0.6,0.6-0.7,0.7-1.3,0.5s-0.6-0.7-0.3-1.2
				l0.8-3.1c-0.3-0.1-0.6-0.2-1-0.2c-1.2,1.9-0.7,2-1.3,3c-0.5,0.7-0.6,0.8-1.3,0.9c-0.7,0.1-0.8-0.3-0.6-0.9l0.2-3.1
				c-0.4,0-0.7,0.1-1.1,0.2c-0.9,2-0.4,2.2-0.8,3.2c-0.4,0.8-0.5,0.9-1.2,1.2c-0.9,0.4-0.9,0-0.9-0.5l-0.4-2.8
				c-0.4,0.2-0.7,0.3-1.1,0.5l-0.1,0.1c-0.5,2,0,2.2-0.2,3.2c-0.1,0.6-0.5,1.1-1.1,1.4c-0.9,0.6-1,0.3-1.1-0.1l-1-2.4
				c-0.4,0.3-0.8,0.6-1.2,0.9c-0.1,1.9,0.5,2,0.4,3c0,0.6-0.3,1.2-0.8,1.6c-0.9,0.9-1,0.7-1.2,0.3l-1.6-1.9
				c-0.4,0.4-0.7,0.8-1.1,1.2c0.3,1.7,0.9,1.7,1,2.5c0.1,0.7,0.1,0.8-0.5,1.7c-0.7,1.1-1,0.9-1.3,0.7l-2.1-1.2
				c-0.3,0.5-0.6,0.9-0.9,1.4c0.7,1.3,1.4,1.3,1.6,1.9s0.3,0.6-0.2,1.6c-0.6,1.2-0.9,1.1-1.2,1.1l-2.6-0.4c-0.2,0.5-0.5,1-0.7,1.5
				c1,0.8,1.7,0.8,2.2,1.2c0.5,0.4,0.4,0.4,0.1,1.4c-0.4,1.2-0.7,1.3-1.1,1.3l-2.8,0.4c-0.1,0.5-0.3,1-0.4,1.5
				c1.3,0.3,2,0.2,2.6,0.4s0.6,0.2,0.5,1.1c-0.1,1.1-0.5,1.3-0.9,1.5l-2.9,1.2c0,0.4-0.1,0.9-0.1,1.3v0.1c1.5-0.2,2.2-0.3,2.9-0.4
				c0.6-0.1,0.7,0,0.8,0.8c0.2,0.6-0.1,1.3-0.6,1.6l-2.9,1.9c0,0.4,0.1,0.8,0.2,1.2c1.6-0.8,2.3-0.9,3-1.2c0.6-0.3,0.7-0.3,1,0.4
				c0.3,0.5,0.1,1.2-0.3,1.6l-2.7,2.5c0.1,0.3,0.3,0.7,0.5,1c1-0.7,2-1.4,3-2c0.6-0.5,0.7-0.5,1.2-0.1c0.5,0.4,0.3,0.9,0,1.5
				l-2.4,2.9c0.2,0.2,0.5,0.4,0.8,0.6c0.9-0.9,1.8-1.7,2.8-2.5c0.6-0.6,0.7-0.7,1.3-0.5s0.6,0.7,0.3,1.2l-1.9,3.1
				c0.3,0.1,0.7,0.2,1,0.2c0.7-1.1,1.5-2.1,2.4-3c0.5-0.7,0.6-0.8,1.3-0.9c0.7-0.1,0.8,0.3,0.6,0.9l-1.3,3.1c0.4,0,0.7-0.1,1.1-0.2
				c0.9-2,1.5-2.2,1.9-3.2c0.4-0.8,0.5-0.9,1.2-1.2c0.9-0.4,0.9,0,0.9,0.5l-0.7,2.8c0.4-0.1,0.7-0.3,1.1-0.5l0.1-0.1
				c0.5-2,1.1-2.2,1.4-3.2c0.1-0.6,0.5-1.2,1.1-1.5c0.9-0.6,1-0.3,1.1,0.1l-0.1,2.4c0.4-0.3,0.8-0.6,1.2-0.9c0.1-1.9,0.6-2,0.7-3
				c0-0.6,0.3-1.3,0.8-1.6c0.9-0.9,1-0.7,1.2-0.3l0.5,1.9c0.4-0.4,0.7-0.8,1.1-1.2c-0.3-1.6,0.2-1.7,0.1-2.5
				c-0.1-0.7-0.1-0.8,0.5-1.7c0.7-1,1-0.9,1.3-0.7l1,1.2c0.3-0.4,0.6-0.9,0.9-1.4c-0.7-1.3-0.2-1.3-0.5-2c-0.3-0.7-0.3-0.6,0.2-1.6
				c0.6-1.2,0.9-1.1,1.2-1.1l1.4,0.4c0.2-0.5,0.5-1,0.7-1.5c-1-0.8-0.6-0.8-1.1-1.2s-0.4-0.4-0.1-1.4c0.4-1.2,0.7-1.3,1.1-1.3
				l1.7-0.4c0.1-0.5,0.3-1,0.4-1.5c-0.5-0.1-1-0.2-1.5-0.4c-0.5-0.1-0.6-0.2-0.5-1.1c0.1-1.1,0.5-1.3,0.9-1.5l1.8-1.2
				c0-0.4,0.1-0.9,0.1-1.3c0,0,0-0.1,0-0.1c-1.5,0.2-1.1,0.3-1.8,0.4C228.1,99.1,228,99,227.9,98.2z"/>
			<path class="st2" d="M226.1,101.6c0,7.5-5.2,16.6-11.7,20.3s-11.7,0.7-11.7-6.8s5.2-16.6,11.7-20.3S226.1,94.1,226.1,101.6z"/>
			<path class="st2" d="M224.5,102.5c0,6.4-4.5,14.3-10.1,17.5s-10.1,0.6-10.1-5.8s4.5-14.3,10.1-17.6S224.5,96.1,224.5,102.5z"/>
			<path class="st1" d="M219.9,97.3c1,1.3,1.4,3,1.4,4.6c0,5.6-3.9,12.4-8.8,15.2c-2.1,1.2-4.1,1.5-5.6,0.9c1.6,1.9,4.3,2.3,7.4,0.4
				c4.9-2.8,8.8-9.6,8.8-15.2C223.2,100.1,221.9,98,219.9,97.3z"/>
			<path class="st1" d="M212.5,117.1c4.9-2.8,8.8-9.6,8.8-15.2c0.1-1.7-0.4-3.3-1.4-4.6c-1.5-0.6-3.5-0.3-5.6,0.9
				c-4.9,2.8-8.8,9.6-8.8,15.2c-0.1,1.7,0.4,3.3,1.4,4.6C208.4,118.6,210.4,118.4,212.5,117.1z"/>
			<path class="st1" d="M218.8,104c0-4.1-2.9-5.8-6.5-3.7c-0.9,0.5-1.7,1.2-2.4,2c-1.9,2.4-3.3,5.2-4,8.1c-0.1,0.4-0.1,0.7-0.1,1.1
				c0,4.1,2.9,5.8,6.5,3.7C216.1,112.7,218.5,108.5,218.8,104z"/>
			<path class="st1" d="M218.5,104.3c0-3.7-2.6-5.3-5.9-3.4c-3.5,2.3-5.6,6-5.9,10.2c0,3.7,2.6,5.2,5.9,3.4
				C216.1,112.2,218.3,108.4,218.5,104.3z"/>
			<path class="st1" d="M215.9,105.3c0.1-0.9-0.3-1.8-1-2.3c-0.8-0.2-1.6,0-2.3,0.4c-2.2,1.4-3.5,3.8-3.7,6.4
				c-0.1,0.9,0.3,1.7,1,2.3c0.8,0.2,1.6,0.1,2.3-0.4C214.4,110.3,215.8,107.9,215.9,105.3z"/>
			<path class="st1" d="M215,103c0.7,0.6,1.1,1.4,1,2.3c-0.1,2.6-1.5,5-3.7,6.4c-0.7,0.5-1.5,0.6-2.3,0.4c0.9,0.5,1.9,0.4,2.7-0.2
				c2.2-1.4,3.5-3.8,3.7-6.4C216.5,104.5,215.9,103.5,215,103z"/>
			<path class="st1" d="M214,106.4c0-1.1-0.8-1.6-1.8-1c-1,0.7-1.7,1.8-1.8,3.1c0,1.1,0.8,1.6,1.8,1
				C213.3,108.8,213.9,107.7,214,106.4z"/>
			<path class="st1" d="M212.7,104.2c0-0.3-0.2-0.4-0.5-0.2c-0.3,0.2-0.4,0.5-0.4,0.8c0,0.3,0.2,0.4,0.4,0.3
				C212.5,104.8,212.6,104.5,212.7,104.2z"/>
			<path class="st1" d="M212.6,104.2c0-0.2-0.1-0.3-0.4-0.2c-0.2,0.1-0.3,0.4-0.3,0.6c0,0.2,0.1,0.3,0.3,0.2
				C212.4,104.7,212.6,104.5,212.6,104.2z"/>
			<path class="st1" d="M214.6,104c0-0.3-0.2-0.4-0.4-0.3c-0.3,0.2-0.4,0.5-0.5,0.8c0,0.3,0.2,0.4,0.5,0.2
				C214.4,104.6,214.5,104.3,214.6,104z"/>
			<path class="st1" d="M214.5,104c0-0.1-0.1-0.2-0.2-0.2c-0.1,0-0.1,0-0.2,0.1c-0.2,0.1-0.3,0.4-0.4,0.6c0,0.2,0.2,0.3,0.4,0.2
				C214.3,104.5,214.4,104.3,214.5,104z"/>
			<path class="st1" d="M215.3,105.7c0-0.3-0.2-0.4-0.5-0.3c-0.3,0.2-0.4,0.5-0.4,0.8c0,0.3,0.2,0.4,0.4,0.3
				C215.2,106.3,215.3,106,215.3,105.7z"/>
			<path class="st1" d="M215.2,105.8c0-0.2-0.1-0.3-0.4-0.2c-0.2,0.1-0.3,0.4-0.3,0.6c0,0.2,0.1,0.3,0.3,0.2
				C215.1,106.2,215.2,106,215.2,105.8z"/>
			<path class="st1" d="M214.6,108.3c0-0.3-0.2-0.4-0.5-0.3c-0.3,0.2-0.4,0.5-0.4,0.8c0,0.3,0.2,0.4,0.4,0.2
				C214.4,108.9,214.6,108.6,214.6,108.3z"/>
			<path class="st1" d="M214.5,108.4c0-0.2-0.2-0.3-0.4-0.2c-0.2,0.1-0.3,0.4-0.4,0.6c0,0.2,0.2,0.3,0.4,0.2
				C214.3,108.9,214.5,108.6,214.5,108.4z"/>
			<path class="st1" d="M212.7,110.3c0-0.3-0.2-0.4-0.5-0.3c-0.3,0.2-0.4,0.5-0.4,0.8c0,0.3,0.2,0.4,0.4,0.3
				C212.5,110.9,212.6,110.6,212.7,110.3z"/>
			<path class="st1" d="M212.6,110.4c0-0.2-0.1-0.3-0.4-0.2c-0.2,0.1-0.3,0.4-0.3,0.6c0,0.2,0.1,0.3,0.3,0.2
				C212.4,110.8,212.6,110.6,212.6,110.4z"/>
			<path class="st1" d="M210.8,110.5c0-0.3-0.2-0.4-0.5-0.3c-0.3,0.2-0.4,0.5-0.4,0.8c0,0.3,0.2,0.4,0.4,0.3
				C210.6,111.1,210.7,110.8,210.8,110.5z"/>
			<path class="st1" d="M210.7,110.6c0-0.2-0.2-0.3-0.4-0.2c-0.2,0.1-0.3,0.4-0.4,0.6c0,0.2,0.2,0.3,0.4,0.2
				C210.5,111,210.7,110.8,210.7,110.6z"/>
			<path class="st1" d="M210,108.8c0-0.3-0.2-0.4-0.5-0.3c-0.3,0.2-0.4,0.5-0.4,0.8c0,0.3,0.2,0.4,0.4,0.3
				C209.8,109.4,210,109.1,210,108.8z"/>
			<path class="st1" d="M209.9,108.8c0-0.2-0.2-0.3-0.4-0.2c-0.2,0.1-0.3,0.4-0.4,0.6c0,0.2,0.2,0.3,0.4,0.2
				C209.8,109.3,209.9,109.1,209.9,108.8z"/>
			<path class="st1" d="M210.8,106.1c0-0.3-0.2-0.4-0.5-0.3c-0.3,0.2-0.4,0.5-0.4,0.8c0,0.3,0.2,0.4,0.4,0.3
				C210.6,106.8,210.7,106.5,210.8,106.1z"/>
			<path class="st1" d="M210.7,106.2c0-0.2-0.2-0.3-0.4-0.2c-0.2,0.1-0.3,0.4-0.4,0.6c0,0.2,0.2,0.3,0.4,0.2
				C210.5,106.7,210.7,106.5,210.7,106.2z"/>
			<polygon class="st1" points="168.9,108.3 168.9,93 167,93 167,109.4 			"/>
			<rect x="150.4" y="94.5" class="st1" width="14.3" height="16.2"/>
			<polygon class="st1" points="150.4,94.5 130.5,81.9 130.5,98.1 150.4,110.7 			"/>
			<polygon class="st1" points="127.7,127 107.8,114.4 130.5,98.1 150.4,110.7 			"/>
			<rect x="150.4" y="88.2" class="st1" width="14.3" height="6.3"/>
			<path class="st1" d="M132,126.3l-26.8-15.8c-1.2-0.7-2.9-0.6-4.7,0.5c-4,2.6-6.5,7-6.7,11.7c0,2.2,0.8,3.7,2,4.4l26.8,15.8
				c1.2,0.7,2.9,0.6,4.7-0.5c4-2.6,6.5-6.9,6.7-11.7C134,128.5,133.3,127,132,126.3z"/>
			<polygon class="st1" points="203.1,23.4 162.5,46.8 180.9,57.4 221.4,33.9 			"/>
			<polygon class="st1" points="181.9,54.6 179.6,50.2 171.6,45.6 168.1,46.6 			"/>
			<polygon class="st1" points="171.6,45.6 181.7,39.8 178.5,40.6 168.1,46.6 			"/>
			<polygon class="st1" points="181.9,54.6 192.4,48.6 189.7,44.4 179.6,50.2 			"/>
			<polygon class="st1" points="179.6,50.2 189.7,44.4 181.7,39.8 171.6,45.6 			"/>
			<polygon class="st1" points="221.4,33.9 180.9,57.4 184.6,81.2 225.2,57.8 			"/>
			<polygon class="st1" points="230.3,61.3 230.3,56.4 226,58.9 			"/>
			<polygon class="st1" points="234,62.9 233.3,63.3 226.9,59.6 227.6,59.2 			"/>
			<polygon class="st1" points="230.9,61.1 227.6,59.2 226.9,59.6 230.2,61.5 			"/>
			<polygon class="st1" points="234,66.8 233.3,67.2 233.2,63.3 234,62.9 			"/>
			<polygon class="st1" points="185.3,95.4 185.3,88.8 181,86.4 181,93 			"/>
			<polygon class="st1" points="185.3,112.6 185.3,105.8 181,103.4 181,110.2 			"/>
			<polygon class="st1" points="185.3,118 185.3,114.4 181,112 181,115.6 			"/>
			<polygon class="st1" points="185.3,104 185.3,97.2 181,94.8 181,101.6 			"/>
			<polygon class="st1" points="185.3,112.6 176.4,117.8 172.1,115.3 181,110.2 			"/>
			<polygon class="st1" points="185.3,104 176.4,109.2 172.1,106.7 181,101.6 			"/>
			<polygon class="st1" points="185.3,95.4 176.4,100.6 172.1,98.1 181,93 			"/>
			<path class="st1" d="M186.4,117.4V88.2l-1.1,0.6v6.6l-9,5.2V94l-1.1,0.6v29.2l1.1-0.6v-3.6l9-5.2v3.6L186.4,117.4z M176.4,102.4
				l9-5.2v6.8l-9,5.2V102.4z M176.4,117.8V111l9-5.2v6.8L176.4,117.8z"/>
			<polygon class="st1" points="175.3,123.8 171.2,121.4 171,92.2 175.3,94.6 			"/>
			<polygon class="st1" points="220.9,70.4 220.9,81.9 233.5,74.6 233.5,63.1 			"/>
			<polygon class="st1" points="220.9,81.9 212.1,76.8 212.1,65.3 220.9,70.4 			"/>
			<polygon class="st1" points="226,58.9 230.3,56.4 224.5,53 225.2,57.8 212.1,65.3 220.9,70.4 233.5,63.1 			"/>
			<polygon class="st1" points="191.5,77.2 191.8,77.1 191.8,51.1 191.5,51.2 			"/>
			<polygon class="st1" points="191.8,77.1 212.7,65 212.7,52.3 191.8,64.4 			"/>
			<polygon class="st1" points="191.2,63.1 184.7,66.8 195.8,73.2 202.2,69.5 			"/>
			<polygon class="st1" points="171.7,95.7 188.2,86.1 179.7,81.2 163.2,90.8 			"/>
			<polygon class="st1" points="171.7,96.8 171.7,95.7 163.2,90.8 163.2,91.9 			"/>
			<polygon class="st1" points="195.8,73.2 188.2,86.1 179.7,81.2 187.2,68.3 			"/>
			<polygon class="st2" points="195.8,73.2 188.2,86.1 179.7,81.2 187.2,68.3 			"/>
			<polygon class="st1" points="202.2,69.5 195.8,73.2 188,86.2 188.1,86.2 171.7,95.7 171.7,96.8 188.5,87.2 196.1,74.1 
				202.2,70.6 			"/>
			<path class="st1" d="M200.5,40.3c1.5,0.9,1.5,2.3,0,3.2c-1.7,0.9-3.8,0.9-5.5,0c-1.5-0.9-1.5-2.3,0-3.2
				C196.7,39.4,198.8,39.4,200.5,40.3z"/>
			<polygon class="st1" points="212.7,65 213,64.8 213,38.8 212.7,39 			"/>
			<polygon class="st1" points="191,39 189.1,37.9 188.7,38.1 190.6,39.2 			"/>
			<polygon class="st1" points="191.6,38.6 189.7,37.6 189.4,37.8 191.3,38.9 			"/>
			<polygon class="st1" points="192.3,38.3 190.4,37.2 190,37.4 191.9,38.5 			"/>
			<polygon class="st1" points="192.9,37.9 191.1,36.8 190.7,37 192.6,38.1 			"/>
			<polygon class="st1" points="193.6,37.5 191.7,36.4 191.4,36.6 193.2,37.7 			"/>
			<polygon class="st1" points="194.3,37.1 192.4,36 192,36.2 193.9,37.3 			"/>
			<polygon class="st1" points="194.9,36.7 193,35.6 192.7,35.9 194.6,36.9 			"/>
			<polygon class="st1" points="195.6,36.4 193.7,35.3 193.3,35.5 195.2,36.6 			"/>
			<polygon class="st1" points="196.2,36 194.4,34.9 194,35.1 195.9,36.2 			"/>
			<polygon class="st1" points="196.9,35.6 195,34.5 194.7,34.7 196.5,35.8 			"/>
			<polygon class="st1" points="197.6,35.2 195.7,34.1 195.3,34.3 197.2,35.4 			"/>
			<polygon class="st1" points="198.2,34.8 196.3,33.7 196,33.9 197.9,35 			"/>
			<polygon class="st1" points="198.9,34.4 197,33.4 196.6,33.6 198.5,34.7 			"/>
			<polygon class="st1" points="199.5,34.1 197.6,33 197.3,33.2 199.2,34.3 			"/>
			<polygon class="st1" points="187.4,36.9 185.5,35.8 185.1,36 187,37.1 			"/>
			<polygon class="st1" points="188,36.5 186.1,35.5 185.8,35.7 187.7,36.8 			"/>
			<polygon class="st1" points="188.7,36.2 186.8,35.1 186.4,35.3 188.3,36.4 			"/>
			<polygon class="st1" points="189.3,35.8 187.4,34.7 187.1,34.9 189,36 			"/>
			<polygon class="st1" points="190,35.4 188.1,34.3 187.7,34.5 189.6,35.6 			"/>
			<polygon class="st1" points="190.6,35 188.8,33.9 188.4,34.1 190.3,35.2 			"/>
			<polygon class="st1" points="191.3,34.6 189.4,33.5 189.1,33.8 190.9,34.8 			"/>
			<polygon class="st1" points="192,34.3 190.1,33.2 189.7,33.4 191.6,34.5 			"/>
			<polygon class="st1" points="192.6,33.9 190.7,32.8 190.4,33 192.3,34.1 			"/>
			<polygon class="st1" points="193.3,33.5 191.4,32.4 191,32.6 192.9,33.7 			"/>
			<polygon class="st1" points="193.9,33.1 192.1,32 191.7,32.2 193.6,33.3 			"/>
			<polygon class="st1" points="194.6,32.7 192.7,31.6 192.3,31.8 194.2,32.9 			"/>
			<polygon class="st1" points="195.3,32.3 193.4,31.3 193,31.5 194.9,32.6 			"/>
			<polygon class="st1" points="195.9,32 194,30.9 193.7,31.1 195.6,32.2 			"/>
			<polygon class="st1" points="204.3,41.2 202.4,40.1 202,40.3 203.9,41.4 			"/>
			<polygon class="st1" points="204.9,40.8 203,39.8 202.7,40 204.6,41 			"/>
			<polygon class="st1" points="205.6,40.5 203.7,39.4 203.3,39.6 205.2,40.7 			"/>
			<polygon class="st1" points="206.2,40.1 204.4,39 204,39.2 205.9,40.3 			"/>
			<polygon class="st1" points="206.9,39.7 205,38.6 204.7,38.8 206.5,39.9 			"/>
			<polygon class="st1" points="207.6,39.3 205.7,38.2 205.3,38.4 207.2,39.5 			"/>
			<polygon class="st1" points="208.2,38.9 206.3,37.8 206,38.1 207.9,39.1 			"/>
			<polygon class="st1" points="200.7,39.1 198.8,38 198.4,38.2 200.3,39.3 			"/>
			<polygon class="st1" points="201.3,38.7 199.4,37.6 199.1,37.9 201,38.9 			"/>
			<polygon class="st1" points="202,38.4 200.1,37.3 199.7,37.5 201.6,38.6 			"/>
			<polygon class="st1" points="202.6,38 200.7,36.9 200.4,37.1 202.3,38.2 			"/>
			<polygon class="st1" points="203.3,37.6 201.4,36.5 201,36.7 202.9,37.8 			"/>
			<polygon class="st1" points="203.9,37.2 202.1,36.1 201.7,36.3 203.6,37.4 			"/>
			<polygon class="st1" points="204.6,36.8 202.7,35.8 202.4,36 204.2,37 			"/>
			<polygon class="st1" points="194.3,28.5 212.6,39 213,38.8 194.7,28.2 			"/>
			<polygon class="st1" points="196.9,48.1 197.3,47.9 178.9,37.3 178.6,37.5 			"/>
			<path class="st1" d="M198.8,37.6c-0.5-0.3-1.4,0.9-2,1.2c-0.2,0.1-0.4,0.3-0.4,0.6v2.4c0,0.2,0.2,0.5,0.4,0.6
				c0.6,0.3,1.4,0.3,2,0c0.2-0.1,0.4-0.3,0.4-0.6v-4C199.1,37.6,199,37.7,198.8,37.6z"/>
			<path class="st1" d="M201.3,37.6V26.2c-0.1-0.2-0.2-0.4-0.4-0.6c-0.9-0.5-3-0.3-4.5,0.6c-1.1,0.6-1.7,1.4-1.6,2l0.2,11.4
				c0.1,0.4,0.1,0.6,0.2,0.6c0.9,0.5,3,0.3,4.5-0.6C200.9,39,201.4,38.2,201.3,37.6z"/>
			<path class="st1" d="M200.9,25.6c0.9,0.5,0.4,1.7-1.1,2.6s-3.6,1.2-4.5,0.6s-0.4-1.7,1.1-2.6S199.9,25.1,200.9,25.6z"/>
			<path class="st1" d="M198.8,10.3c-0.5-0.3-1.4,0.9-2,1.2c-0.2,0.1-0.4,0.3-0.4,0.6v15.4c0,0.2,0.2,0.5,0.4,0.6
				c0.6,0.3,1.4,0.3,2,0c0.2-0.1,0.4-0.3,0.4-0.6v-17C199.1,10.3,199,10.4,198.8,10.3z"/>
			<path class="st1" d="M199.1,10.8c0.1-0.8-0.3-1.2-1.1-0.9c-0.8,0.3-1.4,1-1.6,1.9c-0.1,0.8,0.3,1.2,1.1,0.9
				C198.3,12.3,198.9,11.6,199.1,10.8z"/>
			<path class="st1" d="M198.9,10.8c0.1-0.7-0.3-1-0.9-0.8c-0.7,0.3-1.2,0.9-1.4,1.6c-0.1,0.6,0.3,1,0.9,0.8
				C198.2,12.1,198.7,11.6,198.9,10.8z"/>
			<polygon class="st1" points="145.9,84 130.5,75.1 135.4,41.2 150.4,49.8 			"/>
			<path class="st1" d="M183.6,35.4l-22.4,12.9v43.6l18.5-10.7l7.5-13L183.6,35.4z M174.3,51.2l-6.5-3.6l6.5-3.8L174.3,51.2z
				 M176.5,52.5v-9.8l3.3-1.9l1.7,14.5L176.5,52.5z"/>
			<polygon class="st1" points="150.4,49.9 161.2,48.3 183.6,35.4 160.2,21.9 137.8,34.8 135.4,41.2 			"/>
			<polygon class="st1" points="130.5,85.6 130.5,75.1 145.9,84 145.9,94.9 			"/>
			<polygon class="st1" points="161.2,91.9 145.9,94.9 145.9,84 150.4,49.9 161.2,48.3 			"/>
			<polygon class="st1" points="145.9,84 159.5,80.8 159.5,51.5 150.2,51 			"/>
			<polygon class="st1" points="167.8,47.6 163.9,49.9 163.9,79 174.3,73 174.3,51.2 			"/>
			<polygon class="st1" points="181.4,39.8 179.7,40.7 181.5,55.3 176.5,52.5 176.5,68.3 183.9,62.9 			"/>
			<polygon class="st3" points="174.3,51.2 174.3,43.9 167.8,47.6 			"/>
			<polygon class="st3" points="176.5,42.6 176.5,52.5 181.5,55.3 179.7,40.7 			"/>
			<polygon class="st3" points="135.4,41.2 130.5,75.1 134.7,66.6 			"/>
			<polygon class="st3" points="148.3,48.6 139.4,43.5 139.2,43.5 138.2,62.6 148.3,56.8 			"/>
			<polygon class="st1" points="150.4,49.9 161.2,50.3 161.2,48.3 			"/>
			<polygon class="st1" points="174.2,76.2 171.4,77.8 171.4,76.1 174.2,74.5 			"/>
			<polygon class="st1" points="171.8,84.4 175.5,76.7 175.5,41.4 175.3,41.4 175.3,76.7 171.6,84.3 162.6,89.2 162.6,47.5 
				162.4,47.6 162.4,89.5 171.7,84.4 			"/>
			<polygon class="st1" points="183.8,37.2 183.6,35.4 161.2,48.3 161.2,50.3 			"/>
			<path class="st1" d="M120.8,105.1l0.2-33c0,0-5.5,2.1-6.6,5.1s-4.3,16.2-4.3,16.2l6.2,14.9L120.8,105.1z"/>
			<path class="st1" d="M121,72.1l-2.6-2c0,0-5.5,2.2-6.6,5.2s-4.3,16.2-4.3,16.2l2.6,2c0,0,3.2-13.2,4.3-16.2S121,72.1,121,72.1z"
				/>
			<path class="st1" d="M164.2,93.2h-0.6V75.5c-0.1-0.8,0.5-1.6,1.3-1.7c0.4,0,0.7,0,1,0.2l2.5,1.3c0.4,0.3,1,0.3,1.3-0.1
				c0.2-0.2,0.2-0.5,0.2-0.8V60.8c-0.1-1.2-0.7-2.3-1.7-3l-6.6-4.3L162,53l6.6,4.3c1.1,0.8,1.8,2.1,1.9,3.5v13.6
				c0.1,0.8-0.5,1.6-1.3,1.7c-0.4,0-0.7,0-1-0.2l-2.4-1.2c-0.4-0.3-1-0.3-1.3,0.1c-0.2,0.2-0.2,0.5-0.2,0.8L164.2,93.2z"/>
			<path class="st1" d="M225.8,59.3c-0.2,0-0.4-0.1-0.6-0.2l-6.1-3.5l0.3-0.5l6.1,3.6c0.1,0.1,0.3,0.2,0.4,0.1
				c0.1-0.1,0.2-0.2,0.1-0.4v-9.7c0-0.5-0.3-1-0.8-1.3l-6.1-3.5l0.3-0.5l6.1,3.5c0.6,0.4,1,1.1,1.1,1.8v9.7c0,0.3-0.1,0.7-0.4,0.8
				C226,59.2,225.9,59.3,225.8,59.3z"/>
			<path class="st1" d="M164.3,72.5c-0.5,0-0.9,0.1-1.3,0.3l2.8,4.6c1.3-0.7,1.7-2.4,1-3.7C166.2,73,165.3,72.5,164.3,72.5
				L164.3,72.5z"/>
			<path class="st1" d="M166.2,76.3c0,1.2-0.9,1.7-1.9,1.1c-1.1-0.7-1.8-2-1.9-3.3c0-1.2,0.9-1.7,1.9-1.1
				C165.4,73.8,166.1,75,166.2,76.3z"/>
			<path class="st1" d="M166,76.2c0,1-0.7,1.5-1.7,1c-1-0.6-1.6-1.7-1.6-2.9c0-1.1,0.7-1.5,1.6-1C165.3,74,165.9,75,166,76.2z"/>
			<path class="st1" d="M130.1,53.4c-0.5,0-0.9,0.1-1.3,0.3c0.5,0.8,2.2,3.7,2.7,4.6c1.3-0.8,1.7-2.4,0.9-3.7
				C132,53.8,131.1,53.3,130.1,53.4L130.1,53.4z"/>
			<path class="st1" d="M132,57.2c0,1.2-0.9,1.7-1.9,1.1c-1.1-0.7-1.8-2-1.9-3.3c0-1.2,0.8-1.7,1.9-1.1
				C131.2,54.6,132,55.8,132,57.2z"/>
			<path class="st1" d="M131.8,57c0,1-0.7,1.5-1.7,1c-1-0.6-1.6-1.7-1.7-2.9c0-1.1,0.7-1.5,1.7-1C131.1,54.8,131.7,55.9,131.8,57z"
				/>
			<path class="st1" d="M172.4,74.4c0,0.6-0.4,0.8-0.9,0.5l-2.5-1.5c-0.5-0.4-0.9-0.9-0.9-1.6V60.6c0-0.6,0.4-0.8,0.9-0.5l2.5,1.5
				c0.5,0.4,0.9,0.9,0.9,1.6V74.4z"/>
			<path class="st1" d="M228.3,47.9c-0.1-1.3-0.8-2.6-1.9-3.3c-0.4-0.3-0.9-0.3-1.4-0.1l0,0c-1.3,0.8-1.7,2.4-1,3.7s2.4,1.7,3.7,1
				h0.1l0,0l0,0C228.2,48.9,228.4,48.4,228.3,47.9z"/>
			<path class="st1" d="M122.8,83.3c1.7-1.7,2.6-4.4,2.1-6s-2.5-1.6-4.2,0l-31.5,30.1c0,0-6.3,7-8.2,15.3S76.7,140,76.7,140
				l-4.9,5.8v4l7.6-4.4l13.1-28.3c2.1-4.1,4.8-7.8,8-11.1C106,100.3,122.8,83.3,122.8,83.3z"/>
			<path class="st1" d="M71.8,149.7v-4l4.9-5.8c0,0,2.3-9,4.2-17.3s8.2-15.3,8.2-15.3l31.4-30c1.2-1.2,2.5-1.5,3.4-1l0,0l-3.4-2
				c-0.9-0.5-2.2-0.2-3.4,1l-31.4,30c0,0-6.3,6.9-8.2,15.2S73.2,138,73.2,138l-4.9,5.7v3.9l3.6,2.2l0.2-0.4L71.8,149.7z"/>
			<path class="st1" d="M85.1,123.1c-1.1,0.7-2.1,0.1-2.1-1.2c0.1-1.4,0.8-2.8,2.1-3.6L125,92.8l-0.5,7.9L85.1,123.1z"/>
			<path class="st1" d="M83,121.9c0.1-1.4,0.8-2.8,2.1-3.6L125,92.8l-0.8-4.2l-41.8,28c-1.2,0.8-2,2.1-2,3.6
				c-0.1,0.6,0.2,1.1,0.7,1.4l2.5,1.6C83.2,122.9,82.9,122.4,83,121.9z"/>
			<path class="st1" d="M95.9,117.4l-3.3-13.5l0,0v-0.2l0,0c-0.3-1-1.2-1.3-2.3-0.7c-1.4,0.9-2.3,2.4-2.3,4.1c0,0.1,0,0.2,0,0.3l0,0
				l1.5,14.4l0,0l-4,15.5l0,0c-0.1,0.4-0.2,0.8-0.2,1.3c0,2.1,1.5,3,3.3,1.9c1.6-1.1,2.8-2.7,3.2-4.6l0,0l3.9-16
				C96,119.1,96,118.2,95.9,117.4z"/>
			<path class="st1" d="M85.3,138.6c0-0.4,0.1-0.8,0.2-1.3l0,0l4-15.5l-1.5-14.4l0,0c0-0.1,0-0.2,0-0.3c0.1-1.7,1-3.2,2.3-4.1
				c0.5-0.3,1.1-0.4,1.6-0.2l-3.5-2.3c-0.5-0.1-1-0.1-1.5,0.2c-1.4,0.9-2.3,2.4-2.4,4.1c0,0.1,0,0.2,0,0.3l0,0l1.5,14.5l-4,15.5l0,0
				c-0.1,0.4-0.2,0.8-0.2,1.3c-0.1,0.9,0.3,1.8,1.2,2.2l3,2l0,0C85.5,140.1,85.2,139.4,85.3,138.6z"/>
			<path class="st1" d="M135.1,80.6c0-2.1-1.5-2.9-3.3-1.9c-1.9,1.3-3.1,3.4-3.3,5.7l-1.5,27.5l9.4-5.4L135.1,80.6z"/>
			<path class="st1" d="M131.8,78.7c0.7-0.5,1.5-0.6,2.3-0.2l0,0l-5.9-2.9c-0.8-0.5-1.8-0.5-2.5,0.1c-1.9,1.3-3.2,3.4-3.3,5.7
				l-1.4,27.5l6.2,3l1.5-27.5C128.7,82,129.9,79.9,131.8,78.7z"/>
			<path class="st1" d="M113,89.8l9.4-7.6c0.6-0.4,1.3-0.4,1.8-0.1c1.7,0.8,2.9,2.3,3.2,4.1c0.2,0.6,0,1.3-0.5,1.8l-9.4,7.6
				c-0.5,0.4-1.2,0.4-1.8,0.1c-1.7-0.8-2.9-2.3-3.3-4.1C112.3,91,112.5,90.3,113,89.8z"/>
			<path class="st1" d="M112.5,91.6c0.4,1.8,1.6,3.3,3.3,4.1c0.6,0.3,1.3,0.3,1.8-0.1c0.5-0.5,0.7-1.1,0.5-1.8
				c-0.4-1.8-1.6-3.3-3.2-4.1c-0.7-0.5-1.7-0.3-2.2,0.5C112.4,90.6,112.3,91.2,112.5,91.6z"/>
			<path class="st1" d="M92.8,106.8l20.8-15.5c0.3-0.2,0.7-0.2,1,0c1,0.4,1.7,1.3,1.9,2.3c0.1,0.4,0,0.7-0.3,1l-20.8,15.5
				c-0.3,0.2-0.7,0.2-1.1,0c-1-0.4-1.6-1.3-1.8-2.3C92.4,107.4,92.5,107,92.8,106.8z"/>
			<path class="st1" d="M99.5,109.1l-7.6-4.5c-0.4-0.2-1-0.1-1.3,0.1c-1.1,0.7-1.8,2-1.9,3.3c0,0.5,0.2,1,0.6,1.2l7.6,4.5
				c0.4,0.2,1,0.1,1.3-0.2c1.1-0.7,1.8-2,1.9-3.3C100.1,109.9,99.9,109.4,99.5,109.1z"/>
			<path class="st1" d="M100.8,124.6l-7.6-4.5c-0.4-0.2-1-0.1-1.3,0.1c-1.1,0.7-1.9,2-1.9,3.4c-0.1,0.5,0.2,1,0.6,1.2l7.6,4.5
				c0.4,0.2,1,0.2,1.3-0.1c1.1-0.7,1.8-2,1.9-3.3C101.5,125.4,101.3,124.9,100.8,124.6z"/>
			<path class="st1" d="M98.4,155.9l-21.8-12.8c-0.4-0.2-1-0.2-1.3,0.1c-1.1,0.7-1.9,2-1.9,3.4c-0.1,0.5,0.2,1,0.6,1.2l21.8,12.8
				c0.4,0.2,1,0.2,1.3-0.1c1.1-0.7,1.8-2,1.9-3.3C99,156.7,98.8,156.2,98.4,155.9z"/>
			<path class="st1" d="M97.6,139.2l-7.6-4.5c-0.4-0.2-1-0.1-1.3,0.1c-1.1,0.7-1.8,2-1.9,3.3c-0.1,0.5,0.2,1,0.6,1.2l7.6,4.5
				c0.4,0.2,1,0.2,1.3-0.1c1.1-0.7,1.8-2,1.9-3.3C98.2,139.9,98,139.4,97.6,139.2z"/>
			<path class="st1" d="M94.3,143.9c0-0.4,0.1-0.9,0.2-1.3l0,0l4-15.5L97,112.6l0,0c0-0.1,0-0.2,0-0.3c0.1-1.7,1-3.2,2.3-4.1
				c0.5-0.3,1.1-0.4,1.6-0.2l-3.5-2.3c-0.5-0.1-1-0.1-1.5,0.2c-1.4,0.9-2.3,2.4-2.3,4.1c0,0.1,0,0.2,0,0.3l0,0l1.5,14.4l-4,15.5l0,0
				c-0.1,0.4-0.2,0.8-0.2,1.3c-0.1,0.9,0.3,1.8,1.2,2.2l3,2l0,0C94.6,145.3,94.3,144.6,94.3,143.9z"/>
			<path class="st1" d="M104.9,122.6l-3.3-13.5l0,0V109l0,0c-0.3-1-1.2-1.3-2.2-0.7c-1.4,0.9-2.3,2.4-2.3,4.1c0,0.1,0,0.2,0,0.3l0,0
				l1.5,14.4l0,0l-4,15.5l0,0c-0.1,0.4-0.2,0.8-0.2,1.3c0,2.1,1.5,2.9,3.3,1.9c1.6-1.1,2.7-2.7,3.1-4.6l0,0l3.9-16
				C105,124.3,105.1,123.5,104.9,122.6z"/>
			<path class="st1" d="M100.4,131.7c-1.1,0.7-2,0.1-2-1.2c0.1-1.4,0.8-2.8,2-3.6l26.7-17l-0.5,7.9L100.4,131.7z"/>
			<path class="st1" d="M98.3,130.5c0.1-1.4,0.8-2.8,2-3.6l26.7-17l-2.6-1.7l-26.6,17.1c-1.2,0.8-1.9,2.1-2,3.6
				c-0.1,0.6,0.2,1.1,0.7,1.4l2.5,1.6C98.5,131.5,98.3,131,98.3,130.5z"/>
			<path class="st1" d="M146.8,97.4c1.7-1.7,2.6-4.4,2-6c-0.6-1.6-2.5-1.6-4.2,0l-31.4,30.1c0,0-6.3,7-8.2,15.2
				c-1.9,8.3-4.2,17.3-4.2,17.3l-4.9,5.7v3.9l7.6-4.4l13.1-28.3c2.1-4.1,4.8-7.8,8-11.1C130,114.3,146.8,97.4,146.8,97.4z"/>
			<path class="st1" d="M95.8,163.7v-4l4.9-5.7c0,0,2.3-9,4.2-17.3s8.2-15.3,8.2-15.3l31.4-30.1c1.2-1.2,2.5-1.5,3.4-1.1l0,0l-3.4-2
				c-0.9-0.5-2.2-0.2-3.4,1l-31.4,30.1c0,0-6.3,7-8.2,15.3S97.2,152,97.2,152l-4.9,5.8v4L96,164l0.2-0.4L95.8,163.7z"/>
			<path class="st1" d="M98.2,112.3c0,0.8,0.6,1.2,1.3,0.8c0.8-0.5,1.2-1.4,1.3-2.3c0-0.8-0.6-1.2-1.3-0.8
				C98.7,110.5,98.2,111.4,98.2,112.3z"/>
			<path class="st1" d="M99.5,129.9c0,0.8,0.6,1.2,1.3,0.8c0.8-0.5,1.3-1.4,1.3-2.3c0-0.8-0.6-1.2-1.3-0.8
				C100,128.1,99.5,128.9,99.5,129.9z"/>
			<path class="st1" d="M96.1,143.6c0,0.8,0.6,1.2,1.3,0.8c0.8-0.5,1.3-1.3,1.3-2.3c0-0.8-0.6-1.2-1.3-0.8
				C96.7,141.9,96.2,142.7,96.1,143.6z"/>
			<path class="st1" d="M116.5,125.6c0-0.7-0.2-1.4-0.6-1.9c-0.8-0.3-1.6-0.2-2.2,0.3c-2,1.3-3.3,3.5-3.4,5.9c0,0.7,0.2,1.4,0.6,1.9
				c0.8,0.3,1.6,0.1,2.3-0.3C115.1,130.2,116.3,128,116.5,125.6z"/>
			<path class="st1" d="M115.9,123.7c0.4,0.5,0.6,1.2,0.6,1.9c-0.1,2.4-1.4,4.6-3.4,5.9c-0.7,0.5-1.5,0.6-2.3,0.3
				c0.6,0.7,1.6,0.8,2.8,0.1c2-1.3,3.3-3.5,3.4-5.9C117.1,125.1,116.7,124.2,115.9,123.7z"/>
			<path class="st1" d="M122.3,117.5c0-0.4-0.1-0.8-0.4-1.1c-0.3,0-0.7,0-1,0.2c-1.1,0.7-1.8,1.9-1.8,3.2c0,0.4,0.1,0.8,0.4,1.1
				c0.3,0,0.7,0,1-0.2C121.6,120,122.3,118.8,122.3,117.5z"/>
			<path class="st1" d="M121.9,116.4c0.3,0.3,0.4,0.7,0.4,1.1c-0.1,1.3-0.8,2.5-1.8,3.2c-0.3,0.2-0.7,0.3-1,0.2c0.4,0.3,1,0.3,1.4,0
				c1.1-0.7,1.8-1.9,1.8-3.2C122.8,116.9,122.4,116.5,121.9,116.4z"/>
			<path class="st1" d="M143.8,95.5c0,1.2,0.8,1.7,1.8,1.1c1.1-0.7,1.8-1.9,1.8-3.2c0-1.2-0.8-1.7-1.8-1.1
				C144.5,93,143.8,94.2,143.8,95.5z"/>
			<path class="st1" d="M130.3,83.6c0,1.2,0.8,1.7,1.8,1.1c1.1-0.7,1.8-1.9,1.8-3.2c0-1.2-0.8-1.7-1.8-1.1
				C131.1,81.1,130.4,82.3,130.3,83.6z"/>
			<polygon class="st1" points="100.6,154 95.7,159.8 92.3,157.8 97.2,152 			"/>
			<path class="st1" d="M117.7,138l13.2-10.6c0.4-0.3,1-0.3,1.5-0.1c1.3,0.6,2.2,1.8,2.5,3.2c0.1,0.5,0,1-0.4,1.4l-13.2,10.6
				c-0.4,0.3-1,0.3-1.4,0.1c-1.3-0.6-2.3-1.8-2.5-3.2C117.1,138.9,117.3,138.3,117.7,138z"/>
			<path class="st1" d="M117.3,139.4c0.3,1.4,1.2,2.6,2.5,3.2c0.5,0.2,1,0.2,1.4-0.1c0.4-0.4,0.5-0.9,0.4-1.4
				c-0.3-1.4-1.2-2.6-2.5-3.2c-0.6-0.4-1.4-0.2-1.7,0.4C117.2,138.6,117.1,139,117.3,139.4z"/>
			<path class="st1" d="M101.8,151.2l16.3-12.1c0.3-0.2,0.6-0.2,0.8,0c0.8,0.3,1.3,1,1.4,1.8c0.1,0.3,0,0.6-0.2,0.8l-16.3,12.1
				c-0.3,0.1-0.6,0.1-0.8,0c-0.8-0.3-1.3-1-1.5-1.8C101.5,151.7,101.6,151.4,101.8,151.2z"/>
			<polygon class="st1" points="44.5,118.8 102.6,152.8 99.3,152.1 41,118.4 			"/>
			<polygon class="st1" points="54.9,123.2 113,157.1 106.7,157.5 48.6,123.6 			"/>
			<path class="st1" d="M114.2,164.6c0-0.7-0.2-1.3-0.6-1.9c-0.7-0.2-1.4,0-2,0.4c-1.9,1.3-3.2,3.4-3.3,5.7c0,0.7,0.2,1.3,0.6,1.9
				c0.7,0.2,1.4,0,2-0.4C112.8,169.1,114,166.9,114.2,164.6z"/>
			<path class="st1" d="M99.3,152.1l3.3,0.7l4.2,4.7l6.3-0.4l1.3,1.7c2.1,0,3.5,1.6,3.5,4.5c-0.2,4.4-2.6,8.5-6.3,10.9L89.2,187
				L99.3,152.1z"/>
			<polygon class="st1" points="89.2,187 96,183.1 101.7,152.6 99.3,152.1 			"/>
			<polygon class="st1" points="89.2,187 31,153.3 41,118.4 99.3,152.1 			"/>
			<polygon class="st1" points="88.6,186.6 98.4,152.4 41.4,119.4 31.7,153.6 			"/>
			<path class="st1" d="M59.7,130l-18.2-10.6l-9.8,34.2l21.8-13.4C57,138,59.3,134.2,59.7,130z"/>
			<polygon class="st1" points="48.6,160.8 42.8,164.1 41.6,164.5 40.6,163.9 41.2,163.2 47,159.9 			"/>
			<polygon class="st1" points="41.6,165.1 40.6,164.5 40.6,163.9 41.6,164.5 			"/>
			<polygon class="st1" points="41.6,165.1 42.8,164.7 42.8,164.1 41.6,164.5 			"/>
			<polygon class="st1" points="48.6,161.1 46.5,162.3 46.8,162.4 42.8,164.7 42.8,164.1 48.6,160.8 			"/>
			<polygon class="st1" points="41.1,156.5 35.3,159.8 34.2,160.2 33.1,159.5 33.7,158.9 39.5,155.5 			"/>
			<polygon class="st1" points="34.2,160.7 33.1,160.1 33.1,159.5 34.2,160.2 			"/>
			<polygon class="st1" points="34.2,160.7 35.3,160.4 35.3,159.8 34.2,160.2 			"/>
			<polygon class="st1" points="41.1,156.8 39.1,157.9 39.3,158.1 35.3,160.4 35.3,159.8 41.1,156.5 			"/>
			<polygon class="st1" points="33.9,152.4 28.2,155.7 27,156 26,155.4 26.6,154.8 31.4,152 31.1,153 31.7,153.4 33.6,152.2 			"/>
			<polygon class="st1" points="27,156.6 26,156 26,155.4 27,156 			"/>
			<polygon class="st1" points="27,156.6 28.2,156.3 28.2,155.7 27,156 			"/>
			<polygon class="st1" points="33.9,152.6 31.9,153.8 32.2,154 28.2,156.3 28.2,155.7 33.9,152.4 			"/>
			<polygon class="st1" points="56,165.1 50.2,168.4 49.1,168.8 48,168.2 48.7,167.5 54.5,164.2 			"/>
			<polygon class="st1" points="49.1,169.4 48,168.8 48,168.2 49.1,168.8 			"/>
			<polygon class="st1" points="49.1,169.4 50.2,169 50.2,168.4 49.1,168.8 			"/>
			<polygon class="st1" points="56,165.4 54,166.6 54.2,166.7 50.2,169 50.2,168.4 56,165.1 			"/>
			<polygon class="st1" points="63.5,169.4 57.7,172.7 56.6,173.1 55.5,172.5 56.1,171.8 61.9,168.5 			"/>
			<polygon class="st1" points="56.6,173.7 55.5,173.1 55.5,172.5 56.6,173.1 			"/>
			<polygon class="st1" points="56.6,173.7 57.7,173.3 57.7,172.7 56.6,173.1 			"/>
			<polygon class="st1" points="63.5,169.7 61.5,170.9 61.7,171 57.7,173.3 57.7,172.7 63.5,169.4 			"/>
			<polygon class="st1" points="70.9,173.7 65.1,177.1 64,177.4 62.9,176.8 63.6,176.1 69.3,172.8 			"/>
			<polygon class="st1" points="64,178 62.9,177.4 62.9,176.8 64,177.4 			"/>
			<polygon class="st1" points="64,178 65.1,177.6 65.1,177.1 64,177.4 			"/>
			<polygon class="st1" points="70.9,174 68.9,175.2 69.1,175.3 65.1,177.6 65.1,177.1 70.9,173.7 			"/>
			<polygon class="st1" points="78.4,178 72.6,181.4 71.5,181.7 70.4,181.1 71,180.5 76.8,177.1 			"/>
			<polygon class="st1" points="71.5,182.3 70.4,181.7 70.4,181.1 71.5,181.7 			"/>
			<polygon class="st1" points="71.5,182.3 72.6,182 72.6,181.4 71.5,181.7 			"/>
			<polygon class="st1" points="78.4,178.3 76.4,179.5 76.6,179.6 72.6,182 72.6,181.4 78.4,178 			"/>
			<polygon class="st1" points="85.8,182.4 80,185.7 78.9,186.1 77.8,185.4 78.5,184.8 84.2,181.5 			"/>
			<polygon class="st1" points="78.9,186.6 77.8,186 77.8,185.4 78.9,186.1 			"/>
			<polygon class="st1" points="78.9,186.6 80,186.6 80,185.7 78.9,186.1 			"/>
			<polygon class="st1" points="85.8,182.7 83.8,183.8 84.3,184.1 80,186.6 80,185.7 85.8,182.4 			"/>
			<polygon class="st1" points="84.6,190.1 83.6,189.5 83.6,189 84.6,189.6 			"/>
			<polygon class="st1" points="84.6,190.1 85.7,190.1 85.7,189.2 84.6,189.6 			"/>
			<polygon class="st1" points="85.7,189.2 85.7,190.1 90,187.6 91.5,186.2 91.5,185.9 			"/>
			<polygon class="st1" points="91.3,185.7 89.2,187 88.6,186.6 88.9,185.6 84.2,188.3 83.6,189 84.6,189.6 85.7,189.2 91.5,185.9 
				91.3,185.7 			"/>
			<path class="st1" d="M113.5,162.8c0.4,0.5,0.7,1.2,0.6,1.9c-0.1,2.3-1.4,4.4-3.3,5.7c-0.6,0.4-1.3,0.5-2,0.4
				c0.8,0.6,1.9,0.6,2.7,0c1.9-1.3,3.2-3.4,3.3-5.7C114.9,163.8,114.3,163,113.5,162.8z"/>
			<polygon class="st1" points="97.4,180 101.6,161.5 106.2,161.3 102.1,162.1 			"/>
			<path class="st1" d="M161.2,137.1c0-0.8-0.1-1.6-0.2-2.4l1.3-1c0-0.4-0.1-0.8-0.2-1.2l-1.7-0.4c-0.2-0.5-0.3-0.9-0.6-1.4l1.3-1.4
				c-0.1-0.3-0.3-0.7-0.5-1l-2.5-1.2l0.7-1c-0.2-0.2-0.5-0.4-0.8-0.6l-6.6-4.5l-9.1-4.1c-0.3-0.1-0.7-0.2-1-0.2l-0.5,0.8l-2.5-0.9
				c-0.4,0-0.7,0.1-1.1,0.2c-0.3,0.7-0.5,1.2-0.7,1.6l-2.6-0.6c-0.3,0.2-0.7,0.3-1.1,0.5c0,0-0.1,0-0.1,0c-0.3,1.1-0.4,1.7-0.5,2.1
				l-0.4,0.2l-2.4-0.2c-0.4,0.3-0.8,0.6-1.2,0.9c-0.1,1-0.1,1.6-0.1,1.9c-0.4,0.3-0.8,0.7-1.2,1.1h-2c-0.4,0.4-0.7,0.8-1.1,1.2
				c0.2,0.9,0.2,1.3,0.3,1.7c-0.5,0.6-1,1.3-1.5,1.9l-1.7,0.2c-0.3,0.5-0.6,0.9-0.9,1.4c0.3,0.7,0.6,1,0.7,1.2
				c-0.6,0.9-1,1.8-1.5,2.7l-1.5,0.3c-0.2,0.5-0.5,1-0.7,1.5c0.5,0.4,0.8,0.6,1,0.8c-0.5,1.1-0.9,2.2-1.2,3.4l-1.4,0.3
				c-0.2,0.5-0.3,1-0.4,1.5c0.6,0.1,1,0.2,1.2,0.2c-0.3,1.1-0.5,2.2-0.6,3.4l-1.4,0.7c0,0.4-0.1,0.9-0.1,1.3c0,0,0,0.1,0,0.1
				c0.7-0.1,1-0.2,1.3-0.2c0,0.4,0,0.7,0,1c0,0.7,0,1.4,0.1,2l-1.3,1c0,0.4,0.1,0.8,0.2,1.2l1.4-0.2c0.2,0.7,0.4,1.5,0.7,2.2
				l-1.1,1.3c0.2,0.3,0.3,0.6,0.5,1l1.9-0.1c0.3,0.3,0.5,0.6,0.8,0.9l-0.9,1.4c0.2,0.2,0.5,0.4,0.8,0.6l3.7,0.8l-0.8,1.4l4,1.8
				l6.4,3.4l0.5-0.6l1.9,1.9c0.3,0.1,0.7,0.2,1,0.2c0.4-0.5,0.6-0.9,0.8-1.2l0.6,0.1l1.6,1.2c0.4,0,0.7-0.1,1.1-0.2
				c0.2-0.5,0.4-0.9,0.6-1.3c0.6-0.1,1.1-0.3,1.7-0.4l1.1,0.7c0.4-0.2,0.7-0.3,1.1-0.5l0.1-0.1c0.1-0.5,0.2-0.9,0.3-1.2
				c0.3-0.1,0.5-0.3,0.8-0.4c0.4-0.3,0.9-0.5,1.3-0.8l1,0.3v0.1c0.4-0.3,0.8-0.6,1.2-0.9c0-0.5,0-0.9,0.1-1.1
				c0.7-0.6,1.4-1.2,2.1-1.9h1.1c0.4-0.4,0.7-0.8,1.1-1.2c-0.1-0.4-0.1-0.8-0.2-1c0.7-0.9,1.4-1.8,2.1-2.7h1
				c0.3-0.5,0.6-0.9,0.9-1.4c-0.2-0.4-0.3-0.6-0.5-0.8c0.7-1.1,1.3-2.2,1.8-3.4h1c0.2-0.5,0.5-1,0.7-1.5c-0.3-0.3-0.6-0.4-0.7-0.6
				c0.5-1.2,0.9-2.4,1.3-3.6l1.1-0.2c0.1-0.5,0.3-1,0.4-1.5l-1-0.2c0.3-1.1,0.4-2.3,0.6-3.5l1.2-0.6c0-0.4,0.1-0.9,0.1-1.3v-0.1
				L161.2,137.1z"/>
			<path class="st1" d="M120.8,152.6c0-11.6,8-25.7,18-31.5c2.5-1.6,5.3-2.4,8.2-2.5l-4.6-1.9c-0.3-0.1-0.7-0.2-1-0.2l-0.5,0.8
				l-2.5-0.9c-0.4,0-0.7,0.1-1.1,0.2c-0.3,0.7-0.5,1.2-0.7,1.6l-2.6-0.6c-0.3,0.2-0.7,0.3-1.1,0.5c0,0-0.1,0-0.1,0
				c-0.3,1.1-0.4,1.7-0.5,2.1l-0.4,0.2l-2.4-0.2c-0.4,0.3-0.8,0.6-1.2,0.9c-0.1,1-0.1,1.6-0.1,1.9c-0.4,0.3-0.8,0.7-1.2,1.1h-2
				c-0.4,0.4-0.7,0.8-1.1,1.2c0.2,0.9,0.2,1.3,0.3,1.7c-0.5,0.6-1,1.3-1.5,1.9L121,129c-0.3,0.4-0.6,0.9-0.9,1.4
				c0.3,0.7,0.6,1,0.7,1.2c-0.6,0.9-1,1.8-1.5,2.7l-1.5,0.3c-0.2,0.5-0.5,1-0.7,1.5c0.5,0.4,0.8,0.6,1,0.8c-0.5,1.1-0.9,2.2-1.2,3.4
				l-1.4,0.3c-0.2,0.5-0.3,1-0.4,1.5c0.6,0.1,1,0.2,1.2,0.2c-0.3,1.1-0.5,2.2-0.6,3.4l-1.4,0.7c0,0.4-0.1,0.9-0.1,1.3
				c0,0,0,0.1,0,0.1c0.7-0.1,1-0.2,1.3-0.2c0,0.4,0,0.7,0,1c0,0.7,0,1.4,0.1,2l-1.3,1c0,0.4,0.1,0.8,0.2,1.2l1.4-0.2
				c0.2,0.7,0.4,1.5,0.7,2.2l-1.1,1.3c0.2,0.3,0.3,0.6,0.5,1l1.9-0.1c0.3,0.3,0.5,0.6,0.8,0.9l-0.9,1.4c0.2,0.2,0.5,0.4,0.8,0.6
				l3.7,0.8l-0.8,1.4l4,1.8l0.3,0.1C122.7,162,120.8,158.1,120.8,152.6z"/>
			<path class="st1" d="M155.6,156.2c0.3-0.5,0.6-0.9,0.9-1.4c-0.2-0.4-0.3-0.6-0.5-0.8c0.7-1.1,1.3-2.2,1.8-3.4h1
				c0.2-0.5,0.5-1,0.7-1.5c-0.3-0.3-0.5-0.4-0.7-0.6c0.5-1.2,0.9-2.4,1.3-3.6l1.1-0.2c0.1-0.5,0.3-1,0.4-1.5l-1-0.2
				c0.3-1.1,0.4-2.3,0.5-3.5l1.2-0.6c0-0.4,0.1-0.9,0.1-1.3v-0.1l-1.2-0.4c0-0.8-0.1-1.6-0.2-2.4l1.3-1c0-0.4-0.1-0.8-0.2-1.2
				l-1.7-0.4c-0.2-0.5-0.3-0.9-0.6-1.4l1-1.2c-0.7-0.3-1.3-0.7-1.8-1.2c-2.9-4.5-8.6-5.4-15.2-1.7c-9.5,5.5-17.2,18.9-17.2,29.9
				c0,4.8,1.5,8.3,3.9,10.3l1.2,0.6l0.5-0.6l1.9,1.9c0.3,0.1,0.7,0.2,1,0.2c0.4-0.5,0.6-0.9,0.8-1.2l0.6,0.1l1.6,1.2
				c0.4,0,0.7-0.1,1.1-0.2c0.2-0.5,0.4-0.9,0.6-1.3c0.6-0.1,1.1-0.3,1.7-0.5l1.1,0.7c0.4-0.2,0.7-0.3,1.1-0.5l0.1,0
				c0.1-0.5,0.2-0.9,0.3-1.2c0.3-0.1,0.5-0.3,0.8-0.4c0.4-0.3,0.9-0.5,1.3-0.8l1,0.3v0.1c0.4-0.3,0.8-0.6,1.2-0.9
				c0-0.5,0-0.9,0.1-1.1c0.7-0.6,1.4-1.2,2.1-1.9h1.1c0.4-0.4,0.7-0.8,1.1-1.2c-0.1-0.4-0.1-0.8-0.2-1c0.7-0.9,1.4-1.8,2.1-2.7
				L155.6,156.2z"/>
			<polygon class="st1" points="128.3,149.5 128.7,148 123,139.3 115.5,140.6 115.1,142.1 122.5,140.8 			"/>
			<polygon class="st1" points="130.3,143.6 131,142.1 126.1,133.4 117.8,134.7 117.1,136.2 125.2,134.8 			"/>
			<polygon class="st1" points="121,129.1 120.1,130.5 128.8,129.5 133.3,137.8 134.2,136.4 129.9,128.3 			"/>
			<polygon class="st1" points="125,124.2 123.9,125.3 133.1,125 137.1,132.7 138.2,131.5 134.2,124 			"/>
			<polygon class="st1" points="129.4,120.2 128.3,121.1 137.6,121.7 141.5,128.5 142.6,127.6 138.8,121 			"/>
			<polygon class="st1" points="134,117.6 132.8,118.1 142.1,119.8 146,125.5 147.2,124.9 143.3,119.4 			"/>
			<polygon class="st1" points="147.4,119.4 138.4,116.4 137.3,116.5 146.4,119.2 150.5,123.9 151.6,123.7 			"/>
			<polygon class="st1" points="127.5,155.2 127.5,153.8 121.1,145.1 114.3,146.4 114.2,147.8 120.7,146.6 			"/>
			<polygon class="st1" points="127.7,160.3 127.5,159 120.2,150.8 114.3,151.7 114.5,152.9 120.2,152.1 			"/>
			<polygon class="st1" points="129.2,164.3 128.7,163.5 120.5,155.9 115.5,156.1 116,157.1 120.8,157 			"/>
			<polygon class="st1" points="122,160 117.8,159.4 118.6,160 122.6,160.9 131.8,167.3 131,166.7 			"/>
			<path class="st1" d="M159.9,137.1c-0.2-0.6,0.1-1.3,0.6-1.6c0.6-1,1.2-2,1.6-3.1c-1.6,0.8-1.2,0.9-1.9,1.2
				c-0.6,0.3-0.7,0.3-1-0.4c-0.3-0.5-0.1-1.2,0.3-1.6l1.6-2.4c-0.1-0.3-0.3-0.6-0.5-1c-1.6,1.2-1.1,1.4-1.9,1.9
				c-0.6,0.4-0.7,0.5-1.2,0.1c-0.4-0.4-0.3-1,0-1.5l1.2-2.8c-0.2-0.2-0.5-0.4-0.8-0.6c-1.4,1.6-1,1.8-1.7,2.5
				c-0.6,0.6-0.7,0.7-1.3,0.5c-0.6-0.2-0.6-0.7-0.3-1.2l0.8-3.1c-0.3-0.1-0.7-0.2-1-0.2c-1.2,1.9-0.7,2.1-1.3,3
				c-0.5,0.7-0.6,0.8-1.3,0.9s-0.8-0.4-0.6-0.9l0.2-3.1c-0.4,0-0.7,0.1-1.1,0.2c-0.9,2-0.4,2.2-0.8,3.2c-0.4,0.8-0.5,0.9-1.2,1.2
				c-0.9,0.4-0.9,0-0.9-0.5l-0.4-2.8c-0.4,0.2-0.7,0.3-1.1,0.5H146c-0.5,2,0,2.2-0.2,3.2c-0.1,0.6-0.5,1.2-1.1,1.5
				c-0.9,0.7-1,0.3-1.1-0.1l-1-2.4c-0.4,0.3-0.8,0.6-1.2,0.9c-0.1,1.9,0.5,2,0.4,3c0,0.6-0.3,1.3-0.8,1.6c-0.9,0.9-1,0.6-1.2,0.3
				l-1.6-1.9c-0.4,0.4-0.7,0.8-1.1,1.2c0.3,1.6,0.9,1.7,1,2.5c0.1,0.6,0.1,0.8-0.5,1.7c-0.7,1.1-1,0.9-1.3,0.7l-2.1-1.2
				c-0.3,0.5-0.6,0.9-0.9,1.4c0.7,1.3,1.3,1.3,1.6,1.9c0.3,0.6,0.3,0.6-0.2,1.6c-0.6,1.1-0.9,1.1-1.2,1.1L131,142
				c-0.2,0.5-0.5,1-0.7,1.5c1,0.8,1.7,0.8,2.2,1.2c0.5,0.4,0.4,0.4,0.1,1.4c-0.4,1.2-0.7,1.3-1.1,1.4l-2.8,0.4
				c-0.1,0.5-0.3,1-0.4,1.5c1.3,0.3,2,0.2,2.6,0.4c0.6,0.2,0.6,0.2,0.5,1.1c-0.1,1.1-0.5,1.3-0.9,1.5l-3,1.2c0,0.4-0.1,0.9-0.1,1.3
				c0,0,0,0.1,0,0.1c1.5-0.2,2.2-0.4,2.9-0.4c0.7-0.1,0.7,0,0.8,0.8c0.2,0.6-0.1,1.3-0.6,1.6l-2.9,1.9c0,0.4,0.1,0.8,0.2,1.2
				c1.6-0.8,2.3-0.9,3-1.2c0.6-0.3,0.7-0.3,1,0.4c0.3,0.5,0.2,1.2-0.3,1.6l-2.6,2.5c0.1,0.3,0.3,0.6,0.5,1c1-0.7,2-1.4,3-2
				c0.6-0.5,0.7-0.5,1.2-0.1c0.5,0.4,0.3,0.9,0,1.5l-2.4,2.9c0.2,0.2,0.5,0.4,0.8,0.6c0.9-0.9,1.8-1.7,2.8-2.5
				c0.6-0.6,0.7-0.7,1.3-0.5s0.6,0.7,0.3,1.2l-1.9,3.1c0.3,0.1,0.7,0.2,1,0.2c0.7-1.1,1.6-2.1,2.4-3c0.5-0.7,0.6-0.8,1.3-0.9
				c0.8-0.1,0.8,0.4,0.6,0.9l-1.3,3.1c0.4,0,0.7-0.1,1.1-0.2c0.9-2,1.5-2.2,1.9-3.2c0.4-0.8,0.5-0.9,1.2-1.2c0.8-0.3,0.9,0,0.9,0.5
				l-0.7,2.9c0.4-0.2,0.7-0.3,1.1-0.5l0.1,0c0.5-2,1.1-2.2,1.4-3.2c0.1-0.6,0.5-1.2,1-1.5c0.9-0.6,1-0.3,1.1,0.1l-0.1,2.5
				c0.4-0.3,0.8-0.6,1.2-0.9c0.1-1.9,0.6-2,0.7-3c0-0.6,0.3-1.3,0.8-1.6c0.8-0.9,1-0.6,1.2-0.3l0.5,1.9c0.4-0.4,0.7-0.8,1.1-1.2
				c-0.3-1.6,0.2-1.7,0.1-2.5c-0.1-0.6-0.1-0.8,0.5-1.7c0.7-1.1,1-0.9,1.3-0.7l1,1.2c0.3-0.5,0.6-0.9,0.9-1.4
				c-0.7-1.3-0.2-1.3-0.5-1.9c-0.3-0.6-0.3-0.6,0.2-1.6c0.6-1.1,0.9-1.1,1.2-1.1l1.4,0.4c0.2-0.5,0.5-1,0.7-1.5
				c-1-0.8-0.6-0.8-1.1-1.2c-0.5-0.4-0.4-0.4-0.1-1.4c0.4-1.2,0.7-1.3,1.1-1.4l1.7-0.4c0.1-0.5,0.3-1,0.4-1.5
				c-0.5-0.1-1-0.2-1.5-0.4c-0.5-0.1-0.6-0.2-0.5-1.1c0.1-1.1,0.5-1.3,0.9-1.5l1.8-1.2c0-0.4,0.1-0.9,0.1-1.3v-0.1
				c-1.5,0.2-1.1,0.3-1.8,0.4C160,138,160,137.9,159.9,137.1z"/>
			<path class="st2" d="M158.1,140.5c0,7.5-5.2,16.6-11.7,20.3c-6.5,3.7-11.7,0.7-11.7-6.8s5.2-16.6,11.7-20.3
				C152.8,130,158.1,133,158.1,140.5z"/>
			<path class="st2" d="M156.5,141.4c0,6.5-4.5,14.3-10.1,17.5c-5.6,3.2-10.1,0.6-10.1-5.8c0-6.5,4.5-14.3,10.1-17.5
				C151.9,132.3,156.5,135,156.5,141.4z"/>
			<path class="st1" d="M151.9,136.2c1,1.3,1.4,3,1.4,4.6c0,5.6-3.9,12.4-8.8,15.2c-2.1,1.2-4.1,1.5-5.6,0.9c1.6,2,4.3,2.3,7.4,0.5
				c4.9-2.8,8.8-9.6,8.8-15.2C155.1,139,153.9,136.9,151.9,136.2z"/>
			<path class="st1" d="M144.5,156c4.9-2.8,8.8-9.6,8.8-15.2c0.1-1.7-0.4-3.3-1.4-4.6c-1.5-0.6-3.5-0.3-5.6,0.9
				c-4.9,2.8-8.8,9.6-8.8,15.2c-0.1,1.7,0.4,3.3,1.4,4.6C140.4,157.5,142.4,157.3,144.5,156z"/>
			<path class="st1" d="M150.8,142.9c0-4.1-2.9-5.8-6.5-3.7c-0.9,0.5-1.7,1.2-2.4,2c-1.9,2.4-3.3,5.2-4,8.1c0,0.4-0.1,0.8-0.1,1.1
				c0,4.1,2.9,5.8,6.5,3.7C148.1,151.6,150.5,147.4,150.8,142.9z"/>
			<path class="st1" d="M150.5,143.2c0-3.7-2.6-5.2-5.9-3.4c-3.5,2.2-5.7,6-5.9,10.1c0,3.7,2.6,5.2,5.9,3.4
				C148.1,151.1,150.3,147.3,150.5,143.2z"/>
			<path class="st1" d="M147.9,144.2c0.1-0.9-0.3-1.7-0.9-2.3c-0.8-0.2-1.6-0.1-2.3,0.4c-2.2,1.4-3.5,3.8-3.7,6.4
				c-0.1,0.9,0.3,1.7,1,2.3c0.8,0.2,1.6,0.1,2.3-0.4C146.4,149.2,147.8,146.8,147.9,144.2z"/>
			<path class="st1" d="M146.9,142c0.7,0.6,1,1.4,0.9,2.3c-0.1,2.6-1.5,5-3.7,6.4c-0.7,0.5-1.5,0.6-2.3,0.4c0.9,0.5,1.9,0.4,2.7-0.2
				c2.2-1.4,3.5-3.8,3.7-6.4C148.5,143.4,147.9,142.4,146.9,142z"/>
			<path class="st1" d="M146,145.4c0-1.1-0.8-1.6-1.8-1c-1,0.7-1.7,1.8-1.8,3.1c0,1.1,0.8,1.6,1.8,1
				C145.2,147.7,145.9,146.6,146,145.4z"/>
			<path class="st1" d="M144.6,143.1c0-0.3-0.2-0.4-0.4-0.3c-0.3,0.2-0.4,0.5-0.4,0.8c0,0.3,0.2,0.4,0.4,0.3
				C144.5,143.7,144.6,143.4,144.6,143.1z"/>
			<path class="st1" d="M144.6,143.1c0-0.2-0.2-0.3-0.3-0.2c-0.2,0.1-0.3,0.4-0.3,0.6c0,0.2,0.2,0.3,0.3,0.2
				C144.4,143.6,144.5,143.4,144.6,143.1z"/>
			<path class="st1" d="M146.5,142.9c0-0.3-0.2-0.4-0.5-0.2c-0.3,0.2-0.4,0.5-0.4,0.8c0,0.3,0.2,0.4,0.4,0.3
				C146.4,143.5,146.5,143.2,146.5,142.9z"/>
			<path class="st1" d="M146.4,142.9c0-0.2-0.2-0.3-0.4-0.2c-0.2,0.1-0.3,0.4-0.3,0.6c0,0.2,0.2,0.3,0.3,0.2
				C146.3,143.4,146.4,143.2,146.4,142.9z"/>
			<path class="st1" d="M147.3,144.6c0-0.3-0.2-0.4-0.4-0.3c-0.3,0.2-0.4,0.5-0.4,0.8c0,0.3,0.2,0.4,0.4,0.3
				C147.1,145.2,147.3,144.9,147.3,144.6z"/>
			<path class="st1" d="M147.2,144.6c0-0.2-0.2-0.3-0.3-0.2c-0.2,0.1-0.3,0.4-0.4,0.6c0,0.2,0.1,0.3,0.4,0.2
				C147.1,145.1,147.2,144.9,147.2,144.6z"/>
			<path class="st1" d="M146.6,147.2c0-0.3-0.2-0.4-0.4-0.3c-0.3,0.2-0.4,0.5-0.4,0.8c0,0.3,0.2,0.4,0.4,0.3
				C146.4,147.8,146.5,147.5,146.6,147.2z"/>
			<path class="st1" d="M146.5,147.3c0-0.2-0.1-0.3-0.3-0.2c-0.2,0.1-0.3,0.4-0.3,0.6c0,0.2,0.2,0.3,0.3,0.2
				C146.3,147.8,146.4,147.5,146.5,147.3z"/>
			<path class="st1" d="M144.6,149.2c0-0.3-0.2-0.4-0.4-0.3c-0.3,0.2-0.4,0.5-0.4,0.8c0,0.3,0.2,0.4,0.4,0.3
				C144.5,149.8,144.6,149.5,144.6,149.2z"/>
			<path class="st1" d="M144.6,149.3c0-0.2-0.2-0.3-0.3-0.2c-0.2,0.1-0.3,0.4-0.3,0.6c0,0.2,0.2,0.3,0.3,0.2
				C144.4,149.7,144.5,149.5,144.6,149.3z"/>
			<path class="st1" d="M142.8,149.4c0-0.3-0.2-0.4-0.5-0.3c-0.3,0.2-0.4,0.5-0.4,0.8c0,0.3,0.2,0.4,0.4,0.3
				C142.6,150,142.7,149.7,142.8,149.4z"/>
			<path class="st1" d="M142.7,149.5c0-0.2-0.2-0.3-0.4-0.2c-0.2,0.1-0.3,0.4-0.3,0.6c0,0.2,0.1,0.3,0.3,0.2
				C142.5,149.9,142.7,149.7,142.7,149.5z"/>
			<path class="st1" d="M142,147.7c0-0.3-0.2-0.4-0.4-0.3c-0.3,0.2-0.4,0.5-0.4,0.8c0,0.3,0.2,0.4,0.4,0.3
				C141.8,148.3,142,148,142,147.7z"/>
			<path class="st1" d="M141.9,147.7c0-0.2-0.2-0.3-0.3-0.2c-0.2,0.1-0.3,0.4-0.3,0.6c0,0.2,0.1,0.3,0.3,0.2
				C141.7,148.2,141.9,148,141.9,147.7z"/>
			<path class="st1" d="M142.8,145.1c0-0.3-0.2-0.4-0.5-0.3c-0.3,0.2-0.4,0.5-0.4,0.8c0,0.3,0.2,0.4,0.4,0.3
				C142.6,145.7,142.7,145.4,142.8,145.1z"/>
			<path class="st1" d="M142.7,145.1c0-0.2-0.2-0.3-0.4-0.2c-0.2,0.1-0.3,0.4-0.3,0.6c0,0.2,0.1,0.3,0.3,0.2
				C142.5,145.6,142.7,145.4,142.7,145.1z"/>
			<path class="st1" d="M151.3,115l0.2-25.3c0,0-5.5,2.1-6.6,5.1c-1.1,3-4.3,16.2-4.3,16.2L151.3,115z"/>
			<path class="st1" d="M151.5,89.7l-2.6-2c0,0-5.5,2.1-6.6,5.2c-1.1,3-4.3,16.2-4.3,16.2l2.6,2c0,0,3.2-13.2,4.3-16.2
				C146,91.9,151.5,89.7,151.5,89.7z"/>
			<path class="st1" d="M150.1,95.4c-0.1,1.2-0.7,2.3-1.8,3c-1,0.6-1.8,0.1-1.8-1c0.1-1.2,0.7-2.3,1.8-3
				C149.3,93.8,150.1,94.3,150.1,95.4z"/>
			<polygon class="st1" points="146.6,116.2 148.3,117.8 160,124.2 152.1,114 			"/>
			<polygon class="st1" points="152.9,111.8 142.5,105.8 129.9,113 140.3,119 			"/>
			<polygon class="st1" points="160,124.2 161.7,123.3 152.9,111.8 140.3,119 140.3,120.8 152.1,114 			"/>
			<polygon class="st1" points="140.3,119 129.9,113 129.9,114.8 140.3,120.8 			"/>
			<circle class="st4" cx="145.9" cy="30.9" r="5.9"/>
			<circle class="st4" cx="169.1" cy="43.9" r="5.9"/>
			<circle class="st4" cx="214.4" cy="29.1" r="5.9"/>
		</g>
	</g>
</g>
</svg>
