<?xml version="1.0" encoding="utf-8"?>
<!-- Generator: Adobe Illustrator 26.0.1, SVG Export Plug-In . SVG Version: 6.00 Build 0)  -->
<svg version="1.1" id="Layer_1" xmlns="http://www.w3.org/2000/svg" xmlns:xlink="http://www.w3.org/1999/xlink" x="0px" y="0px"
	 viewBox="0 0 136 185" style="enable-background:new 0 0 136 185;" xml:space="preserve">
<style type="text/css">
	.st0{opacity:0.2;}
	.st1{fill:#5D5D5D;}
	.st2{fill:#F7AD0C;}
	.st3{fill:#EDA006;}
	.st4{fill:#F4B80F;}
	.st5{fill:#5B5B5B;}
	.st6{fill:#1D374E;}
	.st7{fill:#3D2415;}
	.st8{fill:#331C11;}
	.st9{fill:#492817;}
	.st10{fill:#F1B287;}
	.st11{fill:#E8A476;}
	.st12{fill:#D32420;}
	.st13{fill:#172E3F;}
	.st14{fill:#23435B;}
	.st15{fill:#DB9669;}
	.st16{fill-rule:evenodd;clip-rule:evenodd;fill:#E8A476;}
	.st17{fill:#3F210A;}
	.st18{fill:#4F2B0C;}
	.st19{fill:#361D07;}
	.st20{fill:#301808;}
	.st21{fill:#4C260C;}
	.st22{fill:#E03128;}
	.st23{fill:#ED602B;}
	.st24{fill:#DF3F29;}
	.st25{fill:#492E29;}
	.st26{fill:#FFFFFF;}
	.st27{clip-path:url(#SVGID_00000088851939793648893580000016067254899519666357_);}
	.st28{fill:#FEFFFF;}
	.st29{fill:#553730;}
	.st30{fill:#646368;}
	.st31{fill:none;stroke:#FC1717;stroke-miterlimit:10;}
	.st32{fill:#FC1717;}
</style>
<g id="Layer_2_00000075873698411619546420000006216979898788365198_">
	<g id="Layer_1-2">
		<g class="st0">
			<path class="st1" d="M92.4,133.1c14.9,8.6,15,22.6,0.2,31.2s-38.9,8.6-53.8,0c-14.9-8.6-15-22.6-0.2-31.2S77.5,124.5,92.4,133.1z
				"/>
		</g>
		<path class="st2" d="M97.1,131.3c0.3-6.3-21.3-17.5-21.3-17.5c-0.7,1.5-1.5,3-2.3,4.4c-3.4,1.6-8.2,2.5-12-2l12,10.8
			c4.5,2.7,9.3,5.1,14.2,7l-0.6,2.6l0,0c-1,3.3-1.6,6.7-1.6,10.1c-0.1,2-0.4,3.9-1.1,5.8c1,1.6,3,2.1,4.6,1.1
			c0.1-0.1,0.3-0.2,0.4-0.3l5.2-13.4C96.9,133.9,97,133.4,97.1,131.3z"/>
		<path class="st3" d="M90.9,131.8c-4.3-4.3-17.7-5.1-17.7-5.1l0,0l0.2,0.2c4.5,2.7,9.3,5.1,14.2,7l-0.6,2.6l0,0
			c-0.4,1.3-0.8,2.6-1,3.9l3.5,3.7C91.5,133,90.9,131.8,90.9,131.8z"/>
		<path class="st4" d="M97.1,131.3c0.3-5.9-19-16.3-21.1-17.4l-0.3,0.1c-0.3,0.7-0.7,1.4-1,2l0.8,5.1c0,0,10.9,1.8,15.5,6.5
			c0,0,5.5,3.3,0.7,15.8l1.8,0.2l1.4-3.6C96.9,133.9,97,133.4,97.1,131.3z"/>
		<path class="st2" d="M73.2,119.2c0,0,2,31.4-6.5,33.7c-2.6,0.7-5.4,0.6-14.9-12.3l-3.4-3.2l2.9-4.2c0,0,8.5,4.4,10.4,6.6
			c0,0-4.8-13-0.6-22.6C61.2,117.1,70.9,121.2,73.2,119.2z"/>
		<path class="st5" d="M37.1,132.9c0,0,0.1,0.1,0.1,0.1l0,0l-0.2-0.2C37,132.8,37.1,132.9,37.1,132.9z"/>
		<path class="st3" d="M61.8,139.7c-1.7-1.9-8.2-5.4-10-6.3l-0.2,1.6c14.6,13.4,13.6,6.7,13.6,6.7c-4.1-16.6-0.6-21.9-0.6-21.9
			l-0.5-1.6c-1.7-0.6-2.8-1.1-2.8-1.1C57,126.1,61.8,139.7,61.8,139.7z"/>
		<path class="st4" d="M66.8,144.8c0,6.1-4.7,3.5-8.9-0.7c-4.2-4.2-7.5-7.3-7.5-7.3l-1.6,0.1l-0.3,0.5l3.4,3.2
			c6.5,8.8,11,12.1,13.3,12c5.8-0.1,6-6.2,5.5-18.2c-0.2-6,0.9-9.3,2.1-11.1c-2.1,0.8-4.3,1.4-6.6,1.7
			C68.4,130.7,66.8,138.7,66.8,144.8z"/>
		<path class="st6" d="M72.8,123.3l0.6-0.3c0-0.2,0-0.3,0-0.5C73.2,122.8,73,123,72.8,123.3z"/>
		<path class="st7" d="M53.4,133c-2.4-1.3-9.5-5.4-11.4-5.5c-1.9-0.1-2.9,1.5-3,3.7c-0.1,2.2,0.6,1.4-0.2,3.7
			c-0.8,2.3,0.1,7.4,2.4,7.5c2.4,0.1,2.7-4.9,2.8-6.2c0.9-0.3,1.9-0.1,2.6,0.5c2,1.5,4.1,4.7,4.1,3.5
			C50.5,134.8,55.5,134.2,53.4,133z"/>
		<path class="st8" d="M38.9,131.2c-0.1,2.2,0.6,1.4-0.2,3.7c-0.7,2.1,0,6.7,2,7.4c-2.4-2.4-1-9.4-1-9.4c-0.2-1.8,0.2-3.5,1-5.1
			C39.5,128.2,39,129.5,38.9,131.2z"/>
		<path class="st9" d="M43.9,136.1c0.9-0.3,1.9-0.1,2.7,0.5c2,1.5,4.1,4.7,4.1,3.5c0-1,0.1-2.1,0.5-3c-1-1.2-4.5-5-6.7-4.4
			c-2.5,0.7-3.8,0.2-3.8,3.4c0,2.6,0,4.9,1,6C43.5,141.6,43.8,137.3,43.9,136.1z"/>
		<path class="st7" d="M85.8,140.4c-1.1-0.7-0.3,7.4-2.1,10.9c-1.7,3.2-1.7,3.9-0.1,5.4c1,0.5,2,0.7,3.1,0.7c0,0,1.1,0,2.5,2.3
			c0,0,4,4.3,5.9,1.8c0,0,1-1.4-1.4-3.3c0,0-3.4-2.3-3.3-6.1c0.1-3.4,4-9.6,3.6-10.2C93.5,140.8,92.4,144.4,85.8,140.4z"/>
		<path class="st8" d="M83.7,156.7c1,0.5,2,0.7,3.1,0.7c0,0,1.1,0,2.5,2.3c0,0,3.9,4.1,5.8,1.9c-1.9,0-3.8-0.9-5-2.4
			c-0.9-1.5-1.2-2.1-4.5-2.8c-1.4-0.3-2.5-1.2-3.1-2.5C82.3,155.1,82.6,155.7,83.7,156.7z"/>
		<path class="st9" d="M93.8,158.2c0,0-3.4-2.3-3.3-6.1c0.1-3.4,4-9.6,3.6-10.2c-0.5-0.8-1.3,1-4.4,0.3c-0.1,2.5-0.7,5.1-1.7,7.4
			c-1.8,3.5-2.3,4.4-0.4,5.6c1.7,0.9,3,2.2,4,3.8c0.7,1.3,2.1,2.2,3.7,2.1C95.5,160.6,95.4,159.5,93.8,158.2z"/>
		<path class="st10" d="M76.9,85.3c0,0,4.2,0.3,3.6,12.3c0,0,1.7,9.7,2.5,12.7l2.7,8.7c0,0-0.5,1.2-3.2,0.9c0,0-5.4-7-6.3-10.7
			c-0.9-3.7-5.7-21.9-2.3-23.7C74,85.6,75.7,84.6,76.9,85.3z"/>
		<path class="st11" d="M82.5,119.9c0.5,0.1,1,0.1,1.5,0c-2-2.6-3.7-5.5-5.2-8.4c-2.7-5.6-0.5-13.6-0.5-13.6l-4.8-0.7
			c0.9,5,2.2,10.2,2.6,12C77.1,112.9,82.5,119.9,82.5,119.9z"/>
		<path class="st12" d="M82.1,120c0.6,1.5,0.9,3,1.2,4.6c0.2,2,1.2,2.7,2,3c0.8,0.3,3.3,0.9,3.2-1.9s-0.8-3.4-0.8-3.4l-3-3L82.1,120
			z"/>
		<path class="st13" d="M72.5,84.7c0,0-1.9,4.3,2,13.5c0,0,5.5,2.1,7.4-2c0,0-0.1-10.5-5.1-13.1C76.8,83.2,74.4,81.9,72.5,84.7z"/>
		<path class="st6" d="M62.6,88.1c-3.4,1.9-10.8,5.4-6.2,12.5c0,0,3.5,5.1,5.2,7.3c2,2.1,2.4,5.2,1,7.7c0,0,7.1,8.7,16.1-1.6
			c0,0-0.8-7.3,0-11.2c0.8-3.9,3.7-16.4-3.8-19.2C72.1,82.4,69.4,84.1,62.6,88.1z"/>
		<path class="st13" d="M56.4,100.5c1,2.4,2.3,4.7,3.8,6.8c1.2,1.5,3.2,4.5,1.4,8.1c0,0,4.1,3.7,8.8,3.4c-5-7.1-4.8-11.3-4.4-15.3
			c0.6-6.4,0.1-10.4-2.4-12.9c-0.9-0.8-2.1-1.2-3.4-1.2C57.2,91.1,53.1,94.1,56.4,100.5z"/>
		<path class="st14" d="M78.7,113.9c0,0-0.8-7.3,0-11.2c0.8-3.9,3.7-16.4-3.8-19.2c-1.8-0.7-3.1,0.4-5.8,0.9
			c2.9,0.8,9.2,5.5,7.3,15.8c-1.7,9.4-3.2,13.6-3.3,18C75.4,117.2,77.3,115.7,78.7,113.9z"/>
		<path class="st11" d="M73.4,88c-1.2,0.9-1.8,2.4-1.7,3.9c0.2,2-4.2,1.9-6.7-4.6c0,0,1.8-1.2,0.5-6.9L73.4,88z"/>
		<path class="st15" d="M72.2,88.9c0,0-4.6-2.2-7-1.8c0,0,1.1-0.9,0.7-4.2c-1.5-2.1-2-4.7-1.2-7.2c0.6-2.3,2.7-3.8,5-3.8
			C69.7,71.9,62.8,80.3,72.2,88.9z"/>
		<path class="st10" d="M77,78.8c-0.1,0.6-0.8,0.7-0.1,3.3c0.5,1.6,0.2,1.6-0.7,4.3c-0.5,1.5-1.7,4.7-6.1,1.6c0,0-4.3-4.1-5.3-7.2
			c-1-3.2-0.5-6.1,2.2-8.3C67.1,72.4,78.1,69.7,77,78.8z"/>
		<path class="st16" d="M77.1,77.6c-1.3,0.8-2.8,1.3-4.3,1.5c0,0-2.2-0.3-2.4,0.5c-0.1,1.2,0.2,2.3,0.6,3.4c0.7,1.1,1.1,2.3,1.3,3.5
			c-0.1,0.4,0.4,2.5,1.5,2.6c0,0-3.1,0.8-6.8-4.6c0,0-3-4-2.9-4.7c0.1-0.7,4.8-2.6,6.1-2.9c1.3-0.3,6.6-1.6,6.6-1.6
			S77.1,77.2,77.1,77.6z"/>
		<path class="st17" d="M77.1,75.7c-0.1,1.7-4,2.2-6.6,2.4c-1,0.1-1.7,0.8-1.2,3.5c0.5,2.8-1.1,2.9-1.1,2.5
			c-0.2-2.2-2.3-4.2-2.2-0.6c0,0-4.5-5.6-2.4-9.3c1.4-2.4,4.9-4.8,10.8-2.1C75.5,72.5,77.2,73.8,77.1,75.7z"/>
		<path class="st17" d="M69.3,81.7c0.5,2.9-1.1,2.7-1.1,2.7c-0.2-2.6-2.5-3.9-2.2-0.9c0,0-4.5-5.6-2.4-9.3c0.7-1.3,1.9-2.2,3.2-2.8
			c-3.9,5.3,1.7,5.6,3,6.9C69.3,78.6,69,79.6,69.3,81.7z"/>
		<path class="st18" d="M69.2,80.2c0,0-1-1.1-1.2,0.1c-0.5-0.4-0.8-1.1-0.7-1.8c0,0-0.9,0-1,1.2c-0.5-0.5-0.7-1.3-0.5-2
			c-0.6,0.5-1,1.1-1.2,1.8c0,0-1-1.8-0.6-2.7c0,0-0.5,0-0.7,1.4c-0.7-1.6-0.3-3.5,0.9-4.8c0,0-0.4,3.1,5.7,4.9
			C69.4,78.8,69.2,79.5,69.2,80.2z"/>
		<path class="st19" d="M66.8,81.7c0,0-2.3-0.3-2.8-1.7c0.6,1.2,1.3,2.4,2.1,3.4C66,83.5,65.7,81.6,66.8,81.7z"/>
		<path class="st20" d="M64.2,73.4c0,0-0.3,3.4,5.7,4.9c0,0,5.1,0.6,7.1-2.1c0.3-0.5,0.3-1.1,0-1.6c0,0-0.2,1.4-1.1,1.6
			c0,0,0.5-0.8,0.2-1.1c-0.4,0.7-1,1.2-1.8,1.5c0.2-0.4,0.2-0.8-0.1-1.1c-0.6,1.1-1.7,1.8-2.9,1.9c0.4-0.3,0.7-0.6,0.8-1.1
			c0,0-1.9,1.2-3.1,0.7c0,0,1.1-0.4,1.2-1c0,0-2.3,0.6-3.4-0.5c0.5,0.1,1,0,1.3-0.4C68,75.1,64.6,74.9,64.2,73.4z"/>
		<path class="st21" d="M65.3,72.3c0,0,4.2-3.6,10.3,0.4c0,0-2.7-0.8-3.6-0.9c-0.9-0.1,0.7,0.7,1.5,1c0.8,0.3-2.5-0.5-3.7-0.7
			c-1.1-0.2-3.2-0.1-1.8,0.4S65.5,72.1,65.3,72.3z"/>
		<path class="st12" d="M63.5,79.1c0,0,7.5,4.6,14.5,2.5c0,0,4.1-1.1-1.1-4.5L63.5,79.1z"/>
		<path class="st22" d="M76.9,77l-9.5,1c1.9,1.7,5.9,4.6,10.6,3.6C80.7,80.4,79.6,78.8,76.9,77z"/>
		<path class="st23" d="M62.9,76.4c0,0,0-6.4,7.1-6.7c4.2,0,7.6,3.3,7.6,7.5c0,0.1,0,0.2,0,0.3c0,0-6.8,5.8-14.2,1.2
			C63,78,62.8,77.2,62.9,76.4z"/>
		<path class="st24" d="M62.9,76.4c0,0.8,0.1,1.6,0.5,2.3c3.1,2,7.1,2.4,10.5,1c0.1-0.1,0.2-0.2,0.2-0.2c-0.3-7.2-5.9-8.6-7.9-8.8
			C64.2,71.9,62.9,74,62.9,76.4z"/>
		<path class="st25" d="M63.5,79.1c0,0,7.8,4.3,14-1.6l0-0.7c-4,3.3-9.7,3.9-14.3,1.5L63.5,79.1z"/>
		<path class="st25" d="M76.8,78c0-0.1,0-0.2,0-0.3l0,0l0,0c0-0.1,0-0.1-0.1-0.2l-0.1-0.1c0,0,0-0.1,0-0.1h-0.1l-0.1-0.1h-0.1h-0.1
			l0,0L75.6,77l0,0h-0.1l0,0h-0.1h-0.7h-0.1l0,0h-0.1l0,0l0,0l0,0h-0.2L74.3,77l0,0l-0.1,0.1l-0.1,0.1l0,0l0,0l0,0l0,0l0,0l0,0l0,0
			L74,77.3l0,0l0,0l0,0l0,0c0,0-0.1,0.1-0.1,0.1l0,0l-0.3,0.3l0,0c0,0-0.1,0.1-0.1,0.1l0,0.1c0,0-0.1,0.1-0.1,0.1l-0.1,0.1l-0.1,0.1
			l0,0v0.1v0.1v0.1v0.1v0.1v0.1c0,0,0,0.1,0,0.1v0.1c0,0,0,0.1,0,0.1v0.1v0.1v0.1c0,0,0,0.1,0,0.1l0,0l0,0l0,0v0.1l0,0l0.1,0.1h0.1
			l0,0h0.1l0.6,0.3c0,0,0,0,0.1,0l0.1,0.1h0.1h0.1h0.3c0.1,0,0.2,0,0.2-0.1l0,0h0l0.2-0.1l0,0C76.1,79.7,76.6,78.9,76.8,78L76.8,78z
			 M75.7,77.9V78v0.2c0,0.1,0,0.2-0.1,0.3l0,0c0,0.1-0.1,0.2-0.2,0.3c0,0,0,0.1-0.1,0.1c0,0.1-0.1,0.2-0.2,0.2l0,0.1l0,0L75,79.4
			c0,0,0,0.1-0.1,0.1c-0.1,0.1-0.1,0.1-0.2,0.2l0,0l-0.1,0.1l0,0l0,0l0,0l0,0v-0.1c0,0,0,0,0-0.1c0-0.1,0-0.1,0-0.2
			c0-0.1,0-0.2,0-0.3l0,0c0,0,0-0.1,0-0.1c0-0.1,0-0.2,0.1-0.3v-0.1c0-0.1,0-0.1,0.1-0.2c0,0,0-0.1,0.1-0.1c0.1-0.1,0.1-0.2,0.2-0.3
			l0.1-0.2l0.2-0.1l0.1-0.1l0.2-0.2c0,0,0,0,0,0.1h0.1v0.1l0,0c0,0,0,0.1,0,0.1c0,0,0,0,0,0.1L75.7,77.9z M75.4,77.2L75.4,77.2z
			 M75.4,77.2L75.4,77.2z M75.6,77.1L75.6,77.1z M74.7,76.8L74.7,76.8L74.7,76.8L74.7,76.8z"/>
		<polygon class="st25" points="75.1,76.7 75.1,76.7 75.1,76.7 		"/>
		<g>
			<path class="st26" d="M76,77.5c0.1,0,0.2,0.1,0.2,0.2c0.1,0.1,0.1,0.2,0.1,0.3c0.1,0.3,0,0.7-0.1,1c-0.2,0.6-0.7,1.1-1.3,1.3
				c-0.2,0.1-0.3,0.1-0.5,0c-0.2-0.1-0.4-0.4-0.4-0.7c0-0.8,0.4-1.5,1.1-1.9c0.1,0.1,0.1,0.2,0.1,0.3c-0.5,0.3-0.8,0.9-0.8,1.5
				c0,0.5,0.4,0.7,0.9,0.4c0.5-0.3,0.8-0.9,0.8-1.5c0-0.5-0.4-0.7-0.9-0.4c0-0.1,0-0.2-0.1-0.3C75.4,77.5,75.7,77.4,76,77.5z"/>
			<g>
				<defs>
					<path id="SVGID_1_" d="M76,77.5c0.1,0,0.2,0.1,0.2,0.2c0.1,0.1,0.1,0.2,0.1,0.3c0.1,0.3,0,0.7-0.1,1c-0.2,0.6-0.7,1.1-1.3,1.3
						c-0.2,0.1-0.3,0.1-0.5,0c-0.2-0.1-0.4-0.4-0.4-0.7c0-0.8,0.4-1.5,1.1-1.9c0.1,0.1,0.1,0.2,0.1,0.3c-0.5,0.3-0.8,0.9-0.8,1.5
						c0,0.5,0.4,0.7,0.9,0.4c0.5-0.3,0.8-0.9,0.8-1.5c0-0.5-0.4-0.7-0.9-0.4c0-0.1,0-0.2-0.1-0.3C75.4,77.5,75.7,77.4,76,77.5z"/>
				</defs>
				<clipPath id="SVGID_00000059291620995905448760000010023244515877469316_">
					<use xlink:href="#SVGID_1_"  style="overflow:visible;"/>
				</clipPath>
				<g style="clip-path:url(#SVGID_00000059291620995905448760000010023244515877469316_);">
					<g>
						<path class="st26" d="M76,77.5c1,0.6,0,2.5-1.1,2.8c-0.2,0.1-0.3,0.1-0.5,0c-0.2-0.1-0.4-0.4-0.4-0.7c0-0.8,0.4-1.5,1.1-1.9
							c0.1,0.1,0.1,0.2,0.1,0.3c-0.5,0.3-0.8,0.9-0.8,1.5c0,0.5,0.4,0.7,0.9,0.4c0.5-0.3,0.8-0.9,0.8-1.5c0-0.5-0.4-0.7-0.9-0.4
							c0-0.1,0-0.2-0.1-0.3C75.4,77.5,75.7,77.4,76,77.5L76,77.5z"/>
						<path class="st26" d="M75.2,77.6L75.2,77.6L75.2,77.6c0,0.1,0.1,0.2,0.1,0.3c-0.5,0.3-0.8,0.9-0.8,1.5c0,0.5,0.4,0.7,0.9,0.4
							c0.5-0.3,0.8-0.9,0.8-1.5c0-0.5-0.4-0.7-0.9-0.4C75.3,77.8,75.2,77.7,75.2,77.6L75.2,77.6L75.2,77.6c0.2-0.2,0.5-0.2,0.8-0.1
							h0.1h0.1l0,0v0.1v0.1c0,0,0,0.1,0,0.1v0.1c0,0,0,0.1,0,0.1V78c0,0,0,0.1,0,0.1v0.1c0,0,0,0.1,0,0.1v0.1c0,0,0,0.1,0,0.1v0.1
							v0.1v0.1c0,0,0,0.1,0,0.1V79v0.1L76,79.3L76,79.3l-0.1,0.1l-0.1,0.1l-0.1,0.1l-0.1,0.1l-0.1,0.1c0,0-0.1,0.1-0.1,0.1l-0.1,0.1
							L75.3,80L75.2,80h-0.1H75h-0.1h-0.3h-0.1h-0.1c-0.2-0.1-0.4-0.4-0.4-0.7c0-0.8,0.4-1.5,1.1-1.9L75.2,77.6z"/>
						<path class="st26" d="M75.2,77.6c0,0-0.1,0.1-0.1,0.1L75,77.8L75.2,77.6c0.1,0.1,0.1,0.2,0.1,0.3c-0.5,0.3-0.8,0.9-0.8,1.5
							c0,0.5,0.4,0.7,0.9,0.4c0.5-0.3,0.8-0.9,0.8-1.5c0-0.5-0.4-0.7-0.9-0.4C75.3,77.8,75.2,77.7,75.2,77.6L75.2,77.6L75.2,77.6
							L75.2,77.6c0.2-0.2,0.6-0.3,0.8-0.2h0.1h0.1l0,0v0.1v0.1c0,0,0,0.1,0,0.1v0.1c0,0,0,0.1,0,0.1v0.1c0,0,0,0.1,0,0.1v0.1
							c0,0,0,0.1,0,0.1v0.1c0,0,0,0.1,0,0.1v0.1v0.1v0.1c0,0,0,0.1-0.1,0.1V79v0.1L76,79.2L76,79.3l-0.1,0.1l-0.1,0.1l-0.1,0.1
							l-0.1,0.1l-0.1,0.1c0,0-0.1,0.1-0.1,0.1l-0.1,0.1L75.3,80L75.2,80h-0.1H75h-0.1h-0.3h-0.1h-0.1c-0.2-0.1-0.4-0.4-0.4-0.7
							c0-0.8,0.4-1.5,1.1-1.9L75.2,77.6z"/>
						<path class="st26" d="M75.2,77.6C75.2,77.6,75.1,77.6,75.2,77.6c-0.2,0.1-0.4,0.3-0.4,0.4C74.9,77.9,75,77.8,75.2,77.6
							c0.1,0.1,0.1,0.2,0.1,0.3c-0.5,0.3-0.8,0.9-0.8,1.5c0,0.5,0.4,0.7,0.9,0.4c0.5-0.3,0.8-0.9,0.8-1.5c0-0.5-0.4-0.7-0.9-0.4
							C75.3,77.9,75.2,77.7,75.2,77.6l0.1,0l0.2-0.1C75.4,77.6,75.2,77.6,75.2,77.6c0.2-0.1,0.5-0.2,0.8-0.1h0.1h0.1l0,0v0.1v0.1
							c0,0,0,0.1,0,0.1v0.1c0,0,0,0.1,0,0.1V78c0,0,0,0.1,0,0.1v0.1c0,0,0,0.1,0,0.1v0.1c0,0,0,0.1,0,0.1v0.1v0.1v0.1
							c0,0,0,0.1-0.1,0.1v0.1v0.1L76,79.3L76,79.4l-0.1,0.1l-0.1,0.1l-0.1,0.1l-0.1,0.1l-0.1,0.1c0,0-0.1,0.1-0.1,0.1L75.4,80
							L75.3,80l-0.1,0.1h-0.1H75h-0.1h-0.3h-0.1h-0.1c-0.2-0.1-0.4-0.4-0.4-0.7c0-0.8,0.4-1.5,1.1-1.9L75.2,77.6z"/>
						<path class="st26" d="M75.2,77.6c-0.2,0.1-0.4,0.3-0.6,0.5C74.8,78,75,77.8,75.2,77.6c0.1,0.1,0.1,0.2,0.1,0.3
							c-0.5,0.3-0.8,0.9-0.8,1.5c0,0.5,0.4,0.7,0.9,0.4c0.5-0.3,0.8-0.9,0.8-1.5c0-0.5-0.4-0.7-0.9-0.4
							C75.3,77.9,75.2,77.8,75.2,77.6l0.1,0c0.1-0.1,0.2-0.1,0.3-0.1C75.5,77.5,75.3,77.6,75.2,77.6c0.2-0.1,0.5-0.2,0.8-0.1h0.1
							h0.1l0,0v0.1v0.1c0,0,0,0.1,0,0.1v0.1c0,0,0,0.1,0,0.1V78c0,0,0,0.1,0,0.1v0.1c0,0,0,0.1,0,0.1v0.1c0,0,0,0.1,0,0.1v0.1v0.1
							v0.1c0,0,0,0.1,0,0.1v0.1v0.1L76,79.3L76,79.4l-0.1,0.1l-0.1,0.1l-0.1,0.1l-0.1,0.1l-0.1,0.1c0,0-0.1,0.1-0.1,0.1L75.4,80
							L75.3,80l-0.1,0.1h-0.1H75h-0.1h-0.3h-0.1h-0.1c-0.2-0.1-0.4-0.4-0.4-0.7c0-0.8,0.4-1.5,1.1-1.9L75.2,77.6z"/>
						<path class="st26" d="M75.2,77.6C75.2,77.6,75.1,77.6,75.2,77.6c-0.3,0.2-0.5,0.4-0.6,0.7C74.7,78,75,77.8,75.2,77.6
							c0,0.1,0,0.2,0,0.3c-0.5,0.3-0.8,0.9-0.8,1.5c0,0.5,0.4,0.7,0.9,0.4c0.5-0.3,0.8-0.9,0.8-1.5c0-0.5-0.4-0.7-0.9-0.4
							C75.2,77.9,75.2,77.8,75.2,77.6l0.1,0.1c0.1-0.1,0.2-0.1,0.4-0.2C75.5,77.5,75.3,77.6,75.2,77.6c0.2-0.1,0.6-0.2,0.8-0.1h0.1
							h0.1l0,0v0.1v0.1c0,0,0,0.1,0,0.1v0.1c0,0,0,0.1,0,0.1V78c0,0,0,0.1,0,0.1v0.1c0,0,0,0.1,0,0.1v0.1c0,0,0,0.1,0,0.1v0.1v0.1
							v0.1c0,0,0,0.1-0.1,0.1v0.1v0.1L76,79.3L76,79.4l-0.1,0.1l-0.1,0.1l-0.1,0.1l-0.1,0.1l-0.1,0.1c0,0-0.1,0.1-0.1,0.1L75.4,80
							L75.3,80l-0.1,0.1h-0.1H75h-0.1h-0.3h-0.1h-0.1c-0.2-0.1-0.4-0.4-0.4-0.7c0-0.8,0.4-1.5,1.1-1.9L75.2,77.6z"/>
						<path class="st26" d="M75.2,77.6c-0.3,0.2-0.6,0.5-0.7,0.8C74.7,78.1,74.9,77.9,75.2,77.6c0,0.2,0,0.2,0,0.3
							c-0.5,0.3-0.8,0.9-0.8,1.5c0,0.5,0.4,0.7,0.9,0.4c0.5-0.3,0.8-0.9,0.8-1.5c0-0.5-0.4-0.7-0.9-0.4
							C75.2,77.9,75.2,77.8,75.2,77.6l0.1,0c0.1-0.1,0.3-0.1,0.5-0.2C75.6,77.4,75.4,77.5,75.2,77.6c0.2-0.2,0.6-0.2,0.8-0.1h0.1
							h0.1l0,0v0.1v0.1c0,0,0,0.1,0,0.1v0.1c0,0,0,0.1,0,0.1V78c0,0,0,0.1,0,0.1v0.1c0,0,0,0.1,0,0.1v0.1c0,0,0,0.1,0,0.1v0.1v0.1
							v0.1c0,0,0,0.1,0,0.1V79v0.1L76,79.3L76,79.3l-0.1,0.1l-0.1,0.1l-0.1,0.1l-0.1,0.1l-0.1,0.1c0,0-0.1,0.1-0.1,0.1l-0.1,0.1
							L75.3,80L75.2,80h-0.1H75h-0.1h-0.3h-0.1h-0.1c-0.2-0.1-0.4-0.4-0.4-0.7c0-0.8,0.4-1.5,1.1-1.9L75.2,77.6z"/>
						<path class="st26" d="M75.2,77.6c-0.3,0.2-0.6,0.5-0.8,0.9c0.2-0.3,0.5-0.6,0.8-0.8c0,0.1,0,0.2,0,0.3
							c-0.5,0.3-0.8,0.9-0.8,1.5c0,0.5,0.4,0.7,0.9,0.4c0.5-0.3,0.8-0.9,0.8-1.5c0-0.5-0.4-0.7-0.9-0.4c0-0.1,0-0.2,0-0.3h0.1
							c0.2-0.1,0.4-0.1,0.6-0.2C75.6,77.5,75.4,77.6,75.2,77.6c0.2-0.1,0.6-0.1,0.8,0h0.1h0.1l0,0v0.1v0.1c0,0,0,0.1,0,0.1v0.1
							c0,0,0,0.1,0,0.1v0.1c0,0,0,0.1,0,0.1v0.1c0,0,0,0.1,0,0.1v0.1c0,0,0,0.1,0,0.1v0.1v0.1v0.1c0,0,0,0.1-0.1,0.1v0.1v0.1
							L76,79.3L76,79.4l-0.1,0.1l-0.1,0.1l-0.1,0.1l-0.1,0.1l-0.1,0.1c0,0-0.1,0.1-0.1,0.1L75.4,80l-0.1,0.1l-0.1,0.1h-0.1H75h-0.1
							h-0.3h-0.1h-0.1c-0.2-0.1-0.4-0.4-0.4-0.7C74.1,78.7,74.5,77.9,75.2,77.6L75.2,77.6z"/>
						<path class="st26" d="M75.2,77.6c-0.4,0.2-0.7,0.6-0.8,1c0.2-0.2,0.3-0.4,0.4-0.5c0.1-0.1,0.3-0.3,0.5-0.3c0,0.1,0,0.2,0,0.2
							c-0.5,0.3-0.8,0.9-0.8,1.5c0,0.5,0.4,0.7,0.9,0.4c0.5-0.3,0.8-0.9,0.8-1.5c0-0.5-0.4-0.7-0.9-0.4c0-0.1,0-0.2,0-0.2h0.1
							c0.2-0.1,0.4-0.2,0.6-0.2C75.7,77.5,75.4,77.5,75.2,77.6c0.2-0.1,0.6-0.1,0.8,0h0.1h0.1l0,0v0.1v0.1c0,0,0,0.1,0,0.1v0.1
							c0,0,0,0.1,0,0.1V78c0,0,0,0.1,0,0.1v0.1c0,0,0,0.1,0,0.1v0.1c0,0,0,0.1,0,0.1v0.1v0.1v0.1c0,0,0,0.1-0.1,0.1v0.1v0.1L76,79.3
							L76,79.4l-0.1,0.1l-0.1,0.1l-0.1,0.1l-0.1,0.1l-0.1,0.1c0,0-0.1,0.1-0.1,0.1L75.4,80l-0.1,0.1l-0.1,0.1h-0.1H75h-0.1h-0.3
							h-0.1h-0.1c-0.2-0.1-0.4-0.4-0.4-0.7c0-0.8,0.4-1.5,1.1-1.9L75.2,77.6z"/>
						<path class="st26" d="M75.2,77.6c-0.4,0.3-0.7,0.7-0.9,1.1c0.2-0.2,0.3-0.4,0.4-0.5c0.1-0.2,0.3-0.3,0.5-0.5
							c0,0.1,0,0.1,0,0.2c-0.5,0.3-0.8,0.9-0.8,1.5c0,0.5,0.4,0.7,0.9,0.4c0.5-0.3,0.8-0.9,0.8-1.5c0-0.5-0.4-0.7-0.9-0.4
							c0-0.1,0-0.2,0-0.2h0.1c0.2-0.1,0.4-0.2,0.6-0.2l0,0C75.9,77.6,75.7,77.4,75.2,77.6c0.2-0.1,0.5-0.1,0.8,0H76h0.1l0,0v0.1v0.1
							c0,0,0,0.1,0,0.1v0.1c0,0,0,0.1,0,0.1V78c0,0,0,0.1,0,0.1v0.1c0,0,0,0.1,0,0.1v0.1c0,0,0,0.1,0,0.1v0.1v0.1v0.1
							c0,0,0,0.1-0.1,0.1v0.1v0.1L76,79.3l-0.1,0.1l-0.1,0.1l-0.1,0.1l-0.1,0.1l-0.1,0.1l-0.1,0.1c0,0-0.1,0.1-0.1,0.1L75.4,80
							l-0.1,0.1l-0.1,0.1h-0.1H75h-0.1h-0.3h-0.1h-0.1C74.2,80,74,79.7,74,79.4c0-0.8,0.4-1.5,1.1-1.9L75.2,77.6z"/>
						<path class="st26" d="M75.2,77.6c-0.4,0.3-0.8,0.7-0.9,1.2l0,0c0.1,0,0.1-0.1,0.1-0.2c0.2-0.4,0.5-0.7,0.9-0.9v0.2
							c-0.5,0.3-0.8,0.9-0.8,1.5c0,0.5,0.4,0.7,0.9,0.4c0.5-0.3,0.8-0.9,0.8-1.5c0-0.5-0.4-0.7-0.9-0.4v-0.2h0.1
							c0.2-0.1,0.4-0.2,0.6-0.2c0,0,0.1,0,0.1,0l0,0C76,77.6,75.8,77.3,75.2,77.6c0.2-0.1,0.5-0.2,0.8-0.1h0.1h0.1l0,0v0.1v0.1
							c0,0,0,0.1,0,0.1v0.1c0,0,0,0.1,0,0.1V78c0,0,0,0.1,0,0.1v0.1c0,0,0,0.1,0,0.1v0.1c0,0,0,0.1,0,0.1v0.1v0.1v0.1
							c0,0,0,0.1-0.1,0.1v0.1v0.1L76,79.3l-0.1,0.1l-0.1,0.1l-0.1,0.1l-0.1,0.1l-0.1,0.1l-0.1,0.1c0,0-0.1,0.1-0.1,0.1L75.4,80
							L75.3,80l-0.1,0.1h-0.1H75h-0.1h-0.3h-0.1h-0.1c-0.2-0.1-0.4-0.4-0.4-0.7c0-0.8,0.4-1.5,1.1-1.9L75.2,77.6z"/>
						<path class="st26" d="M75.3,78c-0.5,0.3-0.8,0.9-0.8,1.5c0,0.5,0.4,0.7,0.9,0.4c0.5-0.3,0.8-0.9,0.8-1.5
							C76.2,77.9,75.7,77.7,75.3,78c0-0.1,0-0.1,0-0.2l0.1,0c0.2-0.1,0.4-0.1,0.6-0.1c0.1,0,0.1,0.1,0.2,0c0.1-0.1-0.1-0.1-0.3-0.2
							c-0.2,0-0.3,0-0.5,0.1c0.2-0.1,0.5-0.1,0.7,0h0.1h0.1l0,0v0.1v0.1c0,0,0,0.1,0,0.1v0.1c0,0,0,0.1,0,0.1V78c0,0,0,0.1,0,0.1
							v0.1c0,0,0,0.1,0,0.1v0.1c0,0,0,0.1,0,0.1v0.1v0.1v0.1c0,0,0,0.1-0.1,0.1v0.1v0.1L76,79.3L76,79.4l-0.1,0.1l-0.1,0.1l-0.1,0.1
							l-0.1,0.1l-0.1,0.1c0,0-0.1,0.1-0.1,0.1l-0.1,0.1L75.3,80l-0.1,0.1h-0.1H75h-0.1h-0.3h-0.1h-0.1c-0.2-0.1-0.4-0.4-0.4-0.7
							c0-0.6,0.3-1.2,0.7-1.7l0,0c-0.5,0.6-0.6,1-0.6,1c0.6-0.9,0.6-0.9,1-1.2c0,0,0,0.1,0,0.2L75.3,78z"/>
						<path class="st26" d="M75.3,78c-0.5,0.3-0.8,0.9-0.8,1.5c0,0.5,0.4,0.7,0.9,0.4c0.5-0.3,0.8-0.9,0.8-1.5
							C76.2,77.9,75.7,77.7,75.3,78c0,0,0-0.1,0-0.1l0.1-0.1c0.2-0.1,0.5-0.2,0.8-0.1l0,0c0,0-0.1-0.2-0.4-0.2c-0.1,0-0.2,0-0.3,0
							c0.2-0.1,0.4-0.1,0.5,0H76h0.1l0,0v0.1v0.1c0,0,0,0.1,0,0.1v0.1c0,0,0,0.1,0,0.1v0.1c0,0,0,0.1,0,0.1v0.1c0,0,0,0.1,0,0.1v0.1
							c0,0,0,0.1,0,0.1v0.1v0.1v0.1c0,0,0,0.1-0.1,0.1v0.1V79L76,79.1l-0.1,0.1l-0.1,0.1l-0.1,0.1l-0.1,0.1l-0.1,0.1l-0.1,0.1
							c0,0-0.1,0.1-0.1,0.1l-0.1,0.1l-0.1,0.1l-0.1,0.1h-0.1H75h-0.1h-0.3h-0.1h-0.1c-0.2-0.1-0.4-0.4-0.4-0.7
							c0-0.6,0.2-1.1,0.6-1.5l0,0c-0.3,0.3-0.4,0.6-0.5,1c0.1-0.1,0.1-0.1,0.2-0.2c0.2-0.4,0.5-0.7,0.9-1c0,0,0,0.1,0,0.1L75.3,78z"
							/>
						<path class="st26" d="M75.3,78c-0.5,0.3-0.8,0.9-0.8,1.5c0,0.5,0.4,0.7,0.9,0.4c0.5-0.3,0.8-0.9,0.8-1.5
							C76.2,77.9,75.7,77.7,75.3,78C75.3,77.9,75.3,77.9,75.3,78l0.1-0.1c0.2-0.1,0.5-0.2,0.8-0.1c0,0,0.1,0,0.1,0
							c0,0-0.1-0.3-0.4-0.3c-0.1,0-0.2,0-0.3,0c0.1-0.1,0.3-0.1,0.4,0h0.1h0.1l0,0v0.1v0.1c0,0,0,0.1,0,0.1v0.1c0,0,0,0.1,0,0.1v0.1
							c0,0,0,0.1,0,0.1v0.1c0,0,0,0.1,0,0.1v0.1c0,0,0,0.1,0,0.1v0.1v0.1v0.1c0,0,0,0.1,0,0.1V79v0.1L76,79.2L76,79.3l-0.1,0.1
							l-0.1,0.1l-0.1,0.1l-0.1,0.1l-0.1,0.1c0,0-0.1,0.1-0.1,0.1l-0.1,0.1l-0.1,0.1L75.2,80h-0.1H75h-0.1h-0.3h-0.1h-0.1
							c-0.2-0.1-0.4-0.4-0.4-0.7c0-0.5,0.2-1,0.5-1.4v0c-0.2,0.3-0.4,0.6-0.4,1l0,0c0.1-0.1,0.2-0.2,0.2-0.4c0.2-0.4,0.5-0.8,0.8-1
							c0,0,0,0.1,0,0.1L75.3,78z"/>
						<path class="st26" d="M75.3,78c-0.5,0.3-0.8,0.9-0.8,1.5c0,0.5,0.4,0.7,0.9,0.4c0.5-0.3,0.8-0.9,0.8-1.5
							C76.2,77.9,75.7,77.7,75.3,78L75.3,78L75.3,78c0.3-0.2,0.6-0.2,0.9,0c0,0,0.1,0,0.1,0c0.1,0,0-0.3-0.4-0.4c-0.1,0-0.2,0-0.2,0
							c0.1,0,0.2,0,0.3,0.1h0.1h0.1l0,0v0.1v0.1c0,0,0,0.1,0,0.1v0.1c0,0,0,0.1,0,0.1V78c0,0,0,0.1,0,0.1v0.1c0,0,0,0.1,0,0.1v0.1
							c0,0,0,0.1,0,0.1v0.1v0.1v0.1c0,0,0,0.1-0.1,0.1v0.1v0.1L76,79.3L76,79.4l-0.1,0.1l-0.1,0.1l-0.1,0.1l-0.1,0.1l-0.1,0.1
							c0,0-0.1,0.1-0.1,0.1L75.4,80l-0.1,0.1l-0.1,0.1h-0.1H75h-0.1h-0.3h-0.1h-0.1c-0.2-0.1-0.4-0.4-0.4-0.7c0-0.4,0.2-0.8,0.5-1.2
							l-0.1,0.1c-0.3,0.5-0.3,1-0.3,1s0.2-0.2,0.2-0.3C74.6,78.6,74.9,78.2,75.3,78L75.3,78L75.3,78z"/>
						<path class="st26" d="M74.4,78.4c-0.4,0.7-0.3,1-0.3,1.1c0,0,0,0.1,0,0.1c0.1,0,0.2,0,0.2,0.1c0.2,0.2,0.2,0.2,0.3,0.3
							c0.1,0,0.3,0,0.4,0c0.5-0.2,0.8-0.5,1-1c0.1-0.2,0.2-0.9,0.2-1c0-0.2-0.1-0.4-0.3-0.5c-0.1,0-0.2-0.1-0.3-0.1
							c0.1,0,0.2,0,0.3,0.1H76h0.1l0,0v0.1v0.1c0,0,0,0.1,0,0.1v0.1c0,0,0,0.1,0,0.1v0.1c0,0,0,0.1,0,0.1v0.1c0,0,0,0.1,0,0.1v0.1
							c0,0,0,0.1,0,0.1v0.1v0.1v0.1c0,0,0,0.1-0.1,0.1V79v0.1L76,79.2l-0.1,0.1l-0.1,0.1l-0.1,0.1l-0.1,0.1l-0.1,0.1l-0.1,0.1
							c0,0-0.1,0.1-0.1,0.1l-0.1,0.1l-0.1,0.1L75.2,80h-0.1H75h-0.1h-0.3h-0.1h-0.1c-0.2-0.1-0.4-0.4-0.4-0.7c0-0.4,0.1-0.8,0.4-1.2
							l0,0L74.4,78.4z"/>
						<path class="st26" d="M74.3,78.6c-0.6,1.3,0.4,1.6,0.8,1.4c0.6-0.3,1-0.8,1.1-1.4c0.3-0.8-0.1-1.1-0.3-1.2h-0.2
							c0.1,0,0.1,0,0.2,0h0.1h0.1l0,0v0.1v0.1c0,0,0,0.1,0,0.1v0.1c0,0,0,0.1,0,0.1v0.1c0,0,0,0.1,0,0.1v0.1c0,0,0,0.1,0,0.1v0.1
							c0,0,0,0.1,0,0.1v0.1v0.1v0.1c0,0,0,0.1,0,0.1V79v0.1L76,79.2L76,79.3l-0.1,0.1l-0.1,0.1l-0.1,0.1l-0.1,0.1l-0.1,0.1
							c0,0-0.1,0.1-0.1,0.1l-0.1,0.1L75.3,80L75.2,80h-0.1H75h-0.1h-0.3h-0.1h-0.1c-0.2-0.1-0.4-0.4-0.4-0.7c0-0.4,0.1-0.8,0.3-1.1
							c0,0,0,0.1-0.1,0.1l0,0V78.6z"/>
						<path class="st26" d="M74.3,78.6c-0.6,1.3,0.3,1.7,0.8,1.5c1.1-0.4,1.7-2.3,0.8-2.6h-0.1H76h0.1h0.1l0,0v0.1v0.1
							c0,0,0,0.1,0,0.1v0.1c0,0,0,0.1,0,0.1v0.1c0,0,0,0.1,0,0.1v0.1c0,0,0,0.1,0,0.1v0.1c0,0,0,0.1,0,0.1v0.1v0.1v0.1
							c0,0,0,0.1-0.1,0.1V79v0.1L76,79.2L76,79.3l-0.1,0.1l-0.1,0.1l-0.1,0.1l-0.1,0.1l-0.1,0.1c0,0-0.1,0.1-0.1,0.1l-0.1,0.1
							L75.3,80L75.2,80h-0.1H75h-0.1h-0.3h-0.1h-0.1c-0.2-0.1-0.4-0.4-0.4-0.7c0-0.3,0.1-0.7,0.2-1l0,0V78.6z"/>
						<path class="st26" d="M74.2,78.8c-0.4,1.1,0.3,1.6,1,1.3c1-0.4,1.7-2.3,0.7-2.6H76h0.1h0.1l0,0v0.1v0.1c0,0,0,0.1,0,0.1v0.1
							c0,0,0,0.1,0,0.1v0.1c0,0,0,0.1,0,0.1v0.1c0,0,0,0.1,0,0.1v0.1c0,0,0,0.1,0,0.1v0.1v0.1v0.1c0,0,0,0.1,0,0.1V79v0.1l-0.1,0.1
							L76,79.3l-0.1,0.1l-0.1,0.1l-0.1,0.1l-0.1,0.1l-0.1,0.1c0,0-0.1,0.1-0.1,0.1l-0.1,0.1L75.3,80L75.2,80h-0.1H75H75h-0.3h-0.1
							h-0.1c-0.2-0.1-0.4-0.4-0.4-0.7c0-0.3,0.1-0.6,0.2-0.9v0.1l0,0L74.2,78.8z"/>
						<path class="st26" d="M74.2,78.8c-0.4,1.2,0.3,1.7,1,1.3c1-0.6,1.5-2.2,0.7-2.6H76h0.1l0,0v0.1v0.1c0,0,0,0.1,0,0.1v0.1
							c0,0,0,0.1,0,0.1V78c0,0,0,0.1,0,0.1v0.1c0,0,0,0.1,0,0.1v0.1c0,0,0,0.1,0,0.1v0.1v0.1v0.1c0,0,0,0.1-0.1,0.1V79v0.1L76,79.3
							l-0.1,0.1l-0.1,0.1l-0.1,0.1l-0.1,0.1l-0.1,0.1l-0.1,0.1c0,0-0.1,0.1-0.1,0.1l-0.1,0.1L75.3,80L75.2,80h-0.1H75h-0.1h-0.3
							h-0.1h-0.1c-0.2-0.1-0.4-0.4-0.4-0.7C74.1,79.1,74.1,78.9,74.2,78.8L74.2,78.8L74.2,78.8z"/>
						<path class="st26" d="M74.2,79c-0.3,1.1,0.4,1.5,1.2,1.1c0.7-0.5,1.1-1.3,1-2.1V78l0,0v0.1c0,0,0,0.1,0,0.1v0.1
							c0,0,0,0.1,0,0.1v0.1c0,0,0,0.1,0,0.1v0.1v0.1V79c0,0,0,0.1,0,0.1v0.1v0.1l-0.1,0.1l-0.1,0.1l-0.1,0.1L76,79.7L76,79.8
							l-0.1,0.1l-0.1,0.1c0,0-0.1,0.1-0.1,0.1l-0.1,0.1l-0.1,0.1l-0.1,0.1h-0.1h-0.1h-0.1h-0.3h-0.1h-0.1c-0.2-0.1-0.4-0.4-0.4-0.7
							c0-0.2,0-0.5,0.1-0.7v0.1l0,0L74.2,79z"/>
						<path class="st26" d="M74.2,79c-0.3,1.1,0.4,1.5,1.2,1.1c0.6-0.4,1-1.2,1-1.9c0,0.1,0,0.1,0,0.2c0,0,0,0.1,0,0.1v0.1
							c0,0,0,0.1,0,0.1v0.1v0.1V79c0,0,0,0.1-0.1,0.1v0.1v0.1l-0.1,0.1l-0.1,0.1l-0.1,0.1L76,79.7l-0.1,0.1l-0.1,0.1l-0.1,0.1
							c0,0-0.1,0.1-0.1,0.1l-0.1,0.1l-0.1,0.1l-0.1,0.1h-0.1h-0.1h-0.1h-0.3h-0.1h-0.1c-0.2-0.1-0.4-0.4-0.4-0.7
							c0-0.2,0-0.4,0.1-0.6l0,0L74.2,79z"/>
						<path class="st26" d="M74.1,79.2c-0.2,1,0.6,1.3,1.3,0.8c0.5-0.4,0.9-1,1-1.6v0.1v0.1v0.1v0.1V79c0,0,0,0.1-0.1,0.1v0.1v0.1
							l-0.1,0.1l-0.1,0.1l-0.1,0.1l-0.1,0.1L76,79.8l-0.1,0.1l-0.1,0.1c0,0-0.1,0.1-0.1,0.1l-0.1,0.1l-0.1,0.1l-0.1,0.1h-0.1h-0.1
							h-0.1h-0.3h-0.1h-0.1c-0.2-0.1-0.4-0.4-0.4-0.7c0-0.2,0-0.3,0-0.5c0,0,0,0.1,0,0.1l0,0L74.1,79.2z"/>
						<path class="st26" d="M74.1,79.2c-0.2,1.1,0.6,1.3,1.4,0.8c0.4-0.3,0.7-0.8,0.8-1.2c0,0,0,0.1-0.1,0.2c0,0,0,0.1,0,0.1v0.1
							v0.1l-0.1,0.1l-0.1,0.1L76,79.5l-0.1,0.1l-0.1,0.1l-0.1,0.1l-0.1,0.1c0,0-0.1,0.1-0.1,0.1L75.5,80l-0.1,0.1l-0.1,0.1h-0.1
							h-0.1H75h-0.3h-0.1h-0.1c-0.2-0.1-0.4-0.4-0.4-0.7c0-0.1,0-0.2,0-0.4l0,0L74.1,79.2z"/>
						<path class="st26" d="M74.1,79.4c0,1,0.9,1.1,1.6,0.5c0.2-0.2,0.3-0.4,0.4-0.6L76,79.4L76,79.5l-0.1,0.1l-0.1,0.1l-0.1,0.1
							l-0.1,0.1l-0.1,0.1c0,0-0.1,0.1-0.1,0.1l-0.1,0.1l-0.1,0.1l-0.1,0.1h-0.1H75h-0.1h-0.3h-0.1h-0.1C74.2,80,74.1,79.8,74.1,79.4
							c0,0,0,0,0-0.1C74.1,79.3,74.1,79.3,74.1,79.4L74.1,79.4z"/>
					</g>
				</g>
			</g>
		</g>
		<path class="st28" d="M75.3,78c0.5-0.3,0.9-0.1,0.9,0.4c0,0.6-0.3,1.1-0.8,1.5c-0.5,0.3-0.9,0.1-0.9-0.4
			C74.5,78.8,74.8,78.3,75.3,78z"/>
		<path class="st29" d="M75.3,77.7c0.6-0.4,1.1-0.1,1.2,0.6c0,0.8-0.4,1.5-1,1.9c-0.6,0.4-1.1,0.1-1.2-0.6
			C74.3,78.8,74.7,78.1,75.3,77.7z M75.4,80.4c0.8-0.5,1.3-1.4,1.3-2.4c0-0.9-0.7-1.2-1.5-0.7c-0.8,0.5-1.3,1.4-1.4,2.4
			C73.9,80.6,74.6,80.9,75.4,80.4L75.4,80.4z"/>
		<path class="st25" d="M61.5,115.5c0,0,5,3.7,9.7,3c2.4-0.4,5.1-1.2,7.4-5.5c0.3,0.8,0.4,1.7,0.4,2.5c-2.1,3.1-5.6,4.9-9.4,4.8
			c-2.3-0.1-6.6-0.8-9.4-3.4c0,0,0.5-0.6,0.7-0.8C61.1,116,61.5,115.5,61.5,115.5z"/>
		<path class="st9" d="M95.7,126.3c-0.2,0.5-0.6,0.9-1,0.7l-31.5-12c-0.3-0.1-0.4-0.7-0.2-1.2l0,0c0.2-0.5,0.6-0.9,1-0.7l31.5,12
			C95.8,125.3,95.9,125.8,95.7,126.3L95.7,126.3z"/>
		<path class="st30" d="M88.9,115.7l5,0.5c0,0,8.5,8.6-5.6,29.7C88.4,145.9,99.2,123.1,88.9,115.7z"/>
		<path class="st10" d="M57.4,92.3c1.6-1,7.9,0.1,3.5,7.6c-1.5,2.6-7,9.1-7,9.8c4,1.3,8,2.9,11.8,4.6c0,0-1.1,2.1-0.7,3.4
			c0,0-14.6-0.9-16.8-5.2c0,0-1.4-3.1,1.8-9.1C53.1,97.2,54.8,93.9,57.4,92.3z"/>
		<path class="st11" d="M48.2,112.4c2.2,4.3,16.8,5.2,16.8,5.2c-0.1-0.3-0.1-0.6-0.1-0.8l-2-0.7c0,0-5.5-1.1-9.6-2.4s-3.1-4-3.1-4
			c1.1-3.9,2-7.9,2.6-12c-0.9,1.5-1.8,3.3-3,5.5C46.7,109.4,48.2,112.4,48.2,112.4z"/>
		<path class="st6" d="M58.6,91.4c0,0-4.4,1.6-8.3,10.8c0,0,2.3,5.4,6.5,3.9c0,0,7.5-7.3,5.9-12.8C62.7,93.4,62,90.8,58.6,91.4z"/>
		<path class="st14" d="M56.8,106.2c0,0,6.3-6.2,6.1-11.4c-1.2,2.4-5,9.3-9.9,10.9C54.1,106.4,55.6,106.6,56.8,106.2z"/>
		<path class="st22" d="M81.6,118.9c0,0,2,0.9,3.4-2c0,0,1.3-0.6,1.9,3.2c0.1,0.6,0.2,0.7,1.1,2.1c0.3,0.5,1.2,2.4,0.3,2.5
			c0,0-0.7,0-1.9-1.8c-0.5-0.9-1.4-1.5-2.5-1.5C82.8,121,81.9,120.1,81.6,118.9z"/>
		<path class="st22" d="M65.5,112.9c-1,0.8-2.7,4.8-1,5.7c1,0.5,3.6,0.2,4.4,1.3c0.8,1.1,4.6,4.6,7.6,0.9c0.3-0.4,0.5-1.8-0.5-2
			c-1-0.2-3.4-0.8-2.6-2c0.3-0.4,0.1-0.2,1.9-0.5c0.2,0,0.7-0.4-0.1-0.8s-2.6-0.4-4.3-0.6C69.5,114.7,66.3,112.4,65.5,112.9z"/>
		<path class="st12" d="M64.6,118.6c1,0.5,3.6,0.2,4.4,1.3c0.8,1.1,4.5,4.6,7.5,0.9c0.1-0.1,0.1-0.3,0.2-0.4c-4.2,2-6.2-1-8.2-2.9
			c-1.2-1.1-2.8-1.6-4.4-1.6C63.7,117.1,63.8,118.2,64.6,118.6z"/>
		<polygon class="st31" points="32.5,141.5 102.8,171.5 102.8,67.1 32.5,37 		"/>
		<g>
			<path class="st32" d="M35.2,40.3l0,2c0.2-0.3,0.6-0.4,1-0.2c0.6,0.3,0.9,0.8,1,1.6l0,2l-0.4-0.2l0-1.9c0-0.6-0.2-0.9-0.6-1.1
				c-0.4-0.2-0.7,0-0.9,0.4l0,2l-0.4-0.2l-0.1-4.5L35.2,40.3z"/>
			<path class="st32" d="M38.4,43l0,1.9c0,0.6,0.2,0.9,0.6,1.1c0.4,0.2,0.7,0,0.9-0.4l0-2l0.4,0.2l0.1,3.1L40,46.8l0-0.6
				c-0.2,0.3-0.6,0.4-1,0.2c-0.6-0.3-1-0.8-1-1.6l0-2L38.4,43z"/>
			<path class="st32" d="M41.6,44.9c0.2-0.3,0.4-0.4,0.8-0.3c0.4,0.2,0.6,0.5,0.8,1c0.2-0.4,0.5-0.5,0.8-0.3
				c0.3,0.1,0.5,0.4,0.7,0.7c0.1,0.2,0.2,0.5,0.2,0.9l0,2l-0.4-0.2l0-2c0-0.5-0.2-0.9-0.5-1c-0.3-0.1-0.6,0.1-0.6,0.5l0,2L42.8,48
				l0-2c0-0.5-0.2-0.9-0.5-1c-0.3-0.1-0.6,0.1-0.7,0.5l0,2l-0.4-0.2l-0.1-3.1l0.4,0.2L41.6,44.9z"/>
			<path class="st32" d="M47.3,47.8c0-0.2-0.1-0.5-0.2-0.6s-0.3-0.3-0.6-0.4c-0.3-0.1-0.6-0.2-0.9,0l-0.2-0.4c0.3-0.1,0.7-0.1,1.1,0
				c0.7,0.3,1.1,0.9,1.1,1.6l0,1.1c0,0.4,0.1,0.8,0.2,1L47.5,50c0-0.1-0.1-0.4-0.1-0.6l0,0c-0.1,0.1-0.2,0.2-0.4,0.3
				c-0.2,0.1-0.4,0-0.6-0.1c-0.5-0.2-0.9-0.8-0.9-1.4c0-0.3,0.1-0.5,0.4-0.6c0.3-0.1,0.6,0,1.2,0.2l0.4,0.2L47.3,47.8z M47,48.2
				c-0.8-0.3-1.2-0.3-1.2,0.2c0,0.3,0.2,0.7,0.6,0.8c0.5,0.2,0.9,0,0.9-0.5l0-0.3L47,48.2z"/>
			<path class="st32" d="M49,48.1c0.2-0.3,0.6-0.4,1-0.2c0.6,0.3,0.9,0.8,1,1.6l0,2l-0.4-0.2l0-1.9c0-0.6-0.2-0.9-0.6-1.1
				c-0.4-0.2-0.7,0-0.9,0.4l0,2l-0.4-0.2l-0.1-3.1l0.4,0.2L49,48.1z"/>
		</g>
	</g>
</g>
</svg>
