<?xml version="1.0" encoding="utf-8"?>
<!-- Generator: Adobe Illustrator 26.0.1, SVG Export Plug-In . SVG Version: 6.00 Build 0)  -->
<svg version="1.1" id="Layer_1" xmlns="http://www.w3.org/2000/svg" xmlns:xlink="http://www.w3.org/1999/xlink" x="0px" y="0px"
	 viewBox="0 0 136 184.9" style="enable-background:new 0 0 136 184.9;" xml:space="preserve">
<style type="text/css">
	.st0{fill:#576772;}
	.st1{fill:#687E87;}
	.st2{fill:#728892;}
	.st3{fill:none;stroke:#FC1717;stroke-miterlimit:10;}
	.st4{fill:#FC1717;}
	.st5{opacity:0.2;}
	.st6{fill:#5D5D5D;}
	.st7{fill:#F7AD0C;}
	.st8{fill:#EDA006;}
	.st9{fill:#F4B80F;}
	.st10{fill:#492E29;}
	.st11{fill:#3D2415;}
	.st12{fill:#331C11;}
	.st13{fill:#492817;}
	.st14{fill:#F1B287;}
	.st15{fill:#E8A476;}
	.st16{fill:#D32420;}
	.st17{fill:#E03128;}
	.st18{fill:#1D374E;}
	.st19{fill:#172E3F;}
	.st20{fill:#23435B;}
	.st21{fill:#DB9669;}
	.st22{fill-rule:evenodd;clip-rule:evenodd;fill:#E8A476;}
	.st23{fill:#3F210A;}
	.st24{fill:#4F2B0C;}
	.st25{fill:#361D07;}
	.st26{fill:#301808;}
	.st27{fill:#4C260C;}
	.st28{fill:#ED602B;}
	.st29{fill:#DF3F29;}
	.st30{fill:#FFFFFF;}
	.st31{clip-path:url(#SVGID_00000088824644917391111140000012796595487814974081_);}
	.st32{fill:#FEFFFF;}
	.st33{fill:#553730;}
	.st34{fill:#141B1F;}
	.st35{fill-rule:evenodd;clip-rule:evenodd;fill:#F1B287;}
</style>
<g id="Layer_2_00000087392898907353926980000007616021656367029924_">
	<g id="Layer_1-2">
		<g>
			<path class="st0" d="M77.6,93c0,0,0,5.9,0,7.1c0,1.2-4.2,5.4-4.2,5.4L73,94.5l2.6-1.5L77.6,93z"/>
			<path class="st1" d="M74.3,96.9l0.1,1.5c0,0-0.8,7-1,7.1c-0.2,0.1-3.2,0-3.7,0s-7-5.4-7-5.4v-4c0,0,8.4-3,8.6-3
				S74.3,96.9,74.3,96.9z"/>
			<path class="st2" d="M62.7,96.1l0.4-1.9l3.1-3.8c0,0,5,0.4,5.9,0.5c0.8,0.1,2.6,0.7,2.6,0.7s2.8,0.8,2.8,1.3
				c0.1,0.5-0.6,0.9-0.6,0.9L75,93.8l1.5,0.8l-0.4,1l-1-0.3l0.7,1l-1.1,1.9l-0.4,0.4c0,0-3.1,0.1-4,0c-1.4-0.5-2.7-1.2-3.9-1.9
				C65.3,96.3,64,96.2,62.7,96.1z"/>
			<path class="st1" d="M51.9,101.4l2.2,10.5l5.8,3.4c0,0-0.8-12.5-1.4-13.1c-0.6-0.6-3.1-2.9-3.1-2.9L51.9,101.4z"/>
			<polygon class="st0" points="58.9,102.1 57.5,106.4 59.9,114.9 70.5,112.4 70.5,108.5 68.5,100.6 			"/>
			<path class="st2" d="M51.9,101.4l4.3-5.8c0,0,8.3,1.1,9.2,1.5c1.2,1.2,2.2,2.5,3.1,3.9c-1.5,0.3-3.1,0.7-4.5,1.3
				c-0.4,0.4-6.5,4.5-6.5,4.5s-1.5-2-2.3-3c-0.8-1,0.1-2.7,0.1-2.7l-1.5,1.3L51.9,101.4z"/>
			<path class="st0" d="M57.9,91l-5.5,3.4l1,7.5l11.4-0.2c0.2-0.9,0.2-1.7,0.1-2.6c-0.2-0.6-0.8-4.2-1.1-5.5l-0.1-0.4L57.9,91z"/>
			<path class="st1" d="M48.7,89.7h-1.8c0,0-0.9,9.9-1,10.4s4.4,1.9,6,1.9h1.5l1.1-7.2l-2.7-5.5L48.7,89.7z"/>
			<path class="st2" d="M47.8,88.5c-0.4,0.8-0.3,0.7-1,1.2s3.1,2.7,3.1,2.7l2.6-0.8l-2.2,1.5l0.7,0.4l1.5-0.4l-1.4,1l3.4,0.5
				l9.2-1.5c0,0-3.1-3.8-3.2-3.7C60.4,89.6,60,85,60,85L47.8,88.5z"/>
			<polygon class="st0" points="61.7,115.2 62.9,118.9 62.3,125.1 58.3,129.6 57.8,122.6 			"/>
			<polygon class="st1" points="58,121.6 58.5,124.2 58.3,129.6 54.8,129.6 48.6,122.1 46.6,115.6 			"/>
			<path class="st2" d="M55.3,109.7c0,0,6.4,5.2,6.5,5.5c-0.1,0.9-0.3,1.9-0.6,2.8c-0.3,1-2.6,6.1-2.6,6.1s-3.3-0.8-5.4-1.5
				s-6.5-7.1-6.5-7.1L55.3,109.7z"/>
			<path class="st0" d="M56.8,101.7c0,0,0.1,7.7,0,9.2c-0.1,1.5-5.4,7.1-5.4,7.1l-0.6-14.4l3.4-2L56.8,101.7z"/>
			<path class="st1" d="M52.6,106.8l0.2,2c0,0-1.1,9.2-1.3,9.2c-0.2,0-4.2-0.1-4.8,0c-0.7,0.1-9.2-7.1-9.2-7.1v-5.2
				c0,0,11-3.9,11.2-3.9S52.6,106.8,52.6,106.8z"/>
			<path class="st2" d="M37.4,105.8l0.6-2.5l4.1-4.9c0,0,6.6,0.5,7.7,0.7c1.1,0.2,3.4,0.9,3.4,0.9s3.6,1.1,3.7,1.7s-0.8,1.2-0.8,1.2
				l-2.5-0.2l2,1.1l-0.5,1.2l-1.2-0.4l0.9,1.2l-1.4,2.6l-0.6,0.5c-1.7,0.1-3.5,0.1-5.2,0c-1.8-0.7-3.5-1.5-5.1-2.5
				C40.8,106,39.1,105.9,37.4,105.8z"/>
			<polygon class="st0" points="32.8,106.3 35.6,111.7 28.8,115.7 24.7,111 			"/>
			<polygon class="st1" points="27.1,109.8 26.8,111.7 28.8,115.7 27.1,116.3 24,115.8 20.6,111.7 21.5,110.3 27.1,107.9 			"/>
			<polygon class="st2" points="26.8,105.7 21.5,110.3 22.5,110.3 25.4,109.5 23.4,111.7 26.8,111.7 32.8,106.3 30.5,105 			"/>
			<path class="st0" d="M19.1,130.6c0,1.9-0.8,3.8-2.1,5.2c-0.7,0.3-7.7,1.2-9.9,1.4c-1-1.2,2.5-6.5,2.5-6.5H19.1z"/>
			<path class="st2" d="M9,132.3c-1.1-0.3-0.5-1-1.1-1.8s-0.7-2-1.2-2.8c-0.5-0.9-0.6-1.9-0.4-2.9c1.7,0.1,3.4,0.5,4.9,1.3
				c1.9,0.9,1.3,1,2.8,1.6c1.5,0.6,3.9,0.6,4.6,1.7c0.7,1.1,0.6,2-1,1.9c-1.6-0.1-3.3-0.6-4.6,0c-1.3,0.6-2.1,1.4-2.9,1.4
				C9.7,132.7,9.3,132.6,9,132.3z"/>
			<path class="st1" d="M7.5,125.7l-1.3-1c-0.8,1-1.3,2.2-1.5,3.5c0,1.3-1.3,1.9-1.5,2.8c-0.2,0.9-0.5,0.4-1,1.4
				c-0.4,1,2.1,3.1,3.6,4.1c0.7,0.5,1.2,0.8,1.2,0.6l2-5L7.5,125.7z"/>
			<path class="st1" d="M30,113.7l2.2,10.5l5.8,3.4c0,0-0.8-12.5-1.4-13.1c-0.6-0.6-3.1-2.9-3.1-2.9L30,113.7z"/>
			<polygon class="st0" points="37,114.4 35.6,118.7 38,127.2 48.6,124.7 48.6,120.8 46.6,112.9 			"/>
			<path class="st2" d="M30,113.7l4.3-5.8c0,0,8.3,1.1,9.2,1.5c1.2,1.2,2.2,2.5,3.1,3.9c-1.5,0.3-3.1,0.7-4.5,1.3
				c-0.4,0.4-6.5,4.5-6.5,4.5s-1.5-2-2.3-3c-0.8-1,0.1-2.7,0.1-2.7l-1.5,1.3L30,113.7z"/>
			<path class="st1" d="M71,105.9l2.2,10.5l5.8,3.4c0,0-0.8-12.5-1.4-13.1c-0.6-0.6-3.1-2.9-3.1-2.9L71,105.9z"/>
			<polygon class="st0" points="77.9,106.6 76.5,111 78.9,119.4 89.5,116.9 89.5,113 87.5,105.1 			"/>
			<path class="st2" d="M71,105.9l4.3-5.8c0,0,8.3,1.1,9.2,1.5c1.2,1.2,2.2,2.5,3.1,3.9c-1.5,0.3-3.1,0.7-4.5,1.3
				c-0.4,0.4-6.5,4.5-6.5,4.5s-1.5-2-2.3-3s0.1-2.7,0.1-2.7l-1.5,1.3L71,105.9z"/>
			<path class="st1" d="M50.3,120.8l2.2,10.5l5.7,3.4c0,0-0.8-12.5-1.4-13.1c-0.6-0.6-3.1-2.8-3.1-2.8L50.3,120.8z"/>
			<polygon class="st0" points="57.2,121.5 55.8,125.8 58.2,134.3 68.8,131.8 68.8,127.9 66.8,120 			"/>
			<path class="st2" d="M50.3,120.8l4.3-5.8c0,0,8.4,1.1,9.2,1.5c1.2,1.2,2.2,2.5,3.1,3.9c-1.5,0.3-3.1,0.7-4.5,1.3
				c-0.4,0.4-6.5,4.5-6.5,4.5s-1.4-2-2.3-3s0.1-2.7,0.1-2.7l-1.5,1.3L50.3,120.8z"/>
			<path class="st0" d="M38.5,120.1v6.9c0,0-1.8,5.1-2.8,6.1c-1,1-7.7,3.6-10.1,4.3c-1.5,0.4-3,0.1-4.3-0.8c0,0-2.3-8.4-2.4-8.9
				C19,127.1,38.5,120.1,38.5,120.1z"/>
			<path class="st1" d="M24,125.3l-2.1,2.4c-0.7,1.6-1.1,3.3-1.2,5c0.2,1.4,0.7,4,0.7,4c-1.6-0.8-3.1-1.7-4.6-2.8
				c-1.5-1.2-1.3-6.3-1.4-8.5c-0.1-2.2,0-7.4,2.6-7.9l1.7,1.6h3.9L24,125.3z"/>
			<path class="st2" d="M18,117.4c-1.5,1.8-1.3,3.6-0.6,3.5c0.8-0.1,4-1.8,4.5-0.5c0.5,1.2,0,7.3,0,7.3c1.8,0.1,3.7-0.1,5.4-0.5
				c1.4-0.6,10.1-4.6,10.1-4.6l1.1-2.5l-9.2-2.7L18,117.4z"/>
			<path class="st1" d="M76.3,119.8v5.7c0.6,1.8,1.3,3.4,2.3,5c2.6,1.5,5.4,2.7,8.3,3.5c1.2,0.4,2.5,0.1,3.5-0.6c0,0,1.9-6.9,2-7.3
				C92.4,125.5,76.3,119.8,76.3,119.8z"/>
			<path class="st0" d="M88.3,124.1L90,126c0.5,1.3,0.9,2.7,1,4.1c-0.2,1.1-0.6,3.2-0.6,3.2c1.3-0.7,2.6-1.4,3.8-2.3
				c1.2-1,1.1-5.1,1.2-7c0.1-1.8,0-6.1-2.1-6.5l-1.4,1.3h-3.2L88.3,124.1z"/>
			<path class="st2" d="M93.2,117.6c1.3,1.5,1.1,2.9,0.5,2.8S90.4,119,90,120c-0.2,2-0.2,4,0,6c-1.5,0.1-3-0.1-4.5-0.4l-8.3-3.8
				l-0.9-2l7.5-2.2H93.2z"/>
			<polygon class="st0" points="56.2,129.5 57,136.1 48.7,142.3 47.7,134.9 			"/>
			<path class="st1" d="M48.7,135.3v6.9h-2c0,0-0.2-0.9-1.5-1.2c-1.4-0.3-2.1,1.2-2.1,1.2s-5.8,1.3-6.8,0c-1-1.3-6-4.2-6-4.2
				l3.8-8.1h13.2L48.7,135.3z"/>
			<path class="st2" d="M34.1,129.9l6.1,5l4.7-2l-2.9,2.6l1.9,1.2l1.8-0.6l-0.6,1.5l3.5,1.2c0,0,4-4,4.4-4.5
				c0.4-0.5,3.1-4.9,3.1-4.9s-6.1-7.1-7.7-7.1C46.9,122.3,34.1,129.9,34.1,129.9z"/>
			<path class="st0" d="M34.7,98.5c1,0.4,1.9,0.9,2.8,1.5c0.6,1.5,1.1,3,1.5,4.5l-1.1,3.6l-3.5-5.3l0.8-1.8L34.7,98.5z"/>
			<path class="st1" d="M30.2,101.9c-0.2,0.3-0.4,0.6-0.7,0.9c0.1,1,0.3,2.1,0.6,3.1c0.1,0.5,0.4,0.9,0.6,1.3c1.5,0.6,3.1,1,4.7,1
				c2-0.1,2.3-0.2,2.3-0.2l-1.3-4.6l-5.9-1L30.2,101.9z"/>
			<path class="st2" d="M34.4,98.8c-0.1,0-2.6,1.1-2.7,1.2c-0.6,0.6-1.1,1.2-1.8,1.7c-0.5,0.3-0.3,1.1-0.3,1.1l2.4,0.6
				c0.5,0.2,1,0.3,1.5,0.2l3-0.2l-1.5-0.6l1.8,0.1l0.4-0.8l-0.8-0.1l0.8-0.4c-0.1-0.7-0.4-1.4-0.8-2c-0.5-0.5-1.8-1.3-1.8-1.3
				L34.4,98.8z"/>
			<path class="st0" d="M102,125.4c1,0.4,1.9,0.9,2.8,1.5c0.6,1.5,1.1,3,1.5,4.5l-1.1,3.6l-3.5-5.3l0.8-1.8L102,125.4z"/>
			<path class="st1" d="M97.5,128.9c-0.2,0.3-0.4,0.6-0.7,0.9c0.1,1,0.3,2.1,0.6,3.1c0.1,0.5,0.4,0.9,0.6,1.3c1.5,0.6,3.1,1,4.7,1
				c2-0.1,2.3-0.2,2.3-0.2l-1.3-4.6l-5.8-1L97.5,128.9z"/>
			<path class="st2" d="M101.6,125.8c-0.1,0-2.6,1.1-2.7,1.1c-0.6,0.6-1.1,1.2-1.8,1.7c-0.5,0.3-0.3,1.2-0.3,1.2l2.4,0.6
				c0.5,0.2,1,0.2,1.5,0.2l3-0.2l-1.5-0.6l1.8,0.1l0.4-0.8l-0.8-0.1l0.8-0.4c-0.1-0.7-0.4-1.4-0.8-2c-0.5-0.5-1.8-1.3-1.8-1.3
				L101.6,125.8z"/>
			<path class="st0" d="M72.7,134.1c0,0,5.7-3.8,7.3-4.6c1.7-0.9,3.1-5.4,3.1-5.4l-2-9l-11.9,1.4L72.7,134.1z"/>
			<path class="st1" d="M63.9,128.3l0.9-7.9c1.9,1.4,3.8,2.8,5.8,4c0.9,0.5,1.8,0.8,2.8,0.8l-0.8,9c0,0-2.4-0.2-2.7-0.5
				S63.9,128.3,63.9,128.3z"/>
			<path class="st2" d="M65.6,123l-0.7-2.6c0.7-1.6,1.5-3.2,2.4-4.7c0.3,0.2,5.3-3.2,6.3-3.5c0.9-0.3,7.6,3.1,7.6,3.1
				c-1.7,0.9-3.2,2.1-4.5,3.4c-0.9,1.2-1.6,2.5-2.3,3.9l-2.7-1.1l2.4,1.5l-0.6,2.2l-4.3,0.7L65.6,123z"/>
			<path class="st0" d="M71.1,133l-0.1,4.6c0,0-3.4,3.2-4.4,2.8c-1.1-0.4-4.7-1.3-4.7-1.3l-1.1-0.7l-0.4-5.1L71.1,133z"/>
			<path class="st1" d="M64.4,132.5l-1.7,1.7c0,0-1.7,0.8-1.4,1.5s-0.6,2.7-0.6,2.7c-0.4-1.2-1-2.3-1.8-3.4
				c-0.6-0.6-0.8-1.5-0.6-2.4l2.1-4.6l4.3,0.7L64.4,132.5z"/>
			<path class="st2" d="M60.4,128l1.4,2.5l2.1-0.2l-1.9,1l0.2,1l1.1-0.3l-1,1l0.3,1.1c1.7,0.3,3.4,0.4,5.1,0.5
				c0.6-0.2,3.1-1.5,3.2-1.6c0.2-0.1-2.5-3.2-2.5-4c-0.3-1.2-0.7-2.4-1.3-3.5L60.4,128z"/>
			<path class="st0" d="M95.3,138.7l1,2.5c0,0-1,2.6-1.7,2.7s-2.8,0.6-2.8,0.6H91l-1.4-2.6L95.3,138.7z"/>
			<path class="st1" d="M91.6,140.2l-0.5,1.3c0,0-0.7,0.9-0.4,1.2s0.3,1.5,0.3,1.5c-0.5-0.5-1.1-1-1.7-1.4c-0.5-0.2-0.8-0.6-0.9-1.1
				v-3.1l2.5-0.8L91.6,140.2z"/>
			<path class="st2" d="M88.4,138.8l1.3,1l1.1-0.7l-0.8,1.1l0.4,0.5l0.5-0.5l-0.3,0.8l0.4,0.5c1-0.3,1.9-0.7,2.9-1.1
				c0.3-0.2,1.3-1.7,1.4-1.7c0.1-0.1-2.1-1-2.3-1.5c-0.5-0.6-1-1.1-1.5-1.5L88.4,138.8z"/>
			<path class="st0" d="M72.1,104.4c1.3,1,1.4,9.7,1.4,9.7l-2.4,5.1l-1.8-8.6l1-6.1L72.1,104.4z"/>
			<path class="st1" d="M63.3,107.8c-1.7,0.2-3.4,0.6-5,1.1l0.2,6.7c0,0,2.6,4.9,6.4,4.8c2.1,0,4.2-0.4,6.1-1.2l-0.8-8.2L63.3,107.8
				z"/>
			<path class="st2" d="M69.3,111.7c-2.1-0.1-4.3-0.1-6.4,0c-1.6-0.8-3.2-1.7-4.6-2.8c0,0,0.5-2,2.1-2c1.6-0.1,1.9-1.7,3.6-1.8
				c1.7-0.1,6.4-1.4,7.6-1.1c1.2,0.4,0.8,1.7,0.8,1.7l-0.8-0.6c0.5,1.5,0.6,3.1,0.2,4.6C71.3,110.8,70.4,111.5,69.3,111.7z"/>
			<path class="st0" d="M77.4,136.7c0.9,0.4,1.7,0.9,2.3,1.7l-0.8,0.9l1-0.8l0.4,1.5v0.7l-2.1,1.2L77.4,136.7z"/>
			<path class="st1" d="M77.4,136.7c-1.4,0.2-2.6,3.3-2.6,3.3l0.8,1.9c0,0,1.9-0.4,2.4,0s0.5-1.6,0.5-2.6
				C78.3,138.4,77.9,137.5,77.4,136.7z"/>
		</g>
		<polygon class="st3" points="52.9,148.1 133,182.3 133,37.7 53,3.5 		"/>
		<g>
			<path class="st4" d="M55.9,7.2l0,2.2c0.3-0.3,0.7-0.4,1.1-0.2c0.7,0.3,1.1,1,1.1,1.8l0,2.2L57.8,13l0-2.2c0-0.6-0.2-1.1-0.7-1.3
				c-0.4-0.2-0.8,0-1.1,0.4l0,2.3l-0.5-0.2L55.5,7L55.9,7.2z"/>
			<path class="st4" d="M59.7,10.3l0,2.2c0,0.6,0.3,1.1,0.7,1.3c0.4,0.2,0.8,0,1.1-0.4l0-2.2l0.5,0.2l0.1,3.5l-0.5-0.2l0-0.7
				c-0.3,0.3-0.7,0.4-1.1,0.3c-0.7-0.3-1.1-0.9-1.1-1.8l0-2.2L59.7,10.3z"/>
			<path class="st4" d="M63.2,12.4c0.2-0.3,0.5-0.5,0.9-0.3c0.4,0.2,0.7,0.6,0.9,1.1c0.2-0.4,0.5-0.5,0.9-0.4
				c0.3,0.1,0.6,0.4,0.8,0.8c0.1,0.3,0.2,0.6,0.2,1l0,2.2l-0.4-0.2l0-2.2c0-0.6-0.2-1-0.6-1.2c-0.3-0.1-0.6,0.1-0.7,0.5l0,2.3
				l-0.4-0.2l0-2.3c0-0.5-0.2-1-0.6-1.1c-0.3-0.1-0.6,0.1-0.8,0.6l0,2.2l-0.4-0.2l-0.1-3.5l0.4,0.2L63.2,12.4z"/>
			<path class="st4" d="M69.8,15.8c0-0.3-0.1-0.5-0.2-0.7c-0.1-0.2-0.3-0.3-0.6-0.5c-0.4-0.2-0.7-0.2-1,0l-0.2-0.5
				c0.4-0.2,0.8-0.1,1.3,0.1c0.8,0.3,1.3,1,1.3,1.8l0,1.2c0,0.4,0.1,0.9,0.2,1.1L70,18.2c0-0.1-0.1-0.4-0.2-0.7l0,0
				c-0.1,0.1-0.2,0.3-0.4,0.3c-0.2,0.1-0.4,0-0.7-0.1c-0.6-0.3-1.1-0.9-1.1-1.5c0-0.4,0.1-0.6,0.4-0.7c0.3-0.1,0.7,0,1.3,0.2
				l0.4,0.2L69.8,15.8z M69.4,16.2c-0.9-0.4-1.4-0.3-1.3,0.2c0,0.4,0.3,0.8,0.7,0.9c0.6,0.2,1.1,0,1.1-0.6l0-0.4L69.4,16.2z"/>
			<path class="st4" d="M71.7,16.1c0.3-0.3,0.7-0.4,1.1-0.2c0.7,0.3,1.1,1,1.1,1.8l0,2.2l-0.5-0.2l0-2.2c0-0.6-0.2-1.1-0.7-1.3
				c-0.4-0.2-0.8,0-1.1,0.4l0,2.3l-0.5-0.2l-0.1-3.5l0.5,0.2L71.7,16.1z"/>
		</g>
		<g class="st5">
			<path class="st6" d="M121.3,139.5c16.1,9.3,16.2,24.4,0.2,33.7s-42.1,9.3-58.2,0s-16.2-24.4-0.2-33.7S105.2,130.2,121.3,139.5z"
				/>
		</g>
		<path class="st7" d="M110.6,84.8c0,0,4,15.9-1.8,29.1c-2.1,5.7-3.3,11.8-3.5,17.9c0,1.8-2.1,13.9-2.1,13.9s-3.9,1.8-7.2-0.3
			c0,0-2-13,0-19.5c0,0,1.2-9.4,0.1-13.4s2.3-18,2.3-18S105.2,87.8,110.6,84.8z"/>
		<path class="st8" d="M96,112.4c1.2,4-0.1,13.4-0.1,13.4c-2,6.5,0,19.5,0,19.5c1,0.6,2.1,1,3.3,1c-0.3-2.5-0.6-5.3-0.6-6.9
			c0-3.2-1.7-7.9,1.8-20.2c2.1-7.4,3-15.1,2.6-22.8L98.2,95C97.5,97.6,95,109,96,112.4z"/>
		<path class="st7" d="M89.8,86.7c0,0,6.5,4.8,12.9,1.9c0,0,2.2,12.1-4.1,23.5c0,0-3.4,8.3-5,12.4s-2.8,7.6-4.2,12.4
			s-6.8,15.4-6.8,19.9c0,0,0,3.3-5.2,0c0,0-0.6-24.6,5.3-32.8c0,0,1-19,2.2-25.4C86.3,90.8,89.8,86.7,89.8,86.7z"/>
		<path class="st7" d="M89.8,86.7c0,0,6.5,4.8,12.9,1.9c0,0,2.2,12.1-4.1,23.5c0,0-3.6,8.3-5.2,12.4c-1.6,4-2.6,7.6-4,12.4
			c-1.4,4.8-6.9,15.4-6.9,19.9c0,0,0,3.3-5.2,0c0,0-0.6-24.6,5.3-32.8c0,0,1-19,2.2-25.4C86.3,90.6,91.2,85.4,89.8,86.7z"/>
		<path class="st8" d="M89.8,86.7c0,0-3.6,4.1-5,11.8c-1.2,6.4-2.2,25.4-2.2,25.4c-5.9,8.2-5.3,32.8-5.3,32.8c1,0.6,0.8,0.6,1.6,0.8
			c-0.7-8.3,3.9-25,6.8-33.2c3.4-9.5,1.2-18,1.2-23.8s3.8-5.4,3.8-5.4c6,0,10.3-3.3,12.2-4.7c0-0.5-0.1-0.4-0.1-0.8l-1.3-0.5
			C95.6,90.9,89.8,86.7,89.8,86.7z"/>
		<path class="st9" d="M102.9,90.2c-2.1,3.5-5.9,5.4-9.3,6.3c-5.9,1.6-5.1,6-4,13.2c1.1,7.2-3.9,22.2-7.5,32.7
			c-2.8,8-1.9,13.1-1.3,15.1c0.6-0.1,1.3-0.4,1.8-0.8c-0.3-4.3,1.2-8.7,2-12.5c1.1-5,9.1-23.5,10.1-27.3s1.6-9.5,3.9-15.4
			c1-2.6,1.2-6,4.4-6.8C103.1,94.3,102.9,90.6,102.9,90.2z"/>
		<path class="st9" d="M103.2,145.6c-0.1-4.8,0.6-11.6,0.6-14.3c0.2-7.8,1.8-15.5,4.6-22.8c3.8-10.3,1.2-22.6,1.2-22.6
			c-3.4,4-6.6,4.4-6.6,4.4l0.2,4.4c4.9-0.3-0.7,28.3-2.6,33.6c-1.6,4.2,0.1,14.2,0.8,17.9C102,146.1,102.6,145.9,103.2,145.6
			L103.2,145.6z"/>
		<path class="st10" d="M89.8,86.7c0,0,6.1,4.5,11.7,3.6c2.9-0.5,6.2-1.5,9-6.6c0.3,1,0.5,2,0.5,3c-2.6,3.7-6.8,5.9-11.4,5.8
			c-2.8-0.1-8-1-11.4-4.1c0,0,0.6-0.8,0.8-1C89.3,87.1,89.8,86.7,89.8,86.7z"/>
		<path class="st11" d="M76.9,141.7c-1.3-0.8,0.5,12.5-1,16.3c-0.4,0.9-0.4,2-0.1,2.9c0.8,1.8,3.9,2.9,5.3,6
			c1.4,3.1,8.2,4.3,8.6,1.2c0.1-0.9-1-2.5-2.9-4.2c-2.9-2.6-5.9-6,0.8-20C88.6,141.8,82.2,145,76.9,141.7z"/>
		<path class="st11" d="M94.7,132.7c-1.6-0.5,1.8,9,0.5,13.6c-1.2,4.3-1,5.1,1.5,6.4c1.3,0.3,2.7,0.3,4,0c0,0,1.4-0.3,3.8,2
			c0,0,6.2,4,7.9,0.5c0,0,0.8-1.9-2.7-3.6c0,0-4.8-1.8-5.8-6.4c-0.9-4.1,2.3-12.6,1.6-13.2C104.5,131,104,135.5,94.7,132.7z"/>
		<path class="st12" d="M75.8,160.9c0.8,1.8,3.9,2.9,5.3,6c1.4,2.9,7.4,4.2,8.5,1.7c-4.5,2.1-7.2-1-7.9-2.9
			c-0.7-1.4-1.6-2.7-2.9-3.6c-1.5-0.7-2.6-1.9-3.1-3.4C75.5,159.4,75.6,160.2,75.8,160.9z"/>
		<path class="st13" d="M86.8,163.9c-2.9-2.6-5.9-6,0.8-20c0.8-1.7-4.1,0.8-8.6-0.9c0.4,3.8-0.6,9.9-1.4,13.3
			c-1,3.8,1.8,4.1,3.1,5.4s1.5,2.7,4.3,5.6c2.2,2.2,4,1.2,4.6,0.7C89.7,167,88.6,165.5,86.8,163.9z"/>
		<path class="st12" d="M96.7,152.6c1.3,0.3,2.7,0.3,4,0c0,0,1.4-0.3,3.8,2c0,0,6,3.9,7.8,0.7c-2.1,0.6-5.7-0.3-6.9-1.5
			c-1.5-1.5-2.1-2.1-6.4-2.1c-1.8,0.1-3.5-0.7-4.6-2.1C94.5,151.1,95.1,151.8,96.7,152.6z"/>
		<path class="st13" d="M109.8,151.7c0,0-4.8-1.8-5.8-6.4c-0.9-4.1,2.3-12.6,1.6-13.2c-0.8-0.8-1.3,1.6-5.4,1.6
			c0.6,3.1,0.6,6.2,0,9.3c-1.3,4.7-1.6,5.9,1.1,6.8c2.7,0.9,4.1,1.4,6.1,3.4c1.3,1.4,3.3,2,5.2,1.5
			C112.5,154,112.1,152.7,109.8,151.7z"/>
		<path class="st14" d="M110.9,53c0,0,4.4,1.1,1.5,13.7c0,0,0,10.6,0.1,13.9l1.2,9.8c0,0-0.8,1.1-3.5,0.4c0,0-4.4-8.4-4.6-12.5
			c-0.2-4.1-1.7-24.2,2.2-25.4C107.8,52.8,109.8,52.1,110.9,53z"/>
		<path class="st15" d="M110.2,90.8c0.5,0.1,1,0.2,1.6,0.2c-1.6-3.2-2.8-6.5-3.8-9.9c-1.7-6.4,2.2-14.4,2.2-14.4l-5-1.6
			c0,5.5,0.4,11.2,0.5,13.2C105.8,82.3,110.2,90.8,110.2,90.8z"/>
		<path class="st16" d="M109.7,90.8c0.3,1.6,0.4,3.3,0.4,5c-0.2,2.1,0.8,3.1,1.6,3.6s3.3,1.6,3.7-1.4s-0.2-3.7-0.2-3.7l-2.6-3.8
			L109.7,90.8z"/>
		<path class="st17" d="M109.4,89.5c0,0,2,1.3,4-1.5c0,0,1.5-0.4,1.4,3.8c0,0.6,0.1,0.8,0.8,2.4c0.2,0.6,0.8,2.7-0.2,2.7
			c0,0-0.7-0.2-1.6-2.3c-0.4-1-1.2-1.8-2.3-2.1C110.3,91.9,109.5,90.8,109.4,89.5z"/>
		<path class="st18" d="M104.5,48.4c0,0-2.5,5,1.4,16c0,0,6.3,2.8,8.8-1.8c0,0,0.6-12.3-5-15.7C109.6,46.9,106.9,45.2,104.5,48.4z"
			/>
		<path class="st18" d="M90.8,52.7c-4.1,2.4-13.2,6.7-7.6,15.2c0,0,4.3,6.3,6.4,8.9c2.4,2.5,2.9,6.3,1.2,9.4c0,0,8.7,10.6,19.7-2
			c0,0-1-8.9,0-13.7c1-4.8,4.6-20-4.6-23.5C102.4,45.7,99.1,47.9,90.8,52.7z"/>
		<path class="st19" d="M83.1,67.9c0,0,2.5,5.7,4.6,8.3c1.5,1.8,3.9,5.5,1.7,9.9c0,0,5,4.6,10.7,4.2c-6.1-8.7-5.8-13.8-5.4-18.7
			c0.8-7.8,0.1-12.8-3-15.8c-1.2-1-2.6-1.5-4.1-1.5C84.1,56.3,79.1,60,83.1,67.9z"/>
		<path class="st20" d="M110.5,84.2c0,0-1-8.9,0-13.7c1-4.8,4.6-20-4.6-23.5c-2.2-0.8-3.8,0.5-7,1.1c3.6,1,11.3,6.8,9,19.3
			c-2.1,11.5-3.9,16.6-4,22C106.4,88.2,108.7,86.4,110.5,84.2z"/>
		<path class="st15" d="M104,52.6c-1.4,1.2-2.2,2.9-2.1,4.8c0.3,2.5-5.1,2.3-8.2-5.7c0,0,2.2-1.4,0.7-8.4L104,52.6z"/>
		<path class="st21" d="M102.5,53.7c0,0-5.6-2.7-8.6-2.2c0,0,1.4-1.1,0.9-5.2c-1.9-2.5-2.4-5.8-1.5-8.8c0,0,1.2-4.8,6.1-4.7
			C99.4,32.9,91,43.1,102.5,53.7z"/>
		<path class="st14" d="M108.4,41.4c-0.1,0.8-1,0.8-0.1,4c0.6,2,0.2,2-0.8,5.2c-0.6,1.8-2,5.7-7.5,1.9c0,0-5.2-5-6.4-8.9
			s-0.6-7.5,2.7-10.1C96.2,33.5,109.7,30.2,108.4,41.4z"/>
		<path class="st22" d="M108.5,39.9c-1.6,1-3.4,1.6-5.3,1.9c0,0-2.7-0.4-2.9,0.6c-0.1,0.4,0.1,3.3,0.8,4.2c0.8,1.3,1.3,2.8,1.6,4.3
			c-0.1,0.5,0.4,3,1.9,3.2c0,0-3.8,1-8.3-5.6c0,0-3.7-4.9-3.6-5.8c0.1-0.9,5.9-3.1,7.5-3.5c1.6-0.4,8-1.9,8-1.9
			S108.5,39.4,108.5,39.9z"/>
		<path class="st23" d="M108.5,37.6c-0.2,2.1-4.9,2.7-8,2.9c-1.2,0.1-2.1,0.9-1.5,4.3s-1.3,3.6-1.4,3c-0.3-2.7-2.8-5.2-2.7-0.8
			c0,0-5.6-6.8-2.9-11.4c1.7-3,6-5.9,13.2-2.6C106.5,33.6,108.6,35.2,108.5,37.6z"/>
		<path class="st23" d="M99,44.8c0.6,3.5-1.4,3.3-1.4,3.3c-0.2-3.2-3-4.7-2.7-1.1c0,0-5.5-6.8-2.9-11.4c0.9-1.6,2.3-2.8,4-3.4
			c-4.8,6.5,2.1,6.9,3.6,8.4C98.9,41.1,98.5,42.2,99,44.8z"/>
		<path class="st24" d="M98.8,43.1c0,0-1.2-1.3-1.5,0.1c-0.6-0.5-1-1.4-0.9-2.2c0,0-1.1,0-1.3,1.5c-0.6-0.7-0.8-1.6-0.6-2.5
			c-0.7,0.6-1.2,1.4-1.5,2.3c0,0-1.2-2.1-0.7-3.3c0,0-0.6,0-0.8,1.7c-0.8-2-0.4-4.3,1.1-5.9c0,0-0.5,3.8,6.9,6
			C99.1,41.4,98.8,42.2,98.8,43.1z"/>
		<path class="st25" d="M95.9,44.9c0,0-2.8-0.4-3.5-2.1c0,0,1.8,3.5,2.5,4.2C95,47,94.6,44.7,95.9,44.9z"/>
		<path class="st26" d="M92.7,34.7c0,0-0.4,4.1,6.9,6c0,0,6.3,0.7,8.7-2.5c0.3-0.6,0.3-1.4,0-2c0,0-0.2,1.7-1.3,2
			c0,0,0.5-0.9,0.2-1.4c-0.5,0.8-1.3,1.5-2.2,1.8c0.3-0.4,0.2-1-0.1-1.4c-0.8,1.3-2.1,2.2-3.6,2.3c0.5-0.3,0.8-0.8,1-1.3
			c0,0-2.3,1.5-3.8,0.9c0,0,1.4-0.4,1.5-1.2c0,0-2.8,0.8-4.2-0.6c0.6,0.1,1.2-0.1,1.7-0.5C97.4,36.8,93.3,36.6,92.7,34.7z"/>
		<path class="st27" d="M94,33.4c0,0,5.2-4.4,12.6,0.5c0,0-3.3-0.9-4.4-1.1c-1.1-0.2,0.9,0.8,1.9,1.2c1,0.4-3.1-0.6-4.5-0.8
			c-1.4-0.2-4-0.1-2.3,0.4C99.1,34.2,94.4,33.1,94,33.4z"/>
		<path class="st16" d="M91.9,41.6c0,0,9.1,5.6,17.7,3.1c0,0,5-1.3-1.3-5.5L91.9,41.6z"/>
		<path class="st17" d="M108.3,39.2l-11.7,1.2c2.4,2.1,7.2,5.6,13,4.3C112.8,43.3,111.6,41.4,108.3,39.2z"/>
		<path class="st28" d="M91.1,38.4c0,0,0-7.8,8.6-8.2c0,0,8.9-0.1,9.3,9.5c0,0-8.4,7.1-17.3,1.5C91.3,40.4,91.1,39.4,91.1,38.4z"/>
		<path class="st29" d="M91.1,38.4c-0.1,1,0.2,1.9,0.6,2.8c3.8,2.5,8.7,2.9,12.9,1.2c0.1-0.1,0.2-0.2,0.3-0.3
			c-0.4-8.8-7.2-10.6-9.6-10.8C91.1,33.6,91.1,38.4,91.1,38.4z"/>
		<path class="st10" d="M91.9,41.6c0,0,9.6,5.3,17.2-1.9l-0.1-0.9c-4.9,4.1-11.8,4.8-17.5,1.9L91.9,41.6z"/>
		<path class="st10" d="M108.1,40.4c0-0.1,0-0.2,0-0.3l0,0l0,0c0-0.1-0.1-0.2-0.1-0.2l-0.1-0.1c0-0.1-0.1-0.1-0.1-0.1
			c0,0-0.1,0-0.1-0.1c0,0-0.1-0.1-0.1-0.1c0,0-0.1,0-0.1,0h-0.2h-0.1l-0.7-0.3l0,0h-0.1l0,0h-0.1h-0.8h-0.1l0,0l-0.1,0l0,0l0,0l0,0
			h0l0,0l0,0l-0.3,0.1l0,0l-0.1,0.1l-0.1,0.1l0,0l0,0l0,0l0,0l0,0l0,0l0,0l0,0l-0.1,0.1v0.1l0,0l0,0l0,0l-0.1,0.1l0,0
			c0,0,0,0.1-0.1,0.1l0,0c0,0-0.1,0.1-0.1,0.1l-0.1,0.2l-0.1,0.2l-0.1,0.2l-0.1,0.2l0,0v0.1c0,0,0,0.1,0,0.2v0.4v0.1v0.2v0.2
			c0,0.1,0,0.1,0,0.2V42c0,0,0,0.1,0,0.1v0.1v0.1v0.1l0.1,0.1v0l0,0l0,0l0.1,0.1l0,0l0,0c0,0,0,0,0.1,0.1c0,0,0.1,0,0.1,0.1l0,0
			l0.1,0.1l0.7,0.4l0.1,0.1l0.1,0.1h0.1h0.2h0.1h0.3c0.1,0,0.2,0,0.3-0.1l0,0h0.1c0.1,0,0.2-0.1,0.2-0.1l0,0
			C107.5,42.6,108.1,41.5,108.1,40.4L108.1,40.4z M106.7,40.2v0.1v0.2c0,0.1-0.1,0.3-0.1,0.4c0,0.1,0,0,0,0c0,0.1-0.1,0.3-0.2,0.4
			l-0.1,0.1c-0.1,0.1-0.1,0.2-0.2,0.3l-0.1,0.1l0,0c-0.1,0.1-0.1,0.2-0.2,0.2l-0.1,0.1l-0.3,0.2h-0.1l-0.2,0.1l0,0h-0.1h-0.2l0,0
			c0,0,0,0,0-0.1c0,0,0,0,0-0.1c0-0.1,0-0.2,0-0.2c0-0.1,0-0.2,0-0.3l0,0c0,0,0-0.1,0-0.1c0-0.1,0-0.2,0.1-0.3c0,0,0-0.1,0-0.1
			c0-0.1,0.1-0.2,0.1-0.2c0,0,0-0.1,0.1-0.1c0.1-0.1,0.1-0.2,0.2-0.3l0.2-0.2c0.1-0.1,0.1-0.1,0.2-0.2L106,40
			c0.1-0.1,0.2-0.2,0.3-0.2c0.1-0.1,0.2-0.1,0.3-0.1h0.1v0.1l0,0c0,0,0,0.1,0,0.1c0,0,0,0.1,0,0.1L106.7,40.2z M106.4,39.4
			L106.4,39.4z M106.4,39.4L106.4,39.4z M106.6,39.3L106.6,39.3z M105.6,38.9L105.6,38.9L105.6,38.9L105.6,38.9z"/>
		<path class="st10" d="M106,38.8L106,38.8z"/>
		<g>
			<path class="st30" d="M107.2,39.7c0.1,0.1,0.2,0.1,0.3,0.2c0.1,0.1,0.1,0.2,0.2,0.4c0.1,0.4,0,0.8-0.1,1.2
				c-0.3,0.8-0.8,1.3-1.6,1.6c-0.2,0.1-0.4,0-0.6-0.1c-0.3-0.2-0.5-0.5-0.4-0.8c0-1,0.5-1.8,1.3-2.4c0,0,0.1,0.2,0.1,0.4
				c-0.6,0.4-1,1.1-1,1.8c0,0.6,0.5,0.9,1.1,0.5c0.6-0.4,1-1.1,1-1.8c0-0.6-0.5-0.9-1.1-0.5c0-0.2-0.1-0.4-0.1-0.4
				C106.4,39.6,106.8,39.6,107.2,39.7z"/>
			<g>
				<defs>
					<path id="SVGID_1_" d="M107.2,39.7c0.1,0.1,0.2,0.1,0.3,0.2c0.1,0.1,0.1,0.2,0.2,0.4c0.1,0.4,0,0.8-0.1,1.2
						c-0.3,0.8-0.8,1.3-1.6,1.6c-0.2,0.1-0.4,0-0.6-0.1c-0.3-0.2-0.5-0.5-0.4-0.8c0-1,0.5-1.8,1.3-2.4c0,0,0.1,0.2,0.1,0.4
						c-0.6,0.4-1,1.1-1,1.8c0,0.6,0.5,0.9,1.1,0.5c0.6-0.4,1-1.1,1-1.8c0-0.6-0.5-0.9-1.1-0.5c0-0.2-0.1-0.4-0.1-0.4
						C106.4,39.6,106.8,39.6,107.2,39.7z"/>
				</defs>
				<clipPath id="SVGID_00000178201477985954962080000018315217506588784820_">
					<use xlink:href="#SVGID_1_"  style="overflow:visible;"/>
				</clipPath>
				<g style="clip-path:url(#SVGID_00000178201477985954962080000018315217506588784820_);">
					<g>
						<path class="st30" d="M107.2,39.7c1.2,0.7,0,3.1-1.3,3.4c-0.4,0.1-0.9-0.2-1-0.6c0-0.1,0-0.2,0-0.3c0-0.9,0.5-1.8,1.2-2.4
							c0,0,0.1,0.2,0.1,0.4c-0.6,0.4-1,1.1-1,1.8c0,0.6,0.5,0.9,1.1,0.5c0.6-0.4,1-1.1,1-1.8c0-0.6-0.5-0.9-1.1-0.5
							c0-0.2-0.1-0.4-0.1-0.4C106.4,39.7,106.8,39.6,107.2,39.7L107.2,39.7z"/>
						<path class="st30" d="M106.2,39.9L106.2,39.9L106.2,39.9c0.1,0.1,0.1,0.3,0.1,0.4c-0.6,0.4-1,1.1-1,1.8c0,0.6,0.5,0.9,1.1,0.5
							c0.6-0.4,1-1.1,1-1.8c0-0.6-0.5-0.9-1.1-0.5C106.3,40.1,106.3,40,106.2,39.9L106.2,39.9L106.2,39.9c0.3-0.2,0.7-0.3,1.1-0.1
							h0.1l0.1,0.1l0.1,0.1c0,0,0,0,0.1,0.1V40c0,0,0,0.1,0,0.1v0.1c0,0,0,0.1,0,0.1v0.1c0,0,0,0.1,0,0.1v0.3v0.1v0.1v0.1v0.1v0.1
							c0,0,0,0.1,0,0.1l-0.1,0.1l-0.1,0.1l-0.1,0.1c0,0-0.1,0.1-0.1,0.1l-0.1,0.1l-0.1,0.1l-0.1,0.1l-0.1,0.1l-0.1,0.1
							c0,0-0.1,0.1-0.1,0.1l-0.1,0.1l-0.1,0.1l-0.1,0.1l-0.1,0.1h-0.1h-0.1h-0.1h-0.3h-0.1h-0.1c-0.3-0.2-0.5-0.5-0.4-0.8
							C104.9,41.3,105.4,40.4,106.2,39.9L106.2,39.9z"/>
						<path class="st30" d="M106.2,39.9c0,0-0.1,0.1-0.2,0.1l-0.1,0.1C106,40,106.1,40,106.2,39.9c0.1,0.1,0.1,0.3,0.1,0.4
							c-0.6,0.4-1,1.1-1,1.8c0,0.6,0.5,0.9,1.1,0.5c0.6-0.4,1-1.1,1-1.8c0-0.6-0.5-0.9-1.1-0.5C106.2,40.2,106.2,40,106.2,39.9
							l0.1,0l0,0C106.2,39.8,106.2,39.9,106.2,39.9c0.3-0.2,0.7-0.3,1-0.1h0.1l0.1,0.1l0.1,0.1c0,0,0,0,0.1,0.1V40c0,0,0,0.1,0,0.1
							v0.1c0,0,0,0.1,0,0.1v0.1c0,0,0,0.1,0,0.1v0.3V41v0.1v0.1v0.1v0.1c0,0,0,0.1,0,0.1l-0.1,0.1l-0.1,0.1l-0.1,0.1
							c0,0-0.1,0.1-0.1,0.1l-0.1,0.1l-0.1,0.1l-0.1,0.1l-0.1,0.1l-0.1,0.1c0,0-0.1,0.1-0.1,0.1l-0.1,0.1l-0.1,0.1l-0.1,0.1l-0.1,0.1
							H106h-0.1h-0.1h-0.3h-0.1h-0.1c-0.3-0.2-0.5-0.5-0.4-0.8C104.9,41.3,105.3,40.4,106.2,39.9L106.2,39.9z"/>
						<path class="st30" d="M106.2,39.9c0,0-0.1,0.1-0.1,0.1c-0.2,0.1-0.3,0.3-0.4,0.4C105.8,40.2,106,40,106.2,39.9
							c0.1,0.2,0.1,0.3,0.1,0.4c-0.6,0.4-1,1.1-1,1.8c0,0.6,0.5,0.9,1.1,0.5c0.6-0.4,1-1.1,1-1.8c0-0.6-0.5-0.9-1.1-0.5
							C106.2,40.2,106.2,40,106.2,39.9l0.1,0l0.2-0.1C106.4,39.8,106.2,39.8,106.2,39.9c0.3-0.2,0.7-0.3,1-0.1h0.1l0.1,0.1l0.1,0.1
							c0,0,0,0,0.1,0.1V40c0,0,0,0.1,0.1,0.1v0.1c0,0,0,0.1,0,0.1v0.1c0,0,0,0.1,0,0.1v0.3v0.1v0.1v0.1v0.1v0.1c0,0,0,0.1-0.1,0.1
							l-0.1,0.1l-0.1,0.1l-0.1,0.1c0,0-0.1,0.1-0.1,0.1l-0.1,0.1l-0.1,0.1l-0.1,0.1l-0.1,0.1l-0.1,0.1c0,0-0.1,0.1-0.1,0.1l-0.1,0.1
							l-0.1,0.1l-0.1,0.1l-0.1,0H106h-0.1h-0.1h-0.3h-0.1h-0.1c-0.3-0.2-0.5-0.5-0.5-0.8C104.9,41.2,105.3,40.4,106.2,39.9
							L106.2,39.9z"/>
						<path class="st30" d="M106.1,39.9c-0.3,0.2-0.5,0.4-0.7,0.7C105.6,40.3,105.9,40.1,106.1,39.9c0.1,0.2,0.1,0.3,0.1,0.4
							c-0.6,0.4-1,1.1-1,1.8c0,0.6,0.5,0.9,1.1,0.5c0.6-0.4,1-1.1,1-1.8c0-0.6-0.5-0.9-1.1-0.5C106.2,40.2,106.2,40,106.1,39.9
							l0.1,0l0.3-0.1C106.4,39.7,106.3,39.8,106.1,39.9c0.3-0.2,0.7-0.3,1-0.1h0.1l0.1,0.1l0.1,0.1c0,0,0,0,0.1,0.1V40
							c0,0,0,0.1,0.1,0.1v0.1c0,0,0,0.1,0,0.1v0.1c0,0,0,0.1,0,0.1v0.3v0.1v0.1v0.1v0.1v0.1c0,0,0,0.1-0.1,0.1l-0.1,0.1l-0.1,0.1
							l-0.1,0.1c0,0-0.1,0.1-0.1,0.1l-0.1,0.1l-0.1,0.1l-0.1,0.1l-0.1,0.1l-0.1,0.1c0,0-0.1,0.1-0.1,0.1l-0.1,0.1l-0.1,0.1l-0.1,0.1
							l-0.1,0h-0.1h-0.1h-0.1h-0.3h-0.1h-0.1c-0.3-0.2-0.5-0.5-0.5-0.8C104.8,41.2,105.3,40.4,106.1,39.9z"/>
						<path class="st30" d="M106.1,39.9c0,0-0.1,0-0.1,0.1c-0.3,0.2-0.5,0.5-0.7,0.8C105.6,40.4,105.8,40.1,106.1,39.9
							c0.1,0.2,0.1,0.3,0.1,0.4c-0.6,0.4-1,1.1-1,1.8c0,0.6,0.5,0.9,1.1,0.5c0.6-0.4,1-1.1,1-1.8c0-0.6-0.5-0.9-1.1-0.5
							C106.2,40.2,106.2,40.1,106.1,39.9h0.2c0.2-0.1,0.3-0.1,0.5-0.2C106.5,39.7,106.3,39.8,106.1,39.9c0.3-0.2,0.7-0.3,1-0.1h0.1
							l0.1,0.1l0.1,0.1c0,0,0,0,0.1,0.1V40c0,0,0,0.1,0.1,0.1v0.1c0,0,0,0.1,0,0.1v0.1c0,0,0,0.1,0,0.1v0.3v0.1v0.1v0.1v0.1v0.1
							c0,0,0,0.1-0.1,0.1l-0.1,0.1l-0.1,0.1l-0.1,0.1c0,0-0.1,0.1-0.1,0.1l-0.1,0.1l-0.1,0.1l-0.1,0.1l-0.1,0.1l-0.1,0.1
							c0,0-0.1,0.1-0.1,0.1l-0.1,0.1l-0.1,0.1l-0.1,0.1l-0.1,0h-0.1h-0.1h-0.1h-0.3h-0.1h-0.1c-0.3-0.2-0.5-0.5-0.5-0.8
							C104.8,41.2,105.3,40.4,106.1,39.9z"/>
						<path class="st30" d="M106.1,39.9c-0.4,0.2-0.7,0.6-0.9,1c0.2-0.4,0.6-0.7,0.9-0.9c0,0.1,0,0.2,0,0.3c-0.6,0.4-1,1.1-1,1.8
							c0,0.6,0.5,0.9,1.1,0.5c0.6-0.4,1-1.1,1-1.8c0-0.6-0.5-0.9-1.1-0.5c0-0.1,0-0.2,0-0.3l0.1-0.1c0.2-0.1,0.4-0.2,0.6-0.2
							C106.6,39.7,106.3,39.8,106.1,39.9c0.3-0.2,0.7-0.2,1-0.1h0.1l0.1,0.1l0.1,0.1c0,0,0,0,0.1,0.1V40c0,0,0,0.1,0,0.1v0.1
							c0,0,0,0.1,0,0.1v0.1c0,0,0,0.1,0,0.1v0.3V41v0.1v0.1v0.1v0.1c0,0,0,0.1,0,0.1l-0.1,0.1l-0.1,0.1l-0.1,0.1
							c0,0-0.1,0.1-0.1,0.1l-0.1,0.1l-0.1,0.1l-0.1,0.1l-0.1,0.1l-0.1,0.1c0,0-0.1,0.1-0.1,0.1l-0.1,0.1l-0.1,0.1l-0.1,0.1l-0.1,0.1
							h-0.1h-0.1h-0.1h-0.3h-0.1h-0.1c-0.3-0.2-0.5-0.5-0.4-0.8C104.8,41.3,105.3,40.4,106.1,39.9z"/>
						<path class="st30" d="M106.1,39.9c-0.4,0.3-0.8,0.6-1,1.1C105.4,40.6,105.7,40.2,106.1,39.9c0,0.2,0,0.3,0,0.4
							c-0.6,0.4-1,1.1-1,1.8c0,0.6,0.5,0.9,1.1,0.5c0.6-0.4,1-1.1,1-1.8c0-0.6-0.5-0.9-1.1-0.5C106.1,40.2,106.1,40.1,106.1,39.9
							L106.1,39.9c0.3-0.1,0.5-0.1,0.8-0.2C106.6,39.6,106.3,39.7,106.1,39.9c0.2-0.2,0.6-0.3,0.9-0.1h0.1l0.1,0.1l0.1,0.1
							c0,0,0,0,0.1,0.1V40c0,0,0,0.1,0,0.1v0.1c0,0,0,0.1,0,0.1v0.1c0,0,0,0.1,0,0.1v0.3v0.1v0.1v0.1v0.1v0.1c0,0,0,0.1,0,0.1
							l-0.1,0.1l-0.1,0.1l-0.1,0.1c0,0-0.1,0.1-0.1,0.1l-0.1,0.1l-0.1,0.1l-0.1,0.1l-0.1,0.1l-0.1,0.1c0,0-0.1,0.1-0.1,0.1l-0.1,0.1
							l-0.1,0.1l-0.1,0.1l-0.1,0h-0.1h-0.1h-0.1h-0.3h-0.1h-0.1c-0.3-0.2-0.5-0.5-0.4-0.8C104.8,41.2,105.3,40.4,106.1,39.9z"/>
						<path class="st30" d="M106.1,39.9c-0.5,0.3-0.8,0.7-1,1.2c0.2-0.2,0.3-0.4,0.5-0.6c0.2-0.2,0.4-0.3,0.6-0.5c0,0.1,0,0.2,0,0.3
							c-0.6,0.4-1,1.1-1,1.8c0,0.6,0.5,0.9,1.1,0.5c0.6-0.4,1-1.1,1-1.8c0-0.6-0.5-0.9-1.1-0.5c0-0.1,0-0.2,0-0.3l0.1-0.1
							c0.3-0.1,0.5-0.2,0.8-0.2C106.8,39.6,106.5,39.7,106.1,39.9c0.4-0.2,0.8-0.3,1.1-0.1h0.1l0.1,0.1l0.1,0.1c0,0,0,0,0.1,0.1V40
							c0,0,0,0.1,0.1,0.1v0.1c0,0,0,0.1,0,0.1v0.1c0,0,0,0.1,0,0.1v0.3v0.1v0.1v0.1v0.1v0.1c0,0,0,0.1-0.1,0.1l-0.1,0.1l-0.1,0.1
							l-0.1,0.1c0,0-0.1,0.1-0.1,0.1l-0.1,0.1l-0.1,0.1l-0.1,0.1l-0.1,0.1l-0.1,0.1c0,0-0.1,0.1-0.1,0.1l-0.1,0.1l-0.1,0.1l-0.1,0.1
							l-0.1,0H106h-0.1h-0.1h-0.3h-0.1h-0.1c-0.3-0.2-0.5-0.5-0.5-0.8C104.9,41.3,105.4,40.4,106.1,39.9z"/>
						<path class="st30" d="M106.1,39.9c-0.5,0.3-0.8,0.8-1,1.4c0.2-0.2,0.3-0.5,0.5-0.7c0.2-0.2,0.4-0.4,0.6-0.6c0,0.1,0,0.2,0,0.3
							c-0.6,0.4-1,1.1-1,1.8c0,0.6,0.5,0.9,1.1,0.5c0.6-0.4,1-1.1,1-1.8c0-0.6-0.5-0.9-1.1-0.5c0-0.1,0-0.2,0-0.3l0.1-0.1
							c0.2-0.1,0.5-0.2,0.8-0.2h0.1C107.2,39.8,106.9,39.5,106.1,39.9c0.3-0.2,0.7-0.3,1.1-0.1h0.1l0.1,0.1l0.1,0.1c0,0,0,0,0.1,0.1
							V40c0,0,0,0.1,0.1,0.1v0.1c0,0,0,0.1,0,0.1v0.1c0,0,0,0.1,0,0.1v0.3V41v0.1v0.1v0.1v0.1c0,0,0,0.1-0.1,0.1l-0.1,0.1l-0.1,0.1
							l-0.1,0.1c0,0-0.1,0.1-0.1,0.1l-0.1,0.1l-0.1,0.1l-0.1,0.1l-0.1,0.1l-0.1,0.1c0,0-0.1,0.1-0.1,0.1l-0.1,0.1l-0.1,0.1l-0.1,0.1
							l-0.1,0H106h-0.1h-0.1h-0.3h-0.1h-0.1c-0.3-0.2-0.5-0.5-0.5-0.8C104.9,41.3,105.3,40.4,106.1,39.9z"/>
						<path class="st30" d="M106.1,39.9c-0.5,0.3-0.9,0.9-1.1,1.5l0,0c0.1,0,0.1-0.1,0.2-0.2c0.3-0.4,0.6-0.8,1-1.1
							c0,0.1,0,0.2,0,0.2c-0.6,0.4-1,1.1-1,1.8c0,0.6,0.5,0.9,1.1,0.5c0.6-0.4,1-1.1,1-1.8c0-0.6-0.5-0.9-1.1-0.5c0-0.1,0-0.2,0-0.2
							l0.1-0.1c0.3-0.2,0.6-0.2,0.9-0.2c0,0,0.1,0,0.1,0c0,0,0,0,0,0S106.9,39.5,106.1,39.9c0.3-0.2,0.7-0.3,1.1-0.1h0.1l0.1,0.1
							l0.1,0.1c0,0,0,0,0.1,0.1V40c0,0,0,0.1,0,0.1v0.1c0,0,0,0.1,0,0.1v0.1c0,0,0,0.1,0,0.1v0.3V41v0.1v0.1v0.1v0.1
							c0,0,0,0.1,0,0.1l-0.1,0.1l-0.1,0.1l-0.1,0.1c0,0-0.1,0.1-0.1,0.1l-0.1,0.1l-0.1,0.1l-0.1,0.1l-0.1,0.1l-0.1,0.1
							c0,0-0.1,0.1-0.1,0.1l-0.1,0.1l-0.1,0.1l-0.1,0.1l-0.1,0H106h-0.1h-0.1h-0.3h-0.1h-0.1c-0.3-0.2-0.5-0.5-0.4-0.8
							C104.9,41.3,105.3,40.4,106.1,39.9z"/>
						<path class="st30" d="M106.2,40.3c-0.6,0.4-1,1.1-1,1.8c0,0.6,0.5,0.9,1.1,0.5c0.6-0.4,1-1.1,1-1.8
							C107.4,40.2,106.8,39.9,106.2,40.3c0-0.1,0-0.1,0-0.2l0.1-0.1c0.2-0.1,0.5-0.2,0.8-0.2c0.1,0,0.1,0.1,0.2,0
							c0.1-0.1-0.1-0.2-0.3-0.2c-0.2,0-0.4,0-0.6,0.1c0.3-0.1,0.6-0.1,0.8,0h0.1l0.1,0.1l0.1,0.1c0,0,0,0,0.1,0.1V40
							c0,0,0,0.1,0.1,0.1v0.1c0,0,0,0.1,0,0.1v0.1c0,0,0,0.1,0,0.1v0.3V41v0.1v0.1v0.1v0.1c0,0,0,0.1-0.1,0.1l-0.1,0.1l-0.1,0.1
							l-0.1,0.1c0,0-0.1,0.1-0.1,0.1l-0.1,0.1l-0.1,0.1l-0.1,0.1l-0.1,0.1l-0.1,0.1c0,0-0.1,0.1-0.1,0.1l-0.1,0.1l-0.1,0.1l-0.1,0.1
							l-0.1,0H106h-0.1h-0.1h-0.3h-0.1h-0.1c-0.3-0.2-0.5-0.5-0.5-0.8c0-0.8,0.3-1.5,0.9-2l0,0c-0.4,0.3-0.6,0.8-0.7,1.3
							c0.7-1.1,0.8-1.1,1.2-1.4C106.3,40.1,106.3,40.2,106.2,40.3L106.2,40.3z"/>
						<path class="st30" d="M106.2,40.3c-0.6,0.4-1,1.1-1,1.8c0,0.6,0.5,0.9,1.1,0.5c0.6-0.4,1-1.1,1-1.8
							C107.4,40.2,106.8,39.9,106.2,40.3c0-0.1,0-0.1,0-0.2l0.1-0.1c0.3-0.2,0.7-0.2,1-0.1c0,0,0,0,0.1,0s-0.2-0.3-0.5-0.3
							c-0.1,0-0.2,0-0.3,0c0.2-0.1,0.4-0.1,0.7,0h0.1l0.1,0.1l0.1,0.1c0,0,0,0,0.1,0.1v0.1c0,0,0,0.1,0,0.1v0.1c0,0,0,0.1,0,0.1v0.1
							c0,0,0,0.1,0,0.1v0.3v0.1V41v0.1v0.1v0.1c0,0,0,0.1,0,0.1l-0.1,0.1l-0.1,0.1l-0.1,0.1c0,0-0.1,0.1-0.1,0.1l-0.1,0.1l-0.1,0.1
							l-0.1,0.1l-0.1,0.1l-0.1,0.1c0,0-0.1,0.1-0.1,0.1l-0.1,0.1l-0.1,0.1l-0.1,0.1l-0.1,0h-0.1h-0.1h-0.1h-0.3h-0.1h-0.1
							c-0.3-0.2-0.5-0.5-0.4-0.8c0-0.7,0.3-1.3,0.7-1.8l0,0c-0.3,0.3-0.5,0.8-0.6,1.2c0.1,0,0.1,0,0.2-0.3c0.3-0.5,0.6-0.9,1.1-1.2
							c0,0,0,0.1,0,0.2L106.2,40.3z"/>
						<path class="st30" d="M106.2,40.3c-0.6,0.4-1,1.1-1,1.8c0,0.6,0.5,0.9,1.1,0.5c0.6-0.4,1-1.1,1-1.8
							C107.4,40.2,106.8,39.9,106.2,40.3c0,0,0-0.1,0-0.1l0.1-0.1c0.3-0.2,0.7-0.2,1-0.1c0,0,0.1,0,0.1,0c0.1,0-0.1-0.3-0.5-0.4
							c-0.1,0-0.2,0-0.3,0c0.2,0,0.4,0,0.5,0.1h0.1l0.1,0.1l0.1,0.1c0,0,0,0,0.1,0.1V40c0,0,0,0.1,0.1,0.1v0.1c0,0,0,0.1,0,0.1v0.1
							c0,0,0,0.1,0,0.1v0.3v0.1v0.1v0.1v0.1v0.1c0,0,0,0.1-0.1,0.1l-0.1,0.1l-0.1,0.1l-0.1,0.1c0,0-0.1,0.1-0.1,0.1l-0.1,0.1
							l-0.1,0.1l-0.1,0.1l-0.1,0.1l-0.1,0.1c0,0-0.1,0.1-0.1,0.1l-0.1,0.1l-0.1,0.1l-0.1,0.1l-0.1,0.1h-0.1h-0.1h-0.1h-0.3h-0.1
							h-0.1c-0.3-0.2-0.5-0.5-0.5-0.8c0-0.6,0.2-1.2,0.6-1.7v0.1c-0.5,0.8-0.5,1.2-0.4,1.2l0,0c0.1-0.1,0.2-0.3,0.3-0.4
							c0.2-0.5,0.6-0.9,1-1.2C106.3,40.1,106.3,40.2,106.2,40.3L106.2,40.3z"/>
						<path class="st30" d="M106.2,40.3c-0.6,0.4-1,1.1-1,1.8c0,0.6,0.5,0.9,1.1,0.5c0.6-0.4,1-1.1,1-1.8
							C107.4,40.2,106.8,39.9,106.2,40.3L106.2,40.3l0.1-0.1c0.3-0.2,0.7-0.2,1,0c0,0,0.1,0,0.1,0c0.1,0-0.1-0.4-0.5-0.5
							c-0.1,0-0.2,0-0.3,0c0.1,0,0.3,0,0.4,0.1h0.1l0.1,0.1l0.1,0.1c0,0,0,0,0.1,0.1V40c0,0,0,0.1,0.1,0.1v0.1c0,0,0,0.1,0,0.1v0.1
							c0,0,0,0.1,0,0.1v0.3v0.1v0.1v0.1v0.1v0.1c0,0,0,0.1-0.1,0.1l-0.1,0.1l-0.1,0.1l-0.1,0.1c0,0-0.1,0.1-0.1,0.1l-0.1,0.1
							l-0.1,0.1l-0.1,0.1l-0.1,0.1l-0.1,0.1c0,0-0.1,0.1-0.1,0.1l-0.1,0.1l-0.1,0.1l-0.1,0.1l-0.1,0H106h-0.1h-0.1h-0.3h-0.1h-0.1
							c-0.3-0.2-0.5-0.5-0.5-0.8c0-0.6,0.2-1.1,0.5-1.6l-0.1,0.1c-0.4,0.7-0.4,1.2-0.3,1.2s0.2-0.2,0.3-0.4c0.2-0.5,0.5-1,1-1.3
							L106.2,40.3L106.2,40.3z"/>
						<path class="st30" d="M105.2,40.8c-0.5,0.9-0.3,1.3-0.3,1.3c0,0,0,0.1,0.1,0.1c0.1,0.1,0.2,0.1,0.3,0.1
							c0.2,0.3,0.2,0.3,0.3,0.3c0.2,0.1,0.3,0.1,0.5,0c0.6-0.2,1-0.7,1.2-1.2c0.1-0.4,0.2-0.8,0.3-1.2c0-0.2-0.2-0.5-0.4-0.6
							c-0.1-0.1-0.2-0.1-0.3-0.1c0.1,0,0.2,0,0.3,0.1h0.1l0.1,0.1l0.1,0.1c0,0,0,0,0.1,0.1V40c0,0,0,0.1,0,0.1v0.1c0,0,0,0.1,0,0.1
							v0.1c0,0,0,0.1,0,0.1v0.3v0.1V41v0.1v0.1v0.1c0,0,0,0.1,0,0.1l-0.1,0.1l-0.1,0.1l-0.1,0.1c0,0-0.1,0.1-0.1,0.1l-0.1,0.1
							l-0.1,0.1l-0.1,0.1l-0.1,0.1l-0.1,0.1c0,0-0.1,0.1-0.1,0.1l-0.1,0.1l-0.1,0.1l-0.1,0.1l-0.1,0H106h-0.1h-0.1h-0.3h-0.1h-0.1
							c-0.3-0.2-0.5-0.5-0.4-0.8c0-0.5,0.1-1,0.4-1.5C105.3,40.7,105.3,40.7,105.2,40.8L105.2,40.8z"/>
						<path class="st30" d="M105.1,41.1c-0.8,1.6,0.5,1.9,1,1.7c0.7-0.3,1.2-0.9,1.4-1.7c0.3-1-0.1-1.3-0.4-1.4c-0.1,0-0.1,0-0.2,0
							c0.1,0,0.2,0,0.2,0.1h0.1l0.1,0.1l0.1,0.1c0,0,0,0,0.1,0.1V40c0,0,0,0.1,0,0.1v0.1c0,0,0,0.1,0,0.1v0.1c0,0,0,0.1,0,0.1v0.3
							v0.1v0.1v0.1v0.1v0.1c0,0,0,0.1,0,0.1l-0.1,0.1l-0.1,0.1l-0.1,0.1c0,0-0.1,0.1-0.1,0.1l-0.1,0.1l-0.1,0.1l-0.1,0.1l-0.1,0.1
							l-0.1,0.1c0,0-0.1,0.1-0.1,0.1l-0.1,0.1l-0.1,0.1l-0.1,0.1l-0.1,0H106h-0.1h-0.1h-0.3h-0.1h-0.1c-0.3-0.2-0.5-0.5-0.4-0.8
							c0-0.5,0.1-0.9,0.4-1.3L105.1,41.1L105.1,41.1L105.1,41.1z"/>
						<path class="st30" d="M105.1,41.1c-0.7,1.6,0.3,2,1,1.8c1.3-0.5,2-2.8,1-3.2H107l0.2,0.1h0.1l0.1,0.1l0.1,0.1c0,0,0,0,0.1,0.1
							V40c0,0,0,0.1,0.1,0.1v0.1c0,0,0,0.1,0,0.1v0.1c0,0,0,0.1,0,0.1v0.3V41v0.1v0.1v0.1v0.1c0,0,0,0.1-0.1,0.1l-0.1,0.1l-0.1,0.1
							l-0.1,0.1c0,0-0.1,0.1-0.1,0.1l-0.1,0.1l-0.1,0.1l-0.1,0.1l-0.1,0.1l-0.1,0.1c0,0-0.1,0.1-0.1,0.1l-0.1,0.1l-0.1,0.1l-0.1,0.1
							l-0.1,0H106h-0.1h-0.1h-0.3h-0.1h-0.1c-0.3-0.2-0.5-0.5-0.5-0.8C104.9,41.8,105,41.4,105.1,41.1L105.1,41.1L105.1,41.1z"/>
						<path class="st30" d="M105,41.3c-0.5,1.4,0.4,1.9,1.2,1.6c1.2-0.5,2-2.8,0.9-3.2h0.1h0.1l0.1,0.1l0.1,0.1c0,0,0,0,0.1,0.1V40
							c0,0,0,0.1,0,0.1v0.1c0,0,0,0.1,0,0.1v0.1c0,0,0,0.1,0,0.1v0.3v0.1V41v0.1v0.1v0.1c0,0,0,0.1,0,0.1l-0.1,0.1l-0.1,0.1
							l-0.1,0.1c0,0-0.1,0.1-0.1,0.1l-0.1,0.1l-0.1,0.1l-0.1,0.1l-0.1,0.1l-0.1,0.1c0,0-0.1,0.1-0.1,0.1l-0.1,0.1l-0.1,0.1l-0.1,0.1
							l-0.1,0H106h-0.1h-0.1h-0.3h-0.1h-0.1c-0.3-0.2-0.5-0.5-0.4-0.8c0-0.4,0.1-0.8,0.2-1.1L105,41.3L105,41.3L105,41.3z"/>
						<path class="st30" d="M105,41.3c-0.5,1.5,0.4,2,1.2,1.6c1.3-0.6,1.9-2.6,0.9-3.2h0.1l0.1,0.1l0.1,0.1c0,0,0,0,0.1,0.1V40
							c0,0,0,0.1,0,0.1v0.1c0,0,0,0.1,0,0.1v0.1c0,0,0,0.1,0,0.1v0.3v0.1v0.1v0.1v0.1v0.1c0,0,0,0.1,0,0.1l-0.1,0.1l-0.1,0.1
							l-0.1,0.1c0,0-0.1,0.1-0.1,0.1l-0.1,0.1l-0.1,0.1l-0.1,0.1l-0.1,0.1l-0.1,0.1c0,0-0.1,0.1-0.1,0.1l-0.1,0.1l-0.1,0.1l-0.1,0.1
							l-0.1,0H106h-0.1h-0.1h-0.3h-0.1h-0.1c-0.3-0.2-0.5-0.5-0.4-0.8c0-0.3,0.1-0.7,0.2-1L105,41.3L105,41.3z"/>
						<path class="st30" d="M104.9,41.6c-0.3,1.3,0.5,1.8,1.4,1.3c0.9-0.5,1.4-1.6,1.2-2.6v0.1l0,0v0.1c0,0,0,0.1,0,0.1v0.3V41v0.1
							v0.1v0.1v0.1c0,0,0,0.1-0.1,0.1l-0.1,0.1l-0.1,0.1l-0.1,0.1c0,0-0.1,0.1-0.1,0.1l-0.1,0.1l-0.1,0.1l-0.1,0.1l-0.1,0.1
							l-0.1,0.1c0,0-0.1,0.1-0.1,0.1l-0.1,0.1l-0.1,0.1l-0.1,0.1l-0.1,0.1h-0.1H106h-0.1h-0.3h-0.1h-0.1c-0.3-0.2-0.5-0.5-0.5-0.8
							c0-0.3,0-0.6,0.1-0.9c0,0,0,0.1,0,0.1c0,0,0,0,0,0.1L104.9,41.6z"/>
						<path class="st30" d="M104.9,41.6c-0.3,1.4,0.5,1.9,1.4,1.3c0.8-0.5,1.3-1.4,1.3-2.4v0.4V41v0.1v0.1v0.1v0.1
							c0,0,0,0.1-0.1,0.1l-0.1,0.1l-0.1,0.1l-0.1,0.1c0,0-0.1,0.1-0.1,0.1l-0.1,0.1l-0.1,0.1l-0.1,0.1l-0.1,0.1l-0.1,0.1
							c0,0-0.1,0.1-0.1,0.1l-0.1,0.1l-0.1,0.1l-0.1,0.1l-0.1,0h-0.1H106h-0.1h-0.3h-0.1h-0.1c-0.3-0.2-0.5-0.5-0.5-0.8
							c0-0.2,0-0.5,0.1-0.7v0.1L104.9,41.6z"/>
						<path class="st30" d="M104.8,41.8c-0.2,1.3,0.7,1.6,1.6,1c0.7-0.5,1.1-1.2,1.2-2v0.1v0.1v0.1v0.1v0.1c0,0,0,0.1-0.1,0.1
							l-0.1,0.1l-0.1,0.1l-0.1,0.1c0,0-0.1,0.1-0.1,0.1l-0.1,0.1l-0.1,0.1l-0.1,0.1l-0.1,0.1l-0.1,0.1c0,0-0.1,0.1-0.1,0.1l-0.1,0.1
							l-0.1,0.1l-0.1,0.1l-0.1,0.1h-0.1H106h-0.1h-0.3h-0.1h-0.1c-0.3-0.2-0.5-0.5-0.5-0.8c0-0.2,0-0.4,0.1-0.6c0,0,0,0.1,0,0.1l0,0
							L104.8,41.8z"/>
						<path class="st30" d="M104.8,41.8c-0.2,1.3,0.8,1.6,1.7,1c0.5-0.4,0.8-0.9,1-1.5c0,0.1,0,0.2-0.1,0.2c0,0,0,0.1-0.1,0.1
							l-0.1,0.1l-0.1,0.1l-0.1,0.1c0,0-0.1,0.1-0.1,0.1l-0.1,0.1l-0.1,0.1l-0.1,0.1l-0.1,0.1l-0.1,0.1c0,0-0.1,0.1-0.1,0.1l-0.1,0.1
							l-0.1,0.1l-0.1,0.1l-0.1,0H106h-0.1h-0.1h-0.3h-0.1h-0.1c-0.3-0.2-0.5-0.5-0.5-0.8C104.8,42.1,104.8,41.9,104.8,41.8
							L104.8,41.8L104.8,41.8z"/>
						<path class="st30" d="M104.8,42.1c0,1.3,1.1,1.4,1.9,0.6c0.2-0.2,0.4-0.4,0.5-0.7l-0.1,0.1l-0.1,0.1l-0.1,0.1l-0.1,0.1
							l-0.1,0.1l-0.1,0.1l-0.1,0.1c0,0-0.1,0.1-0.1,0.1l-0.1,0.1l-0.1,0.1l-0.1,0.1l-0.1,0H106h-0.1h-0.1h-0.3h-0.1h-0.1
							c-0.3-0.2-0.5-0.5-0.4-0.8C104.8,42.1,104.8,42,104.8,42.1L104.8,42.1L104.8,42.1z"/>
					</g>
				</g>
			</g>
		</g>
		<path class="st32" d="M106.2,40.3c0.6-0.3,1.1-0.1,1.1,0.5c0,0.7-0.4,1.4-1,1.8c-0.6,0.3-1.1,0.1-1.1-0.5
			C105.3,41.4,105.6,40.7,106.2,40.3z"/>
		<path class="st33" d="M106.3,39.9c0.8-0.5,1.4-0.1,1.4,0.7c0,0.9-0.5,1.8-1.3,2.3c-0.8,0.5-1.4,0.1-1.4-0.7
			C105,41.3,105.5,40.4,106.3,39.9z M106.4,43.3c1-0.7,1.6-1.8,1.7-3c0-1-0.9-1.4-1.8-0.9c-1,0.7-1.7,1.8-1.7,3
			C104.6,43.5,105.5,43.9,106.4,43.3L106.4,43.3z"/>
		<path class="st10" d="M89.5,86.2c0,0,6.2,4.5,11.8,3.6c2.9-0.4,6.2-1.5,9.1-6.7c0.3,1,0.5,2,0.5,3.1c-2.6,3.8-6.9,5.9-11.5,5.8
			c-2.8-0.1-8.1-1-11.5-4.1c0,0,0.6-0.8,0.8-1C88.9,86.7,89.5,86.2,89.5,86.2z"/>
		<polygon class="st34" points="108.5,83.8 96.1,109.1 111.6,105 124.4,79.7 		"/>
		<path class="st14" d="M84.5,57.9c0,0-4.4-0.5-5.8,19.7c0,0-0.5,8.8,3.6,12.8c2.4,2.4,10.8,8.2,10.8,8.2l2.8-3.4
			c0,0-8.3-10.3-9.7-12.8c0,0,5.7-16,3.9-20.8C88.3,56.9,86.2,57.9,84.5,57.9z"/>
		<path class="st15" d="M78.7,77.7c0,0-0.5,8.8,3.6,12.8c2.4,2.4,10.8,8.2,10.8,8.2l0.3-0.4c-2-1.8-10.4-9.7-12.6-14.5
			C78.5,78.9,83,62.2,84.2,58C83.2,58.2,79.8,60.5,78.7,77.7z"/>
		<path class="st18" d="M83.9,57.4c0,0-4.6,4.2-5,16.4c0,0,5.4,4.8,9.9,0.9c0,0,5.6-12.1,1-17.3C89.8,57.5,87.7,54.9,83.9,57.4z"/>
		<path class="st20" d="M88.8,74.8c0,0,4.7-10.2,1.9-15.9c-0.3,3.3-1.6,12.9-6.8,17.3C85.7,76.4,87.5,75.9,88.8,74.8z"/>
		<path class="st35" d="M91.8,96.8c3.2,1.8,4.8,6.4,5.3,6.8c1.1,0.8,4.3,0.4,5.8-0.8c0.6-0.4,1-1.1,1.1-1.8l-2.2,0.2l0,0
			c-1,0.3-1.5-1.3-2.1-1.9c-0.6-0.6-0.5-1.2,0.2-1s1.4,0.8,1.9,0.8s1-1-0.1-1.8c-1.6-1.1-1.5-1.8-4.2-1.8c-0.9,0-1.3,0.2-3.1-1.4
			L91.8,96.8z"/>
		<path class="st22" d="M91.4,97.4c3.3,2.2,5.1,5.9,5.7,6.3c1.3,0.8,3,0.4,5-0.3c-1-0.1-2.7,0.8-4.6-1.4c-1.4-1.6-4.1-3.1-6.1-4.7
			c0.7-0.7,2.8-3.1,2.8-3.1l0,0L91.4,97.4z"/>
	</g>
</g>
</svg>
