<?xml version="1.0" encoding="utf-8"?>
<!-- Generator: Adobe Illustrator 26.0.1, SVG Export Plug-In . SVG Version: 6.00 Build 0)  -->
<svg version="1.1" id="Layer_1" xmlns="http://www.w3.org/2000/svg" xmlns:xlink="http://www.w3.org/1999/xlink" x="0px" y="0px"
	 viewBox="0 0 136 185" style="enable-background:new 0 0 136 185;" xml:space="preserve">
<style type="text/css">
	.st0{opacity:0.1;}
	.st1{fill:none;stroke:#FC1717;stroke-miterlimit:10;}
	.st2{fill:#F2A983;}
	.st3{fill:#673A1A;}
	.st4{fill:#000508;}
	.st5{fill:#005D8B;}
	.st6{fill:#0B6A98;}
	.st7{fill:#D88F69;}
	.st8{fill:#FF3F39;}
	.st9{fill:#E5251F;}
	.st10{opacity:0.15;fill:#D88F69;}
	.st11{opacity:0.15;fill:#F2A983;}
	.st12{fill:#634024;}
	.st13{fill:#FF5953;}
	.st14{fill:#E38E22;}
	.st15{fill:#F0AE31;}
	.st16{fill:#F7C53F;}
	.st17{fill:#FBD54C;}
	.st18{fill:#3B4447;}
	.st19{fill:#2E373A;}
	.st20{fill:#ECB700;}
	.st21{fill:#FFD119;}
	.st22{fill:#FFB400;}
	.st23{fill:#FFCB4D;}
	.st24{fill:#CCAC88;}
	.st25{fill:#D9B995;}
	.st26{fill:#B39372;}
	.st27{fill:#FFFFEB;}
	.st28{fill:#CDCDB9;}
	.st29{fill:#FC1717;}
</style>
<g>
	<path class="st0" d="M51,138.7l14.2,8.2c-0.7-4.9,4.5-11.5,14.2-17.1c13.4-7.7,30.4-10.5,37.9-6.2c7.5,4.3,2.7,14.1-10.7,21.9
		c-9.7,5.6-21.2,8.6-29.7,8.2l6.3,3.6L51,175.9l-32.1-18.6L51,138.7z"/>
	<g>
		<polygon class="st1" points="50.6,137.6 120.5,168 121.3,41.4 51.5,11.1 		"/>
		<path class="st2" d="M65.7,78.6l-0.4,0.3c0,0-1.4,1.7-2.1,2.4c-0.7,0.7-2.7,3-2.7,3.7c0,0.8,0.9,1.4,1.7,2.1
			c0.9,0.7,2.3,1.5,2.3,1.5s1.4,0.3,1.6,0.4c0.2,0.1,1.7,0,1.8-0.2c0.1-0.2,0.7-2.2,0.7-2.3c0-0.1-0.3-0.6-0.5-0.6
			c-0.2,0-0.5-0.3-0.5-0.4c0.1-0.1,0.6-1.3,0.5-2.3c0-0.9,0.3-2,0.3-2l0.3-1L65.7,78.6z"/>
		<g>
			<path class="st3" d="M87,141.7c0,0,1.1,2.6,0.6,4.6c0,0-0.1,0.4-1.5,1.1c-1.4,0.7-2.3,1.3-3.2,2.4c-0.9,1.2-1.8,3.1-5.3,3.6
				c-3.5,0.5-5.6-0.8-5.9-1.5c0,0,0.1-1.5,2.5-3.6c2.4-2,4.7-4.2,4.7-4.2s0.9-0.7,1.8,0c0.9,0.7,0.7,1.8,2,1.8
				c1.4,0,2.7-1.3,3.2-2.1C86.5,142.8,87,141.7,87,141.7z"/>
			<path class="st4" d="M77.6,153.3c3.5-0.5,4.5-2.4,5.3-3.6c0.9-1.2,1.8-1.7,3.2-2.4c1.4-0.7,1.5-1.1,1.5-1.1c0,0,0-0.1,0-0.1
				c0,0,0,0,0,0c0,0.5,0.1,0.9,0,1.4c0,0-0.1,0.4-1.5,1.1c-0.5,0.3-0.9,0.5-1.3,0.7l-0.6-0.3c-0.4,0.3-0.8,0.7-1.2,1.2
				c-0.9,1.2-1.8,3.1-5.3,3.6c-3.5,0.5-5.6-0.8-5.9-1.5c0,0,0-0.1,0.1-0.4C72.3,152.7,74.3,153.8,77.6,153.3z"/>
		</g>
		<g>
			<path class="st3" d="M105.3,122.1c0,0,1.9,1.9,2,4c0,0-0.5,1.3-1.6,2c-1.1,0.7-3.2,2-3.9,3.5c-0.6,1.5-1,4-3.5,4.8
				c-2.5,0.9-4.9,1.3-5.9-0.6c0,0,0.3-2.1,1.2-3.3c0.9-1.2,3.9-4,4.4-4.9c0,0,0.7-0.1,1.2,0.2c0.5,0.3,1.4,0.4,2.3,0.1
				C102.3,127.5,105.4,123.5,105.3,122.1z"/>
			<path class="st4" d="M92.4,135.8c0-0.1,0-0.1,0-0.2C92.4,135.8,92.4,135.9,92.4,135.8c1.1,2,3.4,1.5,5.9,0.6
				c2.5-0.9,2.9-3.4,3.5-4.8c0.6-1.5,2.8-2.8,3.9-3.5c1.1-0.7,1.6-2,1.6-2c0,0,0-0.1,0-0.1c0.1,0.4,0.2,0.8,0.3,1.2
				c0,0-0.5,1.3-1.6,2c-0.5,0.3-1.3,0.8-2,1.4c-0.2-0.1-0.5-0.2-0.7-0.3c-0.6,0.5-1.1,1.1-1.4,1.7c-0.6,1.5-1,4-3.5,4.8
				c-2.5,0.9-4.9,1.3-5.9-0.6C92.4,136.3,92.4,135.9,92.4,135.8z"/>
		</g>
		<path class="st5" d="M78.7,88.2c0.5,8.1,3.8,11.5,7.9,18.1c4.1,6.5,9.7,13.9,10.7,22.3c0,0,7.7,0.9,9.4-4.4c0,0-3.9-8.8-5.5-12.9
			c-1.6-4.1-6.5-8.8-6.5-8.8l-3.9-11.8C90.8,90.6,78.5,85.3,78.7,88.2z"/>
		<path class="st6" d="M82.4,114.9c0.1-3.7,2.3-23.8,2.3-23.8l15.6-0.5c-0.9,6.1-7.7,24.3-7.9,26.5c-0.2,2.3,0.6,9.2-1,13.6
			c-1.7,4.4-3.6,14.2-3.6,14.2c-5.2,3-9.5-0.3-9.5-0.3C82.1,136.7,82.3,118.6,82.4,114.9z"/>
		<path class="st7" d="M68.7,80.3l-1.2-0.7c-0.3,0.2-0.6,0.6-0.6,1.1c-0.2,1.1,0.3,1.6-0.3,2.3c-0.6,0.7-0.8,0.8-0.7,1.6
			c0.1,0.9,0.1,1.4,0.1,2.1c0,0.6,0.3,1.8-0.4,2.2c0.2,0.1,0.4,0.1,0.5,0.1c0.2,0.1,1.7,0,1.8-0.2c0.1-0.2,0.7-2.2,0.7-2.3
			c0-0.1-0.3-0.6-0.5-0.6c-0.2,0-0.5-0.3-0.5-0.4c0.1-0.1,0.6-1.3,0.5-2.3c0-0.9,0.3-2,0.3-2L68.7,80.3z"/>
		<path class="st2" d="M89.4,93.5c0,0-0.6,0.7-1.3,0.9c-0.7,0.2-3.4,1.1-4,1.6c-0.6,0.5-1.9,2.1-1.9,2.1s-0.3,2.6,0,2.7
			c0.3,0.2,1-0.3,1-0.3l0.4-0.5c0,0,0.6,2.1,1,2.2c0.4,0.1,1,0.5,1.3,0.7c0.3,0.2,2.4,0.4,2.7,0.2c0.4-0.2,1.2-1.3,1.2-1.4
			c0,0,1-4.3,2-5L89.4,93.5z"/>
		<path class="st7" d="M88.7,102.9c0.2-0.1,0.5-0.4,0.7-0.7c-0.9-0.2-2.7-0.3-3.4-0.4c-0.9-0.1-1.3-0.8-1.2-1.1
			c0.1-0.4,0.9-0.8,1.1-0.9c0.1-0.1-0.1-0.7-0.1-1.2c0-0.5-0.2-0.6-0.9-0.6c-0.6,0-1.2,0.7-1.2,0.7l-0.1,1.1c0,0,0.6,2.1,1,2.2
			c0.4,0.1,1,0.5,1.3,0.7C86.2,102.9,88.3,103.1,88.7,102.9z"/>
		<path class="st8" d="M65.2,78.8c0,0,2,0.3,3.3,2.7c0,0,10.1-7,12.3-10.1c2.3-3.1,3.3-23,3.3-23s-4,1.2-5,4.5
			c-1,3.3-0.3,4.3-1.4,8.1c-1.2,3.8-2.2,5.5-2.2,5.5S65.7,77.9,65.2,78.8z"/>
		<path class="st9" d="M81.7,55c0,0-2.1-0.8-2.1,0.8c0,1.6,0.2,1.2-0.2,3.8c-0.4,2.6-0.3,6-1.6,6.3c-1.3,0.2-2-0.1-1.6,1
			c0.5,1.1,1.4,3.8-2.3,7.5c-1.9,2-4.7,4-6.8,5.5c0.4,0.4,0.9,0.9,1.3,1.6c0,0,10.1-7,12.3-10.1c1.3-1.8,2.2-9.3,2.7-15.3L81.7,55z"
			/>
		<path class="st8" d="M88,48.8c-1.1-0.4-3.6-0.7-4-0.4c-0.3,0.3-2.7,3.1-3.4,7.1c-0.7,4-1.2,7.9-0.8,9.9c0.4,2,0.5,6.6,0.7,9.9
			c0.2,3.3-2,12.7-2.1,12.8c-0.1,0.1,0.5,3,8.3,4.9c7.8,1.9,14.4-1.6,14.4-1.6s-2.9-7.9-2.2-11.5c0.6-3.6,3.1-9.1,3.1-9.1l3.3-11.5
			c0,0-4.6-6-6.4-7.8C97.2,49.7,88,48.8,88,48.8z"/>
		<path class="st9" d="M102.1,70.7l1.1-3.8l-1.9-0.7c0,0-4-1.1-4.5,1.3c-0.5,2.4-0.7,3.3-1.4,3.8c-0.7,0.5-2.7-0.9-2.1,3
			c0.6,3.9,2.3,7.5-0.1,9c-2.4,1.5-2.4,2.7-2.3,3.9c0.1,0.8-2.4,4-3.8,5.7c7.7,1.8,14.2-1.7,14.2-1.7s-2.9-7.9-2.2-11.5
			C99.6,76.2,102.1,70.7,102.1,70.7z"/>
		<path class="st8" d="M89.1,93.5l2.8,3.9c0,0,12.5-10.3,14.3-12.3c1.7-2,1.7-13.4,1.7-16.3c0-2.9-1-8.7-2.5-9.6
			c-1.5-0.9-6.7,1.4-6.9,5.5c-0.2,4.1,2.2,13.6,1.7,17.2L89.1,93.5z"/>
		<g>
			<g>
				<path class="st7" d="M97.1,46.1c0,0-0.3,2.5,0.3,3.9c0.7,1.4-1.7,2.8-4.6,4c-2.9,1.2-3.5,0.6-4,0c-0.9-1.1-0.7-4.5-0.7-4.5
					L97.1,46.1z"/>
				<path class="st10" d="M87.6,52.6c0.3-1.5,0.6-3,0.6-3l9-3.4c0,0-0.3,2.5,0.3,3.9c0.2,0.5,0.1,1.4-0.4,2.3l-1.4,1.2
					c0,0,0.1-3.2-1.7-2.6C92.5,51.5,90,52.7,87.6,52.6z"/>
			</g>
			<path class="st9" d="M88.9,54l-2.9,2.9c0,0,0.3-5.2,0.6-7.5l1.5-0.7C88,48.7,88.4,52.9,88.9,54z"/>
			<path class="st2" d="M96.2,35.2c-2-1.4-5.2-1.2-7.5,0.3c-2.3,1.5-2.9,3.4-3.1,4.2c-0.2,0.8-0.4,1.5-0.6,2.2
				c-0.2,0.6,0.5,1.4,0.5,1.4c-0.7,0.9-0.2,3,0,3.5c-0.1,0.2-0.1,0.4-0.1,0.5c0,0.3,0.2,0.5,0.4,0.5c0.2,0.7,0.3,1.5,0.3,1.8
				c0,0.5-0.1,2.2,1.9,2.2c2,0,4.9-1.1,6.7-2.6c1.8-1.4,3.7-4.4,4.3-7.3C99.4,39.2,98.2,36.6,96.2,35.2z"/>
			<path class="st7" d="M85,41.9c0.2-0.6,0.4-1.3,0.6-2.2c0,0,0,0,0-0.1c1.5,0.2,5.2,0.8,9,2.9c0,0,0.1,0.1,0.2,0.1
				c-0.4,0.5-2.4,2.1-4.6,2.5c-1.7,0.3-2.1-0.9-4.8-1.8C85.2,43.1,84.8,42.5,85,41.9z"/>
			<path class="st7" d="M85.4,46.9C85.4,46.9,85.4,46.9,85.4,46.9c0.3-0.7,1-1.7,1.1-2.4c0.2-0.9-1.5-1.8-1.5-1.8l0,0
				c0.1,0.4,0.4,0.6,0.4,0.6C84.7,44.2,85.3,46.4,85.4,46.9z"/>
			<path class="st11" d="M96.2,35.2c-2-1.4-5.2-1.2-7.5,0.3c-1.8,1.2-2.5,2.6-2.9,3.6c0.3,0.7,0.7,1.2,1.3,1.3
				c2,0.4,3.8-0.2,4.8,0.1c0.8,0.2,1.1,1.7,1.2,3c0.1,1.3,0.9,1.7,0.6,3.2c-0.2,1.3-2,3.1-2.5,4.5c1.2-0.5,2.4-1.1,3.3-1.8
				c1.8-1.4,3.7-4.4,4.3-7.3C99.4,39.2,98.2,36.6,96.2,35.2z"/>
			<path class="st12" d="M93.9,43.8c0.2,0.6,0.5,1.3,0.8,1.6c0.2,0.1,0.7-0.2,0.8-0.4c0.3-0.3,2.2-2.5,2.3,0.2c0.5-1,0.8-2,1-3.1
				c0.1-0.4,0.1-0.9,0.1-1.3c-1.8,0.9-4,1.2-5.1,1.4C93.9,42.8,93.8,43.4,93.9,43.8z"/>
			<path class="st7" d="M86.8,51.7c0.2-2.5-0.3-3.7-0.3-3.7c0-0.1-0.5,0-0.8-0.1c0,0,0,0,0,0c0.2,0.7,0.3,1.5,0.3,1.8
				C86,50.1,85.9,51.2,86.8,51.7z"/>
			<path class="st2" d="M95.4,47.4c0.2,0.2,0.8,0.4,1.9-0.8c1.1-1.2,1.1-2.3,0.5-2.7c-0.5-0.4-1.1-0.1-1.4,0.3
				C96.2,44.6,95.4,47.4,95.4,47.4z"/>
			<path class="st11" d="M95.4,47.4c0.2,0.2,0.8,0.4,1.9-0.8c1.1-1.2,1.1-2.3,0.5-2.7c-0.5-0.4-1.1-0.1-1.4,0.3
				C96.2,44.6,95.4,47.4,95.4,47.4z"/>
			<path class="st8" d="M98.3,44.3c0,0-2.2-1.5-3.7-2.3c-4.9-2.6-9.7-2.9-9.7-2.9s1.7-3.8,2.9-5.2c1.1-1.3,4.5-2,7.6-0.2
				c4,2.3,4,4.6,4,6.5C99.4,41.4,99.1,42.4,98.3,44.3z"/>
			<path class="st13" d="M84.9,39c0,0,4.8,0.3,9.7,2.9c0,0,0.1,0.1,0.2,0.1c-0.4,0.5-2.4,2.1-4.6,2.5c-1.7,0.3-2.2-1-5.2-2
				c-2.4-0.8-4.1-0.3-4.1-0.3s0.9-1.1,2-1.9C84,39.5,84.9,39,84.9,39z"/>
			<path class="st9" d="M97.2,48.7c0,0-2.9,4.2-8.4,5.3l0.8,4.6c0,0,7.7-5.4,9.1-7.4L97.2,48.7z"/>
		</g>
		<g>
			<path class="st14" d="M41.3,147.9l-0.2,0c-0.3-0.1-0.5-0.5-0.4-0.8l20.4-58.9c0.2-0.5,0.6-1,1.1-1.2l3-1.4c0.3-0.1,0.7,0,0.8,0.3
				c0.1,0.3,0,0.7-0.3,0.8l-3,1.4c-0.1,0.1-0.3,0.3-0.4,0.4l-20.4,58.9C41.8,147.7,41.6,147.9,41.3,147.9"/>
			<path class="st15" d="M56.9,102.7l-6.8,19.7c0.1,0,0.1,0,0.2,0c0,0,0,0,0.1,0l6.8-19.6L56.9,102.7 M65.5,85.8c-0.1,0-0.1,0-0.2,0
				l-3,1.4c-0.4,0.2-0.8,0.6-1,1l-20.4,58.9c-0.1,0.2,0,0.5,0.3,0.5l0.1,0c0.2,0,0.3-0.1,0.4-0.3l8.2-23.8c-0.1,0-0.1-0.1-0.2-0.2
				l-8.3,23.9l-0.2,0.1l-0.1,0c-0.1,0-0.2-0.2-0.1-0.3l15.5-44.8c-0.1-0.2-0.1-0.4,0-0.6c0.1-0.1,0.2-0.2,0.3-0.2l4.6-13.3
				c0.1-0.4,0.5-0.8,0.8-0.9l3-1.4c0,0,0.1,0,0.1,0c0.1,0,0.2,0,0.2,0.1c0,0.1,0,0.2-0.1,0.3l-3,1.4c-0.2,0.1-0.5,0.4-0.6,0.7
				l-4.5,13.1c0,0,0.1,0,0.1,0.1l0.1,0l4.5-13.1c0.1-0.2,0.3-0.5,0.5-0.6l3-1.4c0.2-0.1,0.3-0.3,0.2-0.6
				C65.8,85.9,65.6,85.8,65.5,85.8"/>
			<path class="st16" d="M56.8,102.6l-6.9,19.9c0.1,0,0.1-0.1,0.2-0.1l6.8-19.7L56.8,102.6C56.8,102.7,56.8,102.7,56.8,102.6
				 M56.6,102.4l-15.5,44.8c0,0.1,0,0.2,0.1,0.3l0.1,0l0.2-0.1l8.3-23.9c0-0.1-0.1-0.1-0.1-0.2l-8.3,24.1l0,0l0,0l0-0.1l8.4-24.3
				c0-0.1,0-0.1,0.1-0.2l7-20.2C56.7,102.5,56.6,102.5,56.6,102.4 M65.5,86C65.4,86,65.4,86,65.5,86l-3.1,1.4
				c-0.3,0.2-0.7,0.6-0.8,0.9l-4.6,13.3c0.1,0,0.1,0,0.2-0.1l4.6-13.2c0.1-0.3,0.5-0.7,0.8-0.8l3-1.4l0.1,0l0,0.1l-3,1.4
				c-0.3,0.1-0.6,0.5-0.7,0.8l-4.5,13.1c0.1,0,0.1,0,0.2,0l4.5-13.1c0.1-0.3,0.4-0.6,0.6-0.7l3-1.4c0.1,0,0.2-0.2,0.1-0.3
				C65.6,86,65.5,86,65.5,86"/>
			<path class="st17" d="M49.7,122.9l-8.4,24.3l0,0.1l0,0l0,0l8.3-24.1C49.7,123.1,49.7,123,49.7,122.9 M56.7,102.6l-7,20.2
				c0,0,0,0,0,0c0-0.1,0.1-0.1,0.2-0.2L56.7,102.6C56.8,102.6,56.7,102.6,56.7,102.6 M65.4,86.1l-3,1.4c-0.3,0.1-0.6,0.5-0.8,0.8
				l-4.6,13.2c0,0,0.1,0,0.1,0c0,0,0,0,0,0l4.5-13.1c0.1-0.3,0.4-0.6,0.7-0.8L65.4,86.1L65.4,86.1L65.4,86.1"/>
			<path class="st18" d="M64.9,85.5c0,0,0.6-0.5,1.4,0.1c0.3,0.3,0.2,1.3,0.2,1.3l-3,1.1c0.1-1.1-0.5-1.5-0.5-1.5v-0.1L64.9,85.5z"
				/>
			<path class="st14" d="M76.5,113.9c-0.1,0-0.2,0-0.3-0.1l-19.3-11.2c-0.3-0.2-0.4-0.6-0.2-0.9c0.2-0.3,0.6-0.4,0.9-0.2l19.3,11.2
				c0.3,0.2,0.4,0.6,0.2,0.9C76.9,113.8,76.7,113.9,76.5,113.9"/>
			<path class="st15" d="M57.2,101.7c-0.1,0-0.3,0.1-0.4,0.2c-0.1,0.2,0,0.5,0.2,0.6l19.2,11.1l0.1-0.2l-19.2-11.1
				c-0.1-0.1-0.1-0.2-0.1-0.3c0-0.1,0.1-0.1,0.2-0.1c0,0,0.1,0,0.1,0l19.1,11l0.1-0.2l-19.1-11C57.3,101.7,57.2,101.7,57.2,101.7"/>
			<path class="st16" d="M57.2,101.9c-0.1,0-0.1,0-0.2,0.1c-0.1,0.1,0,0.2,0.1,0.3l19.2,11.1l0.1-0.1l-19.2-11.1l0-0.1l0.1,0
				l19.2,11.1l0.1-0.2l-19.1-11C57.2,101.9,57.2,101.9,57.2,101.9"/>
			<polyline class="st17" points="57.2,102.1 57.1,102.1 57.1,102.2 76.3,113.3 76.4,113.2 57.2,102.1 			"/>
			<path class="st14" d="M69.6,134.8c-0.1,0-0.2,0-0.3-0.1L50,123.6c-0.3-0.2-0.4-0.6-0.2-0.9c0.2-0.3,0.6-0.4,0.9-0.2l19.3,11.2
				c0.3,0.2,0.4,0.6,0.2,0.9C70,134.7,69.8,134.8,69.6,134.8"/>
			<path class="st15" d="M50.3,122.6c-0.1,0-0.3,0.1-0.4,0.2c-0.1,0.2,0,0.5,0.2,0.6l19,10.9l0.1-0.2l-18.9-10.9
				c-0.1-0.1-0.1-0.2-0.1-0.3c0-0.1,0.1-0.1,0.2-0.1c0,0,0.1,0,0.1,0l18.9,10.9l0.1-0.2l-18.8-10.9
				C50.4,122.6,50.4,122.6,50.3,122.6"/>
			<path class="st16" d="M50.3,122.8c-0.1,0-0.1,0-0.2,0.1c-0.1,0.1,0,0.2,0.1,0.3l18.9,10.9l0.1-0.2l-18.9-10.9l0-0.1l0.1,0
				l18.9,10.9l0.1-0.2l-18.9-10.9C50.4,122.8,50.3,122.8,50.3,122.8"/>
			<polyline class="st17" points="50.3,123 50.2,123 50.3,123.1 69.2,134 69.2,133.9 50.3,123 			"/>
			<path class="st19" d="M70.5,152.3L70.5,152.3l-2.6-1.5c-0.4-0.2-0.8-0.3-1.3-0.2c-2.4,0.2-5.1,3.1-6.1,6.4
				c-0.8,2.6-0.3,4.7,1.1,5.4l2.4,1.4c0.4,0.3,0.9,0.4,1.6,0.3c2.4-0.2,5.1-3.1,6.1-6.4C72.3,155.1,71.8,153,70.5,152.3"/>
			<path class="st18" d="M71.6,157.7c-1,3.3-3.7,6.2-6.1,6.4c-2.4,0.2-3.5-2.3-2.5-5.6c1-3.3,3.7-6.2,6.1-6.4
				C71.5,151.9,72.6,154.4,71.6,157.7z"/>
			<path class="st20" d="M70.4,157.8c-0.7,2.4-2.7,4.5-4.4,4.6c-1.7,0.2-2.5-1.7-1.8-4.1c0.7-2.4,2.7-4.5,4.4-4.6
				C70.3,153.6,71.1,155.4,70.4,157.8z"/>
			<path class="st21" d="M68.5,158c-0.3,1-1.1,1.8-1.8,1.8c-0.7,0.1-1-0.7-0.7-1.6c0.3-1,1.1-1.8,1.8-1.8
				C68.5,156.3,68.8,157,68.5,158z"/>
			<path class="st20" d="M68.8,158.1c-0.3,1-1.1,1.8-1.8,1.8c-0.7,0.1-1-0.7-0.7-1.6c0.3-1,1.1-1.8,1.8-1.8
				C68.8,156.5,69.1,157.2,68.8,158.1z"/>
			<path class="st18" d="M68.3,158.2c-0.2,0.5-0.6,1-1,1c-0.4,0-0.5-0.4-0.4-0.9c0.2-0.5,0.6-1,1-1
				C68.2,157.3,68.4,157.7,68.3,158.2z"/>
			<path class="st21" d="M69.6,153.9c0.7,0.7,0.9,2,0.4,3.6c-0.7,2.4-2.7,4.5-4.4,4.6c-0.4,0-0.7,0-1-0.2c0.3,0.3,0.8,0.5,1.4,0.5
				c1.7-0.2,3.7-2.2,4.4-4.6C70.9,156,70.6,154.5,69.6,153.9z"/>
			<path class="st14" d="M60.8,160.6l-0.2,0c-0.3-0.1-0.5-0.5-0.4-0.8l20.4-58.9c0.2-0.5,0.6-1,1.1-1.2l3-1.4c0.3-0.1,0.7,0,0.8,0.3
				c0.1,0.3,0,0.7-0.3,0.8l-3,1.4c-0.1,0.1-0.3,0.3-0.4,0.4l-20.4,58.9C61.3,160.5,61.1,160.6,60.8,160.6"/>
			<path class="st15" d="M60.8,160.2L60.8,160.2c-0.2,0-0.2-0.2-0.2-0.3L81,101.1c0.1-0.4,0.5-0.8,0.8-0.9l3-1.4c0,0,0.1,0,0.1,0
				c0.1,0,0.2,0,0.2,0.1c0,0.1,0,0.2-0.1,0.3l-3,1.4c-0.2,0.1-0.5,0.4-0.6,0.7L61,160.1L60.8,160.2 M85,98.5c-0.1,0-0.1,0-0.2,0
				l-3,1.4c-0.4,0.2-0.8,0.6-1,1l-20.4,58.9c-0.1,0.2,0,0.5,0.3,0.5l0.1,0c0.2,0,0.3-0.1,0.4-0.3l20.4-58.9c0.1-0.2,0.3-0.5,0.5-0.6
				l3-1.4c0.2-0.1,0.3-0.3,0.2-0.6C85.3,98.6,85.1,98.5,85,98.5"/>
			<path class="st16" d="M60.8,160.1L60.8,160.1L60.8,160.1l20.3-59c0.1-0.3,0.5-0.7,0.8-0.8l3-1.4l0.1,0l0,0.1l-3,1.4
				c-0.3,0.1-0.6,0.5-0.7,0.8L60.8,160.1L60.8,160.1 M85,98.7C84.9,98.7,84.9,98.7,85,98.7l-3.1,1.4c-0.3,0.2-0.7,0.6-0.8,0.9
				L60.6,160c0,0.1,0,0.2,0.1,0.3l0.1,0l0.2-0.1l20.4-58.9c0.1-0.3,0.4-0.6,0.6-0.7l3-1.4c0.1,0,0.2-0.2,0.1-0.3
				C85.1,98.8,85,98.7,85,98.7"/>
			<path class="st17" d="M84.9,98.9l-3,1.4c-0.3,0.1-0.6,0.5-0.8,0.8L60.8,160l0,0.1l0,0l0,0l20.4-58.9c0.1-0.3,0.4-0.6,0.7-0.8
				L84.9,98.9L84.9,98.9L84.9,98.9"/>
			<path class="st18" d="M84.4,98.2c0,0,0.6-0.5,1.4,0.1c0.3,0.3,0.2,1.3,0.2,1.3l-3,1.1c0.1-1.1-0.5-1.5-0.5-1.5v-0.1L84.4,98.2z"
				/>
			<polygon class="st14" points="61.1,160.8 32.8,156.8 33,156.3 61.3,160.3 			"/>
			<polygon class="st22" points="33,156.3 32.8,156.8 12.9,145.2 13.1,144.7 			"/>
			<polygon class="st23" points="61.3,160.3 33,156.3 13.1,144.7 41.4,148.7 			"/>
			<polygon class="st24" points="37.7,156.1 60,159.3 66.3,141 43.8,137.9 			"/>
			<polygon class="st25" points="43.8,137.9 66.2,141 47.2,129.9 24.8,126.7 			"/>
			<polygon class="st26" points="43.8,137.9 37.7,156.1 18.6,145 24.8,126.7 			"/>
			<polygon class="st27" points="37.2,128.5 34.8,128.2 53.8,139.3 56.3,139.6 			"/>
			<polygon class="st28" points="54.1,145.7 56.2,139.6 53.8,139.3 51.7,145.3 			"/>
			<path d="M47.8,152.4l0-0.1l-0.1,0L47.8,152.4c-0.4,0-0.8,0.2-1.1,0.5l0.1,0c0.1,0,0.1,0.1,0.1,0.2c0.1-0.1,0.2-0.2,0.2-0.2
				c0.1,0,0.1,0.1,0.1,0.2c0.1-0.1,0.2-0.2,0.2-0.2c0.1,0,0.1,0.1,0.1,0.2c0.1-0.1,0.2-0.2,0.2-0.2c0.1,0,0.1,0.1,0.1,0.2
				c0.1-0.1,0.2-0.2,0.2-0.2l0.1,0.1C48.3,152.7,48.1,152.4,47.8,152.4z"/>
			<polygon points="46.6,155.2 46.7,155.2 47.5,153.1 47.4,153.1 			"/>
			<path d="M46.3,155.6c-0.1,0-0.1-0.2-0.1-0.3l-0.1,0c-0.1,0.2,0,0.4,0.1,0.4c0.1,0,0.3-0.1,0.4-0.4l-0.1,0
				C46.5,155.5,46.4,155.6,46.3,155.6z"/>
			<path d="M44.6,151.8l-0.5,1.2c-0.2,0.5-0.1,0.9,0.2,0.9c0.3,0,0.7-0.3,0.9-0.8l0.5-1.2L44.6,151.8z"/>
			<polygon points="44,155.1 44.4,154 44.3,154 43.9,155.1 43.7,155.1 43.3,155.2 43.3,155.3 44.4,155.4 44.4,155.3 44.1,155.1 			
				"/>
			<polygon points="40.6,154.5 40.5,154.8 42.1,155.1 42.2,154.8 			"/>
			<polygon points="41.7,154.6 41.9,154.6 42.8,152.4 42.9,152.4 43,151.5 42.4,152.4 42.6,152.4 			"/>
			<polygon points="41,154.4 41.2,154.5 42.1,152.3 42.2,152.3 42.3,151.4 41.7,152.2 41.8,152.3 			"/>
			<path d="M49.1,152l-2.2-0.3l-1.7,4.2l2.2,0.3L49.1,152z M46.9,151.7l2.1,0.3l-1.6,4l-2.1-0.3L46.9,151.7z"/>
			<path d="M46.5,151.6l-2.2-0.3l-1.7,4.2l2.2,0.3L46.5,151.6z M44.3,151.3l2.1,0.3l-1.6,4l-2.1-0.3L44.3,151.3z"/>
			<path d="M43.9,151.2l-2.2-0.3l-1.7,4.2l2.2,0.3L43.9,151.2z M41.8,151l2.1,0.3l-1.6,4l-2.1-0.3L41.8,151z"/>
			<polygon class="st24" points="44.2,137.6 66.6,140.8 72.9,122.5 50.4,119.4 			"/>
			<polygon class="st25" points="50.4,119.4 72.7,122.5 53.7,111.4 31.3,108.2 			"/>
			<polygon class="st26" points="50.4,119.4 44.2,137.6 25.2,126.5 31.3,108.2 			"/>
			<polygon class="st27" points="43.8,110 41.3,109.6 60.3,120.8 62.8,121.1 			"/>
			<polygon class="st28" points="60.7,127.2 62.7,121.1 60.3,120.8 58.3,126.8 			"/>
			<path d="M54.3,133.8l0-0.1l-0.1,0L54.3,133.8c-0.4,0-0.8,0.2-1.1,0.5l0.1,0c0.1,0,0.1,0.1,0.1,0.2c0.1-0.1,0.2-0.2,0.2-0.2
				c0.1,0,0.1,0.1,0.1,0.2c0.1-0.1,0.2-0.2,0.2-0.2c0.1,0,0.1,0.1,0.1,0.2c0.1-0.1,0.2-0.2,0.2-0.2c0.1,0,0.1,0.1,0.1,0.2
				c0.1-0.1,0.2-0.2,0.2-0.2l0.1,0.1C54.8,134.2,54.6,133.9,54.3,133.8z"/>
			<polygon points="53.1,136.7 53.2,136.7 54.1,134.6 54,134.5 			"/>
			<path d="M52.8,137.1c-0.1,0-0.1-0.2-0.1-0.3l-0.1,0c-0.1,0.2,0,0.4,0.1,0.4c0.1,0,0.3-0.1,0.4-0.4l-0.1,0
				C53,137,52.9,137.1,52.8,137.1z"/>
			<path d="M51.2,133.2l-0.5,1.2c-0.2,0.5-0.1,0.9,0.2,0.9c0.3,0,0.7-0.3,0.9-0.8l0.5-1.2L51.2,133.2z"/>
			<polygon points="50.5,136.6 50.9,135.5 50.8,135.5 50.4,136.6 50.3,136.6 49.9,136.6 49.8,136.7 50.9,136.9 51,136.8 50.6,136.6 
							"/>
			<polygon points="47.1,136 47,136.3 48.6,136.6 48.8,136.2 			"/>
			<polygon points="48.3,136 48.5,136.1 49.3,133.9 49.5,133.9 49.6,133 49,133.8 49.1,133.9 			"/>
			<polygon points="47.5,135.9 47.7,136 48.6,133.8 48.7,133.8 48.8,132.9 48.2,133.7 48.4,133.7 			"/>
			<path d="M55.6,133.4l-2.2-0.3l-1.7,4.2l2.2,0.3L55.6,133.4z M53.4,133.2l2.1,0.3l-1.6,4l-2.1-0.3L53.4,133.2z"/>
			<path d="M53,133l-2.2-0.3l-1.7,4.2l2.2,0.3L53,133z M50.8,132.8l2.1,0.3l-1.6,4l-2.1-0.3L50.8,132.8z"/>
			<path d="M50.5,132.6l-2.2-0.3l-1.7,4.2l2.2,0.3L50.5,132.6z M48.3,132.4l2.1,0.3l-1.6,4l-2.1-0.3L48.3,132.4z"/>
		</g>
		<path class="st18" d="M65.4,85.6l5.7-1.9c0,0,1.3,0.7,0.6,1.7l-6.9,2.3L65.4,85.6z"/>
		<path class="st2" d="M62,84.5c0,0,1.9,1.7,2,2.5c0.1,0.8,0.9,1.8,1.6,1.8s0.7-2.6,0.3-4.2C65.5,83.1,62,84.3,62,84.5z"/>
		<g>
			<path class="st29" d="M54.1,14.3l0,2c0.2-0.3,0.6-0.4,1-0.2c0.6,0.3,0.9,0.8,0.9,1.6l0,2l-0.4-0.2l0-1.9c0-0.6-0.2-0.9-0.6-1.1
				c-0.4-0.2-0.7,0-0.9,0.4l0,2l-0.4-0.2l-0.1-4.5L54.1,14.3z"/>
			<path class="st29" d="M57.3,17.1l0,1.9c0,0.6,0.2,0.9,0.6,1.1c0.4,0.2,0.7,0,0.9-0.4l0-2l0.4,0.2l0,3.1l-0.4-0.2l0-0.6
				c-0.3,0.3-0.6,0.4-1,0.2c-0.6-0.3-0.9-0.8-1-1.6l0-1.9L57.3,17.1z"/>
			<path class="st29" d="M60.4,19c0.2-0.3,0.4-0.4,0.8-0.3c0.4,0.2,0.6,0.5,0.8,1c0.2-0.3,0.5-0.5,0.8-0.3c0.3,0.1,0.5,0.4,0.7,0.7
				c0.1,0.2,0.2,0.5,0.2,0.9l0,2l-0.4-0.2l0-1.9c0-0.5-0.2-0.9-0.5-1c-0.3-0.1-0.6,0.1-0.6,0.5l0,2l-0.4-0.2l0-2
				c0-0.5-0.2-0.9-0.5-1c-0.3-0.1-0.6,0.1-0.7,0.5l0,2L60,21.4l0-3.1l0.4,0.2L60.4,19z"/>
			<path class="st29" d="M66.1,22c0-0.2-0.1-0.4-0.2-0.6c-0.1-0.2-0.3-0.3-0.5-0.4c-0.3-0.2-0.6-0.2-0.9,0l-0.2-0.4
				c0.3-0.1,0.7-0.1,1.1,0.1c0.7,0.3,1.1,0.9,1.1,1.6l0,1.1c0,0.4,0.1,0.8,0.2,1l-0.4-0.2c0-0.1-0.1-0.4-0.1-0.6l0,0
				c-0.1,0.1-0.2,0.2-0.4,0.3c-0.2,0.1-0.4,0-0.6-0.1c-0.5-0.2-0.9-0.8-0.9-1.4c0-0.3,0.1-0.5,0.4-0.6c0.3-0.1,0.6,0,1.2,0.2
				l0.4,0.2L66.1,22z M65.8,22.3c-0.8-0.3-1.2-0.3-1.2,0.2c0,0.3,0.2,0.7,0.6,0.8c0.5,0.2,0.9,0,0.9-0.5l0-0.3L65.8,22.3z"/>
			<path class="st29" d="M67.8,22.2c0.2-0.3,0.6-0.4,1-0.2c0.6,0.3,0.9,0.8,0.9,1.6l0,2l-0.4-0.2l0-1.9c0-0.6-0.2-0.9-0.6-1.1
				c-0.4-0.2-0.7,0-0.9,0.4l0,2l-0.4-0.2l0-3.1l0.4,0.2L67.8,22.2z"/>
		</g>
	</g>
</g>
</svg>
