<svg xmlns="http://www.w3.org/2000/svg" viewBox="0 0 74.12 57.6"><defs><style>.cls-1{fill:none;}.cls-1,.cls-2,.cls-3{stroke:#686e71;stroke-width:0.25px;}.cls-1,.cls-2{stroke-miterlimit:10;}.cls-2,.cls-3{fill:#fff;}.cls-3{stroke-linecap:round;stroke-linejoin:round;}</style></defs><g id="Layer_2" data-name="Layer 2"><g id="Layer_1-2" data-name="Layer 1"><ellipse class="cls-1" cx="37.06" cy="28.8" rx="18.17" ry="19.06"/><ellipse class="cls-1" cx="37.06" cy="28.8" rx="21.21" ry="22.25"/><ellipse class="cls-1" cx="37.06" cy="28.8" rx="24.22" ry="25.41"/><ellipse class="cls-1" cx="37.06" cy="28.8" rx="27.33" ry="28.67"/><path class="cls-1" d="M9.8,29a50.27,50.27,0,0,1-5.66-3.66l1.4-3.29L10,27.94Z"/><line class="cls-1" x1="9.89" y1="28.46" x2="4.8" y2="23.87"/><path class="cls-1" d="M9.94,29.76c-1,.94-7.62,4.41-7.62,4.41L.21,31.32,9.12,29Z"/><line class="cls-1" x1="9.49" y1="29.4" x2="1.28" y2="32.79"/><rect class="cls-2" x="9.08" y="26.84" width="10.59" height="3.73" transform="translate(28.74 57.41) rotate(180)"/><path class="cls-1" d="M64.33,29A51.22,51.22,0,0,0,70,25.38l-1.41-3.29-4.49,5.85Z"/><line class="cls-1" x1="64.23" y1="28.46" x2="69.32" y2="23.87"/><path class="cls-1" d="M64.19,29.76c1,.94,7.62,4.41,7.62,4.41l2.1-2.85L65,29Z"/><line class="cls-1" x1="64.63" y1="29.4" x2="72.84" y2="32.79"/><rect class="cls-2" x="54.46" y="26.84" width="10.59" height="3.73"/><rect class="cls-3" x="9.34" y="30.6" width="3.18" height="4.94" transform="translate(21.86 66.14) rotate(180)"/><rect class="cls-3" x="8.84" y="32.86" width="4.17" height="8.48" transform="translate(21.86 74.2) rotate(180)"/><rect class="cls-3" x="61.35" y="30.6" width="3.18" height="4.94" transform="translate(125.87 66.14) rotate(180)"/><rect class="cls-3" x="60.88" y="32.86" width="4.17" height="8.48" transform="translate(125.93 74.2) rotate(180)"/><path class="cls-3" d="M60.14,34.43h5.91a0,0,0,0,1,0,0V41a1.24,1.24,0,0,1-1.24,1.24H61.38A1.24,1.24,0,0,1,60.14,41V34.43A0,0,0,0,1,60.14,34.43Z" transform="translate(126.2 76.69) rotate(180)"/><rect class="cls-3" x="59.3" y="41.09" width="7.62" height="3.47" rx="0.49" transform="translate(126.22 85.65) rotate(180)"/><rect class="cls-3" x="8.02" y="34.43" width="5.91" height="6.68" rx="0.87" transform="translate(21.95 75.54) rotate(180)"/><rect class="cls-3" x="8.55" y="41.09" width="4.87" height="3.47" transform="translate(21.97 85.65) rotate(180)"/></g></g></svg>