<?xml version="1.0" encoding="utf-8"?>
<!-- Generator: Adobe Illustrator 26.0.1, SVG Export Plug-In . SVG Version: 6.00 Build 0)  -->
<svg version="1.1" id="Layer_1" xmlns="http://www.w3.org/2000/svg" xmlns:xlink="http://www.w3.org/1999/xlink" x="0px" y="0px"
	 viewBox="0 0 427.1 536.9" style="enable-background:new 0 0 427.1 536.9;" xml:space="preserve">
<style type="text/css">
	.st0{fill:none;stroke:#A4A4A5;stroke-miterlimit:10;}
	.st1{fill:#A4A4A5;}
	.st2{fill:#1B1464;}
	.st3{clip-path:url(#SVGID_00000014622437448986665850000006202648530496621969_);}
	.st4{fill:none;stroke:#3FA9F5;stroke-width:0.63;}
	.st5{fill:none;stroke:#3FA9F5;stroke-miterlimit:10;}
	.st6{opacity:0.63;fill:#3FA9F5;enable-background:new    ;}
	.st7{fill:#ED1C24;}
	.st8{fill:none;stroke:#221815;stroke-width:0.78;stroke-miterlimit:10;}
	.st9{fill:#221815;}
	.st10{fill:none;stroke:#B5B6B6;stroke-width:0.47;stroke-miterlimit:10;stroke-dasharray:1.56,1.56;}
	.st11{clip-path:url(#SVGID_00000057867566334429089110000011686598949085749949_);}
	.st12{fill:none;stroke:#B5B6B6;stroke-width:0.75;stroke-linecap:round;stroke-linejoin:round;}
	.st13{fill:none;stroke:#B5B6B6;stroke-width:0.75;stroke-linecap:round;stroke-linejoin:bevel;}
	.st14{fill:none;stroke:#221815;stroke-width:1.5;stroke-miterlimit:10;}
</style>
<g id="Layer_2_00000054260079638206606800000002952131820549165726_">
	<g id="Layer_1-2">
		<line class="st0" x1="19.9" y1="322" x2="19.9" y2="435.5"/>
		<line class="st0" x1="19.9" y1="53.5" x2="19.9" y2="157.7"/>
		<path class="st1" d="M11.2,65.5c0.4,0.3,1,0.1,1.2-0.3l7.4-11.7l7.4,11.7c0.3,0.4,0.8,0.5,1.3,0.3c0.4-0.3,0.5-0.8,0.3-1.3l0,0
			l-8.2-12.9c-0.2-0.3-0.5-0.4-0.8-0.4s-0.6,0.2-0.8,0.4l-8.2,12.9C10.7,64.7,10.8,65.2,11.2,65.5"/>
		<path class="st1" d="M11.2,423.1c0.4-0.3,1-0.1,1.2,0.3l7.4,11.7l7.4-11.7c0.3-0.4,0.8-0.5,1.2-0.3c0.4,0.3,0.5,0.8,0.3,1.3
			l-8.2,12.9c-0.2,0.3-0.5,0.4-0.8,0.4s-0.6-0.2-0.8-0.4l-8.2-12.9c-0.1-0.1-0.1-0.3-0.1-0.5C10.8,423.6,11,423.3,11.2,423.1"/>
		<g>
			<path class="st2" d="M270.1,51.6c2.6,0,4.8,2.2,4.8,4.8v373c0,2.6-2.2,4.8-4.8,4.8H55.7c-2.6,0-4.8-2.2-4.8-4.8v-373
				c0-2.6,2.2-4.8,4.8-4.8L270.1,51.6 M270.1,49.6H55.7c-3.7,0-6.8,3.1-6.8,6.8v373c0,3.7,3,6.8,6.8,6.8h214.4c3.7,0,6.8-3,6.8-6.8
				v-373C276.9,52.7,273.9,49.6,270.1,49.6L270.1,49.6z"/>
		</g>
		<g>
			<g>
				<g>
					<defs>
						<path id="SVGID_1_" d="M144.1,49.6h126c3.8,0,6.8,3.1,6.8,6.8v373c0,3.8-3.1,6.8-6.8,6.8h-126c-3.8,0-6.8-3.1-6.8-6.8v-373
							C137.3,52.7,140.4,49.6,144.1,49.6z"/>
					</defs>
					<clipPath id="SVGID_00000134929776378724120910000009957296420854062492_">
						<use xlink:href="#SVGID_1_"  style="overflow:visible;"/>
					</clipPath>
					<g style="clip-path:url(#SVGID_00000134929776378724120910000009957296420854062492_);">
						<line class="st4" x1="277.3" y1="-151.2" x2="19.4" y2="106.7"/>
						<line class="st4" x1="278.7" y1="-142.4" x2="20.8" y2="115.4"/>
						<line class="st4" x1="280.2" y1="-133.6" x2="22.3" y2="124.2"/>
						<line class="st4" x1="281.6" y1="-124.9" x2="23.7" y2="133"/>
						<line class="st4" x1="283" y1="-116.1" x2="25.2" y2="141.8"/>
						<line class="st4" x1="284.5" y1="-107.3" x2="26.6" y2="150.6"/>
						<line class="st4" x1="285.9" y1="-98.5" x2="28" y2="159.4"/>
						<line class="st4" x1="287.4" y1="-89.7" x2="29.5" y2="168.1"/>
						<line class="st4" x1="288.8" y1="-80.9" x2="30.9" y2="176.9"/>
						<line class="st4" x1="290.2" y1="-72.2" x2="32.4" y2="185.7"/>
						<line class="st4" x1="291.7" y1="-63.4" x2="33.8" y2="194.5"/>
						<line class="st4" x1="293.1" y1="-54.6" x2="35.2" y2="203.3"/>
						<line class="st4" x1="294.6" y1="-45.8" x2="36.7" y2="212.1"/>
						<line class="st4" x1="296" y1="-37" x2="38.1" y2="220.8"/>
						<line class="st4" x1="297.5" y1="-28.2" x2="39.6" y2="229.6"/>
						<line class="st4" x1="298.9" y1="-19.5" x2="41" y2="238.4"/>
						<line class="st4" x1="300.3" y1="-10.7" x2="42.5" y2="247.2"/>
						<line class="st4" x1="301.8" y1="-1.9" x2="43.9" y2="256"/>
						<line class="st4" x1="303.2" y1="6.9" x2="45.3" y2="264.8"/>
						<line class="st4" x1="304.7" y1="15.7" x2="46.8" y2="273.6"/>
						<line class="st4" x1="306.1" y1="24.5" x2="48.2" y2="282.3"/>
						<line class="st4" x1="307.5" y1="33.2" x2="49.7" y2="291.1"/>
						<line class="st4" x1="309" y1="42" x2="51.1" y2="299.9"/>
						<line class="st4" x1="310.4" y1="50.8" x2="52.5" y2="308.7"/>
						<line class="st4" x1="311.9" y1="59.6" x2="54" y2="317.5"/>
						<line class="st4" x1="313.3" y1="68.4" x2="55.4" y2="326.3"/>
						<line class="st4" x1="314.8" y1="77.2" x2="56.9" y2="335"/>
						<line class="st4" x1="316.2" y1="85.9" x2="58.3" y2="343.8"/>
						<line class="st4" x1="317.6" y1="94.7" x2="59.8" y2="352.6"/>
						<line class="st4" x1="319.1" y1="103.5" x2="61.2" y2="361.4"/>
						<line class="st4" x1="320.5" y1="112.3" x2="62.6" y2="370.2"/>
						<line class="st4" x1="322" y1="121.1" x2="64.1" y2="379"/>
						<line class="st4" x1="323.4" y1="129.9" x2="65.5" y2="387.7"/>
						<line class="st4" x1="324.8" y1="138.6" x2="66.9" y2="396.5"/>
						<line class="st4" x1="326.3" y1="147.4" x2="68.4" y2="405.3"/>
						<line class="st4" x1="327.7" y1="156.2" x2="69.8" y2="414.1"/>
						<line class="st4" x1="329.2" y1="165" x2="71.3" y2="422.9"/>
						<line class="st4" x1="330.6" y1="173.8" x2="72.7" y2="431.7"/>
						<line class="st4" x1="332" y1="182.6" x2="74.2" y2="440.4"/>
						<line class="st4" x1="333.5" y1="191.3" x2="75.6" y2="449.2"/>
						<line class="st4" x1="334.9" y1="200.1" x2="77" y2="458"/>
						<line class="st4" x1="336.4" y1="208.9" x2="78.5" y2="466.8"/>
						<line class="st4" x1="337.8" y1="217.7" x2="79.9" y2="475.6"/>
						<line class="st4" x1="339.2" y1="226.5" x2="81.4" y2="484.4"/>
						<line class="st4" x1="340.7" y1="235.3" x2="82.8" y2="493.1"/>
						<line class="st4" x1="342.1" y1="244" x2="84.2" y2="501.9"/>
						<line class="st4" x1="343.6" y1="252.8" x2="85.7" y2="510.7"/>
						<line class="st4" x1="345" y1="261.6" x2="87.1" y2="519.5"/>
						<line class="st4" x1="346.5" y1="270.4" x2="88.6" y2="528.3"/>
						<line class="st4" x1="347.9" y1="279.2" x2="90" y2="537.1"/>
						<line class="st4" x1="349.3" y1="288" x2="91.4" y2="545.8"/>
						<line class="st4" x1="350.8" y1="296.7" x2="92.9" y2="554.6"/>
						<line class="st4" x1="352.2" y1="305.5" x2="94.3" y2="563.4"/>
						<line class="st4" x1="353.6" y1="314.3" x2="95.8" y2="572.2"/>
						<line class="st4" x1="355.1" y1="323.1" x2="97.2" y2="581"/>
						<line class="st4" x1="356.5" y1="331.9" x2="98.7" y2="589.8"/>
						<line class="st4" x1="358" y1="340.7" x2="100.1" y2="598.5"/>
						<line class="st4" x1="359.4" y1="349.4" x2="101.5" y2="607.3"/>
						<line class="st4" x1="360.9" y1="358.2" x2="103" y2="616.1"/>
						<line class="st4" x1="362.3" y1="367" x2="104.4" y2="624.9"/>
						<line class="st4" x1="363.7" y1="375.8" x2="105.9" y2="633.7"/>
						<line class="st4" x1="365.2" y1="384.6" x2="107.3" y2="642.5"/>
					</g>
				</g>
			</g>
		</g>
		<path class="st5" d="M144.1,49.6h126c3.8,0,6.8,3.1,6.8,6.8v373c0,3.8-3.1,6.8-6.8,6.8h-126c-3.8,0-6.8-3.1-6.8-6.8v-373
			C137.3,52.7,140.4,49.6,144.1,49.6z"/>
		<path class="st6" d="M144.1,49.6h126c3.8,0,6.8,3.1,6.8,6.8v373c0,3.8-3.1,6.8-6.8,6.8h-126c-3.8,0-6.8-3.1-6.8-6.8v-373
			C137.3,52.7,140.4,49.6,144.1,49.6z"/>
		<polygon class="st7" points="171.5,151.1 137.4,119.1 103.3,151.1 119.8,151.1 119.8,368.1 154.9,368.1 154.9,151.1 		"/>
		<line class="st8" x1="115.2" y1="28.1" x2="115.2" y2="94.2"/>
		<polygon class="st9" points="115.2,102.1 110.6,90.9 115.2,93.6 119.8,90.9 		"/>
		<polyline class="st8" points="314.7,58.4 358.6,58.4 358.6,28.1 		"/>
		<polygon class="st9" points="306.7,58.4 318,63 315.3,58.4 318,53.8 		"/>
		<path class="st9" d="M22.9,7.1c-0.2,2.6,0.5,5.1,1.9,7.3c1.1,1.8,2.7,3.2,4.6,4.2l-0.5,0.8c-3.3-1.7-5.6-4.9-6.3-8.5
			c-0.6,4.2-2.4,6.7-6.2,8.5l-0.6-0.7c4.6-1.8,6.4-5.2,6.3-11.5v-1h0.8C22.9,6.2,22.9,7.1,22.9,7.1z"/>
		<path class="st9" d="M42.1,18.2c-1.3,0.1-2.5,0.2-3.8,0.2c-1.5,0.1-3-0.1-4.5-0.4c-1.1-0.3-1.8-1.2-1.8-2.3c0-0.9,0.4-1.8,1.1-2.4
			c0.7-0.6,1.4-1.1,2.2-1.5c-0.7-1.6-1.2-3.3-1.7-4.9l0.8-0.2c0.4,1.6,0.9,3.3,1.6,4.8c1.8-0.8,3.7-1.5,5.7-2.1l0.3,0.8
			c-2.7,0.6-5.3,1.7-7.7,3.1c-0.8,0.5-1.4,1.4-1.5,2.3c0,0.8,0.5,1.3,1.4,1.6c1.2,0.3,2.5,0.4,3.7,0.4c1.4,0,2.7-0.1,4.1-0.3
			L42.1,18.2z"/>
		<path class="st9" d="M51.1,8.1H45V7.4h6.1V5.8h0.8v1.5H58V8h-6.1v1.3H57v5.5h-5.1v1.4h6.5V17h-6.5v2.6h-0.8V17h-6.4v-0.7h6.4v-1.5
			h-5V9.4h5C51.1,9.4,51.1,8.1,51.1,8.1z M46.8,10.1v1.7H51v-1.7H46.8z M46.8,12.4v1.8H51v-1.8H46.8z M51.8,11.7h4.4v-1.6h-4.3
			L51.8,11.7z M51.8,14.2h4.4v-1.8h-4.3L51.8,14.2z"/>
		<path class="st9" d="M65.6,7.5h-6.4V6.8h13.5v0.7h-6.4v2.3h5.5v8.5c0,0.8-0.4,1.1-1.5,1.1s-1.9,0-2.6-0.1l-0.1-0.8
			c1.1,0.1,1.9,0.1,2.7,0.1c0.6,0,0.7-0.1,0.7-0.7v-7.5h-4.7v5.2h2.2V12h0.8v4.4h-5.9v1h-0.8V12h0.8v3.7h2.1v-5.2h-4.6v9.1h-0.8V9.8
			h5.4V7.5H65.6z"/>
		<path class="st9" d="M81.4,17.7c1-0.2,2-0.7,2.8-1.4c0.9-0.9,1.4-2.2,1.4-3.6c0.1-1.5-0.6-3-1.8-3.9c-0.8-0.5-1.7-0.9-2.6-0.9
			c-0.2,1.9-0.6,3.8-1.1,5.6c-0.4,1.1-0.9,2.2-1.6,3.2c-0.4,0.6-1,0.9-1.6,1c-1.4,0-2.5-1.8-2.5-4.1c-0.1-3.4,2.7-6.2,6.1-6.3
			c0.1,0,0.1,0,0.2,0c3.4,0,5.8,2.2,5.8,5.4c0.1,1.5-0.5,2.9-1.5,4c-0.9,0.8-2,1.4-3.1,1.6L81.4,17.7z M76.8,9.5
			c-1.1,1.1-1.7,2.6-1.7,4.2c0,1.8,0.8,3.2,1.8,3.2c0.7,0,1.2-0.7,2-2.4c0.9-2.1,1.4-4.3,1.6-6.6C79.2,7.9,77.8,8.5,76.8,9.5z"/>
		<path class="st9" d="M90.3,11.6c-0.4,1.6-1.1,3.1-1.9,4.5L88,15.3c1.1-1.7,1.8-3.5,2.2-5.5h-2.1V9.1h2.2V5.8h0.8v3.3h1.7v0.7h-1.7
			v1.4c0.7,0.6,1.3,1.2,1.9,1.8l-0.5,0.7c-0.3-0.5-0.9-1.1-1.4-1.6v7.5h-0.8C90.3,19.6,90.3,11.6,90.3,11.6z M101.2,19.6
			c-1.7-0.8-3.2-2.3-4-4c-0.6,1.9-2,3.4-3.9,4.1L92.8,19c1.9-0.6,3.3-2,3.9-3.9h-3v-3.7h3.1V9.8H95V9.3c-0.6,0.6-1.3,1.2-2.1,1.7
			l-0.5-0.6c1.8-1.1,3.2-2.7,4.1-4.6h0.9c1.1,1.8,2.7,3.3,4.6,4.3l-0.4,0.7c-0.7-0.5-1.4-1-2.1-1.6v0.6h-2v1.6h3.3v3.7h-3
			c0.9,1.7,2.3,3,4,3.7L101.2,19.6z M94.3,12.1v2.3h2.4v-2.3H94.3z M99.3,9.1c-0.9-0.8-1.6-1.7-2.3-2.6c-0.5,1-1.1,1.9-1.9,2.7
			L99.3,9.1z M97.4,14.4h2.6v-2.3h-2.6V14.4z"/>
		<path class="st9" d="M107,11.9h2.8v0.7H107v0.1c0,0.6-0.1,1.1-0.2,1.7l0.1,0.1c1.1,0.9,2.1,1.9,3,3l-0.6,0.7c-0.8-1-1.7-2-2.7-2.9
			c-0.5,1.7-1.6,3.2-3,4.3L103,19c2-1.5,3.2-3.8,3.1-6.3h-3.4V12h3.4V8.6h-1.3c-0.3,0.9-0.8,1.8-1.4,2.5l-0.6-0.5
			c0.9-1.4,1.5-3,1.8-4.7l0.8,0.2c-0.2,0.7-0.3,1.2-0.5,1.8h4.3v0.7H107V11.9z M115.7,18.8h-0.8v-1h-3.7V19h-0.8V7.6h5.2L115.7,18.8
			z M111.2,17.2h3.7V8.3h-3.7V17.2z"/>
		<path class="st9" d="M125.8,6.5v2.1h4.1v0.7h-4.1v3.4c0.1,0.4,0.2,0.8,0.2,1.2c0,3.2-1.1,4.6-4.3,5.3l-0.4-0.6
			c2.4-0.5,3.7-1.6,3.9-3.4c-0.4,0.7-1.2,1.1-2,1.1c-1.4,0-2.5-1.1-2.5-2.4c0-0.1,0-0.2,0-0.3c-0.1-1.5,1.1-2.7,2.6-2.8l0,0
			c0.6,0,1.2,0.2,1.7,0.7v-2h-7.2V8.6h7.2V6.5H125.8z M125,13.1c0-0.9-0.7-1.7-1.6-1.8c0,0,0,0-0.1,0c-1.1,0.1-1.9,1-1.8,2.1
			c0,1.3,0.7,2.1,1.8,2.1s1.7-0.9,1.7-2.2V13.1z"/>
		<path class="st9" d="M141.4,7.2l0.4,0.6l-0.4,0.3l-1.6,1.1c-2,1.4-3,2.2-4.1,3c1.2-0.4,2.4-0.6,3.6-0.6c1,0,2.1,0.2,3,0.7
			c0.9,0.6,1.4,1.6,1.3,2.6c0,1.2-0.7,2.3-1.7,2.9c-1.2,0.6-2.5,0.9-3.8,0.9c-2.2,0-3.4-0.7-3.4-2c0.1-1.1,1.1-1.9,2.2-1.8h0.1
			c0.9,0,1.8,0.4,2.4,1.1c0.3,0.5,0.6,1.2,0.6,1.8c2-0.6,2.9-1.5,2.9-2.9c0-1.8-1.2-2.7-3.5-2.7c-1.4,0-2.7,0.3-4,0.7
			c-0.7,0.3-1.2,0.8-1.8,1.3l-0.6-0.7c1.7-1.4,5.4-4.3,7.7-5.8h-6.4V7.2H141.4z M139.2,17.9c0-0.6-0.2-1.2-0.6-1.7
			c-0.4-0.5-1-0.7-1.6-0.7c-0.7-0.1-1.4,0.5-1.5,1.2l0,0c0,0.8,1,1.3,2.5,1.3c0.3,0,0.7,0,1-0.1L139.2,17.9z"/>
		<path class="st9" d="M149.6,9.1H146V8.4h3.6V7.3c-0.9,0.1-1.9,0.2-2.9,0.3L146.4,7c2.1-0.1,4.2-0.4,6.3-0.9l0.5,0.6
			c-1,0.3-1.9,0.5-2.9,0.6v1.2h3.5v0.7h-3.5v1h2.9v4.6h-2.9v1.1h3.1v0.7h-3.1v1.3c0.8-0.1,2.3-0.3,3.3-0.5l0.1,0.6
			c-1.8,0.4-4.6,0.8-7.5,1.1l-0.2-0.7c1.2-0.1,1.9-0.2,3.6-0.4v-1.4h-3v-0.7h3v-1.1h-2.8v-4.5h2.8L149.6,9.1L149.6,9.1z M147.5,10.8
			V12h2.1v-1.2H147.5z M147.5,12.7V14h2.1v-1.3H147.5z M150.3,12.1h2.2v-1.2h-2.2V12.1z M150.3,14.1h2.2v-1.4h-2.2V14.1z M156.9,10
			v0.2c-0.3,4.4-1.3,7.1-3.3,9.2l-0.6-0.5c2-2.1,2.8-4.3,3.2-8.8V10H154V9.2h2.1l0.1-3.2h0.8l-0.1,3.2h2.5c0,3-0.1,6.1-0.4,9.1
			c-0.1,0.8-0.6,1.1-1.5,1.1c-0.4,0-0.9,0-1.5-0.1l-0.2-0.8c0.5,0.1,1.1,0.1,1.6,0.1s0.6-0.1,0.7-0.6c0.3-2.7,0.4-5.4,0.4-8.1V10
			H156.9z"/>
		<path class="st9" d="M166.4,8.3c-0.3-0.8-0.5-1.3-0.6-1.8l0.8-0.1c0.1,0.5,0.4,1.3,0.6,1.8h4.9V9h-4.7c0.3,0.9,0.7,1.7,1.2,2.6
			h4.5v0.7H169c0.5,0.9,1.1,1.8,1.7,2.7l-0.8,0.3c-0.7-1-1.3-2-1.9-3h-6.5v-0.7h6.2c-0.4-0.9-0.8-1.8-1.1-2.6h-4.8V8.3H166.4z
			 M170.6,18.6c-0.9,0.1-1.4,0.1-2.1,0.1c-1.4,0.1-2.8-0.1-4.2-0.5c-1.1-0.2-1.8-1.2-1.8-2.3c0-0.5,0.1-0.9,0.4-1.3l0.6,0.4
			c-0.1,0.3-0.2,0.7-0.2,1c0,1.4,1.5,2,5,2c0.7,0,1.5,0,2.3-0.1V18.6z"/>
		<path class="st9" d="M182.8,17.7c1-0.2,2-0.7,2.8-1.4c1-0.9,1.5-2.2,1.4-3.6c0-1.5-0.6-3-1.8-3.9c-0.8-0.5-1.7-0.9-2.6-0.9
			c-0.2,1.9-0.6,3.8-1.1,5.6c-0.4,1.1-0.9,2.2-1.6,3.2c-0.4,0.6-1,0.9-1.6,1c-1.4,0-2.5-1.8-2.5-4.1c0-3.4,2.7-6.2,6.1-6.3
			c0.1,0,0.1,0,0.2,0c3.4,0,5.8,2.2,5.8,5.4c0.1,1.5-0.5,2.9-1.5,4c-0.9,0.8-2,1.4-3.1,1.6L182.8,17.7z M178.2,9.5
			c-1.1,1.1-1.7,2.6-1.7,4.2c0,1.8,0.8,3.2,1.8,3.2c0.6,0,1.2-0.7,2-2.4c0.9-2.1,1.4-4.3,1.6-6.6C180.5,7.9,179.2,8.5,178.2,9.5
			L178.2,9.5z"/>
		<path class="st9" d="M195.4,9.2c0,1,0,2-0.1,2.7V12h5.7c0,2.1-0.1,4.2-0.5,6.3c-0.2,0.8-0.7,1.1-1.8,1.1c-0.7,0-1.5,0-2.2-0.1
			l-0.1-0.8c0.9,0.1,1.8,0.1,2.4,0.1s0.9-0.1,1-0.6c0.3-1.6,0.5-3.2,0.5-4.8v-0.4h-5c-0.2,2.9-2,5.4-4.6,6.7l-0.6-0.6
			c3.5-1.8,4.5-4.1,4.6-9.5h-5V8.5h6.2V5.8h0.8v2.6h6.4v0.7h-7.7L195.4,9.2L195.4,9.2z"/>
		<path class="st9" d="M209.3,8c0.3-0.7,0.6-1.4,0.8-2.2L211,6c-0.2,0.7-0.5,1.4-0.8,2h6.7v10.3c0,0.9-0.4,1.2-1.4,1.2
			c-0.6,0-1.4,0-2.2-0.1l-0.2-0.8c0.9,0.1,1.8,0.1,2.4,0.1c0.5,0,0.6-0.1,0.6-0.6V8.8h-10.4v10.9h-0.8V8H209.3z M213.7,15.8h-5.2v1
			h-0.8V11h6V15.8z M208.5,11.7v3.4h4.4v-3.4L208.5,11.7z"/>
		<path class="st9" d="M116.2,519.6h-6.1v-0.7h6.1v-1.5h0.8v1.5h6.2v0.7H117v1.3h5.1v5.5H117v1.4h6.5v0.7H117v2.6h-0.8v-2.6h-6.4
			v-0.7h6.4v-1.4h-5v-5.5h5V519.6z M112,521.6v1.7h4.2v-1.7H112z M112,524v1.8h4.2V524H112z M117,523.3h4.3v-1.7H117V523.3z
			 M117,525.7h4.3V524H117V525.7z"/>
		<path class="st9" d="M130.7,519.1h-6.3v-0.7h13.5v0.7h-6.4v2.3h5.5v8.5c0,0.8-0.4,1.1-1.5,1.1s-1.9,0-2.6-0.1l-0.1-0.8
			c1.1,0.1,1.9,0.1,2.7,0.1c0.6,0,0.7-0.2,0.7-0.7V522h-4.7v5.2h2.2v-3.7h0.8v4.4h-5.9v1h-0.8v-5.4h0.8v3.7h2.1V522h-4.6v9.1h-0.8
			v-9.8h5.4V519.1z"/>
		<path class="st9" d="M141,523.1c-0.4,1.6-1.1,3.1-1.9,4.5l-0.4-0.7c1.1-1.7,1.8-3.6,2.3-5.5h-2.1v-0.7h2.2v-3.2h0.8v3.2h1.7v0.7
			h-1.7v1.5c0.7,0.6,1.3,1.2,1.9,1.8l-0.5,0.7c-0.4-0.5-0.9-1.1-1.4-1.6v7.5H141V523.1z M151.9,531.1c-1.7-0.8-3.2-2.3-4-4
			c-0.6,1.9-2,3.4-3.9,4.1l-0.6-0.7c1.9-0.6,3.3-2,3.9-3.9h-3v-3.7h3.1v-1.6h-1.8v-0.5c-0.6,0.6-1.3,1.2-2.1,1.7l-0.5-0.6
			c1.8-1.1,3.2-2.7,4.1-4.6h0.9c1.1,1.8,2.7,3.3,4.5,4.3l-0.4,0.7c-0.7-0.5-1.4-1-2.1-1.6v0.5h-2v1.6h3.3v3.7h-3
			c0.9,1.7,2.3,3,4.1,3.8L151.9,531.1z M145,523.7v2.3h2.4v-2.3H145z M149.9,520.7c-0.9-0.8-1.6-1.7-2.3-2.7c-0.5,1-1.1,1.9-1.9,2.7
			H149.9z M148.1,525.9h2.5v-2.3h-2.5V525.9z"/>
		<path class="st9" d="M157.6,523.5h2.8v0.7h-2.8v0.1c0,0.6-0.1,1.1-0.2,1.7h0.1c1.1,0.9,2.1,1.9,3,3l-0.6,0.7c-0.8-1-1.7-2-2.7-2.9
			c-0.5,1.7-1.6,3.2-3,4.3l-0.6-0.6c2-1.5,3.2-3.8,3.1-6.3h-3.4v-0.7h3.4v-3.4h-1.3c-0.3,0.9-0.8,1.7-1.4,2.5l-0.6-0.5
			c1-1.4,1.6-3,1.9-4.7l0.8,0.2c-0.1,0.7-0.3,1.2-0.5,1.8h4.2v0.7h-2.4L157.6,523.5z M166.3,530.4h-0.8v-1h-3.7v1.2H161v-11.4h5.2
			L166.3,530.4z M161.9,528.7h3.7v-8.9h-3.7V528.7z"/>
		<path class="st9" d="M171,522.6h-3.1V522h3.1v-1h0.8v1h3.1v0.7h-3.1v0.9h2.7v4.1h-2.7v1h3.2v0.7h-3.3v1.8H171v-1.8h-3.3v-0.7h3.3
			v-1h-2.6v-4.1h2.6V522.6z M174.4,518.8v0.7H172c0.3,0.4,0.5,0.8,0.7,1.2L172,521c-0.2-0.5-0.5-1-0.8-1.5H170
			c-0.4,0.7-0.9,1.4-1.5,1.9l-0.6-0.5c1-0.9,1.8-2.1,2.1-3.4l0.8,0.1c-0.1,0.4-0.3,0.8-0.5,1.2H174.4z M169.2,524.2v1.1h1.8v-1.1
			H169.2z M169.2,525.9v1.1h1.8v-1.1H169.2z M171.8,525.3h1.9v-1.1h-1.9V525.3z M171.8,527h1.9v-1.1h-1.9V527z M181.2,518.8v0.7
			h-3.4c0.3,0.4,0.6,0.9,0.8,1.4l-0.7,0.3c-0.3-0.6-0.6-1.2-1-1.7h-1c-0.3,0.6-0.7,1.2-1.2,1.7l-0.6-0.5c0.9-0.9,1.5-2,1.8-3.2
			l0.8,0.1c-0.1,0.5-0.2,0.8-0.4,1.2H181.2z M176.4,529.5c0,0.6,0.1,0.7,2.2,0.7c1.6,0,1.9-0.1,2-0.4c0.1-0.5,0.2-1.1,0.1-1.7
			l0.8,0.3v0.2v0.2c-0.1,1.9-0.2,2-2.9,2s-2.9-0.1-2.9-1.3v-7.9h4.8v4.9c0,0.8-0.2,1-1,1c-0.5,0-1,0-1.4-0.1l-0.2-0.7
			c0.5,0.1,1,0.1,1.5,0.1c0.3,0,0.4-0.1,0.4-0.5v-4h-3.3L176.4,529.5z"/>
		<path class="st9" d="M195.2,531.2h-0.8v-1h-10.8v1h-0.8v-13h12.4L195.2,531.2z M183.7,529.5h10.8v-10.7h-10.8V529.5z M186.8,519.4
			h0.8v2.3h3v-2.4h0.8v2.4h2.3v0.7h-2.3v2.6h2.7v0.7h-2.6v3.3h-0.8v-3.3h-3.1c-0.1,1.4-0.9,2.7-2.2,3.4l-0.6-0.5
			c1.1-0.6,1.8-1.7,2-2.9h-2.6V525h2.7c0-0.3,0-0.8,0-1.1v-1.5h-2.4v-0.7h2.4L186.8,519.4z M187.6,522.4v1c0,0.8,0,1.2-0.1,1.5h3
			v-2.6L187.6,522.4z"/>
		<path class="st9" d="M201.7,533.4c-0.7-0.6-1.3-1.3-1.7-2.2c-0.9-1.7-1.4-3.7-1.5-5.6c0-2.9,1.1-5.7,3.1-7.8h0.8
			c-4,4.4-4,11.2,0,15.6H201.7z"/>
		<path class="st9" d="M206.1,517.4h0.8v2.7h2v6.7c0,0.6-0.2,0.8-0.8,0.8c-0.2,0-0.6,0-0.7,0l-0.2-0.8c0.2,0,0.4,0.1,0.6,0.1
			c0.2,0,0.3-0.1,0.3-0.3v-5.7h-1.2v10.3h-0.8v-10.3H205v6.9h-0.8v-7.7h1.9L206.1,517.4L206.1,517.4z M217.4,518.1v0.7h-8.2v-0.7
			H217.4z M217.1,531.2h-0.8v-0.7h-6.1v0.7h-0.8v-6.3h7.6v6.3H217.1z M216.3,523.5h-6.1V520h6.1V523.5z M210.3,527.2h2.6v-1.7h-2.6
			V527.2z M210.3,529.8h2.6V528h-2.6V529.8z M211,522.8h4.5v-2.1H211V522.8z M216.3,525.5h-2.7v1.7h2.7V525.5z M216.3,527.9h-2.7
			v1.8h2.7V527.9z"/>
		<path class="st9" d="M218.9,533.4c4-4.4,4-11.2,0-15.6h0.8c0.7,0.6,1.3,1.3,1.7,2.2c0.9,1.7,1.4,3.7,1.5,5.7
			c0,2.9-1.1,5.7-3.1,7.8h-0.9V533.4z"/>
		<path class="st9" d="M295.4,462.3c-0.1,2.6,0.5,5.1,1.9,7.3c1.1,1.8,2.7,3.2,4.6,4.2l-0.5,0.8c-3.3-1.7-5.6-4.9-6.3-8.5
			c-0.6,4.3-2.4,6.7-6.2,8.5l-0.6-0.7c4.5-1.8,6.4-5.2,6.3-11.5v-1h0.8L295.4,462.3z"/>
		<path class="st9" d="M304.9,466.8c-0.4,1.6-1.1,3.1-1.9,4.5l-0.4-0.7c1.1-1.7,1.8-3.6,2.3-5.5h-2.1v-0.7h2.2v-3.2h0.8v3.2h1.7v0.7
			h-1.7v1.5c0.7,0.6,1.3,1.1,1.9,1.8l-0.5,0.7c-0.4-0.6-0.9-1.1-1.4-1.6v7.4H305L304.9,466.8z M315.8,474.8c-1.7-0.8-3.2-2.3-4-4
			c-0.6,1.9-2,3.4-3.9,4.1l-0.5-0.6c1.9-0.6,3.3-2,3.9-3.9h-3v-3.7h3.1v-1.6h-1.8v-0.5c-0.6,0.6-1.3,1.2-2,1.7l-0.5-0.6
			c1.8-1.1,3.2-2.7,4.1-4.6h0.8c1.1,1.8,2.7,3.3,4.5,4.3l-0.5,0.7c-0.7-0.5-1.4-1-2.1-1.6v0.5h-2v1.6h3.3v3.7h-3
			c0.9,1.7,2.3,3,4,3.8L315.8,474.8z M308.9,467.4v2.3h2.4v-2.3H308.9z M313.8,464.4c-0.9-0.8-1.6-1.7-2.3-2.7
			c-0.5,1-1.1,1.9-1.9,2.7H313.8z M312,469.7h2.5v-2.3H312V469.7z"/>
		<path class="st9" d="M321.5,467.2h2.8v0.7h-2.8v0.1c0,0.6-0.1,1.1-0.2,1.7l0.1,0.1c1.1,0.9,2.1,1.9,3,3l-0.6,0.7
			c-0.8-1-1.7-2-2.7-2.9c-0.5,1.7-1.6,3.2-3,4.3l-0.5-0.6c2-1.5,3.2-3.8,3.1-6.3h-3.4v-0.7h3.4V464h-1.3c-0.3,0.9-0.8,1.7-1.4,2.5
			l-0.5-0.5c1-1.4,1.6-3,1.9-4.7l0.8,0.2c-0.1,0.7-0.3,1.2-0.5,1.8h4.3v0.7h-2.4L321.5,467.2z M330.2,474.1h-0.8v-1h-3.7v1.2H325
			v-11.5h5.2V474.1z M325.8,472.4h3.7v-8.9h-3.7V472.4z"/>
		<path class="st9" d="M334.9,466.4h-3.1v-0.6h3.1v-1h0.8v1h3.1v0.6h-3.1v0.9h2.7v4.1h-2.7v1h3.3v0.6h-3.3v1.8H335V473h-3.3v-0.6
			h3.3v-1h-2.6v-4.1h2.6L334.9,466.4z M338.3,462.5v0.7h-2.4c0.2,0.4,0.5,0.8,0.7,1.2l-0.7,0.3c-0.2-0.5-0.5-1-0.8-1.5H334
			c-0.4,0.7-0.9,1.4-1.5,1.9l-0.6-0.5c1-0.9,1.8-2.1,2.1-3.4l0.8,0.1c-0.1,0.4-0.3,0.8-0.5,1.2L338.3,462.5L338.3,462.5z
			 M333.1,467.9v1.1h1.8v-1.1H333.1z M333.1,469.6v1.1h1.8v-1.1H333.1z M335.7,469h1.9v-1.1h-1.9V469z M335.7,470.7h1.9v-1.1h-1.9
			V470.7z M345.1,462.5v0.7h-3.4c0.3,0.5,0.6,0.9,0.8,1.4l-0.7,0.3c-0.3-0.6-0.6-1.2-1-1.7h-1c-0.3,0.6-0.7,1.2-1.2,1.7l-0.6-0.5
			c0.9-0.9,1.5-2,1.8-3.2l0.8,0.1c-0.1,0.5-0.2,0.8-0.4,1.2H345.1z M340.3,473.2c0,0.6,0.1,0.7,2.2,0.7c1.6,0,1.9,0,2-0.4
			c0.1-0.5,0.2-1.1,0.1-1.7l0.8,0.3v0.2v0.2c-0.1,1.9-0.2,2-2.9,2s-2.9-0.1-2.9-1.3v-7.9h4.8v4.9c0,0.8-0.2,1-1,1
			c-0.5,0-1,0-1.4-0.1l-0.2-0.7c0.5,0.1,1,0.1,1.5,0.1c0.3,0,0.4-0.1,0.4-0.5v-4h-3.3L340.3,473.2z"/>
		<path class="st9" d="M359.1,474.8h-0.8v-1h-10.8v1h-0.8v-13h12.4L359.1,474.8L359.1,474.8z M347.6,473.2h10.8v-10.6h-10.8V473.2z
			 M350.8,463.1h0.8v2.4h3V463h0.8v2.4h2.3v0.7h-2.3v2.6h2.6v0.7h-2.6v3.3h-0.8v-3.3h-3.1c-0.1,1.4-0.9,2.7-2.2,3.5l-0.6-0.5
			c1.1-0.6,1.8-1.7,2-2.9H348v-0.7h2.7c0-0.3,0-0.8,0-1.1v-1.5h-2.4v-0.7h2.4L350.8,463.1z M351.5,466.1v1c0,0.8,0,1.2,0,1.5h3V466
			L351.5,466.1z"/>
		<path class="st9" d="M365.6,477.1c-0.7-0.6-1.3-1.4-1.7-2.2c-0.9-1.7-1.4-3.7-1.5-5.6c0-2.9,1.1-5.7,3.1-7.8h0.8
			c-4,4.4-4,11.2,0,15.6H365.6z"/>
		<path class="st9" d="M370,461.1h0.8v2.7h2v6.6c0,0.6-0.2,0.8-0.8,0.8c-0.2,0-0.5,0-0.7,0l-0.2-0.8c0.2,0,0.4,0,0.6,0
			s0.3-0.1,0.3-0.3v-5.7h-1.2v10.2H370v-10.3h-1.1v6.9h-0.8v-7.6h1.9V461.1z M381.3,461.8v0.7h-8.2v-0.7H381.3z M381,474.8h-0.8
			v-0.7h-6.1v0.7h-0.8v-6.4h7.6L381,474.8L381,474.8z M380.2,467.2h-6.1v-3.5h6.1V467.2z M374.2,470.9h2.6v-1.7h-2.6V470.9z
			 M374.2,473.4h2.6v-1.8h-2.6V473.4z M375,466.5h4.5v-2.1H375V466.5z M380.3,469.2h-2.7v1.7h2.7V469.2z M380.3,471.6h-2.7v1.8h2.7
			V471.6z"/>
		<path class="st9" d="M382.9,477.1c4-4.4,4-11.2,0-15.6h0.8c0.7,0.6,1.3,1.3,1.7,2.2c0.9,1.7,1.4,3.7,1.5,5.6
			c0,2.9-1.1,5.7-3.1,7.8H382.9z"/>
		<path class="st9" d="M25.7,273.8H25v-1H14.2v1h-0.8v-13h12.3V273.8z M14.2,272.1H25v-10.7H14.2V272.1z M17.3,262h0.8v2.4h3V262
			h0.8v2.4h2.3v0.7h-2.3v2.6h2.6v0.7h-2.6v3.3H21v-3.3h-3c-0.1,1.4-0.9,2.7-2.2,3.5l-0.6-0.5c1.1-0.6,1.8-1.7,2-2.9h-2.6v-0.7h2.7
			c0-0.3,0-0.8,0-1.1v-1.5H15v-0.7h2.4L17.3,262z M18.1,265v1c0,0.8,0,1.2,0,1.5h3V265H18.1z"/>
		<path class="st9" d="M16,250.8h-3.2v-0.6H16v-1h0.8v1h3.1v0.6h-3.1v0.9h2.7v4.1h-2.7v1H20v0.7h-3.3v1.9H16v-1.9h-3.3v-0.7H16v-1
			h-2.6v-4.1H16V250.8z M19.4,247v0.7h-2.5c0.2,0.4,0.5,0.8,0.7,1.2l-0.7,0.3c-0.2-0.5-0.5-1-0.8-1.5H15c-0.4,0.7-0.9,1.4-1.5,1.9
			l-0.6-0.5c1-0.9,1.8-2.1,2.2-3.4l0.8,0.1c-0.2,0.5-0.3,0.8-0.5,1.2H19.4z M14.2,252.4v1.1H16v-1.1H14.2z M14.2,254.1v1.1H16v-1.1
			H14.2z M16.8,253.5h1.9v-1.1h-2L16.8,253.5z M16.8,255.2h1.9v-1.1h-2L16.8,255.2z M26.2,247v0.7h-3.4c0.3,0.4,0.6,0.9,0.8,1.4
			l-0.7,0.3c-0.3-0.6-0.6-1.2-1-1.7h-1c-0.3,0.6-0.7,1.2-1.2,1.7l-0.6-0.5c0.9-0.9,1.5-2,1.8-3.2l0.8,0.1c-0.1,0.4-0.3,0.8-0.4,1.2
			H26.2z M21.4,257.7c0,0.6,0.1,0.7,2.2,0.7c1.6,0,1.9-0.1,2-0.4c0.1-0.5,0.2-1.1,0.1-1.7l0.8,0.3v0.2v0.2c-0.1,1.9-0.2,2-2.9,2
			s-2.9-0.1-2.9-1.3v-7.9h4.8v4.9c0,0.8-0.2,1-1,1c-0.5,0-1,0-1.4-0.1l-0.2-0.7c0.5,0.1,1,0.1,1.5,0.1c0.3,0,0.4-0.1,0.4-0.5v-4.1
			h-3.4V257.7z"/>
		<path class="st9" d="M17.1,237.2h2.8v0.7h-2.8v0.1c0,0.6-0.1,1.1-0.2,1.7l0.1,0.1c1.1,0.9,2.1,1.9,3,3l-0.6,0.7
			c-0.8-1-1.7-2-2.7-2.9c-0.5,1.7-1.6,3.2-3,4.3l-0.6-0.6c2-1.5,3.2-3.9,3.1-6.4h-3.4v-0.7h3.4v-3.3H15c-0.3,0.9-0.8,1.8-1.4,2.5
			l-0.6-0.5c1-1.4,1.6-3,1.9-4.7l0.8,0.2c-0.1,0.7-0.3,1.2-0.5,1.8h4.3v0.7H17v3.3L17.1,237.2L17.1,237.2z M25.8,244.1H25v-1h-3.7
			v1.2h-0.8v-11.4h5.2L25.8,244.1z M21.3,242.4H25v-8.8h-3.7V242.4z"/>
		<path class="st9" d="M15,222.3c-0.4,1.6-1.1,3.1-2,4.5l-0.4-0.7c1.1-1.7,1.8-3.6,2.3-5.5h-2.1v-0.7H15v-3.2h0.8v3.2h1.7v0.7h-1.7
			v1.4c0.7,0.6,1.3,1.2,1.9,1.8l-0.5,0.7c-0.4-0.6-0.9-1.1-1.4-1.6v7.5H15V222.3z M25.9,230.3c-1.7-0.8-3.2-2.3-4-4
			c-0.6,1.9-2,3.4-3.9,4.1l-0.5-0.6c1.8-0.6,3.3-2.1,3.8-3.9h-3v-3.7h3.1v-1.6h-1.8v-0.5c-0.6,0.6-1.3,1.2-2,1.7l-0.5-0.6
			c1.8-1.1,3.2-2.7,4.1-4.6H22c1.1,1.8,2.7,3.3,4.5,4.3l-0.5,0.7c-0.7-0.4-1.4-1-2.1-1.5v0.6h-2v1.6h3.3v3.7h-3
			c0.9,1.7,2.3,3,4.1,3.8L25.9,230.3z M18.9,222.8v2.3h2.4v-2.3H18.9z M23.9,219.8c-0.9-0.8-1.6-1.7-2.3-2.7c-0.5,1-1.1,1.9-1.9,2.7
			H23.9z M22.1,225.1h2.5v-2.3H22L22.1,225.1z"/>
		<path class="st9" d="M19.9,203.3c-0.2,2.6,0.5,5.1,1.9,7.3c1.1,1.8,2.7,3.2,4.6,4.2l-0.5,0.8c-3.3-1.7-5.6-4.9-6.3-8.5
			c-0.6,4.3-2.4,6.7-6.2,8.5l-0.6-0.7c4.6-1.8,6.4-5.2,6.3-11.5v-1h0.8C19.9,202.4,19.9,203.3,19.9,203.3z"/>
		<path class="st9" d="M19.1,181.4h-6.4v-0.7h13.5v0.7h-6.4v2.3h5.5v8.5c0,0.8-0.4,1.1-1.5,1.1s-1.9,0-2.6-0.1l-0.1-0.8
			c1.1,0.1,1.9,0.1,2.7,0.1c0.6,0,0.7-0.1,0.7-0.7v-7.5h-4.7v5.2H22v-3.7h0.8v4.4H17v1h-0.8v-5.4H17v3.7h2.1v-5.2h-4.6v9.1h-0.8
			v-9.8h5.4V181.4z"/>
		<path class="st9" d="M19.1,167.4h-6v-0.7h6v-1.5h0.8v1.5h6.2v0.7h-6.2v1.3H25v5.5h-5.1v1.4h6.5v0.7h-6.5v2.6h-0.8v-2.6h-6.4v-0.7
			h6.4v-1.4h-5v-5.5h5V167.4z M14.9,169.4v1.6h4.2v-1.6H14.9z M14.9,171.8v1.8h4.2v-1.8H14.9z M19.9,171.1h4.3v-1.6h-4.3L19.9,171.1
			z M19.9,173.5h4.3v-1.8h-4.3L19.9,173.5z"/>
		<path class="st9" d="M12.7,281.1c0.8-0.9,1.8-1.6,2.9-2.1c1.2-0.6,2.6-1,4-1c2.6,0.1,5.1,1.2,6.9,3.1v0.8c-2.4-2.1-4.5-3-6.9-3
			s-4.5,0.9-6.9,3L12.7,281.1z"/>
		<path class="st9" d="M12.7,312.7c2.4,2.1,4.5,3,6.9,3s4.5-0.9,6.9-3v0.8c-0.8,0.9-1.8,1.6-2.9,2.1c-1.2,0.6-2.6,1-4,1
			c-2.6-0.1-5.1-1.2-6.9-3.1L12.7,312.7z"/>
		<path class="st9" d="M15.6,311.4h-0.8v-7.1c-0.5,0.6-1.1,1.2-1.6,1.8l-0.5-0.7c1.4-1.3,2.5-2.8,3.4-4.5l0.7,0.4
			c-0.3,0.7-0.7,1.4-1.1,2L15.6,311.4z M12.8,301.1c1.2-0.9,2.1-2.1,2.8-3.4l0.7,0.4c-0.8,1.4-1.8,2.6-3,3.6L12.8,301.1z
			 M16.5,307.3c1.4-0.7,2.6-1.8,3.4-3.2c-1.1,0.1-1.5,0.1-2.8,0.1l-0.3-0.7h1.3h1.1l0.1-0.1c0.2-0.2,0.4-0.4,0.6-0.6l0.2-0.2
			c-0.9-1-1.8-2-2.9-2.9l0.5-0.5c0.4,0.3,0.7,0.6,1.1,0.9c0.8-0.8,1.4-1.8,2-2.7l0.7,0.4c-0.7,1-1.4,2-2.2,2.9
			c0.4,0.4,0.9,0.9,1.3,1.3c1-1,1.9-2.1,2.8-3.3l0.7,0.5c-1.2,1.5-2.5,2.9-3.9,4.2l1.3-0.1c0.6,0,1.5-0.1,2.9-0.2
			c-0.4-0.5-0.8-1.1-1.3-1.5l0.6-0.4c0.9,0.9,1.7,1.9,2.4,3l-0.6,0.5c-0.3-0.4-0.3-0.5-0.6-0.9c-2.3,0.2-2.4,0.2-4.2,0.3
			c-0.2,0.4-0.5,0.9-0.8,1.2h4.4l0.5,0.5c-0.8,1.1-1.8,2-2.8,2.9c1.3,0.9,2.9,1.5,4.5,1.9l-0.5,0.8c-1.7-0.4-3.2-1.2-4.6-2.2
			c-1.5,1-3.1,1.7-4.8,2.2l-0.5-0.7c1.6-0.4,3.2-1.1,4.6-2c-0.7-0.6-1.4-1.3-1.9-2.1c-0.6,0.5-1.2,0.9-1.8,1.3L16.5,307.3z
			 M19.3,306.1c0.6,0.8,1.3,1.5,2.1,2.1c0.9-0.6,1.6-1.3,2.3-2.2L19.3,306.1L19.3,306.1z"/>
		<path class="st9" d="M17.2,285.3c-0.3-0.7-0.7-1.3-1.1-1.8l0.8-0.3c0.5,0.7,0.9,1.4,1.2,2.2h3c0.4-0.7,0.8-1.4,1.1-2.2l0.9,0.3
			c-0.3,0.7-0.7,1.3-1.1,1.9h4.6v0.7H12.7v-0.7h4.5V285.3z M19.1,295.7c0,0.8-0.3,1-1.1,1c-0.4,0-0.9,0-1.3-0.1l-0.2-0.8
			c0.5,0.1,1,0.1,1.4,0.1c0.3,0,0.4-0.1,0.4-0.5v-2.6h-3.5v4H14v-9.4h5.1V295.7z M14.8,289.8h3.5v-1.6h-3.5
			C14.8,288.2,14.8,289.8,14.8,289.8z M14.8,292.3h3.5v-1.7h-3.5C14.8,290.6,14.8,292.3,14.8,292.3z M22,287.8v6.3h-0.8v-6.3H22z
			 M25.2,287.2v8.6c0,0.8-0.3,1.1-1.2,1.1c-0.7,0-1.3,0-2-0.1l-0.2-0.8c0.9,0.1,1.6,0.1,2.1,0.1s0.5-0.1,0.5-0.4v-8.6L25.2,287.2z"
			/>
		<line class="st10" x1="39.8" y1="49.6" x2="0" y2="49.6"/>
		<line class="st10" x1="48.9" y1="521.2" x2="48.9" y2="439.5"/>
		<line class="st10" x1="137.3" y1="485.1" x2="137.3" y2="417.5"/>
		<line class="st10" x1="277" y1="521.2" x2="277" y2="439.5"/>
		<line class="st10" x1="39.8" y1="439.5" x2="0" y2="439.5"/>
		<line class="st0" x1="51.1" y1="503.7" x2="274.8" y2="503.7"/>
		<path class="st1" d="M63.4,512.4c0.3-0.4,0.1-1-0.3-1.2l-11.7-7.4l11.7-7.4c0.4-0.3,0.5-0.8,0.3-1.3c-0.3-0.4-0.8-0.5-1.3-0.3l0,0
			L49.2,503c-0.3,0.2-0.4,0.5-0.4,0.8s0.2,0.6,0.4,0.8l12.9,8.2c0.1,0.1,0.3,0.1,0.5,0.1C63,512.8,63.2,512.6,63.4,512.4"/>
		<path class="st1" d="M262.5,512.4c-0.3-0.4-0.1-1,0.3-1.2l11.7-7.4l-11.7-7.4c-0.4-0.3-0.5-0.8-0.3-1.3c0.3-0.4,0.8-0.5,1.3-0.3
			l0,0l12.9,8.2c0.3,0.2,0.4,0.5,0.4,0.8s-0.2,0.6-0.4,0.8l-12.9,8.2c-0.1,0.1-0.3,0.1-0.5,0.1C263,512.8,262.7,512.6,262.5,512.4"
			/>
		<line class="st0" x1="142.7" y1="468.8" x2="274.8" y2="468.8"/>
		<path class="st1" d="M155,477.5c0.3-0.4,0.1-1-0.3-1.2l0,0l-11.6-7.4l11.7-7.4c0.4-0.3,0.6-0.8,0.3-1.2l0,0
			c-0.3-0.4-0.8-0.5-1.2-0.3l-12.9,8.2c-0.3,0.2-0.4,0.5-0.4,0.8s0.2,0.6,0.4,0.8l12.9,8.2c0.1,0.1,0.3,0.1,0.5,0.1
			C154.6,477.9,154.9,477.8,155,477.5"/>
		<path class="st1" d="M262.5,477.5c-0.3-0.4-0.1-1,0.3-1.2l11.7-7.4l-11.7-7.4c-0.4-0.3-0.5-0.8-0.3-1.2l0,0
			c0.3-0.4,0.8-0.5,1.2-0.3l12.9,8.2c0.3,0.2,0.4,0.5,0.4,0.8s-0.2,0.6-0.4,0.8l-12.9,8.2c-0.1,0.1-0.3,0.1-0.5,0.1
			C262.9,478,262.6,477.8,262.5,477.5"/>
		<g>
			<g>
				<g>
					<defs>
						<rect id="SVGID_00000135664328238866058140000007812650982681214367_" x="279.3" y="26.5" width="141.6" height="411.2"/>
					</defs>
					<clipPath id="SVGID_00000153664693694051293670000013108193289837138317_">
						<use xlink:href="#SVGID_00000135664328238866058140000007812650982681214367_"  style="overflow:visible;"/>
					</clipPath>
					<g style="clip-path:url(#SVGID_00000153664693694051293670000013108193289837138317_);">
						<path class="st12" d="M294.8,57.2c0.1,0,0.3,0,0.4-0.1"/>
						<path class="st12" d="M294.1,59.2c0.4,0.3,0.9,0.2,1.3-0.1"/>
						<line class="st12" x1="293.8" y1="59.3" x2="293.8" y2="59.3"/>
						<path class="st12" d="M293.9,59.3c0.5,0.4,1.3,0.4,1.7-0.1c0.1-0.1,0.1-0.1,0.1-0.2"/>
						<path class="st12" d="M293.7,59.7c0.5,0.9,2.1,0.5,2.1-0.5"/>
						<line class="st13" x1="296.8" y1="56.4" x2="296.8" y2="56.4"/>
						<line class="st13" x1="296.9" y1="57.1" x2="296.9" y2="57.1"/>
						<path class="st12" d="M294.2,59.2c0.6,0.1,1.2,0,1.7-0.3"/>
						<line class="st12" x1="295.8" y1="58.9" x2="295.8" y2="59.2"/>
						<path class="st12" d="M610.1,41.8c-0.7-0.1-1.4,0.2-1.8,0.8"/>
						<path class="st12" d="M608.3,42.7l-1.4,2.4c0.5,0.2,1,0.6,1.5,0.9"/>
						<path class="st12" d="M626.4,53.4c0.4-0.6,0.3-1.4-0.1-2"/>
						<path class="st12" d="M626.3,51.4c-4.1-5.1-9.8-8.5-16.3-9.6"/>
						<path class="st12" d="M608.4,45.9c0.5,0.3,16.7,9.8,16.6,9.8l1.4-2.4"/>
						<path class="st12" d="M592.1,87.4c-1.2,2,1.9,3.8,3,1.8"/>
						<path class="st12" d="M597.8,84.6c-0.9,1.5-1.8,3.1-2.7,4.5"/>
						<path class="st12" d="M592.1,87.4c0.9-1.5,1.8-3.1,2.7-4.5"/>
						<line class="st12" x1="616.6" y1="52.8" x2="597.8" y2="84.6"/>
						<path class="st12" d="M614.4,49.5c-0.2,0.4-0.7,1.2-0.9,1.5l-18.8,31.8"/>
						<path class="st12" d="M616.6,52.8c0.2-0.4,0.7-1.2,0.9-1.5"/>
						<line class="st12" x1="295.1" y1="55.8" x2="294.7" y2="55.9"/>
						<line class="st12" x1="295.1" y1="56.2" x2="294.8" y2="56.2"/>
						<path class="st12" d="M317.4,44.8c5.8,6.4,18.9-6,12.8-12.1"/>
						<path class="st12" d="M299.1,50.8L299.1,50.8L299.1,50.8L299.1,50.8L299.1,50.8c-0.2-0.1-0.4-0.2-0.4-0.3h-0.1
							c-0.2-0.3-0.2-0.7-0.2-1l0,0v-0.1l0,0l0,0l0,0l0,0l0,0"/>
						<path class="st12" d="M285.5,46.9c-0.6,0.5-0.7,1.3-0.4,2"/>
						<path class="st12" d="M285,48.8l1,2.6c0.5-0.3,1.1-0.4,1.6-0.7"/>
						<path class="st12" d="M304.6,41c-0.3-0.7-0.9-1.1-1.6-1.1"/>
						<path class="st12" d="M302.9,39.9c-6.5,0.1-12.7,2.6-17.5,7"/>
						<path class="st12" d="M287.7,50.8c0.8-0.3,17.7-7.2,17.9-7.2l-1-2.6"/>
						<path class="st12" d="M310.6,88.9c0.8,2.1,4.2,0.8,3.3-1.3"/>
						<path class="st12" d="M317.4,44.8c-0.6-0.5-1.1-1.1-1.6-1.8c-0.4-0.6-0.7-1.3-0.9-2c-0.4-2.6,0.5-5.3,2.3-7.3
							c1.2-1.5,2.8-2.6,4.6-3.2c1.3-0.5,2.7-0.7,4.1-0.5c0.7,0.1,1.4,0.3,2,0.7c0.8,0.6,1.6,1.3,2.2,2"/>
						<line class="st12" x1="315.7" y1="42.8" x2="299.1" y2="50.8"/>
						<line class="st12" x1="315.1" y1="41.2" x2="298.4" y2="49.2"/>
						<path class="st12" d="M311.9,82.7c0.6,1.6,1.4,3.3,2,4.9"/>
						<path class="st12" d="M310.7,88.9c-0.7-1.6-1.3-3.3-2-4.9"/>
						<line class="st12" x1="298.2" y1="48.5" x2="298.4" y2="49.2"/>
						<line class="st12" x1="299.1" y1="50.8" x2="311.9" y2="82.7"/>
						<line class="st12" x1="295.3" y1="50.9" x2="295.4" y2="51"/>
						<line class="st12" x1="297.8" y1="56.9" x2="308.7" y2="84"/>
						<line class="st12" x1="298.2" y1="48.5" x2="297.8" y2="47.6"/>
						<line class="st12" x1="289.5" y1="41.8" x2="289.5" y2="41.8"/>
						<path class="st12" d="M291.5,41.7L291.5,41.7"/>
						<path class="st12" d="M290.5,41.7L290.5,41.7"/>
						<path class="st12" d="M292,41.6c0.3-0.2,0.5-0.3,0.8-0.4c0.3-0.1,0.6-0.1,0.9-0.2"/>
						<path class="st12" d="M293.8,41.1c0.4,0,0.9,0,1.3,0.2"/>
						<path class="st12" d="M291.9,41.6h-0.3l0,0h-0.4l0,0c-0.3,0-0.5,0-0.8,0c-0.2,0-0.4,0-0.6,0l0,0h-0.4l0,0l0,0l-0.1,0.1v0.1
							l0,0l0.1,2"/>
						<path class="st12" d="M289.6,41.8c0.5,0,1.5-0.1,2-0.2"/>
						<polyline class="st12" points="291.9,41.6 292,41.6 292,41.6 						"/>
						<line class="st12" x1="293.7" y1="41.1" x2="293.8" y2="41.1"/>
						<line class="st12" x1="302.2" y1="325.9" x2="301.3" y2="325.9"/>
						<line class="st12" x1="302.2" y1="343.4" x2="301.3" y2="343.4"/>
						<polyline class="st12" points="305.7,317.1 302.2,317.1 302.2,437.7 						"/>
						<line class="st12" x1="301.3" y1="325.9" x2="301.3" y2="343.4"/>
						<path class="st12" d="M293.2,48.8c0,0,2-0.1,2-0.2"/>
						<path class="st12" d="M293.4,51.2c0,0,1.9-0.1,1.9-0.2"/>
						<line class="st12" x1="293.4" y1="51.1" x2="293.2" y2="48.8"/>
						<line class="st12" x1="295.3" y1="51" x2="295.2" y2="48.6"/>
						<line class="st12" x1="298.7" y1="47.3" x2="298.7" y2="46.3"/>
						<path class="st12" d="M296,47.7c-0.1,0.1-0.4,0.2-0.5,0.3"/>
						<path class="st12" d="M298.7,47.3L298.7,47.3L298.7,47.3L298.7,47.3l-0.1,0.2h-0.1l0,0h-0.4l0,0c-0.2,0-0.5,0-0.8,0
							c-0.2,0-0.4,0-0.7,0l0,0h-0.4l0,0H296"/>
						<path class="st12" d="M295.9,47.9L295.9,47.9l-0.2,0.3h-0.1"/>
						<polyline class="st12" points="295.9,47.8 295.9,47.8 295.9,47.9 						"/>
						<path class="st12" d="M295.6,48.2L295.6,48.2L295.6,48.2L295.6,48.2L295.6,48.2c-0.2,0.1-0.2,0.2-0.3,0.3"/>
						<path class="st12" d="M293.2,48.8L293.2,48.8L293.2,48.8L293.2,48.8"/>
						<path class="st12" d="M295.6,51.2l-0.3-0.1"/>
						<path class="st12" d="M293.8,55.2c0.9,0.3,1.9,0,2.5-0.7"/>
						<line class="st13" x1="293" y1="51.6" x2="293" y2="51.6"/>
						<path class="st12" d="M293.5,51.2c-0.2,0.1-0.3,0.2-0.5,0.3"/>
						<line class="st12" x1="603.7" y1="343.4" x2="604.6" y2="343.4"/>
						<line class="st12" x1="603.7" y1="325.9" x2="604.6" y2="325.9"/>
						<line class="st12" x1="600.2" y1="317.1" x2="603.7" y2="317.1"/>
						<line class="st12" x1="594.9" y1="437.7" x2="594.9" y2="429.2"/>
						<line class="st12" x1="603.7" y1="317.1" x2="603.7" y2="437.7"/>
						<line class="st12" x1="604.6" y1="343.4" x2="604.6" y2="325.9"/>
						<line class="st12" x1="296.3" y1="55.1" x2="296.3" y2="55.1"/>
						<line class="st12" x1="295.1" y1="55.8" x2="295.1" y2="55.8"/>
						<line class="st12" x1="295.2" y1="57.2" x2="295.2" y2="57.2"/>
						<line class="st12" x1="295.1" y1="56.5" x2="295.1" y2="56.5"/>
						<path class="st12" d="M297,57c0,0,0.9-0.2,1-0.2v-0.1l0,0c0-0.2,0-0.4,0-0.6c0-0.3,0-0.6-0.1-0.9c0-0.5-0.1-1-0.3-1.5"/>
						<path class="st12" d="M295.9,51c0.8,0.4,1.4,1.1,1.7,1.9c0.1,0.5,0.1,1,0.1,1.5"/>
						<path class="st12" d="M297.6,56.9c0,0.9-0.4,1.7-1,2.3"/>
						<path class="st12" d="M296.2,54L296.2,54"/>
						<path class="st12" d="M295.3,58.3L295.3,58.3"/>
						<path class="st12" d="M295.4,58.7c0,0.1,0.1,0.1,0.2,0.1"/>
						<line class="st12" x1="295.3" y1="58.3" x2="295.4" y2="58.7"/>
						<path class="st12" d="M295,56.2c0.1,0.4,0.1,0.8,0.2,1.2c0,0.3,0,0.6,0.1,0.9"/>
						<path class="st12" d="M295.6,51.1L295.6,51.1L295.6,51.1l0.3-0.1"/>
						<path class="st12" d="M296.3,59.1C296.3,59.2,296.3,59.2,296.3,59.1"/>
						<path class="st12" d="M296.4,58.9c-0.1,0-0.2,0-0.4,0l0,0h-0.4"/>
						<polyline class="st12" points="296.6,59.2 296.6,59.2 296.6,59.3 296.5,59.3 296.4,59.2 296.4,59.2 296.3,59.2 						"/>
						<line class="st12" x1="296.3" y1="59.1" x2="296.3" y2="58.9"/>
						<path class="st12" d="M296.2,54.1c0,0.1,0.1,0.2,0,0.3c0,0.1,0,0.3,0,0.4c0,0.1,0,0.2,0,0.3s0,0.2-0.1,0.3l0,0l-0.1,0.1l0,0
							l-0.1,0.1"/>
						<path class="st12" d="M296.5,53.2c-0.1,0.1,0,0.2,0,0.3c-0.1,0.2-0.1,0.3-0.2,0.5"/>
						<path class="st12" d="M295.1,55.7c0,0.1,0,0.2,0,0.3l0,0v1.3"/>
						<line class="st12" x1="295.1" y1="55.5" x2="295.1" y2="56.5"/>
						<path class="st12" d="M295,55.3c0,0.1,0.1,0.2,0.1,0.3"/>
						<line class="st12" x1="294.9" y1="58.8" x2="294.9" y2="58.8"/>
						<path class="st12" d="M291.5,55v-0.3c0.2,0.7,0.4,1.5,0.4,2.3l-0.1-0.3"/>
						<path class="st12" d="M292.1,57.8L292.1,57.8L292.1,57.8L292.1,57.8c-0.2-0.3-0.2-0.7-0.3-1"/>
						<path class="st12" d="M291.4,55c0-0.3-0.1-0.7-0.1-1l0,0v-0.1h0.4"/>
						<line class="st12" x1="292.1" y1="57.8" x2="293" y2="57.7"/>
						<path class="st12" d="M293.5,59.7c-0.3-0.1-0.5-0.3-0.7-0.4s-0.3-0.3-0.4-0.4c-0.5-0.5-0.7-1.2-0.7-1.9"/>
						<path class="st12" d="M291.8,54.6c0-0.5,0-1,0.1-1.5c0.1-0.4,0.2-0.7,0.4-1c0.1-0.2,0.4-0.4,0.5-0.6"/>
						<path class="st12" d="M293.6,54.5c0,0,0-0.1-0.1-0.1"/>
						<polyline class="st12" points="292.8,51.5 292.9,51.5 292.9,51.5 293,51.5 293,51.5 293,51.5 						"/>
						<path class="st12" d="M293.7,55.1L293.7,55.1"/>
						<path class="st12" d="M294.8,56.1L294.8,56.1"/>
						<path class="st12" d="M294.8,56.7c0.1,0,0.1-0.1,0.1-0.2"/>
						<line class="st12" x1="294.8" y1="56.1" x2="294.9" y2="56.5"/>
						<path class="st12" d="M293.8,55c0,0.2,0.1,0.4,0,0.6s0.1,0.2,0,0.3"/>
						<path class="st12" d="M294.7,59c0.1,0,0.1-0.1,0.1-0.2"/>
						<path class="st12" d="M294.8,56.7v0.2l0,0c0,0.6,0,1.3,0.1,1.9"/>
						<path class="st12" d="M294.7,59c-0.2,0-0.4,0.2-0.7,0.2l-0.1,0.1l0,0l0,0v0.1l0,0v0.1l0,0l0,0l-0.1,0.1h-0.2"/>
						<path class="st12" d="M294.6,55.3c0,0.1,0,0.1,0,0.2l0,0v0.1l0,0v0.2l0,0v0.1l0,0V56"/>
						<path class="st12" d="M293.8,55.7c0.1,0.1,0.1,0.2,0.3,0.2c0.1,0.1,0.1,0.1,0.2,0.1"/>
						<line class="st12" x1="293.8" y1="55" x2="293.7" y2="54.5"/>
						<path class="st12" d="M293.6,54.3c-0.2-0.1-0.3-0.2-0.4-0.4"/>
						<line class="st12" x1="468.8" y1="292.2" x2="468.8" y2="308.3"/>
						<line class="st12" x1="437.1" y1="292.2" x2="437.1" y2="308.3"/>
						<path class="st12" d="M291.4,62h-0.1"/>
						<line class="st12" x1="291.4" y1="62.1" x2="291.4" y2="62.1"/>
						<path class="st12" d="M291.6,62.2L291.6,62.2"/>
						<path class="st12" d="M291.6,62.3C291.6,62.2,291.6,62.2,291.6,62.3"/>
						<path class="st12" d="M291.6,62.3L291.6,62.3"/>
						<path class="st12" d="M291.1,62.3L291.1,62.3"/>
						<path class="st12" d="M291.2,62.2L291.2,62.2"/>
						<path class="st12" d="M291.3,62.1L291.3,62.1"/>
						<path class="st12" d="M291.6,62.3c0-0.3-0.5-0.3-0.5,0"/>
						<polyline class="st12" points="291.3,62.1 291.3,62.1 291.3,62.2 291.3,62.2 291.2,62.2 291.2,62.2 						"/>
						<polyline class="st12" points="291.6,62.1 291.5,62.1 291.5,62.2 291.4,62.1 291.4,62.1 						"/>
						<line class="st12" x1="291.5" y1="62.2" x2="291.6" y2="62.2"/>
						<polyline class="st12" points="291.5,62.4 291.5,62.3 291.5,62.2 						"/>
						<line class="st12" x1="291.5" y1="62.2" x2="291.5" y2="62.2"/>
						<polyline class="st12" points="291.2,62.3 291.2,62.3 291.3,62.3 291.3,62.3 291.4,62.3 291.4,62.3 291.4,62.4 						"/>
						<polyline class="st12" points="291.3,62.2 291.3,62.2 291.2,62.2 						"/>
						<line class="st12" x1="291.5" y1="62.2" x2="291.4" y2="62.1"/>
						<line class="st12" x1="291.6" y1="62.1" x2="291.5" y2="62.2"/>
						<path class="st12" d="M291.5,62.4c0,0,0-0.1,0-0.2"/>
						<path class="st12" d="M287.7,62.3L287.7,62.3"/>
						<path class="st12" d="M287.6,62.3L287.6,62.3"/>
						<path class="st12" d="M287.2,62.3L287.2,62.3"/>
						<path class="st12" d="M287.2,62.2L287.2,62.2"/>
						<path class="st12" d="M287.2,62.2L287.2,62.2"/>
						<path class="st12" d="M287.4,62.1L287.4,62.1"/>
						<path class="st12" d="M287.5,62.1h-0.1"/>
						<line class="st12" x1="287.5" y1="62.1" x2="287.5" y2="62.1"/>
						<path class="st12" d="M287.6,62.2L287.6,62.2"/>
						<path class="st12" d="M287.7,62.3c0-0.3-0.6-0.3-0.6,0"/>
						<polyline class="st12" points="287.7,62.2 287.5,62.2 287.5,62.1 287.5,62.1 						"/>
						<polyline class="st12" points="287.5,62.4 287.5,62.3 287.7,62.3 						"/>
						<polyline class="st12" points="287.3,62.3 287.3,62.3 287.3,62.3 287.4,62.3 287.4,62.4 						"/>
						<polyline class="st12" points="287.4,62.1 287.4,62.2 287.3,62.2 287.3,62.2 287.2,62.2 						"/>
						<polyline class="st12" points="287.5,62.2 287.5,62.2 287.5,62.1 						"/>
						<line class="st12" x1="287.7" y1="62.2" x2="287.5" y2="62.2"/>
						<line class="st12" x1="287.5" y1="62.4" x2="287.5" y2="62.3"/>
						<polyline class="st12" points="287.4,62.2 287.4,62.2 287.2,62.2 						"/>
						<line class="st12" x1="398.1" y1="292.2" x2="398.1" y2="308.3"/>
						<line class="st12" x1="507.8" y1="292.2" x2="507.8" y2="308.3"/>
						<line class="st12" x1="497.3" y1="292.2" x2="497.3" y2="308.3"/>
						<line class="st12" x1="408.6" y1="292.2" x2="408.6" y2="308.3"/>
						<path class="st12" d="M289,59.2c0,0.9,1.6,0.9,1.6,0"/>
						<path class="st12" d="M289,59c-0.9,1.6,2.5,1.6,1.6,0"/>
						<path class="st12" d="M290.1,59.3c-0.2-0.2-0.5-0.2-0.7,0l0,0"/>
						<path class="st12" d="M290.2,59c0-0.5-0.9-0.5-0.9,0S290.2,59.6,290.2,59"/>
						<path class="st12" d="M289,59.2c0-0.2,0-0.6,0.2-0.7v-0.1c0.3-0.2,0.7-0.2,1,0c0.1,0.1,0.2,0.3,0.3,0.4v0.3"/>
						<line class="st13" x1="292.3" y1="56.3" x2="292.3" y2="56.3"/>
						<line class="st12" x1="297.4" y1="55.7" x2="297.4" y2="55.7"/>
						<line class="st12" x1="296.9" y1="54.3" x2="296.9" y2="54.3"/>
						<line class="st12" x1="296.9" y1="54.4" x2="296.9" y2="54.4"/>
						<line class="st12" x1="589.8" y1="93.4" x2="589.8" y2="93.4"/>
						<path class="st12" d="M588.8,91L588.8,91"/>
						<line class="st12" x1="316" y1="93.4" x2="316" y2="93.4"/>
						<path class="st12" d="M488.6,69.8c26.5-0.1,52.9,3.4,78.5,10.6c4.9,1.4,9.9,2.9,14.7,4.6c3.1,1.3,5.7,3.6,7.4,6.5
							c0.3,0.4,0.5,0.9,0.6,1.3c0.1,0.6,0.2,1.3,0.2,1.9c0.1,2.6,0.1,5.3-0.1,7.9c-1,11-4.4,24.1-11.9,32.5"/>
						<path class="st12" d="M488.6,69.8c-21.5,0.3-79.9-1-100.4,1.3c-17.1,1.6-34.1,4.8-50.6,9.6c-5,1.4-9.9,3-14.7,4.8
							c-2.5,1.4-4.6,3.4-6.1,5.7c-0.3,0.5-0.5,1-0.7,1.5c-0.1,0.6-0.2,1.3-0.2,1.9c-0.1,2.6-0.1,5.3,0.1,7.9
							c1,11,4.4,24.1,11.9,32.5c0.3,0.3,0.6,0.5,1,0.6"/>
						<line class="st12" x1="297.6" y1="55.2" x2="297.6" y2="55.2"/>
						<line class="st12" x1="297.6" y1="55.4" x2="297.6" y2="55.4"/>
						<line class="st12" x1="297.6" y1="55.1" x2="297.6" y2="55.1"/>
						<line class="st12" x1="297.5" y1="55.5" x2="297.4" y2="55.5"/>
						<path class="st12" d="M298.4,54L298.4,54L298.4,54v0.2l0,0c0,0.1,0,0.2,0,0.3l0,0c0,0.1,0,0.3,0,0.4c0,0.1,0,0.3,0,0.5"/>
						<line class="st12" x1="298" y1="55.7" x2="298.2" y2="55.7"/>
						<path class="st12" d="M291.1,56.4L291.1,56.4c-0.1-0.3-0.1-0.6-0.1-0.9C291,55.8,291.1,56.2,291.1,56.4"/>
						<line class="st13" x1="292.1" y1="56.1" x2="292.1" y2="56.1"/>
						<line class="st12" x1="291" y1="55.9" x2="290.9" y2="55.9"/>
						<line class="st12" x1="291.1" y1="56.4" x2="291" y2="56.4"/>
						<path class="st12" d="M291.6,55c0,0-0.6,0.1-0.7,0.1l0,0l0,0c0,0.4,0,0.4,0,0.7c0.1,0.1,0,0.2,0.1,0.3s0,0.2,0,0.3l0,0v0.1
							l0,0v0.1l0,0l0,0c0.1,0,0.7-0.1,0.8-0.1"/>
						<line class="st12" x1="603.7" y1="343.4" x2="604.6" y2="343.4"/>
						<line class="st12" x1="604.6" y1="325.9" x2="603.7" y2="325.9"/>
						<line class="st12" x1="301.3" y1="325.9" x2="302.2" y2="325.9"/>
						<line class="st12" x1="302.2" y1="343.4" x2="301.3" y2="343.4"/>
						<line class="st12" x1="590.5" y1="429.2" x2="590.5" y2="437.7"/>
						<line class="st12" x1="604.6" y1="343.4" x2="604.6" y2="325.9"/>
						<line class="st12" x1="301.3" y1="325.9" x2="301.3" y2="343.4"/>
						<polyline class="st12" points="309.5,232.9 309.3,232.9 309.3,235.3 309.5,235.3 						"/>
						<polyline class="st12" points="309.5,237.6 309.3,237.6 309.3,235.3 						"/>
						<polyline class="st12" points="309.5,204.8 309.3,204.8 309.3,207.2 309.5,207.2 						"/>
						<polyline class="st12" points="309.5,209.6 309.3,209.6 309.3,207.2 						"/>
						<polyline class="st12" points="309.5,218.9 309.3,218.9 309.3,221.2 309.5,221.2 						"/>
						<polyline class="st12" points="309.5,223.6 309.3,223.6 309.3,221.3 						"/>
						<line class="st12" x1="309.3" y1="218.9" x2="309.3" y2="212.5"/>
						<line class="st12" x1="309.3" y1="230" x2="309.3" y2="223.6"/>
						<line class="st12" x1="309.5" y1="230" x2="309.3" y2="230"/>
						<line class="st12" x1="309.5" y1="212.5" x2="309.3" y2="212.5"/>
						<line class="st12" x1="310.7" y1="198.4" x2="310.7" y2="198.4"/>
						<polyline class="st12" points="596.4,209.6 596.6,209.6 596.6,207.2 596.4,207.2 						"/>
						<polyline class="st12" points="596.4,204.8 596.6,204.8 596.6,207.2 						"/>
						<polyline class="st12" points="596.4,237.6 596.6,237.6 596.6,235.3 596.4,235.3 						"/>
						<polyline class="st12" points="596.4,232.9 596.6,232.9 596.6,235.3 						"/>
						<polyline class="st12" points="596.4,223.6 596.6,223.6 596.6,221.3 596.4,221.3 						"/>
						<polyline class="st12" points="596.4,218.9 596.6,218.9 596.6,221.2 						"/>
						<line class="st12" x1="596.6" y1="223.6" x2="596.6" y2="230"/>
						<line class="st12" x1="596.6" y1="212.5" x2="596.6" y2="218.9"/>
						<line class="st12" x1="596.4" y1="212.5" x2="596.6" y2="212.5"/>
						<line class="st12" x1="596.4" y1="230" x2="596.6" y2="230"/>
						<line class="st12" x1="596.4" y1="100.7" x2="598.4" y2="100.7"/>
						<line class="st12" x1="598.4" y1="100.7" x2="602" y2="100.7"/>
						<polyline class="st12" points="487.2,63 487.2,63.7 418.7,63.7 418.7,63 						"/>
						<line class="st12" x1="491.6" y1="63.9" x2="414.3" y2="63.9"/>
						<path class="st12" d="M592.4,81.4c-3.4-3.8-8-6.4-12.9-7.5"/>
						<path class="st12" d="M598.4,100.7c0.3-2.4,0.3-4.8-0.1-7.2"/>
						<line class="st12" x1="596.4" y1="100.6" x2="598.4" y2="100.7"/>
						<path class="st12" d="M491.6,63.9c29.5,0,59,3.3,87.8,9.9"/>
						<line class="st12" x1="303.9" y1="100.7" x2="309.5" y2="100.7"/>
						<path class="st12" d="M326.4,73.8c-5,1.1-9.5,3.7-13,7.5"/>
						<path class="st12" d="M307.5,93.5c-0.4,2.4-0.4,4.8-0.1,7.2"/>
						<line class="st12" x1="309.5" y1="100.6" x2="307.4" y2="100.7"/>
						<path class="st12" d="M414.3,63.9c-29.5,0-59,3.3-87.8,9.9"/>
						<line class="st12" x1="491.6" y1="63" x2="487.2" y2="63"/>
						<line class="st12" x1="418.7" y1="63" x2="414.3" y2="63"/>
						<path class="st12" d="M580,73c5.5,1.3,10.5,4.2,14.4,8.3"/>
						<path class="st12" d="M600.2,90.7c1.2,3.2,1.8,6.6,1.8,10"/>
						<path class="st12" d="M580,73c-29-6.6-58.7-9.9-88.4-9.9"/>
						<line class="st12" x1="303.9" y1="100.6" x2="303.9" y2="100.7"/>
						<path class="st12" d="M325.9,73c-5.5,1.3-10.5,4.2-14.4,8.3"/>
						<path class="st12" d="M305.7,90.7c-1.1,3.2-1.7,6.5-1.8,9.9"/>
						<path class="st12" d="M414.3,63c-29.8,0-59.4,3.3-88.4,9.9"/>
						<polyline class="st12" points="593.6,276.5 593.6,288.2 540.9,288.2 540.9,286.3 						"/>
						<polyline class="st12" points="312.3,276.5 312.3,288.2 365,288.2 365,286.3 						"/>
						<path class="st12" d="M584.7,84.8c0.3,0.1,0.6,0.2,0.9,0.2c0.3,0,0.6,0,0.9-0.1c0.6-0.2,1.1-0.5,1.5-1"/>
						<path class="st12" d="M596.4,94.7c-0.3,0.2-0.5,0.3-0.8,0.5c-0.2,0.2-0.3,0.4-0.5,0.7c-0.1,0.2-0.2,0.4-0.2,0.6
							c-0.1,0.4-0.1,0.8,0,1.2"/>
						<path class="st12" d="M596.4,94.7c3.6-1.6,5.1-5.8,3.5-9.3c-0.3-0.8-0.8-1.4-1.4-2"/>
						<path class="st12" d="M595.5,81.5c-2.8-0.8-5.8,0.2-7.5,2.4"/>
						<path class="st12" d="M584.7,84.8c5.2,2.5,8.9,7.2,10.2,12.9"/>
						<path class="st12" d="M581.3,82c0.4,0.7,1,1.5,1.4,2.2c3.6,1.9,6.4,5,8,8.7c0.2,0.6,0.3,1.3,0.3,1.9c0,1,0.1,2.2,0,3.2
							c-0.4,12.7-3.6,26.6-10.6,37.3h-0.1v0.1c-0.3,0.2-0.7,0.3-1.1,0.4"/>
						<path class="st12" d="M579.3,135.8c-1-0.6-2-1.1-3.1-1.5"/>
						<path class="st12" d="M587.5,146.7c0.3-5.4,0.1-10.9,0.8-16.3c0.3-1.6,0.6-3.2,1.1-4.7c1-4,2-8,3-12
							c1.3-5.2,2.3-10.5,3.5-15.7"/>
						<path class="st12" d="M311,97.7c0.1-0.5,0.1-0.9,0-1.4c-0.1-0.2-0.2-0.5-0.3-0.7c-0.3-0.4-0.7-0.7-1.2-0.9"/>
						<path class="st12" d="M317.9,84c0.4,0.5,0.8,0.8,1.4,1c0.7,0.2,1.4,0.2,2-0.1"/>
						<path class="st12" d="M308.1,82.6c-4.3,3-3.5,10.1,1.3,12.1"/>
						<path class="st12" d="M317.8,84c-1.5-2-4-3-6.5-2.7"/>
						<path class="st12" d="M321.2,84.8c-5.2,2.5-8.9,7.3-10.2,12.9"/>
						<path class="st12" d="M310,98c0.5,2,0.9,4.1,1.3,6.1c0.9,4.1,1.9,8.1,2.8,12.2c0.8,3.1,1.6,6.3,2.4,9.4c0.5,1.6,0.8,3.3,1.1,5
							c0.8,5.3,0.5,10.7,0.8,16.1"/>
						<path class="st12" d="M326.6,135.8c-0.4,0-0.8-0.2-1.1-0.4v-0.1h-0.1c-7.6-11.5-11-27.5-10.6-41.2c0.4-2.5,3.2-6.1,5.1-7.7
							c1-0.9,2.1-1.6,3.2-2.2c0.5-0.7,1-1.5,1.4-2.2"/>
						<line class="st12" x1="597.1" y1="130.3" x2="596.4" y2="126.5"/>
						<path class="st12" d="M596.6,131.8c0.4-0.4,0.6-1,0.5-1.6"/>
						<line class="st12" x1="596.4" y1="132" x2="596.6" y2="131.9"/>
						<line class="st12" x1="309.5" y1="126.5" x2="308.8" y2="130.3"/>
						<path class="st12" d="M308.8,130.3c-0.1,0.6,0.1,1.2,0.5,1.6"/>
						<line class="st12" x1="309.3" y1="131.9" x2="309.5" y2="132"/>
						<line class="st12" x1="549.7" y1="246.5" x2="551.8" y2="246.5"/>
						<line class="st12" x1="550.3" y1="245.8" x2="551.8" y2="245.8"/>
						<line class="st12" x1="550.4" y1="245.8" x2="549.7" y2="246.5"/>
						<path class="st12" d="M567.2,160.7l-15.5-0.1"/>
						<path class="st12" d="M566.4,161.3l-14.7-0.1"/>
						<line class="st12" x1="566.5" y1="161.3" x2="567.2" y2="160.7"/>
						<line class="st12" x1="567.2" y1="246.5" x2="567.2" y2="160.7"/>
						<polyline class="st12" points="566.5,161.3 566.5,245.8 567.2,246.5 						"/>
						<path class="st12" d="M551.8,161.3h-1.4"/>
						<path class="st12" d="M551.7,160.6h-2"/>
						<line class="st12" x1="549.7" y1="160.6" x2="550.4" y2="161.2"/>
						<line class="st12" x1="551.8" y1="245.8" x2="566.5" y2="245.8"/>
						<line class="st12" x1="551.8" y1="246.5" x2="567.2" y2="246.5"/>
						<line class="st12" x1="550.4" y1="245.8" x2="550.4" y2="161.2"/>
						<line class="st12" x1="549.7" y1="160.6" x2="549.7" y2="246.5"/>
						<polyline class="st12" points="532.9,247.4 532.9,159.6 532.1,160.4 						"/>
						<line class="st12" x1="532.1" y1="246.5" x2="532.9" y2="247.4"/>
						<polyline class="st12" points="514.5,160.4 513.6,159.6 513.6,247.4 514.5,246.5 						"/>
						<path class="st12" d="M532.9,159.6l-19.3-0.1"/>
						<path class="st12" d="M521.1,160.4h-6.7"/>
						<path class="st12" d="M532.1,160.5h-11"/>
						<line class="st12" x1="532.9" y1="247.4" x2="513.6" y2="247.4"/>
						<line class="st12" x1="514.5" y1="160.4" x2="514.5" y2="246.5"/>
						<line class="st12" x1="532.1" y1="246.5" x2="514.5" y2="246.5"/>
						<line class="st12" x1="478.4" y1="159.5" x2="478.4" y2="247.4"/>
						<path class="st12" d="M497.7,159.5h-19.3"/>
						<line class="st12" x1="497.8" y1="247.4" x2="497.8" y2="159.5"/>
						<line class="st12" x1="497.8" y1="247.4" x2="478.4" y2="247.4"/>
						<line class="st12" x1="373" y1="159.6" x2="373" y2="247.4"/>
						<path class="st12" d="M392.2,159.6l-19.3,0.1"/>
						<line class="st12" x1="392.3" y1="247.4" x2="392.3" y2="159.6"/>
						<line class="st12" x1="392.2" y1="247.4" x2="373" y2="247.4"/>
						<line class="st12" x1="408.1" y1="159.5" x2="408.1" y2="247.4"/>
						<path class="st12" d="M427.4,159.5h-19.3"/>
						<line class="st12" x1="427.4" y1="247.4" x2="427.4" y2="159.5"/>
						<line class="st12" x1="427.5" y1="247.4" x2="408.1" y2="247.4"/>
						<path class="st12" d="M462.6,159.5h-19.5"/>
						<line class="st12" x1="462.6" y1="247.4" x2="462.6" y2="159.5"/>
						<line class="st12" x1="462.6" y1="247.4" x2="452.9" y2="247.4"/>
						<line class="st12" x1="452.9" y1="247.4" x2="443.2" y2="247.4"/>
						<line class="st12" x1="443.3" y1="159.5" x2="443.3" y2="247.4"/>
						<line class="st12" x1="532.1" y1="160.4" x2="532.1" y2="246.5"/>
						<line class="st12" x1="497.8" y1="159.5" x2="496.9" y2="160.4"/>
						<line class="st12" x1="496.9" y1="246.5" x2="497.8" y2="247.4"/>
						<line class="st12" x1="479.3" y1="160.3" x2="478.4" y2="159.5"/>
						<line class="st12" x1="478.4" y1="247.4" x2="479.3" y2="246.5"/>
						<path class="st12" d="M496.9,160.4h-17.5"/>
						<polyline class="st12" points="479.3,160.3 479.3,246.5 496.9,246.5 496.9,160.4 						"/>
						<polyline class="st12" points="462.6,159.5 461.8,160.3 461.8,246.5 						"/>
						<line class="st12" x1="461.8" y1="246.5" x2="462.6" y2="247.4"/>
						<line class="st12" x1="461.7" y1="246.5" x2="452.9" y2="246.5"/>
						<path class="st12" d="M461.8,160.3H453"/>
						<line class="st12" x1="502.2" y1="292.2" x2="452.9" y2="292.2"/>
						<path class="st12" d="M452.9,292.2L452.9,292.2"/>
						<path class="st12" d="M502.1,292.2L502.1,292.2"/>
						<line class="st12" x1="502.2" y1="292.2" x2="502.2" y2="292.2"/>
						<line class="st12" x1="384.6" y1="292.2" x2="403.7" y2="292.2"/>
						<line class="st12" x1="502.2" y1="292.2" x2="521.3" y2="292.2"/>
						<polyline class="st12" points="452.9,292.2 403.7,292.2 502.2,292.2 						"/>
						<path class="st12" d="M403.7,292.2L403.7,292.2"/>
						<polyline class="st12" points="452.9,252.1 452.9,292.2 502.2,292.2 						"/>
						<path class="st12" d="M582.1,83.9c-2.2-3.3-4.4-6.8-8-8.8"/>
						<line class="st12" x1="582.4" y1="85.3" x2="582.1" y2="83.9"/>
						<line class="st12" x1="582.7" y1="84.2" x2="583" y2="85.6"/>
						<path class="st12" d="M574.7,75.5v-0.2c2.7,1.7,5,4,6.7,6.8"/>
						<path class="st12" d="M573.9,75.1L573.9,75.1c-0.9-0.6-1.9-0.9-2.9-1.1"/>
						<line class="st12" x1="578.8" y1="135.8" x2="579.3" y2="135.8"/>
						<path class="st12" d="M572.9,133.4C559,130.8,545,129,531,128l-42.3-1.1c-11.9,0.3-23.8,0.4-35.7,0.4"/>
						<path class="st12" d="M571,74.1c-27.1-5.4-54.7-8.1-82.4-8.1c-20.2,0.2-79.7-0.7-99,0.9c-18.4,1.2-36.7,3.6-54.7,7.2"/>
						<path class="st12" d="M332,75.1L332,75.1c18.7-4.1,37.6-6.8,56.6-8.1c19.5-1.8,79.5-0.8,100-1c28.7,0,57.3,3,85.3,9"/>
						<path class="st12" d="M582,76.4c-28.5-6.5-57.6-10-86.9-10.4"/>
						<path class="st12" d="M410.8,66c-29.7,0.4-59.4,4-88.3,10.8l0,0"/>
						<path class="st12" d="M583.5,76.8L583.5,76.8c-0.5-0.1-1-0.3-1.5-0.4"/>
						<path class="st12" d="M581.9,76.9c-2.4-0.6-4.8-1.1-7.3-1.7"/>
						<line class="st12" x1="596.1" y1="96.4" x2="596.1" y2="95.6"/>
						<path class="st12" d="M590.6,81.8c-2.4-2.5-5.4-4.2-8.7-5"/>
						<line class="st12" x1="596.1" y1="97" x2="596.1" y2="96.4"/>
						<line class="st12" x1="417.2" y1="69" x2="488.6" y2="69"/>
						<line class="st12" x1="488.6" y1="66.1" x2="417.2" y2="66.1"/>
						<path class="st12" d="M583.5,76.8c0.2,0,0.4,0.1,0.5,0.2"/>
						<path class="st12" d="M584,77l0.3,0.1"/>
						<line class="st12" x1="596.3" y1="96.7" x2="596.3" y2="96.7"/>
						<path class="st12" d="M584,77c2.7,1,5.2,2.6,7.3,4.7"/>
						<path class="st12" d="M596.1,97.4c0-0.1,0.1-0.2,0.1-0.4"/>
						<path class="st12" d="M595.9,98c0-0.2,0.1-0.4,0.2-0.6"/>
						<path class="st12" d="M596.3,96.7c0,0.1,0,0.2,0.1,0.2c0,0.1,0,0.3,0,0.4"/>
						<line class="st12" x1="590.6" y1="135.4" x2="590.6" y2="135.4"/>
						<line class="st12" x1="594.6" y1="114.9" x2="594.6" y2="114.8"/>
						<line class="st12" x1="595.3" y1="115.5" x2="594.5" y2="115.5"/>
						<line class="st12" x1="592.4" y1="252.1" x2="588.6" y2="252.1"/>
						<line class="st12" x1="588.3" y1="251.2" x2="588.3" y2="251.2"/>
						<line class="st12" x1="587.8" y1="171.8" x2="587.8" y2="171.7"/>
						<path class="st12" d="M587.5,149c-0.4,4.9-0.6,9.8-0.8,14.7c-0.2,24.8-0.4,64.3-0.4,89.1c0,2.5,0.2,4.9,0.5,7.4
							c0.2,2,0.6,3.9,1.1,5.8"/>
						<line class="st12" x1="596.4" y1="266.7" x2="596.4" y2="225.2"/>
						<path class="st12" d="M596.4,97.6L596.4,97.6L596.4,97.6v-0.2l-0.1-0.1l0,0l0,0l0,0v0.1c-0.1,0.1-0.1,0.3-0.2,0.5
							c0,0.2-0.1,0.3-0.2,0.5"/>
						<path class="st12" d="M596.3,257v-25.2l0,0c0,0,0-0.8,0-0.9V257L596.3,257l-0.1-25.2l0,0V231L596.3,257"/>
						<line class="st12" x1="596.3" y1="257" x2="596.4" y2="257"/>
						<path class="st12" d="M589.1,128.1c-0.7,3.1-1.1,6.2-1.1,9.4c-0.2,3.8-0.2,7.6-0.5,11.4"/>
						<path class="st12" d="M587.9,265.9c0,0.1,0.1,0.2,0.2,0.4s0,0.2,0.2,0.3c0.1,0.2,0.2,0.5,0.4,0.6h0.1l0,0h-0.5"/>
						<polyline class="st12" points="588.8,267.2 596.4,267.2 596.4,267.2 596.4,267.2 596.4,267.1 						"/>
						<polyline class="st12" points="595.5,267.1 595.5,267.6 596.4,267.6 596.4,267.8 						"/>
						<path class="st12" d="M595.9,98.4c-0.3,1-0.4,2.1-0.7,3.2"/>
						<path class="st12" d="M595.9,98.5L595.9,98.5"/>
						<path class="st12" d="M595.3,101.6c-1.7,8.9-4,17.7-6.2,26.5"/>
						<path class="st12" d="M596.4,267.8h-7.7l0,0l0,0l0,0l0,0c-0.4-0.5-0.7-1.1-0.8-1.7c-0.2-0.9-0.4-1.7-0.6-2.6
							c-0.4-2.7-0.7-5.5-0.8-8.2c-0.3-24.7,0.2-64.3,0.2-89.1c0.2-6.5,0.5-13,0.9-19.4"/>
						<polyline class="st12" points="596.4,232.7 596.4,231.9 596.4,256.2 596.3,256.2 596.3,255.3 596.3,233.5 596.3,232.9 
							596.4,232.9 596.4,232.7 						"/>
						<path class="st12" d="M581.2,83.6c0.3,0.1,0.6,0.2,0.9,0.3"/>
						<line class="st12" x1="596.3" y1="267.6" x2="596.4" y2="267.2"/>
						<line class="st12" x1="570.3" y1="285.2" x2="578" y2="285.2"/>
						<path class="st12" d="M578,285.2c9.9,0,18-7.7,18.5-17.6"/>
						<path class="st12" d="M596.4,267.1v-0.4"/>
						<path class="st12" d="M327.9,285.2c-9.8,0-17.9-7.8-18.4-17.6h0.9"/>
						<line class="st12" x1="452.9" y1="127.2" x2="452.9" y2="154.4"/>
						<path class="st12" d="M521.2,292.2c4.8,0,9.6-1.2,13.8-3.5"/>
						<path class="st12" d="M535.1,288.7c3.2-1.7,6.6-2.8,10.2-3.3c7-0.5,18-0.1,25-0.2"/>
						<path class="st12" d="M559.5,77.3c7.3,1.8,14.6,3.9,21.7,6.3"/>
						<path class="st12" d="M574.1,75.1c-28.1-6-56.7-9-85.5-9"/>
						<path class="st12" d="M488.6,69c23.8,0.1,47.7,2.5,70.9,8.3"/>
						<line class="st12" x1="354" y1="245.8" x2="355.5" y2="245.8"/>
						<line class="st12" x1="354.1" y1="246.5" x2="356.2" y2="246.5"/>
						<line class="st12" x1="356.3" y1="246.5" x2="355.5" y2="245.8"/>
						<line class="st12" x1="338.6" y1="246.5" x2="354.1" y2="246.5"/>
						<line class="st12" x1="339.3" y1="245.8" x2="354" y2="245.8"/>
						<line class="st12" x1="339.4" y1="245.8" x2="338.6" y2="246.5"/>
						<line class="st12" x1="339.4" y1="245.8" x2="339.4" y2="161.3"/>
						<path class="st12" d="M339.4,161.3c-0.2-0.2-0.5-0.4-0.7-0.6"/>
						<line class="st12" x1="338.6" y1="160.7" x2="338.6" y2="246.5"/>
						<path class="st12" d="M354.1,161.3l-14.7,0.1"/>
						<path class="st12" d="M354.1,160.6l-15.5,0.1"/>
						<path class="st12" d="M356.2,160.6h-2"/>
						<path class="st12" d="M355.5,161.3h-1.4"/>
						<line class="st12" x1="355.5" y1="161.2" x2="356.3" y2="160.6"/>
						<line class="st12" x1="356.3" y1="246.5" x2="356.3" y2="160.6"/>
						<line class="st12" x1="355.5" y1="161.2" x2="355.5" y2="245.8"/>
						<line class="st12" x1="392.3" y1="159.5" x2="391.4" y2="160.4"/>
						<line class="st12" x1="391.4" y1="246.5" x2="392.3" y2="247.4"/>
						<line class="st12" x1="373.8" y1="160.4" x2="373" y2="159.6"/>
						<line class="st12" x1="373" y1="247.4" x2="373.8" y2="246.5"/>
						<path class="st12" d="M384.8,160.4h-11"/>
						<path class="st12" d="M391.4,160.4h-6.7"/>
						<line class="st12" x1="373.8" y1="160.4" x2="373.8" y2="246.5"/>
						<polyline class="st12" points="373.8,246.5 391.4,246.5 391.4,160.4 						"/>
						<line class="st12" x1="427.4" y1="159.5" x2="426.6" y2="160.3"/>
						<line class="st12" x1="426.6" y1="246.5" x2="427.4" y2="247.4"/>
						<line class="st12" x1="409" y1="160.4" x2="408.1" y2="159.5"/>
						<line class="st12" x1="408.1" y1="247.4" x2="409" y2="246.5"/>
						<path class="st12" d="M426.5,160.3H409"/>
						<polyline class="st12" points="409,160.4 409,246.5 426.6,246.5 426.6,160.3 						"/>
						<polyline class="st12" points="443.3,247.4 444.1,246.5 444.1,160.3 443.3,159.5 						"/>
						<path class="st12" d="M452.9,160.3H444"/>
						<line class="st12" x1="452.9" y1="246.5" x2="444.1" y2="246.5"/>
						<line class="st12" x1="403.7" y1="292.2" x2="452.9" y2="292.2"/>
						<path class="st12" d="M334.9,74.1c-1,0.2-2,0.5-2.9,1"/>
						<line class="st12" x1="323.8" y1="83.9" x2="323.5" y2="85.3"/>
						<path class="st12" d="M331.8,75.1c-3.6,1.9-5.8,5.5-8,8.8"/>
						<line class="st12" x1="322.8" y1="85.6" x2="323.2" y2="84.2"/>
						<path class="st12" d="M324.6,82c1.7-2.7,3.9-5.1,6.7-6.8v0.2"/>
						<path class="st12" d="M323.8,83.9c30-10.4,61.8-14.8,93.4-14.9"/>
						<path class="st12" d="M331.2,75.3c-2.4,0.5-4.9,1.1-7.3,1.7"/>
						<line class="st12" x1="309.7" y1="96.4" x2="309.7" y2="97"/>
						<path class="st12" d="M324,76.9c-3.3,0.8-6.3,2.6-8.7,5"/>
						<line class="st12" x1="309.7" y1="95.6" x2="309.7" y2="96.4"/>
						<path class="st12" d="M452.9,127.4c-21.4,0.2-43-0.6-64.3,1.1c-18.5,1.2-36.9,4.8-55.3,6.6"/>
						<path class="st12" d="M333.3,135.1c-2.2,0.4-4.4,0.6-6.6,0.8"/>
						<path class="st12" d="M318.4,146.7c0,1.1,0.1,2.3,0.2,3.4"/>
						<path class="st12" d="M321.6,77c0.3,0,0.5-0.2,0.8-0.3"/>
						<path class="st12" d="M315.1,81.1c1.9-1.9,4.2-3.3,6.8-4.2"/>
						<path class="st12" d="M314.6,81.6l0.5-0.5"/>
						<path class="st12" d="M417.2,66.1c-28.7,0-57.4,3-85.4,9"/>
						<path class="st12" d="M309.7,97c0.1,0.3,0.2,0.6,0.3,0.9"/>
						<path class="st12" d="M309.5,97.3c0-0.2,0-0.3,0-0.5l0,0v-0.1l0,0"/>
						<path class="st12" d="M309.5,97.6c0-0.1,0-0.2,0-0.3l0,0l0,0"/>
						<line class="st12" x1="315.3" y1="135.4" x2="315.3" y2="135.4"/>
						<line class="st12" x1="311.3" y1="114.8" x2="311.3" y2="114.9"/>
						<line class="st13" x1="317.6" y1="251.2" x2="317.6" y2="251.2"/>
						<line class="st12" x1="317.3" y1="252.1" x2="313.5" y2="252.1"/>
						<line class="st12" x1="310.6" y1="115.5" x2="311.4" y2="115.5"/>
						<line class="st12" x1="318.1" y1="171.7" x2="318.1" y2="171.8"/>
						<line class="st12" x1="309.5" y1="225.2" x2="309.5" y2="266.7"/>
						<path class="st12" d="M318,265.9c1.2-4.3,1.4-8.8,1.5-13.2c0-24.5-0.1-63.9-0.4-88.4c-0.1-5.1-0.4-10.3-0.8-15.4"/>
						<path class="st12" d="M309.9,98.3c0-0.2-0.1-0.4-0.1-0.6c0-0.1-0.1-0.2-0.1-0.3s-0.1-0.1-0.1-0.2l0,0"/>
						<path class="st12" d="M309.5,257c-0.1-2.2-0.1-23.8,0-26c0.2,2.8,0,23,0.1,25.9l0,0L309.5,257L309.5,257"/>
						<path class="st12" d="M309.5,231.9c0,1.4,0.1,22.7,0,24.3l0,0V231.9"/>
						<polyline class="st12" points="309.5,255.3 309.5,256.6 309.5,256.7 309.5,257 309.6,257 						"/>
						<path class="st12" d="M309.5,257v-0.1l0,0c0-3,0.1-23.1-0.1-25.9v0.4l0,0v23.9"/>
						<path class="st12" d="M318.6,150.1c0.4,4.4,0.5,8.9,0.7,13.3c0.3,24.5,0.3,64,0.4,88.5c0,4.2-0.4,8.4-1.1,12.5"/>
						<path class="st12" d="M318.5,264.4c-0.1,0.9-0.4,1.7-0.7,2.5c-0.1,0.3-0.3,0.5-0.5,0.7l0,0c-2.5,0.2-5.2,0-7.8,0.1v-0.2"/>
						<line class="st12" x1="310.4" y1="267.6" x2="310.4" y2="267.1"/>
						<path class="st12" d="M309.9,98.3L309.9,98.3"/>
						<path class="st12" d="M318.4,149c-0.5-5.8-0.3-11.6-1-17.4c-0.2-1.5-0.5-3-0.9-4.5c-0.8-3.1-1.6-6.4-2.3-9.5
							c-1.6-6.3-2.9-12.8-4.2-19.2"/>
						<path class="st12" d="M317.7,267.2h-0.5l0,0h0.1c0.1-0.1,0.2-0.2,0.3-0.3c0.2-0.3,0.3-0.6,0.5-0.9"/>
						<polyline class="st12" points="309.5,267.1 309.5,267.2 317.1,267.2 						"/>
						<line class="st12" x1="327.9" y1="285.2" x2="357" y2="285.2"/>
						<path class="st12" d="M309.4,266.7v0.4"/>
						<path class="st12" d="M370.8,288.7c4.2,2.3,9,3.5,13.8,3.5"/>
						<path class="st12" d="M357,285.2c4.8,0,9.6,1.2,13.9,3.5"/>
						<path class="st12" d="M597.2,94.3c-0.6,0.3-1,0.9-1.2,1.6l0,0V96l0,0"/>
						<path class="st12" d="M589.4,82.2L589.4,82.2L589.4,82.2c0.3,0,0.7-0.1,1-0.2"/>
						<path class="st12" d="M315.5,82c0.3,0.1,0.7,0.2,1,0.2l0,0l0,0"/>
						<path class="st12" d="M309.9,96c0-0.1,0-0.2,0-0.3c-0.1,0-0.1-0.1-0.1-0.2l-0.2-0.4c-0.2-0.4-0.5-0.7-0.9-0.9"/>
						<line class="st12" x1="596.4" y1="95.1" x2="596.4" y2="97"/>
						<path class="st12" d="M582.1,76.4c0.5,0.1,1.2,0.3,1.7,0.4"/>
						<path class="st12" d="M584.3,77c2.7,1,5,2.5,7,4.6"/>
						<path class="st12" d="M514.1,66.7c22.9,1.4,45.6,4.6,68,9.7"/>
						<path class="st12" d="M590.6,135.4c-0.2,1.1-0.4,2.3-0.6,3.5"/>
						<path class="st12" d="M594.6,114.9c-1.2,6.8-2.6,13.6-4,20.4"/>
						<path class="st12" d="M587.8,171.7v71.9c0,0.6,0,1.2,0,1.8c0,0.7,0.1,1.5,0.1,2.2c0.1,1.5,0.3,3,0.7,4.5l0.1,0.1l0,0l0,0"/>
						<path class="st12" d="M590,138.8c-1.5,10.9-2.2,21.9-2.2,32.9"/>
						<line class="st12" x1="596.4" y1="97.6" x2="596.4" y2="225.2"/>
						<line class="st12" x1="596.1" y1="97.2" x2="596.3" y2="97.2"/>
						<path class="st12" d="M322.2,76.8c22.9-5.4,46.2-8.8,69.6-10.1"/>
						<path class="st12" d="M314.6,81.6c2-2,4.4-3.6,7-4.6"/>
						<path class="st12" d="M315.3,135.4c-1.4-6.8-2.8-13.6-4-20.4"/>
						<path class="st12" d="M317.2,252.2L317.2,252.2L317.2,252.2L317.2,252.2c0-0.1,0.1-0.2,0.1-0.3s0-0.2,0.1-0.3
							c0-0.1,0.1-0.3,0.1-0.4"/>
						<path class="st12" d="M315.9,138.8c-0.2-1.1-0.3-2.3-0.6-3.5"/>
						<path class="st12" d="M317.5,251.2c1.2-2.7,0.3-74.9,0.6-79.4"/>
						<path class="st12" d="M318.1,171.7c0.1-11-0.7-22-2.2-32.9"/>
						<line class="st12" x1="309.5" y1="225.2" x2="309.5" y2="97.6"/>
						<line class="st12" x1="309.6" y1="97.2" x2="309.8" y2="97.2"/>
						<line class="st12" x1="309.5" y1="97" x2="309.5" y2="95.1"/>
						<line class="st12" x1="309.5" y1="267.6" x2="309.5" y2="267.2"/>
						<line class="st12" x1="574.5" y1="75.1" x2="574.5" y2="75.4"/>
						<line class="st12" x1="596.2" y1="97" x2="596.1" y2="97"/>
						<line class="st12" x1="596.2" y1="96.3" x2="596.2" y2="97"/>
						<path class="st12" d="M582,76.8c3.3,0.8,6.4,2.5,8.8,5"/>
						<line class="st12" x1="596.2" y1="95.6" x2="596.2" y2="96.3"/>
						<path class="st12" d="M581.9,76.8c-2.5-0.6-5-1.2-7.5-1.7"/>
						<path class="st12" d="M582,76.4c-3.4-0.8-7-1.5-10.5-2.2l0.6,0.1"/>
						<path class="st12" d="M591.3,81.6c-2.5-2.6-5.7-4.4-9.3-5.2"/>
						<path class="st12" d="M596.2,97c0-0.1,0.1-0.2,0.1-0.3l0,0l0,0"/>
						<polyline class="st12" points="596.3,96.7 596.3,96.7 596.4,95.2 						"/>
						<path class="st12" d="M572.2,74.3c0.8,0.2,1.5,0.5,2.3,0.8"/>
						<line class="st12" x1="309.7" y1="96.3" x2="309.7" y2="95.6"/>
						<path class="st12" d="M315.2,81.8c2.4-2.5,5.4-4.2,8.8-5"/>
						<path class="st12" d="M316.8,79.7c-0.8,0.6-1.5,1.3-2.2,1.9"/>
						<path class="st12" d="M323.8,76.4c-2.5,0.6-4.9,1.7-7,3.3"/>
						<line class="st12" x1="309.7" y1="97" x2="309.7" y2="96.3"/>
						<line class="st12" x1="309.5" y1="95.2" x2="309.5" y2="96.7"/>
						<path class="st12" d="M309.6,96.7L309.6,96.7L309.6,96.7c0.1,0.1,0.1,0.2,0.1,0.3"/>
						<line class="st12" x1="331.4" y1="75.4" x2="331.4" y2="75.1"/>
						<path class="st12" d="M331.4,75.2c-2.5,0.5-5,1.1-7.5,1.7"/>
						<path class="st12" d="M331.4,75.1c0.9-0.5,1.9-0.8,2.9-1c-3.5,0.7-7.1,1.5-10.5,2.2"/>
						<line class="st12" x1="290.6" y1="58.9" x2="290.6" y2="58.9"/>
						<line class="st12" x1="290.6" y1="59.9" x2="290.6" y2="59.9"/>
						<path class="st12" d="M287.7,56.6L287.7,56.6L287.7,56.6L287.7,56.6L287.7,56.6L287.7,56.6c-0.1,0-0.2,0-0.3,0l-0.1,0.1
							c0,0,0,0.1,0,0.2"/>
						<line class="st12" x1="287.1" y1="62.6" x2="287.1" y2="62.6"/>
						<path class="st12" d="M287.8,62.2L287.8,62.2L287.8,62.2L287.8,62.2L287.8,62.2L287.8,62.2l-0.3,0.1l-0.1-0.1l0,0l0,0v-0.1"/>
						<path class="st12" d="M287.7,62.2c0.1-0.1,0.1-0.2,0-0.3"/>
						<path class="st12" d="M287.3,61.8c0,0-0.1,0.1-0.1,0.2v0.1"/>
						<polyline class="st12" points="291.6,61.9 291.7,62 291.7,62.1 291.7,62.1 291.7,62.2 291.7,62.2 291.7,62.3 291.6,62.3 
							291.6,62.3 291.6,62.4 291.6,62.4 291.5,62.4 291.4,62.4 						"/>
						<path class="st12" d="M291.1,61.9c-0.1,0.1-0.1,0.2,0,0.3"/>
						<path class="st12" d="M291.1,62.2L291.1,62.2l0.1,0.1l0,0l0,0h0.1"/>
						<path class="st12" d="M289,58.6L289,58.6"/>
						<path class="st12" d="M290.8,59.5c0-0.2-0.1-0.3-0.2-0.5"/>
						<line class="st12" x1="290.9" y1="59.2" x2="290.9" y2="59.4"/>
						<line class="st12" x1="290.6" y1="58.9" x2="290.6" y2="58.7"/>
						<line class="st12" x1="290.9" y1="56.4" x2="290.9" y2="56.6"/>
						<line class="st12" x1="290.6" y1="56.6" x2="290.6" y2="56.4"/>
						<line class="st12" x1="290.6" y1="63.2" x2="290.6" y2="61.9"/>
						<line class="st12" x1="290.9" y1="61.9" x2="290.9" y2="63.2"/>
						<line class="st12" x1="288.2" y1="58.9" x2="288.2" y2="59.8"/>
						<line class="st12" x1="288.2" y1="56.4" x2="288.2" y2="56.6"/>
						<line class="st12" x1="288" y1="56.6" x2="288" y2="56.4"/>
						<line class="st12" x1="288" y1="63.2" x2="288" y2="61.9"/>
						<line class="st12" x1="288.2" y1="61.9" x2="288.2" y2="63.2"/>
						<line class="st12" x1="289.8" y1="56.4" x2="289.8" y2="56.6"/>
						<line class="st12" x1="289.8" y1="58.2" x2="289.8" y2="58.3"/>
						<line class="st12" x1="289.6" y1="63.3" x2="289.6" y2="61.9"/>
						<line class="st12" x1="289.6" y1="60.5" x2="289.6" y2="60.4"/>
						<line class="st12" x1="289.3" y1="56.4" x2="289.3" y2="56.6"/>
						<line class="st12" x1="289.3" y1="58.2" x2="289.3" y2="58.4"/>
						<line class="st12" x1="290.1" y1="63.3" x2="290.1" y2="61.9"/>
						<line class="st12" x1="290.3" y1="56.4" x2="290.3" y2="56.6"/>
						<line class="st12" x1="290.3" y1="58.4" x2="290.3" y2="58.5"/>
						<line class="st12" x1="289.8" y1="62.2" x2="289.8" y2="63.3"/>
						<line class="st12" x1="289.8" y1="60.4" x2="289.8" y2="60.5"/>
						<line class="st12" x1="289.8" y1="61.9" x2="289.8" y2="62.2"/>
						<line class="st12" x1="289.6" y1="56.6" x2="289.6" y2="56.4"/>
						<line class="st12" x1="289.6" y1="58.3" x2="289.6" y2="58.1"/>
						<line class="st12" x1="289.6" y1="56.6" x2="289.6" y2="56.6"/>
						<line class="st12" x1="289" y1="56.6" x2="289" y2="56.4"/>
						<line class="st12" x1="289" y1="58.6" x2="289" y2="58.2"/>
						<line class="st12" x1="289" y1="56.6" x2="289" y2="56.6"/>
						<line class="st12" x1="289" y1="63.3" x2="289" y2="61.9"/>
						<line class="st12" x1="289" y1="60.4" x2="289" y2="60.2"/>
						<line class="st12" x1="289.3" y1="62.2" x2="289.3" y2="63.3"/>
						<line class="st12" x1="289.3" y1="60.2" x2="289.3" y2="60.5"/>
						<line class="st12" x1="289.3" y1="61.9" x2="289.3" y2="62.2"/>
						<line class="st12" x1="290.1" y1="56.6" x2="290.1" y2="56.4"/>
						<line class="st12" x1="290.1" y1="58.4" x2="290.1" y2="58.3"/>
						<line class="st12" x1="290.1" y1="56.6" x2="290.1" y2="56.6"/>
						<line class="st12" x1="290.3" y1="61.9" x2="290.3" y2="63.3"/>
						<line class="st12" x1="289.3" y1="63.3" x2="289.1" y2="63.3"/>
						<line class="st12" x1="289" y1="63.2" x2="288.8" y2="63.2"/>
						<line class="st12" x1="288.7" y1="63.3" x2="288.6" y2="63.3"/>
						<line class="st12" x1="288.5" y1="63.2" x2="288.2" y2="63.2"/>
						<line class="st12" x1="288.2" y1="63.2" x2="288.2" y2="63.2"/>
						<line class="st12" x1="288" y1="63.3" x2="288.2" y2="63.3"/>
						<line class="st12" x1="288" y1="63.2" x2="288" y2="63.2"/>
						<line class="st12" x1="288" y1="63.2" x2="287.5" y2="63.2"/>
						<path class="st12" d="M286.9,62.7c0,0.3,0.2,0.5,0.5,0.5"/>
						<path class="st12" d="M287,57.5c0,1.8,0,3.5,0,5.3"/>
						<line class="st12" x1="291.9" y1="61.9" x2="291.9" y2="62.7"/>
						<path class="st12" d="M291.4,63.2c0.3,0,0.5-0.2,0.5-0.5"/>
						<line class="st12" x1="291.4" y1="63.2" x2="290.9" y2="63.2"/>
						<line class="st12" x1="290.8" y1="63.2" x2="290.8" y2="63.2"/>
						<line class="st12" x1="290.6" y1="63.3" x2="290.8" y2="63.3"/>
						<line class="st12" x1="290.6" y1="63.2" x2="290.6" y2="63.2"/>
						<line class="st12" x1="290.6" y1="63.2" x2="290.3" y2="63.2"/>
						<line class="st12" x1="290.3" y1="63.3" x2="290.1" y2="63.3"/>
						<line class="st12" x1="290.1" y1="63.2" x2="289.8" y2="63.2"/>
						<line class="st12" x1="289.8" y1="63.3" x2="289.6" y2="63.3"/>
						<line class="st12" x1="289.6" y1="63.2" x2="289.3" y2="63.2"/>
						<line class="st12" x1="287" y1="57" x2="287" y2="57.4"/>
						<line class="st12" x1="288.8" y1="62.2" x2="288.8" y2="63.3"/>
						<line class="st12" x1="288.8" y1="56.4" x2="288.8" y2="56.6"/>
						<line class="st12" x1="288.8" y1="58.3" x2="288.8" y2="60.3"/>
						<line class="st12" x1="288.8" y1="61.9" x2="288.8" y2="62.2"/>
						<line class="st12" x1="288.5" y1="63.3" x2="288.5" y2="61.9"/>
						<line class="st12" x1="288.5" y1="60.2" x2="288.5" y2="58.5"/>
						<line class="st12" x1="288.5" y1="56.6" x2="288.5" y2="56.4"/>
						<path class="st12" d="M290.6,59.9c0,0,0-0.1,0.1-0.1v-0.1c0.1-0.1,0.1-0.2,0.1-0.3"/>
						<line class="st12" x1="289.3" y1="56.4" x2="289.6" y2="56.4"/>
						<line class="st12" x1="290.9" y1="56.4" x2="291" y2="56.4"/>
						<path class="st12" d="M287,57L287,57L287,57v-0.2c0,0,0.1-0.1,0.1-0.2l0,0l0.1-0.1h0.1l0,0c0.1,0,0.6,0,0.7,0"/>
						<line class="st12" x1="288.2" y1="56.4" x2="288.5" y2="56.4"/>
						<line class="st12" x1="288.8" y1="56.4" x2="289" y2="56.4"/>
						<line class="st12" x1="289.8" y1="56.4" x2="290.1" y2="56.4"/>
						<line class="st12" x1="290.3" y1="56.4" x2="290.6" y2="56.4"/>
						<line class="st12" x1="290.8" y1="56.4" x2="290.6" y2="56.4"/>
						<line class="st12" x1="290.3" y1="56.3" x2="290.1" y2="56.3"/>
						<line class="st12" x1="289.8" y1="56.3" x2="289.6" y2="56.3"/>
						<line class="st12" x1="289.3" y1="56.3" x2="289.1" y2="56.3"/>
						<line class="st12" x1="288.7" y1="56.3" x2="288.6" y2="56.3"/>
						<line class="st12" x1="288.2" y1="56.4" x2="288" y2="56.4"/>
						<polyline class="st12" points="289.3,60.2 289.3,60.2 289.2,60.2 289.2,60.2 289.1,60.2 289.1,60.2 289,60.2 289,60.2 						
							"/>
						<polyline class="st12" points="289.8,60.4 289.8,60.3 289.8,60.3 289.7,60.3 289.7,60.3 289.6,60.3 289.6,60.3 289.6,60.4 
													"/>
						<polyline class="st12" points="290.3,60.2 290.2,60.2 290.2,60.3 290.1,60.3 290.1,60.3 						"/>
						<line class="st12" x1="290.6" y1="56.4" x2="290.6" y2="56.4"/>
						<line class="st12" x1="290.8" y1="56.4" x2="290.9" y2="56.4"/>
						<line class="st12" x1="290.1" y1="56.4" x2="290.1" y2="56.3"/>
						<line class="st12" x1="290.3" y1="56.3" x2="290.3" y2="56.4"/>
						<line class="st12" x1="289.6" y1="56.4" x2="289.6" y2="56.3"/>
						<line class="st12" x1="289.8" y1="56.3" x2="289.8" y2="56.4"/>
						<line class="st12" x1="289" y1="56.4" x2="289.1" y2="56.3"/>
						<line class="st12" x1="289.3" y1="56.3" x2="289.3" y2="56.4"/>
						<line class="st12" x1="288.5" y1="56.4" x2="288.6" y2="56.3"/>
						<polyline class="st12" points="288.7,56.3 288.8,56.3 288.8,56.4 						"/>
						<line class="st12" x1="288" y1="56.4" x2="288" y2="56.4"/>
						<line class="st12" x1="288.2" y1="56.4" x2="288.2" y2="56.4"/>
						<polyline class="st12" points="290.1,63.9 290.1,63.9 290.3,63.9 290.3,63.8 						"/>
						<path class="st12" d="M290.6,63.8c-0.1,0-0.2,0-0.3,0"/>
						<polyline class="st12" points="289.6,63.9 289.6,63.9 289.8,63.9 						"/>
						<line class="st12" x1="290.1" y1="63.9" x2="289.8" y2="63.9"/>
						<line class="st12" x1="289" y1="63.9" x2="289.3" y2="63.9"/>
						<line class="st12" x1="289.6" y1="63.9" x2="289.3" y2="63.9"/>
						<polyline class="st12" points="288.5,63.8 288.5,63.9 288.8,63.9 						"/>
						<line class="st12" x1="289" y1="63.9" x2="288.8" y2="63.9"/>
						<path class="st12" d="M288.2,63.8L288.2,63.8c-0.1,0-0.1,0-0.2,0"/>
						<path class="st12" d="M287,63.4L287,63.4L287,63.4L287,63.4L287,63.4L287,63.4L287,63.4L287,63.4L287,63.4L287,63.4L287,63.4
							L287,63.4c0.3,0.1,0.5,0.1,0.7,0.2"/>
						<line class="st12" x1="288" y1="63.8" x2="288" y2="63.8"/>
						<path class="st12" d="M288.5,63.8c-0.1,0-0.2,0-0.3,0"/>
						<line class="st12" x1="290.6" y1="64.1" x2="290.6" y2="63.8"/>
						<line class="st12" x1="288.2" y1="63.8" x2="288.2" y2="64.1"/>
						<path class="st12" d="M291.3,63.7c0.1,0,0.2,0,0.3,0l0,0l0,0l0,0l0,0l0,0l0,0l0,0l0,0l0,0l0,0"/>
						<path class="st12" d="M290.6,63.8L290.6,63.8h0.2"/>
						<path class="st12" d="M291.3,63.7c-0.1,0-0.3,0.1-0.5,0.1"/>
						<line class="st12" x1="289.8" y1="63.9" x2="289.8" y2="64.1"/>
						<line class="st12" x1="289.6" y1="64.1" x2="289.6" y2="63.9"/>
						<line class="st12" x1="289" y1="64.1" x2="289" y2="63.9"/>
						<line class="st12" x1="289.3" y1="63.9" x2="289.3" y2="64.1"/>
						<line class="st12" x1="290.1" y1="64.1" x2="290.1" y2="63.9"/>
						<line class="st12" x1="290.3" y1="63.8" x2="290.3" y2="64.1"/>
						<line class="st12" x1="290.9" y1="63.8" x2="290.9" y2="64.1"/>
						<line class="st12" x1="288.8" y1="63.9" x2="288.8" y2="64.1"/>
						<line class="st12" x1="288.5" y1="64.1" x2="288.5" y2="63.8"/>
						<line class="st12" x1="288" y1="64.1" x2="288" y2="63.8"/>
						<line class="st12" x1="289.1" y1="64.1" x2="289.1" y2="64.1"/>
						<line class="st12" x1="288" y1="64" x2="287.7" y2="64"/>
						<path class="st12" d="M290.6,63.9c-0.1,0-0.2,0-0.3,0"/>
						<path class="st12" d="M288.5,64c-0.1,0-0.2,0-0.3,0"/>
						<line class="st12" x1="289" y1="64" x2="288.8" y2="64"/>
						<line class="st12" x1="289.6" y1="64" x2="289.3" y2="64"/>
						<line class="st12" x1="290.1" y1="64" x2="289.8" y2="64"/>
						<path class="st12" d="M291.8,63.4c0,0,0,0.1,0,0.2c-0.1,0.1-0.1,0.1-0.2,0.2c-0.1,0.1-0.3,0.1-0.5,0.2"/>
						<path class="st12" d="M287.7,63.9c-0.1,0-0.3-0.1-0.4-0.2v-0.1h-0.1"/>
						<polyline class="st12" points="287.2,63.7 287.1,63.6 287,63.4 						"/>
						<line class="st12" x1="291.2" y1="64" x2="290.9" y2="64"/>
						<line class="st12" x1="290.8" y1="64.1" x2="290.6" y2="64.1"/>
						<line class="st12" x1="290.3" y1="64.1" x2="290.1" y2="64.1"/>
						<line class="st12" x1="289.8" y1="64.1" x2="289.6" y2="64.1"/>
						<line class="st12" x1="289.3" y1="64.1" x2="289.1" y2="64.1"/>
						<line class="st12" x1="288.7" y1="64.1" x2="288.6" y2="64.1"/>
						<line class="st12" x1="288.2" y1="64.1" x2="288" y2="64.1"/>
						<line class="st12" x1="290.6" y1="64.1" x2="290.6" y2="64.1"/>
						<polyline class="st12" points="290.9,64.1 290.8,64.1 290.8,64.1 						"/>
						<line class="st12" x1="290.1" y1="64.1" x2="290.1" y2="64.1"/>
						<line class="st12" x1="290.3" y1="64.1" x2="290.3" y2="64.1"/>
						<line class="st12" x1="289.6" y1="64.1" x2="289.6" y2="64.1"/>
						<line class="st12" x1="289.8" y1="64.1" x2="289.8" y2="64.1"/>
						<line class="st12" x1="289.1" y1="64.1" x2="289" y2="64.1"/>
						<line class="st12" x1="289.3" y1="64.1" x2="289.3" y2="64.1"/>
						<line class="st12" x1="288.6" y1="64.1" x2="288.5" y2="64.1"/>
						<line class="st12" x1="288.8" y1="64.1" x2="288.7" y2="64.1"/>
						<polyline class="st12" points="288.2,64.1 288.2,64.1 288.2,64.1 						"/>
						<line class="st12" x1="288" y1="64.1" x2="288" y2="64.1"/>
						<path class="st12" d="M289.6,59.1c0.2,0,0.3,0,0.5,0"/>
						<path class="st12" d="M290.9,63.8c-0.1,0-0.1,0-0.2,0l0,0"/>
						<polyline class="st12" points="290.1,63.9 290.1,63.9 290.3,63.8 						"/>
						<line class="st12" x1="289.8" y1="63.9" x2="289.8" y2="63.9"/>
						<path class="st12" d="M289.6,63.8h0.2"/>
						<line class="st12" x1="289.6" y1="63.9" x2="289.6" y2="63.9"/>
						<line class="st12" x1="289.3" y1="63.9" x2="289.3" y2="63.9"/>
						<path class="st12" d="M289,63.8h0.2"/>
						<line class="st12" x1="289.1" y1="63.9" x2="289" y2="63.9"/>
						<path class="st12" d="M288.8,63.8h-0.2"/>
						<path class="st12" d="M288.2,63.8L288.2,63.8c-0.1,0-0.1,0-0.2,0"/>
						<path class="st12" d="M286.9,57.4L286.9,57.4"/>
						<path class="st12" d="M287,57.5c0,1.8,0,3.5,0,5.3"/>
						<path class="st12" d="M286.9,62.7c0,0.3,0.2,0.5,0.5,0.5"/>
						<line class="st12" x1="288" y1="63.2" x2="287.5" y2="63.2"/>
						<line class="st12" x1="288" y1="63.3" x2="288.2" y2="63.3"/>
						<line class="st12" x1="288.5" y1="63.2" x2="288.2" y2="63.2"/>
						<line class="st12" x1="288.6" y1="63.3" x2="288.7" y2="63.3"/>
						<line class="st12" x1="289" y1="63.2" x2="288.8" y2="63.2"/>
						<line class="st12" x1="289.1" y1="63.3" x2="289.3" y2="63.3"/>
						<line class="st12" x1="289.6" y1="63.2" x2="289.3" y2="63.2"/>
						<line class="st12" x1="289.6" y1="63.3" x2="289.8" y2="63.3"/>
						<line class="st12" x1="290.1" y1="63.2" x2="289.8" y2="63.2"/>
						<line class="st12" x1="290.1" y1="63.3" x2="290.3" y2="63.3"/>
						<line class="st12" x1="290.6" y1="63.2" x2="290.3" y2="63.2"/>
						<line class="st12" x1="290.6" y1="63.3" x2="290.8" y2="63.3"/>
						<line class="st12" x1="291.4" y1="63.2" x2="290.9" y2="63.2"/>
						<path class="st12" d="M291.4,63.2c0.3,0,0.5-0.2,0.5-0.5"/>
						<line class="st12" x1="291.9" y1="61.9" x2="291.9" y2="62.7"/>
						<line class="st12" x1="289.8" y1="63.3" x2="289.8" y2="63.9"/>
						<line class="st12" x1="289.6" y1="63.9" x2="289.6" y2="63.3"/>
						<line class="st12" x1="289" y1="63.9" x2="289" y2="63.3"/>
						<line class="st12" x1="289.3" y1="63.3" x2="289.3" y2="63.9"/>
						<line class="st12" x1="290.1" y1="63.9" x2="290.1" y2="63.3"/>
						<line class="st12" x1="290.3" y1="63.3" x2="290.3" y2="63.8"/>
						<line class="st12" x1="290.6" y1="63.8" x2="290.6" y2="63.2"/>
						<line class="st12" x1="290.9" y1="63.2" x2="290.9" y2="63.8"/>
						<line class="st12" x1="288.8" y1="63.3" x2="288.8" y2="63.9"/>
						<line class="st12" x1="288.5" y1="63.8" x2="288.5" y2="63.3"/>
						<line class="st12" x1="288.2" y1="63.2" x2="288.2" y2="63.8"/>
						<line class="st12" x1="288" y1="63.8" x2="288" y2="63.2"/>
						<polyline class="st12" points="287,63.4 287,63.3 287,63.2 287,62.8 						"/>
						<path class="st12" d="M291.9,61.9c0,0.5,0,1-0.1,1.4"/>
						<path class="st12" d="M287,62.8c0-0.7,0-2.1,0-2.8"/>
						<path class="st12" d="M288.5,63.8c-0.1,0-0.2,0-0.3,0"/>
						<path class="st12" d="M289,63.8c-0.1,0-0.2,0-0.3,0"/>
						<line class="st12" x1="289.6" y1="63.8" x2="289.3" y2="63.8"/>
						<path class="st12" d="M290.1,63.8c-0.1,0-0.2,0-0.3,0"/>
						<path class="st12" d="M290.6,63.8c-0.1,0-0.2,0-0.3,0"/>
						<path class="st12" d="M291.8,63.4L291.8,63.4l-0.1,0.2l0,0c0,0,0,0.1-0.1,0.1c-0.2,0-0.5,0.1-0.7,0.1"/>
						<path class="st12" d="M288,63.8c-0.2,0-0.5-0.1-0.7-0.1c0,0,0,0-0.1-0.1l0,0l0,0l0,0l0,0c0,0-0.1-0.1-0.1-0.2"/>
						<polyline class="st12" points="295.1,56.6 295,56.7 294.8,56.7 						"/>
						<polyline class="st12" points="290.6,57.4 290.7,57.3 290.8,57.3 290.9,57.4 290.8,57.5 290.7,57.5 290.6,57.4 						"/>
						<path class="st12" d="M290.4,57.6c0,0.2,0.2,0.3,0.4,0.3c0.1,0,0.2-0.1,0.3-0.3"/>
						<polyline class="st12" points="290.9,57.5 290.9,57.4 290.8,57.4 290.8,57.3 						"/>
						<polyline class="st12" points="290.8,57.4 290.7,57.4 290.7,57.3 						"/>
						<polyline class="st12" points="290.7,57.4 290.6,57.4 290.6,57.4 290.6,57.5 						"/>
						<path class="st12" d="M291.1,57.6c0-0.2,0-0.3-0.1-0.4c-0.1,0-0.1,0-0.2,0s-0.2,0-0.3,0.1c0,0,0,0.1-0.1,0.1v0.3"/>
						<polyline class="st12" points="288,57.5 288.1,57.4 288.3,57.4 288.3,57.5 288.3,57.6 288.1,57.6 288,57.5 						"/>
						<path class="st12" d="M287.9,57.7c0,0.2,0.2,0.3,0.4,0.3c0.1,0,0.2-0.1,0.3-0.3"/>
						<polyline class="st12" points="288.3,57.5 288.3,57.5 288.3,57.5 288.3,57.5 288.3,57.4 						"/>
						<polyline class="st12" points="288.3,57.5 288.1,57.5 288.1,57.4 						"/>
						<polyline class="st12" points="288.1,57.5 288.1,57.5 288.1,57.5 						"/>
						<path class="st12" d="M288.5,57.7v-0.3l-0.1-0.1c-0.1,0-0.2-0.1-0.3-0.1c0,0-0.1,0-0.2,0c-0.1,0.1-0.2,0.3-0.1,0.4"/>
						<polyline class="st12" points="290.6,60.6 290.7,60.5 290.8,60.5 290.9,60.6 290.8,60.8 290.7,60.8 290.6,60.6 						"/>
						<path class="st12" d="M290.4,60.8c0,0.2,0.2,0.3,0.4,0.3c0.1,0,0.2-0.1,0.3-0.3"/>
						<polyline class="st12" points="290.9,60.7 290.8,60.6 290.8,60.5 						"/>
						<polyline class="st12" points="290.8,60.6 290.7,60.6 290.7,60.5 						"/>
						<polyline class="st12" points="290.7,60.6 290.6,60.6 290.6,60.6 290.6,60.7 						"/>
						<path class="st12" d="M291.1,60.8v-0.2c-0.1,0-0.1-0.1-0.1-0.2c-0.1,0-0.2,0-0.3,0l-0.1,0.1c0,0,0,0.2,0,0.3"/>
						<polyline class="st12" points="288,60.5 288.1,60.4 288.3,60.4 288.3,60.5 288.3,60.6 288.1,60.6 288,60.5 						"/>
						<path class="st12" d="M287.9,60.7c0,0.2,0.2,0.3,0.4,0.3c0.1,0,0.2-0.1,0.3-0.3"/>
						<path class="st12" d="M288.3,60.6L288.3,60.6l-0.1-0.2"/>
						<polyline class="st12" points="288.3,60.5 288.1,60.5 288.1,60.4 						"/>
						<polyline class="st12" points="288.1,60.5 288.1,60.5 288.1,60.5 288.1,60.6 						"/>
						<path class="st12" d="M288.5,60.7v-0.3c0-0.1-0.1-0.1-0.2-0.2h-0.1l0,0c-0.2,0-0.3,0.2-0.3,0.3c0,0,0,0,0,0.1"/>
						<path class="st12" d="M291.4,60.5l-0.1-0.1"/>
						<path class="st12" d="M291.2,60.5c0.1,0,0.2,0,0.2-0.1s0-0.2-0.1-0.2h-0.1"/>
						<line class="st12" x1="291.2" y1="60.4" x2="291.1" y2="60.4"/>
						<line class="st12" x1="291.1" y1="60.2" x2="291.2" y2="60.2"/>
						<path class="st12" d="M291.1,60.4H291"/>
						<path class="st12" d="M291,60.5L291,60.5"/>
						<path class="st12" d="M291.1,60.2c-0.1,0-0.2,0.1-0.2,0.2l0,0"/>
						<line class="st12" x1="291.2" y1="60.5" x2="291.1" y2="60.5"/>
						<path class="st12" d="M287.9,60.4h-0.1"/>
						<path class="st12" d="M288,60.3c0-0.1-0.1-0.1-0.2-0.1"/>
						<path class="st12" d="M287.8,60.5L287.8,60.5"/>
						<line class="st12" x1="287.8" y1="60.4" x2="287.7" y2="60.4"/>
						<line class="st12" x1="287.7" y1="60.2" x2="287.8" y2="60.2"/>
						<path class="st12" d="M287.7,60.4c-0.1,0-0.1,0-0.2,0.1"/>
						<path class="st12" d="M287.7,60.2c-0.1,0-0.2,0-0.2,0.1s0,0.2,0.1,0.2h0.1"/>
						<line class="st12" x1="287.8" y1="60.5" x2="287.7" y2="60.5"/>
						<path class="st12" d="M288,58.2c0,0-0.1-0.1-0.2-0.1"/>
						<path class="st12" d="M287.8,58.2c0.1,0,0.2,0,0.2-0.1s0-0.2-0.1-0.2h-0.1"/>
						<line class="st12" x1="287.8" y1="58.1" x2="287.7" y2="58.1"/>
						<line class="st12" x1="287.7" y1="57.9" x2="287.8" y2="57.9"/>
						<path class="st12" d="M287.7,58.1c-0.1,0-0.1,0-0.2,0.1"/>
						<path class="st12" d="M287.7,57.8c-0.1,0-0.2,0-0.2,0.1s0,0.2,0.1,0.2h0.1"/>
						<line class="st12" x1="287.8" y1="58.2" x2="287.7" y2="58.2"/>
						<line class="st12" x1="291.2" y1="58.2" x2="291.1" y2="58.2"/>
						<path class="st12" d="M291.4,58.2l-0.1-0.1"/>
						<path class="st12" d="M291.2,58.2c0.1,0,0.2,0,0.2-0.1s0-0.2-0.1-0.2h-0.1"/>
						<line class="st12" x1="291.2" y1="58.1" x2="291.1" y2="58.1"/>
						<line class="st12" x1="291.1" y1="57.9" x2="291.2" y2="57.9"/>
						<path class="st12" d="M291.1,58.1c-0.1,0-0.1,0-0.1,0.1"/>
						<path class="st12" d="M291.1,57.8c-0.1,0-0.2,0-0.2,0.1s0,0.2,0.1,0.2h0.1"/>
						<line class="st12" x1="290.8" y1="58.1" x2="290.7" y2="58.1"/>
						<path class="st12" d="M288,59.2c0,1.7,2.8,1.7,2.8,0S288,57.5,288,59.2"/>
						<path class="st12" d="M290.8,59.3c-0.1-1.5-2.7-1.5-2.8,0"/>
						<path class="st12" d="M287.5,56.7c-0.3,0-0.5,0.2-0.5,0.5"/>
						<line class="st12" x1="291" y1="56.6" x2="287.5" y2="56.6"/>
						<line class="st12" x1="296.5" y1="61.2" x2="296.5" y2="59.3"/>
						<line class="st12" x1="296.5" y1="61.5" x2="296.5" y2="61.2"/>
						<path class="st12" d="M296,61.9c0.3,0,0.5-0.2,0.5-0.5l0,0"/>
						<path class="st12" d="M296,61.7c0.3,0,0.5-0.2,0.5-0.5"/>
						<line class="st12" x1="296" y1="61.9" x2="287.5" y2="61.9"/>
						<line class="st12" x1="287.5" y1="61.7" x2="296" y2="61.7"/>
						<path class="st12" d="M287,61.5c0,0.3,0.3,0.5,0.5,0.5l0,0"/>
						<path class="st12" d="M287,61.3c0,0.3,0.3,0.5,0.5,0.5"/>
						<polyline class="st12" points="287,61.5 287,61.2 287,57.1 						"/>
						<rect x="305.7" y="308.3" class="st12" width="294.5" height="138.4"/>
						<rect x="308.8" y="311.4" class="st12" width="288.3" height="132.2"/>
						<rect x="321.7" y="311.4" class="st12" width="15" height="135.4"/>
						<rect x="350.1" y="311.4" class="st12" width="15" height="135.4"/>
						<rect x="378.4" y="311.4" class="st12" width="15" height="135.4"/>
						<rect x="406.8" y="311.4" class="st12" width="15" height="135.4"/>
						<rect x="435.2" y="311.4" class="st12" width="15" height="135.4"/>
						<rect x="463.6" y="311.4" class="st12" width="15" height="135.4"/>
					</g>
				</g>
			</g>
		</g>
		<path class="st9" d="M321.4,9.4c0.1-0.9,0.1-1.8,0.1-2.9h0.8c0,1.1-0.1,2.2-0.1,2.9h5.2c0,2.7-0.1,5.4-0.5,8.1
			c-0.2,0.8-0.6,1.1-1.8,1.1c-0.5,0-1-0.1-1.6-0.1l-0.2-0.8c0.7,0.1,1.3,0.1,2,0.1s0.8-0.1,0.9-0.9c0.3-2.3,0.4-4.5,0.4-6.8h-4.4
			c-0.1,1.8-0.5,3.5-1.3,5.1c-0.8,1.4-2,2.6-3.4,3.4L317,18c1.5-0.8,2.7-2,3.4-3.5c0.5-1.4,0.9-2.8,1-4.3H317V9.4H321.4z"/>
		<path class="st9" d="M333.5,9.3c1.4,0.9,2.8,1.8,4.1,2.8c1.1-1.6,2-3.3,2.7-5.2l0.8,0.4c-0.8,1.9-1.7,3.6-2.9,5.3
			c1.3,1,2.6,2.1,3.7,3.2l-0.6,0.6c-1.1-1.1-2.3-2.2-3.6-3.2c-1.6,2.1-3.7,3.9-6,5.3l-0.5-0.6c2.3-1.3,4.3-3.1,5.9-5.2
			c-1.3-1-2.6-2-4-2.8L333.5,9.3z"/>
		<path class="st9" d="M356.8,10.7c-0.5,5.1-2.5,7.1-7.8,8l-0.4-0.7c4.7-0.6,6.8-2.5,7.2-6.6h-10v-0.7H356.8z M355.6,7.3V8h-8.7V7.3
			H355.6z"/>
		<path class="st9" d="M365,19.6h-0.8v-3.3c-1.6,0.5-3.2,0.8-4.8,1.1l-0.3-0.8c0.9-0.1,1.1-0.2,1.5-0.2v-9h-1.3V6.7h6.7v0.7h-1
			L365,19.6L365,19.6z M361.3,7.4v2.3h2.9V7.4H361.3z M361.3,10.4v2.2h2.9v-2.3L361.3,10.4z M361.3,13.4v3c1.1-0.2,2.3-0.4,2.9-0.6
			v-2.5L361.3,13.4z M372.3,8.4c-0.3,2.4-1.1,4.7-2.3,6.8c0.8,1.3,1.8,2.5,2.9,3.5l-0.5,0.7c-1.1-1-2-2.2-2.8-3.5
			c-0.9,1.4-2.1,2.6-3.5,3.6l-0.5-0.7c1.4-1,2.6-2.2,3.5-3.7c-1.2-2.1-1.9-4.3-2.3-6.7H366V7.8h5.8L372.3,8.4z M367.6,8.5
			c0.3,2.1,1,4.1,2,5.9c1-1.8,1.7-3.9,1.9-5.9H367.6z"/>
		<path class="st9" d="M376.6,19.6h-0.8v-8.7c-0.5,1-1.2,1.9-1.9,2.8l-0.4-0.7c1.7-2.1,2.9-4.5,3.6-7.1l0.8,0.2
			c-0.4,1.1-0.8,2.2-1.3,3.3L376.6,19.6z M387.2,9.4v0.7h-2.6v8.3c0,0.8-0.3,1.1-1.3,1.1c-0.7,0-1.4,0-2-0.1l-0.2-0.8
			c0.7,0.1,1.6,0.2,2.2,0.2c0.4,0,0.5-0.1,0.5-0.5v-8.1h-6.5V9.4h6.5V5.8h0.8v3.5L387.2,9.4z M380.8,15.7c-0.6-1.3-1.2-2.5-2-3.7
			l0.6-0.5c0.8,1.2,1.5,2.4,2.1,3.7L380.8,15.7z"/>
		<path class="st9" d="M390.9,19.6h-0.8v-8.7c-0.5,1-1.1,1.9-1.8,2.7l-0.4-0.7c1.6-2.1,2.7-4.5,3.4-7.1l0.8,0.2
			c-0.3,1.1-0.7,2.2-1.2,3.3V19.6z M397.3,18L397.3,18c0.7-2.5,1.3-4.9,1.7-7.4l0.8,0.2c-0.4,2.5-1,4.9-1.8,7.3h3.6v0.7h-10v-0.7
			h5.6L397.3,18z M401.2,9.1v0.7H392V9.1h4V6h0.8v3.1H401.2z M394.7,17.5c-0.4-2.2-0.8-4.3-1.5-6.4l0.7-0.3c0.6,2.1,1.1,4.2,1.5,6.3
			L394.7,17.5z"/>
		<path class="st9" d="M410.1,9.1c0,0.2-0.1,0.7-0.2,0.9h6.2v0.7h-6.4c-0.1,0.5-0.2,0.7-0.3,0.9h4.7v5.8h-7.9v-5.8h2.4
			c0.1-0.3,0.2-0.5,0.3-0.9h-6.4V10h6.6V9.9l0,0c0.1-0.3,0.1-0.5,0.2-0.8H404V6.3h11v2.8H410.1z M416.2,18.3V19h-11.8v0.7h-0.8V12
			h0.8v6.3C404.4,18.3,416.2,18.3,416.2,18.3z M404.8,8.4h2.6V6.9h-2.6V8.4z M407,13.3h6.4v-1H407V13.3z M407,15h6.4v-1H407V15z
			 M407,16.8h6.4v-1.1H407V16.8z M408.2,8.4h2.6V6.9h-2.6V8.4z M414.2,6.9h-2.7v1.5h2.7V6.9z"/>
		<path class="st14" d="M291,70.3L291,70.3c-5.8,0-10.4-4.7-10.4-10.4s4.7-10.4,10.4-10.4c5.8,0,10.4,4.7,10.4,10.4
			S296.8,70.3,291,70.3L291,70.3z"/>
	</g>
</g>
</svg>
