<svg xmlns="http://www.w3.org/2000/svg" xmlns:xlink="http://www.w3.org/1999/xlink" viewBox="0 0 145.3 140.77"><defs><style>.cls-1{isolation:isolate;}.cls-2{fill:#fcddde;}.cls-2,.cls-38{stroke:#ed1c24;}.cls-2,.cls-3,.cls-38,.cls-40{stroke-miterlimit:10;}.cls-2,.cls-3{stroke-width:0.3px;}.cls-3{fill:#e5f5fb;stroke:#009edb;}.cls-4{fill:#353535;}.cls-5{fill:#161715;}.cls-6{fill:#1f201f;}.cls-7{fill:#8d8a8e;}.cls-8{fill:#59595b;}.cls-9{fill:#3b3a3b;}.cls-10{fill:url(#linear-gradient);}.cls-11{fill:#d2d2d2;}.cls-12{fill:url(#linear-gradient-2);}.cls-13{fill:#2b343a;}.cls-14,.cls-20,.cls-22{fill:#d4dce1;}.cls-15,.cls-16,.cls-17{fill:#82919c;}.cls-113,.cls-121,.cls-125,.cls-131,.cls-16,.cls-17,.cls-20,.cls-22,.cls-25,.cls-29,.cls-41,.cls-72,.cls-79,.cls-80,.cls-83{mix-blend-mode:multiply;}.cls-16,.cls-18,.cls-20,.cls-25,.cls-33,.cls-34{opacity:0.5;}.cls-113,.cls-121,.cls-125,.cls-131,.cls-17,.cls-19,.cls-29,.cls-37,.cls-80{opacity:0.2;}.cls-18,.cls-19,.cls-30,.cls-31,.cls-37,.cls-38{fill:#fff;}.cls-18,.cls-19,.cls-30{mix-blend-mode:overlay;}.cls-21{fill:#9d9e9b;}.cls-23{fill:#444d50;}.cls-24{fill:#171d1f;}.cls-26{fill:#556165;}.cls-27{fill:#7c7c7a;}.cls-28{fill:#e8e6e7;}.cls-30,.cls-41,.cls-79{opacity:0.1;}.cls-32,.cls-33{fill:#4a585e;}.cls-34,.cls-35{fill:#3c4a4f;}.cls-36{fill:#b8c6ca;}.cls-38{stroke-width:0.51px;}.cls-39{fill:#ed1c24;}.cls-40{fill:none;stroke:#ef5b88;stroke-width:0.5px;}.cls-42{fill:#2e373a;}.cls-43{fill:url(#linear-gradient-3);}.cls-44{fill:#d0d2d4;}.cls-45{fill:url(#linear-gradient-4);}.cls-46{fill:#eaecee;}.cls-47{fill:#0080ff;}.cls-48{fill:#9d9fa1;}.cls-49{fill:url(#linear-gradient-5);}.cls-50{fill:url(#linear-gradient-6);}.cls-51{fill:url(#linear-gradient-7);}.cls-52{fill:url(#linear-gradient-8);}.cls-53{fill:url(#linear-gradient-9);}.cls-54{fill:url(#linear-gradient-10);}.cls-55{fill:url(#linear-gradient-11);}.cls-56{fill:url(#linear-gradient-12);}.cls-57{fill:#555e61;}.cls-58{fill:url(#linear-gradient-13);}.cls-59{fill:url(#linear-gradient-14);}.cls-60{fill:url(#linear-gradient-15);}.cls-61{fill:#222b2e;}.cls-62{fill:url(#linear-gradient-16);}.cls-63{fill:url(#linear-gradient-17);}.cls-64{fill:url(#linear-gradient-18);}.cls-65{fill:url(#linear-gradient-19);}.cls-66{fill:url(#linear-gradient-20);}.cls-67{fill:url(#linear-gradient-21);}.cls-68{fill:url(#linear-gradient-22);}.cls-69{fill:#2f383b;}.cls-70{fill:url(#linear-gradient-23);}.cls-71{fill:#aebfc8;}.cls-72{opacity:0.4;fill:url(#_2);}.cls-73{fill:url(#linear-gradient-24);}.cls-74{fill:url(#linear-gradient-25);}.cls-75{fill:url(#linear-gradient-26);}.cls-76{fill:#333e40;}.cls-77{fill:#d77728;}.cls-78{fill:#ff3f39;}.cls-79{fill:url(#_2-2);}.cls-80{fill:url(#_2-3);}.cls-81{fill:url(#linear-gradient-27);}.cls-82{fill:#ff736d;}.cls-83{opacity:0.15;}.cls-84{fill:#673a1a;}.cls-85{fill:#000508;}.cls-86{fill:#005d8b;}.cls-87{fill:#e5251f;}.cls-88{fill:#0b6a98;}.cls-89{fill:#586770;}.cls-90{fill:#d88f69;}.cls-91{fill:#f2a983;}.cls-92{fill:url(#radial-gradient);}.cls-93{fill:#485154;}.cls-94{fill:#e4ac86;}.cls-95{fill:url(#linear-gradient-28);}.cls-96{fill:url(#linear-gradient-29);}.cls-97{fill:url(#linear-gradient-30);}.cls-98{fill:url(#linear-gradient-31);}.cls-99{fill:url(#linear-gradient-32);}.cls-100{fill:url(#linear-gradient-33);}.cls-101{fill:url(#linear-gradient-34);}.cls-102{fill:url(#linear-gradient-35);}.cls-103{fill:url(#linear-gradient-36);}.cls-104{fill:url(#linear-gradient-37);}.cls-105{fill:url(#linear-gradient-38);}.cls-106{fill:url(#linear-gradient-39);}.cls-107{fill:url(#linear-gradient-40);}.cls-108{fill:url(#linear-gradient-41);}.cls-109{fill:url(#linear-gradient-42);}.cls-110{fill:url(#linear-gradient-43);}.cls-111{fill:#414e52;}.cls-112{fill:url(#linear-gradient-44);}.cls-113{fill:url(#_2-4);}.cls-114{fill:url(#_6);}.cls-115{fill:url(#_14);}.cls-116{fill:url(#linear-gradient-45);}.cls-117{fill:url(#linear-gradient-46);}.cls-118{fill:url(#linear-gradient-47);}.cls-119,.cls-120{mix-blend-mode:screen;opacity:0.7;}.cls-119{fill:url(#linear-gradient-48);}.cls-120{fill:url(#linear-gradient-49);}.cls-121{fill:url(#_2-5);}.cls-122{fill:url(#linear-gradient-50);}.cls-123{fill:url(#linear-gradient-51);}.cls-124{fill:#dee5e9;}.cls-126{fill:url(#linear-gradient-52);}.cls-127{fill:#b8bfc3;}.cls-128{fill:url(#linear-gradient-53);}.cls-129{fill:#1a2527;}.cls-130{fill:url(#linear-gradient-54);}.cls-131{fill:url(#_2-6);}.cls-132{fill:#4d585a;}.cls-133{fill:url(#linear-gradient-55);}.cls-134{fill:url(#linear-gradient-56);}.cls-135{fill:url(#linear-gradient-57);}.cls-136{fill:url(#linear-gradient-58);}.cls-137{fill:url(#linear-gradient-59);}.cls-138{fill:url(#radial-gradient-2);}.cls-139{fill:url(#radial-gradient-3);}</style><linearGradient id="linear-gradient" x1="55.97" y1="106.14" x2="49.72" y2="112.81" gradientUnits="userSpaceOnUse"><stop offset="0" stop-color="#b9b8ba"/><stop offset="1" stop-color="#d5d5d5"/></linearGradient><linearGradient id="linear-gradient-2" x1="111.8" y1="73.16" x2="105.55" y2="79.84" xlink:href="#linear-gradient"/><linearGradient id="linear-gradient-3" x1="578.46" y1="86.79" x2="580.01" y2="83.16" gradientTransform="translate(-442.21)" gradientUnits="userSpaceOnUse"><stop offset="0" stop-color="#eff2f5"/><stop offset="1" stop-color="#86898b"/></linearGradient><linearGradient id="linear-gradient-4" x1="577.17" y1="86.19" x2="577.69" y2="84.2" xlink:href="#linear-gradient-3"/><linearGradient id="linear-gradient-5" x1="356.01" y1="119.63" x2="356.01" y2="118.5" gradientTransform="matrix(0.87, -0.5, 0, 1, -171.63, 144.91)" xlink:href="#linear-gradient-3"/><linearGradient id="linear-gradient-6" x1="357.43" y1="118.65" x2="356.26" y2="117.18" gradientTransform="matrix(0.87, -0.5, 0, 1, -171.63, 144.91)" xlink:href="#linear-gradient-3"/><linearGradient id="linear-gradient-7" x1="355.88" y1="117.72" x2="355.88" y2="115.58" gradientTransform="matrix(0.87, -0.5, 0, 1, -171.63, 144.91)" xlink:href="#linear-gradient-3"/><linearGradient id="linear-gradient-8" x1="354.83" y1="117.55" x2="354.83" y2="115.17" gradientTransform="matrix(0.87, -0.5, 0, 1, -171.63, 144.91)" xlink:href="#linear-gradient-3"/><linearGradient id="linear-gradient-9" x1="353.71" y1="118.78" x2="354.58" y2="117.49" gradientTransform="matrix(0.87, -0.5, 0, 1, -171.63, 144.91)" xlink:href="#linear-gradient-3"/><linearGradient id="linear-gradient-10" x1="354.98" y1="119.8" x2="354.98" y2="118.42" gradientTransform="matrix(0.87, -0.5, 0, 1, -171.63, 144.91)" xlink:href="#linear-gradient-3"/><linearGradient id="linear-gradient-11" x1="355.47" y1="117.19" x2="355.47" y2="118.92" gradientTransform="matrix(0.87, -0.5, 0, 1, -171.63, 144.91)" xlink:href="#linear-gradient-3"/><linearGradient id="linear-gradient-12" x1="355.47" y1="117.54" x2="355.47" y2="118.66" gradientTransform="matrix(0.87, -0.5, 0, 1, -171.63, 144.91)" xlink:href="#linear-gradient-3"/><linearGradient id="linear-gradient-13" x1="578.25" y1="81.36" x2="575.32" y2="88.84" gradientTransform="translate(-442.21)" gradientUnits="userSpaceOnUse"><stop offset="0" stop-color="#555e61"/><stop offset="1" stop-color="#222b2e"/></linearGradient><linearGradient id="linear-gradient-14" x1="355.69" y1="120.19" x2="355.69" y2="115.94" gradientTransform="matrix(0.87, -0.5, 0, 1, -171.63, 144.91)" xlink:href="#linear-gradient-3"/><linearGradient id="linear-gradient-15" x1="578.81" y1="87.67" x2="578.81" y2="83.34" xlink:href="#linear-gradient-3"/><linearGradient id="linear-gradient-16" x1="672.19" y1="467.82" x2="673.09" y2="471.21" gradientTransform="matrix(0.87, -0.5, 0, 1, -448.03, -45.03)" gradientUnits="userSpaceOnUse"><stop offset="0" stop-color="#485154"/><stop offset="1" stop-color="#151e21"/></linearGradient><linearGradient id="linear-gradient-17" x1="673.25" y1="468.85" x2="672.67" y2="467.44" xlink:href="#linear-gradient-16"/><linearGradient id="linear-gradient-18" x1="802.86" y1="268.97" x2="803.72" y2="270.46" gradientTransform="matrix(0.98, -0.2, 0.2, 0.98, -703.68, -20.23)" gradientUnits="userSpaceOnUse"><stop offset="0" stop-color="#9ea5a9"/><stop offset="0.02" stop-color="#aab1b5"/><stop offset="0.06" stop-color="#c1c8cc"/><stop offset="0.11" stop-color="#d1d8dc"/><stop offset="0.16" stop-color="#dbe2e6"/><stop offset="0.22" stop-color="#dee5e9"/><stop offset="0.4" stop-color="#dbe2e6"/><stop offset="0.54" stop-color="#d1d8dc"/><stop offset="0.67" stop-color="#c0c7cb"/><stop offset="0.8" stop-color="#a8afb3"/><stop offset="0.84" stop-color="#9ea5a9"/><stop offset="1" stop-color="#6f7980"/></linearGradient><linearGradient id="linear-gradient-19" x1="799.42" y1="270.8" x2="800.32" y2="272.36" gradientTransform="matrix(0.98, -0.2, 0.2, 0.98, -703.68, -20.23)" gradientUnits="userSpaceOnUse"><stop offset="0" stop-color="#858c90"/><stop offset="0.02" stop-color="#91989c"/><stop offset="0.06" stop-color="#a8afb3"/><stop offset="0.11" stop-color="#b8bfc3"/><stop offset="0.16" stop-color="#c2c9cd"/><stop offset="0.22" stop-color="#c5ccd0"/><stop offset="0.4" stop-color="#c2c9cd"/><stop offset="0.54" stop-color="#b8bfc3"/><stop offset="0.67" stop-color="#a7aeb2"/><stop offset="0.8" stop-color="#8f969a"/><stop offset="0.84" stop-color="#858c90"/><stop offset="1" stop-color="#566067"/></linearGradient><linearGradient id="linear-gradient-20" x1="568.54" y1="90.98" x2="570.7" y2="83.5" gradientTransform="translate(-442.21)" xlink:href="#linear-gradient-16"/><linearGradient id="linear-gradient-21" x1="569.76" y1="90.96" x2="570.93" y2="86.91" gradientTransform="translate(-442.21)" xlink:href="#linear-gradient-16"/><linearGradient id="linear-gradient-22" x1="569.04" y1="90.22" x2="564.23" y2="87.42" gradientTransform="translate(-442.21)" xlink:href="#linear-gradient-16"/><linearGradient id="linear-gradient-23" x1="569.92" y1="90.83" x2="565.89" y2="88.49" gradientTransform="translate(-442.21)" gradientUnits="userSpaceOnUse"><stop offset="0" stop-color="#3b4447"/><stop offset="1" stop-color="#081114"/></linearGradient><linearGradient id="_2" x1="568.51" y1="92.26" x2="563.87" y2="89.57" gradientTransform="translate(-442.21)" gradientUnits="userSpaceOnUse"><stop offset="0" stop-color="#fff"/><stop offset="1"/></linearGradient><linearGradient id="linear-gradient-24" x1="584.88" y1="71.7" x2="563.76" y2="85.08" gradientTransform="translate(-442.21)" xlink:href="#linear-gradient-16"/><linearGradient id="linear-gradient-25" x1="567.03" y1="83.82" x2="575.45" y2="75.86" gradientTransform="translate(-442.21)" xlink:href="#linear-gradient-16"/><linearGradient id="linear-gradient-26" x1="565.94" y1="78.81" x2="579.83" y2="78.81" xlink:href="#linear-gradient-23"/><linearGradient id="_2-2" x1="576.08" y1="84.82" x2="576.98" y2="85.87" xlink:href="#_2"/><linearGradient id="_2-3" x1="576.86" y1="81.41" x2="570.58" y2="87.62" xlink:href="#_2"/><linearGradient id="linear-gradient-27" x1="561.02" y1="75.88" x2="560.71" y2="76.44" gradientTransform="translate(-442.21)" gradientUnits="userSpaceOnUse"><stop offset="0" stop-color="#626b6e"/><stop offset="1" stop-color="#2f383b"/></linearGradient><radialGradient id="radial-gradient" cx="568.47" cy="65.38" r="3.68" gradientTransform="translate(-443.06)" gradientUnits="userSpaceOnUse"><stop offset="0" stop-color="#dfe6ea"/><stop offset="1" stop-color="#bdc5c9"/></radialGradient><linearGradient id="linear-gradient-28" x1="557.15" y1="99.05" x2="558.69" y2="95.43" xlink:href="#linear-gradient-3"/><linearGradient id="linear-gradient-29" x1="555.85" y1="98.45" x2="556.38" y2="96.47" xlink:href="#linear-gradient-3"/><linearGradient id="linear-gradient-30" x1="331.39" y1="119.59" x2="331.39" y2="118.46" gradientTransform="matrix(0.87, -0.5, 0, 1, -171.63, 144.91)" xlink:href="#linear-gradient-3"/><linearGradient id="linear-gradient-31" x1="332.81" y1="118.61" x2="331.65" y2="117.14" gradientTransform="matrix(0.87, -0.5, 0, 1, -171.63, 144.91)" xlink:href="#linear-gradient-3"/><linearGradient id="linear-gradient-32" x1="331.27" y1="117.68" x2="331.27" y2="115.54" gradientTransform="matrix(0.87, -0.5, 0, 1, -171.63, 144.91)" xlink:href="#linear-gradient-3"/><linearGradient id="linear-gradient-33" x1="330.21" y1="117.51" x2="330.21" y2="115.13" gradientTransform="matrix(0.87, -0.5, 0, 1, -171.63, 144.91)" xlink:href="#linear-gradient-3"/><linearGradient id="linear-gradient-34" x1="329.1" y1="118.73" x2="329.97" y2="117.45" gradientTransform="matrix(0.87, -0.5, 0, 1, -171.63, 144.91)" xlink:href="#linear-gradient-3"/><linearGradient id="linear-gradient-35" x1="330.36" y1="119.76" x2="330.36" y2="118.38" gradientTransform="matrix(0.87, -0.5, 0, 1, -171.63, 144.91)" xlink:href="#linear-gradient-3"/><linearGradient id="linear-gradient-36" x1="330.86" y1="117.15" x2="330.86" y2="118.88" gradientTransform="matrix(0.87, -0.5, 0, 1, -171.63, 144.91)" xlink:href="#linear-gradient-3"/><linearGradient id="linear-gradient-37" x1="330.86" y1="117.5" x2="330.86" y2="118.62" gradientTransform="matrix(0.87, -0.5, 0, 1, -171.63, 144.91)" xlink:href="#linear-gradient-3"/><linearGradient id="linear-gradient-38" x1="556.94" y1="93.62" x2="554" y2="101.11" xlink:href="#linear-gradient-13"/><linearGradient id="linear-gradient-39" x1="331.07" y1="120.15" x2="331.07" y2="115.9" gradientTransform="matrix(0.87, -0.5, 0, 1, -171.63, 144.91)" xlink:href="#linear-gradient-3"/><linearGradient id="linear-gradient-40" x1="557.49" y1="99.94" x2="557.49" y2="95.6" xlink:href="#linear-gradient-3"/><linearGradient id="linear-gradient-41" x1="331.58" y1="117.28" x2="331.58" y2="120.36" gradientTransform="matrix(0.87, -0.5, 0, 1, -171.63, 144.91)" xlink:href="#linear-gradient-3"/><linearGradient id="linear-gradient-42" x1="331.58" y1="117.82" x2="331.58" y2="119.72" gradientTransform="matrix(0.87, -0.5, 0, 1, -171.63, 144.91)" xlink:href="#linear-gradient-3"/><linearGradient id="linear-gradient-43" x1="562.51" y1="83.18" x2="563.76" y2="81.3" gradientTransform="translate(-442.21)" xlink:href="#linear-gradient-16"/><linearGradient id="linear-gradient-44" x1="557.7" y1="84.28" x2="560.93" y2="86.68" gradientTransform="translate(-442.21)" gradientUnits="userSpaceOnUse"><stop offset="0" stop-color="#474747"/><stop offset="0" stop-color="#4c4c4c"/><stop offset="0.03" stop-color="#626262"/><stop offset="0.05" stop-color="#737373"/><stop offset="0.08" stop-color="#7e7e7e"/><stop offset="0.13" stop-color="#858585"/><stop offset="0.25" stop-color="#878787"/><stop offset="0.36" stop-color="#d3d3d3"/><stop offset="0.72" stop-color="#d3d3d3"/><stop offset="0.97" stop-color="#5e5e5e"/></linearGradient><linearGradient id="_2-4" x1="562.31" y1="91.77" x2="562.83" y2="93.23" xlink:href="#_2"/><linearGradient id="_6" x1="565.52" y1="84.55" x2="562.88" y2="93.06" gradientTransform="translate(-442.21)" gradientUnits="userSpaceOnUse"><stop offset="0" stop-color="#e9e9e9"/><stop offset="1" stop-color="#b7b7b7"/></linearGradient><linearGradient id="_14" x1="564.04" y1="92.63" x2="563.23" y2="88.81" gradientTransform="translate(-442.21)" gradientUnits="userSpaceOnUse"><stop offset="0" stop-color="#c2c2c2"/><stop offset="1" stop-color="#909090"/></linearGradient><linearGradient id="linear-gradient-45" x1="561.15" y1="84.47" x2="560.61" y2="85.53" xlink:href="#linear-gradient-44"/><linearGradient id="linear-gradient-46" x1="559.53" y1="83.48" x2="558.99" y2="84.54" xlink:href="#linear-gradient-44"/><linearGradient id="linear-gradient-47" x1="559.71" y1="84.38" x2="558.4" y2="86.98" xlink:href="#linear-gradient-44"/><linearGradient id="linear-gradient-48" x1="558.72" y1="84.94" x2="560.05" y2="86.04" xlink:href="#_2"/><linearGradient id="linear-gradient-49" x1="560.15" y1="84.54" x2="559.32" y2="86.04" xlink:href="#_2"/><linearGradient id="_2-5" x1="560.19" y1="86.3" x2="556.77" y2="83.63" xlink:href="#_2"/><linearGradient id="linear-gradient-50" x1="558.19" y1="97.87" x2="557.97" y2="98.25" gradientTransform="translate(-442.21)" xlink:href="#linear-gradient-18"/><linearGradient id="linear-gradient-51" x1="558.91" y1="96.02" x2="559.73" y2="96.32" gradientTransform="translate(-442.21)" xlink:href="#linear-gradient-18"/><linearGradient id="linear-gradient-52" x1="558.9" y1="98.37" x2="558.78" y2="98.59" gradientTransform="translate(-442.21)" xlink:href="#linear-gradient-18"/><linearGradient id="linear-gradient-53" x1="560.27" y1="92.64" x2="560.88" y2="92.84" gradientTransform="translate(-442.21)" gradientUnits="userSpaceOnUse"><stop offset="0" stop-color="#485154"/><stop offset="0.4" stop-color="#778b91"/><stop offset="1" stop-color="#151e21"/></linearGradient><linearGradient id="linear-gradient-54" x1="564.67" y1="78.22" x2="567" y2="78.22" gradientTransform="translate(-442.21)" gradientUnits="userSpaceOnUse"><stop offset="0" stop-color="#f9fcff"/><stop offset="1" stop-color="#76797a"/></linearGradient><linearGradient id="_2-6" x1="564.01" y1="78.66" x2="562.1" y2="81.27" xlink:href="#_2"/><linearGradient id="linear-gradient-55" x1="562.7" y1="78.11" x2="564.39" y2="79.97" xlink:href="#linear-gradient-27"/><linearGradient id="linear-gradient-56" x1="569.89" y1="76.77" x2="569.83" y2="78.86" xlink:href="#linear-gradient-27"/><linearGradient id="linear-gradient-57" x1="560.61" y1="71.34" x2="558.67" y2="72.39" xlink:href="#linear-gradient-27"/><linearGradient id="linear-gradient-58" x1="568.46" y1="80.19" x2="567.88" y2="81.08" xlink:href="#linear-gradient-27"/><linearGradient id="linear-gradient-59" x1="569.27" y1="80.85" x2="568.96" y2="81.41" xlink:href="#linear-gradient-27"/><radialGradient id="radial-gradient-2" cx="569.05" cy="82.13" r="0.25" gradientTransform="translate(-442.21)" xlink:href="#linear-gradient-13"/><radialGradient id="radial-gradient-3" cx="559.13" cy="76.18" r="0.25" gradientTransform="translate(-442.21)" xlink:href="#linear-gradient-13"/></defs><g class="cls-1"><g id="Layer_2" data-name="Layer 2"><g id="Layer_1-2" data-name="Layer 1"><polygon class="cls-2" points="145.01 103.63 110.68 82.6 47.71 119.57 82.04 140.6 145.01 103.63"/><polygon class="cls-3" points="133.1 96.34 110.68 82.6 47.71 119.57 70.13 133.31 133.1 96.34"/><path class="cls-4" d="M112.28,69l-1.7-1L99.23,74.64a10.71,10.71,0,0,0-.39,2.61,3.93,3.93,0,0,0,1.78,3.62L104.43,83a3.83,3.83,0,0,0,4-.25,12.68,12.68,0,0,0,5.77-10A3.9,3.9,0,0,0,112.28,69Z"/><path class="cls-4" d="M98.84,77.25a10.71,10.71,0,0,1,.39-2.61h0L95.06,77a3.29,3.29,0,0,0,1.07,1l3.56,2A4.36,4.36,0,0,1,98.84,77.25Z"/><path class="cls-5" d="M98.84,77.25a10.71,10.71,0,0,1,.39-2.61h0l-.91.52a11.69,11.69,0,0,0-.13,1.43A4,4,0,0,0,99.65,80,4.32,4.32,0,0,1,98.84,77.25Z"/><polygon class="cls-6" points="59.63 103.77 59.18 105.26 56.34 102.84 51.08 100.11 53.02 98.68 55.24 98.11 56.7 98.24 58.44 99.38 59.32 101.6 59.63 103.77"/><path class="cls-4" d="M52.62,115.76a12.71,12.71,0,0,0,5.77-10A3.9,3.9,0,0,0,56.45,102l-3.48-2a4.13,4.13,0,0,0-1.64-.5c-3.92,3.14-7.8,8-7.89,13.16a1.34,1.34,0,0,0,0,.2l.23.15L48.6,116A3.85,3.85,0,0,0,52.62,115.76Z"/><path class="cls-7" d="M58.39,105.73a12.71,12.71,0,0,1-5.77,10c-2.93,1.76-5.83,0-5.77-3.37a12.68,12.68,0,0,1,5.77-10C55.55,100.6,58.45,102.33,58.39,105.73Z"/><path class="cls-8" d="M58.39,105.73a12.71,12.71,0,0,1-5.77,10c-2.93,1.76-5.83,0-5.77-3.37a12.68,12.68,0,0,1,5.77-10C55.55,100.6,58.45,102.33,58.39,105.73Z"/><path class="cls-9" d="M57.88,106.57a10.52,10.52,0,0,1-4.75,8.3c-2.41,1.46-4.8,0-4.75-2.78a10.54,10.54,0,0,1,4.75-8.31C55.54,102.32,57.94,103.76,57.88,106.57Z"/><path class="cls-10" d="M56.39,107.29A7.23,7.23,0,0,1,53.11,113a2.06,2.06,0,0,1-3.29-1.91,7.22,7.22,0,0,1,3.29-5.71A2,2,0,0,1,56.39,107.29Z"/><path class="cls-7" d="M54.54,108.49a3,3,0,0,1-1.38,2.4.86.86,0,0,1-1.37-.8,3,3,0,0,1,1.37-2.4A.87.87,0,0,1,54.54,108.49Z"/><path class="cls-11" d="M54.45,108.78a2.32,2.32,0,0,1-1.07,1.85.67.67,0,0,1-1.07-.62,2.38,2.38,0,0,1,1.07-1.86A.67.67,0,0,1,54.45,108.78Z"/><path d="M53.38,106l-.44.22a.79.79,0,0,0-.39.62.25.25,0,0,0,.39.24l.44-.22a.79.79,0,0,0,.39-.63A.25.25,0,0,0,53.38,106Z"/><path d="M53.38,111.53c-.18.09-.26.14-.44.22a.79.79,0,0,0-.39.62.25.25,0,0,0,.39.24l.44-.22a.76.76,0,0,0,.39-.62A.25.25,0,0,0,53.38,111.53Z"/><path d="M55,107.25c.12.13.36.07.54-.15a.57.57,0,0,0,.1-.65,3.36,3.36,0,0,1-.24-.29c-.12-.13-.36-.07-.54.15a.57.57,0,0,0-.1.65C54.9,107.07,54.94,107.13,55,107.25Z"/><path d="M51.28,111.34c-.12-.14-.36-.08-.54.14a.57.57,0,0,0-.1.65l.25.29c.11.14.35.07.53-.15a.55.55,0,0,0,.1-.65Z"/><path d="M55.6,109c-.18,0-.42.14-.53.4s-.14.32-.24.53,0,.5.13.53.41-.14.53-.4l.23-.53C55.84,109.25,55.78,109,55.6,109Z"/><path d="M50.72,109.6c.18,0,.42-.14.53-.4s.14-.32.24-.53.06-.5-.12-.53-.42.14-.53.4-.15.32-.24.53S50.54,109.56,50.72,109.6Z"/><path class="cls-7" d="M114.22,72.76a12.68,12.68,0,0,1-5.77,10c-2.93,1.77-5.83,0-5.77-3.36a12.71,12.71,0,0,1,5.77-10C111.38,67.62,114.28,69.36,114.22,72.76Z"/><path class="cls-8" d="M114.22,72.76a12.68,12.68,0,0,1-5.77,10c-2.93,1.77-5.83,0-5.77-3.36a12.71,12.71,0,0,1,5.77-10C111.38,67.62,114.28,69.36,114.22,72.76Z"/><path class="cls-9" d="M113.71,73.6A10.54,10.54,0,0,1,109,81.9c-2.41,1.46-4.8,0-4.75-2.79a10.54,10.54,0,0,1,4.75-8.3C111.37,69.35,113.76,70.78,113.71,73.6Z"/><path class="cls-12" d="M112.22,74.32A7.23,7.23,0,0,1,108.94,80a2.06,2.06,0,0,1-3.29-1.91,7.25,7.25,0,0,1,3.29-5.72A2.06,2.06,0,0,1,112.22,74.32Z"/><path class="cls-7" d="M110.37,75.52A3,3,0,0,1,109,77.91a.86.86,0,0,1-1.38-.8A3,3,0,0,1,109,74.72.86.86,0,0,1,110.37,75.52Z"/><path class="cls-11" d="M110.28,75.8a2.35,2.35,0,0,1-1.07,1.86.67.67,0,0,1-1.07-.62,2.38,2.38,0,0,1,1.07-1.86A.67.67,0,0,1,110.28,75.8Z"/><path d="M109.21,73l-.44.22a.77.77,0,0,0-.39.62.24.24,0,0,0,.39.23c.18-.08.26-.13.44-.22a.76.76,0,0,0,.39-.62A.25.25,0,0,0,109.21,73Z"/><path d="M109.21,78.56l-.44.22a.77.77,0,0,0-.39.62.25.25,0,0,0,.39.24l.44-.22a.79.79,0,0,0,.39-.62A.25.25,0,0,0,109.21,78.56Z"/><path d="M110.87,74.27c.12.14.36.07.54-.15s.22-.51.1-.64-.14-.18-.24-.29-.36-.07-.54.15a.55.55,0,0,0-.1.65Z"/><path d="M107.11,78.36c-.12-.14-.36-.07-.54.15a.57.57,0,0,0-.1.65,3.36,3.36,0,0,1,.24.29c.12.13.36.07.54-.15a.55.55,0,0,0,.1-.65C107.26,78.53,107.21,78.48,107.11,78.36Z"/><path d="M111.43,76c-.18,0-.42.14-.53.4s-.14.32-.24.53-.06.49.12.53.42-.14.54-.4l.23-.53C111.67,76.28,111.61,76,111.43,76Z"/><path d="M106.55,76.63c.18,0,.42-.15.53-.4l.24-.54c.11-.25.06-.49-.12-.53s-.42.15-.53.4-.15.32-.24.54S106.37,76.59,106.55,76.63Z"/><path class="cls-13" d="M117.59,62.78,69.24,90.67,59.43,85.1l-.24,7.49V94.5c-.17.58-.3,1-.3,1L54.5,97.86a5.77,5.77,0,0,0-1.47.55l-.16.08-.14.08-.34.21-.53.36-.13.1a19.21,19.21,0,0,0-7.14,13.55l.59-.21c.41-5.2,3.47-10.68,7.53-13.32a5.13,5.13,0,0,1,2.77-.94h0a3.27,3.27,0,0,1,2.37,1,6,6,0,0,1,1.42,4.39c0,.51,0,1-.09,1.55l.62-.56c0-.33,0-.65.05-1a7.75,7.75,0,0,0-.72-3.58l0-.76,1.44-.84V97.31l50.05-29.22,1.7,1a3.27,3.27,0,0,1,1.29,1.19l0,0L113,66.69l2.4-1.39,2.18,1.06V64l6.42-3.7V59.07Z"/><polygon class="cls-14" points="97.15 0 32.43 34.14 32.43 69.77 69.24 90.67 133.38 53.66 133.38 19.57 97.15 0"/><path class="cls-6" d="M115.41,65.3,113,66.69l.53,3.49a4.29,4.29,0,0,1,.67,2.19l4.93,2.18-.78-7.82Z"/><polygon class="cls-15" points="74.22 87.8 76.03 91.81 76.03 93.18 77.54 92.31 77.54 91.58 75.59 87.01 74.22 87.8"/><polygon class="cls-15" points="102.15 80.63 102.15 79.56 100.89 78.84 62.93 100.74 62.93 104.04 63.91 104.64 101.88 82.73 101.88 81.86 101.66 81.72 101.66 80.91 102.15 80.63"/><polygon class="cls-16" points="62.93 100.74 62.93 104.04 63.91 104.64 63.91 103.77 63.69 103.63 63.69 102.3 64.18 102.54 64.18 101.47 62.93 100.74"/><polygon class="cls-17" points="64.18 102.54 63.69 102.3 63.69 103.63 101.66 81.72 101.66 80.91 64.18 102.54"/><polygon class="cls-18" points="100.89 78.84 62.93 100.74 64.18 101.47 102.15 79.56 100.89 78.84"/><polygon class="cls-19" points="101.88 81.86 63.91 103.77 63.69 103.63 101.66 81.72 101.88 81.86"/><polygon class="cls-15" points="94.67 76 96.48 80.02 96.48 81.38 97.99 80.51 97.99 79.78 96.04 75.21 94.67 76"/><polygon class="cls-16" points="94.67 76 96.48 80.02 96.48 81.38 97.23 80.95 97.23 80.02 95.35 75.61 94.67 76"/><polygon class="cls-16" points="74.22 87.8 76.03 91.81 76.03 93.18 76.78 92.75 76.78 91.81 74.9 87.41 74.22 87.8"/><polygon class="cls-18" points="97.15 0 32.43 34.14 69.24 55.04 133.38 19.57 97.15 0"/><polygon class="cls-20" points="32.43 34.14 32.43 69.77 69.24 90.67 69.24 55.04 32.43 34.14"/><path class="cls-21" d="M52.39,98.78a6.4,6.4,0,0,1,2.09-.91h0l4.41-2.42a17.7,17.7,0,0,0,1-4.55c.09-2.2-.43-12.63-1.11-15.84s-2.1-4.79-6.41-7.52S34.09,56.6,34.09,56.6A7.07,7.07,0,0,0,27,56.28c-3.87,2-11.14,6.26-12.57,8A55.93,55.93,0,0,0,7.79,80.3s-.57.42-.45,4.79.24,7.41.24,7.41-.72,0-.42,2.09.21,3.23,1.65,4.67a94.27,94.27,0,0,0,12.76,9.17A139,139,0,0,0,36.87,116c1.08.33,3.11-.2,4.82-1.25,1.09-.67,2.22-1.44,2.9-1.92C44.93,107.35,48.1,101.57,52.39,98.78Z"/><path class="cls-22" d="M52.39,98.78a6.4,6.4,0,0,1,2.09-.91h0l4.41-2.42a17.7,17.7,0,0,0,1-4.55c.09-2.2-.43-12.63-1.11-15.84a8.77,8.77,0,0,0-1-2.79c-2.34,1.39-8.4,5-10.75,6.2a9.76,9.76,0,0,0-4.12,3.74,2.84,2.84,0,0,1-.18,1.38c-.79,2.31-3.85,12.66-3.85,12.66s-.2,1.15-2.14,1.34c-.17,1-.36,2.28-.42,3.17l.7,0a4,4,0,0,0,2.67-1.2v1.29A4,4,0,0,1,37,102.1a13,13,0,0,1-3-.46,41.85,41.85,0,0,1-7.06-2.94,92,92,0,0,1-14.73-9.13c-.92-.74-2.34-2-3.56-3.22-.45-.43-.87-.86-1.23-1.25h0c.12,4.36.24,7.41.24,7.41s-.72,0-.42,2.09.21,3.23,1.65,4.67a94.27,94.27,0,0,0,12.76,9.17A139,139,0,0,0,36.87,116c1.08.33,3.11-.2,4.82-1.25,1.09-.67,2.22-1.44,2.9-1.92C44.93,107.35,48.1,101.57,52.39,98.78Z"/><path class="cls-15" d="M7.4,92.57h0a.39.39,0,0,1,.17-.07A.39.39,0,0,0,7.4,92.57Z"/><path class="cls-15" d="M11.93,97l.11.08-.71-3.26a3.83,3.83,0,0,0-.78-1.56c-.34-.28-2-2.09-2.82-3L7.46,89c.07,2.16.12,3.49.12,3.49A16.37,16.37,0,0,0,11.93,97Z"/><path class="cls-15" d="M7.57,92.5h0Z"/><path class="cls-15" d="M30.3,108s4.95,2.19,6.57,2.28a6.85,6.85,0,0,0,3.42-1.1s0,.08,0,.2l.07,0,.09-.06-.24-4-.27.17a6.9,6.9,0,0,1-2.79.92,10.78,10.78,0,0,1-3.53-.86c-.58-.2-1.09-.38-1.44-.46a3.25,3.25,0,0,0-.56-.06.73.73,0,0,0-.77.48.39.39,0,0,1-.06.11,19.07,19.07,0,0,0-.69,2.28Z"/><path class="cls-23" d="M36.87,110.25c-1.62-.09-6.57-2.28-6.57-2.28s-7.33-4.08-10-5.75S13.93,98.45,11.93,97a16.37,16.37,0,0,1-4.35-4.5s-.72,0-.42,2.09.21,3.23,1.65,4.67a94.27,94.27,0,0,0,12.76,9.17A139,139,0,0,0,36.87,116a5.07,5.07,0,0,0,2.93-.34,30.15,30.15,0,0,0,.79-3.65,17.64,17.64,0,0,0-.3-2.82A6.85,6.85,0,0,1,36.87,110.25Z"/><path class="cls-24" d="M55.38,76.92l-8.66,4.9a4.82,4.82,0,0,0-2.44,2.83,86.2,86.2,0,0,0-2.9,10.82c-.39,2.39-.74,3.72,0,3.72s4.67-3.72,6.55-5.72,8.12-8.71,8.12-8.71a3.8,3.8,0,0,0,.86-2.39c0-1.37-.31-5.1-.31-5.1S56.64,76.57,55.38,76.92Z"/><path class="cls-24" d="M41.78,81.12a116.44,116.44,0,0,1-15.41-8,83.39,83.39,0,0,1-12-8.62h0A55.69,55.69,0,0,0,7.79,80.3a.22.22,0,0,0-.06.07c.42.55,1,1.24,1.62,2.08,2,2.59,5.8,5.8,11.37,8.82S31.39,97.08,35,97.55s3.88-1.3,3.88-1.3,3.06-10.35,3.85-12.66S41.78,81.12,41.78,81.12Z"/><path class="cls-23" d="M54.3,93.22l3.28-2.09v-.95s0-.56-.93,0-2.33,1.69-2.36,2.27A4.9,4.9,0,0,0,54.3,93.22Z"/><path class="cls-25" d="M57.58,90.18s0-.39-.53-.19v.9l-2.76,1.78a4,4,0,0,0,0,.55l3.28-2.09Z"/><path class="cls-26" d="M13.05,96.94c1.11.76,4.5,3.09,6.91,4.45s7.17,4,9,5c0,0,.72.2,1-.21l.53-1.21a.77.77,0,0,0-.44-1c-1.92-1-7.25-3.83-9.5-5.11s-6.3-4-8-5.11c0,0-.65-.44-.51.31l.57,2.16A1.61,1.61,0,0,0,13.05,96.94Z"/><path class="cls-24" d="M20.05,100.39c-2.07-1.18-5.13-3.18-7.42-4.72l0,.16c3.12,2.12,5.74,3.8,7.44,4.76s5.08,2.84,9.68,5.37l.07-.17C25.1,103.2,21.8,101.38,20.05,100.39Z"/><path class="cls-24" d="M20,100.76c-1.68-1-4.23-2.58-7.28-4.64l0,.08a.59.59,0,0,0,0,.08c1.86,1.28,5,3.38,7.28,4.67,2.57,1.46,7.75,4.35,9.43,5.29a.32.32,0,0,0,.19-.11C25.1,103.6,21.77,101.74,20,100.76Z"/><path class="cls-24" d="M20.08,100c-2-1.16-5.13-3.17-7.57-4.8l0,.17c2.31,1.55,5.47,3.63,7.59,4.83,1.75,1,5.05,2.8,9.8,5.39l.07-.16C25.17,102.84,21.84,101,20.08,100Z"/><path class="cls-24" d="M20.14,99.29c-2-1.16-5.27-3.25-7.87-5l.05.17c2.6,1.73,5.81,3.82,7.88,5,1.78,1,5.15,2.83,10,5.45v0a.58.58,0,0,0,0-.16C24.21,101.55,21.42,100,20.14,99.29Z"/><path class="cls-24" d="M20.11,99.65c-2-1.15-5.15-3.17-7.72-4.88l0,.17c2.46,1.65,5.64,3.73,7.73,4.91,1.76,1,5.09,2.82,9.92,5.42l.07-.16C25.26,102.49,21.89,100.66,20.11,99.65Z"/><path class="cls-24" d="M20,101.12c-2.15-1.21-5-3.13-6.93-4.43a.41.41,0,0,0,.1.09c1.63,1.13,4.7,3.2,6.9,4.44,2.51,1.42,7.83,4.4,8.94,5l.15,0C27.24,105.19,22.43,102.5,20,101.12Z"/><path class="cls-24" d="M20.23,99.12c1.28.72,4,2.24,10,5.41a.66.66,0,0,0-.35-.36c-4.75-2.51-7.95-4.23-9.51-5.12-2.19-1.24-6.3-4-8-5.11a.73.73,0,0,0-.23-.09.42.42,0,0,0,0,.19C14.83,95.78,18.16,97.94,20.23,99.12Z"/><path class="cls-26" d="M34.45,100.49a37.76,37.76,0,0,1-7.59-3.08,92,92,0,0,1-14.73-9.13c-.92-.74-2.34-2-3.56-3.22v1.29c1.22,1.2,2.64,2.48,3.56,3.22A92,92,0,0,0,26.86,98.7a41.85,41.85,0,0,0,7.06,2.94Z"/><path class="cls-27" d="M37,100.81a14,14,0,0,1-2.52-.32l-.53,1.15a13,13,0,0,0,3,.46,4,4,0,0,0,2.67-1.2V99.61A4,4,0,0,1,37,100.81Z"/><path class="cls-27" d="M7.33,83.8c0,.38,0,.81,0,1.29h0c.36.39.78.82,1.23,1.25V85.06C8.11,84.62,7.69,84.19,7.33,83.8Z"/><path class="cls-28" d="M37.2,106.58c-1.48.09-4-1.11-5-1.32s-1,.14-1.18.44a21.68,21.68,0,0,0-.69,2.27c.3.13,5,2.19,6.56,2.28a6.85,6.85,0,0,0,3.42-1.1l-.21-3.52A7.11,7.11,0,0,1,37.2,106.58Z"/><path class="cls-28" d="M7.58,92.5a16.32,16.32,0,0,0,4.23,4.42l-.66-3a3.73,3.73,0,0,0-.73-1.46c-.36-.31-2.16-2.25-2.95-3.11C7.53,91.29,7.58,92.5,7.58,92.5Z"/><path class="cls-24" d="M29.73,109.88l-3.41-1.69-.09,0v.42a1.52,1.52,0,0,0,.72,1.2l3.28,1.76.14.06,0-.55A1.31,1.31,0,0,0,29.73,109.88Z"/><path class="cls-24" d="M16.26,103.09a2,2,0,0,0-.78-1.25l-3.06-2,.06.35a2.21,2.21,0,0,0,.82,1.25l3,2Z"/><path class="cls-18" d="M30.23,111.54,27,109.78a1.52,1.52,0,0,1-.72-1.2v-.42c-.36-.13-.64.08-.64.49v.47a1.49,1.49,0,0,0,.72,1.2l3.28,1.76a.49.49,0,0,0,.78-.42v-.06Z"/><path class="cls-18" d="M16.3,103.44l-3-2a2.21,2.21,0,0,1-.82-1.25l-.06-.35-.2-.13c-.38-.24-.63-.08-.55.37l.08.47a2.1,2.1,0,0,0,.81,1.24l3.16,2.07c.37.24.64.08.59-.37Z"/><path class="cls-18" d="M38.23,110.55a19,19,0,0,0,2.06-1.4,6.85,6.85,0,0,1-3.42,1.1c-1.62-.09-6.57-2.28-6.57-2.28s-7.33-4.08-10-5.75S13.93,98.45,11.93,97a16.37,16.37,0,0,1-4.35-4.5s-.24,0-.39.4c.72,1.61,3.33,3.68,4.59,4.63,2,1.48,5.7,3.55,8.37,5.22s10,5.74,10,5.74,5,2.19,6.57,2.28A3.08,3.08,0,0,0,38.23,110.55Z"/><path class="cls-29" d="M24.28,108.93s0,0,0-.07v-2.58a1,1,0,0,0-.47-.82l-6.09-3.55-.13,0s0,0,0,.08v2.47a1.08,1.08,0,0,0,.47.82l6.09,3.65Z"/><path class="cls-18" d="M24.15,108.88l-6.09-3.65a1.08,1.08,0,0,1-.47-.82v-2.47s0,0,0-.08c-.19,0-.34.08-.34.32v2.47a1,1,0,0,0,.47.82l6.09,3.65c.24.14.43.06.46-.19Z"/><path class="cls-30" d="M40.29,109.15a6.85,6.85,0,0,1-3.42,1.1c-1.62-.09-6.57-2.28-6.57-2.28s-7.33-4.08-10-5.75S13.93,98.45,11.93,97a16.37,16.37,0,0,1-4.35-4.5s-.72,0-.42,2.09c.08.58.14,1.08.2,1.53a39,39,0,0,0,4.5,3.53.6.6,0,0,1,.36.11l.2.13,3.06,2a1.84,1.84,0,0,1,.45.47l1.33.83v-1c0-.24.15-.36.34-.32l.13,0,6.09,3.55a1,1,0,0,1,.47.82v1.29l1.37.77a.43.43,0,0,1,.57-.18l.09,0,3.41,1.69a1.3,1.3,0,0,1,.64.83A39.66,39.66,0,0,0,36.32,113a6.9,6.9,0,0,0,4.18-.41,5.35,5.35,0,0,0,.09-.64A17.64,17.64,0,0,0,40.29,109.15Z"/><path class="cls-31" d="M31.47,106.61a2.11,2.11,0,0,0,.92,2,.81.81,0,0,0,1.28-.64,2.15,2.15,0,0,0-.92-2A.82.82,0,0,0,31.47,106.61Z"/><path class="cls-31" d="M9.12,93.18a2.52,2.52,0,0,0,.68,2c.41.36.88,0,.94-.65a2.48,2.48,0,0,0-.68-2C9.65,92.18,9.18,92.51,9.12,93.18Z"/><path class="cls-31" d="M7.74,91.34A2.07,2.07,0,0,0,8.31,93c.34.29.73,0,.78-.54a2.11,2.11,0,0,0-.56-1.65C8.18,90.51,7.79,90.79,7.74,91.34Z"/><path class="cls-31" d="M34.2,107.65a2,2,0,0,0,.85,1.83.75.75,0,0,0,1.18-.59,2,2,0,0,0-.85-1.83A.75.75,0,0,0,34.2,107.65Z"/><path class="cls-31" d="M37,107.9a1.71,1.71,0,0,0,.74,1.6.66.66,0,0,0,1-.52,1.73,1.73,0,0,0-.75-1.61A.66.66,0,0,0,37,107.9Z"/><path class="cls-29" d="M40.79,108l.1,0h0s0,0,0,0L41,108l.11-.16.21-.31.44-.61.88-1.22c.58-.81,1.19-1.61,1.81-2.39a46,46,0,0,1,4-4.51A38.74,38.74,0,0,1,53,94.83,20,20,0,0,1,58.31,92a23.08,23.08,0,0,0-5.11,3.08,45.22,45.22,0,0,0-4.45,4c-1.4,1.41-2.76,2.88-4.07,4.38-.66.75-1.3,1.52-1.92,2.3-.31.4-.62.79-.91,1.19l-.44.61-.22.3-.11.16,0,.07s0,0,0,0,0,0,0,0a.59.59,0,0,0,.08.08Z"/><path class="cls-29" d="M39.85,99.38c.19-1.3.43-2.58.66-3.87s.51-2.57.78-3.85.57-2.56.9-3.82a39,39,0,0,1,1.13-3.78,5.72,5.72,0,0,1,1.06-1.74,12.6,12.6,0,0,1,1.44-1.39,20.78,20.78,0,0,1,3.3-2.18L52.61,77c1.17-.59,2.33-1.19,3.5-1.76l0,0c-1.12.67-2.27,1.31-3.4,2l-3.43,1.91a20.28,20.28,0,0,0-3.19,2.19,10.84,10.84,0,0,0-1.37,1.34,5.23,5.23,0,0,0-1,1.59C43.33,85.44,43,86.7,42.62,88s-.65,2.53-1,3.79-.6,2.55-.89,3.82-.58,2.55-.87,3.82Z"/><path class="cls-24" d="M40.54,112.39c-.14.88-.52,2.39-.74,3.23l1.89-.91c1.09-.67,2.22-1.44,2.9-1.92a17.44,17.44,0,0,1,.44-2.93Z"/><path class="cls-13" d="M6.05,80a2.34,2.34,0,0,1-1,1,34.14,34.14,0,0,1-3.47-.45,2.13,2.13,0,0,1-.44-.12V75.3a1.78,1.78,0,0,0-.34-1l-.47-.61c-.18-.24-.33-.19-.33.11v5.9a1.39,1.39,0,0,0,.41.9l.31.26c.19.16.35.12.4-.06l.39.1a34.27,34.27,0,0,0,3.56.46h0l0,0a2.6,2.6,0,0,0,1.23-1.25c.29-.59.89-.74,2-.51l.08-.38C7.64,79.06,6.54,79,6.05,80Z"/><path class="cls-13" d="M56,77.4h0a1.58,1.58,0,0,0-.39.06L47,82.32l0,0h0a4.24,4.24,0,0,0-2.1,2.49A84.09,84.09,0,0,0,42,95.56c-.06.34-.11.66-.16,1a14.73,14.73,0,0,0-.27,2,44.76,44.76,0,0,0,6-5.47c1.83-1.94,7.87-8.43,8.11-8.69a3.2,3.2,0,0,0,.71-2C56.3,81.16,56.07,78,56,77.4Z"/><path class="cls-13" d="M42.19,82a.68.68,0,0,0-.48-.3h-.09l-.06,0a119.27,119.27,0,0,1-15.5-8.08,93.23,93.23,0,0,1-11.59-8.22A54.82,54.82,0,0,0,8.38,80.28c.44.56.91,1.17,1.42,1.81,1.34,1.7,4.57,5.09,11.2,8.68l.22.12C26.56,93.79,31.61,96.53,35,97a8,8,0,0,0,1,.07c1.86,0,2.16-.8,2.19-.91v0h0c.13-.42,3.07-10.39,3.85-12.69A1.74,1.74,0,0,0,42.19,82Z"/><path class="cls-32" d="M33.11,89.76c-4.47-2.64-7.88-2.58-10-3.88s-12.42-7-12.42-7l-2.28,1.4v0c.44.56.91,1.17,1.42,1.81,1.34,1.7,4.57,5.09,11.2,8.68l.22.12C26.56,93.79,31.61,96.53,35,97a8,8,0,0,0,1,.07c1.86,0,2.16-.8,2.19-.91v0h0c0-.1.22-.75.51-1.7A22.47,22.47,0,0,0,33.11,89.76Z"/><path class="cls-33" d="M41.71,81.69h-.09l-.06,0s-2.23-.92-5.56-2.57l.19,4.22,5,3c.39-1.26.72-2.31.91-2.89A1.74,1.74,0,0,0,42.19,82,.68.68,0,0,0,41.71,81.69Z"/><path class="cls-33" d="M26.06,73.57l-.49-.31V77.4l6.05,3,.63-3.23C30.33,76.1,28.24,74.91,26.06,73.57Z"/><polygon class="cls-34" points="25.79 84.05 31.62 80.36 25.57 77.4 19.18 80.14 25.79 84.05"/><path class="cls-34" d="M40.4,89c.28-.94.57-1.87.82-2.71l-5-3-7,2.61L38,91.23Z"/><path class="cls-32" d="M37.69,87.36c-.35,1-2.31,1.32-4.39.63s-3.49-2.1-3.14-3.13,2.3-1.32,4.38-.63S38,86.32,37.69,87.36Z"/><path class="cls-35" d="M36.89,87.09c-.24.73-1.73.88-3.33.35s-2.69-1.54-2.45-2.26,1.73-.88,3.32-.35S37.12,86.37,36.89,87.09Z"/><path class="cls-32" d="M35,86.37c-.08.25-.58.3-1.12.12s-.91-.52-.83-.76.58-.3,1.12-.12S35.06,86.13,35,86.37Z"/><path class="cls-34" d="M42,95.22l6.74-4.36-4.89-3C43.13,90.32,42.34,93.45,42,95.22Z"/><path class="cls-33" d="M43.86,87.83l4.89,3s1.62-7.7,2.2-10.77l-4,2.23,0,0h0a4.24,4.24,0,0,0-2.1,2.49C44.56,85.53,44.22,86.6,43.86,87.83Z"/><path class="cls-36" d="M14.69,65.54c-.7,1.26-4.63,8.55-4.88,13.85l.86-.53h1.77l8.62-8.54A78.57,78.57,0,0,1,14.69,65.54Z"/><path class="cls-35" d="M33.11,89.76a22.47,22.47,0,0,1,5.68,4.63l.36-1.23a19.36,19.36,0,0,0-5.57-4.64,21.82,21.82,0,0,0-8.23-2.77L12.44,78.86H10.67s10.27,5.72,12.42,7S28.64,87.12,33.11,89.76Z"/><path class="cls-37" d="M14.47,65.35A54.82,54.82,0,0,0,8.38,80.28c.44.56.91,1.17,1.42,1.81a22.83,22.83,0,0,0,2.87,3c3.18-5.22,8.78-9.38,12.78-11.88A91,91,0,0,1,14.47,65.35Z"/><path class="cls-13" d="M35.2,94.29l.25,5.88s1,1,2.87,0V94.59A6.54,6.54,0,0,1,35.2,94.29Z"/><polygon class="cls-21" points="69.24 70.98 133.38 35.51 133.38 38.74 69.24 75.46 69.24 70.98"/><circle class="cls-38" cx="37.58" cy="99.88" r="2.55"/><circle class="cls-39" cx="37.58" cy="99.88" r="1.25"/><rect class="cls-40" x="114.93" y="58.7" width="29.42" height="41.63"/><path class="cls-41" d="M140.61,85c.07.19-1.29,1.54-1.78,2,.36,2-3.42,4.88-4.87,5.8h0l-.13.09h0l-.11.07h0l-.09.06h0l0,0h0l0,0h-.08l-.16,0A4.2,4.2,0,0,1,132,94.22c-.64.38-3.4,1.78-5.76,3l1.54.84.09-.06.09.05-.08,0,1.41.48a6.87,6.87,0,0,1-1.75.22,3.91,3.91,0,0,1-1.1-.26,1.34,1.34,0,0,1,.27.27.27.27,0,0,1,.12,0,.08.08,0,0,1,0,.14.21.21,0,0,1-.24,0,.07.07,0,0,1,0-.13,8.24,8.24,0,0,0-.86-.62l-.18-.09h0l-.39,0-.26-.13-.23.16h-.37l-.86.42h0v0l0,0v0a.21.21,0,0,1,0,.06,19,19,0,0,1-1.49,1.55h0l0,0h0l-.74.24-1.08.36h-.64l-.25,0h-.69a2.1,2.1,0,0,1-.85.25l-.48.31h0l.11.07-.35.21-.1-.06-.11.07s-.62.11-.55-.34l.1-.08-.05,0c-.73.24-1.56.5-2.11.65l-1.27.79a.34.34,0,0,1-.22,0l-.16,0-.39-.13-.12,0h0l0,0h0l0,0h0l0,0-.29-.18-.09-.06-.2-.13-.07,0-.08-.07h0l0,0-.3-.33h0l-.09-.1a.09.09,0,0,1,0-.13l1.22-.77c.17-.23.41-.54.65-.84l0-.06h0l0-.06h0l.11-.13h0l0-.07h0l.1-.12h0l0,0h0l0,0-.13.07c-.72,0-.54-.35-.54-.35l.11-.07-.1-.06.34-.22.11.07h0l.5-.3a1,1,0,0,1,.47-.58V97.4h0v0h0s0-.06,0-.08h0v0h0v0h0v0h0v0h0l.53-.63.43-.51h.1l0,0H115l.06,0h0c.56-.23,1.67-.67,2.21-.82h0l.82-.64v-.17h0v0h0l.25-.15-.21-.15,0-.25h0l-.14-.11a9.24,9.24,0,0,0-1-.53.24.24,0,0,1-.22,0,.08.08,0,0,1,0-.15.25.25,0,0,1,.24,0,.12.12,0,0,1,0,.07,3.35,3.35,0,0,1,.42.17,1.35,1.35,0,0,1-.42-.69,2,2,0,0,1,.35-1.09l.77.88.09,0,.08.06-.09,0,1.31.94c1.89-1.47,4.13-3.19,4.73-3.59a6.08,6.08,0,0,1,1.84-.84l0-.05h0l0,0h0l0,0h0l0,0h0l.09-.06h0l.11-.07h0l.13-.08h0c1.47-.89,5.95-3.22,9.2-3a15.61,15.61,0,0,1,3.29-1.12C139.56,84.26,140.52,84.74,140.61,85Zm-22.44,16H118l-.25.16A2.24,2.24,0,0,0,118.17,101Zm-4.54-2.93a.83.83,0,0,0-.3.34l.31-.19v-.15Zm12.83-.2-.69-.38-.18.14-.1-.06,0,0-.22.15,0,0,.86.21ZM118.61,93l-.13.15s.17.3.33.54l.06,0,.16-.09,0,0-.07,0,.21-.12Z"/><path class="cls-42" d="M137.28,82.78a2.48,2.48,0,0,1,0,2.16c-.52,1.33-1.64,2.35-2.55,2.31a.89.89,0,0,0,.59.28c.88.08,2-.93,2.53-2.24S138.06,83,137.28,82.78Z"/><path class="cls-43" d="M137.45,82.84a2.51,2.51,0,0,1,0,2.17c-.52,1.33-1.64,2.34-2.54,2.31a.87.87,0,0,0,.58.28c.89.08,2-.93,2.53-2.25S138.24,83,137.45,82.84Z"/><path class="cls-44" d="M137.17,84.84c-.11,0-.23-.26-.36-.42l-.44-.86a.62.62,0,0,1,.43-.77,1.68,1.68,0,0,0-.59.23,3.25,3.25,0,0,0-.93.82c.45-.54.66,0,.62.41a5.76,5.76,0,0,1-.28.83c-.22.46-.52,1.14-.62,1.37s-.51.63-.61.18a1.42,1.42,0,0,0,.21.52.9.9,0,0,0,.68.39c-.43-.05,0-.88.27-1.16a4.44,4.44,0,0,1,.64-.42l1.07-.5c.18-.08.5.05.17.59a3.77,3.77,0,0,0,.38-.75,3.41,3.41,0,0,0,.25-1.22A.81.81,0,0,1,137.17,84.84Z"/><path class="cls-45" d="M135,86.45c.1-.23.4-.91.62-1.37a5.76,5.76,0,0,0,.28-.83c0-.28-.09-.71-.37-.61a.84.84,0,0,1,.08.47,6.52,6.52,0,0,1-.29.83c-.21.46-.51,1.14-.62,1.36a.84.84,0,0,1-.3.35C134.5,87.06,134.89,86.68,135,86.45Z"/><path class="cls-46" d="M137.17,84.84a.81.81,0,0,0,.89-.76l-.3-.14a.83.83,0,0,1-.74.77A.44.44,0,0,0,137.17,84.84Z"/><path class="cls-47" d="M135.5,83.59a3.7,3.7,0,0,1,.57-.49.61.61,0,0,1,.43-.46,2.1,2.1,0,0,0-.59.23,3.61,3.61,0,0,0-.93.83C135.22,83.41,135.39,83.45,135.5,83.59Z"/><path class="cls-47" d="M134.6,87.15a1.31,1.31,0,0,1-.2-.5c-.13.07-.25.06-.3-.17a1.31,1.31,0,0,0,.21.53.94.94,0,0,0,.5.36A.88.88,0,0,1,134.6,87.15Z"/><polygon class="cls-47" points="138.04 84.38 138.04 84.38 138.04 84.38 138.04 84.38"/><polygon class="cls-47" points="137.45 86.03 137.45 86.03 137.45 86.02 137.45 86.03"/><path class="cls-48" d="M137.45,86l.06-.11c.18-.4-.07-.5-.24-.44a.7.7,0,0,1-.13.45l.31.12Z"/><path class="cls-49" d="M136.13,86h0l1.13-.53c.18-.08.5.05.17.59a3.37,3.37,0,0,0,.25-.46c0-.16-.05-.31-.23-.28a8.69,8.69,0,0,0-1.29.52,3.39,3.39,0,0,1-.5.13.28.28,0,0,0,.2.08A.52.52,0,0,0,136.13,86Z"/><path class="cls-50" d="M136.78,84.38h0a.31.31,0,0,0-.22-.11l0,.09c.28.57.4.74.91.58a1,1,0,0,0,.53-.49,2.4,2.4,0,0,0,0-.37.81.81,0,0,1-.89.76C137.05,84.8,136.91,84.53,136.78,84.38Z"/><path class="cls-51" d="M136.84,84.47h0c-.15-.3-.4-.76-.47-.91a.62.62,0,0,1,.43-.77,1.92,1.92,0,0,0-.37.11.84.84,0,0,0-.19.57c0,.42.32.67.47,1.11a2.93,2.93,0,0,1,.13.51,1,1,0,0,0,.06-.33A.62.62,0,0,0,136.84,84.47Z"/><path class="cls-52" d="M135.59,85.16h0a1.31,1.31,0,0,0-.06.38l.06-.13c.41-.88.53-1.19.38-1.68a.3.3,0,0,0-.41-.21,4,4,0,0,0-.27.31c.45-.54.66,0,.62.41A8.23,8.23,0,0,1,135.59,85.16Z"/><path class="cls-53" d="M135.65,85h0L135,86.45c-.11.23-.51.63-.61.18a1.23,1.23,0,0,0,.11.34c.12,0,.28,0,.44-.28.31-.47.48-1,.8-1.63.15-.27.28-.49.38-.64a1,1,0,0,0-.26.25A2.3,2.3,0,0,0,135.65,85Z"/><path class="cls-54" d="M136.25,85.92h0a1.45,1.45,0,0,0,.29-.27l-.11,0a2.12,2.12,0,0,0-1.28,1.1,1,1,0,0,0-.13.7.74.74,0,0,0,.25.05c-.43-.05,0-.88.27-1.16A6.08,6.08,0,0,1,136.25,85.92Z"/><path class="cls-55" d="M136.9,84.76c0-.44-.31-.62-.69-.4a1.52,1.52,0,0,0-.69,1.19c0,.44.31.62.69.4A1.52,1.52,0,0,0,136.9,84.76Z"/><path class="cls-44" d="M136.83,84.79c0-.39-.28-.56-.62-.36a1.39,1.39,0,0,0-.63,1.09c0,.4.28.56.63.36A1.4,1.4,0,0,0,136.83,84.79Z"/><path class="cls-56" d="M136.55,85c0-.22-.15-.31-.34-.2a.77.77,0,0,0-.35.59c0,.22.16.31.35.2A.75.75,0,0,0,136.55,85Z"/><path class="cls-42" d="M139.81,83.46a7.14,7.14,0,0,1-3.24,5.6c-1.79,1-3.24.2-3.24-1.87a7.14,7.14,0,0,1,3.24-5.6C138.36,80.55,139.81,81.39,139.81,83.46Zm-.89.51c0-1.5-1-2.11-2.35-1.36a5.2,5.2,0,0,0-2.36,4.07c0,1.5,1.06,2.11,2.36,1.36A5.19,5.19,0,0,0,138.92,84Z"/><path class="cls-44" d="M138.92,84A5.19,5.19,0,0,1,136.57,88c-1.3.75-2.36.14-2.36-1.36a5.2,5.2,0,0,1,2.36-4.07C137.87,81.86,138.92,82.47,138.92,84Zm-.31.18c0-1.31-.91-1.84-2-1.18a4.51,4.51,0,0,0-2,3.54c0,1.3.92,1.83,2,1.17A4.49,4.49,0,0,0,138.61,84.15Z"/><path class="cls-44" d="M138.44,84a4.54,4.54,0,0,1-2,3.54c-1.13.65-2.05.12-2.05-1.18a4.52,4.52,0,0,1,2.05-3.54C137.52,82.2,138.44,82.73,138.44,84ZM138,85.35c.51-1.32.21-2.45-.68-2.53s-2,.93-2.53,2.25-.21,2.45.68,2.53S137.49,86.67,138,85.35Z"/><path class="cls-57" d="M139.81,83.46a7.14,7.14,0,0,1-3.24,5.6c-1.79,1-3.24.2-3.24-1.87a7.14,7.14,0,0,1,3.24-5.6C138.36,80.55,139.81,81.39,139.81,83.46Zm-.28.15c0-1.89-1.33-2.65-3-1.71a6.57,6.57,0,0,0-3,5.14c0,1.89,1.33,2.66,3,1.71A6.56,6.56,0,0,0,139.53,83.61Z"/><path class="cls-58" d="M133.33,87.19a7.14,7.14,0,0,1,3.24-5.6,2.21,2.21,0,0,1,2.4-.16h0a4.06,4.06,0,0,0-2.11-1.13,3.16,3.16,0,0,0-2.11.48,7.15,7.15,0,0,0-3.24,5.61,2.45,2.45,0,0,0,.77,2,4.54,4.54,0,0,0,2.47,1.15h.35C134.05,89.5,133.33,88.65,133.33,87.19Z"/><path class="cls-59" d="M138.05,85.36c-.53,1.35-1.7,2.39-2.61,2.3s-1.22-1.24-.69-2.6,1.69-2.39,2.6-2.31S138.57,84,138.05,85.36Zm-.05,0c.51-1.32.21-2.45-.68-2.53s-2,.93-2.53,2.25-.21,2.45.68,2.53S137.49,86.67,138,85.35Z"/><path class="cls-60" d="M137.25,82.57c.7,0,1.19.51,1.19,1.46a4.54,4.54,0,0,1-2,3.54c-.88.51-1.63.3-1.92-.44.23,1,1.08,1.26,2.09.68a4.73,4.73,0,0,0,2.15-3.73C138.72,83,138.11,82.41,137.25,82.57Z"/><path class="cls-61" d="M136.36,82.59a3.84,3.84,0,0,1,.64,2c-.11.64-3.63,3.12-3.63,3.12V84.14Z"/><path class="cls-62" d="M138.21,84.92s-.79-1.28-1.82-.56a20.41,20.41,0,0,0-2.84,2.79,6.63,6.63,0,0,1-2.64,2l-.53.88a15.28,15.28,0,0,0,3.12-.94,23.12,23.12,0,0,0,4-2.87A2.43,2.43,0,0,0,138.21,84.92Z"/><path class="cls-63" d="M137,84.89a3.4,3.4,0,0,0-1.72,1.1l-2.65,2.68s.47,0,1.58-1A35.47,35.47,0,0,0,137,84.89Z"/><path class="cls-64" d="M139.05,83.3a.46.46,0,0,0-.45,0l-4.73,4L135,88.7l4.76-4a.47.47,0,0,0,.1-.45A1.4,1.4,0,0,0,139.05,83.3Z"/><path class="cls-65" d="M134.31,87.29a.4.4,0,0,0-.49.1L133,88.73h0a.22.22,0,0,1,.24,0,.73.73,0,0,1,.45.5.25.25,0,0,1-.06.24l1.41-.72a.42.42,0,0,0,.16-.49A1.4,1.4,0,0,0,134.31,87.29Z"/><path class="cls-66" d="M124.77,83.76s-.4,1.51-.53,1.92a7.53,7.53,0,0,1-.72,1.32s.2,1.76.25,1.91A7.2,7.2,0,0,0,125.56,90c.31.08,2.79.2,2.79.2l.92-.62a41.71,41.71,0,0,0,3-5.63l-1.95-1.07-5.58.67-.17.33Z"/><path class="cls-67" d="M129.16,86.87c-.84.63-3.4,3-3.4,3V90c.69.08,2.59.17,2.59.17l.92-.62a23.78,23.78,0,0,0,1.53-2.53A1.31,1.31,0,0,0,129.16,86.87Z"/><path class="cls-68" d="M133.76,87.76a5.53,5.53,0,0,0-.3-.6c0-.06-.1-.27-.3-.15s-4.81,3.19-4.81,3.19-2.48-.12-2.79-.2a7.2,7.2,0,0,1-1.79-1.09c0-.15-.25-1.91-.25-1.91a7.53,7.53,0,0,0,.72-1.32c.13-.41.53-1.92.53-1.92l-2.9,2.48s-2.27,5-1.17,6.89,2.94,1.87,4.49,1.22a71.35,71.35,0,0,0,7.38-4.25A2.73,2.73,0,0,0,133.76,87.76Z"/><path class="cls-69" d="M123.78,88.91A7.2,7.2,0,0,0,125.57,90c.31.08,2.79.2,2.79.2S133,87.13,133.17,87s.28.09.3.15.14.25.23.43a9.88,9.88,0,0,0,.83-2.56c-.12-.42-2.43.15-3.13.92s-2.92,4-2.92,4l-2.78-.08-2-1.21A2,2,0,0,0,123.78,88.91Z"/><path class="cls-70" d="M134,88.18a2.77,2.77,0,0,0-.51-1.05c.8,1.32-.44,2.42-1.32,2.87s-7,3.6-8.37,4.22-2.35-2-2.35-2l-1,.56c.12.45,2,2.31,2.75,2.29s6.75-3.39,8.58-4.22A3.34,3.34,0,0,0,134,88.18Z"/><path class="cls-71" d="M134,88.18c.07,1.42-2.28,2.45-3.33,3s-5.39,2.95-7,3.56S121,92.47,121,92.47l-1.77-.24L118.43,94a17.25,17.25,0,0,0,1.85,1.15,6.26,6.26,0,0,0,2.33.35,9.3,9.3,0,0,0,3.13-.88c.78-.37,4.38-2.34,5.1-2.65a6.18,6.18,0,0,0,2.68-2.15C134.17,88.69,134,88.18,134,88.18Z"/><path class="cls-29" d="M130.84,91.93A6.42,6.42,0,0,0,133.37,90c-1.19,1.14-4,2.44-5.43,3.2a20.6,20.6,0,0,1-4.74,2.08c-1,.12-3.35-1.92-3.35-1.92l0-.43-.88-.05L118.43,94a17.25,17.25,0,0,0,1.85,1.15,6.26,6.26,0,0,0,2.33.35,9.3,9.3,0,0,0,3.13-.88C126.52,94.21,130.12,92.24,130.84,91.93Z"/><path class="cls-72" d="M130.84,91.93A6.42,6.42,0,0,0,133.37,90c-1.19,1.14-4,2.44-5.43,3.2a20.6,20.6,0,0,1-4.74,2.08c-1,.12-3.35-1.92-3.35-1.92l0-.43-.88-.05L118.43,94a17.25,17.25,0,0,0,1.85,1.15,6.26,6.26,0,0,0,2.33.35,9.3,9.3,0,0,0,3.13-.88C126.52,94.21,130.12,92.24,130.84,91.93Z"/><path class="cls-73" d="M131.67,83.56s-4.6.71-5.25.75a5.31,5.31,0,0,1-2.47-.9c-.47-.35-.12-2.37.25-3a37.56,37.56,0,0,1,3.51-4.07,37.43,37.43,0,0,1,5.68-2.94,3.06,3.06,0,0,1,2.13.23c.51.2,2.71,1.47,1.93,3.65S131.67,83.56,131.67,83.56Z"/><path class="cls-74" d="M129.05,81.71a20.58,20.58,0,0,0,4.31-1.17,3.14,3.14,0,0,0-1.85-2.9,8.94,8.94,0,0,0-3.7-1.42l-.1.08a37.56,37.56,0,0,0-3.51,4.07A2.9,2.9,0,0,0,124,81,8.27,8.27,0,0,0,129.05,81.71Z"/><path class="cls-75" d="M137.45,77.24c.78-2.18-1.42-3.45-1.93-3.65a3.84,3.84,0,0,0-.92-.29,2.82,2.82,0,0,1,1.8,1.32c.82,1.76-.66,3.34-1.47,4.23s-1.27,1.39-1.72,1.9a11.44,11.44,0,0,1-2.84,2.38c-.89.37-4.53,1.25-6.64-.33a.87.87,0,0,0,.22.61,5.31,5.31,0,0,0,2.47.9c.65,0,5.25-.75,5.25-.75S136.67,79.41,137.45,77.24Z"/><path class="cls-76" d="M137.61,80.37s.81-1.32,1.53-.77,1.93,1.12,2.13.91,0-.35-.37-.62-1.24-.75-1.24-.75l-1-1.43Z"/><path class="cls-77" d="M138.88,78.8c0,.28-.13.51-.3.51s-.29-.23-.29-.51.13-.51.29-.51S138.88,78.52,138.88,78.8Z"/><path class="cls-78" d="M129.16,86.87s2.22-3.16,2.57-3.63,4.52-4.13,5.32-6.2a2.74,2.74,0,0,0-1.53-3.45,3.92,3.92,0,0,1,3.28.48c1.32,1.08,0,3.94,0,4s-2.38,5.24-2.38,5.24a7.41,7.41,0,0,1-2,1.94c-1.19.68-5.38,2.84-5.38,2.84Z"/><path class="cls-79" d="M136.42,83.33l1.35-3a28,28,0,0,1-4.5,4.58c-1.11.84-4.28,3.16-4.28,3.16s4.19-2.16,5.38-2.84A7.41,7.41,0,0,0,136.42,83.33Z"/><path class="cls-80" d="M135.11,79.79c-1.45,1.62-3.15,3.16-3.38,3.45-.35.47-2.57,3.63-2.57,3.63a82.24,82.24,0,0,0,6.6-5.41c.31-.31.6-.61.86-.91Z"/><path class="cls-41" d="M135.76,81.46a82.24,82.24,0,0,1-6.6,5.41L129,88.11s3.17-2.32,4.28-3.16a28,28,0,0,0,4.5-4.58l1-2.28a9.06,9.06,0,0,0,.49-1.53A16.57,16.57,0,0,1,135.76,81.46Z"/><path class="cls-81" d="M119.74,76.19h0l-1.66-.93a.19.19,0,0,0-.19,0,.59.59,0,0,0-.25.44.17.17,0,0,0,.08.16l1.66.93a.15.15,0,0,0,.18,0,.54.54,0,0,0,.25-.43A.17.17,0,0,0,119.74,76.19Z"/><path class="cls-82" d="M142.39,67.84a.29.29,0,0,1,0,.55l-6.15,4.13a1,1,0,0,1-.93,0L130.84,70a.3.3,0,0,1,0-.56l6.13-3.8a1.06,1.06,0,0,1,.95,0Z"/><path class="cls-78" d="M143.32,71.57l-.72-3.5h0a.32.32,0,0,1-.17.31l-6.15,4.13a1,1,0,0,1-.93,0l-4.51-2.6a.34.34,0,0,1-.2-.31l-.71,3.68v2.52a.37.37,0,0,0,.22.34l5,2.91a1.09,1.09,0,0,0,1.05,0l6.88-4.62a.37.37,0,0,0,.2-.35Z"/><path class="cls-83" d="M135.09,76.45a1.23,1.23,0,0,0,1.15,0l7.08-4.75v2.42a.37.37,0,0,1-.2.35l-6.88,4.62a1.09,1.09,0,0,1-1.05,0l-5-2.91a.37.37,0,0,1-.22-.34V73.46Z"/><path class="cls-84" d="M123.61,86.93a1,1,0,0,1,0-.42,3,3,0,0,0-.44-1.58c-.24-.34-.13.64-.5.73h0a2.59,2.59,0,0,1-.38,1.43,8.66,8.66,0,0,1-.69,1.14l.53-.25,1.38-.66A.34.34,0,0,0,123.61,86.93Z"/><path class="cls-85" d="M123.61,86.93a.93.93,0,0,1,0-.24,1,1,0,0,1-.34.36,7.19,7.19,0,0,1-1.2.45c-.15.25-.33.52-.47.73l.53-.25,1.38-.66A.34.34,0,0,0,123.61,86.93Z"/><path class="cls-86" d="M130,74.73s-1.42-.37-1.69-1.49l-.41,1.13s-3.7,1.36-5.14,2.92l-.48.54,1.32.67a4.79,4.79,0,0,1,1,1.16c1-.26,2.87-.75,3.36-1,.7-.31,2.54-3.42,2.54-3.42Z"/><path class="cls-78" d="M126.4,67.75a3,3,0,0,0-2.39.88c-.88,1-2.37,2.22-2.83,2.85a28.92,28.92,0,0,0-1.87,4.32,2.32,2.32,0,0,1,.56.85,11.54,11.54,0,0,0,1-1.16c.15-.29,2.09-3.11,2.09-3.11l3.65-2.45C127.27,69.48,126.4,67.75,126.4,67.75Z"/><path class="cls-87" d="M121.48,74.51c.61-.92,1.45-2.13,1.45-2.13s2.93-2,3.64-2.44l.27-.78a1.62,1.62,0,0,0,0-.2,4.26,4.26,0,0,0-1.22.43c-.36.26-1.29.51-1.69,1.18a3.41,3.41,0,0,1-1.41,1.25c-.17,0-.69,0-.43.27s.41.62.17.86A8.08,8.08,0,0,0,121.48,74.51Z"/><path class="cls-84" d="M128.86,87.79s0,.39-.19.39-.41-.4-.68-.39-.45,0-.53.59a3.7,3.7,0,0,1-.78,1.67,4.06,4.06,0,0,0-.91,1.36c-.08.44-.14.81.43.87a2.17,2.17,0,0,0,1.67-.27,9.85,9.85,0,0,0,1.47-2,1.5,1.5,0,0,0,.14-1.15C129.33,88.5,129,88.26,128.86,87.79Z"/><path class="cls-85" d="M129.48,88.91a.77.77,0,0,0-.07-.16,2.43,2.43,0,0,1,0,.67c-.06.23-.37.49-.47.82s-.68,1.63-1.45,1.78a2.48,2.48,0,0,1-1.75-.16c0,.22.12.38.48.42a2.17,2.17,0,0,0,1.67-.27,9.85,9.85,0,0,0,1.47-2A1.5,1.5,0,0,0,129.48,88.91Z"/><path class="cls-88" d="M127.07,88.56a.63.63,0,0,0,.69.71,2.92,2.92,0,0,0,1.68-.59s0-3.69-.13-4.39-.63-2.79-.63-2.79,3.3-2.13,3.81-2.56a4.92,4.92,0,0,0,1.4-2.21,6.21,6.21,0,0,0-.4-3.13A3.48,3.48,0,0,1,130,74.73l-.45,1.75s-3.51,2.24-3.55,4S127.22,87.12,127.07,88.56Z"/><path class="cls-87" d="M127.49,66.29a5.27,5.27,0,0,1,4,1.61,6.3,6.3,0,0,1,1.5,3.87,8.74,8.74,0,0,0,.6,1.47,7.3,7.3,0,0,1,.36,1.86,12.14,12.14,0,0,1-3.45.55,3.88,3.88,0,0,1-2.57-1.28l.07-1.13s0-.85-.23-1a3.75,3.75,0,0,1-1.85-2.78A3.48,3.48,0,0,1,127.49,66.29Z"/><path class="cls-89" d="M128,66.86s1.3.49,1.12,1.06-1.5,2.21-1.12,3.43a4.2,4.2,0,0,1-1.57-2.83C126.43,66.88,126.87,66.44,128,66.86Z"/><path class="cls-29" d="M131.45,73.2c-.18-.69-1.51-.41-2-.3s-.5,0-1-.52a1.7,1.7,0,0,0-1-.4c.16.12.28.19.34.23.27.18.23,1,.23,1l-.07,1.13a3.88,3.88,0,0,0,2.57,1.28,8.28,8.28,0,0,0,1,0A4.78,4.78,0,0,0,131.45,73.2Z"/><path class="cls-90" d="M126.72,69l.53.37s1.15.48,1.69-1.28c.32-1.07-.93-.6-1.06-1.51S126.72,69,126.72,69Z"/><path class="cls-91" d="M124.61,67.23l.08.3c.2.66.76,2.25,1.5,2.29.92.05,1.54-.82,2-1.61s-1-2.07-1-2.07Z"/><path class="cls-90" d="M125.77,68.89c-.21,0-.17-.23-.16-.39a2.42,2.42,0,0,0-.24-.92,3.43,3.43,0,0,0-.38-.51l-.38.16.08.3c.2.66.76,2.25,1.5,2.29h.08a1.46,1.46,0,0,1-.32-.62S126,68.88,125.77,68.89Z"/><path class="cls-92" d="M127.65,67.86c0,.2,0,.45.23.46s.75-.64.8-.8a5.41,5.41,0,0,0,.1-1.85,2.12,2.12,0,0,0-2.26-1.79,2.25,2.25,0,0,0-2.35,2.34,7.81,7.81,0,0,0,0,.85,4.31,4.31,0,0,0,2.78.25S127.61,67.28,127.65,67.86Z"/><path class="cls-93" d="M124.21,67.07s-1.07.51-.26.88a3.31,3.31,0,0,0,3-.63h0A4.31,4.31,0,0,1,124.21,67.07Z"/><path class="cls-42" d="M127.88,68.32c-.24,0-.22-.26-.23-.46a.6.6,0,0,0-.66-.54h0a1.55,1.55,0,0,1-.24.19l.26-.05h0a.43.43,0,0,1,.48.41v.06c0,.18,0,.52.37.54h0c.3,0,.61-.36.79-.64,0-.17,0-.33,0-.44a.51.51,0,0,1,0,.13C128.63,67.68,128.2,68.33,127.88,68.32Z"/><path class="cls-42" d="M127,67.37h0a4.81,4.81,0,0,1-1,.11,3.66,3.66,0,0,1-1.62-.35.57.57,0,0,1,0-.13.39.39,0,0,0,.14,0,3.54,3.54,0,0,0,1.49.3,5,5,0,0,0,.77-.06S127,67.25,127,67.37Z"/><path class="cls-78" d="M130.55,68.84a1.39,1.39,0,0,0-.79,1.84,8,8,0,0,1,.35,2.77,9.28,9.28,0,0,1-.26,1.92l-3.35,4.31a4.31,4.31,0,0,1,.56.44,4.39,4.39,0,0,0,.63.48s3.72-3.37,4.1-4.45a23.82,23.82,0,0,0,.75-5.46C132.45,69.83,131.93,68.34,130.55,68.84Z"/><path class="cls-86" d="M123.43,83.91c0-.29-.1-2-.23-3a2.6,2.6,0,0,1-.61-.13,1.36,1.36,0,0,1-1.3.5l-.35.73.63.45a5.52,5.52,0,0,1,1.07,2.83,6.15,6.15,0,0,1-.1,1.07,2.63,2.63,0,0,0,1.15-.22S123.49,84.44,123.43,83.91Z"/><path class="cls-94" d="M117.91,76.15a2.57,2.57,0,0,1,.36-.86c.23-.25.79-.05.79-.05h.43l.61.74-1.71.85A.85.85,0,0,1,117.91,76.15Z"/><path class="cls-90" d="M119.14,76.46l-.75.37a.85.85,0,0,1-.48-.68,2.57,2.57,0,0,1,.36-.86l.07-.06a.31.31,0,0,1,0,.1,1.61,1.61,0,0,0,.45.8Z"/><path class="cls-42" d="M116,95a2.47,2.47,0,0,1,0,2.17c-.51,1.33-1.64,2.34-2.54,2.31a.91.91,0,0,0,.58.28c.89.08,2-.93,2.53-2.25S116.75,95.22,116,95Z"/><path class="cls-95" d="M116.14,95.11a2.51,2.51,0,0,1,0,2.17c-.51,1.32-1.64,2.34-2.54,2.31a.93.93,0,0,0,.58.27c.89.08,2-.92,2.53-2.24S116.92,95.28,116.14,95.11Z"/><path class="cls-44" d="M115.85,97.11c-.1,0-.23-.27-.35-.42s-.38-.72-.45-.87a.64.64,0,0,1,.43-.77,2.1,2.1,0,0,0-.59.23,3.45,3.45,0,0,0-.93.83c.45-.54.67,0,.63.41a6.52,6.52,0,0,1-.29.83c-.21.46-.51,1.14-.62,1.36s-.51.63-.61.18a1.32,1.32,0,0,0,.22.53.88.88,0,0,0,.68.39c-.44-.06,0-.88.26-1.17a5.15,5.15,0,0,1,.64-.41l1.07-.5c.18-.08.51,0,.18.59a5.22,5.22,0,0,0,.37-.75,3.45,3.45,0,0,0,.25-1.22A.82.82,0,0,1,115.85,97.11Z"/><path class="cls-96" d="M113.68,98.71c.11-.22.41-.9.62-1.36a6.52,6.52,0,0,0,.29-.83c0-.28-.1-.71-.38-.61a.82.82,0,0,1,.08.46,5.76,5.76,0,0,1-.28.83c-.22.47-.52,1.14-.62,1.37a.94.94,0,0,1-.31.35C113.19,99.33,113.57,98.94,113.68,98.71Z"/><path class="cls-46" d="M115.85,97.11a.82.82,0,0,0,.89-.76l-.29-.15a.81.81,0,0,1-.75.77A.6.6,0,0,0,115.85,97.11Z"/><path class="cls-47" d="M114.18,95.86a3.23,3.23,0,0,1,.57-.49.6.6,0,0,1,.44-.46,1.89,1.89,0,0,0-.59.23,3.29,3.29,0,0,0-.93.83C113.9,95.68,114.08,95.71,114.18,95.86Z"/><path class="cls-47" d="M113.29,99.42a1.33,1.33,0,0,1-.21-.5c-.13.07-.25,0-.3-.17a1.35,1.35,0,0,0,.21.52.88.88,0,0,0,.5.36A1.34,1.34,0,0,1,113.29,99.42Z"/><polygon class="cls-47" points="116.73 96.65 116.73 96.65 116.73 96.64 116.73 96.65"/><polygon class="cls-47" points="116.13 98.29 116.13 98.29 116.14 98.28 116.13 98.29"/><path class="cls-48" d="M116.14,98.28l0-.11c.19-.4-.07-.51-.23-.45a.68.68,0,0,1-.14.46l.31.11Z"/><path class="cls-97" d="M114.81,98.26h0l1.12-.53c.18-.08.51,0,.18.59.09-.15.17-.3.25-.46s-.06-.31-.24-.29a11.52,11.52,0,0,0-1.28.52,3.17,3.17,0,0,1-.51.13.37.37,0,0,0,.21.09A.5.5,0,0,0,114.81,98.26Z"/><path class="cls-98" d="M115.46,96.65h0a.36.36,0,0,0-.22-.11l0,.1c.27.56.4.73.91.58a1.1,1.1,0,0,0,.53-.49c0-.13,0-.25,0-.37a.82.82,0,0,1-.89.76C115.74,97.07,115.6,96.8,115.46,96.65Z"/><path class="cls-99" d="M115.52,96.74h0l-.47-.91a.64.64,0,0,1,.43-.77,1.9,1.9,0,0,0-.36.12.78.78,0,0,0-.2.56c.06.43.33.67.48,1.12.06.2.1.37.13.51a1.33,1.33,0,0,0,0-.34A.58.58,0,0,0,115.52,96.74Z"/><path class="cls-100" d="M114.27,97.43h0a1.22,1.22,0,0,0-.07.38s0-.09.07-.14c.4-.88.52-1.19.37-1.68a.29.29,0,0,0-.4-.2,2.8,2.8,0,0,0-.28.31c.45-.54.67,0,.63.41C114.57,96.69,114.37,97.12,114.27,97.43Z"/><path class="cls-101" d="M114.34,97.27h0l-.65,1.43c-.11.24-.51.63-.61.18a2.89,2.89,0,0,0,.11.35.51.51,0,0,0,.44-.28c.32-.47.48-1,.81-1.64.14-.26.27-.48.37-.64a1.48,1.48,0,0,0-.25.25A1.36,1.36,0,0,0,114.34,97.27Z"/><path class="cls-102" d="M114.94,98.19h0a1.16,1.16,0,0,0,.29-.26l-.1,0a2.11,2.11,0,0,0-1.29,1.1.91.91,0,0,0-.12.69,1,1,0,0,0,.25.06c-.44-.06,0-.88.26-1.17A6.39,6.39,0,0,1,114.94,98.19Z"/><path class="cls-103" d="M115.58,97c0-.44-.31-.61-.69-.39a1.52,1.52,0,0,0-.69,1.19c0,.44.31.62.69.4A1.54,1.54,0,0,0,115.58,97Z"/><path class="cls-44" d="M115.52,97.06c0-.4-.28-.56-.63-.36a1.37,1.37,0,0,0-.63,1.08c0,.4.28.56.63.36A1.35,1.35,0,0,0,115.52,97.06Z"/><path class="cls-104" d="M115.23,97.22c0-.21-.15-.3-.34-.19a.75.75,0,0,0-.34.59c0,.22.15.31.34.2A.76.76,0,0,0,115.23,97.22Z"/><path class="cls-42" d="M118.49,95.72a7.15,7.15,0,0,1-3.24,5.61c-1.79,1-3.24.2-3.24-1.87a7.18,7.18,0,0,1,3.24-5.61C117,92.82,118.49,93.66,118.49,95.72Zm-.89.51c0-1.5-1-2.1-2.35-1.35A5.19,5.19,0,0,0,112.9,99c0,1.5,1,2.11,2.35,1.36A5.21,5.21,0,0,0,117.6,96.23Z"/><path class="cls-44" d="M117.6,96.23a5.21,5.21,0,0,1-2.35,4.08c-1.3.75-2.35.14-2.35-1.36a5.19,5.19,0,0,1,2.35-4.07C116.55,94.13,117.6,94.73,117.6,96.23Zm-.31.18c0-1.3-.91-1.83-2-1.18a4.51,4.51,0,0,0-2,3.54c0,1.3.91,1.83,2,1.18A4.5,4.5,0,0,0,117.29,96.41Z"/><path class="cls-44" d="M117.12,96.3a4.49,4.49,0,0,1-2,3.53c-1.13.66-2,.13-2-1.17a4.5,4.5,0,0,1,2-3.54C116.21,94.46,117.12,95,117.12,96.3Zm-.44,1.32c.51-1.32.21-2.45-.67-2.53s-2,.92-2.53,2.24-.21,2.45.67,2.53S116.17,98.94,116.68,97.62Z"/><path class="cls-57" d="M118.49,95.72a7.15,7.15,0,0,1-3.24,5.61c-1.79,1-3.24.2-3.24-1.87a7.18,7.18,0,0,1,3.24-5.61C117,92.82,118.49,93.66,118.49,95.72Zm-.27.16c0-1.89-1.33-2.66-3-1.71a6.52,6.52,0,0,0-3,5.13c0,1.9,1.32,2.66,3,1.72A6.57,6.57,0,0,0,118.22,95.88Z"/><path class="cls-105" d="M112,99.46a7.18,7.18,0,0,1,3.24-5.61,2.19,2.19,0,0,1,2.4-.15h0a4,4,0,0,0-2.1-1.13,3.13,3.13,0,0,0-2.11.47,7.18,7.18,0,0,0-3.24,5.61,2.46,2.46,0,0,0,.77,2,4.47,4.47,0,0,0,2.47,1.14,1,1,0,0,0,.35,0C112.73,101.76,112,100.92,112,99.46Z"/><path class="cls-106" d="M116.73,97.62c-.53,1.36-1.69,2.39-2.6,2.31s-1.23-1.25-.7-2.6,1.69-2.39,2.6-2.31S117.26,96.27,116.73,97.62Zm0,0c.51-1.32.21-2.45-.67-2.53s-2,.92-2.53,2.24-.21,2.45.67,2.53S116.17,98.94,116.68,97.62Z"/><path class="cls-107" d="M115.94,94.84c.7,0,1.18.51,1.18,1.46a4.49,4.49,0,0,1-2,3.53c-.88.51-1.63.3-1.92-.43.24.95,1.08,1.26,2.09.68a4.76,4.76,0,0,0,2.15-3.73C117.4,95.25,116.79,94.68,115.94,94.84Z"/><path class="cls-108" d="M116.74,97.1c0-.78-.55-1.1-1.22-.71a2.72,2.72,0,0,0-1.23,2.13c0,.78.55,1.1,1.23.71A2.75,2.75,0,0,0,116.74,97.1Z"/><path class="cls-44" d="M116.63,97.17c0-.71-.5-1-1.11-.64a2.43,2.43,0,0,0-1.12,1.92c0,.71.5,1,1.12.64A2.45,2.45,0,0,0,116.63,97.17Z"/><path class="cls-109" d="M116.28,97.37c0-.48-.34-.68-.76-.44a1.69,1.69,0,0,0-.76,1.32c0,.48.34.68.76.44A1.69,1.69,0,0,0,116.28,97.37Z"/><path class="cls-44" d="M116.2,97.41c0-.44-.3-.62-.68-.4a1.54,1.54,0,0,0-.69,1.2c0,.44.31.61.69.39A1.51,1.51,0,0,0,116.2,97.41Z"/><path class="cls-110" d="M122.82,81.33l-.94.48s1.4,1.51,1.52,1.7-5-2.46-5-2.46l.77-.27,1-.47Z"/><path class="cls-78" d="M123.33,83.39a19,19,0,0,0-2.09-1.21s-1.9-.54-2.08-1.4l-.47-.29a1.07,1.07,0,0,0-1.4.2c-.66.71-3.84,5.43-3.87,5.43a4.15,4.15,0,0,0,.85,3.74c-.52.38-2.92,2.26-3.13,4.57a1.76,1.76,0,0,0,1.62.76,3.24,3.24,0,0,0,2-.73c.36-.24,1.41-.71,1.53-.22s1,.67,1.62.42a8,8,0,0,0,1.69-1.59,2,2,0,0,1,.21.29s1,0,2.31-1.57L121.65,89l1.52-4.16S123.62,83.67,123.33,83.39Z"/><path class="cls-29" d="M118.62,91.7h0Z"/><path class="cls-29" d="M118,91.73c-2.58.36-4.65,2.87-5.07,3.45a3.23,3.23,0,0,0,1.88-.72c.36-.24,1.41-.71,1.53-.22s1,.67,1.62.42a8,8,0,0,0,1.69-1.59A6.09,6.09,0,0,0,118,91.73Z"/><path d="M116.91,97.86l0-.1c.43-.11.71-.28.7-.43s-.08-.29-.88-.47-1.19-1.16-1.14-2.92c0,0,0-.11,0-.12h0l.06,0s0,0,0,.15c-.06,2.13.55,2.71,1.07,2.83s1,.33,1,.56S117.41,97.73,116.91,97.86Z"/><path class="cls-29" d="M120.67,91.69a2.91,2.91,0,0,0,1.25-1.06L121.65,89a11.91,11.91,0,0,1-3.87,1.23,9,9,0,0,1-3.49-.37l.26.35a18.41,18.41,0,0,1,3.26,1.43A13.89,13.89,0,0,0,120.67,91.69Z"/><path class="cls-111" d="M116.54,87.08c-.46,0-.84,0-.84,0h0l0,0a1.89,1.89,0,0,1-.2-1.54h0C115.67,85.1,117,83,117,83l.08,0s0,.28.82.79a18.84,18.84,0,0,0,1.83,1l0,0-2,2.16h0a5.65,5.65,0,0,1-1.24.11Z"/><path class="cls-112" d="M115.7,87a8.8,8.8,0,0,0,2.07-.08l1.91-2.11a16.52,16.52,0,0,1-1.83-.95C117,83.33,117,83,117,83s-1.3,2.08-1.51,2.46A1.91,1.91,0,0,0,115.7,87Z"/><path class="cls-113" d="M120.67,91.69a13.89,13.89,0,0,1-2.86,0l.1.06a5,5,0,0,1,1.9,1.65s1,0,2.31-1.57l-.2-1.16A2.91,2.91,0,0,1,120.67,91.69Z"/><path class="cls-114" d="M123.2,84.78a2.52,2.52,0,0,0-.91,1c-.49,1-1.58,3.67-1.58,3.67s-.14,2.27,1.36,2.35l.05-.06L121.65,89l1.52-4.16Z"/><path class="cls-115" d="M121.65,89l-.94.49s-.14,2.27,1.36,2.35l.05-.06Z"/><path class="cls-116" d="M119.1,85a.46.46,0,0,1-.43.5.5.5,0,0,1,0-1A.46.46,0,0,1,119.1,85Z"/><path class="cls-31" d="M119,85a.29.29,0,1,1-.57,0,.29.29,0,1,1,.57,0Z"/><ellipse class="cls-117" cx="117.05" cy="84.01" rx="0.43" ry="0.49"/><path class="cls-31" d="M117.33,84a.28.28,0,1,1-.56,0,.28.28,0,1,1,.56,0Z"/><path class="cls-118" d="M117.91,85.67a1.07,1.07,0,1,1-1.06-1.22A1.15,1.15,0,0,1,117.91,85.67Z"/><ellipse class="cls-31" cx="116.85" cy="85.67" rx="0.7" ry="0.8"/><path class="cls-119" d="M115.7,87a8.8,8.8,0,0,0,2.07-.08l1.91-2.11a16.52,16.52,0,0,1-1.83-.95C117,83.33,117,83,117,83s-1.3,2.08-1.51,2.46A1.91,1.91,0,0,0,115.7,87Z"/><path class="cls-120" d="M117,83l-1.34,2.17a19.77,19.77,0,0,1,3.23.47l.78-.86a16.52,16.52,0,0,1-1.83-.95C117,83.33,117,83,117,83Z"/><path class="cls-121" d="M119.93,81.62a1.51,1.51,0,0,1-.77-.84l-.47-.29a1.07,1.07,0,0,0-1.4.2c-.66.71-3.84,5.43-3.87,5.43a4.13,4.13,0,0,0,.87,3.75s.86-1.94,1.41-2.86A57.54,57.54,0,0,1,119.93,81.62Z"/><path class="cls-77" d="M113.7,87.31a9.16,9.16,0,0,1,.09-1.72c-.22.33-.37.53-.37.53a4.26,4.26,0,0,0-.06,1.9Z"/><path class="cls-77" d="M118,89.61l-.21.63a9.19,9.19,0,0,0,2.95-.74l.28-.7A13.17,13.17,0,0,1,118,89.61Z"/><path class="cls-122" d="M116.34,98.07l-.73-.39a.15.15,0,0,0-.11,0,.34.34,0,0,0-.15.26.11.11,0,0,0,.05.1l.73.38s.06,0,.1,0a.31.31,0,0,0,.15-.26A.1.1,0,0,0,116.34,98.07Z"/><path class="cls-123" d="M116.49,99c0,.06-.19,0-.38,0s-.33-.17-.31-.23L116,98v-.19l1.29-3.45v-.27l.33-.92,1,.35-.32.91-.19.23-1.27,3.41-.11.22Z"/><path class="cls-124" d="M118.64,93.54c0,.08-.27.07-.55,0s-.47-.24-.44-.32.27-.07.55,0S118.67,93.46,118.64,93.54Z"/><g class="cls-125"><path d="M118.53,93.82l0,.07h-.15a1.73,1.73,0,0,1-.4-.09,1.58,1.58,0,0,1-.37-.19l-.08-.06,0-.06.09.08a1.42,1.42,0,0,0,.35.18,1.77,1.77,0,0,0,.39.09C118.46,93.85,118.51,93.84,118.53,93.82Z"/></g><g class="cls-125"><path d="M118.41,94.15l0,.06h-.13a1.62,1.62,0,0,1-.78-.28l-.08-.07,0-.06a.38.38,0,0,0,.09.09,1.72,1.72,0,0,0,.36.18,1.65,1.65,0,0,0,.39.09A.44.44,0,0,0,118.41,94.15Z"/></g><g class="cls-125"><path d="M117,97.76l0,0h0a1.59,1.59,0,0,1-.38-.09,1.63,1.63,0,0,1-.35-.17l0,0,0,0s0,0,0,0a1.79,1.79,0,0,0,.34.17,2,2,0,0,0,.36.08Z"/></g><g class="cls-125"><path d="M117.07,97.49l0,.05H117a1.7,1.7,0,0,1-.38-.09,1.53,1.53,0,0,1-.34-.17l0,0,0-.05,0,0a1.44,1.44,0,0,0,.33.17,1.9,1.9,0,0,0,.37.08Z"/></g><path class="cls-29" d="M117.3,94.4a4.47,4.47,0,0,0,.74.27l.07,0,.18-.22h0a3.14,3.14,0,0,1-1-.35v.27Z"/><path class="cls-29" d="M116,97.84V98h0s.11.19.71.28l.08-.16A1.25,1.25,0,0,1,116,97.84Z"/><path class="cls-126" d="M116.77,98.41l-.15-.09a.06.06,0,0,0-.07,0,.2.2,0,0,0-.09.16.06.06,0,0,0,0,.06l.15.09s0,0,.06,0a.19.19,0,0,0,.1-.16A.06.06,0,0,0,116.77,98.41Z"/><path class="cls-127" d="M116.8,98.47a.19.19,0,0,1-.1.16s0,0-.06,0a.06.06,0,0,1,0-.06.22.22,0,0,1,.09-.17h.07A.06.06,0,0,1,116.8,98.47Z"/><path class="cls-29" d="M122.09,91.58a2.69,2.69,0,0,1-1.3,1,3.89,3.89,0,0,1-1.45-.1l-.38,0a4.9,4.9,0,0,1,.64.63,2,2,0,0,1,.21.29s1,0,2.31-1.57Z"/><path class="cls-128" d="M118.3,92l-.48,1.29a.61.61,0,0,0,.3.2.86.86,0,0,0,.37,0l.35-1.14Z"/><path class="cls-76" d="M126.63,80a9.33,9.33,0,0,0-2.34-1.79c-.8-.46-2.08-1.25-3.35-1.88s-1.59-.42-1.59-.42l5.29,5.42,1-.15a1.34,1.34,0,0,0,.55-.13C126.64,80.89,126.68,80.24,126.63,80Z"/><path class="cls-129" d="M124.64,81.33l1-.15a1.34,1.34,0,0,0,.55-.13c.4-.16.44-.81.39-1,0,0,0,0,0-.07a2.08,2.08,0,0,0-.78-.19c-.5,0-1.35,1-1.36,1.06s0,.12-.09.24Z"/><path class="cls-130" d="M124.26,79s.79-.11.43-.35-2.23-1.3-2.23-1.3l.08,1Z"/><path class="cls-76" d="M116.91,76.15l0,.18a2.48,2.48,0,0,1,1.29.88l.34-.28A5.26,5.26,0,0,0,116.91,76.15Z"/><path class="cls-78" d="M125.85,79.75V80a7.37,7.37,0,0,0-1,1.15,3.61,3.61,0,0,0,.86-.11v.11a3.29,3.29,0,0,1-1.09.3c-.56,0-4,0-5.08-.63-1.45-.86-1.63-3.36-1.63-3.36a3.79,3.79,0,0,1,1.44-1.56l.91.58,3.41,2.08Z"/><path class="cls-131" d="M124.49,81.46c.06-.52,1.14-1.55,1.33-1.73l0,0-2.18-1.18-3.41-2.08-.91-.58a3.79,3.79,0,0,0-1.44,1.56s.18,2.5,1.63,3.36c1,.6,4.11.66,4.95.63Z"/><path class="cls-29" d="M125.82,79.73c-.19.18-1.27,1.21-1.33,1.73h.13a3.29,3.29,0,0,0,1.09-.3v-.11a3.61,3.61,0,0,1-.86.11,7.37,7.37,0,0,1,1-1.15v-.26Z"/><path class="cls-132" d="M125,80c-.09.26-.48.35-.86.21s-.61-.46-.51-.72.48-.35.86-.21S125.08,79.7,125,80Z"/><path class="cls-132" d="M119.42,76.93a.52.52,0,0,1-.71.07.6.6,0,0,1,.86-.76A.52.52,0,0,1,119.42,76.93Z"/><path class="cls-76" d="M119.33,76.83a.36.36,0,0,1-.48,0c-.11-.12-.06-.33.1-.48a.3.3,0,1,1,.38.43Z"/><path class="cls-76" d="M124.68,79.85c-.05.14-.27.2-.48.12s-.34-.26-.29-.4.27-.2.48-.12S124.73,79.7,124.68,79.85Z"/><path class="cls-76" d="M125.92,77.74a5.33,5.33,0,0,0-.61.44c-.14.15-1.35,1.31-1.35,1.31l.73.38a2,2,0,0,1,.16-.57c.11-.22,1-1.11,1.16-1.11l.31-.22Z"/><path class="cls-76" d="M118,72.64l-.29.49.36.49s.42,1.23.53,1.67.22,1.42.22,1.42l.69-.25a3.26,3.26,0,0,1-.38-.75c-.1-.37-.66-2.18-.66-2.18l0-.56Z"/><path class="cls-133" d="M122.18,76.73a1.81,1.81,0,0,0-1.92-.24s-1.66,3.36-.6,4.15,4-2.07,4-2.07A3.26,3.26,0,0,0,122.18,76.73Z"/><path class="cls-134" d="M125.92,77.76a4.36,4.36,0,0,1,1.6-1c.63-.09,1.87.12,1.86,1s-1.14.73-1.77.73a7.15,7.15,0,0,1-1.6-.3A1.11,1.11,0,0,1,125.92,77.76Z"/><path class="cls-135" d="M117.49,70.18a3.16,3.16,0,0,0-.51,1.44,3.69,3.69,0,0,0,.7,1.51,1,1,0,0,1,.74-.15,1.89,1.89,0,0,0,.31-.41C118.73,72.47,118.48,70.61,117.49,70.18Z"/><path class="cls-136" d="M126.46,80.25a.9.9,0,0,1-.4.7c-.22.13-.4,0-.4-.23a.9.9,0,0,1,.4-.7C126.28,79.89,126.46,80,126.46,80.25Z"/><path class="cls-76" d="M126.54,80.29a.9.9,0,0,1-.4.7c-.22.13-.4,0-.4-.23a.9.9,0,0,1,.4-.7C126.36,79.93,126.54,80,126.54,80.29Z"/><path class="cls-137" d="M128,81.16h0l-1.66-.92s-.11,0-.19,0a.53.53,0,0,0-.25.43.19.19,0,0,0,.07.16l1.67.93a.17.17,0,0,0,.18,0,.56.56,0,0,0,.25-.44A.19.19,0,0,0,128,81.16Z"/><path class="cls-76" d="M128.06,81.32a.56.56,0,0,1-.25.44c-.14.08-.25,0-.25-.15a.54.54,0,0,1,.25-.43C128,81.1,128.06,81.16,128.06,81.32Z"/><path class="cls-76" d="M125,80.87l-.19.29a4,4,0,0,1,1.82,1l.15-.17A4.42,4.42,0,0,0,125,80.87Z"/><path class="cls-138" d="M127,82.18a.2.2,0,0,1-.2.19.2.2,0,0,1-.19-.19.19.19,0,0,1,.19-.19A.19.19,0,0,1,127,82.18Z"/><path class="cls-139" d="M117.05,76.22a.2.2,0,0,1-.19.19.19.19,0,0,1-.19-.19.18.18,0,0,1,.19-.19A.19.19,0,0,1,117.05,76.22Z"/><path class="cls-91" d="M125,81.29a2,2,0,0,1,.27-.62,3.25,3.25,0,0,1,.27-.49,9.78,9.78,0,0,1,1-.49,3.24,3.24,0,0,1,.56.43,3.9,3.9,0,0,0,.63.48c-.16.35-.42.74-.76.81l-.13.13c-.06.06-.06.16-.09.22s-.15.39-.63.37a3,3,0,0,1-.88-.24C125,81.8,125,81.5,125,81.29Z"/><path class="cls-90" d="M126.79,81.37c-.3,0-.35.35-.6.23s-.35-.1-.79-.14a.46.46,0,0,1-.37-.38.68.68,0,0,0-.06.21c0,.21,0,.51.23.6a3,3,0,0,0,.88.24c.48,0,.52-.18.63-.37s0-.16.09-.22l.13-.13h0Z"/></g></g></g></svg>