<svg xmlns="http://www.w3.org/2000/svg" xmlns:xlink="http://www.w3.org/1999/xlink" viewBox="0 0 147.39 140.77"><defs><style>.cls-1{isolation:isolate;}.cls-2{fill:#fcddde;}.cls-2,.cls-38{stroke:#ed1c24;}.cls-115,.cls-2,.cls-3,.cls-38{stroke-miterlimit:10;}.cls-2,.cls-3{stroke-width:0.3px;}.cls-3{fill:#e5f5fb;stroke:#009edb;}.cls-4{fill:#353535;}.cls-5{fill:#161715;}.cls-6{fill:#1f201f;}.cls-7{fill:#8d8a8e;}.cls-8{fill:#59595b;}.cls-9{fill:#3b3a3b;}.cls-10{fill:url(#linear-gradient);}.cls-11{fill:#d2d2d2;}.cls-12{fill:url(#linear-gradient-2);}.cls-13{fill:#2b343a;}.cls-14,.cls-20,.cls-22{fill:#d4dce1;}.cls-15,.cls-16,.cls-17{fill:#82919c;}.cls-102,.cls-109,.cls-16,.cls-17,.cls-20,.cls-22,.cls-25,.cls-29,.cls-40,.cls-45{mix-blend-mode:multiply;}.cls-102,.cls-16,.cls-18,.cls-20,.cls-25,.cls-33,.cls-34{opacity:0.5;}.cls-17,.cls-19,.cls-29,.cls-37{opacity:0.2;}.cls-18,.cls-19,.cls-30,.cls-31,.cls-37,.cls-38{fill:#fff;}.cls-18,.cls-19,.cls-30{mix-blend-mode:overlay;}.cls-21{fill:#9d9e9b;}.cls-23{fill:#444d50;}.cls-24{fill:#171d1f;}.cls-26{fill:#556165;}.cls-27{fill:#7c7c7a;}.cls-28{fill:#e8e6e7;}.cls-30,.cls-40{opacity:0.1;}.cls-32,.cls-33{fill:#4a585e;}.cls-34,.cls-35{fill:#3c4a4f;}.cls-36{fill:#b8c6ca;}.cls-38{stroke-width:0.51px;}.cls-39{fill:#ed1c24;}.cls-102,.cls-41{fill:#4dbea0;}.cls-42{fill:#5f3b21;}.cls-43{fill:#020506;}.cls-44,.cls-45{fill:#415e71;}.cls-45{opacity:0.3;}.cls-46{fill:#40454a;}.cls-47{fill:#697680;}.cls-48{fill:#7d8a94;}.cls-49{fill:#575454;}.cls-50{fill:#8d262a;}.cls-51{fill:url(#linear-gradient-3);}.cls-52{fill:url(#linear-gradient-4);}.cls-53{fill:url(#linear-gradient-5);}.cls-54{fill:url(#linear-gradient-6);}.cls-55{fill:#32393d;}.cls-56{fill:#1d2628;}.cls-57{fill:#2d72ad;}.cls-58{fill:#374042;}.cls-59{fill:url(#linear-gradient-7);}.cls-60{fill:url(#linear-gradient-8);}.cls-61{fill:#83868b;}.cls-62{fill:#797b80;}.cls-63{fill:url(#linear-gradient-9);}.cls-64{fill:url(#linear-gradient-10);}.cls-65{fill:#979a9f;}.cls-66{fill:url(#linear-gradient-11);}.cls-67{fill:url(#linear-gradient-12);}.cls-68{fill:url(#linear-gradient-13);}.cls-69{fill:url(#linear-gradient-14);}.cls-70{fill:#cf3430;}.cls-71{mix-blend-mode:screen;}.cls-72{fill:url(#linear-gradient-15);}.cls-73{fill:#465155;}.cls-74{fill:url(#linear-gradient-16);}.cls-75{fill:url(#linear-gradient-17);}.cls-76{fill:url(#linear-gradient-18);}.cls-77{fill:url(#linear-gradient-19);}.cls-78{fill:url(#linear-gradient-20);}.cls-79{fill:url(#linear-gradient-21);}.cls-80{fill:url(#linear-gradient-22);}.cls-81{fill:url(#linear-gradient-23);}.cls-82{fill:url(#linear-gradient-24);}.cls-83{fill:url(#linear-gradient-25);}.cls-84{fill:#899ca8;}.cls-85{fill:url(#linear-gradient-26);}.cls-86{fill:url(#linear-gradient-27);}.cls-87{fill:url(#linear-gradient-28);}.cls-88{fill:url(#linear-gradient-29);}.cls-89{fill:url(#linear-gradient-30);}.cls-90{fill:#a8292e;}.cls-91{fill:#8fa0ab;}.cls-92{fill:#646b71;}.cls-93{fill:#7b8188;}.cls-94{fill:#445059;}.cls-95{fill:#505d66;}.cls-96{fill:#67757f;}.cls-97{fill:#8d9da8;}.cls-98{fill:#586065;}.cls-99{fill:url(#linear-gradient-31);}.cls-100{fill:#4c5358;}.cls-101{fill:#342518;}.cls-103{fill:#ce876f;}.cls-104{fill:#ef4a61;}.cls-105{fill:#cc2c2b;}.cls-106{fill:#37201a;}.cls-107{fill:#472414;}.cls-108,.cls-109{fill:#d09d82;}.cls-109{opacity:0.15;}.cls-110{fill:#f26b7e;}.cls-111{fill:#fbc2a2;}.cls-112{fill:#5d4128;}.cls-113{fill:#dbf1fb;}.cls-114{fill:#b8d4e1;}.cls-115{fill:none;stroke:#ef5b88;stroke-width:0.5px;}</style><linearGradient id="linear-gradient" x1="55.97" y1="106.14" x2="49.72" y2="112.81" gradientUnits="userSpaceOnUse"><stop offset="0" stop-color="#b9b8ba"/><stop offset="1" stop-color="#d5d5d5"/></linearGradient><linearGradient id="linear-gradient-2" x1="111.8" y1="73.16" x2="105.55" y2="79.84" xlink:href="#linear-gradient"/><linearGradient id="linear-gradient-3" x1="1798.72" y1="89.99" x2="1798.28" y2="90.8" gradientTransform="translate(-1665.39)" gradientUnits="userSpaceOnUse"><stop offset="0" stop-color="#f27d7f"/><stop offset="0.53" stop-color="#ef4b4a"/><stop offset="1" stop-color="#a8292e"/></linearGradient><linearGradient id="linear-gradient-4" x1="1799.16" y1="85.93" x2="1800.03" y2="86.11" xlink:href="#linear-gradient-3"/><linearGradient id="linear-gradient-5" x1="1795.7" y1="87.46" x2="1795.22" y2="88" xlink:href="#linear-gradient-3"/><linearGradient id="linear-gradient-6" x1="1726.59" y1="458.5" x2="1726.64" y2="458.95" gradientTransform="translate(-1654.63 31.88) rotate(-13.21)" xlink:href="#linear-gradient-3"/><linearGradient id="linear-gradient-7" x1="1805.26" y1="90.77" x2="1805.26" y2="80.52" gradientTransform="translate(-1665.39)" gradientUnits="userSpaceOnUse"><stop offset="0" stop-color="#95979f"/><stop offset="0.01" stop-color="#96989f"/><stop offset="0.39" stop-color="#b0b2b7"/><stop offset="0.74" stop-color="#c0c2c6"/><stop offset="1" stop-color="#c6c8cb"/></linearGradient><linearGradient id="linear-gradient-8" x1="1808.19" y1="83.19" x2="1803.74" y2="91.8" xlink:href="#linear-gradient-7"/><linearGradient id="linear-gradient-9" x1="1804.22" y1="85.73" x2="1804.77" y2="85.73" gradientTransform="translate(-1665.39)" gradientUnits="userSpaceOnUse"><stop offset="0" stop-color="#6b6e74"/><stop offset="0.35" stop-color="#81848a"/><stop offset="0.72" stop-color="#919499"/><stop offset="1" stop-color="#979a9f"/></linearGradient><linearGradient id="linear-gradient-10" x1="1804.99" y1="86.24" x2="1805.19" y2="85.93" xlink:href="#linear-gradient-9"/><linearGradient id="linear-gradient-11" x1="1805.27" y1="86.35" x2="1805.82" y2="86.35" xlink:href="#linear-gradient-9"/><linearGradient id="linear-gradient-12" x1="1805.48" y1="86.39" x2="1805.84" y2="86.39" xlink:href="#linear-gradient-9"/><linearGradient id="linear-gradient-13" x1="1808.11" y1="79.49" x2="1800.17" y2="86.8" gradientTransform="translate(-1665.39)" gradientUnits="userSpaceOnUse"><stop offset="0" stop-color="#e0e0e0"/><stop offset="1" stop-color="#9da7b1"/></linearGradient><linearGradient id="linear-gradient-14" x1="1800.33" y1="84.54" x2="1810.23" y2="84.54" xlink:href="#linear-gradient-13"/><linearGradient id="linear-gradient-15" x1="1788.66" y1="90.98" x2="1789.17" y2="91.16" xlink:href="#linear-gradient-3"/><linearGradient id="linear-gradient-16" x1="1787.42" y1="89.89" x2="1787.74" y2="89.89" gradientTransform="translate(-1665.39)" gradientUnits="userSpaceOnUse"><stop offset="0" stop-color="#adafb2"/><stop offset="1" stop-color="#757e86"/></linearGradient><linearGradient id="linear-gradient-17" x1="1788.76" y1="100.29" x2="1788.76" y2="89.73" xlink:href="#linear-gradient-7"/><linearGradient id="linear-gradient-18" x1="1791.78" y1="92.49" x2="1787.19" y2="101.35" xlink:href="#linear-gradient-7"/><linearGradient id="linear-gradient-19" x1="1787.69" y1="95.1" x2="1788.26" y2="95.1" xlink:href="#linear-gradient-9"/><linearGradient id="linear-gradient-20" x1="1788.48" y1="95.62" x2="1788.68" y2="95.31" xlink:href="#linear-gradient-9"/><linearGradient id="linear-gradient-21" x1="1788.77" y1="95.74" x2="1789.34" y2="95.74" xlink:href="#linear-gradient-9"/><linearGradient id="linear-gradient-22" x1="1788.99" y1="95.78" x2="1789.36" y2="95.78" xlink:href="#linear-gradient-9"/><linearGradient id="linear-gradient-23" x1="1787.98" y1="91.6" x2="1793.92" y2="91.6" xlink:href="#linear-gradient-13"/><linearGradient id="linear-gradient-24" x1="1787.42" y1="89.33" x2="1792.63" y2="89.33" xlink:href="#linear-gradient-13"/><linearGradient id="linear-gradient-25" x1="1790.34" y1="92.16" x2="1790.89" y2="92.38" xlink:href="#linear-gradient-3"/><linearGradient id="linear-gradient-26" x1="1791.67" y1="87.95" x2="1792.44" y2="88.27" gradientTransform="translate(-1665.39)" gradientUnits="userSpaceOnUse"><stop offset="0" stop-color="#5c6973"/><stop offset="0.49" stop-color="#728491"/><stop offset="1" stop-color="#5c6973"/></linearGradient><linearGradient id="linear-gradient-27" x1="1789.84" y1="86.96" x2="1790.61" y2="87.27" xlink:href="#linear-gradient-26"/><linearGradient id="linear-gradient-28" x1="1790.46" y1="87.46" x2="1791.76" y2="87.46" xlink:href="#linear-gradient-26"/><linearGradient id="linear-gradient-29" x1="1780.44" y1="204.2" x2="1781.24" y2="204.54" gradientTransform="translate(-1663.44 7.49) rotate(-4.12)" xlink:href="#linear-gradient-26"/><linearGradient id="linear-gradient-30" x1="1779.81" y1="206.06" x2="1780.43" y2="206.34" gradientTransform="translate(-1663.44 7.49) rotate(-4.12)" xlink:href="#linear-gradient-3"/><linearGradient id="linear-gradient-31" x1="1792.58" y1="80.65" x2="1792.88" y2="79.99" gradientTransform="translate(-1665.39)" gradientUnits="userSpaceOnUse"><stop offset="0" stop-color="#445059"/><stop offset="0.11" stop-color="#4e5a64"/><stop offset="0.46" stop-color="#68747e"/><stop offset="0.76" stop-color="#78848e"/><stop offset="1" stop-color="#7d8a94"/></linearGradient></defs><g class="cls-1"><g id="Layer_2" data-name="Layer 2"><g id="Layer_1-2" data-name="Layer 1"><polygon class="cls-2" points="145.01 103.63 110.68 82.6 47.71 119.57 82.04 140.6 145.01 103.63"/><polygon class="cls-3" points="133.1 96.34 110.68 82.6 47.71 119.57 70.13 133.31 133.1 96.34"/><path class="cls-4" d="M112.28,69l-1.7-1L99.23,74.64a10.71,10.71,0,0,0-.39,2.61,3.93,3.93,0,0,0,1.78,3.62L104.43,83a3.83,3.83,0,0,0,4-.25,12.68,12.68,0,0,0,5.77-10A3.9,3.9,0,0,0,112.28,69Z"/><path class="cls-4" d="M98.84,77.25a10.71,10.71,0,0,1,.39-2.61h0L95.06,77a3.29,3.29,0,0,0,1.07,1l3.56,2A4.36,4.36,0,0,1,98.84,77.25Z"/><path class="cls-5" d="M98.84,77.25a10.71,10.71,0,0,1,.39-2.61h0l-.91.52a11.69,11.69,0,0,0-.13,1.43A4,4,0,0,0,99.65,80,4.32,4.32,0,0,1,98.84,77.25Z"/><polygon class="cls-6" points="59.63 103.77 59.18 105.26 56.34 102.84 51.08 100.11 53.02 98.68 55.24 98.11 56.7 98.24 58.44 99.38 59.32 101.6 59.63 103.77"/><path class="cls-4" d="M52.62,115.76a12.71,12.71,0,0,0,5.77-10A3.9,3.9,0,0,0,56.45,102l-3.48-2a4.13,4.13,0,0,0-1.64-.5c-3.92,3.14-7.8,8-7.89,13.16a1.34,1.34,0,0,0,0,.2l.23.15L48.6,116A3.85,3.85,0,0,0,52.62,115.76Z"/><path class="cls-7" d="M58.39,105.73a12.71,12.71,0,0,1-5.77,10c-2.93,1.76-5.83,0-5.77-3.37a12.68,12.68,0,0,1,5.77-10C55.55,100.6,58.45,102.33,58.39,105.73Z"/><path class="cls-8" d="M58.39,105.73a12.71,12.71,0,0,1-5.77,10c-2.93,1.76-5.83,0-5.77-3.37a12.68,12.68,0,0,1,5.77-10C55.55,100.6,58.45,102.33,58.39,105.73Z"/><path class="cls-9" d="M57.88,106.57a10.52,10.52,0,0,1-4.75,8.3c-2.41,1.46-4.8,0-4.75-2.78a10.54,10.54,0,0,1,4.75-8.31C55.54,102.32,57.94,103.76,57.88,106.57Z"/><path class="cls-10" d="M56.39,107.29A7.23,7.23,0,0,1,53.11,113a2.06,2.06,0,0,1-3.29-1.91,7.22,7.22,0,0,1,3.29-5.71A2,2,0,0,1,56.39,107.29Z"/><path class="cls-7" d="M54.54,108.49a3,3,0,0,1-1.38,2.4.86.86,0,0,1-1.37-.8,3,3,0,0,1,1.37-2.4A.87.87,0,0,1,54.54,108.49Z"/><path class="cls-11" d="M54.45,108.78a2.32,2.32,0,0,1-1.07,1.85.67.67,0,0,1-1.07-.62,2.38,2.38,0,0,1,1.07-1.86A.67.67,0,0,1,54.45,108.78Z"/><path d="M53.38,106l-.44.22a.79.79,0,0,0-.39.62.25.25,0,0,0,.39.24l.44-.22a.79.79,0,0,0,.39-.63A.25.25,0,0,0,53.38,106Z"/><path d="M53.38,111.53c-.18.09-.26.14-.44.22a.79.79,0,0,0-.39.62.25.25,0,0,0,.39.24l.44-.22a.76.76,0,0,0,.39-.62A.25.25,0,0,0,53.38,111.53Z"/><path d="M55,107.25c.12.13.36.07.54-.15a.57.57,0,0,0,.1-.65,3.36,3.36,0,0,1-.24-.29c-.12-.13-.36-.07-.54.15a.57.57,0,0,0-.1.65C54.9,107.07,54.94,107.13,55,107.25Z"/><path d="M51.28,111.34c-.12-.14-.36-.08-.54.14a.57.57,0,0,0-.1.65l.25.29c.11.14.35.07.53-.15a.55.55,0,0,0,.1-.65Z"/><path d="M55.6,109c-.18,0-.42.14-.53.4s-.14.32-.24.53,0,.5.13.53.41-.14.53-.4l.23-.53C55.84,109.25,55.78,109,55.6,109Z"/><path d="M50.72,109.6c.18,0,.42-.14.53-.4s.14-.32.24-.53.06-.5-.12-.53-.42.14-.53.4-.15.32-.24.53S50.54,109.56,50.72,109.6Z"/><path class="cls-7" d="M114.22,72.76a12.68,12.68,0,0,1-5.77,10c-2.93,1.77-5.83,0-5.77-3.36a12.71,12.71,0,0,1,5.77-10C111.38,67.62,114.28,69.36,114.22,72.76Z"/><path class="cls-8" d="M114.22,72.76a12.68,12.68,0,0,1-5.77,10c-2.93,1.77-5.83,0-5.77-3.36a12.71,12.71,0,0,1,5.77-10C111.38,67.62,114.28,69.36,114.22,72.76Z"/><path class="cls-9" d="M113.71,73.6A10.54,10.54,0,0,1,109,81.9c-2.41,1.46-4.8,0-4.75-2.79a10.54,10.54,0,0,1,4.75-8.3C111.37,69.35,113.76,70.78,113.71,73.6Z"/><path class="cls-12" d="M112.22,74.32A7.23,7.23,0,0,1,108.94,80a2.06,2.06,0,0,1-3.29-1.91,7.25,7.25,0,0,1,3.29-5.72A2.06,2.06,0,0,1,112.22,74.32Z"/><path class="cls-7" d="M110.37,75.52A3,3,0,0,1,109,77.91a.86.86,0,0,1-1.38-.8A3,3,0,0,1,109,74.72.86.86,0,0,1,110.37,75.52Z"/><path class="cls-11" d="M110.28,75.8a2.35,2.35,0,0,1-1.07,1.86.67.67,0,0,1-1.07-.62,2.38,2.38,0,0,1,1.07-1.86A.67.67,0,0,1,110.28,75.8Z"/><path d="M109.21,73l-.44.22a.77.77,0,0,0-.39.62.24.24,0,0,0,.39.23c.18-.08.26-.13.44-.22a.76.76,0,0,0,.39-.62A.25.25,0,0,0,109.21,73Z"/><path d="M109.21,78.56l-.44.22a.77.77,0,0,0-.39.62.25.25,0,0,0,.39.24l.44-.22a.79.79,0,0,0,.39-.62A.25.25,0,0,0,109.21,78.56Z"/><path d="M110.87,74.27c.12.14.36.07.54-.15s.22-.51.1-.64-.14-.18-.24-.29-.36-.07-.54.15a.55.55,0,0,0-.1.65Z"/><path d="M107.11,78.36c-.12-.14-.36-.07-.54.15a.57.57,0,0,0-.1.65,3.36,3.36,0,0,1,.24.29c.12.13.36.07.54-.15a.55.55,0,0,0,.1-.65C107.26,78.53,107.21,78.48,107.11,78.36Z"/><path d="M111.43,76c-.18,0-.42.14-.53.4s-.14.32-.24.53-.06.49.12.53.42-.14.54-.4l.23-.53C111.67,76.28,111.61,76,111.43,76Z"/><path d="M106.55,76.63c.18,0,.42-.15.53-.4l.24-.54c.11-.25.06-.49-.12-.53s-.42.15-.53.4-.15.32-.24.54S106.37,76.59,106.55,76.63Z"/><path class="cls-13" d="M117.59,62.78,69.24,90.67,59.43,85.1l-.24,7.49V94.5c-.17.58-.3,1-.3,1L54.5,97.86a5.77,5.77,0,0,0-1.47.55l-.16.08-.14.08-.34.21-.53.36-.13.1a19.21,19.21,0,0,0-7.14,13.55l.59-.21c.41-5.2,3.47-10.68,7.53-13.32a5.13,5.13,0,0,1,2.77-.94h0a3.27,3.27,0,0,1,2.37,1,6,6,0,0,1,1.42,4.39c0,.51,0,1-.09,1.55l.62-.56c0-.33,0-.65.05-1a7.75,7.75,0,0,0-.72-3.58l0-.76,1.44-.84V97.31l50.05-29.22,1.7,1a3.27,3.27,0,0,1,1.29,1.19l0,0L113,66.69l2.4-1.39,2.18,1.06V64l6.42-3.7V59.07Z"/><polygon class="cls-14" points="97.15 0 32.43 34.14 32.43 69.77 69.24 90.67 133.38 53.66 133.38 19.57 97.15 0"/><path class="cls-6" d="M115.41,65.3,113,66.69l.53,3.49a4.29,4.29,0,0,1,.67,2.19l4.93,2.18-.78-7.82Z"/><polygon class="cls-15" points="74.22 87.8 76.03 91.81 76.03 93.18 77.54 92.31 77.54 91.58 75.59 87.01 74.22 87.8"/><polygon class="cls-15" points="102.15 80.63 102.15 79.56 100.89 78.84 62.93 100.74 62.93 104.04 63.91 104.64 101.88 82.73 101.88 81.86 101.66 81.72 101.66 80.91 102.15 80.63"/><polygon class="cls-16" points="62.93 100.74 62.93 104.04 63.91 104.64 63.91 103.77 63.69 103.63 63.69 102.3 64.18 102.54 64.18 101.47 62.93 100.74"/><polygon class="cls-17" points="64.18 102.54 63.69 102.3 63.69 103.63 101.66 81.72 101.66 80.91 64.18 102.54"/><polygon class="cls-18" points="100.89 78.84 62.93 100.74 64.18 101.47 102.15 79.56 100.89 78.84"/><polygon class="cls-19" points="101.88 81.86 63.91 103.77 63.69 103.63 101.66 81.72 101.88 81.86"/><polygon class="cls-15" points="94.67 76 96.48 80.02 96.48 81.38 97.99 80.51 97.99 79.78 96.04 75.21 94.67 76"/><polygon class="cls-16" points="94.67 76 96.48 80.02 96.48 81.38 97.23 80.95 97.23 80.02 95.35 75.61 94.67 76"/><polygon class="cls-16" points="74.22 87.8 76.03 91.81 76.03 93.18 76.78 92.75 76.78 91.81 74.9 87.41 74.22 87.8"/><polygon class="cls-18" points="97.15 0 32.43 34.14 69.24 55.04 133.38 19.57 97.15 0"/><polygon class="cls-20" points="32.43 34.14 32.43 69.77 69.24 90.67 69.24 55.04 32.43 34.14"/><path class="cls-21" d="M52.39,98.78a6.4,6.4,0,0,1,2.09-.91h0l4.41-2.42a17.7,17.7,0,0,0,1-4.55c.09-2.2-.43-12.63-1.11-15.84s-2.1-4.79-6.41-7.52S34.09,56.6,34.09,56.6A7.07,7.07,0,0,0,27,56.28c-3.87,2-11.14,6.26-12.57,8A55.93,55.93,0,0,0,7.79,80.3s-.57.42-.45,4.79.24,7.41.24,7.41-.72,0-.42,2.09.21,3.23,1.65,4.67a94.27,94.27,0,0,0,12.76,9.17A139,139,0,0,0,36.87,116c1.08.33,3.11-.2,4.82-1.25,1.09-.67,2.22-1.44,2.9-1.92C44.93,107.35,48.1,101.57,52.39,98.78Z"/><path class="cls-22" d="M52.39,98.78a6.4,6.4,0,0,1,2.09-.91h0l4.41-2.42a17.7,17.7,0,0,0,1-4.55c.09-2.2-.43-12.63-1.11-15.84a8.77,8.77,0,0,0-1-2.79c-2.34,1.39-8.4,5-10.75,6.2a9.76,9.76,0,0,0-4.12,3.74,2.84,2.84,0,0,1-.18,1.38c-.79,2.31-3.85,12.66-3.85,12.66s-.2,1.15-2.14,1.34c-.17,1-.36,2.28-.42,3.17l.7,0a4,4,0,0,0,2.67-1.2v1.29A4,4,0,0,1,37,102.1a13,13,0,0,1-3-.46,41.85,41.85,0,0,1-7.06-2.94,92,92,0,0,1-14.73-9.13c-.92-.74-2.34-2-3.56-3.22-.45-.43-.87-.86-1.23-1.25h0c.12,4.36.24,7.41.24,7.41s-.72,0-.42,2.09.21,3.23,1.65,4.67a94.27,94.27,0,0,0,12.76,9.17A139,139,0,0,0,36.87,116c1.08.33,3.11-.2,4.82-1.25,1.09-.67,2.22-1.44,2.9-1.92C44.93,107.35,48.1,101.57,52.39,98.78Z"/><path class="cls-15" d="M7.4,92.57h0a.39.39,0,0,1,.17-.07A.39.39,0,0,0,7.4,92.57Z"/><path class="cls-15" d="M11.93,97l.11.08-.71-3.26a3.83,3.83,0,0,0-.78-1.56c-.34-.28-2-2.09-2.82-3L7.46,89c.07,2.16.12,3.49.12,3.49A16.37,16.37,0,0,0,11.93,97Z"/><path class="cls-15" d="M7.57,92.5h0Z"/><path class="cls-15" d="M30.3,108s4.95,2.19,6.57,2.28a6.85,6.85,0,0,0,3.42-1.1s0,.08,0,.2l.07,0,.09-.06-.24-4-.27.17a6.9,6.9,0,0,1-2.79.92,10.78,10.78,0,0,1-3.53-.86c-.58-.2-1.09-.38-1.44-.46a3.25,3.25,0,0,0-.56-.06.73.73,0,0,0-.77.48.39.39,0,0,1-.06.11,19.07,19.07,0,0,0-.69,2.28Z"/><path class="cls-23" d="M36.87,110.25c-1.62-.09-6.57-2.28-6.57-2.28s-7.33-4.08-10-5.75S13.93,98.45,11.93,97a16.37,16.37,0,0,1-4.35-4.5s-.72,0-.42,2.09.21,3.23,1.65,4.67a94.27,94.27,0,0,0,12.76,9.17A139,139,0,0,0,36.87,116a5.07,5.07,0,0,0,2.93-.34,30.15,30.15,0,0,0,.79-3.65,17.64,17.64,0,0,0-.3-2.82A6.85,6.85,0,0,1,36.87,110.25Z"/><path class="cls-24" d="M55.38,76.92l-8.66,4.9a4.82,4.82,0,0,0-2.44,2.83,86.2,86.2,0,0,0-2.9,10.82c-.39,2.39-.74,3.72,0,3.72s4.67-3.72,6.55-5.72,8.12-8.71,8.12-8.71a3.8,3.8,0,0,0,.86-2.39c0-1.37-.31-5.1-.31-5.1S56.64,76.57,55.38,76.92Z"/><path class="cls-24" d="M41.78,81.12a116.44,116.44,0,0,1-15.41-8,83.39,83.39,0,0,1-12-8.62h0A55.69,55.69,0,0,0,7.79,80.3a.22.22,0,0,0-.06.07c.42.55,1,1.24,1.62,2.08,2,2.59,5.8,5.8,11.37,8.82S31.39,97.08,35,97.55s3.88-1.3,3.88-1.3,3.06-10.35,3.85-12.66S41.78,81.12,41.78,81.12Z"/><path class="cls-23" d="M54.3,93.22l3.28-2.09v-.95s0-.56-.93,0-2.33,1.69-2.36,2.27A4.9,4.9,0,0,0,54.3,93.22Z"/><path class="cls-25" d="M57.58,90.18s0-.39-.53-.19v.9l-2.76,1.78a4,4,0,0,0,0,.55l3.28-2.09Z"/><path class="cls-26" d="M13.05,96.94c1.11.76,4.5,3.09,6.91,4.45s7.17,4,9,5c0,0,.72.2,1-.21l.53-1.21a.77.77,0,0,0-.44-1c-1.92-1-7.25-3.83-9.5-5.11s-6.3-4-8-5.11c0,0-.65-.44-.51.31l.57,2.16A1.61,1.61,0,0,0,13.05,96.94Z"/><path class="cls-24" d="M20.05,100.39c-2.07-1.18-5.13-3.18-7.42-4.72l0,.16c3.12,2.12,5.74,3.8,7.44,4.76s5.08,2.84,9.68,5.37l.07-.17C25.1,103.2,21.8,101.38,20.05,100.39Z"/><path class="cls-24" d="M20,100.76c-1.68-1-4.23-2.58-7.28-4.64l0,.08a.59.59,0,0,0,0,.08c1.86,1.28,5,3.38,7.28,4.67,2.57,1.46,7.75,4.35,9.43,5.29a.32.32,0,0,0,.19-.11C25.1,103.6,21.77,101.74,20,100.76Z"/><path class="cls-24" d="M20.08,100c-2-1.16-5.13-3.17-7.57-4.8l0,.17c2.31,1.55,5.47,3.63,7.59,4.83,1.75,1,5.05,2.8,9.8,5.39l.07-.16C25.17,102.84,21.84,101,20.08,100Z"/><path class="cls-24" d="M20.14,99.29c-2-1.16-5.27-3.25-7.87-5l.05.17c2.6,1.73,5.81,3.82,7.88,5,1.78,1,5.15,2.83,10,5.45v0a.58.58,0,0,0,0-.16C24.21,101.55,21.42,100,20.14,99.29Z"/><path class="cls-24" d="M20.11,99.65c-2-1.15-5.15-3.17-7.72-4.88l0,.17c2.46,1.65,5.64,3.73,7.73,4.91,1.76,1,5.09,2.82,9.92,5.42l.07-.16C25.26,102.49,21.89,100.66,20.11,99.65Z"/><path class="cls-24" d="M20,101.12c-2.15-1.21-5-3.13-6.93-4.43a.41.41,0,0,0,.1.09c1.63,1.13,4.7,3.2,6.9,4.44,2.51,1.42,7.83,4.4,8.94,5l.15,0C27.24,105.19,22.43,102.5,20,101.12Z"/><path class="cls-24" d="M20.23,99.12c1.28.72,4,2.24,10,5.41a.66.66,0,0,0-.35-.36c-4.75-2.51-7.95-4.23-9.51-5.12-2.19-1.24-6.3-4-8-5.11a.73.73,0,0,0-.23-.09.42.42,0,0,0,0,.19C14.83,95.78,18.16,97.94,20.23,99.12Z"/><path class="cls-26" d="M34.45,100.49a37.76,37.76,0,0,1-7.59-3.08,92,92,0,0,1-14.73-9.13c-.92-.74-2.34-2-3.56-3.22v1.29c1.22,1.2,2.64,2.48,3.56,3.22A92,92,0,0,0,26.86,98.7a41.85,41.85,0,0,0,7.06,2.94Z"/><path class="cls-27" d="M37,100.81a14,14,0,0,1-2.52-.32l-.53,1.15a13,13,0,0,0,3,.46,4,4,0,0,0,2.67-1.2V99.61A4,4,0,0,1,37,100.81Z"/><path class="cls-27" d="M7.33,83.8c0,.38,0,.81,0,1.29h0c.36.39.78.82,1.23,1.25V85.06C8.11,84.62,7.69,84.19,7.33,83.8Z"/><path class="cls-28" d="M37.2,106.58c-1.48.09-4-1.11-5-1.32s-1,.14-1.18.44a21.68,21.68,0,0,0-.69,2.27c.3.13,5,2.19,6.56,2.28a6.85,6.85,0,0,0,3.42-1.1l-.21-3.52A7.11,7.11,0,0,1,37.2,106.58Z"/><path class="cls-28" d="M7.58,92.5a16.32,16.32,0,0,0,4.23,4.42l-.66-3a3.73,3.73,0,0,0-.73-1.46c-.36-.31-2.16-2.25-2.95-3.11C7.53,91.29,7.58,92.5,7.58,92.5Z"/><path class="cls-24" d="M29.73,109.88l-3.41-1.69-.09,0v.42a1.52,1.52,0,0,0,.72,1.2l3.28,1.76.14.06,0-.55A1.31,1.31,0,0,0,29.73,109.88Z"/><path class="cls-24" d="M16.26,103.09a2,2,0,0,0-.78-1.25l-3.06-2,.06.35a2.21,2.21,0,0,0,.82,1.25l3,2Z"/><path class="cls-18" d="M30.23,111.54,27,109.78a1.52,1.52,0,0,1-.72-1.2v-.42c-.36-.13-.64.08-.64.49v.47a1.49,1.49,0,0,0,.72,1.2l3.28,1.76a.49.49,0,0,0,.78-.42v-.06Z"/><path class="cls-18" d="M16.3,103.44l-3-2a2.21,2.21,0,0,1-.82-1.25l-.06-.35-.2-.13c-.38-.24-.63-.08-.55.37l.08.47a2.1,2.1,0,0,0,.81,1.24l3.16,2.07c.37.24.64.08.59-.37Z"/><path class="cls-18" d="M38.23,110.55a19,19,0,0,0,2.06-1.4,6.85,6.85,0,0,1-3.42,1.1c-1.62-.09-6.57-2.28-6.57-2.28s-7.33-4.08-10-5.75S13.93,98.45,11.93,97a16.37,16.37,0,0,1-4.35-4.5s-.24,0-.39.4c.72,1.61,3.33,3.68,4.59,4.63,2,1.48,5.7,3.55,8.37,5.22s10,5.74,10,5.74,5,2.19,6.57,2.28A3.08,3.08,0,0,0,38.23,110.55Z"/><path class="cls-29" d="M24.28,108.93s0,0,0-.07v-2.58a1,1,0,0,0-.47-.82l-6.09-3.55-.13,0s0,0,0,.08v2.47a1.08,1.08,0,0,0,.47.82l6.09,3.65Z"/><path class="cls-18" d="M24.15,108.88l-6.09-3.65a1.08,1.08,0,0,1-.47-.82v-2.47s0,0,0-.08c-.19,0-.34.08-.34.32v2.47a1,1,0,0,0,.47.82l6.09,3.65c.24.14.43.06.46-.19Z"/><path class="cls-30" d="M40.29,109.15a6.85,6.85,0,0,1-3.42,1.1c-1.62-.09-6.57-2.28-6.57-2.28s-7.33-4.08-10-5.75S13.93,98.45,11.93,97a16.37,16.37,0,0,1-4.35-4.5s-.72,0-.42,2.09c.08.58.14,1.08.2,1.53a39,39,0,0,0,4.5,3.53.6.6,0,0,1,.36.11l.2.13,3.06,2a1.84,1.84,0,0,1,.45.47l1.33.83v-1c0-.24.15-.36.34-.32l.13,0,6.09,3.55a1,1,0,0,1,.47.82v1.29l1.37.77a.43.43,0,0,1,.57-.18l.09,0,3.41,1.69a1.3,1.3,0,0,1,.64.83A39.66,39.66,0,0,0,36.32,113a6.9,6.9,0,0,0,4.18-.41,5.35,5.35,0,0,0,.09-.64A17.64,17.64,0,0,0,40.29,109.15Z"/><path class="cls-31" d="M31.47,106.61a2.11,2.11,0,0,0,.92,2,.81.81,0,0,0,1.28-.64,2.15,2.15,0,0,0-.92-2A.82.82,0,0,0,31.47,106.61Z"/><path class="cls-31" d="M9.12,93.18a2.52,2.52,0,0,0,.68,2c.41.36.88,0,.94-.65a2.48,2.48,0,0,0-.68-2C9.65,92.18,9.18,92.51,9.12,93.18Z"/><path class="cls-31" d="M7.74,91.34A2.07,2.07,0,0,0,8.31,93c.34.29.73,0,.78-.54a2.11,2.11,0,0,0-.56-1.65C8.18,90.51,7.79,90.79,7.74,91.34Z"/><path class="cls-31" d="M34.2,107.65a2,2,0,0,0,.85,1.83.75.75,0,0,0,1.18-.59,2,2,0,0,0-.85-1.83A.75.75,0,0,0,34.2,107.65Z"/><path class="cls-31" d="M37,107.9a1.71,1.71,0,0,0,.74,1.6.66.66,0,0,0,1-.52,1.73,1.73,0,0,0-.75-1.61A.66.66,0,0,0,37,107.9Z"/><path class="cls-29" d="M40.79,108l.1,0h0s0,0,0,0L41,108l.11-.16.21-.31.44-.61.88-1.22c.58-.81,1.19-1.61,1.81-2.39a46,46,0,0,1,4-4.51A38.74,38.74,0,0,1,53,94.83,20,20,0,0,1,58.31,92a23.08,23.08,0,0,0-5.11,3.08,45.22,45.22,0,0,0-4.45,4c-1.4,1.41-2.76,2.88-4.07,4.38-.66.75-1.3,1.52-1.92,2.3-.31.4-.62.79-.91,1.19l-.44.61-.22.3-.11.16,0,.07s0,0,0,0,0,0,0,0a.59.59,0,0,0,.08.08Z"/><path class="cls-29" d="M39.85,99.38c.19-1.3.43-2.58.66-3.87s.51-2.57.78-3.85.57-2.56.9-3.82a39,39,0,0,1,1.13-3.78,5.72,5.72,0,0,1,1.06-1.74,12.6,12.6,0,0,1,1.44-1.39,20.78,20.78,0,0,1,3.3-2.18L52.61,77c1.17-.59,2.33-1.19,3.5-1.76l0,0c-1.12.67-2.27,1.31-3.4,2l-3.43,1.91a20.28,20.28,0,0,0-3.19,2.19,10.84,10.84,0,0,0-1.37,1.34,5.23,5.23,0,0,0-1,1.59C43.33,85.44,43,86.7,42.62,88s-.65,2.53-1,3.79-.6,2.55-.89,3.82-.58,2.55-.87,3.82Z"/><path class="cls-24" d="M40.54,112.39c-.14.88-.52,2.39-.74,3.23l1.89-.91c1.09-.67,2.22-1.44,2.9-1.92a17.44,17.44,0,0,1,.44-2.93Z"/><path class="cls-13" d="M6.05,80a2.34,2.34,0,0,1-1,1,34.14,34.14,0,0,1-3.47-.45,2.13,2.13,0,0,1-.44-.12V75.3a1.78,1.78,0,0,0-.34-1l-.47-.61c-.18-.24-.33-.19-.33.11v5.9a1.39,1.39,0,0,0,.41.9l.31.26c.19.16.35.12.4-.06l.39.1a34.27,34.27,0,0,0,3.56.46h0l0,0a2.6,2.6,0,0,0,1.23-1.25c.29-.59.89-.74,2-.51l.08-.38C7.64,79.06,6.54,79,6.05,80Z"/><path class="cls-13" d="M56,77.4h0a1.58,1.58,0,0,0-.39.06L47,82.32l0,0h0a4.24,4.24,0,0,0-2.1,2.49A84.09,84.09,0,0,0,42,95.56c-.06.34-.11.66-.16,1a14.73,14.73,0,0,0-.27,2,44.76,44.76,0,0,0,6-5.47c1.83-1.94,7.87-8.43,8.11-8.69a3.2,3.2,0,0,0,.71-2C56.3,81.16,56.07,78,56,77.4Z"/><path class="cls-13" d="M42.19,82a.68.68,0,0,0-.48-.3h-.09l-.06,0a119.27,119.27,0,0,1-15.5-8.08,93.23,93.23,0,0,1-11.59-8.22A54.82,54.82,0,0,0,8.38,80.28c.44.56.91,1.17,1.42,1.81,1.34,1.7,4.57,5.09,11.2,8.68l.22.12C26.56,93.79,31.61,96.53,35,97a8,8,0,0,0,1,.07c1.86,0,2.16-.8,2.19-.91v0h0c.13-.42,3.07-10.39,3.85-12.69A1.74,1.74,0,0,0,42.19,82Z"/><path class="cls-32" d="M33.11,89.76c-4.47-2.64-7.88-2.58-10-3.88s-12.42-7-12.42-7l-2.28,1.4v0c.44.56.91,1.17,1.42,1.81,1.34,1.7,4.57,5.09,11.2,8.68l.22.12C26.56,93.79,31.61,96.53,35,97a8,8,0,0,0,1,.07c1.86,0,2.16-.8,2.19-.91v0h0c0-.1.22-.75.51-1.7A22.47,22.47,0,0,0,33.11,89.76Z"/><path class="cls-33" d="M41.71,81.69h-.09l-.06,0s-2.23-.92-5.56-2.57l.19,4.22,5,3c.39-1.26.72-2.31.91-2.89A1.74,1.74,0,0,0,42.19,82,.68.68,0,0,0,41.71,81.69Z"/><path class="cls-33" d="M26.06,73.57l-.49-.31V77.4l6.05,3,.63-3.23C30.33,76.1,28.24,74.91,26.06,73.57Z"/><polygon class="cls-34" points="25.79 84.05 31.62 80.36 25.57 77.4 19.18 80.14 25.79 84.05"/><path class="cls-34" d="M40.4,89c.28-.94.57-1.87.82-2.71l-5-3-7,2.61L38,91.23Z"/><path class="cls-32" d="M37.69,87.36c-.35,1-2.31,1.32-4.39.63s-3.49-2.1-3.14-3.13,2.3-1.32,4.38-.63S38,86.32,37.69,87.36Z"/><path class="cls-35" d="M36.89,87.09c-.24.73-1.73.88-3.33.35s-2.69-1.54-2.45-2.26,1.73-.88,3.32-.35S37.12,86.37,36.89,87.09Z"/><path class="cls-32" d="M35,86.37c-.08.25-.58.3-1.12.12s-.91-.52-.83-.76.58-.3,1.12-.12S35.06,86.13,35,86.37Z"/><path class="cls-34" d="M42,95.22l6.74-4.36-4.89-3C43.13,90.32,42.34,93.45,42,95.22Z"/><path class="cls-33" d="M43.86,87.83l4.89,3s1.62-7.7,2.2-10.77l-4,2.23,0,0h0a4.24,4.24,0,0,0-2.1,2.49C44.56,85.53,44.22,86.6,43.86,87.83Z"/><path class="cls-36" d="M14.69,65.54c-.7,1.26-4.63,8.55-4.88,13.85l.86-.53h1.77l8.62-8.54A78.57,78.57,0,0,1,14.69,65.54Z"/><path class="cls-35" d="M33.11,89.76a22.47,22.47,0,0,1,5.68,4.63l.36-1.23a19.36,19.36,0,0,0-5.57-4.64,21.82,21.82,0,0,0-8.23-2.77L12.44,78.86H10.67s10.27,5.72,12.42,7S28.64,87.12,33.11,89.76Z"/><path class="cls-37" d="M14.47,65.35A54.82,54.82,0,0,0,8.38,80.28c.44.56.91,1.17,1.42,1.81a22.83,22.83,0,0,0,2.87,3c3.18-5.22,8.78-9.38,12.78-11.88A91,91,0,0,1,14.47,65.35Z"/><path class="cls-13" d="M35.2,94.29l.25,5.88s1,1,2.87,0V94.59A6.54,6.54,0,0,1,35.2,94.29Z"/><polygon class="cls-21" points="69.24 70.98 133.38 35.51 133.38 38.74 69.24 75.46 69.24 70.98"/><circle class="cls-38" cx="37.58" cy="99.88" r="2.55"/><circle class="cls-39" cx="37.58" cy="99.88" r="1.25"/><path class="cls-40" d="M145.76,87.75c-.74-.43-4.46,1-9.21,3.4A13.65,13.65,0,0,0,129.18,93c-2.28,1.32-3.42,3-3.17,4.21-4.53,2.93-7.26,5.27-6.49,5.71s4.8-1.12,9.87-3.73a13.69,13.69,0,0,0,7.35-1.83c2.33-1.34,3.47-3,3.15-4.28C144.05,90.31,146.49,88.17,145.76,87.75Z"/><path class="cls-41" d="M123.85,79s0,.1.23.15a1,1,0,0,0,.71-.09,1.61,1.61,0,0,0,.4-.61l-.64-.2Z"/><path class="cls-42" d="M133.36,84.79a5.25,5.25,0,0,1-.67,1c-.31.3-1.41,1.5-1.07,2.24s1.07.34,1.61-.06.82-1.26,1.23-1.42a2.57,2.57,0,0,0,1-.92,7.37,7.37,0,0,0-.39-1.27s-.18.73-.6.91S133.38,85.25,133.36,84.79Z"/><path class="cls-43" d="M134.32,86.27c-.42.15-.83,1.27-1.23,1.57s-1,.63-1.37.37c.37.5,1,.13,1.51-.23s.82-1.26,1.23-1.42a2.57,2.57,0,0,0,1-.92,1.37,1.37,0,0,0-.05-.21A4.67,4.67,0,0,1,134.32,86.27Z"/><path class="cls-44" d="M129.58,78.8A8.68,8.68,0,0,1,133.1,76s2.31.08,2.64,1.07a1.34,1.34,0,0,1-.34,1.51L132.71,81l-.47.93,2.41,1.6-.72,2s-4.34-1.88-5.53-3.08S129,79.39,129.58,78.8Z"/><path class="cls-45" d="M133.1,76a5.32,5.32,0,0,0-.67.32,3.08,3.08,0,0,1-.14,2.08A6.36,6.36,0,0,1,130.34,81c-.66.36-1.75.54-1.28,1,.31.32.25.57,0,1a37.09,37.09,0,0,0,4.86,2.54l.72-2-2.41-1.6.47-.93,2.69-2.43a1.34,1.34,0,0,0,.34-1.51C135.41,76.05,133.1,76,133.1,76Z"/><polygon class="cls-46" points="133.43 87.09 134.45 86.62 134.45 86.96 133.43 87.42 133.43 87.09"/><path class="cls-47" d="M140.08,85.46a1.6,1.6,0,0,1-.74,1.27c-.4.24-.73,0-.73-.42a1.62,1.62,0,0,1,.73-1.27C139.75,84.8,140.08,85,140.08,85.46Z"/><path class="cls-48" d="M132.32,88.59A3.11,3.11,0,0,0,130.91,91c0,.9.63,1.26,1.41.82a3.13,3.13,0,0,0,1.4-2.44C133.72,88.51,133.09,88.14,132.32,88.59Zm-.17,3.09a.68.68,0,0,1-1-.58l.64-.37a.32.32,0,0,0,.38.22Zm0-2a1.39,1.39,0,0,0-.38.65l-.64.37a2.75,2.75,0,0,1,1-1.76Zm.34-.93a.67.67,0,0,1,1,.58l-.63.37a.3.3,0,0,0-.38-.22Zm0,2.73v-.73a1.42,1.42,0,0,0,.38-.66l.63-.36A2.67,2.67,0,0,1,132.49,91.48Z"/><path class="cls-49" d="M131.69,92.12h0c-.52,0-.86-.43-.86-1.1a3.24,3.24,0,0,1,1.44-2.51h0l7-3.55a.78.78,0,0,1,.37-.11c.3,0,.5.24.5.61a1.72,1.72,0,0,1-.78,1.35l-7,5.1h0A1.31,1.31,0,0,1,131.69,92.12Zm.67-3.45A3,3,0,0,0,131,91c0,.57.27.92.69.92h0a1.15,1.15,0,0,0,.58-.18l7-5.1h0a1.54,1.54,0,0,0,.69-1.2c0-.27-.12-.43-.32-.43a.57.57,0,0,0-.28.09h0Z"/><path class="cls-50" d="M133.39,90a.14.14,0,0,1-.12-.06.16.16,0,0,1,0-.22L139,85.88l-3.84-3.07a.16.16,0,0,1-.08-.21.15.15,0,0,1,.21-.07l4.07,3.18a.16.16,0,0,1,.09.12.17.17,0,0,1-.06.14l-5.93,4A.14.14,0,0,1,133.39,90Z"/><path class="cls-51" d="M134.11,90.35l-1.46-.82a.29.29,0,0,0-.28,0,.82.82,0,0,0-.37.65.27.27,0,0,0,.11.25l1.45.81a.26.26,0,0,0,.29,0,.83.83,0,0,0,.38-.65A.27.27,0,0,0,134.11,90.35Z"/><path class="cls-52" d="M135,82.07a1.19,1.19,0,0,1-.37-.14l-1.84,8,.77.18,1.86-8A1,1,0,0,1,135,82.07Z"/><path class="cls-53" d="M133.52,90.14,127.37,85a.35.35,0,1,0-.46.54l6.15,5.16a1.09,1.09,0,0,1,.17-.35A.51.51,0,0,1,133.52,90.14Z"/><path class="cls-54" d="M127.52,85.43c-.17,0-.26,0-.32-.19a.35.35,0,0,1,.22-.45l7-2.42a.35.35,0,0,1,.45.22c0,.1,0,.38-.22.39l-7,2.42A.3.3,0,0,1,127.52,85.43Z"/><path class="cls-55" d="M141.3,80a3.21,3.21,0,0,0,.87.32c.67.14,1.91,1.6,1.91,1.6l.46.07A2.53,2.53,0,0,0,141.3,80Z"/><path class="cls-56" d="M135.2,88.81a10.34,10.34,0,0,1,4.67-8.1,3.55,3.55,0,0,1,2.89-.51,3.27,3.27,0,0,0-3.34.3,10.34,10.34,0,0,0-4.67,8.1c0,1.72.7,2.85,1.78,3.21A3.3,3.3,0,0,1,135.2,88.81Z"/><path class="cls-57" d="M140.11,86.6c-.05,0-.07-.07-.07-.14a.4.4,0,0,1,.18-.31.16.16,0,0,1,.15,0,.17.17,0,0,1,.07.14.39.39,0,0,1-.18.31.16.16,0,0,1-.09,0Zm.15-.37a.3.3,0,0,0-.13.23.12.12,0,0,0,0,.07h.07a.32.32,0,0,0,.13-.24.08.08,0,0,0,0-.06h0Z"/><path class="cls-58" d="M139.87,80.71a10.34,10.34,0,0,0-4.67,8.1c0,3,2.09,4.19,4.67,2.7a10.35,10.35,0,0,0,4.68-8.1C144.55,80.43,142.45,79.22,139.87,80.71Zm0,10.3c-2.34,1.35-4.24.26-4.24-2.45a9.38,9.38,0,0,1,4.24-7.35c2.35-1.36,4.25-.26,4.25,2.45A9.37,9.37,0,0,1,139.87,91Z"/><path class="cls-59" d="M139.87,81.21a9.38,9.38,0,0,0-4.24,7.35c0,2.71,1.9,3.8,4.24,2.45a9.37,9.37,0,0,0,4.25-7.35C144.12,81,142.22,79.85,139.87,81.21Zm0,9.7c-2.3,1.33-4.16.25-4.16-2.4a9.17,9.17,0,0,1,4.16-7.2c2.3-1.33,4.16-.25,4.16,2.4A9.19,9.19,0,0,1,139.87,90.91Z"/><path class="cls-60" d="M141.67,80.74c1.19.15,2,1.19,2,2.91a9.08,9.08,0,0,1-4.1,7.1,3,3,0,0,1-2.76.37,2.86,2.86,0,0,0,3.08-.21,9.19,9.19,0,0,0,4.16-7.2C144,81.8,143.07,80.71,141.67,80.74Z"/><path class="cls-61" d="M139.07,85.49,137.6,83.4l0,0L139,85.54Z"/><path class="cls-61" d="M139,85.57l-2-1.23,0,.06,2,1.23Z"/><path class="cls-61" d="M139.19,85.39h0l-.11-3.55-.06,0,.11,3.54Z"/><path class="cls-61" d="M138.94,85.67l-2.49-.31,0,.06,2.5.32A.14.14,0,0,1,138.94,85.67Z"/><path class="cls-61" d="M139.36,85.35l1.47-4.47-.08,0-1.46,4.44Z"/><path class="cls-61" d="M139.5,85.51l3.88-3.65s0,0,0,0a0,0,0,0,0,0,0l-3.86,3.63A.14.14,0,0,1,139.5,85.51Z"/><path class="cls-61" d="M139.45,85.4l2.83-4.55s0,0,0,0,0,0-.05,0l-2.82,4.54Z"/><path class="cls-61" d="M138.87,85.94s0,0,0-.06l-3.07,1.54v.08L138.88,86Z"/><path class="cls-61" d="M142.57,87.72l-3.14-1.85,0,0,3.14,1.85s0,0,.05,0S142.58,87.73,142.57,87.72Z"/><path class="cls-61" d="M139.33,86l0,0,1.8,3.58,0,0h0s0,0,0,0Z"/><path class="cls-61" d="M143.5,85.57l-4,.14a.25.25,0,0,0,0,.07l4-.14s0,0,0,0A0,0,0,0,0,143.5,85.57Z"/><path class="cls-61" d="M138.88,86l-3.1,3.33s0,.05,0,.08l3.11-3.34Z"/><path class="cls-61" d="M143.8,83.48s0,0-.05,0l-4.24,2.1h0s0,0,0,.06l4.28-2.12S143.8,83.5,143.8,83.48Z"/><path class="cls-61" d="M139,86.13l-2.5,4.69.05.05L139,86.16A.07.07,0,0,1,139,86.13Z"/><path class="cls-61" d="M139.19,86.12h0l.17,4.8s0,0,0,0,0,0,0,0l-.16-4.84Z"/><path class="cls-61" d="M139.06,86.17l-1.29,5.18s0,0,0,0h0a0,0,0,0,0,0,0l1.3-5.21Z"/><path class="cls-62" d="M139.51,85.58a.68.68,0,0,1-.32.54c-.17.1-.32,0-.32-.18a.72.72,0,0,1,.32-.55C139.37,85.29,139.51,85.37,139.51,85.58Z"/><path class="cls-63" d="M138.87,85.94a.72.72,0,0,1,.32-.55.25.25,0,0,1,.2,0,.23.23,0,0,0-.24,0,.69.69,0,0,0-.32.55.2.2,0,0,0,.12.21A.21.21,0,0,1,138.87,85.94Z"/><path class="cls-64" d="M140.35,86.18l-1.06-.61a.15.15,0,0,0-.11,0,.36.36,0,0,0-.15.27.11.11,0,0,0,0,.1l1.05.61a.11.11,0,0,0,.12,0,.34.34,0,0,0,.16-.27A.1.1,0,0,0,140.35,86.18Z"/><path class="cls-61" d="M140.12,86.1l-1.79-3.57,0,0,1.79,3.58Z"/><path class="cls-61" d="M140.24,86h0L140,81.21l-.07,0,.22,4.79Z"/><path class="cls-61" d="M140,86.38l-3.92.09,0,.07,3.93-.09S140,86.41,140,86.38Z"/><path class="cls-61" d="M140.5,86l2.5-4.76s0,0,0-.05,0,0,0,0L140.45,86Z"/><path class="cls-61" d="M140.38,86l1.25-5.23h-.07L140.31,86Z"/><path class="cls-61" d="M140.55,86.13l3.26-3.62a0,0,0,0,0,0-.05h-.05l-3.23,3.6A.19.19,0,0,1,140.55,86.13Z"/><path class="cls-61" d="M139.92,86.56v0l-4.21,1.9v.07l4.21-1.9Z"/><path class="cls-61" d="M140.08,86.78l-1.56,4.54s0,0,0,0l0,0,1.57-4.57Z"/><path class="cls-61" d="M139.93,86.64,136,90.14a.14.14,0,0,0,0,.06L140,86.7A.33.33,0,0,1,139.93,86.64Z"/><path class="cls-61" d="M143.26,86.65l-2.75-.25,0,.06,2.78.26h0a0,0,0,0,0,0,0S143.28,86.65,143.26,86.65Z"/><path class="cls-61" d="M143.93,84.42s0,0,0,0l-3.34,1.81a.19.19,0,0,1,0,.08l3.38-1.83S143.94,84.43,143.93,84.42Z"/><path class="cls-61" d="M140.42,86.57l0,.05L142,88.86a0,0,0,0,0,0,0,0,0,0,0,0,0,0Z"/><path class="cls-61" d="M140.24,86.74h0l.05,3.75a0,0,0,0,0,0,0h0a0,0,0,0,0,0,0l-.05-3.79Z"/><path class="cls-61" d="M140,86.73l-3,4.49.06,0,3-4.48Z"/><path class="cls-65" d="M140.56,86.19a.72.72,0,0,1-.32.55c-.18.1-.32,0-.32-.18a.68.68,0,0,1,.32-.55C140.41,85.91,140.56,86,140.56,86.19Z"/><path class="cls-66" d="M139.92,86.56a.68.68,0,0,1,.32-.55.3.3,0,0,1,.2,0,.23.23,0,0,0-.24,0,.71.71,0,0,0-.32.55.22.22,0,0,0,.12.22A.23.23,0,0,1,139.92,86.56Z"/><path class="cls-65" d="M140.52,86.3a.43.43,0,0,1-.18.33c-.11.06-.19,0-.19-.11a.41.41,0,0,1,.19-.33C140.44,86.13,140.52,86.18,140.52,86.3Z"/><path class="cls-67" d="M140.15,86.52a.41.41,0,0,1,.19-.33.15.15,0,0,1,.11,0,.2.2,0,0,0-.17,0,.41.41,0,0,0-.18.32.15.15,0,0,0,.09.14A.16.16,0,0,1,140.15,86.52Z"/><path class="cls-68" d="M144.05,80.41a3,3,0,0,0-1.36-.91,3.81,3.81,0,0,0-3.29.48,11,11,0,0,0-5,8.66c0,.23,0,.45,0,.65l.53.17c0-.16,0-.32,0-.49a11,11,0,0,1,5-8.66c1.7-1,3.2-.87,4.1.1Z"/><path class="cls-69" d="M135,89.46l.25-.08a5,5,0,0,1,0-.56A10.5,10.5,0,0,1,140,80.59c2.28-1.32,4.19-.55,4.65,1.67l.25-.17c-.47-2.36-2.49-3.18-4.9-1.78a11,11,0,0,0-5,8.66c0,.17,0,.33,0,.49Z"/><path class="cls-70" d="M138.34,81.72h-.05l-1.85-1.24a.09.09,0,0,1,0-.08.07.07,0,0,1,0-.07c.21-.13,5.27-3.13,5.53-3.25a1.26,1.26,0,0,0,.32-.26,1,1,0,0,1,.42-.29h0a3.1,3.1,0,0,1,1.06.59c.13.07.68.43.75.7s-.63.76-.85.9l-5.34,3Zm-1.69-1.32,1.69,1.13,5.29-3c.43-.28.79-.61.76-.71s-.41-.44-.66-.59h0a3.05,3.05,0,0,0-1-.55h0a1,1,0,0,0-.34.25,1.48,1.48,0,0,1-.37.29C141.85,77.32,138.5,79.3,136.65,80.4Z"/><path class="cls-70" d="M143.65,78.74h-.05l-1.93-1.35a.09.09,0,1,1,.1-.14l1.93,1.34a.09.09,0,0,1,0,.13A.11.11,0,0,1,143.65,78.74Z"/><path class="cls-70" d="M142.34,79.47h-.05l-1.9-1.33a.09.09,0,0,1,0-.13s.08,0,.12,0l1.9,1.33a.11.11,0,0,1,0,.13A.11.11,0,0,1,142.34,79.47Z"/><path class="cls-70" d="M141.39,80l0,0-1.83-1.31a.08.08,0,0,1,0-.12.09.09,0,0,1,.13,0l1.82,1.31a.08.08,0,0,1,0,.12A.08.08,0,0,1,141.39,80Z"/><path class="cls-70" d="M139.43,81.13l-.05,0-1.85-1.29a.09.09,0,0,1,0-.13s.08,0,.12,0l1.86,1.3a.11.11,0,0,1,0,.12A.09.09,0,0,1,139.43,81.13Z"/><path class="cls-70" d="M140.56,80.47h-.05l-1.87-1.3a.12.12,0,0,1,0-.13.09.09,0,0,1,.13,0l1.86,1.3a.09.09,0,0,1,0,.13A.09.09,0,0,1,140.56,80.47Z"/><path class="cls-70" d="M140.42,86.91h0a.09.09,0,0,1,0-.12l.67-1.51,2-6.35a.09.09,0,0,1,.11-.06.09.09,0,0,1,.05.11l-2,6.36h0l-.68,1.51A.09.09,0,0,1,140.42,86.91Z"/><path class="cls-70" d="M140.42,86.91a.09.09,0,0,1-.09-.08l-1-5.77a.09.09,0,0,1,.07-.11.1.1,0,0,1,.1.08l1,5.77a.08.08,0,0,1-.07.1Z"/><g class="cls-71"><path class="cls-70" d="M138.34,81.67h0l-1.85-1.24s0,0,0,0a0,0,0,0,1,0,0c.21-.13,5.27-3.13,5.52-3.25a1.68,1.68,0,0,0,.34-.27,1,1,0,0,1,.39-.28h0c.28,0,1,.55,1,.57s.66.41.72.67-.73.79-.82.84l-5.33,3Zm-1.79-1.27,1.79,1.2,5.32-3c.32-.21.83-.61.79-.77s-.52-.52-.69-.63a3.3,3.3,0,0,0-1-.57s0,0,0,0a.9.9,0,0,0-.37.26,1.31,1.31,0,0,1-.35.28C141.78,77.29,137.06,80.09,136.55,80.4Z"/></g><g class="cls-71"><path class="cls-70" d="M143.65,78.69h0l-1.93-1.34s0,0,0,0,0,0,.05,0l1.92,1.35a0,0,0,0,1,0,0A0,0,0,0,1,143.65,78.69Z"/></g><g class="cls-71"><path class="cls-70" d="M142.34,79.42a0,0,0,0,1,0,0l-1.91-1.33a0,0,0,0,1,0,0s0,0,.05,0l1.9,1.33a0,0,0,0,1,0,0S142.36,79.42,142.34,79.42Z"/></g><g class="cls-71"><path class="cls-70" d="M141.39,79.92h0l-1.83-1.31a0,0,0,0,1,0,0,0,0,0,0,1,0,0l1.83,1.3s0,0,0,0Z"/></g><g class="cls-71"><path class="cls-70" d="M139.44,81.07h0l-1.86-1.3a0,0,0,0,1,0,0s0,0,0,0L139.45,81a0,0,0,0,1,0,0Z"/></g><g class="cls-71"><path class="cls-70" d="M140.56,80.42h0l-1.86-1.3s0,0,0,0a0,0,0,0,1,0,0l1.87,1.3s0,0,0,0Z"/></g><g class="cls-71"><path class="cls-70" d="M140.42,86.85h0a0,0,0,0,1,0,0l.68-1.51,2-6.36s0,0,0,0,0,0,0,0l-2,6.36-.68,1.52Z"/></g><g class="cls-71"><path class="cls-70" d="M140.42,86.85s0,0,0,0l-1-5.77s0,0,0,0,0,0,0,0l1,5.77s0,0,0,0Z"/></g><g class="cls-71"><path class="cls-70" d="M138.34,81.65h0l-1.85-1.24h0c.05,0,5.27-3.12,5.52-3.24a1.68,1.68,0,0,0,.34-.27,1,1,0,0,1,.39-.28h0c.27,0,1,.55,1,.57s.65.4.71.66-.77.79-.81.82l-5.34,3Zm-1.84-1.26,1.84,1.23,5.33-3s.85-.56.8-.8-.7-.64-.7-.64a3.24,3.24,0,0,0-1-.57h0a1,1,0,0,0-.37.27,1.48,1.48,0,0,1-.35.28C141.76,77.27,136.82,80.21,136.5,80.39Z"/></g><g class="cls-71"><path class="cls-70" d="M143.65,78.67h0l-1.93-1.34s0,0,0,0h0l1.93,1.35s0,0,0,0Z"/></g><g class="cls-71"><path class="cls-70" d="M142.34,79.4h0l-1.91-1.33h0l1.91,1.33s0,0,0,0Z"/></g><g class="cls-71"><path class="cls-70" d="M141.39,79.9h0l-1.83-1.31a0,0,0,0,1,0,0h0l1.83,1.31v0Z"/></g><g class="cls-71"><path class="cls-70" d="M139.44,81.05h0l-1.86-1.3h0L139.44,81s0,0,0,0Z"/></g><g class="cls-71"><path class="cls-70" d="M140.56,80.4h0l-1.86-1.3s0,0,0,0a0,0,0,0,1,0,0l1.87,1.31h0Z"/></g><g class="cls-71"><path class="cls-70" d="M140.42,86.83h0a0,0,0,0,1,0,0l.68-1.51,2-6.36h0s0,0,0,0l-2,6.36-.68,1.51Z"/></g><g class="cls-71"><path class="cls-70" d="M140.42,86.83h0l-1-5.78h0l1,5.78Z"/></g><path class="cls-72" d="M125.11,87.18l-2.63,8a.22.22,0,0,1-.28.14.23.23,0,0,1-.14-.27l2.46-8.1a.31.31,0,1,1,.59.17Z"/><path class="cls-73" d="M128.13,94.08a8.32,8.32,0,0,0,.15-1.46c0-2.16-1.07-3.42-2.63-3.45,0,.16-.06.33,0,.33a7.16,7.16,0,0,1,2.09,1.81,8.34,8.34,0,0,1,.19,2.74Z"/><polygon class="cls-74" points="122.25 89.76 122.03 89.79 122.14 90.02 122.36 89.84 122.25 89.76"/><path class="cls-56" d="M118.56,98.27a10.64,10.64,0,0,1,4.81-8.34,3.68,3.68,0,0,1,3-.53,3.35,3.35,0,0,0-3.43.32,10.65,10.65,0,0,0-4.82,8.34c0,1.77.72,2.94,1.84,3.31A3.41,3.41,0,0,1,118.56,98.27Z"/><path class="cls-58" d="M123.37,89.93a10.64,10.64,0,0,0-4.81,8.34c0,3.07,2.15,4.32,4.81,2.78a10.64,10.64,0,0,0,4.82-8.34C128.19,89.64,126,88.4,123.37,89.93Zm0,10.61c-2.41,1.4-4.37.27-4.37-2.52a9.69,9.69,0,0,1,4.37-7.58c2.42-1.39,4.37-.26,4.37,2.53A9.63,9.63,0,0,1,123.37,100.54Z"/><path class="cls-75" d="M123.37,90.44A9.69,9.69,0,0,0,119,98c0,2.79,2,3.92,4.37,2.52A9.63,9.63,0,0,0,127.74,93C127.74,90.18,125.79,89.05,123.37,90.44Zm0,10c-2.36,1.36-4.28.26-4.28-2.47a9.46,9.46,0,0,1,4.28-7.42c2.37-1.37,4.28-.26,4.28,2.47A9.46,9.46,0,0,1,123.37,100.44Z"/><path class="cls-76" d="M125.23,90c1.22.15,2,1.23,2,3a9.32,9.32,0,0,1-4.22,7.31,3.09,3.09,0,0,1-2.84.38,2.93,2.93,0,0,0,3.17-.21A9.46,9.46,0,0,0,127.65,93C127.65,91.06,126.66,89.93,125.23,90Z"/><path class="cls-61" d="M122.55,94.86,121,92.7l0,.06,1.51,2.15Z"/><path class="cls-61" d="M122.48,94.94l-2.1-1.27,0,.06L122.44,95A.21.21,0,0,1,122.48,94.94Z"/><path class="cls-61" d="M122.67,94.76l0,0-.11-3.65-.07,0,.12,3.64Z"/><path class="cls-61" d="M122.42,95l-2.58-.32,0,.07,2.57.32Z"/><path class="cls-61" d="M122.84,94.71l1.51-4.6-.07,0-1.51,4.59Z"/><path class="cls-61" d="M123,94.88l4-3.77a0,0,0,0,0,0,0s0,0,0,0l-4,3.74A.64.64,0,0,1,123,94.88Z"/><path class="cls-61" d="M122.94,94.76l2.91-4.68s0,0,0,0,0,0,0,0l-2.92,4.69S122.92,94.75,122.94,94.76Z"/><path class="cls-61" d="M122.34,95.32s0,0,0-.07l-3.16,1.59s0,.06,0,.09l3.18-1.6Z"/><path class="cls-61" d="M126.15,97.15l-3.24-1.91,0,.06,3.23,1.91a0,0,0,1,0,0-.06Z"/><path class="cls-61" d="M122.82,95.38s0,0,0,.05l1.86,3.69,0,0h0s0,0,0,0Z"/><path class="cls-61" d="M127.11,94.94l-4.13.15,0,.06,4.16-.14s0,0,0,0A0,0,0,0,0,127.11,94.94Z"/><path class="cls-61" d="M122.35,95.4l-3.19,3.43s0,0,0,.08l3.21-3.44Z"/><path class="cls-61" d="M127.41,92.79s0,0,0,0L123,94.93h0s0,0,0,.07l4.41-2.18S127.42,92.8,127.41,92.79Z"/><path class="cls-61" d="M122.42,95.52l-2.57,4.82.05,0,2.58-4.84Z"/><path class="cls-61" d="M122.67,95.51h0l.17,4.94s0,0,0,0a0,0,0,0,0,0,0l-.17-5Z"/><path class="cls-61" d="M122.53,95.55l-1.33,5.34a.05.05,0,0,0,0,0h0s0,0,0,0l1.33-5.36Z"/><path class="cls-62" d="M123,94.94a.74.74,0,0,1-.33.57c-.18.1-.33,0-.33-.19a.71.71,0,0,1,.33-.56C122.85,94.65,123,94.74,123,94.94Z"/><path class="cls-77" d="M122.34,95.32a.71.71,0,0,1,.33-.56.23.23,0,0,1,.2,0,.23.23,0,0,0-.24,0,.74.74,0,0,0-.33.57.22.22,0,0,0,.12.22A.25.25,0,0,1,122.34,95.32Z"/><path class="cls-78" d="M123.86,95.56l-1.08-.62a.11.11,0,0,0-.12,0,.36.36,0,0,0-.16.28.15.15,0,0,0,0,.1l1.09.62s.07,0,.12,0a.36.36,0,0,0,.16-.28A.13.13,0,0,0,123.86,95.56Z"/><path class="cls-61" d="M123.63,95.49l-1.84-3.68-.05,0,1.84,3.68Z"/><path class="cls-61" d="M123.75,95.39h0l-.22-4.93-.06,0,.22,4.93Z"/><path class="cls-61" d="M123.46,95.78l-4,.09,0,.06,4-.09A.14.14,0,0,1,123.46,95.78Z"/><path class="cls-61" d="M124,95.4l2.58-4.91s0,0,0,0,0,0,0,0L124,95.36Z"/><path class="cls-61" d="M123.89,95.34,125.18,90h-.07l-1.29,5.39Z"/><path class="cls-61" d="M124.07,95.52l3.36-3.74a0,0,0,0,0,0,0,0,0,0,0,0-.05,0l-3.33,3.7A.19.19,0,0,1,124.07,95.52Z"/><path class="cls-61" d="M123.43,96v0l-4.34,2v.07l4.34-2Z"/><path class="cls-61" d="M123.59,96.18,122,100.86a.05.05,0,0,0,0,0l0,0,1.62-4.7Z"/><path class="cls-61" d="M123.44,96l-4,3.6,0,.06,4-3.6A.11.11,0,0,1,123.44,96Z"/><path class="cls-61" d="M126.86,96.05,124,95.79l0,.07,2.86.26h0a0,0,0,0,0,0,0S126.88,96.05,126.86,96.05Z"/><path class="cls-61" d="M127.55,93.75a0,0,0,0,0,0,0l-3.44,1.86a.22.22,0,0,1,0,.08l3.48-1.89S127.56,93.76,127.55,93.75Z"/><path class="cls-61" d="M123.93,96l0,0,1.69,2.3s0,0,0,0a0,0,0,0,0,0,0Z"/><path class="cls-61" d="M123.75,96.14h0l0,3.87a0,0,0,0,0,0,0h0a0,0,0,0,0,0,0l0-3.91Z"/><path class="cls-61" d="M123.49,96.14l-3.11,4.62.06,0,3.1-4.62Z"/><path class="cls-65" d="M124.08,95.58a.72.72,0,0,1-.33.56c-.18.1-.32,0-.32-.19a.7.7,0,0,1,.32-.56C123.93,95.28,124.08,95.37,124.08,95.58Z"/><path class="cls-79" d="M123.43,96a.7.7,0,0,1,.32-.56.23.23,0,0,1,.2,0,.23.23,0,0,0-.24,0,.74.74,0,0,0-.33.57c0,.12.05.2.12.22A.23.23,0,0,1,123.43,96Z"/><path class="cls-65" d="M124,95.69a.41.41,0,0,1-.19.34c-.11.06-.19,0-.19-.11a.41.41,0,0,1,.19-.34C124,95.52,124,95.57,124,95.69Z"/><path class="cls-80" d="M123.66,95.92a.41.41,0,0,1,.19-.34.14.14,0,0,1,.12,0,.17.17,0,0,0-.17,0,.45.45,0,0,0-.2.34.16.16,0,0,0,.1.14A.12.12,0,0,1,123.66,95.92Z"/><path class="cls-81" d="M123.45,89.83c2.67-1.54,4.83-.29,4.83,2.79a8.09,8.09,0,0,1-.21,1.73l.24,0a8.56,8.56,0,0,0,.22-1.85c0-3.24-2.27-4.55-5.08-2.93a7.63,7.63,0,0,0-.86.58l.16.19A7.91,7.91,0,0,1,123.45,89.83Z"/><path class="cls-82" d="M122.6,90.11a7.88,7.88,0,0,1,.85-.57c1.51-.87,2.86-.89,3.79-.23h0a3.64,3.64,0,0,0-4.34-.11,7,7,0,0,0-.87.59l.57.32Z"/><path class="cls-83" d="M126.83,88.6l-2.78,7.62a.2.2,0,1,1-.37-.13l2.57-7.71a.31.31,0,0,1,.58.21Z"/><path class="cls-84" d="M126.71,86.75a.8.8,0,0,1-.33-.06.71.71,0,0,1-.27-.18.21.21,0,0,1-.07-.18h0a1,1,0,0,1-.37.29,4.16,4.16,0,0,1-.41.08l-.19.44s.6-.13.86.15a2.12,2.12,0,0,1,.37.81l.57-.23,0-1.21h0A.2.2,0,0,1,126.71,86.75Z"/><path class="cls-85" d="M127.14,87.63a.84.84,0,0,0-.24-.16.73.73,0,0,0-.28,0,.17.17,0,0,0-.16.08l-.32.91a.16.16,0,0,0,.06.17.67.67,0,0,0,.24.16,1,1,0,0,0,.28,0c.09,0,.14,0,.16-.09l.32-.91A.18.18,0,0,0,127.14,87.63Z"/><path class="cls-84" d="M126.9,87.47a.73.73,0,0,0-.28,0,.17.17,0,0,0-.16.08.16.16,0,0,0,.06.17.53.53,0,0,0,.24.16.92.92,0,0,0,.28,0,.18.18,0,0,0,.16-.09.18.18,0,0,0-.06-.17A.84.84,0,0,0,126.9,87.47Z"/><path class="cls-86" d="M125.3,86.63a.62.62,0,0,0-.24-.15.56.56,0,0,0-.28,0,.18.18,0,0,0-.16.09l-.31.9s0,.11.06.18a.62.62,0,0,0,.24.15.56.56,0,0,0,.28,0c.08,0,.14,0,.15-.09l.32-.91S125.36,86.7,125.3,86.63Z"/><path class="cls-84" d="M125.06,86.48a.56.56,0,0,0-.28,0,.18.18,0,0,0-.16.09.2.2,0,0,0,.06.17.82.82,0,0,0,.24.15.6.6,0,0,0,.28,0c.09,0,.14,0,.16-.09s0-.1-.06-.17A.62.62,0,0,0,125.06,86.48Z"/><path class="cls-87" d="M125.8,86.82a4.88,4.88,0,0,0-.61,0l-.12.28s.6-.13.86.15a2.12,2.12,0,0,1,.37.81l.08,0v-.14a3.35,3.35,0,0,0-.1-.85A.66.66,0,0,0,125.8,86.82Z"/><path class="cls-88" d="M127.85,83.05a.7.7,0,0,0-.27-.15.68.68,0,0,0-.31,0,.18.18,0,0,0-.17.1l-.1.37a.19.19,0,0,0,.07.18.76.76,0,0,0,.28.16.86.86,0,0,0,.31,0,.22.22,0,0,0,.17-.11l.1-.37S127.92,83.12,127.85,83.05Z"/><path class="cls-84" d="M127.58,82.9a.68.68,0,0,0-.31,0,.18.18,0,0,0-.17.1.21.21,0,0,0,.08.19,1,1,0,0,0,.27.15.86.86,0,0,0,.31,0c.1,0,.15,0,.17-.11s0-.11-.08-.18A.7.7,0,0,0,127.58,82.9Z"/><path class="cls-89" d="M127.66,83.71a.86.86,0,0,1-.31,0,.76.76,0,0,1-.28-.16l0,0-.68,2.15c-.06.19-.37.72-.38.77s0,.11.1.18a1,1,0,0,0,.27.15.86.86,0,0,0,.31,0c.1,0,.2,0,.21-.07s.07-.66.12-.83l.68-2.16Z"/><path class="cls-90" d="M140.61,86.45l-5.31-3.86a.16.16,0,0,0-.2.08.15.15,0,0,0,.08.2l5,3.74-6.6,3.82a.15.15,0,0,0-.06.21.16.16,0,0,0,.13.08l.08,0,6.85-4s0,0,0,0a.11.11,0,0,0,.06-.07A.15.15,0,0,0,140.61,86.45Z"/><path class="cls-90" d="M134.23,90.6a.83.83,0,0,1-.38.65c-.21.12-.38,0-.38-.21a.83.83,0,0,1,.38-.66C134.06,90.26,134.23,90.36,134.23,90.6Z"/><path class="cls-48" d="M134.08,90.71a.49.49,0,0,0-.22.39v0l-.66,1a1.36,1.36,0,0,0-.11.41,1.1,1.1,0,0,1-.11.44c0,.07-.72,1.06-.72,1.06l.3-.06s.42-.6.61-.89a2.88,2.88,0,0,0,.12-.64.56.56,0,0,1,.12-.28l.64-.87,0,0a.49.49,0,0,0,.23-.39C134.31,90.7,134.21,90.64,134.08,90.71Z"/><polygon class="cls-91" points="134.23 90.69 134.23 90.69 134.23 90.69 134.23 90.69"/><path class="cls-91" d="M133,92.93a1.1,1.1,0,0,0,.11-.44,1.36,1.36,0,0,1,.11-.41l.66-1v0a.49.49,0,0,1,.22-.39.17.17,0,0,1,.15,0l-.15-.07h0a.19.19,0,0,0-.16,0,.51.51,0,0,0-.22.39v0L133,92a1.37,1.37,0,0,0-.11.42,1.35,1.35,0,0,1-.1.43l-.73,1.06.16.07S132.94,93,133,92.93Z"/><polygon class="cls-46" points="131.94 93.97 133.34 94.87 133.34 95.04 131.94 94.28 131.94 93.97"/><polygon class="cls-92" points="132.87 93.5 134.28 94.4 134.19 94.56 133.64 94.86 133.34 94.87 131.94 93.97 132.87 93.5"/><polygon class="cls-93" points="134.19 94.71 133.64 95 133.64 94.86 134.19 94.56 134.19 94.71"/><polygon class="cls-46" points="133.34 95.04 133.64 95 133.64 94.86 133.34 94.87 133.34 95.04"/><polygon class="cls-93" points="134.19 94.71 134.28 94.54 134.28 94.4 134.19 94.56 134.19 94.71"/><polygon class="cls-46" points="132.24 94.01 132.47 93.9 133.63 94.61 133.45 94.71 132.24 94.01"/><polygon class="cls-46" points="132.69 93.78 132.92 93.67 134 94.41 133.82 94.51 132.69 93.78"/><path class="cls-94" d="M128.31,80.77c-.15,0-.28,0-.29,0l-.61,1.89c0,.05.1.12.25.15s.28,0,.29,0l.61-1.88C128.57,80.87,128.46,80.8,128.31,80.77Z"/><path class="cls-95" d="M128.31,80.77c-.15,0-.28,0-.29,0l-.61,1.89c0,.05.1.12.25.15a.44.44,0,0,0,.23,0l.64-2A.45.45,0,0,0,128.31,80.77Z"/><path class="cls-96" d="M128.31,80.77c-.15,0-.28,0-.29,0l-.61,1.89c0,.05.1.12.25.15a.39.39,0,0,0,.15,0l.65-2.05Z"/><path class="cls-48" d="M128.31,80.77a.55.55,0,0,0-.23,0l-.64,2a.45.45,0,0,0,.22.09h.07l.65-2.08Z"/><path class="cls-91" d="M127.62,82.85l.65-2.08h-.12l-.65,2Z"/><path class="cls-93" d="M128.56,80.93s-.14.08-.29,0-.26-.1-.25-.16.14-.07.29,0S128.57,80.87,128.56,80.93Z"/><path class="cls-97" d="M125.12,79.49l-.51-.18a3.13,3.13,0,0,0-1.65-.58.12.12,0,0,0-.11-.07.12.12,0,0,0-.12.12.11.11,0,0,0,.22,0,3.26,3.26,0,0,1,1.55.62l.09.24.48,0Z"/><path class="cls-97" d="M131,83.42a1.72,1.72,0,0,0-1-.94l-.37-.27-.07.06v0l-.06.2.28.2.22-.08a1.59,1.59,0,0,1,.93.86.19.19,0,0,0,0,.07.12.12,0,0,0,.12.12.12.12,0,0,0,.12-.12A.11.11,0,0,0,131,83.42Z"/><path class="cls-49" d="M125,78.7l-1.5-.85a.16.16,0,0,0-.16,0,.49.49,0,0,0-.22.38.15.15,0,0,0,.07.14l1.49.84a.17.17,0,0,0,.17,0,.52.52,0,0,0,.22-.39A.15.15,0,0,0,125,78.7Z"/><path class="cls-98" d="M125.39,78.83a.9.9,0,0,1-.4.7c-.22.12-.4,0-.4-.24a.89.89,0,0,1,.4-.69C125.21,78.48,125.39,78.58,125.39,78.83Z"/><path class="cls-49" d="M124.59,79.29a.89.89,0,0,1,.4-.69.27.27,0,0,1,.27,0c-.07-.08-.19-.09-.33,0a.88.88,0,0,0-.39.69.28.28,0,0,0,.12.27A.37.37,0,0,1,124.59,79.29Z"/><path class="cls-49" d="M125.44,79l-.29-.17a.16.16,0,0,0-.16,0,.49.49,0,0,0-.22.38.18.18,0,0,0,.07.15l.28.15a.15.15,0,0,0,.17,0,.49.49,0,0,0,.22-.38C125.51,79,125.49,79,125.44,79Z"/><path class="cls-98" d="M125.51,79.1a.49.49,0,0,1-.22.38c-.12.08-.22,0-.22-.12a.52.52,0,0,1,.22-.39C125.41,78.9,125.51,79,125.51,79.1Z"/><path class="cls-94" d="M127.51,80.26l-2-1.17a.23.23,0,0,0-.31.09.22.22,0,0,0,.08.31l2,1.17a.27.27,0,0,0,.12,0,.21.21,0,0,0,.19-.11A.23.23,0,0,0,127.51,80.26Z"/><path class="cls-95" d="M127.51,80.26l-2-1.17a.23.23,0,0,0-.31.09.22.22,0,0,0,0,.16l2.3,1.34a.2.2,0,0,0,.12-.1A.23.23,0,0,0,127.51,80.26Z"/><path class="cls-96" d="M127.51,80.26l-2-1.17a.23.23,0,0,0-.31.09.16.16,0,0,0,0,.09l2.36,1.38a.13.13,0,0,0,.06-.07A.23.23,0,0,0,127.51,80.26Z"/><path class="cls-48" d="M125.2,79.18h0l2.4,1.4h0a.26.26,0,0,0,0-.21l-2.24-1.31A.23.23,0,0,0,125.2,79.18Z"/><path class="cls-91" d="M125.23,79.13l2.39,1.39a.27.27,0,0,0,0-.09l-2.31-1.35Z"/><path class="cls-99" d="M127.85,80.31l-.75-.43a.14.14,0,0,0-.15,0,.46.46,0,0,0-.22.38.18.18,0,0,0,.06.15l.74.41s.1,0,.17,0a.49.49,0,0,0,.22-.38A.16.16,0,0,0,127.85,80.31Z"/><path class="cls-94" d="M127.92,80.46a.49.49,0,0,1-.22.38c-.12.07-.22,0-.22-.13a.49.49,0,0,1,.22-.38C127.82,80.26,127.92,80.31,127.92,80.46Z"/><path class="cls-94" d="M130.22,81.8l-2.28-1.33a.23.23,0,0,0-.31.08.24.24,0,0,0,.09.32L130,82.19a.15.15,0,0,0,.11,0,.24.24,0,0,0,.2-.12A.23.23,0,0,0,130.22,81.8Z"/><path class="cls-95" d="M130.22,81.8l-2.28-1.33a.22.22,0,0,0-.33.24l2.57,1.5a.21.21,0,0,0,.13-.1A.23.23,0,0,0,130.22,81.8Z"/><path class="cls-96" d="M130.22,81.8l-2.28-1.33a.23.23,0,0,0-.31.08.29.29,0,0,0,0,.1l2.64,1.53.07-.07A.23.23,0,0,0,130.22,81.8Z"/><path class="cls-48" d="M127.63,80.55v0l2.68,1.55h0a.22.22,0,0,0,0-.21l-2.51-1.46A.27.27,0,0,0,127.63,80.55Z"/><path class="cls-91" d="M127.67,80.51l2.66,1.55a.28.28,0,0,0,0-.09l-2.6-1.51Z"/><path class="cls-49" d="M130.06,81.61l-.37-.21s-.09,0-.15,0a.46.46,0,0,0-.22.38q0,.12.06.15l.36.21a.15.15,0,0,0,.17,0,.49.49,0,0,0,.22-.38A.16.16,0,0,0,130.06,81.61Z"/><path class="cls-98" d="M130.46,81.75a.86.86,0,0,1-.4.69c-.22.13-.4,0-.4-.23a.89.89,0,0,1,.4-.69C130.28,81.39,130.46,81.5,130.46,81.75Z"/><path class="cls-49" d="M129.66,82.21a.89.89,0,0,1,.4-.69.27.27,0,0,1,.27,0c-.07-.08-.19-.09-.33,0a.86.86,0,0,0-.4.69.27.27,0,0,0,.13.26A.29.29,0,0,1,129.66,82.21Z"/><path class="cls-49" d="M132,82.72l-1.75-1a.14.14,0,0,0-.15,0,.46.46,0,0,0-.22.38c0,.07,0,.12.06.14l1.73,1a.13.13,0,0,0,.17,0,.48.48,0,0,0,.23-.39A.15.15,0,0,0,132,82.72Z"/><path class="cls-98" d="M132,82.86a.48.48,0,0,1-.23.39c-.12.07-.22,0-.22-.13a.49.49,0,0,1,.22-.38C131.93,82.67,132,82.72,132,82.86Z"/><path class="cls-92" d="M135.18,81.35c-.27-.06-.51,0-.53.08l-.06.36c0,.1.18.23.45.28s.51,0,.53-.09l.06-.35C135.65,81.53,135.45,81.4,135.18,81.35Z"/><path class="cls-93" d="M135.63,81.63c0,.1-.26.14-.53.08s-.47-.18-.45-.28.26-.14.53-.08S135.65,81.53,135.63,81.63Z"/><path class="cls-94" d="M136,77.71c-.15,0-.28,0-.29.05l-.84,3.69c0,.06.1.13.25.15s.27,0,.28,0l.85-3.69C136.28,77.81,136.17,77.74,136,77.71Z"/><path class="cls-95" d="M136,77.71c-.15,0-.28,0-.29.05l-.84,3.69c0,.06.1.13.25.15a.44.44,0,0,0,.23,0l.87-3.79A.45.45,0,0,0,136,77.71Z"/><path class="cls-96" d="M136,77.71c-.15,0-.28,0-.29.05l-.84,3.69c0,.06.1.13.25.15a.41.41,0,0,0,.15,0l.88-3.86A.53.53,0,0,0,136,77.71Z"/><path class="cls-48" d="M136,77.71a.64.64,0,0,0-.24,0l-.86,3.8a.38.38,0,0,0,.22.09h.07l.88-3.88Z"/><path class="cls-91" d="M135.09,81.59l.89-3.88h-.12L135,81.55Z"/><path class="cls-92" d="M138.17,76.57c0-.27-.39-.49-.86-.73a.91.91,0,0,0-.89.08s-.45.27-.67.43-.51.78-.77,1-.88.68-.84,1.07.67.32,1,.12a3.86,3.86,0,0,1,1.79-.45c.65,0,.77-.12,1-.38A1.42,1.42,0,0,0,138.17,76.57Z"/><path class="cls-100" d="M138.19,76.68a1.31,1.31,0,0,1-.4.71,4.31,4.31,0,0,1-1.73.44c-.52.06-1.25.61-1.56.64a.48.48,0,0,1-.36-.12v0c0,.4.67.32,1,.12a3.86,3.86,0,0,1,1.79-.45c.65,0,.77-.12,1-.38A1.37,1.37,0,0,0,138.19,76.68Z"/><path class="cls-101" d="M130.9,66.63s5.06-4.41,6-4.37c1.48.05,6.21,2.28,7,2.9s1.76,3.84,2,5.54-4.84,5.49-5.81,5.45-5.38-2.69-5.38-2.69Z"/><path d="M140,73c-.22-.49-.53-1.69-1-2.9s-5.1-3.07-5.1-3.07l-1,1.19,1.85,5.24s4.43,2.64,5.4,2.68c.32,0,.2-.32.42-.56A8.75,8.75,0,0,0,140,73Z"/><path class="cls-42" d="M133.31,92.05s-.35.61-.58.92-1,1.15-1.18,1.29-.33.66,0,.87a2.07,2.07,0,0,0,2.15-.1c.67-.63.88-1.19,1.12-1.37s.52-.5.51-.71-.19-1.24-.19-1.24a.8.8,0,0,1-.34.53,1,1,0,0,1-.67.16s.22-.36-.13-.5a.58.58,0,0,0-.53,0A.94.94,0,0,0,133.31,92.05Z"/><path class="cls-43" d="M134.76,93.36c-.24.18-.37.85-1,1.48a2.07,2.07,0,0,1-2.15.1.41.41,0,0,1-.19-.28.44.44,0,0,0,.19.47,2.07,2.07,0,0,0,2.15-.1c.67-.63.88-1.19,1.12-1.37s.52-.5.51-.71c0,0,0-.07,0-.12C135.28,93,135,93.2,134.76,93.36Z"/><path class="cls-44" d="M133.18,90.16c0-1.34.15-3.55.17-4.47a15.53,15.53,0,0,1,.72-3.71c.45-1.37,1.74-5.6,1.74-5.6s2.69-.63,3.13-.16a4.11,4.11,0,0,1,.29,2.73,12.71,12.71,0,0,1-1.36,3c-.36.64-1.83,2.72-1.82,3.27a8.15,8.15,0,0,1,0,3c-.33,2.08-.67,4.09-.67,4.09a1.81,1.81,0,0,1-2.58.55A11.91,11.91,0,0,0,133.18,90.16Z"/><path class="cls-45" d="M138.94,76.22c-.44-.47-3.13.16-3.13.16s-.47,1.56-.95,3.09a6.56,6.56,0,0,1,1.88-.94,9.55,9.55,0,0,0,2.53-1.43A1.8,1.8,0,0,0,138.94,76.22Z"/><path class="cls-41" d="M124.21,76.89c-.12.12-1,.53-1.08.66s-.54.83-.07,1a.22.22,0,0,0,.21.24.45.45,0,0,0,.3.16s0,.11.26.07.27-.15.46-.28a1.47,1.47,0,0,1,.9-.29,5.19,5.19,0,0,1,.16-1.14A5,5,0,0,1,126.71,76a10,10,0,0,0,1.88-1.76c.31-.46.75-1.31.89-1.45s1.07-.83,1.3-1.11a7.16,7.16,0,0,0,.55-1.26c0-.06.31-2,.31-2s-.63-.73-.9-.74-.68.1-1.1,1-.57,1.3-.69,1.51-.71,1-.87,1.33a2.65,2.65,0,0,1-.53,1A7,7,0,0,0,126.26,74,31.16,31.16,0,0,1,124.21,76.89Z"/><path class="cls-102" d="M123.88,78.3c-.13-.15-.16,0-.36-.08s-.15-.23-.33-.27-.13-.13-.14-.26c-.14.25-.36.73,0,.88a.22.22,0,0,0,.21.24.45.45,0,0,0,.3.16s0,.11.26.07.27-.15.46-.28l.14-.09A1,1,0,0,1,123.88,78.3Z"/><path class="cls-103" d="M129.48,72.81c.14-.15,1.07-.83,1.3-1.11a7.16,7.16,0,0,0,.55-1.26s.09-.49.16-1l-2.55.68c0,.06-.11.17-.2.3a2.23,2.23,0,0,1,.46,1.21c-.08.54-.14.6-.4.8s-.19.4-.18.61-.1.66-.79,1.56-2.41,1.93-2.52,2.81h0a.34.34,0,0,1,0-.12A5,5,0,0,1,126.71,76a10,10,0,0,0,1.88-1.76C128.9,73.8,129.34,73,129.48,72.81Z"/><path class="cls-104" d="M124.25,76.63l1.22.7s1.91-1.63,2.36-2a10,10,0,0,0,1.54-1.7c.24-.43,2-2.41,2-2.41V68.37a4.85,4.85,0,0,0-.64-.68c-.21-.16-.8.23-1.48,1.54s-1.59,2.88-1.7,3A14.79,14.79,0,0,0,126,74.12C125.53,74.91,124.25,76.63,124.25,76.63Z"/><path class="cls-105" d="M124.25,76.63l1.22.7s1.91-1.63,2.36-2a10,10,0,0,0,1.54-1.7c.24-.43,2-2.41,2-2.41V68.37a4.85,4.85,0,0,0-.64-.68c-.21-.16-.8.23-1.48,1.54s-1.59,2.88-1.7,3A14.79,14.79,0,0,0,126,74.12C125.53,74.91,124.25,76.63,124.25,76.63Z"/><path class="cls-104" d="M130.65,67.61a9.83,9.83,0,0,0,0,1.75c.12.81.15,3,1.79,3.43a3.23,3.23,0,0,0,1,1.27,7.28,7.28,0,0,1-.07,1.48c-.05.26-.63.39-.47.52.55.46,2,2,3.4,1.86s2.88-.82,2.87-1.58a18.15,18.15,0,0,1-1-2.74c-.1-.7-.4-3.49-1.4-4.35a10.92,10.92,0,0,0-3.64-1.88A11,11,0,0,0,130.65,67.61Z"/><path class="cls-105" d="M138.15,76.48c-.24-1.31,0-2.1-.36-2.71a6.62,6.62,0,0,1-.46-2.38s-2.46,2.32-2.94,2.32l1.17-2.35s-.67-.89-1-.8-.51,1.71-.66,2.11a.77.77,0,0,1-.51.48,2,2,0,0,1-.93-.36,3.23,3.23,0,0,0,1,1.27,7.28,7.28,0,0,1-.07,1.48c-.05.26-.63.39-.47.52.55.46,2,2,3.4,1.86a5,5,0,0,0,2-.54C138.28,77.14,138.21,76.85,138.15,76.48Z"/><path class="cls-106" d="M135,69.46a2.9,2.9,0,0,0,.09,3.22c1.54,2.68,3.14,1.22,3.14,1.22l.15.51c-2,.89-3.1.13-3.86-1.52a4.1,4.1,0,0,1,0-3.79,2,2,0,0,1,1-.65l.54.3A2.24,2.24,0,0,0,135,69.46Z"/><path class="cls-107" d="M135.21,72.81c-.1.23-.22.47-.32.7.73,1.2,1.76,1.67,3.53.9l-.15-.51S136.72,75.31,135.21,72.81Z"/><path class="cls-106" d="M131.47,67.86l-.54-.18a4.6,4.6,0,0,0,.48,4.34A5.37,5.37,0,0,1,131.47,67.86Z"/><path class="cls-41" d="M131.44,80.8a6.82,6.82,0,0,1-.85.53c-.23.12-.71.4-.69.6s.31,1,.59,1.1c0,0,0,.17.3.11,0,0,.24.2.4.11,0,0,.24.12.32.1s.09-.13.09-.28a.49.49,0,0,1,.14-.47,1.61,1.61,0,0,0,.5-.69,1.78,1.78,0,0,1,.24-.67c.11-.13,1.7-2.07,2.07-2.71a13.77,13.77,0,0,0,.89-1.78c.12-.33.43-1.28.51-1.41a13.8,13.8,0,0,0,.64-1.45c.17-.47.38-1.42.48-1.72s.3-2-.46-2.44-2,.18-1.92,1.09a8.12,8.12,0,0,1-.05,2,13.22,13.22,0,0,0-.62,2,12.4,12.4,0,0,1-.24,1.73c-.15.35-.85,1.45-1.18,2.21A13.82,13.82,0,0,1,131.44,80.8Z"/><path class="cls-104" d="M131.38,80.75l1.1.67,2.18-2.58c.29-.35,1.67-3.26,1.87-3.66a14,14,0,0,0,.78-4.66c-.21-1.14-.65-1-1.29-1-1.28,0-1.36.73-1.66,1.93s-.65,4.91-.65,4.91Z"/><path class="cls-108" d="M134,66.78a2.71,2.71,0,0,0,.32,1.13c.27.36-.36.92-1.15,1.45s-1,.37-1.18.24c-.35-.29-.47-1.29-.47-1.29Z"/><path class="cls-109" d="M131.47,69.23c0-.45,0-.92,0-.92L134,66.78a2.71,2.71,0,0,0,.32,1.13,1,1,0,0,1,0,.72l-.36.44s-.16-1-.64-.69A5,5,0,0,1,131.47,69.23Z"/><path class="cls-110" d="M131.94,69.6l-.72,1s-.2-1.57-.26-2.28l.41-.3A11.45,11.45,0,0,0,131.94,69.6Z"/><path class="cls-111" d="M133.05,63.57a2.16,2.16,0,0,0-2.22.52,2.08,2.08,0,0,0-.67,1.43c0,.26,0,.48-.07.68s.21.4.21.4c-.16.31.12.91.2,1.05a.27.27,0,0,0,0,.15.17.17,0,0,0,.15.14,4,4,0,0,1,.19.53c0,.16.1.67.7.56a3.61,3.61,0,0,0,1.85-1.15,4,4,0,0,0,.85-2.42A2,2,0,0,0,133.05,63.57Z"/><path class="cls-108" d="M130.09,66.2c0-.2,0-.42.07-.68v0a8,8,0,0,1,2.84.34l.06,0a3.06,3.06,0,0,1-1.23,1c-.48.18-.69-.14-1.55-.28A.53.53,0,0,1,130.09,66.2Z"/><path class="cls-108" d="M130.5,67.65h0a6.86,6.86,0,0,0,.2-.78c0-.27-.55-.44-.55-.44h0a1.05,1.05,0,0,0,.15.17C130.14,66.91,130.42,67.51,130.5,67.65Z"/><path class="cls-112" d="M132.86,66.24c.1.17.22.38.34.42s.18-.11.21-.15.5-.87.69-.07a3.62,3.62,0,0,0,.13-1,2.56,2.56,0,0,0,0-.39,4.49,4.49,0,0,1-1.45.7A4.26,4.26,0,0,0,132.86,66.24Z"/><path class="cls-108" d="M131.19,69a3,3,0,0,0-.3-1.1s-.14,0-.25,0h0a4,4,0,0,1,.19.53A.64.64,0,0,0,131.19,69Z"/><path class="cls-111" d="M133.51,67.25c.08,0,.26.06.52-.35s.2-.74,0-.82a.27.27,0,0,0-.38.16A8.86,8.86,0,0,0,133.51,67.25Z"/><path class="cls-104" d="M134.2,66.15a12.76,12.76,0,0,0-1.23-.49,8,8,0,0,0-3.07-.33,9,9,0,0,1,.58-1.72,2,2,0,0,1,2.27-.47c1.34.47,1.45,1.15,1.56,1.72A3.46,3.46,0,0,1,134.2,66.15Z"/><path class="cls-110" d="M129.9,65.33a8,8,0,0,1,3.07.33l.05,0a2.92,2.92,0,0,1-1.23,1c-.5.19-.7-.17-1.66-.29a2.45,2.45,0,0,0-1.26.13,4.6,4.6,0,0,1,.49-.67A5.21,5.21,0,0,1,129.9,65.33Z"/><path class="cls-110" d="M134.13,67.53a4.42,4.42,0,0,1-2.19,2.07l.49,1.33a20.6,20.6,0,0,0,2.31-2.73Z"/><path class="cls-113" d="M130.25,67s.17,0,.21-.09a.18.18,0,0,1,.23-.11c.17.06.45.2.65.29a1.18,1.18,0,0,0,.93,0c.34-.16,1.26-.73,1.26-.73l-.2.28c-.05.06-.93.57-.93.57a2.41,2.41,0,0,0-.14.88,1.3,1.3,0,0,0,.16.41,4.28,4.28,0,0,0,1.38-1.28,3.59,3.59,0,0,1-1.3,1.41,2.57,2.57,0,0,1-1.38.41c-.57-.1-.8-1.41-.8-1.41Z"/><path class="cls-114" d="M132.22,67.25s.07,0,0,.1-.07.4-.08.53a4.88,4.88,0,0,1,0-.52l-.16.14.11-.17a2.75,2.75,0,0,1-.49,0,2.79,2.79,0,0,0,.44,0Z"/><path class="cls-114" d="M132.33,68.57a1.09,1.09,0,0,1-.32.23s.23-.16.25-.22l-.13,0s.13,0,.12,0-.06-.37-.06-.37.06.24.08.28S132.35,68.52,132.33,68.57Z"/><path class="cls-114" d="M130.25,67s.17,0,.21-.09a.18.18,0,0,1,.17-.12.89.89,0,0,1,0,.15,3.63,3.63,0,0,0-.05.71,6.61,6.61,0,0,0,1.33.21,5.18,5.18,0,0,1-1.33-.08,2,2,0,0,0,.05.28,3.05,3.05,0,0,0,.13.31,8.09,8.09,0,0,0,1.14-.12,5.67,5.67,0,0,1-1.11.2,3.12,3.12,0,0,0,.34.59c-.56-.11-.79-1.41-.79-1.41Z"/><rect class="cls-115" x="117.71" y="60.73" width="29.42" height="41.63"/></g></g></g></svg>