<?xml version="1.0" encoding="utf-8"?>
<!-- Generator: Adobe Illustrator 26.0.1, SVG Export Plug-In . SVG Version: 6.00 Build 0)  -->
<svg version="1.1" id="Layer_1" xmlns="http://www.w3.org/2000/svg" xmlns:xlink="http://www.w3.org/1999/xlink" x="0px" y="0px"
	 viewBox="0 0 391.1 104.8" style="enable-background:new 0 0 391.1 104.8;" xml:space="preserve">
<style type="text/css">
	.st0{fill:none;stroke:#ED1C24;stroke-miterlimit:10;}
	.st1{fill:none;stroke:#A4A4A5;stroke-width:0.4;stroke-miterlimit:10;}
	.st2{fill:#A4A4A5;}
	.st3{enable-background:new    ;}
	.st4{fill:#221815;}
</style>
<g id="Layer_2_00000058570085404444592400000002435952336836986517_">
	<g id="Layer_1-2">
		<polyline class="st0" points="5.3,43.8 5.3,26.7 13.9,26.7 13.9,43.8 31,43.8 31,26.7 39.5,26.7 39.5,43.8 57,43.8 57,26.7 
			65.2,26.7 65.2,43.8 82.7,43.8 82.7,26.7 90.9,26.7 90.9,43.8 108.1,43.8 108.1,26.7 116.6,26.7 116.6,43.8 150.6,43.8 
			198.1,43.8 198.1,26.7 206.6,26.7 206.6,43.8 223.7,43.8 223.7,26.7 232.3,26.7 232.3,43.8 249.8,43.8 249.8,26.7 258,26.7 
			258,43.8 275.5,43.8 275.5,26.7 283.7,26.7 283.7,43.8 300.8,43.8 300.8,26.7 309.4,26.7 309.4,43.8 390.6,43.8 390.6,26.7 		"/>
		<line class="st1" x1="87.8" y1="9.5" x2="31.5" y2="9.5"/>
		<path class="st2" d="M79.1,3.5c-0.2,0.3-0.1,0.7,0.2,0.9l8.2,5.2l-8.2,5.2c-0.3,0.2-0.4,0.6-0.2,0.9c0.2,0.3,0.6,0.4,0.9,0.2l0,0
			l9-5.7c0.2-0.1,0.3-0.3,0.3-0.5c0-0.2-0.1-0.4-0.3-0.5l-9-5.7c-0.1-0.1-0.2-0.1-0.3-0.1C79.4,3.2,79.2,3.3,79.1,3.5"/>
		<line class="st1" x1="280.2" y1="9.5" x2="223.9" y2="9.5"/>
		<path class="st2" d="M271.5,3.5c-0.2,0.3-0.1,0.7,0.2,0.9l8.2,5.2l-8.2,5.2c-0.3,0.2-0.4,0.6-0.2,0.9c0.2,0.3,0.6,0.4,0.9,0.2
			l9-5.7c0.2-0.1,0.3-0.3,0.3-0.5c0-0.2-0.1-0.4-0.3-0.5l-9-5.7c-0.1-0.1-0.2-0.1-0.3-0.1C271.9,3.2,271.7,3.3,271.5,3.5"/>
		<line class="st1" x1="5.3" y1="53.7" x2="5.3" y2="88.8"/>
		<line class="st1" x1="198" y1="53.7" x2="198" y2="88.8"/>
		<line class="st1" x1="390.6" y1="53.7" x2="390.6" y2="88.8"/>
		<line class="st1" x1="196.4" y1="71.1" x2="7.3" y2="71.1"/>
		<path class="st2" d="M187.8,65c-0.2,0.3-0.1,0.7,0.2,0.9c0,0,0,0,0,0l8.2,5.2l-8.1,5.2c-0.3,0.2-0.4,0.6-0.2,0.9
			c0.2,0.3,0.6,0.4,0.9,0.2l9-5.7c0.3-0.2,0.4-0.6,0.2-0.9c0-0.1-0.1-0.1-0.2-0.2l-9-5.7C188.4,64.6,188,64.7,187.8,65"/>
		<path class="st2" d="M15.9,65c0.2,0.3,0.1,0.7-0.2,0.9l-8.2,5.2l8.2,5.2c0.3,0.2,0.4,0.6,0.2,0.9c-0.2,0.3-0.6,0.4-0.9,0.2l-9-5.7
			c-0.3-0.2-0.4-0.6-0.2-0.9c0.1-0.1,0.1-0.2,0.2-0.2l9-5.7c0.1-0.1,0.2-0.1,0.3-0.1C15.6,64.7,15.8,64.8,15.9,65"/>
		<line class="st1" x1="388.6" y1="71.1" x2="199.5" y2="71.1"/>
		<path class="st2" d="M380,65c-0.2,0.3-0.1,0.7,0.2,0.9l8.2,5.2l-8.2,5.2c-0.3,0.2-0.4,0.6-0.2,0.9c0.2,0.3,0.6,0.4,0.9,0.2l9-5.7
			c0.3-0.2,0.4-0.6,0.2-0.9c-0.1-0.1-0.1-0.2-0.2-0.2l-9-5.7c-0.1-0.1-0.2-0.1-0.3-0.1C380.3,64.7,380.1,64.8,380,65"/>
		<path class="st2" d="M208.1,65c0.2,0.3,0.1,0.7-0.2,0.9c0,0,0,0,0,0l-8.2,5.2l8.2,5.2c0.3,0.2,0.4,0.6,0.2,0.9
			c-0.2,0.3-0.6,0.4-0.9,0.2l-9-5.7c-0.3-0.2-0.4-0.6-0.2-0.9c0-0.1,0.1-0.1,0.2-0.2l9-5.7C207.5,64.6,207.9,64.7,208.1,65"/>
		<g class="st3">
			<path class="st4" d="M18,9.2C18,14,14,18,9.2,18c-4.8,0-8.8-4-8.8-8.8c0-4.8,4-8.8,8.9-8.8C14,0.4,18,4.5,18,9.2z M1.2,9.2
				c0,4.4,3.7,8,8,8c4.4,0,8-3.7,8-8c0-4.4-3.7-8-8.1-8C4.9,1.2,1.2,4.9,1.2,9.2z M9,3.9c-0.6,0.3-1.8,0.7-3,1L5.7,4.1
				c1.5-0.3,3-0.9,3.6-1.4H10v12.8H9V3.9z"/>
		</g>
		<g class="st3">
			<path class="st4" d="M121.1,9.2c0,4.8-4,8.8-8.8,8.8c-4.8,0-8.8-4-8.8-8.8c0-4.8,4-8.8,8.9-8.8C117.1,0.4,121.1,4.5,121.1,9.2z
				 M104.3,9.2c0,4.4,3.7,8,8,8c4.4,0,8-3.7,8-8c0-4.4-3.7-8-8.1-8C107.9,1.2,104.3,4.9,104.3,9.2z M115.9,3v0.9h-6l-0.5,5h0.1
				c0.8-0.7,1.9-1.1,3-1.1c2.4,0,4.1,1.6,4.1,3.9c0,2.4-1.8,4.1-4.4,4.1c-1.6,0-3-0.4-4-1.3l0.6-0.7c0.9,0.7,2.2,1.2,3.5,1.2
				c1.8,0,3.2-1.4,3.2-3.2c0-1.8-1.3-3-3.2-3c-1.2,0-2.5,0.6-3.1,1.4l-0.9-0.1l0.7-6.9H115.9z"/>
		</g>
		<g class="st3">
			<path class="st4" d="M210.5,9.2c0,4.8-4,8.8-8.8,8.8c-4.8,0-8.8-4-8.8-8.8c0-4.8,4-8.8,8.9-8.8C206.5,0.4,210.5,4.5,210.5,9.2z
				 M193.7,9.2c0,4.4,3.7,8,8,8s8-3.7,8-8c0-4.4-3.7-8-8.1-8C197.3,1.2,193.7,4.9,193.7,9.2z M201.5,3.9c-0.6,0.3-1.8,0.7-3,1
				l-0.3-0.8c1.5-0.3,3-0.9,3.6-1.4h0.6v12.8h-0.9V3.9z"/>
		</g>
		<g class="st3">
			<path class="st4" d="M313.6,9.2c0,4.8-4,8.8-8.8,8.8c-4.8,0-8.8-4-8.8-8.8c0-4.8,4-8.8,8.9-8.8C309.5,0.4,313.6,4.5,313.6,9.2z
				 M296.7,9.2c0,4.4,3.7,8,8,8s8-3.7,8-8c0-4.4-3.7-8-8.1-8C300.4,1.2,296.7,4.9,296.7,9.2z M308.4,3v0.9h-6l-0.5,5h0.1
				c0.8-0.7,1.9-1.1,3-1.1c2.4,0,4.1,1.6,4.1,3.9c0,2.4-1.8,4.1-4.4,4.1c-1.6,0-3-0.4-4-1.3l0.6-0.7c0.9,0.7,2.2,1.2,3.5,1.2
				c1.8,0,3.2-1.4,3.2-3.2c0-1.8-1.3-3-3.2-3c-1.2,0-2.5,0.6-3.1,1.4l-0.9-0.1l0.7-6.9H308.4z"/>
		</g>
		<g class="st3">
			<path class="st4" d="M75.8,92.5c0.5-0.5,0.9-1,1.5-1.6C76.7,90,75.8,89,75,88.2l0.6-0.6c0.3,0.4,0.4,0.5,0.6,0.6
				c0.7-0.9,1.4-1.9,2.1-3.1l0.8,0.5c-0.8,1.2-1.6,2.3-2.4,3.1c0.3,0.4,0.9,1.1,1.2,1.5c0.8-1,1.5-1.9,2.3-3.1l0.7,0.5
				c-1.3,1.8-2.6,3.3-4,4.7l0.3,0l0.1,0c0.9,0,2.2-0.2,3.2-0.3c-0.3-0.7-0.4-1-0.6-1.3l0.7-0.4c0.4,0.8,0.8,1.7,1.3,3l-0.7,0.5
				c-0.1-0.4-0.3-0.8-0.4-1.2c-0.6,0.1-1,0.2-2,0.3v7.1h-0.8v-7c-0.7,0.1-2.1,0.2-2.9,0.2l-0.2-0.9l0.7,0h0.1H75.8z M75.1,98.3
				c0.5-1.2,0.7-2.4,0.9-4l0.8,0.1c-0.2,1.9-0.5,3.3-0.9,4.4L75.1,98.3z M80.6,97.9c-0.2-1.3-0.6-2.6-0.9-3.6l0.7-0.3
				c0.3,0.9,0.7,2.2,1,3.5L80.6,97.9z M89.3,87.8c0,5.6-0.2,9.7-0.5,10.8c-0.2,1-0.7,1.4-1.9,1.4c-0.4,0-1.2,0-2.1-0.1l-0.2-0.9
				c0.8,0.1,1.7,0.2,2.3,0.2c0.7,0,0.9-0.1,1-0.8c0.3-1.8,0.5-5.3,0.5-9.7l0-0.1h-5.2c-0.4,1-0.9,2.2-1.5,2.9L81.3,91
				c1-1.4,1.8-3.6,2.1-5.9l0.8,0.2c-0.1,0.9-0.3,1.8-0.6,2.5H89.3z M85.7,95.4c-0.7-1.5-1.7-3-2.5-4.1l0.6-0.5
				c0.9,1.1,1.8,2.5,2.6,4L85.7,95.4z"/>
			<path class="st4" d="M96.5,98.1c0.4-1.7,1.7-3.5,3.9-5l0.4-0.3c2.5-1.7,2.9-2.2,2.9-3.6c0-1.5-1.2-2.4-3-2.4
				c-1.3,0-2.3,0.5-3.3,1.8L96.8,88c1.1-1.4,2.3-2.1,4.1-2.1c2.4,0,4.1,1.4,4.1,3.3c0,1-0.3,1.7-1.2,2.5c-0.5,0.4-1.1,0.9-2.3,1.7
				l-0.6,0.4c-2,1.4-3.1,2.9-3.3,4.2h7.6V99h-8.7V98.1z"/>
		</g>
		<g class="st3">
			<path class="st4" d="M114.7,92.1c-0.6,1.7-1.4,3.3-2.4,4.6l-0.5-0.8c1.2-1.5,2.2-3.5,2.8-5.4h-2.6v-0.8h2.8v-2.9
				c-0.8,0.2-1.4,0.3-2.1,0.5l-0.4-0.7c1.9-0.3,3.8-0.9,5-1.4l0.6,0.6c-0.7,0.3-1.1,0.4-2.2,0.8v3.1h2.3v0.8h-2.3V92
				c0.9,0.7,1.7,1.4,2.4,2.1l-0.6,0.7c-0.5-0.6-1.1-1.2-1.8-1.9v7.2h-0.8V92.1z M117.4,92.8c0.8-1.2,1.3-2.9,1.7-5.2l0.8,0.1
				c-0.3,2.5-0.9,4.1-1.7,5.4L117.4,92.8z M117.5,99.4c3.7-1.2,6.1-3.5,7.2-6.9l0.7,0.4c-1.2,3.5-3.5,5.8-7.3,7.2L117.5,99.4z
				 M122.4,85.1v9.1c0,0.7-0.3,1-1.1,1c-0.4,0-0.9,0-1.3-0.1l-0.2-0.8c0.7,0.1,0.9,0.1,1.3,0.1s0.4-0.1,0.4-0.4v-9H122.4z
				 M126.2,92.5c-0.7-1.8-1.7-3.7-2.5-4.9l0.6-0.4c1,1.5,1.9,3.2,2.6,4.8L126.2,92.5z"/>
		</g>
		<g class="st3">
			<path class="st4" d="M270,92.5c0.5-0.5,1-1,1.5-1.6c-0.6-0.8-1.5-1.9-2.3-2.7l0.6-0.6c0.3,0.4,0.4,0.5,0.6,0.6
				c0.7-0.9,1.4-1.9,2.1-3.1l0.8,0.5c-0.8,1.2-1.6,2.3-2.4,3.1c0.3,0.4,0.9,1.1,1.2,1.5c0.8-1,1.5-1.9,2.3-3.1l0.7,0.5
				c-1.3,1.8-2.6,3.3-4,4.7l0.3,0l0.1,0c0.9,0,2.2-0.2,3.2-0.3c-0.3-0.7-0.4-1-0.6-1.3l0.7-0.4c0.4,0.8,0.8,1.7,1.3,3l-0.7,0.5
				c-0.1-0.4-0.3-0.8-0.4-1.2c-0.6,0.1-1,0.2-2,0.3v7.1h-0.8v-7c-0.7,0.1-2.1,0.2-2.9,0.2l-0.2-0.9l0.7,0h0.1H270z M269.2,98.3
				c0.5-1.2,0.7-2.4,0.9-4l0.8,0.1c-0.2,1.9-0.5,3.3-0.9,4.4L269.2,98.3z M274.8,97.9c-0.2-1.3-0.6-2.6-0.9-3.6l0.7-0.3
				c0.3,0.9,0.7,2.2,1,3.5L274.8,97.9z M283.5,87.8c0,5.6-0.2,9.7-0.5,10.8c-0.2,1-0.7,1.4-1.9,1.4c-0.4,0-1.2,0-2.1-0.1l-0.2-0.9
				c0.8,0.1,1.7,0.2,2.3,0.2c0.7,0,0.9-0.1,1-0.8c0.3-1.8,0.5-5.3,0.5-9.7l0-0.1h-5.2c-0.4,1-0.9,2.2-1.5,2.9l-0.6-0.6
				c1-1.4,1.8-3.6,2.1-5.9l0.8,0.2c-0.1,0.9-0.3,1.8-0.6,2.5H283.5z M279.9,95.4c-0.7-1.5-1.7-3-2.5-4.1l0.6-0.5
				c0.9,1.1,1.8,2.5,2.6,4L279.9,95.4z"/>
			<path class="st4" d="M290.6,98.1c0.4-1.7,1.7-3.5,3.9-5l0.4-0.3c2.5-1.7,2.9-2.2,2.9-3.6c0-1.5-1.2-2.4-3-2.4
				c-1.3,0-2.3,0.5-3.3,1.8l-0.7-0.6c1.1-1.4,2.3-2.1,4.1-2.1c2.4,0,4.1,1.4,4.1,3.3c0,1-0.3,1.7-1.2,2.5c-0.5,0.4-1.1,0.9-2.3,1.7
				l-0.6,0.4c-2,1.4-3.1,2.9-3.3,4.2h7.6V99h-8.7V98.1z"/>
		</g>
		<g class="st3">
			<path class="st4" d="M308.8,92.1c-0.6,1.7-1.4,3.3-2.4,4.6l-0.5-0.8c1.2-1.5,2.2-3.5,2.8-5.4h-2.6v-0.8h2.8v-2.9
				c-0.8,0.2-1.4,0.3-2.1,0.5l-0.4-0.7c1.9-0.3,3.8-0.9,5-1.4l0.6,0.6c-0.7,0.3-1.1,0.4-2.2,0.8v3.1h2.3v0.8h-2.3V92
				c0.9,0.7,1.7,1.4,2.4,2.1l-0.6,0.7c-0.5-0.6-1.1-1.2-1.8-1.9v7.2h-0.8V92.1z M311.6,92.8c0.8-1.2,1.3-2.9,1.7-5.2l0.8,0.1
				c-0.3,2.5-0.9,4.1-1.7,5.4L311.6,92.8z M311.7,99.4c3.7-1.2,6.1-3.5,7.2-6.9l0.7,0.4c-1.2,3.5-3.5,5.8-7.3,7.2L311.7,99.4z
				 M316.6,85.1v9.1c0,0.7-0.3,1-1.1,1c-0.4,0-0.9,0-1.3-0.1l-0.2-0.8c0.7,0.1,0.9,0.1,1.3,0.1c0.4,0,0.4-0.1,0.4-0.4v-9H316.6z
				 M320.3,92.5c-0.7-1.8-1.7-3.7-2.5-4.9l0.6-0.4c1,1.5,1.9,3.2,2.6,4.8L320.3,92.5z"/>
		</g>
	</g>
</g>
</svg>
