<?xml version="1.0" encoding="utf-8"?>
<!-- Generator: Adobe Illustrator 26.0.1, SVG Export Plug-In . SVG Version: 6.00 Build 0)  -->
<svg version="1.1" id="Layer_1" xmlns="http://www.w3.org/2000/svg" xmlns:xlink="http://www.w3.org/1999/xlink" x="0px" y="0px"
	 viewBox="0 0 443.4 281.9" style="enable-background:new 0 0 443.4 281.9;" xml:space="preserve">
<style type="text/css">
	.st0{fill:#FDEBC7;}
	.st1{fill:#A3E4F2;}
	.st2{fill:#BFC0C0;}
	.st3{clip-path:url(#SVGID_00000012459703081936056380000006310745765221188534_);}
	.st4{fill:none;stroke:#9FA0A0;stroke-width:0.3;stroke-linecap:round;stroke-linejoin:round;}
	.st5{enable-background:new    ;}
	.st6{fill:#221815;}
	.st7{fill:none;stroke:#221815;stroke-width:0.85;stroke-miterlimit:10;}
	.st8{fill:#ED1C24;}
	.st9{fill-rule:evenodd;clip-rule:evenodd;fill:#ED1C24;}
	.st10{fill:none;stroke:#221815;stroke-width:0.75;stroke-miterlimit:10;}
	.st11{fill:none;stroke:#FFFFFF;stroke-width:3;stroke-linecap:round;stroke-linejoin:round;}
	.st12{fill:#71448F;}
	.st13{fill:#FFFFFF;}
	.st14{fill:none;stroke:#221815;stroke-miterlimit:10;}
	.st15{clip-path:url(#SVGID_00000082370762995422362790000008916517753311436731_);}
	.st16{fill:#FFC6A3;}
	.st17{fill:#6B2E00;}
	.st18{fill:#732E00;}
	.st19{fill:#FFB193;}
	.st20{fill:#ACECFF;}
	.st21{fill:#ACDCFF;}
	.st22{clip-path:url(#SVGID_00000109007531211787923040000015144767985185654442_);}
	.st23{fill:#AEAFAF;}
	.st24{fill:#ACC6E5;}
	.st25{fill:#C4C4C5;}
	.st26{clip-path:url(#SVGID_00000087414737254284843700000009260810560600828291_);}
	.st27{clip-path:url(#SVGID_00000100384443847679633290000014959517262564065966_);}
	.st28{fill:#AAAAAB;}
	.st29{fill:#CACBCB;}
</style>
<g id="Layer_2_00000096756913428192363890000010739562986094865043_">
	<g id="Layer_1-2">
		<rect x="28.9" y="35.9" class="st0" width="324.4" height="243.6"/>
		<path class="st1" d="M27.9,35.9v157.9c3.5,0.5,8.2,1,10,0.4c0,0,12.1-111.1,57.9-158.2v-0.1L27.9,35.9z"/>
		<path class="st2" d="M353.1,279.2H28.9v-85.6l2.6,0.4c106.7,14.9,214.9,14.8,321.6-0.4V279.2z"/>
		<g>
			<defs>
				<path id="SVGID_1_" d="M31.5,194l-2.6-0.4v85.6h324.2v-85.6C246.4,208.7,138.2,208.9,31.5,194"/>
			</defs>
			<clipPath id="SVGID_00000077297674382991582530000008841702418844830610_">
				<use xlink:href="#SVGID_1_"  style="overflow:visible;"/>
			</clipPath>
			<g style="clip-path:url(#SVGID_00000077297674382991582530000008841702418844830610_);">
				<path class="st4" d="M360.4,174.6l-12,1.9c-104.9,16.6-211.8,16.8-316.8,0.6l-16.5-2.6"/>
				<path class="st4" d="M360.4,179.1l-11.7,1.9c-105.1,16.6-212.1,16.8-317.3,0.6l-16.1-2.5"/>
				<path class="st4" d="M360.4,183.5l-11.5,1.8c-105.2,16.7-212.5,16.9-317.8,0.6l-15.6-2.4"/>
				<path class="st4" d="M360.4,187.9l-11.2,1.8c-105.4,16.7-212.8,16.9-318.3,0.6l-15.1-2.3"/>
				<path class="st4" d="M360.4,192.3l-10.9,1.7c-105.6,16.8-213.1,16.9-318.8,0.5L16,192.3"/>
				<path class="st4" d="M360.3,196.7l-10.6,1.7c-105.8,16.8-213.5,17-319.3,0.5l-14.2-2.2"/>
				<path class="st4" d="M360.3,201.2l-10.4,1.6c-105.9,16.8-213.8,17-319.8,0.5l-13.8-2.1"/>
				<path class="st4" d="M360.3,205.6l-10.1,1.6c-106.1,16.9-214.2,17-320.3,0.4l-13.3-2"/>
				<path class="st4" d="M360.3,210l-9.8,1.6c-106.2,16.9-214.5,17.1-320.8,0.4l-12.9-2"/>
				<path class="st4" d="M360.3,214.4l-9.6,1.5c-106.4,17-214.8,17.1-321.3,0.4L17,214.4"/>
				<path class="st4" d="M360.3,218.8l-9.3,1.5c-106.6,17-215.2,17.1-321.8,0.3l-11.9-1.8"/>
				<path class="st4" d="M360.2,223.2l-9,1.4C244.5,241.7,135.7,241.8,29,225l-11.5-1.8"/>
				<path class="st4" d="M360.2,227.7l-8.8,1.4c-106.9,17.1-215.9,17.2-322.8,0.3l-11-1.7"/>
				<path class="st4" d="M360.2,232.1l-8.5,1.3c-107.1,17.2-216.2,17.2-323.3,0.2L17.9,232"/>
				<path class="st4" d="M360.2,236.5l-8.2,1.3C244.8,255,135.5,255.1,28.2,238l-10.1-1.6"/>
				<path class="st4" d="M360.2,240.9l-8,1.3c-107.4,17.2-216.9,17.3-324.3,0.2l-9.6-1.5"/>
				<path class="st4" d="M360.2,245.3l-7.7,1.2c-107.6,17.3-217.2,17.3-324.8,0.1l-9.2-1.4"/>
				<path class="st4" d="M360.2,249.7l-7.4,1.2C245,268.2,135.2,268.3,27.4,251l-8.7-1.4"/>
				<path class="st4" d="M360.1,254.2l-7.1,1.1c-107.9,17.4-217.9,17.4-325.8,0.1l-8.3-1.3"/>
				<path class="st4" d="M360.1,258.6l-6.9,1.1c-108.1,17.4-218.2,17.4-326.3,0l-7.8-1.2"/>
				<path class="st4" d="M360.1,263l-6.6,1c-108.2,17.5-218.6,17.5-326.8,0l-7.4-1.1"/>
				<path class="st4" d="M360.1,267.4l-6.3,1c-108.4,17.5-218.9,17.5-327.3,0l-6.9-1"/>
				<path class="st4" d="M360.1,271.8l-6.1,1c-108.6,17.5-219.3,17.5-327.8-0.1l-6.4-1"/>
				<path class="st4" d="M360.1,276.2l-5.8,0.9c-108.7,17.6-219.6,17.6-328.4-0.1l-6-0.9"/>
				<path class="st4" d="M360,280.7l-5.5,0.9c-108.9,17.6-220,17.6-328.9-0.1l-5.5-0.8"/>
				<path class="st4" d="M360,285.1l-5.2,0.8c-109.1,17.7-220.3,17.6-329.4-0.1l-5-0.8"/>
				<path class="st4" d="M360,289.5l-5,0.8c-109.2,17.7-220.6,17.6-329.9-0.2l-4.6-0.7"/>
				<path class="st4" d="M360,293.9l-4.7,0.8c-109.4,17.8-221,17.7-330.4-0.2l-4.1-0.6"/>
				<path class="st4" d="M360,298.3l-4.5,0.7c-109.6,17.8-221.3,17.7-330.9-0.3l-3.7-0.6"/>
				<path class="st4" d="M360,302.8l-4.2,0.7c-109.7,17.8-221.7,17.7-331.4-0.3l-3.2-0.5"/>
			</g>
		</g>
		<g class="st5">
			<path class="st6" d="M393.8,180.7c1.3-0.3,2.3-0.7,3.1-1.2c-0.6-0.5-1.1-1.1-1.5-1.8c-0.3,0.5-0.5,0.8-0.8,1.1l-0.6-0.6
				c0.8-0.8,1.4-2,1.7-3.5l0.9,0.1c-0.2,0.6-0.2,0.9-0.5,1.4h4.5v0.7h-1.3c-0.3,1-0.6,1.7-1.2,2.4c0.8,0.5,1.8,1,2.8,1.3l-0.5,0.7
				c-1.2-0.5-2-0.9-2.8-1.5c-0.7,0.6-1.8,1.1-2.9,1.3h3.7v0.7h-10.1v-0.7h3.1l-0.2-0.6h-3.7v-2.1h4.1v2.1c0.2,0,0.3,0,0.5,0
				c0.4,0,0.5-0.1,0.6-0.5c0.1-0.4,0.2-1.3,0.3-2.1l0-0.1h-5.2c-0.4,0.6-0.9,1.1-1.4,1.4l-0.6-0.6c0.7-0.5,1.5-1.3,1.9-2.1l0.4,0.1
				v-0.5h-2.3v-0.7h2.3v-0.9h0.8v0.9h2.2v-0.9h0.9v0.9h2.4v0.7h-2.4v0.6h-0.9v-0.6h-2.2v0.6h-0.5c-0.1,0.1-0.1,0.2-0.2,0.3h5.7
				c-0.2,2.8-0.5,3.8-1,4h1.5L393.8,180.7z M400.9,182.8v0.7h-15.4v-0.7H400.9z M399,190.1h-0.9v-0.6h-9.8v0.6h-0.9v-2.9H399V190.1z
				 M398.2,184.3v0.7h-10.1v-0.7H398.2z M398.2,185.7v0.7h-10.1v-0.7H398.2z M388.1,180h2.3v-0.8h-2.3V180z M388.3,188.8h9.8v-0.9
				h-9.8V188.8z M395.8,177c0.3,0.7,0.9,1.3,1.6,1.9c0.5-0.6,0.8-1.2,1-1.9H395.8z"/>
			<path class="st6" d="M409.9,177.4v-2.7h0.9v2.7h5.8v0.8h-5.8v2.9h7.1v0.8h-15.4V181h7.4v-2.9h-4.3c-0.5,0.8-1.1,1.5-1.6,2
				l-0.7-0.6c1.1-1,2.3-2.8,2.8-4.3l0.8,0.3c-0.2,0.6-0.6,1.3-0.9,1.8H409.9z M415.8,190.1h-0.9v-0.9h-9v0.9h-0.9v-6.2h10.8V190.1z
				 M406,188.4h9v-3.7h-9V188.4z"/>
		</g>
		<g class="st5">
			<path class="st6" d="M433.6,176.4v0.8h-2.5c-0.3,1-0.9,2.3-1.2,3.1h4.9v0.8h-15.4v-0.8h4.8c-0.3-1-0.7-2.2-1.1-3.1h-2.5v-0.8h6
				v-1.7h0.9v1.7H433.6z M432.1,190.1h-0.9v-0.9h-8.1v0.9h-0.9v-7.5h9.9V190.1z M423.1,185.4h8.1v-2h-8.1V185.4z M423.1,188.4h8.1
				v-2.3h-8.1V188.4z M424.1,177.2c0.4,0.9,0.7,1.9,1.1,3.1h3.9c0.3-0.8,0.7-1.9,1.2-3.1H424.1z"/>
		</g>
		<g class="st5">
			<path class="st6" d="M3,198.9H2.2v-9.5c-0.5,1-0.9,1.8-1.4,2.6l-0.4-0.8c1.3-2.1,2.3-4.7,3-7.6l0.8,0.2c-0.3,1.3-0.7,2.6-1.1,3.7
				V198.9z M3.9,198c0.8-0.6,1.6-1.7,2.1-2.7l0.7,0.5c-0.7,1.3-1.4,2.3-2.2,2.9L3.9,198z M9.8,195H5v-10.6h4.8V195z M5.8,187.5H9
				v-2.4H5.8V187.5z M5.8,190.7H9v-2.4H5.8V190.7z M5.8,194.2H9v-2.7H5.8V194.2z M9.7,198.4c-0.8-1.3-1.2-2-1.8-2.6l0.6-0.5
				c0.6,0.7,1.2,1.5,1.8,2.5L9.7,198.4z M12.2,184.8v10.1h-0.8v-10.1H12.2z M15.1,183.9v13.5c0,0.9-0.4,1.2-1.4,1.2
				c-0.4,0-1.2,0-1.8-0.1l-0.2-0.9c0.8,0.1,1.5,0.1,2.1,0.1c0.4,0,0.5-0.1,0.5-0.6v-13.3H15.1z"/>
		</g>
		<g class="st5">
			<path class="st6" d="M7.1,170.2c0,1.2,0,2.2-0.1,3l0,0.1h6.4c-0.1,3.5-0.3,5.8-0.6,7c-0.2,0.9-0.8,1.2-2.1,1.2
				c-1,0-1.9,0-2.5-0.1l-0.1-0.9c1.1,0.1,2,0.2,2.7,0.2c0.7,0,1-0.1,1.1-0.6c0.3-1,0.5-2.8,0.6-5.4l0-0.5H6.9
				c-0.5,3.6-2,5.8-5.2,7.5l-0.6-0.7c3.9-2.1,5.1-4.6,5.1-10.7H0.6v-0.8h7v-2.9h0.9v2.9h7.1v0.8H7.1z"/>
		</g>
		<g class="st5">
			<path class="st6" d="M3.6,164.9H2.7V157c-0.6,0.8-1.2,1.4-1.8,2l-0.5-0.7c1.4-1.2,2.8-3.1,3.8-5.1l0.8,0.4
				c-0.4,0.9-0.7,1.3-1.3,2.2V164.9z M0.5,153.3c1.4-1.1,2.5-2.4,3.2-3.8l0.8,0.4c-0.7,1.4-2.1,2.9-3.4,4L0.5,153.3z M4.6,160.4
				c1.5-0.7,2.9-2.1,3.8-3.6c-1.3,0.1-1.6,0.1-3.1,0.2L5,156.2c0.8,0,0.9,0,1.4,0l1.3,0l0.1-0.1c0.3-0.3,0.4-0.4,0.7-0.7l0.2-0.2
				c-0.7-0.8-2-2.1-3.2-3.1l0.6-0.5c0.4,0.3,0.8,0.7,1.2,1c0.8-0.8,1.7-2.1,2.3-3l0.8,0.4c-0.9,1.2-1.8,2.3-2.5,3.1
				c0.5,0.4,1,1,1.4,1.5c1.2-1.3,2.4-2.7,3.1-3.7l0.8,0.5c-1.2,1.6-2.8,3.3-4.3,4.7c0.6,0,1.3-0.1,1.5-0.1c0.6,0,1.7-0.1,3.3-0.2
				c-0.6-0.8-0.9-1.2-1.4-1.7l0.6-0.5c0.9,1,1.9,2.3,2.7,3.4l-0.7,0.5c-0.3-0.5-0.4-0.6-0.7-1.1c-2.6,0.3-2.7,0.3-4.7,0.4
				c-0.2,0.5-0.6,1-0.9,1.4h4.9l0.6,0.5c-1,1.3-2.1,2.5-3.2,3.2c1.3,0.9,2.9,1.6,5,2.1l-0.6,0.8c-2-0.6-3.6-1.3-5.1-2.4
				c-1.7,1.1-3.6,2-5.3,2.4L4.3,164c1.9-0.5,3.7-1.2,5.2-2.2c-0.6-0.5-1.4-1.4-2.2-2.3c-0.7,0.6-1.3,1.1-2,1.5L4.6,160.4z
				 M7.8,158.9c0.4,0.6,1.6,1.8,2.3,2.4c1.2-0.9,2.1-1.8,2.5-2.4L7.8,158.9L7.8,158.9z"/>
		</g>
		<g class="st5">
			<path class="st6" d="M7.6,134.3H0.5v-0.8h15.2v0.8H8.5v2.6h6.1v9.5c0,0.9-0.4,1.3-1.6,1.3c-1.1,0-2.1,0-2.9-0.1l-0.1-0.9
				c1.2,0.1,2.1,0.1,3,0.1c0.7,0,0.8-0.2,0.8-0.8v-8.4H8.5v5.8H11v-4.1h0.9v4.9H5.3v1.1H4.4v-6h0.9v4.1h2.3v-5.8H2.4v10.2H1.6v-11h6
				V134.3z"/>
		</g>
		<g class="st5">
			<path class="st6" d="M7.6,117.9H0.8v-0.8h6.8v-1.7h0.9v1.7h6.9v0.8H8.5v1.5h5.7v6.2H8.5v1.6h7.3v0.8H8.5v2.9H7.6v-2.9H0.4v-0.8
				h7.2v-1.6H2v-6.2h5.6V117.9z M2.9,120.2v1.8h4.7v-1.8H2.9z M2.9,122.8v2h4.7v-2H2.9z M8.5,122h4.9v-1.8H8.5V122z M8.5,124.8h4.9
				v-2H8.5V124.8z"/>
		</g>
		<line class="st7" x1="394" y1="169.6" x2="394" y2="139.4"/>
		<polygon class="st6" points="394,132.1 398.2,142.3 394,139.9 389.8,142.3 		"/>
		<g class="st5">
			<path class="st8" d="M379.9,91.1v5.1c2.5-0.7,5.3-1.8,7-2.8l1,1.5c-2.3,1.2-5.4,2.3-8,3v3.7c0,0.5,0.2,0.7,0.6,0.8
				c0.4,0.1,1.9,0.2,3.3,0.2c1.8,0,3.6-0.1,5.7-0.3v1.8c-2,0.1-3.6,0.2-5.6,0.2c-3.4,0-4.4-0.1-5-0.5c-0.5-0.3-0.8-0.9-0.8-1.9V91.1
				H379.9z M391.6,92.3c0,1.1-0.9,2-2,2s-2-0.9-2-2s0.9-2,2-2C390.7,90.3,391.6,91.2,391.6,92.3z M388.6,92.3c0,0.6,0.5,1,1,1
				s1-0.5,1-1c0-0.6-0.5-1-1-1S388.6,91.8,388.6,92.3z"/>
			<path class="st8" d="M396.4,91.1v5.1c2.5-0.7,5.3-1.8,7-2.8l1,1.5c-2.3,1.2-5.4,2.3-8,3v3.7c0,0.5,0.2,0.7,0.6,0.8
				c0.4,0.1,1.9,0.2,3.3,0.2c1.8,0,3.6-0.1,5.7-0.3v1.8c-2,0.1-3.6,0.2-5.6,0.2c-3.4,0-4.4-0.1-5-0.5c-0.5-0.3-0.8-0.9-0.8-1.9V91.1
				H396.4z M408.1,92.3c0,1.1-0.9,2-2,2c-1.1,0-2-0.9-2-2s0.9-2,2-2C407.2,90.3,408.1,91.2,408.1,92.3z M405.1,92.3c0,0.6,0.5,1,1,1
				c0.6,0,1-0.5,1-1c0-0.6-0.5-1-1-1C405.6,91.3,405.1,91.8,405.1,92.3z"/>
			<path class="st8" d="M412.9,91.1v5.1c2.5-0.7,5.3-1.8,7-2.8l1,1.5c-2.3,1.2-5.4,2.3-8,3v3.7c0,0.5,0.2,0.7,0.6,0.8
				c0.4,0.1,1.9,0.2,3.3,0.2c1.8,0,3.6-0.1,5.7-0.3v1.8c-2,0.1-3.6,0.2-5.6,0.2c-3.4,0-4.4-0.1-5-0.5c-0.5-0.3-0.8-0.9-0.8-1.9V91.1
				H412.9z M424.6,92.3c0,1.1-0.9,2-2,2s-2-0.9-2-2s0.9-2,2-2C423.7,90.3,424.6,91.2,424.6,92.3z M421.6,92.3c0,0.6,0.5,1,1,1
				s1-0.5,1-1c0-0.6-0.5-1-1-1S421.6,91.8,421.6,92.3z"/>
		</g>
		<g class="st5">
			<path class="st8" d="M431,96.9v2.2h-2.2v-2.2H431z M436.4,96.9v2.2h-2.2v-2.2H436.4z M441.8,96.9v2.2h-2.2v-2.2H441.8z"/>
		</g>
		<polygon class="st8" points="372.7,86.3 387.6,73.4 388.7,79.7 406.3,73 386.3,84.7 385.2,79.9 		"/>
		<polygon class="st8" points="372.7,110.2 387.6,123.1 388.7,116.8 406.3,123.5 386.3,111.8 385.2,116.5 		"/>
		<g class="st5">
			<path class="st6" d="M86.4,0.4h0.9v3.3h1.8v0.8h-1.8V8c0.6-0.2,1.3-0.5,1.8-0.7l0.1,0.8c-0.8,0.3-1.2,0.5-1.9,0.8v5.9
				c0,0.8-0.3,1.1-1.2,1.1c-0.3,0-1,0-1.4-0.1l-0.1-0.9c0.4,0.1,1,0.1,1.4,0.1c0.4,0,0.5-0.1,0.5-0.4V9.2c-0.4,0.1-0.8,0.3-1.2,0.4
				C85,9.7,84.7,9.8,84.2,10l-0.3-0.9c1-0.3,1.4-0.4,2.1-0.7l0.4-0.1V4.5H84V3.7h2.5V0.4z M99.3,9.1v0.8h-2.3l0,0.1
				c-0.4,1.2-1.1,2.3-1.8,3c1.2,0.6,2.5,1.2,3.8,2l-0.6,0.7c-1.2-0.7-2.3-1.4-3.9-2.1c-1.2,1-3.1,1.8-5.3,2.2L88.9,15
				c1.8-0.2,3.8-0.9,4.9-1.8c-1.8-0.8-1.8-0.8-3.3-1.3c0.4-0.5,0.9-1.3,1.2-2h-3.1V9.1h3.5c0.3-0.7,0.7-1.5,0.9-2.2h-4.2V6.1h3
				C91.6,5,91.3,3.9,91,3.3h-1.7V2.5h4.2V0.4h0.9v2.1h4.2v0.8h-1.8c-0.4,1.3-0.6,2.1-0.9,2.9h3.2v0.8h-5.2c-0.2,0.6-0.6,1.4-0.9,2.2
				H99.3z M92.7,9.9c-0.3,0.6-0.6,1.1-0.9,1.7c1,0.4,1.8,0.7,2.7,1.1c0.9-0.9,1.4-1.7,1.8-2.8H92.7z M91.9,3.3
				c0.3,0.8,0.6,2.1,0.8,2.9h2.4c0.3-0.7,0.5-1.3,0.8-2.7c0-0.1,0-0.1,0-0.2H91.9z"/>
			<path class="st6" d="M104.7,12.5c1.5,1.4,3.1,2,5.9,2h5.8c-0.1,0.3-0.2,0.4-0.3,0.8h-5.5c-2.9,0-4.7-0.6-6.3-2.1
				c-0.9,1-2,2-2.8,2.6L101,15c0.9-0.6,2-1.5,2.8-2.3V8.4H101V7.6h3.7V12.5z M104.3,4c-0.8-1-1.7-2-2.4-2.5l0.6-0.5
				c0.8,0.6,1.7,1.5,2.5,2.4L104.3,4z M107.8,2.1c2.3-0.2,5.2-0.8,6.6-1.4l0.6,0.6c-1.7,0.6-4.4,1.2-6.9,1.4v2.7h8v0.8h-3.1v7.5
				h-0.9V6.3h-4.1v0.1v0.3c0,3.6-0.3,5-1.2,6.7l-0.7-0.6c0.8-1.6,1-2.8,1-6.6V2.2L107.8,2.1z"/>
			<path class="st6" d="M126.2,6.4c1.3-0.3,2.3-0.7,3.1-1.2c-0.6-0.5-1.1-1.1-1.5-1.8c-0.3,0.5-0.5,0.8-0.8,1.1l-0.6-0.6
				c0.8-0.8,1.4-2,1.7-3.5l0.9,0.1c-0.2,0.6-0.2,0.9-0.5,1.4h4.5v0.7h-1.3c-0.3,1-0.6,1.7-1.2,2.4c0.8,0.5,1.8,1,2.8,1.3l-0.5,0.7
				c-1.2-0.5-2-0.9-2.8-1.5c-0.7,0.6-1.8,1.1-2.9,1.3h3.7v0.7h-10.1V7h3.1l-0.2-0.6h-3.7V4.3h4.1v2.1c0.2,0,0.3,0,0.5,0
				c0.4,0,0.5-0.1,0.6-0.5c0.1-0.4,0.2-1.3,0.3-2.1l0-0.1H120c-0.4,0.6-0.9,1.1-1.4,1.4L118,4.6c0.7-0.5,1.5-1.3,1.9-2.1l0.4,0.1V2
				H118V1.3h2.3V0.4h0.8v0.9h2.2V0.4h0.9v0.9h2.4V2h-2.4v0.6h-0.9V2h-2.2v0.6h-0.5c-0.1,0.1-0.1,0.2-0.2,0.3h5.7
				c-0.2,2.8-0.5,3.8-1,4h1.5L126.2,6.4z M133.4,8.5v0.7H118V8.5H133.4z M131.5,15.8h-0.9v-0.6h-9.8v0.6h-0.9v-2.9h11.7V15.8z
				 M130.7,10v0.7h-10.1V10H130.7z M130.7,11.4v0.7h-10.1v-0.7H130.7z M120.6,5.7h2.3V4.9h-2.3V5.7z M120.8,14.5h9.8v-0.9h-9.8V14.5
				z M128.3,2.7c0.3,0.7,0.9,1.3,1.6,1.9c0.5-0.6,0.8-1.2,1-1.9H128.3z"/>
		</g>
		<g class="st5">
			<path class="st6" d="M142.4,3.1V0.4h0.9v2.7h5.8v0.8h-5.8v2.9h7.1v0.8H135V6.7h7.4V3.8h-4.3c-0.5,0.8-1.1,1.5-1.6,2l-0.7-0.6
				c1.1-1,2.3-2.8,2.8-4.3l0.8,0.3c-0.2,0.6-0.6,1.3-0.9,1.8H142.4z M148.3,15.8h-0.9v-0.9h-9v0.9h-0.9V9.6h10.8V15.8z M138.4,14.1
				h9v-3.7h-9V14.1z"/>
		</g>
		<g class="st5">
			<path class="st6" d="M152.5,15.8c-1.1-0.9-1.7-1.8-2.4-3.2c-0.7-1.5-1.1-3.1-1.1-4.5c0-2.7,1.4-5.9,3.5-7.7h0.9
				c-2.4,2.7-3.4,5-3.4,7.7c0,2.7,1,5,3.4,7.7H152.5z"/>
			<path class="st6" d="M168,2.5l0.7,0.6c-0.6,2.5-2.2,4.3-4.9,5.3l-0.6-0.7c2.3-0.6,4.1-2.5,4.5-4.4h-12.1V2.5H168z M162,5.1v1.3
				c0,4.7-0.9,6.5-4,8.1l-0.6-0.6c1.5-0.7,2.4-1.7,3.1-3.1c0.4-0.8,0.6-2.4,0.6-4.3V5.1H162z"/>
			<path class="st6" d="M184.2,12.5v0.8h-13.5v-0.8H184.2z M182.7,3.3v0.8h-10.4V3.3H182.7z"/>
			<path class="st6" d="M189,4.3c1.5,0.9,3.1,2,4.6,3.1c1.3-1.9,2.5-4.1,3.1-5.8l0.9,0.4c-0.8,1.9-2,4.2-3.2,5.9
				c1.4,1.1,2.9,2.4,4.1,3.5l-0.6,0.7c-0.9-0.9-2.5-2.3-4-3.5c-1.7,2.3-4.6,4.8-6.8,5.9l-0.6-0.7c1.9-1,4.5-3.2,6.6-5.8
				c-2.1-1.6-3.4-2.5-4.5-3.2L189,4.3z"/>
			<path class="st6" d="M215.4,7.3v0.8H202V7.3H215.4z"/>
			<path class="st6" d="M221.9,8c-1-0.5-2.3-1-3.9-1.5l0.3-0.8c1.3,0.4,3,1,4,1.5L221.9,8z M219.1,13.5c6.5-0.4,9.8-3.1,10.9-9.3
				l0.8,0.5c-1.3,6.3-4.6,9.2-11.4,9.7L219.1,13.5z M223.7,4c-1.1-0.5-2.7-1.1-4-1.5l0.3-0.8c1.5,0.4,2.9,0.8,4,1.4L223.7,4z"/>
			<path class="st6" d="M243,4.6v9.5h-9.3v-0.7h8.5V9.5h-7.8V8.8h7.8V5.3h-8.1V4.6H243z"/>
			<path class="st6" d="M252.1,4.9c-1.2-0.6-2.9-1.2-4.5-1.6l0.3-0.8c1.8,0.4,3.4,1,4.5,1.5L252.1,4.9z M247.7,13.3
				c3.5-0.3,5.7-0.9,7.2-2.1c1.9-1.6,3.2-3.9,3.7-6.6l0.8,0.5c-0.6,2.9-1.9,5.2-3.7,6.7c-1.7,1.4-3.9,2.1-7.7,2.5L247.7,13.3z"/>
		</g>
		<g class="st5">
			<path class="st6" d="M280.7,15.8c2.3-2.7,3.4-5,3.4-7.7c0-2.7-1-5-3.4-7.7h0.9c1.1,1,1.7,1.8,2.4,3.2c0.7,1.5,1.1,3.1,1.1,4.5
				c0,2.7-1.4,5.9-3.5,7.7H280.7z"/>
		</g>
		<polygon class="st9" points="66,140.3 209,140.3 230.4,161.7 209,183.3 66,183.3 		"/>
		<line class="st7" x1="129.7" y1="21.6" x2="129.7" y2="128.3"/>
		<polygon class="st6" points="129.7,135.6 125.5,125.3 129.7,127.8 133.9,125.3 		"/>
		<path class="st10" d="M28.9,193.6l2.6,0.4c106.6,15.7,215,15.6,321.6-0.4"/>
		<path class="st11" d="M253,209.9c-1.2-1-2.4-2-3.7-2.9l-0.7,0.5c1.3,0.9,2.5,1.9,3.7,2.9L253,209.9z M239.7,210.7
			c1.3-0.8,2.4-1.8,3.3-3.1l-0.8-0.4c-0.8,1.2-1.9,2.1-3.2,2.8L239.7,210.7z M248,195.7h-0.9v4.8c0,1,0.2,1.1,2.6,1.1
			c0.9,0.1,1.9,0,2.7-0.3c0.3-0.2,0.5-0.8,0.5-1.9l-0.8-0.4c0,0.5-0.1,1.1-0.2,1.6c-0.1,0.2-0.6,0.3-2,0.3c-0.5,0-1.1,0-1.6-0.1
			c-0.2,0-0.3-0.2-0.3-0.5v-1.6c1.5-0.4,2.9-0.9,4.4-1.5l-0.6-0.6c-1.2,0.6-2.5,1-3.8,1.4V195.7z M243.6,197.6v-1.8h-0.9v5.2
			c-0.7,0.1-1.3,0.2-1.7,0.2V197h-0.9v4.3l-0.6,0.1l-0.9,0.1l0.2,0.8c2.9-0.3,5.5-0.8,7.6-1.2v-0.7c-1.1,0.2-2,0.4-2.8,0.5v-2.4h2.4
			v-0.8L243.6,197.6z M243.3,205.8c-1.6,0-1.8,0.1-2.3,0.1h-2.3l0.3,0.8c2.2-0.1,3.3-0.1,4.8-0.2l1.6-0.1v4.6h0.9v-4.7
			c1.5-0.1,2.8-0.2,4.7-0.3h0.1h0.3c0.4,0.4,0.8,0.8,1.2,1.2l0.7-0.5c-1-1.1-2-2-3.2-2.9l-0.7,0.5c0.5,0.4,0.9,0.7,1.4,1.1h-0.3
			c-2.1,0.2-2.8,0.2-4.8,0.3h-0.4c1.5-1,2.9-2.1,4.2-3.2l-0.7-0.5c-1.2,1.1-2.5,2.2-3.9,3.2c-0.5-0.4-0.6-0.5-1.7-1.4
			c0.9-0.7,1.6-1.3,2.2-2l-0.8-0.4c-0.6,0.7-1.3,1.3-2.1,1.9c-0.3-0.2-0.4-0.3-1-0.7l-0.7,0.6c1.1,0.7,2.2,1.5,3.3,2.4l-0.2,0.1
			L243.3,205.8z"/>
		<path class="st11" d="M261.8,204.7v0.8h2.2c-0.5,1.7-1.6,3.2-3.2,4.1l0.6,0.6c1.8-1.2,3.1-3,3.6-5.1l-0.4-0.4H261.8z M261.2,207.5
			c-0.1-0.9-0.4-1.8-0.7-2.6l-0.8,0.3c0.3,0.9,0.5,1.8,0.6,2.7L261.2,207.5z M256.1,209.6c0.5-1.4,0.8-2.9,0.8-4.4l-0.8-0.1
			c-0.1,1.4-0.4,2.8-0.8,4.1L256.1,209.6z M263.1,200.5h5.6v1.9h-5.6V200.5z M263.1,197.9h5.6v1.8h-5.6V197.9z M266.3,205.2
			c0.7,2,2.1,3.7,3.8,5l0.6-0.8c-1.2-0.8-2.2-1.8-3-3c1-0.6,1.9-1.2,2.7-2l-0.7-0.6c-0.7,0.8-1.5,1.5-2.4,2.1
			c-0.4-0.7-0.8-1.6-1-2.4v-0.3h3.2v-6h-3.6c0.2-0.4,0.3-0.9,0.5-1.4l-0.9-0.1c-0.1,0.6-0.2,1.1-0.4,1.5h-2.8v6h3.2v6.7
			c0,0.4-0.1,0.4-0.4,0.4c-0.5,0-1,0-1.5-0.1l0.2,0.8c0.4,0,1,0.1,1.5,0.1c0.8,0,1.1-0.3,1.1-1L266.3,205.2z M255.8,203.2h-0.2h-0.4
			l0.2,0.9c0.9,0,2-0.1,2.7-0.2v7.2h0.8v-7.2h0.1c0.5-0.1,1.4-0.2,1.7-0.3c0.2,0.6,0.2,0.7,0.3,1.1l0.7-0.5c-0.3-1-0.7-2-1.2-3
			l-0.7,0.4c0.2,0.4,0.4,0.9,0.6,1.3c-1.1,0.1-1.9,0.2-3,0.3h-0.4l0.1-0.1c1.3-1.5,2.6-3,3.7-4.7l-0.7-0.5c-0.8,1.1-1.4,2.1-2.2,3.1
			c-0.5-0.6-0.7-0.9-1.1-1.5c0.8-1,1.6-2.1,2.3-3.2l-0.8-0.5c-0.6,1.1-1.3,2.1-2,3.1c-0.2-0.3-0.3-0.4-0.6-0.6l-0.6,0.6
			c0.8,0.8,1.6,1.7,2.2,2.7c-0.6,0.7-0.9,1.1-1.4,1.6L255.8,203.2z"/>
		<g class="st5">
			<path class="st6" d="M246,197.6v0.8h-2.5v2.5c0.7-0.1,1.7-0.3,2.8-0.5l0,0.7c-2.1,0.5-4.7,0.9-7.6,1.2l-0.2-0.8
				c0.5,0,0.6-0.1,0.9-0.1l0.6-0.1V197h0.9v4.2c0.4-0.1,1-0.1,1.7-0.2v-5.2h0.9v1.8H246z M244,205.8c0.1-0.1,0.1-0.1,0.2-0.1
				c-1-0.9-2.2-1.7-3.3-2.3l0.7-0.6c0.5,0.3,0.7,0.5,1,0.7c0.6-0.5,1.7-1.4,2.1-1.9l0.8,0.4c-0.7,0.7-1.4,1.3-2.3,2
				c1.1,0.8,1.2,0.9,1.7,1.4c1.2-0.9,2.6-2,3.9-3.2l0.7,0.5c-1.1,1-2.5,2.1-4.2,3.2l0.4,0c2-0.1,2.7-0.1,4.8-0.3l0.3,0
				c-0.5-0.4-0.9-0.7-1.4-1.1l0.7-0.5c1.1,0.8,2.3,1.9,3.2,2.9l-0.7,0.5c-0.3-0.4-0.7-0.7-1.2-1.2c-0.2,0-0.3,0-0.3,0l-0.1,0
				c-1.9,0.2-3.2,0.2-4.7,0.3v4.7h-0.9v-4.6l-1.6,0.1c-1.5,0.1-2.5,0.1-4.8,0.2l-0.3-0.8c1.4,0,2.1,0,2.3,0c0.5,0,0.7,0,2.3-0.1
				L244,205.8z M239,210c1.2-0.6,2.4-1.7,3.1-2.8l0.8,0.4c-0.8,1.2-2,2.3-3.3,3.1L239,210z M248,198c1.4-0.4,2.7-0.8,3.7-1.3
				l0.6,0.6c-1.2,0.5-2.4,0.9-4.4,1.5v1.6c0,0.3,0.1,0.5,0.3,0.5c0.2,0,1,0.1,1.6,0.1c1.4,0,1.9-0.1,2-0.3c0.1-0.2,0.2-0.8,0.2-1.6
				l0.8,0.4c0,1.2-0.2,1.7-0.5,1.9c-0.3,0.2-1.1,0.3-2.7,0.3c-2.3,0-2.6-0.1-2.6-1.1v-4.8h0.9V198z M252.2,210.5
				c-1.4-1.2-2.6-2.2-3.7-2.9l0.7-0.5c1.2,0.8,2.6,1.9,3.7,2.9L252.2,210.5z"/>
		</g>
		<g class="st5">
			<path class="st6" d="M256.1,203.2c0.6-0.6,0.9-0.9,1.4-1.6c-0.7-1-1.4-1.9-2.2-2.7l0.6-0.6c0.2,0.3,0.3,0.3,0.6,0.6
				c0.6-0.7,1.4-1.9,2-3.1l0.8,0.5c-0.6,1.1-1.5,2.2-2.3,3.2c0.4,0.5,0.7,0.8,1.1,1.5c0.8-1,1.5-2,2.2-3.1l0.7,0.5
				c-1.2,1.8-2.5,3.4-3.7,4.7l-0.1,0.1l0.4,0c1.2-0.1,1.9-0.1,3-0.3c-0.2-0.5-0.4-0.9-0.6-1.3l0.7-0.4c0.5,0.9,0.8,1.8,1.2,3
				l-0.7,0.5c-0.1-0.4-0.1-0.5-0.3-1.1c-0.3,0-1.2,0.2-1.7,0.3c-0.1,0-0.1,0-0.1,0v7.3h-0.8v-7.2c-0.7,0.1-1.8,0.2-2.7,0.2l-0.2-0.9
				l0.4,0l0.2,0H256.1z M255.4,209.2c0.4-1.2,0.7-2.4,0.8-4.1l0.8,0.1c-0.2,1.9-0.4,3.4-0.8,4.4L255.4,209.2z M260.4,207.9
				c-0.1-0.9-0.3-1.9-0.6-2.7l0.7-0.3c0.3,0.7,0.5,1.6,0.7,2.6L260.4,207.9z M264.7,204.7l0.4,0.4c-0.7,2.3-1.8,3.8-3.6,5.1
				l-0.6-0.6c1.5-0.9,2.6-2.3,3.2-4.1h-2.2v-0.8H264.7z M266.3,210c0,0.8-0.3,1-1.1,1c-0.5,0-1.1,0-1.5-0.1l-0.2-0.8
				c0.5,0.1,1.1,0.1,1.5,0.1c0.3,0,0.4-0.1,0.4-0.4v-6.7h-3.2v-5.9h2.8c0.1-0.4,0.3-0.9,0.4-1.5l0.9,0.1c-0.1,0.4-0.3,0.9-0.5,1.4
				h3.6v5.9h-3.2v0.3c0.2,0.8,0.5,1.6,1,2.4c0.9-0.6,1.7-1.4,2.4-2.1l0.7,0.6c-0.7,0.7-1.6,1.3-2.7,2c0.8,1.2,1.8,2.2,3,3l-0.6,0.8
				c-1.9-1.5-3-3-3.8-5V210z M263.1,199.7h5.6v-1.8h-5.6V199.7z M263.1,202.3h5.6v-1.8h-5.6V202.3z"/>
		</g>
		<path class="st11" d="M255.2,50.4h-12.5V56c0,4.9-0.2,6.6-1.1,8.4l0.8,0.6c0.9-1.9,1.2-3.9,1.1-8.8v-5h10.8v12.1
			c0,0.4-0.1,0.5-0.7,0.5s-1.3,0-2.4-0.1l0.2,0.9c0.7,0,1.6,0.1,2.3,0.1c1.1,0,1.5-0.3,1.5-1.2L255.2,50.4z M249.3,53.4v-1.5h-0.9
			v1.5h-3.6v0.8h3.6v1.6h-4.2v0.8h9.4v-0.8h-4.3v-1.6h3.7v-0.8L249.3,53.4z M251.4,59v2.1h-5V59H251.4z M252.3,58.2h-6.8V63h0.9
			v-1.1h5.9L252.3,58.2z"/>
		<path class="st11" d="M259.8,51.2h12.1v11.9h-12.1V51.2z M272.7,50.4h-13.8V65h0.9v-1.1h12.1V65h0.9V50.4z M267.5,55.2v2.9h-3.4
			c0-0.4,0-0.9,0-1.7v-1.2L267.5,55.2z M263.3,54.5h-2.6v0.7h2.6v1.7c0,0.4,0,0.9,0,1.2h-3v0.8h2.9c-0.2,1.4-1,2.6-2.2,3.2l0.6,0.6
			c1.4-0.8,2.3-2.2,2.4-3.9h3.5v3.7h0.8v-3.7h3v-0.8h-3v-2.9h2.5v-0.7h-2.5v-2.7h-0.8v2.7h-3.3v-2.6h-0.8V54.5z"/>
		<path class="st11" d="M282.8,51.9c-0.2,2.5-0.8,5-1.8,7.3c-0.8,1.9-1.5,2.7-2.2,2.7c-1.1,0-2-1.7-2-3.7c0-1.7,0.7-3.4,1.9-4.6
			C279.8,52.6,281.3,51.9,282.8,51.9z M284.3,63.6c1.3-0.3,2.5-0.9,3.5-1.8c1.2-1.2,1.8-2.8,1.7-4.5c0-3.6-2.6-6-6.5-6
			c-3.8-0.1-7,3-7.1,6.8c0,0.1,0,0.1,0,0.2c0,2.6,1.2,4.6,2.8,4.6c0.7-0.1,1.4-0.5,1.8-1.1c0.8-1.1,1.4-2.3,1.8-3.6
			c0.6-2,1.1-4.1,1.3-6.2c1,0.1,2,0.4,2.9,1c1.3,1,2,2.6,2,4.3c0.1,1.5-0.5,2.9-1.5,4c-0.9,0.8-2,1.3-3.2,1.6L284.3,63.6z"/>
		<path class="st11" d="M305.5,50.4h-11.8v6.5c0,3.8-0.4,5.8-1.5,7.4l0.7,0.7c1.3-1.9,1.7-4,1.7-8.1v-5.7h10v5
			c-0.1,2.3,0.1,4.7,0.6,7c0.3,1.1,0.8,1.8,1.3,1.8s0.9-1,1.1-3.7l-0.8-0.6c0,1-0.1,2-0.4,2.9c-0.1,0-0.2-0.3-0.3-0.7
			c-0.4-2.3-0.6-4.6-0.6-6.9L305.5,50.4z M299.9,56.3h2.2v2.6h-2.2L299.9,56.3z M299.1,56.3v2.6h-2.1v-2.6H299.1z M299.1,55.5h-3
			v4.2h3v3c-1.7,0.2-2.8,0.3-4,0.4l0.3,0.8c2.5-0.3,5-0.7,7.5-1.2c0.2,0.5,0.5,1,0.8,1.5l0.8-0.5c-0.6-1.2-1.3-2.4-2.1-3.5l-0.7,0.5
			c0.3,0.5,0.5,0.7,0.9,1.4c-0.3,0.1-0.4,0.1-0.7,0.1l-0.7,0.1l-1.2,0.2v-2.9h3.1v-4.2h-3.1v-2.1c1.1-0.1,2.1-0.3,3.2-0.6l-0.6-0.7
			c-2.3,0.5-4.6,0.8-6.9,0.9l0.4,0.8c0.8-0.1,2.3-0.2,3-0.3L299.1,55.5z"/>
		<path class="st11" d="M324.5,63.6c-1.1-0.9-2.4-1.6-3.7-2.3l-0.7,0.5c1.3,0.7,2.5,1.5,3.7,2.4L324.5,63.6z M309.7,64.5
			c1.4-0.7,2.6-1.5,3.7-2.5l-0.8-0.5c-1,1-2.2,1.8-3.5,2.3L309.7,64.5z M312.2,58.3h9.2v1.8h-9.2V58.3z M322.3,57.5h-11v3.3h5.2v3
			c0,0.3-0.1,0.4-0.5,0.4c-0.7,0-1.3,0-2-0.1l0.2,0.9c0.5,0,1.2,0.1,1.7,0.1c1,0,1.5-0.3,1.5-0.9v-3.3h4.9L322.3,57.5z M311.9,52.6
			h9.8v1.2h-9.8V52.6z M311.9,50.9h9.8v1h-9.8V50.9z M322.5,50.1H311v4.4h5.3v1.2h-7.2v0.8h15.4v-0.8h-7.3v-1.2h5.3V50.1z"/>
		<path class="st11" d="M340,50.1v13.3c0,0.5-0.1,0.6-0.5,0.6c-0.7,0-1.4-0.1-2.1-0.2l0.2,0.9c0.6,0.1,1.4,0.1,1.8,0.1
			c1,0,1.4-0.3,1.4-1.2V50.1H340z M330.1,64.9c0.9-0.8,1.7-1.9,2.2-3l-0.7-0.5c-0.5,1-1.2,2-2.1,2.7L330.1,64.9z M337.1,50.9V61h0.9
			V50.9L337.1,50.9z M336.1,64c-0.5-0.9-1.1-1.7-1.8-2.5l-0.6,0.5c0.7,0.8,1.3,1.7,1.8,2.6L336.1,64z M331.5,57.7h3.2v2.7h-3.2V57.7
			z M331.5,54.5h3.2v2.4h-3.2V54.5z M331.5,51.3h3.2v2.4h-3.2V51.3z M335.5,50.5h-4.8v10.5h4.8V50.5z M328.7,53.5
			c0.4-1.2,0.8-2.4,1.1-3.7l-0.8-0.2c-0.6,2.7-1.6,5.3-3,7.6l0.4,0.8c0.5-0.8,1-1.7,1.4-2.6V65h0.8L328.7,53.5z"/>
		<g class="st5">
			<path class="st6" d="M255.2,63.5c0,0.9-0.4,1.2-1.5,1.2c-0.7,0-1.6,0-2.3-0.1l-0.2-0.9c1.2,0.1,1.8,0.1,2.4,0.1
				c0.6,0,0.7-0.1,0.7-0.5V51.2h-10.8v5c0,4.9-0.2,6.9-1.2,8.8l-0.8-0.6c0.9-1.8,1.1-3.5,1.1-8.4v-5.5h12.6V63.5z M253,53.4v0.8
				h-3.7v1.6h4.3v0.8h-9.3v-0.8h4.2v-1.6h-3.6v-0.8h3.6v-1.5h0.9v1.5H253z M252.3,61.9h-5.9V63h-0.9v-4.8h6.8V61.9z M246.4,59v2.1h5
				V59H246.4z"/>
			<path class="st6" d="M272.7,65h-0.9v-1.1h-12.1V65h-0.9V50.4h13.8V65z M259.8,63.1h12.1V51.2h-12.1V63.1z M263.3,51.8h0.8v2.6
				h3.3v-2.7h0.8v2.7h2.5v0.7h-2.5v2.9h3v0.7h-3v3.7h-0.8v-3.7H264c-0.2,1.8-1,2.9-2.4,3.9l-0.6-0.6c1.3-0.8,1.9-1.7,2.2-3.2h-2.9
				v-0.7h3c0-0.3,0-0.8,0-1.2v-1.7h-2.6v-0.7h2.6V51.8z M264.1,55.2v1.2c0,0.8,0,1.3,0,1.7h3.4v-2.9H264.1z"/>
			<path class="st6" d="M283.7,62.9c1.2-0.3,2.3-0.9,3.2-1.6c1-0.9,1.5-2.3,1.5-4c0-1.8-0.7-3.4-2-4.3c-0.7-0.6-1.8-0.9-2.9-1
				c-0.2,2.1-0.7,4.5-1.3,6.3c-0.5,1.3-1.2,2.9-1.8,3.6c-0.6,0.7-1.2,1.1-1.8,1.1c-1.6,0-2.8-2-2.8-4.6c0-2.4,1.2-4.7,3.3-6
				c1.1-0.7,2.4-1.1,3.8-1.1c3.8,0,6.5,2.5,6.5,6.1c0,1.8-0.6,3.5-1.7,4.5c-0.8,0.8-1.9,1.4-3.5,1.8L283.7,62.9z M278.6,53.7
				c-1.2,1.2-1.9,2.9-1.9,4.7c0,2,0.9,3.6,2,3.6c0.7,0,1.4-0.8,2.2-2.7c0.9-2.1,1.5-4.5,1.8-7.3C281.2,51.9,279.7,52.5,278.6,53.7z"
				/>
			<path class="st6" d="M305.2,56c0,2.9,0.2,5.5,0.6,6.9c0.1,0.4,0.3,0.7,0.3,0.7c0.1,0,0.3-1.3,0.4-2.9l0.8,0.6
				c-0.2,2.7-0.5,3.7-1.1,3.7c-0.5,0-0.9-0.7-1.3-1.8c-0.4-1.5-0.6-3.7-0.6-7v-5h-10.1v5.7c0,4.1-0.5,6.2-1.7,8.1l-0.7-0.7
				c1.1-1.6,1.5-3.6,1.5-7.4v-6.5h11.8V56z M298.8,53.5c-0.7,0.1-2.2,0.2-3,0.3l-0.4-0.7c2.8-0.2,5.4-0.6,6.9-0.9l0.6,0.7
				c-0.9,0.2-1.9,0.4-3.2,0.6v2.1h3.1v4.1h-3.1v2.9l1.2-0.2c0.2,0,0.5-0.1,0.7-0.1c0.3,0,0.4-0.1,0.7-0.1c-0.5-0.8-0.6-1-0.9-1.4
				l0.7-0.5c0.8,1,1.3,1.9,2.1,3.5l-0.8,0.5c-0.2-0.5-0.5-1.1-0.8-1.5c-1.9,0.4-4.9,0.9-7.5,1.2l-0.3-0.8c1.2-0.1,2.3-0.2,4-0.4v-3
				h-3v-4.1h3V53.5z M296.6,56.3v2.6h2.1v-2.6H296.6z M299.6,58.9h2.2v-2.6h-2.2V58.9z"/>
			<path class="st6" d="M308.8,63.8c1.4-0.6,2.7-1.4,3.5-2.3l0.8,0.5c-0.9,0.9-2.3,1.9-3.7,2.6L308.8,63.8z M322.2,54.5h-5.3v1.2
				h7.3v0.8h-15.4v-0.8h7.2v-1.2h-5.3v-4.4h11.6V54.5z M322,60.8h-4.9v3.3c0,0.6-0.4,0.9-1.5,0.9c-0.5,0-1.2,0-1.7-0.1l-0.2-0.9
				c0.7,0.1,1.5,0.1,2,0.1c0.4,0,0.5-0.1,0.5-0.4v-3H311v-3.3h11V60.8z M311.5,51.9h9.8v-1h-9.8V51.9z M311.5,53.8h9.8v-1.2h-9.8
				V53.8z M311.9,60.1h9.2v-1.8h-9.2V60.1z M323.5,64.3c-0.9-0.8-2.1-1.6-3.7-2.4l0.7-0.6c1.5,0.8,2.7,1.5,3.7,2.3L323.5,64.3z"/>
		</g>
		<g class="st5">
			<path class="st6" d="M328.7,65h-0.8v-9.5c-0.5,1-0.9,1.8-1.4,2.6l-0.4-0.8c1.3-2.1,2.3-4.7,3-7.6l0.8,0.2
				c-0.3,1.3-0.7,2.6-1.1,3.7V65z M329.6,64.2c0.8-0.6,1.6-1.7,2.1-2.7l0.7,0.5c-0.7,1.3-1.4,2.3-2.2,2.9L329.6,64.2z M335.5,61.1
				h-4.8V50.5h4.8V61.1z M331.5,53.7h3.2v-2.4h-3.2V53.7z M331.5,56.8h3.2v-2.4h-3.2V56.8z M331.5,60.3h3.2v-2.7h-3.2V60.3z
				 M335.5,64.6c-0.8-1.3-1.2-2-1.8-2.6l0.6-0.5c0.6,0.7,1.2,1.5,1.8,2.5L335.5,64.6z M337.9,50.9V61h-0.8V50.9H337.9z M340.9,50.1
				v13.5c0,0.9-0.4,1.2-1.4,1.2c-0.4,0-1.2,0-1.8-0.1l-0.2-0.9c0.8,0.1,1.5,0.1,2.1,0.1c0.4,0,0.5-0.1,0.5-0.6V50.1H340.9z"/>
		</g>
		<path class="st11" d="M168.7,246.1h9.7v3h-9.7V246.1z M168.7,242.4h9.7v2.8h-9.7V242.4z M168.7,238.8h9.7v2.8h-9.7V238.8z
			 M167.8,238.1v13h0.9v-1.2h9.7v1.2h0.9v-13h-6.5c0.4-0.7,0.8-1.4,1.1-2.1l-0.9-0.2c-0.3,0.8-0.7,1.6-1.1,2.4L167.8,238.1z"/>
		<path class="st11" d="M190.9,243h4.9v2h-4.9V243z M190,243v2h-4.8v-2H190z M190.9,240.4h4.9v1.9h-4.9V240.4z M190,240.4v1.9h-4.8
			v-1.9H190z M190,239.6h-5.6v6.2h5.6v1.6h-7.2v0.8h7.2v2.9h0.9v-2.9h7.3v-0.8h-7.3v-1.6h5.7v-6.2h-5.7v-1.5h6.9v-0.8h-6.9v-1.7H190
			v1.7h-6.8v0.8h6.8L190,239.6z"/>
		<path class="st11" d="M207.1,240.1H201v11h0.9v-10.2h5.2v5.8h-2.4v-4.1h-0.9v6h0.9v-1.1h6.6v-4.9h-0.9v4.1h-2.5v-5.8h5.3v8.4
			c0,0.6-0.2,0.8-0.8,0.8c-0.9,0-1.8-0.1-3-0.1l0.1,0.9c0.8,0.1,1.8,0.1,2.9,0.1s1.6-0.3,1.6-1.3v-9.5h-6.1v-2.6h7.2v-0.8h-15.1v0.8
			h7.1V240.1z"/>
		<g class="st5">
			<path class="st6" d="M171.9,238.1c0.5-0.8,0.9-1.7,1.1-2.4l0.9,0.2c-0.3,0.8-0.7,1.5-1.1,2.2h6.5v13h-0.9v-1.2h-9.7v1.2h-0.9v-13
				H171.9z M168.7,241.7h9.7v-2.8h-9.7V241.7z M168.7,245.3h9.7v-2.8h-9.7V245.3z M168.7,249.1h9.7v-3h-9.7V249.1z"/>
			<path class="st6" d="M190,238.1h-6.8v-0.8h6.8v-1.7h0.9v1.7h6.9v0.8h-6.9v1.5h5.7v6.2h-5.7v1.6h7.3v0.8h-7.3v2.9H190v-2.9h-7.2
				v-0.8h7.2v-1.6h-5.6v-6.2h5.6V238.1z M185.3,240.4v1.8h4.7v-1.8H185.3z M185.3,243v2h4.7v-2H185.3z M190.9,242.2h4.9v-1.8h-4.9
				V242.2z M190.9,245h4.9v-2h-4.9V245z"/>
		</g>
		<g class="st5">
			<path class="st6" d="M207.1,237.5h-7.1v-0.8h15.2v0.8h-7.2v2.6h6.1v9.5c0,0.9-0.4,1.3-1.6,1.3c-1.1,0-2.1,0-2.9-0.1l-0.1-0.9
				c1.2,0.1,2.1,0.1,3,0.1c0.7,0,0.8-0.2,0.8-0.8v-8.4h-5.3v5.8h2.5v-4.1h0.9v4.9h-6.6v1.1h-0.9v-6h0.9v4.1h2.3v-5.8h-5.2v10.2H201
				v-11h6V237.5z"/>
		</g>
		<path class="st11" d="M83.1,64l-0.3,0.7l4.3,1.9c-1.9,2.7-4.8,4.6-8.1,5.3l0.3,0.8c3.6-0.7,6.8-2.9,8.8-6.1l-0.3-0.7L83.1,64z
			 M91.8,63.4L90.9,63l-5.7,12.7c-0.2,0.4-0.3,0.4-0.7,0.3c-0.7-0.3-1.4-0.7-2.1-1.1l-0.2,0.9c0.6,0.3,1.4,0.8,1.9,1
			c0.9,0.4,1.4,0.3,1.7-0.4l3.6-8.1c-0.3,3.6,0.7,7.2,2.8,10.1l0.8-0.4c-1.6-2.2-2.6-4.8-2.8-7.5c2-0.4,3.9-0.9,5.8-1.7l-0.4-0.9
			c-1.7,0.7-3.6,1.3-5.4,1.8c-0.1-1.3,0.1-2.6,0.4-3.8L91.8,63.4z"/>
		<path class="st11" d="M84.4,87.2c1.4-1,2.7-2.2,3.9-3.5L87.6,83c-1.1,1.3-2.4,2.4-3.7,3.4L84.4,87.2z M78.7,84.2
			c0.1-1.6,0.1-3.2,0-4.8h-0.8c0.1,1.6,0,3.2-0.1,4.8L78.7,84.2z M84,80.4l6,2.7l0.3-0.7l-12.7-5.7l-0.3,0.7l5.9,2.6l-2.8,6.3
			l-6.5-2.9l-0.3,0.7l6.5,2.9l-2.4,5.4l0.8,0.4l2.4-5.4l6.7,3l0.3-0.7l-6.7-3L84,80.4z"/>
		<path class="st11" d="M72.8,102l-0.3,0.7l2,0.9c-1.1,1.3-2.7,2.2-4.5,2.4l0.3,0.8c2.1-0.4,4-1.5,5.4-3.2l-0.2-0.5L72.8,102z
			 M71.1,104.4c0.2-0.9,0.4-1.8,0.5-2.7l-0.8-0.1c-0.1,0.9-0.3,1.8-0.6,2.7H71.1z M65.6,104.2c1-1.1,1.9-2.4,2.6-3.7l-0.7-0.4
			c-0.7,1.2-1.5,2.4-2.4,3.4L65.6,104.2z M75.7,98.7l5.1,2.3l-0.8,1.6l-5.1-2.3L75.7,98.7z M76.7,96.4l5.1,2.3l-0.7,1.6L76,98
			L76.7,96.4z M76.7,104.3c-0.1,2.1,0.4,4.2,1.4,6.1l0.8-0.5c-0.8-1.2-1.3-2.6-1.5-4c1.1-0.1,2.2-0.4,3.3-0.8l-0.4-0.8
			c-1,0.4-2,0.7-3,0.9c-0.1-0.9-0.1-1.7,0.1-2.6l0.1-0.3l2.9,1.3l2.4-5.4l-3.3-1.5c0.4-0.3,0.7-0.7,1-1.1l-0.8-0.5
			c-0.3,0.4-0.6,0.8-1,1.2l-2.6-1.2l-2.4,5.4l2.9,1.3l-2.8,6.1c-0.2,0.3-0.2,0.4-0.6,0.2c-0.5-0.2-0.9-0.4-1.3-0.7l-0.2,0.8
			c0.3,0.2,0.9,0.5,1.3,0.7c0.7,0.3,1.1,0.2,1.4-0.5L76.7,104.3z M67.9,98.2l-0.2-0.1L67.3,98l-0.2,0.9c0.8,0.3,1.9,0.7,2.5,0.9
			l-2.9,6.6l0.8,0.3l3-6.7c0,0,0.1,0,0.1,0c0.5,0.2,1.4,0.4,1.7,0.5c-0.1,0.6-0.1,0.7-0.2,1.2l0.8-0.1c0.1-1.1,0.2-2.2,0.1-3.3
			l-0.8,0.1c0,0.5,0,1,0,1.4c-1.1-0.3-1.8-0.6-2.9-1l-0.3-0.1h0.1c1.8-0.8,3.6-1.7,5.3-2.8l-0.4-0.8C73,95.8,72,96.4,70.8,97
			c-0.2-0.7-0.2-1.1-0.4-1.8c1.2-0.6,2.3-1.3,3.4-2l-0.5-0.8c-1,0.7-2,1.4-3.1,2c-0.1-0.3-0.1-0.5-0.3-0.8L69.2,94
			c0.4,1.1,0.7,2.2,0.9,3.4c-0.8,0.4-1.2,0.6-2,0.9L67.9,98.2z"/>
		<g class="st5">
			<path class="st6" d="M65,103.4c0.9-0.9,1.6-1.9,2.4-3.4l0.7,0.4c-0.9,1.7-1.8,2.9-2.6,3.7L65,103.4z M68.1,98.3
				c0.7-0.3,1.2-0.5,2-0.9c-0.2-1.2-0.5-2.3-0.9-3.4l0.8-0.4c0.1,0.3,0.2,0.4,0.3,0.8c0.8-0.4,2-1.2,3.1-2l0.5,0.7
				c-1,0.7-2.2,1.4-3.4,2c0.2,0.6,0.3,1,0.4,1.8c1.1-0.6,2.1-1.2,3.3-1.9l0.4,0.8c-1.9,1.1-3.7,2.1-5.3,2.8l-0.1,0l0.3,0.1
				c1.1,0.4,1.8,0.6,2.9,1c0-0.5,0-1,0-1.4l0.8-0.1c0.1,1,0,2-0.1,3.3l-0.8,0.1c0.1-0.4,0.1-0.5,0.1-1.2c-0.3-0.1-1.2-0.3-1.7-0.5
				c-0.1,0-0.1,0-0.1,0l-3,6.7l-0.8-0.3l2.9-6.6c-0.7-0.2-1.7-0.6-2.5-0.9l0.2-0.9l0.4,0.2l0.2,0.1L68.1,98.3z M75.4,103.1l0.2,0.5
				c-1.6,1.8-3.2,2.8-5.4,3.2l-0.3-0.8c1.8-0.2,3.3-1,4.6-2.4l-2-0.9l0.3-0.7L75.4,103.1z M70.1,104.3c0.3-0.9,0.5-1.9,0.6-2.7
				l0.8,0.1c0,0.7-0.2,1.7-0.5,2.7L70.1,104.3z M74.7,108.6c-0.3,0.7-0.7,0.8-1.4,0.5c-0.5-0.2-1-0.5-1.3-0.7l0.2-0.8
				c0.4,0.3,1,0.5,1.4,0.7c0.3,0.1,0.4,0.1,0.5-0.2l2.7-6.1l-2.9-1.3l2.4-5.4l2.6,1.2c0.3-0.3,0.6-0.7,1-1.2l0.8,0.5
				c-0.3,0.4-0.6,0.7-1,1.1l3.3,1.5l-2.4,5.4l-2.9-1.3l-0.1,0.3c-0.1,0.8-0.2,1.7-0.1,2.6c1.1-0.2,2.1-0.5,3-0.9l0.4,0.8
				c-0.9,0.3-2,0.6-3.3,0.8c0.2,1.4,0.7,2.8,1.5,4l-0.9,0.5c-1.1-2.2-1.5-4-1.4-6.1L74.7,108.6z M74.9,100.3l5.1,2.3l0.8-1.7
				l-5.1-2.3L74.9,100.3z M76,97.9l5.1,2.3l0.7-1.6l-5.1-2.3L76,97.9z"/>
		</g>
		<g class="st5">
			<path class="st6" d="M81.1,86.7l6.7,3l-0.3,0.7l-6.7-3l-2.4,5.4l-0.8-0.4l2.4-5.4l-6.6-2.9l0.3-0.7l6.6,2.9l2.8-6.3l-5.9-2.6
				l0.3-0.7l12.7,5.7L90,83.1l-6-2.7L81.1,86.7z M77.8,84.2c0.1-1.5,0.2-3.1,0.1-4.8l0.9,0c0.1,1,0.1,2.6,0,4.8L77.8,84.2z
				 M83.9,86.4c1.2-0.9,2.6-2.1,3.7-3.4l0.7,0.7c-1,1.2-2.5,2.5-3.9,3.5L83.9,86.4z"/>
		</g>
		<g class="st5">
			<path class="st6" d="M87.8,66l0.3,0.7c-2.2,3.2-4.9,5.1-8.9,6.1l-0.3-0.9c3.3-0.6,6.1-2.5,8.1-5.3l-4.3-1.9l0.3-0.7L87.8,66z
				 M90.6,65.8c-0.3,1.3-0.4,2.5-0.4,3.8c1.7-0.4,3.9-1.1,5.4-1.8l0.4,0.9c-2,0.8-4.1,1.4-5.8,1.7c0.2,2.5,1.2,5.2,2.9,7.5l-0.8,0.4
				c-2.1-3.1-3.1-6.6-2.8-10.1l-3.6,8.1c-0.3,0.7-0.8,0.8-1.7,0.4c-0.5-0.2-1.3-0.6-1.9-1l0.2-0.9c0.9,0.5,1.6,0.9,2.1,1.1
				c0.4,0.2,0.5,0.1,0.7-0.3L90.9,63l0.8,0.4L90.6,65.8z"/>
		</g>
		<rect x="157.6" y="200.9" class="st12" width="66.8" height="7.8"/>
		<path class="st13" d="M51.8,73.2c-0.8-0.7-1-2-0.5-2.9c0,0,0-0.1,0.1-0.1c-1.7-2.4-1.1-5.6,1.2-7.3c1.1-0.8,2.5-1.1,3.9-0.9
			c0.6-1.1,1.7-1.9,3-2.1c0-0.6,0.2-1.2,0.5-1.7c0.8-1.4,2.4-2.2,4-2c0.1-0.4,0.2-0.8,0.4-1.1c1-1.8,3.1-2.6,5-2.1L54.2,79.6
			L54,79.5C51.8,78.3,50.9,75.6,51.8,73.2"/>
		<path class="st13" d="M43.5,126.5l0.9-3.3c-1.8,0-3.4,0.9-4.2,2.5c-1.7,0.6-2.7,2.4-2.1,4.2c0.3,0.8,0.8,1.5,1.6,1.9
			c0,0.9,0.3,1.8,0.8,2.4c0,0.9,0,1.8,0.2,2.7l1.3-4.9L43.5,126.5z"/>
		<path class="st14" d="M37.9,194.2c0,0,12.1-111.1,57.9-158.2"/>
		<g>
			<defs>
				<rect id="SVGID_00000156546666299002786010000014151336208289294476_" x="148.6" y="36" width="70.5" height="98.7"/>
			</defs>
			<clipPath id="SVGID_00000108999218072938788110000017822952162255531922_">
				<use xlink:href="#SVGID_00000156546666299002786010000014151336208289294476_"  style="overflow:visible;"/>
			</clipPath>
			<g style="clip-path:url(#SVGID_00000108999218072938788110000017822952162255531922_);">
				<path class="st16" d="M210.7,67.1l0.5,0.3c0,0,1.6,1.8,2.4,2.6s3,3.2,3,4s-1,1.7-2,2.6c-0.8,0.7-1.7,1.3-2.6,1.9
					c0,0-1.6,0.5-1.8,0.6c-0.7,0.1-1.3,0.1-2,0c-0.1-0.2-0.8-2.4-0.8-2.4s0.3-0.7,0.6-0.7s0.6-0.4,0.6-0.5c-0.4-0.8-0.6-1.6-0.6-2.5
					c0-0.8-0.1-1.5-0.3-2.2l-0.4-1.2C208.4,68.7,209.6,67.9,210.7,67.1"/>
				<path class="st6" d="M188.6,123.4c-0.5,0.9-0.7,1.9-0.6,2.9c0,0,0.1,0.2,1.2,0.8c1,0.3,1.9,0.9,2.6,1.7c1,1.4,2.6,2.3,4.3,2.4
					c2.9,0.5,4.8-0.2,5.1-0.6c0,0,0-0.9-1.9-2.3s-3.8-2.9-3.8-2.9c-0.5-0.3-1-0.3-1.5-0.1c-0.8,0.4-0.7,1.1-1.8,1
					c-1.1-0.1-2-0.7-2.7-1.5C189.1,124.2,188.8,123.8,188.6,123.4"/>
				<path class="st6" d="M196.2,131.1c-1.7-0.2-3.3-1-4.3-2.4c-0.7-0.7-1.6-1.3-2.6-1.7c-1.2-0.5-1.2-0.8-1.2-0.8c0,0,0-0.1,0-0.1
					l0,0c-0.1,0.3-0.1,0.6,0,0.9c0,0,0.1,0.2,1.2,0.8c0.4,0.2,0.8,0.4,1.1,0.5l0.6-0.1c0.4,0.2,0.7,0.5,1,0.8c1,1.4,2.6,2.3,4.3,2.4
					c2.9,0.5,4.8-0.2,5-0.6c0-0.1,0-0.2,0-0.2C200.7,131,199,131.6,196.2,131.1"/>
				<path class="st6" d="M171.5,109.4c-0.8,0.7-1.4,1.7-1.5,2.8c0.4,0.6,1,1.1,1.6,1.4c1,0.5,3.1,1.5,3.7,2.5s1.1,2.7,3.3,3.4
					s4.3,1.1,5.2-0.2c-0.2-0.8-0.6-1.6-1.1-2.3c-0.8-0.9-3.7-2.9-4.1-3.6c-0.3,0-0.7,0-1,0.1c-0.7,0.2-1.4,0.2-2.1,0
					C174.7,113.3,171.5,110.3,171.5,109.4"/>
				<path class="st6" d="M183.9,119.3v-0.1C183.9,119.3,183.9,119.3,183.9,119.3c-0.9,1.3-3,0.9-5.2,0.2s-2.7-2.3-3.3-3.4
					s-2.7-2-3.7-2.5c-0.6-0.3-1.2-0.8-1.6-1.4v-0.1c-0.1,0.3-0.2,0.6-0.1,0.8c0.4,0.6,1,1.1,1.6,1.4c0.5,0.2,1.2,0.6,1.9,1l0.6-0.2
					c0.5,0.3,1,0.7,1.4,1.2c0.6,1,1.1,2.7,3.3,3.3s4.3,1.1,5.2-0.2C183.9,119.5,183.9,119.4,183.9,119.3"/>
				<path class="st17" d="M196.2,79.3c-0.2,8.2-3.6,11.6-7.5,17.6c-3.8,5.6-8.8,11.3-9.4,17.3c0,0-7,0.4-8.9-3.3c0,0,2.9-6.4,4-9.7
					s5.7-7.4,5.7-7.5c1-3.7,2-7.4,3-11.1C183.1,82.6,196.2,76.3,196.2,79.3"/>
				<path class="st18" d="M192.9,104c0-3.1-3.1-21.4-3.2-21.4c-5.6,0.2-11.2,0.3-16.9,0.5c2,5.5,10.2,20.8,10.5,22.7
					s-0.3,6.8,1.4,10c1.3,3.1,2.4,6.3,3.2,9.6c2.5,1.3,5.5,1.3,8.1,0.3C193.1,120.2,193.1,106.9,192.9,104"/>
				<path class="st19" d="M207.2,69.5l1.4-1c0.4,0.3,0.7,0.7,0.8,1.2c0.2,1.3-0.4,1.9,0.3,2.6s0.9,0.8,0.8,1.8
					c-0.1,0.8-0.2,1.6-0.2,2.3c0,0.7-0.3,2,0.4,2.4c-0.3,0.1-0.5,0.2-0.6,0.2c-0.7,0.1-1.3,0.1-2,0c-0.1-0.2-0.8-2.3-0.8-2.4
					s0.3-0.7,0.6-0.7s0.6-0.4,0.6-0.5c-0.4-0.8-0.6-1.6-0.6-2.5c0-0.8-0.1-1.5-0.3-2.2L207.2,69.5"/>
				<path class="st16" d="M173.6,88.8c0.2,0.5,0.4,0.9,0.8,1.3c1.1,0.9,2,2,2.9,3.1c0.3,0.8,0.5,1.6,0.6,2.4c0,0-1,2-1.4,1.9
					s-0.8-0.7-0.8-0.7l-0.1-0.6c0,0-1.5,1.2-1.9,1.1c-0.5-0.1-1-0.1-1.5-0.1c-0.9-0.3-1.8-0.6-2.5-1.2c-0.3-0.5-0.4-1-0.5-1.5
					c0,0,1.2-3.6,0.5-4.5L173.6,88.8"/>
				<path class="st19" d="M169.7,96c-0.2-0.2-0.3-0.5-0.3-0.8c1.1,0.4,2.2,0.8,3.2,1.3c0.9,0.4,1.5,0.1,1.6-0.2s-0.5-1-0.5-1.1
					s0.4-0.4,0.7-0.8s0.5-0.3,1.1,0c0.4,0.2,0.6,0.6,0.7,1l-0.4,0.9c0,0-1.5,1.2-1.9,1c-0.5-0.1-1-0.1-1.5-0.1
					C171.3,96.8,170.5,96.5,169.7,96"/>
				<path class="st20" d="M211.3,67.3c-1.7,0.6-3,1.9-3.8,3.6c0,0-12-7.1-15.1-10.5c-2.8-3.7-8.7-31.2-9-31.1c0,0,5.7,0.8,7.9,5.6
					c2.1,4.6,1.3,6.3,3.5,11.5c0.9,2.4,2.1,4.8,3.5,7C198.3,53.2,210.8,66.2,211.3,67.3"/>
				<path class="st21" d="M188.4,38.7c0,0,2.6-1.7,2.9,0.7c0.1,1.8,0.5,3.7,1.1,5.4c1,3.5,1.4,8.1,3,8.2s2.5-0.5,2.1,1
					s-1.2,5,3.4,9.1c2.6,2.1,5.3,4,8.2,5.8c-0.6,0.6-1.1,1.3-1.4,2c0,0-12-7.1-15.1-10.5c-1.8-2.1-4.1-11.6-6.1-19.7L188.4,38.7"/>
				<path class="st20" d="M178.2,31c1.3-0.9,4.7-2.1,5.2-1.7c3,2.6,5.2,6,6.4,9.8c1.8,5.5,3,10.8,2.9,13.5S193,61,193.1,65
					c0.1,3.8,3.3,13.9,3.4,14s-0.4,3.2-8.8,5.5c-5.2,1.3-10.6,1-15.7-0.7c0,0,1.9-8,0.5-11.7c-1.4-3.9-5.6-9.7-5.6-9.7
					c-2.4-4.5-5-8.9-7.5-13.2c-3.9-6.5,3.7-8.7,5.3-11.6S178.2,31,178.2,31"/>
				<path class="st21" d="M166.9,62.5c-0.8-1.4-1.6-2.8-2.4-4.2l2.2-1.1c0,0,4.6-1.9,5.8,0.9s1.6,3.8,2.6,4.3s3-1.4,3.1,3.2
					c0,4.4-1.4,8.4,1.6,9.8s3,2.6,3,3.8c0,0.8,3,3.8,4.7,5.4c-5.1,1.2-10.5,0.9-15.4-0.8c0,0,1.9-8,0.5-11.7
					C171.1,68.3,166.9,62.5,166.9,62.5"/>
				<path class="st20" d="M173.9,89.1l-4.6,1.5c0,0-3.2-9.5-4.6-13c-0.9-2.6-4.3-13.2-5.1-16.4s-1.7-10.4-0.2-11.8s8.9,0.5,10.3,5.6
					c1.4,4.9,1,16.6,1.5,20.1C172.2,79.7,173.1,84.4,173.9,89.1"/>
				<path class="st16" d="M165,29.6c0,0,1.5,3.6,1.1,5.7s3.3,3.5,7.5,4.5s4.8,0,5.2-0.9c0.9-1.8-0.4-6.7-0.4-6.7
					C173.9,31.3,169.4,30.5,165,29.6"/>
				<g>
					<defs>
						<rect id="SVGID_00000031181873132345841420000015586847847309526447_" x="165" y="29.6" width="15" height="10.2"/>
					</defs>
					<clipPath id="SVGID_00000094593591533408547860000016904501816641658510_">
						<use xlink:href="#SVGID_00000031181873132345841420000015586847847309526447_"  style="overflow:visible;"/>
					</clipPath>
					<g style="clip-path:url(#SVGID_00000094593591533408547860000016904501816641658510_);">
						<path class="st23" d="M180,36.5c-0.8-2.1-1.7-4.3-1.7-4.3c-4.4-0.9-8.9-1.8-13.3-2.6c-6.7-1.3,1.5,3.6,1.1,5.7
							c0.1,1.2,0.6,2.3,1.4,3.2l2.3,1.3c0,0-1.3-4.6,1.2-4.1C173.2,36.2,176.9,37.3,180,36.5"/>
					</g>
				</g>
				<path class="st24" d="M178.8,39c1.5,1.1,3.1,2.3,4.6,3.4c0,0-1.8-7.4-2.9-10.9l-2.3-0.7C178.2,30.9,179,37.3,178.8,39"/>
				<path class="st25" d="M160.9,12c2.1-3.1,6.9-4.2,10.9-2.3c2.8,1.2,5,3.4,6.3,6.1c0.6,1.3,1.3,2.4,1.8,3.4
					c0.3,0.8,0.3,1.7-0.1,2.5c1.3,1.2,1.3,4.8,1.3,5.6c0.2,0.2,0.3,0.5,0.3,0.7c0.1,0.4-0.1,0.7-0.4,0.9c0,1,0.1,1.9,0.2,2.9
					c0.2,0.8,0.8,3.3-1.9,3.8s-6.8-0.5-9.7-2.1c-3.8-2.4-6.9-5.7-8.9-9.7C158.6,19.6,158.8,15.1,160.9,12"/>
				<path class="st23" d="M179.9,19.2c-0.5-1-1.2-2.1-1.8-3.4l-0.1-0.1c-4.2,1.8-8,4.4-11.3,7.7l-0.2,0.2c2.2,1.5,4.7,2.4,7.4,2.5
					c2.4,0,2.6-2,5.9-4.4C180.2,20.8,180.2,20,179.9,19.2"/>
				<path class="st23" d="M181.1,27.3L181.1,27.3c-0.6-1-1.9-2.4-2.4-3.5c-0.7-1.3,1.4-3.3,1.4-3.3c0,0.4-0.1,0.8-0.3,1.2
					C181.1,22.9,181.1,26.5,181.1,27.3"/>
				<g>
					<defs>
						<rect id="SVGID_00000035524577263954216950000013431892871440470665_" x="159.2" y="8.8" width="18.4" height="26.8"/>
					</defs>
					<clipPath id="SVGID_00000103944719318636033190000015654262335787880597_">
						<use xlink:href="#SVGID_00000035524577263954216950000013431892871440470665_"  style="overflow:visible;"/>
					</clipPath>
					<g style="clip-path:url(#SVGID_00000103944719318636033190000015654262335787880597_);">
						<path class="st25" d="M160.9,12c2.1-3.1,6.9-4.2,10.9-2.3c2.4,1.1,4.4,2.9,5.8,5.1c-0.1,1.3-0.5,2.3-1.3,2.7
							c-2.6,1.4-5.5,1-6.7,1.8c-1,0.6-0.8,3-0.4,5.1s-0.5,3,0.5,5.1c0.8,1.8,3.9,4.1,5,6c-1.7-0.4-3.4-1-5-1.8
							c-3.8-2.4-6.9-5.8-8.9-9.7C158.6,19.6,158.8,15.1,160.9,12"/>
					</g>
				</g>
				<path class="st6" d="M168.3,25c-0.1,1-0.1,2.2-0.5,2.7c-0.2,0.3-1-0.2-1.2-0.4c-0.5-0.4-4.1-3.2-3,1c-1.1-1.3-2.1-2.8-2.8-4.3
					c-0.3-0.6-0.6-1.3-0.8-2c2.5,0.7,5.2,0.8,7.8,0.5C167.9,23.6,168.4,24.5,168.3,25"/>
				<path class="st23" d="M180.8,35.1c-0.6-1.8-0.8-3.8-0.8-5.7c0-0.2,0.7-0.1,1.1-0.4l0,0c0,1,0.1,1.9,0.2,2.9
					C181.4,32.5,181.8,34.1,180.8,35.1"/>
				<path class="st25" d="M167.8,31c-0.3,0.3-0.9,0.8-2.9-0.6s-2.5-3.1-1.9-3.8c0.4-0.6,1.2-0.7,1.7-0.3c0.1,0.1,0.2,0.2,0.3,0.3
					C166,28,167,29.5,167.8,31"/>
				<g>
					<defs>
						<rect id="SVGID_00000139256603995141507630000003550618522522145204_" x="162.8" y="26" width="5" height="5.3"/>
					</defs>
					<clipPath id="SVGID_00000041981132727349563990000002839354678136180664_">
						<use xlink:href="#SVGID_00000139256603995141507630000003550618522522145204_"  style="overflow:visible;"/>
					</clipPath>
					<g style="clip-path:url(#SVGID_00000041981132727349563990000002839354678136180664_);">
						<path class="st25" d="M167.8,31c-0.3,0.3-0.9,0.8-2.9-0.6s-2.5-3.1-1.9-3.8c0.4-0.6,1.2-0.7,1.7-0.3c0.1,0.1,0.2,0.2,0.3,0.3
							C166,28,167,29.5,167.8,31"/>
					</g>
				</g>
				<path class="st28" d="M162.5,27.1c0,0,2.3-3,4-4.7c3.5-3.6,7.7-6.3,12.3-8.1c0,0-4.1-6-6.6-8.1c-2.4-1.9-7.6-1.7-11.2,2.8
					c-4.4,5.5-3.1,9.1-2,12.2C159.6,23.1,160.7,24.6,162.5,27.1"/>
				<path class="st29" d="M178.8,14.3c-4.6,1.8-8.8,4.6-12.3,8.1l-0.2,0.2c2.2,1.5,4.7,2.4,7.4,2.5c2.5,0,2.6-2.2,6.4-4.8
					c1.6-1.2,3.6-1.9,5.6-1.9c-1.1-1-2.3-1.8-3.5-2.5C181.2,15.2,180,14.7,178.8,14.3"/>
				<path class="st24" d="M165.9,33.4c0,0,5.4,5.2,12.8,5.6c0.1,2.2,0.2,4.4,0.3,6.6c0,0-11.6-5.8-14.2-8.2
					C165.2,36.1,165.6,34.7,165.9,33.4"/>
				<path class="st16" d="M214.9,73.7c0,0-2.2,2.1-2.3,3s-1.1,2.1-1.8,2.2s-0.8-2.8-0.3-4.6S214.9,73.4,214.9,73.7"/>
			</g>
		</g>
		<rect x="27.9" y="35.9" class="st14" width="325.2" height="243.5"/>
	</g>
</g>
</svg>
