<svg id="Layer_1" data-name="Layer 1" xmlns="http://www.w3.org/2000/svg" viewBox="0 0 900 400"><defs><style>.cls-1{fill:none;stroke:#000;stroke-miterlimit:10;stroke-width:9px;}</style></defs><path d="M230.82,222.51a56.56,56.56,0,0,1-16.76-2.23,38.31,38.31,0,0,1-12.2-6.16,30.32,30.32,0,0,1-8-9.38,38.34,38.34,0,0,1-4.08-12H207.9a31.39,31.39,0,0,0,2.75,7.45,21.47,21.47,0,0,0,4.59,6,20.45,20.45,0,0,0,6.59,4,24.66,24.66,0,0,0,8.83,1.45,30.83,30.83,0,0,0,6.55-.7,18.46,18.46,0,0,0,5.85-2.32,12.63,12.63,0,0,0,4.16-4.16,11.89,11.89,0,0,0,1.57-6.32,14.92,14.92,0,0,0-2.43-8.39,27.32,27.32,0,0,0-6.44-6.71,59.72,59.72,0,0,0-9.1-5.61q-5.1-2.59-10.44-5.22t-10.44-5.53a53.33,53.33,0,0,1-9.1-6.48,29.54,29.54,0,0,1-6.44-8.08A21.43,21.43,0,0,1,192,141.84a25.06,25.06,0,0,1,2.79-11.73,27.41,27.41,0,0,1,8-9.34,39.94,39.94,0,0,1,12.87-6.2A61.64,61.64,0,0,1,233,112.33a45.07,45.07,0,0,1,14.52,2.2,38.48,38.48,0,0,1,11.5,6.08,36.88,36.88,0,0,1,8.36,9.1,44.14,44.14,0,0,1,5.18,11.19h-16.4a58.39,58.39,0,0,0-3.3-7.22,24.36,24.36,0,0,0-4.63-6.05,20.55,20.55,0,0,0-6.67-4.12,25.71,25.71,0,0,0-9.34-1.53,24.13,24.13,0,0,0-8.59,1.34,16.13,16.13,0,0,0-5.61,3.41,12.55,12.55,0,0,0-3.07,4.63,14.5,14.5,0,0,0-.94,5,12.83,12.83,0,0,0,2.51,7.7,29.57,29.57,0,0,0,6.64,6.43,73.05,73.05,0,0,0,9.37,5.69q5.27,2.72,10.72,5.45T254,167.38a59.28,59.28,0,0,1,9.38,6.63,31.59,31.59,0,0,1,6.63,8,19.6,19.6,0,0,1,2.51,9.89A27.57,27.57,0,0,1,269.82,204a27,27,0,0,1-7.93,9.69,39.33,39.33,0,0,1-13.06,6.48A62.52,62.52,0,0,1,230.82,222.51Z"/><path d="M368.53,114.53v9.1H315.17v35.08h44.34v9.1H315.17V210h53.36v10.91H289V114.53Z"/><path d="M378.1,114.53h16.72l60.66,67.65V114.53H471.8v108H460.58L394.66,147.8v73.14H378.1Z"/><path d="M529.32,222.51a56.56,56.56,0,0,1-16.76-2.23,38.21,38.21,0,0,1-12.2-6.16,30.32,30.32,0,0,1-8-9.38,37.84,37.84,0,0,1-4.08-12H506.4a31.39,31.39,0,0,0,2.75,7.45,21.47,21.47,0,0,0,4.59,6,20.45,20.45,0,0,0,6.59,4,24.66,24.66,0,0,0,8.83,1.45,30.83,30.83,0,0,0,6.55-.7,18.46,18.46,0,0,0,5.85-2.32,12.72,12.72,0,0,0,4.16-4.16,11.89,11.89,0,0,0,1.57-6.32,14.85,14.85,0,0,0-2.44-8.39,27.09,27.09,0,0,0-6.43-6.71,59.72,59.72,0,0,0-9.1-5.61c-3.41-1.73-6.88-3.47-10.44-5.22s-7-3.6-10.44-5.53a53.33,53.33,0,0,1-9.1-6.48,29.54,29.54,0,0,1-6.44-8.08,21.43,21.43,0,0,1-2.43-10.32,25.06,25.06,0,0,1,2.79-11.73,27.3,27.3,0,0,1,8-9.34,39.84,39.84,0,0,1,12.87-6.2,61.59,61.59,0,0,1,17.34-2.24,45.07,45.07,0,0,1,14.52,2.2,38.48,38.48,0,0,1,11.5,6.08,36.88,36.88,0,0,1,8.36,9.1,44.14,44.14,0,0,1,5.18,11.19H554.66a56.91,56.91,0,0,0-3.29-7.22,24.36,24.36,0,0,0-4.63-6.05,20.55,20.55,0,0,0-6.67-4.12,25.71,25.71,0,0,0-9.34-1.53,24.13,24.13,0,0,0-8.59,1.34,16.28,16.28,0,0,0-5.62,3.41,12.64,12.64,0,0,0-3.06,4.63,14.5,14.5,0,0,0-.94,5A12.83,12.83,0,0,0,515,144a29.73,29.73,0,0,0,6.63,6.43,73.9,73.9,0,0,0,9.38,5.69q5.26,2.72,10.71,5.45t10.72,5.77a58.72,58.72,0,0,1,9.37,6.63,31.43,31.43,0,0,1,6.64,8,19.6,19.6,0,0,1,2.51,9.89A27.57,27.57,0,0,1,568.32,204a27,27,0,0,1-7.93,9.69,39.33,39.33,0,0,1-13.06,6.48A62.52,62.52,0,0,1,529.32,222.51Z"/><path d="M676.43,112.33l49.91,108.61H699.65l-13.34-29H645l-14,29H613.25l51.87-108.61ZM649.9,182h32l-15.77-34.37Z"/><path d="M734.1,114.53h26V220.94h-26Z"/><path d="M870,114.53v9.1H833.2v97.31H807.15V123.63H770.27v-9.1Z"/><path d="M316.19,254.65a25.15,25.15,0,0,0-.19-4.2h3.7a26.45,26.45,0,0,0-.23,4.2v6.67l13.84-1.72a5.11,5.11,0,0,0,2.6-.63l2.24,1.87a12.09,12.09,0,0,0-.73,1.28A31.49,31.49,0,0,1,334,268a34.91,34.91,0,0,1-7.77,7.13,7.8,7.8,0,0,0-2.74-2.2c5-3,8.36-6.43,10.37-10.59-.41.09-.59.14-1.05.23-.18,0-.28,0-.55.09-6.39.87-7.53.94-12.74,1.67v10.77c0,4.25.19,5.21,1.15,6s2.87,1.14,6.62,1.14a52.21,52.21,0,0,0,13.29-1.59l.23,3.69c-1.24.05-1.51.1-2.74.23a80.6,80.6,0,0,1-10.83.83c-5.2,0-7.85-.64-9.31-2.15s-1.69-2.88-1.69-7.54v-11l-5.53.77a28.78,28.78,0,0,0-4.48.78l-.41-3.43h.69c.77,0,2.37-.13,3.93-.32l5.8-.77Z"/><path d="M347.06,282a39.66,39.66,0,0,0,13.29-3.52c8.82-3.92,14.94-10.64,18.64-20.32a9.11,9.11,0,0,0,2.78,2.7c-3.65,7.94-7.9,13.28-13.93,17.44-4.7,3.2-9.41,5.07-17,6.81a21.92,21.92,0,0,0-2.74.73Zm3.64-28.8a59.8,59.8,0,0,1,9.9,9.84l-2.7,2.53a50.12,50.12,0,0,0-9.72-10.19Z"/><path d="M410.14,259.08v-4.43A29.65,29.65,0,0,0,410,250h3.56a29.79,29.79,0,0,0-.18,4.24v4.8h3.93a34.33,34.33,0,0,0,5.34-.27v3.47a40.66,40.66,0,0,0-5.3-.23h-4c-.09,9.27-.55,12.19-2.24,15.48a19.29,19.29,0,0,1-7.44,7.54,34.6,34.6,0,0,1-5.3,2.32,8.2,8.2,0,0,0-2.05-2.87A20.15,20.15,0,0,0,405,280c3.2-2.88,4.48-5.89,4.89-11.42.09-1.46.13-2.87.18-6.57H396.21v7.63a24.65,24.65,0,0,0,.18,3.69h-3.7a25.62,25.62,0,0,0,.18-3.83v-7.49H389a40.66,40.66,0,0,0-5.3.23v-3.47a34.25,34.25,0,0,0,5.34.27h3.79v-5.25a26.11,26.11,0,0,0-.18-3.84h3.7a20,20,0,0,0-.18,3.7v5.39Z"/><path d="M458.32,251.91a10,10,0,0,0-2,1.92A80.7,80.7,0,0,1,445.62,263v19.45a30.52,30.52,0,0,0,.23,4.84h-4a23.67,23.67,0,0,0,.27-4.75V265.2c-5.93,3.65-9.27,5.16-17.63,8a10.22,10.22,0,0,0-1.78-3.06,64.27,64.27,0,0,0,23.71-11.83c4.24-3.29,7.44-6.48,8.72-8.63Z"/><path d="M468.19,287.35a29.81,29.81,0,0,0,.27-4.8V254.19a27.57,27.57,0,0,0-.27-4.66h3.92a29.31,29.31,0,0,0-.22,4.75v8.54a114.06,114.06,0,0,1,20.32,9.64l-2,3.38a93.72,93.72,0,0,0-17-9,5.2,5.2,0,0,1-1.41-.78l-.1.05a15.52,15.52,0,0,1,.19,2.69v13.75a31.66,31.66,0,0,0,.22,4.84Z"/><path d="M515.36,268.58a3.75,3.75,0,1,1-3.74-3.75A3.76,3.76,0,0,1,515.36,268.58Z"/><path d="M560.22,254a4.72,4.72,0,0,1-.19-1.32,5.19,5.19,0,1,1,5.16,5.16,5.44,5.44,0,0,1-1.59-.23l-.1.27c-2.23,8.13-5.16,13.84-9.31,18.18a42.31,42.31,0,0,1-16.63,10.82,9.06,9.06,0,0,0-2.23-3.15A34.27,34.27,0,0,0,560,257.12H536.79a34.28,34.28,0,0,0-5.12.27v-3.65a33.56,33.56,0,0,0,5.16.27h23.39Zm1.73-1.37a3.27,3.27,0,1,0,3.29-3.24A3.27,3.27,0,0,0,562,252.64Z"/><path d="M577.12,282.19v3.24H573.6a23.3,23.3,0,0,0,.18-3.42v-24.8a23.19,23.19,0,0,0-.18-3.57,30.53,30.53,0,0,0,3.56.14H601.5a23.33,23.33,0,0,0,3.57-.14,24.34,24.34,0,0,0-.14,3.57v24.7c0,1.37.05,2.56.14,3.52H601.6v-3.24ZM601.6,256.8H577.12v22.42H601.6Z"/><path d="M614.16,261.91a72.89,72.89,0,0,1,11.6,5.94L624,271a50.4,50.4,0,0,0-11.65-6.25ZM613,282.78h.28c2.6,0,7.71-1.19,12-2.83,8.81-3.24,15.89-10.78,19.18-20.46a13.7,13.7,0,0,0,2.83,2.47c-5.75,13.83-15.16,21-31.6,24.11a13.43,13.43,0,0,0-1.78.46ZM617.72,251a71.16,71.16,0,0,1,11.33,5.75l-1.87,3.06a49.16,49.16,0,0,0-11.24-6.07Zm23.93-2.1a36.28,36.28,0,0,1,4.66,7.07L644,257.34a37,37,0,0,0-4.66-7.26Zm5.12-2.47a34.94,34.94,0,0,1,4.75,7.08l-2.29,1.32a35.29,35.29,0,0,0-4.7-7.17Z"/><path d="M668.65,283.15h9.77a23.17,23.17,0,0,0,4.11-.23v3.2a32.34,32.34,0,0,0-4.16-.19h-22.1a31.55,31.55,0,0,0-4.16.19v-3.25a18.47,18.47,0,0,0,4.11.28h9.27v-15.8H659a29.29,29.29,0,0,0-4.06.18v-3.2a24.07,24.07,0,0,0,4.06.28h16.67a23.37,23.37,0,0,0,4.07-.28v3.2a22.09,22.09,0,0,0-4-.18h-7Z"/><path d="M706,249.67a9.42,9.42,0,0,0-1,1.87,42.05,42.05,0,0,1-2.1,4.07c.6-.14.6-.14,13.79-.37a4.44,4.44,0,0,0,2.38-.32l2,1.92c-.41.55-.41.6-.91,2.24A48.35,48.35,0,0,1,711,276.25a44.7,44.7,0,0,1-15.9,11.42,6.87,6.87,0,0,0-2.28-2.7,38.79,38.79,0,0,0,16.12-11.55,42,42,0,0,0,7.86-15.3l-15.39.27a44,44,0,0,1-10.92,11.88,6.87,6.87,0,0,0-2.56-2.38,33.93,33.93,0,0,0,11.47-12.51c1.73-3,2.64-5.07,2.87-6.67Z"/><path d="M731.31,287.35a29.52,29.52,0,0,0,.28-4.8V254.19a27.29,27.29,0,0,0-.28-4.66h3.93a29,29,0,0,0-.23,4.75v8.54a114.06,114.06,0,0,1,20.32,9.64l-2,3.38a93.61,93.61,0,0,0-17-9,5.13,5.13,0,0,1-1.42-.78l-.09.05a15.6,15.6,0,0,1,.18,2.69v13.75a31.33,31.33,0,0,0,.23,4.84Z"/><polyline class="cls-1" points="594.06 145.83 609.24 166.43 592.97 183.78"/><polyline class="cls-1" points="96.86 116.97 29.99 174.28 61.51 212.49"/><polyline class="cls-1" points="115.96 116.97 49.09 174.28 80.62 212.49"/><polyline class="cls-1" points="135.07 116.97 68.2 174.28 99.72 212.49"/><polyline class="cls-1" points="93.04 268.85 159.9 211.54 128.38 173.33"/><polyline class="cls-1" points="73.93 268.85 140.8 211.54 109.28 173.33"/><polyline class="cls-1" points="54.83 268.85 121.69 211.54 90.17 173.33"/></svg>