<svg id="Layer_1" data-name="Layer 1" xmlns="http://www.w3.org/2000/svg" viewBox="0 0 900 400"><path d="M565.55,203c-3.4,4.35-7.64,4.32-11.65,4.39-10,.16-19.95.05-29.92.06-6.88,0-8.7,2.16-6.86,8.81.33,1.18,2.52,2.6,3.88,2.63,9.49.23,19,.38,28.48-.07,2.42-.11,5.25-2,7-3.91,2.82-3.11,5.52-3.77,9.22-2,3.37,1.64,6.88,3,10.32,4.48.11.55.21,1.09.31,1.64-3.47,1-6.91,2.61-10.41,2.73-10.65.37-21.32.14-32,.17a9.13,9.13,0,0,0-5.14,1.33c1.56.86,3,2.1,4.68,2.54,12,3.13,24.08,6.09,36.12,9.11a14.49,14.49,0,0,1,3.33.92c3.3,1.75,3.31,4.46,2.28,7.67-1.12,3.5-3.28,2.2-5.57,1.72A164.51,164.51,0,0,1,519.71,226a29.77,29.77,0,0,0-2.78-1.22c0,5.6,0,10.66,0,15.73,0,7-3.14,9.63-11,8.93V228.7a15.88,15.88,0,0,0-.11-4c-.26-.94-1.23-1.69-1.89-2.52-.75.91-2.27,1.95-2.14,2.72.85,5.1-2.38,6.88-6.27,8-13.83,4-27.7,7.94-41.56,11.87-2.06.59-4.16,1.05-6.55,1.64-.6-3.31,1.76-3.68,4.16-4.58,11.91-4.46,23.78-9,35.56-13.84,2.3-.94,4.11-3.06,6.15-4.64-.12-.54-.25-1.07-.37-1.6h-44l-.14-2a28.59,28.59,0,0,1,4.62-.78c15.66-.06,31.32-.26,47,.06,4.84.1,5.54-2.22,5.57-5.94s-.72-5.92-5.28-5.81c-12.32.31-24.65.24-37,.19-1,0-2-1-3-1.51.93-.65,1.87-1.85,2.81-1.85,11.95,0,23.9.15,35.86.35,4.16.07,6.6-1.19,6.64-5.92s-2.3-5.79-6.56-5.74c-13.66.19-27.32.09-41,.05-1.69,0-3.38-.34-5.07-.51,0-.51-.07-1-.1-1.52a26.92,26.92,0,0,1,4.65-.85c6.82-.1,13.66-.11,20.48,0,3.67.05,5.66-1.06,5.3-5.21-.32-3.69,1.11-8-5.23-7.8-8.33.24-16.66.09-25,0a33.3,33.3,0,0,1-4.73-.69l0-1.71c1.65-.17,3.29-.48,4.93-.49,10.5,0,21,0,31.49,0,6.61,0,6.79-.23,6.89-6.63a51.09,51.09,0,0,1,.54-7.92c1.05-6,2.64-7.21,8.78-6.83,3.52.22,7,.78,10.51,1.19l.42,1.71c-2,1.15-3.9,2.67-6.05,3.37-6.43,2.08-3.72,7.49-4,11.41s3.51,3.7,6.31,3.68c14-.12,11.17,1.43,11.39-11.21.18-10-.86-9.23,9.08-9.25H539.4l.66,1.42c-1.8,1.32-3.45,3-5.45,3.89-4.14,1.89-6.43,11.39-3.25,14.47a1.88,1.88,0,0,0,1.32.57c8.93-1.14,19.3,4.09,26.3-5.95.56-.82,2.8-1.17,3.93-.77,4.48,1.56,8.83,3.5,13.22,5.3l.29,1.65c-3.12,1-6.2,2.54-9.36,2.71-7.65.4-15.33,0-23,.22-1.67.05-4.68,1.24-4.7,2a25.24,25.24,0,0,0,1.4,10.15c.35.84,5.07.73,7.22-.21,3.16-1.39,5.88-5.68,8.65-5.57,4.85.2,9.6,2.8,14.91,4.57-3.34,4.36-7.22,4.85-11.24,4.86-12.49,0-25,0-37.48,0-5.26,0-6.33,1.18-6.21,6.5.11,4.62,2.66,5.37,6.69,4.76a31.35,31.35,0,0,1,9-.08c6.23.9,11.52,0,15.36-5.59a4.37,4.37,0,0,1,3.9-1.28C556.15,198.88,560.59,200.93,565.55,203Zm-54.07-12.91c4.49,0,9,.31,13.47-.18,1.46-.16,3.2-2.18,3.88-3.75s.12-3.59.15-5.41c0-2.77-1.41-3.79-4.07-3.78-8.82.06-17.65.13-26.47,0-4.69-.07-5.11,3.25-5.08,6.37s.07,7,5.13,6.8C502.82,190,507.15,190.09,511.48,190.09Z"/><path d="M30.2,248.44V156.06a11.08,11.08,0,0,1,2.89,1c5.2,3.81,11.15,5,17.41,5,19,0,38,0,57,0,4.08,0,7.55-.73,9.72-4.66,1.26-2.27,3.16-2.75,5.42-1.17a25.31,25.31,0,0,0,2.58,1.48c7.8,4.16,7.43,4,4.1,11.91-1.39,3.31-1.14,7.42-1.14,11.17q0,27.91.3,55.84c.07,7.57-1.69,10.87-6.8,12.17-2.65.68-4.73.53-4.78-2.93-.08-4.26-2.27-5.39-6.4-5.36-20.83.2-41.66.11-62.49.07-3.12,0-5.35,0-6.78,4C39.62,249,35.2,249.85,30.2,248.44ZM79.51,200c10.66,0,21.32-.07,32,0,3.44,0,5.42-1,5.4-4.77-.06-8.47,0-16.94,0-25.42,0-3.24-1.45-4.8-4.88-4.79q-32.72.11-65.45,0c-3.53,0-4.65,1.42-4.59,4.78.14,8.3.24,16.61,0,24.91-.15,4.34,1.67,5.39,5.62,5.32C58.19,199.86,68.85,200,79.51,200Zm-.28,3c-11,0-22,.07-32.92-.05-3.2,0-4.48,1.06-4.42,4.33q.21,12.93,0,25.88c-.06,3.48,1.53,4.79,4.77,4.79q32.43,0,64.85,0c3.73,0,5.45-1.61,5.4-5.42-.11-8.13-.14-16.26,0-24.39.07-3.83-1.33-5.29-5.27-5.22C100.86,203.05,90.05,202.93,79.23,202.93Z"/><path d="M427.18,239.48c-3.67.85-7.33,2.4-11,2.42-36,.19-71.95.11-107.93.11h-7.6c-.08-.62-.15-1.24-.23-1.86a33.54,33.54,0,0,1,5.62-1c14.83-.08,29.65-.17,44.48,0,4.77.06,6.54-1.78,6.51-6.44q-.18-29.91,0-59.81c0-4.46-1.75-6.2-6.27-6.13-12.49.18-25,.08-37.47,0a27.08,27.08,0,0,1-4.73-.87c0-.51.07-1,.11-1.53a44.07,44.07,0,0,1,4.55-.45c22,0,44,0,66,.1,11.2.06,11.2.18,21.91-10.16l19.26,7.83c-5.18,5.46-11.55,5-17.52,5.17-8.48.27-17,0-25.48-.08-5.61,0-6.4.74-6.4,6.23,0,19.94.2,39.88,0,59.81-.05,4.9,1.66,6.48,6.32,6.29,6-.24,11.94,0,17.91-.08A12.38,12.38,0,0,0,405.93,233c1.92-3.07,4-3.28,7.09-1.84,4.6,2.17,9.35,4,14,5.93Z"/><path d="M647.62,245.55a19,19,0,0,1,3.3-2.76c13.6-6.95,19.39-18.67,19.9-33.23.43-12.28.34-24.58.07-36.87-.12-5.12,1.75-7.24,6.75-8.44,11.07-2.67,22-5.94,32.91-9.26,2.63-.8,4.19-1,5.71,1.67,2.48,4.43,5.34,8.65,8,13l-.66,1.44c-2.82-.81-6.13-.95-8.36-2.58a15,15,0,0,0-13.52-2.67c-5.12,1.27-10.49,1.65-15.77,2.23-3.15.34-4.85,1.56-4.76,5,.1,3.81-.2,7.63-.29,11.44-.11,4.42,1.65,6.93,6.5,6.63a62.75,62.75,0,0,1,10,0c4.78.48,8.17-1.12,11.28-4.8,1.23-1.45,4.57-2.28,6.51-1.76,4.09,1.09,7.89,3.26,12.22,6.39-2.91,1-5.82,2.86-8.72,2.85-4.81,0-5.92,1.88-5.85,6.25.21,13.78,0,27.57.17,41.36.05,3.54-1.35,5.84-4.4,7a7.58,7.58,0,0,1-5.23,0c-.72-.32-.62-2.81-.65-4.32-.12-6.3-.22-12.6-.2-18.9,0-8,.27-15.93.31-23.9,0-6.59-.62-7.17-7-7.25-1.82,0-3.64-.19-5.46-.36-7.5-.7-9.89,1.33-9.39,8.76.82,12.4-2.74,23.3-10.9,32.57A37,37,0,0,1,648.72,247Z"/><path d="M871.77,159.77c-5.3,5.51-5.76,11.82-5.7,18.44.15,19.28.08,38.57,0,57.85,0,8.93-4.13,12.73-13,12.23a7.66,7.66,0,0,1-2.43-.48q-5.35-2.1-10.66-4.37c-.37-.15-.56-.73-1.43-2,2.9-.26,5.22-.5,7.54-.68,7.88-.63,9.21-1.79,9.37-9.68.26-12.94.22-25.89.4-38.83.07-4.48-1.92-6.25-6.38-6.07-5.49.22-11-.36-16.48.19-3.76.38-7.37,2.19-11.1,3.18-2,.52-4.25,1.25-6,.72-.83-.25-1.09-3.29-1.13-5.08-.17-8.3-.18-16.6-.24-24.9,0-2.3,0-4.61,0-7.49a13.69,13.69,0,0,1,2.49,1.1,24.63,24.63,0,0,0,16.27,5.25c4.33-.12,8.66-.17,13,0,4.15.15,7.91.13,10.2-4.37.46-.9,3.35-1.44,4.6-.91C864.57,155.39,867.78,157.52,871.77,159.77ZM840.63,174a106.12,106.12,0,0,0-12,.16,5.23,5.23,0,0,0-3.55,3.33c-.52,2.44-.94,6,2.9,6.2,8.12.34,16.28.27,24.41,0,3.13-.11,3.72-2.75,3.58-5.53s-1.47-4.23-4.38-4.17C848,174.06,844.29,174,840.63,174Zm0-2.71v0c3.64,0,7.29-.09,10.93,0,3.16.1,4.59-1.23,4.49-4.4-.09-2.77-.63-4.92-4.1-4.89-7.63,0-15.26.07-22.88,0-3.41,0-4.08,1.79-4.15,4.72-.07,3.15,1.07,4.64,4.27,4.58C833,171.25,836.77,171.3,840.58,171.3Z"/><path d="M769,196.08a27,27,0,0,1,5-1c15.83-.07,31.65-.12,47.48,0,4.08,0,7.3-.86,10.23-4a7.34,7.34,0,0,1,6.13-1.56c4.29,1.12,8.34,3.13,12.49,4.79l.23,1.42c-3.56.77-7.1,2.07-10.68,2.19-4.31.14-6,1.65-5.81,6,.23,5.81.06,11.63,0,17.45,0,5.45.77,6.25,6.4,6,1.49-.06,3-.56,4.45-.35,1,.14,1.92,1.13,2.88,1.74-1,.66-1.94,1.64-3,1.88s-2.27-.39-3.43-.48c-5.11-.42-7.12,1.7-7.45,6.83-.15,2.39-.8,5.28-2.33,6.89-1.3,1.36-4.2,1.2-6.4,1.71-.4-1.8-1.14-3.6-1.15-5.4-.06-8.17-.38-8.73-8.33-8.35q-16.69.79-33.36,2.14c-1.76.14-3.47,1.58-5.08,2.6-.8.52-1.19,1.8-2,2.13-2.41,1-4.93,1.69-7.41,2.5-.13-3.35-.34-6.71-.26-10.06,0-.44,1.54-1.08,2.42-1.22,1.47-.23,3-.08,4.49-.17,7.22-.44,8.42-1.64,8.47-8.68,0-5.82-.13-11.64.06-17.45.14-4.49-2-5.9-6.14-5.54-2.52.22-5.07,0-7.6,0C769.2,197.5,769.12,196.79,769,196.08Zm39.27,10.74c3.82,0,7.64,0,11.46,0,3.14,0,4.27-1.74,4.28-4.8s-1.52-4-4.32-4c-7.48.06-15,0-22.43,0-2.75,0-4.36.87-4.35,4s1.38,4.69,4.39,4.76C801,206.88,804.65,206.81,808.31,206.82Zm.58,2.79v-.19c-3.81,0-7.62,0-11.43,0-2.57,0-4.52.64-4.56,3.86s1.36,4.6,4.43,4.59c7.63,0,15.26-.09,22.89,0,3.14,0,3.87-1.59,3.9-4.37s-1.08-3.94-3.79-3.9C816.52,209.65,812.7,209.61,808.89,209.61Zm-7,19.32v-.51c6.14,0,12.29.24,18.4-.18,1.36-.1,3.21-2.39,3.56-4,.2-.93-2-3.42-3.27-3.47-7.95-.33-15.92-.2-23.88-.18-3.15,0-3.71,2-3.75,4.67,0,2.82,1.38,3.89,4,3.86C798.53,229.13,800.19,229,801.85,228.93Z"/><path d="M750.05,151.81c11.35,10.59,24.38,6.83,36.57,7,2.27,0,4.6-3.77,7.28-6.14,3.2,1.67,6.92,3.4,10.39,5.55.87.54,1.66,3.17,1.28,3.5-6.71,6-3.7,13.91-4.43,21.11a10.33,10.33,0,0,1-3.61,6.72c-2.1,1.52-5.63,3.08-7-1.81-.22-.79-2.49-1.39-3.83-1.42-7-.14-14,0-21-.09-3.71-.06-4.85,1.6-4.82,5.18.14,15.95,0,31.91.13,47.87,0,4.88-1.82,8-6.46,9.27-2.71.77-4.52.22-4.52-3.22C750.07,214.6,750.05,183.86,750.05,151.81ZM776.36,174c-3.82,0-7.65.1-11.46,0-3.15-.11-4.73,1.33-4.73,4.35s.93,5.46,4.35,5.52c7.61.15,15.23.07,22.84,0,3.44,0,4-2.5,4-5.09s-.39-5-4.06-4.84S780,174,776.36,174Zm-.81-2.7c3.83,0,7.65-.07,11.47,0,3.25.07,4.5-1.74,4.45-4.62s-1-4.76-4.38-4.7c-7.47.11-15,.09-22.43,0-3.72,0-4.42,2.38-4.47,5.22s1.52,4.15,4.4,4.08C768.24,171.22,771.9,171.28,775.55,171.3Z"/><path d="M181.08,248.84c0-13.73-.06-27.48,0-41.23,0-6.78-.54-7.41-7.21-7.21q-8.24.24-16.48,0c-1.11,0-2.19-1.2-3.28-1.85a12.36,12.36,0,0,1,3.29-1c6.32-.08,12.65-.06,19,0,3.29,0,4.82-1.18,4.72-4.72-.19-7.47-.23-15,0-22.42.12-3.9-1.73-4.92-5.11-4.87-5.16.07-10.32.09-15.48,0a36.39,36.39,0,0,1-4.49-.61l-.15-1.67a25.94,25.94,0,0,1,5-1.08c11.49-.09,23-.16,34.46,0,4.32.06,7.62-1.11,10.44-4.56,1.1-1.34,3.9-2.51,5.43-2.06,4.35,1.29,8.45,3.45,12.64,5.26l.3,1.5c-2.42.93-4.78,2.48-7.26,2.68-6,.51-12,.39-18,.51-5.74.11-6.25.75-6.14,6.31.13,6.81-.08,13.62.11,20.43.05,1.62.89,4.47,1.71,4.6,2.36.37,5.71.54,7.21-.81,6.74-6.11,13.43-6.78,20.94-1.11,2.45,1.84.76,3.36-1.06,3.82a54.28,54.28,0,0,1-10.29,1.6c-4.31.23-8.64-.09-13-.11-4,0-6,1.56-5.88,6,.3,10.78.36,21.58.25,32.36C192.8,247.18,190.23,249.33,181.08,248.84Z"/><path d="M627.88,221.81a205,205,0,0,1-28.73,19.62l-1.37-1.8c4.5-4.15,9.3-8,13.41-12.54s7.64-9.74,11.42-14.65c-.26-.66-.52-1.31-.79-2H599.16l-.1-2a14.14,14.14,0,0,1,3.34-.81c6.65,0,13.3.1,19.94.21,4.36.08,5.94-2.14,5.57-6.27-.32-3.55,1.27-7.95-5.27-7.62-8.1.4-16.24.09-24.37.09-.13-.63-.26-1.26-.38-1.89a19.22,19.22,0,0,1,4.43-1.08c11.5-.06,23-.09,34.49.07,5.3.07,9.7-1.14,13.22-5.52.91-1.14,3.88-1.5,5.53-1A43.05,43.05,0,0,1,668,190.84c-3,1-6,2.71-9.08,3a137.24,137.24,0,0,1-16.48.09c-2.61-.07-4.2.73-4.43,3.42-.32,3.72-1.81,8.1,2.54,10.16,1.45.7,4.84-.72,6.25-2.21,4.44-4.65,7.74-5.72,13.61-3.12a26,26,0,0,1,8,5.22c-2.31.89-4.56,2.35-6.93,2.57a183.38,183.38,0,0,1-18.46.69c-4,0-5.16,1.69-5.09,5.41.16,8.47.29,17-.12,25.42a9.07,9.07,0,0,1-3.57,6.25c-4.42,2.92-6.44,1.46-6.41-3.86C627.9,237.07,627.88,230.27,627.88,221.81Z"/><path d="M286.06,158.05c-1.86,1.3-3.59,3.44-5.59,3.74-5.4.8-6.05,4.17-6,8.56.08,18.44,0,36.88,0,55.32,0,4.32.13,8.65-.21,13-.48,6.19-2.71,8.62-8.77,9.53-7.6,1.15-14.94,1.72-22-3.22-2.66-1.86-7.36-.77-11.13-1.13-1.74-.16-3.45-.54-5.18-.83l.09-1.87c4.82-.22,9.63-.57,14.45-.63,4.65-.05,9.31.27,14,.29,5.82,0,7.4-1.57,7.4-7.35q0-34.4-.09-68.78c0-8.58-.09-8.57,8.35-8.54,4.85,0,9.7,0,14.54,0C285.93,156.74,286,157.4,286.06,158.05Z"/><path d="M252.09,164.77c-1.91,1.16-3.68,2.82-5.76,3.38-4.06,1.11-5.5,3.3-5.48,7.5.07,13.75-.13,27.5-.49,41.25-.06,2.22-.89,5.11-2.45,6.43-1.77,1.5-4.74,1.59-7.2,2.3-.54-2.08-1.55-4.16-1.57-6.25-.13-16.91-.09-33.82-.07-50.73,0-5.86.67-6.49,6.66-6.48,5.33,0,10.67.1,16,.15Z"/><path d="M643,155.75l-10.64,7.66,1,1.38c6.54.88,13.1,2,17.6-5a4.25,4.25,0,0,1,3.81-1.34c4.63,1.64,9.1,3.71,13.86,5.72-3.59,4.86-8.52,4.29-13,4.2-3.2-.06-4,1.06-5.1,3.83-2.06,5.18-5,10-7.63,15l-2.06-.6c0-4.15-.36-8.33.1-12.43s-1.33-5.49-4.82-5.85c-1.32-.14-2.66,0-4-.06-4.49-.2-6.9,1.41-6.14,6.37a43.49,43.49,0,0,1,0,6.46c0,3.86-1.16,6.26-5.74,6.2s-4.42-2.8-4.41-6c0-12.44,0-12.42-12.05-12.92a4.39,4.39,0,0,1-3.31-1.81c1.32-.43,2.63-1.18,4-1.21,4.15-.11,8.3,0,12.45.13,3.87.15,6.14-.91,5.28-5.43-.75-4,1.09-5.94,5.19-5.89,5,.07,9.92,0,14.88,0Z"/><path d="M463.8,157.36c2.65-4.22,5.56-5.31,9.41-2,4.16,3.6,8.37,7.14,13.44,11.46a105.72,105.72,0,0,1-9.5,4.64c-.75.28-2.36-.74-3.09-1.58C470.63,165.9,467.38,161.76,463.8,157.36Z"/><path d="M561.6,159.3c-5.72,3.77-11,7.62-16.75,10.79-1.41.79-4.06-.64-6.15-1.05a20.73,20.73,0,0,1,1.81-4.41,44.29,44.29,0,0,1,4.29-4.81C550.69,153.51,553.72,153.31,561.6,159.3Z"/><path d="M663.79,225.27c-1.8,2.47-2.84,4.72-4.6,5.93-.79.54-3.26-.71-4.56-1.69-4.25-3.18-8.41-6.49-12.38-10-1-.93-1.3-2.76-1.92-4.18,1.43,0,3-.46,4.28,0,5.09,2,10.11,4.18,15.06,6.51C661.1,222.54,662.19,223.92,663.79,225.27Z"/></svg>