<svg id="Layer_1" data-name="Layer 1" xmlns="http://www.w3.org/2000/svg" viewBox="0 0 900 400"><path d="M142.15,276.86c-19.53,0-39.05,0-58.58,0a93.89,93.89,0,0,1-11.87-.53c-9.77-1.28-13.16-4.64-14.88-14.43a58.87,58.87,0,0,1-1-9.26q-.64-38.2-1.08-76.4a91.55,91.55,0,0,1,.87-13.54c1.05-7.48,4.59-11.18,12.09-12,7.31-.76,14.69-1,22-1q54.33-.3,108.67-.39h.85c18.23.08,23.32,3.92,23.92,21.85,1,30.26,1.07,60.55,1,90.82,0,11.27-3.69,14.63-15,14.76-22.35.26-44.71.07-67.07.07Zm24.19-62.92h-.28c0-9.61-.17-19.22.07-28.82.12-5-1.52-7.19-6.78-7.1-13,.22-26,.26-39,0-5.42-.11-6.8,2.25-6.67,7.13.53,19.49.9,39,1.22,58.48.06,3.79,1.29,5.65,5.44,5.6q20.34-.24,40.69,0c4.07,0,5.43-1.63,5.36-5.58C166.22,233.73,166.34,223.83,166.34,213.94Z"/><path d="M774.35,247.52c-11.18,0-21.07.08-31,0-6.55-.06-6.56-.18-5.33-6.75.82-4.45,2-8.86,2.41-13.34.52-5.83,3.44-7.42,9-7.13,8.18.41,16.41,0,24.61.13,3.33,0,5.12-.91,5.62-4.6.9-6.72,2.24-13.38,3.62-20,.68-3.24-.06-4.77-3.6-4.75-12.73.07-25.47.13-38.2,0-5-.06-5,3.73-5.66,6.89-3,14.39-6,28.77-8.58,43.23-.83,4.66-2.93,6.05-7.36,6-15.85-.16-31.7-.13-47.54,0-4.23,0-6.26-.79-5.22-5.81,6-29,11.85-58.14,17.68-87.23.74-3.64,2.61-5.1,6.46-5q24.6.8,49.22,1.13c4.2.05,5.24,1.18,4.32,5.52-1.71,8.09-1.38,8.21,7.18,8.21,24.91,0,49.81-.06,74.72,0,8.74,0,7.49-1.6,11.28,7.71,5.94,14.6,7.42,28.84,3.26,44.44-4.8,18-7.56,36.5-11,54.84-1,5.22-3,7.47-8.8,7.3-15.27-.45-30.56-.1-45.84-.18-6.89,0-7.28-.53-6-7.31C771,263.35,772.64,255.91,774.35,247.52Z"/><path d="M479,275.7q44.19-46.11,88.36-92.23l-.45-1.85c-2.58-.15-5.15-.42-7.73-.42-21.5,0-43,0-64.5,0-7.48,0-7.51-.11-7.61-7.41-.06-4.81.25-9.64-.07-14.43s1.82-5.66,6-5.65q68.32.14,136.65,0c6.65,0,10.27,4.5,13.72,8.67,2.86,3.46-.14,6.7-2.82,9.5-11,11.43-21.82,23-32.73,34.46-1.16,1.23-2.27,2.53-3.53,3.67-4,3.6-3.67,6.92-.13,10.86,12.86,14.31,25.5,28.8,38.22,43.24,3.34,3.79,6.64,7.63,10.73,12.32-2.75.58-4.48,1.24-6.2,1.25-16.7.08-33.39-.07-50.08.13A11.89,11.89,0,0,1,586.65,273c-5.22-6.33-10.7-12.44-16.19-18.53-4.22-4.68-5.07-4.75-9.47-.4-6.44,6.36-12.6,13-19.11,19.3-1.91,1.84-4.59,4-7,4.09-18.32.33-36.64.18-55,.18Z"/><path d="M374.15,230.68c0,13.3-.17,26.6.09,39.89.09,4.65-1.14,6.59-6.09,6.48q-18.25-.41-36.5,0c-4.75.1-6.35-1.52-6.41-6.28-.31-24-.9-48.09-1.4-72.14,0-1.41,0-2.82-.09-4.24-.26-8.56-.26-8.6-9.29-8.62-14.14,0-28.29,0-42.44,0-8.94,0-9-.07-9-8.63,0-5.61.32-11.22.49-16.83,5.83-.38,11.66-1,17.49-1.1,11.88-.17,23.77-.25,35.65,0,4.84.12,6.76-1.55,6.19-6.3-.17-1.39,0-2.83,0-4.24-.09-3.1,1.22-4.71,4.49-4.7q20.37.07,40.74,0c3.67,0,3.81,2.27,4,5,.67,10.11.74,10.11,10.59,10.11,12.45,0,24.91,0,37.36,0,7.61,0,7.64-.08,7.6-8s0-15.85-.34-23.77c-.19-4.68,2.05-5.65,6.16-5.62s6.4.71,6.33,5.52c-.16,10.74.1,21.5.15,32.25,0,1.12.19,3-.34,3.25-7.24,3.68-3.78,10.15-4,15.49-.3,6.65,0,6.73-7.17,6.76-15.85.05-31.69,0-47.54,0-8.44,0-8.3.05-8.21,8.32.12,12.44,0,24.89,0,37.33Z"/><path d="M414,277c-5.94,0-11.88-.12-17.82,0-3.79.1-5.57-1.1-5.79-5.24q-1.68-32.61-3.86-65.19c-.29-4.32.63-6.26,5.36-6.15,10.46.24,20.93.15,31.39,0,4-.05,6.08,1.13,6.53,5.64,2.1,21.08,4.61,42.13,6.82,63.2.79,7.58.58,7.62-7.36,7.67C424.17,277,419.08,277,414,277Z"/><path d="M266.16,239.35c.53-11,1.26-22,1.51-33.08.09-4.47,1.81-5.91,6.08-5.83q15.71.27,31.42,0c4.29-.07,6,1.37,5.93,5.88-.49,21.5-.78,43-1,64.52,0,4-1,6.3-5.74,6.2q-17-.36-34,0c-4.8.09-5.62-2.26-5.37-6.29.63-10.45,1.07-20.91,1.58-31.37Z"/><path d="M449.53,146.93c0-5.09.16-10.19,0-15.28-.15-3.66,1.19-5.27,4.89-4.89,2.87.3,6.75-1.13,6.88,3.86q.45,17,.7,33.95c.06,4.62-3.61,3.35-6.18,3.51-2.95.17-5.81.06-5.75-4.17.08-5.66,0-11.32,0-17Z"/></svg>